<?xml version="1.0" encoding="UTF-8"?>
<svg version="1.1" viewBox="0 0 112 112" xmlns="http://www.w3.org/2000/svg">
 <circle cx="56" cy="56" r="56" fill="#fff"/>
 <circle cx="56" cy="56" r="54" fill="#c1121c"/>
 <rect x="12" y="46" width="88" height="20" fill="#fff"/>
 <path d="m86 92h-10v-16h10v2.5h-7.5v4h4v2.5h-4v4.5h7.5zm-24.984-13.5h-4v13.5h-2.5v-13.5h-3.5v-2.5h10zm-12 13.5h-2.5l-6-11v11h-2.5v-16h2.5l6 10v-10h2.5zm24.967 0h-2.9665l-2.5-7h-3v7h-2.5v-16h5.8333c2.6749 0 5.1667 1 5.1333 4.3191 0.033468 2.6809-1.2705 3.6809-2.9665 4.1809zm-2.9665-11.5c0-0.98819-1-1.9765-2.5-2h-3v4h3c1.5-0.0069 2.5-0.95794 2.5-2zm-35 11.5h-10v-16h10v2.5h-7.5v4h4v2.5h-4v4.5h7.5zm25.484-56c-4 0-6-4-6-7.9651 0-4.0349 2-8.0349 6-8.0349s6 4 6 8.0124c0 3.9876-2 7.9876-6 7.9876zm0-13.5c-2.4688 0.0291-3.4524 2.9393-3.5 5.4651 0.03748 2.5153 0.9415 5.5354 3.5 5.5349 2.4999-0.0013 3.495-2.9566 3.5-5.5349-0.01251-2.4782-1.0086-5.4361-3.5-5.4651zm-8 13.5h-2.5l-6-11v11h-2.5v-16h2.5l6 10v-10h2.5z" fill="#fff"/>
</svg>
