<?xml version="1.0" encoding="UTF-8"?>
<svg version="1.1" viewBox="0 0 48 48" xmlns="http://www.w3.org/2000/svg">
 <path d="m25.001 0c-9.6001 0-16.801 7.2008-16.801 16.801 0 12 9.6015 23.999 16.802 31.199 7.2001-7.2 16.8-19.199 16.8-31.199 0-9.6-7.2009-16.801-16.801-16.801zm-4.8008 7.1992h9.6017l-1.2012 16.801h-7.1993zm4.8107 20.4c2.3489 5.3e-4 4.2526 1.6112 4.252 3.5977-6.91e-4 1.9856-1.904 3.5952-4.252 3.5957-2.348-5.29e-4 -4.2513-1.61-4.252-3.5957-5.93e-4 -1.9864 1.9031-3.5971 4.252-3.5977z" stroke-width="3.7796" style="paint-order:markers fill stroke"/>
</svg>
