<?xml version="1.0" encoding="UTF-8"?>
<svg version="1.1" viewBox="0 0 20 20" xmlns="http://www.w3.org/2000/svg">
 <path d="m3.9043 11.637-2.3223 1.1621c-0.77718 0.38859-0.77718 1.0138 0 1.4023l7.0156 3.5078c0.77718 0.38859 2.0275 0.38859 2.8047 0l7.0156-3.5078c0.77718-0.38859 0.77718-1.0138 0-1.4023l-2.3223-1.1621-3.7988 1.8984c-1.5452 0.77262-3.0485 0.77262-4.5938 0z" fill="#000"/>
 <path d="m11.247 3.295 6.2349 3.0877c0.69083 0.34211 0.69083 0.89295 0 1.2351l-6.2349 3.0877c-0.69083 0.34211-1.8031 0.34212-2.494 1e-6l-6.2349-3.0877c-0.69083-0.34211-0.69083-0.89295-1e-7 -1.2351l6.2349-3.0877c0.69083-0.34211 1.8031-0.34211 2.494 0z" fill="none" stroke="#000" stroke-width="2"/>
</svg>
