<?xml version="1.0" encoding="UTF-8"?>
<svg version="1.1" viewBox="0 0 239 143" xmlns="http://www.w3.org/2000/svg">
 <path d="m41.61 71.71v2.6559l1e-6 50.534v2.6559h12.394v-2.6559h-9.7383l-1e-6 -50.534h9.7383v-2.6559z" fill="#444"/>
 <path d="m176.18 12.46v2.6559h9.7383v53.25h-9.7383v2.6559h12.394v-58.562z" fill="#444"/>
 <path d="m0.0010504 136.9c47.862 0 73.48-5.509 73.48-5.509v6.1971s-25.618 5.7199-73.48 5.509z" fill="#82a04e"/>
 <path d="m156.7 100.6v7.0824c13.464-7.3645 34.254-19.807 82.333-19.241v-6.0386c-48.201 0.31758-68.618 10.443-82.333 18.197z" fill="#82a04e"/>
 <path d="m115.09 1.28-41.609 46.036-0.02611 96.32h83.454l-0.20928-96.32z" fill="#e3decc"/>
 <path d="m115.09 3.54-55.774 54.2 7.0824 7.0824 48.692-47.118 48.692 47.118 7.0824-7.0824z" fill-opacity=".2"/>
 <path d="m115.09 0-55.774 54.2 7.0824 7.0824 48.692-47.118 48.692 47.118 7.0824-7.0824z" fill="#c84747"/>
 <rect x="123.94" y="52.23" width="12.394" height="12.394" fill="#fff"/>
 <rect x="93.843" y="52.23" width="12.394" height="12.394" fill="#fff"/>
 <rect x="108.89" y="76.04" width="12.394" height="15.05" fill="#fff"/>
 <rect x="84.99" y="76.04" width="12.394" height="15.05" fill="#fff"/>
 <rect x="132.8" y="76.04" width="12.394" height="15.05" fill="#fff"/>
 <rect x="108.89" y="101.71" width="12.394" height="25.407" fill="#fff"/>
 <rect x="84.99" y="101.71" width="12.394" height="15.05" fill="#fff"/>
 <rect x="132.8" y="101.71" width="12.394" height="15.05" fill="#fff"/>
 <rect x="108.89" y="30.99" width="12.394" height="12.394" fill="#fff"/>
 <rect x="93.843" y="52.23" width="12.394" height="3.5412" fill-opacity=".2"/>
 <rect x="123.94" y="52.23" width="12.394" height="3.5412" fill-opacity=".2"/>
 <rect x="108.89" y="30.99" width="12.394" height="3.5412" fill-opacity=".2"/>
 <rect x="84.99" y="76.04" width="12.394" height="3.5412" fill-opacity=".2"/>
 <rect x="108.89" y="76.04" width="12.394" height="3.5412" fill-opacity=".2"/>
 <rect x="132.8" y="76.04" width="12.394" height="3.5412" fill-opacity=".2"/>
 <rect x="132.8" y="101.71" width="12.394" height="3.5412" fill-opacity=".2"/>
 <rect x="108.89" y="101.71" width="12.394" height="3.5412" fill-opacity=".2"/>
 <rect x="84.99" y="101.71" width="12.394" height="3.5412" fill-opacity=".2"/>
 <rect x="73.481" y="127.39" width="83.427" height="16.249" fill="#444" fill-opacity=".2"/>
 <rect x="243.45" y="113.48" width="4.4265" height="41.609" fill-opacity="0"/>
</svg>
