<?xml version="1.0" encoding="UTF-8" standalone="no"?>
<svg
   xmlns:dc="http://purl.org/dc/elements/1.1/"
   xmlns:cc="http://creativecommons.org/ns#"
   xmlns:rdf="http://www.w3.org/1999/02/22-rdf-syntax-ns#"
   xmlns:svg="http://www.w3.org/2000/svg"
   xmlns="http://www.w3.org/2000/svg"
   width="128"
   height="128"
   version="1.1"
   viewBox="0 0 128 128"
   id="svg4497">
  <metadata
     id="metadata4503">
    <rdf:RDF>
      <cc:Work
         rdf:about="">
        <dc:format>image/svg+xml</dc:format>
        <dc:type
           rdf:resource="http://purl.org/dc/dcmitype/StillImage" />
        <dc:title />
        <cc:license
           rdf:resource="http://creativecommons.org/licenses/by-sa/4.0/" />
        <dc:creator>
          <cc:Agent>
            <dc:title>Tobias Zwick</dc:title>
          </cc:Agent>
        </dc:creator>
      </cc:Work>
      <cc:License
         rdf:about="http://creativecommons.org/licenses/by-sa/4.0/">
        <cc:permits
           rdf:resource="http://creativecommons.org/ns#Reproduction" />
        <cc:permits
           rdf:resource="http://creativecommons.org/ns#Distribution" />
        <cc:requires
           rdf:resource="http://creativecommons.org/ns#Notice" />
        <cc:requires
           rdf:resource="http://creativecommons.org/ns#Attribution" />
        <cc:permits
           rdf:resource="http://creativecommons.org/ns#DerivativeWorks" />
        <cc:requires
           rdf:resource="http://creativecommons.org/ns#ShareAlike" />
      </cc:License>
    </rdf:RDF>
  </metadata>
  <defs
     id="defs4501">
    <clipPath
       id="clipPath16-1-0"
       clipPathUnits="userSpaceOnUse">
      <path
         id="path18-3-2"
         d="M 0,38 H 38 V 0 H 0 Z" />
    </clipPath>
    <clipPath
       id="clipPath16-1-4-4"
       clipPathUnits="userSpaceOnUse">
      <path
         id="path18-85-8-0"
         d="M 0,36 H 36 V 0 H 0 Z" />
    </clipPath>
    <clipPath
       id="clipPath32-8-7"
       clipPathUnits="userSpaceOnUse">
      <path
         id="path34-5-0-1"
         d="M 11.815,23.013 C 4.2,15.397 -1.265,2.86 0.502,1.093 v 0 c 1.768,-1.768 14.305,3.698 21.92,11.313 v 0 c 7.616,7.615 7.562,11.53 4.243,14.85 v 0 c -1.328,1.328 -2.752,2.133 -4.47,2.133 v 0 c -2.575,0 -5.812,-1.809 -10.38,-6.376" />
    </clipPath>
    <clipPath
       id="clipPath16-1-4-4-0"
       clipPathUnits="userSpaceOnUse">
      <path
         id="path18-85-8-0-7"
         d="M 0,36 H 36 V 0 H 0 Z" />
    </clipPath>
    <clipPath
       id="clipPath32-8-7-8"
       clipPathUnits="userSpaceOnUse">
      <path
         id="path34-5-0-1-0"
         d="M 11.815,23.013 C 4.2,15.397 -1.265,2.86 0.502,1.093 v 0 c 1.768,-1.768 14.305,3.698 21.92,11.313 v 0 c 7.616,7.615 7.562,11.53 4.243,14.85 v 0 c -1.328,1.328 -2.752,2.133 -4.47,2.133 v 0 c -2.575,0 -5.812,-1.809 -10.38,-6.376" />
    </clipPath>
    <clipPath
       id="clipPath44"
       clipPathUnits="userSpaceOnUse">
      <path
         id="path46-1"
         d="M 7,35 C 5.896,35 5,34.105 5,33 V 33 3 C 5,1.895 5.896,1 7,1 v 0 h 18 c 1.105,0 2,0.895 2,2 v 0 30 c 0,1.105 -0.895,2 -2,2 v 0 z" />
    </clipPath>
    <clipPath
       id="clipPath16-4-5"
       clipPathUnits="userSpaceOnUse">
      <path
         id="path18-5-7"
         d="M 0,38 H 38 V 0 H 0 Z" />
    </clipPath>
    <clipPath
       id="clipPath56-9"
       clipPathUnits="userSpaceOnUse">
      <path
         id="path58-7"
         d="M 0,38 H 38 V 0 H 0 Z" />
    </clipPath>
    <clipPath
       id="clipPath44-2"
       clipPathUnits="userSpaceOnUse">
      <path
         id="path46-1-8"
         d="M 7,35 C 5.896,35 5,34.105 5,33 V 33 3 C 5,1.895 5.896,1 7,1 v 0 h 18 c 1.105,0 2,0.895 2,2 v 0 30 c 0,1.105 -0.895,2 -2,2 v 0 z" />
    </clipPath>
    <clipPath
       id="clipPath16-1-0-8"
       clipPathUnits="userSpaceOnUse">
      <path
         id="path18-3-2-0"
         d="M 0,38 H 38 V 0 H 0 Z" />
    </clipPath>
    <clipPath
       id="clipPath16-1-0-9"
       clipPathUnits="userSpaceOnUse">
      <path
         id="path18-3-2-1"
         d="M 0,38 H 38 V 0 H 0 Z" />
    </clipPath>
  </defs>
  <g
     transform="translate(-1208,-784.00005)"
     id="apple">
    <path
       d="m 1336,848.00005 c 0,35.346 -28.654,64 -64,64 -35.346,0 -64,-28.654 -64,-64 0,-35.346 28.654,-64 64,-64 35.346,0 64,28.654 64,64"
       id="path4485-9-6-7-1-8-8-8"
       style="fill:#b9a065;fill-opacity:1;stroke-width:0.2" />
    <path
       style="fill:#000000;fill-opacity:0.2;stroke-width:1.88046"
       d="m 1257.8556,803.71036 c -2.7074,0.11517 -5.3643,1.38651 -7.1367,3.66797 -3.151,4.05593 -2.3743,9.83725 1.6816,12.98828 1.2584,0.97764 3.7001,1.70553 6.4688,2.24609 -12.8595,-0.18755 -27.0469,6.08799 -27.0469,29.1836 0,20.49817 20.7711,44.19726 31.3262,44.19726 4.7421,0 6.2635,-2.00781 9.1699,-2.00781 2.7535,0 3.8323,2.00781 9.9512,2.00781 10.555,0 29.539,-23.06175 29.539,-43.71289 0,-30.48058 -24.7419,-32.10516 -36.8594,-27.84375 0.6189,-3.72084 3.3108,-12.11914 14.2051,-12.11914 v -3.97656 c -11.0407,0 -15.8544,6.312 -17.5644,12.24023 -1.6899,-4.70893 -4.8839,-12.77175 -7.7168,-14.97265 -1.7745,-1.37858 -3.9119,-1.98802 -6.0176,-1.89844 z"
       id="path5491-1" />
    <g
       transform="matrix(1.5297143,0,0,1.5297143,1224.0378,797.06571)"
       id="g5508">
      <path
         style="fill:#83bf4f;stroke-width:1.22929"
         id="path5491"
         d="m 32.007415,14.992564 c 0,0 -10.682705,-0.37149 -13.334135,-2.431371 -2.651431,-2.059881 -3.157992,-5.838859 -1.098111,-8.4902895 2.059881,-2.6514304 5.946987,-3.2164729 8.598417,-1.1565919 2.651431,2.0598811 5.833829,12.0782524 5.833829,12.0782524 z" />
      <path
         style="fill:#947151"
         id="path5493"
         d="m 30.7,16.3 c 0,-4.3 2.4,-11.6 12,-11.6 v 2.6 c -8.7,0 -9.4,8.2 -9.4,9 z" />
      <path
         style="fill:#ef4d3c"
         id="path5495"
         d="M 32,15.8 C 23.509096,12.377697 5.221044,11.907504 5.221044,33.107504 5.221044,46.507504 18.8,62 25.7,62 28.8,62 29.794236,60.687466 31.694236,60.687466 33.494236,60.687466 34.2,62 38.2,62 45.1,62 57.509788,46.924796 57.509788,33.424796 57.509788,12.224796 39.1983,12.377697 32,15.8 Z" />
    </g>
  </g>
</svg>
