<?xml version="1.0" encoding="UTF-8"?>
<svg version="1.1" viewBox="0 0 128 128" xmlns="http://www.w3.org/2000/svg">
 <path d="m128 64c0 35.346-28.654 64-64 64s-64-28.654-64-64 28.654-64 64-64 64 28.654 64 64" fill="#9bbe55" stroke-width=".2"/>
 <g transform="translate(-1208 -784)">
  <g transform="matrix(3.3466 0 0 -3.3466 1209.5 914.23)" fill-opacity=".2">
   <path d="m15.431 12.309c-1.513 0.06-3.773-0.47-5.538-2.687-0.534 0.294-1.202 0.317-1.778 4e-3 -0.898-0.489-1.23-1.613-0.741-2.511 0.428-0.785 1.31-1.645 2.504-1.698 0.039-2e-3 0.079-3e-3 0.119-3e-3 0.714 0 1.696 0.288 2.544 1.559 1.214 1.821 2.748 1.651 2.945 1.622 0.516-0.099 1.022 0.032 1.42 0.318-0.558 0.956-0.344 2.441-1.475 3.396"/>
   <path d="m29.718 9.6367c-0.581 0.315-1.255 0.293-1.79-5e-3 -1.698 2.128-3.849 2.692-5.357 2.678-1.156-0.975-0.912-2.499-1.514-3.451 0.373-0.229 0.822-0.336 1.281-0.265 0.173 0.028 1.724 0.218 2.949-1.621 0.848-1.272 1.831-1.559 2.544-1.559 0.041 0 0.08 1e-3 0.119 3e-3 1.194 0.053 2.077 0.912 2.504 1.698 0.49 0.898 0.162 2.033-0.736 2.522"/>
   <path d="m29.06 18.06c-0.508 0.508-1.291 0.576-1.872 0.201-0.14 0.037-0.516 0.187-1.128 0.799-2.031 2.031-4.096 2.859-5.466 3.199 1.348 0.45 2.455 1.456 3.086 2.759 0.742 0.09 1.319 0.715 1.319 1.481 0 0.56-0.31 1.042-0.764 1.3-0.15 2.898-2.433 5.2-5.236 5.2-2.802 0-5.085-2.302-5.235-5.2-0.454-0.258-0.765-0.74-0.765-1.3 0-0.766 0.578-1.391 1.32-1.481 0.631-1.303 1.739-2.309 3.086-2.759-1.37-0.34-3.435-1.168-5.466-3.199-0.612-0.612-0.988-0.762-1.128-0.799-0.582 0.375-1.364 0.308-1.872-0.201-0.586-0.586-0.586-1.535 0-2.121 0.047-0.048 0.712-0.691 1.83-0.691 0.856 0 1.979 0.378 3.291 1.691 0.408 0.408 0.809 0.731 1.202 1.019-0.119-0.494-0.185-0.988-0.185-1.453 0-2.423 1.755-2.506 3.922-2.506 2.166 0 3.923 0.083 3.923 2.506 0 0.465-0.065 0.959-0.185 1.453 0.393-0.288 0.794-0.611 1.202-1.019 1.312-1.314 2.434-1.691 3.291-1.691 1.117 0 1.782 0.643 1.83 0.691 0.586 0.586 0.586 1.535 0 2.121"/>
  </g>
  <g transform="matrix(3.3466 0 0 -3.3466 1209.8 910.49)" fill="#fff">
   <path d="m15.431 12.309c-1.513 0.06-3.773-0.47-5.538-2.687-0.534 0.294-1.202 0.317-1.778 4e-3 -0.898-0.489-1.23-1.613-0.741-2.511 0.428-0.785 1.31-1.645 2.504-1.698 0.039-2e-3 0.079-3e-3 0.119-3e-3 0.714 0 1.696 0.288 2.544 1.559 1.214 1.821 2.748 1.651 2.945 1.622 0.516-0.099 1.022 0.032 1.42 0.318-0.558 0.956-0.344 2.441-1.475 3.396"/>
   <path d="m29.718 9.6367c-0.581 0.315-1.255 0.293-1.79-5e-3 -1.698 2.128-3.849 2.692-5.357 2.678-1.156-0.975-0.912-2.499-1.514-3.451 0.373-0.229 0.822-0.336 1.281-0.265 0.173 0.028 1.724 0.218 2.949-1.621 0.848-1.272 1.831-1.559 2.544-1.559 0.041 0 0.08 1e-3 0.119 3e-3 1.194 0.053 2.077 0.912 2.504 1.698 0.49 0.898 0.162 2.033-0.736 2.522"/>
   <path d="m29.06 18.06c-0.508 0.508-1.291 0.576-1.872 0.201-0.14 0.037-0.516 0.187-1.128 0.799-2.031 2.031-4.096 2.859-5.466 3.199 1.348 0.45 2.455 1.456 3.086 2.759 0.742 0.09 1.319 0.715 1.319 1.481 0 0.56-0.31 1.042-0.764 1.3-0.15 2.898-2.433 5.2-5.236 5.2-2.802 0-5.085-2.302-5.235-5.2-0.454-0.258-0.765-0.74-0.765-1.3 0-0.766 0.578-1.391 1.32-1.481 0.631-1.303 1.739-2.309 3.086-2.759-1.37-0.34-3.435-1.168-5.466-3.199-0.612-0.612-0.988-0.762-1.128-0.799-0.582 0.375-1.364 0.308-1.872-0.201-0.586-0.586-0.586-1.535 0-2.121 0.047-0.048 0.712-0.691 1.83-0.691 0.856 0 1.979 0.378 3.291 1.691 0.408 0.408 0.809 0.731 1.202 1.019-0.119-0.494-0.185-0.988-0.185-1.453 0-2.423 1.755-2.506 3.922-2.506 2.166 0 3.923 0.083 3.923 2.506 0 0.465-0.065 0.959-0.185 1.453 0.393-0.288 0.794-0.611 1.202-1.019 1.312-1.314 2.434-1.691 3.291-1.691 1.117 0 1.782 0.643 1.83 0.691 0.586 0.586 0.586 1.535 0 2.121"/>
  </g>
 </g>
</svg>
