<?xml version="1.0" encoding="UTF-8" standalone="no"?>
<svg
   xmlns:dc="http://purl.org/dc/elements/1.1/"
   xmlns:cc="http://creativecommons.org/ns#"
   xmlns:rdf="http://www.w3.org/1999/02/22-rdf-syntax-ns#"
   xmlns:svg="http://www.w3.org/2000/svg"
   xmlns="http://www.w3.org/2000/svg"
   xmlns:sodipodi="http://sodipodi.sourceforge.net/DTD/sodipodi-0.dtd"
   xmlns:inkscape="http://www.inkscape.org/namespaces/inkscape"
   width="128"
   height="128"
   version="1.1"
   viewBox="0 0 128 128"
   id="svg4497"
   sodipodi:docname="beach.svg"
   inkscape:version="1.0 (4035a4fb49, 2020-05-01)">
  <sodipodi:namedview
     inkscape:document-rotation="0"
     pagecolor="#ffffff"
     bordercolor="#666666"
     borderopacity="1"
     objecttolerance="10"
     gridtolerance="10"
     guidetolerance="10"
     inkscape:pageopacity="0"
     inkscape:pageshadow="2"
     inkscape:window-width="1532"
     inkscape:window-height="907"
     id="namedview34"
     showgrid="false"
     inkscape:zoom="1.0150849"
     inkscape:cx="195.26317"
     inkscape:cy="151.22865"
     inkscape:window-x="0"
     inkscape:window-y="0"
     inkscape:window-maximized="0"
     inkscape:current-layer="apple">
    <inkscape:grid
       type="xygrid"
       id="grid1013" />
  </sodipodi:namedview>
  <metadata
     id="metadata4503">
    <rdf:RDF>
      <cc:Work
         rdf:about="">
        <dc:format>image/svg+xml</dc:format>
        <dc:type
           rdf:resource="http://purl.org/dc/dcmitype/StillImage" />
        <dc:title />
        <cc:license
           rdf:resource="http://creativecommons.org/licenses/by-sa/4.0/" />
        <dc:creator>
          <cc:Agent>
            <dc:title>Tobias Zwick</dc:title>
          </cc:Agent>
        </dc:creator>
      </cc:Work>
      <cc:License
         rdf:about="http://creativecommons.org/licenses/by-sa/4.0/">
        <cc:permits
           rdf:resource="http://creativecommons.org/ns#Reproduction" />
        <cc:permits
           rdf:resource="http://creativecommons.org/ns#Distribution" />
        <cc:requires
           rdf:resource="http://creativecommons.org/ns#Notice" />
        <cc:requires
           rdf:resource="http://creativecommons.org/ns#Attribution" />
        <cc:permits
           rdf:resource="http://creativecommons.org/ns#DerivativeWorks" />
        <cc:requires
           rdf:resource="http://creativecommons.org/ns#ShareAlike" />
      </cc:License>
    </rdf:RDF>
  </metadata>
  <defs
     id="defs4501">
    <clipPath
       id="clipPath16-1-0"
       clipPathUnits="userSpaceOnUse">
      <path
         id="path18-3-2"
         d="M 0,38 H 38 V 0 H 0 Z" />
    </clipPath>
    <clipPath
       id="clipPath16-1-4-4"
       clipPathUnits="userSpaceOnUse">
      <path
         id="path18-85-8-0"
         d="M 0,36 H 36 V 0 H 0 Z" />
    </clipPath>
    <clipPath
       id="clipPath32-8-7"
       clipPathUnits="userSpaceOnUse">
      <path
         id="path34-5-0-1"
         d="M 11.815,23.013 C 4.2,15.397 -1.265,2.86 0.502,1.093 v 0 c 1.768,-1.768 14.305,3.698 21.92,11.313 v 0 c 7.616,7.615 7.562,11.53 4.243,14.85 v 0 c -1.328,1.328 -2.752,2.133 -4.47,2.133 v 0 c -2.575,0 -5.812,-1.809 -10.38,-6.376" />
    </clipPath>
    <clipPath
       id="clipPath16-1-4-4-0"
       clipPathUnits="userSpaceOnUse">
      <path
         id="path18-85-8-0-7"
         d="M 0,36 H 36 V 0 H 0 Z" />
    </clipPath>
    <clipPath
       id="clipPath32-8-7-8"
       clipPathUnits="userSpaceOnUse">
      <path
         id="path34-5-0-1-0"
         d="M 11.815,23.013 C 4.2,15.397 -1.265,2.86 0.502,1.093 v 0 c 1.768,-1.768 14.305,3.698 21.92,11.313 v 0 c 7.616,7.615 7.562,11.53 4.243,14.85 v 0 c -1.328,1.328 -2.752,2.133 -4.47,2.133 v 0 c -2.575,0 -5.812,-1.809 -10.38,-6.376" />
    </clipPath>
    <clipPath
       id="clipPath44"
       clipPathUnits="userSpaceOnUse">
      <path
         id="path46-1"
         d="M 7,35 C 5.896,35 5,34.105 5,33 V 33 3 C 5,1.895 5.896,1 7,1 v 0 h 18 c 1.105,0 2,0.895 2,2 v 0 30 c 0,1.105 -0.895,2 -2,2 v 0 z" />
    </clipPath>
    <clipPath
       id="clipPath16-4-5"
       clipPathUnits="userSpaceOnUse">
      <path
         id="path18-5-7"
         d="M 0,38 H 38 V 0 H 0 Z" />
    </clipPath>
    <clipPath
       id="clipPath56-9"
       clipPathUnits="userSpaceOnUse">
      <path
         id="path58-7"
         d="M 0,38 H 38 V 0 H 0 Z" />
    </clipPath>
    <clipPath
       id="clipPath44-2"
       clipPathUnits="userSpaceOnUse">
      <path
         id="path46-1-8"
         d="M 7,35 C 5.896,35 5,34.105 5,33 V 33 3 C 5,1.895 5.896,1 7,1 v 0 h 18 c 1.105,0 2,0.895 2,2 v 0 30 c 0,1.105 -0.895,2 -2,2 v 0 z" />
    </clipPath>
    <clipPath
       id="clipPath16-1-0-8"
       clipPathUnits="userSpaceOnUse">
      <path
         id="path18-3-2-0"
         d="M 0,38 H 38 V 0 H 0 Z" />
    </clipPath>
    <clipPath
       id="clipPath16-1-0-9"
       clipPathUnits="userSpaceOnUse">
      <path
         id="path18-3-2-1"
         d="M 0,38 H 38 V 0 H 0 Z" />
    </clipPath>
  </defs>
  <g
     transform="translate(-1208,-784.00005)"
     id="apple">
    <path
       d="m 1336,848.00005 c 0,35.346 -28.654,64 -64,64 -35.346,0 -64,-28.654 -64,-64 0,-35.346 28.654,-64 64,-64 35.346,0 64,28.654 64,64"
       id="path4485-9-6-7-1-8-8-8"
       style="fill:#bdd6e1;fill-opacity:1;stroke-width:0.2" />
    <path
       id="path4485-9-6-7-1-8-8-8-2"
       style="fill:#529add;fill-opacity:1;stroke-width:0.2"
       d="M 0.68359375,54.675781 C 0.23899208,57.720606 0,60.831831 0,64 c 0,35.346 28.654,64 64,64 35.346,0 64,-28.654 64,-64 0,-3.168169 -0.23899,-6.279394 -0.68359,-9.324219 -41.877529,-3.834208 -84.098559,-3.718161 -126.63281625,0 z"
       transform="translate(1208,784.00005)"
       sodipodi:nodetypes="cssscc" />
    <path
       d="m 1313.7207,855.70005 c -17.8767,0 -36.8576,4.85702 -49.6582,6.40234 -18.7596,2.20753 -22.51,-5.29932 -40.8281,-3.09179 -3.9032,0.40678 -8.8244,1.9238 -13.4844,3.67578 6.6383,28.26634 31.9956,49.31836 62.2871,49.31836 31.8674,0 58.2846,-23.29517 63.1777,-53.78321 -1.4837,-0.34829 -11.1073,-2.52148 -21.4941,-2.52148 z"
       style="fill:#f4d4a5;fill-opacity:1;stroke-width:0.2"
       id="path4485-9-6-7-1-8-8-8-8" />
    <path
       inkscape:connector-curvature="0"
       d="m 1231.4071,877.93296 2.8247,-2.8253 2.8246,2.8253 -2.8246,2.82529 z"
       id="path5271"
       style="fill:#ffebd2;stroke-width:1.45424" />
    <path
       inkscape:connector-curvature="0"
       d="m 1239.0996,883.61536 2.8247,-2.82529 2.8246,2.82529 -2.8246,2.8253 z"
       id="path5273"
       style="fill:#ffebd2;stroke-width:1.45424" />
    <path
       inkscape:connector-curvature="0"
       d="m 1240.5134,874.85097 1.4123,-1.41264 1.4123,1.41264 -1.4123,1.41265 z"
       id="path5275"
       style="fill:#ffebd2;stroke-width:1.45424" />
    <path
       inkscape:connector-curvature="0"
       d="m 1249.6855,880.65995 1.4123,-1.41264 1.4124,1.41264 -1.4124,1.41266 z"
       id="path5277"
       style="fill:#ffebd2;stroke-width:1.45424" />
    <path
       inkscape:connector-curvature="0"
       d="m 1231.392,886.2916 1.4123,-1.41265 1.4123,1.41265 -1.4123,1.41264 z"
       id="path5279"
       style="fill:#ffebd2;stroke-width:1.45424" />
    <path
       inkscape:connector-curvature="0"
       d="m 1223.9529,880.53324 1.4123,-1.41265 1.4123,1.41265 -1.4123,1.41264 z"
       id="path5281"
       style="fill:#ffebd2;stroke-width:1.45424" />
    <path
       inkscape:connector-curvature="0"
       d="m 1247.6596,869.34562 2.8247,-2.82529 2.8246,2.82529 -2.8246,2.82529 z"
       id="path5283"
       style="fill:#ffebd2;stroke-width:1.45424" />
    <path
       inkscape:connector-curvature="0"
       d="m 1273.4063,873.10697 1.6812,-1.68163 1.6814,1.68163 -1.6814,1.68161 z"
       id="path5285"
       style="fill:#ffebd2;stroke-width:1.73114" />
    <path
       inkscape:connector-curvature="0"
       d="m 1290.3261,879.75129 1.6813,-1.68163 1.6812,1.68163 -1.6812,1.68161 z"
       id="path5287"
       style="fill:#ffebd2;stroke-width:1.73114" />
    <path
       inkscape:connector-curvature="0"
       d="m 1295.1194,873.04702 1.6812,-1.68162 1.6813,1.68162 -1.6813,1.68163 z"
       id="path5289"
       style="fill:#ffebd2;stroke-width:1.73114" />
    <path
       inkscape:connector-curvature="0"
       d="m 1302.9427,876.4739 1.6812,-1.68161 1.6813,1.68161 -1.6813,1.68162 z"
       id="path5291"
       style="fill:#ffebd2;stroke-width:1.73114" />
    <path
       inkscape:connector-curvature="0"
       d="m 1309.719,867.93637 1.6812,-1.68163 1.6813,1.68163 -1.6813,1.68161 z"
       id="path5293"
       style="fill:#ffebd2;stroke-width:1.73114" />
    <path
       inkscape:connector-curvature="0"
       d="m 1273.6919,897.57446 2.188,-2.18854 2.1881,2.18854 -2.1881,2.18855 z"
       id="path5295"
       style="fill:#ffebd2;stroke-width:2.25299" />
    <path
       inkscape:connector-curvature="0"
       d="m 1261.4011,905.12186 2.188,-2.18855 2.1881,2.18855 -2.1881,2.18856 z"
       id="path5297"
       style="fill:#ffebd2;stroke-width:2.25299" />
    <path
       inkscape:connector-curvature="0"
       d="m 1262.7035,896.22244 2.188,-2.18856 2.188,2.18856 -2.188,2.18855 z"
       id="path5299"
       style="fill:#ffebd2;stroke-width:2.25299" />
    <path
       inkscape:connector-curvature="0"
       d="m 1283.2439,874.97968 3.3624,-3.36324 3.3625,3.36324 -3.3625,3.36325 z"
       id="path5301"
       style="fill:#ffebd2;stroke-width:1.73114" />
    <path
       inkscape:connector-curvature="0"
       d="m 1264.934,889.90428 4.3759,-4.37711 4.3761,4.37711 -4.3761,4.37709 z"
       id="path5303"
       style="fill:#ffebd2;stroke-width:2.25299" />
    <path
       inkscape:connector-curvature="0"
       d="m 1311.4326,880.0684 3.3624,-3.36324 3.3625,3.36324 -3.3625,3.36324 z"
       id="path5305"
       style="fill:#ffebd2;stroke-width:1.73114" />
    <path
       id="path5309"
       d="m 1329.798,869.5147 c 0,2.24295 -4.8586,1.86964 -10.4647,1.12055 -2.9899,4.48593 -6.7273,6.35518 -8.9697,6.35518 -1.1212,0 -2.2425,-4.48593 -1.8687,-8.59813 -5.6061,-1.49612 -9.7172,-3.73826 -9.3435,-5.23357 1.1214,-9.34557 31.0203,1.86964 30.6466,6.35516"
       inkscape:connector-curvature="0"
       style="fill:#a38982;stroke-width:1.90483" />
    <path
       d="m 1208.0859,847.9996 c -0.091,0.99416 0.054,1.97144 0.01,2.97823 10.6543,-0.0575 21.3086,-2.31062 31.9629,0 12.8642,3.19204 21.8288,0.75141 31.9629,0 6.6804,-1.12083 12.8357,-2.38978 31.9629,0 10.7668,0.33751 21.8015,1.47877 31.9629,0 -0.045,-1.00679 0.056,-2.00584 -0.035,-3 -10.8651,1.47358 -21.4707,0.34625 -32.0325,0 -10.3723,-0.13969 -14.7489,-3.6683 -31.8584,0 -11.5835,2.31363 -21.9051,1.59884 -31.8584,0 -9.5609,-1.32323 -21.3458,-0.11672 -32.0761,0.0218 z"
       style="fill:#3581c8;fill-opacity:1;stroke-width:0.2"
       id="path4485-9-6-7-1-8-8-8-6"
       sodipodi:nodetypes="ccccccccccc" />
    <path
       id="path5311"
       d="m 1311.1111,843.34681 c 1.121,-0.37352 4.8585,2.99062 8.2222,7.85026 5.9798,-1.49612 10.4647,-2.24295 10.4647,-1.12055 0.3735,1.49612 -1.1214,5.60729 -4.4849,10.84088 2.9899,4.85985 4.8586,8.59811 3.7374,9.34578 -1.495,1.49612 -5.2323,0.37351 -10.8384,-1.12261 -3.7374,4.11219 -6.3536,7.10281 -8.596,6.72888 -1.1212,0 -1.495,-4.48592 -1.8687,-10.09322 -5.6061,-2.24297 -8.9697,-4.85986 -9.3434,-6.72889 -0.374,-1.12056 4.1111,-2.99062 9.7171,-4.85985 0.7475,-5.6073 1.8687,-10.46715 2.99,-10.84088"
       inkscape:connector-curvature="0"
       style="fill:#f27a52;stroke-width:1.90483" />
    <path
       d="m 1209.5957,833.67583 c -0.4515,1.55977 -1.2157,7.23102 -1.3739,9 10.4781,-0.6516 21.3499,-1.84847 32.1405,0 10.3373,1.33379 21.0245,0.56807 31.6787,0 10.3968,-0.81388 20.9535,-0.82799 31.6787,0 11.1272,1.7029 21.508,0.0585 32.0481,0 -0.062,-1.1499 -0.7667,-6.90322 -1.2815,-9 -2.6234,0.53074 -8.3967,0.84671 -31.2226,0 -10.3823,-0.10132 -20.4289,-1.54517 -31.2227,0 -11.7311,1.32351 -22.7199,1.90479 -31.2226,0 -10.8929,-1.45592 -21.2582,-1.32929 -31.2227,0 z"
       style="fill:#3581c8;fill-opacity:1;stroke-width:0.2"
       id="path4485-9-6-7-1-8-8-8-7"
       sodipodi:nodetypes="ccccccccccc" />
  </g>
</svg>
