<?xml version="1.0" encoding="UTF-8"?>
<svg version="1.1" viewBox="0 0 128 128" xmlns="http://www.w3.org/2000/svg">
 <path d="m128 64c0 35.346-28.654 64-64 64-35.346 0-64-28.654-64-64 0-35.346 28.654-64 64-64 35.346 0 64 28.654 64 64" fill="#ca72e2" stroke-width=".2"/>
 <path d="m36.222 24h55.056c4.6935 0 8.472 3.7785 8.472 8.472v63.056c0 4.6935-3.7785 8.472-8.472 8.472h-55.056c-4.6935 0-8.472-3.7785-8.472-8.472v-63.056c0-4.6935 3.7785-8.472 8.472-8.472z" fill="none" stroke="#000" stroke-opacity=".2" stroke-width="8" style="paint-order:normal"/>
 <path d="m36.347 20.111h55.056c4.6935 0 8.472 3.7785 8.472 8.472v63.056c0 4.6935-3.7785 8.472-8.472 8.472h-55.056c-4.6935 0-8.472-3.7785-8.472-8.472v-63.056c0-4.6935 3.7785-8.472 8.472-8.472z" fill="#495aad" stroke="#fff" stroke-opacity=".98995" stroke-width="8" style="paint-order:normal"/>
 <path d="m67.194 83.081a7.1936 7.1936 0 0 1-7.1936 7.1936 7.1936 7.1936 0 0 1-7.1936-7.1936 7.1936 7.1936 0 0 1 7.1936-7.1936 7.1936 7.1936 0 0 1 7.1936 7.1936m23.443-0.0013a7.1936 7.1936 0 0 1-7.1936 7.1936 7.1936 7.1936 0 0 1-7.1936-7.1936 7.1936 7.1936 0 0 1 7.1936-7.1936 7.1936 7.1936 0 0 1 7.1936 7.1936m-26.637-11.08 9.0919 11.04h10.391l-7.1436-11.04h-12.339m12.339-2.5977 3.1651-0.0065m-6.4122 13.644 3.2471-13.638m-16.236 13.638 5.4127-16.115h5.1954" fill="none" stroke="#fff" stroke-linecap="round" stroke-linejoin="round" stroke-width="2.5" style="paint-order:normal"/>
 <path d="m44 76v-40h12s12 0 12 12c0 12-12 12-12 12h-12" fill="none" stroke="#fff" stroke-linecap="square" stroke-width="8"/>
</svg>
