<?xml version="1.0" encoding="UTF-8"?>
<svg version="1.1" viewBox="0 0 128 128" xmlns="http://www.w3.org/2000/svg">
 <path d="m128 64c0 35.346-28.654 64-64 64s-64-28.654-64-64 28.654-64 64-64 64 28.654 64 64" fill="#ca72e2" stroke-width=".2"/>
 <path d="m36.222 24h55.056c4.6935 0 8.472 3.7785 8.472 8.472v63.056c0 4.6935-3.7785 8.472-8.472 8.472h-55.056c-4.6935 0-8.472-3.7785-8.472-8.472v-63.056c0-4.6935 3.7785-8.472 8.472-8.472z" fill="none" stroke="#000" stroke-opacity=".2" stroke-width="8" style="paint-order:normal"/>
 <path d="m36.347 20.111h55.056c4.6935 0 8.472 3.7785 8.472 8.472v63.056c0 4.6935-3.7785 8.472-8.472 8.472h-55.056c-4.6935 0-8.472-3.7785-8.472-8.472v-63.056c0-4.6935 3.7785-8.472 8.472-8.472z" fill="#495aad" stroke="#fff" stroke-opacity=".98995" stroke-width="8" style="paint-order:normal"/>
 <path d="m57.67 77.442a9.8578 9.8578 0 0 1-9.8578 9.8578 9.8578 9.8578 0 0 1-9.8578-9.8578 9.8578 9.8578 0 0 1 9.8578-9.8578 9.8578 9.8578 0 0 1 9.8578 9.8578m32.125-2e-3a9.8578 9.8578 0 0 1-9.8579 9.8578 9.8578 9.8578 0 0 1-9.8578-9.8578 9.8578 9.8578 0 0 1 9.8578-9.8578 9.8578 9.8578 0 0 1 9.8579 9.8578m-36.502-15.183 12.459 15.129h14.239l-9.7894-15.129h-16.909m16.909-3.5598 4.3373-9e-3m-8.787 18.698 4.4497-18.689m-22.249 18.689 7.4174-22.084h7.1196" fill="none" stroke="#fff" stroke-linecap="round" stroke-linejoin="round" stroke-width="3.4259" style="paint-order:normal"/>
 <path d="m42.579 56.722 21.296-21.296 21.296 21.296" fill="none" stroke="#fff" stroke-linecap="square" stroke-width="5.9629"/>
</svg>
