<?xml version="1.0" encoding="UTF-8"?>
<svg version="1.1" viewBox="0 0 128 128" xmlns="http://www.w3.org/2000/svg">
 <path d="m128 64c0 35.346-28.654 64-64 64-35.346 0-64-28.654-64-64 0-35.346 28.654-64 64-64 35.346 0 64 28.654 64 64" fill="#529add" stroke-width=".2"/>
 <path d="m92.422 79.992 16.697 29.377c3.0226-3.0054 5.7459-6.3104 8.123-9.8672l-14.854-19.51zm-66.023 0.007812-15.354 19.957c2.4026 3.5304 5.1551 6.8008 8.1973 9.7773l17.156-29.734zm17.029 0-16.107 36.416c1.8389 1.2898 3.7449 2.4898 5.7188 3.584h8.9609l11-40zm15.572 0-4.0176 40.004h18l-3.9824-40.004zm16.504 0 10.5 40h8.9961c2.327-1.29 4.5634-2.7231 6.7012-4.2832l-16.02-35.717z" fill-opacity=".2" style="paint-order:stroke fill markers"/>
 <path d="m59.018 75.996-4.0176 40.004h18l-3.9824-40.004zm-32.59 0.003906-16.77 21.799c2.3519 3.7733 5.0886 7.2789 8.1504 10.473l18.619-32.271zm17 0-17.459 39.471 1.0312 0.5293h15l11-40zm32.072 0 10.5 40h15l2.0352-1.2988-17.357-38.701zm16.941 0 18.121 31.881c3.0397-3.2242 5.7588-6.7537 8.082-10.555l-16.236-21.326z" fill="#fff" style="paint-order:stroke fill markers"/>
 <g transform="matrix(.2165 0 0 -.2165 114.62 84.504)" fill="#fff" shape-rendering="auto" style="paint-order:stroke fill markers">
  <path d="m-313.77 299.64c-29.381 0-53.497-24.116-53.497-53.497 0-17.02 8.1196-32.236 20.641-42.058-46.269-21.234-69.565-64.995-69.212-109.2 0-19.054 15.82-34.77 34.877-34.597 5.6407 0.0511 10.893 1.6114 15.598 4.1047-1.2355-9.388-2.9584-17.843-5.7376-25.792-5.565-15.919-15.184-30.723-35.95-48.842l0.1894 0.16241c-14.666-12.335-16.39-34.746-3.789-49.185 12.589-14.425 34.986-15.747 49.194-2.9229 23.84 20.838 39.099 43.018 49.014 65.261 4.3834-13.546 7.4989-28.144 10.564-45.251 9e-4 -6e-3 -9e-4 -0.012 0-0.018l0.046-0.17141c2.7261-16.038 16.492-28.132 32.766-28.751 21.929-0.83502 39.417 19.567 35.247 41.111v9e-3c-5.9487 33.191-14.364 65.975-32.766 98.495 3.9912-2.3263 8.121-4.6052 12.54-6.766 4.8489-2.4433 10.213-3.7117 15.643-3.6988 4.9487 0.012 9.7095 1.086 14.028 3.0312 1.0591-3.8515 3.031-7.4938 5.9451-10.546l103.46-111.68c4.9534-5.4967 12.1-8.5384 19.495-8.2997 10.337 0.33423 19.014 7.1801 22.463 15.607 3.4494 8.4269 2.0651 19.397-5.0702 26.884l-103.46 111.67c-5.7875 6.4388-14.335 9.1495-22.418 7.9839-0.06 13.095-7.595 25.427-19.802 31.178l0.1709-0.0812c-18.588 9.07-29.859 20.066-41.363 33.244-9.9792 11.432-19.957 24.633-33.947 37.782 22.218 6.5028 38.62 27.11 38.62 51.332 0 29.381-24.107 53.497-53.488 53.497z" color="#000000" color-rendering="auto" dominant-baseline="auto" fill="#000" fill-opacity=".2" fill-rule="evenodd" image-rendering="auto" solid-color="#000000" style="font-feature-settings:normal;font-variant-alternates:normal;font-variant-caps:normal;font-variant-ligatures:normal;font-variant-numeric:normal;font-variant-position:normal;isolation:auto;mix-blend-mode:normal;paint-order:stroke fill markers;shape-padding:0;text-decoration-color:#000000;text-decoration-line:none;text-decoration-style:solid;text-indent:0;text-orientation:mixed;text-transform:none;white-space:normal"/>
  <g transform="matrix(.81509 0 0 .81509 -516.75 -131.58)" stroke-width="45.99">
   <path d="m252.5 549.13c-36.046 0-65.633-29.587-65.633-65.633 0-20.882 9.9622-39.549 25.323-51.599-56.766-26.054-85.338-79.748-84.902-133.98 0-23.371 19.402-42.657 42.778-42.445 7.0102 0.0635 13.343 2.3018 19.17 5.4343-1.5196-11.659-3.6286-22.179-7.0725-32.031-6.8273-19.53-18.628-37.693-44.106-59.922l0.23095 0.19926c-9.873-8.3034-15.381-20.147-15.562-31.344-0.18014-11.197 4.1871-21.291 10.913-28.998 6.7266-7.7074 16.131-13.395 27.249-14.731 11.093-1.3329 23.539 2.5176 33.093 11.134 29.433 25.725 47.654 53.125 59.811 80.586 5.5039-16.851 9.5284-34.912 13.348-56.258 3.3497-19.67 20.227-34.514 40.188-35.274 26.893-1.0241 48.338 23.983 43.242 50.403-2e-3 0.0139 2e-3 0.0323 0 0.0462-7.3381 40.949-17.899 81.375-40.741 121.49 5.1718-3.0454 10.185-6.1471 15.949-8.965 5.9455-2.9918 12.514-4.5438 19.17-4.5268 21.233 0.0516 37.432 15.844 41.294 33.193 3.8624 17.351-4.1076 38.53-23.32 47.581l0.20785-0.0996c-22.805 11.127-36.622 24.607-50.736 40.774-12.24 14.022-24.489 30.214-41.648 46.341 26.702 7.8254 46.52 32.296 47.293 61.25v0.0115c0.06 0.56847 0.0878 1.1441 0.0878 1.7155v0.0115c0 0.57795-0.0462 1.1516-0.0878 1.7266v0.0115c-0.94319 35.245-30.086 63.895-65.544 63.895z" color="#000000" color-rendering="auto" dominant-baseline="auto" fill="#529add" fill-rule="evenodd" image-rendering="auto" solid-color="#000000" stop-color="#000000" style="font-feature-settings:normal;font-variant-alternates:normal;font-variant-caps:normal;font-variant-east-asian:normal;font-variant-ligatures:normal;font-variant-numeric:normal;font-variant-position:normal;font-variation-settings:normal;inline-size:0;isolation:auto;mix-blend-mode:normal;paint-order:stroke fill markers;shape-margin:0;shape-padding:0;text-decoration-color:#000000;text-decoration-line:none;text-decoration-style:solid;text-indent:0;text-orientation:mixed;text-transform:none;white-space:normal"/>
   <path d="m235.41 421.07c-3.3968 0.0592-6.7714-0.56355-9.9234-1.8313-55.281-22.242-81.671-70.853-81.22-121.3-0.0462-14.14 11.498-25.58 25.637-25.452 14.139 0.12804 25.454 11.775 25.172 25.912-0.15242 16.853 2.1501 30.662 8.7146 42.229 1.1584-15.171 3.4614-29.649 5.8097-42.689-4.0176-57.283-6.2499-94.569-60.371-141.79-26.403-22.207 7.8314-61.434 33.406-38.278 42.246 36.86 60.481 75.69 69.312 114.41 17.742-30.68 25.027-61.231 31.917-99.741 1.957-11.919 12.035-20.813 24.105-21.272 16.355-0.62278 29.023 14.154 25.91 30.222-9.9206 55.442-24.244 106.76-68.364 158.94-1.5797 8.7295-3.0083 18.115-4.1317 27.624 17.187-19.204 38.969-39.486 72.009-55.608 3.5695-1.8012 7.5132-2.7347 11.511-2.7245 27.103 0.06 35.29 36.84 10.771 48.391-50.696 24.737-64.161 62.652-104.2 96.872-4.4859 3.8342-10.167 5.9872-16.067 6.0894z" color="#000000" color-rendering="auto" dominant-baseline="auto" fill="#fff" fill-rule="evenodd" image-rendering="auto" solid-color="#000000" stop-color="#000000" style="font-feature-settings:normal;font-variant-alternates:normal;font-variant-caps:normal;font-variant-east-asian:normal;font-variant-ligatures:normal;font-variant-numeric:normal;font-variant-position:normal;font-variation-settings:normal;inline-size:0;isolation:auto;mix-blend-mode:normal;paint-order:stroke fill markers;shape-margin:0;shape-padding:0;text-decoration-color:#000000;text-decoration-line:none;text-decoration-style:solid;text-indent:0;text-orientation:mixed;text-transform:none;white-space:normal"/>
   <path d="m301.12 483.5c0-26.858-21.773-48.632-48.632-48.632s-48.632 21.773-48.632 48.632 21.773 48.632 48.632 48.632 48.632-21.773 48.632-48.632" color="#000000" color-rendering="auto" dominant-baseline="auto" fill="#fff" image-rendering="auto" solid-color="#000000" stop-color="#000000" style="font-feature-settings:normal;font-variant-alternates:normal;font-variant-caps:normal;font-variant-east-asian:normal;font-variant-ligatures:normal;font-variant-numeric:normal;font-variant-position:normal;font-variation-settings:normal;inline-size:0;isolation:auto;mix-blend-mode:normal;paint-order:stroke fill markers;shape-margin:0;shape-padding:0;text-decoration-color:#000000;text-decoration-line:none;text-decoration-style:solid;text-indent:0;text-orientation:mixed;text-transform:none;white-space:normal"/>
   <path d="m393.17 295.54c-7.9987 0.36556-16.128-2.2985-22.368-8.0796-12.481-11.562-13.099-31.645-1.3503-43.951l126.94-137c6.0772-6.7469 14.842-10.487 23.918-10.194 12.682 0.40999 23.338 8.809 27.57 19.148 4.2207 10.31 2.5382 23.722-6.1538 32.905l-127 137.08c-5.6866 6.3266-13.551 9.7284-21.549 10.094z" color="#000000" color-rendering="auto" dominant-baseline="auto" fill="#529add" fill-rule="evenodd" image-rendering="auto" solid-color="#000000" stop-color="#000000" style="font-feature-settings:normal;font-variant-alternates:normal;font-variant-caps:normal;font-variant-east-asian:normal;font-variant-ligatures:normal;font-variant-numeric:normal;font-variant-position:normal;font-variation-settings:normal;inline-size:0;isolation:auto;mix-blend-mode:normal;paint-order:stroke fill markers;shape-margin:0;shape-padding:0;text-decoration-color:#000000;text-decoration-line:none;text-decoration-style:solid;text-indent:0;text-orientation:mixed;text-transform:none;white-space:normal"/>
   <path d="m519.76 113.3c-4.0806-0.13173-8.0117 1.5426-10.744 4.5762l-127.27 137.37c-5.3416 5.5947-5.0691 14.479 0.60532 19.736 5.6744 5.2569 14.554 4.8508 19.725-0.90211l127.27-137.37c8.2607-8.6674 2.3832-23.025-9.584-23.412z" color="#000000" color-rendering="auto" dominant-baseline="auto" fill="#fff" fill-rule="evenodd" image-rendering="auto" solid-color="#000000" stop-color="#000000" style="font-feature-settings:normal;font-variant-alternates:normal;font-variant-caps:normal;font-variant-east-asian:normal;font-variant-ligatures:normal;font-variant-numeric:normal;font-variant-position:normal;font-variation-settings:normal;inline-size:0;isolation:auto;mix-blend-mode:normal;paint-order:stroke fill markers;shape-margin:0;shape-padding:0;text-decoration-color:#000000;text-decoration-line:none;text-decoration-style:solid;text-indent:0;text-orientation:mixed;text-transform:none;white-space:normal"/>
  </g>
 </g>
</svg>
