<?xml version="1.0" encoding="UTF-8" standalone="no"?>
<svg
   xmlns:dc="http://purl.org/dc/elements/1.1/"
   xmlns:cc="http://creativecommons.org/ns#"
   xmlns:rdf="http://www.w3.org/1999/02/22-rdf-syntax-ns#"
   xmlns:svg="http://www.w3.org/2000/svg"
   xmlns="http://www.w3.org/2000/svg"
   width="128"
   height="128"
   version="1.1"
   viewBox="0 0 128 128"
   id="svg4497">
  <metadata
     id="metadata4503">
    <rdf:RDF>
      <cc:Work
         rdf:about="">
        <dc:format>image/svg+xml</dc:format>
        <dc:type
           rdf:resource="http://purl.org/dc/dcmitype/StillImage" />
        <dc:title />
        <cc:license
           rdf:resource="http://creativecommons.org/licenses/by-sa/4.0/" />
        <dc:creator>
          <cc:Agent>
            <dc:title>Tobias Zwick</dc:title>
          </cc:Agent>
        </dc:creator>
      </cc:Work>
      <cc:License
         rdf:about="http://creativecommons.org/licenses/by-sa/4.0/">
        <cc:permits
           rdf:resource="http://creativecommons.org/ns#Reproduction" />
        <cc:permits
           rdf:resource="http://creativecommons.org/ns#Distribution" />
        <cc:requires
           rdf:resource="http://creativecommons.org/ns#Notice" />
        <cc:requires
           rdf:resource="http://creativecommons.org/ns#Attribution" />
        <cc:permits
           rdf:resource="http://creativecommons.org/ns#DerivativeWorks" />
        <cc:requires
           rdf:resource="http://creativecommons.org/ns#ShareAlike" />
      </cc:License>
    </rdf:RDF>
  </metadata>
  <defs
     id="defs4501">
    <clipPath
       id="clipPath16-1-0"
       clipPathUnits="userSpaceOnUse">
      <path
         id="path18-3-2"
         d="M 0,38 H 38 V 0 H 0 Z" />
    </clipPath>
    <clipPath
       id="clipPath16-1-4-4"
       clipPathUnits="userSpaceOnUse">
      <path
         id="path18-85-8-0"
         d="M 0,36 H 36 V 0 H 0 Z" />
    </clipPath>
    <clipPath
       id="clipPath32-8-7"
       clipPathUnits="userSpaceOnUse">
      <path
         id="path34-5-0-1"
         d="M 11.815,23.013 C 4.2,15.397 -1.265,2.86 0.502,1.093 v 0 c 1.768,-1.768 14.305,3.698 21.92,11.313 v 0 c 7.616,7.615 7.562,11.53 4.243,14.85 v 0 c -1.328,1.328 -2.752,2.133 -4.47,2.133 v 0 c -2.575,0 -5.812,-1.809 -10.38,-6.376" />
    </clipPath>
    <clipPath
       id="clipPath16-1-4-4-0"
       clipPathUnits="userSpaceOnUse">
      <path
         id="path18-85-8-0-7"
         d="M 0,36 H 36 V 0 H 0 Z" />
    </clipPath>
    <clipPath
       id="clipPath32-8-7-8"
       clipPathUnits="userSpaceOnUse">
      <path
         id="path34-5-0-1-0"
         d="M 11.815,23.013 C 4.2,15.397 -1.265,2.86 0.502,1.093 v 0 c 1.768,-1.768 14.305,3.698 21.92,11.313 v 0 c 7.616,7.615 7.562,11.53 4.243,14.85 v 0 c -1.328,1.328 -2.752,2.133 -4.47,2.133 v 0 c -2.575,0 -5.812,-1.809 -10.38,-6.376" />
    </clipPath>
    <clipPath
       id="clipPath44"
       clipPathUnits="userSpaceOnUse">
      <path
         id="path46-1"
         d="M 7,35 C 5.896,35 5,34.105 5,33 V 33 3 C 5,1.895 5.896,1 7,1 v 0 h 18 c 1.105,0 2,0.895 2,2 v 0 30 c 0,1.105 -0.895,2 -2,2 v 0 z" />
    </clipPath>
    <clipPath
       id="clipPath16-4-5"
       clipPathUnits="userSpaceOnUse">
      <path
         id="path18-5-7"
         d="M 0,38 H 38 V 0 H 0 Z" />
    </clipPath>
    <clipPath
       id="clipPath56-9"
       clipPathUnits="userSpaceOnUse">
      <path
         id="path58-7"
         d="M 0,38 H 38 V 0 H 0 Z" />
    </clipPath>
    <clipPath
       id="clipPath44-2"
       clipPathUnits="userSpaceOnUse">
      <path
         id="path46-1-8"
         d="M 7,35 C 5.896,35 5,34.105 5,33 V 33 3 C 5,1.895 5.896,1 7,1 v 0 h 18 c 1.105,0 2,0.895 2,2 v 0 30 c 0,1.105 -0.895,2 -2,2 v 0 z" />
    </clipPath>
    <clipPath
       id="clipPath16-1-0-8"
       clipPathUnits="userSpaceOnUse">
      <path
         id="path18-3-2-0"
         d="M 0,38 H 38 V 0 H 0 Z" />
    </clipPath>
    <clipPath
       id="clipPath16-1-0-9"
       clipPathUnits="userSpaceOnUse">
      <path
         id="path18-3-2-1"
         d="M 0,38 H 38 V 0 H 0 Z" />
    </clipPath>
  </defs>
  <g
     id="car_wash"
     transform="translate(-1608.098,-275.42346)">
    <path
       class="st0"
       d="m 1736.098,339.42346 a 64,64 0 0 1 -64,64 64,64 0 0 1 -64,-64 64,64 0 0 1 64,-64 64,64 0 0 1 64,64"
       style="fill:#ffdd55"
       id="circle4-2-8" />
    <path
       style="fill:#000000;fill-opacity:0.2;fill-rule:nonzero;stroke:none;stroke-width:2.75448"
       d="m 1671.9761,298.77614 c -9.6406,0 -19.282,0.68721 -24.791,2.06445 -7.8447,1.96119 -11.5842,17.3394 -13.0234,25.39649 -0.6229,-0.37641 -1.3454,-0.60547 -2.127,-0.60547 h -5.5078 c -2.2834,0 -4.1328,1.8474 -4.1328,4.13086 0,2.28346 1.8494,4.13281 4.1328,4.13281 h 3.0703 c -1.6876,3.26333 -1.6933,8.26367 -1.6933,8.26367 v 22.03516 13.77343 c 0,3.04094 2.4669,5.50782 5.5078,5.50782 h 8.2637 c 3.041,0 5.5097,-2.46688 5.5097,-5.50782 v -1.11328 c 7.4765,1.10383 14.6372,1.11328 24.791,1.11328 10.1537,0 17.3128,-0.008 24.7891,-1.11132 v 1.11132 c 0,3.04094 2.4689,5.50782 5.5097,5.50782 h 8.2637 c 3.041,0 5.5078,-2.46688 5.5078,-5.50782 v -13.77343 -22.03516 c 0,-4.08202 -0.7569,-6.64603 -1.709,-8.26367 h 3.086 c 2.2807,0 4.1328,-1.84935 4.1328,-4.13281 0,-2.28346 -1.8521,-4.13086 -4.1328,-4.13086 h -5.5078 c -0.7802,0 -1.5023,0.22947 -2.125,0.60547 -1.4386,-8.05709 -5.1787,-23.4353 -13.0254,-25.39649 -5.5089,-1.37724 -15.1484,-2.06445 -24.7891,-2.06445 z"
       id="path22-9-2-2" />
    <g
       transform="matrix(2.7544768,0,0,-2.7544768,1619.6012,384.86098)"
       id="g10-4-0">
      <g
         id="g12-3-4">
        <g
           id="g20-2-6"
           transform="translate(35,4)">
          <path
             d="m 0,0 c 0,-1.104 -0.896,-2 -2,-2 h -3 c -1.104,0 -2,0.896 -2,2 v 8 c 0,1.104 0.896,2 2,2 h 3 c 1.104,0 2,-0.896 2,-2 z"
             style="fill:#555555;fill-opacity:1;fill-rule:nonzero;stroke:none"
             id="path22-9-9" />
        </g>
        <g
           id="g24-5-5"
           transform="translate(10,4)">
          <path
             d="m 0,0 c 0,-1.104 -0.896,-2 -2,-2 h -3 c -1.104,0 -2,0.896 -2,2 v 8 c 0,1.104 0.896,2 2,2 h 3 c 1.104,0 2,-0.896 2,-2 z"
             style="fill:#555555;fill-opacity:1;fill-rule:nonzero;stroke:none"
             id="path26-0-6" />
        </g>
        <g
           id="g28-7-5"
           transform="translate(10,32)">
          <path
             d="m 18,0 c 3.881,-0.97 5,-11 5,-11 0,0 2,0 2,-4 v -8 c 0,0 -0.119,-3.03 -4,-4 -4,-1 -7,-1 -12,-1 -5,0 -8,0 -12,1 -3.88,0.97 -4,4 -4,4 v 8 c 0,0 0,4 2,4 0,0 1.12,10.03 5,11 4,1 14,1 18,0 z"
             style="fill:#3b88c3;fill-opacity:1;fill-rule:nonzero;stroke:none"
             id="path30-8-5" />
        </g>
        <g
           id="g32-98-0"
           transform="translate(19,22)">
          <path
             d="M 0,0 C 3.905,0 8.623,-0.2 12,-0.562 L 11,5 C 10,8 4,8 0,8 -4,8 -10,8 -11,5 l -1,-5.562 C -8.623,-0.2 -3.905,0 0,0"
             style="fill:#bbddf5;fill-opacity:1;fill-rule:nonzero;stroke:none"
             id="path34-11-1" />
        </g>
        <g
           id="g36-7-7"
           transform="translate(6,21.5)">
          <path
             d="m -1.5,-1.5 h -2 c -0.829,0 -1.5,0.671 -1.5,1.5 0,0.829 0.671,1.5 1.5,1.5 h 2 C -0.671,1.5 0,0.829 0,0 0,-0.829 -0.671,-1.5 -1.5,-1.5 Z"
             style="fill:#3b88c3;fill-opacity:1;fill-rule:nonzero;stroke:none"
             id="path38-61-9" />
        </g>
        <g
           id="g40-6-8"
           transform="translate(32,21.5)">
          <path
             d="m 1.5,-1.5 h 2 C 4.328,-1.5 5,-0.829 5,0 5,0.829 4.328,1.5 3.5,1.5 h -2 C 0.672,1.5 0,0.829 0,0 0,-0.829 0.672,-1.5 1.5,-1.5 Z"
             style="fill:#3b88c3;fill-opacity:1;fill-rule:nonzero;stroke:none"
             id="path42-1-0" />
        </g>
        <path
           id="path46-5-9"
           style="fill:#ffffff;fill-opacity:1;fill-rule:nonzero;stroke:none"
           d="M 12,14 C 12,12.343 10.657,11 9,11 H 8 c -1.657,0 -3,1.343 -3,3 0,1.657 1.343,3 3,3 h 1 c 1.657,0 3,-1.343 3,-3" />
        <path
           id="path50-7-3"
           style="fill:#ffffff;fill-opacity:1;fill-rule:nonzero;stroke:none"
           d="m 33,14 c 0,-1.657 -1.344,-3 -3,-3 h -1 c -1.656,0 -3,1.343 -3,3 0,1.657 1.344,3 3,3 h 1 c 1.656,0 3,-1.343 3,-3" />
        <g
           id="g52-8-3"
           transform="matrix(-0.96592582,0.25881905,0.25881905,0.96592582,3.6143916,15.961776)">
          <path
             d="M -0.833,0.445 C -2.575,3.059 -7.152,4.01 -7.198,4.02 -7.739,4.129 -8.09,4.656 -7.981,5.197 -7.872,5.738 -7.349,6.088 -6.805,5.98 -6.584,5.937 -1.374,4.861 0.831,1.555 1.137,1.095 1.013,0.475 0.554,0.168 0.383,0.055 0.19,0 0,0 -0.323,0 -0.64,0.156 -0.833,0.445 Z"
             style="fill:#226699;fill-opacity:1;fill-rule:nonzero;stroke:none"
             id="path54-5-4" />
        </g>
        <g
           id="g56-4-3"
           transform="matrix(-0.96592582,-0.25881905,-0.25881905,0.96592582,34.175305,15.832344)">
          <path
             d="M -0.554,0.168 C -1.014,0.475 -1.138,1.095 -0.831,1.555 1.373,4.861 6.584,5.937 6.805,5.98 7.345,6.086 7.872,5.738 7.98,5.197 8.09,4.656 7.739,4.129 7.198,4.02 7.152,4.01 2.575,3.059 0.833,0.445 0.641,0.156 0.323,0 0,0 -0.19,0 -0.383,0.055 -0.554,0.168 Z"
             style="fill:#226699;fill-opacity:1;fill-rule:nonzero;stroke:none"
             id="path58-8-8" />
        </g>
        <g
           id="g60-8-9"
           transform="translate(19,8)">
          <path
             d="m -13.707,1.293 c -0.391,0.391 -0.391,1.023 0,1.414 0,0 9.0434068,3.0324704 13.76299641,3.0744606 C 4.775586,5.8234509 13.707,2.707 13.707,2.707 14.098,2.316 14.098,1.684 13.707,1.293 12.639,0.225 5.7189964,3.7814606 0.05599641,3.7814606 -5.6070036,3.7814606 -12.639,0.225 -13.707,1.293 Z"
             style="fill:#55acee;fill-opacity:1;fill-rule:nonzero;stroke:none"
             id="path62-4" />
        </g>
        <g
           id="g64-6-2"
           transform="translate(26,7.5)">
          <path
             d="m -7,-2.5 c -3.866,0 -7.046142,2.74014317 -7.046142,4.2401432 0,0.828 3.221675,0.4211798 7.0876751,0.4211798 3.866,0 6.912325,0.4068202 6.912325,-0.4211798 C -0.0461419,0.24014317 -3.134,-2.5 -7,-2.5 Z"
             style="fill:#226699;fill-opacity:1;fill-rule:nonzero;stroke:none"
             id="path66-1-5" />
        </g>
      </g>
      <g
         id="g6764">
        <path
           d="m 5.4328901,-16.714358 -1.4194976,-3.768452 -3.59224134,-1.243287 3.76845124,-1.419498 1.2432874,-3.592241 1.4194976,3.768451 3.5922416,1.243288 -3.7684515,1.419497 z"
           transform="scale(1,-1)"
           style="fill:#000000;fill-opacity:0.2;stroke:none;stroke-width:0.363045"
           id="path6700-5" />
        <path
           d="m 14.525329,-17.670836 -2.539231,-7.359158 -7.041146,-2.221219 7.359158,-2.539231 2.221218,-7.041146 2.539232,7.359158 7.041145,2.221219 -7.359158,2.539231 z"
           transform="scale(1,-1)"
           style="fill:#000000;fill-opacity:0.2;stroke:none;stroke-width:0.363045"
           id="path6702-6-0" />
        <path
           d="m 5.5000211,-17.751481 -1.4194976,-3.768451 -3.5922413,-1.243288 3.7684513,-1.419497 1.2432873,-3.592242 1.4194976,3.768452 3.5922416,1.243287 -3.7684515,1.419498 z"
           transform="scale(1,-1)"
           style="fill:#feffd6;fill-opacity:1;stroke:#89dfe2;stroke-width:1.08914;stroke-linejoin:round;stroke-miterlimit:4;stroke-dasharray:none;stroke-opacity:1"
           id="path6700" />
        <path
           d="m 14.592444,-18.707944 -2.539232,-7.359158 -7.0411452,-2.221218 7.3591582,-2.539232 2.221218,-7.041145 2.539232,7.359158 7.041145,2.221218 -7.359158,2.539232 z"
           transform="scale(1,-1)"
           style="fill:#feffd6;fill-opacity:1;stroke:#89dfe2;stroke-width:1.08914;stroke-linejoin:round;stroke-miterlimit:4;stroke-dasharray:none;stroke-opacity:1"
           id="path6702-6" />
      </g>
    </g>
  </g>
</svg>
