<?xml version="1.0" encoding="UTF-8"?>
<svg version="1.1" viewBox="0 0 128 128" xmlns="http://www.w3.org/2000/svg">
 <path d="m128 64c0 35.346-28.654 64-64 64-35.346 0-64-28.654-64-64 0-35.346 28.654-64 64-64 35.346 0 64 28.654 64 64" fill="#e9a76f" stroke-width=".2"/>
 <g transform="matrix(1.9612 0 0 1.9612 -1966 2013.1)">
  <path d="m1035.1-1016.3a24 24 0 0 0-24 24 24 24 0 0 0 24 24 24 24 0 0 0 24-24 24 24 0 0 0-24-24z" fill="none" stroke="#000" stroke-linecap="round" stroke-linejoin="round" stroke-opacity=".2" stroke-width="4" style="paint-order:normal"/>
  <path d="m1059.1-994.24a24 24 0 0 1-24 24 24 24 0 0 1-24-24 24 24 0 0 1 24-24 24 24 0 0 1 24 24" fill="#dbdbdb" style="paint-order:normal"/>
  <path d="m1024.1-972.49 24.223-41.752 8.4681 11.197-18.231 34.231z" fill="#ededed"/>
  <path d="m1015.4-980.97 21.8-37.545 5.6638 1.5093-23.075 39.967z" fill="#ededed"/>
  <path d="m1059.2-994.32a24 24 0 0 1-24 24 24 24 0 0 1-24-24 24 24 0 0 1 24-24 24 24 0 0 1 24 24" fill="none" stroke="#a6a6a6" stroke-linecap="round" stroke-linejoin="round" stroke-width="4" style="paint-order:normal"/>
  <path d="m1031.8-1011v2.9121c-1.532 0.3498-2.8498 0.9879-3.9531 1.916-1.9688 1.6563-2.9532 3.8125-2.9532 6.4688 0 1.8854 0.4375 3.3958 1.3125 4.5312s1.9844 1.9792 3.3282 2.5313c1.3541 0.5416 3.0521 1.026 5.0937 1.4531 1.5834 0.3542 2.7865 0.7135 3.6094 1.0781 0.8333 0.3646 1.25 1.0469 1.25 2.0469 0 1.0417-0.4375 1.7969-1.3125 2.2656-0.875 0.4584-1.8855 0.6875-3.0313 0.6875-3.1145 0-5.0364-1.3021-5.7656-3.9062l-5.9531 1.4062c0.5833 2.5521 1.8906 4.4636 3.9219 5.7344 1.324 0.8216 2.8104 1.3702 4.4531 1.6562v3.2188h6v-3.25c1.9343-0.3363 3.5483-0.9936 4.8281-1.9844 2.2605-1.7708 3.3906-4.0729 3.3906-6.9062 0-2.7813-1.1926-4.9584-3.5781-6.5313-0.8541-0.5833-1.7499-1.0052-2.6875-1.2656-0.927-0.2604-2.4427-0.625-4.5469-1.0937-2.6875-0.448-4.0312-1.3698-4.0312-2.7657 0-1.75 1.2812-2.625 3.8437-2.625 2.4167 0 4.0157 1.0886 4.7969 3.2657l5.4375-1.7813c-1.2053-3.4654-3.6917-5.5361-7.4531-6.2168v-2.8457z" fill="#a6a6a6"/>
 </g>
</svg>
