<?xml version="1.0" encoding="UTF-8"?>
<svg version="1.1" viewBox="0 0 128 128" xmlns="http://www.w3.org/2000/svg">
 <path d="m119.42 95.995c-17.67 30.605-56.806 41.092-87.411 23.422-30.605-17.67-41.092-56.806-23.422-87.411 17.67-30.606 56.806-41.092 87.411-23.422 30.605 17.67 41.092 56.806 23.422 87.411" fill="#9bbe55" stroke-width=".19997"/>
 <path d="m56.003 109.47c-20.499-13.683-35.513-30.161-39.946-43.841-3.174-9.7958-1.6388-20.832 4.0399-29.042 5.433-7.8546 15.517-11.9 25.495-10.228 5.9659 0.9998 9.4875 2.9483 14.367 7.949l4.0464 4.1471 4.0465-4.1471c4.8888-5.0105 8.4006-6.9492 14.414-7.9571 9.9325-1.6646 20.003 2.4175 25.562 10.361 5.543 7.922 7.0738 19.199 3.9252 28.917-3.5477 10.949-14.927 24.91-29.602 36.318-7.427 5.7734-17.365 12.26-18.683 12.195-0.39516-0.02-3.8443-2.122-7.6647-4.6721z" fill-opacity=".2" style="paint-order:markers fill stroke"/>
 <path d="m56.003 105.47c-20.499-13.683-35.513-30.161-39.946-43.841-3.174-9.7958-1.6388-20.832 4.0399-29.042 5.433-7.8546 15.517-11.9 25.495-10.228 5.9659 0.9998 9.4875 2.9483 14.367 7.949l4.0464 4.1471 4.0465-4.1471c4.8888-5.0105 8.4006-6.9492 14.414-7.9571 9.9325-1.6646 20.003 2.4175 25.562 10.361 5.543 7.922 7.0738 19.199 3.9252 28.917-3.5477 10.949-14.927 24.91-29.602 36.318-7.427 5.7734-17.365 12.26-18.683 12.195-0.39516-0.02-3.8443-2.122-7.6647-4.6721z" fill="#5a8049" style="paint-order:markers fill stroke"/>
 <path d="m76.932 33.442-12.933 26.558h16.397l-28.714 33.41 11.085-26.173h-15.935z" fill="#fff" stroke-width=".7698"/>
</svg>
