<?xml version="1.0" encoding="UTF-8" standalone="no"?>
<svg
   xmlns:dc="http://purl.org/dc/elements/1.1/"
   xmlns:cc="http://creativecommons.org/ns#"
   xmlns:rdf="http://www.w3.org/1999/02/22-rdf-syntax-ns#"
   xmlns:svg="http://www.w3.org/2000/svg"
   xmlns="http://www.w3.org/2000/svg"
   xmlns:sodipodi="http://sodipodi.sourceforge.net/DTD/sodipodi-0.dtd"
   xmlns:inkscape="http://www.inkscape.org/namespaces/inkscape"
   inkscape:version="1.0 (4035a4fb49, 2020-05-01)"
   sodipodi:docname="defibrillator.svg"
   id="svg4497"
   viewBox="0 0 128 128.00002"
   version="1.1"
   height="128.00002"
   width="128">
  <sodipodi:namedview
     inkscape:current-layer="svg4497"
     inkscape:window-maximized="0"
     inkscape:window-y="0"
     inkscape:window-x="0"
     inkscape:cy="39.003504"
     inkscape:cx="62.672044"
     inkscape:zoom="4.0603392"
     showgrid="true"
     id="namedview32"
     inkscape:window-height="976"
     inkscape:window-width="1035"
     inkscape:pageshadow="2"
     inkscape:pageopacity="0"
     guidetolerance="10"
     gridtolerance="10"
     objecttolerance="10"
     borderopacity="1"
     bordercolor="#666666"
     pagecolor="#ffffff">
    <inkscape:grid
       id="grid857"
       type="xygrid" />
  </sodipodi:namedview>
  <metadata
     id="metadata4503">
    <rdf:RDF>
      <cc:Work
         rdf:about="">
        <dc:format>image/svg+xml</dc:format>
        <dc:type
           rdf:resource="http://purl.org/dc/dcmitype/StillImage" />
        <dc:title />
        <cc:license
           rdf:resource="http://creativecommons.org/licenses/by-sa/4.0/" />
        <dc:creator>
          <cc:Agent>
            <dc:title>Tobias Zwick</dc:title>
          </cc:Agent>
        </dc:creator>
      </cc:Work>
      <cc:License
         rdf:about="http://creativecommons.org/licenses/by-sa/4.0/">
        <cc:permits
           rdf:resource="http://creativecommons.org/ns#Reproduction" />
        <cc:permits
           rdf:resource="http://creativecommons.org/ns#Distribution" />
        <cc:requires
           rdf:resource="http://creativecommons.org/ns#Notice" />
        <cc:requires
           rdf:resource="http://creativecommons.org/ns#Attribution" />
        <cc:permits
           rdf:resource="http://creativecommons.org/ns#DerivativeWorks" />
        <cc:requires
           rdf:resource="http://creativecommons.org/ns#ShareAlike" />
      </cc:License>
    </rdf:RDF>
  </metadata>
  <defs
     id="defs4501">
    <clipPath
       clipPathUnits="userSpaceOnUse"
       id="clipPath16-1-0">
      <path
         d="M 0,38 H 38 V 0 H 0 Z"
         id="path18-3-2" />
    </clipPath>
    <clipPath
       clipPathUnits="userSpaceOnUse"
       id="clipPath16-1-4-4">
      <path
         d="M 0,36 H 36 V 0 H 0 Z"
         id="path18-85-8-0" />
    </clipPath>
    <clipPath
       clipPathUnits="userSpaceOnUse"
       id="clipPath32-8-7">
      <path
         d="M 11.815,23.013 C 4.2,15.397 -1.265,2.86 0.502,1.093 v 0 c 1.768,-1.768 14.305,3.698 21.92,11.313 v 0 c 7.616,7.615 7.562,11.53 4.243,14.85 v 0 c -1.328,1.328 -2.752,2.133 -4.47,2.133 v 0 c -2.575,0 -5.812,-1.809 -10.38,-6.376"
         id="path34-5-0-1" />
    </clipPath>
    <clipPath
       clipPathUnits="userSpaceOnUse"
       id="clipPath16-1-4-4-0">
      <path
         d="M 0,36 H 36 V 0 H 0 Z"
         id="path18-85-8-0-7" />
    </clipPath>
    <clipPath
       clipPathUnits="userSpaceOnUse"
       id="clipPath32-8-7-8">
      <path
         d="M 11.815,23.013 C 4.2,15.397 -1.265,2.86 0.502,1.093 v 0 c 1.768,-1.768 14.305,3.698 21.92,11.313 v 0 c 7.616,7.615 7.562,11.53 4.243,14.85 v 0 c -1.328,1.328 -2.752,2.133 -4.47,2.133 v 0 c -2.575,0 -5.812,-1.809 -10.38,-6.376"
         id="path34-5-0-1-0" />
    </clipPath>
    <clipPath
       clipPathUnits="userSpaceOnUse"
       id="clipPath44">
      <path
         d="M 7,35 C 5.896,35 5,34.105 5,33 V 33 3 C 5,1.895 5.896,1 7,1 v 0 h 18 c 1.105,0 2,0.895 2,2 v 0 30 c 0,1.105 -0.895,2 -2,2 v 0 z"
         id="path46-1" />
    </clipPath>
    <clipPath
       clipPathUnits="userSpaceOnUse"
       id="clipPath16-4-5">
      <path
         d="M 0,38 H 38 V 0 H 0 Z"
         id="path18-5-7" />
    </clipPath>
    <clipPath
       clipPathUnits="userSpaceOnUse"
       id="clipPath56-9">
      <path
         d="M 0,38 H 38 V 0 H 0 Z"
         id="path58-7" />
    </clipPath>
    <clipPath
       clipPathUnits="userSpaceOnUse"
       id="clipPath44-2">
      <path
         d="M 7,35 C 5.896,35 5,34.105 5,33 V 33 3 C 5,1.895 5.896,1 7,1 v 0 h 18 c 1.105,0 2,0.895 2,2 v 0 30 c 0,1.105 -0.895,2 -2,2 v 0 z"
         id="path46-1-8" />
    </clipPath>
    <clipPath
       clipPathUnits="userSpaceOnUse"
       id="clipPath16-1-0-8">
      <path
         d="M 0,38 H 38 V 0 H 0 Z"
         id="path18-3-2-0" />
    </clipPath>
    <clipPath
       clipPathUnits="userSpaceOnUse"
       id="clipPath16-1-0-9">
      <path
         d="M 0,38 H 38 V 0 H 0 Z"
         id="path18-3-2-1" />
    </clipPath>
  </defs>
  <path
     d="M 119.41645,95.9948 C 101.74638,126.6002 62.61077,137.0866 32.00529,119.4165 1.39983,101.7464 -9.08653,62.6108 8.58354,32.0054 26.25362,1.3999 65.38923,-9.0865 95.99469,8.5836 c 30.60548,17.6701 41.09184,56.8057 23.42176,87.4112"
     id="path7073"
     style="fill:#9bbe55;fill-opacity:1;stroke-width:0.199967" />
  <path
     style="vector-effect:none;fill:#000000;fill-opacity:0.2;stroke:none;stroke-width:1.91668;stroke-linecap:butt;stroke-linejoin:round;stroke-miterlimit:4;stroke-dasharray:none;stroke-dashoffset:0;stroke-opacity:1;paint-order:markers fill stroke"
     d="M 56.0032,109.4711 C 35.50383,95.788 20.48996,79.3102 16.05747,65.6303 12.88342,55.8345 14.41865,44.798 20.09736,36.5882 c 5.433,-7.8546 15.51706,-11.8999 25.49452,-10.2277 5.9659,0.9998 9.48748,2.9483 14.36672,7.949 l 4.04638,4.1471 4.04652,-4.1471 c 4.88876,-5.0105 8.40058,-6.9492 14.41437,-7.9571 9.93251,-1.6646 20.00342,2.4175 25.56156,10.3612 5.54303,7.922 7.07378,19.1994 3.92522,28.9167 -3.54766,10.9489 -14.92696,24.9097 -29.60178,36.3176 -7.427,5.7734 -17.36481,12.2604 -18.68299,12.1953 -0.39516,-0.02 -3.84432,-2.122 -7.66468,-4.6721 z"
     id="path7081-6" />
  <path
     id="path7081"
     d="M 56.0032,105.4711 C 35.50383,91.788 20.48996,75.3102 16.05747,61.6303 12.88342,51.8345 14.41865,40.798 20.09736,32.5882 c 5.433,-7.8546 15.51706,-11.8999 25.49452,-10.2277 5.9659,0.9998 9.48748,2.9483 14.36672,7.949 l 4.04638,4.1471 4.04652,-4.1471 c 4.88876,-5.0105 8.40058,-6.9492 14.41437,-7.9571 9.93251,-1.6646 20.00342,2.4175 25.56156,10.3612 5.54303,7.922 7.07378,19.1994 3.92522,28.9167 -3.54766,10.9489 -14.92696,24.9097 -29.60178,36.3176 -7.427,5.7734 -17.36481,12.2604 -18.68299,12.1953 -0.39516,-0.02 -3.84432,-2.122 -7.66468,-4.6721 z"
     style="vector-effect:none;fill:#5a8049;fill-opacity:1;stroke:none;stroke-width:1.91668;stroke-linecap:butt;stroke-linejoin:round;stroke-miterlimit:4;stroke-dasharray:none;stroke-dashoffset:0;stroke-opacity:1;paint-order:markers fill stroke" />
  <path
     d="M 76.93201,33.4418 63.99929,60.0001 H 80.39613 L 51.68241,93.4096 62.7676,67.2362 H 46.83264 Z"
     id="path8-5"
     style="fill:#ffffff;stroke-width:0.769805" />
</svg>
