<?xml version="1.0" encoding="UTF-8" standalone="no"?>
<svg
   xmlns:dc="http://purl.org/dc/elements/1.1/"
   xmlns:cc="http://creativecommons.org/ns#"
   xmlns:rdf="http://www.w3.org/1999/02/22-rdf-syntax-ns#"
   xmlns:svg="http://www.w3.org/2000/svg"
   xmlns="http://www.w3.org/2000/svg"
   width="128"
   height="128"
   version="1.1"
   viewBox="0 0 128 128"
   id="svg4497">
  <metadata
     id="metadata4503">
    <rdf:RDF>
      <cc:Work
         rdf:about="">
        <dc:format>image/svg+xml</dc:format>
        <dc:type
           rdf:resource="http://purl.org/dc/dcmitype/StillImage" />
        <dc:title />
        <cc:license
           rdf:resource="http://creativecommons.org/licenses/by-sa/4.0/" />
        <dc:creator>
          <cc:Agent>
            <dc:title>Tobias Zwick</dc:title>
          </cc:Agent>
        </dc:creator>
      </cc:Work>
      <cc:License
         rdf:about="http://creativecommons.org/licenses/by-sa/4.0/">
        <cc:permits
           rdf:resource="http://creativecommons.org/ns#Reproduction" />
        <cc:permits
           rdf:resource="http://creativecommons.org/ns#Distribution" />
        <cc:requires
           rdf:resource="http://creativecommons.org/ns#Notice" />
        <cc:requires
           rdf:resource="http://creativecommons.org/ns#Attribution" />
        <cc:permits
           rdf:resource="http://creativecommons.org/ns#DerivativeWorks" />
        <cc:requires
           rdf:resource="http://creativecommons.org/ns#ShareAlike" />
      </cc:License>
    </rdf:RDF>
  </metadata>
  <defs
     id="defs4501">
    <clipPath
       id="clipPath16-1-0"
       clipPathUnits="userSpaceOnUse">
      <path
         id="path18-3-2"
         d="M 0,38 H 38 V 0 H 0 Z" />
    </clipPath>
    <clipPath
       id="clipPath16-1-4-4"
       clipPathUnits="userSpaceOnUse">
      <path
         id="path18-85-8-0"
         d="M 0,36 H 36 V 0 H 0 Z" />
    </clipPath>
    <clipPath
       id="clipPath32-8-7"
       clipPathUnits="userSpaceOnUse">
      <path
         id="path34-5-0-1"
         d="M 11.815,23.013 C 4.2,15.397 -1.265,2.86 0.502,1.093 v 0 c 1.768,-1.768 14.305,3.698 21.92,11.313 v 0 c 7.616,7.615 7.562,11.53 4.243,14.85 v 0 c -1.328,1.328 -2.752,2.133 -4.47,2.133 v 0 c -2.575,0 -5.812,-1.809 -10.38,-6.376" />
    </clipPath>
    <clipPath
       id="clipPath16-1-4-4-0"
       clipPathUnits="userSpaceOnUse">
      <path
         id="path18-85-8-0-7"
         d="M 0,36 H 36 V 0 H 0 Z" />
    </clipPath>
    <clipPath
       id="clipPath32-8-7-8"
       clipPathUnits="userSpaceOnUse">
      <path
         id="path34-5-0-1-0"
         d="M 11.815,23.013 C 4.2,15.397 -1.265,2.86 0.502,1.093 v 0 c 1.768,-1.768 14.305,3.698 21.92,11.313 v 0 c 7.616,7.615 7.562,11.53 4.243,14.85 v 0 c -1.328,1.328 -2.752,2.133 -4.47,2.133 v 0 c -2.575,0 -5.812,-1.809 -10.38,-6.376" />
    </clipPath>
    <clipPath
       id="clipPath44"
       clipPathUnits="userSpaceOnUse">
      <path
         id="path46-1"
         d="M 7,35 C 5.896,35 5,34.105 5,33 V 33 3 C 5,1.895 5.896,1 7,1 v 0 h 18 c 1.105,0 2,0.895 2,2 v 0 30 c 0,1.105 -0.895,2 -2,2 v 0 z" />
    </clipPath>
    <clipPath
       id="clipPath16-4-5"
       clipPathUnits="userSpaceOnUse">
      <path
         id="path18-5-7"
         d="M 0,38 H 38 V 0 H 0 Z" />
    </clipPath>
    <clipPath
       id="clipPath56-9"
       clipPathUnits="userSpaceOnUse">
      <path
         id="path58-7"
         d="M 0,38 H 38 V 0 H 0 Z" />
    </clipPath>
    <clipPath
       id="clipPath44-2"
       clipPathUnits="userSpaceOnUse">
      <path
         id="path46-1-8"
         d="M 7,35 C 5.896,35 5,34.105 5,33 V 33 3 C 5,1.895 5.896,1 7,1 v 0 h 18 c 1.105,0 2,0.895 2,2 v 0 30 c 0,1.105 -0.895,2 -2,2 v 0 z" />
    </clipPath>
    <clipPath
       id="clipPath16-1-0-8"
       clipPathUnits="userSpaceOnUse">
      <path
         id="path18-3-2-0"
         d="M 0,38 H 38 V 0 H 0 Z" />
    </clipPath>
    <clipPath
       id="clipPath16-1-0-9"
       clipPathUnits="userSpaceOnUse">
      <path
         id="path18-3-2-1"
         d="M 0,38 H 38 V 0 H 0 Z" />
    </clipPath>
  </defs>
  <g
     id="fire_hydrant"
     transform="translate(-1608.098,-275.42346)">
    <path
       class="st0"
       d="m 1736.098,339.42346 a 64,64 0 0 1 -64,64 64,64 0 0 1 -64,-64 64,64 0 0 1 64,-64 64,64 0 0 1 64,64"
       style="fill:#aaaaaa;fill-opacity:1"
       id="circle4" />
    <path
       style="fill:#000000;fill-opacity:0.2;stroke:none;stroke-width:12;stroke-linecap:round;stroke-linejoin:round;stroke-miterlimit:4;stroke-dasharray:none;stroke-opacity:1;paint-order:markers fill stroke"
       d="m 1672.0902,291.50358 c -10.9805,3.8e-4 -19.8816,8.9023 -19.8809,19.88281 l 0.01,0.008 h -4.1172 v 8 h 8 v 12 h -4 v -4 h -8 v 6.02148 a 6.0568519,6.0568519 0 0 0 -5.9414,6.05274 6.0568519,6.0568519 0 0 0 5.9414,6.05078 v 5.875 h 8 v -4 h 4 v 24 h -4 v 12 h -5 v 8 h 49 v -8 h -4 v -12 h -4 v -24 h 4 v 4 h 8 v -5.77734 a 6.0568519,6.0568519 0 0 0 0.2383,0.0117 6.0568519,6.0568519 0 0 0 6.0566,-6.05664 6.0568519,6.0568519 0 0 0 -6.0566,-6.05859 6.0568519,6.0568519 0 0 0 -0.2383,0.008 v -6.12695 h -8 v 4 h -4 v -12 h 8 v -8 h -4.1348 l 0.01,-0.008 c 9e-4,-10.98051 -8.9003,-19.88243 -19.8808,-19.88281 z"
       id="rect12369-9" />
    <g
       id="g12384">
      <path
         d="m 1652.098,327.3942 h 40 v 16 h -40 z"
         style="fill:#a8493e;fill-opacity:1;stroke:none;stroke-width:12;stroke-linecap:round;stroke-linejoin:round;stroke-miterlimit:4;stroke-dasharray:none;stroke-opacity:1;paint-order:markers fill stroke"
         id="rect12369" />
      <path
         transform="translate(1480.098,275.3942)"
         id="rect12273"
         d="m 191.99219,12.109375 c -10.9805,3.71e-4 -19.88157,8.902308 -19.88086,19.882813 L 176,36.980644 V 92 h 32 V 36 l 3.87305,-4.007812 c 7.1e-4,-10.980505 -8.90036,-19.882442 -19.88086,-19.882813 z"
         style="fill:#cd584c;fill-opacity:1;stroke:none;stroke-width:12.3693;stroke-linecap:round;stroke-linejoin:round;stroke-miterlimit:4;stroke-dasharray:none;stroke-opacity:1;paint-order:markers fill stroke" />
      <path
         d="m 1706.3934,335.57117 a 6.0568519,6.0568519 0 0 1 -6.0569,6.05685 6.0568519,6.0568519 0 0 1 -6.0568,-6.05685 6.0568519,6.0568519 0 0 1 6.0568,-6.05685 6.0568519,6.0568519 0 0 1 6.0569,6.05685"
         style="fill:#cd584c;fill-opacity:1;stroke:none;stroke-width:9.08528;stroke-linecap:round;stroke-linejoin:round;stroke-miterlimit:4;stroke-dasharray:none;stroke-opacity:1;paint-order:markers fill stroke"
         id="path12291-0" />
      <path
         d="m 1692.098,323.3942 h 8 v 24 h -8 z"
         style="fill:#9e3d33;fill-opacity:1;stroke:none;stroke-width:12;stroke-linecap:round;stroke-linejoin:round;stroke-miterlimit:4;stroke-dasharray:none;stroke-opacity:1;paint-order:markers fill stroke"
         id="rect12281" />
      <path
         d="m 1650.2708,335.46893 a 6.0568519,6.0568519 0 0 1 -6.0568,6.05685 6.0568519,6.0568519 0 0 1 -6.0569,-6.05685 6.0568519,6.0568519 0 0 1 6.0569,-6.05685 6.0568519,6.0568519 0 0 1 6.0568,6.05685"
         style="fill:#cd584c;fill-opacity:1;stroke:none;stroke-width:9.08528;stroke-linecap:round;stroke-linejoin:round;stroke-miterlimit:4;stroke-dasharray:none;stroke-opacity:1;paint-order:markers fill stroke"
         id="path12291" />
      <path
         d="m 1644.098,323.3942 h 8 v 24 h -8 z"
         style="fill:#9e3d33;fill-opacity:1;stroke:none;stroke-width:12;stroke-linecap:round;stroke-linejoin:round;stroke-miterlimit:4;stroke-dasharray:none;stroke-opacity:1;paint-order:markers fill stroke"
         id="rect12283" />
      <path
         d="m 1684.2388,343.51828 a 12.147206,12.147206 0 0 1 -12.1472,12.14721 12.147206,12.147206 0 0 1 -12.1473,-12.14721 12.147206,12.147206 0 0 1 12.1473,-12.14721 12.147206,12.147206 0 0 1 12.1472,12.14721"
         style="fill:#9e3d33;fill-opacity:1;stroke:none;stroke-width:9.11041;stroke-linecap:round;stroke-linejoin:round;stroke-miterlimit:4;stroke-dasharray:none;stroke-opacity:1;paint-order:markers fill stroke"
         id="path12289" />
      <path
         d="m 1647.098,379.3942 h 49 v 7.99999 h -49 z"
         style="fill:#9e3d33;fill-opacity:1;stroke:none;stroke-width:17.831;stroke-linecap:round;stroke-linejoin:round;stroke-miterlimit:4;stroke-dasharray:none;stroke-opacity:1;paint-order:markers fill stroke"
         id="rect12271" />
      <path
         d="m 1648.098,307.3942 h 48 v 8 h -48 z"
         style="fill:#9e3d33;fill-opacity:1;stroke:none;stroke-width:12;stroke-linecap:round;stroke-linejoin:round;stroke-miterlimit:4;stroke-dasharray:none;stroke-opacity:1;paint-order:markers fill stroke"
         id="rect12275" />
      <path
         d="m 1699.757,-105.32013 h 8.4852 v 8.485277 h -8.4852 z"
         transform="rotate(15)"
         style="fill:#cd584c;fill-opacity:1;stroke:none;stroke-width:10.1823;stroke-linecap:round;stroke-linejoin:round;stroke-miterlimit:4;stroke-dasharray:none;stroke-opacity:1;paint-order:markers fill stroke"
         id="rect12367" />
      <path
         d="m 1652.098,367.3942 h 40 v 12 h -40 z"
         style="fill:#a8493e;fill-opacity:1;stroke:none;stroke-width:12;stroke-linecap:round;stroke-linejoin:round;stroke-miterlimit:4;stroke-dasharray:none;stroke-opacity:1;paint-order:markers fill stroke"
         id="rect12371" />
    </g>
  </g>
</svg>
