<?xml version="1.0" encoding="UTF-8" standalone="no"?>
<svg
   xmlns:dc="http://purl.org/dc/elements/1.1/"
   xmlns:cc="http://creativecommons.org/ns#"
   xmlns:rdf="http://www.w3.org/1999/02/22-rdf-syntax-ns#"
   xmlns:svg="http://www.w3.org/2000/svg"
   xmlns="http://www.w3.org/2000/svg"
   width="128"
   height="128"
   version="1.1"
   viewBox="0 0 128 128"
   id="svg4497">
  <metadata
     id="metadata4503">
    <rdf:RDF>
      <cc:Work
         rdf:about="">
        <dc:format>image/svg+xml</dc:format>
        <dc:type
           rdf:resource="http://purl.org/dc/dcmitype/StillImage" />
        <dc:title />
        <cc:license
           rdf:resource="http://creativecommons.org/licenses/by-sa/4.0/" />
        <dc:creator>
          <cc:Agent>
            <dc:title>Tobias Zwick</dc:title>
          </cc:Agent>
        </dc:creator>
      </cc:Work>
      <cc:License
         rdf:about="http://creativecommons.org/licenses/by-sa/4.0/">
        <cc:permits
           rdf:resource="http://creativecommons.org/ns#Reproduction" />
        <cc:permits
           rdf:resource="http://creativecommons.org/ns#Distribution" />
        <cc:requires
           rdf:resource="http://creativecommons.org/ns#Notice" />
        <cc:requires
           rdf:resource="http://creativecommons.org/ns#Attribution" />
        <cc:permits
           rdf:resource="http://creativecommons.org/ns#DerivativeWorks" />
        <cc:requires
           rdf:resource="http://creativecommons.org/ns#ShareAlike" />
      </cc:License>
    </rdf:RDF>
  </metadata>
  <defs
     id="defs4501">
    <clipPath
       id="clipPath16-1-0"
       clipPathUnits="userSpaceOnUse">
      <path
         id="path18-3-2"
         d="M 0,38 H 38 V 0 H 0 Z" />
    </clipPath>
    <clipPath
       id="clipPath16-1-4-4"
       clipPathUnits="userSpaceOnUse">
      <path
         id="path18-85-8-0"
         d="M 0,36 H 36 V 0 H 0 Z" />
    </clipPath>
    <clipPath
       id="clipPath32-8-7"
       clipPathUnits="userSpaceOnUse">
      <path
         id="path34-5-0-1"
         d="M 11.815,23.013 C 4.2,15.397 -1.265,2.86 0.502,1.093 v 0 c 1.768,-1.768 14.305,3.698 21.92,11.313 v 0 c 7.616,7.615 7.562,11.53 4.243,14.85 v 0 c -1.328,1.328 -2.752,2.133 -4.47,2.133 v 0 c -2.575,0 -5.812,-1.809 -10.38,-6.376" />
    </clipPath>
    <clipPath
       id="clipPath16-1-4-4-0"
       clipPathUnits="userSpaceOnUse">
      <path
         id="path18-85-8-0-7"
         d="M 0,36 H 36 V 0 H 0 Z" />
    </clipPath>
    <clipPath
       id="clipPath32-8-7-8"
       clipPathUnits="userSpaceOnUse">
      <path
         id="path34-5-0-1-0"
         d="M 11.815,23.013 C 4.2,15.397 -1.265,2.86 0.502,1.093 v 0 c 1.768,-1.768 14.305,3.698 21.92,11.313 v 0 c 7.616,7.615 7.562,11.53 4.243,14.85 v 0 c -1.328,1.328 -2.752,2.133 -4.47,2.133 v 0 c -2.575,0 -5.812,-1.809 -10.38,-6.376" />
    </clipPath>
    <clipPath
       id="clipPath44"
       clipPathUnits="userSpaceOnUse">
      <path
         id="path46-1"
         d="M 7,35 C 5.896,35 5,34.105 5,33 V 33 3 C 5,1.895 5.896,1 7,1 v 0 h 18 c 1.105,0 2,0.895 2,2 v 0 30 c 0,1.105 -0.895,2 -2,2 v 0 z" />
    </clipPath>
    <clipPath
       id="clipPath16-4-5"
       clipPathUnits="userSpaceOnUse">
      <path
         id="path18-5-7"
         d="M 0,38 H 38 V 0 H 0 Z" />
    </clipPath>
    <clipPath
       id="clipPath56-9"
       clipPathUnits="userSpaceOnUse">
      <path
         id="path58-7"
         d="M 0,38 H 38 V 0 H 0 Z" />
    </clipPath>
    <clipPath
       id="clipPath44-2"
       clipPathUnits="userSpaceOnUse">
      <path
         id="path46-1-8"
         d="M 7,35 C 5.896,35 5,34.105 5,33 V 33 3 C 5,1.895 5.896,1 7,1 v 0 h 18 c 1.105,0 2,0.895 2,2 v 0 30 c 0,1.105 -0.895,2 -2,2 v 0 z" />
    </clipPath>
    <clipPath
       id="clipPath16-1-0-8"
       clipPathUnits="userSpaceOnUse">
      <path
         id="path18-3-2-0"
         d="M 0,38 H 38 V 0 H 0 Z" />
    </clipPath>
    <clipPath
       id="clipPath16-1-0-9"
       clipPathUnits="userSpaceOnUse">
      <path
         id="path18-3-2-1"
         d="M 0,38 H 38 V 0 H 0 Z" />
    </clipPath>
  </defs>
  <g
     transform="matrix(0.86588196,0.49972972,-0.49991718,0.86555727,414.63909,192.51114)"
     id="footway_surface">
    <path
       d="m -303.99992,63.999782 c 0,35.346 -28.654,63.999998 -64.00002,63.999998 -35.346,0 -64,-28.653998 -64,-63.999998 0,-35.346 28.654,-64 64,-64 35.34602,0 64.00002,28.654 64.00002,64"
       id="path4485-6-6-77-8-1"
       style="fill:#529add;fill-opacity:1;stroke-width:0.2" />
    <path
       style="fill:#000000;fill-opacity:0.2;stroke-width:0.2"
       d="m -332.5446,117.42775 c 2.8261,-1.83677 5.46837,-3.96091 7.96274,-6.20813 l 0.0774,-94.108128 c -2.49462,-2.24753 -4.32864,-4.08901 -8.06897,-5.73369 0,0 0.10064,106.174338 0.0288,106.049948 z"
       id="path4485-6-6-16-8-0-0-9-8" />
    <path
       style="fill:#999999;fill-opacity:1;stroke-width:0.2"
       d="m -367.9882,0.03494 c -11.66465,0 -22.59014,3.13589 -32.00781,8.58789 v 110.82422 c 9.41767,5.452 20.34316,8.58789 32.00781,8.58789 11.6437,0 22.55083,-3.12475 31.95703,-8.55859 V 8.59353 c -9.4062,-5.43384 -20.31333,-8.55859 -31.95703,-8.55859 z"
       id="path4485-6-6-1-3-9-5" />
    <g
       style="fill:#ffffff;fill-opacity:1;stroke:none;stroke-width:37.4858;stroke-miterlimit:4;stroke-dasharray:none;stroke-opacity:1;paint-order:stroke fill markers"
       transform="matrix(0.1300491,-0.07508388,-0.07511205,-0.13009788,-389.29902,129.66738)"
       id="g5816-9-0-3">
      <path
         id="path5832-9-8-2"
         transform="matrix(4.6857368,0,0,-4.6857368,706.79944,615.88054)"
         d="m -76.005859,18.328125 c -5.941222,0 -10.759766,4.817477 -10.759766,10.759766 0,5.942288 4.818544,10.757812 10.759766,10.757812 5.942288,0 10.759765,-4.815524 10.759765,-10.757812 0,-5.942289 -4.817477,-10.759766 -10.759765,-10.759766 z m -11.25586,25.431641 c -10.886155,4.071522 -19.280421,10.989509 -19.375001,22.498046 0,2.946175 2.38782,5.332032 5.33399,5.332032 2.946817,0 5.335293,-2.38607 5.335933,-5.332032 0.08844,-2.941311 1.335476,-5.438302 3.158203,-7.433593 0.05726,2.620499 0.475371,5.562328 1.376953,8.826172 C -91.986875,68.574745 -92.218727,69.965918 -92,72 c -1.882372,10.83227 -13.82484,17.880087 -21.52344,21.376953 -2.69285,1.196396 -3.90713,4.35033 -2.71094,7.042967 1.19726,2.69264 4.35033,3.90734 7.04297,2.71094 10.216343,-5.320753 23.210314,-13.903017 26.951176,-25.171876 8.48672,3.956431 16.428625,12.845038 17.859375,21.048828 0.415943,2.916938 3.120172,4.941338 6.037109,4.525388 2.916937,-0.41679 4.944141,-3.11626 4.527344,-6.0332 -2.212705,-13.165942 -11.30353,-22.908464 -22.642578,-28.617188 -3.284489,-1.410945 -3.544468,-9.07756 -3.359375,-11.841796 9.948574,5.647685 20.147605,8.169553 30.240234,3.216796 2.635871,-1.317188 3.701954,-4.522971 2.384766,-7.158203 -1.318043,-2.63502 -4.519066,-3.702808 -7.154297,-2.384765 -11.863265,5.864947 -19.251634,-3.11634 -25.494141,-6.751953 -2.232906,-1.564238 -5.201083,-1.568926 -7.419922,-0.203125 z"
         style="fill:#ffffff;fill-opacity:1;fill-rule:nonzero;stroke:none;stroke-width:7.99998;stroke-miterlimit:4;stroke-dasharray:none;stroke-opacity:1;paint-order:stroke fill markers" />
    </g>
    <path
       style="fill:#ffffff;fill-opacity:1;stroke-width:0.2"
       d="m -335.99992,8.52712 v 110.83204 c 2.80827,-1.62523 5.48255,-3.45379 8,-5.47266 V 13.99978 c -2.51745,-2.01887 -5.19173,-3.84743 -8,-5.47266 z"
       id="path4485-6-6-7-6-0-4" />
    <path
       style="fill:#ffffff;fill-opacity:1;stroke-width:0.2"
       d="m -399.99992,8.52712 c -2.80827,1.62523 -5.48255,3.45379 -8,5.47266 v 99.88672 c 2.51745,2.01887 5.19173,3.84743 8,5.47266 z"
       id="path4485-6-6-70-4-5-8" />
    <path
       d="m -379.98474,25.954285 a 6,6 0 0 1 -6,6 6,6 0 0 1 -6,-6 6,6 0 0 1 6,-6 6,6 0 0 1 6,6"
       style="opacity:1;vector-effect:none;fill:#bbbbbb;fill-opacity:1;stroke:none;stroke-width:12.6975;stroke-linecap:butt;stroke-linejoin:miter;stroke-miterlimit:4;stroke-dasharray:none;stroke-dashoffset:0;stroke-opacity:1;paint-order:stroke fill markers"
       id="path6983-7-6" />
    <path
       d="m -361.37814,15.569505 a 6,6 0 0 1 -6,6 6,6 0 0 1 -6,-6 6,6 0 0 1 6,-6.0000003 6,6 0 0 1 6,6.0000003"
       style="opacity:1;vector-effect:none;fill:#bbbbbb;fill-opacity:1;stroke:none;stroke-width:12.6975;stroke-linecap:butt;stroke-linejoin:miter;stroke-miterlimit:4;stroke-dasharray:none;stroke-dashoffset:0;stroke-opacity:1;paint-order:stroke fill markers"
       id="path6983-1-36-2" />
    <path
       d="m -337.99158,57.6171 a 6,6 0 0 1 -6,6 6,6 0 0 1 -6,-6 6,6 0 0 1 6,-6 6,6 0 0 1 6,6"
       style="opacity:1;vector-effect:none;fill:#cccccc;fill-opacity:1;stroke:none;stroke-width:12.6975;stroke-linecap:butt;stroke-linejoin:miter;stroke-miterlimit:4;stroke-dasharray:none;stroke-dashoffset:0;stroke-opacity:1;paint-order:stroke fill markers"
       id="path6983-1-1-4-4" />
    <path
       d="m -368.65021,108.93867 a 6,6 0 0 1 -6,6 6,6 0 0 1 -6,-6 6,6 0 0 1 6,-6 6,6 0 0 1 6,6"
       style="opacity:1;vector-effect:none;fill:#cccccc;fill-opacity:1;stroke:none;stroke-width:12.6975;stroke-linecap:butt;stroke-linejoin:miter;stroke-miterlimit:4;stroke-dasharray:none;stroke-dashoffset:0;stroke-opacity:1;paint-order:stroke fill markers"
       id="path6983-1-35-4-01" />
    <path
       d="m -344.51849,97.427368 a 6,6 0 0 1 -6,6.000002 6,6 0 0 1 -6,-6.000002 6,6 0 0 1 6,-6 6,6 0 0 1 6,6"
       style="opacity:1;vector-effect:none;fill:#cccccc;fill-opacity:1;stroke:none;stroke-width:12.6975;stroke-linecap:butt;stroke-linejoin:miter;stroke-miterlimit:4;stroke-dasharray:none;stroke-dashoffset:0;stroke-opacity:1;paint-order:stroke fill markers"
       id="path6983-1-6-1-8" />
    <path
       d="m -343.43701,24.061621 a 6,6 0 0 1 -6,6 6,6 0 0 1 -6,-6 6,6 0 0 1 6,-6 6,6 0 0 1 6,6"
       style="opacity:1;vector-effect:none;fill:#aaaaaa;fill-opacity:1;stroke:none;stroke-width:12.6975;stroke-linecap:butt;stroke-linejoin:miter;stroke-miterlimit:4;stroke-dasharray:none;stroke-dashoffset:0;stroke-opacity:1;paint-order:stroke fill markers"
       id="path6983-1-2-9-5" />
    <path
       d="m -349.62079,119.36849 a 6,6 0 0 1 -6,6 6,6 0 0 1 -6,-6 6,6 0 0 1 6,-6 6,6 0 0 1 6,6"
       style="opacity:1;vector-effect:none;fill:#aaaaaa;fill-opacity:1;stroke:none;stroke-width:12.6975;stroke-linecap:butt;stroke-linejoin:miter;stroke-miterlimit:4;stroke-dasharray:none;stroke-dashoffset:0;stroke-opacity:1;paint-order:stroke fill markers"
       id="path6983-1-98-9-5" />
    <path
       d="m -348.89285,29.871016 a 6,6 0 0 1 -6,6 6,6 0 0 1 -6,-6 6,6 0 0 1 6,-6 6,6 0 0 1 6,6"
       style="opacity:1;vector-effect:none;fill:#bbbbbb;fill-opacity:1;stroke:none;stroke-width:12.6975;stroke-linecap:butt;stroke-linejoin:miter;stroke-miterlimit:4;stroke-dasharray:none;stroke-dashoffset:0;stroke-opacity:1;paint-order:stroke fill markers"
       id="path6983-1-21-4-05" />
    <path
       d="m -353.00378,104.76189 a 6,6 0 0 1 -6,6 6,6 0 0 1 -6,-6 6,6 0 0 1 6,-6.000003 6,6 0 0 1 6,6.000003"
       style="opacity:1;vector-effect:none;fill:#bbbbbb;fill-opacity:1;stroke:none;stroke-width:12.6975;stroke-linecap:butt;stroke-linejoin:miter;stroke-miterlimit:4;stroke-dasharray:none;stroke-dashoffset:0;stroke-opacity:1;paint-order:stroke fill markers"
       id="path6983-1-8-6-4" />
    <path
       d="m -383.31927,115.34768 a 6,6 0 0 1 -6,6 6,6 0 0 1 -6,-6 6,6 0 0 1 6,-6 6,6 0 0 1 6,6"
       style="opacity:1;vector-effect:none;fill:#bbbbbb;fill-opacity:1;stroke:none;stroke-width:12.6975;stroke-linecap:butt;stroke-linejoin:miter;stroke-miterlimit:4;stroke-dasharray:none;stroke-dashoffset:0;stroke-opacity:1;paint-order:stroke fill markers"
       id="path6983-1-95-4-6" />
    <path
       d="m -372.31747,9.1430931 a 6,6 0 0 1 -6,5.9999999 6,6 0 0 1 -6,-5.9999999 6,6 0 0 1 6,-6 6,6 0 0 1 6,6"
       style="opacity:1;vector-effect:none;fill:#aaaaaa;fill-opacity:1;stroke:none;stroke-width:12.6975;stroke-linecap:butt;stroke-linejoin:miter;stroke-miterlimit:4;stroke-dasharray:none;stroke-dashoffset:0;stroke-opacity:1;paint-order:stroke fill markers"
       id="path6983-1-0-1-2" />
    <path
       d="m -365.71814,27.309858 a 4,4 0 0 1 -4,4 4,4 0 0 1 -4,-4 4,4 0 0 1 4,-4 4,4 0 0 1 4,4"
       style="opacity:1;vector-effect:none;fill:#bbbbbb;fill-opacity:1;stroke:none;stroke-width:8.465;stroke-linecap:butt;stroke-linejoin:miter;stroke-miterlimit:4;stroke-dasharray:none;stroke-dashoffset:0;stroke-opacity:1;paint-order:stroke fill markers"
       id="path7125-5-5" />
    <path
       d="m -353.81271,7.5387306 a 4,4 0 0 1 -4,4.0000004 4,4 0 0 1 -4,-4.0000004 4,4 0 0 1 4,-4 4,4 0 0 1 4,4"
       style="opacity:1;vector-effect:none;fill:#bbbbbb;fill-opacity:1;stroke:none;stroke-width:8.465;stroke-linecap:butt;stroke-linejoin:miter;stroke-miterlimit:4;stroke-dasharray:none;stroke-dashoffset:0;stroke-opacity:1;paint-order:stroke fill markers"
       id="path7125-2-9-21" />
    <path
       d="m -340.86298,36.748516 a 4,4 0 0 1 -4,4 4,4 0 0 1 -4,-4 4,4 0 0 1 4,-4 4,4 0 0 1 4,4"
       style="opacity:1;vector-effect:none;fill:#777777;fill-opacity:1;stroke:none;stroke-width:8.465;stroke-linecap:butt;stroke-linejoin:miter;stroke-miterlimit:4;stroke-dasharray:none;stroke-dashoffset:0;stroke-opacity:1;paint-order:stroke fill markers"
       id="path7125-1-9-6" />
    <path
       d="m -389.95212,55.343651 a 4,4 0 0 1 -4,4 4,4 0 0 1 -4,-4 4,4 0 0 1 4,-4 4,4 0 0 1 4,4"
       style="opacity:1;vector-effect:none;fill:#bbbbbb;fill-opacity:1;stroke:none;stroke-width:8.465;stroke-linecap:butt;stroke-linejoin:miter;stroke-miterlimit:4;stroke-dasharray:none;stroke-dashoffset:0;stroke-opacity:1;paint-order:stroke fill markers"
       id="path7125-24-3-8" />
    <path
       d="m -387.0611,80.699867 a 4,4 0 0 1 -4,4 4,4 0 0 1 -4,-4 4,4 0 0 1 4,-4 4,4 0 0 1 4,4"
       style="opacity:1;vector-effect:none;fill:#777777;fill-opacity:1;stroke:none;stroke-width:8.465;stroke-linecap:butt;stroke-linejoin:miter;stroke-miterlimit:4;stroke-dasharray:none;stroke-dashoffset:0;stroke-opacity:1;paint-order:stroke fill markers"
       id="path7125-4-1-2" />
    <path
       d="m -390.91501,90.034416 a 4,4 0 0 1 -4,4 4,4 0 0 1 -4,-4 4,4 0 0 1 4,-4 4,4 0 0 1 4,4"
       style="opacity:1;vector-effect:none;fill:#bbbbbb;fill-opacity:1;stroke:none;stroke-width:8.465;stroke-linecap:butt;stroke-linejoin:miter;stroke-miterlimit:4;stroke-dasharray:none;stroke-dashoffset:0;stroke-opacity:1;paint-order:stroke fill markers"
       id="path7125-9-8-1" />
    <path
       d="m -375.80231,121.60506 a 4,4 0 0 1 -4,4 4,4 0 0 1 -4,-4 4,4 0 0 1 4,-4 4,4 0 0 1 4,4"
       style="opacity:1;vector-effect:none;fill:#cccccc;fill-opacity:1;stroke:none;stroke-width:8.465;stroke-linecap:butt;stroke-linejoin:miter;stroke-miterlimit:4;stroke-dasharray:none;stroke-dashoffset:0;stroke-opacity:1;paint-order:stroke fill markers"
       id="path7125-3-5-0" />
    <path
       d="m -338.59314,106.80739 a 4,4 0 0 1 -4,4 4,4 0 0 1 -4,-4 4,4 0 0 1 4,-4 4,4 0 0 1 4,4"
       style="opacity:1;vector-effect:none;fill:#bbbbbb;fill-opacity:1;stroke:none;stroke-width:8.465;stroke-linecap:butt;stroke-linejoin:miter;stroke-miterlimit:4;stroke-dasharray:none;stroke-dashoffset:0;stroke-opacity:1;paint-order:stroke fill markers"
       id="path7125-12-5-7" />
    <path
       d="m -353.08139,90.828209 a 4,4 0 0 1 -4,4 4,4 0 0 1 -4,-4 4,4 0 0 1 4,-4 4,4 0 0 1 4,4"
       style="opacity:1;vector-effect:none;fill:#bbbbbb;fill-opacity:1;stroke:none;stroke-width:8.465;stroke-linecap:butt;stroke-linejoin:miter;stroke-miterlimit:4;stroke-dasharray:none;stroke-dashoffset:0;stroke-opacity:1;paint-order:stroke fill markers"
       id="path7125-21-7-1" />
    <path
       d="m -338.0658,45.783047 a 4,4 0 0 1 -4,4 4,4 0 0 1 -4,-4 4,4 0 0 1 4,-4 4,4 0 0 1 4,4"
       style="opacity:1;vector-effect:none;fill:#bbbbbb;fill-opacity:1;stroke:none;stroke-width:8.465;stroke-linecap:butt;stroke-linejoin:miter;stroke-miterlimit:4;stroke-dasharray:none;stroke-dashoffset:0;stroke-opacity:1;paint-order:stroke fill markers"
       id="path7125-6-8-7" />
    <path
       d="m -387.0918,10.96677 a 4,4 0 0 1 -4,4 4,4 0 0 1 -4,-4 4,4 0 0 1 4,-3.9999998 4,4 0 0 1 4,3.9999998"
       style="opacity:1;vector-effect:none;fill:#bbbbbb;fill-opacity:1;stroke:none;stroke-width:8.465;stroke-linecap:butt;stroke-linejoin:miter;stroke-miterlimit:4;stroke-dasharray:none;stroke-dashoffset:0;stroke-opacity:1;paint-order:stroke fill markers"
       id="path7125-68-1-87" />
    <path
       d="m -341.10904,12.353333 a 4,4 0 0 1 -4,4 4,4 0 0 1 -4,-4 4,4 0 0 1 4,-3.9999995 4,4 0 0 1 4,3.9999995"
       style="opacity:1;vector-effect:none;fill:#bbbbbb;fill-opacity:1;stroke:none;stroke-width:8.465;stroke-linecap:butt;stroke-linejoin:miter;stroke-miterlimit:4;stroke-dasharray:none;stroke-dashoffset:0;stroke-opacity:1;paint-order:stroke fill markers"
       id="path7125-66-6-5" />
    <path
       d="m -361.04684,25.508953 a 2,2 0 0 1 -2,2 2,2 0 0 1 -2,-2 2,2 0 0 1 2,-2 2,2 0 0 1 2,2"
       style="opacity:1;vector-effect:none;fill:#cccccc;fill-opacity:1;stroke:none;stroke-width:8.465;stroke-linecap:butt;stroke-linejoin:miter;stroke-miterlimit:4;stroke-dasharray:none;stroke-dashoffset:0;stroke-opacity:1;paint-order:stroke fill markers"
       id="path7214-63-5" />
    <path
       d="m -389.10498,100.19106 a 2,2 0 0 1 -2,2 2,2 0 0 1 -2,-2 2,2 0 0 1 2,-1.999997 2,2 0 0 1 2,1.999997"
       style="opacity:1;vector-effect:none;fill:#aaaaaa;fill-opacity:1;stroke:none;stroke-width:8.465;stroke-linecap:butt;stroke-linejoin:miter;stroke-miterlimit:4;stroke-dasharray:none;stroke-dashoffset:0;stroke-opacity:1;paint-order:stroke fill markers"
       id="path7214-9-0-9" />
    <path
       d="m -374.27377,22.377565 a 2,2 0 0 1 -2,2 2,2 0 0 1 -2,-2 2,2 0 0 1 2,-2 2,2 0 0 1 2,2"
       style="opacity:1;vector-effect:none;fill:#cccccc;fill-opacity:1;stroke:none;stroke-width:8.465;stroke-linecap:butt;stroke-linejoin:miter;stroke-miterlimit:4;stroke-dasharray:none;stroke-dashoffset:0;stroke-opacity:1;paint-order:stroke fill markers"
       id="path7214-5-5-8" />
    <path
       d="m -342.33673,89.447578 a 2,2 0 0 1 -2,2 2,2 0 0 1 -2,-2 2,2 0 0 1 2,-2 2,2 0 0 1 2,2"
       style="opacity:1;vector-effect:none;fill:#cccccc;fill-opacity:1;stroke:none;stroke-width:8.465;stroke-linecap:butt;stroke-linejoin:miter;stroke-miterlimit:4;stroke-dasharray:none;stroke-dashoffset:0;stroke-opacity:1;paint-order:stroke fill markers"
       id="path7214-3-8-0" />
    <path
       d="m -384.78326,89.018356 a 2,2 0 0 1 -2,2 2,2 0 0 1 -2,-2 2,2 0 0 1 2,-2 2,2 0 0 1 2,2"
       style="opacity:1;vector-effect:none;fill:#cccccc;fill-opacity:1;stroke:none;stroke-width:8.465;stroke-linecap:butt;stroke-linejoin:miter;stroke-miterlimit:4;stroke-dasharray:none;stroke-dashoffset:0;stroke-opacity:1;paint-order:stroke fill markers"
       id="path7214-45-3-2" />
    <path
       d="m -349.72604,110.13151 a 2,2 0 0 1 -2,2 2,2 0 0 1 -2,-2 2,2 0 0 1 2,-2 2,2 0 0 1 2,2"
       style="opacity:1;vector-effect:none;fill:#cccccc;fill-opacity:1;stroke:none;stroke-width:8.465;stroke-linecap:butt;stroke-linejoin:miter;stroke-miterlimit:4;stroke-dasharray:none;stroke-dashoffset:0;stroke-opacity:1;paint-order:stroke fill markers"
       id="path7214-7-5-65" />
    <path
       d="m -370.24991,124.49978 a 2,2 0 0 1 -2,2 2,2 0 0 1 -2,-2 2,2 0 0 1 2,-2 2,2 0 0 1 2,2"
       style="opacity:1;vector-effect:none;fill:#cccccc;fill-opacity:1;stroke:none;stroke-width:8.465;stroke-linecap:butt;stroke-linejoin:miter;stroke-miterlimit:4;stroke-dasharray:none;stroke-dashoffset:0;stroke-opacity:1;paint-order:stroke fill markers"
       id="path7214-79-9-5" />
    <path
       d="m -341.24991,119.99978 a 2,2 0 0 1 -2,2 2,2 0 0 1 -2,-2 2,2 0 0 1 2,-2 2,2 0 0 1 2,2"
       style="opacity:1;vector-effect:none;fill:#bbbbbb;fill-opacity:1;stroke:none;stroke-width:8.465;stroke-linecap:butt;stroke-linejoin:miter;stroke-miterlimit:4;stroke-dasharray:none;stroke-dashoffset:0;stroke-opacity:1;paint-order:stroke fill markers"
       id="path7214-33-3-0" />
    <path
       d="m -394.19568,67.807205 a 2,2 0 0 1 -2,2 2,2 0 0 1 -2,-2 2,2 0 0 1 2,-2 2,2 0 0 1 2,2"
       style="opacity:1;vector-effect:none;fill:#777777;fill-opacity:1;stroke:none;stroke-width:8.465;stroke-linecap:butt;stroke-linejoin:miter;stroke-miterlimit:4;stroke-dasharray:none;stroke-dashoffset:0;stroke-opacity:1;paint-order:stroke fill markers"
       id="path7214-8-2-4" />
    <path
       d="m -391.74991,28.999779 a 2,2 0 0 1 -2,2 2,2 0 0 1 -2,-2 2,2 0 0 1 2,-2 2,2 0 0 1 2,2"
       style="opacity:1;vector-effect:none;fill:#bbbbbb;fill-opacity:1;stroke:none;stroke-width:8.465;stroke-linecap:butt;stroke-linejoin:miter;stroke-miterlimit:4;stroke-dasharray:none;stroke-dashoffset:0;stroke-opacity:1;paint-order:stroke fill markers"
       id="path7214-335-2-1" />
    <path
       d="m -356.74991,16.749779 a 2,2 0 0 1 -2,2 2,2 0 0 1 -2,-2 2,2 0 0 1 2,-2 2,2 0 0 1 2,2"
       style="opacity:1;vector-effect:none;fill:#cccccc;fill-opacity:1;stroke:none;stroke-width:8.465;stroke-linecap:butt;stroke-linejoin:miter;stroke-miterlimit:4;stroke-dasharray:none;stroke-dashoffset:0;stroke-opacity:1;paint-order:stroke fill markers"
       id="path7214-70-7-2" />
    <path
       d="m -338.74991,20.749781 a 2,2 0 0 1 -2,2 2,2 0 0 1 -2,-2 2,2 0 0 1 2,-2 2,2 0 0 1 2,2"
       style="opacity:1;vector-effect:none;fill:#cccccc;fill-opacity:1;stroke:none;stroke-width:8.465;stroke-linecap:butt;stroke-linejoin:miter;stroke-miterlimit:4;stroke-dasharray:none;stroke-dashoffset:0;stroke-opacity:1;paint-order:stroke fill markers"
       id="path7214-0-5-92" />
    <path
       d="m -395.24991,76.249779 a 2,2 0 0 1 -2,2 2,2 0 0 1 -2,-2 2,2 0 0 1 2,-2 2,2 0 0 1 2,2"
       style="opacity:1;vector-effect:none;fill:#aaaaaa;fill-opacity:1;stroke:none;stroke-width:8.465;stroke-linecap:butt;stroke-linejoin:miter;stroke-miterlimit:4;stroke-dasharray:none;stroke-dashoffset:0;stroke-opacity:1;paint-order:stroke fill markers"
       id="path7214-48-9-0" />
    <path
       d="m -337.99991,67.999779 a 2,2 0 0 1 -2,2 2,2 0 0 1 -2,-2 2,2 0 0 1 2,-2 2,2 0 0 1 2,2"
       style="opacity:1;vector-effect:none;fill:#cccccc;fill-opacity:1;stroke:none;stroke-width:8.465;stroke-linecap:butt;stroke-linejoin:miter;stroke-miterlimit:4;stroke-dasharray:none;stroke-dashoffset:0;stroke-opacity:1;paint-order:stroke fill markers"
       id="path7214-75-3-1" />
    <path
       d="m -352.24991,83.749779 a 2,2 0 0 1 -2,2 2,2 0 0 1 -2,-2 2,2 0 0 1 2,-2 2,2 0 0 1 2,2"
       style="opacity:1;vector-effect:none;fill:#777777;fill-opacity:1;stroke:none;stroke-width:8.465;stroke-linecap:butt;stroke-linejoin:miter;stroke-miterlimit:4;stroke-dasharray:none;stroke-dashoffset:0;stroke-opacity:1;paint-order:stroke fill markers"
       id="path7214-85-9-9" />
    <path
       d="m -366.74991,100.24978 a 2,2 0 0 1 -2,2 2,2 0 0 1 -2,-2 2,2 0 0 1 2,-2.000001 2,2 0 0 1 2,2.000001"
       style="opacity:1;vector-effect:none;fill:#aaaaaa;fill-opacity:1;stroke:none;stroke-width:8.465;stroke-linecap:butt;stroke-linejoin:miter;stroke-miterlimit:4;stroke-dasharray:none;stroke-dashoffset:0;stroke-opacity:1;paint-order:stroke fill markers"
       id="path7214-6-8-7" />
    <path
       d="m -338.49991,92.999779 a 2,2 0 0 1 -2,2 2,2 0 0 1 -2,-2 2,2 0 0 1 2,-2 2,2 0 0 1 2,2"
       style="opacity:1;vector-effect:none;fill:#cccccc;fill-opacity:1;stroke:none;stroke-width:8.465;stroke-linecap:butt;stroke-linejoin:miter;stroke-miterlimit:4;stroke-dasharray:none;stroke-dashoffset:0;stroke-opacity:1;paint-order:stroke fill markers"
       id="path7214-76-6-7" />
    <path
       d="m -393.49991,48.499779 a 2,2 0 0 1 -2,2 2,2 0 0 1 -2,-2 2,2 0 0 1 2,-2 2,2 0 0 1 2,2"
       style="opacity:1;vector-effect:none;fill:#aaaaaa;fill-opacity:1;stroke:none;stroke-width:8.465;stroke-linecap:butt;stroke-linejoin:miter;stroke-miterlimit:4;stroke-dasharray:none;stroke-dashoffset:0;stroke-opacity:1;paint-order:stroke fill markers"
       id="path7214-04-5-6" />
    <path
       d="m -361.13049,94.295853 a 3.2250135,3.2250135 0 0 1 -3.22501,3.225013 3.2250135,3.2250135 0 0 1 -3.22501,-3.225013 3.2250135,3.2250135 0 0 1 3.22501,-3.225014 3.2250135,3.2250135 0 0 1 3.22501,3.225014"
       style="opacity:1;vector-effect:none;fill:#cccccc;fill-opacity:1;stroke:none;stroke-width:8.465;stroke-linecap:butt;stroke-linejoin:miter;stroke-miterlimit:4;stroke-dasharray:none;stroke-dashoffset:0;stroke-opacity:1;paint-order:stroke fill markers"
       id="path7369-7-5-0" />
    <path
       d="m -363.44939,117.58874 a 3.2250135,3.2250135 0 0 1 -3.22502,3.22501 3.2250135,3.2250135 0 0 1 -3.22501,-3.22501 3.2250135,3.2250135 0 0 1 3.22501,-3.22502 3.2250135,3.2250135 0 0 1 3.22502,3.22502"
       style="opacity:1;vector-effect:none;fill:#777777;fill-opacity:1;stroke:none;stroke-width:8.465;stroke-linecap:butt;stroke-linejoin:miter;stroke-miterlimit:4;stroke-dasharray:none;stroke-dashoffset:0;stroke-opacity:1;paint-order:stroke fill markers"
       id="path7369-8-7-0" />
    <path
       d="m -389.17309,104.26158 a 3.2250135,3.2250135 0 0 1 -3.22501,3.22501 3.2250135,3.2250135 0 0 1 -3.22502,-3.22501 3.2250135,3.2250135 0 0 1 3.22502,-3.22501 3.2250135,3.2250135 0 0 1 3.22501,3.22501"
       style="opacity:1;vector-effect:none;fill:#777777;fill-opacity:1;stroke:none;stroke-width:8.465;stroke-linecap:butt;stroke-linejoin:miter;stroke-miterlimit:4;stroke-dasharray:none;stroke-dashoffset:0;stroke-opacity:1;paint-order:stroke fill markers"
       id="path7369-78-3-0" />
    <path
       d="m -341.28985,112.28544 a 3.2250135,3.2250135 0 0 1 -3.22501,3.22501 3.2250135,3.2250135 0 0 1 -3.22502,-3.22501 3.2250135,3.2250135 0 0 1 3.22502,-3.22501 3.2250135,3.2250135 0 0 1 3.22501,3.22501"
       style="opacity:1;vector-effect:none;fill:#777777;fill-opacity:1;stroke:none;stroke-width:8.465;stroke-linecap:butt;stroke-linejoin:miter;stroke-miterlimit:4;stroke-dasharray:none;stroke-dashoffset:0;stroke-opacity:1;paint-order:stroke fill markers"
       id="path7369-3-1-60" />
    <path
       d="m -379.84457,16.354727 a 3.2250135,3.2250135 0 0 1 -3.22501,3.225013 3.2250135,3.2250135 0 0 1 -3.22501,-3.225013 3.2250135,3.2250135 0 0 1 3.22501,-3.225014 3.2250135,3.2250135 0 0 1 3.22501,3.225014"
       style="opacity:1;vector-effect:none;fill:#cccccc;fill-opacity:1;stroke:none;stroke-width:8.465;stroke-linecap:butt;stroke-linejoin:miter;stroke-miterlimit:4;stroke-dasharray:none;stroke-dashoffset:0;stroke-opacity:1;paint-order:stroke fill markers"
       id="path7369-2-1-5" />
    <path
       d="m -361.35229,5.6129775 a 3.2250135,3.2250135 0 0 1 -3.22501,3.2250135 3.2250135,3.2250135 0 0 1 -3.22501,-3.2250135 3.2250135,3.2250135 0 0 1 3.22501,-3.2250135 3.2250135,3.2250135 0 0 1 3.22501,3.2250135"
       style="opacity:1;vector-effect:none;fill:#777777;fill-opacity:1;stroke:none;stroke-width:8.465;stroke-linecap:butt;stroke-linejoin:miter;stroke-miterlimit:4;stroke-dasharray:none;stroke-dashoffset:0;stroke-opacity:1;paint-order:stroke fill markers"
       id="path7369-0-2-83" />
    <path
       d="m -337.70757,88.393768 a 3.2250135,3.2250135 0 0 1 -3.22502,3.225014 3.2250135,3.2250135 0 0 1 -3.22501,-3.225014 3.2250135,3.2250135 0 0 1 3.22501,-3.225013 3.2250135,3.2250135 0 0 1 3.22502,3.225013"
       style="opacity:1;vector-effect:none;fill:#bbbbbb;fill-opacity:1;stroke:none;stroke-width:8.465;stroke-linecap:butt;stroke-linejoin:miter;stroke-miterlimit:4;stroke-dasharray:none;stroke-dashoffset:0;stroke-opacity:1;paint-order:stroke fill markers"
       id="path7369-45-3-8" />
    <path
       d="m -393.67529,35.29351 a 2,2 0 0 1 -2,2 2,2 0 0 1 -2,-2 2,2 0 0 1 2,-2 2,2 0 0 1 2,2"
       style="opacity:1;vector-effect:none;fill:#cccccc;fill-opacity:1;stroke:none;stroke-width:8.465;stroke-linecap:butt;stroke-linejoin:miter;stroke-miterlimit:4;stroke-dasharray:none;stroke-dashoffset:0;stroke-opacity:1;paint-order:stroke fill markers"
       id="path7214-5-5-8-3" />
  </g>
</svg>
