<?xml version="1.0" encoding="UTF-8" standalone="no"?>
<svg
   xmlns:dc="http://purl.org/dc/elements/1.1/"
   xmlns:cc="http://creativecommons.org/ns#"
   xmlns:rdf="http://www.w3.org/1999/02/22-rdf-syntax-ns#"
   xmlns:svg="http://www.w3.org/2000/svg"
   xmlns="http://www.w3.org/2000/svg"
   width="128.02121"
   height="128.02119"
   version="1.1"
   viewBox="0 0 128.02121 128.02119"
   id="svg4497">
  <metadata
     id="metadata4503">
    <rdf:RDF>
      <cc:Work
         rdf:about="">
        <dc:format>image/svg+xml</dc:format>
        <dc:type
           rdf:resource="http://purl.org/dc/dcmitype/StillImage" />
        <dc:title />
        <cc:license
           rdf:resource="http://creativecommons.org/licenses/by-sa/4.0/" />
        <dc:creator>
          <cc:Agent>
            <dc:title>Tobias Zwick</dc:title>
          </cc:Agent>
        </dc:creator>
      </cc:Work>
      <cc:License
         rdf:about="http://creativecommons.org/licenses/by-sa/4.0/">
        <cc:permits
           rdf:resource="http://creativecommons.org/ns#Reproduction" />
        <cc:permits
           rdf:resource="http://creativecommons.org/ns#Distribution" />
        <cc:requires
           rdf:resource="http://creativecommons.org/ns#Notice" />
        <cc:requires
           rdf:resource="http://creativecommons.org/ns#Attribution" />
        <cc:permits
           rdf:resource="http://creativecommons.org/ns#DerivativeWorks" />
        <cc:requires
           rdf:resource="http://creativecommons.org/ns#ShareAlike" />
      </cc:License>
    </rdf:RDF>
  </metadata>
  <defs
     id="defs4501">
    <clipPath
       id="clipPath16-1-0"
       clipPathUnits="userSpaceOnUse">
      <path
         id="path18-3-2"
         d="M 0,38 H 38 V 0 H 0 Z" />
    </clipPath>
    <clipPath
       id="clipPath16-1-4-4"
       clipPathUnits="userSpaceOnUse">
      <path
         id="path18-85-8-0"
         d="M 0,36 H 36 V 0 H 0 Z" />
    </clipPath>
    <clipPath
       id="clipPath32-8-7"
       clipPathUnits="userSpaceOnUse">
      <path
         id="path34-5-0-1"
         d="M 11.815,23.013 C 4.2,15.397 -1.265,2.86 0.502,1.093 v 0 c 1.768,-1.768 14.305,3.698 21.92,11.313 v 0 c 7.616,7.615 7.562,11.53 4.243,14.85 v 0 c -1.328,1.328 -2.752,2.133 -4.47,2.133 v 0 c -2.575,0 -5.812,-1.809 -10.38,-6.376" />
    </clipPath>
    <clipPath
       id="clipPath16-1-4-4-0"
       clipPathUnits="userSpaceOnUse">
      <path
         id="path18-85-8-0-7"
         d="M 0,36 H 36 V 0 H 0 Z" />
    </clipPath>
    <clipPath
       id="clipPath32-8-7-8"
       clipPathUnits="userSpaceOnUse">
      <path
         id="path34-5-0-1-0"
         d="M 11.815,23.013 C 4.2,15.397 -1.265,2.86 0.502,1.093 v 0 c 1.768,-1.768 14.305,3.698 21.92,11.313 v 0 c 7.616,7.615 7.562,11.53 4.243,14.85 v 0 c -1.328,1.328 -2.752,2.133 -4.47,2.133 v 0 c -2.575,0 -5.812,-1.809 -10.38,-6.376" />
    </clipPath>
    <clipPath
       id="clipPath44"
       clipPathUnits="userSpaceOnUse">
      <path
         id="path46-1"
         d="M 7,35 C 5.896,35 5,34.105 5,33 V 33 3 C 5,1.895 5.896,1 7,1 v 0 h 18 c 1.105,0 2,0.895 2,2 v 0 30 c 0,1.105 -0.895,2 -2,2 v 0 z" />
    </clipPath>
    <clipPath
       id="clipPath16-4-5"
       clipPathUnits="userSpaceOnUse">
      <path
         id="path18-5-7"
         d="M 0,38 H 38 V 0 H 0 Z" />
    </clipPath>
    <clipPath
       id="clipPath56-9"
       clipPathUnits="userSpaceOnUse">
      <path
         id="path58-7"
         d="M 0,38 H 38 V 0 H 0 Z" />
    </clipPath>
    <clipPath
       id="clipPath44-2"
       clipPathUnits="userSpaceOnUse">
      <path
         id="path46-1-8"
         d="M 7,35 C 5.896,35 5,34.105 5,33 V 33 3 C 5,1.895 5.896,1 7,1 v 0 h 18 c 1.105,0 2,0.895 2,2 v 0 30 c 0,1.105 -0.895,2 -2,2 v 0 z" />
    </clipPath>
    <clipPath
       id="clipPath16-1-0-8"
       clipPathUnits="userSpaceOnUse">
      <path
         id="path18-3-2-0"
         d="M 0,38 H 38 V 0 H 0 Z" />
    </clipPath>
    <clipPath
       id="clipPath16-1-0-9"
       clipPathUnits="userSpaceOnUse">
      <path
         id="path18-3-2-1"
         d="M 0,38 H 38 V 0 H 0 Z" />
    </clipPath>
  </defs>
  <g
     transform="rotate(30,-152.01485,870.14782)"
     id="fuel">
    <path
       d="m -303.99992,63.999782 c 0,35.346 -28.654,63.999998 -64.00002,63.999998 -35.346,0 -64,-28.653998 -64,-63.999998 0,-35.346 28.654,-64 64,-64 35.34602,0 64.00002,28.654 64.00002,64"
       id="path4485-6-6-3-4-8-8"
       style="fill:#ffdd55;fill-opacity:1;stroke-width:0.2" />
    <path
       id="path8878-8"
       d="m -344.11574,26.275595 c -2.0103,-9.93086 -4.6084,-10.88895 -10.7098,-14.570909"
       style="fill:none;fill-rule:evenodd;stroke:#cccccc;stroke-width:3;stroke-linecap:butt;stroke-linejoin:round;stroke-miterlimit:4;stroke-dasharray:none;stroke-opacity:1" />
    <path
       style="opacity:1;vector-effect:none;fill:#000000;fill-opacity:0.2;stroke:none;stroke-width:6;stroke-linecap:round;stroke-linejoin:round;stroke-miterlimit:4;stroke-dasharray:none;stroke-dashoffset:0;stroke-opacity:1;paint-order:normal"
       d="m -411.98757,47.646743 c -1.92211,1.102804 -2.5721,3.544998 -1.4641,5.464102 l 14,24.248711 c 1.10799,1.919104 3.48316,2.457222 5.4641,1.464102 l 1.73892,-0.870908 18,31.17691 -3.46411,2 0.5359,8.9282 45.03332,-25.999992 -7.4641,-4.928203 -3.4641,2 -12.5,-21.650636 c 2.70633,-1.562491 3.86869,-1.249633 5.75154,-0.08884 1.88285,1.160792 4.06479,3.675222 6.41981,6.408434 2.35492,2.733253 4.91419,5.714826 8.48564,7.486773 3.57146,1.771938 8.25762,1.831405 12.94194,-0.873103 2.28553,-1.31955 3.99484,-2.748534 5.09361,-4.533013 1.09877,-1.784478 1.39356,-3.946685 0.98632,-5.799439 -0.81455,-3.705457 -3.48222,-6.349788 -6.27009,-9.133531 -2.78789,-2.783751 -5.89066,-5.605321 -8.15677,-8.479538 -2.1061,-2.671273 -3.38774,-5.238129 -3.48773,-7.826118 l 2.21668,-0.594198 -5.17516,-19.31904 -2.77564,0.743256 c -0.99149,-4.247522 -2.23593,-7.115959 -4.11764,-9.311769 -2.11998,-2.473714 -4.62864,-3.756446 -7.61662,-5.559572 l -3.1008,5.137065 c 3.11335,1.878877 4.95559,2.917933 6.16266,4.326434 1.08789,1.269474 1.99963,3.140054 2.87142,6.961841 l -6.87918,1.842715 1.0362,3.864946 0.67345,0.389246 -2.79323,4.939197 -0.008,1.955316 4.00195,7.208984 2.26555,0.963041 5.79565,-1.555427 9.8e-4,0.0017 1.54833,-0.415814 c 0.49567,3.786121 2.41383,7.104869 4.66781,9.963892 2.71174,3.439471 6.00117,6.388132 8.6289,9.012083 2.62781,2.623909 4.39846,5.023155 4.65121,6.173343 0.12647,0.575048 0.1147,0.794459 -0.23732,1.36614 -0.35202,0.571682 -1.2365,1.473918 -2.98449,2.483118 -3.38269,1.953 -5.19714,1.721881 -7.27286,0.692036 -2.07571,-1.029837 -4.31202,-3.362441 -6.60778,-6.027007 -2.29576,-2.664575 -4.6202,-5.629025 -7.81519,-7.598717 -3.19491,-1.96975 -7.67949,-2.438064 -11.90137,-5.73e-4 l -2.5,-4.330127 1.85217,-1.06935 c 1.91912,-1.107991 2.5721,-3.544989 1.4641,-5.464102 l -14,-24.248711 c -1.10799,-1.919095 -3.54182,-2.566611 -5.4641,-1.464102 z m 64.93897,-10.526208 0.76147,0.43991 3.35786,7.382391 -3.64286,0.975574 -2.70002,-4.864166 z"
       id="rect8867-5" />
    <g
       id="g9014">
      <path
         id="rect8867"
         d="m -413.98663,44.183061 c -1.92211,1.102804 -2.5721,3.544998 -1.4641,5.464101 l 14,24.248712 c 1.10799,1.919103 3.48316,2.457222 5.4641,1.464101 l 1.73798,-0.871326 20,34.641011 31.17691,-17.999995 -20,-34.641016 1.85278,-1.0697 c 1.91911,-1.108 2.5721,-3.544998 1.4641,-5.464102 l -14,-24.248711 c -1.10799,-1.919104 -3.54182,-2.56662 -5.4641,-1.464102 z"
         style="opacity:1;vector-effect:none;fill:#41a94c;fill-opacity:1;stroke:none;stroke-width:6;stroke-linecap:round;stroke-linejoin:round;stroke-miterlimit:4;stroke-dasharray:none;stroke-dashoffset:0;stroke-opacity:1;paint-order:normal" />
      <path
         id="path8871"
         d="m -359.07174,63.416852 c 13.85641,-8 17.46411,22.248711 33.59813,12.933728 16.13402,-9.314982 -13.84167,-18.714547 -13.34941,-33.861931"
         style="fill:none;fill-rule:evenodd;stroke:#666666;stroke-width:6;stroke-linecap:butt;stroke-linejoin:miter;stroke-miterlimit:4;stroke-dasharray:none;stroke-opacity:1" />
      <g
         transform="matrix(-0.70710678,0.70710678,0.70710678,0.70710678,-616.32512,280.48027)"
         id="g8883">
        <path
           style="fill:none;fill-rule:evenodd;stroke:#555555;stroke-width:4;stroke-linecap:butt;stroke-linejoin:bevel;stroke-miterlimit:4;stroke-dasharray:none;stroke-opacity:1"
           d="m -364.44199,12.13186 6.88692,1.911925 2.26794,7.928203 -5.19615,3"
           id="path8876" />
        <path
           style="fill:none;fill-rule:evenodd;stroke:#aaaaaa;stroke-width:6;stroke-linecap:butt;stroke-linejoin:round;stroke-miterlimit:4;stroke-dasharray:none;stroke-opacity:1"
           d="m -372.23095,12.731251 c -5.60064,-8.4437258 -4.441,-10.9583003 -2.7302,-17.876185"
           id="path8878" />
        <path
           style="fill:#41a94c;fill-opacity:1;fill-rule:evenodd;stroke:none;stroke-width:1px;stroke-linecap:butt;stroke-linejoin:miter;stroke-opacity:1"
           d="m -378.14353,14.383531 13.8564,-8.0000001 2,3.4641016 -1.4641,5.4641015 4.26795,11.392305 -8.66025,5 z"
           id="path8874" />
      </g>
      <path
         id="rect8865"
         d="m -379.71276,107.66557 38.10515,-22.000018 7.46408,4.928214 -45.03332,26.000004 z"
         style="opacity:1;vector-effect:none;fill:#666666;fill-opacity:1;stroke:none;stroke-width:6;stroke-linecap:round;stroke-linejoin:round;stroke-miterlimit:4;stroke-dasharray:none;stroke-dashoffset:0;stroke-opacity:1;paint-order:normal" />
      <path
         d="m -374.67369,-162.61526 h 27.99999 c 2.21599,0 3.99999,1.78399 3.99999,3.99999 v 16.00001 c 0,2.216 -1.784,3.99999 -3.99999,3.99999 h -27.99999 c -2.21599,0 -3.99999,-1.78399 -3.99999,-3.99999 v -16.00001 c 0,-2.216 1.784,-3.99999 3.99999,-3.99999 z"
         transform="rotate(-30)"
         style="opacity:1;vector-effect:none;fill:#ffffff;fill-opacity:1;stroke:none;stroke-width:6;stroke-linecap:butt;stroke-linejoin:round;stroke-miterlimit:4;stroke-dasharray:none;stroke-dashoffset:0;stroke-opacity:1;paint-order:normal"
         id="rect8885" />
      <path
         id="rect8887"
         d="m -370.67368,-156.61526 h 20 v 4 h -20 z"
         style="opacity:1;vector-effect:none;fill:#999999;fill-opacity:1;stroke:none;stroke-width:6;stroke-linecap:butt;stroke-linejoin:round;stroke-miterlimit:4;stroke-dasharray:none;stroke-dashoffset:0;stroke-opacity:1;paint-order:normal"
         transform="rotate(-30)" />
      <path
         id="rect8887-4"
         d="m -370.67368,-148.61526 h 20 v 4 h -20 z"
         style="opacity:1;vector-effect:none;fill:#999999;fill-opacity:1;stroke:none;stroke-width:6;stroke-linecap:butt;stroke-linejoin:round;stroke-miterlimit:4;stroke-dasharray:none;stroke-dashoffset:0;stroke-opacity:1;paint-order:normal"
         transform="rotate(-30)" />
    </g>
  </g>
</svg>
