<?xml version="1.0" encoding="UTF-8" standalone="no"?>
<svg
   xmlns:dc="http://purl.org/dc/elements/1.1/"
   xmlns:cc="http://creativecommons.org/ns#"
   xmlns:rdf="http://www.w3.org/1999/02/22-rdf-syntax-ns#"
   xmlns:svg="http://www.w3.org/2000/svg"
   xmlns="http://www.w3.org/2000/svg"
   width="128"
   height="128"
   version="1.1"
   viewBox="0 0 128 128"
   id="svg4497">
  <metadata
     id="metadata4503">
    <rdf:RDF>
      <cc:Work
         rdf:about="">
        <dc:format>image/svg+xml</dc:format>
        <dc:type
           rdf:resource="http://purl.org/dc/dcmitype/StillImage" />
        <dc:title />
        <cc:license
           rdf:resource="http://creativecommons.org/licenses/by-sa/4.0/" />
        <dc:creator>
          <cc:Agent>
            <dc:title>Tobias Zwick</dc:title>
          </cc:Agent>
        </dc:creator>
      </cc:Work>
      <cc:License
         rdf:about="http://creativecommons.org/licenses/by-sa/4.0/">
        <cc:permits
           rdf:resource="http://creativecommons.org/ns#Reproduction" />
        <cc:permits
           rdf:resource="http://creativecommons.org/ns#Distribution" />
        <cc:requires
           rdf:resource="http://creativecommons.org/ns#Notice" />
        <cc:requires
           rdf:resource="http://creativecommons.org/ns#Attribution" />
        <cc:permits
           rdf:resource="http://creativecommons.org/ns#DerivativeWorks" />
        <cc:requires
           rdf:resource="http://creativecommons.org/ns#ShareAlike" />
      </cc:License>
    </rdf:RDF>
  </metadata>
  <defs
     id="defs4501">
    <clipPath
       id="clipPath16-1-0"
       clipPathUnits="userSpaceOnUse">
      <path
         id="path18-3-2"
         d="M 0,38 H 38 V 0 H 0 Z" />
    </clipPath>
    <clipPath
       id="clipPath16-1-4-4"
       clipPathUnits="userSpaceOnUse">
      <path
         id="path18-85-8-0"
         d="M 0,36 H 36 V 0 H 0 Z" />
    </clipPath>
    <clipPath
       id="clipPath32-8-7"
       clipPathUnits="userSpaceOnUse">
      <path
         id="path34-5-0-1"
         d="M 11.815,23.013 C 4.2,15.397 -1.265,2.86 0.502,1.093 v 0 c 1.768,-1.768 14.305,3.698 21.92,11.313 v 0 c 7.616,7.615 7.562,11.53 4.243,14.85 v 0 c -1.328,1.328 -2.752,2.133 -4.47,2.133 v 0 c -2.575,0 -5.812,-1.809 -10.38,-6.376" />
    </clipPath>
    <clipPath
       id="clipPath16-1-4-4-0"
       clipPathUnits="userSpaceOnUse">
      <path
         id="path18-85-8-0-7"
         d="M 0,36 H 36 V 0 H 0 Z" />
    </clipPath>
    <clipPath
       id="clipPath32-8-7-8"
       clipPathUnits="userSpaceOnUse">
      <path
         id="path34-5-0-1-0"
         d="M 11.815,23.013 C 4.2,15.397 -1.265,2.86 0.502,1.093 v 0 c 1.768,-1.768 14.305,3.698 21.92,11.313 v 0 c 7.616,7.615 7.562,11.53 4.243,14.85 v 0 c -1.328,1.328 -2.752,2.133 -4.47,2.133 v 0 c -2.575,0 -5.812,-1.809 -10.38,-6.376" />
    </clipPath>
    <clipPath
       id="clipPath44"
       clipPathUnits="userSpaceOnUse">
      <path
         id="path46-1"
         d="M 7,35 C 5.896,35 5,34.105 5,33 V 33 3 C 5,1.895 5.896,1 7,1 v 0 h 18 c 1.105,0 2,0.895 2,2 v 0 30 c 0,1.105 -0.895,2 -2,2 v 0 z" />
    </clipPath>
    <clipPath
       id="clipPath16-4-5"
       clipPathUnits="userSpaceOnUse">
      <path
         id="path18-5-7"
         d="M 0,38 H 38 V 0 H 0 Z" />
    </clipPath>
    <clipPath
       id="clipPath56-9"
       clipPathUnits="userSpaceOnUse">
      <path
         id="path58-7"
         d="M 0,38 H 38 V 0 H 0 Z" />
    </clipPath>
    <clipPath
       id="clipPath44-2"
       clipPathUnits="userSpaceOnUse">
      <path
         id="path46-1-8"
         d="M 7,35 C 5.896,35 5,34.105 5,33 V 33 3 C 5,1.895 5.896,1 7,1 v 0 h 18 c 1.105,0 2,0.895 2,2 v 0 30 c 0,1.105 -0.895,2 -2,2 v 0 z" />
    </clipPath>
    <clipPath
       id="clipPath16-1-0-8"
       clipPathUnits="userSpaceOnUse">
      <path
         id="path18-3-2-0"
         d="M 0,38 H 38 V 0 H 0 Z" />
    </clipPath>
    <clipPath
       id="clipPath16-1-0-9"
       clipPathUnits="userSpaceOnUse">
      <path
         id="path18-3-2-1"
         d="M 0,38 H 38 V 0 H 0 Z" />
    </clipPath>
  </defs>
  <g
     transform="matrix(0.2,0,0,-0.2,-8.8894,149.8192)"
     id="housenumber">
    <path
       style="fill:#c8c4b7"
       d="m 684.447,429.096 c 0,-176.73 -143.27,-320 -320,-320 -176.73,0 -320,143.27 -320,320 0,176.73 143.27,320 320,320 176.73,0 320,-143.27 320,-320"
       id="path2-7" />
    <path
       d="m 214.91662,-638.19745 h 299.52696 c 38.90068,0 70.21783,31.31715 70.21783,70.21783 v 298.97731 c 0,38.90067 -31.31715,70.21783 -70.21783,70.21783 H 214.91662 c -38.90068,0 -70.21783,-31.31716 -70.21783,-70.21783 v -298.97731 c 0,-38.90068 31.31715,-70.21783 70.21783,-70.21783 z"
       transform="scale(1,-1)"
       style="opacity:1;vector-effect:none;fill:#000000;fill-opacity:0.2;stroke:none;stroke-width:32.5918;stroke-linecap:round;stroke-linejoin:round;stroke-miterlimit:4;stroke-dasharray:none;stroke-dashoffset:0;stroke-opacity:0.4;paint-order:normal"
       id="rect9437-4" />
    <g
       id="g9458"
       transform="translate(1.25,9.30641)">
      <path
         d="m 214.29162,-648.26605 h 299.52696 c 38.90068,0 70.21783,31.31715 70.21783,70.21782 v 298.97731 c 0,38.90068 -31.31715,70.21783 -70.21783,70.21783 H 214.29162 c -38.90068,0 -70.21783,-31.31715 -70.21783,-70.21783 v -298.97731 c 0,-38.90067 31.31715,-70.21782 70.21783,-70.21782 z"
         transform="scale(1,-1)"
         style="opacity:1;vector-effect:none;fill:#495aad;fill-opacity:1;stroke:none;stroke-width:32.5918;stroke-linecap:round;stroke-linejoin:round;stroke-miterlimit:4;stroke-dasharray:none;stroke-dashoffset:0;stroke-opacity:0.4;paint-order:normal"
         id="rect9437" />
      <path
         id="path9416"
         d="M 187.80828,534.40087 V 323.23471 c 35.19436,0 70.38872,-35.19435 70.38872,-70.38871 h 211.16616 c 0,35.19436 35.19436,70.38871 70.38872,70.38871 v 211.16616 c -35.19436,0 -70.38872,35.19436 -70.38872,70.38872 H 258.197 c 0,-35.19436 -35.19436,-70.38872 -70.38872,-70.38872 z"
         style="fill:none;fill-opacity:1;fill-rule:evenodd;stroke:#ffffff;stroke-width:25.076;stroke-linecap:butt;stroke-linejoin:miter;stroke-miterlimit:4;stroke-dasharray:none;stroke-opacity:1" />
      <g
         aria-label="1"
         transform="scale(1,-1)"
         style="font-style:normal;font-variant:normal;font-weight:normal;font-stretch:normal;font-size:23.4629px;line-height:109.982px;font-family:'Times New Roman';-inkscape-font-specification:'Times New Roman, ';letter-spacing:0px;word-spacing:0px;fill:#ffffff;fill-opacity:1;stroke:none;stroke-width:4.39929px;stroke-linecap:butt;stroke-linejoin:miter;stroke-opacity:1"
         id="text9420">
        <path
           d="m 398.197,-519.78959 -0.0286,139.76327 c -0.002,8.43198 6.01625,10.58714 12.88897,10.46047 l 12.13966,-0.22374 3e-5,30 h -100 l -3e-5,-30 13.28159,0.22374 c 6.59801,0.11115 11.69306,-2.75564 11.69529,-10.4544 l 0.0231,-89.76934 c 0,10 -39.99998,10 -39.99998,10 l 1e-5,-30 c 19.99998,0 44.99998,-10 44.99999,-30 z"
           style="font-style:normal;font-variant:normal;font-weight:bold;font-stretch:normal;font-size:281.555px;font-family:'Traditional Arabic';-inkscape-font-specification:'Traditional Arabic Bold';fill:#ffffff;fill-opacity:1;stroke-width:4.39929px"
           id="path10268" />
      </g>
    </g>
  </g>
</svg>
