<?xml version="1.0" encoding="UTF-8"?>
<svg version="1.1" viewBox="0 0 128 128" xmlns="http://www.w3.org/2000/svg">
 <path d="m119.42 95.995c-17.67 30.605-56.806 41.092-87.411 23.422-30.605-17.67-41.092-56.806-23.422-87.411 17.67-30.605 56.806-41.092 87.411-23.422 30.605 17.67 41.092 56.806 23.422 87.411" fill="#9bbe55" stroke-width=".19997"/>
 <path d="m36.457 23.894h54.962c4.6854 0 8.4574 3.7836 8.4574 8.4833v63.141c0 4.6998-3.772 8.4833-8.4574 8.4833h-54.962c-4.6854 0-8.4574-3.7836-8.4574-8.4833v-63.141c0-4.6997 3.772-8.4833 8.4574-8.4833z" fill="none" stroke="#000" stroke-opacity=".2" stroke-width="7.9985" style="paint-order:normal"/>
 <path d="m36.582 19.999h54.962c4.6854 0 8.4574 3.7836 8.4574 8.4833v63.141c0 4.6998-3.772 8.4833-8.4574 8.4833h-54.962c-4.6854 0-8.4574-3.7836-8.4574-8.4833v-63.141c0-4.6998 3.772-8.4833 8.4574-8.4833z" fill="#495aad" stroke="#fff" stroke-opacity=".98995" stroke-width="7.9985" style="paint-order:normal"/>
 <path d="m78.554 88h-26.554v-5.0634c2.8533-0.06904 4.7994-0.83839 5.1377-3.6843v-9.2885c-0.29822-3.4533-3.1186-4.253-5.9828-4.7659v-7.6593l21.754-0.87883 0.50702 0.50702v21.646c0.08448 2.3549 1.5679 3.137 3.4477 3.7857 0.54081 0.15774 1.1042 0.27041 1.69 0.33801z" fill="#fff"/>
 <path d="m74.731 41.218a9.9245 9.9245 86.312 0 1-9.9245 9.9246 9.9245 9.9245 86.312 0 1-9.9246-9.9246 9.9245 9.9245 86.312 0 1 9.9246-9.9245 9.9245 9.9245 86.312 0 1 9.9245 9.9245" fill="#fff" style="paint-order:fill markers stroke"/>
</svg>
