<?xml version="1.0" encoding="UTF-8"?>
<svg version="1.1" viewBox="0 0 128 128" xmlns="http://www.w3.org/2000/svg">
 <path d="m128 64c0 35.346-28.654 64-64 64s-64-28.654-64-64 28.654-64 64-64 64 28.654 64 64" fill="#9bbe55" stroke-width=".2"/>
 <path d="m28 36c-2.8503-2.6e-4 -4.5185 2.7276-3.8516 5.0938-0.095 0.4432-0.1484 0.90249-0.1484 1.375v51.064c0 0.47251 0.053 0.9318 0.1484 1.375-0.6664 2.366 1.0016 5.092 3.8516 5.0918h72c2.8507 2.5e-4 4.5195-2.7273 3.8515-5.0938 0.095-0.44265 0.1485-0.90118 0.1485-1.373v-51.064c0-0.47187-0.053-0.93041-0.1485-1.373 0.6685-2.3666-1.0005-5.096-3.8515-5.0957h-69.533z" fill-opacity=".2" style="paint-order:stroke fill markers"/>
 <g transform="translate(-1208 -784)">
  <path d="m1238.5 816h67.065c3.5829 0 6.4674 2.8845 6.4674 6.4674v51.065c0 3.5829-2.8845 6.4674-6.4674 6.4674h-67.065c-3.5829 0-6.4674-2.8845-6.4674-6.4674v-51.065c0-3.5829 2.8845-6.4674 6.4674-6.4674z" fill="#ddd" style="paint-order:stroke fill markers"/>
  <path d="m1236 874 36-38 36 38" fill="none" stroke="#aaa" stroke-linecap="round" stroke-linejoin="round" stroke-width="8"/>
  <path d="m1236 880c-3.6785 3.3e-4 -5.4075-4.5462-2.6582-6.9902l36-32c1.5158-1.3478 3.8006-1.3478 5.3164 0l36 32c2.7493 2.444 1.0203 6.9906-2.6582 6.9902z" color="#000000" color-rendering="auto" dominant-baseline="auto" fill="#e9e9e9" fill-rule="evenodd" image-rendering="auto" shape-rendering="auto" solid-color="#000000" style="font-feature-settings:normal;font-variant-alternates:normal;font-variant-caps:normal;font-variant-ligatures:normal;font-variant-numeric:normal;font-variant-position:normal;isolation:auto;mix-blend-mode:normal;shape-padding:0;text-decoration-color:#000000;text-decoration-line:none;text-decoration-style:solid;text-indent:0;text-orientation:mixed;text-transform:none;white-space:normal"/>
  <path d="m1236 822 36 38 36-38" fill="none" stroke="#aaa" stroke-linecap="round" stroke-linejoin="round" stroke-width="8"/>
  <path d="m1236 816c-3.6785-3.3e-4 -5.4075 4.5462-2.6582 6.9902l36 32c1.5158 1.3478 3.8006 1.3478 5.3164 0l36-32c2.7493-2.444 1.0203-6.9906-2.6582-6.9902z" color="#000000" color-rendering="auto" dominant-baseline="auto" fill="#fff" fill-rule="evenodd" image-rendering="auto" shape-rendering="auto" solid-color="#000000" style="font-feature-settings:normal;font-variant-alternates:normal;font-variant-caps:normal;font-variant-ligatures:normal;font-variant-numeric:normal;font-variant-position:normal;isolation:auto;mix-blend-mode:normal;shape-padding:0;text-decoration-color:#000000;text-decoration-line:none;text-decoration-style:solid;text-indent:0;text-orientation:mixed;text-transform:none;white-space:normal"/>
 </g>
 <path d="m64.389 36.68c-1.1152 0.025-2.2166 0.069-3.2793 0.1113l-0.1875 1.5938c3.6136 0.9859 4.1991 14.764 0 16.455l0.125 1.5957c11.876 0.5839 19.479 1.0741 19.691-10.439-0.093-8.7298-8.5433-9.4891-16.35-9.3164zm-14.939 0.1113-0.15625 1.5625c3.8894 1.1427 4.2381 14.721 0.0957 16.486l0.0606 1.5957h8.8301l0.14062-1.5957c-3.6964-1.0523-4.2302-14.7-0.0469-16.486l-0.125-1.5625zm18.57 2.1094c4.9749 0 8.0013 2.0711 7.9043 7.9394-0.0273 4.7321-2.0816 7.7764-7.4707 7.3653-0.97209-4.7868-0.81519-10.102-0.43359-15.305z" fill="#555"/>
</svg>
