<?xml version="1.0" encoding="UTF-8" standalone="no"?>
<svg
   xmlns:dc="http://purl.org/dc/elements/1.1/"
   xmlns:cc="http://creativecommons.org/ns#"
   xmlns:rdf="http://www.w3.org/1999/02/22-rdf-syntax-ns#"
   xmlns:svg="http://www.w3.org/2000/svg"
   xmlns="http://www.w3.org/2000/svg"
   width="127.99999"
   height="128"
   version="1.1"
   viewBox="0 0 127.99999 128"
   id="svg4497">
  <metadata
     id="metadata4503">
    <rdf:RDF>
      <cc:Work
         rdf:about="">
        <dc:format>image/svg+xml</dc:format>
        <dc:type
           rdf:resource="http://purl.org/dc/dcmitype/StillImage" />
        <dc:title />
        <cc:license
           rdf:resource="http://creativecommons.org/licenses/by-sa/4.0/" />
        <dc:creator>
          <cc:Agent>
            <dc:title>Tobias Zwick</dc:title>
          </cc:Agent>
        </dc:creator>
      </cc:Work>
      <cc:License
         rdf:about="http://creativecommons.org/licenses/by-sa/4.0/">
        <cc:permits
           rdf:resource="http://creativecommons.org/ns#Reproduction" />
        <cc:permits
           rdf:resource="http://creativecommons.org/ns#Distribution" />
        <cc:requires
           rdf:resource="http://creativecommons.org/ns#Notice" />
        <cc:requires
           rdf:resource="http://creativecommons.org/ns#Attribution" />
        <cc:permits
           rdf:resource="http://creativecommons.org/ns#DerivativeWorks" />
        <cc:requires
           rdf:resource="http://creativecommons.org/ns#ShareAlike" />
      </cc:License>
    </rdf:RDF>
  </metadata>
  <defs
     id="defs4501">
    <clipPath
       id="clipPath16-1-0"
       clipPathUnits="userSpaceOnUse">
      <path
         id="path18-3-2"
         d="M 0,38 H 38 V 0 H 0 Z" />
    </clipPath>
    <clipPath
       id="clipPath16-1-4-4"
       clipPathUnits="userSpaceOnUse">
      <path
         id="path18-85-8-0"
         d="M 0,36 H 36 V 0 H 0 Z" />
    </clipPath>
    <clipPath
       id="clipPath32-8-7"
       clipPathUnits="userSpaceOnUse">
      <path
         id="path34-5-0-1"
         d="M 11.815,23.013 C 4.2,15.397 -1.265,2.86 0.502,1.093 v 0 c 1.768,-1.768 14.305,3.698 21.92,11.313 v 0 c 7.616,7.615 7.562,11.53 4.243,14.85 v 0 c -1.328,1.328 -2.752,2.133 -4.47,2.133 v 0 c -2.575,0 -5.812,-1.809 -10.38,-6.376" />
    </clipPath>
    <clipPath
       id="clipPath16-1-4-4-0"
       clipPathUnits="userSpaceOnUse">
      <path
         id="path18-85-8-0-7"
         d="M 0,36 H 36 V 0 H 0 Z" />
    </clipPath>
    <clipPath
       id="clipPath32-8-7-8"
       clipPathUnits="userSpaceOnUse">
      <path
         id="path34-5-0-1-0"
         d="M 11.815,23.013 C 4.2,15.397 -1.265,2.86 0.502,1.093 v 0 c 1.768,-1.768 14.305,3.698 21.92,11.313 v 0 c 7.616,7.615 7.562,11.53 4.243,14.85 v 0 c -1.328,1.328 -2.752,2.133 -4.47,2.133 v 0 c -2.575,0 -5.812,-1.809 -10.38,-6.376" />
    </clipPath>
    <clipPath
       id="clipPath44"
       clipPathUnits="userSpaceOnUse">
      <path
         id="path46-1"
         d="M 7,35 C 5.896,35 5,34.105 5,33 V 33 3 C 5,1.895 5.896,1 7,1 v 0 h 18 c 1.105,0 2,0.895 2,2 v 0 30 c 0,1.105 -0.895,2 -2,2 v 0 z" />
    </clipPath>
    <clipPath
       id="clipPath16-4-5"
       clipPathUnits="userSpaceOnUse">
      <path
         id="path18-5-7"
         d="M 0,38 H 38 V 0 H 0 Z" />
    </clipPath>
    <clipPath
       id="clipPath56-9"
       clipPathUnits="userSpaceOnUse">
      <path
         id="path58-7"
         d="M 0,38 H 38 V 0 H 0 Z" />
    </clipPath>
    <clipPath
       id="clipPath44-2"
       clipPathUnits="userSpaceOnUse">
      <path
         id="path46-1-8"
         d="M 7,35 C 5.896,35 5,34.105 5,33 V 33 3 C 5,1.895 5.896,1 7,1 v 0 h 18 c 1.105,0 2,0.895 2,2 v 0 30 c 0,1.105 -0.895,2 -2,2 v 0 z" />
    </clipPath>
    <clipPath
       id="clipPath16-1-0-8"
       clipPathUnits="userSpaceOnUse">
      <path
         id="path18-3-2-0"
         d="M 0,38 H 38 V 0 H 0 Z" />
    </clipPath>
    <clipPath
       id="clipPath16-1-0-9"
       clipPathUnits="userSpaceOnUse">
      <path
         id="path18-3-2-1"
         d="M 0,38 H 38 V 0 H 0 Z" />
    </clipPath>
  </defs>
  <g
     transform="matrix(0.2,0,0,-0.2,279.11066,5.8190058)"
     id="max_speed">
    <path
       d="m -755.55332,-290.90497 c 0,-176.73 -143.27,-320 -319.99998,-320 -176.73,0 -320,143.27 -320,320 0,176.73 143.27,319.999999 320,319.999999 176.72998,0 319.99998,-143.269999 319.99998,-319.999999"
       id="path4485-9"
       style="fill:#ffdd55;fill-opacity:1;stroke-width:1" />
    <path
       d="m -815.55362,-300.90497 c 0,-143.59296 -116.40675,-259.99971 -259.99968,-259.99971 -143.593,0 -259.9997,116.40675 -259.9997,259.99971 0,143.59297 116.4067,259.999709 259.9997,259.999709 143.59293,0 259.99968,-116.406739 259.99968,-259.999709"
       id="path4485-8"
       style="fill:#000000;fill-opacity:0.2;stroke:none;stroke-width:20;stroke-miterlimit:4;stroke-dasharray:none;stroke-opacity:1" />
    <path
       d="m -825.55362,-280.90497 c 0,-138.07015 -111.92955,-249.9997 -249.99968,-249.9997 -138.0701,0 -249.9997,111.92955 -249.9997,249.9997 0,138.07015 111.9296,249.999699 249.9997,249.999699 138.07013,0 249.99968,-111.929549 249.99968,-249.999699"
       id="path4485"
       style="fill:#c84747;fill-opacity:1;stroke:#ffffff;stroke-width:19.2308;stroke-miterlimit:4;stroke-dasharray:none;stroke-opacity:1" />
    <path
       d="m -896.7739,280.90579 a 178.77969,178.77969 0 0 1 -178.7797,178.7797 178.77969,178.77969 0 0 1 -178.7797,-178.7797 178.77969,178.77969 0 0 1 178.7797,-178.77969 178.77969,178.77969 0 0 1 178.7797,178.77969"
       transform="scale(1,-1)"
       style="opacity:1;vector-effect:none;fill:#ffffff;fill-opacity:1;stroke:none;stroke-width:48.133;stroke-linecap:butt;stroke-linejoin:miter;stroke-miterlimit:4;stroke-dasharray:none;stroke-dashoffset:0;stroke-opacity:1"
       id="path5201" />
    <path
       d="m -1191.5689,329.18857 a 125.04646,125.04646 0 0 1 43.917,-142.95774 125.04646,125.04646 0 0 1 149.54495,1.37878 125.04646,125.04646 0 0 1 41.27359,143.74317"
       transform="scale(1,-1)"
       style="opacity:1;vector-effect:none;fill:none;fill-opacity:1;stroke:#444444;stroke-width:40;stroke-linecap:butt;stroke-linejoin:miter;stroke-miterlimit:4;stroke-dasharray:none;stroke-dashoffset:0;stroke-opacity:1;paint-order:normal"
       id="path4918" />
    <path
       id="path4914"
       d="m -939.23845,-200.96502 -123.92095,-50.94548 c -11.2678,4.33904 -23.8926,3.35614 -34.3531,-2.67454 -19.1288,-11.04404 -25.6814,-35.50523 -14.6394,-54.63524 11.0458,-19.12777 35.5052,-25.68138 54.6352,-14.63943 10.4434,6.04336 17.6008,16.47802 19.4782,28.397 l 106.30005,81.50731 z"
       style="opacity:1;vector-effect:none;fill:#444444;fill-opacity:1;stroke:none;stroke-width:40;stroke-linecap:round;stroke-linejoin:round;stroke-miterlimit:4;stroke-dasharray:none;stroke-dashoffset:0;stroke-opacity:1;paint-order:stroke fill markers" />
    <path
       style="fill:#ffffff;fill-opacity:1;stroke:none;stroke-width:5px;stroke-linecap:butt;stroke-linejoin:miter;stroke-opacity:1"
       d="m -1063.1594,-251.91055 123.9209,50.9455 -26.5362,10.8413 -87.5681,-36.2002 z"
       id="path7521" />
    <path
       style="fill:#ffffff;fill-opacity:1;stroke:none;stroke-width:5px;stroke-linecap:butt;stroke-linejoin:miter;stroke-opacity:1"
       d="m -931.7385,-213.95545 -106.3,-81.5073 34.0412,2.40095 78.4675,57.435 z"
       id="path7523" />
  </g>
</svg>
