<?xml version="1.0" encoding="UTF-8" standalone="no"?>
<svg
   xmlns:dc="http://purl.org/dc/elements/1.1/"
   xmlns:cc="http://creativecommons.org/ns#"
   xmlns:rdf="http://www.w3.org/1999/02/22-rdf-syntax-ns#"
   xmlns:svg="http://www.w3.org/2000/svg"
   xmlns="http://www.w3.org/2000/svg"
   width="128"
   height="128"
   version="1.1"
   viewBox="0 0 128 128"
   id="svg4497">
  <metadata
     id="metadata4503">
    <rdf:RDF>
      <cc:Work
         rdf:about="">
        <dc:format>image/svg+xml</dc:format>
        <dc:type
           rdf:resource="http://purl.org/dc/dcmitype/StillImage" />
        <dc:title />
        <cc:license
           rdf:resource="http://creativecommons.org/licenses/by-sa/4.0/" />
        <dc:creator>
          <cc:Agent>
            <dc:title>Tobias Zwick</dc:title>
          </cc:Agent>
        </dc:creator>
      </cc:Work>
      <cc:License
         rdf:about="http://creativecommons.org/licenses/by-sa/4.0/">
        <cc:permits
           rdf:resource="http://creativecommons.org/ns#Reproduction" />
        <cc:permits
           rdf:resource="http://creativecommons.org/ns#Distribution" />
        <cc:requires
           rdf:resource="http://creativecommons.org/ns#Notice" />
        <cc:requires
           rdf:resource="http://creativecommons.org/ns#Attribution" />
        <cc:permits
           rdf:resource="http://creativecommons.org/ns#DerivativeWorks" />
        <cc:requires
           rdf:resource="http://creativecommons.org/ns#ShareAlike" />
      </cc:License>
    </rdf:RDF>
  </metadata>
  <defs
     id="defs4501">
    <clipPath
       id="clipPath16-1-0"
       clipPathUnits="userSpaceOnUse">
      <path
         id="path18-3-2"
         d="M 0,38 H 38 V 0 H 0 Z" />
    </clipPath>
    <clipPath
       id="clipPath16-1-4-4"
       clipPathUnits="userSpaceOnUse">
      <path
         id="path18-85-8-0"
         d="M 0,36 H 36 V 0 H 0 Z" />
    </clipPath>
    <clipPath
       id="clipPath32-8-7"
       clipPathUnits="userSpaceOnUse">
      <path
         id="path34-5-0-1"
         d="M 11.815,23.013 C 4.2,15.397 -1.265,2.86 0.502,1.093 v 0 c 1.768,-1.768 14.305,3.698 21.92,11.313 v 0 c 7.616,7.615 7.562,11.53 4.243,14.85 v 0 c -1.328,1.328 -2.752,2.133 -4.47,2.133 v 0 c -2.575,0 -5.812,-1.809 -10.38,-6.376" />
    </clipPath>
    <clipPath
       id="clipPath16-1-4-4-0"
       clipPathUnits="userSpaceOnUse">
      <path
         id="path18-85-8-0-7"
         d="M 0,36 H 36 V 0 H 0 Z" />
    </clipPath>
    <clipPath
       id="clipPath32-8-7-8"
       clipPathUnits="userSpaceOnUse">
      <path
         id="path34-5-0-1-0"
         d="M 11.815,23.013 C 4.2,15.397 -1.265,2.86 0.502,1.093 v 0 c 1.768,-1.768 14.305,3.698 21.92,11.313 v 0 c 7.616,7.615 7.562,11.53 4.243,14.85 v 0 c -1.328,1.328 -2.752,2.133 -4.47,2.133 v 0 c -2.575,0 -5.812,-1.809 -10.38,-6.376" />
    </clipPath>
    <clipPath
       id="clipPath44"
       clipPathUnits="userSpaceOnUse">
      <path
         id="path46-1"
         d="M 7,35 C 5.896,35 5,34.105 5,33 V 33 3 C 5,1.895 5.896,1 7,1 v 0 h 18 c 1.105,0 2,0.895 2,2 v 0 30 c 0,1.105 -0.895,2 -2,2 v 0 z" />
    </clipPath>
    <clipPath
       id="clipPath16-4-5"
       clipPathUnits="userSpaceOnUse">
      <path
         id="path18-5-7"
         d="M 0,38 H 38 V 0 H 0 Z" />
    </clipPath>
    <clipPath
       id="clipPath56-9"
       clipPathUnits="userSpaceOnUse">
      <path
         id="path58-7"
         d="M 0,38 H 38 V 0 H 0 Z" />
    </clipPath>
    <clipPath
       id="clipPath44-2"
       clipPathUnits="userSpaceOnUse">
      <path
         id="path46-1-8"
         d="M 7,35 C 5.896,35 5,34.105 5,33 V 33 3 C 5,1.895 5.896,1 7,1 v 0 h 18 c 1.105,0 2,0.895 2,2 v 0 30 c 0,1.105 -0.895,2 -2,2 v 0 z" />
    </clipPath>
    <clipPath
       id="clipPath16-1-0-8"
       clipPathUnits="userSpaceOnUse">
      <path
         id="path18-3-2-0"
         d="M 0,38 H 38 V 0 H 0 Z" />
    </clipPath>
    <clipPath
       id="clipPath16-1-0-9"
       clipPathUnits="userSpaceOnUse">
      <path
         id="path18-3-2-1"
         d="M 0,38 H 38 V 0 H 0 Z" />
    </clipPath>
  </defs>
  <g
     id="max_height"
     transform="translate(431.9648,-144.10331)">
    <path
       d="m -303.9648,208.10331 c 0,35.346 -28.654,64 -64,64 -35.346,0 -64,-28.654 -64,-64 0,-35.346 28.654,-64 64,-64 35.346,0 64,28.654 64,64"
       id="path4485-9-9"
       style="fill:#ffdd55;fill-opacity:1;stroke-width:0.2" />
    <path
       d="m -315.96486,210.10331 c 0,28.71859 -23.28136,51.99994 -51.99994,51.99994 -28.7186,0 -51.99994,-23.28135 -51.99994,-51.99994 0,-28.71859 23.28134,-51.99994 51.99994,-51.99994 28.71858,0 51.99994,23.28135 51.99994,51.99994"
       id="path4485-8-9"
       style="fill:#000000;fill-opacity:0.2;stroke:none;stroke-width:4;stroke-miterlimit:4;stroke-dasharray:none;stroke-opacity:1" />
    <path
       d="m -317.96486,206.10331 c 0,27.61403 -22.38592,49.99994 -49.99994,49.99994 -27.61404,0 -49.99994,-22.38591 -49.99994,-49.99994 0,-27.61403 22.3859,-49.99994 49.99994,-49.99994 27.61402,0 49.99994,22.38591 49.99994,49.99994"
       id="path4485-65"
       style="fill:#c84747;fill-opacity:1;stroke:#ffffff;stroke-width:3.84615;stroke-miterlimit:4;stroke-dasharray:none;stroke-opacity:1" />
    <path
       d="m -332.22364,206.10416 a 35.755939,35.755939 0 0 1 -35.75594,35.75594 35.755939,35.755939 0 0 1 -35.75594,-35.75594 35.755939,35.755939 0 0 1 35.75594,-35.75594 35.755939,35.755939 0 0 1 35.75594,35.75594"
       style="opacity:1;vector-effect:none;fill:#444444;fill-opacity:1;stroke:none;stroke-width:9.6266;stroke-linecap:butt;stroke-linejoin:miter;stroke-miterlimit:4;stroke-dasharray:none;stroke-dashoffset:0;stroke-opacity:1"
       id="path5201-2" />
    <path
       style="opacity:1;vector-effect:none;fill:#ffffff;fill-opacity:1;stroke:none;stroke-width:9.6266;stroke-linecap:butt;stroke-linejoin:miter;stroke-miterlimit:4;stroke-dasharray:none;stroke-dashoffset:0;stroke-opacity:1"
       d="m -352.00002,238.08203 c 12.12266,-6.04921 19.7852,-18.43039 19.79102,-31.97852 -0.006,-13.54813 -7.66836,-25.92931 -19.79102,-31.97852 l -15.96484,13.97852 -15.9375,-13.96094 c -12.12764,6.03873 -19.8007,18.41305 -19.81836,31.96094 0.0176,13.54789 7.69072,25.92221 19.81836,31.96094 l 15.9375,-13.96094 z"
       id="path5201-3" />
    <path
       style="fill:#444444;fill-opacity:1;fill-rule:nonzero;stroke:none;stroke-width:0.0823563"
       d="m -377.96356,192.10351 c -4.0013,2 -5.0013,12 -5.0013,12 -2.12064,0.55846 -5.03952,2.29984 -5.04038,4.07812 l 0.0391,3.92188 c 0.002,2 1.0013,3 4.0013,3 v 5 c 0,0 -0.27444,1.94727 1,2 h 5 c 1.25032,0 1,-2 1,-2 v -4 h 18 v 4 c 0,0 -0.24382,2 1.00652,2 h 5.0013 c 1.25032,0 0.99218,-2 0.99218,-2 v -5 c 3,0 4,-1 4.00914,-3 v -4 c -0.54462,-1.8708 -3.25866,-3.43838 -5.0013,-4 0,0 -1.00784,-10 -5.00132,-12 z m 17.50456,4 c 2.50066,3 2.50066,8 2.50066,8 h -20.00522 c 0,0 0,-5 2.50066,-8 z"
       id="path6554" />
  </g>
</svg>
