<?xml version="1.0" encoding="UTF-8" standalone="no"?>
<svg
   xmlns:dc="http://purl.org/dc/elements/1.1/"
   xmlns:cc="http://creativecommons.org/ns#"
   xmlns:rdf="http://www.w3.org/1999/02/22-rdf-syntax-ns#"
   xmlns:svg="http://www.w3.org/2000/svg"
   xmlns="http://www.w3.org/2000/svg"
   width="128"
   height="128"
   version="1.1"
   viewBox="0 0 128 128"
   id="svg4497">
  <metadata
     id="metadata4503">
    <rdf:RDF>
      <cc:Work
         rdf:about="">
        <dc:format>image/svg+xml</dc:format>
        <dc:type
           rdf:resource="http://purl.org/dc/dcmitype/StillImage" />
        <dc:title />
        <cc:license
           rdf:resource="http://creativecommons.org/licenses/by-sa/4.0/" />
        <dc:creator>
          <cc:Agent>
            <dc:title>Tobias Zwick</dc:title>
          </cc:Agent>
        </dc:creator>
      </cc:Work>
      <cc:License
         rdf:about="http://creativecommons.org/licenses/by-sa/4.0/">
        <cc:permits
           rdf:resource="http://creativecommons.org/ns#Reproduction" />
        <cc:permits
           rdf:resource="http://creativecommons.org/ns#Distribution" />
        <cc:requires
           rdf:resource="http://creativecommons.org/ns#Notice" />
        <cc:requires
           rdf:resource="http://creativecommons.org/ns#Attribution" />
        <cc:permits
           rdf:resource="http://creativecommons.org/ns#DerivativeWorks" />
        <cc:requires
           rdf:resource="http://creativecommons.org/ns#ShareAlike" />
      </cc:License>
    </rdf:RDF>
  </metadata>
  <defs
     id="defs4501">
    <clipPath
       id="clipPath16-1-0"
       clipPathUnits="userSpaceOnUse">
      <path
         id="path18-3-2"
         d="M 0,38 H 38 V 0 H 0 Z" />
    </clipPath>
    <clipPath
       id="clipPath16-1-4-4"
       clipPathUnits="userSpaceOnUse">
      <path
         id="path18-85-8-0"
         d="M 0,36 H 36 V 0 H 0 Z" />
    </clipPath>
    <clipPath
       id="clipPath32-8-7"
       clipPathUnits="userSpaceOnUse">
      <path
         id="path34-5-0-1"
         d="M 11.815,23.013 C 4.2,15.397 -1.265,2.86 0.502,1.093 v 0 c 1.768,-1.768 14.305,3.698 21.92,11.313 v 0 c 7.616,7.615 7.562,11.53 4.243,14.85 v 0 c -1.328,1.328 -2.752,2.133 -4.47,2.133 v 0 c -2.575,0 -5.812,-1.809 -10.38,-6.376" />
    </clipPath>
    <clipPath
       id="clipPath16-1-4-4-0"
       clipPathUnits="userSpaceOnUse">
      <path
         id="path18-85-8-0-7"
         d="M 0,36 H 36 V 0 H 0 Z" />
    </clipPath>
    <clipPath
       id="clipPath32-8-7-8"
       clipPathUnits="userSpaceOnUse">
      <path
         id="path34-5-0-1-0"
         d="M 11.815,23.013 C 4.2,15.397 -1.265,2.86 0.502,1.093 v 0 c 1.768,-1.768 14.305,3.698 21.92,11.313 v 0 c 7.616,7.615 7.562,11.53 4.243,14.85 v 0 c -1.328,1.328 -2.752,2.133 -4.47,2.133 v 0 c -2.575,0 -5.812,-1.809 -10.38,-6.376" />
    </clipPath>
    <clipPath
       id="clipPath44"
       clipPathUnits="userSpaceOnUse">
      <path
         id="path46-1"
         d="M 7,35 C 5.896,35 5,34.105 5,33 V 33 3 C 5,1.895 5.896,1 7,1 v 0 h 18 c 1.105,0 2,0.895 2,2 v 0 30 c 0,1.105 -0.895,2 -2,2 v 0 z" />
    </clipPath>
    <clipPath
       id="clipPath16-4-5"
       clipPathUnits="userSpaceOnUse">
      <path
         id="path18-5-7"
         d="M 0,38 H 38 V 0 H 0 Z" />
    </clipPath>
    <clipPath
       id="clipPath56-9"
       clipPathUnits="userSpaceOnUse">
      <path
         id="path58-7"
         d="M 0,38 H 38 V 0 H 0 Z" />
    </clipPath>
    <clipPath
       id="clipPath44-2"
       clipPathUnits="userSpaceOnUse">
      <path
         id="path46-1-8"
         d="M 7,35 C 5.896,35 5,34.105 5,33 V 33 3 C 5,1.895 5.896,1 7,1 v 0 h 18 c 1.105,0 2,0.895 2,2 v 0 30 c 0,1.105 -0.895,2 -2,2 v 0 z" />
    </clipPath>
    <clipPath
       id="clipPath16-1-0-8"
       clipPathUnits="userSpaceOnUse">
      <path
         id="path18-3-2-0"
         d="M 0,38 H 38 V 0 H 0 Z" />
    </clipPath>
    <clipPath
       id="clipPath16-1-0-9"
       clipPathUnits="userSpaceOnUse">
      <path
         id="path18-3-2-1"
         d="M 0,38 H 38 V 0 H 0 Z" />
    </clipPath>
  </defs>
  <g
     id="money"
     transform="translate(-1208,-784.00005)">
    <path
       d="m 1336,848.00005 c 0,35.346 -28.654,64 -64,64 -35.346,0 -64,-28.654 -64,-64 0,-35.346 28.654,-64 64,-64 35.346,0 64,28.654 64,64"
       id="path4485-9-6-7-1-8-0"
       style="fill:#e9a76f;fill-opacity:1;stroke-width:0.2" />
    <path
       style="fill:#000000;fill-opacity:0.2;stroke-width:1.7268"
       d="m 1287.7107,797.19686 c -7.2573,10.69894 -15.653,20.68034 -25.039,29.8125 -3.198,3.01346 -6.5245,6.0256 -10.0137,9.03906 l 0.025,0.0234 c -9.7061,8.2395 -20.2826,15.64915 -31.627,22.08008 0.5913,0.53499 1.1821,1.08119 1.7735,1.61718 -0.7063,0.4385 -1.4148,0.88896 -2.1192,1.31836 -0.6907,3.28091 -1.3807,6.38981 -2.2441,9.49805 11.0515,10.01541 22.1028,20.20334 33.1543,30.21874 11.3289,-6.2272 22.9497,-13.598 33.8457,-21.83788 v 0.0801 c 3.6262,-2.76288 7.2514,-5.69922 10.7051,-8.63477 v -0.0606 c 9.931,-8.48831 18.8796,-17.69306 25.9023,-27.39453 -0.518,-4.31699 -1.2085,-8.63533 -1.7266,-13.125 -0.394,-0.35587 -0.7876,-0.71789 -1.1816,-1.07422 0.3917,-0.56403 0.7963,-1.11942 1.1816,-1.6875 -10.8788,-10.01542 -21.7579,-19.85762 -32.6367,-29.87304 z"
       id="path11297-7" />
    <g
       transform="matrix(1.7267959,0,0,1.7267959,1215.0133,789.66267)"
       id="g11906">
      <path
         style="fill:#699635"
         id="path11297"
         d="M 61,20.9 C 54.8,15.3 48.6,9.6 42.4,4 33.3,17.8 17.9,30.1 3.3,39 2.9,40.9 2.5,42.7 2,44.5 8.4,50.3 14.8,56.2 21.2,62 36.3,53.7 52.3,41.9 62,28.5 61.7,26 61.3,23.5 61,20.9" />
      <path
         style="fill:#83bf4f"
         id="path11299"
         d="M 22.4,54.6 C 16.1,48.8 9.8,43 3.5,37.3 19.2,28.4 32.4,16.3 42.1,2 48.4,7.8 54.7,13.5 61,19.3 51.3,33.6 38.1,45.7 22.4,54.6" />
      <g
         style="fill:#699635"
         id="g11309">
        <path
           id="path11301"
           d="M 20.8,50.8 C 16.6,47 12.4,43.1 8.2,39.3 8.5,39.1 8.7,39 9,38.8 9.8,38.3 10,37.4 9.3,36.7 9.1,36.5 8.9,36.3 8.7,36.1 21.4,28.3 32.4,18.3 41,6.7 c 0.2,0.2 0.4,0.4 0.6,0.6 0.7,0.6 1.7,0.5 2.3,-0.2 0.2,-0.2 0.3,-0.5 0.5,-0.7 4.2,3.8 8.4,7.7 12.6,11.5 -0.2,0.2 -0.3,0.5 -0.5,0.7 -0.6,0.8 -0.5,1.9 0.2,2.6 0.2,0.2 0.4,0.4 0.6,0.6 -8.6,11.5 -19.6,21.5 -32.3,29.3 -0.2,-0.2 -0.4,-0.4 -0.6,-0.6 -0.7,-0.6 -1.9,-0.7 -2.8,-0.2 -0.3,0.2 -0.5,0.3 -0.8,0.5 M 10.9,39.4 c 3.4,3.1 6.8,6.2 10.3,9.4 1.3,-0.4 2.8,-0.3 4,0.3 C 36.8,41.7 46.9,32.5 55,21.8 54.3,20.7 54.2,19.3 54.7,18.1 51.3,15 47.9,11.9 44.4,8.7 43.5,9.5 42.2,9.6 41.1,9 33,19.8 22.9,29 11.3,36.4 c 0.6,1 0.5,2.2 -0.4,3" />
        <path
           id="path11303"
           d="m 20,37.3 c 1.1,-0.4 2.3,-0.3 3.1,0.4 -0.5,0.4 -1.1,0.8 -1.6,1.2 -0.2,-0.2 -0.7,-0.2 -0.9,0 -0.3,0.2 -0.4,0.5 -0.1,0.7 0.2,0.2 0.7,0.2 1,0 1.2,-0.8 2.9,-0.9 3.8,0 0.7,0.7 0.8,1.7 0.1,2.5 0.2,0.2 0.4,0.3 0.6,0.5 -0.5,0.3 -1,0.7 -1.5,1 -0.2,-0.2 -0.4,-0.4 -0.6,-0.5 -1.1,0.3 -2.3,0.2 -3,-0.5 0.6,-0.4 1.1,-0.7 1.7,-1.1 0.2,0.2 0.7,0.2 1,0 0.3,-0.2 0.3,-0.5 0.1,-0.7 -0.2,-0.2 -0.6,-0.2 -0.9,0 -0.7,0.5 -1.6,0.7 -2.4,0.6 -0.6,-0.1 -1.1,-0.3 -1.5,-0.6 -0.7,-0.7 -0.7,-1.6 -0.1,-2.4 -0.2,-0.1 -0.3,-0.3 -0.5,-0.5 0.5,-0.3 1,-0.7 1.5,-1 -0.1,0.1 0.1,0.2 0.2,0.4" />
        <path
           id="path11305"
           d="m 43.2,15.9 c 0.9,-0.6 2,-0.6 2.7,0.1 -0.4,0.5 -0.8,1 -1.2,1.5 -0.2,-0.2 -0.6,-0.2 -0.8,0.1 -0.2,0.3 -0.2,0.7 0,0.9 0.2,0.2 0.6,0.2 0.8,-0.1 0.9,-1.1 2.4,-1.3 3.3,-0.5 0.7,0.7 0.9,1.8 0.5,2.8 0.2,0.2 0.4,0.3 0.6,0.5 -0.4,0.5 -0.7,0.9 -1.1,1.4 -0.2,-0.2 -0.4,-0.4 -0.6,-0.5 -0.9,0.5 -1.9,0.5 -2.6,-0.2 0.4,-0.5 0.9,-1 1.3,-1.5 0.2,0.2 0.6,0.2 0.8,-0.1 0.2,-0.3 0.2,-0.7 0,-0.9 -0.2,-0.2 -0.6,-0.2 -0.8,0.1 -0.5,0.6 -1.3,1 -2,1 -0.5,0 -1,-0.2 -1.4,-0.5 C 42,19.3 41.8,18.3 42.2,17.3 42,17.2 41.9,17 41.7,16.8 c 0.4,-0.4 0.8,-0.9 1.1,-1.4 0,0.2 0.2,0.3 0.4,0.5" />
        <path
           id="path11307"
           d="m 40.2,35.5 c -3.2,2.9 -8.6,2.8 -11.7,0 -3.1,-2.9 -2.9,-7.4 0.3,-10.3 3.2,-2.9 8.2,-3.2 11.3,-0.3 3.2,2.8 3.3,7.7 0.1,10.6" />
      </g>
      <path
         style="fill:#ffdd7d"
         id="path11311"
         d="m 21.8,24.5 18.9,17.3 c 2.2,-1.8 4.2,-3.7 6.2,-5.7 L 28.1,18.8 c -2,1.9 -4.1,3.8 -6.3,5.7" />
      <path
         style="fill:#dbb471"
         id="path11313"
         d="m 40.8,49.4 c 2.1,-1.6 4.2,-3.3 6.2,-5 V 36 c -2,2 -4.1,3.9 -6.2,5.7 v 7.7" />
    </g>
  </g>
</svg>
