<?xml version="1.0" encoding="UTF-8"?>
<svg version="1.1" viewBox="0 0 128 128" xmlns="http://www.w3.org/2000/svg">
 <path d="m128 64c0 35.346-28.654 64-64 64-35.346 0-64-28.654-64-64 0-35.346 28.654-64 64-64 35.346 0 64 28.654 64 64" fill="#fd5" stroke-width=".2"/>
 <path d="m37.778 24h51.977c4.431 0 7.9981 3.7785 7.9981 8.472v63.056c0 4.6935-3.5672 8.472-7.9981 8.472h-51.977c-4.431 0-7.9981-3.7785-7.9981-8.472v-63.056c0-4.6935 3.5672-8.472 7.9981-8.472z" fill="none" stroke="#000" stroke-opacity=".2" stroke-width="7.7731" style="paint-order:normal"/>
 <path d="m37.896 20.111h51.977c4.431 0 7.9981 3.7785 7.9981 8.472v63.056c0 4.6935-3.5672 8.472-7.9981 8.472h-51.977c-4.431 0-7.9981-3.7785-7.9981-8.472v-63.056c0-4.6935 3.5672-8.472 7.9981-8.472z" fill="#495aad" stroke="#fff" stroke-opacity=".98995" stroke-width="7.7731" style="paint-order:normal"/>
 <path d="m65.959 56.619a1.5774 1.6708 0 1 0 0 3.3413h5.2502l1.722 4.4594c-0.79084-0.07652-1.7424 0.08036-2.8392 0.49379-2.911 1.4615-5.9657 3.6879-6.6693 6.7414h-2.8803c-1.8293-2.0495-3.9935-3.2744-6.1816-3.8471-2.488-0.65122-4.9736-0.62705-7.345-0.60795a2.1032 2.2278 0 0 0-1.8955 3.2053c-0.13207 0.05291-0.26405 0.10575-0.39636 0.16423-3.0645 1.3542-6.0062 4.4092-7.1971 9.4551l3.1257 0.82776c-0.12454 0.62672-0.19202 1.2759-0.19202 1.9404 0 5.206 4.0227 9.4671 8.9376 9.4671 4.3761 0 8.0369-3.3811 8.7887-7.7964h9.8751a1.5774 1.6708 0 0 0 1.3441-0.79618l1.9417-3.3457 1.6604 0.43944c-0.13682 0.65546-0.21461 1.3344-0.21461 2.0318 0 5.206 4.0227 9.4671 8.9376 9.4671 4.9149 0 8.9376-4.2611 8.9376-9.4671 0-3.4217-1.7436-6.4264-4.3302-8.0901l2.0023-2.5266c-1.8186-1.6168-4.3248-2.2544-6.9866-2.0154-0.85762 0.07696-1.7308 0.2467-2.603 0.50248l-1.2569-3.2532c1.4865 0.8341 3.6119 1.3629 4.6803 1.3629v-6.6826c-1.3966 0-4.5994 1.0211-5.817 2.3765l-2.6297-6.8099a1.5774 1.6708 0 0 0-1.4602-1.0376zm-16.561 20.494c2.4328 0 4.4634 1.6766 5.1301 4.0092h-5.3929a1.5774 1.6708 0 1 0 0 3.3413h5.3929c-0.66698 2.3319-2.6976 4.0091-5.1301 4.0091-2.9828 0-5.3621-2.5203-5.3621-5.6798 0-3.1596 2.3793-5.6798 5.3621-5.6798zm32.333 0c2.9828 0 5.3621 2.5202 5.3621 5.6798 0 3.1594-2.3793 5.6798-5.3621 5.6798s-5.3621-2.5203-5.3621-5.6798c0-1.7844 0.75937-3.3652 1.9572-4.4029l1.9448 5.0359a1.5777 1.6712 0 1 0 2.9203-1.2661l-1.9397-5.0217c0.15828-0.01448 0.3174-0.02506 0.47953-0.02506z" color="#000000" color-rendering="auto" dominant-baseline="auto" fill="#fff" image-rendering="auto" shape-rendering="auto" solid-color="#000000" style="font-feature-settings:normal;font-variant-alternates:normal;font-variant-caps:normal;font-variant-ligatures:normal;font-variant-numeric:normal;font-variant-position:normal;isolation:auto;mix-blend-mode:normal;paint-order:fill markers stroke;shape-padding:0;text-decoration-color:#000000;text-decoration-line:none;text-decoration-style:solid;text-indent:0;text-orientation:mixed;text-transform:none;white-space:normal"/>
 <path d="m43.897 54.704 20.105-21.296 20.105 21.296" fill="none" stroke="#fff" stroke-linecap="square" stroke-width="5.7937"/>
</svg>
