<?xml version="1.0" encoding="UTF-8"?>
<svg version="1.1" viewBox="0 0 128 128" xmlns="http://www.w3.org/2000/svg">
 <path d="m128 64c0 35.346-28.654 64-64 64-35.346 0-64-28.654-64-64 0-35.346 28.654-64 64-64 35.346 0 64 28.654 64 64" fill="#529add" stroke-width=".2"/>
 <path d="m58.453 45.869c-9.9435 1.2056-17.119 6.4914-19.682 13.422s-0.5242 14.66 4.6992 19.82c2.3435 2.4073 6.2067 2.4216 8.568 0.0319 2.3614-2.3898 2.3008-6.2525-0.1344-8.567-2.1267-2.1009-2.7114-4.8665-1.877-7.123 0.6734-1.821 2.2689-3.8575 6.4278-5.0098 1.1639 5.27 1.6804 10.127 1.5527 14.617-0.078 0.47172-0.099 0.95103-0.062 1.4277-0.6412 10.753-5.0322 19.403-12.861 26.789-6.0009 5.4836 2.4108 14.4 8.2344 8.7285 7.1303-6.7268 12.019-14.836 14.531-24.004 1.3494 1.6867 2.8087 3.4943 4.08 5.0723 2.0596 2.9766 4.9181 8.2936 5.8203 15.82 0.3446 3.3349 3.0247 5.2038 6.3535 4.8044 3.3287-0.39946 6.0148-2.9123 5.5606-6.2341-1.0122-8.4445-4.1203-15.071-6.8614-19.494-2.1091-3.5569-4.949-6.7952-7.4179-9.6465-1.7604-2.0276-3.431-4.0017-5.5625-5.6523-0.012-3.8463-0.3798-7.8206-1.0957-11.902 6.762 2.4062 13.183 8.8385 18.31 13.102 2.5431 2.1825 6.3808 1.8591 8.5228-0.71816 2.142-2.5772 1.7579-6.4094-0.8529-8.5103-4.1549-3.4542-14.236-15.46-28.295-16.744-2.7772 0.0666-5.5962-0.1691-7.9594-0.0294z" color="#000000" color-rendering="auto" dominant-baseline="auto" fill-opacity=".2" image-rendering="auto" shape-rendering="auto" solid-color="#000000" style="font-feature-settings:normal;font-variant-alternates:normal;font-variant-caps:normal;font-variant-ligatures:normal;font-variant-numeric:normal;font-variant-position:normal;isolation:auto;mix-blend-mode:normal;shape-padding:0;text-decoration-color:#000000;text-decoration-line:none;text-decoration-style:solid;text-indent:0;text-orientation:mixed;text-transform:none;white-space:normal"/>
 <path d="m79.618 29.914a12.635 12.635 0 0 1-12.635 12.635 12.635 12.635 0 0 1-12.635-12.635 12.635 12.635 0 0 1 12.635-12.635 12.635 12.635 0 0 1 12.635 12.635" fill-opacity=".2" style="paint-order:fill markers stroke"/>
 <path d="m58.453 41.869c-9.9435 1.2056-17.119 6.4914-19.682 13.422s-0.5242 14.66 4.6992 19.82c2.3435 2.4073 6.2067 2.4216 8.568 0.0319 2.3614-2.3898 2.3008-6.2525-0.1344-8.567-2.1267-2.101-2.7114-4.8665-1.877-7.123 0.6734-1.821 2.2689-3.8575 6.4278-5.0098 1.1639 5.27 1.6804 10.127 1.5527 14.617-0.078 0.47172-0.099 0.95103-0.062 1.4277-0.6412 10.753-5.0322 19.403-12.861 26.789-6.0009 5.4836 2.4108 14.4 8.2344 8.7285 7.1303-6.7268 12.019-14.836 14.531-24.004 1.3494 1.6867 2.8087 3.4943 4.08 5.0723 2.0596 2.9766 4.9181 8.2936 5.8203 15.82 0.3446 3.3349 3.355 5.7405 6.6838 5.3411 3.3287-0.39946 5.6845-3.449 5.2303-6.7708-1.0122-8.4445-4.1203-15.071-6.8614-19.494-2.1091-3.5569-4.949-6.7952-7.4179-9.6465-1.7604-2.0276-3.431-4.0017-5.5625-5.6523-0.012-3.8463-0.3798-7.8206-1.0957-11.902 6.762 2.4062 13.183 8.8385 18.31 13.102 2.5431 2.1825 6.3808 1.8591 8.5228-0.71816 2.142-2.5772 1.7579-6.4094-0.8529-8.5104-4.1549-3.4542-14.236-15.46-28.295-16.744-2.7772 0.0666-5.5962-0.1691-7.9594-0.0294z" color="#000000" color-rendering="auto" dominant-baseline="auto" fill="#fff" image-rendering="auto" shape-rendering="auto" solid-color="#000000" style="font-feature-settings:normal;font-variant-alternates:normal;font-variant-caps:normal;font-variant-ligatures:normal;font-variant-numeric:normal;font-variant-position:normal;isolation:auto;mix-blend-mode:normal;shape-padding:0;text-decoration-color:#000000;text-decoration-line:none;text-decoration-style:solid;text-indent:0;text-orientation:mixed;text-transform:none;white-space:normal"/>
 <g shape-rendering="auto">
  <path d="m64 12c-29.742 0-54 24.258-54 54s24.258 54 54 54 54-24.258 54-54-24.258-54-54-54zm0 13.746c8.616 0 16.575 2.6812 23.106 7.25l-56.107 56.107c-4.5688-6.5309-7.252-14.488-7.252-23.104 0-22.313 17.94-40.254 40.254-40.254zm33.002 17.15c4.5681 6.5306 7.2519 14.488 7.2519 23.104 0 22.313-17.94 40.254-40.254 40.254-8.6155 0-16.573-2.6837-23.104-7.252z" color="#000000" color-rendering="auto" dominant-baseline="auto" fill-opacity=".2" image-rendering="auto" solid-color="#000000" style="font-feature-settings:normal;font-variant-alternates:normal;font-variant-caps:normal;font-variant-ligatures:normal;font-variant-numeric:normal;font-variant-position:normal;isolation:auto;mix-blend-mode:normal;paint-order:fill markers stroke;shape-padding:0;text-decoration-color:#000000;text-decoration-line:none;text-decoration-style:solid;text-indent:0;text-orientation:mixed;text-transform:none;white-space:normal"/>
  <path d="m64 8c-29.742 0-54 24.258-54 54s24.258 54 54 54 54-24.258 54-54-24.258-54-54-54zm0 13.746c8.6156 0 16.573 2.6836 23.104 7.252l-56.106 56.105c-4.5683-6.5307-7.2519-14.488-7.2519-23.104 0-22.313 17.94-40.254 40.254-40.254zm33.002 17.15c4.5683 6.5307 7.2519 14.488 7.2519 23.104 0 22.313-17.94 40.254-40.254 40.254-8.6156 0-16.573-2.6836-23.104-7.252z" color="#000000" color-rendering="auto" dominant-baseline="auto" fill="#c84747" image-rendering="auto" solid-color="#000000" style="font-feature-settings:normal;font-variant-alternates:normal;font-variant-caps:normal;font-variant-ligatures:normal;font-variant-numeric:normal;font-variant-position:normal;isolation:auto;mix-blend-mode:normal;paint-order:fill markers stroke;shape-padding:0;text-decoration-color:#000000;text-decoration-line:none;text-decoration-style:solid;text-indent:0;text-orientation:mixed;text-transform:none;white-space:normal"/>
 </g>
 <path d="m79.656 25.949a12.635 12.635 0 0 1-12.635 12.635 12.635 12.635 0 0 1-12.635-12.635 12.635 12.635 0 0 1 12.635-12.635 12.635 12.635 0 0 1 12.635 12.635" fill="#fff" style="paint-order:fill markers stroke"/>
 <path d="m50.17 66-9.6075 9.4811c0.3772 0.44515 2.4889 3.2164 2.9078 3.6302 2.3435 2.4073 6.2071 2.421 8.5684 0.0312 2.3614-2.3898 2.3004-6.2519-0.1348-8.5664-0.4254-0.41007-1.4312-4.1719-1.7339-4.5762zm37.402 28.674c-3.2774 2.4592-7.2639 4.3034-11.217 5.676 0.1825 0.92186 1.2751 5.5441 1.395 6.5443 0.3446 3.3349 2.6943 5.5049 6.0231 5.1054 3.3287-0.39946 6.3452-3.2134 5.891-6.5351-0.3113-2.5966-1.4559-8.5489-2.0919-10.791z" color="#000000" color-rendering="auto" dominant-baseline="auto" fill-opacity=".2" image-rendering="auto" shape-rendering="auto" solid-color="#000000" style="font-feature-settings:normal;font-variant-alternates:normal;font-variant-caps:normal;font-variant-ligatures:normal;font-variant-numeric:normal;font-variant-position:normal;isolation:auto;mix-blend-mode:normal;shape-padding:0;text-decoration-color:#000000;text-decoration-line:none;text-decoration-style:solid;text-indent:0;text-orientation:mixed;text-transform:none;white-space:normal"/>
 <path d="m50.842 65.26c-3.4176 2.2868-6.8127 4.5961-8.5566 8.5566 0.3772 0.44515 0.7666 0.88108 1.1855 1.2949 2.3435 2.4073 6.2071 2.421 8.5684 0.0312 2.3614-2.3898 2.3004-6.2519-0.1348-8.5664-0.42536-0.41007-0.7598-0.91206-1.0625-1.3164zm37.174 28.381c-4.0205 1.0556-7.3577 3.7782-10.727 6.3768 0.1825 0.92186 0.341 1.8767 0.4609 2.877 0.3446 3.3349 3.3548 5.7412 6.6836 5.3418 3.3287-0.39946 5.6847-3.4497 5.2305-6.7715-0.3113-2.5966-1.0118-5.5824-1.6478-7.8241z" color="#000000" color-rendering="auto" dominant-baseline="auto" fill="#fff" image-rendering="auto" shape-rendering="auto" solid-color="#000000" style="font-feature-settings:normal;font-variant-alternates:normal;font-variant-caps:normal;font-variant-ligatures:normal;font-variant-numeric:normal;font-variant-position:normal;isolation:auto;mix-blend-mode:normal;shape-padding:0;text-decoration-color:#000000;text-decoration-line:none;text-decoration-style:solid;text-indent:0;text-orientation:mixed;text-transform:none;white-space:normal"/>
</svg>
