<?xml version="1.0" encoding="UTF-8"?>
<svg version="1.1" viewBox="0 0 128.02 128.02" xmlns="http://www.w3.org/2000/svg">
 <path d="m119.44 96.011c-17.673 30.611-56.815 41.099-87.426 23.426-30.611-17.673-41.099-56.815-23.426-87.426 17.673-30.611 56.815-41.099 87.426-23.426 30.611 17.673 41.099 56.815 23.426 87.426" fill="#e45f5f" stroke-width=".2"/>
 <g transform="translate(720.06 -427.99)" fill-opacity=".2">
  <path d="m-672.15 447.99h32l-6 64h-20z" style="paint-order:markers fill stroke"/>
  <path d="m-644.5 531.18a12 11.191 0 0 1-12 11.191 12 11.191 0 0 1-12-11.191 12 11.191 0 0 1 12-11.191 12 11.191 0 0 1 12 11.191" style="paint-order:markers fill stroke"/>
 </g>
 <g transform="translate(720.06 -431.99)" fill="#fff">
  <path d="m-672.15 447.99h32l-6 64h-20z" style="paint-order:markers fill stroke"/>
  <path d="m-644.5 531.18a12 11.191 0 0 1-12 11.191 12 11.191 0 0 1-12-11.191 12 11.191 0 0 1 12-11.191 12 11.191 0 0 1 12 11.191" style="paint-order:markers fill stroke"/>
 </g>
</svg>
