<?xml version="1.0" encoding="UTF-8"?>
<svg version="1.1" viewBox="0 0 128.02 128.02" xmlns="http://www.w3.org/2000/svg">
 <path d="m119.44 96.011c-17.673 30.611-56.815 41.099-87.426 23.426-30.611-17.673-41.099-56.815-23.426-87.426 17.673-30.611 56.815-41.099 87.426-23.426 30.611 17.673 41.099 56.815 23.426 87.426" fill="#fd5" stroke-width=".2"/>
 <path d="m116.08 65.92c0 28.719-23.281 52-52 52-28.719 0-52-23.281-52-52 6e-6 -28.719 23.281-52 52-52 28.719 4e-6 52 23.281 52 52" fill-opacity=".2"/>
 <path d="m114.08 61.92c0 27.614-22.386 50-50 50-27.614-1e-5 -50-22.386-50-50-4e-6 -27.614 22.386-50 50-50 27.614 2e-6 50 22.386 50 50" fill="#c84747" stroke="#fff" stroke-width="3.8462"/>
 <path d="m24.034 51.97h80v20h-80z" fill="#fff" style="paint-order:normal"/>
</svg>
