<?xml version="1.0" encoding="UTF-8" standalone="no"?>
<svg
   xmlns:dc="http://purl.org/dc/elements/1.1/"
   xmlns:cc="http://creativecommons.org/ns#"
   xmlns:rdf="http://www.w3.org/1999/02/22-rdf-syntax-ns#"
   xmlns:svg="http://www.w3.org/2000/svg"
   xmlns="http://www.w3.org/2000/svg"
   width="128"
   height="128"
   version="1.1"
   viewBox="0 0 128 128"
   id="svg4497">
  <metadata
     id="metadata4503">
    <rdf:RDF>
      <cc:Work
         rdf:about="">
        <dc:format>image/svg+xml</dc:format>
        <dc:type
           rdf:resource="http://purl.org/dc/dcmitype/StillImage" />
        <dc:title />
        <cc:license
           rdf:resource="http://creativecommons.org/licenses/by-sa/4.0/" />
        <dc:creator>
          <cc:Agent>
            <dc:title>Tobias Zwick</dc:title>
          </cc:Agent>
        </dc:creator>
      </cc:Work>
      <cc:License
         rdf:about="http://creativecommons.org/licenses/by-sa/4.0/">
        <cc:permits
           rdf:resource="http://creativecommons.org/ns#Reproduction" />
        <cc:permits
           rdf:resource="http://creativecommons.org/ns#Distribution" />
        <cc:requires
           rdf:resource="http://creativecommons.org/ns#Notice" />
        <cc:requires
           rdf:resource="http://creativecommons.org/ns#Attribution" />
        <cc:permits
           rdf:resource="http://creativecommons.org/ns#DerivativeWorks" />
        <cc:requires
           rdf:resource="http://creativecommons.org/ns#ShareAlike" />
      </cc:License>
    </rdf:RDF>
  </metadata>
  <defs
     id="defs4501">
    <clipPath
       id="clipPath16-1-0"
       clipPathUnits="userSpaceOnUse">
      <path
         id="path18-3-2"
         d="M 0,38 H 38 V 0 H 0 Z" />
    </clipPath>
    <clipPath
       id="clipPath16-1-4-4"
       clipPathUnits="userSpaceOnUse">
      <path
         id="path18-85-8-0"
         d="M 0,36 H 36 V 0 H 0 Z" />
    </clipPath>
    <clipPath
       id="clipPath32-8-7"
       clipPathUnits="userSpaceOnUse">
      <path
         id="path34-5-0-1"
         d="M 11.815,23.013 C 4.2,15.397 -1.265,2.86 0.502,1.093 v 0 c 1.768,-1.768 14.305,3.698 21.92,11.313 v 0 c 7.616,7.615 7.562,11.53 4.243,14.85 v 0 c -1.328,1.328 -2.752,2.133 -4.47,2.133 v 0 c -2.575,0 -5.812,-1.809 -10.38,-6.376" />
    </clipPath>
    <clipPath
       id="clipPath16-1-4-4-0"
       clipPathUnits="userSpaceOnUse">
      <path
         id="path18-85-8-0-7"
         d="M 0,36 H 36 V 0 H 0 Z" />
    </clipPath>
    <clipPath
       id="clipPath32-8-7-8"
       clipPathUnits="userSpaceOnUse">
      <path
         id="path34-5-0-1-0"
         d="M 11.815,23.013 C 4.2,15.397 -1.265,2.86 0.502,1.093 v 0 c 1.768,-1.768 14.305,3.698 21.92,11.313 v 0 c 7.616,7.615 7.562,11.53 4.243,14.85 v 0 c -1.328,1.328 -2.752,2.133 -4.47,2.133 v 0 c -2.575,0 -5.812,-1.809 -10.38,-6.376" />
    </clipPath>
    <clipPath
       id="clipPath44"
       clipPathUnits="userSpaceOnUse">
      <path
         id="path46-1"
         d="M 7,35 C 5.896,35 5,34.105 5,33 V 33 3 C 5,1.895 5.896,1 7,1 v 0 h 18 c 1.105,0 2,0.895 2,2 v 0 30 c 0,1.105 -0.895,2 -2,2 v 0 z" />
    </clipPath>
    <clipPath
       id="clipPath16-4-5"
       clipPathUnits="userSpaceOnUse">
      <path
         id="path18-5-7"
         d="M 0,38 H 38 V 0 H 0 Z" />
    </clipPath>
    <clipPath
       id="clipPath56-9"
       clipPathUnits="userSpaceOnUse">
      <path
         id="path58-7"
         d="M 0,38 H 38 V 0 H 0 Z" />
    </clipPath>
    <clipPath
       id="clipPath44-2"
       clipPathUnits="userSpaceOnUse">
      <path
         id="path46-1-8"
         d="M 7,35 C 5.896,35 5,34.105 5,33 V 33 3 C 5,1.895 5.896,1 7,1 v 0 h 18 c 1.105,0 2,0.895 2,2 v 0 30 c 0,1.105 -0.895,2 -2,2 v 0 z" />
    </clipPath>
    <clipPath
       id="clipPath16-1-0-8"
       clipPathUnits="userSpaceOnUse">
      <path
         id="path18-3-2-0"
         d="M 0,38 H 38 V 0 H 0 Z" />
    </clipPath>
    <clipPath
       id="clipPath16-1-0-9"
       clipPathUnits="userSpaceOnUse">
      <path
         id="path18-3-2-1"
         d="M 0,38 H 38 V 0 H 0 Z" />
    </clipPath>
  </defs>
  <g
     transform="matrix(0.86588196,0.49972972,-0.49991718,0.86555727,414.63909,192.51114)"
     id="parking_lane">
    <path
       d="m -303.99992,63.999782 c 0,35.346 -28.654,63.999998 -64.00002,63.999998 -35.346,0 -64,-28.653998 -64,-63.999998 0,-35.346 28.654,-64 64,-64 35.34602,0 64.00002,28.654 64.00002,64"
       id="path4485-6-6-09"
       style="fill:#ffdd55;fill-opacity:1;stroke-width:0.2" />
    <path
       style="fill:#999999;fill-opacity:1;stroke-width:0.2"
       d="m -367.9882,0.03494 c -11.66465,0 -22.59014,3.13589 -32.00781,8.58789 v 110.82422 c 9.41767,5.452 20.34316,8.58789 32.00781,8.58789 11.6437,0 22.55083,-3.12475 31.95703,-8.55859 V 8.59353 c -9.4062,-5.43384 -20.31333,-8.55859 -31.95703,-8.55859 z"
       id="path4485-6-6-1-4" />
    <path
       d="m -378.22979,-168.60233 h 55.0652 c 4.69425,0 8.47337,3.78054 8.47337,8.47655 v 63.090196 c 0,4.696003 -3.77912,8.47654 -8.47337,8.47654 h -55.0652 c -4.69425,0 -8.47337,-3.780537 -8.47337,-8.47654 v -63.090196 c 0,-4.69601 3.77912,-8.47655 8.47337,-8.47655 z"
       transform="rotate(-30)"
       style="opacity:1;vector-effect:none;fill:none;fill-opacity:1;stroke:#000000;stroke-width:8.00283;stroke-linecap:butt;stroke-linejoin:miter;stroke-miterlimit:4;stroke-dasharray:none;stroke-dashoffset:0;stroke-opacity:0.2;paint-order:normal"
       id="rect5107-9-5-2-1" />
    <path
       d="m -371.99991,115.99978 h 8 v 12 h -8 z"
       style="opacity:1;vector-effect:none;fill:#ffffff;fill-opacity:1;stroke:none;stroke-width:6.55696;stroke-linecap:butt;stroke-linejoin:miter;stroke-miterlimit:4;stroke-dasharray:none;stroke-dashoffset:0;stroke-opacity:1;paint-order:stroke fill markers"
       id="rect6698-9" />
    <path
       style="fill:#000000;fill-opacity:0.2;stroke-width:0.2"
       d="m -332.54311,117.42715 c 2.8261,-1.83677 5.46837,-3.96091 7.96274,-6.20813 l 0.0774,-94.108128 c -2.49462,-2.24753 -4.32864,-4.08901 -8.06897,-5.73369 0,0 0.10064,106.174338 0.0288,106.049948 z"
       id="path4485-6-6-16-8-0-0-1-4" />
    <path
       d="m -371.99991,7.9997802 h 8 V 27.99978 h -8 z"
       style="opacity:1;vector-effect:none;fill:#ffffff;fill-opacity:1;stroke:none;stroke-width:8.465;stroke-linecap:butt;stroke-linejoin:miter;stroke-miterlimit:4;stroke-dasharray:none;stroke-dashoffset:0;stroke-opacity:1;paint-order:stroke fill markers"
       id="rect6698-68-3" />
    <path
       style="fill:#ffffff;fill-opacity:1;stroke-width:0.2"
       d="m -335.99992,8.52712 v 110.83204 c 2.80827,-1.62523 5.48255,-3.45379 8,-5.47266 V 13.99978 c -2.51745,-2.01887 -5.19173,-3.84743 -8,-5.47266 z"
       id="path4485-6-6-7-4" />
    <path
       style="fill:#ffffff;fill-opacity:1;stroke-width:0.2"
       d="m -399.99992,8.52712 c -2.80827,1.62523 -5.48255,3.45379 -8,5.47266 v 99.88672 c 2.51745,2.01887 5.19173,3.84743 8,5.47266 z"
       id="path4485-6-6-70-20" />
    <path
       d="m -378.22979,-172.60446 h 55.0652 c 4.69425,0 8.47337,3.78054 8.47337,8.47654 v 63.0902 c 0,4.696003 -3.77912,8.47654 -8.47337,8.47654 h -55.0652 c -4.69425,0 -8.47337,-3.780537 -8.47337,-8.47654 v -63.0902 c 0,-4.696 3.77912,-8.47654 8.47337,-8.47654 z"
       transform="rotate(-30)"
       style="opacity:1;vector-effect:none;fill:#495aad;fill-opacity:1;stroke:#ffffff;stroke-width:8.00283;stroke-linecap:butt;stroke-linejoin:miter;stroke-miterlimit:4;stroke-dasharray:none;stroke-dashoffset:0;stroke-opacity:0.98995;paint-order:normal"
       id="rect5107-4-0-8" />
    <path
       style="fill:none;fill-rule:evenodd;stroke:#ffffff;stroke-width:8.00283;stroke-linecap:square;stroke-linejoin:miter;stroke-miterlimit:4;stroke-dasharray:none;stroke-opacity:1"
       d="m -368.96236,83.033573 -20.0108,-34.659757 10.394,-6.000998 c 0,0 10.3941,-6.000989 16.3973,4.396936 6.0032,10.397926 -4.3908,16.398919 -4.3908,16.398919 l -10.394,6.00099"
       id="path5120-22-1-2" />
  </g>
</svg>
