<?xml version="1.0" encoding="UTF-8"?>
<svg version="1.1" viewBox="0 0 128 128" xmlns="http://www.w3.org/2000/svg">
 <path d="m128 64c0 35.346-28.654 64-64 64-35.346 0-64-28.654-64-64 0-35.346 28.654-64 64-64 35.346 0 64 28.654 64 64" fill="#ca72e2" stroke-width=".2"/>
 <g>
  <path d="m67.841 8c-3.6605 0-6.6294 2.9682-6.6294 6.6294 0 3.6612 2.9688 6.6281 6.6294 6.6281 3.6612 0 6.6294-2.967 6.6294-6.6281 0-3.6612-2.9682-6.6294-6.6294-6.6294zm-6.935 15.669c-6.7072 2.5086-11.879 6.7709-11.937 13.862 0 1.8152 1.4712 3.2852 3.2864 3.2852 1.8156 0 3.2872-1.4701 3.2876-3.2852 0.05449-1.8122 0.82282-3.3507 1.9458-4.58 0.03528 1.6146 0.29289 3.4271 0.84838 5.438-0.34209 0.56952-0.48494 1.4267-0.35018 2.6799-1.1598 6.674-8.5178 11.016-13.261 13.171-1.6591 0.73713-2.4073 2.6803-1.6703 4.3393 0.73766 1.659 2.6803 2.4074 4.3393 1.6703 6.2945-3.2782 14.3-8.566 16.605-15.509 5.2289 2.4377 10.122 7.9141 11.004 12.969 0.25627 1.7972 1.9224 3.0445 3.7196 2.7882 1.7972-0.25679 3.0462-1.92 2.7894-3.7172-1.3633-8.1119-6.9644-14.114-13.951-17.632-2.0237-0.86932-2.1838-5.5929-2.0698-7.296 6.1296 3.4797 12.413 5.0335 18.632 1.9819 1.624-0.81155 2.2809-2.7867 1.4693-4.4103-0.81208-1.6235-2.7843-2.2814-4.4079-1.4693-7.3092 3.6135-11.861-1.9201-15.708-4.16-1.3757-0.96376-3.2045-0.96666-4.5716-0.12515z" fill-opacity=".2" style="paint-order:stroke fill markers"/>
  <path d="m67.841 4c-3.6605 0-6.6294 2.9682-6.6294 6.6294 0 3.6612 2.9688 6.6281 6.6294 6.6281 3.6612 0 6.6294-2.967 6.6294-6.6281 0-3.6612-2.9682-6.6294-6.6294-6.6294zm-6.935 15.669c-6.7072 2.5086-11.879 6.7709-11.937 13.862 0 1.8152 1.4712 3.2852 3.2864 3.2852 1.8156 0 3.2872-1.4701 3.2876-3.2852 0.05449-1.8122 0.82282-3.3507 1.9458-4.58 0.03528 1.6146 0.29289 3.4271 0.84838 5.438-0.34209 0.56952-0.48494 1.4267-0.35018 2.6799-1.1598 6.674-8.5178 11.016-13.261 13.171-1.6591 0.73713-2.4073 2.6803-1.6703 4.3393 0.73766 1.659 2.6803 2.4074 4.3393 1.6703 6.2945-3.2782 14.3-8.566 16.605-15.509 5.2289 2.4377 10.122 7.9141 11.004 12.969 0.25627 1.7972 1.9224 3.0445 3.7196 2.7882 1.7972-0.25679 3.0462-1.92 2.7894-3.7172-1.3633-8.1119-6.9644-14.114-13.951-17.632-2.0237-0.86932-2.1838-5.5929-2.0698-7.296 6.1296 3.4797 12.413 5.0335 18.632 1.9819 1.624-0.81155 2.2809-2.7867 1.4693-4.4103-0.81208-1.6235-2.7843-2.2814-4.4079-1.4693-7.3092 3.6135-11.861-1.9201-15.708-4.16-1.3757-0.96376-3.2045-0.96665-4.5716-0.12515z" fill="#fff" style="paint-order:stroke fill markers"/>
 </g>
 <g fill="none" stroke-linecap="round" stroke-width="4">
  <path d="m8 64h112" stroke="#fff"/>
  <path d="m8 68h112" stroke="#000" stroke-opacity=".2"/>
 </g>
 <g fill="none" stroke-linecap="round" stroke-linejoin="round" stroke-width="4">
  <path d="m55.585 104.07a11.753 11.753 0 0 1-11.753 11.753 11.753 11.753 0 0 1-11.753-11.753 11.753 11.753 0 0 1 11.753-11.753 11.753 11.753 0 0 1 11.753 11.753zm-11.585-0.0665 8.8434-26.33h8.4883m-10.966 8.292 14.855 18.038h16.977l-11.672-18.038h-20.16m43.52 18.102a11.753 11.753 0 0 1-11.753 11.753 11.753 11.753 0 0 1-11.753-11.753 11.753 11.753 0 0 1 11.753-11.753 11.753 11.753 0 0 1 11.753 11.753zm-23.36-22.346 5.1712-0.0106m-10.476 22.292 5.3051-22.282" stroke="#000" stroke-opacity=".2" style="paint-order:normal"/>
  <path d="m55.585 100.07a11.753 11.753 0 0 1-11.753 11.753 11.753 11.753 0 0 1-11.753-11.753 11.753 11.753 0 0 1 11.753-11.753 11.753 11.753 0 0 1 11.753 11.753zm-11.585-0.0665 8.8434-26.33h8.4883m-10.966 8.292 14.855 18.038h16.977l-11.672-18.038h-20.16m43.52 18.102a11.753 11.753 0 0 1-11.753 11.753 11.753 11.753 0 0 1-11.753-11.753 11.753 11.753 0 0 1 11.753-11.753 11.753 11.753 0 0 1 11.753 11.753zm-23.36-22.346 5.1712-0.0106m-10.476 22.292 5.3051-22.282" stroke="#fff" style="paint-order:normal"/>
 </g>
</svg>
