<?xml version="1.0" encoding="UTF-8"?>
<svg version="1.1" viewBox="0 0 128.02 128.04" xmlns="http://www.w3.org/2000/svg">
 <path d="m119.44 96.011c-17.673 30.611-56.815 41.099-87.426 23.426-30.611-17.673-41.099-56.815-23.426-87.426 17.673-30.611 56.815-41.099 87.426-23.426 30.611 17.673 41.099 56.815 23.426 87.426" fill="#fd5" stroke-width=".2"/>
 <path d="m62.494 4.1367c-2.6294 0.042247-5.2762 0.25747-7.9297 0.65234l-2.9688 5.1387 8.6602 5-6 10.393-8.6602-5-8 13.857 8.6602 5-6 10.393-8.6602-5-8 13.855 8.6602 5-6 10.393-8.6602-5-8 13.855 8.6602 5-6 10.393 10.494 5.8223 5.8984-10.215 31.178 18-5.5918 9.6856 10.631 5.8984 5.3535-9.584 8.6602 5 8-13.855-8.6602-5 6-10.393 8.6602 5 8-13.855-8.6602-5 6-10.393 8.6602 5 8-13.857-8.6602-5 6-10.393 8.6602 5 3.7559-6.377c-12.911-24.149-36.723-39.822-62.141-39.414zm8.1562 16.791 31.176 18-6 10.393-31.176-18zm-14.002 24.25 31.178 18-6 10.393-31.178-18zm-14 24.248 31.178 18-6 10.393-31.178-18z" fill-opacity=".2" stroke-width=".2"/>
 <g transform="rotate(60 -151.95 438.32)">
  <path d="m-374.39 127.69c2.0992 0.20783 4.2276 0.31874 6.3815 0.31875 25.962-1e-5 48.295-15.468 58.334-37.682z" fill="#a07a53" stroke-width=".2"/>
  <path transform="rotate(-30)" d="m-390.67-104.62h80v16h-80z" fill="#a07a53" style="paint-order:markers fill stroke"/>
  <path transform="rotate(-30)" d="m-390.67-132.62h80v16h-80z" fill="#a07a53" style="paint-order:markers fill stroke"/>
  <path transform="rotate(-30)" d="m-390.67-160.62h80v16h-80z" fill="#a07a53" style="paint-order:markers fill stroke"/>
  <path d="m-417.2 23.077c-4.3585 5.2344-7.8848 11.18-10.407 17.63l2.9678 5.1403 69.282-40-2.9551-5.1184c-3.1588-0.47957-6.3931-0.72943-9.6858-0.72943-3.7005 0-7.3209 0.3318-10.849 0.93473z" fill="#a07a53" stroke-width=".2"/>
  <path d="m-414.24 19.856c-2.9655 2.9299-5.6204 6.3297-7.9899 10.161l56.573 97.987c5.0771-0.095 9.5783-1.0588 12.799-1.8315z" color="#000000" color-rendering="auto" dominant-baseline="auto" fill="#bbb" image-rendering="auto" shape-rendering="auto" solid-color="#000000" style="font-feature-settings:normal;font-variant-alternates:normal;font-variant-caps:normal;font-variant-ligatures:normal;font-variant-numeric:normal;font-variant-position:normal;isolation:auto;mix-blend-mode:normal;shape-padding:0;text-decoration-color:#000000;text-decoration-line:none;text-decoration-style:solid;text-indent:0;text-orientation:mixed;text-transform:none;white-space:normal"/>
  <path d="m-370.26 0.041318c-4.7723 0.10743-8.868 0.86954-12.852 1.7397l61.422 106.39c2.4321-2.6234 5.0327-5.5261 7.9578-10.217z" color="#000000" color-rendering="auto" dominant-baseline="auto" fill="#bbb" image-rendering="auto" shape-rendering="auto" solid-color="#000000" style="font-feature-settings:normal;font-variant-alternates:normal;font-variant-caps:normal;font-variant-ligatures:normal;font-variant-numeric:normal;font-variant-position:normal;isolation:auto;mix-blend-mode:normal;shape-padding:0;text-decoration-color:#000000;text-decoration-line:none;text-decoration-style:solid;text-indent:0;text-orientation:mixed;text-transform:none;white-space:normal"/>
  <path d="m-414.28 19.794c-0.97726 1.0542-1.9234 2.0684-2.8085 3.1355l60.125 104.14c1.352-0.28416 2.6192-0.45221 4.114-0.8744z" color="#000000" color-rendering="auto" dominant-baseline="auto" fill="#999" image-rendering="auto" shape-rendering="auto" solid-color="#000000" style="font-feature-settings:normal;font-variant-alternates:normal;font-variant-caps:normal;font-variant-ligatures:normal;font-variant-numeric:normal;font-variant-position:normal;isolation:auto;mix-blend-mode:normal;shape-padding:0;text-decoration-color:#000000;text-decoration-line:none;text-decoration-style:solid;text-indent:0;text-orientation:mixed;text-transform:none;white-space:normal"/>
  <path d="m-370.26 0.041318c-1.5454-0.010027-2.979 0.17347-4.4339 0.32025l58.459 101.25c0.81989-1.1376 1.6163-2.1391 2.5032-3.6644z" color="#000000" color-rendering="auto" dominant-baseline="auto" fill="#999" image-rendering="auto" shape-rendering="auto" solid-color="#000000" style="font-feature-settings:normal;font-variant-alternates:normal;font-variant-caps:normal;font-variant-ligatures:normal;font-variant-numeric:normal;font-variant-position:normal;isolation:auto;mix-blend-mode:normal;shape-padding:0;text-decoration-color:#000000;text-decoration-line:none;text-decoration-style:solid;text-indent:0;text-orientation:mixed;text-transform:none;white-space:normal"/>
 </g>
</svg>
