<?xml version="1.0" encoding="UTF-8"?>
<svg version="1.1" viewBox="0 0 128 128" xmlns="http://www.w3.org/2000/svg">
 <path d="m128 64c0 35.346-28.654 64-64 64s-64-28.654-64-64c0-35.346 28.654-64 64-64s64 28.654 64 64" fill="#9bbe55" stroke-width=".2"/>
 <g transform="translate(-1015.8 431.95)">
  <path d="m1079.8-417.95c-22.091 0-40 17.909-40 40v59.943c10.958 8.788 24.86 14.057 40 14.057 15.14 0 29.042-5.2686 40-14.057v-59.943c0-22.091-17.909-40-40-40z" fill="#5a8049" stroke-width=".2"/>
  <path d="m1079.8-417.95c-0.7825 0-1.5648 0.032-2.3457 0.082 21.411 0.8863 26.32 18.489 26.346 39.918v69.33c5.8065-2.3513 11.187-5.5268 16-9.3867v-59.943c0-22.091-17.909-40-40-40z" fill="#49653a" stroke-width=".2"/>
  <path d="m1079.8-417.95c-22.091 0-40 17.909-40 40v59.943c4.8132 3.8599 10.194 7.0354 16 9.3867v-69.33c0.026-21.429 4.9346-39.032 26.346-39.918-0.7809-0.05-1.5632-0.078-2.3457-0.082z" fill="#6b9357" stroke-width=".2"/>
  <path d="m1079.8-417.95a40 40 0 0 0-40 40h80a40 40 0 0 0-40-40z" fill="#72a85a" fill-opacity=".29293" style="paint-order:normal"/>
  <path d="m1091.8-393.95a12 9.7815 0 0 1-12 9.7815 12 9.7815 0 0 1-12-9.7815 12 9.7815 0 0 1 12-9.7815 12 9.7815 0 0 1 12 9.7815" fill="#262626" style="paint-order:normal"/>
 </g>
 <g>
  <path d="m83.192 104.63c-0.54216 0-1.0672-0.28199-1.3538-0.7852l-6.5978-10.866c-0.42843-0.7478-0.26017-1.6826 0.48607-2.1094l7.7242-4.6738c0.24304-0.14021 0.77273-0.26017 1.0345-0.26017 0.54216 0 1.0469 0.30847 1.3351 0.81168l4.8405 7.9797 0.2555 3.4773c0.42687 0.74624-1.4925 1.8446-2.2387 2.2715l-4.7143 3.9493c-0.24304 0.14021-0.50944 0.20565-0.77117 0.20565" fill="#ddd"/>
  <path d="m70.727 92.168c-0.40501 0-0.80417 0.15966-1.1018 0.45722l-9.3477 9.3466c-0.60914 0.60915-0.60914 1.5944 0 2.2036l9.3477 9.3477c0.29761 0.29756 0.69677 0.45616 1.1018 0.45616 0.20099 0 0.40377-0.0375 0.59695-0.11854 0.58265-0.23991 0.961-0.81001 0.961-1.4394v-3.1159h12.464c0.5905 0 1.1289-0.33297 1.3547-0.78321l4.8125-9.5382c0.79453-1.4847 0.45655-2.9457-0.05311-3.9023-0.07473-0.14021-0.58422-1.0139-0.58422-1.0139s0.4669 2.774-2.4152 2.774h-15.578v-3.1159c0-0.6294-0.37835-1.1995-0.961-1.4394-0.19302-0.08101-0.3958-0.11854-0.59679-0.11854z" fill="#fff"/>
  <path d="m68.534 64.592c0.24615 0.48296 0.23369 1.0781-0.08413 1.5642l-6.6866 10.812c-0.47205 0.72132-1.3803 0.99551-2.1001 0.52346l-7.6728-4.7579c-0.23369-0.15423-0.5811-0.57176-0.69951-0.80545-0.24771-0.4814-0.20097-1.0718 0.11684-1.5564l4.9106-7.9361 2.9819-1.8056c0.47205-0.72288 2.3213 0.49075 3.0426 0.9628l5.6568 2.407c0.2368 0.15268 0.41596 0.36144 0.53437 0.59201" fill="#ddd"/>
  <path d="m70.677 60.231-10.682 0.045519c-1.6842-0.0343-2.8309 0.9303-3.4525 1.8183-0.09039 0.12931-0.63928 0.98007-0.63928 0.98007s2.2613-1.6768 3.57 0.89222l7.0732 13.88-2.7772 1.4151c-0.55929 0.28666-0.89548 0.88143-0.84563 1.5093 0.01734 0.21032 0.07473 0.40875 0.16506 0.58635 0.18544 0.36144 0.50618 0.64438 0.90811 0.77369l12.573 4.0854c0.81788 0.2664 1.6979-0.18227 1.9612-1.0002l4.0854-12.575c0.13087-0.40038 0.08963-0.82658-0.09418-1.1865-0.09191-0.17916-0.21736-0.34441-0.37467-0.47839-0.48142-0.41129-1.1575-0.48881-1.7199-0.20216l-2.7761 1.414-5.6592-11.106c-0.26948-0.52658-0.80818-0.85201-1.3145-0.85201z" fill="#fff"/>
  <path d="m41.711 97.687c0.28198-0.4627 0.79454-0.76338 1.3741-0.74624l12.713 0.0062c0.86153 0.02648 1.5719 0.65433 1.5501 1.5143l-0.02181 9.0282c-0.0078 0.28043-0.18072 0.79766-0.31626 1.0189-0.28042 0.4627-0.807 0.73533-1.3866 0.7182l-9.3335-0.0125-3.1049-1.586c-0.85842-0.0265-0.79766-2.2356-0.77584-3.094l-0.92385-6.0821c0.0062-0.27887 0.0888-0.5406 0.2259-0.76494" fill="#ddd"/>
  <path d="m54.323 78.306c-0.10339 0.0043-0.20787 0.01767-0.31224 0.04341l-12.846 3.1244c-0.40973 0.10282-0.7502 0.35803-0.96208 0.70701-0.10437 0.17137-0.17682 0.36115-0.20955 0.56836-0.09657 0.62161 0.19389 1.2414 0.73134 1.5717l2.6618 1.6193-6.4773 10.646c-0.30693 0.50477-0.30395 1.1375-0.03577 1.5675l5.6465 9.0683c0.85685 1.4489 2.2793 1.921 3.3635 1.9802 0.15894 9e-3 1.1706 0.0296 1.1706 0.0296s-2.6138-1.0439-1.1166-3.5054l8.0967-13.309 2.6618 1.6193c0.53902 0.32716 1.2215 0.29881 1.7294-0.07197 0.16826-0.12464 0.30677-0.27895 0.40956-0.44876 0.21188-0.34742 0.2839-0.76775 0.18419-1.179l-3.1265-12.844c-0.17856-0.73339-0.84606-1.216-1.5695-1.1875z" fill="#fff"/>
 </g>
</svg>
