<?xml version="1.0" encoding="UTF-8" standalone="no"?>
<svg
   xmlns:dc="http://purl.org/dc/elements/1.1/"
   xmlns:cc="http://creativecommons.org/ns#"
   xmlns:rdf="http://www.w3.org/1999/02/22-rdf-syntax-ns#"
   xmlns:svg="http://www.w3.org/2000/svg"
   xmlns="http://www.w3.org/2000/svg"
   width="128"
   height="128"
   version="1.1"
   viewBox="0 0 128 128"
   id="svg4497">
  <metadata
     id="metadata4503">
    <rdf:RDF>
      <cc:Work
         rdf:about="">
        <dc:format>image/svg+xml</dc:format>
        <dc:type
           rdf:resource="http://purl.org/dc/dcmitype/StillImage" />
        <dc:title />
        <cc:license
           rdf:resource="http://creativecommons.org/licenses/by-sa/4.0/" />
        <dc:creator>
          <cc:Agent>
            <dc:title>Tobias Zwick</dc:title>
          </cc:Agent>
        </dc:creator>
      </cc:Work>
      <cc:License
         rdf:about="http://creativecommons.org/licenses/by-sa/4.0/">
        <cc:permits
           rdf:resource="http://creativecommons.org/ns#Reproduction" />
        <cc:permits
           rdf:resource="http://creativecommons.org/ns#Distribution" />
        <cc:requires
           rdf:resource="http://creativecommons.org/ns#Notice" />
        <cc:requires
           rdf:resource="http://creativecommons.org/ns#Attribution" />
        <cc:permits
           rdf:resource="http://creativecommons.org/ns#DerivativeWorks" />
        <cc:requires
           rdf:resource="http://creativecommons.org/ns#ShareAlike" />
      </cc:License>
    </rdf:RDF>
  </metadata>
  <defs
     id="defs4501">
    <clipPath
       id="clipPath16-1-0"
       clipPathUnits="userSpaceOnUse">
      <path
         id="path18-3-2"
         d="M 0,38 H 38 V 0 H 0 Z" />
    </clipPath>
    <clipPath
       id="clipPath16-1-4-4"
       clipPathUnits="userSpaceOnUse">
      <path
         id="path18-85-8-0"
         d="M 0,36 H 36 V 0 H 0 Z" />
    </clipPath>
    <clipPath
       id="clipPath32-8-7"
       clipPathUnits="userSpaceOnUse">
      <path
         id="path34-5-0-1"
         d="M 11.815,23.013 C 4.2,15.397 -1.265,2.86 0.502,1.093 v 0 c 1.768,-1.768 14.305,3.698 21.92,11.313 v 0 c 7.616,7.615 7.562,11.53 4.243,14.85 v 0 c -1.328,1.328 -2.752,2.133 -4.47,2.133 v 0 c -2.575,0 -5.812,-1.809 -10.38,-6.376" />
    </clipPath>
    <clipPath
       id="clipPath16-1-4-4-0"
       clipPathUnits="userSpaceOnUse">
      <path
         id="path18-85-8-0-7"
         d="M 0,36 H 36 V 0 H 0 Z" />
    </clipPath>
    <clipPath
       id="clipPath32-8-7-8"
       clipPathUnits="userSpaceOnUse">
      <path
         id="path34-5-0-1-0"
         d="M 11.815,23.013 C 4.2,15.397 -1.265,2.86 0.502,1.093 v 0 c 1.768,-1.768 14.305,3.698 21.92,11.313 v 0 c 7.616,7.615 7.562,11.53 4.243,14.85 v 0 c -1.328,1.328 -2.752,2.133 -4.47,2.133 v 0 c -2.575,0 -5.812,-1.809 -10.38,-6.376" />
    </clipPath>
    <clipPath
       id="clipPath44"
       clipPathUnits="userSpaceOnUse">
      <path
         id="path46-1"
         d="M 7,35 C 5.896,35 5,34.105 5,33 V 33 3 C 5,1.895 5.896,1 7,1 v 0 h 18 c 1.105,0 2,0.895 2,2 v 0 30 c 0,1.105 -0.895,2 -2,2 v 0 z" />
    </clipPath>
    <clipPath
       id="clipPath16-4-5"
       clipPathUnits="userSpaceOnUse">
      <path
         id="path18-5-7"
         d="M 0,38 H 38 V 0 H 0 Z" />
    </clipPath>
    <clipPath
       id="clipPath56-9"
       clipPathUnits="userSpaceOnUse">
      <path
         id="path58-7"
         d="M 0,38 H 38 V 0 H 0 Z" />
    </clipPath>
    <clipPath
       id="clipPath44-2"
       clipPathUnits="userSpaceOnUse">
      <path
         id="path46-1-8"
         d="M 7,35 C 5.896,35 5,34.105 5,33 V 33 3 C 5,1.895 5.896,1 7,1 v 0 h 18 c 1.105,0 2,0.895 2,2 v 0 30 c 0,1.105 -0.895,2 -2,2 v 0 z" />
    </clipPath>
    <clipPath
       id="clipPath16-1-0-8"
       clipPathUnits="userSpaceOnUse">
      <path
         id="path18-3-2-0"
         d="M 0,38 H 38 V 0 H 0 Z" />
    </clipPath>
    <clipPath
       id="clipPath16-1-0-9"
       clipPathUnits="userSpaceOnUse">
      <path
         id="path18-3-2-1"
         d="M 0,38 H 38 V 0 H 0 Z" />
    </clipPath>
  </defs>
  <g
     id="recycling"
     transform="translate(-1015.843,431.94935)">
    <path
       d="m 1143.843,-367.94935 c 0,35.346 -28.654,64 -64,64 -35.346,0 -64,-28.654 -64,-64 0,-35.346 28.654,-64 64,-64 35.346,0 64,28.654 64,64"
       id="path4485-9-6-7-1"
       style="fill:#9bbe55;fill-opacity:1;stroke-width:0.2" />
    <g
       transform="matrix(2.8749459,0,0,-2.8749459,1026.4136,-312.87013)"
       id="g10"
       style="stroke-width:0.434791">
      <g
         id="g12"
         style="stroke-width:0.434791">
        <path
           style="fill:#000000;fill-opacity:0.2;fill-rule:nonzero;stroke:none;stroke-width:0.434791"
           d="m 22.561986,33.069717 -6.079593,-0.02582 c -0.958592,0.01952 -1.611613,-0.529231 -1.965394,-1.034666 -0.01795,-0.02565 -0.06998,-0.106778 -0.127063,-0.194296 l -0.0034,-0.0054 c -0.10581,-0.162358 -0.233709,-0.358024 -0.233709,-0.358024 0,0 0.01774,0.01063 0.01903,0.01155 l -2.576814,-4.16516 c -0.180907,-0.275773 -0.207586,-0.61189 -0.06658,-0.885888 0.06738,-0.133008 0.265083,-0.37078 0.398095,-0.458569 l 4.366934,-2.707929 c 0.409677,-0.26868 0.926313,-0.112319 1.194979,0.298238 l 1.352617,2.186862 1.369591,-2.687553 -1.580169,-0.805041 c -0.318337,-0.163158 -0.510062,-0.502041 -0.481679,-0.85939 0.0099,-0.11971 0.04233,-0.232481 0.09374,-0.333568 0.105567,-0.205722 0.288249,-0.366626 0.516984,-0.440224 l 7.156413,-2.325452 c 0.465504,-0.151628 0.966348,0.103775 1.11616,0.569304 l 2.325469,7.157064 c 0.07447,0.227889 0.05096,0.47045 -0.05367,0.675285 -0.05231,0.101974 -0.123794,0.196164 -0.213326,0.272423 -0.274022,0.234095 -0.65883,0.278649 -0.97894,0.115491 l -1.580204,-0.805042 -3.22086,6.320773 c -0.15336,0.299714 -0.460461,0.485063 -0.74864,0.485063 z m -9.307932,-10.28756 c -0.05885,-0.0025 -0.118576,-0.01047 -0.177986,-0.02513 L 5.7648,20.979135 C 5.5315782,20.920615 5.3378354,20.774902 5.217207,20.576275 5.157832,20.478735 5.1163008,20.370835 5.097657,20.252899 5.042699,19.899094 5.2081982,19.546169 5.514117,19.358183 L 7.0290672,18.436969 3.3421805,12.377071 c -0.1746816,-0.2873 -0.173012,-0.647261 -0.020383,-0.892 L 6.5358753,6.3232903 c 0.4876962,-0.824659 1.2972766,-1.0933632 1.914436,-1.1270612 0.031235,-0.00183 0.1275851,-0.00352 0.2309609,-0.00611 0.1956559,-0.0049 0.4354865,-0.01087 0.4354865,-0.01087 0,0 -0.018261,0.00959 -0.019722,0.010192 l 4.8968573,-0.00611 c 0.32985,-0.00975 0.629786,0.1456167 0.789406,0.4089747 0.07715,0.1259154 0.175621,0.4198827 0.180038,0.5794961 l 0.01221,5.1386851 c 0.01242,0.489473 -0.392111,0.847038 -0.882486,0.862106 l -2.570692,0.0014 1.567299,2.576136 1.514951,-0.921892 c 0.306823,-0.186213 0.695317,-0.170275 0.984401,0.04076 0.09576,0.07094 0.174507,0.158785 0.233013,0.255441 0.120593,0.197739 0.161394,0.437111 0.104628,0.671209 l -1.779234,7.3106 c -0.101636,0.417427 -0.481574,0.692184 -0.893373,0.675961 z m 17.166758,-4.34315 c -0.148942,0 -0.449991,-0.06829 -0.588324,-0.1481 L 25.435674,15.63053 c -0.424738,-0.242964 -0.520357,-0.774801 -0.276492,-1.200429 l 1.334947,-2.198414 h -3.017065 v 1.773811 c 0,0.35824 -0.215239,0.682754 -0.546863,0.819309 -0.10988,0.04611 -0.225291,0.06726 -0.339693,0.06726 -0.230509,0 -0.457644,-0.09083 -0.627038,-0.260196 L 16.642709,9.3117986 c -0.34672,-0.34671 -0.34672,-0.9073879 0,-1.2541005 L 21.96347,2.7376258 c 0.169394,-0.1693666 0.396529,-0.2601962 0.627038,-0.2601962 0.114402,0 0.229743,0.021837 0.339693,0.067939 0.331624,0.1365556 0.546863,0.4610696 0.546863,0.8193093 v 1.773129 h 7.093907 c 0.336076,0 0.642516,0.1893949 0.771075,0.4456606 l 2.739182,5.4294515 c 0.452218,0.845049 0.260179,1.676376 -0.02991,2.220828 -0.01471,0.02765 -0.06369,0.109901 -0.115481,0.199733 v 0.0014 l -0.01155,0.0197 c -0.09461,0.16385 -0.205847,0.355986 -0.205847,0.355986 0,0 0.0012,-0.01787 0.0014,-0.01902 l -2.53876,4.185539 c -0.164038,0.286416 -0.451626,0.461967 -0.760223,0.461967 z"
           id="path22-26-7" />
        <g
           clip-path="url(#clipPath16-1-0)"
           id="g14"
           style="stroke-width:0.490331"
           transform="matrix(0.8867291,0,0,0.8867291,2.1184974,2.1804505)">
          <path
             d="m 31.001,8 c -0.348,0 -0.685,0.181 -0.869,0.504 l -4.235,6.975 c -0.275,0.48 -0.167,1.08 0.312,1.354 l 4.958,3 c 0.156,0.09 0.496,0.167 0.664,0.167 0.348,0 0.672,-0.198 0.857,-0.521 l 3.107,-5.122 0.164,-2.232 c 0.274,-0.479 -0.958,-1.184 -1.437,-1.458 L 31.496,8.132 C 31.34,8.042 31.169,8 31.001,8"
             style="fill:#dddddd;fill-opacity:1;fill-rule:nonzero;stroke:none;stroke-width:0.490331"
             id="path22-26" />
          <path
             style="fill:#ffffff;fill-opacity:1;fill-rule:nonzero;stroke:none;stroke-width:1.40968"
             d="m 1284.998,665 c -0.7474,0 -1.484,0.29464 -2.0332,0.84375 l -17.25,17.24805 c -1.1241,1.1241 -1.1241,2.9423 0,4.0664 l 17.25,17.25 c 0.5492,0.54912 1.2858,0.8418 2.0332,0.8418 0.3709,0 0.7451,-0.0693 1.1016,-0.21875 1.0752,-0.44274 1.7734,-1.49477 1.7734,-2.65625 v -5.75 h 23 c 1.0897,0 2.0832,-0.61445 2.5,-1.44531 l 8.8809,-17.60157 c 1.4662,-2.73982 0.8425,-5.43595 -0.098,-7.20117 -0.1379,-0.25874 -1.0781,-1.87109 -1.0781,-1.87109 0,0 0.8616,5.11914 -4.457,5.11914 h -28.7481 v -5.75 c 0,-1.16148 -0.6982,-2.21351 -1.7734,-2.65625 C 1285.7431,665.06925 1285.3689,665 1284.998,665 Z"
             transform="matrix(0.34783263,0,0,-0.34783263,-423.96409,247.30885)"
             id="path26-5" />
          <path
             d="m 21.5928,33.7007 c 0.158,-0.31 0.15,-0.692 -0.054,-1.004 l -4.292,-6.94 c -0.303,-0.463 -0.886,-0.639 -1.348,-0.336 l -4.925,3.054 c -0.15,0.099 -0.373,0.367 -0.449,0.517 -0.159,0.309 -0.129,0.688 0.075,0.999 l 3.152,5.094 1.914,1.159 c 0.303,0.464 1.49,-0.315 1.953,-0.618 l 3.631,-1.545 c 0.152,-0.098 0.267,-0.232 0.343,-0.38"
             style="fill:#dddddd;fill-opacity:1;fill-rule:nonzero;stroke:none;stroke-width:0.490331"
             id="path34-2" />
          <path
             style="fill:#ffffff;fill-opacity:1;fill-rule:nonzero;stroke:none;stroke-width:1.40968"
             d="m 1284.9062,606.06445 -19.7128,0.084 c -3.1079,-0.0633 -5.224,1.71675 -6.3711,3.35547 -0.1668,0.23862 -1.1797,1.80859 -1.1797,1.80859 0,0 4.1729,-3.0943 6.5879,1.64648 l 13.0527,25.61329 -5.125,2.61132 c -1.0321,0.52899 -1.6525,1.62656 -1.5605,2.78516 0.032,0.38812 0.1379,0.75429 0.3046,1.08203 0.3422,0.66699 0.9341,1.18912 1.6758,1.42774 l 23.2012,7.53906 c 1.5093,0.49161 3.1333,-0.33636 3.6191,-1.8457 l 7.5391,-23.20508 c 0.2415,-0.73886 0.1654,-1.52534 -0.1738,-2.18946 -0.1696,-0.33062 -0.4011,-0.63556 -0.6914,-0.88281 -0.8884,-0.75898 -2.136,-0.90204 -3.1739,-0.37305 l -5.123,2.60938 -10.4434,-20.49414 c -0.4973,-0.97173 -1.4914,-1.57227 -2.4258,-1.57227 z"
             transform="matrix(0.34783263,0,0,-0.34783263,-423.96409,247.30885)"
             id="path38-6" />
          <path
             d="m 4.3755,12.458 c 0.181,0.297 0.51,0.49 0.882,0.479 l 8.16,-0.004 c 0.553,-0.017 1.009,-0.42 0.995,-0.972 l -0.014,-5.795 c -0.005,-0.18 -0.116,-0.512 -0.203,-0.654 -0.18,-0.297 -0.518,-0.472 -0.89,-0.461 l -5.991,0.008 -1.993,1.018 c -0.551,0.017 -0.512,1.435 -0.498,1.986 l -0.593,3.904 c 0.004,0.179 0.057,0.347 0.145,0.491"
             style="fill:#dddddd;fill-opacity:1;fill-rule:nonzero;stroke:none;stroke-width:0.490331"
             id="path46-7" />
          <path
             style="fill:#ffffff;fill-opacity:1;fill-rule:nonzero;stroke:none;stroke-width:1.40968"
             d="m 1254.7266,639.41992 c -0.1908,0.008 -0.3836,0.0326 -0.5762,0.0801 l -23.7051,5.76562 c -0.7561,0.18975 -1.3844,0.6607 -1.7754,1.30469 -0.1926,0.31625 -0.3263,0.66646 -0.3867,1.04883 -0.1782,1.1471 0.3578,2.2909 1.3496,2.90039 l 4.9121,2.98828 -11.9531,19.64649 c -0.5664,0.93148 -0.5609,2.09909 -0.066,2.89258 l 10.4199,16.73437 c 1.5812,2.6737 4.2061,3.54505 6.207,3.6543 0.2933,0.0172 2.1602,0.0547 2.1602,0.0547 0,0 -4.8234,-1.92633 -2.0605,-6.46875 l 14.9414,-24.56054 4.9121,2.98828 c 0.9947,0.60374 2.2541,0.55142 3.1914,-0.13281 0.3105,-0.23 0.5661,-0.51476 0.7558,-0.82813 0.391,-0.64111 0.5239,-1.41679 0.3399,-2.17578 l -5.7696,-23.70117 c -0.3295,-1.35338 -1.5613,-2.244 -2.8964,-2.19141 z"
             transform="matrix(0.34783263,0,0,-0.34783263,-423.96409,247.30885)"
             id="path50" />
        </g>
      </g>
    </g>
  </g>
</svg>
