<?xml version="1.0" encoding="UTF-8"?>
<svg version="1.1" viewBox="0 0 128 128" xmlns="http://www.w3.org/2000/svg">
 <path d="m128 64c0 35.346-28.654 64-64 64s-64-28.654-64-64 28.654-64 64-64 64 28.654 64 64" fill="#9bbe55" stroke-width=".2"/>
 <g transform="matrix(1.0129 0 0 1.0129 -781.82 -908.89)" fill-opacity=".2">
  <path d="m801.31 930.35c-4.6412-0.20679-7.6165 4.8703-5.1677 8.8184l11.555 19.258c1.3452 2.2417 4.028 3.301 6.5418 2.5829l16.133-4.6106c5.537 7.266 7.4486 14.523 8.2984 22.478-7.8513 4.1354-25.82 15.342-27.214 21.739-0.65261 4.0939 2.5095 7.8012 6.6551 7.8027h44.613c3.7232 0 6.7414-3.0183 6.7414-6.7415 0-3.7232-3.0187-6.8029-6.7414-6.7414l-26.36 0.43507c7.8804-4.6574 24.838-7.8966 24.277-17.288-0.79348-10.533-4.333-22.418-12.018-31.901-2.8952-2.8047-6.865-5.0392-10.597-3.9867l-22.7 6.488-9.277-15.46c-0.98794-1.7012-2.7735-2.7829-4.7388-2.8708z" color="#000000" color-rendering="auto" dominant-baseline="auto" image-rendering="auto" shape-rendering="auto" solid-color="#000000" style="font-feature-settings:normal;font-variant-alternates:normal;font-variant-caps:normal;font-variant-ligatures:normal;font-variant-numeric:normal;font-variant-position:normal;isolation:auto;mix-blend-mode:normal;shape-padding:0;text-decoration-color:#000000;text-decoration-line:none;text-decoration-style:solid;text-indent:0;text-orientation:mixed;text-transform:none;white-space:normal"/>
  <path d="m842.81 925.25a11.664 11.664 0 0 1-11.664 11.664 11.664 11.664 0 0 1-11.664-11.664 11.664 11.664 0 0 1 11.664-11.664 11.664 11.664 0 0 1 11.664 11.664" style="paint-order:markers fill stroke"/>
 </g>
 <g transform="matrix(1.0129 0 0 1.0129 -781.82 -912.89)" fill="#fff">
  <path d="m801.31 930.35c-4.6412-0.20679-7.6165 4.8703-5.1677 8.8184l11.555 19.258c1.3452 2.2417 4.028 3.301 6.5418 2.5829l16.133-4.6106c5.537 7.266 7.4486 14.523 8.2984 22.478-7.8513 4.1354-25.82 15.342-27.214 21.739-0.65261 4.0939 2.5095 7.8012 6.6551 7.8027h44.613c3.7232 0 6.7414-3.0183 6.7414-6.7415 0-3.7232-3.0187-6.8029-6.7414-6.7414l-26.36 0.43507c7.8804-4.6574 24.838-7.8966 24.277-17.288-0.79348-10.533-4.333-22.418-12.018-31.901-2.8952-2.8047-6.865-5.0392-10.597-3.9867l-22.7 6.488-9.277-15.46c-0.98794-1.7012-2.7735-2.7829-4.7388-2.8708z" color="#000000" color-rendering="auto" dominant-baseline="auto" image-rendering="auto" shape-rendering="auto" solid-color="#000000" style="font-feature-settings:normal;font-variant-alternates:normal;font-variant-caps:normal;font-variant-ligatures:normal;font-variant-numeric:normal;font-variant-position:normal;isolation:auto;mix-blend-mode:normal;shape-padding:0;text-decoration-color:#000000;text-decoration-line:none;text-decoration-style:solid;text-indent:0;text-orientation:mixed;text-transform:none;white-space:normal"/>
  <path d="m842.81 925.25a11.664 11.664 0 0 1-11.664 11.664 11.664 11.664 0 0 1-11.664-11.664 11.664 11.664 0 0 1 11.664-11.664 11.664 11.664 0 0 1 11.664 11.664" style="paint-order:markers fill stroke"/>
 </g>
</svg>
