<?xml version="1.0" encoding="UTF-8"?>
<svg version="1.1" viewBox="0 0 128 128" xmlns="http://www.w3.org/2000/svg">
 <path class="st0" d="m128 64a64 64 0 0 1-64 64 64 64 0 0 1-64-64 64 64 0 0 1 64-64 64 64 0 0 1 64 64" fill="#fd5"/>
 <path d="m31.992 32.08v87.273a64 64 0 0 0 16 6.5293v-93.803z" fill="#666"/>
 <path d="m79.992 32.08v93.84a64 64 0 0 0 16-6.582v-87.258z" fill="#666"/>
 <path d="m23.992 44.08c-4.456 0-8.0429 3.587-8.0429 8.043v31.914c0 4.456 3.5869 8.043 8.0429 8.043h79.914c4.456 0 8.043-3.587 8.043-8.043v-31.914c0-4.456-3.587-8.043-8.043-8.043z" fill-opacity=".2"/>
 <path d="m24.036 40.08h79.913c4.456 0 8.0433 3.5873 8.0433 8.0433v31.913c0 4.456-3.5873 8.0433-8.0433 8.0433h-79.913c-4.456 0-8.0433-3.5873-8.0433-8.0433v-31.913c0-4.456 3.5873-8.0433 8.0433-8.0433z" fill="#555" style="paint-order:normal"/>
 <path d="m23.992 40.08c-3.8167 0-6.9867 2.6476-7.7949 6.2129l28.746 41.787h14.143l-32.332-48zm16.619 0 32.332 48h14.143l-32.332-48zm28 0 32.332 48h3.0488c3.6926 0 6.7759-2.4795 7.7051-5.8691l-28.943-42.131zm28 0 15.381 22v-14c0-4.432-3.568-8-8-8zm-80.619 26v14c0 4.432 3.568 8 8 8h7.0938z" fill="#ffe94c" style="paint-order:normal"/>
 <path d="m24.03 40.08h79.924c4.4531 0 8.038 3.5849 8.038 8.038v31.924c0 4.453-3.5849 8.038-8.038 8.038h-79.924c-4.4531 0-8.038-3.5849-8.038-8.038v-31.924c0-4.453 3.5849-8.038 8.038-8.038z" fill="none" stroke="#555" stroke-linecap="round" stroke-linejoin="round" stroke-width="4" style="paint-order:stroke markers fill"/>
</svg>
