<?xml version="1.0" encoding="UTF-8"?>
<svg version="1.1" viewBox="0 0 128 128" xmlns="http://www.w3.org/2000/svg">
 <path d="m119.42 95.989c-17.67 30.594-56.806 41.076-87.411 23.413-30.605-17.663-41.092-56.784-23.422-87.378 17.67-30.594 56.806-41.076 87.411-23.413 30.605 17.663 41.092 56.784 23.422 87.378" fill="#529add" stroke-width=".19993"/>
 <g stroke-width=".19993">
  <path d="m67.991 127.97c3.3653-0.17754 6.7151-0.69568 9.9983-1.3943l47.113-81.417c-1.0365-3.192-1.7039-5.7024-4.1204-8.9951 0 0-52.991 91.95-52.991 91.807z" fill-opacity=".2"/>
  <path d="m95.987 8.6467c-10.1-5.8292-21.128-8.5747-32.008-8.5619l-55.403 95.925c5.429 9.4253 13.322 17.599 23.422 23.429 10.082 5.8187 21.088 8.5647 31.95 8.5619l55.432-95.975c-5.4282-9.4039-13.31-17.559-23.392-23.378z" fill="#999"/>
  <path d="m119.44 31.983-55.407 95.931c3.2441-3e-3 6.4739-0.24966 9.6629-0.73906l49.935-86.458c-1.1706-3.0055-2.572-5.9246-4.1912-8.7347z" fill="#fff"/>
  <path d="m64.024 2.6865e-6c-3.2441 0.0033537-6.4738 0.24966-9.6629 0.73906l-49.935 86.458c1.1705 3.0055 2.572 5.9246 4.1912 8.7347z" fill="#fff"/>
 </g>
 <path d="m66.374 29.579c-4.1798 0-7.5698 3.3892-7.5698 7.5698 0 4.1806 3.39 7.5684 7.5698 7.5684 4.1806 0 7.5698-3.3879 7.5698-7.5684 0-4.1806-3.3892-7.5698-7.5698-7.5698zm-7.9188 17.892c-7.6587 2.8644-13.564 7.7314-13.631 15.828 0 2.0727 1.6799 3.7512 3.7526 3.7512 2.0732 0 3.7535-1.6787 3.754-3.7512 0.06222-2.0693 0.93955-3.826 2.2219-5.2298 0.04028 1.8436 0.33444 3.9133 0.96873 6.2095-0.39062 0.65031-0.55374 1.629-0.39986 3.0601-1.3243 7.6208-9.7262 12.579-15.142 15.039-1.8945 0.8417-2.7488 3.0606-1.9072 4.9549 0.84231 1.8944 3.0606 2.7489 4.9549 1.9072 7.1875-3.7433 16.329-9.7812 18.961-17.709 5.9707 2.7835 11.558 9.0369 12.565 14.808 0.29263 2.0522 2.1951 3.4764 4.2473 3.1837 2.0522-0.29322 3.4784-2.1924 3.1851-4.2445-1.5567-9.2626-7.9524-16.117-15.93-20.133-2.3107-0.99264-2.4936-6.3863-2.3634-8.3311 6.9991 3.9733 14.174 5.7475 21.275 2.2631 1.8544-0.92668 2.6044-3.182 1.6778-5.036-0.92728-1.8538-3.1793-2.605-5.0333-1.6778-8.3462 4.1262-13.544-2.1924-17.936-4.7502-1.5709-1.1005-3.6591-1.1038-5.2201-0.1429z" fill="#fff" style="paint-order:stroke fill markers"/>
</svg>
