<?xml version="1.0" encoding="UTF-8"?>
<svg version="1.1" viewBox="0 0 128 128" xmlns="http://www.w3.org/2000/svg">
 <path d="m128 64c0 35.346-28.654 64-64 64s-64-28.654-64-64 28.654-64 64-64 64 28.654 64 64" fill="#529add" stroke-width=".2"/>
 <g transform="matrix(.47316 -.47503 .47503 .47316 -10.192 45.008)">
  <g stroke-opacity=".2">
   <path d="m75.809 100.79a23.155 23.155 0 0 1-23.571 8.8437 23.155 23.155 0 0 1-17.709-17.894 23.155 23.155 0 0 1 9.0883-23.477" fill="none" stroke="#000" stroke-linecap="round" stroke-width="10.44" style="paint-order:normal"/>
   <path d="m91.615 100.26-12.255-24.895-21.224-3.9026c3.1412-6.7364 5.0913-18.537 5.2232-25.681" fill="none" stroke="#000" stroke-linecap="round" stroke-linejoin="round" stroke-width="11.932"/>
   <path d="m33.074 60.621c3.9253-11.54 13.212-14.996 30.462-14.787" fill="none" stroke="#000" stroke-linecap="round" stroke-linejoin="round" stroke-width="10.44"/>
   <path d="m81.954 27.704a10.151 10.151 0 0 1-10.151 10.151 10.151 10.151 0 0 1-10.151-10.151 10.151 10.151 0 0 1 10.151-10.151 10.151 10.151 0 0 1 10.151 10.151" fill-opacity=".2" stroke-width=".89327" style="paint-order:normal"/>
  </g>
  <g>
   <path d="m80.185 96.532a23.155 23.155 0 0 1-23.571 8.8437 23.155 23.155 0 0 1-17.709-17.894 23.155 23.155 0 0 1 9.0883-23.477" fill="none" stroke="#fff" stroke-linecap="round" stroke-width="10.44" style="paint-order:normal"/>
   <path d="m95.991 96.005-12.255-24.895-21.224-3.9026c3.1412-6.7364 5.0913-18.537 5.2232-25.681" fill="none" stroke="#fff" stroke-linecap="round" stroke-linejoin="round" stroke-width="11.932"/>
   <path d="m37.275 56.313c3.9253-11.54 13.212-14.996 30.462-14.787" fill="none" stroke="#fff" stroke-linecap="round" stroke-linejoin="round" stroke-width="10.44"/>
   <path d="m86.33 23.444a10.151 10.151 0 0 1-10.151 10.151 10.151 10.151 0 0 1-10.151-10.151 10.151 10.151 0 0 1 10.151-10.151 10.151 10.151 0 0 1 10.151 10.151" fill="#fff" stroke-width=".8934" style="paint-order:normal"/>
  </g>
 </g>
 <path d="m40 120v-16h24v-16h24v-16h24" fill="none" stroke="#000" stroke-opacity=".2" stroke-width="8"/>
 <path d="m40 116v-16h24v-16h24v-16h24" fill="none" stroke="#fff" stroke-width="8"/>
</svg>
