<?xml version="1.0" encoding="UTF-8"?>
<svg version="1.1" viewBox="0 0 128.02 128.07" xmlns="http://www.w3.org/2000/svg">
 <path d="m119.44 96.041c-17.673 30.611-56.815 41.099-87.426 23.426-30.611-17.673-41.099-56.815-23.426-87.426 17.673-30.611 56.815-41.099 87.426-23.426 30.611 17.673 41.099 56.815 23.426 87.426" fill="#fd5" stroke-width=".2"/>
 <g>
  <path d="m96.003 8.6514c-10.102-5.8323-21.132-8.5793-32.014-8.5666l-55.412 95.977c5.4299 9.4304 13.324 17.609 23.426 23.441 10.084 5.8218 21.092 8.5693 31.955 8.5666l55.441-96.027c-5.4291-9.4089-13.313-17.569-23.396-23.39z" fill="#999" stroke-width=".2"/>
  <path d="m93.44 7.1307 5.1691 2.9844-64 110.85-5.1691-2.9844z" fill="#fff" style="paint-order:stroke fill markers"/>
  <path d="m68.002 127.9c3.3659-0.17764 6.7162-0.69606 10-1.395l47.121-81.461c-1.0366-3.1937-1.7042-5.7055-4.1211-9 0 0-53 92-53 91.856z" fill-opacity=".2" stroke-width=".2"/>
  <path d="m119.46 32-55.416 95.983c3.2446-3e-3 6.4749-0.24979 9.6645-0.73946l49.943-86.504c-1.1707-3.0071-2.5725-5.9278-4.1919-8.7395z" fill="#fff" stroke-width=".2"/>
  <path d="m64.034-1.9691e-6c-3.2446 0.0033555-6.4749 0.24979-9.6645 0.73946l-49.943 86.504c1.1707 3.0071 2.5725 5.9278 4.1919 8.7395z" fill="#fff" stroke-width=".2"/>
  <path d="m45.618 71.897-6.0362-3.4984 9.474-16.456s-2.5981-1.5-8.2942-3.634l3-5.1962c4.8301 1.634 7.948 0.93465 11.794-2.4282l6.0622 3.5z" fill="#fff"/>
  <path d="m83.259 86.701-2.9559 5.2082-17.365-10.012 3-5.1962c6.5532-2.9298 16.471-0.37776 20.152-6.5654 2.4726-4.6211-4.4556-8.6211-7.3906-3.4491l-5.2611-2.9759c5.1243-9.5129 16.638-5.83 19.116 1.1548 0.67899 2.2684 0.04 5.754-1.1683 7.8469-3.8354 5.9425-12.19 7.0246-18.52 7.9887z" fill="#fff"/>
 </g>
</svg>
