<?xml version="1.0" encoding="UTF-8" standalone="no"?>
<svg
   xmlns:dc="http://purl.org/dc/elements/1.1/"
   xmlns:cc="http://creativecommons.org/ns#"
   xmlns:rdf="http://www.w3.org/1999/02/22-rdf-syntax-ns#"
   xmlns:svg="http://www.w3.org/2000/svg"
   xmlns="http://www.w3.org/2000/svg"
   width="128.02121"
   height="128.06923"
   version="1.1"
   viewBox="0 0 128.02121 128.06923"
   id="svg4497">
  <metadata
     id="metadata4503">
    <rdf:RDF>
      <cc:Work
         rdf:about="">
        <dc:format>image/svg+xml</dc:format>
        <dc:type
           rdf:resource="http://purl.org/dc/dcmitype/StillImage" />
        <dc:title />
        <cc:license
           rdf:resource="http://creativecommons.org/licenses/by-sa/4.0/" />
        <dc:creator>
          <cc:Agent>
            <dc:title>Tobias Zwick</dc:title>
          </cc:Agent>
        </dc:creator>
      </cc:Work>
      <cc:License
         rdf:about="http://creativecommons.org/licenses/by-sa/4.0/">
        <cc:permits
           rdf:resource="http://creativecommons.org/ns#Reproduction" />
        <cc:permits
           rdf:resource="http://creativecommons.org/ns#Distribution" />
        <cc:requires
           rdf:resource="http://creativecommons.org/ns#Notice" />
        <cc:requires
           rdf:resource="http://creativecommons.org/ns#Attribution" />
        <cc:permits
           rdf:resource="http://creativecommons.org/ns#DerivativeWorks" />
        <cc:requires
           rdf:resource="http://creativecommons.org/ns#ShareAlike" />
      </cc:License>
    </rdf:RDF>
  </metadata>
  <defs
     id="defs4501">
    <clipPath
       id="clipPath16-1-0"
       clipPathUnits="userSpaceOnUse">
      <path
         id="path18-3-2"
         d="M 0,38 H 38 V 0 H 0 Z" />
    </clipPath>
    <clipPath
       id="clipPath16-1-4-4"
       clipPathUnits="userSpaceOnUse">
      <path
         id="path18-85-8-0"
         d="M 0,36 H 36 V 0 H 0 Z" />
    </clipPath>
    <clipPath
       id="clipPath32-8-7"
       clipPathUnits="userSpaceOnUse">
      <path
         id="path34-5-0-1"
         d="M 11.815,23.013 C 4.2,15.397 -1.265,2.86 0.502,1.093 v 0 c 1.768,-1.768 14.305,3.698 21.92,11.313 v 0 c 7.616,7.615 7.562,11.53 4.243,14.85 v 0 c -1.328,1.328 -2.752,2.133 -4.47,2.133 v 0 c -2.575,0 -5.812,-1.809 -10.38,-6.376" />
    </clipPath>
    <clipPath
       id="clipPath16-1-4-4-0"
       clipPathUnits="userSpaceOnUse">
      <path
         id="path18-85-8-0-7"
         d="M 0,36 H 36 V 0 H 0 Z" />
    </clipPath>
    <clipPath
       id="clipPath32-8-7-8"
       clipPathUnits="userSpaceOnUse">
      <path
         id="path34-5-0-1-0"
         d="M 11.815,23.013 C 4.2,15.397 -1.265,2.86 0.502,1.093 v 0 c 1.768,-1.768 14.305,3.698 21.92,11.313 v 0 c 7.616,7.615 7.562,11.53 4.243,14.85 v 0 c -1.328,1.328 -2.752,2.133 -4.47,2.133 v 0 c -2.575,0 -5.812,-1.809 -10.38,-6.376" />
    </clipPath>
    <clipPath
       id="clipPath44"
       clipPathUnits="userSpaceOnUse">
      <path
         id="path46-1"
         d="M 7,35 C 5.896,35 5,34.105 5,33 V 33 3 C 5,1.895 5.896,1 7,1 v 0 h 18 c 1.105,0 2,0.895 2,2 v 0 30 c 0,1.105 -0.895,2 -2,2 v 0 z" />
    </clipPath>
    <clipPath
       id="clipPath16-4-5"
       clipPathUnits="userSpaceOnUse">
      <path
         id="path18-5-7"
         d="M 0,38 H 38 V 0 H 0 Z" />
    </clipPath>
    <clipPath
       id="clipPath56-9"
       clipPathUnits="userSpaceOnUse">
      <path
         id="path58-7"
         d="M 0,38 H 38 V 0 H 0 Z" />
    </clipPath>
    <clipPath
       id="clipPath44-2"
       clipPathUnits="userSpaceOnUse">
      <path
         id="path46-1-8"
         d="M 7,35 C 5.896,35 5,34.105 5,33 V 33 3 C 5,1.895 5.896,1 7,1 v 0 h 18 c 1.105,0 2,0.895 2,2 v 0 30 c 0,1.105 -0.895,2 -2,2 v 0 z" />
    </clipPath>
    <clipPath
       id="clipPath16-1-0-8"
       clipPathUnits="userSpaceOnUse">
      <path
         id="path18-3-2-0"
         d="M 0,38 H 38 V 0 H 0 Z" />
    </clipPath>
    <clipPath
       id="clipPath16-1-0-9"
       clipPathUnits="userSpaceOnUse">
      <path
         id="path18-3-2-1"
         d="M 0,38 H 38 V 0 H 0 Z" />
    </clipPath>
  </defs>
  <g
     transform="rotate(30,-152.07107,870.16288)"
     id="street_surface">
    <path
       d="m -303.99992,63.999782 c 0,35.346 -28.654,63.999998 -64.00002,63.999998 -35.346,0 -64,-28.653998 -64,-63.999998 0,-35.346 28.654,-64 64,-64 35.34602,0 64.00002,28.654 64.00002,64"
       id="path4485-6-6-77"
       style="fill:#ffdd55;fill-opacity:1;stroke-width:0.2" />
    <path
       style="fill:#000000;fill-opacity:0.2;stroke-width:0.2"
       d="m -332.5446,117.42775 c 2.8261,-1.83677 5.46837,-3.96091 7.96274,-6.20813 l 0.0774,-94.108128 c -2.49462,-2.24753 -4.32864,-4.08901 -8.06897,-5.73369 0,0 0.10064,106.174338 0.0288,106.049948 z"
       id="path4485-6-6-16-8-0-0" />
    <path
       style="fill:#999999;fill-opacity:1;stroke-width:0.2"
       d="m -367.9882,0.03494 c -11.66465,0 -22.59014,3.13589 -32.00781,8.58789 v 110.82422 c 9.41767,5.452 20.34316,8.58789 32.00781,8.58789 11.6437,0 22.55083,-3.12475 31.95703,-8.55859 V 8.59353 c -9.4062,-5.43384 -20.31333,-8.55859 -31.95703,-8.55859 z"
       id="path4485-6-6-1-3" />
    <path
       style="fill:#ffffff;fill-opacity:1;stroke-width:0.2"
       d="m -335.99992,8.52712 v 110.83204 c 2.80827,-1.62523 5.48255,-3.45379 8,-5.47266 V 13.99978 c -2.51745,-2.01887 -5.19173,-3.84743 -8,-5.47266 z"
       id="path4485-6-6-7-6" />
    <path
       style="fill:#ffffff;fill-opacity:1;stroke-width:0.2"
       d="m -399.99992,8.52712 c -2.80827,1.62523 -5.48255,3.45379 -8,5.47266 v 99.88672 c 2.51745,2.01887 5.19173,3.84743 8,5.47266 z"
       id="path4485-6-6-70-4" />
    <path
       d="m -379.98474,25.954285 a 6,6 0 0 1 -6,6 6,6 0 0 1 -6,-6 6,6 0 0 1 6,-6 6,6 0 0 1 6,6"
       style="opacity:1;vector-effect:none;fill:#bbbbbb;fill-opacity:1;stroke:none;stroke-width:12.6975;stroke-linecap:butt;stroke-linejoin:miter;stroke-miterlimit:4;stroke-dasharray:none;stroke-dashoffset:0;stroke-opacity:1;paint-order:stroke fill markers"
       id="path6983" />
    <path
       d="m -361.37814,15.569505 a 6,6 0 0 1 -6,6 6,6 0 0 1 -6,-6 6,6 0 0 1 6,-6.0000003 6,6 0 0 1 6,6.0000003"
       style="opacity:1;vector-effect:none;fill:#bbbbbb;fill-opacity:1;stroke:none;stroke-width:12.6975;stroke-linecap:butt;stroke-linejoin:miter;stroke-miterlimit:4;stroke-dasharray:none;stroke-dashoffset:0;stroke-opacity:1;paint-order:stroke fill markers"
       id="path6983-1" />
    <path
       d="m -341.00378,48.42915 a 6,6 0 0 1 -6,6 6,6 0 0 1 -6,-6 6,6 0 0 1 6,-6 6,6 0 0 1 6,6"
       style="opacity:1;vector-effect:none;fill:#cccccc;fill-opacity:1;stroke:none;stroke-width:12.6975;stroke-linecap:butt;stroke-linejoin:miter;stroke-miterlimit:4;stroke-dasharray:none;stroke-dashoffset:0;stroke-opacity:1;paint-order:stroke fill markers"
       id="path6983-1-1" />
    <path
       d="m -373.72827,46.47496 a 6,6 0 0 1 -6,6 6,6 0 0 1 -6,-6 6,6 0 0 1 6,-6 6,6 0 0 1 6,6"
       style="opacity:1;vector-effect:none;fill:#aaaaaa;fill-opacity:1;stroke:none;stroke-width:12.6975;stroke-linecap:butt;stroke-linejoin:miter;stroke-miterlimit:4;stroke-dasharray:none;stroke-dashoffset:0;stroke-opacity:1;paint-order:stroke fill markers"
       id="path6983-1-3" />
    <path
       d="m -359.87726,75.545265 a 6,6 0 0 1 -6,6 6,6 0 0 1 -6,-6 6,6 0 0 1 6,-6 6,6 0 0 1 6,6"
       style="opacity:1;vector-effect:none;fill:#aaaaaa;fill-opacity:1;stroke:none;stroke-width:12.6975;stroke-linecap:butt;stroke-linejoin:miter;stroke-miterlimit:4;stroke-dasharray:none;stroke-dashoffset:0;stroke-opacity:1;paint-order:stroke fill markers"
       id="path6983-1-7" />
    <path
       d="m -380.53589,98.241966 a 6,6 0 0 1 -6,6.000004 6,6 0 0 1 -6,-6.000004 6,6 0 0 1 6,-6 6,6 0 0 1 6,6"
       style="opacity:1;vector-effect:none;fill:#cccccc;fill-opacity:1;stroke:none;stroke-width:12.6975;stroke-linecap:butt;stroke-linejoin:miter;stroke-miterlimit:4;stroke-dasharray:none;stroke-dashoffset:0;stroke-opacity:1;paint-order:stroke fill markers"
       id="path6983-1-16" />
    <path
       d="m -368.65021,108.93867 a 6,6 0 0 1 -6,6 6,6 0 0 1 -6,-6 6,6 0 0 1 6,-6 6,6 0 0 1 6,6"
       style="opacity:1;vector-effect:none;fill:#cccccc;fill-opacity:1;stroke:none;stroke-width:12.6975;stroke-linecap:butt;stroke-linejoin:miter;stroke-miterlimit:4;stroke-dasharray:none;stroke-dashoffset:0;stroke-opacity:1;paint-order:stroke fill markers"
       id="path6983-1-35" />
    <path
       d="m -344.51849,97.427368 a 6,6 0 0 1 -6,6.000002 6,6 0 0 1 -6,-6.000002 6,6 0 0 1 6,-6 6,6 0 0 1 6,6"
       style="opacity:1;vector-effect:none;fill:#cccccc;fill-opacity:1;stroke:none;stroke-width:12.6975;stroke-linecap:butt;stroke-linejoin:miter;stroke-miterlimit:4;stroke-dasharray:none;stroke-dashoffset:0;stroke-opacity:1;paint-order:stroke fill markers"
       id="path6983-1-6" />
    <path
       d="m -382.61215,70.155289 a 6,6 0 0 1 -6,6 6,6 0 0 1 -6,-6 6,6 0 0 1 6,-6 6,6 0 0 1 6,6"
       style="opacity:1;vector-effect:none;fill:#bbbbbb;fill-opacity:1;stroke:none;stroke-width:12.6975;stroke-linecap:butt;stroke-linejoin:miter;stroke-miterlimit:4;stroke-dasharray:none;stroke-dashoffset:0;stroke-opacity:1;paint-order:stroke fill markers"
       id="path6983-1-70" />
    <path
       d="m -343.43701,24.061621 a 6,6 0 0 1 -6,6 6,6 0 0 1 -6,-6 6,6 0 0 1 6,-6 6,6 0 0 1 6,6"
       style="opacity:1;vector-effect:none;fill:#aaaaaa;fill-opacity:1;stroke:none;stroke-width:12.6975;stroke-linecap:butt;stroke-linejoin:miter;stroke-miterlimit:4;stroke-dasharray:none;stroke-dashoffset:0;stroke-opacity:1;paint-order:stroke fill markers"
       id="path6983-1-2" />
    <path
       d="m -343.035,72.761887 a 6,6 0 0 1 -6,6 6,6 0 0 1 -6,-6 6,6 0 0 1 6,-6 6,6 0 0 1 6,6"
       style="opacity:1;vector-effect:none;fill:#aaaaaa;fill-opacity:1;stroke:none;stroke-width:12.6975;stroke-linecap:butt;stroke-linejoin:miter;stroke-miterlimit:4;stroke-dasharray:none;stroke-dashoffset:0;stroke-opacity:1;paint-order:stroke fill markers"
       id="path6983-1-9" />
    <path
       d="m -349.62079,119.36849 a 6,6 0 0 1 -6,6 6,6 0 0 1 -6,-6 6,6 0 0 1 6,-6 6,6 0 0 1 6,6"
       style="opacity:1;vector-effect:none;fill:#aaaaaa;fill-opacity:1;stroke:none;stroke-width:12.6975;stroke-linecap:butt;stroke-linejoin:miter;stroke-miterlimit:4;stroke-dasharray:none;stroke-dashoffset:0;stroke-opacity:1;paint-order:stroke fill markers"
       id="path6983-1-98" />
    <path
       d="m -348.89285,29.871016 a 6,6 0 0 1 -6,6 6,6 0 0 1 -6,-6 6,6 0 0 1 6,-6 6,6 0 0 1 6,6"
       style="opacity:1;vector-effect:none;fill:#bbbbbb;fill-opacity:1;stroke:none;stroke-width:12.6975;stroke-linecap:butt;stroke-linejoin:miter;stroke-miterlimit:4;stroke-dasharray:none;stroke-dashoffset:0;stroke-opacity:1;paint-order:stroke fill markers"
       id="path6983-1-21" />
    <path
       d="m -352.56012,61.136257 a 6,6 0 0 1 -6,6 6,6 0 0 1 -6,-6 6,6 0 0 1 6,-6 6,6 0 0 1 6,6"
       style="opacity:1;vector-effect:none;fill:#bbbbbb;fill-opacity:1;stroke:none;stroke-width:12.6975;stroke-linecap:butt;stroke-linejoin:miter;stroke-miterlimit:4;stroke-dasharray:none;stroke-dashoffset:0;stroke-opacity:1;paint-order:stroke fill markers"
       id="path6983-1-67" />
    <path
       d="m -371.65201,64.741074 a 6,6 0 0 1 -6,6 6,6 0 0 1 -6,-6 6,6 0 0 1 6,-6 6,6 0 0 1 6,6"
       style="opacity:1;vector-effect:none;fill:#cccccc;fill-opacity:1;stroke:none;stroke-width:12.6975;stroke-linecap:butt;stroke-linejoin:miter;stroke-miterlimit:4;stroke-dasharray:none;stroke-dashoffset:0;stroke-opacity:1;paint-order:stroke fill markers"
       id="path6983-1-15" />
    <path
       d="m -368.31747,90.307831 a 6,6 0 0 1 -6,6 6,6 0 0 1 -6,-6 6,6 0 0 1 6,-6 6,6 0 0 1 6,6"
       style="opacity:1;vector-effect:none;fill:#bbbbbb;fill-opacity:1;stroke:none;stroke-width:12.6975;stroke-linecap:butt;stroke-linejoin:miter;stroke-miterlimit:4;stroke-dasharray:none;stroke-dashoffset:0;stroke-opacity:1;paint-order:stroke fill markers"
       id="path6983-1-4" />
    <path
       d="m -353.00378,104.76189 a 6,6 0 0 1 -6,6 6,6 0 0 1 -6,-6 6,6 0 0 1 6,-6.000003 6,6 0 0 1 6,6.000003"
       style="opacity:1;vector-effect:none;fill:#bbbbbb;fill-opacity:1;stroke:none;stroke-width:12.6975;stroke-linecap:butt;stroke-linejoin:miter;stroke-miterlimit:4;stroke-dasharray:none;stroke-dashoffset:0;stroke-opacity:1;paint-order:stroke fill markers"
       id="path6983-1-8" />
    <path
       d="m -383.31927,115.34768 a 6,6 0 0 1 -6,6 6,6 0 0 1 -6,-6 6,6 0 0 1 6,-6 6,6 0 0 1 6,6"
       style="opacity:1;vector-effect:none;fill:#bbbbbb;fill-opacity:1;stroke:none;stroke-width:12.6975;stroke-linecap:butt;stroke-linejoin:miter;stroke-miterlimit:4;stroke-dasharray:none;stroke-dashoffset:0;stroke-opacity:1;paint-order:stroke fill markers"
       id="path6983-1-95" />
    <path
       d="m -383.61038,40.727097 a 6,6 0 0 1 -6,6 6,6 0 0 1 -6,-6 6,6 0 0 1 6,-6 6,6 0 0 1 6,6"
       style="opacity:1;vector-effect:none;fill:#cccccc;fill-opacity:1;stroke:none;stroke-width:12.6975;stroke-linecap:butt;stroke-linejoin:miter;stroke-miterlimit:4;stroke-dasharray:none;stroke-dashoffset:0;stroke-opacity:1;paint-order:stroke fill markers"
       id="path6983-1-49" />
    <path
       d="m -372.31747,9.1430931 a 6,6 0 0 1 -6,5.9999999 6,6 0 0 1 -6,-5.9999999 6,6 0 0 1 6,-6 6,6 0 0 1 6,6"
       style="opacity:1;vector-effect:none;fill:#aaaaaa;fill-opacity:1;stroke:none;stroke-width:12.6975;stroke-linecap:butt;stroke-linejoin:miter;stroke-miterlimit:4;stroke-dasharray:none;stroke-dashoffset:0;stroke-opacity:1;paint-order:stroke fill markers"
       id="path6983-1-0" />
    <path
       d="m -358.57053,44.408337 a 6,6 0 0 1 -6,6 6,6 0 0 1 -6,-6 6,6 0 0 1 6,-6 6,6 0 0 1 6,6"
       style="opacity:1;vector-effect:none;fill:#cccccc;fill-opacity:1;stroke:none;stroke-width:12.6975;stroke-linecap:butt;stroke-linejoin:miter;stroke-miterlimit:4;stroke-dasharray:none;stroke-dashoffset:0;stroke-opacity:1;paint-order:stroke fill markers"
       id="path6983-1-96" />
    <path
       d="m -367.99991,31.999781 a 4,4 0 0 1 -4,4 4,4 0 0 1 -4,-4 4,4 0 0 1 4,-4 4,4 0 0 1 4,4"
       style="opacity:1;vector-effect:none;fill:#bbbbbb;fill-opacity:1;stroke:none;stroke-width:8.465;stroke-linecap:butt;stroke-linejoin:miter;stroke-miterlimit:4;stroke-dasharray:none;stroke-dashoffset:0;stroke-opacity:1;paint-order:stroke fill markers"
       id="path7125" />
    <path
       d="m -353.81271,7.5387306 a 4,4 0 0 1 -4,4.0000004 4,4 0 0 1 -4,-4.0000004 4,4 0 0 1 4,-4 4,4 0 0 1 4,4"
       style="opacity:1;vector-effect:none;fill:#bbbbbb;fill-opacity:1;stroke:none;stroke-width:8.465;stroke-linecap:butt;stroke-linejoin:miter;stroke-miterlimit:4;stroke-dasharray:none;stroke-dashoffset:0;stroke-opacity:1;paint-order:stroke fill markers"
       id="path7125-2" />
    <path
       d="m -340.86298,36.748516 a 4,4 0 0 1 -4,4 4,4 0 0 1 -4,-4 4,4 0 0 1 4,-4 4,4 0 0 1 4,4"
       style="opacity:1;vector-effect:none;fill:#777777;fill-opacity:1;stroke:none;stroke-width:8.465;stroke-linecap:butt;stroke-linejoin:miter;stroke-miterlimit:4;stroke-dasharray:none;stroke-dashoffset:0;stroke-opacity:1;paint-order:stroke fill markers"
       id="path7125-1" />
    <path
       d="m -367.4003,54.60638 a 4,4 0 0 1 -4,4 4,4 0 0 1 -4,-4 4,4 0 0 1 4,-4 4,4 0 0 1 4,4"
       style="opacity:1;vector-effect:none;fill:#aaaaaa;fill-opacity:1;stroke:none;stroke-width:8.465;stroke-linecap:butt;stroke-linejoin:miter;stroke-miterlimit:4;stroke-dasharray:none;stroke-dashoffset:0;stroke-opacity:1;paint-order:stroke fill markers"
       id="path7125-0" />
    <path
       d="m -381.61172,51.337719 a 4,4 0 0 1 -4,4 4,4 0 0 1 -4,-4 4,4 0 0 1 4,-4 4,4 0 0 1 4,4"
       style="opacity:1;vector-effect:none;fill:#bbbbbb;fill-opacity:1;stroke:none;stroke-width:8.465;stroke-linecap:butt;stroke-linejoin:miter;stroke-miterlimit:4;stroke-dasharray:none;stroke-dashoffset:0;stroke-opacity:1;paint-order:stroke fill markers"
       id="path7125-24" />
    <path
       d="m -382.09698,82.030998 a 4,4 0 0 1 -4,4 4,4 0 0 1 -4,-4 4,4 0 0 1 4,-4 4,4 0 0 1 4,4"
       style="opacity:1;vector-effect:none;fill:#777777;fill-opacity:1;stroke:none;stroke-width:8.465;stroke-linecap:butt;stroke-linejoin:miter;stroke-miterlimit:4;stroke-dasharray:none;stroke-dashoffset:0;stroke-opacity:1;paint-order:stroke fill markers"
       id="path7125-4" />
    <path
       d="m -390.91501,90.034416 a 4,4 0 0 1 -4,4 4,4 0 0 1 -4,-4 4,4 0 0 1 4,-4 4,4 0 0 1 4,4"
       style="opacity:1;vector-effect:none;fill:#bbbbbb;fill-opacity:1;stroke:none;stroke-width:8.465;stroke-linecap:butt;stroke-linejoin:miter;stroke-miterlimit:4;stroke-dasharray:none;stroke-dashoffset:0;stroke-opacity:1;paint-order:stroke fill markers"
       id="path7125-9" />
    <path
       d="m -375.80231,121.60506 a 4,4 0 0 1 -4,4 4,4 0 0 1 -4,-4 4,4 0 0 1 4,-4 4,4 0 0 1 4,4"
       style="opacity:1;vector-effect:none;fill:#cccccc;fill-opacity:1;stroke:none;stroke-width:8.465;stroke-linecap:butt;stroke-linejoin:miter;stroke-miterlimit:4;stroke-dasharray:none;stroke-dashoffset:0;stroke-opacity:1;paint-order:stroke fill markers"
       id="path7125-3" />
    <path
       d="m -338.59314,106.80739 a 4,4 0 0 1 -4,4 4,4 0 0 1 -4,-4 4,4 0 0 1 4,-4 4,4 0 0 1 4,4"
       style="opacity:1;vector-effect:none;fill:#bbbbbb;fill-opacity:1;stroke:none;stroke-width:8.465;stroke-linecap:butt;stroke-linejoin:miter;stroke-miterlimit:4;stroke-dasharray:none;stroke-dashoffset:0;stroke-opacity:1;paint-order:stroke fill markers"
       id="path7125-12" />
    <path
       d="m -339.12347,82.190384 a 4,4 0 0 1 -4,4 4,4 0 0 1 -4,-4 4,4 0 0 1 4,-4 4,4 0 0 1 4,4"
       style="opacity:1;vector-effect:none;fill:#777777;fill-opacity:1;stroke:none;stroke-width:8.465;stroke-linecap:butt;stroke-linejoin:miter;stroke-miterlimit:4;stroke-dasharray:none;stroke-dashoffset:0;stroke-opacity:1;paint-order:stroke fill markers"
       id="path7125-93" />
    <path
       d="m -353.08139,90.828209 a 4,4 0 0 1 -4,4 4,4 0 0 1 -4,-4 4,4 0 0 1 4,-4 4,4 0 0 1 4,4"
       style="opacity:1;vector-effect:none;fill:#bbbbbb;fill-opacity:1;stroke:none;stroke-width:8.465;stroke-linecap:butt;stroke-linejoin:miter;stroke-miterlimit:4;stroke-dasharray:none;stroke-dashoffset:0;stroke-opacity:1;paint-order:stroke fill markers"
       id="path7125-21" />
    <path
       d="m -338.74167,56.290886 a 4,4 0 0 1 -4,4 4,4 0 0 1 -4,-4 4,4 0 0 1 4,-4 4,4 0 0 1 4,4"
       style="opacity:1;vector-effect:none;fill:#bbbbbb;fill-opacity:1;stroke:none;stroke-width:8.465;stroke-linecap:butt;stroke-linejoin:miter;stroke-miterlimit:4;stroke-dasharray:none;stroke-dashoffset:0;stroke-opacity:1;paint-order:stroke fill markers"
       id="path7125-6" />
    <path
       d="m -387.0918,10.96677 a 4,4 0 0 1 -4,4 4,4 0 0 1 -4,-4 4,4 0 0 1 4,-3.9999998 4,4 0 0 1 4,3.9999998"
       style="opacity:1;vector-effect:none;fill:#bbbbbb;fill-opacity:1;stroke:none;stroke-width:8.465;stroke-linecap:butt;stroke-linejoin:miter;stroke-miterlimit:4;stroke-dasharray:none;stroke-dashoffset:0;stroke-opacity:1;paint-order:stroke fill markers"
       id="path7125-68" />
    <path
       d="m -341.10904,12.353333 a 4,4 0 0 1 -4,4 4,4 0 0 1 -4,-4 4,4 0 0 1 4,-3.9999995 4,4 0 0 1 4,3.9999995"
       style="opacity:1;vector-effect:none;fill:#bbbbbb;fill-opacity:1;stroke:none;stroke-width:8.465;stroke-linecap:butt;stroke-linejoin:miter;stroke-miterlimit:4;stroke-dasharray:none;stroke-dashoffset:0;stroke-opacity:1;paint-order:stroke fill markers"
       id="path7125-66" />
    <path
       d="m -363.99991,25.999781 a 2,2 0 0 1 -2,2 2,2 0 0 1 -2,-2 2,2 0 0 1 2,-2 2,2 0 0 1 2,2"
       style="opacity:1;vector-effect:none;fill:#cccccc;fill-opacity:1;stroke:none;stroke-width:8.465;stroke-linecap:butt;stroke-linejoin:miter;stroke-miterlimit:4;stroke-dasharray:none;stroke-dashoffset:0;stroke-opacity:1;paint-order:stroke fill markers"
       id="path7214" />
    <path
       d="m -352.1767,40.828205 a 2,2 0 0 1 -2,2 2,2 0 0 1 -2,-2 2,2 0 0 1 2,-2 2,2 0 0 1 2,2"
       style="opacity:1;vector-effect:none;fill:#aaaaaa;fill-opacity:1;stroke:none;stroke-width:8.465;stroke-linecap:butt;stroke-linejoin:miter;stroke-miterlimit:4;stroke-dasharray:none;stroke-dashoffset:0;stroke-opacity:1;paint-order:stroke fill markers"
       id="path7214-9" />
    <path
       d="m -374.27377,22.377565 a 2,2 0 0 1 -2,2 2,2 0 0 1 -2,-2 2,2 0 0 1 2,-2 2,2 0 0 1 2,2"
       style="opacity:1;vector-effect:none;fill:#cccccc;fill-opacity:1;stroke:none;stroke-width:8.465;stroke-linecap:butt;stroke-linejoin:miter;stroke-miterlimit:4;stroke-dasharray:none;stroke-dashoffset:0;stroke-opacity:1;paint-order:stroke fill markers"
       id="path7214-5" />
    <path
       d="m -379.07098,35.368946 a 2,2 0 0 1 -2,2 2,2 0 0 1 -2,-2 2,2 0 0 1 2,-2 2,2 0 0 1 2,2"
       style="opacity:1;vector-effect:none;fill:#777777;fill-opacity:1;stroke:none;stroke-width:8.465;stroke-linecap:butt;stroke-linejoin:miter;stroke-miterlimit:4;stroke-dasharray:none;stroke-dashoffset:0;stroke-opacity:1;paint-order:stroke fill markers"
       id="path7214-4" />
    <path
       d="m -371.05017,37.292671 a 2,2 0 0 1 -2,2 2,2 0 0 1 -2,-2 2,2 0 0 1 2,-2 2,2 0 0 1 2,2"
       style="opacity:1;vector-effect:none;fill:#cccccc;fill-opacity:1;stroke:none;stroke-width:8.465;stroke-linecap:butt;stroke-linejoin:miter;stroke-miterlimit:4;stroke-dasharray:none;stroke-dashoffset:0;stroke-opacity:1;paint-order:stroke fill markers"
       id="path7214-58" />
    <path
       d="m -357.92365,52.07605 a 2,2 0 0 1 -2,2 2,2 0 0 1 -2,-2 2,2 0 0 1 2,-2 2,2 0 0 1 2,2"
       style="opacity:1;vector-effect:none;fill:#777777;fill-opacity:1;stroke:none;stroke-width:8.465;stroke-linecap:butt;stroke-linejoin:miter;stroke-miterlimit:4;stroke-dasharray:none;stroke-dashoffset:0;stroke-opacity:1;paint-order:stroke fill markers"
       id="path7214-91" />
    <path
       d="m -346.98428,61.777954 a 2,2 0 0 1 -2,2 2,2 0 0 1 -2,-2 2,2 0 0 1 2,-2 2,2 0 0 1 2,2"
       style="opacity:1;vector-effect:none;fill:#cccccc;fill-opacity:1;stroke:none;stroke-width:8.465;stroke-linecap:butt;stroke-linejoin:miter;stroke-miterlimit:4;stroke-dasharray:none;stroke-dashoffset:0;stroke-opacity:1;paint-order:stroke fill markers"
       id="path7214-3" />
    <path
       d="m -363.91052,65.374779 a 2,2 0 0 1 -2,2 2,2 0 0 1 -2,-2 2,2 0 0 1 2,-2 2,2 0 0 1 2,2"
       style="opacity:1;vector-effect:none;fill:#bbbbbb;fill-opacity:1;stroke:none;stroke-width:8.465;stroke-linecap:butt;stroke-linejoin:miter;stroke-miterlimit:4;stroke-dasharray:none;stroke-dashoffset:0;stroke-opacity:1;paint-order:stroke fill markers"
       id="path7214-1" />
    <path
       d="m -357.37491,69.374779 a 2,2 0 0 1 -2,2 2,2 0 0 1 -2,-2 2,2 0 0 1 2,-2 2,2 0 0 1 2,2"
       style="opacity:1;vector-effect:none;fill:#cccccc;fill-opacity:1;stroke:none;stroke-width:8.465;stroke-linecap:butt;stroke-linejoin:miter;stroke-miterlimit:4;stroke-dasharray:none;stroke-dashoffset:0;stroke-opacity:1;paint-order:stroke fill markers"
       id="path7214-34" />
    <path
       d="m -376.12491,82.874779 a 2,2 0 0 1 -2,2 2,2 0 0 1 -2,-2 2,2 0 0 1 2,-2 2,2 0 0 1 2,2"
       style="opacity:1;vector-effect:none;fill:#cccccc;fill-opacity:1;stroke:none;stroke-width:8.465;stroke-linecap:butt;stroke-linejoin:miter;stroke-miterlimit:4;stroke-dasharray:none;stroke-dashoffset:0;stroke-opacity:1;paint-order:stroke fill markers"
       id="path7214-45" />
    <path
       d="m -374.36386,99.413994 a 2,2 0 0 1 -2,1.999996 2,2 0 0 1 -2,-1.999996 2,2 0 0 1 2,-2 2,2 0 0 1 2,2"
       style="opacity:1;vector-effect:none;fill:#bbbbbb;fill-opacity:1;stroke:none;stroke-width:8.465;stroke-linecap:butt;stroke-linejoin:miter;stroke-miterlimit:4;stroke-dasharray:none;stroke-dashoffset:0;stroke-opacity:1;paint-order:stroke fill markers"
       id="path7214-94" />
    <path
       d="m -349.72604,110.13151 a 2,2 0 0 1 -2,2 2,2 0 0 1 -2,-2 2,2 0 0 1 2,-2 2,2 0 0 1 2,2"
       style="opacity:1;vector-effect:none;fill:#cccccc;fill-opacity:1;stroke:none;stroke-width:8.465;stroke-linecap:butt;stroke-linejoin:miter;stroke-miterlimit:4;stroke-dasharray:none;stroke-dashoffset:0;stroke-opacity:1;paint-order:stroke fill markers"
       id="path7214-7" />
    <path
       d="m -370.24991,124.49978 a 2,2 0 0 1 -2,2 2,2 0 0 1 -2,-2 2,2 0 0 1 2,-2 2,2 0 0 1 2,2"
       style="opacity:1;vector-effect:none;fill:#cccccc;fill-opacity:1;stroke:none;stroke-width:8.465;stroke-linecap:butt;stroke-linejoin:miter;stroke-miterlimit:4;stroke-dasharray:none;stroke-dashoffset:0;stroke-opacity:1;paint-order:stroke fill markers"
       id="path7214-79" />
    <path
       d="m -341.24991,119.99978 a 2,2 0 0 1 -2,2 2,2 0 0 1 -2,-2 2,2 0 0 1 2,-2 2,2 0 0 1 2,2"
       style="opacity:1;vector-effect:none;fill:#bbbbbb;fill-opacity:1;stroke:none;stroke-width:8.465;stroke-linecap:butt;stroke-linejoin:miter;stroke-miterlimit:4;stroke-dasharray:none;stroke-dashoffset:0;stroke-opacity:1;paint-order:stroke fill markers"
       id="path7214-33" />
    <path
       d="m -392.24991,63.249779 a 2,2 0 0 1 -2,2 2,2 0 0 1 -2,-2 2,2 0 0 1 2,-2 2,2 0 0 1 2,2"
       style="opacity:1;vector-effect:none;fill:#777777;fill-opacity:1;stroke:none;stroke-width:8.465;stroke-linecap:butt;stroke-linejoin:miter;stroke-miterlimit:4;stroke-dasharray:none;stroke-dashoffset:0;stroke-opacity:1;paint-order:stroke fill markers"
       id="path7214-8" />
    <path
       d="m -391.74991,28.999779 a 2,2 0 0 1 -2,2 2,2 0 0 1 -2,-2 2,2 0 0 1 2,-2 2,2 0 0 1 2,2"
       style="opacity:1;vector-effect:none;fill:#bbbbbb;fill-opacity:1;stroke:none;stroke-width:8.465;stroke-linecap:butt;stroke-linejoin:miter;stroke-miterlimit:4;stroke-dasharray:none;stroke-dashoffset:0;stroke-opacity:1;paint-order:stroke fill markers"
       id="path7214-335" />
    <path
       d="m -356.74991,16.749779 a 2,2 0 0 1 -2,2 2,2 0 0 1 -2,-2 2,2 0 0 1 2,-2 2,2 0 0 1 2,2"
       style="opacity:1;vector-effect:none;fill:#cccccc;fill-opacity:1;stroke:none;stroke-width:8.465;stroke-linecap:butt;stroke-linejoin:miter;stroke-miterlimit:4;stroke-dasharray:none;stroke-dashoffset:0;stroke-opacity:1;paint-order:stroke fill markers"
       id="path7214-70" />
    <path
       d="m -338.74991,20.749781 a 2,2 0 0 1 -2,2 2,2 0 0 1 -2,-2 2,2 0 0 1 2,-2 2,2 0 0 1 2,2"
       style="opacity:1;vector-effect:none;fill:#cccccc;fill-opacity:1;stroke:none;stroke-width:8.465;stroke-linecap:butt;stroke-linejoin:miter;stroke-miterlimit:4;stroke-dasharray:none;stroke-dashoffset:0;stroke-opacity:1;paint-order:stroke fill markers"
       id="path7214-0" />
    <path
       d="m -395.24991,76.249779 a 2,2 0 0 1 -2,2 2,2 0 0 1 -2,-2 2,2 0 0 1 2,-2 2,2 0 0 1 2,2"
       style="opacity:1;vector-effect:none;fill:#aaaaaa;fill-opacity:1;stroke:none;stroke-width:8.465;stroke-linecap:butt;stroke-linejoin:miter;stroke-miterlimit:4;stroke-dasharray:none;stroke-dashoffset:0;stroke-opacity:1;paint-order:stroke fill markers"
       id="path7214-48" />
    <path
       d="m -337.99991,67.999779 a 2,2 0 0 1 -2,2 2,2 0 0 1 -2,-2 2,2 0 0 1 2,-2 2,2 0 0 1 2,2"
       style="opacity:1;vector-effect:none;fill:#cccccc;fill-opacity:1;stroke:none;stroke-width:8.465;stroke-linecap:butt;stroke-linejoin:miter;stroke-miterlimit:4;stroke-dasharray:none;stroke-dashoffset:0;stroke-opacity:1;paint-order:stroke fill markers"
       id="path7214-75" />
    <path
       d="m -352.24991,83.749779 a 2,2 0 0 1 -2,2 2,2 0 0 1 -2,-2 2,2 0 0 1 2,-2 2,2 0 0 1 2,2"
       style="opacity:1;vector-effect:none;fill:#777777;fill-opacity:1;stroke:none;stroke-width:8.465;stroke-linecap:butt;stroke-linejoin:miter;stroke-miterlimit:4;stroke-dasharray:none;stroke-dashoffset:0;stroke-opacity:1;paint-order:stroke fill markers"
       id="path7214-85" />
    <path
       d="m -366.74991,100.24978 a 2,2 0 0 1 -2,2 2,2 0 0 1 -2,-2 2,2 0 0 1 2,-2.000001 2,2 0 0 1 2,2.000001"
       style="opacity:1;vector-effect:none;fill:#aaaaaa;fill-opacity:1;stroke:none;stroke-width:8.465;stroke-linecap:butt;stroke-linejoin:miter;stroke-miterlimit:4;stroke-dasharray:none;stroke-dashoffset:0;stroke-opacity:1;paint-order:stroke fill markers"
       id="path7214-6" />
    <path
       d="m -338.49991,92.999779 a 2,2 0 0 1 -2,2 2,2 0 0 1 -2,-2 2,2 0 0 1 2,-2 2,2 0 0 1 2,2"
       style="opacity:1;vector-effect:none;fill:#cccccc;fill-opacity:1;stroke:none;stroke-width:8.465;stroke-linecap:butt;stroke-linejoin:miter;stroke-miterlimit:4;stroke-dasharray:none;stroke-dashoffset:0;stroke-opacity:1;paint-order:stroke fill markers"
       id="path7214-76" />
    <path
       d="m -393.49991,48.499779 a 2,2 0 0 1 -2,2 2,2 0 0 1 -2,-2 2,2 0 0 1 2,-2 2,2 0 0 1 2,2"
       style="opacity:1;vector-effect:none;fill:#aaaaaa;fill-opacity:1;stroke:none;stroke-width:8.465;stroke-linecap:butt;stroke-linejoin:miter;stroke-miterlimit:4;stroke-dasharray:none;stroke-dashoffset:0;stroke-opacity:1;paint-order:stroke fill markers"
       id="path7214-04" />
    <path
       d="m -385.54989,59.224785 a 3.2250135,3.2250135 0 0 1 -3.22501,3.225013 3.2250135,3.2250135 0 0 1 -3.22502,-3.225013 3.2250135,3.2250135 0 0 1 3.22502,-3.225014 3.2250135,3.2250135 0 0 1 3.22501,3.225014"
       style="opacity:1;vector-effect:none;fill:#cccccc;fill-opacity:1;stroke:none;stroke-width:8.465;stroke-linecap:butt;stroke-linejoin:miter;stroke-miterlimit:4;stroke-dasharray:none;stroke-dashoffset:0;stroke-opacity:1;paint-order:stroke fill markers"
       id="path7369" />
    <path
       d="m -373.21716,74.739502 a 3.2250135,3.2250135 0 0 1 -3.22501,3.225013 3.2250135,3.2250135 0 0 1 -3.22501,-3.225013 3.2250135,3.2250135 0 0 1 3.22501,-3.225014 3.2250135,3.2250135 0 0 1 3.22501,3.225014"
       style="opacity:1;vector-effect:none;fill:#bbbbbb;fill-opacity:1;stroke:none;stroke-width:8.465;stroke-linecap:butt;stroke-linejoin:miter;stroke-miterlimit:4;stroke-dasharray:none;stroke-dashoffset:0;stroke-opacity:1;paint-order:stroke fill markers"
       id="path7369-4" />
    <path
       d="m -361.13049,94.295853 a 3.2250135,3.2250135 0 0 1 -3.22501,3.225013 3.2250135,3.2250135 0 0 1 -3.22501,-3.225013 3.2250135,3.2250135 0 0 1 3.22501,-3.225014 3.2250135,3.2250135 0 0 1 3.22501,3.225014"
       style="opacity:1;vector-effect:none;fill:#cccccc;fill-opacity:1;stroke:none;stroke-width:8.465;stroke-linecap:butt;stroke-linejoin:miter;stroke-miterlimit:4;stroke-dasharray:none;stroke-dashoffset:0;stroke-opacity:1;paint-order:stroke fill markers"
       id="path7369-7" />
    <path
       d="m -363.44939,117.58874 a 3.2250135,3.2250135 0 0 1 -3.22502,3.22501 3.2250135,3.2250135 0 0 1 -3.22501,-3.22501 3.2250135,3.2250135 0 0 1 3.22501,-3.22502 3.2250135,3.2250135 0 0 1 3.22502,3.22502"
       style="opacity:1;vector-effect:none;fill:#777777;fill-opacity:1;stroke:none;stroke-width:8.465;stroke-linecap:butt;stroke-linejoin:miter;stroke-miterlimit:4;stroke-dasharray:none;stroke-dashoffset:0;stroke-opacity:1;paint-order:stroke fill markers"
       id="path7369-8" />
    <path
       d="m -391.42516,105.96652 a 3.2250135,3.2250135 0 0 1 -3.22502,3.22502 3.2250135,3.2250135 0 0 1 -3.22501,-3.22502 3.2250135,3.2250135 0 0 1 3.22501,-3.22501 3.2250135,3.2250135 0 0 1 3.22502,3.22501"
       style="opacity:1;vector-effect:none;fill:#777777;fill-opacity:1;stroke:none;stroke-width:8.465;stroke-linecap:butt;stroke-linejoin:miter;stroke-miterlimit:4;stroke-dasharray:none;stroke-dashoffset:0;stroke-opacity:1;paint-order:stroke fill markers"
       id="path7369-78" />
    <path
       d="m -341.28985,112.28544 a 3.2250135,3.2250135 0 0 1 -3.22501,3.22501 3.2250135,3.2250135 0 0 1 -3.22502,-3.22501 3.2250135,3.2250135 0 0 1 3.22502,-3.22501 3.2250135,3.2250135 0 0 1 3.22501,3.22501"
       style="opacity:1;vector-effect:none;fill:#777777;fill-opacity:1;stroke:none;stroke-width:8.465;stroke-linecap:butt;stroke-linejoin:miter;stroke-miterlimit:4;stroke-dasharray:none;stroke-dashoffset:0;stroke-opacity:1;paint-order:stroke fill markers"
       id="path7369-3" />
    <path
       d="m -379.84457,16.354727 a 3.2250135,3.2250135 0 0 1 -3.22501,3.225013 3.2250135,3.2250135 0 0 1 -3.22501,-3.225013 3.2250135,3.2250135 0 0 1 3.22501,-3.225014 3.2250135,3.2250135 0 0 1 3.22501,3.225014"
       style="opacity:1;vector-effect:none;fill:#cccccc;fill-opacity:1;stroke:none;stroke-width:8.465;stroke-linecap:butt;stroke-linejoin:miter;stroke-miterlimit:4;stroke-dasharray:none;stroke-dashoffset:0;stroke-opacity:1;paint-order:stroke fill markers"
       id="path7369-2" />
    <path
       d="m -361.35229,5.6129775 a 3.2250135,3.2250135 0 0 1 -3.22501,3.2250135 3.2250135,3.2250135 0 0 1 -3.22501,-3.2250135 3.2250135,3.2250135 0 0 1 3.22501,-3.2250135 3.2250135,3.2250135 0 0 1 3.22501,3.2250135"
       style="opacity:1;vector-effect:none;fill:#777777;fill-opacity:1;stroke:none;stroke-width:8.465;stroke-linecap:butt;stroke-linejoin:miter;stroke-miterlimit:4;stroke-dasharray:none;stroke-dashoffset:0;stroke-opacity:1;paint-order:stroke fill markers"
       id="path7369-0" />
    <path
       d="m -358.79989,82.224785 a 3.2250135,3.2250135 0 0 1 -3.22501,3.225013 3.2250135,3.2250135 0 0 1 -3.22502,-3.225013 3.2250135,3.2250135 0 0 1 3.22502,-3.225014 3.2250135,3.2250135 0 0 1 3.22501,3.225014"
       style="opacity:1;vector-effect:none;fill:#bbbbbb;fill-opacity:1;stroke:none;stroke-width:8.465;stroke-linecap:butt;stroke-linejoin:miter;stroke-miterlimit:4;stroke-dasharray:none;stroke-dashoffset:0;stroke-opacity:1;paint-order:stroke fill markers"
       id="path7369-45" />
  </g>
</svg>
