<?xml version="1.0" encoding="UTF-8" standalone="no"?>
<svg
   xmlns:dc="http://purl.org/dc/elements/1.1/"
   xmlns:cc="http://creativecommons.org/ns#"
   xmlns:rdf="http://www.w3.org/1999/02/22-rdf-syntax-ns#"
   xmlns:svg="http://www.w3.org/2000/svg"
   xmlns="http://www.w3.org/2000/svg"
   width="128"
   height="128"
   version="1.1"
   viewBox="0 0 128 128"
   id="svg4497">
  <metadata
     id="metadata4503">
    <rdf:RDF>
      <cc:Work
         rdf:about="">
        <dc:format>image/svg+xml</dc:format>
        <dc:type
           rdf:resource="http://purl.org/dc/dcmitype/StillImage" />
        <dc:title />
        <cc:license
           rdf:resource="http://creativecommons.org/licenses/by-sa/4.0/" />
        <dc:creator>
          <cc:Agent>
            <dc:title>Tobias Zwick</dc:title>
          </cc:Agent>
        </dc:creator>
      </cc:Work>
      <cc:License
         rdf:about="http://creativecommons.org/licenses/by-sa/4.0/">
        <cc:permits
           rdf:resource="http://creativecommons.org/ns#Reproduction" />
        <cc:permits
           rdf:resource="http://creativecommons.org/ns#Distribution" />
        <cc:requires
           rdf:resource="http://creativecommons.org/ns#Notice" />
        <cc:requires
           rdf:resource="http://creativecommons.org/ns#Attribution" />
        <cc:permits
           rdf:resource="http://creativecommons.org/ns#DerivativeWorks" />
        <cc:requires
           rdf:resource="http://creativecommons.org/ns#ShareAlike" />
      </cc:License>
    </rdf:RDF>
  </metadata>
  <defs
     id="defs4501">
    <clipPath
       id="clipPath16-1-0"
       clipPathUnits="userSpaceOnUse">
      <path
         id="path18-3-2"
         d="M 0,38 H 38 V 0 H 0 Z" />
    </clipPath>
    <clipPath
       id="clipPath16-1-4-4"
       clipPathUnits="userSpaceOnUse">
      <path
         id="path18-85-8-0"
         d="M 0,36 H 36 V 0 H 0 Z" />
    </clipPath>
    <clipPath
       id="clipPath32-8-7"
       clipPathUnits="userSpaceOnUse">
      <path
         id="path34-5-0-1"
         d="M 11.815,23.013 C 4.2,15.397 -1.265,2.86 0.502,1.093 v 0 c 1.768,-1.768 14.305,3.698 21.92,11.313 v 0 c 7.616,7.615 7.562,11.53 4.243,14.85 v 0 c -1.328,1.328 -2.752,2.133 -4.47,2.133 v 0 c -2.575,0 -5.812,-1.809 -10.38,-6.376" />
    </clipPath>
    <clipPath
       id="clipPath16-1-4-4-0"
       clipPathUnits="userSpaceOnUse">
      <path
         id="path18-85-8-0-7"
         d="M 0,36 H 36 V 0 H 0 Z" />
    </clipPath>
    <clipPath
       id="clipPath32-8-7-8"
       clipPathUnits="userSpaceOnUse">
      <path
         id="path34-5-0-1-0"
         d="M 11.815,23.013 C 4.2,15.397 -1.265,2.86 0.502,1.093 v 0 c 1.768,-1.768 14.305,3.698 21.92,11.313 v 0 c 7.616,7.615 7.562,11.53 4.243,14.85 v 0 c -1.328,1.328 -2.752,2.133 -4.47,2.133 v 0 c -2.575,0 -5.812,-1.809 -10.38,-6.376" />
    </clipPath>
    <clipPath
       id="clipPath44"
       clipPathUnits="userSpaceOnUse">
      <path
         id="path46-1"
         d="M 7,35 C 5.896,35 5,34.105 5,33 V 33 3 C 5,1.895 5.896,1 7,1 v 0 h 18 c 1.105,0 2,0.895 2,2 v 0 30 c 0,1.105 -0.895,2 -2,2 v 0 z" />
    </clipPath>
    <clipPath
       id="clipPath16-4-5"
       clipPathUnits="userSpaceOnUse">
      <path
         id="path18-5-7"
         d="M 0,38 H 38 V 0 H 0 Z" />
    </clipPath>
    <clipPath
       id="clipPath56-9"
       clipPathUnits="userSpaceOnUse">
      <path
         id="path58-7"
         d="M 0,38 H 38 V 0 H 0 Z" />
    </clipPath>
    <clipPath
       id="clipPath44-2"
       clipPathUnits="userSpaceOnUse">
      <path
         id="path46-1-8"
         d="M 7,35 C 5.896,35 5,34.105 5,33 V 33 3 C 5,1.895 5.896,1 7,1 v 0 h 18 c 1.105,0 2,0.895 2,2 v 0 30 c 0,1.105 -0.895,2 -2,2 v 0 z" />
    </clipPath>
    <clipPath
       id="clipPath16-1-0-8"
       clipPathUnits="userSpaceOnUse">
      <path
         id="path18-3-2-0"
         d="M 0,38 H 38 V 0 H 0 Z" />
    </clipPath>
    <clipPath
       id="clipPath16-1-0-9"
       clipPathUnits="userSpaceOnUse">
      <path
         id="path18-3-2-1"
         d="M 0,38 H 38 V 0 H 0 Z" />
    </clipPath>
  </defs>
  <g
     id="traffic_lights"
     transform="matrix(0.99983436,0,0,0.99983445,575.34092,0.01060248)">
    <g
       id="g8992-6-5-6"
       transform="rotate(30,-439.71318,-203.63612)">
      <path
         style="fill:#529add;fill-opacity:1;stroke-width:0.2"
         id="path4485-6-6-77-1"
         d="m -303.99992,63.999782 c 0,35.346 -28.654,63.999998 -64.00002,63.999998 -35.346,0 -64,-28.653998 -64,-63.999998 0,-35.346 28.654,-64 64,-64 35.34602,0 64.00002,28.654 64.00002,64" />
    </g>
    <path
       id="rect7817-3"
       d="m -532,20 v 8 h -16 c -1.05476,12.365021 6.01727,12.512952 16,20 v 8 h -16 c -1.05476,12.36502 6.01727,12.51295 16,20 v 8 h -16 c -1.05476,12.36502 6.01727,12.51295 16,20 v 12 h 40 v -12 c 9.98273,-7.48705 17.05476,-7.63498 16,-20 h -16 v -8 c 9.98273,-7.48705 17.05476,-7.63498 16,-20 h -16 v -8 c 9.98273,-7.487048 17.05476,-7.634979 16,-20 h -16 v -8 z"
       style="opacity:1;vector-effect:none;fill:#000000;fill-opacity:0.2;stroke:none;stroke-width:9.77454;stroke-linecap:butt;stroke-linejoin:miter;stroke-miterlimit:4;stroke-dasharray:none;stroke-dashoffset:0;stroke-opacity:1;paint-order:stroke fill markers" />
    <path
       d="m -532,16 h 40 v 96 h -40 z"
       style="opacity:1;vector-effect:none;fill:#888888;fill-opacity:1;stroke:none;stroke-width:9.77454;stroke-linecap:butt;stroke-linejoin:miter;stroke-miterlimit:4;stroke-dasharray:none;stroke-dashoffset:0;stroke-opacity:1;paint-order:stroke fill markers"
       id="rect7817" />
    <path
       d="m -499.88742,37.455276 a 11.99844,11.99844 0 0 1 -11.99844,11.99844 11.99844,11.99844 0 0 1 -11.99844,-11.99844 11.99844,11.99844 0 0 1 11.99844,-11.998439 11.99844,11.99844 0 0 1 11.99844,11.998439"
       style="opacity:1;vector-effect:none;fill:#ff6969;fill-opacity:1;stroke:#555555;stroke-width:3;stroke-linecap:butt;stroke-linejoin:miter;stroke-miterlimit:4;stroke-dasharray:none;stroke-dashoffset:0;stroke-opacity:1;paint-order:normal"
       id="path7819" />
    <path
       d="m -499.88373,65.483063 a 12,12 0 0 1 -12,12 12,12 0 0 1 -12,-12 12,12 0 0 1 12,-12 12,12 0 0 1 12,12"
       style="opacity:1;vector-effect:none;fill:#ffff69;fill-opacity:1;stroke:#555555;stroke-width:3;stroke-linecap:butt;stroke-linejoin:miter;stroke-miterlimit:4;stroke-dasharray:none;stroke-dashoffset:0;stroke-opacity:1;paint-order:normal"
       id="path7819-1" />
    <path
       d="m -499.90204,93.51432 a 12,12 0 0 1 -12,12 12,12 0 0 1 -12,-12 12,12 0 0 1 12,-12 12,12 0 0 1 12,12"
       style="opacity:1;vector-effect:none;fill:#69ff69;fill-opacity:1;stroke:#555555;stroke-width:3;stroke-linecap:butt;stroke-linejoin:miter;stroke-miterlimit:4;stroke-dasharray:none;stroke-dashoffset:0;stroke-opacity:1;paint-order:normal"
       id="path7819-1-1" />
    <path
       id="path7851"
       d="m -532,24 h -16 c -1.05476,12.365021 6.01727,12.512952 16,20 z"
       style="fill:#555555;fill-opacity:1;fill-rule:evenodd;stroke:none;stroke-width:1px;stroke-linecap:butt;stroke-linejoin:miter;stroke-opacity:1" />
    <path
       id="path7851-7"
       d="m -532,52 h -16 c -1.05476,12.365021 6.01727,12.512952 16,20 z"
       style="fill:#555555;fill-opacity:1;fill-rule:evenodd;stroke:none;stroke-width:1px;stroke-linecap:butt;stroke-linejoin:miter;stroke-opacity:1" />
    <path
       id="path7851-2"
       d="m -532,80 h -16 c -1.05476,12.365021 6.01727,12.512952 16,20 z"
       style="fill:#555555;fill-opacity:1;fill-rule:evenodd;stroke:none;stroke-width:1px;stroke-linecap:butt;stroke-linejoin:miter;stroke-opacity:1" />
    <path
       id="path7851-6"
       d="m -492,24 h 16 c 1.05476,12.365021 -6.01727,12.512952 -16,20 z"
       style="fill:#555555;fill-opacity:1;fill-rule:evenodd;stroke:none;stroke-width:1px;stroke-linecap:butt;stroke-linejoin:miter;stroke-opacity:1" />
    <path
       id="path7851-7-9"
       d="m -492,52 h 16 c 1.05476,12.365021 -6.01727,12.512952 -16,20 z"
       style="fill:#555555;fill-opacity:1;fill-rule:evenodd;stroke:none;stroke-width:1px;stroke-linecap:butt;stroke-linejoin:miter;stroke-opacity:1" />
    <path
       id="path7851-2-8"
       d="m -492,80 h 16 c 1.05476,12.365021 -6.01727,12.512952 -16,20 z"
       style="fill:#555555;fill-opacity:1;fill-rule:evenodd;stroke:none;stroke-width:1px;stroke-linecap:butt;stroke-linejoin:miter;stroke-opacity:1" />
    <path
       id="path7819-6-4"
       d="m -499.8952,93.479799 c 0,0 -5.37258,7.949591 -12,7.949591 -6.62742,0 -11.98895,-7.907292 -11.98895,-7.907292 0,6.627422 5.36153,11.988952 11.98895,11.988952 6.62742,0 12,-5.40383 12,-12.031251 z"
       style="opacity:1;vector-effect:none;fill:#ffffff;fill-opacity:0.376471;stroke:none;stroke-width:12.6975;stroke-linecap:butt;stroke-linejoin:miter;stroke-miterlimit:4;stroke-dasharray:none;stroke-dashoffset:0;stroke-opacity:1;paint-order:stroke fill markers" />
    <path
       d="m -518,112 h 12.0651 v 16 H -518 Z"
       style="opacity:1;vector-effect:none;fill:#555555;fill-opacity:1;stroke:none;stroke-width:8.51215;stroke-linecap:butt;stroke-linejoin:miter;stroke-miterlimit:4;stroke-dasharray:none;stroke-dashoffset:0;stroke-opacity:1;paint-order:stroke fill markers"
       id="rect7926" />
    <path
       id="path7819-6-4-1"
       d="m -499.90625,65.4375 c 0,0 -5.37258,7.94959 -12,7.94959 -6.62742,0 -11.98895,-7.907291 -11.98895,-7.907291 0,6.627417 5.36153,11.988951 11.98895,11.988951 6.62742,0 12,-5.403833 12,-12.03125 z"
       style="opacity:1;vector-effect:none;fill:#ffffff;fill-opacity:0.376471;stroke:none;stroke-width:12.6975;stroke-linecap:butt;stroke-linejoin:miter;stroke-miterlimit:4;stroke-dasharray:none;stroke-dashoffset:0;stroke-opacity:1;paint-order:stroke fill markers" />
    <path
       id="path7819-6-4-9"
       d="m -499.90625,37.4375 c 0,0 -5.37258,7.94959 -12,7.94959 -6.62742,0 -11.98895,-7.907291 -11.98895,-7.907291 0,6.627417 5.36153,11.988951 11.98895,11.988951 6.62742,0 12,-5.403833 12,-12.03125 z"
       style="opacity:1;vector-effect:none;fill:#ffffff;fill-opacity:0.376471;stroke:none;stroke-width:12.6975;stroke-linecap:butt;stroke-linejoin:miter;stroke-miterlimit:4;stroke-dasharray:none;stroke-dashoffset:0;stroke-opacity:1;paint-order:stroke fill markers" />
    <path
       d="m -484.88891,64.478622 a 27.66431,27.66431 0 0 1 -27.66431,27.664311 27.66431,27.66431 0 0 1 -27.66431,-27.664311 27.66431,27.66431 0 0 1 27.66431,-27.66431 27.66431,27.66431 0 0 1 27.66431,27.66431"
       style="opacity:1;vector-effect:none;fill:#ffff69;fill-opacity:0.266667;stroke:none;stroke-width:6.91608;stroke-linecap:butt;stroke-linejoin:miter;stroke-miterlimit:4;stroke-dasharray:none;stroke-dashoffset:0;stroke-opacity:1;paint-order:normal"
       id="path7819-1-5" />
  </g>
</svg>
