<?xml version="1.0" encoding="UTF-8"?>
<svg version="1.1" viewBox="0 0 128 128" xmlns="http://www.w3.org/2000/svg">
 <path d="m128 64c0 35.346-28.654 64-64 64-35.346 0-64-28.654-64-64 0-35.346 28.654-64 64-64 35.346 0 64 28.654 64 64" fill="#e9a76f" stroke-width=".2"/>
 <g transform="matrix(.89312 .016499 -.016499 .89312 653.37 146.93)" stroke-opacity=".2">
  <path d="m-642.52-40.159a25.921 25.921 0 0 1-26.2 10.386 25.921 25.921 0 0 1-20.192-19.662 25.921 25.921 0 0 1 9.687-26.466" fill="none" stroke="#000" stroke-linecap="round" stroke-opacity=".2" stroke-width="11.195" style="paint-order:normal"/>
  <path d="m-624.84-41.076-14.232-27.611-23.836-3.9293c3.3766-7.6049 5.3153-20.853 5.3153-28.853" fill="none" stroke="#000" stroke-linecap="round" stroke-linejoin="round" stroke-opacity=".2" stroke-width="13.434"/>
  <path d="m-691.38-84.289c4.1549-12.998 14.478-17.058 33.79-17.181" fill="none" stroke="#000" stroke-linecap="round" stroke-linejoin="round" stroke-opacity=".2" stroke-width="11.195"/>
  <path transform="rotate(-1.0583)" d="m-634.79-133.84a11.364 11.364 0 0 1-11.364 11.364 11.364 11.364 0 0 1-11.364-11.364 11.364 11.364 0 0 1 11.364-11.364 11.364 11.364 0 0 1 11.364 11.364" fill-opacity=".2" style="paint-order:normal"/>
 </g>
 <g transform="matrix(.89312 .016499 -.016499 .89312 653.37 143)">
  <path d="m-642.52-40.159a25.921 25.921 0 0 1-26.2 10.386 25.921 25.921 0 0 1-20.192-19.662 25.921 25.921 0 0 1 9.687-26.466" fill="none" stroke="#fff" stroke-linecap="round" stroke-width="11.195" style="paint-order:normal"/>
  <path d="m-624.84-41.076-14.232-27.611-23.836-3.9293c3.3766-7.6049 5.3153-20.853 5.3153-28.853" fill="none" stroke="#fff" stroke-linecap="round" stroke-linejoin="round" stroke-width="13.434"/>
  <path d="m-691.38-84.289c4.1549-12.998 14.478-17.058 33.79-17.181" fill="none" stroke="#fff" stroke-linecap="round" stroke-linejoin="round" stroke-width="11.195"/>
  <path transform="rotate(-1.0583)" d="m-634.79-133.84a11.364 11.364 0 0 1-11.364 11.364 11.364 11.364 0 0 1-11.364-11.364 11.364 11.364 0 0 1 11.364-11.364 11.364 11.364 0 0 1 11.364 11.364" fill="#fff" style="paint-order:normal"/>
 </g>
</svg>
