<?xml version="1.0" encoding="UTF-8"?>
<svg version="1.1" viewBox="0 0 128 128" xmlns="http://www.w3.org/2000/svg">
 <path d="m128 64c0 35.346-28.654 64-64 64s-64-28.654-64-64 28.654-64 64-64 64 28.654 64 64" fill="#e9a76f" stroke-width=".2"/>
 <g transform="translate(287.95 -427.97)" fill-opacity=".2">
  <path d="m-223.95 451.97c-23.205 0.18899-44.205 13.095-51.619 33.307a8.0008 8.0008 0 1 0 15.021 5.5098c4.7415-12.925 19.41-22.677 36.729-22.818 17.318-0.14105 32.236 9.3872 37.271 22.254a8.0008 8.0008 0 1 0 14.9-5.8301c-7.8529-20.066-29.097-32.611-52.303-32.422z" color="#000000" color-rendering="auto" dominant-baseline="auto" image-rendering="auto" shape-rendering="auto" solid-color="#000000" style="font-feature-settings:normal;font-variant-alternates:normal;font-variant-caps:normal;font-variant-ligatures:normal;font-variant-numeric:normal;font-variant-position:normal;isolation:auto;mix-blend-mode:normal;paint-order:stroke fill markers;shape-padding:0;text-decoration-color:#000000;text-decoration-line:none;text-decoration-style:solid;text-indent:0;text-orientation:mixed;text-transform:none;white-space:normal"/>
  <path d="m-223.44 483.88c-14.014 0.035-26.732 8.1954-31.588 20.865a6.0006 6.0006 0 1 0 11.205 4.2949c2.9427-7.6772 11.041-13.137 20.412-13.16 9.3708-0.0234 17.508 5.3979 20.496 13.062a6.0006 6.0006 0 1 0 11.18-4.3594c-4.9297-12.643-17.692-20.738-31.705-20.703z" color="#000000" color-rendering="auto" dominant-baseline="auto" image-rendering="auto" shape-rendering="auto" solid-color="#000000" style="font-feature-settings:normal;font-variant-alternates:normal;font-variant-caps:normal;font-variant-ligatures:normal;font-variant-numeric:normal;font-variant-position:normal;isolation:auto;mix-blend-mode:normal;paint-order:stroke fill markers;shape-padding:0;text-decoration-color:#000000;text-decoration-line:none;text-decoration-style:solid;text-indent:0;text-orientation:mixed;text-transform:none;white-space:normal"/>
  <path d="m-211.43 523.89a12 12 0 0 1-12 12 12 12 0 0 1-12-12 12 12 0 0 1 12-12 12 12 0 0 1 12 12" style="paint-order:stroke fill markers"/>
 </g>
 <g transform="translate(288.06 -432.03)" fill="#fff">
  <path d="m-223.95 451.97c-23.205 0.18899-44.205 13.095-51.619 33.307a8.0008 8.0008 0 1 0 15.021 5.5098c4.7415-12.925 19.41-22.677 36.729-22.818 17.318-0.14105 32.236 9.3872 37.271 22.254a8.0008 8.0008 0 1 0 14.9-5.8301c-7.8529-20.066-29.097-32.611-52.303-32.422z" color="#000000" color-rendering="auto" dominant-baseline="auto" image-rendering="auto" shape-rendering="auto" solid-color="#000000" style="font-feature-settings:normal;font-variant-alternates:normal;font-variant-caps:normal;font-variant-ligatures:normal;font-variant-numeric:normal;font-variant-position:normal;isolation:auto;mix-blend-mode:normal;paint-order:stroke fill markers;shape-padding:0;text-decoration-color:#000000;text-decoration-line:none;text-decoration-style:solid;text-indent:0;text-orientation:mixed;text-transform:none;white-space:normal"/>
  <path d="m-223.44 483.88c-14.014 0.035-26.732 8.1954-31.588 20.865a6.0006 6.0006 0 1 0 11.205 4.2949c2.9427-7.6772 11.041-13.137 20.412-13.16 9.3708-0.0234 17.508 5.3979 20.496 13.062a6.0006 6.0006 0 1 0 11.18-4.3594c-4.9297-12.643-17.692-20.738-31.705-20.703z" color="#000000" color-rendering="auto" dominant-baseline="auto" image-rendering="auto" shape-rendering="auto" solid-color="#000000" style="font-feature-settings:normal;font-variant-alternates:normal;font-variant-caps:normal;font-variant-ligatures:normal;font-variant-numeric:normal;font-variant-position:normal;isolation:auto;mix-blend-mode:normal;paint-order:stroke fill markers;shape-padding:0;text-decoration-color:#000000;text-decoration-line:none;text-decoration-style:solid;text-indent:0;text-orientation:mixed;text-transform:none;white-space:normal"/>
  <path d="m-211.43 523.89a12 12 0 0 1-12 12 12 12 0 0 1-12-12 12 12 0 0 1 12-12 12 12 0 0 1 12 12" style="paint-order:stroke fill markers"/>
 </g>
</svg>
