<?xml version="1.0" encoding="UTF-8"?>
<svg width="256" height="256" enable-background="new 0 -0.321 144 120" version="1.1" viewBox="0 -.321 256 256" xml:space="preserve" xmlns="http://www.w3.org/2000/svg">
<path d="m201.5 3.679c13.493 0 24.5 9.2843 24.5 20.667v206.67c0 11.382-11.006 20.664-24.5 20.664h-147c-13.493 0-24.5-9.2819-24.5-20.664v-206.67c0-11.24 11.173-20.667 24.5-20.667z" fill="#fff" />
<path d="m199.81 11.703c9.9583 0.03278 18.096 6.8314 18.161 15.094v201.93c-0.065 8.2668-8.2021 14.888-18.161 14.93h-143.63c-9.9336-0.0423-18.121-6.6633-18.155-14.93v-201.93c0.03387-8.2622 8.2218-15.06 18.155-15.094z" fill="none" stroke="#c1121c" stroke-width="8"/>
<path d="m134.76 43.608c-1.8481 4.3129-2.5976 8.9634-2.5976 15.947 0 6.981 0.6832 11.366 2.5312 15.814 2.2594 5.4748 5.4055 7.8123 10.678 7.8123 5.1328 0 8.3485-2.3419 10.607-7.7498 1.8481-4.4492 2.5352-8.829 2.5352-15.877 0-6.9837-0.68699-11.297-2.5352-15.746-2.3261-5.5442-5.4055-7.8006-10.573-7.7993s-8.3176 2.2604-10.645 7.5989zm-37.234-6.8457v45.667h6.4315v-30.606l13.691 30.606h4.8593v-45.667h-6.4355v27.31l-12.115-27.31zm53.39 11.293c1.0256 3.3541 1.3691 6.3645 1.3691 11.5 0 5.1997-0.34367 8.0073-1.3691 11.637-1.095 3.8323-2.8744 5.6132-5.5448 5.6132-2.8041 0-4.5168-1.7818-5.6171-5.6835-1.0229-3.5598-1.3633-6.5014-1.3633-11.498 0-5.1328 0.34036-8.1449 1.3633-11.705 1.1003-3.8323 2.8796-5.5448 5.5836-5.545 2.704-2e-4 4.4139 1.7129 5.5782 5.6813zm35.54 52.514c-1.6106 3.2232-2.4582 9.488-2.543 18.795 0.0848 8.671 0.84802 14.777 2.2891 18.318 1.441 3.4956 3.9417 5.244 7.5018 5.244 2.2887 0 4.2792-0.9316 5.9745-2.793 1.7377-1.9068 2.6074-4.6077 2.6074-8.1033v-12.121h-8.8377v6.0605h3.5605v6.0605c-0.2543 2.9508-1.3129 4.4276-3.1776 4.4276-1.2291 0.0908-2.2474-0.61316-3.0526-2.1113-0.80529-1.4981-1.3355-6.4698-1.5898-14.914 0.25429-9.0342 0.74235-14.301 1.4629-15.799 0.76289-1.4982 1.717-2.2251 2.8612-2.1797 2.2463 0.0454 3.4112 1.5662 3.496 4.5624h5.2772c0-3.2686-0.91187-5.7879-2.7343-7.5585-1.7801-1.816-3.7284-2.7226-6.3986-2.7225s-5.0865 1.6108-6.697 4.8341zm-134.45-4.0859 4.9589 45.626h4.6405l3.8788-25.604 4.0038 25.604h4.6405l4.8964-45.626h-5.4667l-2.2891 21.111-3.4335-21.111h-4.6405l-3.4335 21.111-2.2246-21.111zm38.452 0-8.8377 45.626h5.5311l2.416-12.189h6.994l2.416 12.189h5.6581l-8.8377-45.626zm20.045 0v45.626h5.3397v-45.626zm11.928 0v5.9257h5.2753v39.7h5.4042v-39.7h5.5937v-5.9257zm22.963 0v45.626h5.3417v-45.626zm13.453 0v45.626h5.3417v-27.034l8.0721 27.034h4.9589v-45.626h-5.4022v24.855l-7.6288-24.855zm-65.718 11.85 2.3516 14.777h-4.6405z" fill="#c1121c"/>
<path d="m102.57 151.21-7.4378 30.449h4.2893l2.0539-8.3632h6.339l2.058 8.3632h4.2852l-7.4378-30.449zm16.748 0v30.449h4.2936v-20.407l9.124 20.407h3.2414v-30.449h-4.2936v18.209l-8.0716-18.209zm21.815 0 7.3448 16.654v13.794h4.2936v-13.794l7.3448-16.654h-4.564l-4.9275 11.043-4.9275-11.043zm-36.509 9.0352 2.1468 8.807h-4.2893zm-16.304 30.981v4.0611h5.5233v26.387h4.2852v-26.387h5.3882v-4.0611zm22.834 0v30.444h4.2852v-30.444zm13.198 0v30.444h4.2893v-17.119l5.5699 17.119 5.5656-17.119v17.119h4.2936v-30.444h-4.2936l-5.5656 17.115-5.5699-17.115zm28.627 0v30.449h15.197v-4.2556h-10.907v-10.036h6.1615v-4.2429h-6.1615v-7.6702h9.7198v-4.2429z" fill="#c1121c"/>
</svg>
