<?xml version="1.0" encoding="UTF-8"?>
<svg width="256" height="256" enable-background="new 0 -0.321 144 120" version="1.1" viewBox="0 -.321 256 256" xml:space="preserve" xmlns="http://www.w3.org/2000/svg">
<path d="m201.5 3.679c13.493 0 24.5 9.2843 24.5 20.667v206.67c0 11.382-11.006 20.664-24.5 20.664h-147c-13.493 0-24.5-9.2819-24.5-20.664v-206.67c0-11.24 11.173-20.667 24.5-20.667z" fill="#fff"/>
<path d="m199.81 11.703c9.9583 0.03278 18.096 6.8314 18.161 15.094v201.93c-0.065 8.2668-8.2021 14.888-18.161 14.93h-143.63c-9.9336-0.0423-18.121-6.6633-18.155-14.93v-201.93c0.03387-8.2622 8.2218-15.06 18.155-15.094z" fill="none" stroke="#c1121c" stroke-width="8"/>
<path d="m134.76 43.608c-1.8481 4.313-2.5976 8.965-2.5976 15.949 0 6.9811 0.68311 11.365 2.5312 15.814 2.2594 5.4749 5.4057 7.8123 10.678 7.8123 5.1329 0 8.348-2.3418 10.607-7.7498 1.8481-4.4493 2.5352-8.8289 2.5352-15.877 0-6.9838-0.68699-11.297-2.5352-15.746-2.3261-5.5443-5.405-7.8006-10.573-7.8003s-8.3174 2.2593-10.645 7.5979zm-37.234-6.8456v45.669h6.4315v-30.608l13.691 30.608h4.8593v-45.669h-6.4354v27.311l-12.115-27.311zm53.39 11.295c1.0256 3.3542 1.3691 6.3644 1.3691 11.5 0 5.1998-0.34361 8.0075-1.3691 11.637-1.095 3.8324-2.8742 5.6132-5.5448 5.6132-2.8041 0-4.5168-1.7817-5.6171-5.6835-1.0229-3.5599-1.3633-6.5033-1.3633-11.5 0-5.1329 0.34036-8.1448 1.3633-11.705 1.1003-3.8324 2.8796-5.5448 5.5836-5.545 2.704-2e-4 4.4139 1.7148 5.5782 5.6833zm-95.881 50.607c-1.2462 2.1847-1.8691 4.6649-1.8691 7.4413 0 1.411 0.23048 2.9813 0.69335 4.7108 0.49846 1.6841 1.2472 3.3229 2.2441 4.9159 1.353 2.1392 2.8827 4.8478 4.5917 8.1248 1.7446 3.277 2.581 5.9171 2.5098 7.9198-0.03561 3.1405-0.99573 4.8022-2.8827 4.9843-2.1007-0.13655-3.1865-2.2304-3.2577-6.2811h-4.7538c0.10682 3.5956 0.81931 6.5308 2.1367 8.8064 1.353 2.2758 3.3113 3.414 5.8749 3.414 2.7059 0 4.6643-1.0698 5.8749-3.2089 1.2462-2.1392 1.8691-4.7107 1.8691-7.7146 0-2.7308-0.62296-5.6223-1.8691-8.6717-1.2462-3.0949-3.1512-6.5536-5.7147-10.377-0.7833-1.1379-1.3891-2.2762-1.8164-3.414-0.42725-1.1379-0.62349-2.2305-0.58788-3.2772 0-3.0949 0.81918-4.6653 2.457-4.7108 1.6734-0.0455 2.563 1.5477 2.6698 4.7792h4.6464c-0.03561-3.2315-0.79949-5.8259-2.2949-7.783-1.4954-1.9572-3.2233-2.9354-5.3418-2.9354-2.1185 0-3.8979 1.0926-5.1795 3.2772zm133.99 1.5704c-1.353 3.2315-2.0655 9.5129-2.1367 18.844 0.0712 8.6932 0.71324 14.815 1.9238 18.365 1.2106 3.5046 3.3099 5.2577 6.3007 5.2577 1.9227 0 3.5972-0.93463 5.0214-2.8007 1.4598-1.9116 2.1894-4.6183 2.1894-8.1228v-12.152h-7.4236v6.0761h2.9901v6.0761c-0.21363 2.9584-1.1033 4.4374-2.6698 4.4374-1.0325 0.091-1.886-0.61517-2.5624-2.1172-0.67648-1.502-1.1223-6.4852-1.3359-14.951 0.21362-9.0574 0.62323-14.338 1.2285-15.84 0.64088-1.502 1.441-2.229 2.4023-2.1836 1.8871 0.0455 2.8662 1.5702 2.9374 4.5741h4.4335c0-3.277-0.76584-5.8029-2.2968-7.578-1.4954-1.8206-3.1337-2.7323-5.3768-2.7326-2.2431-2.5e-4 -4.272 1.6158-5.6249 4.8474zm-117.52-4.0957v5.9394h4.4315v39.802h4.5409v-39.802h4.6991v-5.9394zm24.045 0-7.4237 45.741h4.6464l2.0293-12.221h5.8749l2.0293 12.221h4.7538l-7.4236-45.741zm16.145 0v45.741h4.4862v-27.103l6.7831 27.103h4.1659v-45.741h-4.5409v24.92l-6.4081-24.92zm21.059 0v45.741h7.369c2.7771 0 4.808-1.9339 6.0897-5.8026 1.3174-3.8687 1.9746-9.5581 1.9746-17.068 0-8.3746-0.65721-14.27-1.9746-17.684-1.2818-3.4591-3.3125-5.1874-6.0897-5.1874zm21.777 0v45.741h4.4862v-45.741zm11.301 0v45.741h4.4862v-27.103l6.7831 27.103h4.1659v-45.741h-4.539v24.92l-6.4101-24.92zm-28.591 5.9394h2.2969c1.2106-0.0455 2.1898 0.86432 2.9374 2.7304 0.7477 1.8206 1.1573 6.5545 1.2285 14.201-0.0356 6.6907-0.4452 11.196-1.2285 13.518-0.78329 2.3213-1.7625 3.4595-2.9374 3.414h-2.2969zm-39.446 5.9393 1.9766 14.816h-3.8983z" fill="#c1121c"/>
<path d="m102.57 151.21-7.4378 30.449h4.2893l2.0539-8.3632h6.339l2.058 8.3632h4.2852l-7.4378-30.449zm16.748 0v30.449h4.2936v-20.407l9.124 20.407h3.2414v-30.449h-4.2936v18.209l-8.0716-18.209zm21.815 0 7.3448 16.654v13.794h4.2936v-13.794l7.3448-16.654h-4.564l-4.9275 11.043-4.9275-11.043zm-36.509 9.0352 2.1468 8.807h-4.2893zm-16.304 30.981v4.0611h5.5233v26.387h4.2852v-26.387h5.3882v-4.0611zm22.834 0v30.444h4.2852v-30.444zm13.198 0v30.444h4.2893v-17.119l5.5699 17.119 5.5656-17.119v17.119h4.2936v-30.444h-4.2936l-5.5656 17.115-5.5699-17.115zm28.627 0v30.449h15.197v-4.2556h-10.907v-10.036h6.1615v-4.2429h-6.1615v-7.6702h9.7198v-4.2429z" fill="#c1121c" />
</svg>
