<?xml version="1.0" encoding="UTF-8" standalone="no"?>
<svg xmlns:svg="http://www.w3.org/2000/svg" xmlns="http://www.w3.org/2000/svg"
     version="1.1"
     width="400px"
     height="400px"
     viewBox="0 0 178 178"
     id="svg2">
    <defs />
    <rect
         width="178"
         height="178"
         x="0"
         y="0"
         style="fill:#ffffff" />
    <rect
         width="168"
         height="168"
         x="5"
         y="5"
         style="fill:#008855;fill-rule:evenodd" />
	<g style="fill:#ffffff;fill-rule:evenodd">
    <path d="M 44.9,117.94 44.9,88.84 C 44.9,86.32 47.1,84.64 49.4,84.64 H 76.7 C 76.6,88.08 79,90.5 80.9,93.04 H 74 C 69,93.04 66.5,96.15 66.5,101.74 V 117.94 H 56.9 V 96.04 H 52.7 V 117.94 z M 70.7,127.84 70.7,101.44 C 70.7,98.41 72.7,96.94 75.5,96.94 H 102.5 C 105.8,96.94 107.3,99.73 107.3,101.14 V 127.84 H 101.6 V 106.54 H 97.4 V 127.84 H 80.9 V 106.54 H 76.4 V 127.84 z M 133.1,117.94 133.1,90.04 C 133.1,86.99 131.5,84.64 128.6,84.64 H 101.3 C 101.3,87.95 99,90.54 97.1,93.04 H 103.7 C 108.4,93.04 111.5,97.12 111.5,101.74 V 117.94 H 121.1 V 96.04 H 125.3 V 117.94 z" />
    <path d="M 97.86,58.49 A 8.855,8.855 0 0 1 80.15,58.49 8.855,8.855 0 1 1 97.86,58.49 z" />
    <path d="M 122.54,71.069 A 8.8551,8.8551 0 0 1 104.83,71.069 8.8551,8.8551 0 1 1 122.54,71.069 z" />
    <path d="M 72.283,70.693 A 8.8551,8.8551 0 0 1 54.573,70.693 8.8551,8.8551 0 1 1 72.283,70.693 z" />
    <path d="M 97.702,83.413 A 8.8551,8.8551 0 0 1 79.992,83.413 8.8551,8.8551 0 1 1 97.702,83.413 z" />
    <path d="M 14.761,8.9 8.9,14.496 35.275,40.999 H 16.714 L 24.53,48.95 H 48.95 V 25.097 L 41.136,17.146 V 35.404 L 14.761,8.9" />
    <path d="M 163.24,8.902 169.1,14.492 142.72,40.999 H 161.28 L 153.47,48.95 H 129.05 V 25.092 L 136.86,17.142 V 35.402 L 163.24,8.902" />
    <path d="M 14.761,169.1 8.9,163.5 35.275,137 H 16.714 L 24.53,129.05 H 48.95 V 152.9 L 41.136,160.85 V 142.59 L 14.761,169.1" />
    <path d="M 163.24,169.1 169.1,163.51 142.72,137 H 161.28 L 153.47,129.05 H 129.05 V 152.91 L 136.86,160.86 V 142.6 L 163.24,169.1" />
	</g>
</svg>
