<?xml version="1.0" encoding="UTF-8" standalone="no"?>
<svg
   xmlns:dc="http://purl.org/dc/elements/1.1/"
   xmlns:cc="http://creativecommons.org/ns#"
   xmlns:rdf="http://www.w3.org/1999/02/22-rdf-syntax-ns#"
   xmlns:svg="http://www.w3.org/2000/svg"
   xmlns="http://www.w3.org/2000/svg"
   xmlns:sodipodi="http://sodipodi.sourceforge.net/DTD/sodipodi-0.dtd"
   xmlns:inkscape="http://www.inkscape.org/namespaces/inkscape"
   width="96"
   height="96"
   viewBox="0 0 96 96"
   version="1.1"
   id="svg916"
   inkscape:version="1.0 (4035a4fb49, 2020-05-01)"
   sodipodi:docname="batteries.svg">
  <defs
     id="defs910">
    <clipPath
       id="clipPath44"
       clipPathUnits="userSpaceOnUse">
      <path
         inkscape:connector-curvature="0"
         id="path46-65"
         d="M 0,38 H 38 V 0 H 0 Z" />
    </clipPath>
    <clipPath
       id="clipPath16-2"
       clipPathUnits="userSpaceOnUse">
      <path
         inkscape:connector-curvature="0"
         id="path18-53"
         d="M 0,38 H 38 V 0 H 0 Z" />
    </clipPath>
    <clipPath
       id="clipPath28-4"
       clipPathUnits="userSpaceOnUse">
      <path
         inkscape:connector-curvature="0"
         id="path30-9"
         d="M 1.193,5 C 1.193,3 3,1 5,1 v 0 h 28 c 2,0 3.731,2 3.731,4 v 0 c 0,4.355 -4.634,11 -17.731,11 v 0 C 5.508,16 1.193,9.541 1.193,5" />
    </clipPath>
    <clipPath
       clipPathUnits="userSpaceOnUse"
       id="clipPath16-4">
      <path
         d="M 0,36 H 36 V 0 H 0 Z"
         id="path18-8"
         inkscape:connector-curvature="0" />
    </clipPath>
    <clipPath
       id="clipPath16-90"
       clipPathUnits="userSpaceOnUse">
      <path
         inkscape:connector-curvature="0"
         id="path18-2"
         d="M 0,38 H 38 V 0 H 0 Z" />
    </clipPath>
    <clipPath
       id="clipPath16-1"
       clipPathUnits="userSpaceOnUse">
      <path
         inkscape:connector-curvature="0"
         id="path18-5"
         d="M 0,38 H 38 V 0 H 0 Z" />
    </clipPath>
  </defs>
  <sodipodi:namedview
     id="base"
     pagecolor="#ffffff"
     bordercolor="#666666"
     borderopacity="1.0"
     inkscape:pageopacity="0.0"
     inkscape:pageshadow="2"
     inkscape:zoom="3.959798"
     inkscape:cx="74.115273"
     inkscape:cy="59.380908"
     inkscape:document-units="px"
     inkscape:current-layer="layer1"
     inkscape:document-rotation="0"
     showgrid="true"
     units="px"
     inkscape:window-width="1127"
     inkscape:window-height="880"
     inkscape:window-x="655"
     inkscape:window-y="387"
     inkscape:window-maximized="0">
    <inkscape:grid
       type="xygrid"
       id="grid1479"
       empspacing="6"
       spacingx="4"
       spacingy="4" />
  </sodipodi:namedview>
  <metadata
     id="metadata913">
    <rdf:RDF>
      <cc:Work
         rdf:about="">
        <dc:format>image/svg+xml</dc:format>
        <dc:type
           rdf:resource="http://purl.org/dc/dcmitype/StillImage" />
        <dc:title></dc:title>
      </cc:Work>
    </rdf:RDF>
  </metadata>
  <g
     inkscape:label="Layer 1"
     inkscape:groupmode="layer"
     id="layer1">
    <path
       sodipodi:nodetypes="cccccc"
       inkscape:connector-curvature="0"
       id="rect4768"
       d="m 13.61404,31.1049 33.74192,58.44275 c 2.6742,4.6318 14.61206,3.9153 23.87574,-1.4331 9.26367,-5.3484 15.85316,-15.3286 13.17896,-19.96047 L 50.66874,9.71136 Z"
       style="fill:#494949;fill-opacity:1;stroke-width:0.778647;paint-order:fill markers stroke" />
    <path
       sodipodi:nodetypes="cccccc"
       inkscape:connector-curvature="0"
       id="rect4768-1"
       d="m 13.61404,31.1049 11.91397,20.63561 c 2.6742,4.63184 14.61206,3.91529 23.87574,-1.4331 9.26367,-5.34838 15.85316,-15.3286 13.17896,-19.96044 L 50.66874,9.71136 Z"
       style="fill:#6bb019;fill-opacity:1;stroke-width:0.778647;paint-order:fill markers stroke" />
    <ellipse
       style="fill:#90e925;fill-opacity:1;stroke-width:0.9589;paint-order:fill markers stroke"
       id="path4804-7"
       cx="17.631203"
       cy="33.742355"
       rx="21.393539"
       ry="10.694467"
       transform="rotate(-30)" />
    <ellipse
       style="fill:#8a8a8a;fill-opacity:1;stroke-width:0.970444;paint-order:fill markers stroke"
       id="path4804-7-4"
       cx="17.631203"
       cy="33.744675"
       rx="18.719347"
       ry="8.0225773"
       transform="rotate(-30)" />
    <g
       transform="matrix(0.38598646,-0.22284938,0.22284938,0.38598646,-129.20006,108.57465)"
       id="g6151">
      <path
         style="fill:#686868;fill-opacity:1;stroke-width:0.873513;paint-order:fill markers stroke"
         d="M 392.40645,-4.3157042 V 7.6842987 c 0,6.0000003 8.00002,12.0000003 20.00002,12.0000003 12,0 19.99998,-6 19.99998,-12.0000003 V -4.3157042 Z"
         id="rect4768-3"
         inkscape:connector-curvature="0"
         sodipodi:nodetypes="cccccc" />
      <ellipse
         ry="10"
         rx="20"
         cy="-2.3208685"
         cx="412.40646"
         id="path4804-7-0"
         style="fill:#c4c4c4;fill-opacity:1;stroke-width:0.896535;paint-order:fill markers stroke" />
    </g>
    <path
       inkscape:connector-curvature="0"
       id="rect6183"
       d="m 38.12853,34.70032 2.00565,3.47388 -3.47389,2.00565 2.00565,3.47389 3.47389,-2.00565 2.00564,3.47388 3.47389,-2.00565 -2.00564,-3.47388 3.47387,-2.00564 -2.00565,-3.47389 -3.47387,2.00564 -2.00565,-3.47388 z"
       style="fill:#202020;fill-opacity:1;stroke:none;stroke-width:0.578981;paint-order:fill markers stroke" />
    <path
       sodipodi:nodetypes="cccccccc"
       inkscape:connector-curvature="0"
       id="path5480"
       d="m 51.2758,62.03477 2.41522,11.80268 3.64788,-3.2059 3.58866,10.0254 4.75291,-20.34018 -7.29575,6.41171 0.18683,-11.10542 z"
       style="fill:#ffcd05;fill-opacity:1;stroke:none;stroke-width:0.952416;stroke-linecap:butt;stroke-linejoin:round;stroke-miterlimit:4;stroke-dasharray:none;stroke-opacity:1;paint-order:markers fill stroke" />
    <path
       sodipodi:nodetypes="cccc"
       inkscape:connector-curvature="0"
       id="path8209"
       d="m 19.36932,36.79007 29.34492,52.14908 c 4.41649,1.5533 9.41184,1.6605 12.55115,0.7071 C 44.05688,55.47187 40.52633,64.67902 19.36932,36.79007 Z"
       style="fill:#000000;fill-opacity:0.151515;stroke:none;stroke-width:1px;stroke-linecap:butt;stroke-linejoin:miter;stroke-opacity:1" />
    <path
       style="fill:#ffffff;fill-opacity:0.383838;stroke:none;stroke-width:1px;stroke-linecap:butt;stroke-linejoin:miter;stroke-opacity:1"
       d="M 52.60334,17.25624 82.10207,68.21037 C 72.67693,56.91325 51.59449,27.65249 46.20276,26.5004 c 3.82566,-3.84995 6.23504,-6.72516 6.40058,-9.24416 z"
       id="path8256"
       inkscape:connector-curvature="0"
       sodipodi:nodetypes="cccc" />
  </g>
</svg>
