<?xml version="1.0" encoding="UTF-8" standalone="no"?>
<svg
   xmlns:dc="http://purl.org/dc/elements/1.1/"
   xmlns:cc="http://creativecommons.org/ns#"
   xmlns:rdf="http://www.w3.org/1999/02/22-rdf-syntax-ns#"
   xmlns:svg="http://www.w3.org/2000/svg"
   xmlns="http://www.w3.org/2000/svg"
   xmlns:sodipodi="http://sodipodi.sourceforge.net/DTD/sodipodi-0.dtd"
   xmlns:inkscape="http://www.inkscape.org/namespaces/inkscape"
   width="96"
   height="96"
   viewBox="0 0 96 96"
   version="1.1"
   id="svg916"
   inkscape:version="1.0 (4035a4fb49, 2020-05-01)"
   sodipodi:docname="clothes.svg">
  <defs
     id="defs910">
    <clipPath
       id="clipPath44"
       clipPathUnits="userSpaceOnUse">
      <path
         inkscape:connector-curvature="0"
         id="path46-65"
         d="M 0,38 H 38 V 0 H 0 Z" />
    </clipPath>
    <clipPath
       id="clipPath16-2"
       clipPathUnits="userSpaceOnUse">
      <path
         inkscape:connector-curvature="0"
         id="path18-53"
         d="M 0,38 H 38 V 0 H 0 Z" />
    </clipPath>
    <clipPath
       id="clipPath28-4"
       clipPathUnits="userSpaceOnUse">
      <path
         inkscape:connector-curvature="0"
         id="path30-9"
         d="M 1.193,5 C 1.193,3 3,1 5,1 v 0 h 28 c 2,0 3.731,2 3.731,4 v 0 c 0,4.355 -4.634,11 -17.731,11 v 0 C 5.508,16 1.193,9.541 1.193,5" />
    </clipPath>
    <clipPath
       clipPathUnits="userSpaceOnUse"
       id="clipPath16-4">
      <path
         d="M 0,36 H 36 V 0 H 0 Z"
         id="path18-8"
         inkscape:connector-curvature="0" />
    </clipPath>
    <clipPath
       id="clipPath16-90"
       clipPathUnits="userSpaceOnUse">
      <path
         inkscape:connector-curvature="0"
         id="path18-2"
         d="M 0,38 H 38 V 0 H 0 Z" />
    </clipPath>
    <clipPath
       id="clipPath16-1"
       clipPathUnits="userSpaceOnUse">
      <path
         inkscape:connector-curvature="0"
         id="path18-5"
         d="M 0,38 H 38 V 0 H 0 Z" />
    </clipPath>
  </defs>
  <sodipodi:namedview
     id="base"
     pagecolor="#ffffff"
     bordercolor="#666666"
     borderopacity="1.0"
     inkscape:pageopacity="0.0"
     inkscape:pageshadow="2"
     inkscape:zoom="3.959798"
     inkscape:cx="48.615181"
     inkscape:cy="59.380908"
     inkscape:document-units="px"
     inkscape:current-layer="layer1"
     inkscape:document-rotation="0"
     showgrid="true"
     units="px"
     inkscape:window-width="1127"
     inkscape:window-height="880"
     inkscape:window-x="655"
     inkscape:window-y="387"
     inkscape:window-maximized="0">
    <inkscape:grid
       type="xygrid"
       id="grid1479"
       empspacing="6"
       spacingx="4"
       spacingy="4" />
  </sodipodi:namedview>
  <metadata
     id="metadata913">
    <rdf:RDF>
      <cc:Work
         rdf:about="">
        <dc:format>image/svg+xml</dc:format>
        <dc:type
           rdf:resource="http://purl.org/dc/dcmitype/StillImage" />
        <dc:title></dc:title>
      </cc:Work>
    </rdf:RDF>
  </metadata>
  <g
     inkscape:label="Layer 1"
     inkscape:groupmode="layer"
     id="layer1">
    <g
       id="g4663"
       transform="matrix(0.36106176,0.13733483,-0.13733483,0.36106176,-110.89986,220.51104)">
      <path
         id="path4583"
         d="m 313.80468,-619.98477 v -41.41234 H 218.5563 v 41.41234 c -19.22715,96.13576 -8.57826,146.12639 -8.57826,146.12639 l 47.62418,-15.38174 c -13.60691,-63.3017 8.57827,-105.60145 8.57827,-105.60145 h 5.02864 c 0,0 17.15654,42.29975 3.54963,105.60145 l 47.62419,15.38174 c 0,0 10.64888,-49.99063 -8.57827,-146.12639 z"
         inkscape:connector-curvature="0"
         style="fill:#428bc1;stroke-width:2.95802" />
      <g
         id="g4625"
         style="fill:#347aa5"
         transform="matrix(2.958024,0,0,2.958024,171.52372,-661.39711)">
        <path
           id="path4605"
           d="M 35.2,53.9 52,60 l -0.7,4 -17,-5.2 z"
           inkscape:connector-curvature="0" />
        <path
           id="path4623"
           d="M 28.8,53.9 12,60 l 0.7,4 17,-5.2 z"
           inkscape:connector-curvature="0" />
      </g>
      <ellipse
         id="ellipse4627"
         ry="3.5496287"
         rx="3.8454309"
         cy="-653.7063"
         cx="271.20911"
         style="fill:#ffce31;stroke-width:2.95802" />
    </g>
    <g
       id="g4675"
       transform="matrix(10.234639,-4.0980594,4.0980594,10.234639,-1224.8038,-2518.8641)">
      <path
         sodipodi:nodetypes="cccsccccccscccc"
         id="path4558"
         d="m 22.427335,256.20561 c 0,0 -0.497156,-0.97802 -0.627558,-1.05137 -0.130402,-0.0733 -0.855762,-0.057 -1.124716,-0.163 0,0 -0.334154,0.39121 -0.831311,0.39121 -0.497157,0 -0.831312,-0.39121 -0.831312,-0.39121 -0.277103,0.10595 -0.994313,0.0897 -1.124715,0.163 -0.130402,0.0734 -0.635709,1.05137 -0.635709,1.05137 0.277104,0.62756 0.929113,0.76611 0.929113,0.76611 l 0.260804,-0.40751 c 0.26018,0.8027 0.0044,2.03178 -0.122252,3.1541 0.627559,0.36675 1.083965,0.3912 1.524071,0.3912 0.440106,0 0.888362,-0.0245 1.515921,-0.38305 l -0.122252,-3.1541 0.260804,0.40751 c 0,-0.008 0.660159,-0.13855 0.929112,-0.77426"
         inkscape:connector-curvature="0"
         style="fill:#e96f54;fill-opacity:1;stroke-width:0.0815011" />
      <g
         transform="matrix(0.08150112,0,0,0.08150112,17.235714,254.89344)"
         id="g4566"
         style="fill:#22648c">
        <path
           style="fill:#22648c;fill-opacity:1"
           id="path4560"
           d="M 32.2,7.2 C 30.6,7.2 29.1,6.9 27.5,6.3 26.3,5.8 25,5.2 23.8,4.4 21.8,3.1 20.5,1.7 20.5,1.7 c 0.335693,-0.2636897 0.666667,-0.5333333 1,-0.8 l 1.895008,-1.87507513 c 0,0 0.776994,1.44530455 2.576994,2.64530453 1.6,1 3.492971,2.1318669 6.292971,2.1318669 3.2,0 5.369831,-1.2482419 8.269831,-4.44824186 L 43.3,1.5 C 41.5,3.5 39.7,5 37.7,5.9 36,6.7 34.2,7.2 32.2,7.2"
           inkscape:connector-curvature="0"
           sodipodi:nodetypes="cccccccscccc" />
        <path
           style="fill:#22648c;fill-opacity:1"
           id="path4562"
           d="m 4.7592727,16.840637 c -1.4,-1.8 -1.8994242,-4.039029 -2.2994242,-5.039029 L 0,16.5 c 0.5,1 1.2,2.1 2.1,3.2 1.4,1.8 3,3.2 4.7,4.2 1.5,0.9 3.1,1.5 4.9,1.7 l 2.030031,-3.312747 c -3.5,-0.3 -6.5707583,-2.346616 -8.9707583,-5.446616 z"
           inkscape:connector-curvature="0"
           sodipodi:nodetypes="cccccccc" />
        <path
           style="fill:#22648c;fill-opacity:1"
           id="path4564"
           d="m 59.078285,17.541156 c 1.4,-1.8 2.373321,-4.312391 2.773321,-5.312391 L 64,16.5 c -0.5,1 -1.2,2.1 -2.1,3.2 -1.4,1.8 -3,3.2 -4.7,4.2 -1.5,0.9 -3.2,1.5 -4.9,1.7 l -2.322362,-3.780934 c 3.5,-0.3 6.700647,-1.17791 9.100647,-4.27791 z"
           inkscape:connector-curvature="0"
           sodipodi:nodetypes="cccccccc" />
      </g>
    </g>
    <path
       inkscape:connector-curvature="0"
       d="m 74.586617,17.66248 -8.289492,21.657769 c -0.300582,1.061208 -0.504058,2.10476 0.875652,2.86046 l 1.751303,0.642145 6.88845,-18.038412 M 87.604638,39.49538 c -6.263514,-2.562328 -5.84329,-6.959408 -4.261504,-11.675348 l 2.276684,-5.954428 M 53.239631,26.43897 c 4.531958,2.096161 8.190066,-0.176863 11.165851,-5.861559 l 2.30028,-5.892145 m -10.157558,2.918837 34.442277,13.018013"
       style="display:inline;fill:none;stroke:#22648c;stroke-width:4;stroke-linecap:butt;stroke-linejoin:miter;stroke-miterlimit:4;stroke-dasharray:none;stroke-opacity:1"
       id="path4763" />
  </g>
</svg>
