<?xml version="1.0" encoding="UTF-8" standalone="no"?>
<svg
   xmlns:dc="http://purl.org/dc/elements/1.1/"
   xmlns:cc="http://creativecommons.org/ns#"
   xmlns:rdf="http://www.w3.org/1999/02/22-rdf-syntax-ns#"
   xmlns:svg="http://www.w3.org/2000/svg"
   xmlns="http://www.w3.org/2000/svg"
   xmlns:sodipodi="http://sodipodi.sourceforge.net/DTD/sodipodi-0.dtd"
   xmlns:inkscape="http://www.inkscape.org/namespaces/inkscape"
   width="96"
   height="96"
   viewBox="0 0 96 96"
   version="1.1"
   id="svg916"
   inkscape:version="1.0 (4035a4fb49, 2020-05-01)"
   sodipodi:docname="paper.svg">
  <defs
     id="defs910">
    <clipPath
       id="clipPath44"
       clipPathUnits="userSpaceOnUse">
      <path
         inkscape:connector-curvature="0"
         id="path46-65"
         d="M 0,38 H 38 V 0 H 0 Z" />
    </clipPath>
    <clipPath
       id="clipPath16-2"
       clipPathUnits="userSpaceOnUse">
      <path
         inkscape:connector-curvature="0"
         id="path18-53"
         d="M 0,38 H 38 V 0 H 0 Z" />
    </clipPath>
    <clipPath
       id="clipPath28-4"
       clipPathUnits="userSpaceOnUse">
      <path
         inkscape:connector-curvature="0"
         id="path30-9"
         d="M 1.193,5 C 1.193,3 3,1 5,1 v 0 h 28 c 2,0 3.731,2 3.731,4 v 0 c 0,4.355 -4.634,11 -17.731,11 v 0 C 5.508,16 1.193,9.541 1.193,5" />
    </clipPath>
    <clipPath
       clipPathUnits="userSpaceOnUse"
       id="clipPath16-4">
      <path
         d="M 0,36 H 36 V 0 H 0 Z"
         id="path18-8"
         inkscape:connector-curvature="0" />
    </clipPath>
    <clipPath
       id="clipPath16-90"
       clipPathUnits="userSpaceOnUse">
      <path
         inkscape:connector-curvature="0"
         id="path18-2"
         d="M 0,38 H 38 V 0 H 0 Z" />
    </clipPath>
    <clipPath
       id="clipPath16-1"
       clipPathUnits="userSpaceOnUse">
      <path
         inkscape:connector-curvature="0"
         id="path18-5"
         d="M 0,38 H 38 V 0 H 0 Z" />
    </clipPath>
  </defs>
  <sodipodi:namedview
     id="base"
     pagecolor="#ffffff"
     bordercolor="#666666"
     borderopacity="1.0"
     inkscape:pageopacity="0.0"
     inkscape:pageshadow="2"
     inkscape:zoom="3.959798"
     inkscape:cx="48.615181"
     inkscape:cy="59.380908"
     inkscape:document-units="px"
     inkscape:current-layer="layer1"
     inkscape:document-rotation="0"
     showgrid="true"
     units="px"
     inkscape:window-width="1127"
     inkscape:window-height="880"
     inkscape:window-x="733"
     inkscape:window-y="358"
     inkscape:window-maximized="0">
    <inkscape:grid
       type="xygrid"
       id="grid1479"
       empspacing="6"
       spacingx="4"
       spacingy="4" />
  </sodipodi:namedview>
  <metadata
     id="metadata913">
    <rdf:RDF>
      <cc:Work
         rdf:about="">
        <dc:format>image/svg+xml</dc:format>
        <dc:type
           rdf:resource="http://purl.org/dc/dcmitype/StillImage" />
        <dc:title></dc:title>
      </cc:Work>
    </rdf:RDF>
  </metadata>
  <g
     inkscape:label="Layer 1"
     inkscape:groupmode="layer"
     id="layer1">
    <path
       style="display:inline;fill:#94989b;stroke-width:1.41362"
       inkscape:connector-curvature="0"
       d="m 45.058982,92.074843 c 0,0 27.848399,-35.764695 48.063226,-46.790964 C 84.075013,27.613575 39.12176,9.9432714 39.12176,9.9432714 L 10.707912,46.980228 38.414948,91.792118 c 1.554987,1.979074 4.523598,2.120437 6.644034,0.282725"
       id="path5223" />
    <path
       style="display:inline;fill:#d0d0d0;stroke-width:1.41362"
       inkscape:connector-curvature="0"
       d="m 39.404485,84.723997 c 0,0 54.14181,-37.743769 47.356414,-59.513583 C 71.635119,26.624038 42.655821,5.9851234 40.535384,2.8751499 32.053638,15.315044 14.241972,24.786327 6.1843137,35.529871 2.9329779,39.912107 1.2366287,43.02208 4.4879646,47.969765 L 38.55631,91.650756 c -1.696349,-1.979074 -1.130899,-5.089048 0.848175,-6.926759"
       id="path5225" />
    <g
       transform="matrix(1.4136243,0,0,1.4136243,2.650253,2.8751499)"
       style="display:inline;fill:#94989b"
       id="g5245">
      <path
         inkscape:connector-curvature="0"
         d="M 47.3,32.4 18.9,10.2 19.7,9.5 48.3,31.5 Z"
         id="path5227" />
      <path
         inkscape:connector-curvature="0"
         d="M 17.9,31.2 7.7,20.5 c 4.9,-5.6 8.9,-8.2 8.9,-8.2 L 28.2,22 Z"
         id="path5229" />
      <path
         inkscape:connector-curvature="0"
         d="M 24.7,52.6 2.8,25.8 c 0.6,-2.4 2.6,-3.5 2.6,-3.5 l 23.3,26.7 -4,3.6"
         id="path5231" />
      <path
         inkscape:connector-curvature="0"
         d="M 30.8,24.2 27.3,27.3 40,38.9 44,35.3 Z"
         id="path5233" />
      <path
         inkscape:connector-curvature="0"
         d="M 23.8,30.5 20.3,33.6 31.9,46.1 36,42.5 Z"
         id="path5235" />
      <path
         sodipodi:nodetypes="ccccc"
         inkscape:connector-curvature="0"
         id="path4729"
         d="M 22.022524,8.1579331 39.269147,21.459254 c 2.28123,-2.036219 4.773444,-3.931783 6.199766,-6.53794 C 39.38187,11.644798 28.560459,5.746565 26.869614,2.7472324 25.610338,4.6305065 23.709909,6.3543662 22.022524,8.1579331 Z"
         style="fill:#94989b;fill-opacity:1" />
    </g>
  </g>
</svg>
