<?xml version="1.0" encoding="UTF-8"?>
<svg width="100%" height="100%" version="1.1" viewBox="0 0 96 96" xmlns="http://www.w3.org/2000/svg">
 <path d="m45.059 92.075s27.848-35.765 48.063-46.791c-9.0472-17.67-54-35.341-54-35.341l-28.414 37.037 27.707 44.812c1.555 1.9791 4.5236 2.1204 6.644 0.28272" fill="#94989b" stroke-width="1.4136"/>
 <path d="m39.404 84.724s54.142-37.744 47.356-59.514c-15.126 1.4136-44.105-19.225-46.226-22.335-8.4817 12.44-26.293 21.911-34.351 32.655-3.2513 4.3822-4.9477 7.4922-1.6963 12.44l34.068 43.681c-1.6963-1.9791-1.1309-5.089 0.84818-6.9268" fill="#d0d0d0" stroke-width="1.4136"/>
 <g transform="matrix(1.4136 0 0 1.4136 2.6503 2.8751)" fill="#94989b">
  <path d="m47.3 32.4-28.4-22.2 0.8-0.7 28.6 22z"/>
  <path d="m17.9 31.2-10.2-10.7c4.9-5.6 8.9-8.2 8.9-8.2l11.6 9.7z"/>
  <path d="m24.7 52.6-21.9-26.8c0.6-2.4 2.6-3.5 2.6-3.5l23.3 26.7-4 3.6"/>
  <path d="m30.8 24.2-3.5 3.1 12.7 11.6 4-3.6z"/>
  <path d="m23.8 30.5-3.5 3.1 11.6 12.5 4.1-3.6z"/>
  <path d="m22.023 8.1579 17.247 13.301c2.2812-2.0362 4.7734-3.9318 6.1998-6.5379-6.087-3.2765-16.908-9.1747-18.599-12.174-1.2593 1.8833-3.1597 3.6071-4.8471 5.4107z" fill="#94989b"/>
 </g>
</svg>
