<?xml version="1.0" encoding="UTF-8"?>
<svg width="100%" height="100%" version="1.1" viewBox="0 0 96 96" xmlns="http://www.w3.org/2000/svg">
 <g transform="matrix(.83009 -.31103 .31103 .83009 -385.37 -519.71)">
  <g transform="matrix(1.1369 0 0 1.1369 -27.48 -122.53)">
   <path transform="translate(0 738.52)" d="m234 36-24 18v24l24-18zm-9.1094 12.766a2.0002 2.0002 0 0 1 1.2871 3.5703l-4.2129 3.4141a2.0004 2.0004 0 0 1-2.5176-3.1094l4.2129-3.4121a2.0002 2.0002 0 0 1 1.2305-0.46289z" fill="#866d31"/>
   <path d="m234 798.52 30 18v-25.899l-30-16.101z" fill="#957937"/>
   <path d="m240.54 836.5 23.457-19.985-30-18-24 18z" fill="#b99c55"/>
   <path d="m210 792.52v24l30.543 19.985 3.6505-12.948-3.1539-8.4029z" fill="#bd932d"/>
   <path d="m264 792.52v24l-23.457 19.985 3.6505-12.948-3.1539-8.4029z" fill="#a47f27"/>
   <path d="m210 792.52-14.287 4.0273 38.09 18.998 7.2361-0.39173z" fill="#d1a63e"/>
   <path d="m250.32 828.27-0.4452-7.1279 6.5-5.75 0.29726 7.4329z" fill="#6f5329"/>
   <path d="m264 790.62 10.79 1.5221-22.79 24.377-10.96-1.366z" fill="#d1a63e"/>
   <path d="m210 792.52-11.293 0.9047 24.354-18.53 10.939-0.37437z" fill="#dbb969"/>
   <path d="m234 774.52 6.5136-8.6673 24.537 16.577-1.0502 8.1915z" fill="#d6af53"/>
   <path d="m239.03 831.3-8.5112-5.1265 2.0513-5.7109 7.7937 4.4581z" fill="#6f5329"/>
   <path d="m265.05 782.43-24.537-16.577 7.7364 0.41727 26.375 12.875z" fill="#dbb969"/>
   <path d="m195.71 796.55 38.09 18.998-1.2353 4.9142z" fill="#d7b157"/>
  </g>
 </g>
 <g transform="matrix(.74872 0 0 .74872 -72.086 -628.27)">
  <path d="m150.48 865.04c-14.213 4.5819-26.606-2.659-45.207 8.5037 11.787 24.96 22.18 27.849 25.122 52.331 20.182-3.259 35.247-11.378 52.412-6.4644z" fill="#e5e4ba"/>
  <path d="m171.66 901.07 7.5467 12.307c-15.417-3.4329-20.245-1.2357-26.355-0.46441-2.3968 2.1811-1.6944 5.3952-2.4382 8.1272-7.5203 7e-3 -15.914-2.1408-21.479-3.2509l-3.5992-11.494z" fill-opacity=".13131"/>
  <path d="m154.72 852.76c-14.213 4.5819-20.567-8.7484-39.167 2.4144 5.6322 24.481 27.723 36.208 28.227 55.374 20.255-3.1372 27.421-9.8383 43.405-6.8928z" fill="#d7e0eb"/>
  <path d="m167.95 873.9 4.2958 6.3857c-2.2966 8.5916-18.319 22.64-20.782 28.678l-7.6803 2.629z" fill-opacity=".13726"/>
  <path d="m114 880.25 37.845-34.028c6.81 1.6909 10.219 1.1299 20.461 5.5871 0 33.663-23.985 43.06-23.985 63.258-17.342-2.4347-20.565-10.153-46.322-8.5446 3.5312-17.314 12.244-25.866 12-26.273z" fill="#f0ecec"/>
  <path d="m139.29 860.67s1.6114 4.7 2.1486 4.4314c0.53713-0.26857 3.4914-2.6857 4.0285-2.6857 0.53713 0 2.5514 0.93999 3.4914 2.2828 0.94 1.3428 0 0.53713 3.76 0.53713 3.76 0 5.9085-0.53713 5.9085-0.53713l1.4148 4.8073 5.1495-0.94778" fill="none" stroke="#c39f9f" stroke-width="2.7865"/>
  <path d="m155.17 882.46s0.17361-3.2487 0.0394-4.1887c-0.13428-0.93999-1.7878-1.1462-2.325-0.0719-0.53714 1.0743-3.5875-0.34599-4.9303 0.19114-1.3428 0.53714 0.90177-3.0111 0.76749-3.5483-1.1321-1.1608-6.58 1.3428-7.52 1.3428-0.93999 0-1.2368-3.424-1.7739-3.424l-3.1438 2.1472-3.7744-1.8207-7.6889 0.68122 1.3136-3.1197" fill="none" stroke="#c39f9f" stroke-width="2.7865"/>
  <path d="m165.81 858.8c-0.54019-2.0522-0.12358-5.4296-1.9717-5.6702-3.6229 2.7827-6.8332 3.1356-7.9654 2.7159 0 0-2.8315-3.449-3.7715-3.7175" fill="none" stroke="#c39f9f" stroke-width="2.7865"/>
  <path d="m114 880.25c8.7206-4.0213 29.968-8.022 39.675-9.6739-3.3406-10.887-3.8625-17.197-1.8295-24.354-3.5205 0.89266-19.973 11.162-37.845 34.028" fill-opacity=".1381"/>
  <path d="m118.52 881.78 0.24946 3.2429s0.74836 1.372 2.6193 0.24945c1.8709-1.1225 5.6127-3.2429 6.1116-1.372 0.4989 1.8709 0.24944 3.7418 0.99781 3.7418s6.1116 0.99781 6.1116 0.99781l0.12473-1.4967" fill="none" stroke="#c39f9f" stroke-width="2.7865"/>
  <path d="m114 880.25c12.644-11.239 33.875-16.34 33.486-17.124-2.4879-5.179-5.906-12.013 4.3596-16.904-9.1359 2.7522-27.058 19.76-37.845 34.028z" fill="#fafafa"/>
 </g>
</svg>
