<?xml version="1.0" encoding="UTF-8"?>
<svg width="100%" height="100%" version="1.1" viewBox="0 0 96 96" xmlns="http://www.w3.org/2000/svg">
 <path d="m57.814 61.539c-5.7454-10.176-13.781-18.344-23.6-23.6" fill="none" stroke="#8ac6de" stroke-linecap="round" stroke-width="2.3839"/>
 <path d="m62.871 56.482c-5.9561-10.261-13.848-18.547-23.6-23.6" fill="none" stroke="#8ac6de" stroke-linecap="round" stroke-width="2.3839"/>
 <path d="m67.928 51.424c-5.5418-10.105-13.707-18.135-23.6-23.6" fill="none" stroke="#8ac6de" stroke-linecap="round" stroke-width="2.3839"/>
 <path d="m72.985 46.367c-5.5418-10.105-13.707-18.135-23.6-23.6" fill="none" stroke="#8ac6de" stroke-linecap="round" stroke-width="2.3839"/>
 <path d="m74.686 12.923c-7.4687 2.9602-17.238-1.3052-22.757 4.2143l-2.5286 2.5286c-1.6857 1.6857-0.95453 2.556-0.84285 4.2143-1.6583-0.11167-2.5286-0.84285-4.2143 0.84285-1.6857 1.6857-0.95453 2.556-0.84285 4.2143-1.6583-0.11168-2.5286-0.84285-4.2143 0.84285-1.6857 1.6857-0.74134 2.4511-0.84285 4.2143-1.6857 0-2.5286-0.84285-4.2143 0.84285-1.0691 0.97442-0.84285 2.5286-0.84285 4.2143-1.6857 0-12.409 9.0138-15.171 11.8-5.5239 5.5721-11.591 11.595-12.643 14.328-1.4913 7.6991 17.223 26.021 25.286 25.286 2.975-1.1891 8.9062-7.1954 14.328-12.643 2.7112-2.7237 11.8-13.486 11.8-15.171 1.6857 0 3.0607 0.31066 4.2143-0.84285 1.6857-1.6857 0.84285-2.5286 0.84285-4.2143 1.6857 0 2.5286 0.84285 4.2143-0.84285 1.6857-1.6857 0.95453-2.556 0.84285-4.2143 1.6583 0.11168 2.5286 0.84285 4.2143-0.84285 1.6857-1.6857 0.95453-2.556 0.84285-4.2143 1.6583 0.11168 2.5286 0.84285 4.2143-0.84285l2.5286-2.5286c5.3836-5.3836 1.6551-15.432 4.2143-22.757l3.3714-3.3714-8.4285-8.4285z" fill="#9ad8f2" fill-opacity=".71717" stroke="#8ac6de" stroke-opacity=".66667" stroke-width="2.3839"/>
 <path d="m48.558 23.88c5.7454 10.176 13.781 18.344 23.6 23.6" fill="none" stroke="#8ac6de" stroke-linecap="round" stroke-opacity=".66667" stroke-width="2.3839"/>
 <path d="m43.501 28.937c5.9561 10.261 13.848 18.547 23.6 23.6" fill="none" stroke="#8ac6de" stroke-linecap="round" stroke-opacity=".66667" stroke-width="2.3839"/>
 <path d="m38.444 33.994c5.5418 10.105 13.707 18.135 23.6 23.6" fill="none" stroke="#8ac6de" stroke-linecap="round" stroke-opacity=".66667" stroke-width="2.3839"/>
 <path d="m33.387 39.051c5.5418 10.105 13.707 18.135 23.6 23.6" fill="none" stroke="#8ac6de" stroke-linecap="round" stroke-opacity=".66667" stroke-width="2.3839"/>
 <ellipse transform="rotate(45)" cx="67.909" cy="-47.845" rx="9.5358" ry="3.1576" fill="#70b9d7" style="paint-order:fill markers stroke"/>
 <path d="m7.785 65.637c5.8047-6.5666 9.7972-13.041 24.285-22.599 2.8498 4.7631 7.5822 10.619 12.537 15.803-13.334-11.836-27.547 1.3485-36.822 6.7955z" fill="#eef7fb" fill-opacity=".8"/>
 <path d="m52.859 19.969c3.5192-5.4649 16.92-1.2746 23.842-4.8059-6.9841 7.1933-20.674 7.5327-20.418 10.257-2.0215-2.7206-3.1456-4.0854-3.4247-5.4508z" fill="#eef7fb" fill-opacity=".8"/>
 <path d="m47.434 25.794c-0.75358-0.14879-2.9459 0.94658-3.1057 2.0303 0.80223-0.87911 14.944 13.42 16.577 14.958-4.9558-5.6986-10.258-11.424-13.471-16.988z" fill="#eef7fb" fill-opacity=".8"/>
 <path d="m42.912 30.732c-0.75358-0.14878-2.9086 0.98383-3.0684 2.0676 0.80223-0.87911 14.907 13.383 16.54 14.921-4.9558-5.6986-10.258-11.424-13.471-16.988z" fill="#eef7fb" fill-opacity=".8"/>
 <path d="m37.75 36c-0.75358-0.14879-2.7596 1.0583-2.9194 2.142 0.80223-0.87911 14.758 13.308 16.391 14.846-4.9558-5.6986-10.258-11.424-13.471-16.988z" fill="#eef7fb" fill-opacity=".8"/>
 <path d="m88.46 7.5503a7.1518 1.192 45 0 0-5.7123-4.2768l-0.06256-0.0625-5.0571 5.0571a7.1518 1.192 45 0 0 4.2143 5.9 7.1518 1.192 45 0 0 5.9 4.2143l4.932-4.932 0.12511-0.12511-0.06091-0.0609a7.1518 1.192 45 0 0-4.2785-5.7139z" fill="#3e66a2" style="paint-order:fill markers stroke"/>
 <ellipse transform="rotate(45)" cx="67.841" cy="-56.048" rx="7.1891" ry="1.341" fill="#7d9dcd" style="paint-order:fill markers stroke"/>
 <path d="m31.385 89.237c-5.5418-10.105-13.707-18.135-23.6-23.6 4.6475 10.013 12.959 17.583 23.6 23.6z" fill="#8ac6de" fill-opacity=".66667" stroke="#8ac6de" stroke-linecap="round" stroke-linejoin="round" stroke-opacity=".66667" stroke-width="2.3849"/>
</svg>
