<?xml version="1.0" encoding="UTF-8"?>
<svg version="1.1" viewBox="0 0 128 128" xmlns="http://www.w3.org/2000/svg">
 <g transform="translate(-183.56 -539.51)">
  <g transform="translate(0 -.049998)">
   <path d="m262.99 572.36v28.232c9.6384 0.72021 22.957-0.78286 23.255-13.863 0.27538-12.063-9.8746-15.258-23.255-14.37zm28.545 67.098c-4.8829-4.0266-11.145-21.927-18.609-29.407-2.9608-2.9673-6.1558-4.8407-9.9363-4.6266v27.311c0.17547 3.3386 4.226 3.2019 5.8765 3.2301v3.4649h-19.884v-3.4784c1.6505-0.0283 5.701 0.12197 5.8765-3.2166v-58.375c-0.17549-3.3386-4.226-3.1884-5.8765-3.2166v-3.4641l22.848 0.37649c15.259 0.0887 22.264 9.6143 22.209 18.79-0.0501 8.4073-6.1989 15.648-19.286 17.213 3.6971 1.3074 7.1022 4.0324 9.755 7.5547 6.6615 8.8451 10.255 25.153 22.123 24.352v3.4934zm-44.584-47.233c0.15746-1.6038 2.058-1.8304 3.1722-2.062v-2.0223h-11.359v2.0223c1.1143 0.23153 3.0148 0.4581 3.1722 2.062v21.42c-0.15744 1.6038-2.0579 1.8304-3.1722 2.0619v2.0223h11.359v-2.0223c-1.1143-0.23152-3.0148-0.45811-3.1722-2.0619zm-13.371 0c0.15745-1.6038 2.058-1.8304 3.1722-2.062v-2.0223h-11.359v2.0223c1.1142 0.23153 3.0148 0.4581 3.1722 2.062v21.42c-0.15746 1.6038-2.058 1.8304-3.1722 2.0619v2.0223h11.359v-2.0223c-1.1143-0.23152-3.0148-0.45811-3.1722-2.0619zm-39.208-17.866c-0.17549-3.3386-4.2261-3.1884-5.8766-3.2166v-3.4641h41.383l5.3198 8.9076-2.8455 1.3609c-1.2851-2.465-2.7992-4.7869-6.6807-5.6291h-22.269v27.96h12.372c2.2438-0.45648 3.6493-2.1066 3.5878-6.1858h2.6599v16.363h-2.6599c0.0615-4.0792-1.344-5.7294-3.5878-6.1858h-12.372v22.335c-0.15272 4.9273 1.2859 7.5023 5.6155 7.7639h16.653c3.2281-1.0056 8.0093-5.7778 9.2944-8.2428l2.5188 1.6059-7.035 11.685h-41.955v-3.4641c1.6505-0.0283 5.7011 0.12197 5.8766-3.2166z" fill="#ef4f3e" stroke="#A13125" stroke-width="2"/>
  </g>
 </g>
</svg>
