<?xml version="1.0" encoding="UTF-8"?>
<svg width="128" height="128" version="1.1" viewBox="0 0 33.867 33.867" xmlns="http://www.w3.org/2000/svg">
 <g transform="translate(.51525 -166.31)">
  <path d="m0.88544 186.35c0.36328 4.4964 9.0556 6.1404 11.392 3.4449l0.13909-2.964c-1.2075 1.1042-2.5955 2.0714-4.1678 2.2824-2.7382 0.33649-5.8362-2.4069-4.2567-5.1678 0.42881-0.74952 0.83711-0.28572 1.5316-0.21779 1.0744 0.10509 2.4112 0.0291 2.8556-1.1715 0.47401-2.3701-2.6144-2.6486-4.0311-1.8702-1.5375-4.5789 5.5245-5.1625 7.5876-3.2595 0.14983 0.14976 0.48929 0.63006 0.73108 0.59197l0.10686-1.8186c-1.9677-2.425-8.0187-1.952-9.9217-0.60785-2.6548 1.8752-1.8813 3.8527-0.53434 6.2161-1.7472 0.73861-1.5588 2.9733-1.432 4.5419zm17.783-10.366h-0.05343c-1.1214-1.592-4.6817-1.9199-5.6031 0.10687l-0.0075 1.977c0.93141-0.33085 1.2405-1.8525 2.5114-1.3643 1.1157 0.42864 1.224 1.7258 1.2289 2.7535 0.01148 2.3795 0.0067 4.7299-0.1089 7.1067-0.04649 0.95668-0.35507 2.2259-1.4406 2.475-1.7057 0.42432-1.6848-0.87183-2.4847-1.194l-0.01712 1.9784c0.94161 1.8833 4.1603 1.5017 5.227 0 0.86054 1.0186 2.1638 1.1236 3.2595 1.1221 0.48587-5e-5 1.282-0.0352 1.6168-0.45572l0.0397-1.7885c-0.52264 0.0566-0.98751 0.52013-1.5496 0.38317-0.74877-0.18236-1.3018-0.97992-1.5306-1.6656-0.47834-1.4333-0.12584-2.9945-0.12584-4.4884 1.2812 1.9611 5.6167 0.50679 5.5397 0.0636 1.5756 1.4906 1.7875 4.8327-0.35662 5.9569-0.64826 0.27559-1.2365-0.1528-1.7311-0.24113-0.24162 0.58845-0.05892 1.7816 0.28843 1.9695 2.4783 1.0051 3.261-0.0722 4.4905-0.73806 1.1942 0.73005 2.4948 1.5154 4.0797 0.87213 0.10247-0.57187 0.12762-1.5155-0.05307-1.9982-0.98205 0.15458-1.9035 0.41492-2.3694-0.64852-1.0328-2.3575-0.6975-4.8325-3.209-6.1447 1.0052-0.79783 3.1365-2.0914 2.8268-3.4732-0.85562-3.8171-8.1924-5.3811-10.468-2.5648m0.93186 1.977c0.65259-2.2166 4.3656-2.9269 5.6821-1.0152 0.55689 1.2034 0.49916 3.5677-0.78984 4.0746-1.6488-0.75298-3.9548-0.59189-4.8356 0.54656 0.22814-1-0.29201-2.7298-0.05665-3.606zm-11.351 2.4313 0.36616 0.35076 1.3302 3.4764 1.3428-3.4764 0.37375-0.35076h-1.3289l0.38543 0.35076-0.69936 1.9539-0.6927-1.9539 0.33193-0.35076zm3.6925 0.35076-0.04604 3.0928-0.33351 0.38366h1.4962l-0.34182-0.38366 0.0094-3.0928 0.33238-0.35076h-1.3961zm1.6738 0 0.04338 3.0727-0.38687 0.40368h1.5496l-0.32684-0.41035-0.0406-3.0727 0.36744-0.34408h-1.5496zm1.8266 2.9927-0.46025 0.48372h1.5496l-0.34686-0.45037-0.075-2.9794 0.42186-0.39744h-1.5496l0.36077 0.37743zm5.3114-1.4605c0.40552-0.61534 2.6914-0.5064 3.1775-0.0536-0.71116 0.84934-2.9502 0.83477-3.1775 0.0536zm-13.636-0.2482c0.013358 1.0248-2.7912 0.67139-2.8868 0.0883 0.035598-0.51996 2.6855-1.2637 2.8868-0.0883z" fill="#ef4f3e" stroke="#A13125" stroke-linejoin="round" stroke-width=".52917"/>
 </g>
</svg>
