<?xml version="1.0" encoding="UTF-8"?>
<svg version="1.1" viewBox="0 0 128 128" xmlns="http://www.w3.org/2000/svg">
 <path d="m13.136 96.775c-4.0067-8.0285 5.6248-14.294 4.6767-9.6801-0.80874 7.2849 4.0222 12.948 10.821 13.759 2.0446 0.24399 6.6126-0.25962 7.5592-0.79291-6.6273-8.3427-9.3786-20.394 4.7043-23.076 3.3358 0 4.293 1.5328 1.5317 2.4529-7.826 4.2311-6.69 12.734-1.3084 17.989 7.7036-9.6048 4.2759-24.595-2.0349-33.282-6.4817 13-24.613 13.203-30.605 2.1468-14.843-27.388 19.824-53.843 44.672-39.016 2.902 1.7316 3.8817 3.6877 4.0444 6.9102 1.0335 9.2167-13.119 10.109-15.248 4.7126-0.79991-2.4237 1.3532-5.2174 3.6348-4.7163 0.95336 0.20939 1.0763 0.36641 0.88476 1.1297 0.22212 2.9765 3.1091 1.9054 3.7951 0.37582 0.65524-1.489 0.0021-3.1955-1.8195-4.7548-12.336-8.1168-25.41 2.3049-31.43 12.189-5.0581 8.3038-2.7843 25.146 8.9254 24.295 5.4756-0.39793 8.854-4.3675 9.4587-10.814 0.35472-3.7815 1.7235-7.2936 3.1375-8.0504 1.3075-0.69975 1.838 0.02965 2.4864 3.4186 0.55092 2.8794 1.4318 4.6773 5.8705 11.719 8.5791 13.611 8.2167 23.473-0.19533 35.97 9.9876 8.0471 24.843-23.167 22.67-24.531-5.1617-1.9625-9.4248-5.1349-9.3699-9.0049 0.09887-6.9663 11.213-3.4183 15.309-1.7832 4.9087-12.722 11.631-23.937 20.163-33.552l-1.6706-0.78526c-2.6969-1.2677-7.2412-2.3273-11.945-2.5305-5.315-0.22965-12.014 0.41602-13.732 5.3189-1.065 3.1001 0.16951 5.0877 2.5004 4.0257 1.3095-1.1558 0.38639-2.4602 1.3908-3.3304 1.0621-0.26657 2.9715 0.58389 3.9026 1.7383 2.8568 7.5662-9.6818 9.2737-12.457 5.44-8.4642-11.692 8.4897-18.098 16.927-18.077 6.6941 0.04359 12.442 1.2064 17.996 3.6407 1.7043 0.74692 2.0472 0.79432 2.5498 0.35244 3.3886-1.9941 10.542-5.6932 13.681-2.4278 1.5097 1.7987-6.5167 2.7318-9.6399 5.8126 23.42 22.411 7.2835 33.301-13.113 45.591 4.4357 4.8479 7.5841 9.4164 10.606 13.812 4.4582 6.5057 6.3542 8.7303 8.5246 10.002 3.0385 1.7807 6.1482 1.1085 9.1423-1.9763 1.0158-1.0466 1.6432-1.4282 2.0754-1.2624 1.5976 0.61306 0.86419 3.839-1.3403 5.8952-2.7643 2.5784-8.951 4.0141-13.152 2.4767-10.231-3.7439-18.608-19.256-22.912-27.52h-6.6753c-2.6379 6.2558-5.6071 12.737-9.2423 17.995-6.3442 9.1772-16.522 13.198-27.273 8.439-10.846 4.2342-24.26 1.0665-28.476-6.6441zm68.159-24.331c-0.38048-0.34394-0.81278-0.59775-1.2476-0.86051l-0.44104 0.66288c0.56063 0.086 1.1245 0.14134 1.6886 0.19763zm-8.0664-3.6182c-5.9174-3.6926-7.2187 0.12904-0.9265 2.1476zm27.218-34.459c-8.3872 9.6464-13.777 24.219-18.411 33.463 1.4011 0.99499 2.8023 1.9963 4.221 2.9628 15.457-3.1472 29.858-28.227 14.19-36.425zm-49.102 25.691c-0.3454-0.4684-1.8703-3.2632-3.3886-6.2106-3.4121-6.6236-3.6408-6.9732-4.7447-7.2502-0.49031-0.12306-0.89147-0.38454-0.89147-0.58106 0-0.21287 1.6934-0.35732 4.1889-0.35732 2.3039 0 4.1889 0.11003 4.1889 0.24451s-0.23144 0.50329-0.51431 0.81957c-0.44925 0.50232-0.31639 0.95488 1.0503 3.5776 1.759 3.3755 1.6715 3.3848 3.4175-0.36262 1.3286-2.8516 1.365-3.1218 0.50857-3.772-0.54574-0.41427-0.1789-0.48556 2.5498-0.49548 3.2409-0.01177 3.7491 0.19083 2.4747 0.98668-0.39191 0.24475-2.1192 3.2756-3.8383 6.7353-1.7192 3.4596-3.4065 6.5663-3.7496 6.9038-0.29274 0.28791-0.45833 0.4282-0.62441 0.39661-0.16609-0.03158-0.33267-0.23508-0.62738-0.63474zm10.645-0.19324c0-0.20034 0.30243-0.36425 0.67205-0.36425 1.5425 0 1.8777-1.0538 1.8777-5.9023 0-5.92-0.16414-6.7056-1.4983-7.1707-2.031-0.708-1.0098-0.98294 3.4106-0.91829 2.4542 0.03588 4.5441 0.08485 4.6442 0.10879 0.10017 0.02393-0.3506 0.36834-1.0017 0.76532l-1.1838 0.72179v5.5948c0 4.9576 0.07587 5.6635 0.66613 6.1977 0.36637 0.33156 0.85812 0.60284 1.0928 0.60284s0.42664 0.16391 0.42664 0.36425c0 0.22341-1.7606 0.36425-4.5532 0.36425s-4.5532-0.14085-4.5532-0.36425z" fill="#ef4f3e" stroke="#A13125" stroke-width="2"/>
</svg>
