<?xml version="1.0" encoding="UTF-8" standalone="no"?>
<svg
   xmlns:dc="http://purl.org/dc/elements/1.1/"
   xmlns:cc="http://creativecommons.org/ns#"
   xmlns:rdf="http://www.w3.org/1999/02/22-rdf-syntax-ns#"
   xmlns:svg="http://www.w3.org/2000/svg"
   xmlns="http://www.w3.org/2000/svg"
   xmlns:sodipodi="http://sodipodi.sourceforge.net/DTD/sodipodi-0.dtd"
   xmlns:inkscape="http://www.inkscape.org/namespaces/inkscape"
   width="128"
   height="128"
   viewBox="0 0 33.866666 33.866666"
   version="1.1"
   id="svg8"
   inkscape:version="1.0.1 (3bc2e813f5, 2020-09-07, custom)"
   sodipodi:docname="Postbox-Royal-Cypher-EVIIIR.svg">
  <defs
     id="defs2" />
  <sodipodi:namedview
     id="base"
     pagecolor="#ffffff"
     bordercolor="#666666"
     borderopacity="1.0"
     inkscape:pageopacity="0.0"
     inkscape:pageshadow="2"
     inkscape:zoom="6.609375"
     inkscape:cx="64"
     inkscape:cy="64"
     inkscape:document-units="mm"
     inkscape:current-layer="g1086"
     inkscape:document-rotation="0"
     showgrid="false"
     fit-margin-top="0"
     fit-margin-left="0"
     fit-margin-right="0"
     fit-margin-bottom="0"
     inkscape:window-width="1920"
     inkscape:window-height="1033"
     inkscape:window-x="0"
     inkscape:window-y="47"
     inkscape:window-maximized="1"
     units="px" />
  <metadata
     id="metadata5">
    <rdf:RDF>
      <cc:Work
         rdf:about="">
        <dc:format>image/svg+xml</dc:format>
        <dc:type
           rdf:resource="http://purl.org/dc/dcmitype/StillImage" />
        <dc:title></dc:title>
      </cc:Work>
    </rdf:RDF>
  </metadata>
  <g
     inkscape:label="Layer 1"
     inkscape:groupmode="layer"
     id="layer1"
     transform="translate(0.51525417,-166.31424)">
    <g
       id="g1086"
       transform="translate(0,49.086862)"
       style="fill:#b12820;fill-opacity:1;stroke:#002820;stroke-width:1;stroke-miterlimit:4;stroke-dasharray:none;stroke-opacity:1">
      <path
         style="fill:#b12820;fill-opacity:1;stroke:#002820;stroke-width:0.34395833;stroke-miterlimit:4;stroke-dasharray:none;stroke-opacity:1"
         d="m 1.3417646,133.17998 c -1.85361774,0.78362 -1.84535193,3.18117 -1.51928413,4.81859 0.75135412,3.77301 4.78653733,4.89245 8.09524143,4.87522 1.0633776,-0.006 2.1641701,-0.25419 3.1179111,-0.72307 0.269785,-0.13266 0.67806,-0.25964 0.872845,-0.49733 0.159694,-0.19497 0.07993,-0.53011 0.09597,-0.76366 0.04791,-0.70018 0.249149,-1.71112 0.05159,-2.38096 -0.479875,0.23384 -0.869047,0.83266 -1.303855,1.16984 -0.8438764,0.65436 -2.0606553,1.12165 -3.1179105,1.25159 -2.9050425,0.35697 -6.1917967,-2.55357 -4.5160274,-5.48265 0.4549373,-0.79518 0.8881059,-0.30312 1.6248738,-0.23106 1.1399082,0.1115 2.5581038,0.0309 3.0295321,-1.24286 0.311111,-0.84065 -0.1290247,-1.7775 -0.9320284,-2.13441 -0.9682531,-0.43038 -2.4330021,-0.37982 -3.344668,0.15028 -0.2143082,-0.58888 -0.5424657,-1.09818 -0.5049088,-1.75736 0.1878171,-3.29686 3.9202684,-4.14291 6.5139733,-3.09224 0.7823129,0.3169 1.4472779,0.79825 2.0408149,1.39156 0.158956,0.15888 0.519104,0.66844 0.775623,0.62804 0.172676,-0.0272 0.131178,-0.33928 0.131405,-0.45798 8.96e-4,-0.45121 0.09807,-1.03488 -0.01803,-1.47147 -0.0974,-0.36628 -0.803967,-0.59991 -1.115758,-0.75323 -1.206291,-0.59315 -2.4634333,-0.98648 -3.7981826,-1.12937 -1.9872428,-0.21275 -3.9300699,0.12113 -5.6122394,1.23772 -0.8870909,0.58883 -1.6946129,1.40896 -1.85372829,2.51318 -0.22333886,1.54988 0.56107082,2.80635 1.28683539,4.08163 m 17.3469229,-6.17913 h -0.05669 c -1.18968,-1.68894 -4.966945,-2.0369 -5.944437,0.11338 -0.139739,0.30729 -0.06412,0.74665 -0.06462,1.07709 -5.52e-4,0.3564 -0.102777,0.68856 0.05669,1.02041 0.988151,-0.351 1.316042,-1.96539 2.664396,-1.44737 1.183672,0.45475 1.298525,1.83092 1.303797,2.92129 0.01218,2.52448 0.0071,5.01808 -0.115532,7.53968 -0.04932,1.01496 -0.376701,2.3615 -1.528401,2.62579 -0.918026,0.21071 -1.709068,-0.5733 -2.083443,-1.32194 -0.154252,-0.30861 -0.231463,-0.90074 -0.580953,-1.02041 0,0.7402 -0.05669,1.47182 -0.05669,2.21088 0,0.29422 -0.06842,0.69326 0.06683,0.96372 0.998979,1.99802 4.41377,1.5932 5.545402,0 h 0.05669 c 0.74161,1.28299 2.134975,1.19053 3.401357,1.19047 0.515475,-5e-5 1.360146,-0.0373 1.715249,-0.48349 0.256292,-0.32206 0.04212,-1.47223 0.04212,-1.89746 -0.554476,0.0601 -1.047673,0.55182 -1.643988,0.40652 -0.794388,-0.19348 -1.381122,-1.03962 -1.623865,-1.76705 -0.507483,-1.52064 -0.133502,-3.17693 -0.133502,-4.7619 0.395577,0.11394 0.732368,0.38616 1.133784,0.48021 1.004195,0.23532 2.006744,0.12023 3.004534,-0.0722 0.399036,-0.077 1.4445,-0.619 1.738887,-0.34049 1.671598,1.58142 1.896427,5.1271 -0.378345,6.31978 -0.374263,0.19627 -0.809751,0.11566 -1.190475,-0.034 -0.154649,-0.0607 -0.478344,-0.3212 -0.646088,-0.22182 -0.155045,0.092 -0.09088,0.46553 -0.09088,0.61451 0,0.54036 -0.16899,1.19728 0.396883,1.475 0.989454,0.4856 2.761957,0.4479 3.741435,-0.0192 0.34983,-0.16683 0.680556,-0.67148 1.022618,-0.76382 0.281576,-0.0761 0.924831,0.64059 1.188265,0.78899 0.774149,0.43622 1.699487,0.42256 2.551018,0.30029 0.287471,-0.0413 0.71593,-0.0796 0.928684,-0.30556 0.241609,-0.25652 -0.213039,-1.21236 -0.270238,-1.53237 -0.0221,-0.12375 -0.0048,-0.3691 -0.125737,-0.44598 -0.208108,-0.13225 -0.838036,0.24162 -1.099603,0.2542 -0.537015,0.0259 -1.130043,-0.53475 -1.414113,-0.94223 -0.51661,-0.74092 -0.388834,-1.96712 -0.5589,-2.83424 -0.297675,-1.51774 -1.449657,-2.98945 -2.845575,-3.6848 1.066438,-0.84643 2.896369,-2.18594 2.999033,-3.6848 0.07335,-1.07129 -1.173129,-2.192 -1.921937,-2.79983 -0.54864,-0.44535 -1.151077,-0.93065 -1.814057,-1.19025 -1.520463,-0.5954 -3.511788,-0.40198 -5.045347,0.0383 -0.803458,0.23067 -1.794897,0.54055 -2.324261,1.23067 m 1.077074,5.2721 c 0,-0.5424 0.04178,-1.10391 -0.0097,-1.64399 -0.04614,-0.4848 -0.218706,-1.05525 -0.07874,-1.53061 0.692345,-2.35161 4.631514,-3.10526 6.028225,-1.07709 0.70442,1.02284 0.493028,2.31354 -0.191043,3.28797 -0.181633,0.25873 -0.448979,0.66933 -0.760147,0.78016 -0.365873,0.13033 -1.155781,-0.26927 -1.587301,-0.26995 -1.170293,-0.002 -2.251641,0.36202 -3.401355,0.45351 M 7.6342755,131.70606 v 0.0566 c 0.7209178,0.57942 0.9227883,2.09121 1.2093526,2.94785 0.1074829,0.32126 0.2050451,0.88118 0.4913262,1.0771 0.2569723,-0.9415 0.6485254,-1.8542 0.9635477,-2.77778 0.145918,-0.42777 0.259071,-0.95992 0.680442,-1.19048 v -0.11337 l -1.0204078,-0.0567 c 0.1044218,0.16859 0.3361108,0.24303 0.3735268,0.45459 0.125736,0.71128 -0.6082202,1.66604 -0.7136626,2.37987 h -0.056689 l -0.5668927,-1.75737 -0.1820862,-0.72879 0.3521539,-0.29161 c -0.4248295,-0.12558 -1.1057812,-0.12558 -1.5306108,0 m 3.5147364,-0.0566 c 0.10153,0.15102 0.29314,0.22426 0.362641,0.39994 0.250737,0.63379 0.03419,1.75227 0.03419,2.43452 0,0.43078 0.118253,0.98748 -0.396825,1.13378 v 0.11339 h 1.5873 c -0.106065,-0.14694 -0.293368,-0.22188 -0.362641,-0.39932 -0.24898,-0.63792 -0.03419,-1.74977 -0.03419,-2.43514 0,-0.25528 -0.06111,-0.60635 0.03419,-0.84723 0.0695,-0.17568 0.26111,-0.24892 0.362641,-0.39994 h -1.5873 m 1.814058,0 c 0.12239,0.17988 0.35204,0.23004 0.421031,0.45601 0.244386,0.80017 0.100112,2.1674 0.02715,3.00203 -0.02579,0.2949 -0.16338,0.4521 -0.448185,0.5102 v 0.11339 h 1.643988 v -0.11339 c -0.545918,-0.11116 -0.453514,-0.63327 -0.453514,-1.07709 0,-0.89597 -0.305782,-2.27851 0.453514,-2.83446 l -1.643988,-0.0567 m 1.814055,0.0567 c 0.774093,0.49994 0.453516,1.97386 0.453516,2.83446 0,0.45056 0.100566,0.96491 -0.453516,1.07709 v 0.0567 l 1.64399,0.0567 v -0.11339 c -0.515079,-0.1463 -0.396825,-0.703 -0.396825,-1.13378 0,-0.68225 -0.216553,-1.80073 0.03419,-2.43452 0.0695,-0.17568 0.26111,-0.24892 0.362641,-0.39994 l -1.64399,0.0566 m 8.673461,1.36054 c -0.477777,0.29184 -1.399487,0.32614 -1.927434,0.17006 0.448185,-0.27023 1.43163,-0.3166 1.927434,-0.17006 m -18.4240176,0.39682 c 0.1409295,-0.11371 0.737471,-0.40402 0.7981284,-0.0513 0.064059,0.37284 -0.6731851,0.114 -0.7981284,0.0513"
         id="path1056"
         sodipodi:nodetypes="cccccccccsccccccccccccccccccccscccccscccccccccccccccscsscccccccsccscsccccccscccccccccccccccccccssccccsscccccccccscccsccccssccccccc" />
    </g>
  </g>
</svg>
