<?xml version="1.0" encoding="UTF-8" standalone="no"?>
<svg
   xmlns:dc="http://purl.org/dc/elements/1.1/"
   xmlns:cc="http://creativecommons.org/ns#"
   xmlns:rdf="http://www.w3.org/1999/02/22-rdf-syntax-ns#"
   xmlns:svg="http://www.w3.org/2000/svg"
   xmlns="http://www.w3.org/2000/svg"
   xmlns:sodipodi="http://sodipodi.sourceforge.net/DTD/sodipodi-0.dtd"
   xmlns:inkscape="http://www.inkscape.org/namespaces/inkscape"
   version="1.0"
   width="128"
   height="128"
   id="svg2230"
   sodipodi:docname="Postbox-Royal-Cypher-VR.svg"
   inkscape:version="1.0.1 (3bc2e813f5, 2020-09-07, custom)">
  <metadata
     id="metadata12">
    <rdf:RDF>
      <cc:Work
         rdf:about="">
        <dc:format>image/svg+xml</dc:format>
        <dc:type
           rdf:resource="http://purl.org/dc/dcmitype/StillImage" />
        <dc:title />
      </cc:Work>
    </rdf:RDF>
  </metadata>
  <sodipodi:namedview
     pagecolor="#ffffff"
     bordercolor="#666666"
     borderopacity="1"
     objecttolerance="10"
     gridtolerance="10"
     guidetolerance="10"
     inkscape:pageopacity="0"
     inkscape:pageshadow="2"
     inkscape:window-width="1920"
     inkscape:window-height="1033"
     id="namedview10"
     showgrid="false"
     fit-margin-top="0"
     fit-margin-left="0"
     fit-margin-right="0"
     fit-margin-bottom="0"
     inkscape:zoom="6.609375"
     inkscape:cx="64"
     inkscape:cy="64"
     inkscape:window-x="0"
     inkscape:window-y="47"
     inkscape:window-maximized="0"
     inkscape:current-layer="svg2230"
     inkscape:document-rotation="0" />
  <defs
     id="defs2233">
    <marker
       refX="0"
       refY="0"
       orient="auto"
       style="overflow:visible"
       id="Arrow2Lstart">
      <path
         d="M 8.7185878,4.0337352 -2.2072895,0.01601326 8.7185884,-4.0017078 c -1.7454984,2.3720609 -1.7354408,5.6174519 -6e-7,8.035443 z"
         transform="matrix(1.1,0,0,1.1,1.1,0)"
         style="font-size:12px;fill-rule:evenodd;stroke-width:0.625;stroke-linejoin:round"
         id="path3285" />
    </marker>
  </defs>
  <g
     id="g847"
     transform="matrix(0.59423691,0,0,0.59423691,4.0717725,-3.8088454)"
     style="fill:#b12820;fill-opacity:1;fill-rule:nonzero;stroke:#000000;stroke-width:1.0096983;stroke-miterlimit:4;stroke-dasharray:none;stroke-opacity:1">
    <g
       style="display:inline;fill:#b12820;fill-opacity:1;fill-rule:nonzero;stroke:#000000;stroke-width:1.0096983;stroke-miterlimit:4;stroke-dasharray:none;stroke-opacity:1"
       id="layer1">
      <path
         style="color:#000000;font-style:normal;font-variant:normal;font-weight:normal;font-stretch:normal;font-size:medium;line-height:normal;font-family:sans-serif;font-variant-ligatures:normal;font-variant-position:normal;font-variant-caps:normal;font-variant-numeric:normal;font-variant-alternates:normal;font-variant-east-asian:normal;font-feature-settings:normal;font-variation-settings:normal;text-indent:0;text-align:start;text-decoration:none;text-decoration-line:none;text-decoration-style:solid;text-decoration-color:#000000;letter-spacing:normal;word-spacing:normal;text-transform:none;writing-mode:lr-tb;direction:ltr;text-orientation:mixed;dominant-baseline:auto;baseline-shift:baseline;text-anchor:start;white-space:normal;shape-padding:0;shape-margin:0;inline-size:0;clip-rule:nonzero;display:inline;overflow:visible;visibility:visible;opacity:1;isolation:auto;mix-blend-mode:normal;color-interpolation:sRGB;color-interpolation-filters:linearRGB;solid-color:#000000;solid-opacity:1;vector-effect:none;fill:#b12820;fill-opacity:1;fill-rule:nonzero;stroke:#000000;stroke-width:1.0096983;stroke-linecap:butt;stroke-linejoin:round;stroke-miterlimit:4;stroke-dasharray:none;stroke-dashoffset:0;stroke-opacity:1;color-rendering:auto;image-rendering:auto;shape-rendering:auto;text-rendering:auto;enable-background:accumulate;stop-color:#000000;stop-opacity:1"
         d="m 178.81641,18.886719 c -4.46185,0.517187 -9.47268,2.925424 -13.11133,5.068359 a 3.0003,3.0003 0 0 0 -0.0899,0.05469 c -8.17123,5.208663 -7.20584,4.000968 -22.76953,19.283203 a 3.0003,3.0003 0 0 0 -0.30078,0.34375 c -6.38262,8.528653 -6.36557,9.395159 -15.8457,25.451172 a 3.0003,3.0003 0 0 0 -0.0703,0.126953 c -3.39209,6.448899 -3.56728,7.423795 -12.25196,23.392578 a 3.0003,3.0003 0 0 0 -0.0449,0.08594 c -8.16731,16.259416 -8.66188,17.508436 -17.373046,39.175776 -6.708909,13.77875 -6.55647,14.70118 -12.908203,28.07422 -5.587615,10.66367 -12.077591,22.26094 -23.40625,35.98828 4.83336,-13.67469 6.097885,-19.4549 6.855469,-30.31445 a 3.0003,3.0003 0 0 0 0.002,-0.006 c 1.387258,-20.43127 2.316366,-12.48854 -1.421875,-44.75194 a 3.0003,3.0003 0 0 0 -0.0098,-0.0801 C 61.889699,91.554056 62.092406,90.211678 57.855469,75.689453 a 3.0003,3.0003 0 0 0 -0.16211,-0.429687 C 52.64927,64.466691 48.343809,59.756661 44.873047,56.712891 41.947988,54.147689 40.092694,52.94419 38.267578,49.814453 c -0.294825,-1.130884 -0.734434,-2.21825 -1.201172,-3.296875 -1.019774,-2.356683 -2.328611,-4.560829 -3.386718,-6.085937 -0.529054,-0.762554 -0.80832,-1.240606 -1.587891,-1.916016 -0.194893,-0.168853 -0.368864,-0.393425 -1.103516,-0.654297 -0.367326,-0.130436 -0.968395,-0.30224 -1.8125,-0.08008 -0.844105,0.222162 -1.669308,1.003179 -1.96875,1.625 -0.598884,1.243643 -0.308045,1.673355 -0.246093,2.001953 0.06195,0.328599 0.133802,0.534282 0.208984,0.742188 0.601454,1.663245 1.861326,3.865071 4.792969,8.632812 l -0.169922,-0.318359 c 0.117548,0.255424 0.251145,0.416342 0.371093,0.658203 0.06458,0.374684 0.320409,1.292487 0.341797,1.251953 -0.815966,2.00224 -2.146107,3.203173 -4.222656,4.259766 -2.138508,1.088118 -4.978069,1.861229 -7.949219,2.726562 -2.971149,0.865333 -6.102551,1.813384 -8.84375,3.75 -2.6965118,1.905047 -4.8502172,5.007446 -5.4042965,9.080078 -0.8212764,3.524384 0.016861,6.857698 2.2988281,8.546875 2.3189374,1.716543 5.0727094,1.622156 7.3691404,0.865235 2.296431,-0.756921 4.548489,-2.287116 5.375,-5.035157 0.826511,-2.74804 -0.643467,-5.963483 -3.544922,-8.121093 l -3.580078,4.814453 c 1.75255,1.303249 1.40045,1.506496 1.378906,1.578125 -0.02154,0.07163 -0.584839,0.760878 -1.505859,1.064453 -0.92102,0.303575 -1.786625,0.111834 -1.921875,0.01172 -0.135249,-0.100116 -0.575224,-0.224914 -0.02344,-2.449219 a 3.0003,3.0003 0 0 0 0.06641,-0.359375 c 0.32574,-2.67371 1.28612,-3.916609 2.955078,-5.095703 1.668958,-1.179095 4.196862,-2.05716 7.058594,-2.890625 2.861731,-0.833466 6.028357,-1.630612 8.992187,-3.138672 2.070789,-1.053662 4.045964,-2.584376 5.546875,-4.650391 1.453037,1.453306 2.937403,2.640407 4.365235,3.892578 3.054952,2.679115 6.512313,6.312142 11.248046,16.392579 4.099609,14.076774 3.814723,14.979151 7.955079,43.931643 3.739198,32.27168 2.803666,22.93154 1.396484,43.65625 -0.880962,12.62447 -1.875611,16.34518 -9.412109,36.79883 -0.52821,1.01258 -2.138184,3.04601 -4,5.02929 -1.881967,2.00475 -3.999582,4.05233 -5.625,5.66992 -0.812709,0.8088 -1.49284,1.49599 -2.033204,2.11329 -0.270181,0.30865 -0.499559,0.56162 -0.779296,1.02734 -0.139869,0.23286 -0.330077,0.48598 -0.458985,1.18164 -0.06445,0.34783 -0.11441,0.85541 0.08984,1.50586 0.204254,0.65045 0.765191,1.36108 1.347656,1.71094 1.16493,0.69971 1.834077,0.46096 2.226563,0.39062 0.392485,-0.0703 0.622494,-0.15971 0.847656,-0.24804 0.450323,-0.17668 0.840755,-0.37877 1.328125,-0.64454 0.97474,-0.53153 2.275727,-1.31811 4.083984,-2.46289 a 3.0003,3.0003 0 0 0 0.50586,-0.40429 C 71.91288,194.81446 81.610003,177.53467 89.394531,162.67578 a 3.0003,3.0003 0 0 0 0.05273,-0.10547 c 6.474502,-13.62669 6.219237,-14.3529 12.955069,-28.17773 a 3.0003,3.0003 0 0 0 0.0859,-0.19531 c 8.75775,-21.78316 9.0363,-22.54778 17.19141,-38.783208 0.006,-0.0129 0.007,-0.01442 0.0137,-0.02734 8.59222,-15.803656 8.93153,-17.07631 12.20117,-23.296875 9.408,-15.936642 9.24759,-16.53677 15.34766,-24.701172 15.12726,-14.853418 13.34576,-13.062959 21.52929,-18.273438 3.11559,-1.831697 8.16327,-3.969326 10.73633,-4.267578 0.3025,-0.03506 0.3648,-0.0046 0.56836,0 -0.0838,0.437178 -0.23754,1.118193 -0.7832,2.226563 a 3.0003,3.0003 0 0 0 -0.30663,1.308593 c -0.0157,2.970957 1.4311,5.504294 3.30468,7.091797 1.87358,1.587504 4.11311,2.416845 6.32421,2.578125 2.21112,0.16128 4.73958,-0.311342 6.31641,-2.507812 1.57683,-2.196471 1.1462,-5.24854 -0.44141,-7.914063 a 3.0003,3.0003 0 0 0 -0.94726,-0.984375 c -1.37004,-0.886813 -2.74175,-1.209988 -4.44531,-1.021484 -0.85178,0.09425 -1.83737,0.36802 -2.73438,1.119141 -0.61229,0.512714 -1.01588,1.285198 -1.28906,2.09375 -0.006,-0.05297 -0.0274,-0.09326 -0.0312,-0.148438 1.17492,-2.656067 1.78056,-5.079878 0.43164,-7.314453 -0.76472,-1.266806 -2.08529,-2.031765 -3.25781,-2.333984 -1.17253,-0.30222 -2.28493,-0.283594 -3.40039,-0.154297 z m 6.61328,11.125 5.3125,0.375 c -0.0121,0.172082 -0.23316,0.710691 -0.52735,0.957031 -0.11006,0.09217 -0.0977,0.05578 -0.17187,0.0918 l -0.70899,-0.734375 c 0.61064,1.025233 0.46116,0.801084 0.4668,0.865234 -0.002,7.3e-5 -0.0467,0.02363 -0.0449,0.02344 0.004,-4.7e-4 0.0435,0.0074 0.0625,0.01172 0.002,0.0207 0.1794,0.528104 0.24023,0.44336 0.18419,-0.256566 -0.0958,0.08982 -1.00586,0.02344 -0.91003,-0.06638 -2.10671,-0.512321 -2.88281,-1.169921 -0.32453,-0.274983 -0.54631,-0.57117 -0.74023,-0.886719 z"
         id="path12180" />
    </g>
    <g
       style="display:inline;fill:#b12820;fill-opacity:1;fill-rule:nonzero;stroke:#000000;stroke-width:1.0096983;stroke-miterlimit:4;stroke-dasharray:none;stroke-opacity:1"
       id="layer2">
      <path
         style="color:#000000;font-style:normal;font-variant:normal;font-weight:normal;font-stretch:normal;font-size:medium;line-height:normal;font-family:sans-serif;font-variant-ligatures:normal;font-variant-position:normal;font-variant-caps:normal;font-variant-numeric:normal;font-variant-alternates:normal;font-variant-east-asian:normal;font-feature-settings:normal;font-variation-settings:normal;text-indent:0;text-align:start;text-decoration:none;text-decoration-line:none;text-decoration-style:solid;text-decoration-color:#000000;letter-spacing:normal;word-spacing:normal;text-transform:none;writing-mode:lr-tb;direction:ltr;text-orientation:mixed;dominant-baseline:auto;baseline-shift:baseline;text-anchor:start;white-space:normal;shape-padding:0;shape-margin:0;inline-size:0;clip-rule:nonzero;display:inline;overflow:visible;visibility:visible;opacity:1;isolation:auto;mix-blend-mode:normal;color-interpolation:sRGB;color-interpolation-filters:linearRGB;solid-color:#000000;solid-opacity:1;vector-effect:none;fill:#b12820;fill-opacity:1;fill-rule:nonzero;stroke:#000000;stroke-width:1.0096983;stroke-linecap:butt;stroke-linejoin:round;stroke-miterlimit:4;stroke-dasharray:none;stroke-dashoffset:0;stroke-opacity:1;color-rendering:auto;image-rendering:auto;shape-rendering:auto;text-rendering:auto;enable-background:accumulate;stop-color:#000000;stop-opacity:1"
         d="M 105.82227,7.4941406 C 96.837081,7.5453859 87.891763,8.8419533 78.978516,12.101562 a 3.0003,3.0003 0 0 0 -0.128907,0.05078 C 66.836681,17.181029 57.716807,22.771468 51.615234,32.867188 l 0.263672,-0.369141 c -7.785396,9.336875 -10.558383,21.45274 -9.873047,33.109375 a 3.0003,3.0003 0 0 0 0,0.01953 c 0.921908,14.107167 13.542312,22.761095 21.638672,30.3125 a 3.0003,3.0003 0 0 0 0.726563,0.5 c 14.028413,6.881138 26.796515,6.907208 39.744136,6.181638 -0.71058,0.28082 -1.42392,0.55862 -2.06445,0.99219 -1.71004,1.15752 -3.21675,3.36682 -2.966796,5.82617 a 3.0003,3.0003 0 0 0 0.947266,1.89844 c 4.59904,4.25697 10.40793,5.41163 15.89844,5.34961 2.71404,-0.0307 5.40301,-0.33706 7.97851,-0.71289 4.27948,4.04708 7.86817,8.91944 10.07032,14.26562 8.8e-4,0.002 0.003,0.004 0.004,0.006 4.83561,12.07484 3.7315,25.90681 5.8125,39.90821 a 3.0003,3.0003 0 0 0 0.0117,0.0703 c 1.42587,8.25682 0.90361,17.15054 2.61328,26.29687 l -0.0508,-0.47851 c 0.26052,10.61969 7.85603,19.47655 18.22461,21.5 10.49264,3.02937 21.65562,-3.79585 23.61719,-14.55274 1.27569,-3.39948 0.67055,-6.89678 -0.98828,-9.43554 -1.67885,-2.56939 -4.23481,-4.31903 -6.99805,-5.20313 -2.76324,-0.88409 -5.89104,-0.94045 -8.58399,0.63282 -2.69294,1.57326 -4.42643,4.84829 -4.43164,8.8125 a 3.0003,3.0003 0 0 0 0.0176,0.3164 c 0.26018,2.48507 1.70113,4.56605 3.49219,5.63086 1.79106,1.06481 3.79805,1.29679 5.66016,0.84961 1.8621,-0.44718 3.81767,-1.78648 4.47851,-4.03125 0.58057,-1.9721 -0.12837,-4.04925 -1.42383,-5.96484 1.12208,0.56601 2.16622,1.32091 2.76563,2.23828 0.78649,1.20369 1.06168,2.37166 0.38867,4.10156 a 3.0003,3.0003 0 0 0 -0.16992,0.63867 c -1.13066,7.44444 -9.02632,12.32319 -16.23438,10.19336 a 3.0003,3.0003 0 0 0 -0.30273,-0.0723 c -7.78827,-1.45007 -13.31911,-7.86991 -13.51367,-15.80079 a 3.0003,3.0003 0 0 0 -0.0488,-0.47851 c -1.53129,-8.19199 -1.01804,-17.05636 -2.59961,-26.21485 l 0.0117,0.0703 c -1.9424,-13.06887 -0.66071,-27.50792 -6.18945,-41.28711 a 3.0003,3.0003 0 0 0 -0.01,-0.0234 c -1.96961,-4.78419 -4.79188,-9.24153 -8.22266,-13.15039 0.0139,-0.002 0.031,-0.006 0.0449,-0.008 a 3.0003,3.0003 0 0 0 0.7539,-0.21094 c 14.64462,-6.25573 19.49176,-14.10679 26.60352,-21.697267 a 3.0003,3.0003 0 0 0 0.27734,-0.345703 c 5.62571,-8.137824 8.42571,-10.714851 11.16016,-22.472656 2.58902,-11.132493 0.82745,-20.86169 -2.32422,-29.689453 a 3.0003,3.0003 0 0 0 -0.16992,-0.384766 c -4.27077,-8.142211 -6.87853,-11.879701 -9.78516,-14.505859 -2.90663,-2.626158 -5.4927,-3.741094 -9.97461,-7.269531 a 3.0003,3.0003 0 0 0 -0.10547,-0.08008 c -4.67062,-3.357087 -14.88132,-9.0777118 -32.98633,-10.3164068 -0.003,-2.54e-4 -0.006,-0.0017 -0.01,-0.00195 -2.99503,-0.2317226 -5.98476,-0.3529673 -8.9707,-0.3359375 z m 0.0391,5.9960934 c 2.8071,-0.01451 5.63792,0.100487 8.49609,0.322266 a 3.0003,3.0003 0 0 0 0.0273,0.002 c 17.02568,1.162934 25.93169,6.353059 29.90234,9.207031 l -0.10352,-0.07813 c 4.85025,3.818413 7.53025,5.077942 9.66407,7.00586 2.11003,1.90643 4.31737,4.924349 8.38281,12.648437 2.88377,8.141117 4.34038,16.378853 2.07422,26.123047 -2.57064,11.053425 -4.42487,12.014522 -10.1543,20.275391 -7.38466,7.926829 -11.05111,14.281294 -24.14648,19.947264 -1.3459,0.19846 -2.7207,0.41654 -4.0918,0.63672 -2.09523,-1.74833 -4.31424,-3.32852 -6.66016,-4.67188 -3.06199,-3.01707 -7.49966,-3.6933 -11.40039,-3.25195 -0.10083,0.0114 -0.19263,0.0476 -0.29297,0.0606 11.6811,-4.437008 18.71737,-8.655372 23.92774,-17.589845 3.00504,-4.499409 5.26217,-9.668737 5.5332,-15.367187 0.27373,-5.75514 -1.57483,-11.93188 -6.24805,-17.947266 a 3.0003,3.0003 0 0 0 -0.31836,-0.349609 c -3.94197,-3.689152 -7.90687,-7.060666 -13.33789,-8.791016 -5.43101,-1.73035 -12.04249,-1.699331 -21.013668,0.630859 a 3.0003,3.0003 0 0 0 -0.144531,0.04297 c -5.919891,1.859516 -10.86216,3.801624 -14.314453,7.605469 -3.452293,3.803844 -4.801382,9.240331 -4.080078,16.441406 a 3.0003,3.0003 0 0 0 0.285156,1.007813 c 2.545425,5.255802 5.611836,8.770007 9.59961,10.529297 3.987773,1.759289 8.402451,1.694057 13.548824,1.060546 a 3.0003,3.0003 0 0 0 0.10938,-0.01563 c 4.34239,-0.696293 7.55007,-2.348106 9.5332,-4.724609 1.98313,-2.376503 2.54747,-5.445172 1.79492,-8.046875 -0.75254,-2.601703 -2.73761,-4.774537 -5.41797,-5.765625 -2.68035,-0.991088 -5.97895,-0.719605 -9.144526,1.005859 l 2.873046,5.267579 c 1.93329,-1.053782 3.26872,-0.987658 4.19141,-0.646485 0.92269,0.341173 1.51181,1.037203 1.73437,1.806641 0.22256,0.769438 0.16317,1.574265 -0.63867,2.535156 -0.79763,0.955842 -2.53533,2.094489 -5.83594,2.632812 -4.705952,0.573413 -7.94694,0.450038 -10.326169,-0.599609 -2.296146,-1.012993 -4.260539,-3.070952 -6.359375,-7.240234 -0.489962,-5.818657 0.503686,-8.933268 2.576172,-11.216797 2.138755,-2.356548 6.007477,-4.125182 11.597656,-5.886719 8.255396,-2.134733 13.533066,-2.005765 17.609376,-0.707031 4.01657,1.279699 7.15777,3.835047 10.86719,7.292969 3.83126,5.00569 5.07046,9.51917 4.86718,13.792968 -0.20588,4.328768 -1.96964,8.528888 -4.60351,12.441407 a 3.0003,3.0003 0 0 0 -0.10352,0.166015 C 121.6207,89.1566 116.37012,92.124381 104.19921,96.617276 91.42678,97.349718 80.088951,97.345536 67.316406,91.169922 58.819525,83.304666 48.674269,75.62719 47.994141,65.238281 c -4.3e-5,-6.51e-4 4.2e-5,-0.0013 0,-0.002 -0.611057,-10.459707 1.903178,-20.99246 8.492187,-28.894531 A 3.0003,3.0003 0 0 0 56.75,35.970703 C 61.994511,27.293085 69.566697,22.552565 81.085938,17.722656 89.25289,14.742793 97.456053,13.533699 105.86133,13.490234 Z m 2.66406,94.126956 c 2.74183,-0.31023 5.91654,0.64469 6.8457,1.75586 a 3.0003,3.0003 0 0 0 0.81836,0.68359 c 0.2674,0.1522 0.50306,0.37006 0.76758,0.5293 -0.35619,0.015 -0.74287,0.0976 -1.09375,0.10156 -3.73826,0.0422 -6.98732,-0.56919 -9.77734,-2.31445 0.63054,-0.30057 1.36466,-0.63425 2.43945,-0.75586 z M 172.25,193.76172 c 0.64341,-0.029 1.38121,0.0598 2.14648,0.30469 0.0527,0.0169 0.0979,0.058 0.1504,0.0762 l -4.23829,3.39453 c 0.96207,1.2016 0.73475,1.52786 0.79297,1.33008 0.0582,-0.19779 0.20276,-0.18566 -0.12304,-0.10742 -0.32581,0.0782 -0.88302,0.0107 -1.19336,-0.17383 -0.28273,-0.16809 -0.44481,-0.38199 -0.53907,-1 0.0565,-2.22824 0.67124,-2.98253 1.41993,-3.41992 0.39093,-0.2284 0.94057,-0.37528 1.58398,-0.4043 z"
         id="path12184" />
    </g>
  </g>
</svg>
