<?xml version="1.0" encoding="UTF-8" standalone="no"?>
<svg
   xmlns:dc="http://purl.org/dc/elements/1.1/"
   xmlns:cc="http://creativecommons.org/ns#"
   xmlns:rdf="http://www.w3.org/1999/02/22-rdf-syntax-ns#"
   xmlns:svg="http://www.w3.org/2000/svg"
   xmlns="http://www.w3.org/2000/svg"
   xmlns:sodipodi="http://sodipodi.sourceforge.net/DTD/sodipodi-0.dtd"
   xmlns:inkscape="http://www.inkscape.org/namespaces/inkscape"
   id="svg2985"
   version="1.1"
   inkscape:version="1.0.1 (3bc2e813f5, 2020-09-07, custom)"
   width="128"
   height="128"
   sodipodi:docname="Postbox-Royal-Cypher-GVIR.svg">
  <metadata
     id="metadata2991">
    <rdf:RDF>
      <cc:Work
         rdf:about="">
        <dc:format>image/svg+xml</dc:format>
        <dc:type
           rdf:resource="http://purl.org/dc/dcmitype/StillImage" />
        <dc:title />
      </cc:Work>
    </rdf:RDF>
  </metadata>
  <defs
     id="defs2989" />
  <sodipodi:namedview
     pagecolor="#ffffff"
     bordercolor="#666666"
     borderopacity="1"
     objecttolerance="10"
     gridtolerance="10"
     guidetolerance="10"
     inkscape:pageopacity="0"
     inkscape:pageshadow="2"
     inkscape:window-width="1920"
     inkscape:window-height="1033"
     id="namedview2987"
     showgrid="false"
     fit-margin-top="0"
     fit-margin-left="0"
     fit-margin-right="0"
     fit-margin-bottom="0"
     inkscape:zoom="6.609375"
     inkscape:cx="64"
     inkscape:cy="64"
     inkscape:window-x="0"
     inkscape:window-y="47"
     inkscape:window-maximized="1"
     inkscape:current-layer="g60469"
     inkscape:document-rotation="0" />
  <g
     id="g60469"
     transform="translate(0.48121933,-143.673)">
    <g
       id="g60449"
       transform="matrix(0.39153006,0,0,0.39153006,0.16646533,106.39928)"
       style="fill:#b12820;fill-opacity:1;stroke:#080000;stroke-width:1.53244939;stroke-miterlimit:4;stroke-dasharray:none;stroke-opacity:1">
      <path
         style="fill:#b12820;fill-opacity:1;stroke:#080000;stroke-width:1.53244939;stroke-miterlimit:4;stroke-dasharray:none;stroke-opacity:1"
         d="m 103.31858,352.5104 c -1.45728,-0.84857 -1.274,-1.33744 1.95676,-5.2194 4.49586,-5.40208 7.95496,-12.2913 9.81294,-19.54366 2.96421,-11.5705 -0.62961,-29.54981 -10.04233,-50.24009 -3.24739,-7.13817 -7.477274,-16.84879 -9.399754,-21.57915 -1.92246,-4.73037 -3.974825,-8.75711 -4.5608,-8.9483 -0.647944,-0.21141 -1.459712,1.54958 -2.071706,4.49421 -1.985793,9.5547 -10.210166,20.32075 -18.641241,24.40216 -2.191044,1.06067 -6.810825,2.52744 -10.266179,3.25949 -25.503338,5.40313 -47.100969,-6.53371 -54.4286634,-30.0823 -2.9142103,-9.36524 -2.8530557,-25.61943 0.132327,-35.17098 4.3398924,-13.88522 11.3764774,-25.19998 22.4165724,-36.04563 12.228375,-12.013 28.664366,-21.60425 44.760801,-26.12025 14.535005,-4.07792 35.334213,-2.03302 49.277573,4.84479 7.85552,3.87488 10.65441,6.28146 13.60023,11.69389 2.27545,4.18074 2.54196,5.45449 2.11847,10.1248 -0.60743,6.69875 -3.22876,11.06449 -8.49739,14.15211 -4.74099,2.77841 -13.13642,3.84865 -17.88832,2.28038 -4.56823,-1.50765 -8.33864,-5.75406 -8.23843,-9.27849 0.14173,-4.98484 5.6735,-8.96544 5.6735,-4.08258 0,2.49359 3.02335,5.775 6.01193,6.52509 4.7832,1.20051 12.22644,-5.03875 12.23561,-10.25643 0.0112,-6.415 -5.73272,-13.43513 -14.1274,-17.26608 -8.64257,-3.94408 -14.957114,-5.32343 -24.196191,-5.28542 -27.18286,0.11182 -54.346152,19.72061 -64.636805,46.66039 -10.675023,27.94601 -4.677572,55.72124 14.201256,65.76847 3.225452,1.71656 13.830061,2.68153 20.506564,1.86599 7.56378,-0.92392 11.980665,-3.11712 17.449858,-8.66467 5.155232,-5.2291 7.316615,-10.66727 8.854148,-22.27758 0.781576,-5.90187 2.034785,-10.56263 3.925931,-14.60076 2.575408,-5.49921 2.799889,-5.73201 3.079786,-3.19391 0.923091,8.37056 4.711719,16.90018 20.266443,45.62737 10.06344,18.58562 13.76629,30.75495 13.74453,45.17111 -0.0201,13.30076 -5.23111,27.29513 -13.67705,36.73003 -4.70418,5.25501 -6.35016,6.0039 -9.35297,4.2554 z"
         id="path3008"
         inkscape:connector-curvature="0" />
      <path
         style="fill:#b12820;fill-opacity:1;stroke:#080000;stroke-width:1.53244939;stroke-miterlimit:4;stroke-dasharray:none;stroke-opacity:1"
         d="m 103.05109,352.50824 c -0.33784,-0.54665 0.67118,-2.70254 2.24227,-4.79087 7.86512,-10.45444 11.55758,-21.81264 10.6209,-32.67046 -1.19266,-13.82507 -4.48471,-24.07752 -15.04928,-46.86795 -0.930624,-2.00761 -2.184264,-4.88213 -2.785854,-6.38783 -4.27171,-10.69149 -6.061072,-14.49482 -6.959998,-14.79358 -0.574718,-0.19101 -1.351767,1.19043 -1.754346,3.11888 -0.937893,4.49275 -0.661202,3.72079 -3.203298,8.93705 -2.641053,5.41932 -2.798451,5.63001 -8.46889,11.33625 -6.09025,6.12871 -15.448759,9.29778 -28.431523,9.62775 -5.019011,0.12758 -9.77309,-0.0991 -10.564619,-0.50379 -0.791529,-0.40465 -2.434115,-0.88057 -3.65019,-1.05759 -1.216076,-0.17703 -3.081008,-0.80211 -4.144294,-1.38907 -1.063286,-0.58696 -2.192563,-0.80789 -2.509505,-0.49095 -0.316943,0.31695 -0.576259,0.19056 -0.576259,-0.28086 0,-0.47141 -1.526709,-1.66913 -3.392687,-2.6616 -2.824947,-1.50251 -8.379162,-6.62806 -12.609376,-11.63622 -0.963425,-1.1406 -5.2124704,-9.87126 -5.2077664,-10.70057 0.0014,-0.25095 -0.395589,-1.48289 -0.88225,-2.73764 -1.933891,-4.98614 -2.4327677,-13.8506 -1.402862,-24.92722 1.414741,-15.21553 9.4723684,-30.66842 22.9344404,-43.98359 9.260745,-9.15969 13.860805,-13.21847 14.98129,-13.21847 0.411607,0 1.54444,-0.724 2.517407,-1.60889 0.972965,-0.88489 3.514276,-2.38452 5.647356,-3.33251 2.133079,-0.94799 3.878327,-2.09613 3.878327,-2.55143 0,-0.4553 0.410646,-0.57402 0.912547,-0.26382 0.501901,0.31019 0.912548,0.0607 0.912548,-0.55451 0,-0.61518 0.26596,-0.85254 0.591021,-0.52748 0.325062,0.32506 2.070309,-0.19398 3.878327,-1.15344 3.164935,-1.67952 12.194229,-4.69572 17.888066,-5.97542 4.68825,-1.05369 20.373294,-0.5054 27.689228,0.96792 7.62285,1.53513 15.64513,4.41365 19.44784,6.97819 1.33223,0.89846 2.87216,1.63356 3.42206,1.63356 0.5499,0 1.00337,0.30798 1.00772,0.68441 0.005,0.37642 1.35259,2.12167 2.99608,3.87832 8.60108,9.19332 5.98886,23.32743 -5.29206,28.63409 -9.19841,4.32703 -20.4863,2.05846 -23.4134,-4.70548 -1.31606,-3.04115 -1.30619,-3.53372 0.12199,-6.09017 1.99545,-3.57186 3.82172,-3.54119 4.76005,0.0799 1.56619,6.04417 10.99905,7.01803 15.27865,1.57739 3.06018,-3.89038 3.26608,-7.69492 0.69037,-12.75567 -2.95635,-5.80862 -5.32773,-7.92151 -12.5066,-11.14332 -11.8404,-5.31388 -21.671498,-6.41438 -34.658202,-3.87966 -11.045604,2.15585 -18.146582,5.40184 -28.271863,12.92359 -9.271545,6.88753 -13.841742,11.66047 -18.832726,19.66818 -13.879109,22.26811 -15.833848,51.46121 -4.512067,67.38554 2.933627,4.12621 8.77937,9.4813 12.587952,11.53139 2.802279,1.50841 13.761944,2.4009 20.05029,1.63278 7.538823,-0.92087 11.775146,-3.03339 17.377188,-8.66544 4.825595,-4.85144 7.400181,-10.61303 8.534429,-19.09893 0.401333,-3.00259 0.782628,-5.66457 0.847323,-5.91552 0.06469,-0.25095 0.477911,-2.09886 0.918259,-4.10646 0.440349,-2.00761 0.846252,-3.85552 0.902007,-4.10647 0.373543,-1.68126 3.64973,-7.30038 4.256436,-7.30038 0.408944,0 0.747977,0.92396 0.753407,2.05324 0.025,5.18826 3.433373,13.24327 13.418257,31.71102 3.93473,7.27757 7.92384,14.97719 8.86468,17.11027 0.94084,2.13308 2.08313,3.87832 2.53842,3.87832 0.4553,0 0.57402,0.41065 0.26383,0.91255 -0.31019,0.5019 -0.19755,0.91255 0.25033,0.91255 0.44787,0 0.84402,0.51331 0.88033,1.14068 0.0363,0.62738 1.34686,4.71781 2.91234,9.08985 1.81883,5.07963 3.23413,11.41961 3.92062,17.56289 0.99701,8.92204 0.92604,10.27117 -0.9865,18.75176 -1.41604,6.27902 -3.2204,11.2052 -5.76712,15.7451 -5.70033,10.1617 -13.68438,16.89172 -15.86105,13.3698 v 0 z"
         id="path3010"
         inkscape:connector-curvature="0" />
      <path
         style="fill:#b12820;fill-opacity:1;stroke:#080000;stroke-width:1.53244939;stroke-miterlimit:4;stroke-dasharray:none;stroke-opacity:1"
         d="m 229.49844,281.68497 -2.97428,-2.65752 8.27867,-3.43146 c 23.00811,-9.53672 40.20104,-27.09158 46.48982,-47.46848 0.84541,-2.7393 1.45012,-8.05199 1.46564,-12.87631 0.0432,-13.42008 -4.49568,-24.85549 -14.52497,-36.59489 -2.23701,-2.61846 -4.0673,-5.12809 -4.0673,-5.57696 0,-0.44887 1.33887,-2.11382 2.97526,-3.69987 l 2.97527,-2.88374 4.22412,3.38914 c 7.09165,5.68984 14.74632,15.39087 19.23543,24.37773 6.47607,12.96458 6.29443,30.29076 -0.4592,43.80228 -9.23774,18.48129 -24.84905,32.76768 -45.5668,41.69959 -11.45382,4.93801 -14.33179,5.24419 -18.05166,1.92049 z"
         id="path3012"
         inkscape:connector-curvature="0" />
      <path
         style="fill:#b12820;fill-opacity:1;stroke:#080000;stroke-width:1.53244939;stroke-linecap:butt;stroke-linejoin:miter;stroke-miterlimit:4;stroke-dasharray:none;stroke-opacity:1"
         d="m 115.07353,356.54026 c -5.44883,-0.52848 -11.22048,-2.67104 -17.647059,-8.08824"
         id="path3800"
         inkscape:connector-curvature="0"
         sodipodi:nodetypes="cc" />
      <path
         style="fill:#b12820;fill-opacity:1;stroke:#080000;stroke-width:1.53244939;stroke-linecap:butt;stroke-linejoin:miter;stroke-miterlimit:4;stroke-dasharray:none;stroke-opacity:1"
         d="M 102.57353,367.93732 C 96.446079,365.03075 90.318627,360.91528 84.191176,355.06967"
         id="path3802"
         inkscape:connector-curvature="0"
         sodipodi:nodetypes="cc" />
      <g
         id="g52345"
         style="fill:#b12820;fill-opacity:1;stroke:#080000;stroke-width:1.53244939;stroke-miterlimit:4;stroke-dasharray:none;stroke-opacity:1">
        <path
           inkscape:connector-curvature="0"
           id="path3019"
           d="m 59.433462,372.60036 c -15.88776,-2.41271 -31.77106,-12.86504 -37.61931,-24.75616 -3.28781,-6.68502 -3.26424,-16.84659 0.0549,-23.65157 2.42742,-4.97681 4.74076,-7.02133 9.07275,-8.01846 4.12425,-0.94932 5.00282,0.25671 3.71145,5.09484 -2.39628,8.97765 1.80767,21.88014 9.424,28.92358 4.57591,4.2317 13.49415,8.12304 20.28271,8.85003 5.62067,0.60192 18.15391,-0.71273 20.75259,-2.1768 0.37349,-0.21042 -1.4631,-2.61682 -4.0813,-5.34755 -7.83708,-8.17392 -13.78242,-22.95762 -12.46663,-30.99958 1.17674,-7.19213 1.80892,-8.91752 5.00365,-13.65637 5.55783,-8.24408 14.91113,-13.34873 24.45905,-13.34873 9.157888,0 11.785648,4.20815 4.205118,6.73415 -5.002648,1.66699 -10.127058,6.67053 -13.411118,13.09479 -1.89481,3.70662 -2.38532,6.21959 -2.37568,12.17106 0.0142,8.7426 2.43552,14.59006 8.48948,20.5016 l 3.70535,3.61817 4.601238,-5.11769 c 2.53069,-2.81473 5.76122,-6.76165 7.39651,-10.80989 2.05036,-5.07576 3.02355,-10.7252 2.74199,-16.19219 -0.7028,-13.64604 -1.80236,-19.98063 -10.96012,-39.5 -2.838428,-6.05 -5.966754,-13.12842 -6.951838,-15.72982 -0.862475,-2.27761 -1.746165,-3.66051 -2.414236,-4.02092 -0.668072,-0.36042 -1.120524,0.30166 -1.120524,2.11398 0,3.17361 -5.56437,10.57328 -11.07429,14.72692 -7.04835,5.31338 -13.67983,8.28471 -22.50795,10.08502 -17.30887,3.52979 -38.69513,-5.59037 -49.3194097,-21.03223 -7.81995,-11.3659 -11.09212,-31.58374 -7.63015,-47.1446 6.68045,-30.02738 37.6014497,-60.20406 70.2432997,-68.55244 18.57747,-4.75132 45.782168,-0.86074 60.025248,8.58427 7.73203,5.12735 10.65642,10.12397 11.10317,18.97092 0.39545,7.831 -1.36163,12.87031 -5.9926,17.18683 -10.83893,10.10295 -31.95658,7.60114 -35.86755,-4.24923 -2.196008,-6.65398 3.71488,-14.32359 9.97875,-12.94781 2.61728,0.57485 2.95489,1.00592 2.42897,3.10137 -0.78299,3.11967 1.12359,5.41202 4.48495,5.39243 3.32225,-0.0194 4.35857,-0.78094 5.93388,-4.36069 1.79885,-4.08771 0.006,-8.77282 -4.99515,-13.05364 -5.95028,-5.09321 -16.3646,-6.78417 -25.045638,-7.31234 -8.489017,-0.51649 -17.626312,0.2166 -25.177891,4.12861 -15.217215,7.88311 -27.424492,21.8434 -36.062228,36.64531 -4.800529,8.22635 -8.039453,17.94495 -7.871851,27.46806 0.177886,10.10746 2.631141,21.31119 9.37556,28.84148 5.612522,6.2665 15.03261,11.11205 22.99958,10.38963 15.0104,-1.36109 24.30712,-11.99013 25.96733,-29.68873 0.97383,-10.38153 4.73159,-20.02346 8.61341,-22.10095 3.5895,-1.92105 5.04593,0.0814 6.82604,9.3852 1.51245,7.90485 3.971928,12.81476 16.116398,32.17337 9.00163,14.34886 14.37383,25.4963 16.89586,39.63518 1.80171,10.10066 1.12834,20.8338 -1.53593,30.74194 -2.25114,8.37175 -6.28,16.52641 -11.9045,23.12288 -2.18684,2.475 -3.9831,4.8375 -3.99169,5.25 -0.0498,2.39028 14.18697,2.15316 23.0782,-2.33575 3.93899,-1.98868 9.75823,-8.01564 13.72081,-12.87804 6.63528,-8.14201 11.95761,-17.37643 16.48329,-26.8547 3.85136,-8.06602 12.18001,-24.0493 8.95352,-25.27601 -14.17051,-5.38762 -23.48077,-14.33528 -25.72336,-24.72155 -2.44341,-11.31629 10.88126,-15.45047 30.02128,-9.31455 4.92285,1.57818 11.11645,4.04108 12.00677,4.41905 l 1.89473,-4.48182 c 0.99264,-2.34801 2.3233,-5.65663 3.06881,-7.30663 0.74551,-1.65 2.54628,-5.88855 4.00171,-9.419 9.35069,-22.68198 22.38442,-43.85304 37.449,-60.82947 l 8.93926,-10.07375 -4.58625,-2.1558 c -7.40388,-3.48023 -19.89364,-6.12623 -32.79214,-6.94713 -15.41258,-0.98091 -22.83656,0.40018 -30.47629,5.66954 -4.53356,3.12693 -5.74274,4.62222 -7.22343,8.9326 -2.92367,8.51094 0.46535,13.96739 6.86433,11.05182 2.1924,-0.99893 2.4231,-1.58343 1.90465,-4.82563 -0.53144,-3.3234 -0.34179,-3.7513 1.91342,-4.31732 2.91578,-0.73182 8.15763,1.60298 10.71383,4.7721 2.50309,3.10327 2.20994,8.53363 -0.69115,12.80298 -6.44196,9.48018 -23.64427,10.57454 -33.50788,2.13165 -13.51405,-11.56752 -6.7216,-32.37183 13.97148,-42.79269 10.92438,-5.50143 17.7269,-6.9323 32.49979,-6.8361 18.37764,0.11966 34.15711,3.31185 49.40589,9.99482 4.67877,2.05054 5.6203,2.18068 7,0.96758 3.22795,-2.83817 14.38252,-7.74673 21.00051,-9.24127 7.72195,-1.74383 13.45618,-0.85174 16.55827,2.57603 1.99822,2.20801 1.98622,2.21671 -6.96467,5.04892 -4.58814,1.45177 -19.5,9.79374 -19.5,10.90866 0,0.40893 1.1716,1.37052 2.60356,2.13688 1.43195,0.76636 6.17542,5.16681 10.54102,9.77877 11.97838,12.65433 17.42621,24.66487 17.76511,39.16581 0.31031,13.27759 -4.54186,25.88293 -12.01234,36.15116 -11.35143,15.60263 -27.1872,27.81259 -46.64735,34.27387 -4.5375,1.50657 -8.25,3.15226 -8.25,3.65709 12.17753,13.30916 20.82078,25.85115 29.11813,37.91788 12.23931,17.86021 17.4444,23.96754 23.40274,27.45936 8.34174,4.88859 16.87883,3.04313 25.09852,-5.42551 2.7888,-2.87326 4.51119,-3.92097 5.69752,-3.46574 4.38598,1.68307 2.37247,10.53933 -3.67956,16.18421 -7.58902,7.07847 -24.31366,10.22794 -36.1072,6.79947 -7.09576,-2.0628 -14.81081,-6.85033 -20.47866,-12.70792 -9.57687,-9.89748 -32.3646,-43.21756 -40.75648,-59.59387 l -1.66543,-3.25 h -9.16292 -9.16291 l -5.79135,14.40207 -4.77483,10.49539 c -1.19983,2.41835 -2.50016,4.78703 -3.84114,7.13007 -0.96931,1.69365 -2.00464,3.3489 -3.03743,5.00461 -2.59222,4.15569 -4.77854,8.62043 -7.92843,12.3711 -7.16364,8.52995 -14.67834,17.54998 -24.59559,22.62205 -9.64925,4.93501 -21.03252,7.12445 -31.85363,6.51971 -6.44627,-0.36025 -18.424691,-5.97401 -18.424691,-5.97401 -1.760006,0.19516 -5.863332,2.07752 -10.024957,3.47179 -9.461731,3.16997 -21.68033,4.38816 -30.5317,3.04399 z m 149.499998,-91.55159 -2,-1.53518 -1.42505,-0.8272 -1.21079,1.81982 2.38584,0.31805 z m -22.1449,-9.93328 c -0.76687,-0.81713 -3.48735,-1.72502 -6.62534,-2.94361 -5.73939,-2.22881 -8.22976,-2.14602 -8.22976,0.27362 0,1.96204 5.06553,5.1736 8.14516,6.99814 1.27664,0.75635 4.1664,1.5678 4.1664,1.5678 z m 43.76726,2.82743 c 28.47563,-9.2923 49.3859,-33.90812 49.52864,-58.3057 0.0619,-10.57585 -0.82789,-14.62081 -4.86651,-22.12363 -3.90827,-7.26067 -11.76116,-17 -13.70722,-17 -0.69745,0 -4.1129,3.7125 -7.58989,8.25 -5.74349,7.49529 -19.17032,33.33408 -35.20551,67.75 -1.66567,3.575 -4.09032,8.60737 -5.3881,11.18304 l -2.3596,4.68305 5.73289,4.06695 c 3.15309,2.23683 5.78796,4.06696 5.85527,4.06696 0.0673,0 3.66732,-1.1568 8.00003,-2.57067 z M 126.70938,247.04411 c -0.94824,-1.2859 -5.13452,-8.95844 -9.30283,-17.05008 -9.36727,-18.18398 -9.99533,-19.14371 -13.02572,-19.90429 -1.34606,-0.33784 -2.44737,-1.05568 -2.44737,-1.5952 0,-0.5844 4.6489,-0.98095 11.5,-0.98095 6.325,0 11.5,0.30207 11.5,0.67126 0,0.36919 -0.63538,1.38169 -1.41195,2.25 -1.23334,1.37903 -0.86859,2.62145 2.88349,9.82159 4.82914,9.26701 4.5889,9.2925 9.38227,-0.99552 3.6475,-7.82862 3.74751,-8.57038 1.39619,-10.35528 -1.49823,-1.13732 -0.49114,-1.33302 7,-1.36025 8.89737,-0.0323 10.29238,0.52388 6.79379,2.70878 -1.07592,0.67193 -5.81779,8.99267 -10.53749,18.49055 -4.7197,9.49788 -9.35191,18.02679 -10.29379,18.95313 -0.80366,0.7904 -1.25826,1.17556 -1.71422,1.08882 -0.45597,-0.0867 -0.91329,-0.64537 -1.72237,-1.74256 z m 29.22408,-0.53052 c 0,-0.55 0.83026,-1 1.84501,-1 4.23461,0 5.15499,-2.89305 5.15499,-16.20374 0,-16.25251 -0.45061,-18.40909 -4.11334,-19.68593 -5.57567,-1.94369 -2.77221,-2.6985 9.36334,-2.52101 6.7375,0.0985 12.475,0.23294 12.75,0.29866 0.275,0.0657 -0.9625,1.0112 -2.75,2.10106 l -3.25,1.98156 v 15.35971 c 0,13.61025 0.20829,15.54822 1.82874,17.0147 1.00581,0.91025 2.35581,1.65499 3,1.65499 0.64419,0 1.17126,0.45 1.17126,1 0,0.61333 -4.83333,1 -12.5,1 -7.66667,0 -12.5,-0.38667 -12.5,-1 z"
           style="fill:#b12820;fill-opacity:1;stroke:#080000;stroke-width:1.53244939;stroke-miterlimit:4;stroke-dasharray:none;stroke-opacity:1"
           sodipodi:nodetypes="cssssssssssssssscsaassssssssssssssscssaaaaasssssaaccsaassscsssscsssssssssssssssssssssasccsssssssccccaaaaaacscccccccccssaccssssssscsssssssssssssssssssssssscscssssss" />
        <path
           sodipodi:nodetypes="cc"
           inkscape:connector-curvature="0"
           id="path3804"
           d="m 263.2353,155.06967 c -7.66115,4.8871 -12.39065,8.58173 -16.17648,12.5"
           style="fill:#b12820;fill-opacity:1;stroke:#080000;stroke-width:1.53244939;stroke-linecap:butt;stroke-linejoin:miter;stroke-miterlimit:4;stroke-dasharray:none;stroke-opacity:1" />
        <path
           sodipodi:nodetypes="cc"
           inkscape:connector-curvature="0"
           id="path3806"
           d="m 275,163.15791 c -5.88235,4.16667 -10.78431,8.82353 -14.70588,13.97059"
           style="fill:#b12820;fill-opacity:1;stroke:#080000;stroke-width:1.53244939;stroke-linecap:butt;stroke-linejoin:miter;stroke-miterlimit:4;stroke-dasharray:none;stroke-opacity:1" />
        <path
           inkscape:connector-curvature="0"
           id="path3808"
           d="M 205.04742,279.39966 212.5,264.99614"
           style="fill:#b12820;fill-opacity:1;stroke:#080000;stroke-width:1.53244939;stroke-linecap:butt;stroke-linejoin:miter;stroke-miterlimit:4;stroke-dasharray:none;stroke-opacity:1"
           sodipodi:nodetypes="cc" />
        <path
           sodipodi:nodetypes="cc"
           inkscape:connector-curvature="0"
           id="path3810"
           d="M 186.17316,272.46247 193.75,255.80497"
           style="fill:#b12820;fill-opacity:1;stroke:#080000;stroke-width:1.53244939;stroke-linecap:butt;stroke-linejoin:miter;stroke-miterlimit:4;stroke-dasharray:none;stroke-opacity:1" />
        <path
           sodipodi:nodetypes="cc"
           inkscape:connector-curvature="0"
           id="path3812"
           d="m 200.08018,293.44871 c -9.79016,-0.37453 -16.62584,-2.22631 -22.50665,-4.55551"
           style="fill:#b12820;fill-opacity:1;stroke:#080000;stroke-width:1.53244939;stroke-linecap:butt;stroke-linejoin:miter;stroke-miterlimit:4;stroke-dasharray:none;stroke-opacity:1" />
        <path
           sodipodi:nodetypes="cc"
           inkscape:connector-curvature="0"
           id="path3814"
           d="m 204.87619,280.58106 c -9.38224,-0.17639 -14.88532,-0.73777 -22.52325,-4.18786"
           style="fill:#b12820;fill-opacity:1;stroke:#080000;stroke-width:1.53244939;stroke-linecap:butt;stroke-linejoin:miter;stroke-miterlimit:4;stroke-dasharray:none;stroke-opacity:1" />
      </g>
      <g
         id="g60443"
         style="fill:#b12820;fill-opacity:1;stroke:#080000;stroke-width:1.53244939;stroke-miterlimit:4;stroke-dasharray:none;stroke-opacity:1">
        <path
           sodipodi:nodetypes="cac"
           inkscape:connector-curvature="0"
           id="path52354"
           d="m 102.1028,367.51126 c 0,0 -7.623297,-4.12743 -11.21495,-6.54206 -2.120126,-1.42534 -6.074766,-4.67289 -6.074766,-4.67289"
           style="fill:#b12820;fill-opacity:1;stroke:#080000;stroke-width:1.53244939;stroke-linecap:butt;stroke-linejoin:miter;stroke-miterlimit:4;stroke-dasharray:none;stroke-opacity:1" />
        <path
           sodipodi:nodetypes="cac"
           inkscape:connector-curvature="0"
           id="path52356"
           d="m 114.01869,356.29631 c 0,0 -5.22735,-1.65749 -7.71028,-2.80374 -3.00831,-1.38879 -8.644859,-4.90654 -8.644859,-4.90654"
           style="fill:#b12820;fill-opacity:1;stroke:#080000;stroke-width:1.53244939;stroke-linecap:butt;stroke-linejoin:miter;stroke-miterlimit:4;stroke-dasharray:none;stroke-opacity:1" />
        <path
           sodipodi:nodetypes="cac"
           inkscape:connector-curvature="0"
           id="path52358"
           d="m 221.49909,275.79087 c 0,0 6.11885,4.69155 9.05545,7.18686 2.71389,2.30607 7.90555,7.18686 7.90555,7.18686"
           style="fill:#b12820;fill-opacity:1;stroke:#080000;stroke-width:1.53244939;stroke-linecap:butt;stroke-linejoin:miter;stroke-miterlimit:4;stroke-dasharray:none;stroke-opacity:1" />
        <path
           sodipodi:nodetypes="cac"
           inkscape:connector-curvature="0"
           id="path52360"
           d="m 219.05556,294.33297 c 0,0 -2.93696,-5.68348 -4.89113,-8.19302 -1.58135,-2.03078 -5.45796,-5.46202 -5.45796,-5.46202"
           style="fill:#b12820;fill-opacity:1;stroke:#080000;stroke-width:1.53244939;stroke-linecap:butt;stroke-linejoin:miter;stroke-miterlimit:4;stroke-dasharray:none;stroke-opacity:1" />
      </g>
    </g>
  </g>
</svg>
