<?xml version="1.0" encoding="UTF-8" standalone="no"?>
<svg
   xmlns:dc="http://purl.org/dc/elements/1.1/"
   xmlns:cc="http://creativecommons.org/ns#"
   xmlns:rdf="http://www.w3.org/1999/02/22-rdf-syntax-ns#"
   xmlns:svg="http://www.w3.org/2000/svg"
   xmlns="http://www.w3.org/2000/svg"
   xmlns:sodipodi="http://sodipodi.sourceforge.net/DTD/sodipodi-0.dtd"
   xmlns:inkscape="http://www.inkscape.org/namespaces/inkscape"
   id="svg2985"
   version="1.1"
   inkscape:version="1.0.1 (3bc2e813f5, 2020-09-07, custom)"
   width="128"
   height="128"
   sodipodi:docname="Postbox-Royal-Cypher-EVIIR.svg">
  <metadata
     id="metadata2991">
    <rdf:RDF>
      <cc:Work
         rdf:about="">
        <dc:format>image/svg+xml</dc:format>
        <dc:type
           rdf:resource="http://purl.org/dc/dcmitype/StillImage" />
        <dc:title />
      </cc:Work>
    </rdf:RDF>
  </metadata>
  <defs
     id="defs2989">
    <inkscape:perspective
       sodipodi:type="inkscape:persp3d"
       inkscape:vp_x="0 : -194.99435 : 1"
       inkscape:vp_y="0 : 1000 : 0"
       inkscape:vp_z="1 : -194.99435 : 1"
       inkscape:persp3d-origin="0.5 : -195.16102 : 1"
       id="perspective31081" />
    <inkscape:perspective
       sodipodi:type="inkscape:persp3d"
       inkscape:vp_x="0 : -194.99435 : 1"
       inkscape:vp_y="0 : 1000 : 0"
       inkscape:vp_z="1 : -194.99435 : 1"
       inkscape:persp3d-origin="0.5 : -195.16102 : 1"
       id="perspective17863" />
    <inkscape:perspective
       id="perspective3315"
       inkscape:persp3d-origin="775 : 304.50565 : 1"
       inkscape:vp_z="1550 : 554.50565 : 1"
       inkscape:vp_y="0 : 1000 : 0"
       inkscape:vp_x="0 : 554.50565 : 1"
       sodipodi:type="inkscape:persp3d" />
  </defs>
  <sodipodi:namedview
     pagecolor="#ffffff"
     bordercolor="#666666"
     borderopacity="1"
     objecttolerance="10"
     gridtolerance="10"
     guidetolerance="10"
     inkscape:pageopacity="0"
     inkscape:pageshadow="2"
     inkscape:window-width="1920"
     inkscape:window-height="1033"
     id="namedview2987"
     showgrid="false"
     fit-margin-top="0"
     fit-margin-left="0"
     fit-margin-right="0"
     fit-margin-bottom="0"
     inkscape:zoom="6.609375"
     inkscape:cx="64"
     inkscape:cy="64"
     inkscape:window-x="0"
     inkscape:window-y="47"
     inkscape:window-maximized="0"
     inkscape:current-layer="g6882"
     inkscape:document-rotation="0"
     units="px" />
  <g
     id="g6882"
     style="opacity:1;fill:#b12820;fill-opacity:1;stroke:#000000;stroke-width:1.27657;stroke-miterlimit:4;stroke-dasharray:none;stroke-opacity:1"
     transform="matrix(0.39167596,0,0,0.39167596,6.8016743,0.64746955)">
    <path
       sodipodi:nodetypes="aaaaaaaaaaaaaaacaaaaaacca"
       inkscape:connector-curvature="0"
       id="path8696"
       d="m 169.73868,169.20624 c -3.01408,0.74647 -6.02463,1.69829 -8.76072,3.16652 -3.85399,2.0681 -7.36665,4.80574 -10.53889,7.81692 -3.54136,3.36156 -6.93618,7.03767 -9.32716,11.29496 -2.55166,4.54339 -4.42888,9.60715 -5.11261,14.77298 -0.58575,4.42545 -0.3388,9.08135 0.93656,13.35933 1.1007,3.6921 3.0324,7.25137 5.63707,10.09018 2.7074,2.95077 6.14823,5.46874 9.94629,6.73832 3.72342,1.24464 7.92724,1.42119 11.76324,0.58566 2.65527,-0.57835 5.26745,-1.88196 7.23628,-3.7551 1.90008,-1.80773 3.28218,-4.26291 3.96715,-6.79451 0.77459,-2.86285 0.72171,-6.02073 0,-8.89737 -0.58523,-2.33262 -1.54779,-4.83336 -3.40579,-6.36026 -2.23544,-1.83708 -5.41319,-2.71294 -8.30128,-2.53711 -3.06902,0.18684 -6.45119,1.39218 -8.42909,3.74626 -1.65604,1.97102 -1.87313,7.49252 -1.87313,7.49252 0,0 -1.84418,-1.69657 -2.34141,-2.80969 -1.23702,-2.76923 -1.6664,-5.98976 -1.31902,-9.00276 0.28389,-2.46226 1.61951,-4.6999 2.72387,-6.91885 1.46715,-2.94789 3.02321,-5.91619 5.15111,-8.42909 2.00225,-2.36452 4.46578,-4.34002 7.02423,-6.08767 2.76746,-1.89041 5.64374,-3.87889 8.89737,-4.68283 1.96998,-0.48676 6.08768,0 6.08768,0 l -0.93657,-14.04848 c 0,0 -6.07668,0.52984 -9.02518,1.26007 z"
       style="fill:#b12820;fill-opacity:1;stroke:#000000;stroke-width:1.27657;stroke-linecap:butt;stroke-linejoin:miter;stroke-miterlimit:4;stroke-dasharray:none;stroke-opacity:1" />
    <g
       aria-label="VII"
       id="text3008"
       style="font-style:normal;font-variant:normal;font-weight:normal;font-stretch:normal;line-height:0%;font-family:'Poor Richard';-inkscape-font-specification:'Poor Richard';letter-spacing:0px;word-spacing:0px;fill:#b12820;fill-opacity:1;stroke:#000000;stroke-width:0.3977281;stroke-miterlimit:4;stroke-dasharray:none;stroke-opacity:1"
       transform="matrix(3.8515723,0,0,3.8515723,304.28787,-141.00894)">
      <path
         d="m -46.536774,112.36761 -5.009765,-13.122073 h 1.854492 l 4.157226,11.047853 4.166016,-11.047853 h 1.845703 l -5.000976,13.122073 z"
         style="font-size:18px;line-height:1.25;fill:#b12820;fill-opacity:1;stroke:#000000;stroke-width:0.3977281;stroke-miterlimit:4;stroke-dasharray:none;stroke-opacity:1"
         id="path12186" />
      <path
         d="m -37.607086,99.245537 h 1.77539 v 13.122073 h -1.77539 z"
         style="font-size:18px;line-height:1.25;fill:#b12820;fill-opacity:1;stroke:#000000;stroke-width:0.3977281;stroke-miterlimit:4;stroke-dasharray:none;stroke-opacity:1"
         id="path12188" />
      <path
         d="m -32.298492,99.245537 h 1.77539 v 13.122073 h -1.77539 z"
         style="font-size:18px;line-height:1.25;fill:#b12820;fill-opacity:1;stroke:#000000;stroke-width:0.3977281;stroke-miterlimit:4;stroke-dasharray:none;stroke-opacity:1"
         id="path12190" />
    </g>
    <path
       sodipodi:nodetypes="aaaaaaaaaaaaaaaaaaaaaaaaaaaaaaaaaaaaaaaaaaaaca"
       inkscape:connector-curvature="0"
       id="path8694"
       d="m 270.06201,229.2912 c -0.15043,2.49044 -1.08247,5.25242 -2.98842,6.86248 -2.65126,2.23967 -6.80556,3.57505 -10.10653,2.50317 -3.22617,-1.0476 -5.52121,-4.55239 -6.55595,-7.78271 -1.21333,-3.78782 -0.63895,-8.24962 0.95424,-11.894 1.66446,-3.80741 4.64814,-7.48031 8.44427,-9.17036 4.55349,-2.02723 10.23618,-1.77975 14.95218,-0.16628 4.90364,1.67767 9.16337,5.44794 12.18297,9.66009 2.8365,3.95674 4.40536,8.91063 4.91937,13.75184 0.69212,6.51869 -0.41731,13.30947 -2.58807,19.49495 -2.18055,6.21339 -5.73143,12.08373 -10.2082,16.91277 -3.35842,3.62269 -7.68416,6.32705 -12.0725,8.59538 -3.30272,1.70717 -6.87818,2.98413 -10.53194,3.67147 -4.20836,0.79167 -8.59193,1.02323 -12.838,0.4683 -6.87946,-0.89911 -13.70377,-2.97041 -19.90643,-6.07884 -5.1916,-2.60174 -9.70474,-6.44817 -14.04848,-10.30221 -4.95648,-4.3977 -9.79589,-9.07752 -13.5802,-14.51677 -3.58812,-5.15726 -6.21301,-10.97932 -8.42909,-16.85818 -2.16347,-5.7393 -3.46662,-11.783 -4.68282,-17.79474 -1.96974,-9.73653 -2.88639,-19.65722 -4.21455,-29.5018 -1.32536,-9.8239 -1.58679,-19.82698 -3.74626,-29.50181 -1.21514,-5.44408 -2.42058,-11.05758 -5.15111,-15.92161 -1.17713,-2.09688 -2.81276,-3.984 -4.70327,-5.47011 -2.15433,-1.69349 -4.67844,-3.01742 -7.3228,-3.73604 -2.08272,-0.56599 -4.47649,-1.22379 -6.46354,-0.38133 -2.12682,0.90172 -2.34334,4.47315 -4.51664,5.25627 -1.11537,0.4019 -2.38887,-0.20177 -3.5059,-0.59904 -2.0306,-0.72218 -5.19755,-1.06839 -5.62962,-3.17983 -0.66535,-3.25141 3.29077,-6.06225 6.0487,-7.90838 3.26533,-2.18579 7.46379,-2.81711 11.38613,-3.0523 4.04914,-0.24279 8.19828,0.4411 12.04653,1.72386 4.11033,1.37011 8.18214,3.344 11.39828,6.24717 3.33584,3.01122 5.82754,6.99284 7.65203,11.09973 2.47479,5.5707 3.07992,11.80559 4.21454,17.79474 2.46537,13.01357 3.44827,26.26987 5.61939,39.33575 1.5105,9.0902 2.31475,18.39292 5.15111,27.16039 1.69801,5.24873 4.01178,10.36363 7.02424,14.98505 4.41027,6.76577 9.51091,13.35088 15.92161,18.26302 5.6522,4.33094 12.26092,7.76585 19.19959,9.36565 4.49423,1.0362 9.41704,1.31059 13.83643,-0.009 4.30792,-1.28615 8.13142,-4.18246 11.28454,-7.38717 3.04597,-3.0958 5.29012,-7.00554 6.95831,-11.01541 1.57541,-3.78686 2.91882,-7.89624 2.74626,-11.9941 -0.22373,-5.31311 -1.40872,-11.14703 -4.85546,-15.19662 -1.47501,-1.733 -6.08767,-3.09042 -6.08767,-3.09042 0,0 2.98898,6.10795 2.79273,9.35698 z"
       style="fill:#b12820;fill-opacity:1;stroke:#000000;stroke-width:1.27657;stroke-linecap:butt;stroke-linejoin:miter;stroke-miterlimit:4;stroke-dasharray:none;stroke-opacity:1" />
    <path
       sodipodi:nodetypes="caaaaaaaaaaaaaaaacaaaaaacc"
       inkscape:connector-curvature="0"
       id="path8706"
       d="m 145.98408,29.334512 c 0,0 -9.01483,0.50134 -13.48129,1.12125 -4.03371,0.55985 -8.10136,1.13409 -11.99066,2.34141 -5.39414,1.67445 -10.76022,3.74066 -15.54567,6.74065 -4.01137,2.51472 -7.645409,5.70446 -10.763934,9.26673 -3.463507,3.95634 -6.487737,8.40453 -8.620342,13.21083 -2.59165,5.84086 -4.469089,12.16289 -4.87408,18.54005 -0.440981,6.94387 0.06143,14.26308 2.710784,20.696788 1.824821,4.43141 4.912607,8.51653 8.712684,11.4366 2.275525,1.74857 5.104428,3.00118 7.960808,3.27798 3.16887,0.30709 6.52644,-0.43269 9.36565,-1.87313 1.77348,-0.89975 3.3519,-2.33933 4.39923,-4.02986 1.48674,-2.39979 2.28032,-5.31658 2.34142,-8.13892 0.0807,-3.728548 -0.33902,-7.929318 -2.62502,-10.875978 -1.38535,-1.78572 -3.74793,-2.88473 -5.98876,-3.17907 -2.06482,-0.27122 -4.26618,0.39529 -6.08767,1.40485 -1.35155,0.74909 -2.762282,1.82132 -3.277984,3.27798 -0.995249,2.8112 0.936566,8.897368 0.936566,8.897368 0,0 -3.954703,-1.26245 -5.151109,-2.809698 -2.755822,-3.56396 -3.212895,-8.60723 -3.277978,-13.11191 -0.09466,-6.55156 1.456428,-13.25614 4.214543,-19.19959 2.466417,-5.31488 6.454092,-9.90211 10.678162,-13.9627 2.69817,-2.59374 5.85354,-4.7502 9.18097,-6.46362 3.85307,-1.9841 8.01276,-3.48322 12.26769,-4.30689 4.04898,-0.7838 12.36003,-0.55405 12.36003,-0.55405 z"
       style="fill:#b12820;fill-opacity:1;stroke:#000000;stroke-width:1.27657;stroke-linecap:butt;stroke-linejoin:miter;stroke-miterlimit:4;stroke-dasharray:none;stroke-opacity:1" />
    <path
       sodipodi:nodetypes="aaccaaaaaaaaaaaaaaaaaaaaaaaaccaaaaaaaaaaaaaaaaaaa"
       inkscape:connector-curvature="0"
       id="path8692"
       d="m 94.004703,150.15143 c 4.023871,-3.21975 8.192487,-6.30015 12.643637,-8.89737 2.71864,-1.58631 8.53056,-4.04923 8.53056,-4.04923 l 0.934,-11.21941 c 0,0 -11.92227,3.54914 -17.425371,6.37127 -4.199138,2.15342 -7.944509,5.11245 -11.707066,7.96081 -2.981998,2.25746 -6.01537,4.50556 -8.590516,7.21795 -5.46641,5.75774 -10.099892,12.3033 -14.355331,19.00587 -3.59275,5.65879 -6.85751,11.57871 -9.36565,17.79474 -1.88541,4.67269 -3.30914,9.56005 -4.21454,14.51676 -1.06916,5.8532 -1.48248,11.84522 -1.40486,17.79475 0.11671,8.94576 0.82897,17.9676 2.8097,26.6921 1.65051,7.27003 4.33583,14.319 7.49252,21.07272 2.99259,6.40262 6.72591,12.46731 10.7705,18.26303 2.53924,3.63861 5.264397,7.19223 8.42909,10.30221 5.390201,5.29701 11.46637,9.9176 17.794739,14.04849 4.736365,3.0917 9.767005,5.77818 14.985045,7.9608 7.69716,3.21959 15.67235,6.00701 23.88242,7.49252 5.6915,1.02981 11.54563,1.12575 17.32646,0.93657 7.85649,-0.25711 15.78959,-0.89733 23.41413,-2.8097 6.66351,-1.67133 13.18008,-4.18173 19.19959,-7.49252 8.31612,-4.57395 16.00843,-10.38121 22.94585,-16.85818 5.82899,-5.44211 11.27663,-11.46972 15.45332,-18.26303 4.61606,-7.50792 8.1384,-15.80699 10.30222,-24.35068 2.00201,-7.90476 2.99574,-16.22266 2.34141,-24.3507 -0.78989,-9.8121 -3.21241,-19.7006 -7.49252,-28.56524 -3.6762,-7.61386 -8.89558,-14.67618 -15.21104,-20.29759 -5.02902,-4.47634 -11.12783,-7.86452 -17.4579,-10.15775 -4.35219,-1.57669 -13.69104,-2.32445 -13.69104,-2.32445 l 1.40485,14.51676 c 0,0 12.66037,2.86848 17.79474,6.55596 5.86094,4.2093 10.24193,10.46092 13.58019,16.85817 3.61068,6.91929 5.6612,14.72432 6.55596,22.47758 0.66309,5.74578 0.14371,11.64431 -0.93656,17.32645 -1.38291,7.27391 -3.74397,14.4348 -7.02424,21.07272 -2.34004,4.73525 -5.47252,9.09087 -8.89737,13.11191 -4.8688,5.71633 -10.34121,11.00418 -16.3899,15.45333 -4.61662,3.39578 -9.69933,6.21417 -14.98504,8.42909 -6.74336,2.82573 -13.82292,5.14 -21.07272,6.08766 -7.27619,0.95112 -14.74474,0.56802 -22.00928,-0.46828 -6.55979,-0.93577 -13.10371,-2.55367 -19.19959,-5.1511 -8.05322,-3.43144 -15.45114,-8.35923 -22.477571,-13.5802 -5.23386,-3.889 -10.389875,-8.0635 -14.516762,-13.11191 -5.625115,-6.88119 -10.129821,-14.75515 -13.580201,-22.94585 -3.26332,-7.74664 -5.45377,-16.01734 -6.55595,-24.3507 -1.08474,-8.20157 -1.22552,-16.63726 0,-24.81898 1.49944,-10.0104 4.555762,-19.88984 8.89737,-29.03352 3.107491,-6.54456 7.346273,-12.58352 12.078489,-18.06931 2.643332,-3.06427 5.834424,-5.62617 8.994228,-8.15452 z"
       style="fill:#b12820;fill-opacity:1;stroke:#000000;stroke-width:1.27657;stroke-linecap:butt;stroke-linejoin:miter;stroke-miterlimit:4;stroke-dasharray:none;stroke-opacity:1" />
    <path
       sodipodi:nodetypes="caaaaaaaaaaaaaaaaaaaaaaaaccaaaaaaaaaaaaaaaac"
       inkscape:connector-curvature="0"
       id="path8690"
       d="m 33.596246,221.79867 c 0,0 -3.72083,3.0394 -4.68283,5.15111 -1.10767,2.43149 -1.48174,5.34512 -0.93657,7.96081 0.44247,2.12291 1.58202,4.268 3.27798,5.61939 2.0464,1.63063 4.88436,2.55151 7.49253,2.34141 2.43537,-0.19618 4.8888,-1.49189 6.55595,-3.27798 1.38464,-1.48342 2.0301,-3.61419 2.34142,-5.61938 0.55287,-3.56106 0.23297,-7.36185 -0.93657,-10.77051 -1.02575,-2.98959 -2.96811,-5.67512 -5.15111,-7.9608 -1.85485,-1.94209 -4.10586,-3.5832 -6.55596,-4.68283 -3.21289,-1.44198 -6.78715,-2.55666 -10.30221,-2.34141 -4.13701,0.25333 -8.30264,1.83778 -11.69823,4.21454 -3.9966494,2.79747 -7.0744994,6.93657 -9.3744894,11.23879 -1.95429,3.65557 -3.20966005,7.79415 -3.51655005,11.92795 -0.46123,6.21269 0.55864003,12.61768 2.57999005,18.51042 1.92858,5.62231 4.97922,10.98365 8.8973594,15.45332 3.31744,3.78442 7.57456,6.7579 11.98505,9.18169 3.78807,2.08174 7.90819,3.7731 12.17535,4.46194 5.61292,0.90609 11.45118,0.46639 17.04847,-0.53171 4.85948,-0.86654 9.69893,-2.34898 14.04848,-4.68283 5.5854,-2.99698 10.338889,-7.39525 14.985048,-11.70707 5.102713,-4.73551 9.822879,-9.92096 14.048479,-15.45333 3.706098,-4.8522 6.941817,-10.07608 9.833937,-15.45332 3.80622,-7.07679 7.01243,-14.48549 9.83394,-22.00928 3.5542,-9.47756 6.639,-19.1666 8.89737,-29.03353 1.83229,-8.00538 3.74626,-24.35069 3.74626,-24.35069 l -14.51676,-3.57654 c 0,0 -0.77514,8.33731 -1.40485,12.47391 -0.62197,4.08574 -1.54592,8.11981 -2.34141,12.17534 -0.76602,3.90522 -1.30201,7.86557 -2.34142,11.70707 -1.37953,5.09856 -3.37291,10.01147 -5.15111,14.98504 -1.96204,5.48779 -3.63692,11.10225 -6.087674,16.3899 -2.409977,5.19967 -5.26376,10.20746 -8.429088,14.98504 -2.396976,3.61787 -4.986971,7.1414 -7.960805,10.30222 -4.548059,4.83403 -9.579257,9.26092 -14.985047,13.11191 -4.09993,2.92072 -8.26561,6.13114 -13.11191,7.49253 -5.26186,1.47812 -11.03396,1.55732 -16.38989,0.46828 -4.03837,-0.82114 -7.93548,-2.68721 -11.23879,-5.15111 -3.99019,-2.97624 -7.72394,-6.73018 -9.83393,-11.23878 -2.54538,-5.43892 -3.49351,-11.82874 -2.80969,-17.79474 0.40201,-3.50734 1.80973,-7.02871 3.97598,-9.81627 2.02161,-2.60144 4.88129,-4.68702 7.9608,-5.85794 2.41908,-0.9198 5.252,-1.45876 7.73108,-0.71569 0.95741,0.28697 2.34142,1.87313 2.34142,1.87313 z"
       style="fill:#b12820;fill-opacity:1;stroke:#000000;stroke-width:1.27657;stroke-linecap:butt;stroke-linejoin:miter;stroke-miterlimit:4;stroke-dasharray:none;stroke-opacity:1" />
    <path
       sodipodi:nodetypes="caaaaaaaaaaaaaaaaaaaaaaaaaaaaaaaaaaaaaaaaaaaacaaaaaaaaaaaaaaaaaaaaaaaaaaaaaaaaaacc"
       inkscape:connector-curvature="0"
       id="path10984"
       d="m 130.6307,125.17202 c 0,0 8.13391,0.5397 11.77191,2.17997 3.86948,1.74464 7.50343,4.43569 10.02793,7.84795 1.20393,1.6273 1.87272,3.66716 2.17998,5.66795 0.35365,2.30286 0.44602,4.8195 -0.436,6.97595 -1.09209,2.67005 -3.543,4.58894 -5.66795,6.53995 -1.45608,1.3369 -2.98551,2.69443 -4.79596,3.48798 -4.0723,1.78496 -8.63379,2.65753 -13.07991,2.61598 -6.10022,-0.057 -12.02563,-2.19456 -17.87586,-3.92397 -4.76312,-1.40804 -9.56541,-2.90204 -13.951904,-5.23196 -5.983094,-3.17798 -11.732714,-7.02659 -16.567876,-11.77192 -5.933181,-5.82295 -10.913194,-12.71991 -14.823888,-20.05584 -4.065402,-7.62614 -7.098441,-15.92722 -8.719935,-24.415818 -1.582505,-8.28449 -1.800884,-16.90484 -0.871993,-25.28781 0.760909,-6.86699 2.655626,-13.64516 5.23196,-20.05585 2.668725,-6.64059 6.059857,-13.1066 10.463922,-18.74786 4.049252,-5.18677 8.990314,-9.75224 14.387892,-13.5159 6.930752,-4.83272 14.679872,-8.5938097 22.671832,-11.3359097 6.30847,-2.16448 12.96221,-3.52696 19.61985,-3.92397 7.42152,-0.44257 14.90555,0.5023 22.23584,1.74398 5.63044,0.95374 11.24954,2.27986 16.56787,4.35997 4.90438,1.9182097 9.52601,4.5581797 13.95189,7.4119497 5.39921,3.48136 10.55716,7.39519 15.25989,11.77191 3.9934,3.71657 7.64093,7.83307 10.89992,12.2079 2.65054,3.55806 5.1502,7.29218 6.97595,11.33592 2.25122,4.98609 3.91272,10.2969 4.79596,15.69588 0.84502,5.16532 1.03543,10.49634 0.43601,15.69588 -0.65401,5.67308 -1.95207,11.3897 -4.35997,16.56788 -2.02316,4.350778 -4.84865,8.422118 -8.28395,11.771908 -3.37649,3.29244 -7.34784,6.21438 -11.77191,7.84794 -3.43283,1.26755 -7.26563,0.88026 -10.89992,1.30799 -3.77763,0.4446 -7.54731,1.64667 -11.33591,1.308 -8.01399,-0.71639 -16.60278,-2.2408 -23.10783,-6.97595 -3.71565,-2.7047 -6.26769,-7.02033 -7.84794,-11.33592 -1.55636,-4.250358 -2.13431,-9.065618 -1.30799,-13.515898 0.77124,-4.15365 2.71196,-8.31768 5.66796,-11.33591 2.18337,-2.22933 5.2314,-3.71268 8.28394,-4.35997 2.13729,-0.45321 4.41554,-0.0743 6.53994,0.436 2.15242,0.517 4.27092,1.37495 6.10396,2.61598 1.36155,0.92181 2.79617,1.99635 3.48798,3.48797 0.73632,1.58759 0.62407,3.49206 0.43599,5.23196 -0.21244,1.96528 -0.56246,4.08319 -1.74398,5.66796 -0.93961,1.26029 -2.48635,1.98002 -3.92397,2.61598 -1.64399,0.72725 -3.43843,1.42971 -5.23197,1.30799 -1.56168,-0.10599 -3.00755,-0.9559 -4.35996,-1.74399 -1.60805,-0.93706 -4.35997,-3.48797 -4.35997,-3.48797 0,0 -0.86004,3.17114 -0.87199,4.79596 -0.013,1.76799 0.10059,3.64107 0.87199,5.23196 0.94263,1.944038 2.62535,3.507968 4.35997,4.795968 2.71398,2.0152 5.98953,3.17649 9.15593,4.35996 2.5432,0.95055 5.13553,2.06078 7.84794,2.17998 3.98684,0.17521 7.9771,-0.94508 11.77191,-2.17998 3.5234,-1.14657 7.00318,-2.6559 10.02793,-4.79596 3.35566,-2.37418 6.55885,-5.223228 8.71993,-8.719928 1.69131,-2.7366 2.48201,-5.98976 3.05198,-9.15593 0.74715,-4.15043 0.77916,-8.44076 0.436,-12.64391 -0.36181,-4.43157 -1.14423,-8.88424 -2.61599,-13.07991 -1.57064,-4.47755 -3.73917,-8.8136 -6.53995,-12.64389 -2.79025,-3.81589 -6.61345,-6.75869 -10.02792,-10.02793 -3.41769,-3.27233 -6.52773,-6.96606 -10.46392,-9.59193 -3.73224,-2.48981 -8.08228,-3.90502 -12.20791,-5.66796 -3.30072,-1.41044 -6.60336,-2.8486 -10.02793,-3.92397 -3.56485,-1.11942 -7.18932,-2.17693 -10.89992,-2.61597 -4.61842,-0.54645 -9.31365,-0.33924 -13.95189,-10e-6 -4.98114,0.3643 -10.04316,0.73462 -14.82388,2.17999 -5.53839,1.67444 -10.86274,4.23103 -15.69589,7.41194 -5.504621,3.62283 -10.453692,8.14765 -14.823892,13.0799 -3.742747,4.2241 -7.159344,8.85938 -9.591928,13.9519 -2.418022,5.06203 -3.877419,10.59769 -4.795964,16.13188 -0.59538,3.58714 -0.564472,7.26597 -0.435998,10.89991 0.185993,5.26087 0.551065,10.56867 1.743988,15.69588 1.260562,5.417928 3.484384,10.579738 5.667958,15.695888 1.572058,3.68335 3.05837,7.47047 5.336475,10.76421 2.844133,4.11211 6.431073,7.71757 10.223695,10.97557 3.184232,2.73537 6.715976,5.0908 10.403866,7.09606 4.4361,2.41209 9.15268,4.34232 13.9675,5.86373 4.95886,1.56693 10.04546,3.16474 15.24358,3.32316 3.41973,0.10422 7.98496,1.08342 10.14293,-1.5715 1.43235,-1.7622 0.96711,-4.95677 -0.35453,-6.80345 -1.82196,-2.54575 -5.71146,-2.62229 -8.71994,-3.48798 -1.5615,-0.44932 -4.79596,-0.87199 -4.79596,-0.87199 z"
       style="fill:#b12820;fill-opacity:1;stroke:#000000;stroke-width:1.27657;stroke-linecap:butt;stroke-linejoin:miter;stroke-miterlimit:4;stroke-dasharray:none;stroke-opacity:1" />
    <path
       sodipodi:nodetypes="caaaaaaaccaaaaaaacac"
       inkscape:connector-curvature="0"
       id="path8698"
       d="m 152.90293,31.781312 c 0,0 14.08589,3.87597 20.41321,7.38714 6.18537,3.4324 11.90057,7.90278 16.68651,13.11191 4.42292,4.81401 7.89266,10.52006 10.7705,16.38989 2.54246,5.18576 4.36737,10.75175 5.61939,16.38989 0.9529,4.29113 1.56551,8.7192 1.40485,13.11192 -0.25515,6.976078 -1.67447,13.938208 -3.74626,20.604428 -1.49833,4.82105 -3.6179,9.48227 -6.21442,13.81189 -2.89588,4.82878 -10.32475,13.36896 -10.32475,13.36896 l -6.06754,-13.10008 c 0,0 2.9632,-5.40817 4.18225,-8.23538 1.34486,-3.11896 2.66823,-6.2838 3.43941,-9.59165 1.24851,-5.35525 1.87491,-10.89103 1.87313,-16.389888 -0.002,-5.65639 -0.27449,-11.45183 -1.9377,-16.85817 -1.39178,-4.52406 -4.0306,-8.59627 -6.58824,-12.57906 -2.35971,-3.67457 -4.82475,-7.38395 -8.02459,-10.35576 -4.14506,-3.84967 -9.13364,-6.75288 -14.14533,-9.37669 -3.66706,-1.91984 -11.5354,-4.59699 -11.5354,-4.59699 0,0 0.49325,-5.81158 1.49067,-8.51492 0.61345,-1.66264 2.70431,-4.57744 2.70431,-4.57744 z"
       style="fill:#b12820;fill-opacity:1;stroke:#000000;stroke-width:1.27657;stroke-linecap:butt;stroke-linejoin:miter;stroke-miterlimit:4;stroke-dasharray:none;stroke-opacity:1" />
    <path
       sodipodi:nodetypes="caaaaaaaaaaaacaaaccc"
       inkscape:connector-curvature="0"
       id="path10986"
       d="m 162.45847,6.1449023 c 0,0 6.47236,-3.75338 10.02792,-4.79596 3.3731,-0.98908004 6.95423,-1.50331004 10.46392,-1.30798004 3.73071,0.20762 7.69169,0.70062 10.89992,2.61598004 3.18142,1.89935 5.60093,5.05141 7.41194,8.2839297 1.48323,2.64745 2.51789,5.6869 2.61598,8.71994 0.12535,3.87592 -0.39492,8.15702 -2.61598,11.33591 -2.28563,3.27131 -6.30052,5.11445 -10.02792,6.53995 -1.78543,0.68282 -3.81122,1.32646 -5.66796,0.87199 -2.62582,-0.64272 -5.23282,-2.42965 -6.53995,-4.79596 -0.98631,-1.78553 -0.94069,-4.12754 -0.436,-6.10395 0.59846,-2.34361 2.14872,-4.46105 3.92397,-6.10396 1.57488,-1.45747 3.64278,-2.34265 5.66796,-3.05197 1.53352,-0.53712 4.79596,-0.872 4.79596,-0.872 0,0 0.58523,-1.16364 0.436,-1.74398 -0.6915,-2.68908 -3.15655,-4.91983 -5.66796,-6.1039597 -2.23857,-1.05548 -4.95839,-0.7605 -7.41194,-0.436 -1.82245,0.24104 -5.23196,1.7439897 -5.23196,1.7439897 L 170.7424,8.7608923 Z"
       style="fill:#b12820;fill-opacity:1;stroke:#000000;stroke-width:1.27657;stroke-linecap:butt;stroke-linejoin:miter;stroke-miterlimit:4;stroke-dasharray:none;stroke-opacity:1" />
    <path
       sodipodi:nodetypes="ccaaaaaaacacaaaaaaaac"
       inkscape:connector-curvature="0"
       id="path8702"
       d="m 163.77882,20.905422 -11.70707,-3.74626 c 0,0 -4.5176,4.55382 -6.55595,7.02424 -2.70243,3.27525 -5.32176,6.65281 -7.49253,10.30222 -1.85607,3.12036 -3.22741,6.50775 -4.68282,9.83393 -1.73129,3.95668 -3.39301,7.95081 -4.81197,12.02993 -1.81175,5.20829 -3.45049,10.4896 -4.71512,15.85704 -2.26338,9.60646 -3.78564,19.38363 -5.11881,29.162668 -1.58897,11.65536 -2.14213,23.42992 -3.42587,35.12284 -0.28277,2.57559 -0.94188,7.71594 -0.94188,7.71594 0,0 4.83044,1.84032 7.30009,2.59584 2.69794,0.82536 8.19652,2.11142 8.19652,2.11142 0,0 0.30102,-5.21222 0.39856,-7.82067 0.16138,-4.31568 0.0423,-8.64194 0.30878,-12.95241 0.29043,-4.69721 0.96685,-9.36273 1.40485,-14.04848 0.33539,-3.58808 0.51133,-7.19196 0.93656,-10.7705 0.98727,-8.308258 2.10542,-16.614748 3.74627,-24.818988 0.88353,-4.41766 1.98355,-8.79672 3.27797,-13.11191 1.75887,-5.86348 3.55216,-11.75464 6.08768,-17.32645 2.7506,-6.04447 6.09311,-11.83942 9.83394,-17.32646 2.37568,-3.48466 7.9608,-9.83394 7.9608,-9.83394 z"
       style="fill:#b12820;fill-opacity:1;stroke:#000000;stroke-width:1.27657;stroke-linecap:butt;stroke-linejoin:miter;stroke-miterlimit:4;stroke-dasharray:none;stroke-opacity:1" />
    <path
       sodipodi:nodetypes="caaaacccaaaaaacc"
       inkscape:connector-curvature="0"
       id="path10988"
       d="m 171.1784,144.35587 c 0,0 -4.84183,2.82422 -7.41195,3.92397 -2.53514,1.08479 -5.11485,2.24997 -7.84794,2.61598 -2.59683,0.34776 -5.35721,0.37686 -7.84794,-0.436 -2.28498,-0.74571 -5.0981,-1.71672 -6.0496,-3.92396 -0.87737,-2.03528 1.19929,-6.53996 1.19929,-6.53996 l -2.56163,-1.74399 -4.97754,-0.81764 c 0,0 -1.57692,3.24166 -1.68963,4.99605 -0.18965,2.95207 0.30566,6.11649 1.744,8.70142 1.28736,2.31361 3.54619,4.03481 5.79515,5.43204 2.10948,1.31057 4.55904,2.04502 6.97596,2.61597 2.13338,0.50397 4.34976,0.78196 6.53995,0.69044 3.41852,-0.14285 6.81485,-0.91035 10.08227,-1.92555 3.16428,-0.98315 9.10158,-3.99684 9.10158,-3.99684 z"
       style="fill:#b12820;fill-opacity:1;stroke:#000000;stroke-width:1.27657;stroke-linecap:butt;stroke-linejoin:miter;stroke-miterlimit:4;stroke-dasharray:none;stroke-opacity:1" />
  </g>
</svg>
