<?xml version="1.0" encoding="UTF-8" standalone="no"?>
<svg
   xmlns:dc="http://purl.org/dc/elements/1.1/"
   xmlns:cc="http://creativecommons.org/ns#"
   xmlns:rdf="http://www.w3.org/1999/02/22-rdf-syntax-ns#"
   xmlns:svg="http://www.w3.org/2000/svg"
   xmlns="http://www.w3.org/2000/svg"
   xmlns:sodipodi="http://sodipodi.sourceforge.net/DTD/sodipodi-0.dtd"
   xmlns:inkscape="http://www.inkscape.org/namespaces/inkscape"
   width="128"
   height="128"
   viewBox="0 0 33.866669 33.866666"
   version="1.1"
   id="svg1454"
   inkscape:version="1.0.1 (3bc2e813f5, 2020-09-07, custom)"
   sodipodi:docname="Postbox-Royal-Cypher-GR.svg">
  <defs
     id="defs1448" />
  <sodipodi:namedview
     id="base"
     pagecolor="#ffffff"
     bordercolor="#666666"
     borderopacity="1.0"
     inkscape:pageopacity="0.0"
     inkscape:pageshadow="2"
     inkscape:zoom="6.609375"
     inkscape:cx="64"
     inkscape:cy="64"
     inkscape:document-units="mm"
     inkscape:current-layer="layer1"
     inkscape:document-rotation="0"
     showgrid="false"
     fit-margin-top="0"
     fit-margin-left="0"
     fit-margin-right="0"
     fit-margin-bottom="0"
     inkscape:window-width="1920"
     inkscape:window-height="1033"
     inkscape:window-x="0"
     inkscape:window-y="47"
     inkscape:window-maximized="1"
     units="px" />
  <metadata
     id="metadata1451">
    <rdf:RDF>
      <cc:Work
         rdf:about="">
        <dc:format>image/svg+xml</dc:format>
        <dc:type
           rdf:resource="http://purl.org/dc/dcmitype/StillImage" />
        <dc:title />
      </cc:Work>
    </rdf:RDF>
  </metadata>
  <g
     inkscape:label="Layer 1"
     inkscape:groupmode="layer"
     id="layer1"
     transform="translate(-99.97175,-30.061367)">
    <g
       id="g12817">
      <path
         style="fill:#b12820;fill-opacity:1;stroke:#000000;stroke-width:0.396875;stroke-miterlimit:4;stroke-dasharray:none;stroke-opacity:1"
         d="m 105.42061,55.454714 c -1.67639,-0.619046 -3.92835,-3.090872 -4.71371,-5.173942 -1.278199,-3.390251 -0.31991,-7.551155 2.32022,-10.074561 2.52781,-2.416028 6.35879,-2.774407 9.18334,-0.859078 0.74643,0.506148 1.09174,0.592645 1.45412,0.364239 0.67616,-0.426186 0.80839,-0.180435 1.08775,2.021486 0.29693,2.340484 0.0815,4.170831 -0.4766,4.048164 -0.21313,-0.04686 -0.9377,-0.976377 -1.61015,-2.065616 -1.49107,-2.415227 -2.33544,-3.073867 -4.16599,-3.249624 -1.26605,-0.121559 -1.5127,-0.04411 -2.43414,0.764303 -0.56393,0.494762 -1.31737,1.444058 -1.67428,2.109546 -1.26779,2.363788 -0.73248,7.197991 0.96496,8.714217 0.99002,0.88433 2.37311,1.323747 3.50103,1.112309 l 1.0085,-0.18905 v -2.546729 c 0,-2.295057 -0.0566,-2.564705 -0.57356,-2.728629 -0.31545,-0.100048 -0.57355,-0.431113 -0.57355,-0.735706 0,-0.513805 0.22785,-0.553807 3.15456,-0.553807 2.92669,0 3.15454,0.04001 3.15454,0.553807 0,0.304593 -0.2581,0.635661 -0.57355,0.735706 -0.51887,0.164554 -0.57356,0.433572 -0.57356,2.821131 0,3.042066 -0.25373,3.590539 -2.09808,4.535239 -1.54765,0.79273 -4.74872,0.992281 -6.36185,0.396595 z m 12.55761,-0.07034 c -0.10229,-0.266361 -0.0402,-0.532854 0.13799,-0.592204 0.17819,-0.05935 0.65308,-0.366584 1.05533,-0.682739 l 0.73133,-0.574828 v -6.579705 -6.579705 l -1.01772,-0.600001 c -0.62078,-0.365999 -0.98289,-0.781326 -0.92847,-1.064929 0.076,-0.396224 0.6608,-0.477757 3.95717,-0.55174 4.53717,-0.101835 5.58981,0.15286 7.02132,1.698862 1.19769,1.293485 1.57845,2.183452 1.57845,3.689278 0,1.540128 -0.43602,2.545725 -1.64135,3.785434 l -1.03364,1.063132 2.12614,2.784679 c 1.16938,1.531572 2.48019,2.98743 2.91294,3.23524 0.43276,0.247812 0.78765,0.676229 0.78866,0.952039 0.001,0.425243 -0.27557,0.501478 -1.82281,0.501478 -1.60628,0 -1.95804,-0.10576 -2.93948,-0.883818 -0.61316,-0.4861 -1.23145,-1.098617 -1.374,-1.361152 -0.23525,-0.43333 -1.75288,-2.254768 -2.98289,-3.580056 -0.46109,-0.496794 -0.49068,-0.423179 -0.57607,1.43279 -0.0892,1.938066 -0.0801,1.965098 0.9597,2.870437 0.57734,0.502667 0.96511,1.050708 0.86172,1.21787 -0.1168,0.188929 -1.59562,0.303929 -3.90816,0.303929 -3.22819,0 -3.74477,-0.06405 -3.90616,-0.484291 z m 7.67607,-9.267147 c 1.33296,-0.71283 1.88901,-3.650519 0.91616,-4.839965 -0.27603,-0.337467 -0.98581,-0.691004 -1.57729,-0.785636 l -1.07541,-0.172058 v 3.046356 c 0,2.887634 0.0309,3.046355 0.59241,3.046355 0.32581,0 0.84068,-0.132769 1.14413,-0.295052 z"
         id="path2074"
         sodipodi:nodetypes="ssssssssssssscsssssssssssscccsssssscsscsssssssssssscsss" />
    </g>
  </g>
</svg>
