<?xml version="1.0" encoding="UTF-8" standalone="no"?>
<!DOCTYPE svg PUBLIC "-//W3C//DTD SVG 1.1//EN" "http://www.w3.org/Graphics/SVG/1.1/DTD/svg11.dtd">
<svg width="100%" height="100%" viewBox="0 0 290 290" version="1.1" xmlns="http://www.w3.org/2000/svg" xmlns:xlink="http://www.w3.org/1999/xlink" xml:space="preserve" xmlns:serif="http://www.serif.com/" style="fill-rule:evenodd;clip-rule:evenodd;stroke-linecap:round;stroke-linejoin:round;">
    <g id="g4500">
        <clipPath id="_clip1">
            <path d="M145,289.016C143.129,289.016 141.37,288.287 140.047,286.965L3.035,149.952C1.712,148.63 0.984,146.871 0.984,145C0.984,143.13 1.712,141.37 3.035,140.047L140.047,3.035C141.37,1.712 143.129,0.984 145,0.984C146.871,0.984 148.63,1.712 149.953,3.035L286.965,140.047C288.288,141.371 289.016,143.13 289.016,145C289.016,146.87 288.288,148.629 286.965,149.952L149.953,286.965C148.63,288.287 146.871,289.016 145,289.016Z"/>
        </clipPath>
        <g clip-path="url(#_clip1)">
            <path id="path3834-9" d="M-0.124,1.459L0.838,290.13L297.13,287.936L295.937,-1.485L-0.124,1.459Z" style="fill:rgb(206,238,171);fill-rule:nonzero;"/>
            <path id="path5436" d="M127.46,1.786C126.479,13.563 124.516,19.779 116.337,23.377C108.159,26.976 100.308,27.957 101.943,33.191C103.579,38.426 118.954,45.295 120.59,50.203C122.226,55.11 131.386,52.493 134.984,59.362C138.583,66.232 137.601,79.318 130.077,81.935C122.553,84.552 107.177,82.589 103.579,94.366C99.98,106.143 97.363,108.106 91.802,111.05C86.241,113.994 82.315,124.79 87.222,132.641C92.129,140.493 103.252,131.006 106.85,124.136C110.449,117.266 116.337,112.686 116.337,112.686L147.415,112.686L224.62,110.396L228.873,105.489C228.873,105.489 233.125,110.723 232.471,116.939C231.817,123.154 227.564,136.24 232.798,139.511C238.033,142.783 258.315,136.894 264.204,130.351C285.987,103.754 227.486,86.37 228.218,82.589C228.218,82.589 207.498,21.405 203.683,53.474C207.282,60.998 195.832,67.868 184.709,61.979C173.586,56.091 152.322,44.968 156.248,30.574C160.174,16.18 184.382,6.039 184.382,6.039L127.46,1.786ZM115.273,132.928C113.188,133.119 109.427,139.061 108.813,142.128C108.159,145.4 104.56,150.961 104.233,158.158C103.906,165.355 110.449,166.991 115.683,166.664C120.917,166.337 119.282,157.831 118.3,147.035C117.973,147.035 117.646,133.623 115.683,132.968C115.551,132.928 115.411,132.914 115.273,132.929L115.273,132.928ZM-13.536,289.34C-4.512,289.78 -9.024,289.56 -13.536,289.34Z" style="fill:rgb(166,221,139);fill-rule:nonzero;"/>
            <path id="path5280" d="M195.545,97.106C189.317,97.086 183.728,98.374 180.456,101.236C169.988,110.396 134.657,102.217 116.992,110.396C99.326,118.574 99.653,160.121 97.69,168.626C95.728,177.132 74.791,195.779 71.519,199.377C68.248,202.976 54.181,208.864 46.003,210.5L69.884,205.593C80.025,200.686 88.531,179.749 104.56,174.515C120.59,169.281 132.367,189.89 136.293,198.723C140.218,207.556 138.583,215.407 141.2,220.968C143.817,226.53 155.594,236.344 156.248,238.634C156.902,240.924 149.705,247.139 148.07,249.757C146.434,252.374 134.33,258.916 132.694,261.206C131.43,262.976 130.178,270.069 129.668,273.27C130.209,273.047 130.655,272.864 131.141,272.656C131.773,269.346 133.123,263.394 134.984,261.533C137.601,258.916 149.705,255.645 151.341,250.411C152.977,245.177 160.501,241.905 160.501,241.905C160.501,241.905 164.099,247.139 181.438,260.225L191.252,260.879C184.709,253.682 167.044,246.812 161.482,232.091C155.921,217.37 129.423,187.273 138.583,179.422C147.743,171.571 160.174,174.188 175.876,189.236C191.579,204.284 236.397,196.76 251.445,194.143L257.988,189.89C257.988,189.89 234.107,193.816 211.207,195.779C188.308,197.742 176.204,185.965 166.389,176.478C156.575,166.991 149.378,129.37 162.464,126.753C175.549,124.136 188.635,144.745 201.72,148.998C214.806,153.251 229.854,128.388 227.564,113.667C225.99,103.547 209.248,97.147 195.545,97.106L195.545,97.106ZM125.742,114.485C127.412,114.486 133.41,116.571 134.33,117.593C137.274,120.864 136.947,127.08 134.33,128.061C131.713,129.043 117.646,138.53 120.59,146.708C123.534,154.887 122.88,170.262 116.01,170.262C109.14,170.262 105.542,170.262 102.925,166.991C100.308,163.719 100.308,151.288 102.925,141.147C105.542,131.006 107.505,121.519 113.393,117.266C117.442,114.342 122.071,114.481 125.743,114.485L125.742,114.485ZM143.53,210.132C143.796,210.147 146.024,214.732 149.705,219.333C153.631,224.24 153.958,230.128 153.958,230.128C153.958,230.128 148.397,223.913 146.107,219.66C143.817,215.407 143.49,210.173 143.49,210.173C143.49,210.133 143.513,210.133 143.53,210.133L143.53,210.132Z" style="fill:rgb(170,195,231);fill-rule:nonzero;"/>
            <path id="path5329" d="M78.858,234.459C85.083,236.916 98.044,215.019 125.17,211.809C135.311,212.136 132.367,196.433 136.293,194.47C140.218,192.507 143.49,202.322 151.668,204.939C159.847,207.556 183.728,201.34 182.419,197.415C181.111,193.489 173.259,187.273 175.222,186.292C177.185,185.31 186.345,192.835 191.906,190.872C197.467,188.909 249.155,189.563 255.371,173.206C261.586,156.849 283.505,155.541 283.505,155.541M59.742,192.835C75.445,186.619 77.408,185.965 77.735,181.385C78.062,176.805 77.408,160.775 73.809,155.214C70.211,149.652 56.798,137.221 53.2,123.481C49.601,109.742 53.527,69.831 64.322,60.344C75.118,50.857 106.196,50.857 113.393,46.604C120.59,42.351 120.263,24.686 130.404,14.545C140.546,4.403 165.735,-1.485 165.735,-1.485M48.293,198.396C60.397,196.106 65.631,194.47 71.519,190.872C77.408,187.273 79.371,185.965 79.698,182.366C80.025,178.768 81.006,166.009 75.772,153.578C70.538,141.147 59.415,112.359 64.977,102.872C70.538,93.385 71.847,74.738 85.586,70.812C99.326,66.887 113.066,62.634 121.899,69.177C130.731,75.719 138.583,87.823 148.07,88.151C157.557,88.477 163.445,86.188 167.044,82.262C170.642,78.336 172.932,68.849 169.334,64.269C165.735,59.69 149.051,57.072 146.761,51.838C144.471,46.604 132.694,29.593 146.434,16.835M56.798,202.322C64.977,198.396 74.137,194.797 77.408,189.89C80.679,184.983 84.932,174.842 84.932,166.336C84.932,157.831 80.352,119.229 89.185,109.414C98.018,99.6 111.757,75.392 123.207,78.991C134.657,82.589 139.237,91.749 151.995,91.422C164.754,91.095 180.456,86.188 183.728,75.392C186.999,64.597 163.118,54.455 162.791,45.295C162.464,36.136 169.988,26.649 189.289,23.05M56.144,169.935C53.527,161.102 44.694,139.184 26.047,140.493C7.4,141.801 2.778,131.66 2.778,131.66M130.404,59.69C119.282,52.493 119.282,50.203 121.244,49.221C123.207,48.24 134.657,55.764 137.928,59.69C141.2,63.615 134.984,62.307 130.404,59.69ZM148.724,79.972C156.902,80.626 164.754,77.028 162.791,71.466C160.828,65.905 146.434,61.979 145.453,67.541C144.471,73.102 148.07,81.281 148.724,79.972Z" style="fill:none;fill-rule:nonzero;stroke:rgb(109,127,66);stroke-opacity:0.39;stroke-width:1.31px;"/>
            <path id="path5389" d="M126.479,263.169L142.835,226.857L157.23,217.697L193.215,238.307L220.04,233.4L219.713,212.79L206.3,204.939L222.984,170.589L230.508,165.682L281.215,152.597M76.099,56.745L86.241,104.18L58.761,133.296L70.538,147.035L54.835,162.084L55.49,167.972L81.988,200.032L100.308,191.199L127.133,215.407L113.393,252.374L126.806,263.496L123.207,280.507" style="fill:none;fill-rule:nonzero;stroke:rgb(211,132,132);stroke-width:2.62px;stroke-linejoin:miter;"/>
            <g id="g6734">
                <path id="YDiv6" d="M24.04,118.433C27.507,122.015 30.434,123.537 33.701,124.98C40.235,127.866 37.206,122.67 42.156,118.759C47.106,114.847 53.43,123.948 50.124,127.953C46.818,131.958 42.506,130.236 44.163,135.861C45.82,141.486 64.575,144.668 67.437,151.215C70.299,157.761 65.915,152.922 61.849,157.9C57.782,162.878 65.655,172.86 70.281,169.409C74.907,165.958 70.523,161.567 76.633,163.269C82.742,164.97 86.862,182.328 93.326,184.299C99.789,186.27 96.98,181.981 101.747,178.404C106.515,174.826 114.924,182.928 111.44,187.597C107.956,192.266 103.549,187.719 105.374,194.04C107.2,200.361 124.734,204.259 126.756,210.758C128.778,217.257 123.438,213.137 119.365,218.116C115.293,223.094 125.95,232.197 129.494,228.656C133.039,225.115 129.205,220.143 135.514,221.96C141.823,223.776 155.256,235.417 157.557,242.033C159.858,248.65 155.265,243.845 150.931,248.803C146.597,253.761 157.176,261.031 161.337,257.735C165.498,254.44 160.309,248.853 166.224,250.502C172.15,252.156 175.124,262.787 175.124,262.787M58.129,84.562C63.128,87.513 64.84,89.001 66.045,92.318C68.455,98.951 64.919,95.043 60.805,100.023C56.692,105.004 66.786,111.029 71.02,107.728C75.255,104.427 71.186,101.766 76.455,103.59C81.724,105.414 93.354,116.24 95.844,122.876C98.333,129.513 93.34,123.614 89.585,128.503C85.831,133.391 95.921,141.285 99.747,137.929C103.572,134.573 99.858,131.493 106.055,133.237C112.253,134.98 117.503,151.649 124,153.667C130.497,155.686 126.225,153.102 130.983,149.535C135.741,145.968 144.243,153.173 140.919,157.526C137.596,161.879 133.587,158.67 135.268,164.72C136.948,170.771 152.779,176.109 155.548,182.695C158.317,189.281 154.383,182.306 149.928,187.225C145.473,192.145 156.358,202.544 160.759,199.206C165.16,195.869 161.302,190.964 167.354,192.645C173.405,194.325 183.078,204.384 185.562,211.02C188.046,217.657 185.052,212.318 180.88,217.299C176.708,222.279 184.282,231.082 188.979,227.575C193.677,224.067 191.113,219.858 197.324,221.609C203.534,223.355 204.907,232.982 204.907,232.982M84.542,57.152C88.193,60.986 90.936,63.294 94.172,64.286C100.644,66.268 96.683,62.648 101.642,58.701C106.602,54.754 115.047,64.939 111.558,69.614C108.069,74.29 103.09,70.956 104.847,76.321C106.604,81.687 116.796,92.545 123.282,94.548C129.768,96.551 125.192,93.728 130.048,90.032C134.904,86.336 142.835,93.704 139.423,98.269C136.012,102.835 133.137,98.422 134.777,104.183C136.418,109.943 155.103,116.346 157.504,122.978C159.905,129.611 153.572,124.67 149.645,129.624C145.718,134.578 157.05,142.749 161.003,139.433C164.955,136.116 161.505,131.368 167.38,133.013C173.255,134.657 183.242,146.902 186.178,153.406C189.114,159.91 182.996,154.324 179.222,159.222C175.449,164.12 187.559,171.884 191.134,168.372C194.708,164.86 190.357,161.613 195.892,163.294C201.426,164.975 214.829,176.304 216.913,182.84C218.998,189.377 213.827,184.467 209.928,189.414C206.029,194.36 217.139,201.067 220.705,197.547C224.271,194.028 219.592,191.362 225.818,193.122C232.048,194.883 234.706,203.19 234.706,203.19M115.666,24.174C118.375,29.672 121.222,35.3 124.521,36.667C131.119,39.401 126.559,33.59 131.539,29.482C136.52,25.375 142.787,36.029 139.478,40.018C136.169,44.006 132.249,41.404 134.099,46.642C135.949,51.879 148.526,63.898 155.008,65.896C161.492,67.894 155.398,61.95 160.342,58.059C165.286,54.167 174.348,66.002 170.998,69.842C167.648,73.682 161.599,68.057 163.392,74.334C165.185,80.611 184.536,86.674 187.249,93.278C189.961,99.882 183.503,93.198 179.23,98.168C174.957,103.139 185.423,113.158 189.556,109.862C193.689,106.566 190.943,100.512 197.316,102.384C203.69,104.255 212.274,116.343 215.048,122.928C217.822,129.512 215.142,124.589 210.665,129.499C206.189,134.409 217.249,142.712 220.793,139.171C224.338,135.631 220.805,131.259 226.985,132.992C233.165,134.726 243.441,146.779 245.835,153.41C248.229,160.042 242.538,152.882 238.842,157.738C235.145,162.594 246.552,172.586 250.386,169.234C254.221,165.881 250.891,161.473 256.179,163.281C261.468,165.09 264.504,173.394 264.504,173.394M175.284,18.908C171.425,22.951 164.684,30.731 163.292,34.021C160.506,40.601 164.468,34.904 169.102,39.723C173.737,44.543 165.871,52.87 161.317,49.465C156.764,46.06 161.417,41.414 155.116,43.225C148.815,45.035 143.711,63.598 137.131,66.387C130.552,69.176 134.589,64.862 129.843,60.14C125.097,55.417 117.844,66.21 121.247,69.935C124.651,73.661 127.731,68.443 126.079,74.375C124.427,80.306 114.131,91.969 107.512,94.284C100.892,96.599 104.468,92.767 99.51,88.823C94.552,84.879 87.091,94.225 90.619,97.782C94.147,101.339 99.574,99.696 97.931,105.555C96.288,111.414 75.393,116.15 73.434,122.603C71.476,129.056 76.734,124.834 81.45,129.586C86.165,134.338 76.013,141.123 71.323,137.622C66.633,134.121 69.32,131.115 63.547,132.755C57.773,134.396 48.47,146.323 45.693,152.907C42.917,159.491 47.56,154.324 51.743,159.304C55.927,164.284 45.252,172.837 41.223,169.534C37.193,166.232 39.669,161.204 33.89,162.844C31.001,163.665 28.444,168.847 26.146,173.658M209.9,53.577C205.642,57.94 198.64,64.744 195.331,66.071C188.712,68.725 193.906,62.345 189.034,58.622C184.163,54.899 175.666,64.871 178.962,68.995C182.258,73.119 186.912,69.636 185.229,75.693C183.547,81.75 165.38,86.025 162.818,92.658C160.256,99.291 167.633,94.415 171.232,99.201C174.831,103.987 165.11,112.528 161.289,109.17C157.467,105.813 159.229,100.636 152.896,102.471C146.563,104.306 136.614,117.012 133.669,123.51C130.723,130.008 137.684,124.095 141.439,128.984C145.194,133.873 133.175,141.699 129.332,138.35C125.49,135.001 128.441,130.122 123.189,131.959C117.938,133.796 105.624,146.248 103.376,152.851C101.128,159.454 107.346,152.624 111.116,157.521C114.886,162.417 103.674,171.617 99.505,168.321C95.336,165.025 101.15,160.106 95.438,161.75C89.725,163.395 78.505,175.06 75.538,181.544C72.571,188.027 77.438,182.364 81.242,187.276C85.046,192.188 75.917,200.641 71.388,197.249C66.86,193.858 71.237,191.319 65.104,193.03C62.037,193.886 56.72,201.971 54.003,206.5M240.566,83.619C236.259,87.311 228.221,93.789 224.902,95.025C218.266,97.496 224.313,91.793 219.379,87.933C214.446,84.072 207.503,95.011 210.969,98.642C214.434,102.272 218.832,99.032 217.188,104.906C215.544,110.781 194.959,115.979 192.618,122.604C190.278,129.228 194.287,124.065 198.845,128.934C203.404,133.803 193.198,141.245 189.121,137.947C185.045,134.649 189.852,131.766 184.288,133.439C178.724,135.111 171.921,152.219 165.476,154.167C159.031,156.115 164.128,153.388 159.183,149.006C154.238,144.623 147.849,154.009 151.201,157.845C154.552,161.682 157.314,159.235 155.596,165.382C153.878,171.529 144.08,181.153 137.463,183.815C130.846,186.478 135.201,183.304 130.278,179.474C125.356,175.644 116.494,182.854 119.871,187.353C123.247,191.852 127.41,188.382 125.731,193.923C124.052,199.464 106.297,206.16 103.685,212.787C101.073,219.413 107.661,214.103 111.306,218.925C114.951,223.747 104.86,230.212 100.81,226.911C96.759,223.611 100.936,221.029 95.144,222.669C92.248,223.489 87.835,231.906 85.083,236.917M266.032,110.156C263.793,115.128 260.046,123.005 256.849,124.542C250.454,127.615 255.362,123.434 250.418,119.542C245.473,115.65 235.616,123.04 239.113,127.725C242.609,132.409 248.099,128.159 246.458,133.943C244.818,139.727 226.462,144.599 223.655,151.17C220.848,157.742 224.441,153.585 228.619,158.565C232.797,163.545 224.491,173.012 219.849,169.55C215.208,166.088 220.292,159.728 214.349,161.381C208.407,163.035 195.224,175.803 192.671,182.437C190.117,189.07 196.145,184.289 200.584,189.215C205.022,194.14 193.489,202.345 189.245,199.043C185.001,195.741 188.01,190.304 182.684,192.086C177.357,193.867 173.414,211.048 166.808,213.306C160.202,215.564 165.573,210.778 160.801,207.195C156.028,203.612 147.314,212.487 150.726,217.053C154.139,221.62 157.103,218.324 155.437,223.909C153.77,229.493 142.311,241.393 135.895,243.306C129.48,245.22 134.132,242.574 129.297,237.961C124.462,233.348 116.694,244.814 119.991,248.89C123.289,252.967 129.105,247.571 127.459,253.265C126.636,256.113 119.702,263.927 115.413,267.903" style="fill:none;fill-rule:nonzero;stroke:rgb(14,14,14);stroke-opacity:0.56;stroke-width:0.8px;stroke-linecap:butt;stroke-linejoin:miter;"/>
                <path id="YDiv6-2-2" d="M135.963,222.309C128.869,220.23 132.685,224.676 129.256,228.255C125.711,231.796 115.491,223.506 119.564,218.527C123.636,213.549 128.915,217.856 126.893,211.357C125.882,208.107 121.118,205.071 116.367,202.469C121.457,199.25 125.153,196.855 125.993,194.084C127.672,188.543 123.571,191.826 120.195,187.327C116.818,182.828 125.179,176.243 130.102,180.073C135.025,183.903 131.107,186.889 137.724,184.226C141.033,182.895 145.012,179.949 148.581,176.416C151.294,178.249 154.238,180.688 155.622,183.981C157.516,188.443 154.457,182.717 150.002,187.636C145.547,192.556 156.432,203.018 160.833,199.68C165.234,196.342 161.439,191.5 167.49,193.181C170.516,194.021 172.993,196.079 176.624,199.631C174.293,204.429 170.435,211.963 167.132,213.092C159.991,215.351 165.835,210.939 161.062,207.356C156.251,203.773 147.456,212.648 150.988,217.215C154.4,221.781 156.013,217.846 155.198,224.07C154.365,226.862 153.783,227.639 149.981,231.542C145.619,227.569 139.117,223.217 135.963,222.309Z" style="fill:rgb(179,179,179);fill-rule:nonzero;stroke:black;stroke-opacity:0.11;stroke-width:2px;stroke-linecap:butt;stroke-linejoin:miter;"/>
                <path id="YDiv6-2" d="M175.285,18.908C171.426,22.951 164.887,31.368 163.494,34.658C160.708,41.239 164.759,35.452 169.393,40.271C174.028,45.091 166.161,53.153 161.608,49.748C155.578,46.159 161.126,41.72 155.047,43.558C151.897,44.463 147.66,52.798 144.774,58.345C148.96,62.585 151.616,64.474 154.857,65.473C161.34,67.471 155.599,61.88 160.543,57.988C165.677,54.477 174.659,66.501 171.29,70.302C167.939,74.142 161.801,68.34 163.594,74.617C164.479,77.716 170.03,80.844 175.358,83.91C170.939,86.653 164.466,89.213 163.196,92.5C160.634,99.132 168.012,94.699 171.61,99.484C175.209,104.27 165.312,112.899 161.49,109.542C156.166,105.3 159.165,101.184 152.832,103.019C149.666,103.937 146.501,106.976 142.557,111.297C147.436,114.549 156.504,119.592 157.705,122.908C159.841,130.601 153.598,125.217 149.671,130.171C145.744,135.126 157.253,142.68 161.205,139.363C165.158,136.047 161.707,131.299 167.582,132.943C170.52,133.765 173.655,136.406 177.33,140.562C180.609,135.91 181.708,134.205 184.49,133.369C190.054,131.697 185.069,134.579 189.145,137.877C193.222,141.175 203.282,134.071 198.724,129.202C194.218,125.022 190.105,129.261 192.887,122.018C194.001,118.865 202.407,114.58 208.544,111.603C214.593,108.449 216.51,106.473 216.891,105.215C218.535,99.341 214.349,102.77 210.883,99.139C207.418,95.509 214.471,84.003 219.405,87.863C224.339,91.723 218.29,97.515 224.927,95.043C229.434,93.178 235.782,88.125 240.566,83.619L209.9,53.576L175.285,18.908Z" style="fill:rgb(179,179,179);fill-rule:nonzero;stroke:black;stroke-opacity:0.11;stroke-width:2px;stroke-linecap:butt;stroke-linejoin:miter;"/>
            </g>
        </g>
    </g>
</svg>
