<?xml version="1.0" encoding="UTF-8" standalone="no"?>
<!-- Created with Inkscape (http://www.inkscape.org/) -->

<svg
   xmlns:dc="http://purl.org/dc/elements/1.1/"
   xmlns:cc="http://creativecommons.org/ns#"
   xmlns:rdf="http://www.w3.org/1999/02/22-rdf-syntax-ns#"
   xmlns:svg="http://www.w3.org/2000/svg"
   xmlns="http://www.w3.org/2000/svg"
   xmlns:sodipodi="http://sodipodi.sourceforge.net/DTD/sodipodi-0.dtd"
   xmlns:inkscape="http://www.inkscape.org/namespaces/inkscape"
   height="290"
   id="svg2"
   version="1.1"
   viewBox="0 0 290 290"
   width="290"
   inkscape:version="0.92.1 r15371"
   sodipodi:docname="ic_achievement_bicyclist.svg"
   xml:space="preserve"><metadata
     id="metadata315"><rdf:RDF><cc:Work
         rdf:about=""><dc:format>image/svg+xml</dc:format><dc:type
           rdf:resource="http://purl.org/dc/dcmitype/StillImage" /><dc:title></dc:title></cc:Work></rdf:RDF></metadata><defs
     id="defs6"><clipPath
       clipPathUnits="userSpaceOnUse"
       id="clipPath58"><path
         d="m 382.749,231.201 h 60.73 L 554.84,342.562 v 64.095 L 382.749,578.748 Z"
         id="path56"
         inkscape:connector-curvature="0" /></clipPath><linearGradient
       gradientTransform="matrix(0,347.54651,347.54651,0,468.7944,231.2011)"
       gradientUnits="userSpaceOnUse"
       id="linearGradient72"
       spreadMethod="pad"
       x1="0"
       x2="1"
       y1="0"
       y2="0"><stop
         style="stop-opacity:1;stop-color:#ffffff"
         id="stop68"
         offset="0" /><stop
         style="stop-opacity:0;stop-color:#ffffff"
         id="stop70"
         offset="1" /></linearGradient><mask
       height="1"
       id="mask74"
       maskUnits="userSpaceOnUse"
       width="1"
       x="0"
       y="0"><g
         id="g84"><g
           id="g82"><g
             id="g80"><g
               id="g78"><path
                 style="fill:url(#linearGradient72);stroke:none"
                 d="M -32768,32767 H 32767 V -32768 H -32768 Z"
                 id="path76"
                 inkscape:connector-curvature="0" /></g></g></g></g></mask><linearGradient
       gradientTransform="matrix(0,347.54651,347.54651,0,468.7944,231.2011)"
       gradientUnits="userSpaceOnUse"
       id="linearGradient94"
       spreadMethod="pad"
       x1="0"
       x2="1"
       y1="0"
       y2="0"><stop
         style="stop-opacity:1;stop-color:#a6ade2"
         id="stop90"
         offset="0" /><stop
         style="stop-opacity:1;stop-color:#c3c7f4"
         id="stop92"
         offset="1" /></linearGradient><clipPath
       clipPathUnits="userSpaceOnUse"
       id="clipPath104"><path
         d="m 382.749,231.201 h 34.883 v 312.664 l -34.883,34.883 z"
         id="path102"
         inkscape:connector-curvature="0" /></clipPath><linearGradient
       gradientTransform="matrix(34.883198,0,0,-34.883198,382.74918,404.97437)"
       gradientUnits="userSpaceOnUse"
       id="linearGradient120"
       spreadMethod="pad"
       x1="0"
       x2="1"
       y1="0"
       y2="0"><stop
         style="stop-opacity:1;stop-color:#ffffff"
         id="stop114"
         offset="0" /><stop
         style="stop-opacity:0;stop-color:#ffffff"
         id="stop116"
         offset="0.0363128" /><stop
         style="stop-opacity:1;stop-color:#ffffff"
         id="stop118"
         offset="1" /></linearGradient><mask
       height="1"
       id="mask122"
       maskUnits="userSpaceOnUse"
       width="1"
       x="0"
       y="0"><g
         id="g132"><g
           id="g130"><g
             id="g128"><g
               id="g126"><path
                 style="fill:url(#linearGradient120);stroke:none"
                 d="M -32768,32767 H 32767 V -32768 H -32768 Z"
                 id="path124"
                 inkscape:connector-curvature="0" /></g></g></g></g></mask><linearGradient
       gradientTransform="matrix(34.883198,0,0,-34.883198,382.74918,404.97437)"
       gradientUnits="userSpaceOnUse"
       id="linearGradient144"
       spreadMethod="pad"
       x1="0"
       x2="1"
       y1="0"
       y2="0"><stop
         style="stop-opacity:1;stop-color:#c3c7f4"
         id="stop138"
         offset="0" /><stop
         style="stop-opacity:1;stop-color:#c2c6f3"
         id="stop140"
         offset="0.0363128" /><stop
         style="stop-opacity:1;stop-color:#a6ade2"
         id="stop142"
         offset="1" /></linearGradient><clipPath
       clipPathUnits="userSpaceOnUse"
       id="clipPath154"><path
         d="m 169.489,381.766 c -1.912,-1.911 -2.965,-4.454 -2.965,-7.156 v 0 c 0,-2.704 1.053,-5.245 2.965,-7.156 v 0 L 305.742,231.201 h 7.241 V 525.26 Z"
         id="path152"
         inkscape:connector-curvature="0" /></clipPath><linearGradient
       gradientTransform="matrix(0,294.05899,294.05899,0,239.75374,231.2011)"
       gradientUnits="userSpaceOnUse"
       id="linearGradient168"
       spreadMethod="pad"
       x1="0"
       x2="1"
       y1="0"
       y2="0"><stop
         style="stop-opacity:1;stop-color:#ffffff"
         id="stop164"
         offset="0" /><stop
         style="stop-opacity:0;stop-color:#ffffff"
         id="stop166"
         offset="1" /></linearGradient><mask
       height="1"
       id="mask170"
       maskUnits="userSpaceOnUse"
       width="1"
       x="0"
       y="0"><g
         id="g180"><g
           id="g178"><g
             id="g176"><g
               id="g174"><path
                 style="fill:url(#linearGradient168);stroke:none"
                 d="M -32768,32767 H 32767 V -32768 H -32768 Z"
                 id="path172"
                 inkscape:connector-curvature="0" /></g></g></g></g></mask><linearGradient
       gradientTransform="matrix(0,294.05899,294.05899,0,239.75374,231.2011)"
       gradientUnits="userSpaceOnUse"
       id="linearGradient190"
       spreadMethod="pad"
       x1="0"
       x2="1"
       y1="0"
       y2="0"><stop
         style="stop-opacity:1;stop-color:#babcbf"
         id="stop186"
         offset="0" /><stop
         style="stop-opacity:1;stop-color:#d0d2d3"
         id="stop188"
         offset="1" /></linearGradient><clipPath
       clipPathUnits="userSpaceOnUse"
       id="clipPath200"><path
         d="M 273.449,485.725 V 263.494 l 11.627,-11.628 v 245.487 z"
         id="path198"
         inkscape:connector-curvature="0" /></clipPath><linearGradient
       gradientTransform="matrix(11.6278,0,0,-11.6278,273.44858,374.60989)"
       gradientUnits="userSpaceOnUse"
       id="linearGradient216"
       spreadMethod="pad"
       x1="0"
       x2="1"
       y1="0"
       y2="0"><stop
         style="stop-opacity:1;stop-color:#ffffff"
         id="stop210"
         offset="0" /><stop
         style="stop-opacity:0;stop-color:#ffffff"
         id="stop212"
         offset="0.0363128" /><stop
         style="stop-opacity:1;stop-color:#ffffff"
         id="stop214"
         offset="1" /></linearGradient><mask
       height="1"
       id="mask218"
       maskUnits="userSpaceOnUse"
       width="1"
       x="0"
       y="0"><g
         id="g228"><g
           id="g226"><g
             id="g224"><g
               id="g222"><path
                 style="fill:url(#linearGradient216);stroke:none"
                 d="M -32768,32767 H 32767 V -32768 H -32768 Z"
                 id="path220"
                 inkscape:connector-curvature="0" /></g></g></g></g></mask><linearGradient
       gradientTransform="matrix(11.6278,0,0,-11.6278,273.44858,374.60989)"
       gradientUnits="userSpaceOnUse"
       id="linearGradient240"
       spreadMethod="pad"
       x1="0"
       x2="1"
       y1="0"
       y2="0"><stop
         style="stop-opacity:1;stop-color:#c3c7f4"
         id="stop234"
         offset="0" /><stop
         style="stop-opacity:1;stop-color:#c2c6f3"
         id="stop236"
         offset="0.0363128" /><stop
         style="stop-opacity:1;stop-color:#a6ade2"
         id="stop238"
         offset="1" /></linearGradient><clipPath
       clipPathUnits="userSpaceOnUse"
       id="clipPath250"><path
         d="M 251.356,463.633 V 285.587 l 11.628,-11.628 V 475.26 Z"
         id="path248"
         inkscape:connector-curvature="0" /></clipPath><linearGradient
       gradientTransform="matrix(11.627693,0,0,-11.627693,251.356,374.60995)"
       gradientUnits="userSpaceOnUse"
       id="linearGradient266"
       spreadMethod="pad"
       x1="0"
       x2="1"
       y1="0"
       y2="0"><stop
         style="stop-opacity:1;stop-color:#ffffff"
         id="stop260"
         offset="0" /><stop
         style="stop-opacity:0;stop-color:#ffffff"
         id="stop262"
         offset="0.0363128" /><stop
         style="stop-opacity:1;stop-color:#ffffff"
         id="stop264"
         offset="1" /></linearGradient><mask
       height="1"
       id="mask268"
       maskUnits="userSpaceOnUse"
       width="1"
       x="0"
       y="0"><g
         id="g278"><g
           id="g276"><g
             id="g274"><g
               id="g272"><path
                 style="fill:url(#linearGradient266);stroke:none"
                 d="M -32768,32767 H 32767 V -32768 H -32768 Z"
                 id="path270"
                 inkscape:connector-curvature="0" /></g></g></g></g></mask><linearGradient
       gradientTransform="matrix(11.627693,0,0,-11.627693,251.356,374.60995)"
       gradientUnits="userSpaceOnUse"
       id="linearGradient290"
       spreadMethod="pad"
       x1="0"
       x2="1"
       y1="0"
       y2="0"><stop
         style="stop-opacity:1;stop-color:#c3c7f4"
         id="stop284"
         offset="0" /><stop
         style="stop-opacity:1;stop-color:#c2c6f3"
         id="stop286"
         offset="0.0363128" /><stop
         style="stop-opacity:1;stop-color:#a6ade2"
         id="stop288"
         offset="1" /></linearGradient><clipPath
       clipPathUnits="userSpaceOnUse"
       id="clipPath300"><path
         d="M 228.1,440.378 V 308.843 l 11.628,-11.628 v 154.79 z"
         id="path298"
         inkscape:connector-curvature="0" /></clipPath><linearGradient
       gradientTransform="matrix(11.6277,0,0,-11.6277,228.10049,374.60999)"
       gradientUnits="userSpaceOnUse"
       id="linearGradient316"
       spreadMethod="pad"
       x1="0"
       x2="1"
       y1="0"
       y2="0"><stop
         style="stop-opacity:1;stop-color:#ffffff"
         id="stop310"
         offset="0" /><stop
         style="stop-opacity:0;stop-color:#ffffff"
         id="stop312"
         offset="0.0363128" /><stop
         style="stop-opacity:1;stop-color:#ffffff"
         id="stop314"
         offset="1" /></linearGradient><mask
       height="1"
       id="mask318"
       maskUnits="userSpaceOnUse"
       width="1"
       x="0"
       y="0"><g
         id="g328"><g
           id="g326"><g
             id="g324"><g
               id="g322"><path
                 style="fill:url(#linearGradient316);stroke:none"
                 d="M -32768,32767 H 32767 V -32768 H -32768 Z"
                 id="path320"
                 inkscape:connector-curvature="0" /></g></g></g></g></mask><linearGradient
       gradientTransform="matrix(11.6277,0,0,-11.6277,228.10049,374.60999)"
       gradientUnits="userSpaceOnUse"
       id="linearGradient340"
       spreadMethod="pad"
       x1="0"
       x2="1"
       y1="0"
       y2="0"><stop
         style="stop-opacity:1;stop-color:#c3c7f4"
         id="stop334"
         offset="0" /><stop
         style="stop-opacity:1;stop-color:#c2c6f3"
         id="stop336"
         offset="0.0363128" /><stop
         style="stop-opacity:1;stop-color:#a6ade2"
         id="stop338"
         offset="1" /></linearGradient><clipPath
       clipPathUnits="userSpaceOnUse"
       id="clipPath350"><path
         d="M 0,750 H 750 V 0 H 0 Z"
         id="path348"
         inkscape:connector-curvature="0" /></clipPath><linearGradient
       gradientTransform="matrix(0,54.739489,54.739489,0,132.06365,246.8527)"
       gradientUnits="userSpaceOnUse"
       id="linearGradient376"
       spreadMethod="pad"
       x1="0"
       x2="1"
       y1="0"
       y2="0"><stop
         style="stop-opacity:1;stop-color:#99b0c9"
         id="stop368"
         offset="0" /><stop
         style="stop-opacity:1;stop-color:#99b0c9"
         id="stop370"
         offset="0.776196" /><stop
         style="stop-opacity:1;stop-color:#99b0c9"
         id="stop372"
         offset="0.81574458" /><stop
         style="stop-opacity:1;stop-color:#c3c7f4"
         id="stop374"
         offset="1" /></linearGradient><linearGradient
       gradientTransform="matrix(0,63.969962,63.969962,0,133.89686,206.51531)"
       gradientUnits="userSpaceOnUse"
       id="linearGradient398"
       spreadMethod="pad"
       x1="0"
       x2="1"
       y1="0"
       y2="0"><stop
         style="stop-opacity:1;stop-color:#c3c7f4"
         id="stop392"
         offset="0" /><stop
         style="stop-opacity:1;stop-color:#5f698f"
         id="stop394"
         offset="0.96811981" /><stop
         style="stop-opacity:1;stop-color:#5f698f"
         id="stop396"
         offset="1" /></linearGradient><linearGradient
       gradientTransform="matrix(0,45.219552,45.219552,0,52.044947,239.83753)"
       gradientUnits="userSpaceOnUse"
       id="linearGradient422"
       spreadMethod="pad"
       x1="0"
       x2="1"
       y1="0"
       y2="0"><stop
         style="stop-opacity:1;stop-color:#99b0c9"
         id="stop414"
         offset="0" /><stop
         style="stop-opacity:1;stop-color:#99b0c9"
         id="stop416"
         offset="0.776196" /><stop
         style="stop-opacity:1;stop-color:#99b0c9"
         id="stop418"
         offset="0.81574458" /><stop
         style="stop-opacity:1;stop-color:#c3c7f4"
         id="stop420"
         offset="1" /></linearGradient><linearGradient
       gradientTransform="matrix(0,52.844732,52.844732,0,53.559326,206.51531)"
       gradientUnits="userSpaceOnUse"
       id="linearGradient444"
       spreadMethod="pad"
       x1="0"
       x2="1"
       y1="0"
       y2="0"><stop
         style="stop-opacity:1;stop-color:#c3c7f4"
         id="stop438"
         offset="0" /><stop
         style="stop-opacity:1;stop-color:#5f698f"
         id="stop440"
         offset="0.96811981" /><stop
         style="stop-opacity:1;stop-color:#5f698f"
         id="stop442"
         offset="1" /></linearGradient><clipPath
       clipPathUnits="userSpaceOnUse"
       id="clipPath454"><path
         d="M 0,750 H 750 V 0 H 0 Z"
         id="path452"
         inkscape:connector-curvature="0" /></clipPath><clipPath
       clipPathUnits="userSpaceOnUse"
       id="clipPath746"><path
         d="M 0,750 H 750 V 0 H 0 Z"
         id="path744"
         inkscape:connector-curvature="0" /></clipPath></defs><sodipodi:namedview
     bordercolor="#666666"
     borderopacity="1"
     gridtolerance="10"
     guidetolerance="10"
     id="namedview4"
     objecttolerance="10"
     pagecolor="#ffffff"
     showgrid="false"
     inkscape:current-layer="g10"
     inkscape:cx="60.743726"
     inkscape:cy="101.19257"
     inkscape:pagecheckerboard="true"
     inkscape:pageopacity="0"
     inkscape:pageshadow="2"
     inkscape:window-height="1343"
     inkscape:window-maximized="0"
     inkscape:window-width="1685"
     inkscape:window-x="0"
     inkscape:window-y="0"
     inkscape:zoom="1.4142136" /><g
     id="g10"
     transform="matrix(1.3333333,0,0,-1.3333333,0,290)"
     inkscape:groupmode="layer"
     inkscape:label="cyclistandlevel"><g
       id="g356"
       transform="matrix(0.49787341,0,0,0.49787341,-82.907872,-82.907922)"><g
         id="g358"><g
           id="g364"><g
             id="g366" /></g></g></g><g
       id="g402"
       transform="matrix(0.49787341,0,0,0.49787341,-82.907872,-82.907922)"><g
         id="g404"><g
           id="g410"><g
             id="g412" /></g></g></g><g
       id="g616"
       transform="matrix(0.49787341,0,0,0.49787341,103.59775,107.54568)" /><g
       id="g620"
       transform="matrix(0.49787341,0,0,0.49787341,129.30434,149.76137)" /><g
       id="g624"
       transform="matrix(0.49787341,0,0,0.49787341,113.53724,160.5687)" /><g
       id="g628"
       transform="matrix(0.49787341,0,0,0.49787341,112.83758,162.81521)" /><g
       id="g632"
       transform="matrix(0.49787341,0,0,0.49787341,144.77392,77.091764)" /><g
       id="g636"
       transform="matrix(0.49787341,0,0,0.49787341,147.16894,100.50979)" /><g
       id="g644"
       transform="matrix(0.49787341,0,0,0.49787341,153.94032,48.253542)" /><g
       id="g648"
       transform="matrix(0.49787341,0,0,0.49787341,84.863815,38.120026)" /><g
       id="g652"
       transform="matrix(0.49787341,0,0,0.49787341,86.839725,14.673823)" /><g
       id="g660"
       transform="matrix(0.49787341,0,0,0.49787341,84.863815,74.485695)" /><g
       id="g664"
       transform="matrix(0.49787341,0,0,0.49787341,141.57419,30.999092)" /><g
       id="g668"
       transform="matrix(0.49787341,0,0,0.49787341,141.57419,34.123944)" /><g
       id="g728"
       transform="matrix(0.49787341,0,0,0.49787341,155.49278,49.805961)" /><g
       id="g672"
       transform="matrix(0.49787341,0,0,0.49787341,142.41778,46.911126)" /><g
       id="g676"
       transform="matrix(0.49787341,0,0,0.49787341,150.05118,98.136176)" /><g
       id="g680"
       transform="matrix(0.49787341,0,0,0.49787341,139.28566,87.200934)" /><g
       id="g684"
       transform="matrix(0.49787341,0,0,0.49787341,140.0616,83.926819)" /><g
       id="g692"
       transform="matrix(0.49787341,0,0,0.49787341,169.3365,125.09278)" /><g
       id="g696"
       transform="matrix(0.49787341,0,0,0.49787341,143.60894,61.092253)" /><g
       id="g700"
       transform="matrix(0.49787341,0,0,0.49787341,169.3365,125.09278)" /><g
       id="g704"
       transform="matrix(0.49787341,0,0,0.49787341,100.37665,107.54568)" /><g
       id="g712"
       transform="matrix(0.49787341,0,0,0.49787341,134.53834,156.96594)" /><g
       id="g716"
       transform="matrix(0.49787341,0,0,0.49787341,109.91307,103.22235)" /><g
       id="g720"
       transform="matrix(0.49787341,0,0,0.49787341,159.00025,94.999673)" /><g
       transform="matrix(0.49787341,0,0,0.49787341,-82.907872,-82.907921)"
       id="g108" /><g
       transform="matrix(0.49787341,0,0,0.49787341,-82.907872,-82.907921)"
       id="g204" /><g
       transform="matrix(0.49787341,0,0,0.49787341,-82.907872,-82.907921)"
       id="g254" /><g
       transform="matrix(0.49787341,0,0,0.49787341,-82.907872,-82.907921)"
       id="g304" /><g
       id="g732"
       transform="matrix(0.49787341,0,0,0.49787341,138.64873,166.79357)" /><g
       id="g4847"
       transform="scale(1.0497105)"><g
         id="g5309"><path
           inkscape:connector-curvature="0"
           id="path50"
           d="m 103.59999,-6.2499999e-7 c -1.34625,0 -2.61135,0.52426000499999 -3.56278,1.47620002499999 L 1.4756986,100.0377 C 0.52376462,100.98914 1.625e-6,102.25424 1.625e-6,103.59999 c 0,1.34575 0.523762995,2.61134 1.475696975,3.56278 l 98.5615114,98.56201 c 0.95143,0.95143 2.21653,1.4752 3.56278,1.4752 1.34625,0 2.61135,-0.52377 3.56278,-1.4752 l 98.56151,-98.56201 c 0.95194,-0.95193 1.4757,-2.21703 1.4757,-3.56278 0,-1.34526 -0.52376,-2.61035 -1.4757,-3.56229 L 107.16277,1.4761994 C 106.21134,0.52425938 104.94624,-6.25e-7 103.59999,-6.25e-7"
           style="fill:#c3c7f4;fill-opacity:1;fill-rule:nonzero;stroke:none;stroke-width:0.4978734" /><g
           transform="matrix(0.49787341,0,0,0.49787341,-82.907872,-82.907922)"
           id="g52"><g
             id="g54"
             clip-path="url(#clipPath58)"><g
               id="g60"><g
                 id="g62" /><g
                 mask="url(#mask74)"
                 id="g86"><g
                   id="g88"><path
                     inkscape:connector-curvature="0"
                     id="path96"
                     d="m 382.749,231.201 h 60.73 L 554.84,342.562 v 64.095 L 382.749,578.748 Z"
                     style="fill:url(#linearGradient94);stroke:none"
                     mask="none"
                     clip-path="none" /></g></g></g></g></g><g
           id="g156"
           transform="matrix(0.49787341,0,0,0.49787341,-82.907872,-82.907921)"><g
             id="g158" /><g
             mask="url(#mask170)"
             id="g182"><g
               id="g184"><path
                 inkscape:connector-curvature="0"
                 id="path192"
                 d="m 169.489,381.766 c -1.912,-1.911 -2.965,-4.454 -2.965,-7.156 v 0 c 0,-2.704 1.053,-5.245 2.965,-7.156 v 0 L 305.742,231.201 h 7.241 V 525.26 Z"
                 style="fill:url(#linearGradient190);stroke:none"
                 mask="none"
                 clip-path="none" /></g></g></g><g
           transform="matrix(0.49787341,0,0,0.49787341,-82.907872,-82.907921)"
           mask="url(#mask122)"
           id="g134"><g
             id="g136"><path
               inkscape:connector-curvature="0"
               id="path146"
               d="m 382.749,231.201 h 34.883 v 312.664 l -34.883,34.883 z"
               style="fill:url(#linearGradient144);stroke:none"
               clip-path="none"
               mask="none" /></g></g><g
           transform="matrix(0.49787341,0,0,0.49787341,-82.907872,-82.907921)"
           mask="url(#mask218)"
           id="g230"><g
             id="g232"><path
               inkscape:connector-curvature="0"
               id="path242"
               d="M 273.449,485.725 V 263.494 l 11.627,-11.628 v 245.487 z"
               style="fill:url(#linearGradient240);stroke:none"
               clip-path="none"
               mask="none" /></g></g><g
           transform="matrix(0.49787341,0,0,0.49787341,-82.907872,-82.907921)"
           mask="url(#mask268)"
           id="g280"><g
             id="g282"><path
               inkscape:connector-curvature="0"
               id="path292"
               d="M 251.356,463.633 V 285.587 l 11.628,-11.628 V 475.26 Z"
               style="fill:url(#linearGradient290);stroke:none"
               clip-path="none"
               mask="none" /></g></g><g
           transform="matrix(0.49787341,0,0,0.49787341,-82.907872,-82.907921)"
           mask="url(#mask318)"
           id="g330"><g
             id="g332"><path
               inkscape:connector-curvature="0"
               id="path342"
               d="M 228.1,440.378 V 308.843 l 11.628,-11.628 v 154.79 z"
               style="fill:url(#linearGradient340);stroke:none"
               clip-path="none"
               mask="none" /></g></g><g
           id="g5423"><g
             transform="matrix(0.49787341,0,0,0.49787341,-82.907872,-82.907922)"
             id="g344"><g
               id="g346"
               clip-path="url(#clipPath350)"><g
                 transform="translate(256.9053,280.0371)"
                 id="g352"><path
                   inkscape:connector-curvature="0"
                   id="path354"
                   d="m 0,0 110.548,-110.548 c 1.912,-1.912 4.453,-2.965 7.157,-2.965 2.703,0 5.244,1.053 7.155,2.965 L 235.409,0 Z"
                   style="fill:#26354b;fill-opacity:1;fill-rule:nonzero;stroke:none"
                   mask="none"
                   clip-path="none" /></g></g></g><g
             transform="matrix(0.49787341,0,0,0.49787341,109.82211,55.62635)"
             id="g532"><path
               inkscape:connector-curvature="0"
               id="path534"
               d="M 0,0 -58.202,-2.337 -124.48,0 c -0.388,0 -0.702,0.313 -0.702,0.701 0,0.388 0.314,0.701 0.702,0.701 H 0 C 0.388,1.402 0.701,1.089 0.701,0.701 0.701,0.313 0.388,0 0,0"
               style="fill:#242424;fill-opacity:1;fill-rule:nonzero;stroke:none"
               mask="none"
               clip-path="none" /></g><g
             transform="matrix(0.49787341,0,0,0.49787341,115.78738,9.9984408)"
             id="g724"><path
               inkscape:connector-curvature="0"
               id="path726"
               d="m 0,0 -48.793,0.041 5.384,-5.384 36.573,-1.289 z"
               style="fill:#242424;fill-opacity:1;fill-rule:nonzero;stroke:none"
               mask="none"
               clip-path="none" /></g></g></g><g
         transform="translate(0,-150)"
         id="g5317"><g
           id="g5017"><path
             mask="none"
             clip-path="none"
             style="fill:url(#linearGradient376);stroke:none;stroke-width:0.4978734"
             d="m 104.69431,274.22236 c 0,-15.11544 12.25366,-27.3696 27.3696,-27.3696 v 0 c 15.11593,0 27.36959,12.25416 27.36959,27.3696 v 0 c 0,15.11593 -12.25366,27.36959 -27.36959,27.36959 v 0 c -15.11594,0 -27.3696,-12.25366 -27.3696,-27.36959"
             id="path378"
             inkscape:connector-curvature="0" /><path
             mask="none"
             clip-path="none"
             style="fill:url(#linearGradient398);stroke:none;stroke-width:0.4978734"
             d="m 140.94,266.23995 -7.04292,-7.33318 -1.44781,5.69318 0.57952,-7.33317 -2.809,-5.05541 h -0.3515 l -8.70731,5.05541 8.40361,-7.36504 v -0.52775 l -0.009,-0.0189 0.009,-0.003 1.82371,-20.06629 -1.82371,-22.77073 6.06907,0.19317 -1.07092,24.12396 -1.05201,17.36483 1.73708,3.08781 11.38537,5.40292 -12.44683,-2.99073 0.38635,3.66634 6.27121,7.33268 3.85951,3.47317 -3.18439,-1.35023 -2.02585,3.66584 z"
             id="path400"
             inkscape:connector-curvature="0" /></g><g
           id="g5041"><path
             clip-path="none"
             mask="none"
             style="fill:url(#linearGradient422);stroke:none;stroke-width:0.4978734"
             d="m 29.43527,262.44715 c 0,-12.48666 10.122265,-22.60943 22.609428,-22.60943 v 0 c 12.487661,0 22.609925,10.12277 22.609925,22.60943 v 0 c 0,12.48716 -10.122264,22.60993 -22.609925,22.60993 v 0 c -12.487163,0 -22.609428,-10.12277 -22.609428,-22.60993"
             id="path424"
             inkscape:connector-curvature="0" /><path
             clip-path="none"
             mask="none"
             style="fill:url(#linearGradient444);stroke:none;stroke-width:0.4978734"
             d="m 59.377878,255.85282 -5.818646,-6.05713 -1.195892,4.70192 0.478456,-6.05713 -2.32009,-4.17666 h -0.290758 l -7.192777,4.17666 6.942347,-6.08451 v -0.43564 l -0.008,-0.0159 0.008,-0.002 1.506565,-16.57619 -1.506565,-18.81115 5.013585,0.15931 -0.884721,19.92888 -0.868789,14.34473 1.434373,2.55061 9.405327,4.46343 -10.281584,-2.47094 0.318639,3.02906 5.18087,6.05762 3.187884,2.86925 -2.630265,-1.11624 -1.673353,3.02907 z"
             id="path446"
             inkscape:connector-curvature="0" /></g></g><g
         transform="translate(150)"
         id="g4993"><path
           style="fill:#ffffff;fill-opacity:1;fill-rule:nonzero;stroke:none;stroke-width:0.4978734"
           d="m -50.067248,57.736437 c -6.940356,0 -12.567321,5.626467 -12.567321,12.566823 0,6.941351 5.626965,12.56732 12.567321,12.56732 6.940853,0 12.567315,-5.625969 12.567315,-12.56732 0,-6.940356 -5.626462,-12.566823 -12.567315,-12.566823 m 0,25.650936 c -7.225637,0 -13.083616,-5.857979 -13.083616,-13.084113 0,-7.225139 5.857979,-13.083118 13.083616,-13.083118 7.226134,0 13.08361,5.857979 13.08361,13.083118 0,7.226134 -5.857476,13.084113 -13.08361,13.084113"
           id="path458"
           inkscape:connector-curvature="0"
           clip-path="none"
           mask="none" /><path
           style="fill:#424242;fill-opacity:1;fill-rule:nonzero;stroke:none;stroke-width:0.4978734"
           d="m -85.607344,99.684712 2.91704,2.065178 8.48326,5.70065 0.726895,2.60139 0.729385,4.66756 -0.108537,3.55781 2.700964,2.06567 3.67331,-0.45904 0.216077,-2.4102 -3.194356,-12.5484 -12.547899,-5.355129 -0.306192,0.381869 -1.224271,-0.688559 -0.688559,-0.152847 z"
           id="path462"
           inkscape:connector-curvature="0"
           clip-path="none"
           mask="none" /><path
           style="fill:#ea972f;fill-opacity:1;fill-rule:nonzero;stroke:none;stroke-width:0.4978734"
           d="m -74.206839,118.33455 -2.704947,1.70671 c 0,0 -2.971308,-1.3577 -3.406449,-0.96488 -0.511316,0.46153 -0.797594,2.27578 -0.797594,2.27578 l -1.023627,-0.0966 0.754776,2.56704 c 0,0 -0.968364,0.98479 -0.681589,2.30465 0.286775,1.31987 3.039019,5.11864 5.736,3.22523 2.69698,-1.89391 2.582469,-1.09034 2.69698,-3.09877 0.115009,-2.00842 -0.45904,-3.5578 -0.45904,-3.5578 l 1.721647,-0.68906 z"
           id="path466"
           inkscape:connector-curvature="0"
           clip-path="none"
           mask="none" /><path
           style="fill:#0b0b0b;fill-opacity:1;fill-rule:nonzero;stroke:none;stroke-width:0.4978734"
           d="m -81.121853,123.614 c 0,0.22155 0.179732,0.40178 0.401783,0.40178 0.221554,0 0.401784,-0.18023 0.401784,-0.40178 0,-0.22205 -0.18023,-0.40178 -0.401784,-0.40178 -0.222051,0 -0.401783,0.17973 -0.401783,0.40178"
           id="path470"
           inkscape:connector-curvature="0"
           clip-path="none"
           mask="none" /><path
           style="fill:#0b0b0b;fill-opacity:1;fill-rule:nonzero;stroke:none;stroke-width:0.4978734"
           d="m -81.59155,124.399 c 0,0 1.507561,0.44311 1.516025,0.58898 0.009,0.14538 -2.247899,0.36694 -1.516025,-0.58898"
           id="path474"
           inkscape:connector-curvature="0"
           clip-path="none"
           mask="none" /><path
           style="fill:#ea972f;fill-opacity:1;fill-rule:nonzero;stroke:none;stroke-width:0.4978734"
           d="m -70.808007,88.729057 c -0.522767,2.118949 -1.893911,2.983755 -1.893911,2.983755 l 7.17336,2.697478 c -0.221553,0.166788 -3.694718,0.746811 -3.863995,1.013671 -0.591972,0.933512 -1.137641,2.082106 -1.415454,2.715899 l -6.979688,-4.398214 c -0.769712,-0.48443 -0.995249,-1.505071 -0.501358,-2.268809 l 8.677435,-12.415469 0.987283,1.098807 -1.219292,4.250345 c 0,0 -0.442111,2.203588 -0.96438,4.322537"
           id="path478"
           inkscape:connector-curvature="0"
           clip-path="none"
           mask="none" /><path
           style="fill:#424242;fill-opacity:1;fill-rule:nonzero;stroke:none;stroke-width:0.4978734"
           d="m -68.79854,80.783993 c 0,0 -0.290261,-0.47049 -0.638772,-0.705984 -0.348013,-0.235992 -0.58052,-0.235992 -0.58052,-0.235992 l -3.831634,-3.610081 6.037711,2.119448 0.174255,1.255636 z"
           id="path482"
           inkscape:connector-curvature="0"
           clip-path="none"
           mask="none" /><path
           style="fill:#43404b;fill-opacity:1;fill-rule:nonzero;stroke:none;stroke-width:0.4978734"
           d="m -64.87246,101.68985 -11.622357,-7.133032 c 0,0 2.110485,0.158323 2.9265,-0.534219 1.197385,-1.016159 1.87051,-1.931748 1.87051,-1.931748 0,0 13.464489,3.579709 14.39352,4.101979 0.929032,0.522767 -2.982261,2.188153 -7.568173,5.49702"
           id="path486"
           inkscape:connector-curvature="0"
           clip-path="none"
           mask="none" /><path
           style="fill:#242424;fill-opacity:1;fill-rule:nonzero;stroke:none;stroke-width:0.4978734"
           d="m -50.067248,57.220093 c -7.225637,0 -13.083616,5.857979 -13.083616,13.083117 0,7.226135 5.857979,13.084114 13.083616,13.084114 7.226134,0 13.08361,-5.857979 13.08361,-13.084114 0,-7.225138 -5.857476,-13.083117 -13.08361,-13.083117 m 0,27.544349 c -7.986388,0 -14.460734,-6.474346 -14.460734,-14.461232 0,-7.986387 6.474346,-14.460733 14.460734,-14.460733 7.986885,0 14.461226,6.474346 14.461226,14.460733 0,7.986886 -6.474341,14.461232 -14.461226,14.461232"
           id="path494"
           inkscape:connector-curvature="0"
           clip-path="none"
           mask="none" /><path
           style="fill:#242424;fill-opacity:1;fill-rule:nonzero;stroke:none;stroke-width:0.4978734"
           d="m -94.061981,57.220093 c -7.226139,0 -13.083619,5.857979 -13.083619,13.083117 0,7.226135 5.85748,13.084114 13.083619,13.084114 7.226134,0 13.08361,-5.857979 13.08361,-13.084114 0,-7.225138 -5.857476,-13.083117 -13.08361,-13.083117 m 0,27.544349 c -7.986889,0 -14.460729,-6.474346 -14.460729,-14.461232 0,-7.986387 6.47384,-14.460733 14.460729,-14.460733 7.986885,0 14.460728,6.474346 14.460728,14.460733 0,7.986886 -6.473843,14.461232 -14.460728,14.461232"
           id="path498"
           inkscape:connector-curvature="0"
           clip-path="none"
           mask="none" /><path
           style="fill:#424242;fill-opacity:1;fill-rule:nonzero;stroke:none;stroke-width:0.4978734"
           d="m -94.061981,68.352741 c -1.077896,0 -1.951166,0.87327 -1.951166,1.950668 0,1.077896 0.87327,1.951166 1.951166,1.951166 1.077398,0 1.950668,-0.87327 1.950668,-1.951166 0,-1.077398 -0.87327,-1.950668 -1.950668,-1.950668"
           id="path502"
           inkscape:connector-curvature="0"
           clip-path="none"
           mask="none" /><path
           style="fill:#ffffff;fill-opacity:1;fill-rule:nonzero;stroke:none;stroke-width:0.4978734"
           d="m -102.92084,61.389782 c -4.92297,4.892602 -4.94787,12.849615 -0.0548,17.772587 4.892106,4.922972 12.849611,4.947866 17.772086,0.05526 4.92347,-4.8931 4.947866,-12.849615 0.05526,-17.773085 -4.892602,-4.922474 -12.84961,-4.947368 -17.772576,-0.05477 m 18.081755,18.194286 c -5.125607,5.093245 -13.409717,5.067853 -18.502955,-0.05775 -5.09375,-5.125109 -5.06786,-13.409225 0.0572,-18.502968 5.125107,-5.093743 13.409218,-5.067853 18.502961,0.05726 5.093742,5.125606 5.067853,13.409224 -0.05726,18.503465"
           id="path506"
           inkscape:connector-curvature="0"
           clip-path="none"
           mask="none" /><path
           style="fill:#424242;fill-opacity:1;fill-rule:nonzero;stroke:none;stroke-width:0.4978734"
           d="m -68.4684,65.138919 c -1.986017,0 -3.59614,1.610123 -3.59614,3.59614 0,1.986017 1.610123,3.596139 3.59614,3.596139 1.986017,0 3.596139,-1.610122 3.596139,-3.596139 0,-1.986017 -1.610122,-3.59614 -3.596139,-3.59614"
           id="path510"
           inkscape:connector-curvature="0"
           clip-path="none"
           mask="none" /><path
           style="fill:#ffffff;fill-opacity:1;fill-rule:nonzero;stroke:none;stroke-width:0.4978734"
           d="m -68.4684,66.549394 c -1.207343,0 -2.186163,0.978321 -2.186163,2.185664 0,1.206845 0.97882,2.185665 2.186163,2.185665 1.207343,0 2.185664,-0.97882 2.185664,-2.185665 0,-1.207343 -0.978321,-2.185664 -2.185664,-2.185664"
           id="path514"
           inkscape:connector-curvature="0"
           clip-path="none"
           mask="none" /><path
           style="fill:#868686;fill-opacity:1;fill-rule:nonzero;stroke:none;stroke-width:0.4978734"
           d="m -67.550222,78.720059 -3.902332,-1.358199 0.401784,-0.803567 1.204853,0.401783 1.033088,-8.148196 0.574048,0.22952 -0.746313,8.148694 1.473208,0.57355 z"
           id="path518"
           inkscape:connector-curvature="0"
           clip-path="none"
           mask="none" /><path
           style="fill:#ffffff;fill-opacity:1;fill-rule:nonzero;stroke:none;stroke-width:0.4978734"
           d="m -55.939416,107.60354 c 0,0 -6.166163,11.01495 -9.774749,13.19862 -4.361371,2.63973 -7.058351,1.20486 -7.058351,1.20486 l -0.286775,-2.77366 1.319862,-8.76058 c 0,0 2.79307,-1.8262 3.500548,-2.63972 1.074411,-1.23572 2.467461,-5.50897 2.467461,-5.50897 z"
           id="path522"
           inkscape:connector-curvature="0"
           clip-path="none"
           mask="none" /><path
           style="fill:#c3c7f4;fill-opacity:1;fill-rule:nonzero;stroke:none;stroke-width:0.4978734"
           d="m -67.029745,116.63406 c -0.342039,-3.11519 -2.241924,-6.42904 -2.241924,-6.42904 0,0 -0.08563,-0.0279 -0.314656,-0.0423 0.663167,-0.4441 1.75351,-0.98429 2.612341,-0.47547 0.978322,0.58002 1.062462,3.87595 -0.05576,6.94683"
           id="path526"
           inkscape:connector-curvature="0"
           clip-path="none"
           mask="none" /><path
           style="fill:#ea972f;fill-opacity:1;fill-rule:nonzero;stroke:none;stroke-width:0.4978734"
           d="m -87.061084,99.684712 2.91704,2.065178 8.48326,5.70065 0.726895,2.60139 0.729385,4.66756 -0.108537,3.55781 2.701461,2.06567 3.672813,-0.45904 0.216077,-2.4102 -4.082064,-11.69306 c -0.118494,-0.33905 -0.367929,-0.61636 -0.692045,-0.77021 l -9.648283,-4.57993 -0.810538,-0.91858 -0.05427,-1.778404 -2.484887,0.172264 z"
           id="path530"
           inkscape:connector-curvature="0"
           clip-path="none"
           mask="none" /><path
           style="fill:#424242;fill-opacity:1;fill-rule:nonzero;stroke:none;stroke-width:0.4978734"
           d="m -50.067251,68.352741 c -1.077398,0 -1.950668,0.87327 -1.950668,1.950668 0,1.077896 0.87327,1.951166 1.950668,1.951166 1.077896,0 1.951166,-0.87327 1.951166,-1.951166 0,-1.077398 -0.87327,-1.950668 -1.951166,-1.950668"
           id="path546"
           inkscape:connector-curvature="0"
           clip-path="none"
           mask="none" /><path
           style="fill:#ffffff;fill-opacity:1;fill-rule:nonzero;stroke:none;stroke-width:0.4978734"
           d="m -50.067251,69.117525 c -0.654704,0 -1.185934,0.530733 -1.185934,1.185934 0,0.655202 0.53123,1.186433 1.185934,1.186433 0.655201,0 1.185934,-0.531231 1.185934,-1.186433 0,-0.655201 -0.530733,-1.185934 -1.185934,-1.185934"
           id="path550"
           inkscape:connector-curvature="0"
           clip-path="none"
           mask="none" /><path
           style="fill:#424242;fill-opacity:1;fill-rule:nonzero;stroke:none;stroke-width:0.4978734"
           d="m -66.978414,72.320145 5.391969,15.636212 9.981859,-15.636212 z m -0.297729,2.355937 -0.394315,-1.145607 -0.417218,-1.21033 h -2.207073 c 0,0 -13.36342,15.438059 -14.547861,16.802232 h 22.548687 l -4.981722,-14.447291 z m 17.070581,-2.598401 -10.941261,17.139292 c -9.96e-4,0.0015 -0.0025,0.0025 -0.0035,0.004 l 2.282749,6.619725 c 0.0941,0.27383 -0.05128,0.572554 -0.325111,0.66715 -0.274328,0.0946 -0.572057,-0.05128 -0.666653,-0.325111 L -61.946423,90.13009 H -84.62605 l 1.963115,5.711106 c 0.08713,0.253915 -0.03137,0.532724 -0.274827,0.646239 l -4.649141,2.164256 5.591118,0.164298 c 0.289264,0.0085 0.51729,0.25043 0.508827,0.539695 -0.0085,0.289264 -0.24595,0.519282 -0.539695,0.508329 l -7.804166,-0.22952 c -0.242962,-0.0065 -0.449082,-0.18023 -0.498371,-0.418214 -0.04929,-0.237983 0.07219,-0.478456 0.292251,-0.581516 l 6.228397,-2.899117 -3.490591,-10.154626 c -2.068664,0.919075 -4.35689,1.431386 -6.762614,1.431386 -0.248439,0 -0.44958,-0.201638 -0.44958,-0.450077 0,-0.248439 0.201141,-0.44958 0.44958,-0.44958 2.30366,0 4.493307,-0.495384 6.469367,-1.385084 l -2.357929,-6.859202 -4.45049,-7.645344 c -0.145379,-0.25043 -0.06074,-0.571061 0.18969,-0.716938 0.08315,-0.04829 0.173758,-0.07169 0.263375,-0.07169 0.18023,0 0.356477,0.0941 0.453563,0.261383 l 4.475881,7.689157 c 0.01743,0.02937 0.03186,0.06074 0.04282,0.0931 l 2.331541,6.782529 c 4.988691,-2.661631 8.391158,-7.919174 8.391158,-13.957383 0,-0.247941 0.201639,-0.449082 0.44958,-0.449082 0.248439,0 0.44958,0.201141 0.44958,0.449082 0,6.432524 -3.653893,12.026132 -8.994581,14.818206 l 1.02064,2.968321 14.397005,-16.637435 c 0.09908,-0.115507 0.243958,-0.181226 0.396308,-0.181226 h 2.084596 l -0.208609,-0.605414 c -0.0941,-0.273831 0.05128,-0.572555 0.325111,-0.666653 0.05626,-0.01942 0.114013,-0.02888 0.170771,-0.02888 0.21757,0 0.420703,0.136417 0.495882,0.35349 l 0.326107,0.947453 h 16.693192 c 0.191681,0 0.367929,0.104553 0.459537,0.272336 0.09211,0.167784 0.08514,0.37241 -0.01792,0.534219"
           id="path554"
           inkscape:connector-curvature="0"
           clip-path="none"
           mask="none" /><path
           style="fill:#242424;fill-opacity:1;fill-rule:nonzero;stroke:none;stroke-width:0.4978734"
           d="m -64.64294,95.4382 h 7.115606 c 0,0 1.91283,-0.153345 2.525214,0.918079 0.611882,1.070925 0.535214,2.141851 -1.377118,2.219021 -1.913327,0.07618 -5.279449,-1.530463 -5.279449,-1.530463 0,0 -6.580393,0.22952 -2.984253,-1.606637"
           id="path558"
           inkscape:connector-curvature="0"
           clip-path="none"
           mask="none" /><path
           style="fill:#0b0b0b;fill-opacity:1;fill-rule:nonzero;stroke:none;stroke-width:0.4978734"
           d="m -65.626469,124.05323 c -1.246169,0.0749 -2.610925,-0.35038 -3.94336,-1.75049 0,0 3.599078,-0.57921 5.07129,-2.62646 1.16388,-1.61943 4.325532,-5.92768 5.964844,-8.16358 -0.462537,-0.33987 -3.119146,-2.20068 -5.687988,-1.78565 -4.320546,0.69752 -7.344727,5.71437 -7.344727,5.71437 0,0 2.463946,-4.92699 5.29834,-6.13185 2.749257,-1.16851 4.961189,-0.52477 6.215332,0.10254 1.08513,0.54214 1.966974,0.94729 2.261719,1.08398 0.134299,-0.18311 0.834961,-1.14257 0.834961,-1.14257 0,0 1.203602,-0.21507 2.293946,1.39307 1.089844,1.60812 1.508788,2.8623 1.508788,2.8623 0,0 -5.138808,7.23674 -5.866699,7.49414 -0.727388,0.25691 -1.696289,0.19337 -1.696289,0.19337 0,0 -2.168586,2.59194 -4.910157,2.75683 z"
           id="path562"
           inkscape:connector-curvature="0"
           clip-path="none"
           mask="none" /><path
           style="fill:#6e6e6e;fill-opacity:1;fill-rule:nonzero;stroke:none;stroke-width:0.4978734"
           d="m -82.757221,97.733595 0.05725,1.778404 0.554631,0.918581 -4.916002,-0.745819 0.929032,-1.906357 z"
           id="path570"
           inkscape:connector-curvature="0"
           clip-path="none"
           mask="none" /><path
           style="fill:#ffffff;fill-opacity:1;fill-rule:nonzero;stroke:none;stroke-width:0.4978734"
           d="m -71.64379,121.9879 c 0,0 -1.989502,0.61189 -3.1371,-1.91283 -1.147599,-2.52472 -1.377118,-8.11036 -1.377118,-8.11036 0,0 3.060428,-1.45379 4.743738,-1.68331 1.68331,-0.22952 2.142349,-0.0767 2.142349,-0.0767 0,0 6.50372,11.32413 -2.371869,11.78317"
           id="path574"
           inkscape:connector-curvature="0"
           clip-path="none"
           mask="none" /><path
           style="fill:#ea972f;fill-opacity:1;fill-rule:nonzero;stroke:none;stroke-width:0.4978734"
           d="m -67.359138,82.09335 -2.977283,-19.266207 0.851363,-0.389337 2.654661,4.85327 c 0,0 1.587221,1.711191 1.955647,2.794065 0.367928,1.082875 0.07219,3.381556 -0.05925,3.544859 -0.131439,0.162805 -0.360958,1.631033 -0.360958,1.631033 l 2.077128,6.800453 z"
           id="path578"
           inkscape:connector-curvature="0"
           clip-path="none"
           mask="none" /><path
           style="fill:#26354b;fill-opacity:1;fill-rule:nonzero;stroke:none;stroke-width:0.4978734"
           d="m -56.134279,107.49903 -9.637207,-5.1753 0.241699,-4.066398 c 0,0 -1.169411,-5.113943 -1.246582,-7.284668 -0.07147,-1.984695 -0.01507,-4.788983 -0.0044,-5.301271 l -0.578613,-3.578617 c 0,0 0.158284,-0.45198 1.902832,-0.410153 1.745047,0.04185 2.238281,0.377925 2.238281,0.377925 l 6.172852,15.254889 c 0.343757,0.478942 1.360887,1.908802 2.041992,3.115713 1.849102,3.2775 -1.130859,7.06788 -1.130859,7.06788 z"
           id="path582"
           inkscape:connector-curvature="0"
           clip-path="none"
           mask="none" /><path
           style="fill:#242424;fill-opacity:1;fill-rule:nonzero;stroke:none;stroke-width:0.4978734"
           d="m -69.330667,62.718109 0.937495,-1.553365 -5.955064,-0.592469 -0.1638,0.371911 4.184626,1.941208 z"
           id="path590"
           inkscape:connector-curvature="0"
           clip-path="none"
           mask="none" /><path
           style="fill:#242424;fill-opacity:1;fill-rule:nonzero;stroke:none;stroke-width:0.4978734"
           d="m -79.310788,126.30197 1.135649,-1.92179 0.261881,-1.97955 -0.727891,-1.28152 c 0,0 -1.368156,0.40776 -1.921791,0.32013 l -0.553137,-0.0871 c 0,0 0.08713,-1.45578 0.582512,-2.35842 0.494886,-0.90265 1.048023,-1.25216 1.048023,-1.25216 0,0 1.048024,-0.1165 1.485156,0 0.436635,0.11651 1.514033,1.10628 1.863541,2.00892 0.349507,0.90265 0.198651,1.34576 0.198651,1.34576 l -1.159547,2.00294 -0.444103,1.00371 c 0,0 0.414728,1.43786 0.938989,1.46724 0.524261,0.0289 0.519282,-0.12248 0.664661,-0.64674 0.145877,-0.52376 0.121481,-1.41645 0.121481,-1.41645 0,0 1.164526,-0.99027 2.038294,-1.10628 0.87327,-0.1165 1.688787,0.64027 1.688787,0.64027 h -0.815517 l 0.524261,0.58251 -0.494887,-0.1165 c 0,0 0.291256,0.40776 0.291256,1.28103 0,0.87327 -0.466009,2.3878 -0.932019,2.96981 -0.465511,0.58251 -0.669639,0.75727 -0.669639,0.75727 z"
           id="path594"
           inkscape:connector-curvature="0"
           clip-path="none"
           mask="none" /><path
           style="fill:#73331d;fill-opacity:1;fill-rule:nonzero;stroke:none;stroke-width:0.4978734"
           d="m -77.854983,130.58203 c -2.894244,0.0825 -5.286465,-2.28709 -4.423828,-4.81201 -0.144186,-0.0166 -0.244251,-0.034 -0.410157,-0.0498 -1.834165,-0.17475 -3.260742,-0.29151 -3.260742,-0.29151 0,0 -0.319696,-0.40755 -0.174316,-0.66943 2.78407,0.27486 6.003664,0.33703 8.414063,1.25098 2.649682,1.01914 3.873046,2.21337 3.873046,2.21337 0,0 -0.961123,2.27127 -4.018066,2.35841 z"
           id="path598"
           sodipodi:nodetypes="cccccccc"
           inkscape:connector-curvature="0"
           clip-path="none"
           mask="none" /><path
           style="fill:#424242;fill-opacity:1;fill-rule:nonzero;stroke:none;stroke-width:0.4978734"
           d="m -73.119185,60.694502 0.918078,-0.729882 5.101211,0.482439 -0.412239,0.919074 z"
           id="path606"
           inkscape:connector-curvature="0"
           clip-path="none"
           mask="none" /></g><g
         transform="translate(-150)"
         id="g4864"><path
           style="fill:#d7caf6;fill-opacity:1;fill-rule:nonzero;stroke:none;stroke-width:0.4978734"
           d="m 290.60861,34.92129 c -26.59739,-1.658416 -32.55893,-19.888549 -38.61307,-21.801877 -2.62678,-0.830452 -7.21269,-1.46773 -11.67165,-1.929757 l 1.171,-1.170998 h 24.21109 z"
           id="path610"
           inkscape:connector-curvature="0"
           clip-path="none"
           mask="none" /><path
           style="fill:#ffffff;fill-opacity:1;fill-rule:nonzero;stroke:none;stroke-width:0.4978734"
           d="m 277.39261,21.70579 c -2.70694,2.818959 -11.13942,-2.150315 -11.13942,-2.150315 0,0 2.03431,6.611759 -7.3755,6.86667 -6.71482,0.181226 -16.01758,-8.184043 -20.79617,-12.990015 l 3.26306,-3.263063 24.60043,0.08862 z"
           id="path614"
           inkscape:connector-curvature="0"
           clip-path="none"
           mask="none" /><path
           style="fill:#242424;fill-opacity:1;fill-rule:nonzero;stroke:none;stroke-width:0.4978734"
           d="m 293.86714,40.389183 1.10976,-3.864493 -13.08262,2.168238 -0.13542,0.8897 10.17255,1.551872 z"
           id="path642"
           inkscape:connector-curvature="0"
           clip-path="none"
           mask="none" /><path
           style="fill:#242424;fill-opacity:1;fill-rule:nonzero;stroke:none;stroke-width:0.4978734"
           d="m 256.16249,34.397673 c -0.12994,0.05128 -0.27582,-0.01394 -0.32611,-0.143388 -1.1237,-2.882189 -2.8085,-5.465654 -5.00711,-7.677705 -5.1276,-5.159463 -12.44335,-7.48005 -19.5485,-6.343903 l 0.6074,-0.607406 c 0.98081,-0.12646 1.96362,-0.190685 2.94393,-0.190685 6.05862,0 11.98431,2.389792 16.35415,6.78701 2.24789,2.260843 3.97004,4.902559 5.11963,7.84997 0.0508,0.128949 -0.0139,0.275324 -0.14339,0.326107"
           id="path658"
           inkscape:connector-curvature="0"
           clip-path="none"
           mask="none" /><path
           style="fill:#424242;fill-opacity:1;fill-rule:nonzero;stroke:none;stroke-width:0.4978734"
           d="m 293.73829,67.363773 c 0,0 -0.64325,-1.043543 -1.41545,-1.565314 -0.77171,-0.521273 -1.28601,-0.521273 -1.28601,-0.521273 l -8.49024,-7.99983 13.37836,4.695444 0.38585,2.782614 z"
           id="path690"
           inkscape:connector-curvature="0"
           clip-path="none"
           mask="none" /><path
           inkscape:connector-curvature="0"
           id="path618"
           d="m 253.59775,107.54569 6.46339,4.57744 18.79771,12.63055 1.61112,5.76438 1.6156,10.34183 -0.23998,7.88382 5.98494,4.57695 8.13923,-1.01715 0.47846,-5.34019 -7.07777,-27.80424 -27.80424,-11.86781 -4.9165,-1.01715 z"
           style="fill:#a85c31;fill-opacity:1;fill-rule:nonzero;stroke:none;stroke-width:0.4978734"
           clip-path="none"
           mask="none" /><path
           inkscape:connector-curvature="0"
           id="path622"
           d="m 279.30434,149.76137 -5.09026,3.95063 c 0,0 -3.60012,-4.42958 -5.24858,-3.41243 -1.85109,1.14212 -5.36508,6.07306 -5.36508,6.07306 h -2.16177 l 1.14461,3.94167 c 0,0 -2.03431,2.92451 -1.39902,5.84901 0.63628,2.92451 6.99363,11.31667 12.9701,7.12109 5.97597,-4.19658 5.72156,-2.41618 5.97597,-6.86667 0.25442,-4.45 -1.01715,-7.88333 -1.01715,-7.88333 l 3.8147,-1.52598 z"
           style="fill:#ea972f;fill-opacity:1;fill-rule:nonzero;stroke:none;stroke-width:0.4978734"
           clip-path="none"
           mask="none" /><path
           inkscape:connector-curvature="0"
           id="path626"
           d="m 263.53724,160.5687 c 0,0.4914 0.3983,0.8902 0.8897,0.8902 0.4914,0 0.8902,-0.3988 0.8902,-0.8902 0,-0.4914 -0.3988,-0.8902 -0.8902,-0.8902 -0.4914,0 -0.8897,0.3988 -0.8897,0.8902"
           style="fill:#0b0b0b;fill-opacity:1;fill-rule:nonzero;stroke:none;stroke-width:0.4978734"
           clip-path="none"
           mask="none" /><path
           inkscape:connector-curvature="0"
           id="path630"
           d="m 262.83758,162.81521 c 0,0 3.47516,-0.21209 3.60261,0.0846 0.12746,0.29673 -4.40767,2.458 -3.60261,-0.0846"
           style="fill:#0b0b0b;fill-opacity:1;fill-rule:nonzero;stroke:none;stroke-width:0.4978734"
           clip-path="none"
           mask="none" /><path
           inkscape:connector-curvature="0"
           id="path634"
           d="m 294.77392,77.09177 -2.84236,-35.95741 1.93573,-0.74532 3.08134,8.79792 c 0,0 5.41637,6.29163 6.08451,8.73569 0.66815,2.44406 -0.29573,7.48901 -0.6084,7.83204 -0.31266,0.34254 -1.01715,3.5603 -1.01715,3.5603 l 3.68725,14.114211 z"
           style="fill:#a85c31;fill-opacity:1;fill-rule:nonzero;stroke:none;stroke-width:0.4978734"
           clip-path="none"
           mask="none" /><path
           inkscape:connector-curvature="0"
           id="path638"
           d="m 297.16894,100.50979 -3.10026,-23.91585 c 0,0 0.40975,-0.97882 4.26329,-0.65121 3.85354,0.3276 4.90157,1.13813 4.90157,1.13813 l 9.27836,23.17452 z"
           style="fill:#424242;fill-opacity:1;fill-rule:nonzero;stroke:none;stroke-width:0.4978734"
           clip-path="none"
           mask="none" /><path
           inkscape:connector-curvature="0"
           id="path646"
           d="m 303.94032,48.25354 c 2.30914,11.34952 11.24845,20.28834 22.59748,22.59748 l 3.54685,3.54635 C 314.19402,73.28662 301.50423,60.59732 300.39397,44.70719 Z"
           style="fill:#ff5159;fill-opacity:1;fill-rule:nonzero;stroke:none;stroke-width:0.4978734"
           clip-path="none"
           mask="none" /><path
           inkscape:connector-curvature="0"
           id="path650"
           d="m 234.86381,38.12003 c -2.3873,0 -4.32303,1.93573 -4.32303,4.32303 0,2.38781 1.93573,4.32304 4.32303,4.32304 2.38781,0 4.32354,-1.93523 4.32354,-4.32304 0,-2.3873 -1.93573,-4.32303 -4.32354,-4.32303"
           style="fill:#ff5159;fill-opacity:1;fill-rule:nonzero;stroke:none;stroke-width:0.4978734"
           clip-path="none"
           mask="none" /><path
           inkscape:connector-curvature="0"
           id="path654"
           d="m 236.83973,14.67383 1.05947,-1.05997 c 6.40763,0.67113 12.63254,3.46769 17.52764,8.39315 11.28679,11.35649 11.23003,29.71258 -0.12696,40.99937 -11.3565,11.2863 -29.71259,11.22954 -40.99938,-0.12745 -4.84979,-4.87966 -7.59904,-11.05379 -8.26321,-17.40267 l 1.05749,-1.05748 c 0.45406,6.42555 3.12017,12.72614 8.01775,17.65359 10.8407,10.90841 28.47239,10.96318 39.38079,0.12198 10.90841,-10.84069 10.96317,-28.47188 0.12198,-39.38029 -4.94089,-4.97226 -11.29276,-7.68169 -17.77557,-8.14023"
           style="fill:#ffffff;fill-opacity:1;fill-rule:nonzero;stroke:none;stroke-width:0.4978734"
           clip-path="none"
           mask="none" /><path
           inkscape:connector-curvature="0"
           id="path662"
           d="m 234.86381,74.4857 c -15.74026,0 -28.8199,-11.35251 -31.52185,-26.3141 l 2.69001,-2.69001 c 1.5195,14.58271 13.84685,25.95264 28.83184,25.95264 16.01161,0 28.99068,-12.97956 28.99068,-28.99116 0,-14.985 -11.36894,-27.31284 -25.95215,-28.83235 l 2.69001,-2.68951 c 14.96209,2.70195 26.3141,15.78159 26.3141,31.52186 0,17.69691 -14.34572,32.04263 -32.04264,32.04263"
           style="fill:#ff5159;fill-opacity:1;fill-rule:nonzero;stroke:none;stroke-width:0.4978734"
           clip-path="none"
           mask="none" /><path
           inkscape:connector-curvature="0"
           id="path666"
           d="m 291.57419,30.99909 c -4.4007,0 -7.96797,3.56776 -7.96797,7.96846 0,4.40071 3.56727,7.96847 7.96797,7.96847 4.4012,0 7.96846,-3.56776 7.96846,-7.96847 0,-4.4007 -3.56726,-7.96846 -7.96846,-7.96846"
           style="fill:#424242;fill-opacity:1;fill-rule:nonzero;stroke:none;stroke-width:0.4978734"
           clip-path="none"
           mask="none" /><path
           inkscape:connector-curvature="0"
           id="path670"
           d="m 291.57419,34.12394 c -2.67458,0 -4.84381,2.16824 -4.84381,4.84381 0,2.67507 2.16923,4.84331 4.84381,4.84331 2.67507,0 4.84381,-2.16824 4.84381,-4.84331 0,-2.67557 -2.16874,-4.84381 -4.84381,-4.84381"
           style="fill:#ffffff;fill-opacity:1;fill-rule:nonzero;stroke:none;stroke-width:0.4978734"
           clip-path="none"
           mask="none" /><path
           inkscape:connector-curvature="0"
           id="path730"
           d="m 305.49278,49.80597 c 2.58745,9.4586 10.03364,16.90479 19.49274,19.49224 l 1.55237,1.55287 C 315.18886,68.54194 306.24955,59.60312 303.94041,48.2536 Z"
           style="fill:#ffffff;fill-opacity:1;fill-rule:nonzero;stroke:none;stroke-width:0.4978734"
           clip-path="none"
           mask="none" /><path
           inkscape:connector-curvature="0"
           id="path674"
           d="m 292.41778,46.91113 h -4.88961 l -32.33141,37.36291 c -0.0339,0.03933 -0.0727,0.0712 -0.11102,0.105051 l 2.28623,6.652087 35.97086,-41.438008 z m 19.71031,53.59508 c -0.6079,0.2106 -1.26808,-0.11252 -1.47719,-0.719928 l -16.43331,-47.655942 -35.97235,41.44049 1.87699,5.45968 c 0.19317,0.562099 -0.0697,1.17996 -0.6089,1.43089 l -10.3015,4.79552 12.38858,0.36444 c 0.64176,0.0189 1.14611,0.55413 1.12719,1.19539 -0.0189,0.64126 -0.54468,1.15109 -1.1954,1.12719 l -17.29313,-0.50883 c -0.5387,-0.0154 -0.99525,-0.39929 -1.10379,-0.92654 -0.10903,-0.52775 0.15932,-1.06047 0.64724,-1.288 l 13.80105,-6.424558 -7.73446,-22.501392 c -4.58393,2.0368 -9.65427,3.17146 -14.9855,3.17146 -0.54965,0 -0.99574,-0.4461 -0.99574,-0.99575 0,-0.55065 0.44609,-0.99624 0.99574,-0.99624 5.1047,0 9.95747,-1.09831 14.33577,-3.06939 L 243.9747,59.20412 234.11382,42.26498 c -0.32263,-0.55464 -0.13493,-1.2661 0.4197,-1.58872 0.18372,-0.10754 0.38486,-0.15832 0.58351,-0.15832 0.39979,0 0.78963,0.20711 1.00521,0.57753 l 9.91813,17.03872 c 0.0383,0.0657 0.0702,0.13493 0.0951,0.20712 l 5.16594,15.0288 c 11.05279,-5.8983 18.59358,-17.54804 18.59358,-30.92739 0,-0.54966 0.4456,-0.99575 0.99575,-0.99575 0.55015,0 0.99624,0.44609 0.99624,0.99575 0,14.25262 -8.09641,26.64817 -19.93037,32.83375 l 2.26134,6.577905 31.90025,-36.865535 c 0.22056,-0.25541 0.54168,-0.40178 0.87825,-0.40178 h 4.62026 l -0.46252,-1.34127 c -0.20911,-0.60691 0.11252,-1.26809 0.71942,-1.47719 0.12547,-0.0438 0.25342,-0.0642 0.37889,-0.0642 0.48244,0 0.93251,0.30221 1.0988,0.78365 l 0.72341,2.09904 h 6.19902 l 2.32408,2.32407 h -7.72202 l 11.94797,34.647011 11.85337,-18.567691 1.68331,1.68281 -12.56185,19.67795 c -0.002,0.0035 -0.006,0.0065 -0.008,0.01046 l 5.0579,14.667848 c 0.2091,0.605912 -0.11252,1.268082 -0.71993,1.476692"
           style="fill:#43404b;fill-opacity:1;fill-rule:nonzero;stroke:none;stroke-width:0.4978734"
           clip-path="none"
           mask="none" /><path
           inkscape:connector-curvature="0"
           id="path678"
           d="m 300.05118,98.136175 h 15.76715 c 0,0 4.2384,-0.339052 5.59461,2.034805 1.3567,2.37337 1.18693,4.74673 -3.05197,4.9165 -4.2379,0.16928 -11.69803,-3.39101 -11.69803,-3.39101 0,0 -14.58022,0.50882 -6.61176,-3.560295"
           style="fill:#242424;fill-opacity:1;fill-rule:nonzero;stroke:none;stroke-width:0.4978734"
           clip-path="none"
           mask="none" /><path
           inkscape:connector-curvature="0"
           id="path682"
           d="m 289.28566,87.200938 c -1.15756,4.695444 -4.19608,6.612257 -4.19608,6.612257 l 15.89411,5.975974 c -0.4904,0.369921 -8.18703,1.655431 -8.56143,2.246401 -1.31189,2.06867 -2.52073,4.6133 -3.1366,6.0188 l -15.41117,-9.711025 c -1.73559,-1.093828 -2.24342,-3.394003 -1.13018,-5.116645 l 19.19302,-29.68869 2.18666,2.4341 -2.70146,11.65174 c 0,0 -0.97931,4.881644 -2.13687,9.577088"
           style="fill:#ea972f;fill-opacity:1;fill-rule:nonzero;stroke:none;stroke-width:0.4978734"
           clip-path="none"
           mask="none" /><path
           inkscape:connector-curvature="0"
           id="path686"
           d="m 290.0616,83.926818 c -1.10428,-0.140898 -2.59243,-0.374899 -3.48213,-0.749797 -2.58396,-1.087854 -4.27125,-2.714904 -5.0335,-3.564771 l 10.03614,-15.52469 2.4346,1.76546 0.10704,0.11899 -2.70096,11.65173 c 0,0 -0.57355,2.857794 -1.36119,6.303078"
           style="fill:#ffffff;fill-opacity:1;fill-rule:nonzero;stroke:none;stroke-width:0.4978734"
           clip-path="none"
           mask="none" /><path
           inkscape:connector-curvature="0"
           id="path694"
           d="M 319.3365,125.09278 285.89136,107.0842 c 0,0 2.70146,-4.63122 4.24536,-6.43202 1.54341,-1.800314 4.23491,-3.914284 4.23491,-3.914284 0,0 22.77771,5.844034 24.83592,7.001594 2.05821,1.15805 10.29055,14.02111 0.12895,21.35329"
           style="fill:#73331d;fill-opacity:1;fill-rule:nonzero;stroke:none;stroke-width:0.4978734"
           clip-path="none"
           mask="none" /><path
           inkscape:connector-curvature="0"
           id="path698"
           d="m 293.60894,61.09226 -8.64657,-3.00915 0.8902,-1.78039 2.7388,0.34851 2.22002,-17.51419 1.27157,0.50882 -1.61461,17.63169 3.22523,1.69526 z"
           style="fill:#ff5159;fill-opacity:1;fill-rule:nonzero;stroke:none;stroke-width:0.4978734"
           clip-path="none"
           mask="none" /><path
           inkscape:connector-curvature="0"
           id="path702"
           d="m 319.3365,125.09278 c 0,0 -13.66364,24.40625 -21.65899,29.24558 -9.66322,5.84902 -15.63969,2.6701 -15.63969,2.6701 l -0.63529,-6.14575 2.92451,-19.41209 c 0,0 6.18906,-4.04671 7.75587,-5.84901 2.38083,-2.7388 5.46765,-12.20686 5.46765,-12.20686 z"
           style="fill:#ffffff;fill-opacity:1;fill-rule:nonzero;stroke:none;stroke-width:0.4978734"
           clip-path="none"
           mask="none" /><path
           inkscape:connector-curvature="0"
           id="path706"
           d="m 250.37665,107.54569 6.46339,4.57744 18.79771,12.63055 1.61062,5.76438 1.6156,10.34183 -0.23948,7.88382 5.98494,4.57695 8.13874,-1.01715 0.47895,-5.34019 -8.76506,-25.10626 c -0.44211,-1.2651 -1.37214,-2.30068 -2.58297,-2.87572 l -20.61046,-9.78271 -1.79533,-2.03432 -0.11949,-3.94216 -5.50599,0.38187 z"
           style="fill:#ea972f;fill-opacity:1;fill-rule:nonzero;stroke:none;stroke-width:0.4978734"
           clip-path="none"
           mask="none" /><path
           inkscape:connector-curvature="0"
           id="path714"
           d="m 284.53834,156.96594 c 0,0 -4.40817,1.35671 -6.95081,-4.23839 -2.54314,-5.59461 -3.05196,-17.97075 -3.05196,-17.97075 0,0 6.78153,-3.22173 10.5116,-3.73006 3.73006,-0.50883 4.74722,-0.16928 4.74722,-0.16928 0,0 14.41045,25.09133 -5.25605,26.10848"
           style="fill:#ff5159;fill-opacity:1;fill-rule:nonzero;stroke:none;stroke-width:0.4978734"
           clip-path="none"
           mask="none" /><path
           inkscape:connector-curvature="0"
           id="path718"
           d="m 259.91307,103.22235 0.12746,3.94167 1.22825,2.03481 -2.62728,-1.97108 -2.22499,-0.38137 -0.8902,0.69951 -2.16127,-0.25442 -2.98824,0.25442 2.05722,-4.22346 z"
           style="fill:#a85c31;fill-opacity:1;fill-rule:nonzero;stroke:none;stroke-width:0.4978734"
           clip-path="none"
           mask="none" /><path
           inkscape:connector-curvature="0"
           id="path722"
           d="m 309.00025,94.999677 -2.95239,-8.561431 h 2.4585 l 2.95189,8.561431 z"
           style="fill:#ababab;fill-opacity:1;fill-rule:nonzero;stroke:none;stroke-width:0.4978734"
           clip-path="none"
           mask="none" /><path
           inkscape:connector-curvature="0"
           id="path734"
           d="m 288.64873,166.79357 c 0,0 -0.89667,-0.44858 -1.12071,-0.5606 -0.22454,-0.11203 -2.52223,0.67262 -2.46647,0.89667 0.0558,0.22454 3.53142,2.1304 3.53142,2.1304 0,0 -3.64394,-0.44859 -5.26949,0.11202 -1.62556,0.5606 -2.18617,3.92424 -3.58718,5.77384 -1.40201,1.85009 -4.48485,1.56979 -6.95131,1.06545 -2.46647,-0.50485 -7.28737,-2.63475 -8.40858,-2.63475 -1.12122,0 -0.11252,1.99896 -0.11252,1.99896 l -3.02707,-2.78411 c 0,0 -1.45678,-1.34525 -1.45678,-3.19535 0,-1.8496 1.72164,-2.50032 1.72164,-2.50032 0,0 2.87473,0.70648 4.44402,1.49163 1.5698,0.78465 2.09306,1.38259 2.09306,1.38259 0,0 -0.35498,-0.42966 -0.41124,-0.9345 -0.0563,-0.50435 -0.20662,-2.14584 0.0378,-2.80253 0.42468,-1.14312 3.03254,-3.82118 3.03254,-3.82118 l -0.62035,-4.34196 3.0211,-0.22006 -0.78764,4.60683 c 0,0 1.38758,2.68901 2.58795,2.75573 1.19987,0.0667 1.33331,-0.53323 1.66638,-1.7336 0.33358,-1.19987 -1.54191,-2.50181 -1.54191,-2.50181 0,0 3.8152,-2.50232 5.74297,-3.09927 4.00091,-1.23821 7.88233,2.13389 7.88233,2.13389 l -4.22296,-0.47846 3.85503,1.98752 -3.17444,-0.12497 1.35621,1.24966 c 2.1304,1.96212 2.18616,4.14828 2.18616,4.14828"
           style="fill:#242424;fill-opacity:1;fill-rule:nonzero;stroke:none;stroke-width:0.4978734"
           clip-path="none"
           mask="none" /><path
           inkscape:connector-curvature="0"
           id="path738"
           d="m 265.95123,153.32086 c 0,0 1.14959,0.38735 1.85657,1.60963 0.70748,1.22228 0.70748,2.18018 0.70748,2.18018 0,0 0.59695,-3.0196 -2.56405,-3.78981"
           style="fill:#242424;fill-opacity:1;fill-rule:nonzero;stroke:none;stroke-width:0.4978734"
           clip-path="none"
           mask="none" /></g></g></g></svg>