<?xml version="1.0" encoding="UTF-8" standalone="no"?>
<!-- Created with Inkscape (http://www.inkscape.org/) -->

<svg
   xmlns:dc="http://purl.org/dc/elements/1.1/"
   xmlns:cc="http://creativecommons.org/ns#"
   xmlns:rdf="http://www.w3.org/1999/02/22-rdf-syntax-ns#"
   xmlns:svg="http://www.w3.org/2000/svg"
   xmlns="http://www.w3.org/2000/svg"
   xmlns:sodipodi="http://sodipodi.sourceforge.net/DTD/sodipodi-0.dtd"
   xmlns:inkscape="http://www.inkscape.org/namespaces/inkscape"
   version="1.1"
   id="svg2"
   xml:space="preserve"
   width="290"
   height="290"
   viewBox="0 0 290 290"
   sodipodi:docname="ic_achievement_pedestrian.svg"
   inkscape:version="0.92.1 r15371"><metadata
     id="metadata8"><rdf:RDF><cc:Work
         rdf:about=""><dc:format>image/svg+xml</dc:format><dc:type
           rdf:resource="http://purl.org/dc/dcmitype/StillImage" /><dc:title></dc:title></cc:Work></rdf:RDF></metadata><defs
     id="defs6"><clipPath
       clipPathUnits="userSpaceOnUse"
       id="clipPath18"><path
         d="M 0,750 H 750 V 0 H 0 Z"
         id="path16"
         inkscape:connector-curvature="0" /></clipPath><clipPath
       clipPathUnits="userSpaceOnUse"
       id="clipPath386"><path
         d="M 0,750 H 750 V 0 H 0 Z"
         id="path384"
         inkscape:connector-curvature="0" /></clipPath></defs><sodipodi:namedview
     pagecolor="#ffffff"
     bordercolor="#666666"
     borderopacity="1"
     objecttolerance="10"
     gridtolerance="10"
     guidetolerance="10"
     inkscape:pageopacity="0"
     inkscape:pageshadow="2"
     inkscape:window-width="1543"
     inkscape:window-height="844"
     id="namedview4"
     showgrid="false"
     inkscape:pagecheckerboard="true"
     inkscape:zoom="0.236"
     inkscape:cx="-1154.3023"
     inkscape:cy="693.72793"
     inkscape:window-x="0"
     inkscape:window-y="0"
     inkscape:window-maximized="0"
     inkscape:current-layer="g10" /><g
     id="g10"
     inkscape:groupmode="layer"
     inkscape:label="pedestrian"
     transform="matrix(1.3333333,0,0,-1.3333333,0,290)"><g
       id="g12" /><g
       transform="matrix(0.49415953,0,0,0.49415953,1.6030524,107.0736)"
       id="g164" /><g
       transform="matrix(0.49415953,0,0,0.49415953,191.75149,121.0039)"
       id="g168" /><g
       transform="matrix(0.49415953,0,0,0.49415953,117.42387,195.33172)"
       id="g172" /><g
       transform="matrix(0.49415953,0,0,0.49415953,165.2927,145.27445)"
       id="g176" /><g
       transform="matrix(0.49415953,0,0,0.49415953,165.2927,147.46244)"
       id="g180" /><g
       transform="matrix(0.49415953,0,0,0.49415953,161.503,138.83926)"
       id="g184" /><g
       transform="matrix(0.49415953,0,0,0.49415953,158.91301,153.84234)"
       id="g188" /><g
       transform="matrix(0.49415953,0,0,0.49415953,133.70608,179.04932)"
       id="g196" /><g
       transform="matrix(0.49415953,0,0,0.49415953,101.78861,206.67328)"
       id="g200" /><g
       transform="matrix(0.49415953,0,0,0.49415953,48.121649,53.435792)"
       id="g204" /><g
       transform="matrix(0.49415953,0,0,0.49415953,73.578821,179.04932)"
       id="g328" /><g
       transform="matrix(0.49415953,0,0,0.49415953,75.097472,179.98985)"
       id="g332" /><g
       transform="matrix(0.49415953,0,0,0.49415953,62.026854,153.7145)"
       id="g336" /><g
       transform="matrix(0.49415953,0,0,0.49415953,62.026854,167.4974)"
       id="g340" /><g
       transform="matrix(0.49415953,0,0,0.49415953,56.922878,145.04763)"
       id="g344" /><g
       transform="matrix(0.49415953,0,0,0.49415953,70.614803,176.08535)"
       id="g348" /><g
       transform="matrix(0.49415953,0,0,0.49415953,63.275051,38.28239)"
       id="g356" /><g
       id="g4546"
       transform="matrix(1.0505807,0,0,1.0505807,-0.13487622,1.9454214e-8)"><path
         inkscape:connector-curvature="0"
         id="path50"
         style="fill:#5a8bfa;fill-opacity:1;fill-rule:nonzero;stroke:none;stroke-width:0.49415952"
         d="m 103.64245,-3.8461702e-7 c -1.34461,0 -2.60916,0.52380910461702 -3.55993,1.47457208461702 L 1.6034487,99.954142 c -0.95125714,0.950758 -1.47506625,2.214818 -1.47506625,3.559428 0,1.34461 0.52380911,2.60917 1.47457205,3.55993 l 98.4795655,98.47957 c 0.95077,0.95076 2.21532,1.47457 3.55993,1.47457 1.3451,0 2.60916,-0.52381 3.55993,-1.47457 l 98.47907,-98.47957 c 0.95126,-0.95126 1.47507,-2.21532 1.47507,-3.55993 0,-1.34411 -0.52381,-2.60817 -1.47507,-3.559428 L 107.20238,1.4745717 C 106.25161,0.52380872 104.98755,-3.8461702e-7 103.64245,-3.8461702e-7" /><path
         id="path166"
         transform="matrix(0.75000002,0,0,-0.75000002,0,207.75001)"
         d="M 126.97266,9.3984375 2.1367188,134.23438 c -1.26768396,1.26767 -1.9648438,2.95523 -1.9648438,4.74804 0,1.7928 0.69715984,3.47841 1.9648438,4.7461 l 67.1230472,67.12304 h 57.712894 z m 29.59179,7.1582035 V 210.85156 h 50.55469 l 48.54883,-48.55078 v -46.63867 z"
         style="fill:#ffc341;fill-opacity:1;fill-rule:nonzero;stroke:none;stroke-width:0.65887934"
         inkscape:connector-curvature="0" /><path
         inkscape:connector-curvature="0"
         id="path194"
         style="fill:#e78933;fill-opacity:1;fill-rule:nonzero;stroke:none;stroke-width:0.49415952"
         d="m 0.12857938,103.51362 c 0,-1.34461 0.5238091,-2.60867 1.47457202,-3.559431 L 51.945649,49.611687 H 87.27509 L 82.967501,80.032642 33.73291,86.789285 V 130.43593 L 25.890104,131.3605 1.6031514,107.07355 c -0.95076292,-0.95077 -1.47457202,-2.21532 -1.47457202,-3.55993" /><path
         id="path178"
         transform="matrix(0.75000002,0,0,-0.75000002,0,207.75001)"
         d="m 98.798828,37.574219 -4.646484,4.644531 v 30.490234 l 4.646484,1.044922 z m -11.451172,11.451172 -4.644531,4.644531 v 16.472656 l 4.644531,1.03711 z m -11.451172,11.449218 -4.65039,4.652344 v 2.447266 l 4.65039,1.039062 z m -4.65039,9.003907 v 13.236328 l 4.65039,0.888672 V 70.517578 Z m 140.638676,2.398437 v 8.103516 L 215.33789,80.75 V 75.330078 Z M 82.703125,72.046875 v 3.416016 l 4.644531,1.039062 v -3.416015 z m 137.687495,8.335937 v 1.503907 l 1.93555,0.43164 z m -8.50585,1.011719 v 9.828125 l 3.45312,0.658203 v -9.714843 z m 8.50585,1.90625 v 2.53711 l 3.44922,0.771484 v -2.537109 z"
         style="fill:#2e1f2e;fill-opacity:1;fill-rule:nonzero;stroke:none;stroke-width:0.65887934"
         inkscape:connector-curvature="0" /><path
         id="path198"
         transform="matrix(0.75000002,0,0,-0.75000002,0,207.75001)"
         d="m 135.71875,1.4355469 c -0.84139,0.3327333 -1.61586,0.8346073 -2.27539,1.4941406 l -0.5918,0.5917969 V 204.13477 h 2.86719 z M 178.27539,38.267578 V 204.13477 h 1.91016 V 40.179688 Z M 67.869141,68.503906 64.162109,72.210938 V 205.75195 l 3.707032,3.70703 z"
         style="fill:#26354b;fill-opacity:1;fill-rule:nonzero;stroke:none;stroke-width:0.65887934"
         inkscape:connector-curvature="0" /><path
         d="m 75.09747,179.98985 24.660043,-11.58755 34.665287,-14.39338 32.32199,-7.99797 m -93.165971,33.03837 c 0,0 -2.26078,-0.52924 4.704399,-2.51132 6.965178,-1.98207 23.169662,-12.58921 23.169662,-12.58921 l 32.96983,-6.77196 34.2408,-12.79824"
         style="fill:none;stroke:#26354b;stroke-width:0.49415952;stroke-linecap:butt;stroke-linejoin:miter;stroke-miterlimit:10;stroke-dasharray:none;stroke-opacity:1"
         id="path334"
         inkscape:connector-curvature="0" /><path
         id="path358"
         transform="matrix(0.75000002,0,0,-0.75000002,0,207.75001)"
         d="m 204.13672,213.83398 -126.058595,5.83594 6.289063,6.28711 109.201172,-1.55469 z M 90.275391,231.86719 133.44336,275.0332 c 1.26769,1.26769 2.95328,1.9668 4.74609,1.9668 1.79347,0 3.4784,-0.69911 4.7461,-1.9668 l 43.16797,-43.16601 z"
         style="fill:#26354b;fill-opacity:1;fill-rule:nonzero;stroke:none;stroke-width:0.65887934"
         inkscape:connector-curvature="0" /><g
         transform="translate(-150,-90)"
         id="g6039"><path
           style="fill:#26354b;fill-opacity:1;fill-rule:nonzero;stroke:none;stroke-width:0.49415952"
           d="m 212.19288,210.8628 v -3.90527 h -1.64648 l 0.91552,-16.01367 h 2.73486 l 0.55958,13.17773 h 0.66357 l 0.34277,2.3789 -1.00634,0.45704 h -1.46485 v 3.0205 h 5.15771 l 0.19776,0.88477 z"
           id="path214"
           inkscape:connector-curvature="0" /><path
           style="fill:#ff5159;fill-opacity:1;fill-rule:nonzero;stroke:none;stroke-width:0.49415952"
           d="m 217.24805,227.37599 c -0.52776,0 -0.95654,-0.42829 -0.95654,-0.95655 v -10.53369 c 0,-0.52776 0.42878,-0.95508 0.95654,-0.95508 h 1.48389 55.22607 L 262.61719,179.77882 V 142.2583 l 5.37744,-3.54198 26.69532,0.86865 c -1.61936,2.54492 -2.23828,5.24126 -2.23828,8.84912 0,8.04541 4.86032,14.5664 10.85596,14.5664 5.99514,0 10.85449,-6.52099 10.85449,-14.5664 l 41.51953,41.51953 c 0.95126,0.95176 1.47509,2.21546 1.47509,3.55957 0,1.34511 -0.52383,2.60929 -1.47509,3.56103 l -14.45508,14.45362 -63.25342,15.84815 z"
           id="path238"
           inkscape:connector-curvature="0" /><path
           style="fill:#ffffff;fill-opacity:1;fill-rule:nonzero;stroke:none;stroke-width:0.49415952"
           d="m 280.78272,215.56935 -54.60644,-0.39551 -7.44434,-0.24317 -10.24951,-45.8789 v -23.17969 l 57.59326,-1.09863 v 24.27832 l 14.90625,-0.55078 z"
           id="path290"
           inkscape:connector-curvature="0" /><path
           d="m 210.6351,172.11251 9.02829,40.41039 c 0.13244,0.59497 0.65081,1.02439 1.26011,1.04465 l 5.27219,0.17296 46.68226,-0.22731 c 0.85292,-0.004 1.48347,-0.7956 1.29717,-1.62776 l -9.01545,-40.35604 c -0.13638,-0.61028 -0.67848,-1.04465 -1.30408,-1.04465 h -51.9164 c -0.85539,0 -1.49039,0.79313 -1.30409,1.62776"
           style="fill:#5a8bfa;fill-opacity:1;fill-rule:nonzero;stroke:none;stroke-width:0.49415952"
           id="path282"
           inkscape:connector-curvature="0" /><path
           style="fill:#26354b;fill-opacity:1;fill-rule:nonzero;stroke:none;stroke-width:0.49415952"
           d="m 221.47267,225.71925 c -1.09262,0 -1.97901,-0.88641 -1.97901,-1.97901 v -1.8706 h -3.20215 v -1.43409 h 2.44043 0.76172 v -1.86913 c 0,-1.09262 0.88639,-1.97901 1.97901,-1.97901 h 51.03515 c 1.09308,0 1.97754,0.88639 1.97754,1.97901 v 1.86913 h 3.48779 v 1.43409 h -3.48779 v 1.8706 c 0,1.0926 -0.88446,1.97901 -1.97754,1.97901 z m 20.63085,-12.05566 c -0.76546,0.003 -1.3872,-0.6159 -1.3872,-1.38135 v -35.06251 l 11.34667,2.31885 -10.17627,-3.36474 -4.31836,-5.11963 h -1.61132 l 2.88281,3.0498 h -3.21533 l -4.42676,-1.46338 3.04102,1.46338 h -7.66992 c -0.12651,0 -0.25197,-0.0167 -0.37354,-0.0513 l -3.05567,-0.85694 c -1.54524,-0.43386 -1.23149,-2.71142 0.37354,-2.71142 h 40.30664 c 0.64686,0 1.20683,0.44855 1.34766,1.07959 l 8.9956,40.2671 c 0.19224,0.85983 -0.45875,1.67718 -1.34033,1.68163 z m 36.17725,-0.43067 c -0.5131,-0.036 -0.95639,-0.40399 -1.07226,-0.92285 l -9.04834,-40.5 c -0.16163,-0.72246 0.37204,-1.41423 1.11181,-1.44141 l 9.04834,-0.33545 c 0.67058,-0.0247 1.22754,0.51203 1.22754,1.18359 v 40.83399 c 0,0.5999 -0.44848,1.1056 -1.04443,1.17627 -0.0754,0.009 -0.14937,0.0109 -0.22266,0.006 z m 3.60645,-2.53858 c -0.49503,-0.0251 -0.90528,-0.43491 -0.90528,-0.95508 V 170.8213 c 0,-0.51344 0.40456,-0.93482 0.91699,-0.95508 l 16.55567,-0.65772 c 0.54259,-0.0217 0.99316,0.41199 0.99316,0.95508 v 36.65626 c 0,0.46401 -0.33345,0.85987 -0.78955,0.94042 l -16.5542,2.9209 c -0.0732,0.0129 -0.14608,0.0168 -0.21679,0.0132 z m -51.29884,-1.08252 v -12.99463 h 4.75782 v 12.99463 z m 70.7212,-2.34375 c -0.49501,-0.0251 -0.90528,-0.43491 -0.90528,-0.95508 v -36.26367 c 0,-0.51343 0.40456,-0.93481 0.917,-0.95508 l 23.04052,-0.91552 c 0.54258,-0.0217 0.99463,0.41102 0.99463,0.95361 v 33.11719 c 0,0.46351 -0.33441,0.86131 -0.79101,0.9419 l -23.03906,4.06347 c -0.0732,0.0129 -0.14608,0.0168 -0.2168,0.0132 z M 225.4629,204.4878 v -25.4414 h 3.84375 v 25.4414 z m 101.7539,-1.78858 c -0.49467,-0.0251 -0.90527,-0.43492 -0.90527,-0.95507 v -32.72461 c 0,-0.51347 0.40454,-0.93482 0.917,-0.95508 l 6.312,-0.25195 12.17139,12.17285 v 18.67383 c 0,0.46401 -0.33294,0.85989 -0.78955,0.94042 l -17.48877,3.08496 c -0.0731,0.0129 -0.14612,0.0183 -0.2168,0.0147 z m 20.35694,-3.59179 c -0.49468,-0.0251 -0.90527,-0.43488 -0.90527,-0.95508 v -17.21191 l 9.01318,9.01318 c 0.95126,0.95126 1.47509,2.21545 1.47509,3.55957 0,1.3446 -0.52383,2.60832 -1.47509,3.55957 l -0.76318,0.76318 -7.12794,1.2583 c -0.0731,0.0129 -0.14612,0.0168 -0.21679,0.0132 z M 208.48243,169.05176 v -7.20996 h 2.35839 l 2.86817,5.77002 h 47.14014 l 2.86669,-5.77002 h 2.35987 v -4.33154 l 28.85889,0.30616 c -1.66887,-2.73704 -2.50408,-6.17751 -2.48291,-9.38233 0.0177,-2.6897 0.3548,-4.87278 1.19531,-6.86426 l -25.54248,-1.35059 -0.1084,0.17725 c -0.13934,0.22633 -0.2124,0.4866 -0.2124,0.75147 v 6.94628 c 0,0.79115 -0.64194,1.43408 -1.43409,1.43408 0,0 -23.54248,-3.79833 -30.80712,-3.79833 -10.25283,0 -27.57861,3.79833 -27.57861,3.79833 -0.79166,0 -1.43409,-0.64292 -1.43409,-1.43408 v -6.94628 c 0,-0.26487 0.0736,-0.52418 0.2124,-0.75 l 1.31983,-2.146 c 0.26091,-0.42399 0.72357,-0.68116 1.22168,-0.68116 h 19.64355 c 1.61894,-2.42421 3.95477,-3.96932 6.56543,-4.00488 v -0.003 h 6.15381 0.65625 v 0.0352 c 2.38437,0.23188 4.50418,1.72273 6.00586,3.97266 h 18.86133 c 0.1673,0 0.32063,0.0338 0.46582,0.0835 l 0.001,-0.004 23.75097,1.1543 c 1.46505,-1.46347 3.27301,-2.34339 5.23536,-2.37012 v -0.006 h 6.1538 c 2.65698,-0.001 4.73034,1.56482 6.31641,3.5039 h 3.0249 c 1.28432,2.39274 2.04346,5.32749 2.04346,8.50049 0.005,3.18586 -0.81099,6.75324 -2.51074,9.5625 l 12.20068,0.12891 8.47851,8.47998 -66.25488,2.44775 z"
           id="path74"
           inkscape:connector-curvature="0" /><path
           style="font-variant:normal;font-weight:bold;font-stretch:normal;font-size:medium;font-family:'Myriad Pro';-inkscape-font-specification:MyriadPro-Bold;writing-mode:lr-tb;fill:#ffdc19;fill-opacity:1;fill-rule:nonzero;stroke:none;stroke-width:0.49415952"
           d="m 240.70313,223.36524 v -4.3579 h 0.51563 v 4.3579 z m 3.41748,0 v -1.69775 c -0.10828,0.18668 -0.24547,0.32494 -0.41162,0.41455 -0.16428,0.0915 -0.36177,0.1377 -0.59326,0.1377 -0.37896,0 -0.6883,-0.15168 -0.92725,-0.45411 -0.23709,-0.30243 -0.35595,-0.69954 -0.35595,-1.19238 0,-0.49284 0.11886,-0.89142 0.35595,-1.19385 0.23895,-0.30243 0.54829,-0.45264 0.92725,-0.45264 0.23149,0 0.42898,0.0437 0.59326,0.13331 0.16615,0.0915 0.30334,0.2308 0.41162,0.41748 v -0.47021 h 0.51563 v 4.3579 z m 11.21045,0 c -0.40697,0 -0.72227,-0.10373 -0.94629,-0.30908 -0.22215,-0.20348 -0.33252,-0.49089 -0.33252,-0.86426 v -3.18456 h 0.52295 v 3.17284 c 0,0.24456 0.0635,0.43076 0.19043,0.55958 0.12695,0.13067 0.31249,0.19628 0.55517,0.19628 0.21096,0 0.37671,-0.0522 0.49806,-0.15674 0.12321,-0.10453 0.19161,-0.25302 0.20654,-0.44531 -0.2819,-0.0541 -0.5009,-0.16171 -0.65772,-0.32227 -0.15494,-0.16054 -0.23291,-0.3591 -0.23291,-0.59619 0,-0.16987 0.0413,-0.31836 0.12159,-0.44531 0.0821,-0.12507 0.21189,-0.24288 0.39111,-0.35302 l 0.25781,-0.15381 c 0.18856,-0.11574 0.31061,-0.2131 0.36475,-0.29151 0.056,-0.0784 0.0835,-0.17535 0.0835,-0.29296 0,-0.16988 -0.0564,-0.30005 -0.16845,-0.38966 -0.11201,-0.0877 -0.27564,-0.13183 -0.49219,-0.13183 -0.12135,0 -0.24726,0.0134 -0.37793,0.0396 -0.13068,0.028 -0.27107,0.07 -0.42041,0.12598 v -0.45997 c 0.13628,-0.0448 0.26856,-0.0772 0.39551,-0.0996 0.12693,-0.0243 0.24966,-0.0366 0.36914,-0.0366 0.3939,0 0.69472,0.085 0.9038,0.25489 0.21096,0.17174 0.31641,0.41719 0.31641,0.73828 0,0.18668 -0.0437,0.34646 -0.1333,0.479 -0.0896,0.13254 -0.28923,0.2987 -0.59912,0.49658 l -0.15967,0.10254 c -0.12135,0.0784 -0.20954,0.15531 -0.26367,0.22998 -0.0541,0.0765 -0.082,0.15836 -0.082,0.2461 0,0.17922 0.079,0.32279 0.23584,0.4292 0.15681,0.10827 0.37582,0.16964 0.65772,0.18457 -0.006,0.41817 -0.11106,0.7356 -0.31641,0.95215 -0.20349,0.21655 -0.4994,0.32519 -0.8877,0.32519 z m -27.92285,-0.10693 c -0.60671,0 -1.08499,-0.1975 -1.43408,-0.59326 -0.34724,-0.3939 -0.52148,-0.93672 -0.52148,-1.62744 0,-0.67393 0.14848,-1.19523 0.44531,-1.56299 0.29869,-0.3659 0.71945,-0.54786 1.26269,-0.54786 0.49284,0 0.8861,0.13401 1.1792,0.40284 0.2931,0.27069 0.43945,0.63009 0.43945,1.07812 0,0.40511 -0.13081,0.73276 -0.39404,0.98291 -0.26135,0.25016 -0.60668,0.375 -1.03418,0.375 -0.16988,0 -0.32647,-0.0236 -0.47022,-0.0703 -0.14374,-0.0448 -0.27669,-0.11213 -0.3999,-0.20361 0.0299,0.35096 0.13427,0.61513 0.31348,0.79248 0.17921,0.17921 0.4289,0.26807 0.75,0.26807 0.14935,0 0.30314,-0.0205 0.45996,-0.0615 0.15681,-0.0392 0.32363,-0.10056 0.50098,-0.18457 v 0.77344 c -0.17735,0.0597 -0.35652,0.10343 -0.5376,0.1333 -0.18108,0.0299 -0.36728,0.0454 -0.55957,0.0454 z m 7.82959,-0.0703 v -4.18066 h 0.56543 v 1.99658 h 1.6582 V 221.48 h -1.6582 v 1.23193 h 1.83692 v 0.47608 z m 12.31641,-0.15381 v -0.89062 h -0.37793 v -0.0615 c -0.11184,0.037 -0.22341,0.0741 -0.3501,0.0952 -0.16802,0.028 -0.34719,0.0425 -0.5376,0.0425 -0.38457,0 -0.68154,-0.0812 -0.89062,-0.24171 -0.20909,-0.16053 -0.31348,-0.38765 -0.31348,-0.68261 0,-0.24269 0.0705,-0.4342 0.2124,-0.57422 0.14188,-0.13814 0.37218,-0.24041 0.69141,-0.30761 l 0.18017,-0.0425 c 0.31923,-0.0691 0.52482,-0.14066 0.61817,-0.21533 0.0952,-0.0747 0.14355,-0.18225 0.14355,-0.32226 0,-0.15122 -0.0656,-0.26903 -0.19628,-0.35304 -0.13068,-0.0821 -0.31836,-0.12304 -0.56104,-0.12304 -0.18109,0 -0.36304,0.0247 -0.54785,0.0732 -0.18482,0.0504 -0.37355,0.12519 -0.56397,0.22413 v -0.53321 c 0.20162,-0.0653 0.39314,-0.11329 0.57422,-0.14502 0.18295,-0.0336 0.35933,-0.0498 0.52735,-0.0498 0.40323,0 0.71959,0.085 0.94921,0.25489 0.23149,0.16988 0.34717,0.40019 0.34717,0.6914 0,0.25576 -0.078,0.45432 -0.23291,0.59619 -0.15308,0.14376 -0.41194,0.25412 -0.77783,0.33252 l -0.17725,0.0396 c -0.27628,0.0616 -0.4593,0.12615 -0.55078,0.19336 -0.0915,0.0691 -0.13769,0.16324 -0.13769,0.28271 0,0.15682 0.0635,0.27462 0.19043,0.35303 0.12881,0.0784 0.32139,0.11719 0.57715,0.11719 0.168,0 0.32951,-0.0183 0.48632,-0.0557 0.15682,-0.0373 0.30849,-0.0938 0.4541,-0.16845 v 0.18017 h 0.26368 v -1.70361 c 0,-0.39203 0.0758,-0.66218 0.22705,-0.81152 0.15121,-0.14748 0.42561,-0.22119 0.82324,-0.22119 h 0.5288 v 0.43065 h -0.5288 c -0.21469,0 -0.35827,0.0371 -0.4292,0.10987 -0.0691,0.0728 -0.104,0.23643 -0.104,0.49219 v 1.70361 h 1.062 v 0.39991 h -1.062 v 0.89062 z m -8.41114,-0.81445 c -0.47043,0 -0.84391,-0.15168 -1.12207,-0.45411 -0.27628,-0.30056 -0.41455,-0.70684 -0.41455,-1.22021 0,-0.49657 0.1453,-0.8909 0.43652,-1.18213 0.2931,-0.29123 0.68915,-0.43653 1.18946,-0.43653 0.19975,0 0.39765,0.0205 0.59179,0.0615 0.19415,0.0411 0.38354,0.1003 0.56837,0.17871 v 0.4878 c -0.18296,-0.0971 -0.3685,-0.16974 -0.55518,-0.21827 -0.18481,-0.0485 -0.37487,-0.0732 -0.57276,-0.0732 -0.34162,0 -0.60898,0.092 -0.80127,0.27686 -0.19041,0.18668 -0.29693,0.45682 -0.31933,0.81152 h 2.36865 v 0.25342 c 0,0.4667 -0.12272,0.83527 -0.36914,1.10596 -0.24455,0.27255 -0.57858,0.40869 -1.00049,0.40869 z m 11.8711,0 c -0.24829,0 -0.4592,-0.0473 -0.63281,-0.14063 -0.17362,-0.0915 -0.3136,-0.23293 -0.42188,-0.42334 v 0.4878 h -0.51856 v -3.13623 h 0.51856 v 1.65234 c 0,0.35469 0.0765,0.6259 0.23144,0.81445 0.15682,0.19042 0.38114,0.28565 0.67237,0.28565 0.0821,0 0.15691,-0.008 0.22412,-0.0249 0.0691,-0.0149 0.13256,-0.0396 0.19043,-0.0732 l -0.003,0.53027 c -0.0523,0.009 -0.0992,0.0151 -0.14209,0.019 -0.0429,0.005 -0.0832,0.009 -0.11865,0.009 z m 1.39306,0 c -0.16801,0 -0.33974,-0.0198 -0.51708,-0.0571 -0.17736,-0.0355 -0.36077,-0.0883 -0.54933,-0.16114 v -0.47607 c 0.15682,0.0859 0.32085,0.15043 0.49073,0.19336 0.16988,0.0429 0.34373,0.0644 0.52295,0.0644 0.28189,0 0.49984,-0.0656 0.65478,-0.19629 0.15682,-0.1288 0.23585,-0.31223 0.23585,-0.54931 v -0.0498 h -0.72217 c -0.46858,0 -0.822,-0.0903 -1.05908,-0.26953 -0.23523,-0.17922 -0.35304,-0.44551 -0.35304,-0.79834 0,-0.30242 0.0942,-0.54401 0.28272,-0.72509 0.19041,-0.17922 0.44649,-0.26808 0.76758,-0.26808 0.25389,0 0.46905,0.0437 0.64453,0.13331 0.17548,0.0915 0.32184,0.23293 0.43946,0.42334 v -0.47607 h 0.51562 v 1.79003 c 0,0.47791 -0.1129,0.83412 -0.33691,1.06934 -0.22402,0.23521 -0.56297,0.35303 -1.01661,0.35303 z m 6.12012,0 c -0.47044,0 -0.84538,-0.15168 -1.12353,-0.45411 -0.27629,-0.30056 -0.41309,-0.70684 -0.41309,-1.22021 0,-0.49657 0.1453,-0.8909 0.43652,-1.18213 0.2931,-0.29123 0.68915,-0.43653 1.18946,-0.43653 0.19974,0 0.39764,0.0205 0.59179,0.0615 0.19415,0.0411 0.38355,0.1003 0.56836,0.17871 v 0.4878 c -0.18295,-0.0971 -0.3685,-0.16974 -0.55517,-0.21827 -0.18482,-0.0485 -0.37634,-0.0732 -0.57422,-0.0732 -0.34163,0 -0.60753,0.092 -0.7998,0.27686 -0.19043,0.18668 -0.29694,0.45682 -0.31935,0.81152 h 2.36866 v 0.25342 c 0,0.4667 -0.12418,0.83527 -0.3706,1.10596 -0.24456,0.27255 -0.57713,0.40869 -0.99903,0.40869 z m -15.28564,-0.43213 c 0.27256,0 0.48625,-0.10718 0.64306,-0.32373 0.15681,-0.21468 0.23584,-0.51166 0.23584,-0.89063 0,-0.37896 -0.079,-0.67701 -0.23584,-0.89355 -0.15681,-0.21469 -0.3705,-0.32227 -0.64306,-0.32227 -0.27256,0 -0.48772,0.10758 -0.64454,0.32227 -0.15494,0.21654 -0.23291,0.51459 -0.23291,0.89355 0,0.37897 0.078,0.67595 0.23291,0.89063 0.15682,0.21655 0.37198,0.32373 0.64454,0.32373 z m -4.09278,-0.004 c 0.2539,0 0.45776,-0.0854 0.61084,-0.25341 0.15468,-0.16802 0.23331,-0.39194 0.2373,-0.67383 l -1.8369,-0.003 c 0.0261,0.29496 0.12561,0.52314 0.29736,0.68556 0.17361,0.16241 0.40392,0.24462 0.6914,0.24462 z m 19.38428,0 c 0.25388,0 0.45776,-0.0854 0.61084,-0.25341 0.15468,-0.16802 0.2333,-0.39194 0.23731,-0.67383 l -1.83692,-0.003 c 0.0261,0.29496 0.12561,0.52314 0.29736,0.68556 0.17362,0.16241 0.40392,0.24462 0.69141,0.24462 z m -31.36084,-0.71191 c 0.19042,0 0.33293,-0.0614 0.42627,-0.18458 0.0952,-0.12134 0.14209,-0.30476 0.14209,-0.54931 0,-0.24455 -0.0469,-0.42758 -0.14209,-0.55078 -0.0933,-0.12135 -0.23585,-0.1831 -0.42627,-0.1831 -0.18855,0 -0.33106,0.0617 -0.42627,0.1831 -0.0933,0.1232 -0.13916,0.30623 -0.13916,0.55078 0,0.24455 0.0458,0.42797 0.13916,0.54931 0.0952,0.12321 0.23772,0.18458 0.42627,0.18458 z m 3.70459,-0.26367 v -0.4585 h 1.51025 v 0.4585 z m 30.16553,0 v -0.4585 h 1.50879 v 0.4585 z m -8.31006,-0.22412 h 0.5127 v -0.11427 c 0,-0.33602 -0.0871,-0.60657 -0.26075,-0.81005 -0.17175,-0.20161 -0.39992,-0.30176 -0.68554,-0.30176 -0.20722,0 -0.37231,0.0533 -0.49366,0.15967 -0.11947,0.10828 -0.17871,0.25358 -0.17871,0.43652 0,0.22962 0.0797,0.39259 0.24024,0.4878 0.16054,0.0952 0.44942,0.14209 0.86572,0.14209 z"
           id="path5644"
           inkscape:connector-curvature="0" /><path
           d="m 296.6242,148.43436 c 0,4.5606 2.75494,8.25692 6.15327,8.25692 3.39834,0 6.15328,-3.69632 6.15328,-8.25692 0,-4.5601 -2.75494,-8.25691 -6.15328,-8.25691 -3.39833,0 -6.15327,3.69681 -6.15327,8.25691"
           style="fill:#5a8bfa;fill-opacity:1;fill-rule:nonzero;stroke:none;stroke-width:0.49415952"
           id="path270"
           inkscape:connector-curvature="0" /><path
           d="m 300.45922,155.41674 c -0.40274,0 -0.79362,-0.0677 -1.17017,-0.18383 -1.60898,-1.48989 -2.665,-3.97749 -2.665,-6.79864 0,-2.82067 1.05602,-5.30876 2.665,-6.79816 0.37655,-0.11612 0.76743,-0.18382 1.17017,-0.18382 2.87354,0 5.20301,3.12605 5.20301,6.98198 0,3.85642 -2.32947,6.98247 -5.20301,6.98247"
           style="fill:#ffffff;fill-opacity:1;fill-rule:nonzero;stroke:none;stroke-width:0.49415952"
           id="path274"
           inkscape:connector-curvature="0" /></g><g
         transform="translate(150)"
         id="g6101"><path
           inkscape:connector-curvature="0"
           style="fill:#ffffff;fill-opacity:1;fill-rule:nonzero;stroke:none;stroke-width:0.65887934"
           d="m -93.433594,248.15625 8.347656,8.34766 23.275391,-7.625 z m 54.976563,8.27148 -34.986328,11.46289 7.144531,7.14258 c 1.267684,1.26835 2.953283,1.9668 4.746094,1.9668 1.79281,0 3.478409,-0.69845 4.746093,-1.9668 l 17.726563,-17.72656 c 0.394009,-0.55543 0.623047,-0.87891 0.623047,-0.87891 z"
           transform="matrix(0.75000002,0,0,-0.75000002,0,207.75001)"
           id="path390" /><path
           inkscape:connector-curvature="0"
           id="path402"
           style="fill:#5a8bfa;fill-opacity:1;fill-rule:nonzero;stroke:none;stroke-width:0.49415952"
           d="m -19.059587,54.699655 c 0,0 -1.862487,4.871425 -3.008937,8.453093 -1.145956,3.581668 0.286612,9.169624 0,13.754436 -0.286119,4.584812 -5.730768,12.035256 -5.730768,12.035256 l -0.859838,3.438362 c 0,0 1.146944,1.719181 2.149594,4.441505 1.00265,2.722325 -1.862982,6.590603 -4.871919,6.160683 -3.007949,-0.42991 -7.879868,-3.008439 -7.879868,-3.008439 l 1.576369,-2.2929 -0.143306,-1.00265 c -0.143306,-1.002649 -2.435712,-3.008937 -2.435712,-3.008937 h 1.575874 c 0,0 -0.716037,-1.00265 -0.286612,-2.578525 0.429919,-1.576368 3.868281,-4.871424 3.868281,-4.871424 l -2.291912,-2.2929 1.432568,-1.861994 c 0,0 -1.862487,-3.438856 -1.862487,-4.871424 0,-1.433063 -1.003144,-12.321374 -1.003144,-12.321374 l -6.447299,-5.158037 0.457591,-1.25813 -2.983735,-1.011051 c 0,0 -2.806826,-2.806332 -3.233286,-3.294561 -0.427448,-0.48823 -0.854401,-1.22008 -0.671562,-1.342138 0.183333,-0.122057 2.989665,2.073988 2.989665,2.073988 0,0 -2.562712,-2.806332 -2.44016,-3.294562 0.122057,-0.487735 0.73185,0 0.73185,0 0,0 0.183333,-0.609792 0.48823,-0.609792 0.304896,0 2.196045,1.52547 2.196045,1.52547 0,0 1.464194,-0.122057 2.318596,0.426954 0.112669,0.07215 0.22929,0.152695 0.347394,0.237196 l 7.679734,5.25687 -0.573225,-6.303994 c 0,0 2.865137,-1.289262 3.008443,-0.859343 0.04744,0.140835 -0.953234,-3.984902 -2.319585,-9.595096 l -4.116349,-11.79707 c 0,0 0.287601,-3.898425 -0.347888,-6.500669 0,-4.94e-4 0,-0.0015 -4.94e-4,-0.002 -0.461545,-1.888184 -1.8022,-7.14357 -2.504401,-9.892086 -0.406693,-0.376055 -0.882569,-0.749146 -1.378705,-0.99326 -1.36388,-0.671069 -4.614462,0.244114 -4.614462,0.244114 0,0 -4.758756,0.915184 -5.20597,0.48823 -0.07561,-0.07264 -0.06721,-0.195193 4.94e-4,-0.349371 h -4.94e-4 l 4.94e-4,-9.88e-4 c 0.333558,-0.756558 2.212352,-2.34034 3.984902,-3.2659005 2.135264,-1.1138355 7.503813,-0.8376004 7.503813,-0.8376004 l 0.610781,-0.7318502 2.928389,-0.337511 0.609793,0.8252464 c 0,0 0.183333,0.6097929 0.366172,1.0985167 0.11168,0.297484 -0.04892,0.934456 -0.191733,1.387106 1.575874,-0.238185 2.998065,-0.429919 2.998065,-0.429919 0,0 1.220574,4.411362 1.220574,7.645142 0,0.752605 0.23275,2.003323 0.588544,3.472953 l 1.027852,1.956378 4.423222,16.899762 c 0,0 6.557991,-11.131438 9.515536,-16.137768 l 5.837507,5.837506 c -1.988498,4.930724 -4.95642,9.869354 -6.465089,12.132605 -2.005794,3.008937 -1.289757,10.029462 -1.289757,10.029462 z" /><path
           inkscape:connector-curvature="0"
           style="fill:#26354b;fill-opacity:1;fill-rule:nonzero;stroke:none;stroke-width:0.65887934"
           d="m -40.515625,143.78906 c -1.830367,0.12255 -9.388672,2.76563 -9.388672,2.76563 l 7.923828,-1.78907 c 0,0 -0.691568,1.87186 -0.732422,2.84766 -0.04085,0.97646 1.322266,1.62695 1.322266,1.62695 l -0.873047,2.30079 0.859375,0.30273 0.888672,-2.44141 c 0,0 -1.139825,-1.01596 -1.261719,-1.58984 -0.121893,-0.57323 -0.202388,-1.78463 0.611328,-2.92383 0.813716,-1.1392 5.205078,0 5.205078,0 0,0 -2.724979,-1.2215 -4.554687,-1.09961 z m 5.539063,17.70899 0.002,0.0117 c 0.06612,0.10413 0.117785,0.17714 0.185547,0.28515 -0.01611,-0.0253 -0.187501,-0.29687 -0.1875,-0.29687 z m 0.214843,0.33984 c 2.159456,3.448 5.076353,8.75106 5.314453,12.56641 0.38215,6.11308 -1.527941,13.56428 0,18.33984 0.989979,3.09283 2.145006,6.25664 3.001954,8.56055 0.965693,-0.31858 1.701171,-0.63281 1.701171,-0.63281 0,0 1.805269,-17.03169 1.154297,-19.67774 -0.62964,-2.56193 -10.531281,-18.14941 -11.171875,-19.15625 z m -3.923828,8.22656 c 0,0 -0.32493,19.52354 -0.976562,20.5 -0.650314,0.9758 -10.203125,8.53516 -10.203125,8.53516 l 6.501953,-4.30469 c 0,0 5.735746,-1.30322 6.386719,-2.68554 0.650973,-1.38366 -1.708985,-22.04493 -1.708985,-22.04493 z m 9.644531,37.0586 -5.169922,1.17383 c -5.169567,1.17346 -12.40625,0.35546 -12.40625,0.35546 4.595025,0.84271 12.976563,2.73633 12.976563,2.73633 0,0 -0.57105,2.90552 -1.384766,5.10156 -0.813716,2.19671 -4.146484,6.44922 -4.146484,6.44922 0,0 0.03137,0.0531 0.07617,0.13086 0.06919,0.11728 0.184913,0.31378 0.347656,0.58985 0.06391,0.10937 0.135143,0.23216 0.212891,0.36328 0.283976,0.48164 0.648488,1.09996 1.082031,1.83594 2.748185,4.66354 8.112532,13.76479 10.966797,18.5957 l 1.634766,-1.63281 c -2.158491,-4.55418 -5.723319,-12.26563 -6.105469,-15.00196 -0.384786,-2.75543 2.102443,-6.61282 3.177734,-8.1289 -1.551917,-3.94577 -1.596363,-8.16979 -1.28125,-12.36914 v -0.0117 c 0.0047,-0.0494 0.0091,-0.0869 0.01172,-0.11719 0.0013,-0.0152 0.0026,-0.0305 0.0039,-0.041 0.0013,-0.01 0.0039,-0.0293 0.0039,-0.0293 z"
           transform="matrix(0.75000002,0,0,-0.75000002,0,207.75001)"
           id="path406" /></g></g></g></svg>