<?xml version="1.0" encoding="UTF-8"?>
<svg version="1.1" viewBox="0 0 128 128" xmlns="http://www.w3.org/2000/svg">
 <rect x="1.1854" y="1.1488" width="125.91" height="125.91" ry="12.009" fill="#fff" stroke="#000" stroke-width="2"/>
 <path d="m53.33 54.387c-0.55515-0.001487-3.615 1.8603-5.334 3.2461-0.88388 0.71247-2.8125 2.8087-4.2871 4.6582-6.5708 8.241-13.584 13.216-23.049 16.348-4.1844 1.3845-4.8633 1.8758-4.8633 3.5273l-0.003906 1.0391h99.021v-1.248c0-0.68636-0.20692-1.4171-0.46093-1.623-0.25402-0.20593-2.2377-0.96508-4.4062-1.6875-9.2926-3.0954-16.713-8.3274-22.729-16.025-1.3041-1.6687-3.1511-3.7232-4.1055-4.5664-1.734-1.5319-5.1009-3.6595-5.8027-3.666-0.20438-0.001874-0.58844 0.49049-0.85547 1.0938-0.85318 1.9275-3.4041 5.0689-5.1113 6.2949l-1.6562 1.1895 0.72266 0.78906c2.2311 2.4433 2.507 5.9528 0.68555 8.7051-3.4741 5.25-12.012 3.1625-12.719-3.1094-0.21394-1.8983 0.61671-4.5126 1.7617-5.5488 0.70077-0.63413 0.65859-0.70206-1.8086-2.9863-1.5059-1.3942-2.9563-3.163-3.5938-4.3828-0.58786-1.125-1.2209-2.0465-1.4062-2.0469zm12.15 9.8301a4.3537 4.3537 0 0 0-4.3535 4.3555 4.3537 4.3537 0 0 0 4.3535 4.3535 4.3537 4.3537 0 0 0 4.3535-4.3535 4.3537 4.3537 0 0 0-4.3535-4.3555zm-22.818 21.205c2.7779 29.889 42.372 30.432 45.182 0h-45.182z"/>
 <path d="m54.557 38.418h21.425c-0.32934-6.1433-4.8141-18.331-10.827-18.281-6.0127 0.04972-10.06 11.573-10.598 18.281z" fill="#f00" stroke="#fff" stroke-width=".27422"/>
 <path d="m54.557 41.863h21.425c-0.32934 6.1433-4.8141 18.331-10.827 18.281-6.0127-0.04972-10.06-11.573-10.598-18.281z" fill="#00f" stroke="#fff" stroke-width=".27422"/>
</svg>
