<?xml version="1.0" encoding="UTF-8" standalone="no"?>
<svg
   xmlns:dc="http://purl.org/dc/elements/1.1/"
   xmlns:cc="http://creativecommons.org/ns#"
   xmlns:rdf="http://www.w3.org/1999/02/22-rdf-syntax-ns#"
   xmlns:svg="http://www.w3.org/2000/svg"
   xmlns="http://www.w3.org/2000/svg"
   xmlns:sodipodi="http://sodipodi.sourceforge.net/DTD/sodipodi-0.dtd"
   xmlns:inkscape="http://www.inkscape.org/namespaces/inkscape"
   version="1.1"
   width="128"
   height="128"
   id="svg2"
   inkscape:version="1.0.2 (e86c870879, 2021-01-15)"
   sodipodi:docname="carabinieri.svg"
   sodipodi:version="0.32"
   inkscape:output_extension="org.inkscape.output.svg.inkscape">
  <metadata
     id="metadata2877">
    <rdf:RDF>
      <cc:Work
         rdf:about="">
        <dc:format>image/svg+xml</dc:format>
        <dc:type
           rdf:resource="http://purl.org/dc/dcmitype/StillImage" />
        <dc:title></dc:title>
      </cc:Work>
    </rdf:RDF>
  </metadata>
  <sodipodi:namedview
     pagecolor="#ffffff"
     bordercolor="#666666"
     borderopacity="1"
     objecttolerance="10"
     gridtolerance="10"
     guidetolerance="10"
     inkscape:pageopacity="0"
     inkscape:pageshadow="2"
     inkscape:window-width="1920"
     inkscape:window-height="1050"
     id="namedview2875"
     showgrid="false"
     inkscape:zoom="0.99572235"
     inkscape:cx="-348.6149"
     inkscape:cy="136.66169"
     inkscape:window-x="0"
     inkscape:window-y="30"
     inkscape:window-maximized="1"
     inkscape:current-layer="svg2"
     inkscape:document-rotation="0" />
  <defs
     id="defs4">
    <inkscape:perspective
       sodipodi:type="inkscape:persp3d"
       inkscape:vp_x="0 : 28 : 1"
       inkscape:vp_y="0 : 1000 : 0"
       inkscape:vp_z="200 : 28 : 1"
       inkscape:persp3d-origin="100 : -5.333333 : 1"
       id="perspective2879" />
  </defs>
  <rect
     width="125.91258"
     height="125.91258"
     ry="12.009442"
     x="1.1854024"
     y="1.1488442"
     id="rect4614"
     style="fill:#ffffff;stroke:#000000;stroke-width:1.93905;stroke-miterlimit:4;stroke-dasharray:none;stroke-opacity:1" />
  <g
     id="g7171"
     transform="matrix(0.64634819,0,0,0.64634819,0.09415402,-0.47840117)">
    <path
       d="m 91.46072,166.704 c -5.16938,-1.48805 -10.41838,-4.53289 -14.56725,-8.45022 -6.09226,-5.75224 -9.92696,-13.43622 -10.66423,-21.369 l -0.37001,-3.98121 h 34.95123 34.95123 l -0.008,2.42941 c -0.0369,10.59868 -8.05522,23.08223 -18.22418,28.37271 -2.45604,1.27777 -5.97189,2.71558 -7.813,3.19512 -4.53158,1.18034 -13.81904,1.0802 -18.25534,-0.19681 z M 24.29475,127.8682 c 0,-2.55516 1.04875,-3.31609 7.52266,-5.4581 14.64309,-4.84493 25.49399,-12.54064 35.66024,-25.291103 2.28149,-2.861447 5.26701,-6.10457 6.6345,-7.206938 2.65961,-2.144012 7.39392,-5.02589 8.25279,-5.023649 0.28677,5.72e-4 1.26552,1.425439 2.17499,3.165981 0.98617,1.887324 3.23035,4.624455 5.56015,6.781495 3.8171,3.534051 3.88115,3.63987 2.79705,4.620968 -1.77148,1.603166 -3.05481,5.647946 -2.72379,8.584776 1.09374,9.70363 14.30224,12.93191 19.67749,4.80936 2.81795,-4.25821 2.38992,-9.6859 -1.06198,-13.466464 l -1.11595,-1.222215 2.56012,-1.838542 c 2.64128,-1.896824 6.58781,-6.7576 7.90784,-9.739758 0.41313,-0.933327 1.00989,-1.694549 1.32614,-1.6916 1.08591,0.01012 6.29333,3.299039 8.97604,5.669101 1.47664,1.30454 4.33553,4.484246 6.35309,7.066003 9.30732,11.910035 20.78759,20.004575 35.16505,24.794235 3.35505,1.11769 6.42163,2.29283 6.81463,2.61142 0.39299,0.31859 0.71453,1.44807 0.71453,2.50995 v 1.9307 h -76.5978 -76.59779 z m 73.28127,-14.78448 c -2.34593,-1.15614 -3.54298,-3.3878 -3.54298,-6.60515 0,-4.12929 2.84323,-6.729261 7.35888,-6.729261 7.12566,0 9.17755,10.294771 2.6676,13.383941 -2.40729,1.14234 -4.09116,1.12947 -6.4835,-0.0496 z M 96.44423,92.559068 C 94.81738,91.748372 92.74263,90.140675 91.83367,88.986409 88.18122,84.348207 85.1537,76.237855 84.51684,69.385519 l -0.3656,-3.933731 h 16.65922 16.65922 l -0.004,2.429408 c -0.006,3.599044 -2.05885,11.514975 -4.09002,15.77092 -2.1975,4.604431 -6.20765,8.732572 -9.40549,9.68223 -3.30969,0.98287 -4.17711,0.893513 -7.52594,-0.775278 z M 84.3154,58.928382 c 0,-1.072723 0.36318,-3.83796 0.80706,-6.144973 2.81742,-14.643348 10.73783,-23.184278 18.97796,-20.464791 3.01745,0.995849 7.17092,5.379038 9.27523,9.788214 2.0931,4.385707 4.08434,12.20295 4.09002,16.056733 l 0.004,2.71522 H 100.89253 84.3154 Z"
       id="path4756"
       style="fill:#000000" />
    <path
       d="m 84.532932,58.393131 c 0.11738,-2.679663 0.58348,-5.524998 1.451727,-8.862152 3.16857,-12.17857 10.214653,-19.168369 17.425271,-17.286078 1.71816,0.448516 3.02435,1.31414 5.1127,3.38823 3.03924,3.01849 4.8177,5.982658 6.36293,10.605105 1.552,4.642693 2.47538,9.350092 2.47538,12.619524 v 1.877662 H 100.89563 84.430331 Z"
       id="path4758"
       style="fill:#ff0000;fill-opacity:1;stroke:#ffffff;stroke-width:0.424264;stroke-linecap:butt;stroke-linejoin:miter;stroke-miterlimit:4;stroke-dasharray:none;stroke-dashoffset:0;stroke-opacity:1" />
    <path
       d="M 97.731637,93.030394 C 92.870073,90.837935 90.254302,87.731458 87.507255,80.887965 85.723301,76.443746 84.817535,72.429497 84.38606,67.055189 l -0.124184,-1.546796 h 16.573904 16.5739 l -0.10026,2.519068 c -0.11575,2.908145 -0.57988,5.326186 -1.8238,9.501747 -1.35483,4.547903 -2.43913,6.954984 -4.32317,9.597265 -1.3752,1.928659 -4.03412,4.495799 -5.50729,5.317185 -1.46085,0.814525 -3.44237,1.349222 -4.99607,1.34815 -1.082175,-7.07e-4 -1.456813,-0.09819 -2.927453,-0.761414 z"
       id="path4760"
       style="fill:#0000ff;fill-opacity:1;stroke:#ffffff;stroke-width:0.424264;stroke-linecap:butt;stroke-linejoin:miter;stroke-miterlimit:4;stroke-dasharray:none;stroke-dashoffset:0;stroke-opacity:1" />
  </g>
</svg>
