<?xml version="1.0" encoding="UTF-8"?>
<svg width="128" height="128" version="1.1" xmlns="http://www.w3.org/2000/svg" xmlns:cc="http://creativecommons.org/ns#" xmlns:dc="http://purl.org/dc/elements/1.1/" xmlns:rdf="http://www.w3.org/1999/02/22-rdf-syntax-ns#">
 <metadata>
  <rdf:RDF>
   <cc:Work rdf:about="">
    <dc:format>image/svg+xml</dc:format>
    <dc:type rdf:resource="http://purl.org/dc/dcmitype/StillImage"/>
    <dc:title/>
   </cc:Work>
  </rdf:RDF>
 </metadata>
 <rect x="1.1854" y="1.1488" width="125.91" height="125.91" ry="12.009" fill="#fff" stroke="#000" stroke-width="1.939"/>
 <g transform="matrix(.64635 0 0 .64635 .094154 -.4784)">
  <path d="m91.461 166.7c-5.1694-1.488-10.418-4.5329-14.567-8.4502-6.0923-5.7522-9.927-13.436-10.664-21.369l-0.37001-3.9812h69.902l-8e-3 2.4294c-0.0369 10.599-8.0552 23.082-18.224 28.373-2.456 1.2778-5.9719 2.7156-7.813 3.1951-4.5316 1.1803-13.819 1.0802-18.255-0.19681zm-67.166-38.836c0-2.5552 1.0488-3.3161 7.5227-5.4581 14.643-4.8449 25.494-12.541 35.66-25.291 2.2815-2.8614 5.267-6.1046 6.6345-7.2069 2.6596-2.144 7.3939-5.0259 8.2528-5.0236 0.28677 5.72e-4 1.2655 1.4254 2.175 3.166 0.98617 1.8873 3.2304 4.6245 5.5602 6.7815 3.8171 3.5341 3.8812 3.6399 2.797 4.621-1.7715 1.6032-3.0548 5.6479-2.7238 8.5848 1.0937 9.7036 14.302 12.932 19.677 4.8094 2.818-4.2582 2.3899-9.6859-1.062-13.466l-1.116-1.2222 2.5601-1.8385c2.6413-1.8968 6.5878-6.7576 7.9078-9.7398 0.41313-0.93333 1.0099-1.6945 1.3261-1.6916 1.0859 0.01012 6.2933 3.299 8.976 5.6691 1.4766 1.3045 4.3355 4.4842 6.3531 7.066 9.3073 11.91 20.788 20.005 35.165 24.794 3.355 1.1177 6.4216 2.2928 6.8146 2.6114 0.39299 0.31859 0.71453 1.4481 0.71453 2.51v1.9307h-153.2zm73.281-14.784c-2.3459-1.1561-3.543-3.3878-3.543-6.6052 0-4.1293 2.8432-6.7293 7.3589-6.7293 7.1257 0 9.1776 10.295 2.6676 13.384-2.4073 1.1423-4.0912 1.1295-6.4835-0.0496zm-1.1318-20.525c-1.6268-0.8107-3.7016-2.4184-4.6106-3.5727-3.6524-4.6382-6.68-12.749-7.3168-19.601l-0.3656-3.9337h33.318l-4e-3 2.4294c-6e-3 3.599-2.0588 11.515-4.09 15.771-2.1975 4.6044-6.2076 8.7326-9.4055 9.6822-3.3097 0.98287-4.1771 0.89351-7.5259-0.77528zm-12.129-33.631c0-1.0727 0.36318-3.838 0.80706-6.145 2.8174-14.643 10.738-23.184 18.978-20.465 3.0174 0.99585 7.1709 5.379 9.2752 9.7882 2.0931 4.3857 4.0843 12.203 4.09 16.057l4e-3 2.7152h-33.154z"/>
  <path d="m84.533 58.393c0.11738-2.6797 0.58348-5.525 1.4517-8.8622 3.1686-12.179 10.215-19.168 17.425-17.286 1.7182 0.44852 3.0244 1.3141 5.1127 3.3882 3.0392 3.0185 4.8177 5.9827 6.3629 10.605 1.552 4.6427 2.4754 9.3501 2.4754 12.62v1.8777h-32.931z" fill="#f00" stroke="#fff" stroke-width=".42426"/>
  <path d="m97.732 93.03c-4.8616-2.1925-7.4773-5.2989-10.224-12.142-1.784-4.4442-2.6897-8.4585-3.1212-13.833l-0.12418-1.5468h33.148l-0.10026 2.5191c-0.11575 2.9081-0.57988 5.3262-1.8238 9.5017-1.3548 4.5479-2.4391 6.955-4.3232 9.5973-1.3752 1.9287-4.0341 4.4958-5.5073 5.3172-1.4608 0.81452-3.4424 1.3492-4.9961 1.3482-1.0822-7.07e-4 -1.4568-0.09819-2.9275-0.76141z" fill="#00f" stroke="#fff" stroke-width=".42426"/>
 </g>
</svg>
