<?xml version="1.0" encoding="UTF-8"?>
<svg width="128" height="128" version="1.1" xmlns="http://www.w3.org/2000/svg" xmlns:cc="http://creativecommons.org/ns#" xmlns:dc="http://purl.org/dc/elements/1.1/" xmlns:rdf="http://www.w3.org/1999/02/22-rdf-syntax-ns#">
 <metadata>
  <rdf:RDF>
   <cc:Work rdf:about="">
    <dc:format>image/svg+xml</dc:format>
    <dc:type rdf:resource="http://purl.org/dc/dcmitype/StillImage"/>
    <dc:title/>
   </cc:Work>
  </rdf:RDF>
 </metadata>
 <rect x="1.1341" y="1.014" width="125.86" height="125.86" ry="12.004" fill="#fff" stroke="#000" stroke-width="1.9382"/>
 <g transform="matrix(.3847 0 0 .3847 4.1769 25.652)">
  <polygon points="25 200 0 200 100 0 125 0" fill="#009246"/>
  <polygon points="45 200 20 200 120 0 145 0" fill="#fff"/>
  <polygon points="210 200 40 200 140 0 310 0" fill="#ce2b37"/>
  <circle cx="175" cy="100" r="60" fill="#fff"/>
  <path d="m175 51.7c-4.1 0-7.5 3.3-7.5 7.4 0 3.4 2.3 6.3 5.4 7.1v5.1h-15c-0.8-1.1-2.3-1.8-3.9-1.8-2.6 0-4.6 1.7-4.6 3.9 0 2.1 2.1 3.9 4.6 3.9 1.7 0 3.2-0.8 4-1.9h15v56.2c0 2.8-1.8 4.8-4.1 4.8-6.3 0-13-2.8-18.2-7-5.6-4.4-9.5-10.2-9.5-15.6 0-2.7 2.9-3.6 4.8-4.1-4.7-1.2-11.3-3.1-15.5-6.6 1.1 5.6-0.1 11.6-1.5 17.2 1.3-1.4 2.5-3.3 5.2-3.3s6.4 9.9 14.5 16c8.4 6.4 18.2 6.8 22.6 9.9 1.6 1.1 3.8 5.3 3.8 5.3s2.2-4.2 3.8-5.3c4.3-3.1 14.1-3.5 22.6-9.9 8-6.1 11.8-16 14.5-16s3.9 2 5.2 3.3c-1.4-5.6-2.5-11.6-1.5-17.2-4.2 3.5-10.7 5.4-15.5 6.6 1.9 0.5 4.8 1.4 4.8 4.1 0 5.4-3.9 11.2-9.5 15.6-5.2 4.1-12 7-18.2 7-2.3 0-4.1-2-4.1-4.8v-56.1h14.9c0.8 1.2 2.3 1.9 4 1.9 2.6 0 4.6-1.7 4.6-3.9 0-2.1-2.1-3.9-4.6-3.9-1.6 0-3.1 0.7-3.9 1.8h-15v-5.1c3.1-0.9 5.4-3.7 5.4-7.1-0.2-4.1-3.5-7.5-7.6-7.5zm0 3.8c2 0 3.6 1.6 3.6 3.7 0 2-1.6 3.6-3.7 3.6-2 0-3.7-1.6-3.7-3.6 0.1-2 1.8-3.7 3.8-3.7z"/>
 </g>
</svg>
