<?xml version="1.0" encoding="UTF-8" standalone="no"?>
<svg
   xmlns:dc="http://purl.org/dc/elements/1.1/"
   xmlns:cc="http://creativecommons.org/ns#"
   xmlns:rdf="http://www.w3.org/1999/02/22-rdf-syntax-ns#"
   xmlns:svg="http://www.w3.org/2000/svg"
   xmlns="http://www.w3.org/2000/svg"
   xmlns:sodipodi="http://sodipodi.sourceforge.net/DTD/sodipodi-0.dtd"
   xmlns:inkscape="http://www.inkscape.org/namespaces/inkscape"
   version="1.1"
   width="128"
   height="128"
   id="svg2"
   inkscape:version="1.0.2 (e86c870879, 2021-01-15)"
   sodipodi:docname="costiera.svg"
   sodipodi:version="0.32"
   inkscape:output_extension="org.inkscape.output.svg.inkscape">
  <metadata
     id="metadata2877">
    <rdf:RDF>
      <cc:Work
         rdf:about="">
        <dc:format>image/svg+xml</dc:format>
        <dc:type
           rdf:resource="http://purl.org/dc/dcmitype/StillImage" />
        <dc:title></dc:title>
      </cc:Work>
    </rdf:RDF>
  </metadata>
  <sodipodi:namedview
     pagecolor="#ffffff"
     bordercolor="#666666"
     borderopacity="1"
     objecttolerance="10"
     gridtolerance="10"
     guidetolerance="10"
     inkscape:pageopacity="0"
     inkscape:pageshadow="2"
     inkscape:window-width="1920"
     inkscape:window-height="1050"
     id="namedview2875"
     showgrid="false"
     inkscape:zoom="2.8163281"
     inkscape:cx="68.666988"
     inkscape:cy="58.019324"
     inkscape:window-x="0"
     inkscape:window-y="30"
     inkscape:window-maximized="1"
     inkscape:current-layer="svg2"
     inkscape:document-rotation="0" />
  <defs
     id="defs4">
    <inkscape:perspective
       sodipodi:type="inkscape:persp3d"
       inkscape:vp_x="0 : 28 : 1"
       inkscape:vp_y="0 : 1000 : 0"
       inkscape:vp_z="200 : 28 : 1"
       inkscape:persp3d-origin="100 : -5.333333 : 1"
       id="perspective2879" />
  </defs>
  <rect
     width="125.8554"
     height="125.85542"
     ry="12.003987"
     x="1.1341317"
     y="1.0139537"
     id="rect4614"
     style="fill:#ffffff;stroke:#000000;stroke-width:1.93817;stroke-miterlimit:4;stroke-dasharray:none;stroke-opacity:1" />
  <g
     id="g938"
     transform="matrix(0.38469617,0,0,0.38469617,4.1769417,25.652064)">
    <polygon
       points="25,200 0,200 100,0 125,0 "
       fill="#009246"
       id="polygon916" />
    <polygon
       points="45,200 20,200 120,0 145,0 "
       fill="#ffffff"
       id="polygon918" />
    <polygon
       points="210,200 40,200 140,0 310,0 "
       fill="#ce2b37"
       id="polygon920" />
    <circle
       cx="175"
       cy="100"
       r="60"
       fill="#ffffff"
       id="circle922" />
    <path
       id="path2949"
       d="m 175,51.7 c -4.1,0 -7.5,3.3 -7.5,7.4 0,3.4 2.3,6.3 5.4,7.1 v 5.1 h -15 c -0.8,-1.1 -2.3,-1.8 -3.9,-1.8 -2.6,0 -4.6,1.7 -4.6,3.9 0,2.1 2.1,3.9 4.6,3.9 1.7,0 3.2,-0.8 4,-1.9 h 15 v 56.2 c 0,2.8 -1.8,4.8 -4.1,4.8 -6.3,0 -13,-2.8 -18.2,-7 -5.6,-4.4 -9.5,-10.2 -9.5,-15.6 0,-2.7 2.9,-3.6 4.8,-4.1 -4.7,-1.2 -11.3,-3.1 -15.5,-6.6 1.1,5.6 -0.1,11.6 -1.5,17.2 1.3,-1.4 2.5,-3.3 5.2,-3.3 2.7,0 6.4,9.9 14.5,16 8.4,6.4 18.2,6.8 22.6,9.9 1.6,1.1 3.8,5.3 3.8,5.3 0,0 2.2,-4.2 3.8,-5.3 4.3,-3.1 14.1,-3.5 22.6,-9.9 8,-6.1 11.8,-16 14.5,-16 2.7,0 3.9,2 5.2,3.3 -1.4,-5.6 -2.5,-11.6 -1.5,-17.2 -4.2,3.5 -10.7,5.4 -15.5,6.6 1.9,0.5 4.8,1.4 4.8,4.1 0,5.4 -3.9,11.2 -9.5,15.6 -5.2,4.1 -12,7 -18.2,7 -2.3,0 -4.1,-2 -4.1,-4.8 V 75.5 h 14.9 c 0.8,1.2 2.3,1.9 4,1.9 2.6,0 4.6,-1.7 4.6,-3.9 0,-2.1 -2.1,-3.9 -4.6,-3.9 -1.6,0 -3.1,0.7 -3.9,1.8 h -15 v -5.1 c 3.1,-0.9 5.4,-3.7 5.4,-7.1 -0.2,-4.1 -3.5,-7.5 -7.6,-7.5 z m 0,3.8 c 2,0 3.6,1.6 3.6,3.7 0,2 -1.6,3.6 -3.7,3.6 -2,0 -3.7,-1.6 -3.7,-3.6 0.1,-2 1.8,-3.7 3.8,-3.7 z" />
  </g>
</svg>
