<?xml version="1.0" encoding="UTF-8"?>
<svg width="128" height="128" version="1.1" xmlns="http://www.w3.org/2000/svg" xmlns:cc="http://creativecommons.org/ns#" xmlns:dc="http://purl.org/dc/elements/1.1/" xmlns:rdf="http://www.w3.org/1999/02/22-rdf-syntax-ns#">
 <metadata>
  <rdf:RDF>
   <cc:Work rdf:about="">
    <dc:format>image/svg+xml</dc:format>
    <dc:type rdf:resource="http://purl.org/dc/dcmitype/StillImage"/>
    <dc:title/>
   </cc:Work>
  </rdf:RDF>
 </metadata>
 <rect x="1.1341" y="1.014" width="125.86" height="125.86" ry="12.004" fill="#fff" stroke="#000" stroke-width="1.9382"/>
 <g transform="matrix(.64824 0 0 .64824 2.8956 -.90572)" fill="#871a09" fill-rule="evenodd" stroke="#811401" stroke-linejoin="round" stroke-width="4.4848">
  <path d="m105.37 89.122-36.692 34.205-39.18-13.06c-4.9639 2.8407-10.867 5.0552-6.219 14.304l50.996 19.901 24.254-18.035 0.6219 26.12 53.039-63.613z"/>
  <path d="m165.7 90.366 5.2e-4 88.31-66.543-1e-3c-4.146-3.3168-4.146-9.3562 0-13.502l59.703-0.17858c4.2851-2.6949 1.114-5.3898 0-8.0847h-49.752z"/>
  <path d="m107.55 62.691c1.5548-0.31095 45.088-5.5971 45.088-5.5971 0.25525 13.311-2.781 24.318-18.968 26.12-11.811-0.94247-22.497-4.0234-26.12-20.523z"/>
  <path d="m88.269 57.094 62.871-7.9115c0.55945 1.0461-45.92-7.655-46.063-7.8277 0.19094 0.63722-14.751 14.662-16.808 15.739z"/>
  <path d="m95.148 20.465c-0.21112 0.0035 59.726 15.53 59.347 15.858 0.3984 0.02136-3.0868 8.4961-3.3473 8.3638 0.29721-0.1851-42.031-10.715-41.734-10.293-7.9773-7.4464-6.2037-4.7646-14.266-13.93z"/>
 </g>
</svg>
