<?xml version="1.0" encoding="UTF-8"?>
<svg width="128" height="128" version="1.1" xmlns="http://www.w3.org/2000/svg" xmlns:cc="http://creativecommons.org/ns#" xmlns:dc="http://purl.org/dc/elements/1.1/" xmlns:rdf="http://www.w3.org/1999/02/22-rdf-syntax-ns#">
 <metadata>
  <rdf:RDF>
   <cc:Work rdf:about="">
    <dc:format>image/svg+xml</dc:format>
    <dc:type rdf:resource="http://purl.org/dc/dcmitype/StillImage"/>
    <dc:title/>
   </cc:Work>
  </rdf:RDF>
 </metadata>
 <rect x="1.1829" y=".81104" width="125.8" height="125.8" ry="11.999" fill="#fff" stroke="#000" stroke-width="1.9373"/>
 <g transform="matrix(.64578 0 0 .64578 -.10318 -.6718)">
  <path d="m63.555 184.16c-2.839-2.3405-4.707-4.3256-4.8142-5.1161-0.14427-1.0634 1.5132-2.5821 9.377-8.5919 12.726-9.7257 11.322-9.0261 14.826-7.3847 1.615 0.75641 2.9363 1.61 2.9363 1.897s-3.5456 5.5917-7.879 11.788c-4.9415 7.0661-8.2384 11.26-8.8431 11.249-0.53025-0.01-3.0516-1.7384-5.6031-3.8418zm60.336-7.3758c-4.3213-6.1793-7.857-11.484-7.857-11.788 0-0.30428 1.3194-1.1712 2.9321-1.9266 3.5029-1.6407 2.1078-2.3401 14.942 7.491 6.9856 5.3512 9.3734 7.4979 9.353 8.4082-0.0304 1.3495-9.0726 9.0507-10.627 9.0507-0.49386 0-4.3632-4.9722-8.7429-11.235zm-45.148 3.8579c-1.1302-0.1699-1.5729-0.53682-1.4455-1.1982 0.14976-0.77764 0.71707-0.90349 3.0788-0.683 4.2077 0.39283 12.4 0.26165 14.983-0.23991l2.2302-0.43304-2.5201-1.602c-2.4989-1.5885-8.6088-7.8162-8.6088-8.7748 0-1.6408 1.6413-0.74482 5.0805 2.7734 2.1492 2.1985 5.147 4.5875 6.662 5.3089l2.7544 1.3117 2.7544-1.3117c1.5149-0.72142 4.4961-3.0932 6.6248-5.2706 2.1287-2.1774 4.0206-3.9589 4.2041-3.9589s0.33366 0.53307 0.33366 1.1846c0 1.4899-4.6989 6.5977-8.0289 8.7276l-2.5201 1.6119 2.2302 0.47163c1.2266 0.25939 5.8181 0.42098 10.203 0.3591 6.4251-0.0907 7.9733 0.042 7.9733 0.68312 0 0.53179-1.0831 0.93096-3.2663 1.2037-4.3342 0.54151-16.3-0.0179-18.434-0.86179-1.3359-0.52814-2.5267-0.48081-5.6233 0.22349-3.671 0.83496-14.447 1.1091-18.666 0.47486zm15.546-16.399c-10.118-1.5218-19.106-6.4035-26.354-14.313-4.6687-5.095-8.9797-13.619-10.3-20.365-0.66881-3.4168-1.2512-4.981-2.0047-5.3842-1.2035-0.6441-1.4108-2.8462-0.36614-3.8908 0.49556-0.49556 4.0877-0.69585 12.48-0.69585h11.784l0.69272 1.5204c0.62351 1.3685 0.53537 1.6458-0.88225 2.7762-1.2985 1.0354-1.5714 1.7101-1.5547 3.8435 0.0247 3.1588 1.3487 10.651 2.3018 13.025l0.69834 1.7396 0.82543-3.1893c1.5601-6.0281 5.6158-10.543 11.998-13.356 4.4165-1.9466 10.944-1.7401 15.725 0.49753 6.3662 2.9791 10.168 8.0503 11.461 15.287l0.65383 3.6604 1.0894-2.4744c1.6311-3.7046 3.2-10.384 3.4365-14.632 0.20826-3.74 0.19754-3.7706-1.385-3.9527-1.9166-0.22052-2.8001-1.6515-2.1245-3.4407 0.48874-1.2943 0.58689-1.3047 12.328-1.3047 9.7668 0 11.96 0.1507 12.551 0.86228 0.99441 1.1982 0.26119 3.7767-1.0739 3.7767-0.86685 0-1.2366 0.90829-2.0455 5.0253-4.5117 22.962-26.666 38.485-49.933 34.985zm10.352-8.1641c3.1374-0.87116 6.923-4.8201 7.8728-8.2125 2.1179-7.5644-3.718-15.238-11.548-15.184-9.9768 0.0684-15.605 11.091-9.6769 18.952 3.2575 4.3195 8.0539 5.9165 13.352 4.4454zm-24.554-40.391-7.0441-9.7039 1.3-1.0527c1.6379-1.3263 1.2865-1.685 9.454 9.6512 5.9442 8.2503 6.1659 8.6631 5.2158 9.7129-0.54571 0.60301-1.1924 1.0964-1.437 1.0964-0.24464 0-3.6146-4.3667-7.4889-9.7039zm32.461 8.6552-1.2951-1.0487 7.0704-9.6776c6.2034-8.4909 7.2036-9.6062 8.157-9.096 0.59766 0.31985 1.2379 0.82632 1.4228 1.1255 0.27649 0.44738-13.285 19.745-13.876 19.745-0.10111 0-0.76663-0.47191-1.4789-1.0487zm-17.853-4.2862c-0.38272-0.38271-0.69585-1.2438-0.69585-1.9136 0-2.1957 1.1032-2.6094 6.9585-2.6094 5.8552 0 6.9585 0.41372 6.9585 2.6094 0 2.1957-1.1032 2.6094-6.9585 2.6094-3.5566 0-5.8181-0.25128-6.2626-0.69585z"/>
  <g fill="#f8991d" stroke="#fff" stroke-width=".42426">
   <path d="m101.67 107.19c0-0.35986-0.95063-6.633-2.0142-13.292-1.5569-9.747-2.1227-13.567-2.4222-16.352-0.27528-2.5595-0.28629-9.4226-0.01885-11.756 0.11145-0.97227 0.32288-2.79 0.46983-4.0394 0.37081-3.1526 0.60131-10.667 0.80602-26.278 0.19194-14.637 0.31227-16.978 0.95383-18.556 1.3686-3.3682 5.2587-6.7226 7.7962-6.7226 1.7001 0 1.6097 0.46232-0.6886 3.5221-2.296 3.0566-2.8863 4.1815-3.3553 6.3936-0.60843 2.8699-0.68808 5.1637-0.68084 19.606 7e-3 14.368 0.15271 21.964 0.67724 35.355 0.55912 14.274 0.0146 30.073-1.0952 31.776-0.22712 0.34846-0.42787 0.50929-0.42787 0.34279z"/>
   <path d="m98.175 108.27c-0.10381-0.12508-0.66556-1.3562-1.2483-2.7357-1.1715-2.7731-2.9048-6.0537-4.977-9.4198-0.74818-1.2153-2.0061-3.2588-2.7954-4.541-3.4115-5.5421-6.0578-11.379-6.8393-15.084-0.81911-3.8842-0.4866-6.4317 1.827-13.998 1.2405-4.0568 1.6577-6.1834 1.6578-8.4501 9e-6 -2.1806-0.25693-3.1465-1.202-4.5188-0.36418-0.52878-0.60966-1.0139-0.54549-1.0781 0.3738-0.3738 3.706 1.4396 4.1724 2.2707 0.22603 0.40271 0.23307 0.65088 0.04758 1.6784-0.36715 2.0339-0.7041 4.9484-0.94668 8.1885-0.31351 4.1875-0.31104 15.131 0.0039 17.236 0.27204 1.8178 1.0773 3.9323 4.4281 11.628 3.1597 7.257 5.8465 14.562 6.4755 17.607 0.27844 1.3477 0.26603 1.6071-0.05821 1.2164z"/>
   <path d="m99.151 104.46c-0.16083-0.46183-0.73161-2.3233-1.2684-4.1366-1.7333-5.8552-2.8111-8.7677-5.2284-14.129-2.5423-5.6382-3.0512-7.4632-3.3901-12.156-0.16068-2.2249-0.16014-4.1328 0.0023-8.3085 0.31127-7.9992 0.40538-8.6994 2.0742-15.434 1.4762-5.9571 1.8418-8.111 1.9611-11.553 0.11484-3.313-0.10517-4.6916-1.0669-6.685-0.33649-0.69746-0.58295-1.2969-0.5477-1.3322s0.48644 0.178 1.0027 0.47388c1.787 1.0242 2.5615 2.1983 3.0828 4.673 0.60859 2.8892 0.49139 15.853-0.19775 21.874-0.48257 4.2161-0.65338 8.2566-0.64643 15.291 0.0081 8.183 0.11932 9.3805 1.3546 14.584 1.6695 7.0325 3.6186 17.678 3.2368 17.678-0.04197 0-0.20789-0.37786-0.36872-0.83968z"/>
   <path d="m104.66 104.68c-0.0884-0.5767 0.0655-3.4147 0.35952-6.6291 0.29309-3.2046 0.22256-16.872-0.1788-34.648-0.5515-24.426-0.38223-36.09 0.56697-39.068 0.51712-1.6223 1.4983-2.3891 3.7307-2.9155 1.2813-0.3021 3.5975-0.35254 3.7647-0.082 0.2103 0.34026-0.26859 0.65364-1.1846 0.77514-1.1615 0.15408-1.6977 0.43768-2.494 1.319-1.3523 1.4969-1.8901 3.2895-1.8884 6.295 2e-3 4.0619 0.68491 12.521 2.0256 25.102 1.0477 9.8317 1.1705 11.515 1.1677 15.998-4e-3 6.7209-0.5919 11.181-2.9464 22.362-1.1586 5.5023-2.1278 9.7175-2.54 11.047-0.27945 0.90159-0.30772 0.93428-0.383 0.44309z"/>
   <path d="m105.57 107.91c-5e-3 -0.0759 0.75159-2.6612 1.6816-5.7452 3.8959-12.919 5.5981-21.64 5.856-30.002 0.14574-4.7257-0.26533-9.5177-1.7363-20.241-0.39556-2.8835-0.75862-6.3356-0.81212-7.7218-0.0953-2.468-0.0896-2.5191 0.3665-3.2973 0.57792-0.98614 2.3732-2.6287 3.4014-3.112 0.43386-0.20394 1.136-0.3646 1.5933-0.3646h0.81769l-1.0816 1.1562c-2.958 3.1622-3.0244 5.4141-0.53401 18.112 1.9139 9.7587 1.8403 9.1557 1.8232 14.938-0.0296 9.9847-0.61807 13.341-3.4866 19.887-2.3584 5.382-7.8604 16.813-7.8891 16.391z"/>
   <path d="m106.62 109.08c0-0.17491 1.7854-3.3691 4.6815-8.3754 5.7163-9.8815 6.9791-12.836 7.8571-18.385 0.59582-3.7652 0.74344-6.72 0.68602-13.732-0.0606-7.4049-0.0949-7.149 1.1148-8.3317 1.217-1.1898 4.1508-1.7745 4.9406-0.98467l0.37132 0.37132-0.77715 0.19569c-1.0981 0.2765-2.3196 1.2628-2.708 2.1865-0.29081 0.69162-0.331 1.6843-0.44237 10.925-0.11321 9.3952-0.15021 10.285-0.48873 11.756-1.3112 5.6958-5.217 13.189-9.8854 18.964-2.2499 2.7833-5.3498 5.9181-5.3498 5.41z"/>
   <path d="m107.98 111.25c0.27446-0.32614 1.4047-1.6188 2.5116-2.8726 4.6874-5.3094 8.3168-10.765 10.395-15.626 1.594-3.728 3.4141-9.8406 3.8492-12.927 0.27604-1.9582 0.58967-2.6776 1.3849-3.1771 0.69479-0.43634 1.8824-0.36729 2.5749 0.14973 0.66037 0.49303 0.58035 0.76724-0.2997 1.0271-1.0107 0.29844-1.3112 0.59685-1.8822 1.8692-0.37567 0.83712-0.53097 1.5938-0.72518 3.5336-0.35877 3.5834-1.0614 6.0544-2.8591 10.055-2.3466 5.2222-5.5601 10.12-8.702 13.262-1.919 1.9194-6.1498 5.2995-6.6332 5.2995-0.0625 0 0.11095-0.26684 0.3854-0.59299z"/>
   <path d="m95.461 109.94c-1.605-1.668-3.0068-3.4497-4.6939-5.9662-1.7033-2.5407-2.2564-3.4524-4.8229-7.9495-1.3334-2.3365-3.389-5.8156-4.5679-7.7313-2.1418-3.4803-3.4603-5.9301-4.3572-8.0957-0.26175-0.63198-1.0755-2.4006-1.8084-3.9302-1.4432-3.0121-1.5375-3.5587-0.65256-3.7808 1.9789-0.49668 6.3597 5.1746 7.6631 9.9206 1.1629 4.2345 3.0044 7.7835 9.1696 17.672 1.6954 2.7194 3.5146 5.7355 4.0427 6.7025 1.3841 2.5344 2.1533 4.705 1.6674 4.705-0.08337 0-0.82136-0.69606-1.64-1.5468z"/>
   <path d="m92.647 111.89c-3.9537-2.6749-7.8924-7.728-11.235-14.414-1.6703-3.3406-2.4871-4.6875-3.4811-5.7397-0.93436-0.98915-0.96764-1.2494-0.22224-1.7378 0.62282-0.40808 1.2696-0.20718 2.0818 0.64665 0.94999 0.99865 1.5679 2.0195 4.3369 7.165 3.6989 6.8736 4.5187 8.1107 8.242 12.438 2.6647 3.0972 2.6951 3.2769 0.27798 1.6416z"/>
  </g>
 </g>
</svg>
