<?xml version="1.0" encoding="UTF-8" standalone="no"?>
<svg
   xmlns:dc="http://purl.org/dc/elements/1.1/"
   xmlns:cc="http://creativecommons.org/ns#"
   xmlns:rdf="http://www.w3.org/1999/02/22-rdf-syntax-ns#"
   xmlns:svg="http://www.w3.org/2000/svg"
   xmlns="http://www.w3.org/2000/svg"
   xmlns:sodipodi="http://sodipodi.sourceforge.net/DTD/sodipodi-0.dtd"
   xmlns:inkscape="http://www.inkscape.org/namespaces/inkscape"
   version="1.1"
   width="128"
   height="128"
   id="svg2"
   inkscape:version="1.0.2 (e86c870879, 2021-01-15)"
   sodipodi:docname="finanza.svg"
   sodipodi:version="0.32"
   inkscape:output_extension="org.inkscape.output.svg.inkscape">
  <metadata
     id="metadata2877">
    <rdf:RDF>
      <cc:Work
         rdf:about="">
        <dc:format>image/svg+xml</dc:format>
        <dc:type
           rdf:resource="http://purl.org/dc/dcmitype/StillImage" />
        <dc:title></dc:title>
      </cc:Work>
    </rdf:RDF>
  </metadata>
  <sodipodi:namedview
     pagecolor="#ffffff"
     bordercolor="#666666"
     borderopacity="1"
     objecttolerance="10"
     gridtolerance="10"
     guidetolerance="10"
     inkscape:pageopacity="0"
     inkscape:pageshadow="2"
     inkscape:window-width="1920"
     inkscape:window-height="1050"
     id="namedview2875"
     showgrid="false"
     inkscape:zoom="1.9914447"
     inkscape:cx="-15.680068"
     inkscape:cy="15.446597"
     inkscape:window-x="0"
     inkscape:window-y="30"
     inkscape:window-maximized="1"
     inkscape:current-layer="svg2"
     inkscape:document-rotation="0" />
  <defs
     id="defs4">
    <inkscape:perspective
       sodipodi:type="inkscape:persp3d"
       inkscape:vp_x="0 : 28 : 1"
       inkscape:vp_y="0 : 1000 : 0"
       inkscape:vp_z="200 : 28 : 1"
       inkscape:persp3d-origin="100 : -5.333333 : 1"
       id="perspective2879" />
  </defs>
  <rect
     width="125.80143"
     height="125.80144"
     ry="11.99884"
     x="1.1828657"
     y="0.81103921"
     id="rect4614"
     style="fill:#ffffff;stroke:#000000;stroke-width:1.93733;stroke-miterlimit:4;stroke-dasharray:none;stroke-opacity:1" />
  <g
     id="g7780"
     transform="matrix(0.6457776,0,0,0.6457776,-0.10317885,-0.67180225)">
    <path
       d="m 63.55538,184.1646 c -2.83904,-2.34051 -4.70699,-4.32558 -4.81424,-5.11609 -0.14427,-1.06337 1.51323,-2.58209 9.37703,-8.59186 12.72613,-9.72573 11.32152,-9.02611 14.82608,-7.38466 1.61497,0.75641 2.9363,1.61005 2.9363,1.89699 0,0.28694 -3.54555,5.59168 -7.879,11.78831 -4.94148,7.06608 -8.23845,11.2601 -8.84309,11.24916 -0.53025,-0.01 -3.05163,-1.73842 -5.60308,-3.84185 z m 60.3356,-7.37576 c -4.32132,-6.17928 -7.85695,-11.48402 -7.85695,-11.78831 0,-0.30428 1.31945,-1.17124 2.9321,-1.92657 3.50287,-1.64066 2.10783,-2.34007 14.94155,7.49104 6.98556,5.35119 9.37343,7.49786 9.35295,8.40818 -0.0304,1.34949 -9.07263,9.05071 -10.62675,9.05071 -0.49386,0 -4.36315,-4.97222 -8.7429,-11.23505 z m -45.14835,3.85789 c -1.13023,-0.1699 -1.57289,-0.53682 -1.44553,-1.19819 0.14976,-0.77764 0.71707,-0.90349 3.0788,-0.683 4.20768,0.39283 12.40013,0.26165 14.98325,-0.23991 l 2.23017,-0.43304 -2.5201,-1.602 c -2.49894,-1.58854 -8.60879,-7.81623 -8.60879,-8.77482 0,-1.64075 1.64126,-0.74482 5.08051,2.77338 2.14915,2.19847 5.14703,4.58748 6.66195,5.3089 l 2.7544,1.31168 2.75441,-1.31168 c 1.51492,-0.72142 4.49609,-3.09319 6.62483,-5.2706 2.12874,-2.1774 4.02058,-3.95892 4.20409,-3.95892 0.18351,0 0.33366,0.53307 0.33366,1.18459 0,1.4899 -4.69891,6.59772 -8.02891,8.72761 l -2.5201,1.61186 2.23016,0.47163 c 1.22659,0.25939 5.81814,0.42098 10.20344,0.3591 6.42507,-0.0907 7.97328,0.042 7.97328,0.68312 0,0.53179 -1.08313,0.93096 -3.26626,1.20373 -4.33417,0.54151 -16.29955,-0.0179 -18.43418,-0.86179 -1.33587,-0.52814 -2.52668,-0.48081 -5.62328,0.22349 -3.67101,0.83496 -14.44672,1.1091 -18.6658,0.47486 z M 94.28874,164.24815 C 84.1707,162.72638 75.1823,157.84468 67.93427,149.93473 63.2656,144.8397 58.95456,136.31617 57.63398,129.56961 c -0.66881,-3.41675 -1.25121,-4.981 -2.00466,-5.38424 -1.20353,-0.6441 -1.41075,-2.84622 -0.36614,-3.89083 0.49556,-0.49556 4.08766,-0.69585 12.47973,-0.69585 H 79.5268 l 0.69272,1.52036 c 0.62351,1.36846 0.53537,1.64582 -0.88225,2.77618 -1.29847,1.03537 -1.57141,1.7101 -1.55473,3.84349 0.0247,3.15877 1.34873,10.65139 2.30175,13.02539 l 0.69834,1.73963 0.82543,-3.18931 c 1.56014,-6.02814 5.6158,-10.54278 11.99798,-13.35581 4.41652,-1.94664 10.94366,-1.74013 15.72542,0.49753 6.36617,2.97909 10.16817,8.05027 11.46072,15.28654 l 0.65383,3.66042 1.08945,-2.47435 c 1.63113,-3.70464 3.19996,-10.38443 3.43649,-14.63195 0.20826,-3.74001 0.19754,-3.7706 -1.38499,-3.95269 -1.91655,-0.22052 -2.80009,-1.65148 -2.12447,-3.44071 0.48874,-1.29433 0.58689,-1.30472 12.32777,-1.30472 9.76675,0 11.96018,0.1507 12.55075,0.86228 0.99441,1.1982 0.26119,3.77672 -1.07393,3.77672 -0.86685,0 -1.23655,0.90829 -2.04546,5.02527 -4.5117,22.96226 -26.66602,38.48457 -49.93288,34.98519 z m 10.3515,-8.16407 c 3.13737,-0.87116 6.92303,-4.82012 7.87282,-8.21246 2.11789,-7.56437 -3.71797,-15.23819 -11.54765,-15.18449 -9.97677,0.0684 -15.6049,11.09075 -9.67686,18.95151 3.25746,4.31949 8.05394,5.91648 13.35169,4.44544 z m -24.55358,-40.39051 -7.04406,-9.70387 1.30005,-1.05272 c 1.63788,-1.32628 1.2865,-1.68499 9.45402,9.65118 5.9442,8.25032 6.16588,8.66312 5.21584,9.7129 -0.54571,0.60301 -1.19236,1.09638 -1.43699,1.09638 -0.24464,0 -3.61462,-4.36674 -7.48886,-9.70387 z m 32.46128,8.65518 -1.29507,-1.04868 7.07038,-9.67756 c 6.20339,-8.49087 7.20362,-9.60625 8.15703,-9.096 0.59766,0.31985 1.23792,0.82632 1.42281,1.12547 0.27649,0.44738 -13.28534,19.74546 -13.87623,19.74546 -0.10111,0 -0.76663,-0.47191 -1.47892,-1.04869 z m -17.85329,-4.28616 c -0.38272,-0.38271 -0.69585,-1.24383 -0.69585,-1.91358 0,-2.19572 1.10325,-2.60944 6.95849,-2.60944 5.85525,0 6.9585,0.41372 6.9585,2.60944 0,2.19571 -1.10325,2.60943 -6.9585,2.60943 -3.55656,0 -5.81807,-0.25128 -6.26264,-0.69585 z"
       id="path4776"
       style="fill:#000000" />
    <path
       d="m 101.67215,107.1926 c 0,-0.35986 -0.95063,-6.63305 -2.014195,-13.291682 -1.556866,-9.747015 -2.122669,-13.56659 -2.422236,-16.351845 -0.275284,-2.559475 -0.286287,-9.422604 -0.01885,-11.75565 0.111453,-0.972272 0.322877,-2.789992 0.469832,-4.039377 0.370814,-3.152609 0.601308,-10.667137 0.806023,-26.277826 0.191941,-14.63653 0.312274,-16.977581 0.953834,-18.556469 1.368622,-3.368198 5.258702,-6.722598 7.796162,-6.722598 1.70013,0 1.60974,0.462318 -0.6886,3.522075 -2.29597,3.056616 -2.88631,4.181517 -3.35527,6.393599 -0.60843,2.869911 -0.68808,5.163725 -0.68084,19.606034 0.007,14.367883 0.15271,21.963899 0.67724,35.355339 0.55912,14.274233 0.0146,30.0729 -1.09523,31.77561 -0.22712,0.34846 -0.42787,0.50929 -0.42787,0.34279 z"
       id="path4778"
       style="fill:#f8991d;fill-opacity:1;stroke:#ffffff;stroke-width:0.424264;stroke-linecap:butt;stroke-linejoin:miter;stroke-miterlimit:4;stroke-dasharray:none;stroke-dashoffset:0;stroke-opacity:1" />
    <path
       d="m 98.175031,108.26612 c -0.103808,-0.12508 -0.665559,-1.35615 -1.248336,-2.73571 -1.171469,-2.77312 -2.904765,-6.053674 -4.976981,-9.419784 -0.748178,-1.215339 -2.00609,-3.258786 -2.795362,-4.540992 -3.411495,-5.542122 -6.057848,-11.378718 -6.839262,-15.084154 -0.819109,-3.884183 -0.486604,-6.4317 1.826982,-13.997582 1.24054,-4.056814 1.657742,-6.183435 1.657752,-8.450125 9e-6,-2.180609 -0.256931,-3.146523 -1.202022,-4.518753 -0.364185,-0.52878 -0.609656,-1.013918 -0.545491,-1.078083 0.373803,-0.373803 3.705965,1.439596 4.172447,2.270691 0.226033,0.402707 0.233069,0.650878 0.04758,1.678394 -0.367154,2.033876 -0.704098,4.948355 -0.946675,8.188489 -0.313507,4.187547 -0.311035,15.131295 0.0039,17.235727 0.272035,1.817804 1.077252,3.932331 4.428138,11.628435 3.159711,7.257025 5.846519,14.562487 6.475538,17.607057 0.27844,1.3477 0.266029,1.60707 -0.05821,1.21639 v 0 z"
       id="path4780"
       style="fill:#f8991d;fill-opacity:1;stroke:#ffffff;stroke-width:0.424264;stroke-linecap:butt;stroke-linejoin:miter;stroke-miterlimit:4;stroke-dasharray:none;stroke-dashoffset:0;stroke-opacity:1" />
    <path
       d="m 99.151476,104.46333 c -0.16083,-0.46183 -0.731611,-2.32331 -1.268402,-4.13663 -1.733314,-5.85523 -2.811095,-8.767745 -5.228421,-14.128899 -2.542261,-5.638236 -3.051239,-7.463212 -3.390123,-12.155525 -0.160682,-2.224858 -0.160143,-4.132828 0.0023,-8.308504 0.311274,-7.999165 0.405382,-8.699422 2.074187,-15.434017 1.476154,-5.957138 1.841762,-8.111024 1.961078,-11.553166 0.114841,-3.313048 -0.105168,-4.69164 -1.066854,-6.684999 -0.336486,-0.697459 -0.582951,-1.296949 -0.547701,-1.332199 0.03525,-0.03525 0.486445,0.177995 1.002656,0.473878 1.786953,1.024248 2.561501,2.198337 3.082766,4.672973 0.608591,2.889204 0.491393,15.853016 -0.197749,21.873842 -0.482573,4.216097 -0.653385,8.25659 -0.646433,15.291184 0.0081,8.182963 0.119317,9.380524 1.354587,14.584077 1.669452,7.032541 3.618575,17.677665 3.236781,17.677665 -0.04197,0 -0.207888,-0.37786 -0.368718,-0.83968 v 0 z"
       id="path4782"
       style="fill:#f8991d;fill-opacity:1;stroke:#ffffff;stroke-width:0.424264;stroke-linecap:butt;stroke-linejoin:miter;stroke-miterlimit:4;stroke-dasharray:none;stroke-dashoffset:0;stroke-opacity:1" />
    <path
       d="m 104.65921,104.6843 c -0.0884,-0.5767 0.0655,-3.41467 0.35952,-6.62913 0.29309,-3.204629 0.22256,-16.871594 -0.1788,-34.648232 -0.5515,-24.426442 -0.38223,-36.089771 0.56697,-39.06765 0.51712,-1.62234 1.49834,-2.389144 3.73068,-2.915464 1.28131,-0.302097 3.59747,-0.352543 3.76467,-0.082 0.2103,0.340264 -0.26859,0.653635 -1.18456,0.775142 -1.16149,0.154078 -1.69773,0.437685 -2.49397,1.319025 -1.35233,1.496869 -1.8901,3.289538 -1.88838,6.294982 0.002,4.061949 0.68491,12.521126 2.02558,25.102291 1.04768,9.831689 1.1705,11.514509 1.16766,15.998291 -0.004,6.720885 -0.5919,11.18088 -2.94638,22.362252 -1.15864,5.502346 -2.12777,9.717513 -2.53999,11.047403 -0.27945,0.90159 -0.30772,0.93428 -0.383,0.44309 z"
       id="path4784"
       style="fill:#f8991d;fill-opacity:1;stroke:#ffffff;stroke-width:0.424264;stroke-linecap:butt;stroke-linejoin:miter;stroke-miterlimit:4;stroke-dasharray:none;stroke-dashoffset:0;stroke-opacity:1" />
    <path
       d="m 105.57059,107.90512 c -0.005,-0.0759 0.75159,-2.66122 1.68163,-5.74524 3.89594,-12.918929 5.59813,-21.639823 5.85603,-30.002496 0.14574,-4.725693 -0.26533,-9.517657 -1.73631,-20.240931 -0.39556,-2.883545 -0.75862,-6.335619 -0.81212,-7.72176 -0.0953,-2.46799 -0.0896,-2.519101 0.3665,-3.297341 0.57792,-0.986142 2.37322,-2.62871 3.40136,-3.111991 0.43386,-0.203939 1.13596,-0.364597 1.59333,-0.364597 h 0.81769 l -1.08158,1.156214 c -2.95805,3.162165 -3.02444,5.414123 -0.53401,18.112445 1.9139,9.758693 1.8403,9.155656 1.82316,14.937631 -0.0296,9.98473 -0.61807,13.341337 -3.48659,19.887378 -2.35843,5.381997 -7.86042,16.813158 -7.88909,16.390688 z"
       id="path4786"
       style="fill:#f8991d;fill-opacity:1;stroke:#ffffff;stroke-width:0.424264;stroke-linecap:butt;stroke-linejoin:miter;stroke-miterlimit:4;stroke-dasharray:none;stroke-dashoffset:0;stroke-opacity:1" />
    <path
       d="m 106.6219,109.08223 c 0,-0.17491 1.78539,-3.36908 4.68147,-8.37541 5.71628,-9.88149 6.97912,-12.836401 7.85713,-18.384776 0.59582,-3.765218 0.74344,-6.720015 0.68602,-13.731694 -0.0606,-7.40493 -0.0949,-7.148956 1.11485,-8.331709 1.21698,-1.189821 4.15079,-1.77453 4.94065,-0.984672 l 0.37132,0.371325 -0.77715,0.19569 c -1.09811,0.276505 -2.31958,1.262754 -2.70799,2.186491 -0.29081,0.691622 -0.331,1.684322 -0.44237,10.925404 -0.11321,9.395224 -0.15021,10.285093 -0.48873,11.75565 -1.31118,5.695829 -5.21705,13.188709 -9.88536,18.963721 -2.24994,2.78333 -5.34984,5.91808 -5.34984,5.40998 z"
       id="path4788"
       style="fill:#f8991d;fill-opacity:1;stroke:#ffffff;stroke-width:0.424264;stroke-linecap:butt;stroke-linejoin:miter;stroke-miterlimit:4;stroke-dasharray:none;stroke-dashoffset:0;stroke-opacity:1" />
    <path
       d="m 107.97904,111.25076 c 0.27446,-0.32614 1.40466,-1.61882 2.51158,-2.87262 4.68735,-5.30937 8.31681,-10.765186 10.3953,-15.626271 1.59403,-3.72803 3.41414,-9.84061 3.84925,-12.927121 0.27604,-1.958151 0.58967,-2.677619 1.38494,-3.177064 0.69479,-0.436345 1.88239,-0.367286 2.57487,0.149728 0.66037,0.493034 0.58035,0.767244 -0.2997,1.027095 -1.01074,0.298436 -1.31124,0.596849 -1.88222,1.869156 -0.37567,0.837115 -0.53097,1.593837 -0.72518,3.533605 -0.35877,3.583354 -1.06139,6.054388 -2.85906,10.054931 -2.34664,5.222247 -5.56014,10.119721 -8.70196,13.262071 -1.91905,1.91936 -6.14985,5.29948 -6.63322,5.29948 -0.0625,0 0.11095,-0.26684 0.3854,-0.59299 z"
       id="path4790"
       style="fill:#f8991d;fill-opacity:1;stroke:#ffffff;stroke-width:0.424264;stroke-linecap:butt;stroke-linejoin:miter;stroke-miterlimit:4;stroke-dasharray:none;stroke-dashoffset:0;stroke-opacity:1" />
    <path
       d="m 95.461161,109.9434 c -1.60505,-1.66799 -3.00677,-3.44967 -4.693889,-5.96621 -1.70333,-2.54073 -2.256438,-3.4524 -4.822925,-7.949477 -1.333422,-2.336465 -3.388992,-5.815563 -4.567933,-7.731331 -2.141755,-3.480333 -3.460256,-5.930125 -4.357159,-8.095658 -0.261748,-0.631977 -1.075538,-2.40055 -1.808423,-3.930162 -1.443197,-3.012109 -1.537532,-3.558664 -0.65256,-3.780778 1.978937,-0.496682 6.359685,5.174625 7.663114,9.920648 1.162942,4.234486 3.004415,7.783498 9.169597,17.672268 1.695411,2.71939 3.514639,5.73553 4.04273,6.70253 1.384087,2.53445 2.15332,4.70497 1.667444,4.70497 -0.08337,0 -0.821365,-0.69606 -1.639996,-1.5468 z"
       id="path4792"
       style="fill:#f8991d;fill-opacity:1;stroke:#ffffff;stroke-width:0.424264;stroke-linecap:butt;stroke-linejoin:miter;stroke-miterlimit:4;stroke-dasharray:none;stroke-dashoffset:0;stroke-opacity:1" />
    <path
       d="m 92.64689,111.89435 c -3.953676,-2.67488 -7.892425,-7.72797 -11.23544,-14.414154 -1.670261,-3.3406 -2.487134,-4.687486 -3.481089,-5.739731 -0.934358,-0.989153 -0.967642,-1.249418 -0.222244,-1.737822 0.622816,-0.408084 1.269613,-0.20718 2.081839,0.646646 0.949993,0.998651 1.567904,2.019507 4.336903,7.165041 3.698918,6.87357 4.518686,8.11072 8.242046,12.43843 2.664721,3.09724 2.695148,3.27693 0.277985,1.64159 z"
       id="path4794"
       style="fill:#f8991d;fill-opacity:1;stroke:#ffffff;stroke-width:0.424264;stroke-linecap:butt;stroke-linejoin:miter;stroke-miterlimit:4;stroke-dasharray:none;stroke-dashoffset:0;stroke-opacity:1" />
  </g>
</svg>
