<?xml version="1.0" encoding="UTF-8"?>
<svg version="1.1" viewBox="0 0 128 128" xmlns="http://www.w3.org/2000/svg">
 <rect x="1.1829" y=".81104" width="125.8" height="125.8" ry="11.999" fill="#fff" stroke="#000" stroke-width="2"/>
 <g transform="matrix(.64578 0 0 .64578 -.10318 -.6718)">
  <path d="m58.741 179.04c-0.14427-1.0634 1.5132-2.5821 9.377-8.5919 12.726-9.7257 11.322-9.0261 14.826-7.3847 1.615 0.75641 2.9363 1.61 2.9363 1.897-5.7792 7.9039-9.8714 15.729-16.722 23.037-3.9596-2.3213-7.6044-4.9027-10.417-8.9574zm57.293-14.048c0-0.30428 1.3194-1.1712 2.9321-1.9266 3.5029-1.6407 2.1078-2.3401 14.942 7.491 6.9856 5.3512 9.3734 7.4979 9.353 8.4082-0.0304 1.3495-9.0726 9.0507-10.627 9.0507-6.2051-7.5422-11.06-13.694-16.6-23.023zm-38.736 14.448c0.14976-0.77764 0.71707-0.90349 3.0788-0.683 5.7775 0.23566 11.547 0.42733 17.213-0.67295l-2.5201-1.602c-2.4989-1.5885-8.6088-7.8162-8.6088-8.7748 0-1.6408 1.6413-0.74482 5.0805 2.7734 2.7487 2.929 5.8689 4.9312 9.4164 6.6206 5.7171-2.2327 9.1286-6.7745 13.583-10.541 0.1835 0 0.33366 0.53307 0.33366 1.1846 0 1.4899-4.6989 6.5977-8.0289 8.7276l-2.5201 1.6119c6.9118 1.8149 14.316-0.24585 20.406 1.5138 0 0.53179-1.0831 0.93096-3.2663 1.2037-4.3342 0.54151-16.3-0.0179-18.434-0.86179-1.3359-0.52814-2.5267-0.48081-5.6233 0.22349-3.671 0.83496-14.447 1.1091-17.121 0.707s-3.117-0.76902-2.9896-1.4304zm16.992-15.201c-10.118-1.5218-19.106-6.4035-26.354-14.313-4.6687-5.095-8.9797-13.619-10.3-20.365-0.66881-3.4168-1.2512-4.981-2.0047-5.3842-1.2035-0.6441-1.4108-2.8462-0.36614-3.8908 0.49556-0.49556 4.0877-0.69585 12.48-0.69585h11.784l0.69272 1.5204c0.62351 1.3685 0.53537 1.6458-0.88225 2.7762-1.2985 1.0354-1.5714 1.7101-1.5547 3.8435 0.0247 3.1588 1.3487 10.651 2.3018 13.025l0.69834 1.7396 0.82543-3.1893c1.5601-6.0281 5.6158-10.543 11.998-13.356 4.4165-1.9466 10.944-1.7401 15.725 0.49753 6.3662 2.9791 10.168 8.0503 11.461 15.287l0.65383 3.6604 1.0894-2.4744c1.6311-3.7046 3.2-10.384 3.4365-14.632 0.20826-3.74 0.19754-3.7706-1.385-3.9527-1.9166-0.22052-2.8001-1.6515-2.1245-3.4407 0.48874-1.2943 0.58689-1.3047 12.328-1.3047 9.7668 0 11.96 0.1507 12.551 0.86228 0.99441 1.1982 0.26119 3.7767-1.0739 3.7767-0.86685 0-1.2366 0.90829-2.0455 5.0253-4.5117 22.962-26.666 38.485-49.933 34.985zm10.352-8.1641c3.1374-0.87116 6.923-4.8201 7.8728-8.2125 2.1179-7.5644-3.718-15.238-11.548-15.184-9.9768 0.0684-15.605 11.091-9.6769 18.952 3.2575 4.3195 8.0539 5.9165 13.352 4.4454zm-31.598-50.095 1.3-1.0527c1.6379-1.3263 1.2865-1.685 9.454 9.6512 5.9442 8.2503 6.1659 8.6631 5.2158 9.7129-0.54571 0.60301-1.1924 1.0964-1.437 1.0964-5.3882-6.5526-9.0062-11.794-14.533-19.408zm38.21 17.31 7.0704-9.6776c6.2034-8.4909 7.2036-9.6062 8.157-9.096 0.59766 0.31985 1.2379 0.82632 1.4228 1.1255 0.27649 0.44738-13.285 19.745-13.876 19.745-1.0461-0.64414-1.735-1.2554-2.7742-2.0969zm-17.254-5.1511c0-2.1957 1.1032-2.6094 6.9585-2.6094 5.8552 0 6.9585 0.41372 6.9585 2.6094 0 2.1957-1.1032 2.6094-6.9585 2.6094-3.537-0.14116-6.6772 0.72991-6.9585-2.6094z"/>
  <path transform="matrix(1.5485 0 0 1.5485 .15978 1.0403)" d="m69.15 5.9121c-1.6387 0-4.1513 2.1647-5.0352 4.3398-0.41431 1.019-0.49128 2.5321-0.61523 11.984-0.1322 10.081-0.28007 14.933-0.51953 16.969-1.1877 7.2886 0.4512 15.618 1.2715 20.76 0.22822 2.1564 1.1264 7.414 1.5781 8.3633 3.6563-18.893-2.8963-38.476 0.70898-56.014 0.30287-1.4285 0.6833-2.155 2.166-4.1289 1.4842-1.9759 1.5432-2.2734 0.44531-2.2734zm-1.1836 9.1309c-0.61298 1.9231-0.72138 9.4566-0.36524 25.23 0.53504 8.8901 0.01544 17.792-0.11719 26.654 0.7589-1.3823 1.5362-5.7596 1.8867-7.4199 4.1283-15.55-0.0549-25.311-0.1582-40.982-0.27575-3.5448 1.7476-4.461 3.5938-5.418-1.7406-0.33385-4.2877 0.2968-4.8398 1.9355zm-8.8594 4.127c0.82673 1.7418 1.0858 3.7504 1.041 5.1777-0.07704 2.2228-0.31232 3.614-1.2656 7.4609-1.5585 7.8954-2.7235 14.995 0.84761 23.182 2.3212 4.6165 2.7266 8.1155 4.4336 12.338 0.24656 0-1.0117-6.8746-2.0898-11.416-1.2144-6.9738-1.2644-12.068-0.45703-19.293 0.44503-3.8882 0.51997-12.259 0.12695-14.125-0.5453-1.8051-1.1974-2.6415-2.6367-3.3242zm12.186 8.7012c0.41034 5.9759 1.795 12.379 1.6465 18.059-0.16655 5.4-1.2654 11.032-3.7812 19.375-0.60058 1.9916-1.0892 3.66-1.0859 3.709 0.01853 0.27252 3.5707-7.1084 5.0938-10.584 3.4263-8.5257 2.1827-16.839 1.0742-22.49-1.6082-8.2-1.5645-9.6532 0.3457-11.695l0.69726-0.74609c-3.0189 0.34089-4.0573 2.6168-3.9902 4.373zm-17.117 2.7422c-0.04144 0.04146 0.11834 0.35384 0.35352 0.69531 1.4769 2.7461 0.41454 6.0372-0.29492 8.375-1.4941 4.8862-1.7087 6.5307-1.1797 9.0391 1.5566 5.0948 3.5929 8.4053 6.2207 12.674 1.6843 2.6349 2.7352 5.1513 4.0215 7.8496 0.20939 0.25231 0.21692 0.08516 0.03711-0.78516-0.4062-1.9664-2.1412-6.6847-4.1816-11.371-2.1639-4.9697-2.6837-6.3339-2.8594-7.5078-0.20338-1.3594-0.20636-8.4267-0.0039-11.131-0.03421-2.1186 0.77792-4.4559 0.58203-6.373-0.17753-1.0487-1.8001-1.2242-2.6953-1.4648zm23.834 7.627c-0.7812 0.76376-0.75788 0.59892-0.71875 5.3809 0.72819 8.3142-2.6536 15.773-5.5176 20.74-1.8702 3.233-3.0234 5.2952-3.0234 5.4082 0 0.32812 2.0021-1.6967 3.4551-3.4941 3.0148-3.7294 5.5361-8.5679 6.3828-12.246 0.76301-5.4115-0.30218-8.1736 0.60156-14.646 0.25082-0.59651 1.0389-1.2336 1.748-1.4121l0.50195-0.12695c-1.137-0.8614-2.4206-0.20917-3.4297 0.39648zm-29.707 7.8828c0.96381 6.9032 6.2258 14.401 10.209 20.35 1.319 1.9112 2.4708 3.3915 4.0918 4.8516 0.31378 0-0.1843-1.4024-1.0781-3.0391-0.34104-0.62447-1.5145-2.572-2.6094-4.3281-3.9814-6.3858-5.1709-8.6776-5.9219-11.412-0.7891-2.8733-3.3245-6.2726-4.6914-6.4219zm32.146 4.7539c-0.28098 1.9931-1.457 5.9402-2.4863 8.3477-1.3421 3.1391-3.6859 6.6631-6.7129 10.092-0.65915 0.6754-1.3603 1.5361-1.8711 2.2383 6.3575-4.3142 11.027-11.611 11.75-18.48 0.04393-1.6214 0.6183-2.7891 1.6836-3.4883 0.56832-0.16781 0.61981-0.34567 0.19336-0.66406-1.823-0.6488-2.3464 0.50946-2.5566 1.9551zm-30.227 7.6934c0.64191 0.67949 1.1694 1.5478 2.248 3.7051 2.1586 4.3177 4.7026 7.5812 7.2559 9.3086 1.5609 1.056 1.5411 0.93956-0.17969-1.0605-2.4044-2.7945-2.9336-3.5924-5.3223-8.0312-0.23199-1.1506-5.8537-7.2431-4.002-3.9219z" fill="#f8991d" stroke="#fff" stroke-width=".27398"/>
 </g>
</svg>
