<?xml version="1.0" encoding="UTF-8"?>
<svg width="128" height="128" version="1.1" xmlns="http://www.w3.org/2000/svg" xmlns:cc="http://creativecommons.org/ns#" xmlns:dc="http://purl.org/dc/elements/1.1/" xmlns:rdf="http://www.w3.org/1999/02/22-rdf-syntax-ns#">
 <metadata>
  <rdf:RDF>
   <cc:Work rdf:about="">
    <dc:format>image/svg+xml</dc:format>
    <dc:type rdf:resource="http://purl.org/dc/dcmitype/StillImage"/>
    <dc:title/>
   </cc:Work>
  </rdf:RDF>
 </metadata>
 <rect x="1.2253" y="1.1083" width="125.7" height="125.7" ry="11.989" fill="#fff" stroke="#000" stroke-width="1.9358"/>
 <path d="m59.877 112.11c-11.347-2.4979-19.986-12.208-20.944-23.538l-0.23304-2.7568h53.906l-0.25697 2.5169c-0.38882 3.8083-0.89262 5.5558-2.6606 9.2286-2.7676 5.7494-6.4204 9.4154-12.287 12.331-1.8457 0.9174-4.5304 1.9131-5.966 2.2126-3.1917 0.66598-8.548 0.66865-11.559 5e-3zm-32.24-29.931c0.0075-0.15381 1.6508-3.0482 3.6517-6.4321l3.638-6.1524 23.894-0.19662 0.40954 0.89884c0.75559 1.6583 4.0976 3.5893 6.2025 3.5837 1.9908-0.0051 3.8298-0.88359 5.5387-2.6453l1.7723-1.8271h23.751l2.9916 5.127c1.6454 2.8199 3.3649 5.7562 3.821 6.5253l0.82945 1.3983h-38.256c-21.041 0-38.25-0.12585-38.243-0.27965zm8.3023-24.983c0.40962-12.066 2.5675-20.467 6.8846-26.805 1.7709-2.5997 5.1206-5.8346 7.8001-7.5327 2.1071-1.3354 7.1896-3.4159 8.3446-3.4159 0.61782 0 0.722-0.26902 0.722-1.8644v-1.8644h11.518l0.2273 3.4299 2.6101 0.83233c10.992 3.5053 17.644 12.081 20.121 25.941 0.60864 3.4058 1.3169 11.769 1.3184 15.567l6.45e-4 2.3305h-22.672l-0.73936-1.2531c-1.486-2.5186-5.1069-4.2988-7.662-3.7669-2.0061 0.4176-4.2954 1.9801-5.1859 3.5395l-0.84212 1.4748-22.671 0.0064 0.22469-6.6185 2.59e-4 -1.94e-4z" stroke-width=".64527"/>
</svg>
