<?xml version="1.0" encoding="UTF-8"?>
<svg width="100%" height="100%" version="1.1" viewBox="0 0 96 96" xmlns="http://www.w3.org/2000/svg">
 <path d="m72.399 72.712c-16.58 16.58-43.521 22.798-62.171 12.434-10.364-18.652-4.1455-45.593 12.434-62.171 16.577-16.58 43.518-22.798 62.171-12.434 10.364 18.65 4.1455 45.591-12.434 62.171" fill="#9f613c"/>
 <path d="m74.044 63.614c-14.016 14.016-36.791 19.273-52.558 10.512-8.7613-15.768-3.5045-38.544 10.512-52.558 14.014-14.016 36.789-19.273 52.558-10.512 8.7613 15.766 3.5045 38.542-10.512 52.558" fill="#a56e4e"/>
 <path d="m75.697 50.707c-10.313 10.313-27.07 14.18-38.67 7.7341-6.4463-11.602-2.5785-28.359 7.7341-38.67 10.311-10.313 27.068-14.18 38.67-7.7341 6.4463 11.6 2.5785 28.358-7.7341 38.67" fill="#b27c5d"/>
 <path d="m11.53 83.622 71.947-71.659" fill="none" stroke="#7a4029" stroke-linecap="round" stroke-width="4"/>
 <path d="m31.085 64.014 30.74-30.435" fill="none" stroke="#dfc2af" stroke-linecap="round" stroke-width="4"/>
 <path d="m30.474 56.357 8.2101 8.5889" fill="none" stroke="#dfc2af" stroke-linecap="round" stroke-linejoin="round" stroke-width="4"/>
 <path d="m37.765 48.651 8.2101 8.5889" fill="none" stroke="#dfc2af" stroke-linecap="round" stroke-linejoin="round" stroke-width="4"/>
 <path d="m45.622 40.794 8.2101 8.5889" fill="none" stroke="#dfc2af" stroke-linecap="round" stroke-linejoin="round" stroke-width="4"/>
 <path d="m53.569 33.294 8.2101 8.5889" fill="none" stroke="#dfc2af" stroke-linecap="round" stroke-linejoin="round" stroke-width="4"/>
 <path d="m58.479 5.748c-4.4115 0.26956-13.458 2.8204-16.58 4.3379 21.531 2.9185 39.219 20.571 43.561 43.213 1.3132-3.0414 3.8052-11.37 4.1699-16.783-7.4207-13.377-17.838-23.619-31.15-30.768zm-48.867 36.617c-1.3132 3.0414-3.8052 11.37-4.1699 16.783 7.4207 13.377 17.838 23.619 31.15 30.768 4.4115-0.26956 13.458-2.8204 16.58-4.3379-21.531-2.9185-39.219-20.571-43.561-43.213z" fill="#dfc2af" fill-rule="evenodd"/>
</svg>
