<?xml version="1.0" encoding="UTF-8"?>
<svg width="100%" height="100%" version="1.1" viewBox="0 0 96 96" xmlns="http://www.w3.org/2000/svg">
 <path d="m86.052 45.842c4.9987 17.98-8.198 33.329-22.617 45.011-0.6103-18.188-10.32-25.457-18.773-34.234" fill="none" stroke="#c0c0c0" stroke-linecap="round" stroke-linejoin="round" stroke-width="3"/>
 <path d="m37.791 58.583c11.052 11.786 12.961 22.484 10.307 32.639 19.037-12.136 29.305-25.656 29.694-40.737 7.4767 8.0758 13.547 16.481 5.8896 28.099" fill="none" stroke="#c0c0c0" stroke-linecap="round" stroke-linejoin="round" stroke-width="3"/>
 <path d="m39.386 85.332c8.2479-7.6006 16.796-15.136 19.632-28.467 18.191 12.137 18.293 26.174 17.669 34.602" fill="none" stroke="#c0c0c0" stroke-linecap="round" stroke-linejoin="round" stroke-width="3"/>
 <path d="m46.268 62.409c-18.473 0-16.146-9.0184-13.673-12.364 6.8365-9.1638 32.728-18.473 46.401-18.473 15.709 0 13.237 8.7274 9.891 13.091-7.4183 10.037-28.946 17.746-42.619 17.746m32.728-26.328c-11.2 0-31.855 7.5638-38.691 14.109-1.3091 1.3091-3.7819 4.8 6.1092 4.8 12.218 0 30.837-7.5638 36.51-14.255 1.8909-2.4728 2.9091-4.6546-3.9273-4.6546" fill="#ed4c5c"/>
 <ellipse cx="33.904" cy="34.481" rx="30.101" ry="30.102" fill="#dd6d22" style="paint-order:normal"/>
 <ellipse cx="31.84" cy="32.735" rx="27.077" ry="27.077" fill="#ed8a48" style="paint-order:normal"/>
 <ellipse cx="27.023" cy="27.414" rx="18.094" ry="18.094" fill="#f39d63" style="paint-order:normal"/>
 <g transform="matrix(1.4546 0 0 1.4546 1.9039 2.4801)" fill="none" stroke="#814318" stroke-linecap="round" stroke-width="1.375">
  <path d="m34 38s-3.4-0.8-5-1.6-3-1.8-4.4-2.9c-2.7-2.2-5.2-4.7-7.4-7.3-2.2-2.7-4.2-5.5-5.9-8.6-0.8-1.4-1.6-3-2.3-4.6-0.6-1.6-1.2265-3.2262-1.3265-4.9262"/>
  <path d="m2 21.5c1.2 2.5 2.7 4.8 4.5 6.7 1.9 1.9 4.1 3.4 6.6 4.5 2.4 1.1 5.1 1.9 7.6 3 1.3 0.6 2.6 1.2 3.7 2.2 1.1 0.9 1.9 2.3 2.1 3.6"/>
  <path d="m16.46 2.8254c1.7 0.4 3.3404 1.2746 4.7404 2.3746s2.6 2.6 3.5 4.1c1.8 3.1 2.7 6.7 3.5 10.1l1 5.2c0.3 1.7 0.7 3.4 1.3 5s1.3 3.1 2.7 4c1.3 0.8 3.2 0.7 4.9 0.3"/>
  <path d="m10.5 38.6c4.4 0.1 8.8-0.1 12.8-1.4 4.1-1.3 7.7-3.7 10-7.2 2.4-3.5 3.4-7.8 3.5-12 0-2.1-0.2-4.3-0.6-6.4-0.4-2.2-1.0186-4.4037-2.6186-5.9037"/>
 </g>
</svg>
