<?xml version="1.0" encoding="UTF-8" standalone="no"?>
<svg
   xmlns:dc="http://purl.org/dc/elements/1.1/"
   xmlns:cc="http://creativecommons.org/ns#"
   xmlns:rdf="http://www.w3.org/1999/02/22-rdf-syntax-ns#"
   xmlns:svg="http://www.w3.org/2000/svg"
   xmlns="http://www.w3.org/2000/svg"
   xmlns:sodipodi="http://sodipodi.sourceforge.net/DTD/sodipodi-0.dtd"
   xmlns:inkscape="http://www.inkscape.org/namespaces/inkscape"
   sodipodi:docname="basketball.svg"
   inkscape:version="1.0 (4035a4fb49, 2020-05-01)"
   id="svg916"
   version="1.1"
   viewBox="0 0 96 96"
   height="96"
   width="96">
  <defs
     id="defs910">
    <clipPath
       clipPathUnits="userSpaceOnUse"
       id="clipPath44">
      <path
         d="M 0,38 H 38 V 0 H 0 Z"
         id="path46-65"
         inkscape:connector-curvature="0" />
    </clipPath>
  </defs>
  <sodipodi:namedview
     inkscape:window-maximized="0"
     inkscape:window-y="331"
     inkscape:window-x="365"
     inkscape:window-height="880"
     inkscape:window-width="1127"
     units="px"
     showgrid="true"
     inkscape:document-rotation="0"
     inkscape:current-layer="layer1"
     inkscape:document-units="px"
     inkscape:cy="59.680863"
     inkscape:cx="53.831479"
     inkscape:zoom="3.959798"
     inkscape:pageshadow="2"
     inkscape:pageopacity="0.0"
     borderopacity="1.0"
     bordercolor="#666666"
     pagecolor="#ffffff"
     id="base">
    <inkscape:grid
       spacingy="4"
       spacingx="4"
       empspacing="6"
       id="grid1479"
       type="xygrid" />
  </sodipodi:namedview>
  <metadata
     id="metadata913">
    <rdf:RDF>
      <cc:Work
         rdf:about="">
        <dc:format>image/svg+xml</dc:format>
        <dc:type
           rdf:resource="http://purl.org/dc/dcmitype/StillImage" />
        <dc:title></dc:title>
      </cc:Work>
    </rdf:RDF>
  </metadata>
  <g
     id="layer1"
     inkscape:groupmode="layer"
     inkscape:label="Layer 1">
    <g
       transform="matrix(6.8175239,0,0,6.8175704,-173.57976,-1331.6847)"
       style="stroke-width:0.554382"
       id="g6056">
      <path
         style="fill:none;fill-rule:evenodd;stroke:#c0c0c0;stroke-width:0.440041;stroke-linecap:round;stroke-linejoin:round;stroke-miterlimit:4;stroke-dasharray:none;stroke-opacity:1"
         d="m 38.083063,202.05542 c 0.73322,2.63737 -1.202487,4.88867 -3.317481,6.60223 -0.08952,-2.66785 -1.513776,-3.73401 -2.753673,-5.0214"
         id="path6047"
         inkscape:connector-curvature="0"
         sodipodi:nodetypes="ccc" />
      <path
         style="fill:none;fill-rule:evenodd;stroke:#c0c0c0;stroke-width:0.440041;stroke-linecap:round;stroke-linejoin:round;stroke-miterlimit:4;stroke-dasharray:none;stroke-opacity:1"
         d="m 31.004028,203.92421 c 1.621116,1.72881 1.901203,3.29797 1.511821,4.78744 2.792398,-1.7801 4.29854,-3.76329 4.355484,-5.9753 1.09669,1.18456 1.987139,2.4174 0.863898,4.12152"
         id="path6049"
         inkscape:connector-curvature="0"
         sodipodi:nodetypes="cccc" />
      <path
         style="fill:none;fill-rule:evenodd;stroke:#c0c0c0;stroke-width:0.440041;stroke-linecap:round;stroke-linejoin:round;stroke-miterlimit:4;stroke-dasharray:none;stroke-opacity:1"
         d="m 31.238001,207.84775 c 1.209812,-1.11486 2.463594,-2.22021 2.879659,-4.17551 2.668233,1.78029 2.683281,3.83922 2.591692,5.0754"
         id="path6051"
         inkscape:connector-curvature="0"
         sodipodi:nodetypes="ccc" />
    </g>
    <path
       inkscape:connector-curvature="0"
       style="fill:#ed4c5c;stroke-width:0.999998"
       d="m 46.26811,62.408638 c -18.472967,0 -16.145669,-9.018351 -13.672905,-12.363869 6.836456,-9.163837 32.7277,-18.473093 46.400599,-18.473093 15.7093,0 13.236536,8.727444 9.891041,13.091167 C 81.468568,54.699465 59.941009,62.408638 46.26811,62.408638 M 78.995804,36.080885 c -11.200142,0 -31.854955,7.563754 -38.691405,14.109371 -1.309107,1.30911 -3.781871,4.800047 6.10917,4.800047 12.218339,0 30.836758,-7.563754 36.509558,-14.25479 1.890936,-2.472801 2.909133,-4.654628 -3.927323,-4.654628"
       id="path10" />
    <g
       id="g2187">
      <ellipse
         id="circle12"
         cy="34.480633"
         cx="33.904335"
         style="fill:#dd6d22;fill-opacity:1;stroke:none;stroke-width:2.5;stroke-miterlimit:4;stroke-dasharray:none;stroke-opacity:1;paint-order:normal"
         rx="30.101439"
         ry="30.101645" />
      <ellipse
         id="circle12-9"
         cy="32.735256"
         cx="31.83955"
         style="fill:#ed8a48;fill-opacity:1;stroke:none;stroke-width:2.5;stroke-miterlimit:4;stroke-dasharray:none;stroke-opacity:1;paint-order:normal"
         rx="27.07692"
         ry="27.077103" />
      <ellipse
         id="circle12-9-8"
         cy="27.413918"
         cx="27.023443"
         style="fill:#f39d63;fill-opacity:1;stroke:none;stroke-width:2.5;stroke-miterlimit:4;stroke-dasharray:none;stroke-opacity:1;paint-order:normal"
         rx="18.093927"
         ry="18.094051" />
      <g
         id="g22"
         style="fill:#231f20;stroke:#814318;stroke-width:1.37498;stroke-miterlimit:4;stroke-dasharray:none;stroke-opacity:1"
         transform="matrix(1.4545643,0,0,1.4545743,1.9038983,2.4801485)">
        <path
           style="fill:none;stroke:#814318;stroke-width:1.37498;stroke-linecap:round;stroke-miterlimit:4;stroke-dasharray:none;stroke-opacity:1"
           id="path14"
           d="M 34,38 C 34,38 30.6,37.2 29,36.4 27.4,35.6 26,34.6 24.6,33.5 21.9,31.3 19.4,28.8 17.2,26.2 15,23.5 13,20.7 11.3,17.6 10.5,16.2 9.7,14.6 9,13 8.4,11.4 7.7734663,9.7738113 7.6734663,8.0738113"
           inkscape:connector-curvature="0"
           sodipodi:nodetypes="csccccc" />
        <path
           style="fill:none;stroke:#814318;stroke-width:1.37498;stroke-linecap:round;stroke-miterlimit:4;stroke-dasharray:none;stroke-opacity:1"
           id="path16"
           d="m 2,21.5 c 1.2,2.5 2.7,4.8 4.5,6.7 1.9,1.9 4.1,3.4 6.6,4.5 2.4,1.1 5.1,1.9 7.6,3 1.3,0.6 2.6,1.2 3.7,2.2 1.1,0.9 1.9,2.3 2.1,3.6"
           inkscape:connector-curvature="0"
           sodipodi:nodetypes="cccccc" />
        <path
           style="fill:none;stroke:#814318;stroke-width:1.37498;stroke-linecap:round;stroke-miterlimit:4;stroke-dasharray:none;stroke-opacity:1"
           id="path18-69"
           d="M 16.459649,2.8254393 C 18.159649,3.2254393 19.8,4.1 21.2,5.2 c 1.4,1.1 2.6,2.6 3.5,4.1 1.8,3.1 2.7,6.7 3.5,10.1 l 1,5.2 c 0.3,1.7 0.7,3.4 1.3,5 0.6,1.6 1.3,3.1 2.7,4 1.3,0.8 3.2,0.7 4.9,0.3"
           inkscape:connector-curvature="0"
           sodipodi:nodetypes="cscccscc" />
        <path
           style="fill:none;stroke:#814318;stroke-width:1.37498;stroke-linecap:round;stroke-miterlimit:4;stroke-dasharray:none;stroke-opacity:1"
           id="path20"
           d="m 10.5,38.6 c 4.4,0.1 8.8,-0.1 12.8,-1.4 4.1,-1.3 7.7,-3.7 10,-7.2 2.4,-3.5 3.4,-7.8 3.5,-12 0,-2.1 -0.2,-4.3 -0.6,-6.4 C 35.8,9.4 35.18136,7.196272 33.58136,5.696272"
           inkscape:connector-curvature="0"
           sodipodi:nodetypes="cccccc" />
      </g>
    </g>
  </g>
</svg>
