<?xml version="1.0" encoding="UTF-8"?>
<svg width="100%" height="100%" version="1.1" viewBox="0 0 96 96" xmlns="http://www.w3.org/2000/svg">
 <g>
  <g transform="matrix(4.1105 -4.1105 4.1105 4.1105 -1218.6 -1032.4)" stroke-width=".54595">
   <path d="m24.271 282.91c-1.7921 1.0347-3.9399 0.66977-4.9746-1.1224-1.0347-1.7921-0.27683-3.8346 1.5153-4.8693s3.9399-0.66977 4.9746 1.1224c1.0347 1.7921 0.27683 3.8346-1.5153 4.8693z" fill="#ca3a3a" style="paint-order:normal"/>
   <path d="m24.204 281.31c-1.4175 0.81839-3.0498 0.64478-3.7694-0.60144-0.71951-1.2462-0.05368-2.7467 1.3638-3.5651 1.4175-0.81837 3.0498-0.64476 3.7694 0.60149 0.71951 1.2462 0.05368 2.7467-1.3638 3.5651z" fill="#cf4444" style="paint-order:normal"/>
   <path d="m25.836 279.94 0.36328 0.36718c0.04091-0.21264 0.06666-0.43436 0.05405-0.67911l-0.05014-0.0514zm-0.75391 0.67382 0.33398 0.39454 0.39258-0.33399-0.33203-0.39453zm-0.78125 0.58789-0.0039 2e-3 -0.0098 8e-3 -0.0039 2e-3 0.2793 0.4336 0.01758-0.0117 0.0118-8e-3 0.40039-0.29493-0.30469-0.41601zm-0.69922 0.44922-2e-3 2e-3 -0.01367 8e-3 -0.16211 0.0879 0.24609 0.45312 0.17969-0.0957 0.0078-6e-3 0.0078-4e-3 0.26367-0.16993-0.2793-0.43359zm-1.084 0.58985 0.24609 0.45312 0.45312-0.24609-0.24609-0.45313zm-0.9082 0.44922 0.21289 0.4707 0.4707-0.21484-0.21484-0.46875zm-0.93945 0.42773c0.21734 0.11684 0.44598 0.19982 0.68359 0.25586l-0.21484-0.46875z" color="#000000" color-rendering="auto" dominant-baseline="auto" fill="#dfc2af" fill-rule="evenodd" image-rendering="auto" shape-rendering="auto" solid-color="#000000" style="font-feature-settings:normal;font-variant-alternates:normal;font-variant-caps:normal;font-variant-ligatures:normal;font-variant-numeric:normal;font-variant-position:normal;isolation:auto;mix-blend-mode:normal;shape-padding:0;text-decoration-color:#000000;text-decoration-line:none;text-decoration-style:solid;text-indent:0;text-orientation:mixed;text-transform:none;white-space:normal"/>
   <path d="m23.916 276.72 0.34375 0.38477 0.33907-0.2873c-0.16679-0.099-0.33359-0.17141-0.50038-0.24232zm-0.76953 0.68555 0.34375 0.38672 0.38477-0.34375-0.34375-0.38477zm-0.80078 0.60547 0.29883 0.41992 0.41992-0.30078-0.29883-0.41992zm-0.81834 0.5821 0.25195 0.44922c0.15651-0.0912 0.29827-0.20725 0.44531-0.3128l-0.29883-0.41992c-0.13162 0.0961-0.26418 0.19164-0.39844 0.2835zm-0.9004 0.50384 0.25391 0.45117 0.44922-0.25391-0.25195-0.44922zm-0.89067 0.46298 0.20312 0.47461c0.17525-0.0589 0.33147-0.14394 0.49023-0.23461l-0.25195-0.44922c-0.13878 0.0877-0.29094 0.14519-0.4414 0.20922zm-0.90736 0.39095 8.29e-4 0.11567 0.16048 0.37415 0.47461-0.20313-0.20312-0.47461z" color="#000000" color-rendering="auto" dominant-baseline="auto" fill="#dfc2af" fill-rule="evenodd" image-rendering="auto" shape-rendering="auto" solid-color="#000000" style="font-feature-settings:normal;font-variant-alternates:normal;font-variant-caps:normal;font-variant-ligatures:normal;font-variant-numeric:normal;font-variant-position:normal;isolation:auto;mix-blend-mode:normal;shape-padding:0;text-decoration-color:#000000;text-decoration-line:none;text-decoration-style:solid;text-indent:0;text-orientation:mixed;text-transform:none;white-space:normal"/>
  </g>
  <g transform="matrix(6.9228 0 0 6.9228 -89.891 -1870)" shape-rendering="auto" stroke-width=".54595">
   <circle cx="16.434" cy="279.64" r="1.6" color="#000000" color-rendering="auto" fill="#cfc5a2" image-rendering="auto" solid-color="#000000" style="isolation:auto;mix-blend-mode:normal"/>
   <circle cx="16.158" cy="279.48" r="1.0163" color="#000000" color-rendering="auto" fill="#dbd3b9" image-rendering="auto" solid-color="#000000" style="isolation:auto;mix-blend-mode:normal"/>
  </g>
  <g transform="matrix(6.4194 1.7201 -1.7201 6.4194 494.68 -1736.9)" stroke-width=".5687">
   <path d="m11.926 279.22c2e-6 2.1013-1.6776 3.5468-3.7789 3.5468-2.1013 0-3.8305-1.4455-3.8305-3.5468 3.6e-6 -2.1013 1.6776-3.5468 3.7789-3.5468 2.1013 0 3.8305 1.4455 3.8305 3.5468z" fill="#414687" style="paint-order:normal"/>
   <path d="m10.267 278.43c2e-6 1.5178-1.2118 2.5618-2.7295 2.5618-1.5178 0-2.7668-1.0441-2.7668-2.5618 2.9e-6 -1.5178 1.2118-2.5618 2.7295-2.5618 1.5178 0 2.7668 1.0441 2.7668 2.5618z" fill="#484f9b" style="paint-order:normal"/>
   <path d="m10.147 276.83 0.41012 0.18734c0.11672-0.18995 0.10872-0.25462 0.10982-0.47126l-0.17331-0.12862-0.24037 0.0208c0.02055 0.13295-0.05344 0.27469-0.10626 0.39175zm-5.7124 1.4558c0.086946 0.1891 0.27271 0.30164 0.45929 0.37845 0.048747-0.13718 0.10433-0.29402 0.1511-0.42495-0.096162-0.0326-0.22769-0.15135-0.29139-0.21883l-0.26502 0.0977zm5.1658-0.93729 0.22077 0.39378c0.14652-0.0744 0.26328-0.19311 0.38966-0.2967l-0.28538-0.34816c-0.10258 0.092-0.21273 0.17323-0.32505 0.25108zm-4.2344 1.448c0.16753 0.0468 0.3171 0.0411 0.48769 0.0387l-0.0057-0.45141c-0.13961 0.0165-0.27207-9e-3 -0.40893-0.0317zm3.4463-1.0084 0.22077 0.39378 0.39378-0.22077-0.22077-0.39378zm-2.5072 1.0418c0.1674 0.0101 0.32518 5e-4 0.48698-0.0317l-0.082309-0.44301c-0.13432 0.0308-0.27341 0.021-0.41037 0.0232zm1.6914-0.75853 0.14834 0.42531 0.42721-0.14884-0.15073-0.4267zm-0.75951 0.64431 0.4425-0.0842-0.082308-0.44301-0.4449 0.0828z" color="#000000" color-rendering="auto" dominant-baseline="auto" fill="#a2aad4" image-rendering="auto" shape-rendering="auto" solid-color="#000000" style="font-feature-settings:normal;font-variant-alternates:normal;font-variant-caps:normal;font-variant-ligatures:normal;font-variant-numeric:normal;font-variant-position:normal;isolation:auto;mix-blend-mode:normal;paint-order:normal;shape-padding:0;text-decoration-color:#000000;text-decoration-line:none;text-decoration-style:solid;text-indent:0;text-orientation:mixed;text-transform:none;white-space:normal"/>
   <path d="m11.576 280.77c0.07273-0.11878 0.18755-0.40814 0.1921-0.49105l-0.17824 0.0194c-0.04104 0.12488-0.13488 0.22872-0.22359 0.33075 0.06709 0.0485 0.13987 0.0946 0.20973 0.14093zm-0.78524 0.37171 0.2207 0.39258c0.14765-0.0723 0.26904-0.25169 0.33583-0.36486l-0.2323-0.27996c-0.10386 0.0909-0.2089 0.17798-0.32423 0.25224zm-0.78711 0.43941 0.21875 0.39453 0.39453-0.2207-0.2207-0.39453zm-0.81641 0.28321 0.14844 0.42578 0.42578-0.14844-0.14844-0.42578zm-3.4576 0.15012c0.10435 0.0887 0.21833 0.15262 0.41061 0.25642 0.053114-0.14923 0.050532-0.11195 0.095822-0.23885-0.097937-0.0297-0.24622-0.0607-0.31762-0.11016zm2.6138 0.0511 0.083984 0.44336 0.44336-0.084-0.083984-0.44336zm-1.7656 0.41292c0.17672 0.0651 0.23977 0.0943 0.46678 0.15157l-0.00781-0.45117c-0.13852 0.0144-0.2705-0.0105-0.40625-0.0331zm0.9121-0.30736 0.00586 0.45117c0.16777 0.0133 0.32571-1.6e-4 0.48828-0.0295l-0.083984-0.44531c-0.13393 0.033-0.27322 0.0219-0.41016 0.0236z" color="#000000" color-rendering="auto" dominant-baseline="auto" fill="#a2aad4" image-rendering="auto" shape-rendering="auto" solid-color="#000000" style="font-feature-settings:normal;font-variant-alternates:normal;font-variant-caps:normal;font-variant-ligatures:normal;font-variant-numeric:normal;font-variant-position:normal;isolation:auto;mix-blend-mode:normal;paint-order:normal;shape-padding:0;text-decoration-color:#000000;text-decoration-line:none;text-decoration-style:solid;text-indent:0;text-orientation:mixed;text-transform:none;white-space:normal"/>
  </g>
 </g>
</svg>
