<?xml version="1.0" encoding="UTF-8"?>
<svg width="100%" height="100%" version="1.1" viewBox="0 0 96 96" xmlns="http://www.w3.org/2000/svg">
 <path d="m72.951 72.078c-16.58 16.58-43.521 22.798-62.171 12.434-10.364-18.652-4.1455-45.593 12.434-62.171 16.577-16.58 43.518-22.798 62.171-12.434 10.364 18.65 4.1455 45.591-12.434 62.171" fill="#a55036"/>
 <path d="m74.596 62.98c-14.016 14.016-36.791 19.273-52.558 10.512-8.7613-15.768-3.5045-38.544 10.512-52.558 14.014-14.016 36.789-19.273 52.558-10.512 8.7613 15.766 3.5045 38.542-10.512 52.558" fill="#ae5d45"/>
 <path d="m76.249 50.073c-10.313 10.313-27.07 14.18-38.67 7.734-6.4463-11.602-2.5785-28.359 7.7341-38.67 10.311-10.313 27.068-14.18 38.67-7.734 6.4463 11.6 2.5785 28.358-7.7341 38.67" fill="#bb6c54"/>
 <path d="m12.082 82.988 71.947-71.658" fill="none" stroke="#7a3c29" stroke-linecap="round" stroke-width="4"/>
 <path d="m31.637 63.38 30.74-30.435" fill="none" stroke="#dfc2af" stroke-linecap="round" stroke-width="4"/>
 <path d="m31.026 55.723 8.2101 8.5889" fill="none" stroke="#dfc2af" stroke-linecap="round" stroke-linejoin="round" stroke-width="4"/>
 <path d="m38.317 48.017 8.2101 8.5889" fill="none" stroke="#dfc2af" stroke-linecap="round" stroke-linejoin="round" stroke-width="4"/>
 <path d="m46.175 40.16 8.2101 8.5889" fill="none" stroke="#dfc2af" stroke-linecap="round" stroke-linejoin="round" stroke-width="4"/>
 <path d="m54.121 32.66 8.2101 8.5889" fill="none" stroke="#dfc2af" stroke-linecap="round" stroke-linejoin="round" stroke-width="4"/>
 <path d="m42.45 9.4513c21.531 2.9186 39.22 20.571 43.562 43.213 1.3132-3.0413 3.8042-11.371 4.1689-16.783-7.4207-13.377-17.837-23.619-31.15-30.768-4.4115 0.26948-13.459 2.8207-16.581 4.3382z" fill="#dfc2af" fill-rule="evenodd"/>
 <path d="m53.724 84.944c-21.531-2.9185-39.22-20.571-43.562-43.213-1.3132 3.0414-3.8042 11.371-4.1689 16.784 7.4207 13.377 17.837 23.619 31.15 30.768 4.4115-0.26948 13.459-2.8207 16.581-4.3382z" fill="#dfc2af" fill-rule="evenodd"/>
 <path d="m74.665 83.481c2.49 0.28891 4.7224 0.54872 7.2103 0.83348l-0.63394-2.0827c-0.10185-0.36374 0.04573-0.76489 0.33048-0.98729l7.2311-5.8905-1.4965-0.70461c-0.65888-0.23487-0.47598-0.60692-0.23903-1.5007l1.1037-4.024-4.2006 0.88752c-0.41154 0.060277-0.68383-0.19954-0.74618-0.44896l-0.54041-1.8935-3.3214 3.7288c-0.47182 0.59653-1.4279 0.59653-1.1307-0.78152l1.4196-7.5553-1.9039 0.98729c-2.2363 0.51916-3.5184-4.0051-3.997-4.9801-0.6686 0.96582-1.867 3.3693-2.6293 4.7951-0.2993 0.53418-0.8314 0.48429-1.3656 0.18499l-1.9039-0.98729 1.4175 7.5553c0.2993 1.378-0.65888 1.378-1.1307 0.78152l-3.3214-3.7288-0.54041 1.8935c-0.06235 0.24942-0.33672 0.50923-0.74618 0.44896l-4.1986-0.88752 1.1037 4.024c0.23487 0.89376 0.41778 1.2658-0.24111 1.5007l-1.4965 0.70461 7.2311 5.8905c0.28683 0.2224 0.43025 0.62355 0.3284 0.98729l-0.63394 2.0827c2.4921-0.28476 4.7244-0.54457 7.2145-0.83348 0.22032 0 0.36374 0.12263 0.36374 0.37621l-0.4448 7.6988h1.9891l-0.4448-7.6988c0-0.25358 0.14342-0.37621 0.36374-0.37621" fill="#d52b1e" stroke="#dfc2af" stroke-width="4" style="paint-order:stroke fill markers"/>
</svg>
