<?xml version="1.0" encoding="UTF-8"?>
<svg width="100%" height="100%" version="1.1" viewBox="0 0 96 96" xmlns="http://www.w3.org/2000/svg">
 <path d="m56.631 22.933-52.087 52.087c-1.4429 1.2986 0.86572 5.7715 4.9057 9.9558 4.04 4.04 8.5129 6.3486 9.9558 4.9057l52.087-52.087-14.862-14.862" fill="#dbb471" stroke-width=".7643"/>
 <path d="m70.338 29.137 20.344-20.489c-0.28857-1.1543-0.86572-2.3086-1.7314-3.1743-0.86572-0.86572-2.02-1.4429-3.1743-1.7314l-20.489 20.344c-2.02 2.02-5.3386 2.02-7.5029 0l12.409 12.409c-2.02-2.02-2.02-5.3386 0.14429-7.3586" fill="#e8e8e8" stroke-width=".7643"/>
 <path d="m19.982 75.597c-1.01 1.01-2.02 3.3186-2.02 4.7615 0.14429 2.1643 1.8757 9.0901 1.8757 9.0901l51.655-51.655-6.9258-6.9258s-33.474 33.474-44.585 44.729" fill="#fff" opacity=".5" stroke-width=".7643"/>
 <g transform="matrix(1.4429 0 0 1.4429 1.2247 .85689)" fill="#3e4347" stroke-width=".52971">
  <path d="m12.2 51c-0.7 0.7-2.3 1.4-3.3 1.4-1.4-0.1-6.3-1.4-6.3-1.4l35.8-35.8 4.8 4.8c0 0.1-23.2 23.3-31 31" opacity=".15"/>
  <path d="m47.9 24.7c-0.8-0.8-1.1-1.9-1-3-0.9-0.4-1.9-0.9-2.9-1.7-0.7-1.1-1.3-2-1.7-2.9-1.1 0.1-2.2-0.2-3-1 0 0 0.8 2.4 3 5.6 3.2 2.2 5.6 3 5.6 3"/>
  <path d="m60.3 7.2 1.7-1.8c-0.2-0.8-0.6-1.6-1.2-2.2s-1.4-1-2.2-1.2l-1.7 1.7c0.7 0.2 1.5 0.6 2.1 1.3 0.7 0.6 1.1 1.4 1.3 2.2"/>
 </g>
 <g transform="matrix(1.4429 0 0 1.4429 1.2247 .85689)" fill="#b2c1c0" stroke-width=".52971">
  <path d="m49.4 18-4.2-2.7-0.8 0.8c-0.3 0.3-0.7 0.6-1.2 0.8l4.4 2.9 1.8-1.8"/>
  <path d="m60 7.5-4.2-2.7-1.8 1.7 4.2 2.7z"/>
  <path d="m56.5 11-4.2-2.7-1.8 1.7 4.2 2.7z"/>
  <path d="m52.9 14.5-4.1-2.7-1.8 1.8 4.2 2.7z"/>
 </g>
 <circle cx="76.687" cy="76.463" r="13.852" fill="#c83a48" stroke-width=".7643"/>
 <circle cx="75.432" cy="74.995" r="10.553" fill="#ed4c5c" stroke-width=".7643"/>
 <g transform="matrix(1.7434 3.3534 -3.3534 1.7434 934.22 -456.78)" fill="#e8e8e8" shape-rendering="auto" stroke-width=".52971">
  <path d="m20.647 263.02c0.26649 0.27862 0.45145 0.5646 0.57168 0.92827l0.50195-0.16797c-0.08905-0.3594-0.30818-0.67556-0.52635-0.92239l-0.22562-0.0562zm0.67714 1.4087c0.07999 0.33528 0.11874 0.67122 0.13867 1.0137l0.5293-0.0293c0.0055-0.3686-0.08037-0.71914-0.14657-1.0801zm0.16797 1.541c0.03541 0.34327 0.0028 0.68605-0.01563 1.0293l0.5293 0.0273c0.04938-0.3658 0.03373-0.72136 0.01368-1.0859zm-0.21094 2.5684 0.52148 0.0937c0.07535-0.35693 0.13531-0.71503 0.17396-1.0762l-0.52734-0.0293c-0.0295 0.33993-0.10788 0.67583-0.1681 1.0118zm-0.53565 1.2175 0.40869 0.15749c0.24152-0.16665 0.40044-0.49248 0.49807-0.73827l-0.50391-0.16211c-0.05227 0.18057-0.3014 0.59803-0.40286 0.74289z" color="#000000" color-rendering="auto" dominant-baseline="auto" image-rendering="auto" solid-color="#000000" style="font-feature-settings:normal;font-variant-alternates:normal;font-variant-caps:normal;font-variant-ligatures:normal;font-variant-numeric:normal;font-variant-position:normal;isolation:auto;mix-blend-mode:normal;paint-order:normal;shape-padding:0;text-decoration-color:#000000;text-decoration-line:none;text-decoration-style:solid;text-indent:0;text-orientation:mixed;text-transform:none;white-space:normal"/>
  <path d="m19.615 263.02c0.27858 0.25688 0.37585 0.57473 0.4965 0.92827l0.50195-0.16797c-0.09937-0.36641-0.31551-0.71765-0.50564-0.99524zm0.60197 1.4087c0.07999 0.33528 0.11874 0.67122 0.13867 1.0137l0.52734-0.0293c0.0086-0.36939-0.0792-0.71858-0.14658-1.0801zm0.16602 1.541c0.03798 0.34321 0.0048 0.68598-0.01368 1.0293l0.5293 0.0273c0.04938-0.3658 0.03373-0.72136 0.01368-1.0859zm-0.20898 2.5684 0.52148 0.0937c0.07535-0.35693 0.13531-0.71503 0.17396-1.0762l-0.52734-0.0293c-0.0295 0.33993-0.10788 0.67583-0.1681 1.0118zm-0.59055 1.3049 0.34877 0.15289c0.3426-0.19597 0.48386-0.51735 0.6129-0.8211l-0.50391-0.16211c-0.11036 0.25352-0.32965 0.58456-0.45776 0.83032z" color="#000000" color-rendering="auto" dominant-baseline="auto" image-rendering="auto" solid-color="#000000" style="font-feature-settings:normal;font-variant-alternates:normal;font-variant-caps:normal;font-variant-ligatures:normal;font-variant-numeric:normal;font-variant-position:normal;isolation:auto;mix-blend-mode:normal;paint-order:normal;shape-padding:0;text-decoration-color:#000000;text-decoration-line:none;text-decoration-style:solid;text-indent:0;text-orientation:mixed;text-transform:none;white-space:normal"/>
 </g>
</svg>
