<?xml version="1.0" encoding="UTF-8"?>
<svg width="100%" height="100%" version="1.1" viewBox="0 0 96 96" xmlns="http://www.w3.org/2000/svg">
 <g>
  <path d="m69.553 38.507s11.303 4.3576 16.304 1.4493c5.0015-2.9059 6.0505-6.8656 3.1398-11.865-2.9131-4.9966-10.82-7.0922-11.228-13.548 0 0-0.63664 10.415 4.7676 13.955 7.6493 5.0159-1.0731 10.579-10.145 9.441-9.0793-1.1382-2.8383 0.5667-2.8383 0.5667" fill="#292f33"/>
  <path d="m10.741 60.327c-1.7749 5.5103-0.84162 14.496 1.9147 15.381 2.7515 0.88502 6.9379-3.8801 4.5746-7.2176-4.5746-6.4556-1.8762-10.963 3.6269-9.1903 5.5079 1.7725 20.946-2.7636 24.583-4.6349 3.6366-1.8617-10.996-1.9051-17.389-0.92361-6.3929 0.98148-9.9258 0.09164-12.786 1.9654-2.4212 1.5868-4.524 4.6204-4.524 4.6204" fill="#d99e82"/>
  <path d="m47.164 78.248c3.3279-2.3777 1.43-9.1613 7.1381-8.2184 5.7056 0.95254 9.0914 3.6341 9.5086-4.2804 0.05305-0.91878 1.254 0.03135 3.176-1.4807 19.818-15.583 2.5321-15.164 2.5321-15.164-6.6606 4.7603-13.741 12.332-11.414 15.696 1.2226 1.7628-6.1783 1.9051-9.0311 1.4276-2.8528-0.47507-6.6606 4.7603-7.1356 7.6131-0.47266 2.848 1.9003 6.7812 5.2257 4.4058" fill="#d99e82"/>
  <path d="m78.603 45.95c0.014469-2.7226-4.237-11.098-12.767-11.098-8.6814 0-14.464 2.8914-20.249 2.8914-5.7852 0-9.4989 3.4943-12.393-8.0737-2.2162-8.8743-8.2015-12.542-16.881-9.646 0 0-8.3318-5.4211-5.4379-2.5273 1.1913 1.1913 1.7025 2.397 1.8376 3.5184-5.0714 3.0313-2.7274 8.2377-5.4331 10.946-2.045 2.0425-2.8914 2.8914-2.8914 5.7828 0 2.3898 3.9283 2.7732 6.9331 1.2178 1.7435-4.1092 0.85126-2.549 3.5522-4.1164 2.4814-0.041 4.6783-0.36414 4.6783-2.8842 0 0 2.8938 0 2.8938 5.7828 0 2.7588-2.6117 5.5272 2.1535 13.295 0 0 2.8697 4.6084 2.016 6.2241-3.024 5.7177-3.8231 8.123-6.1719 9.8087-2.356 1.6832-0.06101 7.4571-0.06101 7.4571 3.3641 4.7073 12.633 9.0172 14.987 7.3388 2.3536-1.6856 0.93826-5.825-3.0962-6.5002-4.0345-0.66316-12.502-4.2637-7.7975-7.6253 4.7073-3.3689 8.0529-0.27599 8.7185-4.3104 0.19051-1.131 4.823-2.4115 4.823-2.4115s4.823 2.4115 10.459-0.13263c4.9267-2.2234 10.806-5.04 16.21-0.99836l0.16639-0.09405c-1.7194 3.7017-2.3343 6.9765-0.66316 8.3848 1.6471 1.3818-5.4621 3.4581-8.3438 3.7451-2.8769 0.29662-5.1775 6.3374-4.8881 9.2144 0.29179 2.8769 4.2153 6.5111 6.8004 3.3448 2.59-3.1687-5.081-7.6252 4.1333-10.259 5.5633-1.5916 9.728 1.1238 8.0568-6.622-0.19533-0.9019 0.16398-1.8954 1.6712-3.8246 7.9194-10.167 6.9644-15.103 6.9837-17.828" fill="#c1694f"/>
  <path d="m58.056 35.623c-4.7241 0.85367-8.6115 2.1197-12.467 2.1197-2.5658 0-4.5529-0.041-6.2337-1.0514 0.13987 4.2877 1.3456 8.8647 5.9709 15.149 1.0201 0.22427 2.0667 0.36655 3.1518 0.36655 5.7876 0 8.679-2.8914 14.462-5.7828-3.1808-4.7121-3.8946-6.6051-4.8833-10.801" fill="#cbb7ea"/>
  <path d="m14.555 20.817c5.7852-5.7852 10.678-4.5746 15.248 0 5.7876 5.7828 3.217 11.869 10.001 16.446 3.0385 2.0498-6.6075 2.0498-8.679-8.679-1.2275-6.3495-8.1581-9.4001-16.569-7.7675" fill="#292f33"/>
  <path d="m9.0807 35.697c-0.30867 0-0.61735-0.11816-0.85367-0.35208-0.47024-0.47266-0.47024-1.2347 0-1.7073l9.646-9.646c0.47266-0.47024 1.2347-0.47024 1.7073 0 0.47024 0.47266 0.47024 1.2347 0 1.7073l-9.646 9.646c-0.23633 0.23392-0.545 0.35208-0.85367 0.35208" fill="#ffac33"/>
  <path d="m21.138 33.286c-0.47748 0-0.93084-0.28697-1.1189-0.75721l-4.823-12.058c-0.24838-0.61976 0.05305-1.3215 0.6704-1.5675 0.61252-0.24838 1.3191 0.05305 1.5675 0.6704l4.823 12.058c0.24838 0.61976-0.05305 1.3215-0.6704 1.5675-0.1471 0.06029-0.29903 0.08681-0.44854 0.08681" fill="#ffac33"/>
  <path d="m32.753 18.223c-1.6832 1.6254 2.1173 3.446 2.725 5.7659 0.42201 1.5988 3.3086 0.05547 3.3086 0.05547s3.1229-0.77892 6.4677 0.80062c3.1832 1.5048 6.4146 0.92361 4.823-2.4115-1.6012-3.3327-8.2232-1.6977-8.3101-5.0039-0.22186-7.9122-9.0142 0.79339-9.0142 0.79339" fill="#d99e82"/>
  <path d="m33.312 19.134c-0.84885 2.4887-2.356-1.0948-1.7556-2.8552 0.84403-2.4839 4.2877-4.6084 6.8921-4.2394 2.5972 0.36414 4.3576 3.2242 3.5112 5.708-0.59805 1.758 0.03135 3.9139-1.7242 1.0611-1.7556-2.8552-1.7266 1.0611-2.602-0.36655-0.8802-1.4276-4.3214 0.6921-4.3214 0.6921" fill="#b39155"/>
  <path d="m52.489 54.991c-1.5168 0-1.8376 0.77409-2.3416-0.74033-0.6294-1.8954 0.44613-2.2451 2.3416-2.8769l2.4115-2.4115c-1.6205-2.8215-5.5585-7.7626-6.0288-9.646-1.2058-4.823-1.2058-7.2345 8.6115-11.566-0.07958-0.09646-0.18328-0.21221-0.31832-0.34726-4.1767-4.1767-7.0874 2.2668-11.91-0.14469-1.7845-0.89226 1.0177 1.266-2.4115-2.4115-1.3625-1.4614 0.51365-4.1936 2.4115-4.823 9.5279-3.1808 14.141-3.0337 19.439 2.2644 2.6117 2.6117 2.2644 5.7804 2.2644 7.3816 0 7.2345-12.058 4.823-10.854 9.646 0.16639 0.87296 2.1438 4.524 4.2177 7.6397 0.62699 0.93808 2.1776 3.352 1.8135 4.4179-0.36414 1.0659-2.6093 0.66075-3.6775 1.0201l-4.823 2.4115c-0.38343 0.12781-0.76927 0.18569-1.1455 0.18569" fill="#d1d3d4"/>
  <path d="m47.075 27.257c3.9332 2.1704 7.5721-1.8713 10.799 0.1471l6.8197-5.1172c-0.13263-4.6759-12.205-9.4989-20.84-3.2845-1.5241 1.0972-2.6044 2.7371-2.0739 4.5746 1.0635 3.68 3.68 2.7877 5.2957 3.68" fill="#5c913b"/>
  <path d="m57.312 41.726-5.3005 3.0843c1.1021 1.5 2.2282 2.9975 2.889 4.1502l-2.4115 2.4115c-1.8954 0.63182-2.971 0.9839-2.3416 2.8793 0.504 1.5144 0.82474 0.73792 2.3416 0.73792 0.3762 0 0.76204-0.05788 1.1455-0.18569l4.823-2.4115c1.0683-0.3569 3.3134 0.04823 3.6775-1.0201 0.36414-1.0659-1.1865-3.4798-1.8135-4.4179-0.97425-1.4638-2.2572-3.8705-3.0096-5.2281" fill="#231f20"/>
  <path d="m40.43 36.903c-4.823 0-4.823-1.0804-4.823-2.4115s3.4919-2.4115 4.823-2.4115c4.7844 0 5.4886-0.68728 5.5537-0.76445 0.21704-0.47748-0.35449-0.89467-3.1422-6.4701-0.59564-1.1913 0.14228-3.9718 1.3336-4.5698 1.1937-0.59805 2.6382-0.10852 3.2362 1.0804 2.7226 5.4452 4.5071 9.5303 2.6695 12.501-1.5627 2.5273-4.987 3.0457-9.6509 3.0457" fill="#a6d388"/>
  <path d="m40.432 32.08c-4.823-2.4115-4.823 1.0804-4.823 2.4115s0 2.4115 4.823 2.4115z" fill="#d99e82"/>
  <path d="m31.888 13.341c2.9059-1.7869 5.8093-3.5739 9.9426-0.10852 2.6141 2.1896 1.2275 5.2499-1.1189 4.6904-2.344-0.55947-4.6904-1.1165-7.5962 0.66799-2.9035 1.7869-4.1333-3.4629-1.2275-5.2499" fill="#9266cc"/>
  <path d="m9.0807 36.904c-0.64146 0-1.1744-0.504-1.2033-1.1503-0.03135-0.66558 0.48471-1.2299 1.1503-1.2612l26.524-1.2058c0.67763-0.05064 1.2299 0.48471 1.2612 1.1503 0.02894 0.66316-0.48471 1.2275-1.1503 1.2588l-26.527 1.2082z" fill="#ffcc4d"/>
 </g>
</svg>
