<?xml version="1.0" encoding="UTF-8" standalone="no"?>
<svg
   xmlns:dc="http://purl.org/dc/elements/1.1/"
   xmlns:cc="http://creativecommons.org/ns#"
   xmlns:rdf="http://www.w3.org/1999/02/22-rdf-syntax-ns#"
   xmlns:svg="http://www.w3.org/2000/svg"
   xmlns="http://www.w3.org/2000/svg"
   xmlns:sodipodi="http://sodipodi.sourceforge.net/DTD/sodipodi-0.dtd"
   xmlns:inkscape="http://www.inkscape.org/namespaces/inkscape"
   sodipodi:docname="field_hockey.svg"
   inkscape:version="1.0 (4035a4fb49, 2020-05-01)"
   id="svg916"
   version="1.1"
   viewBox="0 0 96 96"
   height="96"
   width="96">
  <defs
     id="defs910">
    <clipPath
       clipPathUnits="userSpaceOnUse"
       id="clipPath44">
      <path
         d="M 0,38 H 38 V 0 H 0 Z"
         id="path46-65"
         inkscape:connector-curvature="0" />
    </clipPath>
    <clipPath
       clipPathUnits="userSpaceOnUse"
       id="clipPath16-2">
      <path
         d="M 0,38 H 38 V 0 H 0 Z"
         id="path18-53"
         inkscape:connector-curvature="0" />
    </clipPath>
    <clipPath
       clipPathUnits="userSpaceOnUse"
       id="clipPath28-4">
      <path
         d="M 1.193,5 C 1.193,3 3,1 5,1 v 0 h 28 c 2,0 3.731,2 3.731,4 v 0 c 0,4.355 -4.634,11 -17.731,11 v 0 C 5.508,16 1.193,9.541 1.193,5"
         id="path30-9"
         inkscape:connector-curvature="0" />
    </clipPath>
    <clipPath
       id="clipPath16-4"
       clipPathUnits="userSpaceOnUse">
      <path
         inkscape:connector-curvature="0"
         id="path18-8"
         d="M 0,36 H 36 V 0 H 0 Z" />
    </clipPath>
    <clipPath
       clipPathUnits="userSpaceOnUse"
       id="clipPath16-90">
      <path
         d="M 0,38 H 38 V 0 H 0 Z"
         id="path18-2"
         inkscape:connector-curvature="0" />
    </clipPath>
    <clipPath
       clipPathUnits="userSpaceOnUse"
       id="clipPath16-1">
      <path
         d="M 0,38 H 38 V 0 H 0 Z"
         id="path18-5"
         inkscape:connector-curvature="0" />
    </clipPath>
    <clipPath
       clipPathUnits="userSpaceOnUse"
       id="clipPath44-3">
      <path
         d="M 0,38 H 38 V 0 H 0 Z"
         id="path46-65-8"
         inkscape:connector-curvature="0" />
    </clipPath>
  </defs>
  <sodipodi:namedview
     inkscape:window-maximized="0"
     inkscape:window-y="331"
     inkscape:window-x="365"
     inkscape:window-height="880"
     inkscape:window-width="1127"
     units="px"
     showgrid="true"
     inkscape:document-rotation="0"
     inkscape:current-layer="layer1"
     inkscape:document-units="px"
     inkscape:cy="59.380908"
     inkscape:cx="48.615181"
     inkscape:zoom="3.959798"
     inkscape:pageshadow="2"
     inkscape:pageopacity="0.0"
     borderopacity="1.0"
     bordercolor="#666666"
     pagecolor="#ffffff"
     id="base">
    <inkscape:grid
       spacingy="4"
       spacingx="4"
       empspacing="6"
       id="grid1479"
       type="xygrid" />
  </sodipodi:namedview>
  <metadata
     id="metadata913">
    <rdf:RDF>
      <cc:Work
         rdf:about="">
        <dc:format>image/svg+xml</dc:format>
        <dc:type
           rdf:resource="http://purl.org/dc/dcmitype/StillImage" />
        <dc:title></dc:title>
      </cc:Work>
    </rdf:RDF>
  </metadata>
  <g
     id="layer1"
     inkscape:groupmode="layer"
     inkscape:label="Layer 1">
    <g
       id="g4358">
      <path
         style="fill:#3e4347;stroke-width:0.999999"
         inkscape:connector-curvature="0"
         id="path3"
         d="M 78.06931,4.0920452 26.577915,62.812903 c -2.213097,2.655722 -6.344212,2.95079 -9.147469,0.590173 -2.803256,-2.360655 -3.245876,-6.34424 -0.885238,-9.147477 2.213097,-2.655723 1.770477,-6.78686 -0.88524,-9.147478 -2.803256,-2.360655 -6.7868311,-2.065549 -9.1474681,0.590173 -6.78683164,8.114684 -5.4589733,20.360467 2.8032563,27.294842 8.1146898,6.934375 20.0654148,6.196686 26.9997868,-1.475377 L 90.610194,4.0920452 H 78.06931" />
      <path
         style="fill:#c7e755;stroke-width:0.999999"
         inkscape:connector-curvature="0"
         id="path5"
         d="m 55.64326,47.468739 c 0,0 0.737699,-9.14744 1.770478,-11.950715 C 60.807153,25.927926 81.167646,4.0920452 81.167646,4.0920452 H 76.888994 L 45.020391,41.419642 C 44.725323,58.976871 33.954906,73.730862 33.954906,73.730862 37.348322,72.107895 55.64326,47.468739 55.64326,47.468739" />
      <path
         style="fill:#83bf4f;stroke-width:0.999999"
         inkscape:connector-curvature="0"
         id="path9"
         d="m 45.020391,41.419642 c 0,0 -2.803257,3.393412 -5.016351,6.049097 3.688493,9.73765 -5.901595,26.262123 -5.901595,26.262123 0,0 15.639222,-20.65561 10.917946,-32.31122" />
    </g>
    <g
       style="stroke-width:0.677783"
       transform="matrix(1.4753982,0,0,1.4753982,-60.968569,47.103183)"
       id="g7824">
      <circle
         style="opacity:1;vector-effect:none;fill:#df650c;fill-opacity:1;stroke:none;stroke-width:1.01667;stroke-linecap:round;stroke-linejoin:round;stroke-miterlimit:4;stroke-dasharray:none;stroke-dashoffset:0;stroke-opacity:1;paint-order:normal"
         id="path7805"
         cx="90.876045"
         cy="17.699045"
         r="12.409542" />
      <circle
         style="opacity:1;vector-effect:none;fill:#ec7a26;fill-opacity:1;stroke:none;stroke-width:1.01667;stroke-linecap:round;stroke-linejoin:round;stroke-miterlimit:4;stroke-dasharray:none;stroke-dashoffset:0;stroke-opacity:1;paint-order:normal"
         id="path7805-8"
         cx="89.934631"
         cy="16.244122"
         r="8.8150539" />
    </g>
  </g>
</svg>
