<?xml version="1.0" encoding="UTF-8" standalone="no"?>
<svg
   xmlns:dc="http://purl.org/dc/elements/1.1/"
   xmlns:cc="http://creativecommons.org/ns#"
   xmlns:rdf="http://www.w3.org/1999/02/22-rdf-syntax-ns#"
   xmlns:svg="http://www.w3.org/2000/svg"
   xmlns="http://www.w3.org/2000/svg"
   xmlns:sodipodi="http://sodipodi.sourceforge.net/DTD/sodipodi-0.dtd"
   xmlns:inkscape="http://www.inkscape.org/namespaces/inkscape"
   sodipodi:docname="gymnastics.svg"
   inkscape:version="1.0 (4035a4fb49, 2020-05-01)"
   id="svg916"
   version="1.1"
   viewBox="0 0 96 96"
   height="96"
   width="96">
  <defs
     id="defs910">
    <clipPath
       clipPathUnits="userSpaceOnUse"
       id="clipPath44">
      <path
         d="M 0,38 H 38 V 0 H 0 Z"
         id="path46-65"
         inkscape:connector-curvature="0" />
    </clipPath>
    <clipPath
       clipPathUnits="userSpaceOnUse"
       id="clipPath16-2">
      <path
         d="M 0,38 H 38 V 0 H 0 Z"
         id="path18-53"
         inkscape:connector-curvature="0" />
    </clipPath>
    <clipPath
       clipPathUnits="userSpaceOnUse"
       id="clipPath28-4">
      <path
         d="M 1.193,5 C 1.193,3 3,1 5,1 v 0 h 28 c 2,0 3.731,2 3.731,4 v 0 c 0,4.355 -4.634,11 -17.731,11 v 0 C 5.508,16 1.193,9.541 1.193,5"
         id="path30-9"
         inkscape:connector-curvature="0" />
    </clipPath>
    <clipPath
       id="clipPath16-4"
       clipPathUnits="userSpaceOnUse">
      <path
         inkscape:connector-curvature="0"
         id="path18-8"
         d="M 0,36 H 36 V 0 H 0 Z" />
    </clipPath>
    <clipPath
       clipPathUnits="userSpaceOnUse"
       id="clipPath16-90">
      <path
         d="M 0,38 H 38 V 0 H 0 Z"
         id="path18-2"
         inkscape:connector-curvature="0" />
    </clipPath>
  </defs>
  <sodipodi:namedview
     inkscape:window-maximized="0"
     inkscape:window-y="331"
     inkscape:window-x="365"
     inkscape:window-height="880"
     inkscape:window-width="1127"
     units="px"
     showgrid="true"
     inkscape:document-rotation="0"
     inkscape:current-layer="layer1"
     inkscape:document-units="px"
     inkscape:cy="63.682083"
     inkscape:cx="39.832711"
     inkscape:zoom="3.959798"
     inkscape:pageshadow="2"
     inkscape:pageopacity="0.0"
     borderopacity="1.0"
     bordercolor="#666666"
     pagecolor="#ffffff"
     id="base">
    <inkscape:grid
       spacingy="4"
       spacingx="4"
       empspacing="6"
       id="grid1479"
       type="xygrid" />
  </sodipodi:namedview>
  <metadata
     id="metadata913">
    <rdf:RDF>
      <cc:Work
         rdf:about="">
        <dc:format>image/svg+xml</dc:format>
        <dc:type
           rdf:resource="http://purl.org/dc/dcmitype/StillImage" />
        <dc:title></dc:title>
      </cc:Work>
    </rdf:RDF>
  </metadata>
  <g
     id="layer1"
     inkscape:groupmode="layer"
     inkscape:label="Layer 1">
    <g
       transform="matrix(1.4849461,0,0,1.4849461,-0.15755469,0.05823641)"
       style="fill:#fed0ac;stroke-width:0.52067"
       id="g5641">
      <path
         style="stroke-width:0.52067"
         inkscape:connector-curvature="0"
         d="m 44.6,33.7 6.7,3.8 6.7,6.8 -3.7,2.4 -5.5,-5.9 -5.3,-2.8 z"
         id="path5633" />
      <path
         style="stroke-width:0.52067"
         inkscape:connector-curvature="0"
         d="m 55.409565,45.256761 -1.715882,1.535263 c -0.632168,0.541857 -0.722477,1.444953 -0.18062,2.077121 l 0.722477,0.903096 c 0.361238,0.451547 0.903096,0.632167 1.444954,0.451547 0.993405,1.083716 2.618978,2.25774 4.696098,0.451548 0.361239,-0.270928 2.25774,-1.986811 0.361239,-4.24455 -2.709288,-3.431765 -2.709288,-3.431765 -5.328266,-1.174025"
         id="path5635" />
      <path
         style="stroke-width:0.52067"
         inkscape:connector-curvature="0"
         d="m 22.6,58.8 c -2,1.5 -4.6,1.3 -4.6,2.2 0,0.9 1.6,0.9 3.9,0.9 2.1,0 4.5,-1.9 5.6,-0.9 1.1,0.9 2.4,0.9 3.9,0.9 1.4,0 1.3,-2.1 0,-2.1 -1.3,0 -3,-2.8 -3.3,-4 -0.7,-2.8 -1.5,-8.5 -1.5,-8.5 0,0 -0.6,1.5 2.6,-4.3 0,0 2.4,-5 0.8,-6.7 -1.8,-1.8 -3.7,-0.2 -5.8,5.3 -2.1,5.4 -2,5.5 -2,5.5 0,0 0,0 1.4,7.9 0.2,1.4 1,2.4 -1,3.8"
         id="path5637" />
      <path
         style="stroke-width:0.52067"
         inkscape:connector-curvature="0"
         d="m 28.6,38.9 c 0,-2 2.4,-3.6 5.3,-3.6 3,0 5.3,1.6 5.3,3.6 0,2 -2.4,3.6 -5.3,3.6 -2.9,0 -5.3,-1.6 -5.3,-3.6"
         id="path5639" />
    </g>
    <g
       transform="matrix(1.4849461,0,0,1.4849461,-0.15755469,0.05823641)"
       style="fill:#3e4347;stroke-width:0.52067"
       id="g5647">
      <path
         style="stroke-width:0.52067"
         inkscape:connector-curvature="0"
         d="m 29.2,43 c 0,0 0.5,-0.8 2.8,-0.8 0,-0.2 -0.1,-0.4 -0.1,-0.6 0,-2.3 1.8,-4.1 4,-4.1 1.4,0 2.6,0.8 3.4,1.9 0,0 0,0 2.1,-0.7 l 2.9,0.1 c 0,0 2.1,-2.7 3.2,-5.4 0,0 -6.2,0.5 -9.9,-6.2 l -5,-2.4 -4.3,3.4 c 0,0 -2.3,3.8 -2.3,9.7 0,-0.1 3.2,0.7 3.2,5.1"
         id="path5643" />
      <path
         sodipodi:nodetypes="cccscc"
         style="stroke-width:0.52067"
         inkscape:connector-curvature="0"
         d="M 49.6,6.5 45.8,5.4 C 45.4,4 45.6,3.6 45.6,3.6 45.6,2.7 46.300021,1.9938517 47.2,2 l 8.801272,0.060127 C 55.601272,4.2601272 51.8,6.2 49.6,6.5"
         id="path5645" />
    </g>
    <path
       style="fill:#fed0ac;stroke-width:0.773167"
       inkscape:connector-curvature="0"
       d="m 67.704482,8.0769453 5.642795,1.6334408 c 0,0 -2.821397,7.5732249 -4.306343,13.2160199 -0.445484,1.781936 -1.781936,2.375914 -2.375914,3.118387 -3.563871,4.603333 -10.543118,9.503655 -10.543118,9.503655 l -6.088279,-6.830752 c 0,0 5.048817,-4.900322 10.394623,-7.72172 0.445484,-0.296989 2.524409,-1.93043 2.821398,-3.56387 0.445484,-3.563871 3.86086,-6.385268 4.454838,-9.3551607"
       id="path5649" />
    <path
       sodipodi:nodetypes="cccccc"
       style="fill:#3e4347;stroke-width:0.773167"
       inkscape:connector-curvature="0"
       d="m 13.652444,22.926406 3.86086,-4.454838 C 16.770831,16.392644 16.325347,16.095654 16.325347,16.095654 15.582874,15.056192 14.097928,14.610708 13.058466,15.353181 L 2.3067,22.869087 c 2.2274191,2.524409 8.375852,1.69076 11.345744,0.05732"
       id="path5651" />
    <path
       style="fill:#fed0ac;stroke-width:0.773167"
       inkscape:connector-curvature="0"
       d="m 17.513304,18.471568 -3.86086,4.454838 c 0,0 6.088279,4.157849 9.65215,8.761182 1.187957,1.484946 2.672903,1.484946 3.415376,1.93043 5.048816,2.821398 13.364515,4.454839 13.364515,4.454839 l 2.969892,-8.761182 c 0,0 -7.870215,-2.821398 -13.809999,-3.266882 -0.593978,0 -1.484946,0 -2.672903,-1.336451 -2.227419,-2.524409 -6.830752,-4.157849 -9.058171,-6.236774"
       id="path5653" />
    <path
       style="fill:#428bc1;stroke-width:0.773167"
       inkscape:connector-curvature="0"
       d="m 33.402227,37.330384 c 0,0 0.890968,-6.385269 5.939785,-10.394623 0,0 6.385268,2.821397 7.870214,2.672903 1.484946,-0.148495 6.682257,-5.048817 6.682257,-5.048817 0,0 5.048817,2.821398 8.612688,8.612687 l -6.830752,7.276236 c 0,0 -3.86086,-1.93043 -13.809999,1.484946 0,0 -3.86086,-1.336451 -8.464193,-4.603332"
       id="path5655" />
    <path
       style="fill:#3e4347;stroke-width:0.773167"
       inkscape:connector-curvature="0"
       d="m 34.1447,63.168446 c 0,0 5.494301,1.187957 7.276236,5.345806 0,0 1.187957,-4.009355 3.86086,-8.018709 l -6.385268,-5.642795 c 0,0 -2.375914,3.118386 -4.751828,8.315698"
       id="path5657" />
    <g
       style="stroke-width:0.574429"
       transform="matrix(1.3459729,0,0,1.3459729,4.8728189,5.6862313)"
       id="g5257">
      <path
         id="path5659"
         d="m 32.97758,49.907851 c -0.188292,8.811995 8.773132,7.815287 11.340153,5.594919 6.250876,-5.249908 1.836773,-7.619589 -1.738587,-12.502977"
         inkscape:connector-curvature="0"
         style="fill:#b59764;fill-opacity:1;stroke-width:0.574429"
         sodipodi:nodetypes="ccc" />
      <path
         id="path5661"
         d="m 34.490793,49.728785 c 0,0 0.337074,0.607193 0.88044,1.333489 2.585917,3.423939 2.916932,1.13563 5.677854,-0.591246 2.696239,-1.686419 4.864221,-0.605623 2.052204,-5.150045 -0.543365,-0.726295 -1.02134,-1.208545 -1.02134,-1.208545 1.392848,0.453582 1.840011,0.09874 0.723438,-1.26017 0,0 -0.858874,-1.177763 -1.736274,-0.933 -2.41167,-2.492599 -4.931445,-3.375316 -6.606284,-2.141844 -1.674838,1.233473 -2.802461,4.581107 -1.538566,7.808935 -0.806534,0.958352 -0.06885,2.715475 -0.06885,2.715475 0.981879,0.895949 1.470298,0.128563 1.637379,-0.573049 z"
         inkscape:connector-curvature="0"
         style="fill:#fed0ac;stroke-width:0.574429"
         sodipodi:nodetypes="ccsccccscccc" />
    </g>
    <g
       transform="matrix(1.2079803,-0.32367734,0.32367734,1.2079803,-6.3931723,22.835599)"
       style="fill:#664e27;stroke-width:0.61824"
       id="g5669" />
  </g>
</svg>
