<?xml version="1.0" encoding="UTF-8"?>
<svg width="100%" height="100%" version="1.1" viewBox="0 0 96 96" xmlns="http://www.w3.org/2000/svg">
 <ellipse cx="47.739" cy="48.756" rx="36.386" ry="36.177" fill="#fff" style="paint-order:stroke fill markers"/>
 <path d="m45.737 71.352 11.366-12.178" fill="none" stroke="#b8b8b8" stroke-width="2"/>
 <path d="m33.356 39.081 17.456 3.3489" fill="none" stroke="#b8b8b8" stroke-width="2"/>
 <path d="m48.884 19.393c4.9342 3.2109 8.1475 6.8042 10.656 10.554" fill="none" stroke="#b8b8b8" stroke-width="2"/>
 <path d="m23.613 52.071c1.3851 5.8672 3.7642 10.939 6.4951 15.73" fill="none" stroke="#b8b8b8" stroke-width="2"/>
 <path d="m53.856 79.674c5.0689-0.93922 10.116-2.121 14.918-5.9875" fill="none" stroke="#b8b8b8" stroke-width="2"/>
 <path d="m73.545 33.499 1.9282-6.3934" fill="none" stroke="#b8b8b8" stroke-width="2"/>
 <path d="m15.292 49.026c-1.3703 4.1064-1.7114 8.2863-0.40594 12.584 1.7119 4.3535 4.7428 8.0476 9.1337 11.062" fill="none" stroke="#b8b8b8" stroke-width="2"/>
 <path d="m47.26 84.038c9.529-0.24425 18.137-2.8843 24.966-10.148" fill="none" stroke="#b8b8b8" stroke-width="2"/>
 <path d="m51.421 14.319c4.0287-0.32934 7.9128 0.49871 11.671 2.3341 4.4504 2.3614 8.6389 5.596 12.331 10.706 5.4918 6.7632 8.2695 14.008 6.9518 22.072" fill="none" stroke="#b8b8b8" stroke-width="2"/>
 <path d="m27.686 19.223c-5.4437 4.8231-10.84 9.6806-12.881 16.935-3.8934 8.2071-3.3699 16.766-0.0359 25.546 2.3118 8.2257 8.1291 13.53 15.289 17.716" fill="none" stroke="#b8b8b8" stroke-width="2"/>
 <path d="m59.452 30.07c4.1568 0.30623 7.5054 0.18073 14.065 3.4444 2.9475 4.669 4.5135 9.6833 5.1668 14.926l3.7316 1.1482c0.09279 4.6685-0.47962 9.204-2.2964 13.491-1.8439 4.5356-4.72 7.8915-7.8938 10.907l-3.4743-0.20651c1.1799-4.0823 2.1194-8.3657 1.9673-12.638-4.856-0.38264-9.5591-1.1064-13.85-1.8657l-6.028-17.007z" fill="#ed4c5c" fill-rule="evenodd" stroke="#cc2c3d" stroke-width="2"/>
 <path d="m51.846 14.57c-1.1487 1.5538-2.2697 3.163-3.2293 5.0949-5.4431 0.70209-10.607 2.5992-15.285 5.5972-0.31974 4.76-0.23036 9.52 0.21526 14.28-3.8551 3.7953-6.923 8.2204-9.8313 12.773l-8.6114-3.0139c-0.57539-4.4012-1.2299-9.0895 3e-6 -13.491 2.6678-4.0777 5.3003-8.1906 8.8984-11.338l3.7316-5.1666c5.6546-3.5892 11.714-5.1536 17.94-5.8842 2.2211 0.18595 4.8324-0.09635 6.1715 1.1481z" fill="#ed4c5c" fill-rule="evenodd" stroke="#cc2c3d" stroke-width="2"/>
 <path d="m30.005 79.322c-2.5749-2.1815-4.5166-4.4535-6.1469-6.77l6.1715-4.8796c4.6743 1.7926 9.5173 3.002 15.812 3.5792 1.4416 2.7081 4.5589 5.6328 8.0301 8.4763-1.596 1.8545-3.8334 3.3882-7.0515 4.4316-6.0307-0.05216-11.596-1.81-16.815-4.8376z" fill="#ed4c5c" fill-rule="evenodd" stroke="#cc2c3d" stroke-width="2"/>
 <path d="m70.671 61.346c3.3253-3.8508 6.4129-7.8601 8.0373-12.845" fill="#ed4c5c" fill-rule="evenodd" stroke="#cc2c3d" stroke-width="2"/>
 <path d="m24.142 24.501c3.0277-0.32645 6.0553-0.2332 9.083 0.96407" fill="#ed4c5c" fill-rule="evenodd" stroke="#cc2c3d" stroke-width="2"/>
 <path d="m44.8 13.848a30.604 30.604 0 0 0-30.604 30.603 30.604 30.604 0 0 0 30.604 30.604 30.604 30.604 0 0 0 30.604-30.604 30.604 30.604 0 0 0-30.604-30.603zm-5.4615 3.5795a20.717 20.717 0 0 1 20.717 20.717 20.717 20.717 0 0 1-20.717 20.719 20.717 20.717 0 0 1-20.717-20.719 20.717 20.717 0 0 1 20.717-20.717z" fill-opacity=".066667" stroke-width=".77272"/>
 <path d="m48.182 12.802c-5.2744 0.013015-10.481 1.1907-15.247 3.4488 3.7631-1.5875 7.8059-2.4057 11.89-2.4065 16.902-1.91e-4 30.604 13.701 30.604 30.603 1.91e-4 16.902-13.702 30.605-30.604 30.604-16.902 1.91e-4 -30.605-13.702-30.604-30.604 0.01075-6.659 2.1921-13.133 6.2147-18.44-5.2132 6.385-8.0648 14.373-8.0738 22.616 4.8e-5 19.783 16.038 35.821 35.821 35.821 19.783-6e-5 35.821-16.038 35.821-35.821-4.8e-5 -19.783-16.038-35.821-35.821-35.821z" fill-opacity=".12941" stroke-width=".77272"/>
</svg>
