<?xml version="1.0" encoding="UTF-8"?>
<svg width="100%" height="100%" version="1.1" viewBox="0 0 96 96" xmlns="http://www.w3.org/2000/svg">
 <path d="m21.444 74.084s-7.1832 5.7747-9.4367 8.0283c-3.3803 3.2395-5.6339 7.8874 19.859 7.8874h54.226v-4.0845h-5.493s-3.0986-9.2959-3.8028-11.831c-0.2816-0.98594-4.5071 0.2816-3.9437 1.2676 0.98588 1.9718-0.56342 10.563-0.56342 10.563h-31.831c-3.3803 0-1.2676-2.5352-0.42257-5.3522l-5.493-0.2816s0.84508 5.6338-9.0142 5.6338c-6.1973 0-11.268-0.98594-9.155-2.9578 1.831-1.831 7.8874-6.6198 7.8874-6.6198l-2.8169-2.2536" fill="#d0d0d0"/>
 <path d="m31.444 62.676s12.817-5.6339 18.028-18.451c5.6338-14.225-0.84508-33.099-0.84508-33.099s1.5493-4.5071 6.4789-4.5071c3.2395 0 4.7888 3.3803 4.7888 3.3803s2.8169 30.986-1.6902 40.282c-9.0142 18.451-26.761 12.395-26.761 12.395" fill="#ce344a"/>
 <path d="m79.614 10.422s-12.113-5.7747-19.296-4.7888c-4.7888 0.70428-6.3381 5.6339-6.4789 8.0283-0.42267 7.7466 3.0986 22.676 0.98594 30.141-1.831 6.6198-12.676 19.437-19.859 19.578-1.1268 0-3.0986-1.9719-4.0846-1.4085-3.3803 1.6902-14.366 2.9578-13.38 10.141 0.98592 6.479 11.268 10.423 23.099 10.845 5.7747 0.14054 17.747-2.1127 20.282-11.127 0.98588-3.3803 5.3521-2.9578 5.3521-2.9578l2.2536 8.7325h14.085s2.9578-10.704 2.9578-21.69c0-11.69-6.0564-13.521-8.0283-20.845-1.831-6.3381 2.1127-24.648 2.1127-24.648" fill="#f46767"/>
 <path d="m74.121 12.957s-5.9156-7.1832-13.099-6.0564c-4.7888 0.70422-6.3381 5.6338-6.4789 8.0282-0.42267 7.7466 3.0986 22.676 0.98594 30.141-1.831 6.6198-12.676 19.437-19.859 19.578-1.1268 0-3.0986-1.9718-4.0846-1.4084-3.3803 1.6902-13.662 3.662-10.423 10.141 3.5212 7.1832 31.55 7.324 40.141-8.4508 3.0987-5.7747 7.4649 2.817 11.831 0.56337 6.9015-3.5212-3.3803-15.211-4.0845-25.775-0.56337-6.6198 5.0705-26.761 5.0705-26.761" fill="#ed4c5c"/>
 <g transform="matrix(1.4085 0 0 1.4085 2.9932 2.675)" fill="#a8203b" stroke-width=".70999">
  <circle cx="25.7" cy="44.9" r="1.3"/>
  <circle cx="30.1" cy="42.3" r="1.3"/>
  <circle cx="34.1" cy="39.7" r="1.3"/>
  <circle cx="37.3" cy="35.4" r="1.3"/>
  <circle cx="38.6" cy="30.3" r="1.3"/>
  <circle cx="40.2" cy="25" r="1.3"/>
  <circle cx="40.4" cy="20.6" r="1.3"/>
  <circle cx="40" cy="15.5" r="1.3"/>
  <circle cx="40" cy="9.5" r="1.3"/>
 </g>
 <g transform="matrix(1.4085 0 0 1.4085 2.9932 2.675)" fill="#d0d0d0" stroke-width=".70999">
  <path d="m25.4 45.3c-0.3 0-0.6-0.1-0.7-0.4-0.1-0.2-2.5-4.2 0-6.2 0.4-0.3 0.9-0.2 1.2 0.1s0.3 0.9-0.1 1.2c-1.1 0.9-0.1 3.3 0.4 4.1 0.2 0.4 0.1 0.9-0.3 1.2-0.2-0.1-0.3 0-0.5 0"/>
  <path d="m29.6 42.6c-0.2 0-0.5-0.1-0.7-0.3-0.1-0.2-3.3-4.1-1.3-6.6 0.3-0.4 0.8-0.4 1.2-0.1s0.4 0.8 0.1 1.2c-1 1.2 0.6 3.7 1.3 4.4 0.3 0.4 0.2 0.9-0.1 1.2-0.1 0.1-0.3 0.2-0.5 0.2"/>
  <path d="m33.6 40.1c-0.2 0-0.4-0.1-0.5-0.2-0.4-0.3-3.8-3.1-3.8-5.7 0-0.9 0.3-1.6 1-2.2 0.3-0.3 0.9-0.3 1.2 0.1s0.3 0.9-0.1 1.2c-0.3 0.3-0.4 0.5-0.4 0.9 0 1.5 2.4 3.7 3.2 4.4 0.4 0.3 0.4 0.8 0.1 1.2-0.2 0.2-0.4 0.3-0.7 0.3"/>
  <path d="m36.9 35.9c-0.1 0-0.2 0-0.3-0.1-0.5-0.2-4.5-1.8-5.4-4.2-0.3-0.8-0.2-1.6 0.2-2.4 0.2-0.4 0.8-0.5 1.2-0.3s0.6 0.7 0.3 1.1c-0.2 0.3-0.2 0.6-0.1 1 0.5 1.3 3 2.7 4.4 3.2 0.4 0.2 0.7 0.7 0.5 1.1-0.1 0.4-0.4 0.6-0.8 0.6"/>
  <path d="m38.3 31h-0.1c-0.5-0.1-4.6-0.7-5.8-2.7-0.4-0.7-0.5-1.5-0.1-2.3 0.2-0.4 0.7-0.6 1.1-0.5 0.4 0.2 0.7 0.7 0.5 1.1s-0.1 0.7 0 0.9c0.6 1 3.1 1.7 4.6 1.9 0.5 0.1 0.8 0.5 0.7 0.9s-0.5 0.7-0.9 0.7"/>
  <path d="m37.1 26c-1.3 0-2.7-0.2-3.6-1-0.6-0.5-1-1.3-0.9-2.2 0-0.5 0.4-0.8 0.9-0.8s0.8 0.4 0.8 0.9 0.2 0.7 0.3 0.8c0.9 0.8 3.5 0.6 5 0.3 0.5-0.1 0.9 0.2 1 0.7s-0.2 0.9-0.7 1c-0.2 0.1-1.4 0.3-2.8 0.3"/>
  <path d="m37.3 21.6c-1.3 0-2.7-0.2-3.6-1-0.6-0.5-1-1.3-0.9-2.2 0-0.5 0.4-0.8 0.9-0.8s0.8 0.4 0.8 0.9 0.2 0.7 0.3 0.8c0.9 0.8 3.5 0.6 5 0.3 0.5-0.1 0.9 0.2 1 0.7s-0.2 0.9-0.7 1c-0.2 0.1-1.4 0.3-2.8 0.3"/>
  <path d="m36.9 16.8c-1.3 0-2.7-0.2-3.6-0.9-0.6-0.5-1-1.3-0.9-2.2 0-0.5 0.4-0.8 0.9-0.8s0.8 0.4 0.8 0.9 0.2 0.7 0.3 0.8c0.9 0.8 3.5 0.6 5 0.3 0.5-0.1 0.9 0.2 1 0.7s-0.2 0.9-0.7 1c-0.2 0-1.4 0.2-2.8 0.2"/>
 </g>
</svg>
