<?xml version="1.0" encoding="UTF-8"?>
<svg width="100%" height="100%" version="1.1" viewBox="0 0 96 96" xmlns="http://www.w3.org/2000/svg">
 <g transform="matrix(6.8175 0 0 6.8176 -173.38 -1332)">
  <path d="m38.083 202.06c0.73322 2.6374-1.2025 4.8887-3.3175 6.6022-0.08952-2.6678-1.5138-3.734-2.7537-5.0214" fill="none" stroke="#c0c0c0" stroke-linecap="round" stroke-linejoin="round" stroke-width=".44004"/>
  <path d="m31.004 203.92c1.6211 1.7288 1.9012 3.298 1.5118 4.7874 2.7924-1.7801 4.2985-3.7633 4.3555-5.9753 1.0967 1.1846 1.9871 2.4174 0.8639 4.1215" fill="none" stroke="#c0c0c0" stroke-linecap="round" stroke-linejoin="round" stroke-width=".44004"/>
  <path d="m31.238 207.85c1.2098-1.1149 2.4636-2.2202 2.8797-4.1755 2.6682 1.7803 2.6833 3.8392 2.5917 5.0754" fill="none" stroke="#c0c0c0" stroke-linecap="round" stroke-linejoin="round" stroke-width=".44004"/>
  <path d="m32.247 204.49c-2.7096 0-2.3683-1.3228-2.0056-1.8135 1.0028-1.3442 4.8005-2.7096 6.8061-2.7096 2.3043 0 1.9415 1.2801 1.4508 1.9202-1.0881 1.4722-4.2458 2.603-6.2514 2.603m4.8005-3.8618c-1.6428 0-4.6725 1.1094-5.6753 2.0696-0.19202 0.19202-0.55473 0.70407 0.8961 0.70407 1.7922 0 4.5232-1.1094 5.3553-2.0909 0.27736-0.36271 0.42671-0.68274-0.57606-0.68274" fill="#ed4c5c" stroke-width=".14668"/>
 </g>
 <g transform="matrix(1.0108 0 0 1.0108 3.8637 3.1532)" stroke-width=".76445">
  <circle cx="32" cy="32" r="30" fill="#dcdcdc"/>
  <circle cx="29.276" cy="28.591" r="25.631" fill="#f0f0f0"/>
  <circle cx="24.702" cy="23.31" r="17.351" fill="#fff"/>
  <path d="m28.4 18c-0.1-3.1 0.3-5.9 0.9-8.4 14.5 0.3 25.2 7.1 30.5 11.3-0.5-1.2-1.1-2.4-1.7-3.6-6-4.2-15.8-9.2-28.3-9.6 0.7-2.5 1.6-4.4 2.2-5.7h-0.1c-0.7 0-1.4 0-2.1 0.1-2.4 5.2-6.8 18 1 30-2 4-4.8 6.9-7.7 9-10-18.3-5.5-32.4-4-36.2-0.9 0.4-1.7 0.9-2.5 1.4-1.9 5.9-4.3 19.1 5 35.9-2.6 1.6-5.3 2.7-7.8 3.4-7-12.7-6.5-25.4-5.5-32.1-0.8 1-1.6 2.1-2.3 3.3-0.4 7.3 0.1 18.2 6 29.3-2.5 0.6-4.7 0.8-6 0.9 0.4 0.6 0.7 1.2 1.1 1.8 5.7-0.5 19-3.1 25.5-15.8 4.5-0.2 8.4 0.7 11.7 2.2-10.8 17.8-25.3 21-29.3 21.5l2.4 1.5c6-1.3 18.7-5.8 28.6-22.3 2.7 1.4 5 3.2 6.8 5-7.5 12.4-18.7 18.3-25.1 20.8 1.3 0.2 2.6 0.3 4 0.3 6.6-3.1 15.9-9.1 22.4-19.7 1.8 1.9 3 3.6 3.8 4.8 0.4-0.6 0.7-1.2 1-1.9-3.3-4.7-12.2-14.9-26.4-14.2-2.4-3.7-3.6-7.6-4-11.2 20.9 0.4 30.8 11.3 33.4 14.6 0.1-0.8 0.1-1.6 0.1-2.4v-0.5c-4.1-4.6-14.4-13.2-33.6-13.5" fill="#a7b2b1"/>
 </g>
</svg>
