<?xml version="1.0" encoding="UTF-8"?>
<svg width="100%" height="100%" version="1.1" viewBox="0 0 96 96" xmlns="http://www.w3.org/2000/svg">
 <g stroke-width=".52441">
  <g transform="matrix(1.4896 0 0 1.4896 -.45569 -.55143)">
   <g fill="#edb364">
    <path transform="matrix(.67133 0 0 .67133 -128.59 -386.32)" d="m260.46 580.21c-8.3782 0.15383-17.47 3.966-24.676 11.172-7.146 7.146-10.951 16.099-11.164 24.404-3e-3 9e-3 -6e-3 0.0131-8e-3 0.0254-0.59583 9.6823-2.0854 19.216-6.7031 24.578-0.59584 0.74479-1.4902 1.4902-1.4902 1.4902l5.6602 5.6602s0.74544-0.8944 1.4902-1.4902c5.1817-4.2014 13.923-5.8888 22.996-6.5723 8.7824 0.31981 18.507-3.5014 26.16-11.154 12.81-12.81 14.895-31.429 4.7656-41.707-4.4315-4.4315-10.515-6.5259-17.031-6.4062zm-4.1055 6.0059a2.9221 2.9221 0 0 1 2.0254 0.85547 2.9221 2.9221 0 0 1 0 4.1328 2.9221 2.9221 0 0 1-4.1328 0 2.9221 2.9221 0 0 1 0-4.1328 2.9221 2.9221 0 0 1 2.1074-0.85547zm12.518 0.10157a2.9221 2.9221 0 0 1 2.0234 0.85546 2.9221 2.9221 0 0 1 0 4.1328 2.9221 2.9221 0 0 1-4.1328 0 2.9221 2.9221 0 0 1 0-4.1328 2.9221 2.9221 0 0 1 2.1094-0.85546zm-18.92 6.1367a2.9221 2.9221 0 0 1 2.0234 0.85547 2.9221 2.9221 0 0 1 0 4.1328 2.9221 2.9221 0 0 1-4.1328 0 2.9221 2.9221 0 0 1 0-4.1328 2.9221 2.9221 0 0 1 2.1094-0.85547zm12.752 0.0859a2.9221 2.9221 0 0 1 2.0234 0.85547 2.9221 2.9221 0 0 1 0 4.1328 2.9221 2.9221 0 0 1-4.1328 0 2.9221 2.9221 0 0 1 0-4.1328 2.9221 2.9221 0 0 1 2.1094-0.85547zm12.496 0.10742a2.9221 2.9221 0 0 1 2.0234 0.85547 2.9221 2.9221 0 0 1 0 4.1309 2.9221 2.9221 0 0 1-4.1328 0 2.9221 2.9221 0 0 1 0-4.1309 2.9221 2.9221 0 0 1 2.1094-0.85547zm-18.9 6.1309a2.9221 2.9221 0 0 1 2.0234 0.85547 2.9221 2.9221 0 0 1 0 4.1328 2.9221 2.9221 0 0 1-4.1328 0 2.9221 2.9221 0 0 1 0-4.1328 2.9221 2.9221 0 0 1 2.1094-0.85547zm-12.648 0.0899a2.9221 2.9221 0 0 1 2.0234 0.85547 2.9221 2.9221 0 0 1 0 4.1328 2.9221 2.9221 0 0 1-4.1309 0 2.9221 2.9221 0 0 1 0-4.1328 2.9221 2.9221 0 0 1 2.1074-0.85547zm25.379 0a2.9221 2.9221 0 0 1 2e-3 0 2.9221 2.9221 0 0 1 2.0234 0.85742 2.9221 2.9221 0 0 1 0 4.1309 2.9221 2.9221 0 0 1-4.1328 0 2.9221 2.9221 0 0 1 0-4.1309 2.9221 2.9221 0 0 1 2.1074-0.85742zm6.2344 6.2344a2.9221 2.9221 0 0 1 2.0234 0.85547 2.9221 2.9221 0 0 1 0 4.1309 2.9221 2.9221 0 0 1-4.1328 0 2.9221 2.9221 0 0 1 0-4.1309 2.9221 2.9221 0 0 1 2.1094-0.85547zm-12.637 4e-3a2.9221 2.9221 0 0 1 2.0234 0.85547 2.9221 2.9221 0 0 1 0 4.1328 2.9221 2.9221 0 0 1-4.1328 0 2.9221 2.9221 0 0 1 0-4.1328 2.9221 2.9221 0 0 1 2.1094-0.85547zm-12.629 0.08584a2.9221 2.9221 0 0 1 2.0234 0.85546 2.9221 2.9221 0 0 1 0 4.1328 2.9221 2.9221 0 0 1-4.1309 0 2.9221 2.9221 0 0 1 0-4.1328 2.9221 2.9221 0 0 1 2.1074-0.85546zm-12.732 0.0723a2.9221 2.9221 0 0 1 2.0234 0.85547 2.9221 2.9221 0 0 1 0 4.1328 2.9221 2.9221 0 0 1-4.1328 0 2.9221 2.9221 0 0 1 0-4.1328 2.9221 2.9221 0 0 1 2.1094-0.85547zm31.594 6.0742a2.9221 2.9221 0 0 1 2.0234 0.85547 2.9221 2.9221 0 0 1 0 4.1328 2.9221 2.9221 0 0 1-4.1328 0 2.9221 2.9221 0 0 1 0-4.1328 2.9221 2.9221 0 0 1 2.1094-0.85547zm-12.531 0.18359a2.9221 2.9221 0 0 1 2.0234 0.85547 2.9221 2.9221 0 0 1 0 4.1328 2.9221 2.9221 0 0 1-4.1328 0 2.9221 2.9221 0 0 1 0-4.1328 2.9221 2.9221 0 0 1 2.1094-0.85547zm-12.715 0.0664a2.9221 2.9221 0 0 1 2.0234 0.85547 2.9221 2.9221 0 0 1 0 4.1328 2.9221 2.9221 0 0 1-4.1328 0 2.9221 2.9221 0 0 1 0-4.1328 2.9221 2.9221 0 0 1 2.1094-0.85547zm18.947 6.166a2.9221 2.9221 0 0 1 2.0234 0.85546 2.9221 2.9221 0 0 1 0 4.1328 2.9221 2.9221 0 0 1-4.1328 0 2.9221 2.9221 0 0 1 0-4.1328 2.9221 2.9221 0 0 1 2.1094-0.85546zm-12.619 0.16211a2.9221 2.9221 0 0 1 2.0234 0.85546 2.9221 2.9221 0 0 1 0 4.1328 2.9221 2.9221 0 0 1-4.1328 0 2.9221 2.9221 0 0 1 0-4.1328 2.9221 2.9221 0 0 1 2.1094-0.85546zm-12.629 0.0879a2.9221 2.9221 0 0 1 2.0254 0.85546 2.9221 2.9221 0 0 1 0 4.1309 2.9221 2.9221 0 0 1-4.1328 0 2.9221 2.9221 0 0 1 0-4.1309 2.9221 2.9221 0 0 1 2.1074-0.85546zm18.861 6.1445a2.9221 2.9221 0 0 1 2.0234 0.85742 2.9221 2.9221 0 0 1 0 4.1309 2.9221 2.9221 0 0 1-4.1309 0 2.9221 2.9221 0 0 1 0-4.1309 2.9221 2.9221 0 0 1 2.1074-0.85742zm-12.531 0.18359a2.9221 2.9221 0 0 1 2.0234 0.85547 2.9221 2.9221 0 0 1 0 4.1328 2.9221 2.9221 0 0 1-4.1328 0 2.9221 2.9221 0 0 1 0-4.1328 2.9221 2.9221 0 0 1 2.1094-0.85547zm-16.654 3.0254c1.0143 2.0955 2.3498 4.0302 4.0274 5.7324 1.7026 1.678 3.6382 3.013 5.7344 4.0274-3.761 1.4691-10.044 3.5772-11.691 1.9297-1.6474-1.6474 0.46055-7.9283 1.9297-11.689z" fill="#edb364"/>
   </g>
   <g fill="#4d4f59">
    <path transform="matrix(.7071 -.7071 .7071 .7071 -33.24 24.336)" d="m3.1 48.9h19.3v6.9h-19.3z"/>
    <path d="m10 50.2 3.4 6.3 2.1-2.1-3.4-6.4z"/>
    <path d="m5.7 54.5 3.4 6.4 2.1-2.2-3.4-6.3z"/>
   </g>
   <g fill="#5f606c">
    <path d="m3.5 56.7 4.8 4.9 0.8-0.7-3.4-6.4z"/>
    <path d="m7.8 52.4 3.4 6.3 2.2-2.2-3.4-6.3z"/>
    <path d="m17.2 43-0.7 0.7 3.3 6.4 2.2-2.2z"/>
   </g>
   <path d="m14.3 45.9 3.4 6.3 2.1-2.1-3.3-6.4z" fill="#4d4f59"/>
   <path d="m12.1 48 3.4 6.4 2.2-2.2-3.4-6.3z" fill="#5f606c"/>
   <g fill="#4d4f59">
    <path transform="matrix(.7072 -.707 .707 .7072 -39.294 21.821)" d="m5.6 54.3h2.2v8.1h-2.2z"/>
    <path transform="matrix(.7073 -.7069 .7069 .7073 -27.18 26.833)" d="m17.7 42.2h2.2v8.1h-2.2z"/>
   </g>
  </g>
  <g transform="matrix(1.4896 0 0 1.4896 6.6154 5.5887)">
   <circle cx="12.491" cy="11.983" r="11" fill="#d7e22e" style="paint-order:stroke fill markers"/>
   <circle cx="11.581" cy="10.951" r="8.1954" fill="#dee755" style="paint-order:stroke fill markers"/>
   <path d="m1.5049 11.58c5.0837 0.28887 11.151 5.8203 11.212 11.369" fill="none" stroke="#fff" stroke-width="2.014"/>
   <path d="m23.465 11.341c-5.0883 0.19159-11.65-4.7433-12.233-10.262" fill="none" stroke="#fff" stroke-width="2.014"/>
  </g>
 </g>
</svg>
