<?xml version="1.0" encoding="UTF-8" standalone="no"?>
<svg
   xmlns:dc="http://purl.org/dc/elements/1.1/"
   xmlns:cc="http://creativecommons.org/ns#"
   xmlns:rdf="http://www.w3.org/1999/02/22-rdf-syntax-ns#"
   xmlns:svg="http://www.w3.org/2000/svg"
   xmlns="http://www.w3.org/2000/svg"
   xmlns:sodipodi="http://sodipodi.sourceforge.net/DTD/sodipodi-0.dtd"
   xmlns:inkscape="http://www.inkscape.org/namespaces/inkscape"
   sodipodi:docname="rugby.svg"
   inkscape:version="1.0 (4035a4fb49, 2020-05-01)"
   id="svg916"
   version="1.1"
   viewBox="0 0 96 96"
   height="96"
   width="96">
  <defs
     id="defs910">
    <clipPath
       clipPathUnits="userSpaceOnUse"
       id="clipPath44">
      <path
         d="M 0,38 H 38 V 0 H 0 Z"
         id="path46-65"
         inkscape:connector-curvature="0" />
    </clipPath>
    <clipPath
       clipPathUnits="userSpaceOnUse"
       id="clipPath16-2">
      <path
         d="M 0,38 H 38 V 0 H 0 Z"
         id="path18-53"
         inkscape:connector-curvature="0" />
    </clipPath>
    <clipPath
       clipPathUnits="userSpaceOnUse"
       id="clipPath28-4">
      <path
         d="M 1.193,5 C 1.193,3 3,1 5,1 v 0 h 28 c 2,0 3.731,2 3.731,4 v 0 c 0,4.355 -4.634,11 -17.731,11 v 0 C 5.508,16 1.193,9.541 1.193,5"
         id="path30-9"
         inkscape:connector-curvature="0" />
    </clipPath>
    <clipPath
       id="clipPath16-4"
       clipPathUnits="userSpaceOnUse">
      <path
         inkscape:connector-curvature="0"
         id="path18-8"
         d="M 0,36 H 36 V 0 H 0 Z" />
    </clipPath>
    <clipPath
       clipPathUnits="userSpaceOnUse"
       id="clipPath16-90">
      <path
         d="M 0,38 H 38 V 0 H 0 Z"
         id="path18-2"
         inkscape:connector-curvature="0" />
    </clipPath>
    <clipPath
       clipPathUnits="userSpaceOnUse"
       id="clipPath16-1">
      <path
         d="M 0,38 H 38 V 0 H 0 Z"
         id="path18-5"
         inkscape:connector-curvature="0" />
    </clipPath>
    <clipPath
       clipPathUnits="userSpaceOnUse"
       id="clipPath44-3">
      <path
         d="M 0,38 H 38 V 0 H 0 Z"
         id="path46-65-8"
         inkscape:connector-curvature="0" />
    </clipPath>
  </defs>
  <sodipodi:namedview
     inkscape:window-maximized="0"
     inkscape:window-y="331"
     inkscape:window-x="365"
     inkscape:window-height="880"
     inkscape:window-width="1127"
     units="px"
     showgrid="true"
     inkscape:document-rotation="0"
     inkscape:current-layer="layer1"
     inkscape:document-units="px"
     inkscape:cy="59.380908"
     inkscape:cx="48.615181"
     inkscape:zoom="3.959798"
     inkscape:pageshadow="2"
     inkscape:pageopacity="0.0"
     borderopacity="1.0"
     bordercolor="#666666"
     pagecolor="#ffffff"
     id="base">
    <inkscape:grid
       spacingy="4"
       spacingx="4"
       empspacing="6"
       id="grid1479"
       type="xygrid" />
  </sodipodi:namedview>
  <metadata
     id="metadata913">
    <rdf:RDF>
      <cc:Work
         rdf:about="">
        <dc:format>image/svg+xml</dc:format>
        <dc:type
           rdf:resource="http://purl.org/dc/dcmitype/StillImage" />
        <dc:title></dc:title>
      </cc:Work>
    </rdf:RDF>
  </metadata>
  <g
     id="layer1"
     inkscape:groupmode="layer"
     inkscape:label="Layer 1">
    <path
       inkscape:connector-curvature="0"
       style="fill:#e8e8e8;stroke-width:1"
       d="M 87.016416,9.0865889 C 78.779147,0.84935911 45.241704,2.9086388 23.324694,24.825643 1.4076782,46.742703 -0.65164033,80.133043 7.5856284,88.517377 15.822897,96.754662 49.360341,94.695327 71.277351,72.778322 93.194366,50.861318 95.253685,17.470978 87.016416,9.0865889 Z"
       id="path2" />
    <path
       inkscape:connector-curvature="0"
       style="fill:#c5d4d8;stroke-width:1"
       d="m 85.545477,22.325054 c -2.20641,4.854131 -4.559919,9.414056 -7.354704,13.973925 -5.295386,8.678595 -11.620428,17.062929 -18.239661,24.858904 -6.17795,7.354721 -13.532654,15.150697 -22.358297,19.416415 -4.559914,2.206438 -9.266925,2.500589 -13.973937,3.530257 -4.265724,1.029668 -9.56111,3.530257 -10.149489,7.501824 12.94428,3.971512 39.421209,-0.441421 57.807962,-18.828057 17.651286,-17.651286 22.358297,-42.657293 19.269322,-56.189909 -2.059318,1.323819 -3.677349,3.088948 -5.001196,5.736641"
       id="path4-9" />
    <path
       inkscape:connector-curvature="0"
       style="fill:#4b53a2;stroke-width:1"
       d="M 57.450512,6.2917927 C 55.244101,6.7332138 53.03769,7.3214603 50.831279,8.0569213 41.858544,12.322695 32.591619,18.9419 25.236915,26.149517 3.614089,47.919418 1.9960526,80.721401 6.1146897,84.692968 11.99845,90.576712 41.270164,82.045275 62.010425,58.657293 79.073337,39.535085 87.016416,18.500645 87.89898,10.116257 87.457726,9.8221611 87.163508,9.3807955 87.016416,9.0865889 82.456502,4.6737674 70.836069,3.2028454 57.450512,6.2917927 M 58.627266,55.274139 C 39.799226,74.102197 15.969989,79.54463 10.674603,74.249244 6.4088741,69.983526 10.96881,45.418829 29.796828,26.590772 48.624869,7.6156669 72.895387,2.9086388 77.455301,7.6156669 c 5.295386,5.2953861 0,28.8304151 -18.828035,47.6584721"
       id="path6-0" />
    <g
       transform="matrix(1.4709405,0,0,1.4709405,0.23092398,1.7319234)"
       style="fill:#cb2c41;stroke-width:0.679837"
       id="g14">
      <path
         style="stroke-width:0.679837"
         inkscape:connector-curvature="0"
         d="m 16.7,27.1 c -4.6,7.4 -5.8,14.5 -4,16.3 1.8,1.8 8.9,0.5 16.3,-4 -6.3,3.2 -12.3,3.6 -14.1,1.9 -1.8,-1.9 -1.4,-7.9 1.8,-14.2"
         id="path8" />
      <path
         style="stroke-width:0.679837"
         inkscape:connector-curvature="0"
         d="m 29.8,14 c 6.3,-3.2 12.3,-3.6 14.1,-1.9 1.8,1.7 1.3,7.8 -1.9,14.1 C 46.6,18.8 47.8,11.7 46,9.9 44.3,8.2 37.2,9.4 29.8,14"
         id="path10-1" />
      <path
         style="stroke-width:0.679837"
         inkscape:connector-curvature="0"
         d="m 59.5,5.7 c 0,0 0,0 0,0 -0.6,5.8 -6,20 -17.6,33 C 27.8,54.6 8,60.5 4,56.4 1.3,53.7 2.3,31.4 17.1,16.6 22.1,11.6 28.4,7.2 34.5,4.3 28,6.4 21.3,10.1 15.7,15.7 0.8,30.6 -0.6,53.4 5,59 6.8,60.8 10.5,61.9 15,62 23.6,59.5 36.5,53.8 47.5,38.3 53.8,29.7 58.7,20 62,14.4 61.8,10.6 60.9,7.6 59.5,5.7"
         id="path12-1" />
    </g>
  </g>
</svg>
