<?xml version="1.0" encoding="UTF-8"?>
<svg width="100%" height="100%" version="1.1" viewBox="0 0 96 96" xmlns="http://www.w3.org/2000/svg">
 <path d="m31.898 19.597a33.031 33.03 0.0091839 0 0-12.09 45.119 33.031 33.03 0.0091839 0 0 45.121 12.091 33.031 33.03 0.0091839 0 0 12.09-45.122 33.031 33.03 0.0091839 0 0-45.121-12.089zm1.9229 1.189 7.1036-3.4525 8.6133 0.66048 0.46 9.0494-11.218 4.9594-6.8388-4.716zm1.8992 19.049 11.252 8.2338-3.5588 10.719-11.699 1.1232-4.9587-11.217zm18.972-8.7873 10.862-1.0722 5.3529 10.773-5.0845 7.702-11.258-4.1145zm-4.1037 30.756 11.217-4.9608 6.8382 4.7182-1.8788 6.4999-7.1058 3.4519-8.6111-0.65989z" fill="#5d5134" style="paint-order:stroke fill markers"/>
 <path d="m15.37 41.278c-1.0501 9.638 10.784 31.454 15.576 34.088-7.7201-2.5757-10.315-7.1004-13.173-13.131-4.3472-11.812-3.4287-16.458-2.4032-20.957z" fill="#ca9859" fill-rule="evenodd"/>
 <g transform="matrix(2.6824 -1.5487 1.5487 2.6824 -629.09 -576.6)" stroke="#947c44" stroke-width=".48429">
  <path d="m91.163 274.27c-11.297-1.6933-13.673 12.324-8.6316 18.273-8.6427-5.1103-2.956-23.703 8.6316-18.273z" fill="#e1b973" fill-rule="evenodd" stroke="#ca9859" stroke-width=".64572"/>
 </g>
 <g transform="matrix(2.6824 -1.5487 1.5487 2.6824 -629.09 -576.6)" stroke-width="1.2202">
  <path d="m94.246 274.64-12.292 17.852c0.57718 0.75629 1.1056 1.1309 2.3854 1.4472l12.064-17.614c-0.43695-1.2514-0.76111-1.4695-2.1572-1.6861z" fill="#e1b973" fill-rule="evenodd"/>
  <path d="m82.205 292.14 11.924-17.29" fill="none" stroke="#ca9859" stroke-linecap="round" stroke-width="1.2914"/>
  <path d="m84.561 293.54 11.684-16.795" fill="none" stroke="#ca9859" stroke-linecap="round" stroke-width="1.2914"/>
 </g>
 <g transform="matrix(2.6824 -1.5487 1.5487 2.6824 -629.09 -576.6)" stroke-width="1.2202">
  <path d="m77.887 282.99c2.2852-3.1805 15.728-4.8536 21.177 1.2153l-0.06947-2.5121c-5.8178-4.9301-13.729-4.5575-20.09-1.6894-0.93413 1.3655-1.148 1.1267-1.0182 2.9861z" fill="#e1b973" fill-rule="evenodd"/>
  <path d="m78.082 282.5c5.1947-3.6661 14.401-3.8068 21.077 1.3918" fill="none" stroke="#ca9859" stroke-linecap="round" stroke-width=".96857"/>
  <path d="m78.623 280.43c5.2882-3.3855 14.306-3.5725 19.999 1.018" fill="none" stroke="#ca9859" stroke-linecap="round" stroke-width=".96857"/>
 </g>
 <g transform="matrix(2.6824 -1.5487 1.5487 2.6824 -629.09 -576.6)" stroke-width="1.2202">
  <path d="m99.402 286.98c-8.6077 5.7954-15.814 4.2104-19.001 0.23946l0.55892 2.3524c1.7811 4.3606 12.073 4.6495 16.866 0.25075 0 0 1.1026-0.92766 1.365-2.7382z" fill="#e1b973" fill-rule="evenodd"/>
  <path d="m80.409 287.13c4.6908 4.7275 10.582 4.7882 18.58-0.12613" fill="none" stroke="#ca9859" stroke-linecap="round" stroke-width=".80714"/>
  <path d="m80.932 289.6c2.9556 4.3062 9.6338 5.0886 16.781 0.25392" fill="none" stroke="#ca9859" stroke-linecap="round" stroke-width=".80714"/>
 </g>
 <g transform="matrix(2.6824 -1.5487 1.5487 2.6824 -629.09 -576.6)" stroke-width="1.2202">
  <path d="m96.497 276.85c1.5525 0.98911 3.163 4.554 2.6678 9.7317-1.2961 0.95246-0.72645 0.58345-1.8596 1.1315 1.0856-4.905-0.37785-8.7003-1.3115-10.137z" fill="#e1b973" fill-rule="evenodd"/>
  <path d="m95.956 277.47c1.9753 3.1706 1.9165 7.2738 1.242 10.557" fill="none" stroke="#ca9859" stroke-linecap="round" stroke-width=".64572"/>
  <path d="m96.551 276.7c2.3629 1.5402 3.2 6.6083 2.5247 9.901" fill="none" stroke="#ca9859" stroke-linecap="round" stroke-width=".64572"/>
 </g>
 <path d="m82.2 51.169c-1.6716 2.6924-2.7134 4.1639-2.7134 4.1639-5.2811 16.42-16.369 20.72-25.446 21.551-0.0063-0.0011-0.01251-3.51e-4 -0.01945-0.0017l-0.0012 0.0045-0.38251 4.4273c17.072-2.6413 28.249-17.927 28.563-30.145z" fill="#ca9859" fill-rule="evenodd"/>
 <path d="m47.708 19.117c-9.4254-1.4384-14.923-1.4082-20.533 1.8496 5.7132-4.0913 11.25-7.1799 20.629-7.0943z" fill="#ca9859" fill-rule="evenodd"/>
 <g transform="matrix(2.6824 -1.5487 1.5487 2.6824 -629.09 -576.6)" stroke-width="1.2202">
  <path d="m84.833 275.61 3.2857 7.027-1.4401 2.3511c-1.3279-2.2998-3.073-5.185-3.4683-8.163 0.56073-0.45462 1.1673-1.0239 1.6227-1.215z" fill="#e1b973" fill-rule="evenodd"/>
  <path d="m86.711 285.18c-1.6399-2.7943-2.7945-5.3315-3.5639-8.0636" fill="none" stroke="#ca9859" stroke-linecap="round" stroke-width="1.2914"/>
  <path d="m88.399 282.71c-1.4012-2.8241-2.2776-4.4744-3.307-7.174" fill="none" stroke="#ca9859" stroke-linecap="round" stroke-width="1.2914"/>
 </g>
 <g transform="matrix(2.6824 -1.5487 1.5487 2.6824 -629.09 -576.6)" stroke-width="1.2202">
  <path d="m90.299 286.17 3.9294 6.3261c-1.0881 0.80031-1.8084 0.88002-1.8084 0.88002-0.94866 0.1194-2.7581-3.4505-3.4181-5.4168z" fill="#e1b973" fill-rule="evenodd"/>
  <path d="m88.612 288.17c1.5209 3.344 2.7168 4.9099 3.4652 5.0951" fill="none" stroke="#ca9859" stroke-linecap="round" stroke-width="1.2914"/>
  <path d="m90.356 285.99c1.2394 2.1002 2.5393 5.439 3.7787 6.1794" fill="none" stroke="#ca9859" stroke-linecap="round" stroke-width="1.2914"/>
 </g>
 <g transform="matrix(1.1367 1.4111e-8 -1.2982e-8 1.1367 -143.16 -148.69)" stroke-width=".94291">
  <path transform="matrix(.72098 0 0 .72098 -73.023 -345.59)" d="m331.06 678.64c-19.634-2.9e-4 -35.55 15.915-35.551 35.549 7.9e-4 19.634 15.917 35.549 35.551 35.549 16.913-0.0177 31.471-11.948 34.812-28.527-2.1036 2.8425-4.0913 5.2954-6.4049 7.9699l-14.555-9.2868c-3.5602 5.2863-9.319 9.3395-15.573 10.567l-1.2226 14.799c-4.964-0.21233-9.9286-0.37974-14.893-1.7793-3.2787-5.5011-7.0184-10.789-8.416-17.158 0.75593-0.97459 1.5648-1.9808 2.3926-2.9785-4.2012-4.4596-6.5433-10.354-6.5488-16.48-3.8e-4 -13.291 11.745-24.47 25.036-24.471 10.907 5e-3 19.624 8.1447 22.425 18.686 4.4515-0.63813 8.841-1.0998 13.807-0.96624 1.3896 2.6567 2.7731 4.8877 4.0918 7.7333-3.9373-15.553-19.245-26.921-34.951-29.205z" fill-opacity=".066667"/>
  <path transform="matrix(.72098 0 0 .72098 -73.023 -345.59)" d="m334.99 677.42c-6.1269 0.0151-12.176 1.3828-17.713 4.0059 4.3713-1.8441 9.0681-2.7941 13.812-2.7949 17.777 3.244 32.296 16.022 35.02 29.271l3.2773 8.0117-3.3613 4.8301c-3.0812 16.496-17.545 28.987-34.936 28.986-19.634 2.2e-4 -35.551-15.917-35.551-35.551 0.0125-7.7352 2.5461-15.255 7.2188-21.42-6.0558 7.417-9.3684 16.696-9.3789 26.271 5e-5 22.981 18.631 41.609 41.611 41.609 22.981-7e-5 41.609-18.629 41.609-41.609-6e-5 -22.981-18.629-41.611-41.609-41.611z" fill-opacity=".12941"/>
 </g>
</svg>
