<?xml version="1.0" encoding="UTF-8"?>
<svg width="100%" height="100%" version="1.1" viewBox="0 0 96 96" xmlns="http://www.w3.org/2000/svg">
 <g>
  <g transform="matrix(2.1973 0 0 2.1973 112.72 -596.13)" stroke-width="1.7201">
   <circle cx="-38.081" cy="284.24" r="11.339" fill="#3e4347" style="paint-order:normal"/>
   <circle cx="-38.128" cy="284.29" r="9.1187" fill="#fff" style="paint-order:normal"/>
   <circle cx="-38.142" cy="284.3" r="7.2877" fill="#428bc1" style="paint-order:normal"/>
   <circle cx="-37.868" cy="284.36" r="4.3467" fill="#fff" style="paint-order:normal"/>
   <circle cx="-37.792" cy="284.45" r="2.2743" fill="#bb2e3c" style="paint-order:normal"/>
  </g>
  <g transform="matrix(1.3753 0 0 -1.3753 38.755 52.713)" stroke-width=".90888">
   <path d="m15.518-15.254c-7.4611 0-6.3755 8.0195-6.2176 8.7046l12.435-2.487c-0.22756-2.9733-3.1859-6.2176-6.2176-6.2176m7.4611 22.383h-13.679c-1.3728 0-2.487-1.1142-2.487-2.487h-7.4611c0 1.3728-1.1142 2.487-2.487 2.487h-1.2435c-1.3728 0-2.487-1.1142-2.487-2.487h-1.2435v-6.2176c0-1.3728 1.1142-2.487 2.487-2.487h12.435v-4.9741c0-4.8062 3.8972-8.7046 8.7046-8.7046 4.453 0 8.1886 3.1461 8.7046 7.4611h1.2435c1.3728 0 2.487 1.1142 2.487 2.487v9.9481c-2.7469 0-4.9741 2.2271-4.9741 4.9741" fill="#9aaab4"/>
   <path d="m24.223-10.28 3.7306 6.2176s6.2176 0 7.4611-11.192l1.2435-7.4611s0-4.9741-4.9741-4.9741h-2.487c-4.9741 0-4.9741 4.9741-4.9741 4.9741z" fill="#bf6952"/>
   <path d="m25.467-5.3059c-1.3728 0-2.487 1.1142-2.487 2.487 0 3.4993 2.3179 8.7046 8.7046 8.7046 1.3728 0 2.487-1.1142 2.487-2.487s-1.1142-2.487-2.487-2.487c-3.5502 0-3.7306-3.1076-3.7306-3.7306 0-1.3728-1.1142-2.487-2.487-2.487" fill="#9aaab4"/>
   <path d="m15.518-6.5494c0-1.2435 0-3.7306-1.2435-4.9741-1.2435-1.2435 2.487-1.2435 3.7306 1.2435 1.2435 2.487 1.2435 2.487 1.2435 3.7306s-3.7306 0-3.7306 0" fill="#9aaab4"/>
   <path d="m22.98-0.33181c0-2.7469-2.2271-4.9741-4.9741-4.9741h-7.4549c-2.7469 0-2.487 2.2271-2.487 4.9741h-0.00622c0 2.7469-0.25368 4.9741 2.4933 4.9741h7.4549c2.7469 0 4.9741-2.2271 4.9741-4.9741" fill="#67757f"/>
   <path d="m16.762 0.91171h-6.2176c-0.68642 0-1.2435 0.5571-1.2435 1.2435s0.5571 1.2435 1.2435 1.2435h6.2176c0.68767 0 1.2435-0.5571 1.2435-1.2435s-0.55585-1.2435-1.2435-1.2435" fill="#ccd6dd"/>
   <path d="m16.762-4.0624h-6.2176c-0.68642 0-1.2435 0.5571-1.2435 1.2435s0.5571 1.2435 1.2435 1.2435h6.2176c0.68767 0 1.2435-0.5571 1.2435-1.2435s-0.55585-1.2435-1.2435-1.2435" fill="#ccd6dd"/>
  </g>
 </g>
</svg>
