<?xml version="1.0" encoding="UTF-8" standalone="no"?>
<svg
   xmlns:dc="http://purl.org/dc/elements/1.1/"
   xmlns:cc="http://creativecommons.org/ns#"
   xmlns:rdf="http://www.w3.org/1999/02/22-rdf-syntax-ns#"
   xmlns:svg="http://www.w3.org/2000/svg"
   xmlns="http://www.w3.org/2000/svg"
   xmlns:sodipodi="http://sodipodi.sourceforge.net/DTD/sodipodi-0.dtd"
   xmlns:inkscape="http://www.inkscape.org/namespaces/inkscape"
   sodipodi:docname="soccer.svg"
   inkscape:version="1.0 (4035a4fb49, 2020-05-01)"
   id="svg916"
   version="1.1"
   viewBox="0 0 96 96"
   height="96"
   width="96">
  <defs
     id="defs910" />
  <sodipodi:namedview
     inkscape:window-maximized="0"
     inkscape:window-y="240"
     inkscape:window-x="209"
     inkscape:window-height="979"
     inkscape:window-width="1663"
     units="px"
     showgrid="true"
     inkscape:document-rotation="0"
     inkscape:current-layer="layer1"
     inkscape:document-units="px"
     inkscape:cy="60.745978"
     inkscape:cx="121.21501"
     inkscape:zoom="3.959798"
     inkscape:pageshadow="2"
     inkscape:pageopacity="0.0"
     borderopacity="1.0"
     bordercolor="#666666"
     pagecolor="#ffffff"
     id="base">
    <inkscape:grid
       spacingy="4"
       spacingx="4"
       empspacing="6"
       id="grid1479"
       type="xygrid" />
  </sodipodi:namedview>
  <metadata
     id="metadata913">
    <rdf:RDF>
      <cc:Work
         rdf:about="">
        <dc:format>image/svg+xml</dc:format>
        <dc:type
           rdf:resource="http://purl.org/dc/dcmitype/StillImage" />
        <dc:title></dc:title>
      </cc:Work>
    </rdf:RDF>
  </metadata>
  <g
     id="layer1"
     inkscape:groupmode="layer"
     inkscape:label="Layer 1">
    <circle
       style="fill:#e6e6e6;fill-opacity:1;stroke:none;stroke-width:0.781236"
       r="43.104774"
       cx="47.546391"
       cy="47.599926"
       id="ellipse5985-7" />
    <circle
       style="fill:#f7f7f7;fill-opacity:1;stroke-width:0.781236"
       r="38.306553"
       cx="44.263397"
       cy="43.559322"
       id="ellipse5985-2" />
    <circle
       style="fill:#ffffff;fill-opacity:1;stroke-width:0.781236"
       r="28.583832"
       cx="39.338898"
       cy="35.351871"
       id="ellipse5985" />
    <path
       id="path5987"
       d="m 92.238974,47.651721 c 0,-1.041865 0.297675,-16.223433 -8.632668,-26.046841 -0.446517,-0.893027 -2.23259,-4.465172 -8.334989,-8.781506 -4.018654,-3.1255935 -8.18615,-5.3581983 -8.632668,-5.6558738 0,0 0,0 0,0 C 66.192132,6.8696734 58.750178,3.000004 49.819831,3.000004 c -0.744196,0 -1.339551,0 -2.083748,0.1489134 C 40.889484,3.000004 34.638243,4.7861332 30.02423,6.8699002 25.261379,8.9536293 22.135763,11.037396 21.838083,11.335072 16.777553,14.163028 7.1030129,25.474776 6.3588164,31.577201 c -3.1256202,3.869783 -5.65588542,21.58167 0,32.298067 4.0186546,14.883893 18.9025626,22.325858 20.0932766,22.921209 0.744196,0.446514 8.781505,5.507074 18.753725,5.507074 0.446517,0 0.893034,0 1.339551,0 0.893038,0.148914 1.637231,0.148914 2.530266,0.148914 10.716415,0 26.791037,-7.590803 30.065499,-13.544391 9.228023,-6.846576 13.990874,-24.111912 13.09784,-31.256202 M 26.600934,70.126569 C 22.284601,63.279992 19.903173,54.200811 19.307818,52.117044 20.64737,50.033315 27.345127,40.209945 31.066106,37.233151 c 2.083748,0.446513 11.162933,2.083729 19.646759,3.572145 1.041876,2.827918 5.804727,14.883893 7.144279,19.64674 -1.488389,1.786092 -7.293116,8.48383 -12.949002,13.693191 C 38.80574,74.29414 28.535841,70.721958 26.600934,70.126569 M 80.183006,21.753718 c 0,0.595351 -0.148838,2.976793 -1.339551,5.804749 -2.232586,-1.19074 -7.888472,-3.572145 -15.776943,-4.018658 -1.190714,-1.786091 -5.655885,-7.888479 -12.651326,-12.055975 0.893038,-1.9348913 2.23259,-4.167496 3.125624,-4.911685 0.297676,0 0.595355,-0.1489134 1.190714,-0.1489134 3.720975,0 10.269895,2.5302425 10.865253,2.6790803 0.595355,0.2978268 12.353643,6.5489391 14.586229,12.6513261 M 17.670587,50.628439 C 12.610057,49.735412 9.4844366,48.246997 8.5914023,47.651645 6.6564958,40.805069 8.2937267,33.363104 8.4425645,32.321239 10.377475,29.04677 15.586843,20.414102 19.15898,18.776886 c 3.572138,-0.744227 8.186151,0.148913 9.97222,0.595351 -0.148838,2.381405 -0.446518,9.079181 0.446517,16.223471 C 25.7079,38.87014 19.307818,48.246997 17.670591,50.628439 M 47.289566,5.2325332 c 1.190714,0.1489134 2.827944,0.2978268 4.018658,0.744189 -1.190714,1.488378 -2.381427,3.7209827 -2.827944,4.9116848 -2.381428,0.446514 -11.16293,2.083729 -18.158367,6.548901 -1.339551,-0.297827 -5.655885,-1.33954 -9.674543,-1.041864 1.041876,-1.934892 2.530265,-3.27447 2.679103,-3.423308 0.446521,-0.446513 11.014095,-7.8884784 23.963093,-7.7396028 M 75.717834,61.940225 c -1.786068,0 -8.48383,-0.446551 -15.776942,-2.232605 -1.339552,-4.911685 -6.102403,-16.96766 -7.144279,-19.795616 4.614014,-6.5489 9.079185,-12.651288 10.269899,-14.437379 8.483826,0.595351 14.437391,3.720982 15.628105,4.316334 4.911689,7.888478 5.953561,15.925795 6.102399,17.265335 -2.679103,8.186155 -7.73963,13.693191 -9.079182,14.883931 M 5.6146199,42.44236 c 0.1488378,1.93493 0.4465171,3.869821 1.0418759,5.804712 -0.4465172,1.339578 -0.8930344,2.679118 -1.0418759,4.018659 -0.4465172,-3.42327 -0.4465172,-6.846577 0,-9.823371 m 22.0281871,42.41915 -0.595355,0.893027 0.595355,-0.893027 c -3.720976,-1.786091 -6.54892,-5.953587 -7.739634,-7.590803 2.23259,-2.232567 5.060531,-4.316334 6.102403,-5.060523 2.381427,0.893027 12.353646,4.167496 18.753725,4.167496 1.041876,1.488378 4.614013,5.95355 8.930347,9.525695 -2.679103,2.679118 -6.54892,3.869821 -7.293117,4.167496 C 36.275474,90.368698 27.642807,84.86151 27.642807,84.86151 m 24.260772,5.060523 c 1.339552,-0.744189 2.827945,-1.786053 4.018655,-3.125631 1.93491,-0.297827 10.269898,-1.637216 17.711852,-7.144252 0.446518,0 1.339552,0.148913 2.232586,0.148913 -4.614009,4.316334 -15.628104,9.228019 -23.963093,10.121046 M 74.8248,77.419621 c 2.679103,-6.995415 2.530265,-12.353651 2.381424,-13.990867 1.488393,-1.488378 6.54892,-6.846614 9.37686,-15.032768 1.488393,0.297826 2.530266,0.595389 2.976783,0.893064 0.148838,0.595351 0.446517,1.934892 0.297675,4.018659 -1.190713,7.441927 -5.06053,18.753713 -12.055963,23.665398 -0.744197,0.446514 -1.934911,0.595351 -2.976783,0.446514"
       inkscape:connector-curvature="0"
       style="fill:#4e4e4e;fill-opacity:1;stroke-width:0.781236" />
  </g>
</svg>
