<?xml version="1.0" encoding="UTF-8"?>
<svg width="100%" height="100%" version="1.1" viewBox="0 0 96 96" xmlns="http://www.w3.org/2000/svg">
 <g transform="matrix(1.2983 0 0 1.2983 13.458 -.80494)" fill="none" stroke="#d0d0d0" stroke-width="1.5404">
  <path d="m28.478 19.227 16.71 17.01"/>
  <path d="m32.497 13.356 18.8 18.744"/>
  <path d="m37.894 8.4455 18.133 18.731"/>
  <path d="m43.842 4.5021 16.843 17.263"/>
  <path d="m24.888 25.888 13.937 13.878"/>
  <path d="m23.568 41.324 32.921-32.746"/>
  <path d="m30.201 43.259 29.645-29.526"/>
  <path d="m58.902 22.948-13.374 12.96"/>
  <path d="m27.499 21.082 16.162-16.1"/>
  <path d="m22.167 34.865 28.927-29.224"/>
  <path d="m22.114 32.733 9.7245 9.6052"/>
 </g>
 <g transform="matrix(1.3074 0 0 1.3074 11.948 2.5381)" fill="#71a5ff" stroke-width=".7649">
  <path d="m35.101 6.6565c-5.5295 5.4771-12.037 18.721-13.506 24.991s-2.2951 9.1655-5.2429 12.891l-3.6855 3.5 2.0936 2.0967 3.8278-3.6905c5.2641-2.9418 7.1505-3.6555 13.746-5.6676 6.5953-2.0121 17.875-7.3505 23.779-13.01 5.9043-5.6595 9.7392-16.545 2.3297-23.243-7.4095-6.6979-17.812-3.345-23.342 2.1322zm21.209 0c5.1728 5.0299 3.5672 13.221-2.1322 19.077-5.6994 5.8563-23.018 16.345-28.762 11.673-5.7436-4.6723 6.1811-23.103 11.819-28.617 5.6374-5.5137 13.903-7.1636 19.076-2.1338zm-34.074 31.471c0.64374 1.1736 1.8079 1.979 2.9314 2.3729-1.9381 0.84189-3.3139 1.8001-5.0374 2.6707 0.75305-1.522 1.4406-3.2186 2.106-5.0436z" fill="#71a5ff" stroke-width=".7649"/>
 </g>
 <path d="m10.158 93.229s1.1999-2.8499 1.9499-3.5998c8.0996-8.0997 14.699-14.699 14.699-14.699l5.0998-7.6496-2.6999-2.8499-7.6497 5.0998s-6.7497 6.7497-14.699 14.699c-0.74997 0.74993-3.5998 1.9499-3.5998 1.9499-0.89996 0.45014-1.05 1.35-0.45001 2.0999l5.3998 5.3997c0.59997 0.75001 1.4999 0.59996 1.9499-0.45007" fill="#3e4347"/>
 <g transform="matrix(1.4999 0 0 1.4999 -.79161 1.1334)" fill="#b2c1c0" stroke-width=".6667">
  <path d="m13 47.4-0.8 0.9 5.3 1.8z" opacity=".5"/>
  <path d="m11.3 49.2-0.9 0.9 5.3 1.7z" opacity=".5"/>
  <path d="m9.5 51-0.9 0.8 5.3 1.8z" opacity=".5"/>
  <path d="m7.7 52.7-0.9 0.9 5.4 1.8z" opacity=".5"/>
  <path d="m5.9 54.5-0.9 0.9 5.4 1.8z" opacity=".5"/>
  <path d="m16.6 47.4-1.3-1.4 5.1-3.3 0.9 0.9z" opacity=".5"/>
 </g>
 <g transform="matrix(1.4044 0 0 1.4044 7.6699 -5.0777)" stroke-width=".55621">
  <g transform="matrix(.7548 0 0 .7548 13.811 10.695)" stroke-width=".7369">
   <circle cx="12.491" cy="11.983" r="11" fill="#333" style="paint-order:stroke fill markers"/>
   <circle cx="11.581" cy="10.951" r="8.1954" fill="#555" style="paint-order:stroke fill markers"/>
  </g>
  <circle cx="19.723" cy="18.007" r="1.1274" fill="#f0f000" style="paint-order:stroke fill markers"/>
  <circle cx="22.452" cy="19.847" r="1.1274" fill="#f0f000" style="paint-order:stroke fill markers"/>
 </g>
</svg>
