<?xml version="1.0" encoding="UTF-8"?>
<svg width="100%" height="100%" version="1.1" viewBox="0 0 96 96" xmlns="http://www.w3.org/2000/svg">
 <g stroke-width=".77272">
  <circle cx="47.849" cy="48.136" r="42.824" fill="#dcdcdc"/>
  <circle cx="43.96" cy="43.269" r="36.587" fill="#f0f0f0"/>
  <circle cx="37.431" cy="35.73" r="24.768" fill="#fff"/>
  <path d="m42.71 28.151c-0.14275-4.4252 0.42824-8.4221 1.2847-11.991 20.698 0.42824 35.972 10.135 43.538 16.13-0.71374-1.713-1.5702-3.4259-2.4267-5.1389-8.5649-5.9954-22.554-13.133-40.398-13.704 0.99924-3.5687 2.284-6.2809 3.1405-8.1366h-0.14275c-0.99923 0-1.9985 0-2.9977 0.14275-3.4259 7.4229-9.7068 25.695 1.4275 42.824-2.855 5.7099-6.8519 9.8496-10.992 12.847-14.275-26.123-7.8511-46.25-5.7099-51.675-1.2847 0.57099-2.4267 1.2847-3.5687 1.9985-2.7122 8.4221-6.1382 27.265 7.1374 51.246-3.7114 2.284-7.5656 3.8542-11.134 4.8534-9.9923-18.129-9.2786-36.258-7.8511-45.822-1.142 1.4275-2.284 2.9977-3.2832 4.7107-0.57099 10.421 0.14275 25.98 8.5649 41.825-3.5687 0.85649-6.7091 1.142-8.5649 1.2847 0.57099 0.85649 0.99924 1.713 1.5702 2.5695 8.1366-0.71374 27.122-4.4252 36.401-22.554 6.4236-0.2855 11.991 0.99923 16.701 3.1404-15.417 25.409-36.115 29.977-41.825 30.691 1.142 0.71374 2.284 1.4275 3.4259 2.1412 8.5649-1.8557 26.694-8.2794 40.826-31.833 3.8542 1.9985 7.1374 4.5679 9.7068 7.1374-10.706 17.701-26.694 26.123-35.83 29.692 1.8557 0.2855 3.7114 0.42824 5.7099 0.42824 9.4214-4.4252 22.697-12.99 31.975-28.121 2.5695 2.7122 4.2824 5.1389 5.4244 6.8519 0.57099-0.85649 0.99923-1.713 1.4275-2.7122-4.7107-6.7091-17.415-21.269-37.685-20.27-3.4259-5.2817-5.1389-10.849-5.7099-15.988 29.834 0.57099 43.966 16.13 47.678 20.841 0.14275-1.142 0.14275-2.284 0.14275-3.4259v-0.71374c-5.8527-6.5664-20.556-18.843-47.963-19.271" fill="#a7b2b1"/>
 </g>
</svg>
