<?xml version="1.0" encoding="UTF-8"?>
<svg width="160" height="110" version="1.1" viewBox="0 0 42.333 29.104" xmlns="http://www.w3.org/2000/svg">
 <path d="m5.8518 7.5882c-1.0368 2.1926-1.6185 4.6422-1.6185 7.2285 0 4.1406 1.4883 7.9322 3.9563 10.874l9.802-4.5243h6.35l9.802 4.5243c2.468-2.9421 3.9563-6.7337 3.9563-10.874 0-2.5863-0.58175-5.0359-1.6185-7.2285l-7.9065 0.8785h-14.817z" fill="#ffff5a" fill-opacity=".53333" stroke-width=".052917"/>
 <path d="m14.817 8.4667 2.1167 12.7h8.4667l2.1167-12.7z" fill="#ffffdf" fill-rule="evenodd" stroke="#a28941" stroke-width="1.0583"/>
 <path d="m17.992 8.4667 1.0583 12.7" fill="none" stroke="#a28941" stroke-width="1.0583"/>
 <path d="m24.342 8.4667-1.0583 12.7" fill="none" stroke="#a28941" stroke-width="1.0583"/>
 <path d="m12.7 8.4667h16.933v-2.1167c-3.175 0-5.2917-4.2333-8.4667-5.2917-3.175 1.0583-5.2917 5.2917-8.4667 5.2917z" fill="#333" fill-rule="evenodd"/>
 <path d="m16.933 21.167v2.1167l2.6458 1.0583v3.4396h3.175v-3.4396l2.6458-1.0583v-2.1167z" fill="#333" stroke-width=".052917"/>
</svg>
