<?xml version="1.0" encoding="UTF-8" standalone="no"?>
<svg
   xmlns:dc="http://purl.org/dc/elements/1.1/"
   xmlns:cc="http://creativecommons.org/ns#"
   xmlns:rdf="http://www.w3.org/1999/02/22-rdf-syntax-ns#"
   xmlns:svg="http://www.w3.org/2000/svg"
   xmlns="http://www.w3.org/2000/svg"
   xmlns:sodipodi="http://sodipodi.sourceforge.net/DTD/sodipodi-0.dtd"
   xmlns:inkscape="http://www.inkscape.org/namespaces/inkscape"
   sodipodi:docname="bus_lane.svg"
   inkscape:version="1.0 (4035a4fb49, 2020-05-01)"
   id="svg1142"
   version="1.1"
   viewBox="0 0 256 256"
   height="256"
   width="256">
  <defs
     id="defs1136" />
  <sodipodi:namedview
     inkscape:window-maximized="0"
     inkscape:window-y="286"
     inkscape:window-x="286"
     inkscape:window-height="891"
     inkscape:window-width="1375"
     units="px"
     inkscape:pagecheckerboard="true"
     showgrid="true"
     inkscape:document-rotation="0"
     inkscape:current-layer="layer1"
     inkscape:document-units="px"
     inkscape:cy="144.57393"
     inkscape:cx="150.02081"
     inkscape:zoom="1.979899"
     inkscape:pageshadow="2"
     inkscape:pageopacity="0.0"
     borderopacity="1.0"
     bordercolor="#666666"
     pagecolor="#ffffff"
     id="base">
    <inkscape:grid
       spacingy="4"
       spacingx="4"
       empspacing="4"
       id="grid1705"
       type="xygrid" />
  </sodipodi:namedview>
  <metadata
     id="metadata1139">
    <rdf:RDF>
      <cc:Work
         rdf:about="">
        <dc:format>image/svg+xml</dc:format>
        <dc:type
           rdf:resource="http://purl.org/dc/dcmitype/StillImage" />
        <dc:title></dc:title>
      </cc:Work>
    </rdf:RDF>
  </metadata>
  <g
     id="layer1"
     inkscape:groupmode="layer"
     inkscape:label="Layer 1">
    <rect
       style="vector-effect:none;fill:#808080;fill-opacity:1;stroke:none;stroke-width:3.5;stroke-linecap:butt;stroke-linejoin:miter;stroke-miterlimit:4;stroke-dasharray:none;stroke-dashoffset:0;stroke-opacity:1;paint-order:stroke fill markers"
       id="rect6563-7-1"
       width="256.00003"
       height="255.99998"
       x="0"
       y="1.1376716e-05" />
    <path
       inkscape:connector-curvature="0"
       id="rect6896-3-1-5"
       d="M 120.00001,16.000009 V 47.999984 H 136 V 16.000009 Z m 0,63.999988 V 112.00001 H 136 V 79.999997 Z m 0,63.999993 V 176 H 136 v -32.00001 z m 0,64.00002 v 31.99998 H 136 v -31.99998 z"
       style="vector-effect:none;fill:#ffffff;fill-opacity:1;stroke:none;stroke-width:8.00001;stroke-linecap:butt;stroke-linejoin:miter;stroke-miterlimit:4;stroke-dasharray:24, 24;stroke-dashoffset:0;stroke-opacity:1;paint-order:stroke fill markers" />
    <g
       transform="matrix(3.7795276,0,0,3.7795276,12.000001,-866.51961)"
       id="text9080"
       style="font-style:normal;font-variant:normal;font-weight:normal;font-stretch:normal;font-size:1.41111px;line-height:6.61458px;font-family:'Roboto Condensed';-inkscape-font-specification:'Roboto Condensed, ';letter-spacing:0px;word-spacing:0px;fill:#000000;fill-opacity:1;stroke:none;stroke-width:0.264583px;stroke-linecap:butt;stroke-linejoin:miter;stroke-opacity:1"
       aria-label="BUS">
      <path
         inkscape:connector-curvature="0"
         id="path4687"
         transform="matrix(0.26458333,0,0,0.26458333,9.3823038e-8,93.79998)"
         d="m 208.50391,600.32031 c -2.79167,0 -5.09853,0.77843 -6.91797,2.33399 -1.80556,1.54167 -2.70703,3.58896 -2.70703,6.14453 0,2.11112 0.66666,3.94445 2,5.5 1.33333,1.54167 3.52083,2.89021 6.5625,4.04297 1.66666,0.68056 2.8125,1.33962 3.4375,1.97851 0.63889,0.62501 0.95703,1.55491 0.95703,2.79102 0,2.26388 -1.06814,3.39648 -3.20703,3.39648 -1.54167,0 -2.65343,-0.39584 -3.33399,-1.1875 -0.68055,-0.79168 -1.02148,-2.0625 -1.02148,-3.8125 h -6.14453 c 0,2.04168 0.45073,3.81251 1.35351,5.3125 0.91667,1.5 2.17991,2.65342 3.79102,3.45899 1.61111,0.80554 3.39713,1.20703 5.35547,1.20703 2.88889,0 5.17296,-0.74241 6.85351,-2.22852 1.68056,-1.48611 2.52149,-3.54861 2.52149,-6.1875 0,-2.40277 -0.67427,-4.38194 -2.02149,-5.9375 -1.33333,-1.55555 -3.47916,-2.86804 -6.4375,-3.9375 -1.69444,-0.72221 -2.87435,-1.41732 -3.54101,-2.08398 -0.66667,-0.68057 -1,-1.4362 -1,-2.26953 0,-1.06943 0.29731,-1.91796 0.89453,-2.54297 0.59722,-0.63889 1.43055,-0.95703 2.5,-0.95703 1.13889,0 2.00824,0.37499 2.60547,1.125 0.61111,0.7361 0.91601,1.81184 0.91601,3.22851 h 6.10352 c 0,-1.81944 -0.39584,-3.44445 -1.1875,-4.875 -0.77778,-1.43055 -1.89518,-2.53472 -3.35352,-3.3125 -1.45833,-0.79168 -3.1174,-1.1875 -4.97851,-1.1875 z m -57.8125,0.41602 v 30.33398 h 10.04101 c 3.06945,0 5.41038,-0.75 7.02149,-2.25 1.625,-1.50002 2.4375,-3.72158 2.4375,-6.66601 0,-1.72223 -0.36936,-3.16732 -1.10547,-4.33399 -0.73611,-1.18055 -1.78342,-1.96462 -3.14453,-2.35351 1.18055,-0.51389 2.11046,-1.3264 2.79101,-2.4375 0.68056,-1.11113 1.02149,-2.4388 1.02149,-3.98047 0,-2.72222 -0.8277,-4.78472 -2.48047,-6.1875 -1.63889,-1.41664 -4.04037,-2.125 -7.20703,-2.125 z m 23.66601,0 v 20.85547 c 0,3.20834 0.85417,5.65907 2.5625,7.35351 1.72222,1.69444 4.20899,2.54102 7.45899,2.54102 3.19444,0 5.64518,-0.83333 7.35351,-2.5 1.70835,-1.68056 2.57575,-4.09725 2.60352,-7.25 v -21 h -6.125 v 20.98047 c -0.0139,1.66667 -0.29037,2.86739 -0.83203,3.60351 -0.54167,0.72222 -1.54167,1.08399 -3,1.08399 -1.45834,0 -2.46593,-0.36935 -3.02149,-1.10547 -0.55555,-0.7361 -0.83398,-1.96527 -0.83398,-3.6875 v -20.875 z m -17.54101,5.10547 h 3.25 c 1.25,0 2.15147,0.29729 2.70703,0.89453 0.55555,0.59721 0.83398,1.58399 0.83398,2.95898 0,2.48613 -1.20074,3.72852 -3.60351,3.72852 h -3.1875 z m 0,12.04101 h 4.3125 c 1.97222,0.0695 2.95703,1.46529 2.95703,4.1875 0,1.24999 -0.28407,2.21592 -0.85352,2.89649 -0.56944,0.68054 -1.40278,1.01953 -2.5,1.01953 h -3.91601 z"
         style="font-style:normal;font-variant:normal;font-weight:bold;font-stretch:normal;font-size:11.2889px;font-family:'Roboto Condensed';-inkscape-font-specification:'Roboto Condensed, Bold';fill:#ffffff;fill-opacity:1;stroke-width:1px" />
    </g>
    <g
       id="g8426-5-7-20-0-2-5-8"
       transform="matrix(0.72548626,0,0,0.72237302,340.35213,-145.78002)"
       style="stroke:#ffffff;stroke-width:4.45944;stroke-miterlimit:4;stroke-dasharray:none;stroke-opacity:1">
      <path
         inkscape:connector-curvature="0"
         d="m -205.08117,424.06265 a 11.076923,11.076923 0 0 1 -11.07693,11.07693 11.076923,11.076923 0 0 1 -11.07692,-11.07693 11.076923,11.076923 0 0 1 11.07692,-11.07692 11.076923,11.076923 0 0 1 11.07693,11.07692 z m 36.09747,-0.002 a 11.076923,11.076923 0 0 1 -11.07692,11.07692 11.076923,11.076923 0 0 1 -11.07693,-11.07692 11.076923,11.076923 0 0 1 11.07693,-11.07692 11.076923,11.076923 0 0 1 11.07692,11.07692 z M -210,407 l 14,17 h 16 l -11,-17 h -19 m 19,-4 4.87372,-0.01 M -196,424 l 5,-21 m -25,21 8.33469,-24.81496 h 8"
         style="opacity:1;vector-effect:none;fill:none;fill-opacity:1;stroke:#ffffff;stroke-width:4.45944;stroke-linecap:round;stroke-linejoin:round;stroke-miterlimit:4;stroke-dasharray:none;stroke-dashoffset:0;stroke-opacity:1;paint-order:normal"
         id="path8169-4-8-0-95-1-0-6-4" />
    </g>
  </g>
</svg>
