<?xml version="1.0" encoding="UTF-8" standalone="no"?>
<svg
   xmlns:dc="http://purl.org/dc/elements/1.1/"
   xmlns:cc="http://creativecommons.org/ns#"
   xmlns:rdf="http://www.w3.org/1999/02/22-rdf-syntax-ns#"
   xmlns:svg="http://www.w3.org/2000/svg"
   xmlns="http://www.w3.org/2000/svg"
   xmlns:sodipodi="http://sodipodi.sourceforge.net/DTD/sodipodi-0.dtd"
   xmlns:inkscape="http://www.inkscape.org/namespaces/inkscape"
   sodipodi:docname="bus_lane_l.svg"
   inkscape:version="1.0 (4035a4fb49, 2020-05-01)"
   id="svg1142"
   version="1.1"
   viewBox="0 0 256 256"
   height="256"
   width="256">
  <defs
     id="defs1136" />
  <sodipodi:namedview
     inkscape:window-maximized="0"
     inkscape:window-y="286"
     inkscape:window-x="286"
     inkscape:window-height="891"
     inkscape:window-width="1375"
     units="px"
     inkscape:pagecheckerboard="true"
     showgrid="true"
     inkscape:document-rotation="0"
     inkscape:current-layer="layer1"
     inkscape:document-units="px"
     inkscape:cy="144.57393"
     inkscape:cx="150.02081"
     inkscape:zoom="1.979899"
     inkscape:pageshadow="2"
     inkscape:pageopacity="0.0"
     borderopacity="1.0"
     bordercolor="#666666"
     pagecolor="#ffffff"
     id="base">
    <inkscape:grid
       spacingy="4"
       spacingx="4"
       empspacing="4"
       id="grid1705"
       type="xygrid" />
  </sodipodi:namedview>
  <metadata
     id="metadata1139">
    <rdf:RDF>
      <cc:Work
         rdf:about="">
        <dc:format>image/svg+xml</dc:format>
        <dc:type
           rdf:resource="http://purl.org/dc/dcmitype/StillImage" />
        <dc:title></dc:title>
      </cc:Work>
    </rdf:RDF>
  </metadata>
  <g
     id="layer1"
     inkscape:groupmode="layer"
     inkscape:label="Layer 1">
    <rect
       transform="scale(1,-1)"
       style="vector-effect:none;fill:#808080;fill-opacity:1;stroke:none;stroke-width:3.5;stroke-linecap:butt;stroke-linejoin:miter;stroke-miterlimit:4;stroke-dasharray:none;stroke-dashoffset:0;stroke-opacity:1;paint-order:stroke fill markers"
       id="rect6563-7-1-9"
       width="256.00003"
       height="255.99998"
       x="0"
       y="-255.99998" />
    <path
       inkscape:connector-curvature="0"
       id="rect6896-3-1-5-2"
       d="m 120,16.000004 v 31.999975 h 16 V 16.000004 Z m 0,63.999988 V 112 h 16 V 79.999992 Z m 0,63.999988 v 32.00001 h 16 v -32.00001 z m 0,64.00003 v 31.99997 h 16 v -31.99997 z"
       style="vector-effect:none;fill:#ffffff;fill-opacity:1;stroke:none;stroke-width:8.00001;stroke-linecap:butt;stroke-linejoin:miter;stroke-miterlimit:4;stroke-dasharray:24, 24;stroke-dashoffset:0;stroke-opacity:1;paint-order:stroke fill markers" />
    <g
       transform="matrix(-3.7795276,0,0,-3.7795276,378.71445,1122.5196)"
       id="g5525">
      <g
         aria-label="BUS"
         style="font-style:normal;font-variant:normal;font-weight:normal;font-stretch:normal;font-size:1.41111px;line-height:6.61458px;font-family:'Roboto Condensed';-inkscape-font-specification:'Roboto Condensed, ';letter-spacing:0px;word-spacing:0px;fill:#000000;fill-opacity:1;stroke:none;stroke-width:0.264583px;stroke-linecap:butt;stroke-linejoin:miter;stroke-opacity:1"
         id="text9080-2">
        <path
           inkscape:connector-curvature="0"
           id="path4687-5"
           transform="matrix(-0.26458333,0,0,-0.26458333,29.822366,432.46664)"
           d="m -95.914062,648.51367 c -2.88889,0 -5.172958,0.74241 -6.853518,2.22852 -1.68055,1.48611 -2.52148,3.54861 -2.52148,6.1875 0,2.40277 0.67426,4.38194 2.02148,5.9375 1.33333,1.55555 3.479167,2.86804 6.437502,3.9375 1.694445,0.72221 2.87435,1.41732 3.541016,2.08398 0.666665,0.68057 1,1.4362 1,2.26953 0,1.06943 -0.297311,1.91796 -0.894532,2.54297 -0.597223,0.63889 -1.430555,0.95703 -2.5,0.95703 -1.138887,0 -2.008245,-0.37499 -2.605468,-1.125 -0.611112,-0.7361 -0.916016,-1.81184 -0.916016,-3.22851 h -6.103512 c 0,1.81944 0.39583,3.44445 1.1875,4.875 0.77778,1.43055 1.89518,2.53472 3.35351,3.3125 1.458335,0.79168 3.117405,1.1875 4.978518,1.1875 2.791664,0 5.098524,-0.77843 6.917968,-2.33399 1.805556,-1.54167 2.707032,-3.58896 2.707032,-6.14453 -10e-7,-2.11112 -0.666666,-3.94445 -2,-5.5 -1.333332,-1.54167 -3.520832,-2.89021 -6.5625,-4.04297 -1.666666,-0.68056 -2.8125,-1.33962 -3.4375,-1.97851 -0.638889,-0.62501 -0.957032,-1.55491 -0.957032,-2.79102 0,-2.26388 1.068141,-3.39648 3.207032,-3.39648 1.541666,0 2.65343,0.39584 3.333984,1.1875 0.680557,0.79168 1.021484,2.0625 1.021484,3.8125 h 6.144532 c -10e-7,-2.04168 -0.450738,-3.81251 -1.353516,-5.3125 -0.916667,-1.5 -2.179904,-2.65342 -3.791016,-3.45899 -1.611112,-0.80554 -3.397137,-1.20703 -5.355468,-1.20703 z m 24.25,0 c -3.194447,0 -5.645185,0.83333 -7.353516,2.5 -1.708344,1.68056 -2.575749,4.09725 -2.603516,7.25 v 21 h 6.125 V 658.2832 c 0.01389,-1.66667 0.290365,-2.86739 0.832032,-3.60351 0.541666,-0.72222 1.541666,-1.08399 3,-1.08399 1.458333,0 2.465929,0.36935 3.021484,1.10547 0.555555,0.7361 0.833984,1.96527 0.833984,3.6875 v 20.875 h 6.166016 V 658.4082 c 0,-3.20834 -0.854166,-5.65907 -2.5625,-7.35351 -1.722222,-1.69444 -4.208986,-2.54102 -7.458984,-2.54102 z m 23.646484,0.41602 c -3.069445,0 -5.410375,0.75 -7.021484,2.25 -1.625001,1.50002 -2.4375,3.72158 -2.4375,6.66601 0,1.72223 0.369357,3.16732 1.105468,4.33399 0.736111,1.18055 1.78342,1.96462 3.144532,2.35351 -1.180556,0.51389 -2.110459,1.3264 -2.791016,2.4375 -0.680554,1.11113 -1.021484,2.4388 -1.021484,3.98047 0,2.72222 0.827691,4.78472 2.480468,6.1875 1.638889,1.41664 4.040364,2.125 7.207032,2.125 h 9.375 v -30.33398 z m 0,5.08398 h 3.916016 v 8.10352 h -4.3125 c -1.972223,-0.0695 -2.957032,-1.46529 -2.957032,-4.1875 0,-1.24999 0.28407,-2.21592 0.853516,-2.89649 0.569444,-0.68054 1.402778,-1.01953 2.5,-1.01953 z m 0.728516,12.5625 h 3.1875 v 7.58203 h -3.25 c -1.250001,0 -2.151476,-0.29729 -2.707032,-0.89453 -0.555555,-0.59721 -0.833984,-1.58399 -0.833984,-2.95898 0,-2.48613 1.200739,-3.72852 3.603516,-3.72852 z"
           style="font-style:normal;font-variant:normal;font-weight:bold;font-stretch:normal;font-size:11.2889px;font-family:'Roboto Condensed';-inkscape-font-specification:'Roboto Condensed, Bold';fill:#ffffff;fill-opacity:1;stroke-width:1px" />
      </g>
      <g
         style="stroke:#ffffff;stroke-width:4.45944;stroke-miterlimit:4;stroke-dasharray:none;stroke-opacity:1"
         transform="matrix(0.19195157,0,0,0.19112786,86.876498,190.69568)"
         id="g8426-5-7-20-0-2-5-8-6">
        <path
           inkscape:connector-curvature="0"
           d="m -205.08117,424.06265 a 11.076923,11.076923 0 0 1 -11.07693,11.07693 11.076923,11.076923 0 0 1 -11.07692,-11.07693 11.076923,11.076923 0 0 1 11.07692,-11.07692 11.076923,11.076923 0 0 1 11.07693,11.07692 z m 36.09747,-0.002 a 11.076923,11.076923 0 0 1 -11.07692,11.07692 11.076923,11.076923 0 0 1 -11.07693,-11.07692 11.076923,11.076923 0 0 1 11.07693,-11.07692 11.076923,11.076923 0 0 1 11.07692,11.07692 z M -210,407 l 14,17 h 16 l -11,-17 h -19 m 19,-4 4.87372,-0.01 M -196,424 l 5,-21 m -25,21 8.33469,-24.81496 h 8"
           style="opacity:1;vector-effect:none;fill:none;fill-opacity:1;stroke:#ffffff;stroke-width:4.45944;stroke-linecap:round;stroke-linejoin:round;stroke-miterlimit:4;stroke-dasharray:none;stroke-dashoffset:0;stroke-opacity:1;paint-order:normal"
           id="path8169-4-8-0-95-1-0-6-4-6" />
      </g>
    </g>
  </g>
</svg>
