<?xml version="1.0" encoding="UTF-8" standalone="no"?>
<svg
   xmlns:dc="http://purl.org/dc/elements/1.1/"
   xmlns:cc="http://creativecommons.org/ns#"
   xmlns:rdf="http://www.w3.org/1999/02/22-rdf-syntax-ns#"
   xmlns:svg="http://www.w3.org/2000/svg"
   xmlns="http://www.w3.org/2000/svg"
   xmlns:sodipodi="http://sodipodi.sourceforge.net/DTD/sodipodi-0.dtd"
   xmlns:inkscape="http://www.inkscape.org/namespaces/inkscape"
   sodipodi:docname="lane_dual_switzerland.svg"
   inkscape:version="1.0 (4035a4fb49, 2020-05-01)"
   id="svg1142"
   version="1.1"
   viewBox="0 0 256 256"
   height="256"
   width="256">
  <defs
     id="defs1136" />
  <sodipodi:namedview
     inkscape:window-maximized="0"
     inkscape:window-y="285"
     inkscape:window-x="420"
     inkscape:window-height="891"
     inkscape:window-width="1375"
     units="px"
     inkscape:pagecheckerboard="true"
     showgrid="true"
     inkscape:document-rotation="0"
     inkscape:current-layer="layer1"
     inkscape:document-units="px"
     inkscape:cy="13.935221"
     inkscape:cx="181.42736"
     inkscape:zoom="0.98994949"
     inkscape:pageshadow="2"
     inkscape:pageopacity="0.0"
     borderopacity="1.0"
     bordercolor="#666666"
     pagecolor="#ffffff"
     id="base">
    <inkscape:grid
       spacingy="4"
       spacingx="4"
       empspacing="4"
       id="grid1705"
       type="xygrid" />
  </sodipodi:namedview>
  <metadata
     id="metadata1139">
    <rdf:RDF>
      <cc:Work
         rdf:about="">
        <dc:format>image/svg+xml</dc:format>
        <dc:type
           rdf:resource="http://purl.org/dc/dcmitype/StillImage" />
        <dc:title></dc:title>
      </cc:Work>
    </rdf:RDF>
  </metadata>
  <g
     id="layer1"
     inkscape:groupmode="layer"
     inkscape:label="Layer 1">
    <rect
       style="vector-effect:none;fill:#808080;fill-opacity:1;stroke:none;stroke-width:3.5;stroke-linecap:butt;stroke-linejoin:miter;stroke-miterlimit:4;stroke-dasharray:none;stroke-dashoffset:0;stroke-opacity:1;paint-order:stroke fill markers"
       id="rect6563-2-3-01"
       width="256.00003"
       height="256.00006"
       x="-3.2142029e-06"
       y="-1.8142029e-05" />
    <path
       style="vector-effect:none;fill:#ffff44;fill-opacity:1;stroke:none;stroke-width:8.00001;stroke-linecap:butt;stroke-linejoin:miter;stroke-miterlimit:4;stroke-dasharray:24, 24;stroke-dashoffset:0;stroke-opacity:1;paint-order:stroke fill markers"
       d="M 188.00002,8.0000343 V 24.00006 H 196 V 8.0000343 Z m 0,32.0000127 V 56.000035 H 196 V 40.000047 Z m 0,32.000013 V 88.000048 H 196 V 72.00006 Z m 0,31.99998 v 16.00002 H 196 v -16.00002 z m 0,32.00001 v 15.99999 H 196 v -15.99999 z m 0,32.00001 v 15.99999 H 196 v -15.99999 z m 0,31.99998 v 16.00002 H 196 v -16.00002 z m 0,32.00001 v 15.99999 H 196 v -15.99999 z"
       id="rect6896-7-4-8-2"
       inkscape:connector-curvature="0" />
    <rect
       y="-1.8142029e-05"
       x="111.99999"
       height="255.99998"
       width="15.999999"
       id="rect6313-0-1-14"
       style="fill:#ffff44;fill-opacity:1;stroke:none;stroke-width:3.99999;stroke-linecap:square;stroke-linejoin:miter;stroke-miterlimit:4;stroke-dasharray:none;stroke-opacity:1;paint-order:markers fill stroke" />
    <path
       d="m 222.08683,200.0404 a 7.2127072,7.1817555 0 0 1 -7.2127,7.18175 7.2127072,7.1817555 0 0 1 -7.2127,-7.18175 7.2127072,7.1817555 0 0 1 7.2127,-7.18178 7.2127072,7.1817555 0 0 1 7.2127,7.18178 z m 23.50477,-0.001 a 7.2127072,7.1817555 0 0 1 -7.2127,7.18178 7.2127072,7.1817555 0 0 1 -7.2127,-7.18178 7.2127072,7.1817555 0 0 1 7.2127,-7.18174 7.2127072,7.1817555 0 0 1 7.2127,7.18174 z m -26.70766,-11.06132 9.11607,11.02201 h 10.41834 l -7.16262,-11.02201 h -12.37179 m 9.11607,11.02201 3.25572,-13.6154 m 0,0 3.17352,-0.008 m -19.45217,13.62191 5.4271,-16.08885 h 5.20917"
       style="vector-effect:none;fill:none;fill-opacity:1;stroke:#ffff44;stroke-width:2.89751;stroke-linecap:round;stroke-linejoin:round;stroke-miterlimit:4;stroke-dasharray:none;stroke-dashoffset:0;stroke-opacity:1;paint-order:normal"
       id="path8169-4-8-0-95-2-1"
       inkscape:connector-curvature="0" />
    <path
       d="m 161.67214,55.874668 a 7.2127072,7.1817555 0 0 1 7.2127,-7.181783 7.2127072,7.1817555 0 0 1 7.21269,7.181783 7.2127072,7.1817555 0 0 1 -7.21269,7.181745 7.2127072,7.1817555 0 0 1 -7.2127,-7.181745 z m -23.50477,0.0013 a 7.2127072,7.1817555 0 0 1 7.2127,-7.181745 7.2127072,7.1817555 0 0 1 7.2127,7.181745 7.2127072,7.1817555 0 0 1 -7.2127,7.181745 7.2127072,7.1817555 0 0 1 -7.2127,-7.181745 z m 26.70765,11.061317 -9.11607,-11.02201 h -10.41838 l 7.16262,11.02201 h 12.37183 m 3.90686,-11.02201 -5.4271,16.088882 h -5.20917 m -5.64242,-2.473436 -3.17348,0.0076 m 6.42924,-13.621947 -3.25576,13.615446"
       style="vector-effect:none;fill:none;fill-opacity:1;stroke:#ffff44;stroke-width:2.89751;stroke-linecap:round;stroke-linejoin:round;stroke-miterlimit:4;stroke-dasharray:none;stroke-dashoffset:0;stroke-opacity:1;paint-order:normal"
       id="path8169-4-8-0-8-4-7-6"
       inkscape:connector-curvature="0" />
    <path
       sodipodi:nodetypes="cccccccc"
       inkscape:connector-curvature="0"
       id="path5121-1-8-7-2-16"
       d="m 236.00002,159.99975 -12,-15.99999 -12,15.99999 H 220 v 8.00001 h 8.00001 v -8.00001 z"
       style="fill:#ffff44;fill-opacity:1;stroke:none;stroke-width:0.999999px;stroke-linecap:butt;stroke-linejoin:miter;stroke-opacity:1" />
    <path
       sodipodi:nodetypes="cccccccc"
       inkscape:connector-curvature="0"
       id="path5121-1-5-5-47-0"
       d="M 172,95.999758 160,111.99975 148,95.999758 h 8.00001 v -8.000013 h 8.00001 v 8.000013 z"
       style="fill:#ffff44;fill-opacity:1;stroke:none;stroke-width:0.999999px;stroke-linecap:butt;stroke-linejoin:miter;stroke-opacity:1" />
  </g>
</svg>
