<?xml version="1.0" encoding="UTF-8" standalone="no"?>
<svg
   xmlns:dc="http://purl.org/dc/elements/1.1/"
   xmlns:cc="http://creativecommons.org/ns#"
   xmlns:rdf="http://www.w3.org/1999/02/22-rdf-syntax-ns#"
   xmlns:svg="http://www.w3.org/2000/svg"
   xmlns="http://www.w3.org/2000/svg"
   xmlns:sodipodi="http://sodipodi.sourceforge.net/DTD/sodipodi-0.dtd"
   xmlns:inkscape="http://www.inkscape.org/namespaces/inkscape"
   sodipodi:docname="lane_dual_italy.svg"
   inkscape:version="1.0 (4035a4fb49, 2020-05-01)"
   id="svg1142"
   version="1.1"
   viewBox="0 0 256 256"
   height="256"
   width="256">
  <defs
     id="defs1136" />
  <sodipodi:namedview
     inkscape:window-maximized="0"
     inkscape:window-y="285"
     inkscape:window-x="420"
     inkscape:window-height="891"
     inkscape:window-width="1375"
     units="px"
     inkscape:pagecheckerboard="true"
     showgrid="true"
     inkscape:document-rotation="0"
     inkscape:current-layer="layer1"
     inkscape:document-units="px"
     inkscape:cy="13.935221"
     inkscape:cx="181.42736"
     inkscape:zoom="0.98994949"
     inkscape:pageshadow="2"
     inkscape:pageopacity="0.0"
     borderopacity="1.0"
     bordercolor="#666666"
     pagecolor="#ffffff"
     id="base">
    <inkscape:grid
       spacingy="4"
       spacingx="4"
       empspacing="4"
       id="grid1705"
       type="xygrid" />
  </sodipodi:namedview>
  <metadata
     id="metadata1139">
    <rdf:RDF>
      <cc:Work
         rdf:about="">
        <dc:format>image/svg+xml</dc:format>
        <dc:type
           rdf:resource="http://purl.org/dc/dcmitype/StillImage" />
        <dc:title></dc:title>
      </cc:Work>
    </rdf:RDF>
  </metadata>
  <g
     id="layer1"
     inkscape:groupmode="layer"
     inkscape:label="Layer 1">
    <rect
       style="vector-effect:none;fill:#808080;fill-opacity:1;stroke:none;stroke-width:3.5;stroke-linecap:butt;stroke-linejoin:miter;stroke-miterlimit:4;stroke-dasharray:none;stroke-dashoffset:0;stroke-opacity:1;paint-order:stroke fill markers"
       id="rect6563-2-3-7"
       width="256.00003"
       height="256.00006"
       x="4.2519339e-15"
       y="8.9545892e-07" />
    <path
       inkscape:connector-curvature="0"
       style="vector-effect:none;fill:#ffffff;fill-opacity:1;stroke:none;stroke-width:8.00001;stroke-linecap:butt;stroke-linejoin:miter;stroke-miterlimit:4;stroke-dasharray:24, 24;stroke-dashoffset:0;stroke-opacity:1;paint-order:stroke fill markers"
       d="M 192.00001,7.9999863 V 24.000012 h 8 V 7.9999863 Z m 0,32.0000127 v 15.999988 h 8 V 39.999999 Z m 0,32.000013 V 88 h 8 V 72.000012 Z m 0,31.999978 v 16.00002 h 8 v -16.00002 z m 0,32.00001 v 15.99999 h 8 V 136 Z m 0,32.00001 V 184 h 8 v -15.99999 z m 0,31.99998 v 16.00002 h 8 v -16.00002 z m 0,32.00001 v 15.99999 h 8 V 232 Z"
       id="rect6896-7-4-8-6" />
    <rect
       y="8.9545892e-07"
       x="127.99999"
       height="256.00003"
       width="8.0000029"
       id="rect6313-0-1-6"
       style="fill:#ffff44;fill-opacity:1;stroke:none;stroke-width:3.99999;stroke-linecap:square;stroke-linejoin:miter;stroke-miterlimit:4;stroke-dasharray:none;stroke-opacity:1;paint-order:markers fill stroke" />
    <path
       d="m 222.08683,200.04036 a 7.2127072,7.1817555 0 0 1 -7.21271,7.18175 7.2127072,7.1817555 0 0 1 -7.21271,-7.18175 7.2127072,7.1817555 0 0 1 7.21271,-7.18178 7.2127072,7.1817555 0 0 1 7.21271,7.18178 z m 23.50476,-0.001 a 7.2127072,7.1817555 0 0 1 -7.2127,7.18178 7.2127072,7.1817555 0 0 1 -7.21271,-7.18178 7.2127072,7.1817555 0 0 1 7.21271,-7.18174 7.2127072,7.1817555 0 0 1 7.2127,7.18174 z m -26.70765,-11.06132 9.11607,11.02201 h 10.41835 l -7.16262,-11.02201 h -12.3718 m 9.11607,11.02201 3.25573,-13.6154 m 0,0 3.17351,-0.008 m -19.45219,13.62191 5.42711,-16.08885 h 5.20918"
       style="vector-effect:none;fill:none;fill-opacity:1;stroke:#ffffff;stroke-width:2.89751;stroke-linecap:round;stroke-linejoin:round;stroke-miterlimit:4;stroke-dasharray:none;stroke-dashoffset:0;stroke-opacity:1;paint-order:normal"
       id="path8169-4-8-0-95-2-0"
       inkscape:connector-curvature="0" />
    <path
       d="m 169.67212,55.874628 a 7.2127072,7.1817555 0 0 1 7.21271,-7.181783 7.2127072,7.1817555 0 0 1 7.21271,7.181783 7.2127072,7.1817555 0 0 1 -7.21271,7.181744 7.2127072,7.1817555 0 0 1 -7.21271,-7.181744 z m -23.50477,0.0013 a 7.2127072,7.1817555 0 0 1 7.21271,-7.181745 7.2127072,7.1817555 0 0 1 7.21271,7.181745 7.2127072,7.1817555 0 0 1 -7.21271,7.181745 7.2127072,7.1817555 0 0 1 -7.21271,-7.181745 z M 172.875,66.937229 163.75894,55.91522 h -10.41835 l 7.16262,11.022009 H 172.875 m 3.90689,-11.022009 -5.42711,16.088882 h -5.20918 m -5.64239,-2.473437 -3.17351,0.0076 m 6.42924,-13.621947 -3.25573,13.615446"
       style="vector-effect:none;fill:none;fill-opacity:1;stroke:#ffffff;stroke-width:2.89751;stroke-linecap:round;stroke-linejoin:round;stroke-miterlimit:4;stroke-dasharray:none;stroke-dashoffset:0;stroke-opacity:1;paint-order:normal"
       id="path8169-4-8-0-8-4-7-7"
       inkscape:connector-curvature="0" />
    <path
       sodipodi:nodetypes="cccccccc"
       inkscape:connector-curvature="0"
       id="path5121-1-8-7-2-2"
       d="m 236,159.99971 -12,-15.99999 -12,15.99999 h 8.00001 l -1e-5,8.00001 h 8 v -8.00001 z"
       style="fill:#ffffff;fill-opacity:1;stroke:none;stroke-width:0.999999px;stroke-linecap:butt;stroke-linejoin:miter;stroke-opacity:1" />
    <path
       sodipodi:nodetypes="cccccccc"
       inkscape:connector-curvature="0"
       id="path5121-1-5-5-47-1"
       d="m 180.00001,95.999718 -12,15.999992 L 156,95.999718 h 8.00001 L 164,87.999705 h 8.00001 v 8.000013 z"
       style="fill:#ffffff;fill-opacity:1;stroke:none;stroke-width:0.999999px;stroke-linecap:butt;stroke-linejoin:miter;stroke-opacity:1" />
    <rect
       y="8.9545892e-07"
       x="112"
       height="256.00003"
       width="8.0000029"
       id="rect6313-0-3-4-0-3"
       style="fill:#ffffff;fill-opacity:1;stroke:none;stroke-width:3.99999;stroke-linecap:square;stroke-linejoin:miter;stroke-miterlimit:4;stroke-dasharray:none;stroke-opacity:1;paint-order:markers fill stroke" />
  </g>
</svg>
