<?xml version="1.0" encoding="UTF-8" standalone="no"?>
<svg
   xmlns:dc="http://purl.org/dc/elements/1.1/"
   xmlns:cc="http://creativecommons.org/ns#"
   xmlns:rdf="http://www.w3.org/1999/02/22-rdf-syntax-ns#"
   xmlns:svg="http://www.w3.org/2000/svg"
   xmlns="http://www.w3.org/2000/svg"
   xmlns:sodipodi="http://sodipodi.sourceforge.net/DTD/sodipodi-0.dtd"
   xmlns:inkscape="http://www.inkscape.org/namespaces/inkscape"
   sodipodi:docname="lane.svg"
   inkscape:version="1.0 (4035a4fb49, 2020-05-01)"
   id="svg1142"
   version="1.1"
   viewBox="0 0 256 256"
   height="256"
   width="256">
  <defs
     id="defs1136" />
  <sodipodi:namedview
     inkscape:window-maximized="0"
     inkscape:window-y="286"
     inkscape:window-x="286"
     inkscape:window-height="891"
     inkscape:window-width="1375"
     units="px"
     inkscape:pagecheckerboard="true"
     showgrid="true"
     inkscape:document-rotation="0"
     inkscape:current-layer="layer1"
     inkscape:document-units="px"
     inkscape:cy="144.57393"
     inkscape:cx="150.02081"
     inkscape:zoom="1.979899"
     inkscape:pageshadow="2"
     inkscape:pageopacity="0.0"
     borderopacity="1.0"
     bordercolor="#666666"
     pagecolor="#ffffff"
     id="base">
    <inkscape:grid
       spacingy="4"
       spacingx="4"
       empspacing="4"
       id="grid1705"
       type="xygrid" />
  </sodipodi:namedview>
  <metadata
     id="metadata1139">
    <rdf:RDF>
      <cc:Work
         rdf:about="">
        <dc:format>image/svg+xml</dc:format>
        <dc:type
           rdf:resource="http://purl.org/dc/dcmitype/StillImage" />
        <dc:title></dc:title>
      </cc:Work>
    </rdf:RDF>
  </metadata>
  <g
     id="layer1"
     inkscape:groupmode="layer"
     inkscape:label="Layer 1">
    <rect
       style="vector-effect:none;fill:#808080;fill-opacity:1;stroke:none;stroke-width:3.5;stroke-linecap:butt;stroke-linejoin:miter;stroke-miterlimit:4;stroke-dasharray:none;stroke-dashoffset:0;stroke-opacity:1;paint-order:stroke fill markers"
       id="rect6563-2"
       width="208"
       height="255.99995"
       x="0"
       y="6.1376719e-05" />
    <rect
       y="3.2244448e-06"
       x="112"
       height="255.99998"
       width="15.999999"
       id="rect6313-0"
       style="fill:#ffffff;fill-opacity:1;stroke:none;stroke-width:3.99999;stroke-linecap:square;stroke-linejoin:miter;stroke-miterlimit:4;stroke-dasharray:none;stroke-opacity:1;paint-order:markers fill stroke" />
    <path
       d="m 163.98442,168.04048 a 7.2127072,7.1817555 0 0 1 -7.21272,7.18179 7.2127072,7.1817555 0 0 1 -7.2127,-7.18179 7.2127072,7.1817555 0 0 1 7.2127,-7.18174 7.2127072,7.1817555 0 0 1 7.21272,7.18174 z m 23.50476,-0.001 a 7.2127072,7.1817555 0 0 1 -7.21271,7.18174 7.2127072,7.1817555 0 0 1 -7.21271,-7.18174 7.2127072,7.1817555 0 0 1 7.21271,-7.18175 7.2127072,7.1817555 0 0 1 7.21271,7.18175 z m -26.70765,-11.06132 9.11606,11.02201 h 10.41836 l -7.16262,-11.02201 h -12.3718 m 9.11606,11.02201 3.25574,-13.61541 m 0,0 3.17351,-0.008 m -19.45219,13.62195 5.42711,-16.08884 h 5.20918"
       style="vector-effect:none;fill:none;fill-opacity:1;stroke:#ffffff;stroke-width:2.89751;stroke-linecap:round;stroke-linejoin:round;stroke-miterlimit:4;stroke-dasharray:none;stroke-dashoffset:0;stroke-opacity:1;paint-order:normal"
       id="path8169-4-8-0-95-6-8"
       inkscape:connector-curvature="0" />
    <path
       sodipodi:nodetypes="cccccccc"
       inkscape:connector-curvature="0"
       id="path5121-1-8-7-4-5"
       d="m 180.00001,127.99987 -12,-15.99999 L 156,127.99987 h 8 v 8.00001 h 8 v -8.00001 z"
       style="fill:#ffffff;fill-opacity:1;stroke:none;stroke-width:0.999999px;stroke-linecap:butt;stroke-linejoin:miter;stroke-opacity:1" />
  </g>
</svg>
