<?xml version="1.0" encoding="UTF-8" standalone="no"?>
<svg
   xmlns:dc="http://purl.org/dc/elements/1.1/"
   xmlns:cc="http://creativecommons.org/ns#"
   xmlns:rdf="http://www.w3.org/1999/02/22-rdf-syntax-ns#"
   xmlns:svg="http://www.w3.org/2000/svg"
   xmlns="http://www.w3.org/2000/svg"
   xmlns:sodipodi="http://sodipodi.sourceforge.net/DTD/sodipodi-0.dtd"
   xmlns:inkscape="http://www.inkscape.org/namespaces/inkscape"
   sodipodi:docname="lane_belgium.svg"
   inkscape:version="1.0 (4035a4fb49, 2020-05-01)"
   id="svg1142"
   version="1.1"
   viewBox="0 0 256 256"
   height="256"
   width="256">
  <defs
     id="defs1136" />
  <sodipodi:namedview
     inkscape:window-maximized="0"
     inkscape:window-y="286"
     inkscape:window-x="286"
     inkscape:window-height="891"
     inkscape:window-width="1375"
     units="px"
     inkscape:pagecheckerboard="true"
     showgrid="true"
     inkscape:document-rotation="0"
     inkscape:current-layer="layer1"
     inkscape:document-units="px"
     inkscape:cy="144.57393"
     inkscape:cx="150.02081"
     inkscape:zoom="1.979899"
     inkscape:pageshadow="2"
     inkscape:pageopacity="0.0"
     borderopacity="1.0"
     bordercolor="#666666"
     pagecolor="#ffffff"
     id="base">
    <inkscape:grid
       spacingy="4"
       spacingx="4"
       empspacing="4"
       id="grid1705"
       type="xygrid" />
  </sodipodi:namedview>
  <metadata
     id="metadata1139">
    <rdf:RDF>
      <cc:Work
         rdf:about="">
        <dc:format>image/svg+xml</dc:format>
        <dc:type
           rdf:resource="http://purl.org/dc/dcmitype/StillImage" />
        <dc:title></dc:title>
      </cc:Work>
    </rdf:RDF>
  </metadata>
  <g
     id="layer1"
     inkscape:groupmode="layer"
     inkscape:label="Layer 1">
    <rect
       style="vector-effect:none;fill:#808080;fill-opacity:1;stroke:none;stroke-width:3.5;stroke-linecap:butt;stroke-linejoin:miter;stroke-miterlimit:4;stroke-dasharray:none;stroke-dashoffset:0;stroke-opacity:1;paint-order:stroke fill markers"
       id="rect6563-2-4-7"
       width="208"
       height="255.99995"
       x="0"
       y="1.3767151e-06" />
    <path
       id="path8169-4-8-0-95-1-0-3-2"
       style="vector-effect:none;fill:none;fill-opacity:1;stroke:#ffffff;stroke-width:2.89751;stroke-linecap:round;stroke-linejoin:round;stroke-miterlimit:4;stroke-dasharray:none;stroke-dashoffset:0;stroke-opacity:1;paint-order:normal"
       d="m 164.08683,168.04058 a 7.2127072,7.1817556 0 0 1 -7.21271,7.18176 7.2127072,7.1817556 0 0 1 -7.2127,-7.18176 7.2127072,7.1817556 0 0 1 7.2127,-7.18176 7.2127072,7.1817556 0 0 1 7.21271,7.18176 z m -7.10976,-0.0406 5.42711,-16.08886 h 5.20918 m 19.97824,16.12817 a 7.2127072,7.1817556 0 0 1 -7.2127,7.18176 7.2127072,7.1817556 0 0 1 -7.21272,-7.18176 7.2127072,7.1817556 0 0 1 7.21272,-7.18175 7.2127072,7.1817556 0 0 1 7.2127,7.18175 z m -26.70765,-11.06131 9.11606,11.022 h 10.41836 l -7.16262,-11.022 h -12.3718 m 12.3718,-2.59342 3.17351,-0.006 m -6.42925,13.6219 3.25574,-13.61542"
       inkscape:connector-curvature="0" />
    <path
       sodipodi:nodetypes="cccccccc"
       inkscape:connector-curvature="0"
       id="path5121-1-8-7-6-7-23-0"
       d="m 178,127.99996 -12,-15.99999 -12,15.99999 h 8 v 8.00001 h 8 v -8.00001 z"
       style="fill:#ffffff;fill-opacity:1;stroke:none;stroke-width:0.999999px;stroke-linecap:butt;stroke-linejoin:miter;stroke-opacity:1" />
    <path
       inkscape:connector-curvature="0"
       style="vector-effect:none;fill:#ffffff;fill-opacity:1;stroke:none;stroke-width:8;stroke-linecap:butt;stroke-linejoin:miter;stroke-miterlimit:4;stroke-dasharray:24, 24;stroke-dashoffset:0;stroke-opacity:1;paint-order:stroke fill markers"
       d="m 200.00001,8 v 16 h 8 V 8 Z m 0,32 v 16 h 8 V 40 Z m 0,32 v 16 h 8 V 72 Z m 0,32 v 16 h 8 v -16 z m 0,32 v 16 h 8 v -16 z m 0,32 v 16 h 8 v -16 z m 0,32 v 16 h 8 v -16 z m 0,32 v 16 h 8 v -16 z"
       id="rect6896-7-4-8-0-8" />
    <path
       inkscape:connector-curvature="0"
       style="vector-effect:none;fill:#ffffff;fill-opacity:1;stroke:none;stroke-width:8.00001;stroke-linecap:butt;stroke-linejoin:miter;stroke-miterlimit:4;stroke-dasharray:24, 24;stroke-dashoffset:0;stroke-opacity:1;paint-order:stroke fill markers"
       d="M 128.00001,7.9999763 V 24.000002 H 136 V 7.9999763 Z m 0,32.0000127 V 55.999977 H 136 V 39.999989 Z m 0,32.000013 V 87.99999 H 136 V 72.000002 Z m 0,31.999978 V 120 H 136 v -16.00002 z m 0,32.00001 v 15.99999 H 136 v -15.99999 z m 0,32.00001 v 15.99999 H 136 V 168 Z m 0,31.99998 V 216 H 136 v -16.00002 z m 0,32.00001 v 15.99999 H 136 v -15.99999 z"
       id="rect6896-7-4-8-09-8" />
  </g>
</svg>
