<?xml version="1.0" encoding="UTF-8" standalone="no"?>
<svg
   xmlns:dc="http://purl.org/dc/elements/1.1/"
   xmlns:cc="http://creativecommons.org/ns#"
   xmlns:rdf="http://www.w3.org/1999/02/22-rdf-syntax-ns#"
   xmlns:svg="http://www.w3.org/2000/svg"
   xmlns="http://www.w3.org/2000/svg"
   xmlns:sodipodi="http://sodipodi.sourceforge.net/DTD/sodipodi-0.dtd"
   xmlns:inkscape="http://www.inkscape.org/namespaces/inkscape"
   sodipodi:docname="pictograms_l.svg"
   inkscape:version="1.0 (4035a4fb49, 2020-05-01)"
   id="svg1142"
   version="1.1"
   viewBox="0 0 256 256"
   height="256"
   width="256">
  <defs
     id="defs1136" />
  <sodipodi:namedview
     inkscape:window-maximized="0"
     inkscape:window-y="286"
     inkscape:window-x="286"
     inkscape:window-height="891"
     inkscape:window-width="1375"
     units="px"
     inkscape:pagecheckerboard="true"
     showgrid="true"
     inkscape:document-rotation="0"
     inkscape:current-layer="layer1"
     inkscape:document-units="px"
     inkscape:cy="144.57393"
     inkscape:cx="150.02081"
     inkscape:zoom="1.979899"
     inkscape:pageshadow="2"
     inkscape:pageopacity="0.0"
     borderopacity="1.0"
     bordercolor="#666666"
     pagecolor="#ffffff"
     id="base">
    <inkscape:grid
       spacingy="4"
       spacingx="4"
       empspacing="4"
       id="grid1705"
       type="xygrid" />
  </sodipodi:namedview>
  <metadata
     id="metadata1139">
    <rdf:RDF>
      <cc:Work
         rdf:about="">
        <dc:format>image/svg+xml</dc:format>
        <dc:type
           rdf:resource="http://purl.org/dc/dcmitype/StillImage" />
        <dc:title></dc:title>
      </cc:Work>
    </rdf:RDF>
  </metadata>
  <g
     id="layer1"
     inkscape:groupmode="layer"
     inkscape:label="Layer 1">
    <rect
       style="vector-effect:none;fill:#808080;fill-opacity:1;stroke:none;stroke-width:3.5;stroke-linecap:butt;stroke-linejoin:miter;stroke-miterlimit:4;stroke-dasharray:none;stroke-dashoffset:0;stroke-opacity:1;paint-order:stroke fill markers"
       id="rect6563-7-1-4-9"
       width="256.00003"
       height="255.99998"
       x="0"
       y="4.1376716e-05" />
    <g
       style="stroke:#ffffff;stroke-width:4.45944;stroke-miterlimit:4;stroke-dasharray:none;stroke-opacity:1"
       transform="matrix(-0.68955157,0,0,-0.6865925,46.491115,405.04258)"
       id="g8426-5-4-8-7">
      <path
         id="path8169-4-8-43-2-2"
         style="opacity:1;vector-effect:none;fill:none;fill-opacity:1;stroke:#ffffff;stroke-width:4.45944;stroke-linecap:round;stroke-linejoin:round;stroke-miterlimit:4;stroke-dasharray:none;stroke-dashoffset:0;stroke-opacity:1;paint-order:normal"
         d="m -205.08117,424.06265 a 11.076923,11.076923 0 0 1 -11.07693,11.07693 11.076923,11.076923 0 0 1 -11.07692,-11.07693 11.076923,11.076923 0 0 1 11.07692,-11.07692 11.076923,11.076923 0 0 1 11.07693,11.07692 z m 36.09747,-0.002 a 11.076923,11.076923 0 0 1 -11.07692,11.07692 11.076923,11.076923 0 0 1 -11.07693,-11.07692 11.076923,11.076923 0 0 1 11.07693,-11.07692 11.076923,11.076923 0 0 1 11.07692,11.07692 z M -210,407 l 14,17 h 16 l -11,-17 h -19 m 19,-4 4.87372,-0.01 M -196,424 l 5,-21 m -25,21 8.33469,-24.81496 h 8"
         inkscape:connector-curvature="0" />
    </g>
    <path
       id="path9337-2-9-3-7"
       style="fill:none;fill-rule:evenodd;stroke:#ffffff;stroke-width:4.6026;stroke-linecap:round;stroke-linejoin:miter;stroke-miterlimit:4;stroke-dasharray:none;stroke-opacity:1"
       d="M 198.65996,141.662 183.28403,154.86691 167.97589,141.662 m 30.65018,13.30076 -15.37594,13.20488 -15.30814,-13.20488"
       inkscape:connector-curvature="0"
       sodipodi:nodetypes="cccccc" />
  </g>
</svg>
