<?xml version="1.0" encoding="UTF-8" standalone="no"?>
<svg
   xmlns:dc="http://purl.org/dc/elements/1.1/"
   xmlns:cc="http://creativecommons.org/ns#"
   xmlns:rdf="http://www.w3.org/1999/02/22-rdf-syntax-ns#"
   xmlns:svg="http://www.w3.org/2000/svg"
   xmlns="http://www.w3.org/2000/svg"
   xmlns:sodipodi="http://sodipodi.sourceforge.net/DTD/sodipodi-0.dtd"
   xmlns:inkscape="http://www.inkscape.org/namespaces/inkscape"
   sodipodi:docname="shared_lane_l.svg"
   inkscape:version="1.0 (4035a4fb49, 2020-05-01)"
   id="svg1142"
   version="1.1"
   viewBox="0 0 256 256"
   height="256"
   width="256">
  <defs
     id="defs1136" />
  <sodipodi:namedview
     inkscape:window-maximized="0"
     inkscape:window-y="286"
     inkscape:window-x="286"
     inkscape:window-height="891"
     inkscape:window-width="1375"
     units="px"
     inkscape:pagecheckerboard="true"
     showgrid="true"
     inkscape:document-rotation="0"
     inkscape:current-layer="layer1"
     inkscape:document-units="px"
     inkscape:cy="13.935221"
     inkscape:cx="181.42736"
     inkscape:zoom="0.98994949"
     inkscape:pageshadow="2"
     inkscape:pageopacity="0.0"
     borderopacity="1.0"
     bordercolor="#666666"
     pagecolor="#ffffff"
     id="base">
    <inkscape:grid
       spacingy="4"
       spacingx="4"
       empspacing="4"
       id="grid1705"
       type="xygrid" />
  </sodipodi:namedview>
  <metadata
     id="metadata1139">
    <rdf:RDF>
      <cc:Work
         rdf:about="">
        <dc:format>image/svg+xml</dc:format>
        <dc:type
           rdf:resource="http://purl.org/dc/dcmitype/StillImage" />
        <dc:title></dc:title>
      </cc:Work>
    </rdf:RDF>
  </metadata>
  <g
     id="layer1"
     inkscape:groupmode="layer"
     inkscape:label="Layer 1">
    <rect
       transform="scale(1,-1)"
       style="vector-effect:none;fill:#808080;fill-opacity:1;stroke:none;stroke-width:3.5;stroke-linecap:butt;stroke-linejoin:miter;stroke-miterlimit:4;stroke-dasharray:none;stroke-dashoffset:0;stroke-opacity:1;paint-order:stroke fill markers"
       id="rect6563-2-7-9"
       width="208"
       height="255.99995"
       x="0"
       y="-255.99998" />
    <path
       inkscape:connector-curvature="0"
       id="rect6896-3-1-5-24-2"
       d="m 128.00003,16.000014 v 31.999975 h 7.99999 V 16.000014 Z m 0,63.999988 v 32.000008 h 7.99999 V 80.000002 Z m 0,63.999988 V 176 h 7.99999 v -32.00001 z m 0,64.00003 v 31.99997 h 7.99999 v -31.99997 z"
       style="vector-effect:none;fill:#ffffff;fill-opacity:1;stroke:none;stroke-width:8.00001;stroke-linecap:butt;stroke-linejoin:miter;stroke-miterlimit:4;stroke-dasharray:24, 24;stroke-dashoffset:0;stroke-opacity:1;paint-order:stroke fill markers" />
    <path
       id="path8169-4-8-0-7-9"
       style="vector-effect:none;fill:none;fill-opacity:1;stroke:#ffffff;stroke-width:2.89751;stroke-linecap:round;stroke-linejoin:round;stroke-miterlimit:4;stroke-dasharray:none;stroke-dashoffset:0;stroke-opacity:1;paint-order:normal"
       d="m 172.78656,87.959344 a 7.2127072,7.1817556 0 0 1 7.21271,-7.18176 7.2127072,7.1817556 0 0 1 7.21271,7.18176 7.2127072,7.1817556 0 0 1 -7.21271,7.181754 7.2127072,7.1817556 0 0 1 -7.21271,-7.181754 z m -23.50477,0.0013 a 7.2127072,7.1817556 0 0 1 7.21271,-7.181754 7.2127072,7.1817556 0 0 1 7.21271,7.181754 7.2127072,7.1817556 0 0 1 -7.21271,7.181753 7.2127072,7.1817556 0 0 1 -7.21271,-7.181753 z m 26.70765,11.061322 -9.11606,-11.022 h -10.41835 l 7.16262,11.022 h 12.37179 m 3.90689,-11.022 -5.42711,16.088854 h -5.20918 m -5.64239,-2.47344 -3.17351,0.006 m 6.42924,-13.621894 -3.25573,13.615414"
       inkscape:connector-curvature="0" />
    <path
       sodipodi:nodetypes="cccccccc"
       inkscape:connector-curvature="0"
       id="path5121-1-8-71-6"
       d="m 180.15245,128.36839 -12,15.99999 -12,-15.99999 h 8 v -8.00001 h 8 v 8.00001 z"
       style="fill:#ffffff;fill-opacity:1;stroke:none;stroke-width:0.999999px;stroke-linecap:butt;stroke-linejoin:miter;stroke-opacity:1" />
  </g>
</svg>
