<?xml version="1.0" encoding="UTF-8"?>
<svg version="1.1" viewBox="0 0 256 256" xmlns="http://www.w3.org/2000/svg">
 <rect y="1.3767e-6" width="208" height="256" fill="#808080" style="paint-order:stroke fill markers"/>
 <path d="m128 16v32h8v-32zm0 64v32h8v-32zm0 64v32h8v-32zm0 64v32h8v-32z" fill="#ff4" style="paint-order:stroke fill markers"/>
 <path d="m165.71 168.04a7.2127 7.1818 0 0 1-7.2127 7.1818 7.2127 7.1818 0 0 1-7.2127-7.1818 7.2127 7.1818 0 0 1 7.2127-7.1818 7.2127 7.1818 0 0 1 7.2127 7.1818zm23.505-1e-3a7.2127 7.1818 0 0 1-7.2127 7.1818 7.2127 7.1818 0 0 1-7.2127-7.1818 7.2127 7.1818 0 0 1 7.2127-7.1818 7.2127 7.1818 0 0 1 7.2127 7.1818zm-26.708-11.062 9.1161 11.022h10.418l-7.1626-11.022h-12.372m-3.9069 11.022 5.4271-16.089h5.2092m5.6424 2.4734 3.1735-6e-3m-6.4292 13.621 3.2557-13.615" fill="none" stroke="#ff4" stroke-linecap="round" stroke-linejoin="round" stroke-width="2.8975" style="paint-order:normal"/>
 <path d="m182.15 127.63-12-16-12 16h8v8h8v-8z" fill="#ff4"/>
</svg>
