<?xml version="1.0" encoding="UTF-8"?>
<svg version="1.1" viewBox="0 0 256 256" xmlns="http://www.w3.org/2000/svg">
 <g transform="matrix(3.7795 0 0 3.7795 -9.929e-6 -866.52)">
  <rect x="33.867" y="229.27" width="19.05" height="67.733" fill="#aaa" style="paint-order:stroke fill markers"/>
  <path d="m50.8 290.65h2.1167m-2.1167-6.35h2.1167m-2.1167-6.35h2.1167m0-6.35h-2.1167m0-6.35h2.1167m-2.1167-6.35h2.1167m-2.1167-6.35h2.1167m-2.1167-6.35h2.1167m-2.1167-6.35h2.1167m-2.1167-6.35h2.1167m-19.05 57.15h4.2333m-4.2333-6.35h4.2333m-4.2333-6.35h4.2333m-4.2333-6.35h4.2333m-4.2333-6.35h4.2333m-4.2333-12.7h4.2333m-4.2333-6.35h4.2333m-4.2333-12.7h4.2333m-4.2333 6.35h4.2333m-4.2333 19.05h4.2333m4.2333 31.75h4.2333m-4.2333-6.35h4.2333m-4.2333-6.35h4.2333m-4.2333-6.35h4.2333m-4.2333-6.35h4.2333m-4.2333-12.7h4.2333m-4.2333-6.35h4.2333m-4.2333-12.7h4.2333m-4.2333 6.35h4.2333m-4.2333 19.05h4.2333m-8.4667 34.925h4.2333m-4.2333-6.35h4.2333m-4.2333-6.35h4.2333m-4.2333-6.35h4.2333m-4.2333-6.35h4.2333m-4.2333-6.35h4.2333m-4.2333-12.7h4.2333m-4.2333-6.35h4.2333m-4.2333-12.7h4.2333m-4.2333 6.35h4.2333m-4.2333 19.05h4.2333m8.4667 41.275v-67.733m-4.2333 0v67.733m-4.2333 0v-67.733m-4.2333 0v67.733m8.4667-60.478h4.2333m-4.2333 6.35h4.2333m-4.2333 50.8h4.2333m-4.2333-6.35h4.2333m-4.2333-6.35h4.2333m-4.2333-6.35h4.2333m-4.2333-6.35h4.2333m-4.2333-6.35h4.2333m-4.2333-6.35h4.2333m-4.2333-6.35h4.2333m-4.2333-19.05h4.2333" fill="none" stroke="#999" stroke-width="1.0583"/>
  <rect x="31.75" y="229.27" width="2.1167" height="67.733" fill="#999" style="paint-order:stroke fill markers"/>
  <rect x="52.917" y="229.27" width="2.1167" height="67.733" fill="#999" style="paint-order:stroke fill markers"/>
  <rect x="29.633" y="229.27" width="2.1167" height="67.733" fill="#666" style="paint-order:stroke fill markers"/>
 </g>
 <rect y="1.3767e-6" width="112" height="256" fill="#808080" style="paint-order:stroke fill markers"/>
</svg>
