<?xml version="1.0" encoding="UTF-8"?>
<svg version="1.1" viewBox="0 0 256 256" xmlns="http://www.w3.org/2000/svg">
 <rect y="1.3767e-6" width="112" height="256" fill="#808080" style="paint-order:stroke fill markers"/>
 <rect x="248" y="1.3767e-6" width="8" height="256" fill="#999" style="paint-order:stroke fill markers"/>
 <rect x="120" y="1.3767e-6" width="8" height="256" fill="#999" style="paint-order:stroke fill markers"/>
 <rect x="128" y="1.3767e-6" width="120" height="256" fill="#d88" style="paint-order:stroke fill markers"/>
 <path d="m196 232h16m-16-24h16m-16-24h16m-16-24h16m-16-24h16m-16-24h16m-16-24h16m-16-24h16m-16-48h16m-16 24h16m-80 192h16m-16-24h16m-16-24h16m-16-24h16m-16-24h16m-16-48h16m-16-24h16m-16-48h16m-16 24h16m-16 72h16m80 120h16m-16-24h16m-16-24h16m-16-24h16m-16-24h16m-16-24h16m-16-24h16m-16-24h16m-16-48h16m-16 24h16m-80 192h16m-16-24h16m-16-24h16m-16-24h16m-16-24h16m-16-48h16m-16-24h16m-16-48h16m-16 24h16m-16 72h16m32 132h16m-16-24h16m-16-24h16m-16-24h16m-16-24h16m-16-24h16m-16-24h16m-16-24h16m-16-24h16m-16-48h16m-16 24h16m-80 216h16m-16-24h16m-16-24h16m-16-24h16m-16-24h16m-16-24h16m-16-48h16m-16-24h16m-16-48h16m-16 24h16m-16 72h16m64 156v-256m-16 0v256m32-4e-5v-256m-48 256v-256m-16 0v256m-16 0v-256m-16 0v256m-16-256-1e-5 256m48-228.58h16m-16 24h16m-16 192h16m-16-24h16m-16-24h16m-16-24h16m-16-24h16m-16-24h16m-16-24h16m-16-24h16m-16-72h16" fill="none" stroke="#da7a7a" stroke-width="4"/>
 <path d="m184 4v16h8v-16zm0 32v16h8v-16zm0 32v16h8v-16zm0 32v16h8v-16zm0 32v16h8v-16zm0 32v16h8v-16zm0 32v16h8v-16zm0 32v16h8v-16z" fill="#fff" style="paint-order:stroke fill markers"/>
 <path d="m214.09 200.04a7.2127 7.1818 0 0 1-7.2127 7.1818 7.2127 7.1818 0 0 1-7.2127-7.1818 7.2127 7.1818 0 0 1 7.2127-7.1818 7.2127 7.1818 0 0 1 7.2127 7.1818zm23.505-1e-3a7.2127 7.1818 0 0 1-7.2127 7.1818 7.2127 7.1818 0 0 1-7.2127-7.1818 7.2127 7.1818 0 0 1 7.2127-7.1818 7.2127 7.1818 0 0 1 7.2127 7.1818zm-26.708-11.062 9.1161 11.022h10.418l-7.1626-11.022h-12.372m9.1161 11.022 3.2557-13.615m0 0 3.1735-6e-3m-19.452 13.621 5.4271-16.089h5.2092" fill="none" stroke="#fff" stroke-linecap="round" stroke-linejoin="round" stroke-width="2.8975" style="paint-order:normal"/>
 <path d="m161.67 55.875a7.2127 7.1818 0 0 1 7.2127-7.1818 7.2127 7.1818 0 0 1 7.2127 7.1818 7.2127 7.1818 0 0 1-7.2127 7.1818 7.2127 7.1818 0 0 1-7.2127-7.1818zm-23.505 0.0013a7.2127 7.1818 0 0 1 7.2127-7.1818 7.2127 7.1818 0 0 1 7.2127 7.1818 7.2127 7.1818 0 0 1-7.2127 7.1818 7.2127 7.1818 0 0 1-7.2127-7.1818zm26.708 11.061-9.1161-11.022h-10.418l7.1626 11.022h12.372m3.9069-11.022-5.4271 16.089h-5.2092m-5.6424-2.4734-3.1735 0.0065m6.4292-13.622-3.2557 13.615" fill="none" stroke="#fff" stroke-linecap="round" stroke-linejoin="round" stroke-width="2.8975" style="paint-order:normal"/>
 <path d="m232 160-12-16-12 16h8l-1e-5 8h8v-8z" fill="#fff"/>
 <path d="m168 96-12 16-12-16h8v-8h8v8z" fill="#fff"/>
 <rect x="112" y="1.3767e-6" width="8" height="256" fill="#666" style="paint-order:stroke fill markers"/>
</svg>
