<?xml version="1.0" encoding="UTF-8"?>
<svg version="1.1" viewBox="0 0 256 256" xmlns="http://www.w3.org/2000/svg">
 <rect transform="scale(1,-1)" x="128" y="-256" width="72" height="256" fill="#d88" style="paint-order:stroke fill markers"/>
 <path d="m192 232h8m-8-24h8m-8-24h8m0-24h-8m0-24h8m-8-24h8m-8-24h8m-8-24h8m-8-24h8m-8-24h8m-72 216h16m-16-24h16m-16-24h16m-16-24h16m-16-24h16m-16-48h16m-16-24h16m-16-48h16m-16 24h16m-16 72h16m16 120h16m-16-24h16m-16-24h16m-16-24h16m-16-24h16m-16-48h16m-16-24h16m-16-48h16m-16 24h16m-16 72h16m-32 132h16m-16-24h16m-16-24h16m-16-24h16m-16-24h16m-16-24h16m-16-48h16m-16-24h16m-16-48h16m-16 24h16m-16 72h16m32 156v-256m-16 0v256m-16 0v-256m-16 0v256m32-228.58h16m-16 24h16m-16 192h16m-16-24h16m-16-24h16m-16-24h16m-16-24h16m-16-24h16m-16-24h16m-16-24h16m-16-72h16" fill="none" stroke="#da7a7a" stroke-width="4"/>
 <rect transform="scale(1,-1)" x="120" y="-256" width="8" height="256" fill="#999" style="paint-order:stroke fill markers"/>
 <rect transform="scale(1,-1)" x="200" y="-256" width="8" height="256" fill="#999" style="paint-order:stroke fill markers"/>
 <rect transform="scale(1,-1)" x="112" y="-256" width="8" height="256" fill="#666" style="paint-order:stroke fill markers"/>
 <path d="m169.17 87.96a7.2127 7.1818 0 0 1 7.2127-7.1818 7.2127 7.1818 0 0 1 7.2127 7.1818 7.2127 7.1818 0 0 1-7.2127 7.1817 7.2127 7.1818 0 0 1-7.2127-7.1817zm-23.505 0.0013a7.2127 7.1818 0 0 1 7.2127-7.1817 7.2127 7.1818 0 0 1 7.2127 7.1817 7.2127 7.1818 0 0 1-7.2127 7.1817 7.2127 7.1818 0 0 1-7.2127-7.1817zm26.708 11.061-9.1161-11.022h-10.418l7.1626 11.022h12.372m-9.1161-11.022-3.2557 13.615m0 0-3.1735 8e-3m19.452-13.622-5.4271 16.089h-5.2092" fill="none" stroke="#fff" stroke-linecap="round" stroke-linejoin="round" stroke-width="2.8975" style="paint-order:normal"/>
 <path d="m155.25 128 12 16 12-16h-8v-8h-8v8z" fill="#fff"/>
 <rect x="1.8477e-6" y="1.3767e-6" width="112" height="256" fill="#808080" style="paint-order:stroke fill markers"/>
</svg>
