<?xml version="1.0" encoding="UTF-8" standalone="no"?>
<svg
   xmlns:dc="http://purl.org/dc/elements/1.1/"
   xmlns:cc="http://creativecommons.org/ns#"
   xmlns:rdf="http://www.w3.org/1999/02/22-rdf-syntax-ns#"
   xmlns:svg="http://www.w3.org/2000/svg"
   xmlns="http://www.w3.org/2000/svg"
   xmlns:sodipodi="http://sodipodi.sourceforge.net/DTD/sodipodi-0.dtd"
   xmlns:inkscape="http://www.inkscape.org/namespaces/inkscape"
   sodipodi:docname="unknown_l.svg"
   inkscape:version="1.0 (4035a4fb49, 2020-05-01)"
   id="svg1142"
   version="1.1"
   viewBox="0 0 256 256"
   height="256"
   width="256">
  <defs
     id="defs1136" />
  <sodipodi:namedview
     inkscape:window-maximized="0"
     inkscape:window-y="286"
     inkscape:window-x="286"
     inkscape:window-height="891"
     inkscape:window-width="1375"
     units="px"
     inkscape:pagecheckerboard="true"
     showgrid="true"
     inkscape:document-rotation="0"
     inkscape:current-layer="layer1"
     inkscape:document-units="px"
     inkscape:cy="13.935221"
     inkscape:cx="181.42736"
     inkscape:zoom="0.98994949"
     inkscape:pageshadow="2"
     inkscape:pageopacity="0.0"
     borderopacity="1.0"
     bordercolor="#666666"
     pagecolor="#ffffff"
     id="base">
    <inkscape:grid
       spacingy="4"
       spacingx="4"
       empspacing="4"
       id="grid1705"
       type="xygrid" />
  </sodipodi:namedview>
  <metadata
     id="metadata1139">
    <rdf:RDF>
      <cc:Work
         rdf:about="">
        <dc:format>image/svg+xml</dc:format>
        <dc:type
           rdf:resource="http://purl.org/dc/dcmitype/StillImage" />
        <dc:title></dc:title>
      </cc:Work>
    </rdf:RDF>
  </metadata>
  <g
     id="layer1"
     inkscape:groupmode="layer"
     inkscape:label="Layer 1">
    <path
       id="rect6925-2-3-4"
       d="M 112,255.99999 V -4.9694479e-6 h 3.99805 V 255.99609 h 8.0039 V -4.969448e-6 H 128 V 255.99999 Z"
       style="vector-effect:none;fill:#666666;fill-opacity:1;stroke:none;stroke-width:8.00001;stroke-linecap:butt;stroke-linejoin:miter;stroke-miterlimit:4;stroke-dasharray:24, 24;stroke-dashoffset:0;stroke-opacity:1;paint-order:stroke fill markers"
       inkscape:connector-curvature="0" />
    <path
       d="m 174.67082,113.25002 q 0,8.20313 -1.58203,13.00782 -1.64063,4.86327 -5.80078,9.2578 -4.39454,4.8633 -5.85938,7.96875 -1.46484,3.10549 -1.46484,6.26956 0,9.78512 6.32812,9.78512 2.8125,0 4.6875,-2.69529 1.875,-2.69534 1.99219,-7.26562 h 16.58203 q -0.1172,11.36716 -6.32812,17.63672 -6.26954,6.26951 -16.9336,6.26951 -10.89844,0 -16.93359,-6.09373 -6.03516,-6.03515 -6.03516,-16.93361 0,-9.02343 7.44141,-17.69529 l 4.86328,-5.50783 q 2.40234,-2.87108 3.39844,-5.97657 0.99609,-3.04686 1.11328,-8.02734 z m 1.52344,-17.929696 q 0,3.984378 -2.51954,6.503926 -2.57812,2.51951 -6.5039,2.51951 -4.04297,0 -6.5625,-2.57809 -2.51953,-2.519551 -2.51953,-6.445346 0,-3.867175 2.46094,-6.445304 2.46093,-2.57813 6.62109,-2.57813 4.10156,0 6.5625,2.57813 2.46094,2.578129 2.46094,6.445304 z"
       style="font-style:normal;font-variant:normal;font-weight:bold;font-stretch:normal;font-size:31.75px;line-height:6.61458px;font-family:'Roboto Condensed';-inkscape-font-specification:'Roboto Condensed, Bold';letter-spacing:0px;word-spacing:0px;fill:#666666;fill-opacity:1;stroke:#666666;stroke-width:3.99999;stroke-linecap:butt;stroke-linejoin:miter;stroke-miterlimit:4;stroke-dasharray:none;stroke-opacity:1"
       id="path4694-5"
       inkscape:connector-curvature="0" />
  </g>
</svg>
