<?xml version="1.0" encoding="UTF-8"?>
<svg version="1.1" viewBox="0 0 256 256" xmlns="http://www.w3.org/2000/svg">
 <g fill="#666">
  <path d="m158.23 142.75q0-8.2031 1.582-13.008 1.6406-4.8633 5.8008-9.2578 4.3945-4.8633 5.8594-7.9688 1.4648-3.1055 1.4648-6.2696 0-9.7851-6.3281-9.7851-2.8125 0-4.6875 2.6953-1.875 2.6953-1.9922 7.2656h-16.582q0.1172-11.367 6.3281-17.637 6.2695-6.2695 16.934-6.2695 10.898 0 16.934 6.0937 6.0352 6.0351 6.0352 16.934 0 9.0234-7.4414 17.695l-4.8633 5.5078q-2.4024 2.8711-3.3984 5.9766-0.99609 3.0469-1.1133 8.0273zm-1.5234 17.93q0-3.9844 2.5195-6.5039 2.5781-2.5195 6.5039-2.5195 4.043 0 6.5625 2.5781 2.5195 2.5196 2.5195 6.4454 0 3.8672-2.4609 6.4453-2.4609 2.5781-6.6211 2.5781-4.1016 0-6.5625-2.5781t-2.4609-6.4453z" stroke="#666" stroke-width="4"/>
  <path d="m112 4.7945e-6v256h3.998v-256h8.0039v256h3.998v-256z" style="paint-order:stroke fill markers"/>
 </g>
</svg>
