<?xml version="1.0" encoding="UTF-8"?>
<svg version="1.1" viewBox="0 0 128 128" xmlns="http://www.w3.org/2000/svg">
 <path d="m47.717 61.383s0.07595-22.59 0-22.659c-0.89478-0.81261-6.1797-4.6643-8.6768 1.3812l-0.09641 41.465c-0.10758 6.1073 3.411 24.993 24.296 25.287 22.1 0.31081 23.389-23.301 23.427-23.587 0.08959-0.67731-2.0389-24.889 2.4843-34.657 0 0-11.811-7.7193-14.149 12.665l-9.38e-4 -29.778s-3.0851-7.1187-9.0624-1.0625m-9.7375-1.7001s-4.8204-5.5249-8.484 0.31874v10.944m18.028 17.771-0.1918-35.409s-4.4348-6.3749-9.0624 0v36.046" fill="none" stroke="#333" stroke-linecap="round" stroke-linejoin="round" stroke-width="5"/>
 <path d="m103.96 104c21.719-21.444 20.947-58.758 0-80m-3.9603 16c11.317 10.743 10.021 36.989 0 48m-75.96 16c-21.719-21.444-20.947-58.758 0-80m3.9603 16c-11.317 10.743-10.021 36.989 0 48" fill="none" stroke="#333" stroke-linecap="round" stroke-width="5"/>
</svg>
