<?xml version="1.0" encoding="UTF-8" standalone="no"?>
<!-- Generator: Adobe Illustrator 13.0.0, SVG Export Plug-In  -->

<svg
   xmlns:dc="http://purl.org/dc/elements/1.1/"
   xmlns:cc="http://creativecommons.org/ns#"
   xmlns:rdf="http://www.w3.org/1999/02/22-rdf-syntax-ns#"
   xmlns:svg="http://www.w3.org/2000/svg"
   xmlns="http://www.w3.org/2000/svg"
   xmlns:sodipodi="http://sodipodi.sourceforge.net/DTD/sodipodi-0.dtd"
   xmlns:inkscape="http://www.inkscape.org/namespaces/inkscape"
   version="1.1"
   x="0px"
   y="0px"
   width="442.32794"
   height="294.94955"
   viewBox="-0.451 -0.943 442.32793 294.94955"
   enable-background="new -0.451 -0.943 370 828"
   xml:space="preserve"
   id="svg2"
   inkscape:version="0.48.2 r9819"
   sodipodi:docname="AJAX1.svg"><metadata
   id="metadata48"><rdf:RDF><cc:Work
       rdf:about=""><dc:format>image/svg+xml</dc:format><dc:type
         rdf:resource="http://purl.org/dc/dcmitype/StillImage" /><dc:title /></cc:Work></rdf:RDF></metadata><sodipodi:namedview
   pagecolor="#ffffff"
   bordercolor="#666666"
   borderopacity="1"
   objecttolerance="10"
   gridtolerance="10"
   guidetolerance="10"
   inkscape:pageopacity="0"
   inkscape:pageshadow="2"
   inkscape:window-width="1280"
   inkscape:window-height="1004"
   id="namedview46"
   showgrid="false"
   fit-margin-top="0"
   fit-margin-left="0"
   fit-margin-right="0"
   fit-margin-bottom="0"
   inkscape:zoom="1.6123401"
   inkscape:cx="222.14148"
   inkscape:cy="104.9014"
   inkscape:window-x="-8"
   inkscape:window-y="-8"
   inkscape:window-maximized="1"
   inkscape:current-layer="svg2" />
<defs
   id="defs4">
</defs>




















<path
   inkscape:connector-curvature="0"
   d="m 29.135851,-0.943 383.149749,0 c 16.27724,0 29.59133,13.314083 29.59133,29.586852 l 0,235.771358 c 0,16.27724 -13.31409,29.59133 -29.59133,29.59133 l -383.149749,0 c -16.272769,0 -29.58685362,-13.31409 -29.58685362,-29.59133 l 0,-235.771358 C -0.45100262,12.371083 12.863082,-0.943 29.135851,-0.943"
   style="fill:#fee011;fill-opacity:1;fill-rule:evenodd;stroke:none"
   id="path3119" /><path
   inkscape:connector-curvature="0"
   d="m 28.94757,5.0505791 383.52632,0 c 12.97787,0 23.59774,10.6198869 23.59774,23.5977549 l 0,235.955136 c 0,12.97789 -10.61987,23.59776 -23.59774,23.59776 l -383.52632,0 c -12.977869,0 -23.5977561,-10.61987 -23.5977561,-23.59776 l 0,-235.955136 c 0,-12.977868 10.6198871,-23.5977549 23.5977561,-23.5977549"
   style="fill:#000000;fill-opacity:1;fill-rule:evenodd;stroke:none"
   id="path3123" /><path
   inkscape:connector-curvature="0"
   d="m 28.94757,16.849457 383.52632,0 c 6.49117,0 11.79886,5.307702 11.79886,11.798877 l 0,235.959636 c 0,6.4867 -5.30769,11.79438 -11.79886,11.79438 l -383.52632,0 c -6.491175,0 -11.798877,-5.30768 -11.798877,-11.79438 l 0,-235.959636 c 0,-6.491175 5.307702,-11.798877 11.798877,-11.798877"
   style="fill:#fee011;fill-opacity:1;fill-rule:evenodd;stroke:none"
   id="path3127" /><path
   inkscape:connector-curvature="0"
   d="m 124.15896,252.80461 0,-45.49203 9.36468,-3.64905 0,23.77707 9.36021,-11.49852 11.83474,0 -10.02815,12.27405 10.02815,24.58848 -9.65608,0 -6.8229,-16.77486 -4.71597,6.11911 0,10.65575 -9.36468,0"
   style="fill:#000000;fill-opacity:1;fill-rule:nonzero;stroke:none"
   id="path3131" /><path
   inkscape:connector-curvature="0"
   d="m 169.68685,252.80461 0,-36.86253 9.28847,0 0,2.09797 c 0.43932,-0.26897 0.94589,-0.52001 1.53762,-0.7576 0.58277,-0.24638 1.21037,-0.4707 1.87832,-0.67243 0.66346,-0.2019 1.33589,-0.38104 2.00384,-0.52898 0.66794,-0.14775 1.30451,-0.2643 1.90073,-0.34966 0.59174,-0.0807 1.11623,-0.12085 1.56452,-0.12085 1.40313,-0.007 2.68971,0.1388 3.87318,0.43484 1.17899,0.29586 2.25936,0.76656 3.24111,1.42554 0.98174,0.65898 1.8828,1.52417 2.68971,2.60006 0.55139,-0.66346 1.18796,-1.24175 1.92315,-1.73935 0.73967,-0.4976 1.52417,-0.9145 2.36695,-1.26865 0.84277,-0.34966 1.69451,-0.62311 2.56419,-0.83829 0.86519,-0.21517 1.699,-0.37208 2.49695,-0.46622 0.80691,-0.0986 1.53314,-0.14776 2.18763,-0.14776 1.10279,0.004 2.17867,0.17467 3.23214,0.52002 1.05347,0.34966 2.05763,0.82484 3.01248,1.43899 0.95933,0.60967 1.82901,1.31348 2.63592,2.12039 0.79795,0.79795 1.49279,1.66314 2.08005,2.58661 0.59173,0.92795 1.05347,1.87384 1.37623,2.84213 0.32707,0.97278 0.48864,1.93211 0.49312,2.878 l 0,24.80811 -9.51262,0 0,-22.56221 c -0.004,-1.09381 -0.27328,-2.05764 -0.80243,-2.89144 -0.52898,-0.84277 -1.25969,-1.50175 -2.20109,-1.98142 -0.93243,-0.47518 -2.02176,-0.72174 -3.25903,-0.7307 -1.00416,0.007 -1.88729,0.19294 -2.64937,0.54691 -0.76209,0.35862 -1.40314,0.83829 -1.91866,1.45244 -0.51553,0.60519 -0.90106,1.29554 -1.16106,2.06212 -0.26431,0.76208 -0.3945,1.56004 -0.3945,2.38936 l 0,21.71494 -8.51294,0 0,-21.71494 c 0,-0.82036 -0.15242,-1.62728 -0.44829,-2.41626 -0.29586,-0.80245 -0.72622,-1.51969 -1.28657,-2.16971 -0.55588,-0.65449 -1.23279,-1.1745 -2.02625,-1.56451 -0.79796,-0.38553 -1.69004,-0.58726 -2.68972,-0.59174 -0.77553,0.004 -1.48831,0.12552 -2.13384,0.38104 -0.64553,0.24208 -1.21485,0.57381 -1.72142,0.9952 -0.50207,0.4169 -0.92346,0.87864 -1.27761,1.39417 -0.3407,0.51552 -0.60519,1.03554 -0.78898,1.57797 -0.17933,0.53793 -0.27364,1.05795 -0.27364,1.54657 l 0,22.56221 -9.28848,0"
   style="fill:#000000;fill-opacity:1;fill-rule:nonzero;stroke:none"
   id="path3135" /><path
   inkscape:connector-curvature="0"
   d="m 286.33078,252.80461 0,-45.30375 9.28847,-3.83733 0,15.00412 c 0.76209,-0.71725 1.53313,-1.29106 2.32213,-1.70797 0.78898,-0.4169 1.56899,-0.71725 2.35349,-0.9145 0.78002,-0.19294 1.54209,-0.3138 2.28177,-0.36759 0.74415,-0.0491 1.44796,-0.076 2.11142,-0.0671 0.92348,0 1.86936,0.14776 2.83766,0.43484 0.97278,0.2869 1.92314,0.71277 2.86454,1.26416 0.93244,0.54691 1.82005,1.22382 2.64041,2.01729 0.8338,0.7845 1.55556,1.69004 2.18764,2.69419 0.63655,1.00416 1.13416,2.11143 1.49278,3.30835 0.35863,1.19692 0.54243,2.48351 0.54691,3.8463 l 0,23.62914 -9.40056,0 0,-20.53149 c -0.005,-0.9414 -0.15681,-1.82453 -0.45276,-2.66282 -0.29587,-0.8338 -0.69484,-1.57795 -1.19245,-2.22798 -0.49758,-0.65898 -1.04899,-1.17451 -1.66312,-1.56003 -0.61416,-0.38105 -1.24176,-0.59174 -1.8873,-0.6276 -1.36277,0 -2.50592,0.13017 -3.41593,0.39897 -0.91001,0.26897 -1.63624,0.69484 -2.16521,1.27313 -0.53347,0.58277 -0.90556,1.33142 -1.13416,2.25937 -0.21949,0.93244 -0.33175,2.05314 -0.32708,3.36663 l 0,20.31182 -9.28847,0"
   style="fill:#000000;fill-opacity:1;fill-rule:nonzero;stroke:none"
   id="path3139" /><path
   inkscape:connector-curvature="0"
   d="m 239.13974,266.66559 35.39216,-61.04753 -8.79984,0 -35.39216,61.04753 8.79984,0"
   style="fill:#000000;fill-opacity:1;fill-rule:evenodd;stroke:none"
   id="path3143" /><path
   inkscape:connector-curvature="0"
   d="m 126.35107,101.03302 c 1.7259,-0.59622 3.64905,-1.192443 5.84116,-1.770731 2.16522,-0.596219 4.4201,-1.102783 6.74222,-1.591414 2.34453,-0.466216 4.62631,-0.838293 6.83635,-1.12968 2.23247,-0.264308 4.24527,-0.416906 6.06083,-0.416906 4.09284,0 8.22604,0.331732 12.43096,0.995195 4.17802,0.685878 8.24845,1.7259 12.22923,3.137996 3.96285,1.39417 7.65224,3.20973 11.10404,5.37495 3.45179,2.19211 6.48221,4.80114 9.09123,7.80913 2.60902,3.008 4.64424,6.4598 6.12806,10.35092 1.45693,3.89112 2.21005,8.24845 2.23247,13.07201 -0.0215,4.80114 -0.77554,9.13606 -2.27729,13.00477 -1.48383,3.87318 -3.54146,7.29808 -6.1729,10.28815 -2.63143,2.98558 -5.68426,5.57219 -9.15399,7.73741 -3.4518,2.1697 -7.16809,3.96285 -11.12645,5.35253 -3.98078,1.39417 -8.05121,2.43419 -12.2113,3.09765 -4.15561,0.66347 -8.24846,0.9952 -12.27406,0.9952 -5.61702,0 -11.0368,-0.64105 -16.21449,-1.90073 -5.19563,-1.2821 -9.97436,-3.1649 -14.37652,-5.68426 -4.40217,-2.52385 -8.24846,-5.68427 -11.52095,-9.44538 -3.29938,-3.76112 -5.84116,-8.14087 -7.65671,-13.13926 -1.83349,-4.99838 -2.761443,-10.59298 -2.783855,-16.81071 0.0215,-10.92472 1.394165,-20.96631 4.115265,-30.12479 2.71661,-9.153994 6.58979,-17.317276 11.65542,-24.503293 5.06563,-7.190502 11.10404,-13.273739 18.17798,-18.272125 7.05602,-4.998385 14.9324,-8.804328 23.64707,-11.413351 8.71467,-2.609024 18.09281,-3.913533 28.13441,-3.935948 l 0,23.620171 c -1.99039,-0.26431 -3.98078,-0.394491 -5.97117,-0.394491 -4.37975,0.0215 -8.73708,0.618633 -13.09442,1.788658 -4.33492,1.174509 -8.53984,2.833165 -12.61028,4.998385 -4.04353,2.169702 -7.82706,4.711483 -11.32369,7.674651 -3.49215,2.96765 -6.5898,6.240137 -9.26607,9.821938 -2.67626,3.581803 -4.80113,7.387747 -6.39255,11.413355 z m 26.673,52.81701 c 3.91801,0.0215 7.58947,-0.19724 11.03679,-0.68588 3.4518,-0.46173 6.48221,-1.30451 9.13606,-2.54177 2.65385,-1.21486 4.7339,-2.94076 6.25807,-5.1777 1.52865,-2.23247 2.30419,-5.08356 2.36695,-8.58019 -0.0215,-3.42939 -0.79347,-6.28048 -2.32212,-8.51295 -1.50176,-2.25936 -3.60422,-4.00767 -6.25807,-5.28977 -2.65385,-1.28209 -5.70668,-2.16522 -9.15848,-2.69868 -3.46973,-0.52897 -7.14119,-0.77105 -11.0592,-0.74863 -4.02561,-0.0215 -7.75983,0.26467 -11.18921,0.86071 -3.42939,0.59622 -6.41497,1.54658 -8.97916,2.87351 -2.56868,1.34934 -4.55907,3.12007 -5.99807,5.33011 -1.43451,2.21453 -2.16522,4.93563 -2.23246,8.1857 0.0215,3.12007 0.75312,5.7515 2.19212,7.91672 1.4121,2.16971 3.4249,3.91802 5.99358,5.24494 2.56419,1.34934 5.57219,2.32212 9.00157,2.91835 3.4518,0.61863 7.18602,0.90553 11.21163,0.90553"
   style="fill:#000000;fill-opacity:1;fill-rule:nonzero;stroke:none"
   id="path3147" /><path
   inkscape:connector-curvature="0"
   d="m 287.19597,154.119 c 4.49182,-0.0215 8.45018,-0.79795 11.91992,-2.34453 3.47421,-1.52417 6.45978,-3.69388 8.98364,-6.50463 2.51936,-2.78385 4.577,-6.10116 6.19082,-9.90711 1.61382,-3.78353 2.81075,-7.96155 3.60421,-12.52062 0.77554,-4.53216 1.15211,-9.3333 1.15211,-14.37652 0,-5.06562 -0.399,-9.86228 -1.21486,-14.421346 -0.79796,-4.554581 -2.03521,-8.737086 -3.69388,-12.538549 -1.64073,-3.805945 -3.73871,-7.100845 -6.26255,-9.88918 -2.54178,-2.783856 -5.52737,-4.953558 -8.95674,-6.477729 -3.42939,-1.528654 -7.34292,-2.304187 -11.72267,-2.326602 -4.37975,0.0215 -8.27088,0.797948 -11.72267,2.326602 -3.42939,1.524171 -6.41497,3.693873 -8.93434,6.477729 -2.54626,2.788335 -4.6263,6.083235 -6.28497,9.88918 -1.65865,3.801463 -2.89592,7.983968 -3.69386,12.538549 -0.81589,4.559066 -1.21486,9.355726 -1.21486,14.421346 0,5.04322 0.37655,9.84436 1.15209,14.37652 0.79348,4.55907 1.99039,8.73709 3.60421,12.52062 1.61384,3.80595 3.67146,7.12326 6.19084,9.90711 2.52383,2.81075 5.50943,4.98046 8.98364,6.50463 3.46974,1.54658 7.4281,2.32212 11.91992,2.34453 z m 0,23.22568 c -7.71949,-0.0215 -14.55585,-1.21933 -20.54942,-3.51904 -5.97117,-2.32212 -11.12197,-5.57219 -15.4793,-9.79952 -4.3394,-4.20044 -7.89879,-9.17641 -10.68714,-14.92792 -2.80625,-5.72909 -4.86389,-12.03198 -6.21324,-18.89075 -1.34933,-6.8767 -2.01279,-14.11204 -2.01279,-21.74186 0,-7.62982 0.68588,-14.860665 2.10246,-21.74185 1.39415,-6.876701 3.51456,-13.202013 6.39254,-18.931103 2.8511,-5.751504 6.45531,-10.749889 10.83508,-14.977223 4.35733,-4.22285 9.51262,-7.495336 15.41654,-9.817456 5.93082,-2.322119 12.65062,-3.496628 20.19527,-3.541456 7.54017,0.04483 14.26445,1.219337 20.19525,3.541456 5.92635,2.32212 11.05921,5.594606 15.43898,9.817456 4.35733,4.227334 7.96154,9.225719 10.81264,14.977223 2.878,5.72909 4.99838,12.054402 6.39256,18.931103 1.41658,6.881185 2.10246,14.11203 2.10246,21.74185 0,7.62982 -0.66346,14.86516 -2.01281,21.74186 -1.32693,6.85877 -3.40697,13.16166 -6.19082,18.89075 -2.81075,5.75151 -6.37014,10.72748 -10.70954,14.92792 -4.33492,4.22733 -9.50815,7.4774 -15.4793,9.79952 -5.97565,2.29971 -12.82995,3.49663 -20.54942,3.51904"
   style="fill:#000000;fill-opacity:1;fill-rule:nonzero;stroke:none"
   id="path3151" /></svg>