<?xml version="1.0" encoding="UTF-8" standalone="no"?>
<svg
   xmlns:dc="http://purl.org/dc/elements/1.1/"
   xmlns:cc="http://creativecommons.org/ns#"
   xmlns:rdf="http://www.w3.org/1999/02/22-rdf-syntax-ns#"
   xmlns:svg="http://www.w3.org/2000/svg"
   xmlns="http://www.w3.org/2000/svg"
   viewBox="0 0 471.435 471.435"
   height="471.435"
   width="471.435"
   xml:space="preserve"
   version="1.1"
   id="svg4153"><metadata
     id="metadata4159"><rdf:RDF><cc:Work
         rdf:about=""><dc:format>image/svg+xml</dc:format><dc:type
           rdf:resource="http://purl.org/dc/dcmitype/StillImage" /><dc:title></dc:title></cc:Work></rdf:RDF></metadata><defs
     id="defs4157" /><g
     transform="matrix(1.25,0,0,-1.25,0,471.43501)"
     id="g4161"><g
       id="g4163"><path
         id="path4165"
         style="fill:#ffffff;fill-opacity:1;fill-rule:nonzero;stroke:none"
         d="m 25.469,0.371 c -13.856,0 -25.09,11.242 -25.09,25.097 l 0,326.211 c 0,13.856 11.234,25.09 25.09,25.09 l 326.211,0 c 13.855,0 25.097,-11.234 25.097,-25.09 l 0,-326.211 c 0,-13.855 -11.242,-25.097 -25.097,-25.097" /><path
         id="path4167"
         style="fill:#000000;fill-opacity:1;fill-rule:nonzero;stroke:none"
         d="m 0.75,25.468 0,326.211 c 0,13.629 11.09,24.719 24.719,24.719 l 326.211,0 c 13.625,0 24.718,-11.09 24.718,-24.719 l 0,-326.211 C 376.398,11.843 365.305,0.75 351.68,0.75 l -326.211,0 C 11.84,0.75 0.75,11.843 0.75,25.468 Z m 24.719,351.68 C 11.422,377.148 0,365.726 0,351.679 L 0,25.468 C 0,11.433 11.422,0 25.469,0 L 351.68,0 c 14.035,0 25.468,11.433 25.468,25.468 l 0,326.211 c 0,14.047 -11.433,25.469 -25.468,25.469" /><path
         id="path4169"
         style="fill:#154889;fill-opacity:1;fill-rule:nonzero;stroke:none"
         d="m 25.852,9.398 c -8.668,0 -15.684,7.035 -15.684,15.691 l 0,326.207 c 0,8.668 7.016,15.684 15.684,15.684 l 326.207,0 c 8.656,0 15.679,-7.016 15.679,-15.684 l 0,-326.207 c 0,-8.656 -7.023,-15.691 -15.679,-15.691" /><path
         id="path4171"
         style="fill:#ffffff;fill-opacity:1;fill-rule:nonzero;stroke:none"
         d="m 228.988,146.476 c 0,-14.879 12.051,-26.941 26.942,-26.941 14.875,0 26.933,12.062 26.933,26.941 l 0,84.184 c 0,14.883 -12.058,26.941 -26.933,26.941 -14.891,0 -26.942,-12.058 -26.942,-26.941 l 0,-84.184 z m -26.941,0 0,84.184 c 0,29.765 24.117,53.886 53.883,53.886 29.746,0 53.867,-24.121 53.867,-53.886 l 0,-84.184 c 0,-29.754 -24.121,-53.883 -53.867,-53.883 -29.766,0 -53.883,24.129 -53.883,53.883 z M 97.66,230.66 c 0,-14.871 12.059,-26.934 26.93,-26.934 14.883,0 26.945,12.063 26.945,26.934 0,14.883 -12.062,26.941 -26.945,26.941 -14.871,0 -26.93,-12.058 -26.93,-26.941 z m -3.375,-80.817 c 0,-16.738 13.57,-30.308 30.305,-30.308 16.746,0 30.308,13.57 30.308,30.308 0,16.746 -13.562,30.305 -30.308,30.305 -16.735,0 -30.305,-13.559 -30.305,-30.305 z m -5.019,42.52 c -11.715,9.254 -18.551,23.367 -18.551,38.297 0,29.765 24.121,53.886 53.875,53.886 29.758,0 53.887,-24.121 53.887,-53.886 0,-14.93 -6.832,-29.043 -18.551,-38.297 13.75,-9.789 21.914,-25.633 21.914,-42.52 0,-31.621 -25.629,-57.242 -57.25,-57.242 -31.606,0 -57.238,25.621 -57.238,57.242 0,16.887 8.164,32.731 21.914,42.52" /></g></g></svg>