<?xml version="1.0" encoding="UTF-8" standalone="no"?>
<!-- Created with Inkscape (http://www.inkscape.org/) -->

<svg
   xmlns:dc="http://purl.org/dc/elements/1.1/"
   xmlns:cc="http://creativecommons.org/ns#"
   xmlns:rdf="http://www.w3.org/1999/02/22-rdf-syntax-ns#"
   xmlns:svg="http://www.w3.org/2000/svg"
   xmlns="http://www.w3.org/2000/svg"
   xmlns:inkscape="http://www.inkscape.org/namespaces/inkscape"
   version="1.1"
   width="375.63"
   height="136.88"
   id="svg2"
   xml:space="preserve"><defs
     id="defs26" /><metadata
     id="metadata8"><rdf:RDF><cc:Work
         rdf:about=""><dc:format>image/svg+xml</dc:format><dc:type
           rdf:resource="http://purl.org/dc/dcmitype/StillImage" /></cc:Work></rdf:RDF></metadata><g
     transform="matrix(1.25,0,0,-1.25,-191.53,569.66)"
     id="g10"><g
       transform="scale(0.1,0.1)"
       id="g12"><path
         d="m 4537.2,3598.2 c 0.1,-75.21 -60.68,-135.99 -136,-136 h -2733 c -74.82,0.01 -135.6,60.79 -136,136 v 824 c 0.4,74.71 61.18,135.49 136,135 h 2733 c 75.32,0.49 136.1,-60.29 136,-135 v -824"
         inkscape:connector-curvature="0"
         id="path14" /><path
         d="m 4467.2,3598.2 c -0.39,-36.29 -29.61,-65.5 -66,-65 h -2733 c -35.89,-0.5 -65.11,28.71 -65,65 v 824 c -0.11,35.79 29.11,65 65,65 h 2733 c 36.39,0 65.61,-29.21 66,-65 v -824"
         inkscape:connector-curvature="0"
         id="path16"
         style="fill:#ffffff" /><path
         d="m 1901.2,4079.2 v 253 h 67 l 61,-86 56,86 h 69 v -253 h -49 v 185 l -76,-108 -78,108 v -185 h -50"
         inkscape:connector-curvature="0"
         id="path18" /><path
         d="m 2272.2,4074.2 c -39.88,0.48 -63.21,22.72 -63,58 -0.21,30.39 18.45,63.05 106,63 v 10 c 0.02,10.87 -10.75,17.68 -27,18 -14.25,-0.32 -37.94,-8.57 -55,-19 l -23,36 c 12.43,9.24 43.65,26.82 77,27 50.63,-0.18 76.82,-19.55 77,-55 v -75 c -0.18,-16.59 4.13,-21.25 21,-24 l -17,-38 c -8.48,-0.16 -32.53,3.06 -45,18 -15.88,-14.94 -30.95,-18.52 -51,-19"
         inkscape:connector-curvature="0"
         id="path20" /><path
         d="m 2287.2,4115.2 c 20.48,0.03 29.45,5.77 29,21 v 23 l -37,-6 c -15.66,-2.09 -18.89,-10.7 -19,-21 0.11,-11.59 7.29,-16.97 27,-17"
         inkscape:connector-curvature="0"
         id="path22"
         style="fill:#ffffff" /><path
         d="m 2465.2,4176.2 -56,85 h 53 l 30,-44 27,44 h 56 l -55,-85 63,-97 h -54 l -37,56 -36,-56 h -54 l 63,97"
         inkscape:connector-curvature="0"
         id="path24" /><path
         d="m 1805.2,3831.2 30,-4 c 32.29,-4.77 51.3,-27.02 51,-55 0.3,-36.98 -30.2,-62.45 -74,-62 -37.3,-0.45 -62.78,8.87 -87,33 l 36,31 c 14.78,-14.57 31.29,-23.19 49,-23 14.22,-0.19 25.71,5.91 26,15 -0.29,7.78 -7.83,14.96 -23,18 l -31,6 c -28.47,5.31 -44.98,26.48 -45,51 0.02,36.85 28.37,60.18 75,60 25.5,0.18 47.03,-4.13 72,-27 l -31,-32 c -12.27,14.32 -25.55,18.98 -42,19 -14.05,-0.02 -23.74,-7.91 -24,-17 0.26,-5.98 3.49,-11.37 18,-13"
         inkscape:connector-curvature="0"
         id="path26" /><path
         d="m 2100.2,3805.2 c 0.19,-53.83 -30.68,-92.23 -78,-92 -24.45,-0.23 -28.04,2.29 -50,17 v -68 h -48 v 237 h 48 v -10 c 15.14,12.89 24.84,18.28 46,18 53.84,0.28 82.19,-40.27 82,-102"
         inkscape:connector-curvature="0"
         id="path28" /><path
         d="m 1972.2,3791.2 c -0.29,-19.01 20.89,-35.52 40,-36 27.54,0.48 37.95,22.01 38,54 -0.05,34.04 -10.46,54.14 -40,54 -35.05,0.14 -38.29,-31.08 -38,-44 v -28"
         inkscape:connector-curvature="0"
         id="path30"
         style="fill:#ffffff" /><path
         d="m 2267.2,3774.2 29,-32 c -23.73,-20.97 -39.17,-29.94 -72,-30 -56.52,0.06 -90.97,41.68 -91,97 0.03,49.83 31.96,93.25 81,93 53.6,0.25 86.61,-39.58 87,-99 v -13 h -120 c 0.83,-20.52 19.85,-35.6 44,-36 13.53,0.4 21.07,2.55 42,20"
         inkscape:connector-curvature="0"
         id="path32" /><path
         d="m 2181.2,3827.2 h 73 c -0.75,18.2 -18.7,34.34 -37,34 -17.94,0.34 -33.37,-14.01 -36,-34"
         inkscape:connector-curvature="0"
         id="path34"
         style="fill:#ffffff" /><path
         d="m 2466.2,3774.2 29,-32 c -23.14,-20.97 -38.57,-29.94 -72,-30 -55.93,0.06 -90.38,41.68 -90,97 -0.38,49.83 31.56,93.25 81,93 53.19,0.25 86.21,-39.58 86,-99 v -13 h -120 c 1.43,-20.52 20.45,-35.6 44,-36 14.13,0.4 21.66,2.55 42,20"
         inkscape:connector-curvature="0"
         id="path36" /><path
         d="m 2380.2,3827.2 h 74 c -1.16,18.2 -19.11,34.34 -37,34 -18.35,0.34 -33.78,-14.01 -37,-34"
         inkscape:connector-curvature="0"
         id="path38"
         style="fill:#ffffff" /><path
         d="m 2530.2,3806.2 c 0.42,52.47 26.61,98.05 80,98 18.39,0.05 30.59,-2.46 50,-15 v 80 h 49 v -253 h -49 v 11 c -15.82,-13.15 -30.89,-15.3 -52,-15 -49.95,-0.3 -77.58,37.38 -78,94"
         inkscape:connector-curvature="0"
         id="path40" /><path
         d="m 2622.2,3755.2 c 24.69,0.12 38.32,13.76 38,39 v 28 c 0.32,21.76 -14.39,38.63 -37,39 -29.06,-0.37 -43.42,-22.27 -43,-53 -0.42,-32.78 13.94,-52.88 42,-53"
         inkscape:connector-curvature="0"
         id="path42"
         style="fill:#ffffff" /><path
         d="m 2947.2,3863.2 158,27 c 5.42,-83.11 74.57,-122.33 142,-122 70.86,-0.33 112.15,36.82 112,99 0.15,60.64 -34.94,90.57 -108,91 h -70 v 132 c 171.95,-0.33 172,79 172,79 -0.05,58.97 -43.39,93.03 -122,93 -70.01,0.03 -115.42,-25.77 -127,-117 l -155,23 c 19,139.44 136.65,224.07 285,224 160.23,0.07 266.54,-95.91 267,-215 -0.46,-42.95 -2.53,-114.16 -79,-152 84.73,-43.69 80.6,-86.01 81,-162 -0.4,-146.93 -69.55,-231.56 -272,-232 -163.93,0.44 -259.91,77.84 -284,232"
         inkscape:connector-curvature="0"
         id="path44" /><path
         d="m 3979.2,3627.2 c -204.59,0.31 -307.8,132.42 -308,377 0.2,257 107.54,381.87 307,382 209.23,-0.13 308.31,-135.33 308,-381 0.31,-243.52 -100.83,-377.69 -307,-378"
         inkscape:connector-curvature="0"
         id="path46" /><path
         d="m 3980.2,4248.2 c -108.58,-0.42 -156.05,-79.89 -156,-242 -0.05,-150.6 50.52,-240.39 156,-240 106.09,-0.39 154.6,80.11 155,240 -0.4,156.95 -48.91,241.58 -155,242"
         inkscape:connector-curvature="0"
         id="path48"
         style="fill:#ffffff" /></g></g></svg>