<?xml version="1.0" encoding="UTF-8" standalone="no"?>
<!-- Created with Inkscape (http://www.inkscape.org/) -->

<svg
   xmlns:dc="http://purl.org/dc/elements/1.1/"
   xmlns:cc="http://creativecommons.org/ns#"
   xmlns:rdf="http://www.w3.org/1999/02/22-rdf-syntax-ns#"
   xmlns:svg="http://www.w3.org/2000/svg"
   xmlns="http://www.w3.org/2000/svg"
   xmlns:sodipodi="http://sodipodi.sourceforge.net/DTD/sodipodi-0.dtd"
   xmlns:inkscape="http://www.inkscape.org/namespaces/inkscape"
   width="750"
   height="500"
   id="svg2"
   version="1.1"
   inkscape:version="0.48.5 r10040"
   sodipodi:docname="Philippines road sign W8-1.svg">
  <defs
     id="defs4" />
  <sodipodi:namedview
     id="base"
     pagecolor="#ffffff"
     bordercolor="#666666"
     borderopacity="1.0"
     inkscape:pageopacity="0.0"
     inkscape:pageshadow="2"
     inkscape:zoom="0.65337829"
     inkscape:cx="476.69993"
     inkscape:cy="238.70171"
     inkscape:document-units="px"
     inkscape:current-layer="layer1"
     showgrid="false"
     fit-margin-top="0"
     fit-margin-left="0"
     fit-margin-right="0"
     fit-margin-bottom="0"
     inkscape:window-width="1024"
     inkscape:window-height="578"
     inkscape:window-x="-8"
     inkscape:window-y="-8"
     inkscape:window-maximized="1" />
  <metadata
     id="metadata7">
    <rdf:RDF>
      <cc:Work
         rdf:about="">
        <dc:format>image/svg+xml</dc:format>
        <dc:type
           rdf:resource="http://purl.org/dc/dcmitype/StillImage" />
        <dc:title></dc:title>
      </cc:Work>
    </rdf:RDF>
  </metadata>
  <g
     inkscape:label="Layer 1"
     inkscape:groupmode="layer"
     id="layer1"
     transform="translate(-53.785706,-10.005035)">
    <rect
       style="fill:#ffffff;fill-opacity:1;fill-rule:nonzero;stroke:#000000;stroke-width:0.99999994;stroke-opacity:1"
       id="rect2985"
       width="749"
       height="499"
       x="-803.28571"
       y="-509.50504"
       transform="scale(-1,-1)"
       rx="55"
       ry="55" />
    <path
       inkscape:connector-curvature="0"
       style="fill:#000000;fill-opacity:1;fill-rule:nonzero;stroke:none"
       d="m 108.78571,20.005035 c -24.930004,0 -45.000004,20.07 -45.000004,45 l 0,390.000005 c 0,24.93 20.07,45 45.000004,45 l 640,0 c 24.93,0 45,-20.07 45,-45 l 0,-390.000005 c 0,-24.93 -20.07,-45 -45,-45 l -640,0 z m 0,20 640,0 c 13.85,0 25,11.15 25,25 l 0,390.000005 c 0,13.85 -11.15,25 -25,25 l -640,0 c -13.850004,0 -25.000004,-11.15 -25.000004,-25 l 0,-390.000005 c 0,-13.85 11.15,-25 25.000004,-25 z"
       id="rect3755" />
    <text
       xml:space="preserve"
       style="font-size:40px;font-style:normal;font-variant:normal;font-weight:normal;font-stretch:normal;text-align:center;line-height:125%;letter-spacing:0px;word-spacing:0px;writing-mode:lr-tb;text-anchor:middle;fill:#000000;fill-opacity:1;stroke:none;font-family:Overpass;-inkscape-font-specification:Overpass"
       x="160.70323"
       y="147.98341"
       id="text3771"
       sodipodi:linespacing="125%"
       transform="translate(53.785706,10.005035)"><tspan
         sodipodi:role="line"
         id="tspan3773"
         x="160.70323"
         y="147.98341" /></text>
    <path
       inkscape:connector-curvature="0"
       id="path4401"
       style="font-size:103.68797302px;font-style:normal;font-variant:normal;font-weight:normal;font-stretch:normal;text-align:center;line-height:125%;letter-spacing:0px;word-spacing:0px;writing-mode:lr-tb;text-anchor:middle;fill:#000000;fill-opacity:1;stroke:none;font-family:Roadgeek 2005 Blend E5WR;-inkscape-font-specification:Roadgeek 2005 Blend E5WR"
       d="m 326.34167,427.66632 15.76037,0 -20.73733,-34.52765 19.3894,-23.95161 -16.2788,0 -19.18203,24.67742 -0.20737,0 0,-43.85945 -13.68664,0 0,77.66129 13.58295,0 0,-18.45622 6.73964,-7.46544 z" />
    <path
       inkscape:connector-curvature="0"
       id="path4403"
       style="font-size:103.68797302px;font-style:normal;font-variant:normal;font-weight:normal;font-stretch:normal;text-align:center;line-height:125%;letter-spacing:0px;word-spacing:0px;writing-mode:lr-tb;text-anchor:middle;fill:#000000;fill-opacity:1;stroke:none;font-family:Roadgeek 2005 Blend E5WR;-inkscape-font-specification:Roadgeek 2005 Blend E5WR"
       d="m 424.21298,427.66632 13.58295,0 0,-35.77189 c 0.0669,-7.75269 -1.51867,-13.6585 -4.75663,-17.71745 -3.23813,-4.05885 -8.53047,-6.10234 -15.87701,-6.13048 -3.65935,-0.0475 -6.89092,0.5401 -9.69471,1.76268 -2.80392,1.22269 -5.30967,3.36555 -7.51728,6.42857 -1.46246,-2.92693 -3.46275,-5.03091 -6.00086,-6.31193 -2.53821,-1.2809 -5.54944,-1.90734 -9.0337,-1.87932 -3.94013,0.0174 -7.07665,0.70859 -9.40956,2.07374 -2.33298,1.36526 -4.17342,3.30074 -5.52131,5.80645 l -0.20738,0 -1.03686,-6.73963 -12.13134,0 0,58.47926 13.68664,0 0,-36.80876 c 0.0367,-3.74563 1.00011,-6.59701 2.89026,-8.55414 1.89009,-1.95704 4.48657,-2.94207 7.78946,-2.95507 4.02213,0.0562 6.63158,1.31773 7.82834,3.78456 1.19667,2.46692 1.73238,5.80217 1.60714,10.00576 l 0,34.52765 13.68664,0 0,-36.80876 c 0.0367,-3.791 1.00008,-6.65534 2.89026,-8.59303 1.89006,-1.93759 4.48654,-2.90966 7.78946,-2.91618 3.97674,0.0692 6.57323,1.38253 7.78946,3.94009 1.21608,2.55765 1.76475,5.94474 1.64603,10.16129 z" />
    <path
       inkscape:connector-curvature="0"
       id="path4405"
       style="font-size:103.68797302px;font-style:normal;font-variant:normal;font-weight:normal;font-stretch:normal;text-align:center;line-height:125%;letter-spacing:0px;word-spacing:0px;writing-mode:lr-tb;text-anchor:middle;fill:#000000;fill-opacity:1;stroke:none;font-family:Roadgeek 2005 Blend E5WR;-inkscape-font-specification:Roadgeek 2005 Blend E5WR"
       d="m 463.47922,440.00503 39.5046,-87.40784 -12.02765,0 -39.5046,87.40784 z" />
    <path
       inkscape:connector-curvature="0"
       id="path4407"
       style="font-size:103.68797302px;font-style:normal;font-variant:normal;font-weight:normal;font-stretch:normal;text-align:center;line-height:125%;letter-spacing:0px;word-spacing:0px;writing-mode:lr-tb;text-anchor:middle;fill:#000000;fill-opacity:1;stroke:none;font-family:Roadgeek 2005 Blend E5WR;-inkscape-font-specification:Roadgeek 2005 Blend E5WR"
       d="m 549.23846,427.66632 13.58295,0 0,-35.25346 c 0.1317,-7.54748 -1.27238,-13.47489 -4.21227,-17.78226 -2.94,-4.30726 -8.20642,-6.50195 -15.79925,-6.5841 -3.14736,-0.0518 -6.10675,0.41481 -8.87817,1.39977 -2.77149,0.98508 -5.13468,2.7996 -7.08958,5.44355 l -0.10368,0 0,-24.88479 -13.68664,0 0,77.66129 13.68664,0 0,-35.46083 c -0.0195,-4.34184 0.95259,-7.55612 2.91618,-9.64286 1.96354,-2.08664 5.03526,-3.12351 9.21515,-3.1106 4.65074,0.0821 7.58421,1.49919 8.80041,4.25116 1.21611,2.75205 1.73886,6.34652 1.56826,10.78341 z" />
    <path
       style="fill:#000000"
       d="m 303.4552,314.37544 c -16.62348,-2.09591 -32.33022,-7.35183 -45.50166,-15.22612 -12.12973,-7.25154 -12.04195,-4.75442 -0.81086,-23.06644 5.44166,-8.87247 10.25344,-16.14959 10.69284,-16.17138 0.43952,-0.0218 3.08429,1.59899 5.87727,3.60172 7.37769,5.29008 19.01137,10.8636 26.97357,12.92267 8.59193,2.2219 27.09133,2.28434 35.02234,0.1182 17.11909,-4.67559 26.72993,-16.98831 29.33014,-37.57578 2.33135,-18.45795 -2.3274,-36.141 -11.68647,-44.35836 -7.12571,-6.25653 -14.4879,-8.87111 -26.38072,-9.36886 -17.91082,-0.74962 -28.22906,2.84201 -39.63791,13.79736 l -6.48092,6.22331 -15.28037,-10.78378 c -8.40415,-5.93109 -15.52251,-11.41497 -15.81854,-12.1864 -0.4555,-1.18701 15.87358,-99.960826 17.42881,-105.426504 0.49925,-1.754269 4.49697,-1.870041 64.57581,-1.870041 l 64.04376,0 0,19.223469 0,19.223466 -46.75102,0.27838 -46.75101,0.27838 -4.4617,21.90619 c -2.45392,12.0484 -4.76796,23.51275 -5.1425,25.47632 l -0.68081,3.57012 4.60821,-3.15922 c 13.73262,-9.41472 25.42582,-12.52449 43.98186,-11.69682 21.92531,0.97796 34.73573,5.98852 47.35423,18.5218 6.12315,6.08175 8.61277,9.60448 12.46088,17.63181 7.51201,15.66996 8.72369,21.79699 8.64076,43.69231 -0.0823,21.59435 -1.73379,29.80323 -8.92447,44.34667 -9.89465,20.01263 -28.2998,33.1127 -54.02408,38.45247 -10.10538,2.09762 -32.22571,2.9403 -42.65744,1.62506 z"
       id="path4396"
       inkscape:connector-curvature="0" />
    <path
       inkscape:connector-curvature="0"
       id="path4398"
       d="m 498.4552,314.37544 c -16.62348,-2.09591 -32.33022,-7.35183 -45.50166,-15.22612 -12.12973,-7.25154 -12.04195,-4.75442 -0.81086,-23.06644 5.44166,-8.87247 10.25344,-16.14959 10.69284,-16.17138 0.43952,-0.0218 3.08429,1.59899 5.87727,3.60172 7.37769,5.29008 19.01137,10.8636 26.97357,12.92267 8.59193,2.2219 27.09133,2.28434 35.02234,0.1182 17.11909,-4.67559 26.72993,-16.98831 29.33014,-37.57578 2.33135,-18.45795 -2.3274,-36.141 -11.68647,-44.35836 -7.12571,-6.25653 -14.4879,-8.87111 -26.38072,-9.36886 -17.91082,-0.74962 -28.22906,2.84201 -39.63791,13.79736 l -6.48092,6.22331 -15.28037,-10.78378 c -8.40415,-5.93109 -15.52251,-11.41497 -15.81854,-12.1864 -0.4555,-1.18701 15.87358,-99.960826 17.42881,-105.426504 0.49925,-1.754269 4.49697,-1.870041 64.57581,-1.870041 l 64.04376,0 0,19.223469 0,19.223466 -46.75102,0.27838 -46.75101,0.27838 -4.4617,21.90619 c -2.45392,12.0484 -4.76796,23.51275 -5.1425,25.47632 l -0.68081,3.57012 4.60821,-3.15922 c 13.73262,-9.41472 25.42582,-12.52449 43.98186,-11.69682 21.92531,0.97796 34.73573,5.98852 47.35423,18.5218 6.12315,6.08175 8.61277,9.60448 12.46088,17.63181 7.51201,15.66996 8.72369,21.79699 8.64076,43.69231 -0.0823,21.59435 -1.73379,29.80323 -8.92447,44.34667 -9.89465,20.01263 -28.2998,33.1127 -54.02408,38.45247 -10.10538,2.09762 -32.22571,2.9403 -42.65744,1.62506 z"
       style="fill:#000000" />
  </g>
</svg>
