<?xml version="1.0" encoding="UTF-8" standalone="no"?>
<!-- Created with Inkscape (http://www.inkscape.org/) -->

<svg
   xmlns:dc="http://purl.org/dc/elements/1.1/"
   xmlns:cc="http://creativecommons.org/ns#"
   xmlns:rdf="http://www.w3.org/1999/02/22-rdf-syntax-ns#"
   xmlns:svg="http://www.w3.org/2000/svg"
   xmlns="http://www.w3.org/2000/svg"
   xmlns:sodipodi="http://sodipodi.sourceforge.net/DTD/sodipodi-0.dtd"
   xmlns:inkscape="http://www.inkscape.org/namespaces/inkscape"
   sodipodi:docname="appicon_flat.svg"
   viewBox="0 0 85.333336 85.333336"
   height="85.333336"
   width="85.333336"
   xml:space="preserve"
   id="svg4497"
   version="1.1"
   inkscape:version="0.92.0 r15299"><sodipodi:namedview
     inkscape:current-layer="g4507"
     inkscape:window-maximized="0"
     inkscape:window-y="0"
     inkscape:window-x="0"
     inkscape:cy="17.331011"
     inkscape:cx="-2.2352069"
     inkscape:zoom="3.9111843"
     showgrid="false"
     id="namedview4499"
     inkscape:window-height="772"
     inkscape:window-width="1526"
     inkscape:pageshadow="2"
     inkscape:pageopacity="0"
     guidetolerance="10"
     gridtolerance="10"
     objecttolerance="10"
     borderopacity="1"
     bordercolor="#666666"
     pagecolor="#ffffff" /><metadata
     id="metadata4503"><rdf:RDF><cc:Work
         rdf:about=""><dc:format>image/svg+xml</dc:format><dc:type
           rdf:resource="http://purl.org/dc/dcmitype/StillImage" /><dc:title></dc:title></cc:Work></rdf:RDF></metadata><defs
     id="defs4501"><mask
       id="mask6450"
       maskUnits="userSpaceOnUse"><path
         d="m 1298.1213,62.988483 c 0,-176.730003 -143.27,-320.000003 -319.99995,-320.000003 -176.73,0 -320,143.27 -320,320.000003 0,176.729997 143.27,319.999997 320,319.999997 176.72995,0 319.99995,-143.27 319.99995,-319.999997"
         style="opacity:1;vector-effect:none;fill:#7db6d8;fill-opacity:1;fill-rule:nonzero;stroke:none;stroke-width:0.99999994;stroke-linecap:butt;stroke-linejoin:miter;stroke-miterlimit:4;stroke-dasharray:none;stroke-dashoffset:0;stroke-opacity:1"
         id="path6452"
         inkscape:connector-curvature="0" /></mask><mask
       id="mask6537"
       maskUnits="userSpaceOnUse"><path
         mask="none"
         d="M 640,320 C 640,143.27 496.73,7.5000003e-6 320,7.5000003e-6 143.27,7.5000003e-6 4e-6,143.27 4e-6,320 4e-6,496.73 143.27,640 320,640 496.73,640 640,496.73 640,320"
         style="opacity:1;vector-effect:none;fill:#ffffff;fill-opacity:1;fill-rule:nonzero;stroke:none;stroke-width:0.99999994;stroke-linecap:butt;stroke-linejoin:miter;stroke-miterlimit:4;stroke-dasharray:none;stroke-dashoffset:0;stroke-opacity:1"
         id="path6539"
         inkscape:connector-curvature="0" /></mask><mask
       maskUnits="userSpaceOnUse"
       id="mask10467"><path
         mask="none"
         d="m 760.8074,-27.081577 c 0,-176.730003 -143.27,-320.000003 -320,-320.000003 -176.73,0 -319.99999,143.27 -319.99999,320.000003 0,176.729997 143.26999,319.999997 319.99999,319.999997 176.73,0 320,-143.27 320,-319.999997"
         style="opacity:1;vector-effect:none;fill:#ffffff;fill-opacity:1;fill-rule:nonzero;stroke:none;stroke-width:0.99999994;stroke-linecap:butt;stroke-linejoin:miter;stroke-miterlimit:4;stroke-dasharray:none;stroke-dashoffset:0;stroke-opacity:1"
         id="path10469"
         inkscape:connector-curvature="0" /></mask></defs><g
     id="g4505"
     inkscape:groupmode="layer"
     inkscape:label="ink_ext_XXXXXX"
     transform="matrix(1.3333333,0,0,-1.3333333,0,85.333333)"><g
       id="g4507"
       transform="scale(0.1)"><path
         mask="none"
         d="M 640,320 C 640,143.27 496.73,0 320,0 143.27,0 0,143.27 0,320 0,496.73 143.27,640 320,640 496.73,640 640,496.73 640,320"
         style="fill:#7db6d8;fill-opacity:1;fill-rule:nonzero;stroke:none;font-variant-east_asian:normal;opacity:1;vector-effect:none;stroke-width:1;stroke-linecap:butt;stroke-linejoin:miter;stroke-miterlimit:4;stroke-dasharray:none;stroke-dashoffset:0;stroke-opacity:1"
         id="path4509"
         inkscape:connector-curvature="0" /><g
         id="g10319"
         transform="translate(-120.8074,347.08158)"
         mask="url(#mask10467)"
         style="fill:#000000;fill-opacity:0.1254902"><g
           id="g10316"
           style="fill:#000000;fill-opacity:0.1254902;fill-rule:nonzero;stroke:none;stroke-width:0.99999994"
           transform="translate(-15.340623,-15.340623)"><path
             style="stroke-width:0.99999994;fill:#000000;fill-opacity:0.1254902"
             d="m 456.1537,208.23256 c -11.04699,0 -19.99511,-8.94812 -19.99511,-19.99512 V 168.22767 H 321.00722 c -4.161,0 -10.04505,-2.45987 -13.08105,-5.46387 l -49.49708,-49.07226 c -3.02272,-2.99579 -3.03547,-7.90688 -0.0293,-10.91309 L 376.15862,-14.980342 v -68.789065 c 0,-2.279902 0.91155,-4.353982 2.373,-5.815432 l 57.62697,-57.626951 v -104.5459 c 0,-5.52712 2.23724,-10.54289 5.85938,-14.16504 l 282.84668,-282.83204 c 3.61733,-3.61734 8.60126,-5.85937 14.1211,-5.85937 11.04699,0 20.00976,8.96286 20.00976,20.00976 v 159.99024 h 155.1416 c 4.161,0 10.04506,2.45987 13.08106,5.46387 l 49.49707,49.07226 c 3.02272,2.99579 3.0355,7.89225 0.0293,10.89844 l -0.0147,0.0293 -1.71387,1.69922 -156.0205,156.02051 v 28.82813 c -10e-6,2.27603 -0.90117,4.3289 -2.35841,5.78613 L 533.79043,166.03041 c -1.35603,1.35603 -3.18037,2.19726 -5.18555,2.19726 h -24.16993 l -34.13085,34.13086 c -3.62214,3.62213 -8.62323,5.87403 -14.1504,5.87403 z"
             id="path10236"
             inkscape:connector-curvature="0" /></g></g><path
         d="M 300,520.004 V 80.0039 c 0,-11.0469 8.953,-20 20,-20 11.047,0 20,8.9531 20,20 V 520.004 c 0,11.047 -8.953,20 -20,20 -11.047,0 -20,-8.953 -20,-20"
         style="fill:#f3cc70;fill-opacity:1;fill-rule:nonzero;stroke:none"
         id="path4513"
         inkscape:connector-curvature="0" /><path
         d="m 184.852,500 c -4.161,0 -10.043,-2.461 -13.079,-5.465 l -49.5,-49.07 c -3.031,-3.004 -3.031,-7.926 0,-10.93 l 49.5,-49.07 c 3.036,-3.004 8.918,-5.465 13.079,-5.465 h 207.586 c 4.16,0 7.562,3.598 7.562,7.992 v 104.016 c 0,4.394 -3.402,7.992 -7.562,7.992 H 184.852"
         style="fill:#495672;fill-opacity:1;fill-rule:nonzero;stroke:none"
         id="path4523"
         inkscape:connector-curvature="0" /><path
         d="m 495.148,240 c 4.161,0 10.043,2.461 13.079,5.465 l 49.5,49.07 c 3.031,3.004 3.031,7.926 0,10.93 l -49.5,49.07 C 505.191,357.539 499.309,360 495.148,360 H 247.563 C 243.402,360 240,356.402 240,352.008 V 247.992 c 0,-4.394 3.402,-7.992 7.563,-7.992 h 247.585"
         style="fill:#ffffff;fill-opacity:1;fill-rule:nonzero;stroke:none"
         id="path4525"
         inkscape:connector-curvature="0" /></g></g></svg>