<?xml version="1.0" encoding="UTF-8"?>
<svg width="48" height="48" version="1.1" viewBox="0 0 12.7 12.7" xmlns="http://www.w3.org/2000/svg">
 <g transform="translate(0 -284.3)">
  <path d="m6.6146 284.3c-2.54 0-4.4452 1.9052-4.4452 4.4452 1e-7 3.175 2.5402 6.3498 4.4452 8.2548 1.905-1.905 4.4452-5.0798 4.4452-8.2548 0-2.54-1.9052-4.4452-4.4452-4.4452zm-1.2702 1.9048h2.5404l-0.31781 4.4452h-1.9048zm1.2728 5.3976a1.1253 0.95164 0 0 1 1.125 0.95188 1.1253 0.95164 0 0 1-1.125 0.95136 1.1253 0.95164 0 0 1-1.125-0.95136 1.1253 0.95164 0 0 1 1.125-0.95188z" style="paint-order:markers fill stroke"/>
 </g>
</svg>
