<?xml version="1.0" encoding="UTF-8" standalone="no"?>
<svg
   xmlns:dc="http://purl.org/dc/elements/1.1/"
   xmlns:cc="http://creativecommons.org/ns#"
   xmlns:rdf="http://www.w3.org/1999/02/22-rdf-syntax-ns#"
   xmlns:svg="http://www.w3.org/2000/svg"
   xmlns="http://www.w3.org/2000/svg"
   xmlns:sodipodi="http://sodipodi.sourceforge.net/DTD/sodipodi-0.dtd"
   xmlns:inkscape="http://www.inkscape.org/namespaces/inkscape"
   version="1.1"
   id="svg68"
   sodipodi:docname="ek_double_half.svg"
   inkscape:version="0.92.1 r15371">
  <metadata
     id="metadata74">
    <rdf:RDF>
      <cc:Work
         rdf:about="">
        <dc:format>image/svg+xml</dc:format>
        <dc:type
           rdf:resource="http://purl.org/dc/dcmitype/StillImage" />
        <dc:title></dc:title>
        <cc:license
           rdf:resource="http://creativecommons.org/publicdomain/zero/1.0/" />
      </cc:Work>
      <cc:License
         rdf:about="http://creativecommons.org/publicdomain/zero/1.0/">
        <cc:permits
           rdf:resource="http://creativecommons.org/ns#Reproduction" />
        <cc:permits
           rdf:resource="http://creativecommons.org/ns#Distribution" />
        <cc:permits
           rdf:resource="http://creativecommons.org/ns#DerivativeWorks" />
      </cc:License>
    </rdf:RDF>
  </metadata>
  <defs
     id="defs72" />
  <sodipodi:namedview
     pagecolor="#ffffff"
     bordercolor="#666666"
     borderopacity="1"
     objecttolerance="10"
     gridtolerance="10"
     guidetolerance="10"
     inkscape:pageopacity="0"
     inkscape:pageshadow="2"
     inkscape:window-width="1366"
     inkscape:window-height="706"
     id="namedview70"
     showgrid="false"
     inkscape:zoom="2.36"
     inkscape:cx="142.58475"
     inkscape:cy="50"
     inkscape:window-x="-8"
     inkscape:window-y="-8"
     inkscape:window-maximized="1"
     inkscape:current-layer="svg68" />
  <polygon
     points="37,50 62,50 85,100 15,100"
     fill="#d7d7d7"
     id="polygon2" />
  <polygon
     points="10,55 18,55 0,73 0,62"
     fill="#e1d9af"
     id="polygon4" />
  <polygon
     points="25,55 32,55 18,80 7,80"
     fill="#e1d9af"
     id="polygon6" />
  <polygon
     points="90,55 82,55 100,73 100,62"
     fill="#e1d9af"
     id="polygon8" />
  <polygon
     points="75,55 68,55 82,80 93,80"
     fill="#e1d9af"
     id="polygon10" />
  <polygon
     points="0,58 100,58 100,60 0,60"
     fill="#8c7570"
     id="polygon12" />
  <polygon
     points="0,73 100,73 100,76 0,76"
     fill="#8c7570"
     id="polygon14" />
  <polygon
     points="85,75 95,75 95,90 85,90"
     fill="#727272"
     id="polygon16" />
  <circle
     cx="90"
     cy="75"
     r="5"
     fill="#727272"
     id="circle18" />
  <circle
     cx="90"
     cy="75.5"
     r="2.5"
     fill="white"
     id="circle20" />
  <rect
     x="83"
     y="73"
     height="5"
     width="7"
     fill="white"
     id="rect22" />
  <rect
     x="73"
     y="73"
     height="5"
     width="10"
     fill="red"
     id="rect24" />
  <rect
     x="63"
     y="73"
     height="5"
     width="10"
     fill="white"
     id="rect26" />
  <rect
     x="53"
     y="73"
     height="5"
     width="10"
     fill="red"
     id="rect28" />
  <polygon
     points="15,75 5,75 5,90 15,90"
     fill="#727272"
     id="polygon30" />
  <circle
     cx="10"
     cy="75"
     r="5"
     fill="#727272"
     id="circle32" />
  <circle
     cx="10"
     cy="75.5"
     r="2.5"
     fill="white"
     id="circle34" />
  <rect
     x="10"
     y="73"
     height="5"
     width="7"
     fill="white"
     id="rect36" />
  <rect
     x="17"
     y="73"
     height="5"
     width="10"
     fill="red"
     id="rect38" />
  <rect
     x="27"
     y="73"
     height="5"
     width="10"
     fill="white"
     id="rect40" />
  <rect
     x="37"
     y="73"
     height="5"
     width="10"
     fill="red"
     id="rect42" />
  <rect
     x="29"
     y="42"
     width="5"
     height="3"
     fill="#f5f5dc"
     id="rect44" />
  <rect
     x="34"
     y="42"
     width="5"
     height="3"
     fill="red"
     id="rect46" />
  <rect
     x="39"
     y="42"
     width="5"
     height="3"
     fill="#f5f5dc"
     id="rect48" />
  <rect
     x="44"
     y="42"
     width="5"
     height="3"
     fill="red"
     id="rect50" />
  <rect
     x="27"
     y="42"
     height="7"
     width="5"
     fill="#727272"
     id="rect52" />
  <circle
     cx="29.5"
     cy="42"
     r="2.5"
     fill="#727272"
     id="circle54" />
  <rect
     x="51"
     y="42"
     width="5"
     height="3"
     fill="red"
     id="rect56" />
  <rect
     x="56"
     y="42"
     width="5"
     height="3"
     fill="#f5f5dc"
     id="rect58" />
  <rect
     x="61"
     y="42"
     width="5"
     height="3"
     fill="red"
     id="rect60" />
  <rect
     x="66"
     y="42"
     width="5"
     height="3"
     fill="#f5f5dc"
     id="rect62" />
  <rect
     x="68"
     y="42"
     height="7"
     width="5"
     fill="#727272"
     id="rect64" />
  <circle
     cx="70.5"
     cy="42"
     r="2.5"
     fill="#727272"
     id="circle66" />
</svg>
