<?xml version="1.0" encoding="UTF-8" standalone="no"?>
<svg
   xmlns:dc="http://purl.org/dc/elements/1.1/"
   xmlns:cc="http://creativecommons.org/ns#"
   xmlns:rdf="http://www.w3.org/1999/02/22-rdf-syntax-ns#"
   xmlns:svg="http://www.w3.org/2000/svg"
   xmlns="http://www.w3.org/2000/svg"
   xmlns:sodipodi="http://sodipodi.sourceforge.net/DTD/sodipodi-0.dtd"
   xmlns:inkscape="http://www.inkscape.org/namespaces/inkscape"
   version="1.1"
   id="svg58"
   sodipodi:docname="ek_full.svg"
   inkscape:version="0.92.1 r15371"
   width="100"
   height="60.5">
  <metadata
     id="metadata64">
    <rdf:RDF>
      <cc:Work
         rdf:about="">
        <dc:format>image/svg+xml</dc:format>
        <dc:type
           rdf:resource="http://purl.org/dc/dcmitype/StillImage" />
        <dc:title></dc:title>
        <cc:license
           rdf:resource="http://creativecommons.org/publicdomain/zero/1.0/" />
      </cc:Work>
      <cc:License
         rdf:about="http://creativecommons.org/publicdomain/zero/1.0/">
        <cc:permits
           rdf:resource="http://creativecommons.org/ns#Reproduction" />
        <cc:permits
           rdf:resource="http://creativecommons.org/ns#Distribution" />
        <cc:permits
           rdf:resource="http://creativecommons.org/ns#DerivativeWorks" />
      </cc:License>
    </rdf:RDF>
  </metadata>
  <defs
     id="defs62" />
  <sodipodi:namedview
     pagecolor="#ffffff"
     bordercolor="#666666"
     borderopacity="1"
     objecttolerance="10"
     gridtolerance="10"
     guidetolerance="10"
     inkscape:pageopacity="0"
     inkscape:pageshadow="2"
     inkscape:window-width="828"
     inkscape:window-height="480"
     id="namedview60"
     showgrid="false"
     inkscape:zoom="2.36"
     inkscape:cx="142.58475"
     inkscape:cy="50"
     inkscape:window-x="0"
     inkscape:window-y="0"
     inkscape:window-maximized="0"
     inkscape:current-layer="svg58"
     fit-margin-top="0"
     fit-margin-left="0"
     fit-margin-right="0"
     fit-margin-bottom="0" />
  <polygon
     points="85,100 15,100 37,50 62,50 "
     id="polygon2"
     style="fill:#d7d7d7"
     transform="translate(0,-39.5)" />
  <polygon
     points="0,73 0,62 10,55 18,55 "
     id="polygon4"
     style="fill:#e1d9af"
     transform="translate(0,-39.5)" />
  <polygon
     points="18,80 7,80 25,55 32,55 "
     id="polygon6"
     style="fill:#e1d9af"
     transform="translate(0,-39.5)" />
  <polygon
     points="100,73 100,62 90,55 82,55 "
     id="polygon8"
     style="fill:#e1d9af"
     transform="translate(0,-39.5)" />
  <polygon
     points="82,80 93,80 75,55 68,55 "
     id="polygon10"
     style="fill:#e1d9af"
     transform="translate(0,-39.5)" />
  <polygon
     points="100,60 0,60 0,58 100,58 "
     id="polygon12"
     style="fill:#8c7570"
     transform="translate(0,-39.5)" />
  <polygon
     points="100,76 0,76 0,73 100,73 "
     id="polygon14"
     style="fill:#8c7570"
     transform="translate(0,-39.5)" />
  <polygon
     points="95,90 85,90 85,75 95,75 "
     id="polygon16"
     style="fill:#727272"
     transform="translate(0,-39.5)" />
  <circle
     cx="90"
     cy="35.5"
     r="5"
     id="circle18"
     style="fill:#727272" />
  <circle
     cx="90"
     cy="36"
     r="2.5"
     id="circle20"
     style="fill:#ffffff" />
  <rect
     x="80"
     y="33.5"
     height="5"
     width="10"
     id="rect22"
     style="fill:#ffffff" />
  <rect
     x="70"
     y="33.5"
     height="5"
     width="10"
     id="rect24"
     style="fill:#ff0000" />
  <rect
     x="60"
     y="33.5"
     height="5"
     width="10"
     id="rect26"
     style="fill:#ffffff" />
  <rect
     x="50"
     y="33.5"
     height="5"
     width="10"
     id="rect28"
     style="fill:#ff0000" />
  <rect
     x="40"
     y="33.5"
     height="5"
     width="10"
     id="rect30"
     style="fill:#ffffff" />
  <rect
     x="30"
     y="33.5"
     height="5"
     width="10"
     id="rect32"
     style="fill:#ff0000" />
  <rect
     x="20"
     y="33.5"
     height="5"
     width="10"
     id="rect34"
     style="fill:#ffffff" />
  <rect
     x="10"
     y="33.5"
     height="5"
     width="10"
     id="rect36"
     style="fill:#ff0000" />
  <rect
     x="30"
     y="2.5"
     width="5"
     height="3"
     id="rect38"
     style="fill:#f5f5dc" />
  <rect
     x="35"
     y="2.5"
     width="5"
     height="3"
     id="rect40"
     style="fill:#ff0000" />
  <rect
     x="40"
     y="2.5"
     width="5"
     height="3"
     id="rect42"
     style="fill:#f5f5dc" />
  <rect
     x="45"
     y="2.5"
     width="5"
     height="3"
     id="rect44"
     style="fill:#ff0000" />
  <rect
     x="50"
     y="2.5"
     width="5"
     height="3"
     id="rect46"
     style="fill:#f5f5dc" />
  <rect
     x="55"
     y="2.5"
     width="5"
     height="3"
     id="rect48"
     style="fill:#ff0000" />
  <rect
     x="60"
     y="2.5"
     width="5"
     height="3"
     id="rect50"
     style="fill:#f5f5dc" />
  <rect
     x="65"
     y="2.5"
     width="5"
     height="3"
     id="rect52"
     style="fill:#ff0000" />
  <rect
     x="27"
     y="2.5"
     height="7"
     width="5"
     id="rect54"
     style="fill:#727272" />
  <circle
     cx="29.5"
     cy="2.5"
     r="2.5"
     id="circle56"
     style="fill:#727272" />
</svg>
