<?xml version="1.0" encoding="UTF-8" standalone="no"?>
<svg
   xmlns:dc="http://purl.org/dc/elements/1.1/"
   xmlns:cc="http://creativecommons.org/ns#"
   xmlns:rdf="http://www.w3.org/1999/02/22-rdf-syntax-ns#"
   xmlns:svg="http://www.w3.org/2000/svg"
   xmlns="http://www.w3.org/2000/svg"
   xmlns:sodipodi="http://sodipodi.sourceforge.net/DTD/sodipodi-0.dtd"
   xmlns:inkscape="http://www.inkscape.org/namespaces/inkscape"
   version="1.1"
   id="svg42"
   sodipodi:docname="ek_half.svg"
   inkscape:version="0.92.1 r15371">
  <metadata
     id="metadata48">
    <rdf:RDF>
      <cc:Work
         rdf:about="">
        <dc:format>image/svg+xml</dc:format>
        <dc:type
           rdf:resource="http://purl.org/dc/dcmitype/StillImage" />
        <dc:title></dc:title>
        <cc:license
           rdf:resource="http://creativecommons.org/publicdomain/zero/1.0/" />
      </cc:Work>
      <cc:License
         rdf:about="http://creativecommons.org/publicdomain/zero/1.0/">
        <cc:permits
           rdf:resource="http://creativecommons.org/ns#Reproduction" />
        <cc:permits
           rdf:resource="http://creativecommons.org/ns#Distribution" />
        <cc:permits
           rdf:resource="http://creativecommons.org/ns#DerivativeWorks" />
      </cc:License>
    </rdf:RDF>
  </metadata>
  <defs
     id="defs46" />
  <sodipodi:namedview
     pagecolor="#ffffff"
     bordercolor="#666666"
     borderopacity="1"
     objecttolerance="10"
     gridtolerance="10"
     guidetolerance="10"
     inkscape:pageopacity="0"
     inkscape:pageshadow="2"
     inkscape:window-width="640"
     inkscape:window-height="480"
     id="namedview44"
     showgrid="false"
     inkscape:zoom="2.36"
     inkscape:cx="50"
     inkscape:cy="50"
     inkscape:window-x="0"
     inkscape:window-y="0"
     inkscape:window-maximized="0"
     inkscape:current-layer="svg42" />
  <polygon
     points="37,50 62,50 85,100 15,100"
     fill="#d7d7d7"
     id="polygon2" />
  <polygon
     points="10,55 18,55 0,73 0,62"
     fill="#e1d9af"
     id="polygon4" />
  <polygon
     points="25,55 32,55 18,80 7,80"
     fill="#e1d9af"
     id="polygon6" />
  <polygon
     points="90,55 82,55 100,73 100,62"
     fill="#e1d9af"
     id="polygon8" />
  <polygon
     points="75,55 68,55 82,80 93,80"
     fill="#e1d9af"
     id="polygon10" />
  <polygon
     points="0,58 100,58 100,60 0,60"
     fill="#8c7570"
     id="polygon12" />
  <polygon
     points="0,73 100,73 100,76 0,76"
     fill="#8c7570"
     id="polygon14" />
  <polygon
     points="85,75 95,75 95,90 85,90"
     fill="#727272"
     id="polygon16" />
  <circle
     cx="90"
     cy="75"
     r="5"
     fill="#727272"
     id="circle18" />
  <circle
     cx="90"
     cy="75.5"
     r="2.5"
     fill="white"
     id="circle20" />
  <rect
     x="80"
     y="73"
     height="5"
     width="10"
     fill="white"
     id="rect22" />
  <rect
     x="70"
     y="73"
     height="5"
     width="10"
     fill="red"
     id="rect24" />
  <rect
     x="60"
     y="73"
     height="5"
     width="10"
     fill="white"
     id="rect26" />
  <rect
     x="50"
     y="73"
     height="5"
     width="10"
     fill="red"
     id="rect28" />
  <rect
     x="30"
     y="42"
     width="5"
     height="3"
     fill="#f5f5dc"
     id="rect30" />
  <rect
     x="35"
     y="42"
     width="5"
     height="3"
     fill="red"
     id="rect32" />
  <rect
     x="40"
     y="42"
     width="5"
     height="3"
     fill="#f5f5dc"
     id="rect34" />
  <rect
     x="45"
     y="42"
     width="5"
     height="3"
     fill="red"
     id="rect36" />
  <rect
     x="27"
     y="42"
     height="7"
     width="5"
     fill="#727272"
     id="rect38" />
  <circle
     cx="29.5"
     cy="42"
     r="2.5"
     fill="#727272"
     id="circle40" />
</svg>
