<?xml version="1.0" encoding="UTF-8" standalone="no"?>
<svg
   xmlns:dc="http://purl.org/dc/elements/1.1/"
   xmlns:cc="http://creativecommons.org/ns#"
   xmlns:rdf="http://www.w3.org/1999/02/22-rdf-syntax-ns#"
   xmlns:svg="http://www.w3.org/2000/svg"
   xmlns="http://www.w3.org/2000/svg"
   xmlns:sodipodi="http://sodipodi.sourceforge.net/DTD/sodipodi-0.dtd"
   xmlns:inkscape="http://www.inkscape.org/namespaces/inkscape"
   inkscape:version="1.0 (4035a4fb49, 2020-05-01)"
   version="1.1"
   id="svg4497"
   xml:space="preserve"
   width="512"
   height="512"
   viewBox="0 0 512 512"
   sodipodi:docname="ic_launcher_foreground.svg"><sodipodi:namedview
     inkscape:document-rotation="0"
     pagecolor="#ffffff"
     bordercolor="#666666"
     borderopacity="1"
     objecttolerance="10"
     gridtolerance="10"
     guidetolerance="10"
     inkscape:pageopacity="0"
     inkscape:pageshadow="2"
     inkscape:window-width="1526"
     inkscape:window-height="772"
     id="namedview4499"
     showgrid="false"
     inkscape:zoom="0.67182648"
     inkscape:cx="28.869362"
     inkscape:cy="327.05906"
     inkscape:window-x="67"
     inkscape:window-y="27"
     inkscape:window-maximized="0"
     inkscape:current-layer="g4507" /><metadata
     id="metadata4503"><rdf:RDF><cc:Work
         rdf:about=""><dc:format>image/svg+xml</dc:format><dc:type
           rdf:resource="http://purl.org/dc/dcmitype/StillImage" /><dc:title></dc:title></cc:Work></rdf:RDF></metadata><defs
     id="defs4501"><mask
       maskUnits="userSpaceOnUse"
       id="mask6450"><path
         inkscape:connector-curvature="0"
         id="path6452"
         style="opacity:1;vector-effect:none;fill:#7db6d8;fill-opacity:1;fill-rule:nonzero;stroke:none;stroke-width:1;stroke-linecap:butt;stroke-linejoin:miter;stroke-miterlimit:4;stroke-dasharray:none;stroke-dashoffset:0;stroke-opacity:1"
         d="m 1298.1213,62.988483 c 0,-176.730003 -143.27,-320.000003 -319.99995,-320.000003 -176.73,0 -320,143.27 -320,320.000003 0,176.729997 143.27,319.999997 320,319.999997 176.72995,0 319.99995,-143.27 319.99995,-319.999997" /></mask><mask
       maskUnits="userSpaceOnUse"
       id="mask6537"><path
         inkscape:connector-curvature="0"
         id="path6539"
         style="opacity:1;vector-effect:none;fill:#ffffff;fill-opacity:1;fill-rule:nonzero;stroke:none;stroke-width:1;stroke-linecap:butt;stroke-linejoin:miter;stroke-miterlimit:4;stroke-dasharray:none;stroke-dashoffset:0;stroke-opacity:1"
         d="M 640,320 C 640,143.27 496.73,7.5000003e-6 320,7.5000003e-6 143.27,7.5000003e-6 4e-6,143.27 4e-6,320 4e-6,496.73 143.27,640 320,640 496.73,640 640,496.73 640,320"
         mask="none" /></mask><mask
       id="mask10467"
       maskUnits="userSpaceOnUse"><path
         inkscape:connector-curvature="0"
         id="path10469"
         style="opacity:1;vector-effect:none;fill:#ffffff;fill-opacity:1;fill-rule:nonzero;stroke:none;stroke-width:1;stroke-linecap:butt;stroke-linejoin:miter;stroke-miterlimit:4;stroke-dasharray:none;stroke-dashoffset:0;stroke-opacity:1"
         d="m 760.8074,-27.081577 c 0,-176.730003 -143.27,-320.000003 -320,-320.000003 -176.73,0 -319.99999,143.27 -319.99999,320.000003 0,176.729997 143.26999,319.999997 319.99999,319.999997 176.73,0 320,-143.27 320,-319.999997"
         mask="none" /></mask></defs><g
     transform="matrix(1.3333333,0,0,-1.3333333,0,85.333333)"
     inkscape:label="ink_ext_XXXXXX"
     inkscape:groupmode="layer"
     id="g4505"><g
       transform="scale(0.1)"
       id="g4507"><g
         transform="matrix(2.0283828,0,0,2.0283828,466.51258,-896.64801)"
         id="g1504"><g
           transform="matrix(3.0943023,0,0,3.0943023,-672.59888,-104.4248)"
           style="fill:#000000;fill-opacity:0.12549;fill-rule:nonzero;stroke:none;stroke-width:1"
           id="g10316"><path
             sodipodi:nodetypes="sscsccccsscscccccccsccs"
             inkscape:connector-curvature="0"
             id="path10236"
             d="m 456.1537,208.23256 c -11.04699,0 -19.99511,-8.94812 -19.99511,-19.99512 V 168.22767 H 321.00722 c -4.161,0 -10.04505,-2.45987 -13.08105,-5.46387 l -49.49708,-49.07226 c -3.02272,-2.99579 -3.03547,-7.90688 -0.0293,-10.91309 L 376.15862,-14.980342 v -68.789065 c 0,-2.279902 0.91155,-4.353982 2.373,-5.815432 l 57.62697,-57.626951 v -104.5459 c 0,-5.52712 2.23724,-10.54289 5.85938,-14.16504 91.67552,-88.52945 233.95732,-230.94326 296.96778,-288.69141 11.04699,0 233.86019,-8.85555 236.1451,1.95247 4.52569,73.12007 2.24435,189.07085 1.61369,243.4821 l -0.0147,0.0293 -1.71387,1.69922 c -136.8094,170.665 -297.98196,330.508739 -441.22554,473.48146 -1.35603,1.35603 -3.18037,2.19726 -5.18555,2.19726 h -24.16993 l -34.13085,34.13086 c -3.62214,3.62213 -8.62323,5.87403 -14.1504,5.87403 z"
             style="fill:#000000;fill-opacity:0.12549;stroke-width:1" /></g><path
           d="M 676.97493,478.11795 V -883.37536 c 0,-34.18244 27.70329,-61.88604 61.88605,-61.88604 34.18276,0 61.88604,27.7036 61.88604,61.88604 V 478.11795 c 0,34.18276 -27.70328,61.88605 -61.88604,61.88605 -34.18276,0 -61.88605,-27.70329 -61.88605,-61.88605"
           style="fill:#f3cc70;fill-opacity:1;fill-rule:nonzero;stroke:none;stroke-width:3.0943"
           id="path4513"
           inkscape:connector-curvature="0" /><path
           d="m 320.67221,416.21953 c -12.87539,0 -31.07607,-7.61508 -40.47037,-16.91036 L 127.03387,247.47176 c -9.37883,-9.29529 -9.37883,-24.52544 0,-33.82073 L 280.20184,61.81362 c 9.3943,-9.295284 27.59498,-16.910362 40.47037,-16.910362 h 642.33384 c 12.87229,0 23.39911,11.1333 23.39911,24.729664 V 391.48987 c 0,13.59636 -10.52682,24.72966 -23.39911,24.72966 H 320.67221"
           style="fill:#495672;fill-opacity:1;fill-rule:nonzero;stroke:none;stroke-width:3.0943"
           id="path4523"
           inkscape:connector-curvature="0" /><path
           d="m 1280.8218,-388.29906 c 12.8754,0 31.0761,7.61508 40.4704,16.91036 l 153.168,151.83741 c 9.3788,9.29529 9.3788,24.52544 0,33.82073 l -153.168,151.837411 c -9.3943,9.295284 -27.595,16.910362 -40.4704,16.910362 H 514.71901 c -12.8754,0 -23.40221,-11.1333 -23.40221,-24.729664 V -363.5694 c 0,-13.59636 10.52681,-24.72966 23.40221,-24.72966 h 766.10279"
           style="fill:#ffffff;fill-opacity:1;fill-rule:nonzero;stroke:none;stroke-width:3.0943"
           id="path4525"
           inkscape:connector-curvature="0" /></g></g></g></svg>
