<?xml version="1.0" encoding="UTF-8" standalone="no"?>
<!-- Created with Inkscape (http://www.inkscape.org/) -->

<svg
   xmlns:dc="http://purl.org/dc/elements/1.1/"
   xmlns:cc="http://creativecommons.org/ns#"
   xmlns:rdf="http://www.w3.org/1999/02/22-rdf-syntax-ns#"
   xmlns:svg="http://www.w3.org/2000/svg"
   xmlns="http://www.w3.org/2000/svg"
   xmlns:sodipodi="http://sodipodi.sourceforge.net/DTD/sodipodi-0.dtd"
   xmlns:inkscape="http://www.inkscape.org/namespaces/inkscape"
   width="144"
   height="144"
   viewBox="0 0 144 144.00001"
   version="1.1"
   id="svg8"
   inkscape:version="0.92.1 r15371"
   sodipodi:docname="ic_link_haiku.svg">
  <defs
     id="defs2" />
  <sodipodi:namedview
     id="base"
     pagecolor="#ffffff"
     bordercolor="#666666"
     borderopacity="1.0"
     inkscape:pageopacity="0.0"
     inkscape:pageshadow="2"
     inkscape:zoom="3.959798"
     inkscape:cx="123.68761"
     inkscape:cy="74.798939"
     inkscape:document-units="px"
     inkscape:current-layer="layer1"
     showgrid="false"
     units="px"
     inkscape:pagecheckerboard="true"
     inkscape:window-width="2560"
     inkscape:window-height="1377"
     inkscape:window-x="-8"
     inkscape:window-y="-8"
     inkscape:window-maximized="1" />
  <metadata
     id="metadata5">
    <rdf:RDF>
      <cc:Work
         rdf:about="">
        <dc:format>image/svg+xml</dc:format>
        <dc:type
           rdf:resource="http://purl.org/dc/dcmitype/StillImage" />
        <dc:title></dc:title>
      </cc:Work>
    </rdf:RDF>
  </metadata>
  <g
     inkscape:label="Layer 1"
     inkscape:groupmode="layer"
     id="layer1"
     transform="translate(0,-978.51965)">
    <g
       aria-label="俳
句"
       style="font-style:normal;font-variant:normal;font-weight:normal;font-stretch:normal;font-size:10.58333302px;line-height:1.25;font-family:'Book Antiqua';-inkscape-font-specification:'Book Antiqua';letter-spacing:0px;word-spacing:0px;fill:#000000;fill-opacity:1;stroke:none;stroke-width:0.26458332"
       id="text4487">
      <path
         d="m 77.049406,1023.3781 q 0,16.625 -17.499999,24.5 l -2.916666,-5.25 q 12.833332,-5.8333 14.291666,-15.75 l -13.125,3.7917 q -0.291667,2.0417 -1.458333,0.875 l -1.75,-6.7083 16.624999,-3.5 v -6.7084 H 58.966074 v -5.5416 h 12.249999 v -9.62503 H 57.50774 v -5.54167 h 13.708333 v -12.25 h 5.541667 q 2.333333,0.29167 0.291666,1.75 z m -40.249998,-10.5 q 9.916666,-9.625 12.541666,-31.79163 l 6.708333,2.04167 q 1.166667,1.16666 -0.875,1.45833 -2.041666,9.33333 -4.375,15.75003 4.083334,0.875 1.166667,2.625 v 44.9166 h -5.833333 v -36.4583 q -2.625,3.7917 -6.125,7.2917 z M 102.71607,999.46147 H 87.841073 v 9.62503 h 13.124997 v 5.5416 H 87.841073 v 10.2084 h 16.624997 v 5.5416 H 87.841073 v 17.2084 H 82.00774 v -66.20836 h 5.541666 q 2.333333,0.29166 0.291667,1.75 v 10.79166 h 14.874997 z"
         style="font-style:normal;font-variant:normal;font-weight:normal;font-stretch:normal;font-size:74.66666412px;line-height:1;font-family:'Book Antiqua';-inkscape-font-specification:'Book Antiqua';stroke-width:0.26458332"
         id="path4491" />
      <path
         d="m 80.549406,1114.3781 h 6.708333 q 4.083334,0 5.25,-4.6666 1.75,-7.2917 2.916667,-37.3334 H 56.341074 q -7.291667,10.7917 -15.75,16.0417 l -2.916666,-6.4167 q 13.124999,-8.4583 19.541666,-27.125 l 6.125,1.1667 q 2.625,0.875 -0.291667,2.0417 -1.166667,3.7916 -3.5,7.875 h 42.583333 q -1.75,38.2083 -4.083334,47.5416 -1.75,7.2917 -9.333333,7.2917 h -8.166667 z m -23.333332,-28 v 14 H 74.13274 v -14 z m 0,19.5417 v 4.9583 h -5.833333 v -30.0416 h 28.583332 v 27.125 H 74.13274 v -2.0417 z"
         style="font-style:normal;font-variant:normal;font-weight:normal;font-stretch:normal;font-size:74.66666412px;line-height:1;font-family:'Book Antiqua';-inkscape-font-specification:'Book Antiqua';stroke-width:0.26458332"
         id="path4493" />
    </g>
  </g>
</svg>
