<svg xmlns:dc="http://purl.org/dc/elements/1.1/" xmlns:cc="http://creativecommons.org/ns#" xmlns:rdf="http://www.w3.org/1999/02/22-rdf-syntax-ns#" xmlns:svg="http://www.w3.org/2000/svg" xmlns="http://www.w3.org/2000/svg" width="146" height="100" viewBox="0 0 38.629166 26.458334" version="1.1" id="svg4540"><metadata id="metadata4537"><rdf:RDF><cc:Work><dc:format>image/svg+xml</dc:format><dc:type rdf:resource="http://purl.org/dc/dcmitype/StillImage"/><dc:title/></cc:Work></rdf:RDF></metadata><g id="layer1" transform="translate(0,-270.54165)"><g id="g6747" transform="matrix(0.26458333,0,0,0.26458333,-1.0583333,270.54165)" overflow="visible"><rect ry="7.902" y="0" x="4" height="100" width="146" id="rect6068" rx="8.081" opacity="1" vector-effect="none" fill="#495aad" fill-opacity="1" stroke="none" stroke-width="3.4000001" stroke-linecap="round" stroke-linejoin="round" stroke-miterlimit="4" stroke-dasharray="none" stroke-dashoffset="0" stroke-opacity="1" paint-order="stroke fill markers"/><rect ry="7" y="2" x="6" height="96" width="142" id="rect6068-3" rx="7" opacity="1" vector-effect="none" fill="#ffffff" fill-opacity="1" stroke="none" stroke-width="3.4000001" stroke-linecap="round" stroke-linejoin="round" stroke-miterlimit="4" stroke-dasharray="none" stroke-dashoffset="0" stroke-opacity="1" paint-order="stroke fill markers"/><rect ry="4" y="6" x="10" height="88" width="134" id="rect6068-3-8" rx="4" opacity="1" vector-effect="none" fill="#495aad" fill-opacity="1" stroke="none" stroke-width="3.4000001" stroke-linecap="round" stroke-linejoin="round" stroke-miterlimit="4" stroke-dasharray="none" stroke-dashoffset="0" stroke-opacity="1" paint-order="stroke fill markers"/><path id="path6554" d="m 60.817895,12 c -3.429686,1.714286 -4.287389,10.285715 -4.287389,10.285715 -1.817691,0.478679 -4.320134,1.971294 -4.32087,3.495536 l 0.03348,3.361607 c 0.0017,1.714286 0.858817,2.571428 3.430246,2.571428 V 36 c 0,0 -0.235234,1.669089 0.857142,1.714286 h 4.285715 C 61.887923,37.714286 61.673363,36 61.673363,36 V 32.571429 H 77.101934 V 36 c 0,0 -0.209555,1.714286 0.862166,1.714286 h 4.287388 C 83.323193,37.714286 83.101936,36 83.101936,36 v -4.285714 c 2.571428,0 3.429108,-0.857142 3.436942,-2.571428 v -3.428572 c -0.466818,-1.603542 -2.793698,-2.947183 -4.28739,-3.428571 0,0 -0.864405,-8.571429 -4.287387,-10.285715 z m 2.142857,3.428572 H 75.821243 C 77.964666,18 77.964101,22.285715 77.964101,22.285715 H 60.817895 c 0,0 -5.66e-4,-4.285715 2.142857,-6.857143 z m -4.762835,9.430245 a 2.5714287,2.5714287 0 0 1 2.571429,2.571429 2.5714287,2.5714287 0 0 1 -2.571429,2.571429 2.5714287,2.5714287 0 0 1 -2.571429,-2.571429 2.5714287,2.5714287 0 0 1 2.571429,-2.571429 z m 22.334265,0 a 2.5714287,2.5714287 0 0 1 2.571428,2.571429 2.5714287,2.5714287 0 0 1 -2.571428,2.571429 2.5714287,2.5714287 0 0 1 -2.57143,-2.571429 2.5714287,2.5714287 0 0 1 2.57143,-2.571429 z" fill="#ffffff" fill-opacity="1" fill-rule="nonzero" stroke="none" stroke-width="0.08235635"/><g transform="matrix(0.75002387,0,0,0.75002387,-24.567217,-27.388319)" id="g6643" stroke-width="9.33303642" stroke-miterlimit="4" stroke-dasharray="none"><path id="path5253" d="m 54.108773,141.56107 c 13.112933,-6.46737 14.006831,-12.82772 19.978492,-30.38018 5.70459,23.39059 4.810692,22.45328 3.230345,40.32683" fill="none" fill-opacity="1" fill-rule="evenodd" stroke="#ffffff" stroke-width="7.99974537" stroke-linecap="round" stroke-linejoin="round" stroke-miterlimit="4" stroke-dasharray="none" stroke-opacity="1" paint-order="stroke fill markers"/><path id="path5255" d="m 76.378288,93.787261 c -1.758185,6.666669 -3.184921,27.071829 -3.184921,27.071829" fill="none" fill-opacity="1" fill-rule="evenodd" stroke="#ffffff" stroke-width="10.66632652" stroke-linecap="butt" stroke-linejoin="miter" stroke-miterlimit="4" stroke-dasharray="none" stroke-opacity="1" paint-order="stroke fill markers"/><path id="path5261" d="m 56.484998,111.30432 c 5.308975,-9.67944 15.523252,-17.719629 19.893306,-21.456088 7.33595,6.270177 2.662394,21.521408 15.924587,19.863628" fill="none" fill-opacity="1" fill-rule="evenodd" stroke="#ffffff" stroke-width="7.99974537" stroke-linecap="round" stroke-linejoin="round" stroke-miterlimit="4" stroke-dasharray="none" stroke-opacity="1" paint-order="stroke fill markers"/><circle r="9.657" cy="73.531" cx="81.007" id="path5263" opacity="1" vector-effect="none" fill="#ffffff" fill-opacity="1" stroke="none" stroke-width="9.33303642" stroke-linecap="round" stroke-linejoin="round" stroke-miterlimit="4" stroke-dasharray="none" stroke-dashoffset="0" stroke-opacity="1" paint-order="normal"/></g><path id="path2-3-2-4" d="m 120,12 -20,16 2,4 4,-0.08008 V 58 h 9 V 46 h 10 v 12 h 9 V 32 h 4 l 2,-4 z m -10,17 h 8 v 9 h -8 z m 12,0 h 8 v 9 h -8 z" fill="#ffffff" fill-opacity="1" stroke-width="0.2"/><path id="path6699" d="m 94,40 c 0,12 6,30 40,44" fill="none" fill-opacity="1" fill-rule="evenodd" stroke="#ffffff" stroke-width="5" stroke-linecap="butt" stroke-linejoin="miter" stroke-miterlimit="4" stroke-dasharray="none" stroke-opacity="1"/><circle r="4.649" cy="82.649" cx="61.514" id="path6701" opacity="1" vector-effect="none" fill="#ffffff" fill-opacity="1" stroke="none" stroke-width="6" stroke-linecap="round" stroke-linejoin="round" stroke-miterlimit="4" stroke-dasharray="none" stroke-dashoffset="0" stroke-opacity="1" paint-order="stroke fill markers"/><g transform="matrix(0.82608696,0,0,0.82608696,14.73913,14.173913)" id="g6728" stroke-width="1.21052635"><path d="m 75,87 c 1,-9 4,-16 4,-17 2,4 8,6 8,6 l 7,-4" id="path6703" fill="none" fill-rule="evenodd" stroke="#ffffff" stroke-width="6.05263138" stroke-linecap="round" stroke-linejoin="round" stroke-miterlimit="4" stroke-dasharray="none" stroke-opacity="1"/><path d="m 77,63 2,8" id="path6705" fill="none" fill-rule="evenodd" stroke="#ffffff" stroke-width="8.47368431" stroke-linecap="round" stroke-linejoin="miter" stroke-miterlimit="4" stroke-dasharray="none" stroke-opacity="1"/><path d="m 65,68 c 0,0 7,-1 11,-7 4.883185,0.05182 8,-1 10,3" id="path6707" fill="none" fill-rule="evenodd" stroke="#ffffff" stroke-width="6.05263138" stroke-linecap="round" stroke-linejoin="bevel" stroke-miterlimit="4" stroke-dasharray="none" stroke-opacity="1"/><circle id="path6701-6" cx="72.598" cy="52.05" r="5.5" overflow="visible" opacity="1" vector-effect="none" fill="#ffffff" fill-opacity="1" stroke="none" stroke-width="7.26315784" stroke-linecap="round" stroke-linejoin="round" stroke-miterlimit="4" stroke-dasharray="none" stroke-dashoffset="0" stroke-opacity="1" paint-order="stroke fill markers"/></g></g></g></svg>