<svg xmlns:dc="http://purl.org/dc/elements/1.1/" xmlns:cc="http://creativecommons.org/ns#" xmlns:rdf="http://www.w3.org/1999/02/22-rdf-syntax-ns#" xmlns:svg="http://www.w3.org/2000/svg" xmlns="http://www.w3.org/2000/svg" width="100" height="146" viewBox="0 0 26.458333 38.629166" version="1.1" id="svg5403"><metadata id="metadata5400"><rdf:RDF><cc:Work><dc:format>image/svg+xml</dc:format><dc:type rdf:resource="http://purl.org/dc/dcmitype/StillImage"/><dc:title/></cc:Work></rdf:RDF></metadata><g id="layer1" transform="translate(0,-258.37081)"><rect id="rect6068" width="26.458" height="38.629" x="0" y="258.371" ry="3.177" rx="3.177" opacity="1" vector-effect="none" fill="#ffffff" fill-opacity="1" stroke="none" stroke-width="0.89958334" stroke-linecap="round" stroke-linejoin="round" stroke-miterlimit="4" stroke-dasharray="none" stroke-dashoffset="0" stroke-opacity="1" paint-order="stroke fill markers"/><rect rx="2.646" id="rect6068-3" width="24.871" height="37.042" x=".794" y="259.165" ry="2.646" opacity="1" vector-effect="none" fill="#000000" fill-opacity="1" stroke="none" stroke-width="0.89958334" stroke-linecap="round" stroke-linejoin="round" stroke-miterlimit="4" stroke-dasharray="none" stroke-dashoffset="0" stroke-opacity="1" paint-order="stroke fill markers"/><rect rx="1.866" id="rect6068-3-8" width="22.768" height="34.933" x="1.852" y="260.223" ry="1.844" opacity="1" vector-effect="none" fill="#ffffff" fill-opacity="1" stroke="none" stroke-width="0.89958334" stroke-linecap="round" stroke-linejoin="round" stroke-miterlimit="4" stroke-dasharray="none" stroke-dashoffset="0" stroke-opacity="1" paint-order="stroke fill markers"/><g id="g5078" transform="matrix(0.93069965,0,0,0.93069965,0.93635628,8.3253052)" stroke-width="1.07446039"><circle r="6.87" cy="279.527" cx="13.229" id="path6188" opacity="1" vector-effect="none" fill="#c1121c" fill-opacity="1" stroke="none" stroke-width="0.96656686" stroke-linecap="round" stroke-linejoin="round" stroke-miterlimit="4" stroke-dasharray="none" stroke-dashoffset="0" stroke-opacity="1" paint-order="stroke fill markers"/><ellipse ry="5.137" rx="5.137" cy="279.535" cx="13.229" id="path6207" opacity="1" vector-effect="none" fill="#ffffff" fill-opacity="1" stroke="none" stroke-width="0.96656674" stroke-linecap="round" stroke-linejoin="round" stroke-miterlimit="4" stroke-dasharray="none" stroke-dashoffset="0" stroke-opacity="1" paint-order="stroke fill markers"/></g><flowRoot xml:space="preserve" id="flowRoot5080" style="line-height:25px;-inkscape-font-specification:'Roboto Condensed, '" fill="black" stroke="none" stroke-opacity="1" stroke-width="1px" stroke-linejoin="miter" stroke-linecap="butt" fill-opacity="1" font-family="Roboto Condensed" font-style="normal" font-weight="normal" font-size="5.33333333px" letter-spacing="0px" word-spacing="0px" font-stretch="normal" font-variant="normal"><flowRegion id="flowRegion5082"><rect id="rect5084" width="28" height="8" x="36" y="126"/></flowRegion><flowPara id="flowPara5086"/></flowRoot><text xml:space="preserve" style="line-height:4.93888903px;-inkscape-font-specification:'Roboto Bold';text-align:center" x="13.265" y="280.174" id="text5090" font-style="normal" font-variant="normal" font-weight="bold" font-stretch="normal" font-size="4.93888903px" font-family="Roboto" letter-spacing="0px" word-spacing="0px" text-anchor="middle" fill="#000000" fill-opacity="1" stroke="none" stroke-width="0.26458332px" stroke-linecap="butt" stroke-linejoin="miter" stroke-opacity="1"><tspan x="13.265" y="280.174" style="line-height:4.93888903px;-inkscape-font-specification:'Roboto Medium';text-align:center" id="tspan5092" font-style="normal" font-variant="normal" font-weight="500" font-stretch="normal" font-size="4.93888903px" font-family="Roboto" text-anchor="middle" stroke-width="0.26458332px">SHARED</tspan><tspan x="13.265" y="285.113" style="line-height:4.93888903px;-inkscape-font-specification:'Roboto Medium';text-align:center" id="tspan5096" font-style="normal" font-variant="normal" font-weight="500" font-stretch="normal" font-size="4.93888903px" font-family="Roboto" text-anchor="middle" stroke-width="0.26458332px">ZONE</tspan></text><text xml:space="preserve" style="line-height:6.61458302px;-inkscape-font-specification:'Roboto Condensed, '" x="9.138" y="271.201" id="text5100" font-style="normal" font-variant="normal" font-weight="normal" font-stretch="normal" font-size="1.41111112px" font-family="Roboto Condensed" letter-spacing="0px" word-spacing="0px" fill="#000000" fill-opacity="1" stroke="none" stroke-width="0.26458332px" stroke-linecap="butt" stroke-linejoin="miter" stroke-opacity="1"><tspan id="tspan5098" x="9.138" y="271.201" style="-inkscape-font-specification:'Roboto Condensed, Bold'" font-style="normal" font-variant="normal" font-weight="bold" font-stretch="normal" font-size="7.76111126px" font-family="Roboto Condensed" stroke-width="0.26458332px">10</tspan></text><path id="path6554" d="m 15.375462,287.02141 c -0.907438,0.45357 -1.134372,2.72143 -1.134372,2.72143 -0.480931,0.12665 -1.143035,0.52157 -1.14323,0.92486 l 0.0089,0.88942 c 4.5e-4,0.45358 0.227229,0.68036 0.907586,0.68036 v 1.13393 c 0,0 -0.06224,0.44161 0.226786,0.45357 h 1.133928 c 0.283555,0 0.226786,-0.45357 0.226786,-0.45357 v -0.90714 h 5.18463 v 0.90714 c 0,0 -0.05545,0.45357 0.228114,0.45357 h 1.134371 c 0.283556,0 0.225015,-0.45357 0.225015,-0.45357 v -1.13393 c 0.680357,0 0.907284,-0.22678 0.909357,-0.68036 v -0.90714 c -0.123512,-0.42427 -0.739166,-0.77977 -1.134372,-0.90714 0,0 -0.228707,-2.26786 -1.134371,-2.72143 z m 0.566964,0.90714 h 4.505159 c 0.567113,0.68036 0.566963,1.81429 0.566963,1.81429 h -5.639086 c 0,0 -1.5e-4,-1.13393 0.566964,-1.81429 z m -1.260167,2.49509 c 0.375753,0 0.68036,0.30461 0.680358,0.68036 -4e-6,0.37575 -0.304609,0.68035 -0.680358,0.68035 -0.375748,0 -0.680353,-0.3046 -0.680357,-0.68035 -10e-7,-0.37575 0.304605,-0.68036 0.680357,-0.68036 z m 7.011761,0 c 0.375752,0 0.680359,0.30461 0.680357,0.68036 -4e-6,0.37575 -0.304609,0.68035 -0.680357,0.68035 -0.375748,0 -0.680354,-0.3046 -0.680358,-0.68035 -2e-6,-0.37575 0.304606,-0.68036 0.680358,-0.68036 z" fill="#000000" fill-opacity="1" fill-rule="nonzero" stroke="none" stroke-width="0.02179012"/><g id="g6685" transform="matrix(0.29923405,0,0,0.29175929,5.6182845,205.29504)" stroke-width="3.58182693" stroke-miterlimit="4" stroke-dasharray="none"><path d="m 13.473487,301.69234 c -3.419509,-2.98349 -3.7212552,-5.81487 -3.9545764,-9.13974 -2.870119,3.03689 -3.629116,5.76297 -4.233333,9.13974" id="path5253" fill="none" fill-opacity="1" fill-rule="evenodd" stroke="#000000" stroke-width="3.13409875" stroke-linecap="round" stroke-linejoin="miter" stroke-miterlimit="4" stroke-dasharray="none" stroke-opacity="1" paint-order="stroke fill markers"/><path d="m 9.5189061,286.87567 c 0.4651864,1.76389 0.1148196,4.12707 -0.2140286,5.89096" id="path5255" fill="none" fill-opacity="1" fill-rule="evenodd" stroke="#000000" stroke-width="3.13409875" stroke-linecap="butt" stroke-linejoin="miter" stroke-miterlimit="4" stroke-dasharray="none" stroke-opacity="1" paint-order="stroke fill markers"/><path d="m 13.259457,292.46091 c 0.02208,-2.46819 -1.032523,-4.49567 -3.7405509,-5.58524 -1.9409701,1.65899 -2.9533555,4.12935 -6.2761845,5.75071" id="path5261" fill="none" fill-opacity="1" fill-rule="evenodd" stroke="#000000" stroke-width="3.13409875" stroke-linecap="round" stroke-linejoin="round" stroke-miterlimit="4" stroke-dasharray="none" stroke-opacity="1" paint-order="stroke fill markers"/><ellipse id="path6687" cx="9.352" cy="281.389" rx="3.268" ry="3.352" opacity="1" vector-effect="none" fill="#000000" fill-opacity="1" stroke="none" stroke-width="3.58182669" stroke-linecap="butt" stroke-linejoin="miter" stroke-miterlimit="4" stroke-dasharray="none" stroke-dashoffset="0" stroke-opacity="1" paint-order="stroke fill markers"/></g></g></svg>