<svg xmlns:dc="http://purl.org/dc/elements/1.1/" xmlns:cc="http://creativecommons.org/ns#" xmlns:rdf="http://www.w3.org/1999/02/22-rdf-syntax-ns#" xmlns:svg="http://www.w3.org/2000/svg" xmlns="http://www.w3.org/2000/svg" width="100" height="134" viewBox="0 0 26.458333 35.454168" version="1.1" id="svg4540"><metadata id="metadata4537"><rdf:RDF><cc:Work><dc:format>image/svg+xml</dc:format><dc:type rdf:resource="http://purl.org/dc/dcmitype/StillImage"/><dc:title/></cc:Work></rdf:RDF></metadata><g id="layer1" transform="translate(0,-261.54582)"><rect rx="4.763" id="rect6068" width="35.454" height="26.458" x="-297" y="0" ry="4.763" transform="rotate(-90)" opacity="1" vector-effect="none" fill="#495aad" fill-opacity="1" stroke="none" stroke-width="0.89958334" stroke-linecap="round" stroke-linejoin="round" stroke-miterlimit="4" stroke-dasharray="none" stroke-dashoffset="0" stroke-opacity="1" paint-order="stroke fill markers"/><rect rx="4.498" id="rect6068-3" width="34.396" height="25.4" x="-296.471" y=".529" ry="4.498" transform="rotate(-90)" opacity="1" vector-effect="none" fill="#ff6060" fill-opacity="1" stroke="none" stroke-width="0.89958334" stroke-linecap="round" stroke-linejoin="round" stroke-miterlimit="4" stroke-dasharray="none" stroke-dashoffset="0" stroke-opacity="1" paint-order="stroke fill markers"/><rect rx="3.704" id="rect6068-3-8" width="32.279" height="23.283" x="-295.412" y="1.587" ry="3.704" transform="rotate(-90)" opacity="1" vector-effect="none" fill="#495aad" fill-opacity="1" stroke="none" stroke-width="0.89958334" stroke-linecap="round" stroke-linejoin="round" stroke-miterlimit="4" stroke-dasharray="none" stroke-dashoffset="0" stroke-opacity="1" paint-order="stroke fill markers"/><path d="m 5.0652827,268.236 c -0.907438,0.45357 -1.134372,2.72143 -1.134372,2.72143 -0.480931,0.12665 -1.143035,0.52157 -1.14323,0.92486 l 0.0089,0.88942 c 4.5e-4,0.45358 0.227229,0.68036 0.907586,0.68036 v 1.13393 c 0,0 -0.06224,0.44161 0.226786,0.45357 h 1.133928 c 0.283555,0 0.226786,-0.45357 0.226786,-0.45357 v -0.90714 h 3.0238095 v 0.90714 c 0,0 -0.05545,0.45357 0.228115,0.45357 h 1.134371 c 0.2835563,0 0.2250153,-0.45357 0.2250153,-0.45357 v -1.13393 c 0.6803565,0 0.9072835,-0.22678 0.9093565,-0.68036 v -0.90714 c -0.123512,-0.42427 -0.739166,-0.77977 -1.1343718,-0.90714 0,0 -0.228707,-2.26786 -1.134371,-2.72143 z m 0.566964,0.90714 h 2.3443385 c 0.567114,0.68036 0.566964,1.81429 0.566964,1.81429 H 5.0652827 c 0,0 -1.5e-4,-1.13393 0.566964,-1.81429 z m -1.260167,2.49509 c 0.3757523,0 0.6803596,0.30461 0.680358,0.68036 -4e-6,0.37575 -0.3046096,0.68035 -0.680358,0.68035 -0.375748,0 -0.680353,-0.3046 -0.680357,-0.68035 -1.6e-6,-0.37575 0.3046051,-0.68036 0.680357,-0.68036 z m 4.8509415,0 c 0.3757519,0 0.6803583,0.30461 0.6803573,0.68036 -4e-6,0.37575 -0.3046093,0.68035 -0.6803573,0.68035 -0.3757484,0 -0.6803541,-0.3046 -0.680358,-0.68035 -1.6e-6,-0.37575 0.3046056,-0.68036 0.680358,-0.68036 z" id="path6554" fill="#ffffff" fill-opacity="1" fill-rule="nonzero" stroke="none" stroke-width="0.02179012"/><g id="g6643" transform="matrix(0.18576634,0,0,0.18576634,-5.8963428,264.62162)" stroke-width="9.96996117" stroke-miterlimit="4" stroke-dasharray="none"><path d="m 54.108773,141.56107 c 13.112933,-6.46737 14.006831,-12.82772 19.978492,-30.38018 5.70459,23.39059 4.810692,22.45328 3.230345,40.32683" id="path5253" fill="none" fill-opacity="1" fill-rule="evenodd" stroke="#ffffff" stroke-width="8.545681" stroke-linecap="round" stroke-linejoin="round" stroke-miterlimit="4" stroke-dasharray="none" stroke-opacity="1" paint-order="stroke fill markers"/><path d="m 76.378288,93.787261 c -1.758185,6.666669 -3.184921,27.071829 -3.184921,27.071829" id="path5255" fill="none" fill-opacity="1" fill-rule="evenodd" stroke="#ffffff" stroke-width="11.39424133" stroke-linecap="butt" stroke-linejoin="miter" stroke-miterlimit="4" stroke-dasharray="none" stroke-opacity="1" paint-order="stroke fill markers"/><path d="m 56.484998,111.30432 c 5.308975,-9.67944 15.523252,-17.719629 19.893306,-21.456088 7.33595,6.270177 2.662394,21.521408 15.924587,19.863628" id="path5261" fill="none" fill-opacity="1" fill-rule="evenodd" stroke="#ffffff" stroke-width="8.545681" stroke-linecap="round" stroke-linejoin="round" stroke-miterlimit="4" stroke-dasharray="none" stroke-opacity="1" paint-order="stroke fill markers"/><circle id="path5263" cx="81.007" cy="73.531" r="9.657" opacity="1" vector-effect="none" fill="#ffffff" fill-opacity="1" stroke="none" stroke-width="9.96996117" stroke-linecap="round" stroke-linejoin="round" stroke-miterlimit="4" stroke-dasharray="none" stroke-dashoffset="0" stroke-opacity="1" paint-order="normal"/></g><circle id="path6701" cx="14.617" cy="292.108" r="1.23" opacity="1" vector-effect="none" fill="#ffffff" fill-opacity="1" stroke="none" stroke-width="1.58749998" stroke-linecap="round" stroke-linejoin="round" stroke-miterlimit="4" stroke-dasharray="none" stroke-dashoffset="0" stroke-opacity="1" paint-order="stroke fill markers"/><g id="g6728" transform="matrix(0.21856884,0,0,0.21856884,2.2413056,273.99024)" stroke-width="1.21052635"><path id="path6703" d="m 75,87 c 1,-9 4,-16 4,-17 2,4 8,6 8,6 l 7,-4" fill="none" fill-rule="evenodd" stroke="#ffffff" stroke-width="6.05263138" stroke-linecap="round" stroke-linejoin="round" stroke-miterlimit="4" stroke-dasharray="none" stroke-opacity="1"/><path id="path6705" d="m 77,63 2,8" fill="none" fill-rule="evenodd" stroke="#ffffff" stroke-width="8.47368431" stroke-linecap="round" stroke-linejoin="miter" stroke-miterlimit="4" stroke-dasharray="none" stroke-opacity="1"/><path id="path6707" d="m 65,68 c 0,0 7,-1 11,-7 4.883185,0.05182 8,-1 10,3" fill="none" fill-rule="evenodd" stroke="#ffffff" stroke-width="6.05263138" stroke-linecap="round" stroke-linejoin="bevel" stroke-miterlimit="4" stroke-dasharray="none" stroke-opacity="1"/><circle r="5.5" cy="52.05" cx="72.598" id="path6701-6" overflow="visible" opacity="1" vector-effect="none" fill="#ffffff" fill-opacity="1" stroke="none" stroke-width="7.26315784" stroke-linecap="round" stroke-linejoin="round" stroke-miterlimit="4" stroke-dasharray="none" stroke-dashoffset="0" stroke-opacity="1" paint-order="stroke fill markers"/></g><path d="m 18.520834,264.72082 -2.116667,1.27021 v -0.74104 h -1.5875 v 1.69343 l -1.5875,0.9524 v 4.7625 h 6.879167 v -3.70417 H 22.225 v 3.70417 h 1.5875 v -4.7625 z m -3.704167,4.23333 h 3.704167 v 2.64584 h -3.704167 z" id="path4633" fill="#ffffff" fill-opacity="1" fill-rule="evenodd" stroke="none" stroke-width="0.26458332px" stroke-linecap="butt" stroke-linejoin="miter" stroke-opacity="1"/><path d="m 12.7,273.71665 c 0,3.175 5.820834,9.52501 11.1125,9.525" id="path4641" fill="none" fill-rule="evenodd" stroke="#fffff3" stroke-width="1.05833333" stroke-linecap="butt" stroke-linejoin="miter" stroke-miterlimit="4" stroke-dasharray="none" stroke-opacity="1"/></g></svg>