<?xml version="1.0" encoding="UTF-8" standalone="no"?>
<!-- Created with Inkscape (http://www.inkscape.org/) -->

<svg
   xmlns:dc="http://purl.org/dc/elements/1.1/"
   xmlns:cc="http://creativecommons.org/ns#"
   xmlns:rdf="http://www.w3.org/1999/02/22-rdf-syntax-ns#"
   xmlns:svg="http://www.w3.org/2000/svg"
   xmlns="http://www.w3.org/2000/svg"
   xmlns:sodipodi="http://sodipodi.sourceforge.net/DTD/sodipodi-0.dtd"
   xmlns:inkscape="http://www.inkscape.org/namespaces/inkscape"
   width="100"
   height="100"
   viewBox="0 0 26.458333 26.458334"
   version="1.1"
   id="svg4540"
   inkscape:version="0.92.1 r15371"
   sodipodi:docname="living_street_israel.svg">
  <defs
     id="defs4534" />
  <sodipodi:namedview
     id="base"
     pagecolor="#ffffff"
     bordercolor="#666666"
     borderopacity="1.0"
     inkscape:pageopacity="0.0"
     inkscape:pageshadow="2"
     inkscape:zoom="3.959798"
     inkscape:cx="55.997123"
     inkscape:cy="-29.162371"
     inkscape:document-units="mm"
     inkscape:current-layer="g4531"
     showgrid="true"
     units="px"
     inkscape:window-width="958"
     inkscape:window-height="1008"
     inkscape:window-x="-7"
     inkscape:window-y="0"
     inkscape:window-maximized="0">
    <inkscape:grid
       type="xygrid"
       id="grid5125"
       empspacing="4" />
  </sodipodi:namedview>
  <metadata
     id="metadata4537">
    <rdf:RDF>
      <cc:Work
         rdf:about="">
        <dc:format>image/svg+xml</dc:format>
        <dc:type
           rdf:resource="http://purl.org/dc/dcmitype/StillImage" />
        <dc:title />
      </cc:Work>
    </rdf:RDF>
  </metadata>
  <g
     inkscape:label="Layer 1"
     inkscape:groupmode="layer"
     id="layer1"
     transform="translate(0,-270.54165)">
    <g
       id="g4531">
      <g
         id="g4518">
        <rect
           rx="2.1380277"
           style="opacity:1;vector-effect:none;fill:#495aad;fill-opacity:1;stroke:none;stroke-width:0.89958334;stroke-linecap:round;stroke-linejoin:round;stroke-miterlimit:4;stroke-dasharray:none;stroke-dashoffset:0;stroke-opacity:1;paint-order:stroke fill markers"
           id="rect6068"
           width="26.458332"
           height="26.458332"
           x="2e-008"
           y="270.54166"
           ry="2.0906358" />
        <rect
           rx="1.8520833"
           style="opacity:1;vector-effect:none;fill:#ffffff;fill-opacity:1;stroke:none;stroke-width:0.89958334;stroke-linecap:round;stroke-linejoin:round;stroke-miterlimit:4;stroke-dasharray:none;stroke-dashoffset:0;stroke-opacity:1;paint-order:stroke fill markers"
           id="rect6068-3"
           width="25.4"
           height="25.4"
           x="0.5291667"
           y="271.07083"
           ry="1.8520833" />
        <rect
           rx="1.0583333"
           style="opacity:1;vector-effect:none;fill:#495aad;fill-opacity:1;stroke:none;stroke-width:0.89958334;stroke-linecap:round;stroke-linejoin:round;stroke-miterlimit:4;stroke-dasharray:none;stroke-dashoffset:0;stroke-opacity:1;paint-order:stroke fill markers"
           id="rect6068-3-8"
           width="23.283333"
           height="23.283333"
           x="1.5875"
           y="272.12915"
           ry="1.0583333" />
      </g>
      <path
         inkscape:connector-curvature="0"
         id="path6554"
         d="m 14.249888,274.62379 c -1.033273,0.51647 -1.291677,3.09882 -1.291677,3.09882 -0.547623,0.14421 -1.301543,0.59389 -1.301765,1.0531 l 0.01011,1.01277 c 5.05e-4,0.51647 0.258738,0.77471 1.033442,0.77471 v 1.29117 c 0,0 -0.07088,0.50286 0.258236,0.51647 h 1.291172 c 0.322876,0 0.258234,-0.51647 0.258234,-0.51647 v -1.03294 h 4.648224 v 1.03294 c 0,0 -0.06313,0.51647 0.259748,0.51647 h 1.291677 c 0.322876,0 0.256218,-0.51647 0.256218,-0.51647 v -1.29117 c 0.774703,0 1.0331,-0.25824 1.03546,-0.77471 v -1.03294 c -0.14064,-0.4831 -0.841668,-0.8879 -1.291678,-1.03293 0,0 -0.260422,-2.58235 -1.291677,-3.09882 z m 0.645586,1.03294 h 3.874529 c 0.645757,0.77471 0.645588,2.06588 0.645588,2.06588 h -5.165703 c 0,0 -1.71e-4,-1.29117 0.645586,-2.06588 z m -1.434917,2.84108 a 0.77470398,0.77470398 0 0 1 0.774705,0.7747 0.77470398,0.77470398 0 0 1 -0.774705,0.77471 0.77470398,0.77470398 0 0 1 -0.774703,-0.77471 0.77470398,0.77470398 0 0 1 0.774703,-0.7747 z m 6.728729,0 a 0.77470398,0.77470398 0 0 1 0.774704,0.7747 0.77470398,0.77470398 0 0 1 -0.774704,0.77471 0.77470398,0.77470398 0 0 1 -0.774705,-0.77471 0.77470398,0.77470398 0 0 1 0.774705,-0.7747 z"
         style="fill:#ffffff;fill-opacity:1;fill-rule:nonzero;stroke:none;stroke-width:0.0248118" />
      <g
         id="g4513">
        <path
           sodipodi:nodetypes="ccc"
           inkscape:connector-curvature="0"
           id="path5253"
           d="m 4.6090672,292.9277 c 1.8102123,-0.89281 1.9364944,-2.73055 2.7608694,-5.15363 0.7875064,3.22902 1.8746851,3.05434 1.6565216,5.52174"
           style="fill:none;fill-opacity:1;fill-rule:evenodd;stroke:#ffffff;stroke-width:1.10434771;stroke-linecap:round;stroke-linejoin:round;stroke-miterlimit:4;stroke-dasharray:none;stroke-opacity:1;paint-order:stroke fill markers" />
        <path
           sodipodi:nodetypes="cc"
           inkscape:connector-curvature="0"
           id="path5255"
           d="m 7.6862074,285.37292 c -0.2427137,0.92032 -0.4396715,3.73721 -0.4396715,3.73721"
           style="fill:none;fill-opacity:1;fill-rule:evenodd;stroke:#ffffff;stroke-width:1.47246361;stroke-linecap:butt;stroke-linejoin:miter;stroke-miterlimit:4;stroke-dasharray:none;stroke-opacity:1;paint-order:stroke fill markers" />
        <path
           sodipodi:nodetypes="ccc"
           inkscape:connector-curvature="0"
           id="path5261"
           d="m 4.9399813,287.79111 c 0.7328926,-1.33622 2.1429517,-2.44615 2.7462283,-2.96196 1.0127122,0.86558 0.3675378,2.97098 2.1983552,2.74213"
           style="fill:none;fill-opacity:1;fill-rule:evenodd;stroke:#ffffff;stroke-width:1.10434771;stroke-linecap:round;stroke-linejoin:round;stroke-miterlimit:4;stroke-dasharray:none;stroke-opacity:1;paint-order:stroke fill markers" />
        <circle
           r="1.3331906"
           cy="282.5766"
           cx="8.3251419"
           id="path5263"
           style="opacity:1;vector-effect:none;fill:#ffffff;fill-opacity:1;stroke:none;stroke-width:1.28840566;stroke-linecap:round;stroke-linejoin:round;stroke-miterlimit:4;stroke-dasharray:none;stroke-dashoffset:0;stroke-opacity:1;paint-order:normal" />
      </g>
      <circle
         r="1.0304544"
         cy="292.7738"
         cx="14.729126"
         id="path6701"
         style="overflow:visible;opacity:1;vector-effect:none;fill:#ffffff;fill-opacity:1;stroke:none;stroke-width:1.32992578;stroke-linecap:round;stroke-linejoin:round;stroke-miterlimit:4;stroke-dasharray:none;stroke-dashoffset:0;stroke-opacity:1;paint-order:stroke fill markers" />
      <path
         sodipodi:nodetypes="cccc"
         inkscape:connector-curvature="0"
         id="path6703"
         d="m 18.09417,293.52625 c 0.183106,-1.64795 0.732423,-2.92969 0.732423,-3.1128 0.366212,0.73242 1.464846,1.09863 1.464846,1.09863 l 1.28174,-0.73242"
         style="fill:none;fill-rule:evenodd;stroke:#ffffff;stroke-width:1.10827148;stroke-linecap:round;stroke-linejoin:round;stroke-miterlimit:4;stroke-dasharray:none;stroke-opacity:1" />
      <path
         sodipodi:nodetypes="cc"
         inkscape:connector-curvature="0"
         id="path6705"
         d="m 18.460382,289.13171 0.366211,1.46485"
         style="fill:none;fill-rule:evenodd;stroke:#ffffff;stroke-width:1.55158007;stroke-linecap:round;stroke-linejoin:miter;stroke-miterlimit:4;stroke-dasharray:none;stroke-opacity:1" />
      <path
         sodipodi:nodetypes="ccc"
         inkscape:connector-curvature="0"
         id="path6707"
         d="m 16.263113,290.04724 c 0,0 1.28174,-0.18311 2.014163,-1.28174 0.894139,0.009 1.464846,-0.18311 1.831057,0.54932"
         style="fill:none;fill-rule:evenodd;stroke:#ffffff;stroke-width:1.10827148;stroke-linecap:round;stroke-linejoin:bevel;stroke-miterlimit:4;stroke-dasharray:none;stroke-opacity:1" />
      <circle
         r="1.0070815"
         cy="287.12671"
         cx="17.654291"
         id="path6701-6"
         style="overflow:visible;opacity:1;vector-effect:none;fill:#ffffff;fill-opacity:1;stroke:none;stroke-width:1.32992578;stroke-linecap:round;stroke-linejoin:round;stroke-miterlimit:4;stroke-dasharray:none;stroke-dashoffset:0;stroke-opacity:1;paint-order:stroke fill markers" />
    </g>
  </g>
</svg>
