<?xml version="1.0" encoding="UTF-8" standalone="no"?>
<!-- Created with Inkscape (http://www.inkscape.org/) -->

<svg
   xmlns:dc="http://purl.org/dc/elements/1.1/"
   xmlns:cc="http://creativecommons.org/ns#"
   xmlns:rdf="http://www.w3.org/1999/02/22-rdf-syntax-ns#"
   xmlns:svg="http://www.w3.org/2000/svg"
   xmlns="http://www.w3.org/2000/svg"
   xmlns:sodipodi="http://sodipodi.sourceforge.net/DTD/sodipodi-0.dtd"
   xmlns:inkscape="http://www.inkscape.org/namespaces/inkscape"
   width="100"
   height="100"
   viewBox="0 0 26.458333 26.458334"
   version="1.1"
   id="svg4540"
   inkscape:version="0.92.1 r15371"
   sodipodi:docname="living_street_france.svg">
  <defs
     id="defs4534" />
  <sodipodi:namedview
     id="base"
     pagecolor="#ffffff"
     bordercolor="#666666"
     borderopacity="1.0"
     inkscape:pageopacity="0.0"
     inkscape:pageshadow="2"
     inkscape:zoom="1.4"
     inkscape:cx="3.0123502"
     inkscape:cy="77.101111"
     inkscape:document-units="mm"
     inkscape:current-layer="layer1"
     showgrid="true"
     units="px"
     inkscape:window-width="958"
     inkscape:window-height="1008"
     inkscape:window-x="-7"
     inkscape:window-y="0"
     inkscape:window-maximized="0">
    <inkscape:grid
       type="xygrid"
       id="grid5125"
       empspacing="4" />
  </sodipodi:namedview>
  <metadata
     id="metadata4537">
    <rdf:RDF>
      <cc:Work
         rdf:about="">
        <dc:format>image/svg+xml</dc:format>
        <dc:type
           rdf:resource="http://purl.org/dc/dcmitype/StillImage" />
        <dc:title />
      </cc:Work>
    </rdf:RDF>
  </metadata>
  <g
     inkscape:label="Layer 1"
     inkscape:groupmode="layer"
     id="layer1"
     transform="translate(0,-270.54165)">
    <g
       id="g4531">
      <g
         id="g4518">
        <rect
           rx="2.1380277"
           style="opacity:1;vector-effect:none;fill:#495aad;fill-opacity:1;stroke:none;stroke-width:0.89958334;stroke-linecap:round;stroke-linejoin:round;stroke-miterlimit:4;stroke-dasharray:none;stroke-dashoffset:0;stroke-opacity:1;paint-order:stroke fill markers"
           id="rect6068"
           width="26.458332"
           height="26.458332"
           x="2e-008"
           y="270.54166"
           ry="2.0906358" />
        <rect
           rx="1.8520833"
           style="opacity:1;vector-effect:none;fill:#ffffff;fill-opacity:1;stroke:none;stroke-width:0.89958334;stroke-linecap:round;stroke-linejoin:round;stroke-miterlimit:4;stroke-dasharray:none;stroke-dashoffset:0;stroke-opacity:1;paint-order:stroke fill markers"
           id="rect6068-3"
           width="25.4"
           height="25.4"
           x="0.5291667"
           y="271.07083"
           ry="1.8520833" />
        <rect
           rx="1.0583333"
           style="opacity:1;vector-effect:none;fill:#495aad;fill-opacity:1;stroke:none;stroke-width:0.89958334;stroke-linecap:round;stroke-linejoin:round;stroke-miterlimit:4;stroke-dasharray:none;stroke-dashoffset:0;stroke-opacity:1;paint-order:stroke fill markers"
           id="rect6068-3-8"
           width="23.283333"
           height="23.283333"
           x="1.5875"
           y="272.12915"
           ry="1.0583333" />
      </g>
      <path
         inkscape:connector-curvature="0"
         id="path6554"
         d="m 10.694216,273.71665 c -0.7561978,0.37798 -0.9453095,2.26786 -0.9453095,2.26786 -0.4007755,0.10554 -0.9525297,0.43464 -0.9526919,0.77071 l 0.00738,0.74119 c 3.704e-4,0.37798 0.1893575,0.56697 0.7563215,0.56697 v 0.94494 c 0,0 -0.051866,0.36801 0.1889882,0.37797 h 0.9449407 c 0.236295,0 0.188987,-0.37797 0.188987,-0.37797 v -0.75596 h 3.401786 v 0.75596 c 0,0 -0.0462,0.37797 0.190096,0.37797 h 0.945309 c 0.236296,0 0.187512,-0.37797 0.187512,-0.37797 v -0.94494 c 0.566964,0 0.756071,-0.18899 0.757798,-0.56697 v -0.75595 c -0.102927,-0.35356 -0.615972,-0.64981 -0.94531,-0.75595 0,0 -0.190589,-1.88988 -0.945309,-2.26786 z m 0.47247,0.75595 h 2.83556 c 0.472595,0.56697 0.472471,1.51191 0.472471,1.51191 h -3.780501 c 0,0 -1.25e-4,-0.94494 0.47247,-1.51191 z m -1.050139,2.07924 a 0.56696432,0.56696432 0 0 1 0.566965,0.56696 0.56696432,0.56696432 0 0 1 -0.566965,0.56697 0.56696432,0.56696432 0 0 1 -0.5669639,-0.56697 0.56696432,0.56696432 0 0 1 0.5669639,-0.56696 z m 4.924396,0 a 0.56696432,0.56696432 0 0 1 0.566964,0.56696 0.56696432,0.56696432 0 0 1 -0.566964,0.56697 0.56696432,0.56696432 0 0 1 -0.566965,-0.56697 0.56696432,0.56696432 0 0 1 0.566965,-0.56696 z"
         style="fill:#ffffff;fill-opacity:1;fill-rule:nonzero;stroke:none;stroke-width:0.01815843" />
      <g
         id="g4513">
        <path
           sodipodi:nodetypes="ccc"
           inkscape:connector-curvature="0"
           id="path5253"
           d="m 4.6090672,292.9277 c 1.8102123,-0.89281 1.9364944,-2.73055 2.7608694,-5.15363 0.7875064,3.22902 1.8746851,3.05434 1.6565216,5.52174"
           style="fill:none;fill-opacity:1;fill-rule:evenodd;stroke:#ffffff;stroke-width:1.10434771;stroke-linecap:round;stroke-linejoin:round;stroke-miterlimit:4;stroke-dasharray:none;stroke-opacity:1;paint-order:stroke fill markers" />
        <path
           sodipodi:nodetypes="cc"
           inkscape:connector-curvature="0"
           id="path5255"
           d="m 7.6862074,285.37292 c -0.2427137,0.92032 -0.4396715,3.73721 -0.4396715,3.73721"
           style="fill:none;fill-opacity:1;fill-rule:evenodd;stroke:#ffffff;stroke-width:1.47246361;stroke-linecap:butt;stroke-linejoin:miter;stroke-miterlimit:4;stroke-dasharray:none;stroke-opacity:1;paint-order:stroke fill markers" />
        <path
           sodipodi:nodetypes="ccc"
           inkscape:connector-curvature="0"
           id="path5261"
           d="m 4.9399813,287.79111 c 0.7328926,-1.33622 2.1429517,-2.44615 2.7462283,-2.96196 1.0127122,0.86558 0.3675378,2.97098 2.1983552,2.74213"
           style="fill:none;fill-opacity:1;fill-rule:evenodd;stroke:#ffffff;stroke-width:1.10434771;stroke-linecap:round;stroke-linejoin:round;stroke-miterlimit:4;stroke-dasharray:none;stroke-opacity:1;paint-order:stroke fill markers" />
        <circle
           r="1.3331906"
           cy="282.5766"
           cx="8.3251419"
           id="path5263"
           style="opacity:1;vector-effect:none;fill:#ffffff;fill-opacity:1;stroke:none;stroke-width:1.28840566;stroke-linecap:round;stroke-linejoin:round;stroke-miterlimit:4;stroke-dasharray:none;stroke-dashoffset:0;stroke-opacity:1;paint-order:normal" />
      </g>
      <path
         inkscape:connector-curvature="0"
         id="path8169-4-8-0-95-6-8"
         style="opacity:1;vector-effect:none;fill:none;fill-opacity:1;stroke:#ffffff;stroke-width:0.72028613;stroke-linecap:round;stroke-linejoin:round;stroke-miterlimit:4;stroke-dasharray:none;stroke-dashoffset:0;stroke-opacity:1;paint-order:normal"
         d="m 17.440339,286.72946 a 1.79299,1.7852958 0 0 1 -1.792991,1.7853 1.79299,1.7852958 0 0 1 -1.79299,-1.7853 1.79299,1.7852958 0 0 1 1.79299,-1.78529 1.79299,1.7852958 0 0 1 1.792991,1.78529 z m 5.842994,-3.2e-4 a 1.79299,1.7852958 0 0 1 -1.79299,1.78529 1.79299,1.7852958 0 0 1 -1.79299,-1.78529 1.79299,1.7852958 0 0 1 1.79299,-1.78529 1.79299,1.7852958 0 0 1 1.79299,1.78529 z m -6.639191,-2.74971 2.26614,2.73994 h 2.589874 l -1.780539,-2.73994 h -3.075475 m 2.26614,2.73994 0.809335,-3.38462 m 0,0 0.788896,-0.002 m -4.835574,3.38627 1.349112,-3.99949 h 1.294937" />
    </g>
  </g>
</svg>
