<?xml version="1.0" encoding="UTF-8" standalone="no"?>
<!-- Created with Inkscape (http://www.inkscape.org/) -->

<svg
   xmlns:dc="http://purl.org/dc/elements/1.1/"
   xmlns:cc="http://creativecommons.org/ns#"
   xmlns:rdf="http://www.w3.org/1999/02/22-rdf-syntax-ns#"
   xmlns:svg="http://www.w3.org/2000/svg"
   xmlns="http://www.w3.org/2000/svg"
   xmlns:sodipodi="http://sodipodi.sourceforge.net/DTD/sodipodi-0.dtd"
   xmlns:inkscape="http://www.inkscape.org/namespaces/inkscape"
   width="226"
   height="222"
   viewBox="0 0 226 222"
   version="1.1"
   id="svg5161"
   inkscape:version="0.92.1 r15371"
   sodipodi:docname="logo_osm_map.svg">
  <defs
     id="defs5155">
    <clipPath
       clipPathUnits="userSpaceOnUse"
       id="clipMap">
      <path
         id="map"
         d="m 0,238.92394 c 0,0 1.984375,3.43958 3.1088541,7.34219 1.1244789,3.9026 1.6536458,6.74687 1.6536458,6.74687 0,0 -1.4552089,3.37344 -2.1828129,6.54844 -0.727604,3.175 -1.521354,6.08542 -1.521354,6.08542 0,0 1.521354,4.23333 2.4473961,7.9375 0.9260419,3.70416 0.9921869,6.41614 0.9921869,6.41614 0,0 -1.058333,2.71198 -1.984375,6.41615 -0.926041,3.70417 -1.322916,8.13594 -1.322916,8.13594 0,0 2.447396,-0.52917 7.5406251,0.33073 5.0932289,0.85989 8.5328119,1.5875 8.5328119,1.5875 0,0 3.373438,-0.72761 6.35,-1.65365 2.976564,-0.92604 4.299478,-1.71979 4.299478,-1.71979 0,0 1.455211,0.13229 5.953127,1.65364 4.497917,1.52136 7.739063,2.24896 7.739063,2.24896 0,0 3.439583,-0.7276 6.879166,-1.52135 3.439584,-0.79375 7.011459,-2.11667 7.011459,-2.11667 0,0 -0.198438,-1.32291 1.124479,-6.48229 1.322914,-5.15937 2.315104,-7.40833 2.315104,-7.40833 0,0 -0.132292,-1.19063 -0.99219,-5.22552 -0.859893,-4.0349 -2.645831,-7.87136 -2.645831,-7.87136 0,0 0.463021,-2.77812 1.785938,-6.28385 1.322916,-3.50573 2.711979,-7.07761 2.711979,-7.07761 0,0 -1.256771,-4.03489 -1.984375,-7.87135 -0.727604,-3.83646 -2.182813,-6.81302 -2.182813,-6.81302 0,0 -6.416148,2.38125 -8.400523,2.77812 -1.984375,0.39688 -5.556247,1.38907 -5.556247,1.38907 0,0 -2.579688,-1.12448 -5.820834,-2.24896 -3.241148,-1.12448 -7.871354,-1.45521 -7.871354,-1.45521 0,0 -0.859898,0.92604 -5.820834,2.11667 -4.960938,1.19062 -7.276042,1.52135 -7.276042,1.52135 0,0 -4.8947921,-2.38125 -8.3343749,-3.04271 C 3.1088531,238.7255 0.198436,238.8578 -1e-6,238.92394 Z"
         style="fill:#f7ffff;fill-opacity:0.33165834;stroke:none;stroke-width:0.26458332" />
    </clipPath>
  </defs>
  <path
     style="fill:#ceeeab;fill-opacity:1;stroke:none;stroke-width:0.9994126"
     d="m 2.7773077e-6,2.31482 c 0,0 7.4955949226923,12.99235 11.7430982226923,27.73371 4.247504,14.74132 6.246329,25.485 6.246329,25.485 0,0 -5.496769,12.74252 -8.2451538,24.73548 -2.748385,11.99295 -5.7466229,22.9865 -5.7466229,22.9865 0,0 5.7466229,15.99059 9.2445667,29.98238 3.497945,13.99175 3.747798,24.23573 3.747798,24.23573 0,0 -3.997651,10.24399 -7.4955953,24.23578 -3.497944,13.99179 -4.997063,30.73195 -4.997063,30.73195 0,0 9.2445673,-1.99884 28.4832603,1.24926 19.238693,3.24807 32.231057,5.99648 32.231057,5.99648 0,0 12.742513,-2.74841 23.985903,-6.24634 11.24339,-3.49794 16.24046,-6.49618 16.24046,-6.49618 0,0 5.49677,0.4997 22.48678,6.24631 16.99002,5.74664 29.23282,8.49501 29.23282,8.49501 0,0 12.99237,-2.74837 25.98473,-5.74661 12.99237,-2.99823 26.48443,-7.99531 26.48443,-7.99531 0,0 -0.74955,-4.99704 4.24751,-24.4856 4.99706,-19.48853 8.74486,-27.98355 8.74486,-27.98355 0,0 -0.49971,-4.49737 -3.7478,-19.73839 -3.24809,-15.24106 -9.99412,-29.73255 -9.99412,-29.73255 0,0 1.74897,-10.49382 6.74603,-23.73604 4.99706,-13.24222 10.24398,-26.73431 10.24398,-26.73431 0,0 -4.74721,-15.24102 -7.49559,-29.73251 -2.74839,-14.49149 -8.24516,-25.73487 -8.24516,-25.73487 0,0 -24.23576,8.99471 -31.73135,10.49381 -7.4956,1.49914 -20.98767,5.24695 -20.98767,5.24695 0,0 -9.74427,-4.24751 -21.98707,-8.49502 -12.24281,-4.2475 -29.73253,-5.49677 -29.73253,-5.49677 0,0 -3.24809,3.49794 -21.987078,7.99531 -18.738989,4.49734 -27.483849,5.74661 -27.483849,5.74661 0,0 -18.489133,-8.99471 -31.481497,-11.49325 C 11.743101,1.56525 0.74956227,2.06499 2.7773077e-6,2.31482 Z"
     id="path3834-9" />
  <path
     transform="matrix(3.7773077,0,0,3.7773077,2.7773077e-6,-900.17441)"
     clip-path="url(#clipMap)"
     id="path5436"
     d="m 26.921354,237.13801 -1.124479,1.85208 c -0.198438,2.38125 -0.595313,3.63802 -2.248959,4.36563 -1.653645,0.7276 -3.241145,0.92604 -2.910416,1.98437 0.330729,1.05833 3.439583,2.4474 3.770312,3.43958 0.330729,0.99219 2.182813,0.46303 2.910417,1.85209 0.727604,1.38906 0.529166,4.03489 -0.992188,4.56406 -1.521354,0.52917 -4.630208,0.13229 -5.357812,2.51354 -0.727604,2.38125 -1.256771,2.77813 -2.38125,3.37344 -1.124479,0.59531 -1.918229,2.77812 -0.926042,4.36562 0.992188,1.5875 3.241146,-0.33072 3.96875,-1.71979 0.727604,-1.38906 1.918229,-2.3151 1.918229,-2.3151 h 6.283854 l 15.610417,-0.46302 0.859896,-0.99219 c 0,0 0.859896,1.05833 0.727604,2.3151 -0.132292,1.25678 -0.992188,3.90261 0.06615,4.56407 1.058333,0.66146 5.159375,-0.52917 6.35,-1.85209 1.190625,-1.32291 -1.256771,-7.47448 -2.778125,-7.8052 -1.521354,-0.33073 -4.894792,-0.46303 -4.497917,-1.85209 0.396875,-1.38906 3.108854,1.19063 4.564062,0.8599 1.455209,-0.33073 4.431771,-5.55625 3.175,-6.68073 -1.25677,-1.12448 -6.416145,-1.38906 -6.81302,-2.11667 -0.396875,-0.7276 5.55625,-2.11666 5.886979,-2.91041 0.330729,-0.79375 -0.661459,-1.91823 -1.653646,-2.24896 -0.992187,-0.33073 -3.704167,4.29948 -5.55625,4.16718 -1.852083,-0.13229 -5.291667,1.52136 -4.564062,3.04271 0.727604,1.52136 -1.5875,2.91042 -3.836459,1.71979 -2.248958,-1.19062 -6.548437,-3.43958 -5.754687,-6.35 0.79375,-2.91041 5.688541,-4.96093 5.688541,-4.96093 z m -3.588544,28.36836 c -0.421746,0.0386 -1.182158,1.2401 -1.306248,1.86028 -0.132291,0.66146 -0.859896,1.78594 -0.926041,3.24115 -0.06615,1.45521 1.25677,1.78594 2.315104,1.71979 1.058333,-0.0661 0.727604,-1.78594 0.529166,-3.96875 -0.06614,0 -0.132291,-2.71198 -0.529166,-2.84427 a 0.20902083,0.20902083 0 0 0 -0.08282,-0.008 z m 24.532166,13.66731 c -1.6764,0.0781 -1.753129,1.97618 -1.959768,2.34818 -0.330729,0.59531 0.595312,3.63802 0.529166,4.7625 -0.06614,1.12448 -1.25677,1.38906 -2.513541,2.57969 -1.256771,1.19062 0.132291,4.23333 2.976562,8.20208 l 11.840104,0.33073 -0.264583,-9.26041 c 0,0 1.256771,-1.12448 -5.490104,-6.41615 -2.530211,-1.98438 -4.112154,-2.59345 -5.1181,-2.54662 z m -39.6795615,4.37383 c -1.0660063,-0.027 -2.19075,1.51315 -2.5630188,2.00925 -0.396875,0.52916 -1.6536458,1.32291 -4.4979166,2.51354 l -3.8364583,9.06198 14.0229162,1.12448 c 0,0 0.463021,-2.91042 -1.124479,-4.16719 -1.5874998,-1.25677 -4.5640623,-1.52135 -4.8286456,-3.50573 -0.2645833,-1.98437 2.4473958,-2.64583 3.6380208,-3.77031 1.1906248,-1.12448 0.5291667,-2.97656 -0.5953125,-3.24115 a 1.0623021,1.0623021 0 0 0 -0.2151062,-0.0249 z"
     style="fill:#a6dd8b;fill-opacity:1;stroke:none;stroke-width:0.26458332" />
  <path
     style="fill:#aac3e7;fill-opacity:1;stroke:none;stroke-width:0.9994126"
     d="m 149.44317,75.36591 c -4.7572,-0.0151 -9.02569,0.96843 -11.52422,3.15413 -7.9953,6.99587 -34.97945,0.74957 -48.471516,6.99587 -13.492071,6.24635 -13.242217,37.9777 -14.741336,44.47387 -1.499119,6.49618 -17.48972,20.73784 -19.988254,23.48621 -2.498531,2.74837 -13.242217,7.24574 -19.488546,8.49501 -6.246328,1.24927 -12.742511,7.24575 -15.490895,10.99355 -2.019813,2.75438 -7.401651,6.4462 -10.1190534,8.21417 -0.045974,0.18094 -0.079954,0.34789 -0.1249269,0.53068 -0.1339206,0.53467 -0.2468546,1.08235 -0.3747806,1.62405 4.9770749,-1.60407 11.1734329,-8.17519 16.6152349,-13.617 6.246329,-6.24635 19.988253,-7.74545 27.733702,-11.49326 7.745448,-3.7478 14.241632,-19.73839 26.484434,-23.73603 12.242805,-3.99768 21.237517,11.74308 24.235757,18.48913 2.99824,6.74604 1.74897,12.74252 3.7478,16.99002 1.99882,4.24747 10.99354,11.74309 11.49324,13.49206 0.49971,1.74896 -4.99706,6.49617 -6.24633,8.49501 -1.24926,1.99884 -10.49383,6.99588 -11.74309,8.74484 -0.96544,1.35122 -1.921875,6.76905 -2.311645,9.21361 0.413755,-0.16998 0.754555,-0.30974 1.125335,-0.46872 0.48272,-2.52853 1.51411,-7.07384 2.93528,-8.49502 1.99882,-1.99883 11.24339,-4.49737 12.49265,-8.49501 1.24927,-3.99764 6.9959,-6.49618 6.9959,-6.49618 0,0 2.74838,3.99764 15.9906,13.99179 8.82781,6.66306 12.7505,15.52485 14.39753,20.70683 0.67361,0.16998 1.53211,0.40976 2.02981,0.53067 -1.21928,-4.31644 -4.83316,-16.22947 -8.93175,-20.7378 -4.99706,-5.49677 -18.48913,-10.74368 -22.73664,-21.9871 -4.2475,-11.24338 -24.485604,-34.22989 -17.48972,-40.22636 6.99589,-5.99648 16.49031,-3.99764 28.48326,7.49561 11.99296,11.49325 46.22284,5.74661 57.71608,3.74781 9.94916,-1.73001 20.82177,14.87424 23.89196,26.01571 a 303.52462,303.52462 0 0 1 1.65503,-5.74664 c -1.73698,-1.92488 -3.69483,-4.61727 -5.30888,-8.27612 -3.7478,-8.49501 -11.99295,-13.24222 -11.99295,-13.24222 0,0 8.74486,-4.99708 14.74133,-7.74545 a 18.914884,18.914884 0 0 0 4.18555,-2.65446 c -0.16292,-0.77352 -0.25985,-1.25524 -0.43775,-2.09274 l -0.0939,-0.43775 c -4.7622,5.55974 -19.2207,9.61033 -21.64328,10.93156 -2.74838,1.49914 -18.23928,2.99824 -35.729,4.49738 -17.48972,1.4991 -26.73429,-7.49562 -34.22988,-14.74136 -7.4956,-7.24575 -12.99237,-35.97886 -2.99824,-37.97766 9.99412,-1.99884 19.98825,13.74192 29.98238,16.98999 9.99412,3.24811 21.48737,-15.74076 19.73839,-26.98414 -1.20229,-7.72947 -13.98877,-12.61757 -24.45463,-12.64854 z M 96.130508,88.6391 c 1.275249,9.9e-4 5.856552,1.59305 6.559142,2.37359 2.24868,2.49854 1.99883,7.24574 0,7.99531 -1.99883,0.74957 -12.742508,7.99532 -10.493832,14.24162 2.248681,6.24635 1.748973,17.98943 -3.497941,17.98943 -5.246919,0 -7.995303,0 -9.99413,-2.49854 -1.998822,-2.49853 -1.998822,-11.99295 0,-19.73839 1.998827,-7.74545 3.497946,-14.99119 7.995303,-18.23926 3.092183,-2.23269 6.628106,-2.12678 9.432455,-2.12376 z m 13.586012,73.05106 c 0.20288,0.0113 1.90488,3.51293 4.71623,7.02688 2.99824,3.74777 3.24809,8.24515 3.24809,8.24515 0,0 -4.2475,-4.74721 -5.99647,-7.99531 -1.74898,-3.24807 -1.99883,-7.24575 -1.99883,-7.24575 0,-0.0302 0.0181,-0.0302 0.031,-0.0302 z"
     id="path5280" />
  <path
     transform="matrix(3.7773077,0,0,3.7773077,2.7773077e-6,-900.17441)"
     clip-path="url(#clipMap)"
     id="path5329"
     style="opacity:0.38699999;fill:none;stroke:#6d7f42;stroke-width:0.26473883;stroke-linecap:round;stroke-linejoin:round;stroke-miterlimit:4;stroke-dasharray:none;stroke-opacity:1"
     d="m 42.267187,298.12447 c 2.38125,-3.63802 5.423958,-10.84792 7.805208,-11.1125 2.38125,-0.26459 2.711979,-0.66146 3.307292,-1.12448 0.595312,-0.46302 4.497916,0.59531 4.497916,0.59531 m -39.753645,10.98021 c 3.571875,-3.04271 6.151562,-6.61459 7.540625,-7.14375 1.389062,-0.52917 3.373437,-0.99219 4.167187,-2.11667 0.79375,-1.12448 0.661459,-2.84427 1.389063,-3.175 0.727604,-0.33073 0.992187,1.52136 2.315104,1.5875 1.322917,0.0661 9.723437,-1.32292 11.310937,-3.10885 1.5875,-1.78594 8.532813,-3.30729 8.598959,-3.83646 0.06614,-0.52917 -0.264584,-1.25677 0.06614,-1.45521 0.33073,-0.19844 6.548438,-1.5875 6.548438,-1.5875 M 0.19843747,292.30363 C 5.2255207,288.99634 9.7234373,291.9729 13.163021,291.2453 c 3.439583,-0.7276 10.120312,-9.85573 12.170833,-9.78958 2.050521,0.0661 1.455208,-3.10886 2.248958,-3.50573 0.79375,-0.39688 1.455208,1.5875 3.108854,2.11666 1.653646,0.52917 6.482292,-0.7276 6.217709,-1.52135 -0.264584,-0.79375 -1.852084,-2.05052 -1.455209,-2.24896 0.396875,-0.19844 2.248958,1.32292 3.373438,0.92604 1.124479,-0.39687 11.57552,-0.26458 12.832291,-3.57187 1.256771,-3.30729 5.688542,-3.57188 5.688542,-3.57188 m -9.458854,-29.50104 c 3.108854,1.32292 10.31875,2.57969 12.501562,10.64948 M 3.2411458,277.75155 c 3.6380208,0.26458 5.6885416,1.12448 8.8635412,-0.13229 3.175,-1.25677 3.571875,-1.38906 3.638021,-2.31511 0.06615,-0.92604 -0.06615,-4.16718 -0.79375,-5.29166 -0.727604,-1.12448 -3.439583,-3.63802 -4.167187,-6.41615 -0.727604,-2.77812 0.06615,-10.84792 2.248958,-12.76614 2.182812,-1.91823 8.466667,-1.91823 9.921875,-2.77813 1.455208,-0.8599 1.389062,-4.43177 3.439583,-6.48229 2.050521,-2.05052 7.14375,-3.24115 7.14375,-3.24115 M 1.4552083,278.28072 c 4.0348958,-0.39688 5.8869791,0.92604 8.3343749,0.46302 2.4473958,-0.46302 3.5057288,-0.79375 4.6963538,-1.52136 1.190625,-0.7276 1.5875,-0.99218 1.653646,-1.71979 0.06615,-0.7276 0.264583,-3.30729 -0.79375,-5.82083 -1.058333,-2.51354 -3.307292,-8.33438 -2.182812,-10.25261 1.124479,-1.91823 1.389062,-5.68854 4.167187,-6.48229 2.778125,-0.79375 5.55625,-1.65364 7.342187,-0.33073 1.785938,1.32292 3.373438,3.77032 5.291667,3.83646 1.918229,0.0661 3.108854,-0.39687 3.836458,-1.19062 0.727605,-0.79375 1.190625,-2.71198 0.463021,-3.63802 -0.727604,-0.92605 -4.101041,-1.45521 -4.564062,-2.51355 -0.463021,-1.05833 -2.844271,-4.49791 -0.06615,-7.0776 2.778125,-2.57969 9.591146,-2.18281 9.591146,-2.18281 M 2.2489583,282.5802 c 4.8286457,-2.64584 7.6067707,-2.24896 9.2604167,-3.04271 1.653646,-0.79375 3.505729,-1.52136 4.167187,-2.51354 0.661459,-0.99219 1.521354,-3.04271 1.521354,-4.7625 0,-1.7198 -0.926041,-9.525 0.859896,-11.50938 1.785938,-1.98437 4.564063,-6.87917 6.879167,-6.15156 2.315104,0.7276 3.241146,2.57969 5.820833,2.51354 2.579688,-0.0661 5.754688,-1.05833 6.416146,-3.24115 0.661458,-2.18281 -4.167188,-4.23333 -4.233333,-6.08541 -0.06615,-1.85209 1.455208,-3.77032 5.357812,-4.49792 3.902604,-0.7276 6.217708,-3.04271 6.217708,-3.04271 M 1.7859374,275.70103 c 8.7312496,-0.66146 10.1203126,-0.92604 9.5911456,-2.71198 -0.529166,-1.78594 -2.315104,-6.21771 -6.0854164,-5.95313 -3.7703125,0.26459 -6.01927079,-1.78593 -6.01927079,-1.78593 M 26.392187,250.6979 c -2.248958,-1.4552 -2.248958,-1.91823 -1.852083,-2.11666 0.396875,-0.19844 2.711979,1.32291 3.373437,2.11666 0.661459,0.79375 -0.595312,0.52917 -1.521354,0 z m 3.704167,4.10105 c 1.653646,0.13229 3.241146,-0.59532 2.844271,-1.7198 -0.396875,-1.12448 -3.307292,-1.91823 -3.50573,-0.79375 -0.198437,1.12448 0.529167,2.77813 0.661459,2.51355 z" />
  <path
     transform="matrix(3.7773077,0,0,3.7773077,2.7773077e-6,-900.17441)"
     clip-path="url(#clipMap)"
     d="m 25.598437,291.84061 3.307292,-7.34219 2.910416,-1.85208 7.276042,4.16719 5.423958,-0.99219 -0.06615,-4.16719 -2.711979,-1.5875 3.373438,-6.94531 1.521354,-0.99219 10.252604,-2.64583 m -43.986979,-28.50885 -2.248958,7.47448 4.7625,1.65364 2.050521,9.59115 -5.55625,5.88698 2.38125,2.77812 -3.175,3.04271 0.132291,1.19062 5.357813,6.4823 3.704167,-1.78594 5.423958,4.89479 -2.778125,7.47448 2.711979,2.24896 -0.727604,3.43958"
     id="path5389"
     style="fill:none;stroke:#d38484;stroke-width:0.52947766;stroke-linecap:round;stroke-linejoin:miter;stroke-miterlimit:4;stroke-dasharray:none;stroke-opacity:1" />
</svg>
