<?xml version="1.0" encoding="UTF-8" standalone="no"?>
<!-- Created with Inkscape (http://www.inkscape.org/) -->

<svg
   xmlns:dc="http://purl.org/dc/elements/1.1/"
   xmlns:cc="http://creativecommons.org/ns#"
   xmlns:rdf="http://www.w3.org/1999/02/22-rdf-syntax-ns#"
   xmlns:svg="http://www.w3.org/2000/svg"
   xmlns="http://www.w3.org/2000/svg"
   xmlns:xlink="http://www.w3.org/1999/xlink"
   xmlns:sodipodi="http://sodipodi.sourceforge.net/DTD/sodipodi-0.dtd"
   xmlns:inkscape="http://www.inkscape.org/namespaces/inkscape"
   width="216"
   height="216"
   viewBox="0 0 216 216.00001"
   version="1.1"
   id="svg6021"
   inkscape:version="0.92.1 r15371"
   sodipodi:docname="logo_osm_magnifier.svg">
  <defs
     id="defs6015">
    <radialGradient
       id="radialGradient6256"
       gradientUnits="userSpaceOnUse"
       gradientTransform="matrix(1.0052159,1.0052159,1.0052159,-1.0052159,-68.96149,933.75781)"
       cx="128"
       cy="86"
       fx="128"
       fy="86"
       r="47" >
      <stop
         offset="0"
         id="stop5747-3"
         stop-color="#d0e9f2"
         stop-opacity="0" />
      <stop
         id="stop5753-6"
         offset=".839"
         stop-color="#d0e9f2"
         stop-opacity="0" />
      <stop
         offset=".943"
         id="stop5755-9"
         stop-color="#d0e9f2"
         stop-opacity=".282" />
      <stop
         offset="1"
         id="stop5749-0"
         stop-color="#d0e9f2"
         stop-opacity="1" />
    </radialGradient>
    <linearGradient
       id="linearGradient6595"
       x1="126.643"
       y1="29.815001"
       x2="179.961"
       y2="137.196"
       gradientUnits="userSpaceOnUse"
       gradientTransform="translate(-28.123,880.50463)" >
      <stop
         offset="0"
         id="stop4746-3"
         stop-color="#fff"
         stop-opacity="1" />
      <stop
         offset="1"
         id="stop4748-8"
         stop-color="#fff"
         stop-opacity="0" />
    </linearGradient>
    <linearGradient
       gradientTransform="matrix(-0.50295,0.1984,0.1972,-0.43254,248.033,1013.9216)"
       y2="137.196"
       x2="179.961"
       y1="29.815001"
       x1="126.643"
       gradientUnits="userSpaceOnUse"
       id="linearGradient6614">
      <stop
         offset="0"
         id="stop4746-3"
         stop-color="#fff"
         stop-opacity="1" />
      <stop
         offset="1"
         id="stop4748-8"
         stop-color="#fff"
         stop-opacity="0" />
    </linearGradient>
    <linearGradient
       id="linearGradient6241"
       gradientUnits="userSpaceOnUse"
       gradientTransform="matrix(0.98427143,0.98427143,-0.98427143,0.98427143,38.869345,831.2888)"
       x1="120"
       y1="186.5"
       x2="136"
       y2="186.5" >
      <stop
         offset="0"
         id="stop5864-0-0"
         stop-color="#f9e295"
         stop-opacity="1" />
      <stop
         id="stop5876-0-12"
         offset=".125"
         stop-color="#f7dd84"
         stop-opacity="1" />
      <stop
         id="stop5874-6-6"
         offset=".206"
         stop-color="#fff"
         stop-opacity="1" />
      <stop
         id="stop5870-4-4"
         offset=".301"
         stop-color="#f4ce51"
         stop-opacity="1" />
      <stop
         offset=".341"
         id="stop5872-4-85"
         stop-color="#f9e7aa"
         stop-opacity="1" />
      <stop
         offset="1"
         id="stop5866-3-62"
         stop-color="#efbb0e"
         stop-opacity="1" />
    </linearGradient>

    <linearGradient
       id="linearGradient6253"
       gradientUnits="userSpaceOnUse"
       gradientTransform="matrix(0.98427143,0.98427143,-0.98427143,0.98427143,104.81548,765.34275)"
       x1="128"
       y1="134.35899"
       x2="130.875"
       y2="143.35899" >
      <stop
         offset="0"
         id="stop5764-5"
         stop-color="#2d3335"
         stop-opacity="1" />
      <stop
         id="stop5770-1"
         offset=".5"
         stop-color="#4c464a"
         stop-opacity="1" />
      <stop
         offset="1"
         id="stop5766-2"
         stop-color="#384042"
         stop-opacity="1" />
    </linearGradient>
    <linearGradient
       id="linearGradient6250"
       gradientUnits="userSpaceOnUse"
       gradientTransform="matrix(-0.98427143,-0.98427143,-0.98427143,0.98427143,356.78866,1017.3166)"
       x1="123"
       y1="150.375"
       x2="133"
       y2="150.375">
      <stop
         offset="0"
         id="stop5764-5"
         stop-color="#2d3335"
         stop-opacity="1" />
      <stop
         id="stop5770-1"
         offset=".5"
         stop-color="#4c464a"
         stop-opacity="1" />
      <stop
         offset="1"
         id="stop5766-2"
         stop-color="#384042"
         stop-opacity="1" />
    </linearGradient>
    <linearGradient
       id="linearGradient6247"
       gradientUnits="userSpaceOnUse"
       gradientTransform="matrix(0.98427143,0.98427143,-0.98427143,0.98427143,104.81548,765.34275)"
       x1="120"
       y1="186.5"
       x2="136"
       y2="186.5">
      <stop
         offset="0"
         id="stop5864-0-0"
         stop-color="#f9e295"
         stop-opacity="1" />
      <stop
         id="stop5876-0-12"
         offset=".125"
         stop-color="#f7dd84"
         stop-opacity="1" />
      <stop
         id="stop5874-6-6"
         offset=".206"
         stop-color="#fff"
         stop-opacity="1" />
      <stop
         id="stop5870-4-4"
         offset=".301"
         stop-color="#f4ce51"
         stop-opacity="1" />
      <stop
         offset=".341"
         id="stop5872-4-85"
         stop-color="#f9e7aa"
         stop-opacity="1" />
      <stop
         offset="1"
         id="stop5866-3-62"
         stop-color="#efbb0e"
         stop-opacity="1" />
    </linearGradient>
    <linearGradient
       id="linearGradient6244"
       gradientUnits="userSpaceOnUse"
       gradientTransform="matrix(-1.9685429,-1.9685429,-1.7420778,1.7420778,568.06381,1058.0153)"
       x1="123"
       y1="150.375"
       x2="133"
       y2="150.375">
      <stop
         offset="0"
         id="stop5764-5"
         stop-color="#2d3335"
         stop-opacity="1" />
      <stop
         id="stop5770-1"
         offset=".5"
         stop-color="#4c464a"
         stop-opacity="1" />
      <stop
         offset="1"
         id="stop5766-2"
         stop-color="#384042"
         stop-opacity="1" />
    </linearGradient>
    <linearGradient
       y2="150.375"
       x2="133"
       y1="167.72701"
       x1="108.003"
       gradientTransform="matrix(-1.9685429,-1.9685429,-1.7420778,1.7420778,568.06381,1058.0153)"
       gradientUnits="userSpaceOnUse"
       id="linearGradient6279">
      <stop
         offset="0"
         id="stop4682-2"
         stop-color="#000"
         stop-opacity="1" />
      <stop
         offset="1"
         id="stop4684-7"
         stop-color="#000"
         stop-opacity="0" />
    </linearGradient>
    <radialGradient
       inkscape:collect="always"
       id="radialGradient4660"
       gradientUnits="userSpaceOnUse"
       gradientTransform="matrix(1.1978816,-0.18758325,0.12982522,0.82904652,-70.118244,15.388164)"
       cx="159.61301"
       cy="72.587997"
       fx="159.61301"
       fy="72.587997"
       r="38.417" >
      <stop
         id="stop6848"
         offset="0"
         stop-color="#fff"
         stop-opacity="1" />
      <stop
         offset=".5"
         id="stop6852"
         stop-color="#fff"
         stop-opacity=".931" />
      <stop
         id="stop6850"
         offset="1"
         stop-color="#fff"
         stop-opacity="0" />
    </radialGradient>
  </defs>
  <g
     inkscape:label="Layer 1"
     inkscape:groupmode="layer"
     id="layer1"
     transform="translate(0,-906.51966)">
    <path
       style="fill:#d0e9f2;fill-opacity:0.47600002;stroke:none"
       id="path5604-9-13"
       d="m 98.91,1023.2216 c 26.092,26.093 68.397,26.093 94.49,0 26.093,-26.09197 26.093,-68.39697 0,-94.48997 -26.093,-26.092 -68.398,-26.092 -94.49,0 -26.093,26.093 -26.093,68.398 0,94.48997 z" />
    <path
       style="fill:url(#radialGradient6256);fill-opacity:1;stroke:none"
       id="path5604-9-1-3"
       d="m 98.91,1023.2216 c 26.092,26.093 68.397,26.093 94.49,0 26.093,-26.09197 26.093,-68.39697 0,-94.48997 -26.093,-26.092 -68.398,-26.093 -94.49,0 -26.093,26.093 -26.093,68.398 0,94.48997 z" />
    <path
       style="opacity:0.60399996;fill:url(#linearGradient6595);fill-opacity:1;stroke:none"
       id="path6587"
       d="m 103.045,927.55463 c 40.659,-32.173 78.136,-12.728 77.782,5.303 -0.353,18.031 -56.568,70.35697 -76.367,66.115 -19.8,-4.243 -25.456,-53.387 -1.415,-71.418 z" />
    <g
       id="text6302"
       style="font-style:normal;font-variant:normal;font-weight:400;font-stretch:normal;font-size:19.79999924px;font-family:Sans;-inkscape-font-specification:Sans;fill:url(#radialGradient6427);fill-opacity:1;stroke:none"
       transform="rotate(-8.9,5807.2333,-659.01931)"
       aria-label="010110010011010110010011">
      <path
         style="font-style:normal;font-variant:normal;font-weight:700;font-stretch:normal;font-family:Monospace;-inkscape-font-specification:'Monospace Bold';fill:url(#radialGradient4660);fill-opacity:1"
         d="m 155.38867,9.1289062 c -0.18797,0.00976 -0.38072,0.029635 -0.57812,0.060547 -1.57283,0.2462977 -2.65436,1.0482638 -3.24414,2.4062498 -0.59078,1.351618 -0.69354,3.263704 -0.30664,5.734375 0.3859,2.464303 1.06824,4.252549 2.04492,5.365234 0.97568,1.106318 2.24944,1.535361 3.82226,1.289063 1.5792,-0.247295 2.66509,-1.046819 3.25586,-2.398437 0.59078,-1.351619 0.69159,-3.261751 0.30469,-5.732422 -0.38789,-2.47704 -1.06924,-4.268683 -2.04492,-5.375 -0.85372,-0.9680283 -1.93812,-1.4179413 -3.25391,-1.3496098 z m -11.76758,1.8417968 c -0.18797,0.0098 -0.38072,0.03159 -0.57812,0.0625 -1.57283,0.246298 -2.65436,1.048264 -3.24414,2.40625 -0.59078,1.351618 -0.69354,3.26175 -0.30664,5.732422 0.3859,2.464303 1.06824,4.252549 2.04492,5.365234 0.97568,1.106318 2.24944,1.537314 3.82227,1.291016 1.57919,-0.247295 2.66508,-1.046819 3.25585,-2.398437 0.59078,-1.351619 0.69159,-3.263705 0.30469,-5.734376 -0.38789,-2.477039 -1.06924,-4.268682 -2.04492,-5.375 -0.85372,-0.968028 -1.93812,-1.41794 -3.25391,-1.349609 z m 11.5625,0.607422 c 0.65588,-0.102707 1.19522,0.219653 1.61914,0.96875 0.42393,0.749097 0.77461,1.998879 1.04883,3.75 0.27322,1.744752 0.32112,3.038029 0.14649,3.880859 -0.17464,0.84283 -0.58827,1.317215 -1.24414,1.419922 -0.64951,0.10171 -1.18741,-0.223559 -1.61133,-0.972656 -0.42393,-0.749097 -0.7717,-1.995482 -1.04492,-3.740234 -0.27422,-1.751121 -0.32503,-3.047795 -0.15039,-3.890625 0.17463,-0.84283 0.58682,-1.314306 1.23632,-1.416016 z m -22.0625,1.271484 -2.72265,0.427735 -2.83985,1.167968 0.39649,2.541016 2.81836,-1.185547 1.44922,9.25586 -3.15039,0.49414 0.38867,2.482422 9.04492,-1.416015 -0.38867,-2.484376 -3.15235,0.494141 z m 10.29493,0.570313 c 0.65587,-0.102707 1.19716,0.221606 1.62109,0.970703 0.42393,0.749097 0.77266,1.998879 1.04687,3.75 0.27323,1.744752 0.32113,3.038029 0.14649,3.880859 -0.17464,0.84283 -0.58827,1.315262 -1.24414,1.417969 -0.64951,0.10171 -1.1874,-0.221606 -1.61133,-0.970703 -0.42393,-0.749097 -0.7717,-1.995482 -1.04492,-3.740234 -0.27422,-1.751121 -0.32503,-3.047795 -0.15039,-3.890625 0.17464,-0.84283 0.58682,-1.316259 1.23633,-1.417969 z m -22.0625,1.273437 -2.72266,0.425782 -2.83984,1.169921 0.39648,2.539063 2.81836,-1.183594 1.44922,9.253907 -3.15039,0.49414 0.38867,2.484375 9.04492,-1.417969 -0.38867,-2.482422 -3.15234,0.494141 z m 34.42968,0.705079 c -0.33112,0.05185 -0.59377,0.209474 -0.78711,0.474609 -0.19334,0.265135 -0.26378,0.566808 -0.21093,0.904297 0.0529,0.337488 0.21142,0.603535 0.47656,0.796875 0.26414,0.186972 0.56146,0.253024 0.89258,0.201172 0.33749,-0.05285 0.60353,-0.211428 0.79687,-0.476563 0.19334,-0.265135 0.26474,-0.56341 0.21289,-0.894531 -0.0529,-0.337489 -0.21338,-0.601582 -0.47851,-0.794922 -0.26514,-0.19334 -0.56486,-0.263787 -0.90235,-0.210937 z M 108.31836,16.5 c -0.18797,0.0098 -0.38073,0.02963 -0.57813,0.06055 -1.57282,0.246298 -2.65436,1.048264 -3.24414,2.40625 -0.59077,1.351618 -0.69353,3.263703 -0.30664,5.734375 0.3859,2.464303 1.06825,4.252549 2.04493,5.365234 0.97567,1.106318 2.24944,1.53536 3.82226,1.289063 1.57919,-0.247295 2.66508,-1.046819 3.25586,-2.398438 0.59078,-1.351618 0.69158,-3.261751 0.30469,-5.732422 -0.3879,-2.477039 -1.06924,-4.268682 -2.04492,-5.375 -0.85372,-0.968028 -1.93813,-1.417941 -3.25391,-1.349609 z m 35.69726,0.740234 c -0.33112,0.05185 -0.59376,0.211428 -0.7871,0.476563 -0.19334,0.265135 -0.26379,0.566808 -0.21094,0.904297 0.0528,0.337488 0.21143,0.601582 0.47656,0.794922 0.26414,0.186972 0.56146,0.254977 0.89258,0.203125 0.33749,-0.05285 0.60353,-0.211428 0.79687,-0.476563 0.19334,-0.265135 0.26475,-0.56341 0.21289,-0.894531 -0.0529,-0.337489 -0.21338,-0.603535 -0.47851,-0.796875 -0.26514,-0.19334 -0.56486,-0.263787 -0.90235,-0.210938 z m -46.197261,1.138672 -2.722656,0.425782 -2.839844,1.169921 0.396485,2.539063 2.818359,-1.183594 1.451172,9.253906 -3.152344,0.494141 0.388672,2.484375 9.044917,-1.417969 -0.38867,-2.482422 -3.152341,0.494141 z m 10.294921,0.570313 c 0.65588,-0.102707 1.19717,0.219652 1.6211,0.96875 0.42392,0.749097 0.77265,1.998879 1.04687,3.75 0.27322,1.744752 0.32112,3.038029 0.14648,3.880859 -0.17463,0.84283 -0.58826,1.317215 -1.24414,1.419922 -0.6495,0.10171 -1.1874,-0.223559 -1.61132,-0.972656 -0.42393,-0.749098 -0.77171,-1.995482 -1.04493,-3.740235 -0.27421,-1.75112 -0.32502,-3.047795 -0.15039,-3.890625 0.17464,-0.84283 0.58682,-1.314305 1.23633,-1.416015 z m 0.59961,3.820312 c -0.33112,0.05185 -0.59377,0.209474 -0.78711,0.47461 -0.19334,0.265135 -0.26379,0.566807 -0.21094,0.904297 0.0529,0.337488 0.21143,0.603535 0.47657,0.796874 0.26413,0.186973 0.56145,0.253025 0.89257,0.201172 0.33749,-0.05285 0.60354,-0.211427 0.79688,-0.476562 0.19334,-0.265135 0.26474,-0.563411 0.21289,-0.894531 -0.0529,-0.337489 -0.21338,-0.601582 -0.47852,-0.794922 -0.26513,-0.19334 -0.56485,-0.263787 -0.90234,-0.210938 z m 63.53906,9.003907 -2.72265,0.427734 -2.83985,1.167969 0.39844,2.541015 2.81836,-1.185547 1.44922,9.25586 -3.15235,0.49414 0.38868,2.482422 9.04492,-1.416015 -0.38867,-2.484375 -3.15235,0.49414 z m -13.03515,1.80664 c -0.18797,0.0098 -0.38073,0.02963 -0.57813,0.06055 -1.57282,0.246298 -2.65436,1.050217 -3.24414,2.408203 -0.59078,1.351618 -0.69158,3.26175 -0.30469,5.732422 0.3859,2.464303 1.0663,4.252549 2.04297,5.365234 0.97568,1.106318 2.24944,1.537314 3.82227,1.291016 1.57919,-0.247295 2.66508,-1.046819 3.25586,-2.398438 0.59078,-1.351618 0.69353,-3.263704 0.30664,-5.734374 -0.3879,-2.47704 -1.0712,-4.268683 -2.04688,-5.375 -0.85372,-0.968029 -1.93812,-1.417941 -3.2539,-1.34961 z m -10.5,1.878906 -2.72266,0.425782 -2.83984,1.169922 0.39843,2.541015 2.81836,-1.185547 1.44922,9.25586 -3.15234,0.49414 0.38867,2.482422 9.04492,-1.416016 -0.38867,-2.484374 -3.15234,0.49414 z m 10.29687,0.570313 c 0.65588,-0.102707 1.19522,0.219652 1.61914,0.96875 0.42393,0.749097 0.77266,2.000832 1.04688,3.751953 0.27322,1.744752 0.32307,3.038029 0.14843,3.880859 -0.17463,0.84283 -0.59021,1.315262 -1.24609,1.417969 -0.64951,0.10171 -1.18545,-0.221606 -1.60937,-0.970703 -0.42393,-0.749097 -0.77366,-1.995482 -1.04688,-3.740234 -0.27422,-1.751121 -0.32307,-3.049748 -0.14844,-3.892579 0.17464,-0.84283 0.58683,-1.314305 1.23633,-1.416015 z m -23.33203,1.236328 c -0.18797,0.0098 -0.38073,0.02963 -0.57812,0.06055 -1.57283,0.246298 -2.65437,1.050217 -3.24414,2.408203 -0.59078,1.351618 -0.69159,3.26175 -0.30469,5.732422 0.3859,2.464303 1.06629,4.252549 2.04297,5.365234 0.97568,1.106318 2.25139,1.537314 3.82422,1.291016 1.57919,-0.247295 2.66312,-1.046819 3.2539,-2.398438 0.59078,-1.351618 0.69354,-3.263704 0.30664,-5.734375 -0.38789,-2.477039 -1.07119,-4.268682 -2.04687,-5.375 -0.85372,-0.968028 -1.93813,-1.417941 -3.25391,-1.349609 z m -10.5,1.878906 -2.72266,0.425781 -2.83984,1.169922 0.39844,2.541016 2.81836,-1.185547 1.44922,9.255859 -3.15235,0.494141 0.38867,2.482422 9.04493,-1.416016 -0.38868,-2.484375 -3.15039,0.494141 z m 10.29688,0.570313 c 0.65587,-0.102707 1.19521,0.219652 1.61914,0.96875 0.42392,0.749097 0.77265,2.000832 1.04687,3.751953 0.27322,1.744752 0.32308,3.038029 0.14844,3.880859 -0.17464,0.84283 -0.59022,1.315262 -1.24609,1.417969 -0.64951,0.10171 -1.18545,-0.221606 -1.60938,-0.970703 -0.42393,-0.749098 -0.77365,-1.995482 -1.04688,-3.740234 -0.27421,-1.751121 -0.32307,-3.049749 -0.14843,-3.892579 0.17464,-0.84283 0.58682,-1.314305 1.23633,-1.416015 z m 24.13281,0.134765 c -0.33112,0.05185 -0.59377,0.211428 -0.78711,0.476563 -0.19334,0.265135 -0.26379,0.564855 -0.21094,0.902344 0.0529,0.337488 0.21338,0.603535 0.47852,0.796875 0.26414,0.186972 0.56145,0.254977 0.89258,0.203125 0.33748,-0.05285 0.60158,-0.211428 0.79492,-0.476563 0.19334,-0.265135 0.26474,-0.56341 0.21289,-0.894531 -0.0529,-0.337489 -0.21143,-0.603535 -0.47657,-0.796875 -0.26513,-0.19334 -0.5668,-0.263787 -0.90429,-0.210938 z m -46.19727,1.138672 -2.7207,0.425781 -2.8418,1.167969 0.39844,2.541016 2.81836,-1.183594 1.44922,9.253906 -3.15235,0.494141 0.38868,2.484375 9.04492,-1.417969 -0.38867,-2.482422 -3.15039,0.494141 z m -13.03515,1.806641 c -0.18797,0.0098 -0.38073,0.02963 -0.578129,0.06055 -1.572825,0.246298 -2.654361,1.048264 -3.24414,2.40625 -0.590777,1.351618 -0.691585,3.26175 -0.304688,5.732422 0.3859,2.464303 1.066292,4.254502 2.042969,5.367187 0.975679,1.106318 2.251398,1.53536 3.824218,1.289063 1.57919,-0.247295 2.66313,-1.04682 3.25391,-2.398438 0.59077,-1.351618 0.69353,-3.261751 0.30664,-5.732422 -0.3879,-2.477039 -1.0712,-4.268682 -2.04688,-5.375 -0.85372,-0.968028 -1.93812,-1.417941 -3.2539,-1.349609 z m 35.69726,0.740234 c -0.33112,0.05185 -0.59377,0.211427 -0.78711,0.476563 -0.19334,0.265135 -0.26378,0.564854 -0.21094,0.902343 0.0528,0.337489 0.21339,0.603536 0.47852,0.796876 0.26414,0.186972 0.56146,0.254977 0.89258,0.203124 0.33749,-0.05285 0.60158,-0.211427 0.79492,-0.476562 0.19334,-0.265135 0.26474,-0.563411 0.21289,-0.894531 -0.0529,-0.337489 -0.21143,-0.603535 -0.47656,-0.796875 -0.26514,-0.19334 -0.56681,-0.263787 -0.9043,-0.210938 z m -47.464842,1.101563 c -0.187969,0.0098 -0.380726,0.02963 -0.578125,0.06055 -1.572824,0.246297 -2.654361,1.048264 -3.244141,2.40625 -0.590776,1.351618 -0.691584,3.263703 -0.304687,5.734375 0.3859,2.464303 1.066292,4.252548 2.042969,5.365234 0.975679,1.106318 2.251394,1.537313 3.824218,1.291016 1.579192,-0.247295 2.66313,-1.04682 3.253907,-2.398438 0.590777,-1.351618 0.693537,-3.263704 0.30664,-5.734375 -0.387894,-2.477039 -1.069241,-4.268682 -2.044921,-5.375 -0.85372,-0.968028 -1.940076,-1.417941 -3.25586,-1.349609 z m 11.564452,0.605469 c 0.65587,-0.102708 1.19521,0.221605 1.61914,0.970703 0.42393,0.749097 0.77266,1.998879 1.04688,3.75 0.27322,1.744752 0.32307,3.038029 0.14843,3.880859 -0.17463,0.84283 -0.59022,1.317215 -1.24609,1.419922 -0.64951,0.10171 -1.18545,-0.223559 -1.60937,-0.972656 -0.423931,-0.749098 -0.773658,-1.995482 -1.046879,-3.740235 -0.274219,-1.75112 -0.323075,-3.047795 -0.148438,-3.890625 0.174638,-0.84283 0.586822,-1.316258 1.236327,-1.417968 z m -11.767577,1.84375 c 0.655874,-0.102708 1.195214,0.219652 1.619141,0.96875 0.423927,0.749097 0.772657,2.000832 1.046875,3.751953 0.273221,1.744752 0.323075,3.038029 0.148437,3.880859 -0.174637,0.84283 -0.590219,1.315262 -1.246094,1.417969 -0.649506,0.10171 -1.185448,-0.221606 -1.609374,-0.970703 -0.423928,-0.749098 -0.773655,-1.995482 -1.046876,-3.740235 -0.274218,-1.75112 -0.323075,-3.049748 -0.148437,-3.892578 0.174637,-0.84283 0.586822,-1.314305 1.236328,-1.416015 z m 12.365237,1.978515 c -0.33112,0.05185 -0.59377,0.209474 -0.787112,0.474609 -0.19334,0.265136 -0.263787,0.566808 -0.210937,0.904297 0.05285,0.337489 0.21338,0.603535 0.478519,0.796875 0.26413,0.186973 0.56145,0.253024 0.89257,0.201172 0.33749,-0.05285 0.60159,-0.211427 0.79493,-0.476562 0.19334,-0.265136 0.26474,-0.563411 0.21289,-0.894532 -0.0529,-0.337489 -0.21143,-0.601581 -0.47657,-0.794921 -0.26513,-0.19334 -0.5668,-0.263787 -0.90429,-0.210938 z M 89.005859,50.90625 c -0.33112,0.05185 -0.593769,0.211427 -0.787109,0.476562 -0.19334,0.265136 -0.263787,0.564855 -0.210938,0.902344 0.05285,0.337489 0.213381,0.603535 0.478516,0.796875 0.264138,0.186973 0.561458,0.254977 0.892578,0.203125 0.337489,-0.05285 0.603536,-0.211427 0.796875,-0.476562 0.19334,-0.265136 0.26279,-0.563411 0.210938,-0.894532 -0.05285,-0.337489 -0.211427,-0.603535 -0.476563,-0.796874 -0.265134,-0.193341 -0.566808,-0.263787 -0.904297,-0.210938 z m 75.308591,7.162109 -2.72265,0.425782 -2.8418,1.169921 0.39844,2.541016 2.81836,-1.185547 1.44922,9.25586 -3.1504,0.49414 0.38868,2.482422 c 4.47867,1.729755 15.27365,-4.93769 5.5039,-3.40625 z M 151.2793,59.875 c -0.18797,0.0098 -0.38073,0.02963 -0.57813,0.06055 -1.57282,0.246298 -2.65436,1.048264 -3.24414,2.40625 -0.59078,1.351618 -0.69354,3.263704 -0.30664,5.734375 0.3859,2.464304 1.06825,4.252549 2.04492,5.365234 0.97568,1.106318 2.24944,1.537314 3.82227,1.291016 1.57919,-0.247295 2.66508,-1.046819 3.25586,-2.398438 0.59077,-1.351618 0.69158,-3.263703 0.30468,-5.734375 -0.38789,-2.477038 -1.06924,-4.268682 -2.04492,-5.375 -0.85372,-0.968028 -1.93812,-1.417941 -3.2539,-1.349609 z m -11.76758,1.84375 c -0.18797,0.0098 -0.38073,0.02963 -0.57813,0.06055 -1.57282,0.246298 -2.65436,1.048264 -3.24414,2.40625 -0.59077,1.351618 -0.69353,3.261751 -0.30664,5.732422 0.3859,2.464304 1.06825,4.254502 2.04492,5.367187 0.97568,1.106318 2.24945,1.53536 3.82227,1.289063 1.57919,-0.247295 2.66508,-1.046819 3.25586,-2.398438 0.59078,-1.351618 0.69158,-3.26175 0.30469,-5.732422 -0.3879,-2.477038 -1.06925,-4.268682 -2.04493,-5.375 -0.85371,-0.968028 -1.93812,-1.417941 -3.2539,-1.349609 z m 11.5625,0.605469 c 0.65587,-0.102707 1.19521,0.219652 1.61914,0.96875 0.42393,0.749097 0.77461,2.000833 1.04883,3.751953 0.27322,1.744753 0.32112,3.038029 0.14648,3.880859 -0.17464,0.84283 -0.58827,1.315262 -1.24414,1.417969 -0.64951,0.10171 -1.1874,-0.221606 -1.61133,-0.970703 -0.42392,-0.749098 -0.7717,-1.995482 -1.04492,-3.740235 -0.27422,-1.75112 -0.32503,-3.049748 -0.15039,-3.892578 0.17464,-0.84283 0.58682,-1.314305 1.23633,-1.416015 z m -22.0625,1.273437 -2.72266,0.425782 -2.83984,1.167968 0.39648,2.541016 2.81836,-1.185547 1.44922,9.255859 -3.15039,0.494141 0.38867,2.482422 9.04492,-1.416016 -0.38867,-2.482422 -3.15234,0.492188 z m 10.29492,0.56836 c 0.65587,-0.102708 1.19717,0.221605 1.62109,0.970703 0.42393,0.749097 0.77266,1.99888 1.04688,3.75 0.27322,1.744753 0.32112,3.038029 0.14648,3.880859 -0.17463,0.84283 -0.58826,1.315262 -1.24414,1.417969 -0.6495,0.10171 -1.1874,-0.221606 -1.61133,-0.970703 -0.42392,-0.749098 -0.7717,-1.995482 -1.04492,-3.740235 -0.27421,-1.75112 -0.32502,-3.047795 -0.15039,-3.890625 0.17464,-0.84283 0.58682,-1.316258 1.23633,-1.417968 z m -23.33008,1.238281 c -0.18797,0.0098 -0.38072,0.02963 -0.57812,0.06055 -1.57283,0.246297 -2.65436,1.048264 -3.24414,2.40625 -0.59078,1.351618 -0.69354,3.261751 -0.30664,5.732422 0.3859,2.464303 1.06824,4.254502 2.04492,5.367187 0.97568,1.106318 2.24944,1.53536 3.82226,1.289063 1.5792,-0.247295 2.66509,-1.04682 3.25586,-2.398438 0.59078,-1.351618 0.69159,-3.26175 0.30469,-5.732422 -0.38789,-2.477038 -1.06924,-4.268682 -2.04492,-5.375 -0.85372,-0.968028 -1.93812,-1.417941 -3.25391,-1.349609 z m 35.69727,0.740234 c -0.33112,0.05185 -0.59377,0.211427 -0.78711,0.476563 -0.19334,0.265135 -0.26379,0.564855 -0.21094,0.902344 0.0529,0.337489 0.21143,0.603535 0.47656,0.796874 0.26414,0.186973 0.56146,0.254978 0.89258,0.203126 0.33749,-0.05285 0.60354,-0.211428 0.79688,-0.476563 0.19334,-0.265135 0.26474,-0.56341 0.21289,-0.894531 -0.0529,-0.337489 -0.21338,-0.603535 -0.47852,-0.796875 -0.26513,-0.19334 -0.56485,-0.263787 -0.90234,-0.210938 z m -47.46485,1.101563 c -0.18796,0.0098 -0.38072,0.02963 -0.57812,0.06055 -1.57283,0.246297 -2.65436,1.048264 -3.24414,2.40625 -0.590778,1.351618 -0.693539,3.263704 -0.30664,5.734375 0.3859,2.464303 1.06824,4.252548 2.04492,5.365234 0.97568,1.106318 2.24944,1.537313 3.82227,1.291016 1.57919,-0.247295 2.66508,-1.04682 3.25585,-2.398438 0.59078,-1.351618 0.69159,-3.263703 0.30469,-5.734375 -0.38789,-2.477039 -1.06924,-4.268682 -2.04492,-5.375 -0.85372,-0.968028 -1.93812,-1.417941 -3.25391,-1.349609 z m 11.5625,0.605468 c 0.65588,-0.102707 1.19717,0.221606 1.6211,0.970704 0.42393,0.749097 0.77266,1.99888 1.04687,3.75 0.27322,1.744753 0.32113,3.038029 0.14649,3.880859 -0.17464,0.84283 -0.58827,1.315262 -1.24414,1.417969 -0.64951,0.10171 -1.1874,-0.221606 -1.61133,-0.970703 -0.42393,-0.749098 -0.7717,-1.995482 -1.04492,-3.740235 -0.27422,-1.75112 -0.32503,-3.047795 -0.15039,-3.890625 0.17463,-0.84283 0.58682,-1.316258 1.23632,-1.417969 z m 24.13477,0.136719 c -0.33112,0.05185 -0.59377,0.209474 -0.78711,0.47461 -0.19334,0.265135 -0.26379,0.566808 -0.21094,0.904297 0.0529,0.337489 0.21143,0.603535 0.47657,0.796874 0.26413,0.186973 0.56145,0.253024 0.89257,0.201172 0.33749,-0.05285 0.60354,-0.211427 0.79688,-0.476562 0.19334,-0.265135 0.26474,-0.56341 0.21289,-0.894531 -0.0529,-0.337489 -0.21338,-0.603535 -0.47852,-0.796875 -0.26513,-0.19334 -0.56485,-0.261834 -0.90234,-0.208985 z m -35.90234,1.707031 c 0.65587,-0.102707 1.19716,0.219653 1.62109,0.96875 0.42393,0.749098 0.77266,1.99888 1.04688,3.75 0.27322,1.744753 0.32112,3.039983 0.14648,3.882813 -0.17464,0.84283 -0.58827,1.315262 -1.24414,1.417969 -0.64951,0.10171 -1.1874,-0.221606 -1.61133,-0.970703 -0.42393,-0.749098 -0.7717,-1.997435 -1.04492,-3.742188 -0.27422,-1.75112 -0.32503,-3.047795 -0.15039,-3.890625 0.17464,-0.84283 0.58682,-1.314305 1.23633,-1.416016 z m 12.36718,1.978516 c -0.33112,0.05185 -0.59377,0.209474 -0.78711,0.47461 -0.19334,0.265135 -0.26378,0.566808 -0.21093,0.904296 0.0528,0.337489 0.21142,0.603536 0.47656,0.796875 0.26414,0.186973 0.56146,0.253024 0.89258,0.201172 0.33749,-0.05285 0.60353,-0.211428 0.79687,-0.476562 0.19334,-0.265136 0.26475,-0.56341 0.21289,-0.894531 -0.0528,-0.337489 -0.21338,-0.603536 -0.47851,-0.796876 -0.26514,-0.193339 -0.56486,-0.261833 -0.90235,-0.208984 z m -11.76757,1.841797 c -0.33113,0.05185 -0.59377,0.209474 -0.78711,0.474609 -0.19334,0.265136 -0.26379,0.566809 -0.21094,0.904297 0.0529,0.337489 0.21143,0.603536 0.47656,0.796875 0.26414,0.186973 0.56146,0.254977 0.89258,0.203125 0.33749,-0.05285 0.60353,-0.211428 0.79687,-0.476562 0.19334,-0.265136 0.26475,-0.56341 0.2129,-0.894531 -0.0529,-0.337489 -0.21339,-0.603536 -0.47852,-0.796876 -0.26514,-0.193339 -0.56486,-0.263786 -0.90234,-0.210937 z"
         transform="rotate(8.9,-16.954541,-1112.2791)"
         id="path4563"
           sodipodi:nodetypes="ssccccccsscscccsccscccccccccccccccccccccccscscscsccccccccccccccssccsccccscccsscscccsccsccccsccccccccccscccccccsccsccsccccccccccccccccccccsscscccccccccccccccccscccccccccsscsccccccccccccccccscscsccssccsccccccccccccccccscccsccscccccssccccccscssssccscccsscccsscscscccccccccccccccccccccccccccccccscccsccsccscccscccccscscccccccccccccccccccccccccccscccsccscccsccsccccscscccccccscscscccccsccscccsccsscscsccsccccccccaccccacccccccccc" />
    </g>
    <path
       style="opacity:0.76499999;fill:url(#linearGradient6614);fill-opacity:1;stroke:none"
       id="path6587-7"
       d="m 191.34,1019.5946 c -26.794,21.983 -41.808,21.007 -38.075,13.138 3.734,-7.87 42.326,-41.65497 51.448,-43.74797 9.12,-2.093 2.275,18.04097 -13.373,30.60997 z" />
    <path
       style="fill:url(#linearGradient6241);fill-opacity:1;stroke:none"
       id="rect5757-8-7-7-9"
       d="m 19.887,1117.9616 -4.807,4.558 c -5.007,-5.315 -10.24,-10.707 -15.08,-16.133 l 4.49,-4.073 c 6.83,6.534 8.873,8.53 15.397,15.648 z" />
    <path
       style="fill:#2d3335;fill-opacity:1;stroke:none"
       id="path5604-26"
       d="m 96.941,1025.1906 c -27.18,-27.17997 -27.18,-71.24697 0,-98.42697 27.18,-27.18 71.247,-27.18 98.427,0 27.18,27.18 27.18,71.247 0,98.42697 -27.18,27.18 -71.247,27.18 -98.427,0 z m 2.953,-2.953 c 26.093,26.093 67.413,27.077 93.506,0.984 26.093,-26.09197 25.108,-67.41297 -0.984,-93.50597 -26.093,-26.092 -67.414,-27.076 -93.506,-0.984 -26.093,26.093 -25.109,67.413 0.984,93.50597 z" />
    <path
       style="fill:#9eaaac;fill-opacity:1;stroke:none"
       id="path5604-2-9"
       d="m 96.941,1025.1906 c -27.18,-27.17997 -27.18,-71.24697 0,-98.42697 0.166,-0.166 0.325,-0.33 0.492,-0.493 -26.685,27.218 -26.522,70.921 0.492,97.93597 27.015,27.014 70.718,27.177 97.935,0.492 -0.163,0.167 -0.326,0.326 -0.492,0.492 -27.18,27.18 -71.247,27.18 -98.427,0 z m 2.46,-96.95097 c 0.163,-0.167 0.328,-0.327 0.493,-0.492 26.093,-26.093 67.413,-25.109 93.506,0.984 26.092,26.093 27.077,67.413 0.984,93.50597 -0.165,0.165 -0.326,0.33 -0.492,0.492 25.587,-26.11797 24.451,-67.08597 -1.477,-93.01397 -25.927,-25.927 -66.895,-27.063 -93.013,-1.476 z" />
    <path
       style="fill:url(#linearGradient6253);fill-opacity:1;stroke:none"
       id="path5604-9-1-8-8-1"
       d="m 87.929,1005.7816 -5.752,4.091 a 72.425,72.425 0 0 0 12.796,17.286 72.425,72.425 0 0 0 17.286,12.796 l 4.09,-5.752 a 65.286,65.286 0 0 1 -16.455,-11.965 65.287,65.287 0 0 1 -11.965,-16.456 z" />
    <path
       style="fill:url(#linearGradient6250);fill-opacity:1;stroke:none"
       id="rect5757-5"
       d="m 96.695,1025.4366 a 22.271,22.271 0 0 1 4.122,5.721 l -26.206,26.206 a 22.271,22.271 0 0 1 -5.722,-4.121 22.271,22.271 0 0 1 -4.121,-5.721 l 26.206,-26.207 a 22.27,22.27 0 0 1 5.721,4.122 z" />
    <path
       style="fill:url(#linearGradient6247);fill-opacity:1;stroke:none"
       id="rect5757-8-7-2"
       d="m 88.144,1049.7366 -66.068,66.068 c -3.984,-2.192 -5.832,-3 -9.29,-6.459 -3.458,-3.458 -4.267,-5.306 -6.459,-9.29 l 66.068,-66.068 c 5.064,3.748 12.117,10.398 15.749,15.749 z" />
    <path
       style="fill:url(#linearGradient6244);fill-opacity:1;stroke:none"
       id="rect5757-8-6"
       d="m 77.656,1044.6226 c 3.458,3.458 7.435,6.666 8.52,11.02 l -64.1,64.099 c -6.517,-5.155 -14.555,-12.79 -19.686,-19.686 l 64.1,-64.1 c 3.491,0.224 7.659,5.16 11.117,8.618 z" />
    <path
       style="opacity:0.59600004;fill:url(#linearGradient6279);fill-opacity:1;stroke:none"
       id="rect5757-8-6-3"
       d="m 77.411,1044.8676 c 3.459,3.458 7.68,6.421 8.764,10.774 l -64.1,64.1 c -7.876,-6.908 -11.797,-10.624 -19.685,-19.686 l 64.1,-64.1 c 3.491,0.224 7.414,5.453 10.872,8.912 h 0.05 z" />
  </g>
</svg>
