<?xml version="1.0" encoding="UTF-8" standalone="no"?>
<!-- Created with Inkscape (http://www.inkscape.org/) -->

<svg
   xmlns:dc="http://purl.org/dc/elements/1.1/"
   xmlns:cc="http://creativecommons.org/ns#"
   xmlns:rdf="http://www.w3.org/1999/02/22-rdf-syntax-ns#"
   xmlns:svg="http://www.w3.org/2000/svg"
   xmlns="http://www.w3.org/2000/svg"
   xmlns:xlink="http://www.w3.org/1999/xlink"
   xmlns:sodipodi="http://sodipodi.sourceforge.net/DTD/sodipodi-0.dtd"
   xmlns:inkscape="http://www.inkscape.org/namespaces/inkscape"
   width="226"
   height="222"
   viewBox="0 0 226 222"
   version="1.1"
   id="svg5161"
   inkscape:version="0.92.1 r15371"
   sodipodi:docname="osm_logo_map_lighting.svg">
  <defs
     id="defs5155">
    <linearGradient
       id="linearGradient4806-9"
       x1="214.25"
       y1="-161.35899"
       x2="166.5"
       y2="-113.719"
       gradientUnits="userSpaceOnUse" >
      <stop
        offset="0"
        id="stop4746-3"
        stop-color="#fff"
        stop-opacity="1" />
      <stop
        offset="1"
        id="stop4748-8"
        stop-color="#fff"
        stop-opacity="0" />
    </linearGradient>
    <linearGradient
       id="linearGradient4790-3"
       x1="53.25"
       y1="-126.5"
       x2="57.655998"
       y2="-62.469002"
       gradientUnits="userSpaceOnUse">
      <stop
        offset="0"
        id="stop4746-3"
        stop-color="#fff"
        stop-opacity="1" />
      <stop
        offset="1"
        id="stop4748-8"
        stop-color="#fff"
        stop-opacity="0" />
    </linearGradient>
    <linearGradient
       id="linearGradient4758-2"
       x1="39.5"
       y1="6.625"
       x2="75.719002"
       y2="-17.125"
       gradientUnits="userSpaceOnUse" >
      <stop
        offset="0"
        id="stop4746-3"
        stop-color="#fff"
        stop-opacity="1" />
      <stop
        offset="1"
        id="stop4748-8"
        stop-color="#fff"
        stop-opacity="0" />
    </linearGradient>
    <linearGradient
       id="linearGradient4750-9"
       x1="102"
       y1="-162.34399"
       x2="85.313004"
       y2="-121.438"
       gradientUnits="userSpaceOnUse" >
     <stop
        offset="0"
        id="stop4746-3"
        stop-color="#fff"
        stop-opacity="1" />
     <stop
        offset="1"
        id="stop4748-8"
        stop-color="#fff"
        stop-opacity="0" />
    </linearGradient>
    <linearGradient
       id="linearGradient4782-5"
       x1="117.75"
       y1="-78.094002"
       x2="63.5"
       y2="-14.75"
       gradientUnits="userSpaceOnUse">
      <stop
        offset="0"
        id="stop4746-3"
        stop-color="#fff"
        stop-opacity="1" />
      <stop
        offset="1"
        id="stop4748-8"
        stop-color="#fff"
        stop-opacity="0" />
    </linearGradient>
    <linearGradient
       id="linearGradient4798-4"
       x1="180.687"
       y1="-125.125"
       x2="133.937"
       y2="-60.75"
       gradientUnits="userSpaceOnUse">
      <stop
        offset="0"
        id="stop4746-3"
        stop-color="#fff"
        stop-opacity="1" />
      <stop
        offset="1"
        id="stop4748-8"
        stop-color="#fff"
        stop-opacity="0" />
    </linearGradient>
    <linearGradient
       id="linearGradient4766-3"
       x1="170.75"
       y1="-23.5"
       x2="130.21899"
       y2="33.375"
       gradientUnits="userSpaceOnUse">
      <stop
        offset="0"
        id="stop4746-3"
        stop-color="#fff"
        stop-opacity="1" />
      <stop
        offset="1"
        id="stop4748-8"
        stop-color="#fff"
        stop-opacity="0" />
    </linearGradient>
    <linearGradient
       y2="-5.6560001"
       x2="181.75"
       y1="-76"
       x1="213.5"
       gradientUnits="userSpaceOnUse"
       id="linearGradient4965">
      <stop
        offset="0"
        id="stop4746-3"
        stop-color="#fff"
        stop-opacity="1" />
      <stop
        offset="1"
        id="stop4748-8"
        stop-color="#fff"
        stop-opacity="0" />
    </linearGradient>
    <linearGradient
       id="linearGradient4686-3"
       x1="94.25"
       y1="-94.671997"
       x2="9"
       y2="-179.96899"
       gradientUnits="userSpaceOnUse">
      <stop
         offset="0"
         id="stop4682-2"
         stop-color="#000"
         stop-opacity="1" />
      <stop
         offset="1"
         id="stop4684-7"
         stop-color="#000"
         stop-opacity="0" />
    </linearGradient>
    <linearGradient
       id="linearGradient4742-3"
       x1="50.75"
       y1="-114.438"
       x2="35.75"
       y2="-30.438"
       gradientUnits="userSpaceOnUse">
      <stop
         offset="0"
         id="stop4682-2"
         stop-color="#000"
         stop-opacity="1" />
      <stop
         offset="1"
         id="stop4684-7"
         stop-color="#000"
         stop-opacity="0" />
    </linearGradient>
    <linearGradient
       id="linearGradient4734-3"
       x1="77.625"
       y1="-163.125"
       x2="115.25"
       y2="-74.625"
       gradientUnits="userSpaceOnUse">
      <stop
         offset="0"
         id="stop4682-2"
         stop-color="#000"
         stop-opacity="1" />
      <stop
         offset="1"
         id="stop4684-7"
         stop-color="#000"
         stop-opacity="0" />
    </linearGradient>
    <linearGradient
       id="linearGradient4726-9"
       x1="56.5"
       y1="-50.438"
       x2="125.719"
       y2="7.0630002"
       gradientUnits="userSpaceOnUse">
      <stop
         offset="0"
         id="stop4682-2"
         stop-color="#000"
         stop-opacity="1" />
      <stop
         offset="1"
         id="stop4684-7"
         stop-color="#000"
         stop-opacity="0" />
    </linearGradient>
    <linearGradient
       id="linearGradient4710-2"
       x1="35"
       y1="-163.297"
       x2="180.75"
       y2="-146.797"
       gradientUnits="userSpaceOnUse">
      <stop
         offset="0"
         id="stop4682-2"
         stop-color="#000"
         stop-opacity="1" />
      <stop
         offset="1"
         id="stop4684-7"
         stop-color="#000"
         stop-opacity="0" />
    </linearGradient>
    <linearGradient
       id="linearGradient4718-4"
       x1="57"
       y1="-141.10899"
       x2="179"
       y2="-41.609001"
       gradientUnits="userSpaceOnUse">
      <stop
         offset="0"
         id="stop4682-2"
         stop-color="#000"
         stop-opacity="1" />
      <stop
         offset="1"
         id="stop4684-7"
         stop-color="#000"
         stop-opacity="0" />
    </linearGradient>
    <linearGradient
       id="linearGradient4702-4"
       x1="142.75"
       y1="-169.297"
       x2="235"
       y2="-77.296997"
       gradientUnits="userSpaceOnUse">
      <stop
         offset="0"
         id="stop4682-2"
         stop-color="#000"
         stop-opacity="1" />
      <stop
         offset="1"
         id="stop4684-7"
         stop-color="#000"
         stop-opacity="0" />
    </linearGradient>
  </defs>
  <g
     inkscape:label="Layer 1"
     inkscape:groupmode="layer"
     id="layer1"
     transform="translate(0,-238.26248)">
    <g
       style="display:inline;fill-opacity:1;stroke:none"
       id="layer3"
       display="inline"
       transform="matrix(1.0006117,0,0,1.0006117,-9.0055051,420.43996)">
      <g
         style="opacity:0.27000002"
         id="g4808">
        <path
           style="fill:url(#linearGradient4806-9)"
           id="path3834-4-9"
           d="m 219.25,-182 c 0,0 -24.25,9 -31.75,10.5 -7.5,1.5 -21,5.25 -21,5.25 4.924,-1.358 11.437,45.392 14.25,52.25 l -0.063,0.281 c 11.808,-4.074 51.211,-4.767 54.313,-12.781 0,0 -4.75,-15.25 -7.5,-29.75 -2.75,-14.5 -8.25,-25.75 -8.25,-25.75 z" />
        <path
           style="fill:url(#linearGradient4790-3)"
           id="path3834-7-2-4-9"
           d="m 27,-126.5 c 0,0 -5.5,12.75 -8.25,24.75 -2.75,12 -5.75,23 -5.75,23 l 50.625,16.281 15.781,-58.906 z" />
        <path
           style="fill:url(#linearGradient4758-2)"
           id="path3834-7-26-9-7"
           d="m 26,-24.5 c 0,0 -4,10.25 -7.5,24.25 -3.5,14 -5,30.75 -5,30.75 0,0 0.147,-0.045 0.438,-0.094 2.033,-0.338 11.218,-1.5 28.062,1.344 19.25,3.25 32.25,6 32.25,6 l 1.469,-52.5 -0.75,0.125 z" />
        <path
           style="fill:url(#linearGradient4750-9)"
           id="path3834-4-9-6"
           d="m 114.75,-180.25 c 0,0 -3.25,3.5 -22,8 -18.75,4.5 -27.5,5.75 -27.5,5.75 5.182,14.704 12.03,29.27 14.25,44.75 l -0.094,0.313 48.031,-3.938 1.126,0.25 c -3.363,-13.323 -7.797,-54.592 -13.813,-55.125 z" />
        <path
           style="fill:url(#linearGradient4782-5)"
           id="path3834-7-26-0-0-9"
           d="M 117.594,-78.094 63.969,-62.375 63.625,-62.469 63.5,-62 l 12.25,46.5 -0.031,0.75 49.469,-8.875 0.53,0.188 0.032,-0.063 -8.25,-54.25 z" />
        <path
           style="fill:url(#linearGradient4798-4)"
           id="path3834-7-2-4-3"
           d="m 128.563,-125.125 c 0.234,0.928 0.463,1.742 0.687,2.375 l -11.656,44.656 0.093,-0.031 51.813,17.375 11.187,-52.969 c -0.356,0.123 -0.695,0.246 -1,0.375 l -51.125,-11.781 z" />
        <path
           style="fill:url(#linearGradient4766-3)"
           id="path3834-7-26-9-85"
           d="M 125.531,-23.5 114.5,25 c 0,0 5.5,0.5 22.5,6.25 2.125,0.719 4.163,1.406 6.125,2.031 1.962,0.626 3.855,1.186 5.625,1.719 10.617,3.2 17.5,4.75 17.5,4.75 l 12.719,-45.406 c -0.513,0.182 -1.019,0.38 -1.531,0.562 L 125.53,-23.5 Z" />
        <path
           style="fill:url(#linearGradient4965)"
           id="path3834-7-26-0-0-3"
           d="m 218,-76 c -15.666,6.288 -31.698,11.15 -48.063,15.406 l -0.437,-0.156 9.5,55 -0.031,0.094 c 17.839,-6.36 35.381,-13.387 52.781,-20.844 0,0 -0.5,-4.5 -3.75,-19.75 C 224.75,-61.5 218,-76 218,-76 Z" />
      </g>
      <g
         style="opacity:0.04299999"
         id="g4818">
        <path
           style="fill:url(#linearGradient4686-3)"
           id="path3834-4-9-1"
           d="M 13.719,-179.969 A 58.605,58.605 0 0 0 11,-179.906 c -0.445,0.018 -0.855,0.039 -1.156,0.062 -0.03,0.002 -0.066,-0.002 -0.094,0 -0.398,0.033 -0.656,0.063 -0.75,0.094 0,0 7.5,13 11.75,27.75 4.25,14.75 6.25,25.5 6.25,25.5 l 51.469,5.125 0.937,-0.063 0.094,-0.312 c -2.22,-15.48 -9.068,-30.046 -14.25,-44.75 0,0 -18.5,-9 -31.5,-11.5 -1.018,-0.196 -2.01,-0.37 -3,-0.531 -0.596,-0.097 -1.167,-0.197 -1.75,-0.281 -0.237,-0.035 -0.453,-0.062 -0.688,-0.094 -1.306,-0.182 -2.588,-0.34 -3.812,-0.469 -0.735,-0.077 -1.395,-0.128 -2.094,-0.187 a 114.157,114.157 0 0 0 -4.781,-0.313 96.716,96.716 0 0 0 -3.906,-0.094 z" />
        <path
           style="fill:url(#linearGradient4742-3)"
           id="path3834-7-26-0-0-7"
           d="m 13,-78.75 c 0,0 5.75,16 9.25,30 3.5,14 3.75,24.25 3.75,24.25 l 48.969,9.875 0.75,-0.125 0.031,-0.75 -12.25,-46.5 0.125,-0.469 z" />
        <path
           style="fill:url(#linearGradient4734-3)"
           id="path3834-7-2-4-6"
           d="m 127.438,-125.375 -47.97,4 h -0.062 l -15.781,58.906 0.344,0.094 53.625,-15.719 11.656,-44.656 c -0.224,-0.633 -0.453,-1.447 -0.688,-2.375 l -1.125,-0.25 z" />
        <path
           style="fill:url(#linearGradient4726-9)"
           id="path3834-7-26-9-8"
           d="m 125.188,-23.625 -49.47,8.875 -1.468,52.5 c 0,0 12.75,-2.75 24,-6.25 C 109.5,28 114.5,25 114.5,25 l 11.219,-48.438 z" />
        <path
           style="fill:url(#linearGradient4710-2)"
           id="path3834-4-9-2"
           d="m 114.75,-180.25 c 6.016,0.533 10.45,41.802 13.813,55.125 l 51.125,11.781 c 0.304,-0.13 0.643,-0.252 1,-0.375 L 180.75,-114 c -2.813,-6.858 -9.326,-53.608 -14.25,-52.25 0,0 -0.613,-0.254 -1.719,-0.719 A 350.283,350.283 0 0 0 144.5,-174.75 c -12.25,-4.25 -29.75,-5.5 -29.75,-5.5 z" />
        <path
           style="fill:url(#linearGradient4718-4)"
           id="path3834-7-26-0-0-0"
           d="m 117.688,-78.125 -0.094,0.031 -0.094,0.344 8.25,53.25 -0.219,1 51.907,18.406 c 0.512,-0.181 1.019,-0.38 1.53,-0.562 L 179,-5.75 l -9.5,-55 -51.813,-17.375 z" />
        <path
           style="fill:url(#meshgradient6003);fill-opacity:1"
           id="path3834-7-26-9-9"
           d="m 231.75,-26.5 c -17.4,7.457 -34.942,14.484 -52.781,20.844 L 166.25,39.75 c 0,0 13,-2.75 26,-5.75 13,-3 26.5,-8 26.5,-8 0,0 -0.75,-5 4.25,-24.5 5,-19.5 8.75,-28 8.75,-28 z" />
        <path
           style="fill:url(#linearGradient4702-4)"
           id="path3834-7-2-4-5"
           d="m 235,-126.5 c -3.102,8.014 -42.505,8.707 -54.313,12.781 l -11.187,52.969 0.438,0.156 C 186.302,-64.85 202.334,-69.712 218,-76 c 0,0 1.75,-10.5 6.75,-23.75 5,-13.25 10.25,-26.75 10.25,-26.75 z" />
      </g>
    </g>
  </g>
</svg>
