<?xml version="1.0" encoding="UTF-8" standalone="no"?>
<!-- Created with Inkscape (http://www.inkscape.org/) -->

<svg
   xmlns:dc="http://purl.org/dc/elements/1.1/"
   xmlns:cc="http://creativecommons.org/ns#"
   xmlns:rdf="http://www.w3.org/1999/02/22-rdf-syntax-ns#"
   xmlns:svg="http://www.w3.org/2000/svg"
   xmlns="http://www.w3.org/2000/svg"
   xmlns:sodipodi="http://sodipodi.sourceforge.net/DTD/sodipodi-0.dtd"
   xmlns:inkscape="http://www.inkscape.org/namespaces/inkscape"
   width="128"
   height="128"
   viewBox="0 0 33.866666 33.866667"
   version="1.1"
   id="svg8"
   inkscape:version="0.92.1 r15371"
   sodipodi:docname="measure_height_help.svg">
  <defs
     id="defs2" />
  <sodipodi:namedview
     id="base"
     pagecolor="#ffffff"
     bordercolor="#666666"
     borderopacity="1.0"
     inkscape:pageopacity="0.0"
     inkscape:pageshadow="2"
     inkscape:zoom="2.8284271"
     inkscape:cx="83.322064"
     inkscape:cy="62.945668"
     inkscape:document-units="mm"
     inkscape:current-layer="layer1"
     showgrid="true"
     inkscape:window-width="1920"
     inkscape:window-height="1001"
     inkscape:window-x="-9"
     inkscape:window-y="-9"
     inkscape:window-maximized="1"
     units="px">
    <inkscape:grid
       type="xygrid"
       id="grid4493" />
  </sodipodi:namedview>
  <metadata
     id="metadata5">
    <rdf:RDF>
      <cc:Work
         rdf:about="">
        <dc:format>image/svg+xml</dc:format>
        <dc:type
           rdf:resource="http://purl.org/dc/dcmitype/StillImage" />
        <dc:title />
      </cc:Work>
    </rdf:RDF>
  </metadata>
  <g
     inkscape:label="Ebene 1"
     inkscape:groupmode="layer"
     id="layer1"
     transform="translate(0,-263.1333)">
    <path
       inkscape:connector-curvature="0"
       id="path22"
       style="fill:#d99e82;fill-opacity:1;fill-rule:nonzero;stroke:none;stroke-width:0.46940136"
       d="m 26.820157,274.67573 c -0.56657,0.12534 0.494748,0.71771 0.321069,1.28568 -0.118292,0.39336 0.105613,0 0.469403,0 0,0 0.294314,0.60225 0.198555,1.51431 -0.09717,0.91062 1.160362,1.22795 1.256588,0.31589 0.09576,-0.91111 -0.650121,-1.40256 -0.239864,-2.11231 0.981987,-1.69874 -2.005751,-1.00357 -2.005751,-1.00357" />
    <path
       inkscape:connector-curvature="0"
       id="path26"
       style="fill:#cc927a;fill-opacity:1;fill-rule:nonzero;stroke:none;stroke-width:0.46940136"
       d="m 30.896482,283.00259 c -0.259577,0 -0.469401,-0.20983 -0.469401,-0.4694 0,-2.12169 -2.187879,-4.34055 -2.209941,-4.36263 -0.182597,-0.18354 -0.182597,-0.48066 9.06e-4,-0.66374 0.183538,-0.18305 0.480198,-0.18258 0.663265,0 0.101397,0.10181 2.484542,2.51365 2.484542,5.02637 0,0.25957 -0.209824,0.4694 -0.469404,0.4694" />
    <path
       inkscape:connector-curvature="0"
       id="path30"
       style="fill:#2a6797;fill-opacity:1;fill-rule:nonzero;stroke:none;stroke-width:0.46940136"
       d="m 27.141273,289.5742 c -0.518218,0 -0.938801,-0.42058 -0.938801,-0.9388 v -3.28582 c 0,-0.16335 0.04272,-0.32389 0.123926,-0.46563 l 1.877608,-3.28581 c 0.25723,-0.45017 0.830839,-0.60741 1.280525,-0.34924 0.450156,0.25723 0.606466,0.83037 0.349234,1.28053 l -1.753684,3.06941 v 3.03656 c 0,0.51822 -0.420582,0.9388 -0.938801,0.9388" />
    <path
       inkscape:connector-curvature="0"
       id="path34"
       style="fill:#4289c1;fill-opacity:1;fill-rule:nonzero;stroke:none;stroke-width:0.46940136"
       d="m 31.366355,288.166 c -0.27554,0 -0.548261,-0.12063 -0.733205,-0.35253 l -1.877605,-2.34701 c -0.09435,-0.1169 -0.158185,-0.25489 -0.187761,-0.4018 l -0.469401,-2.34701 c -0.101858,-0.50836 0.22766,-1.00358 0.736022,-1.10496 0.510708,-0.10276 1.00358,0.22812 1.104969,0.73601 l 0.424808,2.12357 1.734909,2.16864 c 0.323886,0.40462 0.258169,0.99561 -0.146917,1.31949 -0.172738,0.138 -0.380216,0.2056 -0.585813,0.2056" />
    <path
       inkscape:connector-curvature="0"
       id="path38"
       style="fill:#292f33;fill-opacity:1;fill-rule:nonzero;stroke:none;stroke-width:0.46940136"
       d="m 26.670931,290.00051 1.680929,0.0432 c -0.159596,-1.41288 -0.772167,-0.95899 -1.754623,-0.98386 -0.982928,-0.0248 -1.791237,0.42434 -1.80297,0.89421 0.384907,0.008 0.746816,0.0183 1.407732,0.0358 0.143166,0.003 0.294315,0.006 0.468932,0.0113" />
    <path
       inkscape:connector-curvature="0"
       id="path42"
       style="fill:#292f33;fill-opacity:1;fill-rule:nonzero;stroke:none;stroke-width:0.46940136"
       d="m 31.893023,288.70003 1.174911,-1.20355 c -1.144401,-0.8435 -1.228892,-0.0859 -1.914219,0.61821 -0.687203,0.70316 -0.907822,1.60113 -0.5722,1.92877 0.269436,-0.27601 0.522443,-0.53465 0.983864,-1.0078 0.09998,-0.10182 0.20607,-0.21076 0.327644,-0.33563" />
    <path
       inkscape:connector-curvature="0"
       id="path46"
       style="fill:#a0041e;fill-opacity:1;fill-rule:nonzero;stroke:none;stroke-width:0.46940136"
       d="m 30.427083,282.06378 c 0,0 0,0.46941 -0.938803,0.46941 h -1.877605 c -0.938803,-2.81642 -0.168514,-5.63281 0.938803,-5.63281 1.408202,0 1.408202,1.8776 1.877605,4.22459" />
    <path
       inkscape:connector-curvature="0"
       id="path50"
       style="fill:#d99e82;fill-opacity:1;fill-rule:nonzero;stroke:none;stroke-width:0.46940136"
       d="m 28.080075,278.77662 c 0,0.0211 -0.03098,2.1367 -1.689843,3.38108 l 0.0047,0.006 c -0.114072,0.0855 -0.192454,0.21546 -0.192454,0.36897 0,0.25957 0.21029,0.4694 0.4694,0.4694 0.105612,0 0.198557,-0.0412 0.276948,-0.10045 l 0.0047,0.006 c 2.041896,-1.53119 2.065366,-4.02511 2.065366,-4.13074 z" />
    <path
       inkscape:connector-curvature="0"
       id="path54"
       style="fill:#d99e82;fill-opacity:1;fill-rule:nonzero;stroke:none;stroke-width:0.46940136"
       d="m 29.95768,275.02275 c 0,1.0369 -0.840697,1.87761 -1.877605,1.87761 -1.036907,0 -1.877605,-0.84071 -1.877605,-1.87761 0,-1.0369 0.840698,-1.8776 1.877605,-1.8776 1.036908,0 1.877605,0.8407 1.877605,1.8776" />
    <path
       inkscape:connector-curvature="0"
       id="path58"
       style="fill:#fdcb58;fill-opacity:1;fill-rule:nonzero;stroke:none;stroke-width:0.46940136"
       d="m 25.733068,275.02275 c 0,0 0,-1.8776 2.347007,-1.8776 1.877605,0 1.877605,1.8776 1.877605,1.8776 0,0 0,-0.93879 -1.408205,-0.93879 -0.939271,0 -0.938801,1.4082 -2.816407,0.93879" />
    <path
       style="fill:#a00000;fill-opacity:0;stroke:#be0000;stroke-width:0.36249647;stroke-linecap:round;stroke-linejoin:miter;stroke-miterlimit:4;stroke-dasharray:none;stroke-opacity:1"
       d="m 3.7784699,267.94013 22.5229001,7.28919 v 0 0"
       id="path4518"
       inkscape:connector-curvature="0" />
    <path
       style="fill:#a00000;fill-opacity:0;stroke:#be0000;stroke-width:0.42228281;stroke-linecap:round;stroke-linejoin:miter;stroke-miterlimit:4;stroke-dasharray:none;stroke-opacity:1"
       d="M 4.1780519,291.97006 26.34215,275.56067 v 0 0"
       id="path4518-0"
       inkscape:connector-curvature="0" />
    <path
       style="fill:#a00000;fill-opacity:0;stroke:#000000;stroke-width:4;stroke-linecap:round;stroke-linejoin:miter;stroke-miterlimit:4;stroke-dasharray:none;stroke-opacity:1"
       d="m 3.96875,269.21872 v 21.16667"
       id="path4511"
       inkscape:connector-curvature="0" />
  </g>
</svg>
