<?xml version="1.0" encoding="UTF-8" standalone="no"?>
<!-- Created with Inkscape (http://www.inkscape.org/) -->

<svg
   xmlns:dc="http://purl.org/dc/elements/1.1/"
   xmlns:cc="http://creativecommons.org/ns#"
   xmlns:rdf="http://www.w3.org/1999/02/22-rdf-syntax-ns#"
   xmlns:svg="http://www.w3.org/2000/svg"
   xmlns="http://www.w3.org/2000/svg"
   xmlns:sodipodi="http://sodipodi.sourceforge.net/DTD/sodipodi-0.dtd"
   xmlns:inkscape="http://www.inkscape.org/namespaces/inkscape"
   width="100"
   height="112"
   viewBox="0 0 26.458333 29.633333"
   version="1.1"
   id="svg5403"
   inkscape:version="0.92.1 r15371"
   sodipodi:docname="slow_zone.svg">
  <defs
     id="defs5397" />
  <sodipodi:namedview
     id="base"
     pagecolor="#ffffff"
     bordercolor="#666666"
     borderopacity="1.0"
     inkscape:pageopacity="0.0"
     inkscape:pageshadow="2"
     inkscape:zoom="2.8"
     inkscape:cx="-25.778099"
     inkscape:cy="86.5487"
     inkscape:document-units="mm"
     inkscape:current-layer="layer1"
     showgrid="true"
     inkscape:window-width="1920"
     inkscape:window-height="1017"
     inkscape:window-x="-8"
     inkscape:window-y="-8"
     inkscape:window-maximized="1"
     units="px"
     showguides="false">
    <inkscape:grid
       type="xygrid"
       id="grid5991"
       empspacing="4" />
  </sodipodi:namedview>
  <metadata
     id="metadata5400">
    <rdf:RDF>
      <cc:Work
         rdf:about="">
        <dc:format>image/svg+xml</dc:format>
        <dc:type
           rdf:resource="http://purl.org/dc/dcmitype/StillImage" />
        <dc:title />
      </cc:Work>
    </rdf:RDF>
  </metadata>
  <g
     inkscape:label="Layer 1"
     inkscape:groupmode="layer"
     id="layer1"
     transform="translate(0,-267.36664)">
    <rect
       style="opacity:1;vector-effect:none;fill:#ffffff;fill-opacity:1;stroke:none;stroke-width:0.89958334;stroke-linecap:round;stroke-linejoin:round;stroke-miterlimit:4;stroke-dasharray:none;stroke-dashoffset:0;stroke-opacity:1;paint-order:stroke fill markers"
       id="rect6068"
       width="26.458332"
       height="29.635654"
       x="0"
       y="267.36429"
       ry="3.1773517" />
    <rect
       rx="2.6458333"
       style="opacity:1;vector-effect:none;fill:#000000;fill-opacity:1;stroke:none;stroke-width:0.89958334;stroke-linecap:round;stroke-linejoin:round;stroke-miterlimit:4;stroke-dasharray:none;stroke-dashoffset:0;stroke-opacity:1;paint-order:stroke fill markers"
       id="rect6068-3"
       width="24.870832"
       height="28.045822"
       x="0.79374999"
       y="268.1604"
       ry="2.645823" />
    <rect
       rx="1.8661011"
       style="opacity:1;vector-effect:none;fill:#ffffff;fill-opacity:1;stroke:none;stroke-width:0.89958334;stroke-linecap:round;stroke-linejoin:round;stroke-miterlimit:4;stroke-dasharray:none;stroke-dashoffset:0;stroke-opacity:1;paint-order:stroke fill markers"
       id="rect6068-3-8"
       width="22.754166"
       height="25.929205"
       x="1.8661023"
       y="269.22708"
       ry="1.8437253" />
    <g
       aria-label="ZONE"
       style="font-style:normal;font-variant:normal;font-weight:normal;font-stretch:normal;font-size:1.41111112px;line-height:6.61458302px;font-family:'Roboto Condensed';-inkscape-font-specification:'Roboto Condensed, ';letter-spacing:0px;word-spacing:0px;fill:#000000;fill-opacity:1;stroke:none;stroke-width:0.26458332px;stroke-linecap:butt;stroke-linejoin:miter;stroke-opacity:1"
       id="text6133">
      <path
         d="m 8.6943389,293.19255 h 1.4469401 v 0.58843 H 7.8647599 v -0.42685 l 1.4324707,-2.49356 H 7.8502905 v -0.59084 h 2.2644615 v 0.4172 z"
         style="font-style:normal;font-variant:normal;font-weight:bold;font-stretch:normal;font-size:4.93888903px;font-family:'Roboto Condensed';-inkscape-font-specification:'Roboto Condensed, Bold';fill:#000000;fill-opacity:1;stroke-width:0.26458332px"
         id="path7359" />
      <path
         d="m 12.996574,292.34127 q 0,0.36897 -0.09164,0.64871 -0.09164,0.27974 -0.258038,0.46543 -0.163986,0.18569 -0.397908,0.27975 -0.231511,0.094 -0.513664,0.094 -0.282153,0 -0.516075,-0.094 -0.233922,-0.0941 -0.402732,-0.27975 -0.166398,-0.18569 -0.260449,-0.46543 -0.09164,-0.27974 -0.09164,-0.64871 v -0.5836 q 0,-0.37862 0.09164,-0.66559 0.09164,-0.28939 0.258037,-0.48232 0.166398,-0.19292 0.40032,-0.28938 0.233922,-0.0989 0.516076,-0.0989 0.282153,0 0.513663,0.0989 0.233922,0.0965 0.400321,0.28938 0.168809,0.19293 0.260449,0.48232 0.09164,0.28697 0.09164,0.66559 z m -0.711412,-0.58842 q 0,-0.25081 -0.03617,-0.42685 -0.03617,-0.17846 -0.106109,-0.2918 -0.06994,-0.11334 -0.173633,-0.1664 -0.103698,-0.053 -0.238745,-0.053 -0.13746,0 -0.241157,0.053 -0.103697,0.0531 -0.173633,0.1664 -0.06993,0.11334 -0.106109,0.2918 -0.03617,0.17604 -0.03617,0.42685 v 0.58842 q 0,0.23875 0.03617,0.40997 0.03617,0.16881 0.106109,0.27733 0.07235,0.10852 0.176045,0.15916 0.106109,0.0506 0.243568,0.0506 0.135048,0 0.236333,-0.0506 0.103698,-0.0506 0.173633,-0.15916 0.06994,-0.10852 0.103698,-0.27733 0.03617,-0.17122 0.03617,-0.40997 z"
         style="font-style:normal;font-variant:normal;font-weight:bold;font-stretch:normal;font-size:4.93888903px;font-family:'Roboto Condensed';-inkscape-font-specification:'Roboto Condensed, Bold';fill:#000000;fill-opacity:1;stroke-width:0.26458332px"
         id="path7361" />
      <path
         d="m 15.970036,293.78098 h -0.709 l -1.036974,-2.30305 v 2.30305 h -0.709001 v -3.51125 h 0.709001 l 1.039385,2.30546 v -2.30546 h 0.706589 z"
         style="font-style:normal;font-variant:normal;font-weight:bold;font-stretch:normal;font-size:4.93888903px;font-family:'Roboto Condensed';-inkscape-font-specification:'Roboto Condensed, Bold';fill:#000000;fill-opacity:1;stroke-width:0.26458332px"
         id="path7363" />
      <path
         d="m 18.347841,292.26169 h -1.104497 v 0.93086 h 1.307069 v 0.58843 h -2.01607 v -3.51125 h 2.011247 v 0.59084 h -1.302246 v 0.82958 h 1.104497 z"
         style="font-style:normal;font-variant:normal;font-weight:bold;font-stretch:normal;font-size:4.93888903px;font-family:'Roboto Condensed';-inkscape-font-specification:'Roboto Condensed, Bold';fill:#000000;fill-opacity:1;stroke-width:0.26458332px"
         id="path7365" />
    </g>
    <circle
       style="opacity:1;vector-effect:none;fill:#c1121c;fill-opacity:1;stroke:none;stroke-width:0.89958334;stroke-linecap:round;stroke-linejoin:round;stroke-miterlimit:4;stroke-dasharray:none;stroke-dashoffset:0;stroke-opacity:1;paint-order:stroke fill markers"
       id="path6188"
       cx="13.229166"
       cy="279.5267"
       r="8.9958334" />
    <ellipse
       style="opacity:1;vector-effect:none;fill:#ffffff;fill-opacity:1;stroke:none;stroke-width:0.89958334;stroke-linecap:round;stroke-linejoin:round;stroke-miterlimit:4;stroke-dasharray:none;stroke-dashoffset:0;stroke-opacity:1;paint-order:stroke fill markers"
       id="path6207"
       cx="13.229166"
       cy="279.53748"
       rx="5.8208327"
       ry="5.8208356" />
    <g
       aria-label="××"
       style="font-style:normal;font-variant:normal;font-weight:normal;font-stretch:normal;font-size:10.58333302px;line-height:1.25;font-family:'Book Antiqua';-inkscape-font-specification:'Book Antiqua';letter-spacing:0px;word-spacing:0px;fill:#000000;fill-opacity:1;stroke:none;stroke-width:0.26458332"
       id="text4506">
      <path
         d="m 8.7137089,281.40043 1.4211021,-1.72599 -1.4314374,-1.7415 0.5839436,-0.63562 1.4055988,1.70532 1.405599,-1.70532 0.578776,0.63562 -1.436605,1.7415 1.42627,1.72599 -0.583944,0.63562 -1.395263,-1.68982 -1.3900965,1.68982 z"
         style="font-style:normal;font-variant:normal;font-weight:normal;font-stretch:normal;font-family:'Roboto Condensed';-inkscape-font-specification:'Roboto Condensed, ';stroke-width:0.26458332"
         id="path4508" />
      <path
         d="m 13.695317,281.40043 1.421102,-1.72599 -1.431438,-1.7415 0.583944,-0.63562 1.405599,1.70532 1.405599,-1.70532 0.578776,0.63562 -1.436605,1.7415 1.42627,1.72599 -0.583944,0.63562 -1.395264,-1.68982 -1.390096,1.68982 z"
         style="font-style:normal;font-variant:normal;font-weight:normal;font-stretch:normal;font-family:'Roboto Condensed';-inkscape-font-specification:'Roboto Condensed, ';stroke-width:0.26458332"
         id="path4510" />
    </g>
  </g>
</svg>
