<?xml version="1.0" encoding="UTF-8" standalone="no"?>
<!-- Created with Inkscape (http://www.inkscape.org/) -->

<svg
   xmlns:dc="http://purl.org/dc/elements/1.1/"
   xmlns:cc="http://creativecommons.org/ns#"
   xmlns:rdf="http://www.w3.org/1999/02/22-rdf-syntax-ns#"
   xmlns:svg="http://www.w3.org/2000/svg"
   xmlns="http://www.w3.org/2000/svg"
   xmlns:sodipodi="http://sodipodi.sourceforge.net/DTD/sodipodi-0.dtd"
   xmlns:inkscape="http://www.inkscape.org/namespaces/inkscape"
   width="100"
   height="112"
   viewBox="0 0 26.458333 29.633333"
   version="1.1"
   id="svg5403"
   inkscape:version="0.92.0 r15299"
   sodipodi:docname="slow_zone_us.svg">
  <defs
     id="defs5397" />
  <sodipodi:namedview
     id="base"
     pagecolor="#ffffff"
     bordercolor="#666666"
     borderopacity="1.0"
     inkscape:pageopacity="0.0"
     inkscape:pageshadow="2"
     inkscape:zoom="1.979899"
     inkscape:cx="92.05935"
     inkscape:cy="14.129751"
     inkscape:document-units="mm"
     inkscape:current-layer="layer1"
     showgrid="false"
     inkscape:window-width="817"
     inkscape:window-height="804"
     inkscape:window-x="983"
     inkscape:window-y="86"
     inkscape:window-maximized="0"
     units="px">
    <inkscape:grid
       type="xygrid"
       id="grid5991"
       empspacing="4" />
  </sodipodi:namedview>
  <metadata
     id="metadata5400">
    <rdf:RDF>
      <cc:Work
         rdf:about="">
        <dc:format>image/svg+xml</dc:format>
        <dc:type
           rdf:resource="http://purl.org/dc/dcmitype/StillImage" />
        <dc:title />
      </cc:Work>
    </rdf:RDF>
  </metadata>
  <g
     inkscape:label="Layer 1"
     inkscape:groupmode="layer"
     id="layer1"
     transform="translate(0,-267.36664)">
    <rect
       style="opacity:1;vector-effect:none;fill:#3365ff;fill-opacity:1;stroke:none;stroke-width:0.89958334;stroke-linecap:round;stroke-linejoin:round;stroke-miterlimit:4;stroke-dasharray:none;stroke-dashoffset:0;stroke-opacity:1;paint-order:stroke fill markers"
       id="rect6068"
       width="26.458332"
       height="29.635654"
       x="0"
       y="267.36429"
       ry="3.1773517" />
    <rect
       rx="2.6458333"
       style="opacity:1;vector-effect:none;fill:#ffffff;fill-opacity:1;stroke:none;stroke-width:0.89958334;stroke-linecap:round;stroke-linejoin:round;stroke-miterlimit:4;stroke-dasharray:none;stroke-dashoffset:0;stroke-opacity:1;paint-order:stroke fill markers"
       id="rect6068-3"
       width="24.870832"
       height="28.045822"
       x="0.79374999"
       y="268.1604"
       ry="2.645823" />
    <rect
       rx="1.8661011"
       style="opacity:1;vector-effect:none;fill:#3365ff;fill-opacity:1;stroke:none;stroke-width:0.89958334;stroke-linecap:round;stroke-linejoin:round;stroke-miterlimit:4;stroke-dasharray:none;stroke-dashoffset:0;stroke-opacity:1;paint-order:stroke fill markers"
       id="rect6068-3-8"
       width="22.754166"
       height="25.929205"
       x="1.8661023"
       y="269.22708"
       ry="1.8437253" />
    <g
       id="g6066"
       transform="matrix(1.2845518,0,0,1.2845518,-23.638223,251.80765)"
       style="stroke-width:0.77848166">
      <g
         id="g5998"
         style="stroke-width:0.77848166">
        <g
           transform="matrix(0.26458333,0,0,0.26458333,-256.11866,72.69557)"
           id="g5752"
           style="stroke-width:0.77848166">
          <path
             style="color:#000000;font-style:normal;font-variant:normal;font-weight:normal;font-stretch:normal;font-size:medium;line-height:normal;font-family:sans-serif;font-variant-ligatures:normal;font-variant-position:normal;font-variant-caps:normal;font-variant-numeric:normal;font-variant-alternates:normal;font-feature-settings:normal;text-indent:0;text-align:start;text-decoration:none;text-decoration-line:none;text-decoration-style:solid;text-decoration-color:#000000;letter-spacing:normal;word-spacing:normal;text-transform:none;writing-mode:lr-tb;direction:ltr;text-orientation:mixed;dominant-baseline:auto;baseline-shift:baseline;text-anchor:start;white-space:normal;shape-padding:0;clip-rule:nonzero;display:inline;overflow:visible;visibility:visible;opacity:1;isolation:auto;mix-blend-mode:normal;color-interpolation:sRGB;color-interpolation-filters:linearRGB;solid-color:#000000;solid-opacity:1;vector-effect:none;fill:#ffffff;fill-opacity:1;fill-rule:evenodd;stroke:none;stroke-width:6.2278533;stroke-linecap:round;stroke-linejoin:miter;stroke-miterlimit:4;stroke-dasharray:none;stroke-dashoffset:0;stroke-opacity:1;color-rendering:auto;image-rendering:auto;shape-rendering:auto;text-rendering:auto;enable-background:accumulate"
             d="m 1043.0075,826.76477 v 47 c 0,4 6,4 6,0 v -22 h 1 v 22 c 0,4 6,4 6,0 v -37 h 1 v 12 c 0,4 6,4 6,0 v -12 c 0,-7 -2.9999,-10 -7,-10 z"
             id="path5618"
             inkscape:connector-curvature="0"
             sodipodi:nodetypes="cccccccccccccc"
             transform="translate(0,-1024)" />
        </g>
        <circle
           style="opacity:1;vector-effect:none;fill:#ffffff;fill-opacity:1;stroke:none;stroke-width:0.70030916;stroke-linecap:round;stroke-linejoin:round;stroke-miterlimit:4;stroke-dasharray:none;stroke-dashoffset:0;stroke-opacity:1;paint-order:stroke fill markers"
           id="path5993"
           cx="21.569206"
           cy="18.672676"
           r="1.5827754" />
      </g>
      <path
         sodipodi:nodetypes="cccccccccccccccccccccssscc"
         inkscape:connector-curvature="0"
         id="path5618-7"
         d="m 27.705332,23.803123 c -0.524398,-8.1e-5 -0.949608,0.424898 -0.949811,0.949296 -8.2e-5,0.524601 0.425211,0.949894 0.949811,0.949813 0.5246,8.1e-5 0.949894,-0.425212 0.949812,-0.949813 -2.03e-4,-0.524398 -0.425413,-0.949377 -0.949812,-0.949296 z m -0.982415,1.99896 c -0.635016,0 -1.054775,0.796771 -1.058334,1.5875 l -0.529166,-0.529166 c -0.529167,-0.529167 -1.322917,0 -0.689135,0.654837 0,0 0.953719,1.197246 1.482885,1.197246 0.529167,0 0.529166,-0.476014 0.529166,-0.476014 v -0.846945 l 0.264584,4.2e-5 v 6.35 l 0.79375,1.8e-5 v -3.968768 h 0.264583 l 0.0084,3.960416 0.785398,0.0083 -4.8e-5,-6.349924 0.264583,-4.2e-5 4.8e-5,1.855047 c 1.6e-5,0.635 0.796638,0.634995 0.79375,0 l -0.0084,-1.846711 C 29.621308,26.590486 29.210016,25.802083 28.575,25.802083 Z"
         style="color:#000000;font-style:normal;font-variant:normal;font-weight:normal;font-stretch:normal;font-size:medium;line-height:normal;font-family:sans-serif;font-variant-ligatures:normal;font-variant-position:normal;font-variant-caps:normal;font-variant-numeric:normal;font-variant-alternates:normal;font-feature-settings:normal;text-indent:0;text-align:start;text-decoration:none;text-decoration-line:none;text-decoration-style:solid;text-decoration-color:#000000;letter-spacing:normal;word-spacing:normal;text-transform:none;writing-mode:lr-tb;direction:ltr;text-orientation:mixed;dominant-baseline:auto;baseline-shift:baseline;text-anchor:start;white-space:normal;shape-padding:0;clip-rule:nonzero;display:inline;overflow:visible;visibility:visible;opacity:1;isolation:auto;mix-blend-mode:normal;color-interpolation:sRGB;color-interpolation-filters:linearRGB;solid-color:#000000;solid-opacity:1;vector-effect:none;fill:#ffffff;fill-opacity:1;fill-rule:evenodd;stroke:none;stroke-width:1.64778626;stroke-linecap:round;stroke-linejoin:miter;stroke-miterlimit:4;stroke-dasharray:none;stroke-dashoffset:0;stroke-opacity:1;color-rendering:auto;image-rendering:auto;shape-rendering:auto;text-rendering:auto;enable-background:accumulate" />
    </g>
    <g
       aria-label="NEIGHBORHOOD"
       style="font-style:normal;font-variant:normal;font-weight:normal;font-stretch:normal;font-size:2.82222223px;line-height:6.61458302px;font-family:'Roboto Condensed';-inkscape-font-specification:'Roboto Condensed, ';letter-spacing:0px;word-spacing:0px;fill:#000000;fill-opacity:1;stroke:none;stroke-width:0.26458332px;stroke-linecap:butt;stroke-linejoin:miter;stroke-opacity:1"
       id="text6103">
      <path
         d="M 9.5319162,271.9563 H 9.2027373 l -0.4814521,-1.06927 v 1.06927 H 8.3921063 v -1.63022 h 0.3291789 l 0.4825718,1.07039 v -1.07039 h 0.3280592 z"
         style="font-style:normal;font-variant:normal;font-weight:bold;font-stretch:normal;font-size:2.29305577px;line-height:6.8791666px;font-family:'Roboto Condensed';-inkscape-font-specification:'Roboto Condensed, Bold';fill:#ffffff;fill-opacity:1;stroke-width:0.26458332px"
         id="path7372" />
      <path
         d="m 10.635897,271.25092 h -0.512802 v 0.43218 h 0.606853 v 0.2732 H 9.7939157 v -1.63022 h 0.9337933 v 0.27432 h -0.604614 v 0.38516 h 0.512802 z"
         style="font-style:normal;font-variant:normal;font-weight:bold;font-stretch:normal;font-size:2.29305577px;line-height:6.8791666px;font-family:'Roboto Condensed';-inkscape-font-specification:'Roboto Condensed, Bold';fill:#ffffff;fill-opacity:1;stroke-width:0.26458332px"
         id="path7374" />
      <path
         d="m 11.261785,271.9563 h -0.329179 v -1.63022 h 0.329179 z"
         style="font-style:normal;font-variant:normal;font-weight:bold;font-stretch:normal;font-size:2.29305577px;line-height:6.8791666px;font-family:'Roboto Condensed';-inkscape-font-specification:'Roboto Condensed, Bold';fill:#ffffff;fill-opacity:1;stroke-width:0.26458332px"
         id="path7376" />
      <path
         d="m 12.649039,271.77156 q -0.02575,0.028 -0.06942,0.0638 -0.04367,0.0358 -0.109726,0.0683 -0.06494,0.0314 -0.153393,0.0526 -0.08845,0.0224 -0.203777,0.0224 -0.136598,0 -0.246325,-0.0425 -0.109726,-0.0426 -0.188102,-0.12877 -0.07838,-0.0862 -0.120923,-0.21721 -0.04143,-0.13212 -0.04143,-0.31014 v -0.27544 q 0,-0.17802 0.04031,-0.30902 0.04031,-0.13212 0.114205,-0.21946 0.07502,-0.0873 0.181385,-0.12988 0.107487,-0.0425 0.240726,-0.0425 0.138837,0 0.239606,0.0347 0.100769,0.0347 0.167949,0.10412 0.06718,0.0683 0.103008,0.17019 0.03583,0.10077 0.04591,0.23289 h -0.320222 q -0.0067,-0.0773 -0.02239,-0.12876 -0.01455,-0.0515 -0.04255,-0.0817 -0.02687,-0.0314 -0.06718,-0.0448 -0.03919,-0.0134 -0.09405,-0.0134 -0.06494,0 -0.113086,0.0235 -0.04814,0.0224 -0.08061,0.0739 -0.03135,0.0504 -0.04702,0.13212 -0.01568,0.0806 -0.01568,0.19594 v 0.27768 q 0,0.11644 0.0168,0.19706 0.01792,0.0806 0.05262,0.13212 0.03583,0.0504 0.08957,0.0739 0.05374,0.0224 0.126521,0.0224 0.04367,0 0.0739,-0.007 0.03135,-0.007 0.05262,-0.0157 0.02239,-0.0101 0.03583,-0.0202 0.01455,-0.0101 0.02463,-0.0168 v -0.29894 h -0.230649 v -0.24857 h 0.560948 z"
         style="font-style:normal;font-variant:normal;font-weight:bold;font-stretch:normal;font-size:2.29305577px;line-height:6.8791666px;font-family:'Roboto Condensed';-inkscape-font-specification:'Roboto Condensed, Bold';fill:#ffffff;fill-opacity:1;stroke-width:0.26458332px"
         id="path7378" />
      <path
         d="m 14.027336,271.9563 h -0.328059 v -0.69755 h -0.485931 v 0.69755 h -0.329179 v -1.63022 h 0.329179 v 0.65948 h 0.485931 v -0.65948 h 0.328059 z"
         style="font-style:normal;font-variant:normal;font-weight:bold;font-stretch:normal;font-size:2.29305577px;line-height:6.8791666px;font-family:'Roboto Condensed';-inkscape-font-specification:'Roboto Condensed, Bold';fill:#ffffff;fill-opacity:1;stroke-width:0.26458332px"
         id="path7380" />
      <path
         d="m 14.290455,271.9563 v -1.63022 H 14.7943 q 0.122043,0 0.218333,0.0269 0.09741,0.0269 0.16459,0.0829 0.06718,0.0549 0.101888,0.13883 0.03583,0.084 0.03583,0.19818 0,0.056 -0.01232,0.10749 -0.0112,0.0515 -0.03695,0.0963 -0.02463,0.0448 -0.06382,0.0817 -0.03807,0.0358 -0.09181,0.0593 0.0627,0.0179 0.106368,0.0549 0.04367,0.0358 0.07054,0.084 0.02687,0.0482 0.03919,0.10525 0.01232,0.056 0.01232,0.11533 0,0.23736 -0.131,0.35829 -0.12988,0.12092 -0.377324,0.12092 z m 0.329179,-0.70874 v 0.43554 h 0.210495 q 0.04815,0 0.08174,-0.0157 0.03471,-0.0157 0.05598,-0.0437 0.02239,-0.0291 0.03247,-0.0672 0.01008,-0.0381 0.01008,-0.084 0,-0.10413 -0.03919,-0.16459 -0.03807,-0.0605 -0.12988,-0.0605 z m 0,-0.23961 h 0.171307 q 0.09853,0 0.145556,-0.0504 0.04814,-0.0515 0.04814,-0.15004 0,-0.11084 -0.04479,-0.15899 -0.04479,-0.0481 -0.145556,-0.0481 h -0.174666 z"
         style="font-style:normal;font-variant:normal;font-weight:bold;font-stretch:normal;font-size:2.29305577px;line-height:6.8791666px;font-family:'Roboto Condensed';-inkscape-font-specification:'Roboto Condensed, Bold';fill:#ffffff;fill-opacity:1;stroke-width:0.26458332px"
         id="path7382" />
      <path
         d="m 16.723468,271.28786 q 0,0.17131 -0.04255,0.30119 -0.04255,0.12988 -0.119803,0.2161 -0.07614,0.0862 -0.184744,0.12988 -0.107487,0.0437 -0.238486,0.0437 -0.131,0 -0.239607,-0.0437 -0.108607,-0.0437 -0.186982,-0.12988 -0.07726,-0.0862 -0.120923,-0.2161 -0.04255,-0.12988 -0.04255,-0.30119 v -0.27095 q 0,-0.17579 0.04255,-0.30903 0.04255,-0.13436 0.119803,-0.22393 0.07726,-0.0896 0.185863,-0.13436 0.108606,-0.0459 0.239606,-0.0459 0.131,0 0.238487,0.0459 0.108607,0.0448 0.185863,0.13436 0.07838,0.0896 0.120923,0.22393 0.04255,0.13324 0.04255,0.30903 z m -0.330299,-0.27319 q 0,-0.11645 -0.0168,-0.19818 -0.01679,-0.0829 -0.04926,-0.13548 -0.03247,-0.0526 -0.08062,-0.0773 -0.04814,-0.0246 -0.110846,-0.0246 -0.06382,0 -0.111965,0.0246 -0.04815,0.0246 -0.08062,0.0773 -0.03247,0.0526 -0.04926,0.13548 -0.0168,0.0817 -0.0168,0.19818 v 0.27319 q 0,0.11085 0.0168,0.19035 0.01679,0.0784 0.04926,0.12876 0.03359,0.0504 0.08174,0.0739 0.04926,0.0235 0.113086,0.0235 0.0627,0 0.109726,-0.0235 0.04815,-0.0235 0.08062,-0.0739 0.03247,-0.0504 0.04814,-0.12876 0.0168,-0.0795 0.0168,-0.19035 z"
         style="font-style:normal;font-variant:normal;font-weight:bold;font-stretch:normal;font-size:2.29305577px;line-height:6.8791666px;font-family:'Roboto Condensed';-inkscape-font-specification:'Roboto Condensed, Bold';fill:#ffffff;fill-opacity:1;stroke-width:0.26458332px"
         id="path7384" />
      <path
         d="m 17.457962,271.36064 h -0.16347 v 0.59566 h -0.329179 v -1.63022 h 0.525119 q 0.122042,0 0.217213,0.0325 0.09629,0.0314 0.16235,0.0941 0.06718,0.0616 0.101889,0.15339 0.03583,0.0918 0.03583,0.21274 0,0.0884 -0.01679,0.16011 -0.01568,0.0705 -0.04703,0.12652 -0.03023,0.0549 -0.0739,0.0963 -0.04367,0.0414 -0.09853,0.0717 l 0.285512,0.66731 v 0.0157 h -0.353811 z m -0.16347,-0.27431 h 0.186983 q 0.09853,0 0.147794,-0.0649 0.04926,-0.0661 0.04926,-0.17579 0,-0.056 -0.0112,-0.10077 -0.01008,-0.0459 -0.03359,-0.0773 -0.02239,-0.0325 -0.05822,-0.0493 -0.03583,-0.0179 -0.08509,-0.0179 h -0.19594 z"
         style="font-style:normal;font-variant:normal;font-weight:bold;font-stretch:normal;font-size:2.29305577px;line-height:6.8791666px;font-family:'Roboto Condensed';-inkscape-font-specification:'Roboto Condensed, Bold';fill:#ffffff;fill-opacity:1;stroke-width:0.26458332px"
         id="path7386" />
      <path
         d="m 19.374814,271.9563 h -0.328059 v -0.69755 h -0.485931 v 0.69755 h -0.329179 v -1.63022 h 0.329179 v 0.65948 h 0.485931 v -0.65948 h 0.328059 z"
         style="font-style:normal;font-variant:normal;font-weight:bold;font-stretch:normal;font-size:2.29305577px;line-height:6.8791666px;font-family:'Roboto Condensed';-inkscape-font-specification:'Roboto Condensed, Bold';fill:#ffffff;fill-opacity:1;stroke-width:0.26458332px"
         id="path7388" />
      <path
         d="m 20.785581,271.28786 q 0,0.17131 -0.04255,0.30119 -0.04255,0.12988 -0.119804,0.2161 -0.07614,0.0862 -0.184743,0.12988 -0.107487,0.0437 -0.238487,0.0437 -0.130999,0 -0.239606,-0.0437 -0.108607,-0.0437 -0.186983,-0.12988 -0.07726,-0.0862 -0.120922,-0.2161 -0.04255,-0.12988 -0.04255,-0.30119 v -0.27095 q 0,-0.17579 0.04255,-0.30903 0.04255,-0.13436 0.119803,-0.22393 0.07726,-0.0896 0.185863,-0.13436 0.108606,-0.0459 0.239606,-0.0459 0.131,0 0.238487,0.0459 0.108606,0.0448 0.185863,0.13436 0.07838,0.0896 0.120923,0.22393 0.04255,0.13324 0.04255,0.30903 z m -0.330299,-0.27319 q 0,-0.11645 -0.0168,-0.19818 -0.01679,-0.0829 -0.04926,-0.13548 -0.03247,-0.0526 -0.08062,-0.0773 -0.04814,-0.0246 -0.110846,-0.0246 -0.06382,0 -0.111966,0.0246 -0.04815,0.0246 -0.08062,0.0773 -0.03247,0.0526 -0.04926,0.13548 -0.0168,0.0817 -0.0168,0.19818 v 0.27319 q 0,0.11085 0.0168,0.19035 0.01679,0.0784 0.04926,0.12876 0.03359,0.0504 0.08174,0.0739 0.04926,0.0235 0.113085,0.0235 0.0627,0 0.109727,-0.0235 0.04815,-0.0235 0.08062,-0.0739 0.03247,-0.0504 0.04814,-0.12876 0.0168,-0.0795 0.0168,-0.19035 z"
         style="font-style:normal;font-variant:normal;font-weight:bold;font-stretch:normal;font-size:2.29305577px;line-height:6.8791666px;font-family:'Roboto Condensed';-inkscape-font-specification:'Roboto Condensed, Bold';fill:#ffffff;fill-opacity:1;stroke-width:0.26458332px"
         id="path7390" />
      <path
         d="m 22.173954,271.28786 q 0,0.17131 -0.04255,0.30119 -0.04255,0.12988 -0.119803,0.2161 -0.07614,0.0862 -0.184744,0.12988 -0.107486,0.0437 -0.238486,0.0437 -0.131,0 -0.239607,-0.0437 -0.108606,-0.0437 -0.186982,-0.12988 -0.07726,-0.0862 -0.120923,-0.2161 -0.04255,-0.12988 -0.04255,-0.30119 v -0.27095 q 0,-0.17579 0.04255,-0.30903 0.04255,-0.13436 0.119803,-0.22393 0.07726,-0.0896 0.185863,-0.13436 0.108607,-0.0459 0.239606,-0.0459 0.131,0 0.238487,0.0459 0.108607,0.0448 0.185863,0.13436 0.07838,0.0896 0.120923,0.22393 0.04255,0.13324 0.04255,0.30903 z m -0.330299,-0.27319 q 0,-0.11645 -0.01679,-0.19818 -0.01679,-0.0829 -0.04926,-0.13548 -0.03247,-0.0526 -0.08062,-0.0773 -0.04815,-0.0246 -0.110846,-0.0246 -0.06382,0 -0.111965,0.0246 -0.04814,0.0246 -0.08061,0.0773 -0.03247,0.0526 -0.04927,0.13548 -0.01679,0.0817 -0.01679,0.19818 v 0.27319 q 0,0.11085 0.01679,0.19035 0.0168,0.0784 0.04927,0.12876 0.03359,0.0504 0.08173,0.0739 0.04927,0.0235 0.113086,0.0235 0.0627,0 0.109726,-0.0235 0.04814,-0.0235 0.08061,-0.0739 0.03247,-0.0504 0.04815,-0.12876 0.01679,-0.0795 0.01679,-0.19035 z"
         style="font-style:normal;font-variant:normal;font-weight:bold;font-stretch:normal;font-size:2.29305577px;line-height:6.8791666px;font-family:'Roboto Condensed';-inkscape-font-specification:'Roboto Condensed, Bold';fill:#ffffff;fill-opacity:1;stroke-width:0.26458332px"
         id="path7392" />
      <path
         d="m 22.41468,271.9563 v -1.63022 h 0.431067 q 0.141077,0 0.256402,0.047 0.116444,0.0459 0.198179,0.13435 0.08285,0.0873 0.127641,0.2161 0.0459,0.12764 0.0459,0.29223 v 0.25304 q 0,0.16459 -0.04479,0.29223 -0.04479,0.12764 -0.127641,0.21609 -0.08285,0.0873 -0.199298,0.13324 -0.116445,0.0459 -0.259761,0.0459 z m 0.329179,-1.3559 v 1.0827 h 0.09853 q 0.08733,0 0.145556,-0.0224 0.05822,-0.0235 0.09293,-0.0739 0.03471,-0.0504 0.04927,-0.12876 0.01456,-0.0784 0.01456,-0.18922 v -0.25528 q 0,-0.11197 -0.01456,-0.19034 -0.01456,-0.0784 -0.04927,-0.12764 -0.03471,-0.0493 -0.09293,-0.0717 -0.0571,-0.0235 -0.142197,-0.0235 z"
         style="font-style:normal;font-variant:normal;font-weight:bold;font-stretch:normal;font-size:2.29305577px;line-height:6.8791666px;font-family:'Roboto Condensed';-inkscape-font-specification:'Roboto Condensed, Bold';fill:#ffffff;fill-opacity:1;stroke-width:0.26458332px"
         id="path7394" />
    </g>
    <g
       aria-label="SLOW"
       style="font-style:normal;font-variant:normal;font-weight:normal;font-stretch:normal;font-size:2.82222223px;line-height:6.61458349px;font-family:'Roboto Condensed';-inkscape-font-specification:'Roboto Condensed, ';letter-spacing:0px;word-spacing:0px;fill:#000000;fill-opacity:1;stroke:none;stroke-width:0.26458332px;stroke-linecap:butt;stroke-linejoin:miter;stroke-opacity:1"
       id="text6103-0">
      <path
         d="m 12.306056,275.37877 q 0,-0.0916 -0.01688,-0.16399 -0.01688,-0.0723 -0.07235,-0.13505 -0.05305,-0.0651 -0.154341,-0.1254 -0.09887,-0.0603 -0.265272,-0.12781 -0.197748,-0.0748 -0.378616,-0.17122 -0.178456,-0.0965 -0.315915,-0.22669 -0.135048,-0.13263 -0.217041,-0.30386 -0.07958,-0.17363 -0.07958,-0.40273 0,-0.21945 0.08199,-0.40032 0.08199,-0.18328 0.229099,-0.31109 0.149517,-0.12781 0.352089,-0.19775 0.204983,-0.0723 0.450963,-0.0723 0.253214,0 0.455786,0.082 0.204983,0.0796 0.347266,0.22427 0.144694,0.14229 0.221864,0.34245 0.07717,0.19775 0.07717,0.43649 h -0.706589 q 0,-0.11093 -0.02412,-0.20257 -0.0217,-0.094 -0.07235,-0.15916 -0.04823,-0.0675 -0.125401,-0.1037 -0.07717,-0.0386 -0.185691,-0.0386 -0.101286,0 -0.176044,0.0313 -0.07235,0.0314 -0.120579,0.0868 -0.04823,0.0531 -0.07235,0.12781 -0.02412,0.0748 -0.02412,0.15917 0,0.0868 0.03617,0.15675 0.03858,0.0699 0.106109,0.13022 0.06994,0.0603 0.166398,0.11335 0.09887,0.0531 0.217041,0.10369 0.24598,0.0892 0.429259,0.19775 0.183279,0.10852 0.306269,0.24598 0.12299,0.13746 0.183279,0.31109 0.06029,0.17123 0.06029,0.38827 0,0.23151 -0.07717,0.41237 -0.07476,0.18087 -0.217041,0.30627 -0.139871,0.12299 -0.340031,0.19052 -0.20016,0.0651 -0.450963,0.0651 -0.226687,0 -0.44614,-0.0675 -0.217041,-0.0699 -0.388262,-0.21222 -0.171221,-0.14229 -0.27733,-0.35933 -0.103697,-0.21704 -0.103697,-0.51607 h 0.711412 q 0,0.15916 0.03135,0.27009 0.03135,0.11094 0.09405,0.18087 0.06511,0.0675 0.159164,0.0989 0.09405,0.0289 0.219452,0.0289 0.101286,0 0.171222,-0.0289 0.07235,-0.0314 0.115755,-0.082 0.04582,-0.053 0.06511,-0.1254 0.01929,-0.0724 0.01929,-0.15675 z"
         style="font-style:normal;font-variant:normal;font-weight:bold;font-stretch:normal;font-size:4.93888903px;line-height:6.61458349px;font-family:'Roboto Condensed';-inkscape-font-specification:'Roboto Condensed, Bold';fill:#ffffff;fill-opacity:1;stroke-width:0.26458332px"
         id="path7406" />
      <path
         d="m 14.194313,275.71157 h 1.244368 v 0.58842 h -1.953369 v -3.51124 h 0.709001 z"
         style="font-style:normal;font-variant:normal;font-weight:bold;font-stretch:normal;font-size:4.93888903px;line-height:6.61458349px;font-family:'Roboto Condensed';-inkscape-font-specification:'Roboto Condensed, Bold';fill:#ffffff;fill-opacity:1;stroke-width:0.26458332px"
         id="path7408" />
      <path
         d="m 18.166164,274.86028 q 0,0.36897 -0.09164,0.64871 -0.09164,0.27975 -0.258038,0.46544 -0.163986,0.18569 -0.397908,0.27974 -0.231511,0.0941 -0.513664,0.0941 -0.282153,0 -0.516075,-0.0941 -0.233922,-0.094 -0.402732,-0.27974 -0.166398,-0.18569 -0.260449,-0.46544 -0.09164,-0.27974 -0.09164,-0.64871 v -0.5836 q 0,-0.37861 0.09164,-0.66559 0.09164,-0.28939 0.258038,-0.48231 0.166398,-0.19293 0.40032,-0.28939 0.233922,-0.0989 0.516075,-0.0989 0.282153,0 0.513664,0.0989 0.233922,0.0965 0.40032,0.28939 0.16881,0.19292 0.260449,0.48231 0.09164,0.28698 0.09164,0.66559 z m -0.711413,-0.58842 q 0,-0.2508 -0.03617,-0.42685 -0.03617,-0.17845 -0.106109,-0.2918 -0.06994,-0.11334 -0.173633,-0.1664 -0.103697,-0.0531 -0.238745,-0.0531 -0.137459,0 -0.241157,0.0531 -0.103697,0.0531 -0.173633,0.1664 -0.06994,0.11335 -0.106108,0.2918 -0.03617,0.17605 -0.03617,0.42685 v 0.58842 q 0,0.23875 0.03617,0.40997 0.03617,0.16881 0.106108,0.27733 0.07235,0.10852 0.176045,0.15916 0.106109,0.0506 0.243568,0.0506 0.135048,0 0.236334,-0.0506 0.103697,-0.0506 0.173632,-0.15916 0.06994,-0.10852 0.103698,-0.27733 0.03617,-0.17122 0.03617,-0.40997 z"
         style="font-style:normal;font-variant:normal;font-weight:bold;font-stretch:normal;font-size:4.93888903px;line-height:6.61458349px;font-family:'Roboto Condensed';-inkscape-font-specification:'Roboto Condensed, Bold';fill:#ffffff;fill-opacity:1;stroke-width:0.26458332px"
         id="path7410" />
      <path
         d="m 20.965992,274.99533 0.332797,-2.20658 h 0.701766 l -0.624596,3.51124 h -0.711412 l -0.409967,-2.06913 -0.405143,2.06913 h -0.713824 l -0.627007,-3.51124 h 0.706589 l 0.330385,2.20417 0.412377,-2.20417 h 0.595657 z"
         style="font-style:normal;font-variant:normal;font-weight:bold;font-stretch:normal;font-size:4.93888903px;line-height:6.61458349px;font-family:'Roboto Condensed';-inkscape-font-specification:'Roboto Condensed, Bold';fill:#ffffff;fill-opacity:1;stroke-width:0.26458332px"
         id="path7412" />
    </g>
    <g
       aria-label="ZONE"
       style="font-style:normal;font-variant:normal;font-weight:normal;font-stretch:normal;font-size:1.41111112px;line-height:6.61458302px;font-family:'Roboto Condensed';-inkscape-font-specification:'Roboto Condensed, ';letter-spacing:0px;word-spacing:0px;fill:#000000;fill-opacity:1;stroke:none;stroke-width:0.26458332px;stroke-linecap:butt;stroke-linejoin:miter;stroke-opacity:1"
       id="text6133">
      <path
         d="m 11.701936,280.38863 h 1.44694 v 0.58842 h -2.276519 v -0.42685 l 1.432471,-2.49356 h -1.446941 v -0.59083 h 2.264462 v 0.4172 z"
         style="font-style:normal;font-variant:normal;font-weight:bold;font-stretch:normal;font-size:4.93888903px;font-family:'Roboto Condensed';-inkscape-font-specification:'Roboto Condensed, Bold';fill:#ffffff;fill-opacity:1;stroke-width:0.26458332px"
         id="path7397" />
      <path
         d="m 16.004171,279.53735 q 0,0.36897 -0.09164,0.64871 -0.09164,0.27974 -0.258038,0.46543 -0.163986,0.18569 -0.397908,0.27974 -0.231511,0.094 -0.513664,0.094 -0.282154,0 -0.516076,-0.094 -0.233922,-0.0941 -0.402731,-0.27974 -0.166398,-0.18569 -0.260449,-0.46543 -0.09164,-0.27974 -0.09164,-0.64871 v -0.5836 q 0,-0.37862 0.09164,-0.6656 0.09164,-0.28938 0.258037,-0.48231 0.166398,-0.19293 0.40032,-0.28939 0.233922,-0.0989 0.516076,-0.0989 0.282153,0 0.513663,0.0989 0.233922,0.0965 0.400321,0.28939 0.168809,0.19293 0.260449,0.48231 0.09164,0.28698 0.09164,0.6656 z m -0.711412,-0.58843 q 0,-0.2508 -0.03617,-0.42684 -0.03617,-0.17846 -0.106109,-0.2918 -0.06994,-0.11335 -0.173633,-0.1664 -0.103698,-0.0531 -0.238745,-0.0531 -0.13746,0 -0.241157,0.0531 -0.103697,0.0531 -0.173633,0.1664 -0.06993,0.11334 -0.106109,0.2918 -0.03617,0.17604 -0.03617,0.42684 v 0.58843 q 0,0.23874 0.03617,0.40996 0.03617,0.16881 0.106109,0.27733 0.07235,0.10852 0.176045,0.15917 0.106108,0.0506 0.243568,0.0506 0.135048,0 0.236333,-0.0506 0.103698,-0.0506 0.173633,-0.15917 0.06994,-0.10852 0.103698,-0.27733 0.03617,-0.17122 0.03617,-0.40996 z"
         style="font-style:normal;font-variant:normal;font-weight:bold;font-stretch:normal;font-size:4.93888903px;font-family:'Roboto Condensed';-inkscape-font-specification:'Roboto Condensed, Bold';fill:#ffffff;fill-opacity:1;stroke-width:0.26458332px"
         id="path7399" />
      <path
         d="m 18.977633,280.97705 h -0.709 L 17.231659,278.674 v 2.30305 h -0.709001 v -3.51124 h 0.709001 l 1.039385,2.30546 v -2.30546 h 0.706589 z"
         style="font-style:normal;font-variant:normal;font-weight:bold;font-stretch:normal;font-size:4.93888903px;font-family:'Roboto Condensed';-inkscape-font-specification:'Roboto Condensed, Bold';fill:#ffffff;fill-opacity:1;stroke-width:0.26458332px"
         id="path7401" />
      <path
         d="m 21.355438,279.45776 h -1.104497 v 0.93087 h 1.307069 v 0.58842 h -2.01607 v -3.51124 h 2.011247 v 0.59083 h -1.302246 v 0.82958 h 1.104497 z"
         style="font-style:normal;font-variant:normal;font-weight:bold;font-stretch:normal;font-size:4.93888903px;font-family:'Roboto Condensed';-inkscape-font-specification:'Roboto Condensed, Bold';fill:#ffffff;fill-opacity:1;stroke-width:0.26458332px"
         id="path7403" />
    </g>
  </g>
</svg>
