<?xml version="1.0" encoding="UTF-8"?>
<svg version="1.1" viewBox="0 0 100 112" xmlns="http://www.w3.org/2000/svg">
 <rect width="100" height="112" ry="12.008" fill="#3365ff" stroke-width="3.7794" style="paint-order:stroke fill markers"/>
 <rect x="3" y="3.0234" width="94.002" height="105.99" rx="10" ry="9.999" fill="#fff" stroke-width="3.7794" style="paint-order:stroke fill markers"/>
 <rect x="7.0531" y="7.0672" width="86" height="97.991" rx="7.0531" ry="6.9677" fill="#3365ff" stroke-width="3.7794" style="paint-order:stroke fill markers"/>
 <g transform="matrix(4.8552 0 0 4.8547 -89.342 -58.766)" stroke-width=".77848">
  <g stroke-width=".77848">
   <g transform="matrix(.26458 0 0 .26458 -256.12 72.696)" stroke-width=".77848">
    <path transform="translate(0,-1024)" d="m1043 826.76v47c0 4 6 4 6 0v-22h1v22c0 4 6 4 6 0v-37h1v12c0 4 6 4 6 0v-12c0-7-2.9999-10-7-10z" color="#000000" color-rendering="auto" dominant-baseline="auto" fill="#fff" fill-rule="evenodd" image-rendering="auto" shape-rendering="auto" solid-color="#000000" style="font-feature-settings:normal;font-variant-alternates:normal;font-variant-caps:normal;font-variant-ligatures:normal;font-variant-numeric:normal;font-variant-position:normal;isolation:auto;mix-blend-mode:normal;shape-padding:0;text-decoration-color:#000000;text-decoration-line:none;text-decoration-style:solid;text-indent:0;text-orientation:mixed;text-transform:none;white-space:normal"/>
   </g>
   <circle cx="21.569" cy="18.673" r="1.5828" fill="#fff" style="paint-order:stroke fill markers"/>
  </g>
  <path d="m27.705 23.803c-0.5244-8.1e-5 -0.94961 0.4249-0.94981 0.9493-8.2e-5 0.5246 0.42521 0.94989 0.94981 0.94981 0.5246 8.1e-5 0.94989-0.42521 0.94981-0.94981-2.03e-4 -0.5244-0.42541-0.94938-0.94981-0.9493zm-0.98242 1.999c-0.63502 0-1.0548 0.79677-1.0583 1.5875l-0.52917-0.52917c-0.52917-0.52917-1.3229 0-0.68914 0.65484 0 0 0.95372 1.1972 1.4829 1.1972 0.52917 0 0.52917-0.47601 0.52917-0.47601v-0.84694l0.26458 4.2e-5v6.35l0.79375 1.8e-5v-3.9688h0.26458l0.0084 3.9604 0.7854 0.0083-4.8e-5 -6.3499 0.26458-4.2e-5 4.8e-5 1.855c1.6e-5 0.635 0.79664 0.635 0.79375 0l-0.0084-1.8467c-0.0037-0.80743-0.41496-1.5958-1.05-1.5958z" color="#000000" color-rendering="auto" dominant-baseline="auto" fill="#fff" fill-rule="evenodd" image-rendering="auto" shape-rendering="auto" solid-color="#000000" style="font-feature-settings:normal;font-variant-alternates:normal;font-variant-caps:normal;font-variant-ligatures:normal;font-variant-numeric:normal;font-variant-position:normal;isolation:auto;mix-blend-mode:normal;shape-padding:0;text-decoration-color:#000000;text-decoration-line:none;text-decoration-style:solid;text-indent:0;text-orientation:mixed;text-transform:none;white-space:normal"/>
 </g>
 <g transform="matrix(3.7796 0 0 3.7792 0 -1010.4)" fill="#fff" stroke-width=".26458px" aria-label="NEIGHBORHOOD">
  <path d="m9.5319 271.96h-0.32918l-0.48145-1.0693v1.0693h-0.32918v-1.6302h0.32918l0.48257 1.0704v-1.0704h0.32806z"/>
  <path d="m10.636 271.25h-0.5128v0.43218h0.60685v0.2732h-0.93603v-1.6302h0.93379v0.27432h-0.60461v0.38516h0.5128z"/>
  <path d="m11.262 271.96h-0.32918v-1.6302h0.32918z"/>
  <path d="m12.649 271.77q-0.02575 0.028-0.06942 0.0638t-0.10973 0.0683q-0.06494 0.0314-0.15339 0.0526-0.08845 0.0224-0.20378 0.0224-0.1366 0-0.24632-0.0425-0.10973-0.0426-0.1881-0.12877-0.07838-0.0862-0.12092-0.21721-0.04143-0.13212-0.04143-0.31014v-0.27544q0-0.17802 0.04031-0.30902 0.04031-0.13212 0.1142-0.21946 0.07502-0.0873 0.18138-0.12988 0.10749-0.0425 0.24073-0.0425 0.13884 0 0.23961 0.0347t0.16795 0.10412q0.06718 0.0683 0.10301 0.17019 0.03583 0.10077 0.04591 0.23289h-0.32022q-0.0067-0.0773-0.02239-0.12876-0.01455-0.0515-0.04255-0.0817-0.02687-0.0314-0.06718-0.0448-0.03919-0.0134-0.09405-0.0134-0.06494 0-0.11309 0.0235-0.04814 0.0224-0.08061 0.0739-0.03135 0.0504-0.04702 0.13212-0.01568 0.0806-0.01568 0.19594v0.27768q0 0.11644 0.0168 0.19706 0.01792 0.0806 0.05262 0.13212 0.03583 0.0504 0.08957 0.0739 0.05374 0.0224 0.12652 0.0224 0.04367 0 0.0739-7e-3 0.03135-7e-3 0.05262-0.0157 0.02239-0.0101 0.03583-0.0202 0.01455-0.0101 0.02463-0.0168v-0.29894h-0.23065v-0.24857h0.56095z"/>
  <path d="m14.027 271.96h-0.32806v-0.69755h-0.48593v0.69755h-0.32918v-1.6302h0.32918v0.65948h0.48593v-0.65948h0.32806z"/>
  <path d="m14.29 271.96v-1.6302h0.50384q0.12204 0 0.21833 0.0269 0.09741 0.0269 0.16459 0.0829 0.06718 0.0549 0.10189 0.13883 0.03583 0.084 0.03583 0.19818 0 0.056-0.01232 0.10749-0.0112 0.0515-0.03695 0.0963-0.02463 0.0448-0.06382 0.0817-0.03807 0.0358-0.09181 0.0593 0.0627 0.0179 0.10637 0.0549 0.04367 0.0358 0.07054 0.084t0.03919 0.10525q0.01232 0.056 0.01232 0.11533 0 0.23736-0.131 0.35829-0.12988 0.12092-0.37732 0.12092zm0.32918-0.70874v0.43554h0.2105q0.04815 0 0.08174-0.0157 0.03471-0.0157 0.05598-0.0437 0.02239-0.0291 0.03247-0.0672t0.01008-0.084q0-0.10413-0.03919-0.16459-0.03807-0.0605-0.12988-0.0605zm0-0.23961h0.17131q0.09853 0 0.14556-0.0504 0.04814-0.0515 0.04814-0.15004 0-0.11084-0.04479-0.15899-0.04479-0.0481-0.14556-0.0481h-0.17467z"/>
  <path d="m16.723 271.29q0 0.17131-0.04255 0.30119t-0.1198 0.2161q-0.07614 0.0862-0.18474 0.12988-0.10749 0.0437-0.23849 0.0437t-0.23961-0.0437-0.18698-0.12988q-0.07726-0.0862-0.12092-0.2161-0.04255-0.12988-0.04255-0.30119v-0.27095q0-0.17579 0.04255-0.30903 0.04255-0.13436 0.1198-0.22393 0.07726-0.0896 0.18586-0.13436 0.10861-0.0459 0.23961-0.0459t0.23849 0.0459q0.10861 0.0448 0.18586 0.13436 0.07838 0.0896 0.12092 0.22393 0.04255 0.13324 0.04255 0.30903zm-0.3303-0.27319q0-0.11645-0.0168-0.19818-0.01679-0.0829-0.04926-0.13548-0.03247-0.0526-0.08062-0.0773-0.04814-0.0246-0.11085-0.0246-0.06382 0-0.11196 0.0246-0.04815 0.0246-0.08062 0.0773-0.03247 0.0526-0.04926 0.13548-0.0168 0.0817-0.0168 0.19818v0.27319q0 0.11085 0.0168 0.19035 0.01679 0.0784 0.04926 0.12876 0.03359 0.0504 0.08174 0.0739 0.04926 0.0235 0.11309 0.0235 0.0627 0 0.10973-0.0235 0.04815-0.0235 0.08062-0.0739t0.04814-0.12876q0.0168-0.0795 0.0168-0.19035z"/>
  <path d="m17.458 271.36h-0.16347v0.59566h-0.32918v-1.6302h0.52512q0.12204 0 0.21721 0.0325 0.09629 0.0314 0.16235 0.0941 0.06718 0.0616 0.10189 0.15339 0.03583 0.0918 0.03583 0.21274 0 0.0884-0.01679 0.16011-0.01568 0.0705-0.04703 0.12652-0.03023 0.0549-0.0739 0.0963t-0.09853 0.0717l0.28551 0.66731v0.0157h-0.35381zm-0.16347-0.27431h0.18698q0.09853 0 0.14779-0.0649 0.04926-0.0661 0.04926-0.17579 0-0.056-0.0112-0.10077-0.01008-0.0459-0.03359-0.0773-0.02239-0.0325-0.05822-0.0493-0.03583-0.0179-0.08509-0.0179h-0.19594z"/>
  <path d="m19.375 271.96h-0.32806v-0.69755h-0.48593v0.69755h-0.32918v-1.6302h0.32918v0.65948h0.48593v-0.65948h0.32806z"/>
  <path d="m20.786 271.29q0 0.17131-0.04255 0.30119t-0.1198 0.2161q-0.07614 0.0862-0.18474 0.12988-0.10749 0.0437-0.23849 0.0437t-0.23961-0.0437-0.18698-0.12988q-0.07726-0.0862-0.12092-0.2161-0.04255-0.12988-0.04255-0.30119v-0.27095q0-0.17579 0.04255-0.30903 0.04255-0.13436 0.1198-0.22393 0.07726-0.0896 0.18586-0.13436 0.10861-0.0459 0.23961-0.0459t0.23849 0.0459q0.10861 0.0448 0.18586 0.13436 0.07838 0.0896 0.12092 0.22393 0.04255 0.13324 0.04255 0.30903zm-0.3303-0.27319q0-0.11645-0.0168-0.19818-0.01679-0.0829-0.04926-0.13548-0.03247-0.0526-0.08062-0.0773-0.04814-0.0246-0.11085-0.0246-0.06382 0-0.11197 0.0246t-0.08062 0.0773q-0.03247 0.0526-0.04926 0.13548-0.0168 0.0817-0.0168 0.19818v0.27319q0 0.11085 0.0168 0.19035 0.01679 0.0784 0.04926 0.12876 0.03359 0.0504 0.08174 0.0739 0.04926 0.0235 0.11308 0.0235 0.0627 0 0.10973-0.0235 0.04815-0.0235 0.08062-0.0739t0.04814-0.12876q0.0168-0.0795 0.0168-0.19035z"/>
  <path d="m22.174 271.29q0 0.17131-0.04255 0.30119t-0.1198 0.2161q-0.07614 0.0862-0.18474 0.12988-0.10749 0.0437-0.23849 0.0437t-0.23961-0.0437-0.18698-0.12988q-0.07726-0.0862-0.12092-0.2161-0.04255-0.12988-0.04255-0.30119v-0.27095q0-0.17579 0.04255-0.30903 0.04255-0.13436 0.1198-0.22393 0.07726-0.0896 0.18586-0.13436 0.10861-0.0459 0.23961-0.0459t0.23849 0.0459q0.10861 0.0448 0.18586 0.13436 0.07838 0.0896 0.12092 0.22393 0.04255 0.13324 0.04255 0.30903zm-0.3303-0.27319q0-0.11645-0.01679-0.19818-0.01679-0.0829-0.04926-0.13548-0.03247-0.0526-0.08062-0.0773-0.04815-0.0246-0.11085-0.0246-0.06382 0-0.11196 0.0246t-0.08061 0.0773q-0.03247 0.0526-0.04927 0.13548-0.01679 0.0817-0.01679 0.19818v0.27319q0 0.11085 0.01679 0.19035 0.0168 0.0784 0.04927 0.12876 0.03359 0.0504 0.08173 0.0739 0.04927 0.0235 0.11309 0.0235 0.0627 0 0.10973-0.0235 0.04814-0.0235 0.08061-0.0739t0.04815-0.12876q0.01679-0.0795 0.01679-0.19035z"/>
  <path d="m22.415 271.96v-1.6302h0.43107q0.14108 0 0.2564 0.047 0.11644 0.0459 0.19818 0.13435 0.08285 0.0873 0.12764 0.2161 0.0459 0.12764 0.0459 0.29223v0.25304q0 0.16459-0.04479 0.29223t-0.12764 0.21609q-0.08285 0.0873-0.1993 0.13324-0.11644 0.0459-0.25976 0.0459zm0.32918-1.3559v1.0827h0.09853q0.08733 0 0.14556-0.0224 0.05822-0.0235 0.09293-0.0739t0.04927-0.12876q0.01456-0.0784 0.01456-0.18922v-0.25528q0-0.11197-0.01456-0.19034-0.01456-0.0784-0.04927-0.12764-0.03471-0.0493-0.09293-0.0717-0.0571-0.0235-0.1422-0.0235z"/>
 </g>
 <g transform="matrix(3.7796 0 0 3.7792 0 -1010.4)" fill="#fff" stroke-width=".26458px" aria-label="SLOW">
  <path d="m12.306 275.38q0-0.0916-0.01688-0.16399-0.01688-0.0723-0.07235-0.13505-0.05305-0.0651-0.15434-0.1254-0.09887-0.0603-0.26527-0.12781-0.19775-0.0748-0.37862-0.17122-0.17846-0.0965-0.31592-0.22669-0.13505-0.13263-0.21704-0.30386-0.07958-0.17363-0.07958-0.40273 0-0.21945 0.08199-0.40032 0.08199-0.18328 0.2291-0.31109 0.14952-0.12781 0.35209-0.19775 0.20498-0.0723 0.45096-0.0723 0.25321 0 0.45579 0.082 0.20498 0.0796 0.34727 0.22427 0.14469 0.14229 0.22186 0.34245 0.07717 0.19775 0.07717 0.43649h-0.70659q0-0.11093-0.02412-0.20257-0.0217-0.094-0.07235-0.15916-0.04823-0.0675-0.1254-0.1037-0.07717-0.0386-0.18569-0.0386-0.10129 0-0.17604 0.0313-0.07235 0.0314-0.12058 0.0868-0.04823 0.0531-0.07235 0.12781-0.02412 0.0748-0.02412 0.15917 0 0.0868 0.03617 0.15675 0.03858 0.0699 0.10611 0.13022 0.06994 0.0603 0.1664 0.11335 0.09887 0.0531 0.21704 0.10369 0.24598 0.0892 0.42926 0.19775 0.18328 0.10852 0.30627 0.24598t0.18328 0.31109q0.06029 0.17123 0.06029 0.38827 0 0.23151-0.07717 0.41237-0.07476 0.18087-0.21704 0.30627-0.13987 0.12299-0.34003 0.19052-0.20016 0.0651-0.45096 0.0651-0.22669 0-0.44614-0.0675-0.21704-0.0699-0.38826-0.21222-0.17122-0.14229-0.27733-0.35933-0.1037-0.21704-0.1037-0.51607h0.71141q0 0.15916 0.03135 0.27009 0.03135 0.11094 0.09405 0.18087 0.06511 0.0675 0.15916 0.0989 0.09405 0.0289 0.21945 0.0289 0.10129 0 0.17122-0.0289 0.07235-0.0314 0.11576-0.082 0.04582-0.053 0.06511-0.1254t0.01929-0.15675z"/>
  <path d="m14.194 275.71h1.2444v0.58842h-1.9534v-3.5112h0.709z"/>
  <path d="m18.166 274.86q0 0.36897-0.09164 0.64871-0.09164 0.27975-0.25804 0.46544-0.16399 0.18569-0.39791 0.27974-0.23151 0.0941-0.51366 0.0941t-0.51608-0.0941q-0.23392-0.094-0.40273-0.27974-0.1664-0.18569-0.26045-0.46544-0.09164-0.27974-0.09164-0.64871v-0.5836q0-0.37861 0.09164-0.66559 0.09164-0.28939 0.25804-0.48231 0.1664-0.19293 0.40032-0.28939 0.23392-0.0989 0.51608-0.0989t0.51366 0.0989q0.23392 0.0965 0.40032 0.28939 0.16881 0.19292 0.26045 0.48231 0.09164 0.28698 0.09164 0.66559zm-0.71141-0.58842q0-0.2508-0.03617-0.42685-0.03617-0.17845-0.10611-0.2918-0.06994-0.11334-0.17363-0.1664-0.1037-0.0531-0.23874-0.0531-0.13746 0-0.24116 0.0531t-0.17363 0.1664q-0.06994 0.11335-0.10611 0.2918-0.03617 0.17605-0.03617 0.42685v0.58842q0 0.23875 0.03617 0.40997 0.03617 0.16881 0.10611 0.27733 0.07235 0.10852 0.17604 0.15916 0.10611 0.0506 0.24357 0.0506 0.13505 0 0.23633-0.0506 0.1037-0.0506 0.17363-0.15916 0.06994-0.10852 0.1037-0.27733 0.03617-0.17122 0.03617-0.40997z"/>
  <path d="m20.966 275 0.3328-2.2066h0.70177l-0.6246 3.5112h-0.71141l-0.40997-2.0691-0.40514 2.0691h-0.71382l-0.62701-3.5112h0.70659l0.33038 2.2042 0.41238-2.2042h0.59566z"/>
 </g>
 <g transform="matrix(3.7796 0 0 3.7792 0 -1010.4)" fill="#fff" stroke-width=".26458px" aria-label="ZONE">
  <path d="m11.702 280.39h1.4469v0.58842h-2.2765v-0.42685l1.4325-2.4936h-1.4469v-0.59083h2.2645v0.4172z"/>
  <path d="m16.004 279.54q0 0.36897-0.09164 0.64871t-0.25804 0.46543q-0.16399 0.18569-0.39791 0.27974-0.23151 0.094-0.51366 0.094t-0.51608-0.094q-0.23392-0.0941-0.40273-0.27974-0.1664-0.18569-0.26045-0.46543-0.09164-0.27974-0.09164-0.64871v-0.5836q0-0.37862 0.09164-0.6656 0.09164-0.28938 0.25804-0.48231t0.40032-0.28939q0.23392-0.0989 0.51608-0.0989 0.28215 0 0.51366 0.0989 0.23392 0.0965 0.40032 0.28939 0.16881 0.19293 0.26045 0.48231 0.09164 0.28698 0.09164 0.6656zm-0.71141-0.58843q0-0.2508-0.03617-0.42684-0.03617-0.17846-0.10611-0.2918-0.06994-0.11335-0.17363-0.1664-0.1037-0.0531-0.23874-0.0531-0.13746 0-0.24116 0.0531t-0.17363 0.1664q-0.06993 0.11334-0.10611 0.2918-0.03617 0.17604-0.03617 0.42684v0.58843q0 0.23874 0.03617 0.40996 0.03617 0.16881 0.10611 0.27733 0.07235 0.10852 0.17604 0.15917 0.10611 0.0506 0.24357 0.0506 0.13505 0 0.23633-0.0506 0.1037-0.0506 0.17363-0.15917 0.06994-0.10852 0.1037-0.27733 0.03617-0.17122 0.03617-0.40996z"/>
  <path d="m18.978 280.98h-0.709l-1.037-2.303v2.303h-0.709v-3.5112h0.709l1.0394 2.3055v-2.3055h0.70659z"/>
  <path d="m21.355 279.46h-1.1045v0.93087h1.3071v0.58842h-2.0161v-3.5112h2.0112v0.59083h-1.3022v0.82958h1.1045z"/>
 </g>
</svg>
