<?xml version="1.0" encoding="UTF-8" standalone="no"?>
<!-- Created with Inkscape (http://www.inkscape.org/) -->

<svg
   xmlns:dc="http://purl.org/dc/elements/1.1/"
   xmlns:cc="http://creativecommons.org/ns#"
   xmlns:rdf="http://www.w3.org/1999/02/22-rdf-syntax-ns#"
   xmlns:svg="http://www.w3.org/2000/svg"
   xmlns="http://www.w3.org/2000/svg"
   xmlns:sodipodi="http://sodipodi.sourceforge.net/DTD/sodipodi-0.dtd"
   xmlns:inkscape="http://www.inkscape.org/namespaces/inkscape"
   width="144"
   height="144"
   viewBox="0 0 144 144.00001"
   version="1.1"
   id="svg8"
   inkscape:version="0.92.1 r15371"
   sodipodi:docname="ic_link_neis_one.svg">
  <defs
     id="defs2" />
  <sodipodi:namedview
     id="base"
     pagecolor="#ffffff"
     bordercolor="#666666"
     borderopacity="1.0"
     inkscape:pageopacity="0.0"
     inkscape:pageshadow="2"
     inkscape:zoom="3.959798"
     inkscape:cx="68.568659"
     inkscape:cy="110.58663"
     inkscape:document-units="px"
     inkscape:current-layer="layer1"
     showgrid="false"
     units="px"
     inkscape:window-width="2560"
     inkscape:window-height="1377"
     inkscape:window-x="-8"
     inkscape:window-y="-8"
     inkscape:window-maximized="1" />
  <metadata
     id="metadata5">
    <rdf:RDF>
      <cc:Work
         rdf:about="">
        <dc:format>image/svg+xml</dc:format>
        <dc:type
           rdf:resource="http://purl.org/dc/dcmitype/StillImage" />
        <dc:title></dc:title>
      </cc:Work>
    </rdf:RDF>
  </metadata>
  <g
     inkscape:label="Layer 1"
     inkscape:groupmode="layer"
     id="layer1"
     transform="translate(0,-978.51965)">
    <g
       aria-label="n-o"
       style="font-style:normal;font-variant:normal;font-weight:normal;font-stretch:normal;font-size:40px;line-height:1.25;font-family:'Book Antiqua';-inkscape-font-specification:'Book Antiqua';letter-spacing:0px;word-spacing:0px;fill:#000000;fill-opacity:1;stroke:none"
       id="text5049">
      <path
         d="M 53.908552,1075.8 H 43.080427 v -25.4062 q 0,-7.6406 -0.609375,-10.1719 -0.609375,-2.5312 -2.296875,-3.8906 -1.640625,-1.3594 -3.75,-1.3594 -2.71875,0 -4.921875,1.7813 -2.203125,1.7343 -3.09375,4.8281 -0.890625,3.0937 -0.890625,11.6719 V 1075.8 H 16.689802 v -49.7812 h 10.03125 v 7.3125 q 2.671875,-4.2188 6,-6.3281 3.375,-2.1094 7.453125,-2.1094 4.734375,0 7.96875,2.4844 3.28125,2.4375 4.5,6.3281 1.265625,3.8437 1.265625,11.1562 z"
         style="font-style:normal;font-variant:normal;font-weight:bold;font-stretch:condensed;font-size:96px;font-family:Arial;-inkscape-font-specification:'Arial Bold Condensed'"
         id="path5051" />
      <path
         d="M 61.783552,1057.4719 V 1044.3 h 21.234375 v 13.1719 z"
         style="font-style:normal;font-variant:normal;font-weight:bold;font-stretch:condensed;font-size:96px;font-family:Arial;-inkscape-font-specification:'Arial Bold Condensed'"
         id="path5053" />
      <path
         d="m 88.689802,1050.2063 q 0,-7.3125 2.90625,-13.3125 2.90625,-6 7.59375,-9 4.687498,-3 10.546878,-3 9.84375,0 15.46875,7.7344 5.625,7.6875 5.625,18 0,7.6875 -2.95313,13.875 -2.90625,6.1875 -7.6875,9.3281 -4.73437,3.0937 -10.40625,3.0937 -9.09375,0 -15.093748,-6.9375 -6,-6.9375 -6,-19.7812 z m 11.0625,0.7031 q 0,7.5469 2.953128,11.4375 2.95312,3.8438 7.125,3.8438 4.07812,0 6.98437,-3.8907 2.90625,-3.8906 2.90625,-11.4843 0,-7.4063 -2.95312,-11.2969 -2.95313,-3.8906 -7.07813,-3.8906 -4.07812,0 -7.03125,3.8906 -2.906248,3.8906 -2.906248,11.3906 z"
         style="font-style:normal;font-variant:normal;font-weight:bold;font-stretch:condensed;font-size:96px;font-family:Arial;-inkscape-font-specification:'Arial Bold Condensed'"
         id="path5055" />
    </g>
  </g>
</svg>
