<svg version="1.1" viewBox="-15.05 -15.05 30.1 30.1" xmlns="http://www.w3.org/2000/svg">
 <path d="m-6.213203436-15-8.786796564 8.786796564v12.42640687l8.786796564 8.786796564h12.42640687l8.786796564-8.786796564v-12.42640687l-8.786796564-8.786796564z" fill="#fff" stroke="#000" stroke-width="0.05"/>
 <path d="m-14.25-5.902543264 8.347456736-8.347456736h11.80508653l8.347456736 8.347456736v11.80508653l-8.347456736 8.347456736h-11.80508653l-8.347456736-8.347456736z" fill="#a6192e"/>
 <g transform="matrix(.0390625 0 0 .0390625 -12.5 -5)">
  <path d="M159 0V34H205V256H241V34H287V0" fill="#fff"/>
  <path d="M518 256V18H577.4948425A42 42 0 0 1 615.8917541 42.98009458 72 72 0 0 1 622 72 72 72 0 0 1 615.8917541 101.0220044 42 42 0 0 1 577.4948425 126H518M335.364971 49.75526231A47 47 0 0 1 426.635029 49.75526231 300.625 300.625 0 0 1 437 128 300.625 300.625 0 0 1 426.635029 206.2447377 47 47 0 0 1 335.364971 206.2447377 300.625 300.625 0 0 1 325 128 300.625 300.625 0 0 1 335.364971 49.75526231ZM122 60A46 46 0 0 0 30 60 46 46 0 0 0 52.18236717 99.35378463L81.16646139 116.8153652A86 86 0 0 1 122 190 52 52 0 0 1 18 190V180" fill="none" stroke="#fff" stroke-width="36"/>
 </g>
</svg>
