<?xml version="1.0" encoding="UTF-8"?>
<svg version="1.1" viewBox="0 0 256 256" xmlns="http://www.w3.org/2000/svg">
 <circle cx="128" cy="128.02" r="114" fill="#25b"/>
 <path d="m128 6.0327c-67.174 2e-6 -121.97 54.793-121.97 121.97 0 67.174 54.793 121.97 121.97 121.97 67.174 0 121.97-54.793 121.97-121.97-1e-5 -67.174-54.793-121.97-121.97-121.97zm0 31.475c50.164 0 90.494 40.327 90.494 90.492 0 18.517-5.5012 35.689-14.958 49.992l-125.53-125.53c14.303-9.4558 31.476-14.956 49.992-14.956zm-73.456 37.486 126.46 126.46c-14.875 10.726-33.171 17.036-53.008 17.036-50.164 0-90.494-40.329-90.494-90.494 1e-6 -19.837 6.3111-38.131 17.038-53.006z" fill="#c1121c" stroke="#fff" stroke-width="2"/>
 <path d="m156.01 94.522c-0.82624 2.2241-3.0062 3.7576-5.2695 4.6992v3.2285c1.7647-0.58261 3.2973-1.4814 4.5977-2.6973v13.412h3.5586v-18.643zm23.102 0c-0.82624 2.2241-3.0062 3.7576-5.2695 4.6992v3.2285c1.7647-0.58261 3.2973-1.4814 4.5977-2.6973v13.412h3.5586v-18.643zm10.525 0.33008-1.8242 9.6621 2.8867 0.41797c5.6704-6.1688 7.8149 8.6635 1.1289 5.0039-0.49817-0.47285-0.79907-1.11-0.90039-1.9121l-3.5469 0.36719c1.0696 7.2417 12.571 6.2814 12.488-1.457-0.046-3.9933-3.8039-7.4384-8.0918-5.5976l0.55664-3.1543h6.7129v-3.3301zm-25.669 8.852v3.5586h7.1451v-3.5586z" fill="#fff"/>
</svg>
