<?xml version="1.0" encoding="UTF-8"?>
<svg class="icon" version="1.1" viewBox="0 0 96 96" xmlns="http://www.w3.org/2000/svg">
 <path d="m45.653 65.528-8.955-6.4781 2.6675-3.239 8.5739 6.6686z" fill="#808080" stroke-width=".08753"/>
 <path d="m19.07 65.111 2.6151-6.9113c1.8679-6.1641-3.9227-8.0321-3.9227-8.0321h-2.8019c-2.6151 0-4.8567 1.6812-5.7906 4.1095l-3.549 10.834z" fill="#ff754c" stroke-width=".085813"/>
 <path d="m18.883 55.771h3.3623c-0.1868 0.74719-0.37359 1.4944-0.56038 2.4283l-3.7359 9.9001-4.6699 2.6151z" fill="#e64a19" stroke-width=".085813"/>
 <path d="m19.63 33.356c3.5491 0 6.5377 2.9887 6.5377 6.5377s-2.9887 6.5377-6.5377 6.5377-6.5377-2.9887-6.5377-6.5377 2.9886-6.5377 6.5377-6.5377" fill="#ffba57" stroke-width=".085813"/>
 <path d="m25.234 63.243c-0.74718 0-1.4944-0.1868-2.0547-0.74718l-7.4717-7.4717c-1.1208-1.1208-1.1208-2.8019 0-3.9227s2.8019-1.1208 3.9227 0l5.9773 5.9773 7.4717-4.4831c1.3076-0.74718 2.9887-0.37359 3.9227 0.93397 0.74719 1.3076 0.3736 2.9887-0.93397 3.9227l-9.3397 5.6038c-0.56038 0-0.93397 0.1868-1.4944 0.1868z" fill="#ff754c" stroke-width=".085813"/>
 <path d="m86.4 64.8c-6.5542 18.498-20.114 21.375-28.8 21.6h-57.599v-21.6z" fill="#5ec08f" stroke-width=".09923"/>
 <path d="m95.999 81.6c-7.1999 0-9.5999-4.8-9.5999-4.8s-2.4 4.8-9.5999 4.8-9.5999-4.8-9.5999-4.8-2.4 4.8-9.5999 4.8-9.5999-4.8-9.5999-4.8-2.4 4.8-9.5999 4.8-9.5999-4.8-9.5999-4.8-2.4 4.8-9.5999 4.8-9.5999-4.8-9.5999-4.8-2.4 4.8-9.5999 4.8v14.4h96z" fill="#7e8ccf" stroke-width=".11026"/>
 <path d="m95.999 86.4c-7.1999 0-9.5999-4.8-9.5999-4.8s-2.4 4.8-9.5999 4.8-9.5999-4.8-9.5999-4.8-2.4 4.8-9.5999 4.8-9.5999-4.8-9.5999-4.8-2.4 4.8-9.5999 4.8-9.5999-4.8-9.5999-4.8-2.4 4.8-9.5999 4.8-9.5999-4.8-9.5999-4.8-2.4 4.8-9.5999 4.8v9.5999h96z" fill="#c5cae9" stroke-width=".11026"/>
 <path d="m42.513 52.27-8.9643 10.549" fill="none" stroke="#808080" stroke-width="2.3817"/>
 <path d="m61.855 52.268c-14.443 1.5633-21.927 5.9367-30.296 12.727h40.72z" fill="#82cdc6" stroke-width=".09923"/>
 <path d="m0 66.407 86.563-0.097371" fill="none" stroke="#0d7c6f" stroke-linecap="round" stroke-width="4"/>
</svg>
