<?xml version="1.0" encoding="UTF-8"?>
<svg class="icon" version="1.1" viewBox="0 0 96 96" xmlns="http://www.w3.org/2000/svg">
 <path d="m25.661 29.198c3.5491 0 6.5377 2.9887 6.5377 6.5377s-2.9887 6.5377-6.5377 6.5377-6.5377-2.9887-6.5377-6.5377 2.9886-6.5377 6.5377-6.5377" fill="#ffba57" stroke-width=".085813"/>
 <path d="m20 45h10c2.5853 0 3 1.9769 3 4.5623v9.7711c0 2.5853-2.0813 4.6667-4.6667 4.6667h-6.4769c-2.5853 0-4.6667-2.0813-4.6667-4.6667v-9.7711c0-2.5853 0.22491-4.5623 2.8102-4.5623z" fill="#ff754c" stroke-linecap="round" stroke-width="5.0814"/>
 <path d="m19.763 47.524-10.245 7.8656 4.8251 3.4371" fill="none" stroke="#ff754c" stroke-linecap="round" stroke-linejoin="round" stroke-width="5"/>
 <path d="m30.24 47.689 8.5008-4.1513 1.672-9.0727" fill="none" stroke="#ff754c" stroke-linecap="round" stroke-linejoin="round" stroke-width="5"/>
 <path d="m80.037 30.925c-3.5491 0-6.5377 2.9887-6.5377 6.5377s2.9887 6.5377 6.5377 6.5377 6.5377-2.9887 6.5377-6.5377-2.9886-6.5377-6.5377-6.5377" fill="#ffba57" stroke-width=".085813"/>
 <path d="m82.065 50.093 6.6533 7.3777 2.6325-5.8695" fill="none" stroke="#ff754c" stroke-linecap="round" stroke-linejoin="round" stroke-width="5"/>
 <path d="m79.975 47.531-6.0661-0.56993c-2.574-0.24184-3.9032 1.6589-5 4l-4.1453 8.8479c-1.0968 2.3411 2.0813 4.6667 4.6667 4.6667h6.4769c2.5853 0 3.9544-2.1814 4.6667-4.6667l2.2114-7.7157c0.7123-2.4853-0.23624-4.3204-2.8102-4.5623z" fill="#ff754c" stroke-linecap="round" stroke-width="5.0814"/>
 <path d="m72.72 49.514-9.9552 2.8814-4.8046-6.301" fill="none" stroke="#ff754c" stroke-linecap="round" stroke-linejoin="round" stroke-width="5"/>
 <path d="m18.169 60.426c0.02251-3.8995 3.1879-7.05 7.0876-7.054 3.8997-0.0041 7.0717 3.1397 7.1024 7.0392" fill="none" stroke="#546e7a" stroke-width="4"/>
 <path d="m8 60v16c0 6.648 5.352 12 12 12h8c6.648 0 12-5.352 12-12h16c0 6.648 5.352 12 12 12h8c6.648 0 12-5.352 12-12v-16z" fill="#76dda6"/>
 <path d="m42 48c-2.216 0-4 1.784-4 4v8l2 4v12h16v-12l2-4v-8c0-2.216-1.784-4-4-4z" fill="#5ec08f"/>
 <path d="m95.999 81.6c-7.1999 0-9.5999-4.8-9.5999-4.8s-2.4 4.8-9.5999 4.8-9.5999-4.8-9.5999-4.8-2.4 4.8-9.5999 4.8-9.5999-4.8-9.5999-4.8-2.4 4.8-9.5999 4.8-9.5999-4.8-9.5999-4.8-2.4 4.8-9.5999 4.8-9.5999-4.8-9.5999-4.8-2.4 4.8-9.5999 4.8v14.4h96z" fill="#7e8ccf" stroke-width=".11026"/>
 <path d="m95.999 86.4c-7.1999 0-9.5999-4.8-9.5999-4.8s-2.4 4.8-9.5999 4.8-9.5999-4.8-9.5999-4.8-2.4 4.8-9.5999 4.8-9.5999-4.8-9.5999-4.8-2.4 4.8-9.5999 4.8-9.5999-4.8-9.5999-4.8-2.4 4.8-9.5999 4.8-9.5999-4.8-9.5999-4.8-2.4 4.8-9.5999 4.8v9.5999h96z" fill="#c5cae9" stroke-width=".11026"/>
 <path d="m20.132 55.568 5.117 4.4321 5.1277-4.4525" fill="none" stroke="#546e7a" stroke-width="2"/>
 <path d="m8 62h80" fill="none" stroke="#0d7c6f" stroke-linecap="round" stroke-width="4"/>
</svg>
