<?xml version="1.0" encoding="UTF-8"?>
<svg class="icon" version="1.1" viewBox="0 0 96 96" xmlns="http://www.w3.org/2000/svg">
 <path d="m53.369 69.504h14.492l-7.4532-22.359c-1.0351-2.8985-3.5196-4.5547-6.4179-4.5547h-8.4883s-1.0351 2.0703 1.0351 8.9023z" fill="#5ec08f" stroke-width=".10938"/>
 <path d="m49.642 48.801h-3.7265c0.20706 0.82816 0.41402 1.6562 0.62109 2.6914l4.1407 10.973 5.1758 2.8985z" fill="#41a571" stroke-width=".10938"/>
 <path d="m60.615 67.434c-2.0703-1.0351-9.1094-4.5547-15.113-7.8672-1.6562-0.82816-3.5196-0.62109-4.9687 0.62108l-7.039 7.2461z" fill="#ffba57" stroke-width=".10938"/>
 <path d="m48.607 23.957c3.9336 0 7.2461 3.3125 7.2461 7.2461s-3.3125 7.2461-7.2461 7.2461-7.2461-3.3125-7.2461-7.2461 3.3125-7.2461 7.2461-7.2461" fill="#ffba57" stroke-width=".10938"/>
 <path d="m76.8 86.394c3.456-5.832 10.649-22.033 10.649-22.033-25.95 3.0806-52.255 4.368-79.691-0.03542l6.0665 20.974z" fill="#ff754c" stroke-width=".09923"/>
 <path d="m21.844 45.366 35.532 45.785" fill="#c08a5e" stroke="#546e7a" stroke-width="4"/>
 <path d="m96 81.594c-7.1999 0-9.5999-4.8-9.5999-4.8s-2.4 4.8-9.5999 4.8-9.5999-4.8-9.5999-4.8-2.4 4.8-9.5999 4.8-9.5999-4.8-9.5999-4.8-2.4 4.8-9.5999 4.8-9.5999-4.8-9.5999-4.8-2.4 4.8-9.5999 4.8-9.5999-4.8-9.5999-4.8-2.4 4.8-9.5999 4.8v14.4h95.999v-14.4z" fill="#7e8ccf" stroke-width=".11026"/>
 <path d="m96 86.394c-7.1999 0-9.5999-4.8-9.5999-4.8s-2.4 4.8-9.5999 4.8-9.5999-4.8-9.5999-4.8-2.4 4.8-9.5999 4.8-9.5999-4.8-9.5999-4.8-2.4 4.8-9.5999 4.8-9.5999-4.8-9.5999-4.8-2.4 4.8-9.5999 4.8-9.5999-4.8-9.5999-4.8-2.4 4.8-9.5999 4.8v9.5999h95.999v-9.5999z" fill="#c5cae9" stroke-width=".11026"/>
 <path d="m34.069 67.434c0.01486-2.5755 2.0251-4.8288 4.6006-4.8165 2.5755 0.01236 4.6541 2.2415 4.6442 4.8171" fill="none" stroke="#ff754c" stroke-width="3"/>
 <path d="m21.693 48.801h29.191c1.6562 0 3.1054-1.4492 3.1054-3.1054s-1.4492-3.1054-3.1054-3.1054h-29.191c-1.6562 0-3.1054 1.4492-3.1054 3.1054 0 1.6563 1.4492 3.1054 3.1054 3.1054z" fill="#ffba57" stroke-width=".10938"/>
</svg>
