<?xml version="1.0" encoding="UTF-8"?>
<svg class="icon" version="1.1" viewBox="0 0 96 96" xmlns="http://www.w3.org/2000/svg">
 <path d="m70.674 9.4982-37.07 31.502 14.001 33.57" fill="none" stroke="#546e7a" stroke-width=".9"/>
 <path d="m11.605 27.82c-3.672 0-6.48 2.808-6.48 6.48 0 3.672 2.808 6.48 6.48 6.48 3.672 0 6.48-2.808 6.48-6.48 0-3.672-2.808-6.48-6.48-6.48" fill="#ffba57" stroke-width=".09923"/>
 <path d="m40.981 74.043-8.6399-10.8c-0.648-0.648-1.512-0.864-2.376-0.864h-7.5599c0-0.432-0.216-0.648-0.432-1.08l-3.888-9.7199h5.4c0.648 0 1.296-0.216 1.944-0.648l8.6399-6.48c1.512-1.08 1.728-3.024 0.648-4.536-1.08-1.512-3.024-1.728-4.536-0.648l-7.7759 5.832h-14.04c-1.728 0-3.24 1.512-3.24 3.24v0.648c0 0.864 0.216 2.16 0.864 3.672l6.048 12.96c0.864 1.728 2.376 2.808 4.104 3.24h12.528l7.5599 9.9359c0.648 0.648 1.512 0.864 2.376 0.864 0.864 0 1.728-0.216 2.376-0.864 1.08-1.296 1.08-3.456 0-4.752z" fill="#ff754c" stroke-width=".09923"/>
 <path d="m46.165 73.179c-1.944-41.04 25.92-66.96 25.92-66.96s7.5599 7.1279 19.44 56.16z" fill="#e0dddc" stroke-width=".09923"/>
 <path d="m71.437 83.979c3.456-5.832 7.344-15.12 7.344-15.12h-58.536c0 6.264 1.296 11.664 2.592 15.12z" fill="#5ec08f" stroke-width=".09923"/>
 <path d="m96 81.594c-7.1999 0-9.5999-4.8-9.5999-4.8s-2.4 4.8-9.5999 4.8-9.5999-4.8-9.5999-4.8-2.4 4.8-9.5999 4.8c-7.1999 0-9.5999-4.8-9.5999-4.8s-2.4 4.8-9.5999 4.8c-7.1999 0-9.5999-4.8-9.5999-4.8s-2.4 4.8-9.5999 4.8c-7.1999 0-9.5999-4.8-9.5999-4.8s-2.4 4.8-9.5999 4.8v14.4h95.999v-14.4z" fill="#7e8ccf" stroke-width=".11026"/>
 <path d="m96 86.394c-7.1999 0-9.5999-4.8-9.5999-4.8s-2.4 4.8-9.5999 4.8-9.5999-4.8-9.5999-4.8-2.4 4.8-9.5999 4.8c-7.1999 0-9.5999-4.8-9.5999-4.8s-2.4 4.8-9.5999 4.8c-7.1999 0-9.5999-4.8-9.5999-4.8s-2.4 4.8-9.5999 4.8c-7.1999 0-9.5999-4.8-9.5999-4.8s-2.4 4.8-9.5999 4.8v9.5999h95.999v-9.5999z" fill="#c5cae9" stroke-width=".11026"/>
 <path d="m18.085 51.579h-4.32l4.32 10.8h4.32z" fill="#e64a19" stroke-width=".09923"/>
</svg>
