<?xml version="1.0" encoding="UTF-8"?>
<svg class="icon" version="1.1" viewBox="0 0 96 96" xmlns="http://www.w3.org/2000/svg">
 <path d="m65.894 41.713-9.4568-4.8243-11.871-9.4474-4.0242 6.0303 11.871 8.2413c0.20121 0.20101 0.40242 0.40202 0.80485 0.60303l11.871 5.8293zm-41.449 40.001c-0.40242 0-0.80485 0-1.4084-0.20101-2.0121-0.80404-3.2194-3.0152-2.4145-5.2263l4.6279-13.066 2.817-15.076 12.274-3.4171-12.072 34.171c-0.60364 1.809-2.2132 2.8141-3.8229 2.8141z" fill="#f9a825" stroke-width=".092389"/>
 <path d="m35.109 59.603 5.2314-14.875-12.274 3.4171-1.8108 9.4474z" fill="#5e35b1" stroke-width=".092389"/>
 <path d="m45.572 7.3403c3.823 0 7.0423 3.2161 7.0423 7.0353 0 3.8191-3.2194 7.0353-7.0423 7.0353s-7.0423-3.2162-7.0423-7.0353c0-3.8191 3.2193-7.0353 7.0423-7.0353z" fill="#ffb74d" stroke-width=".092389"/>
 <path d="m68.723 19.199-6.4584 51.631c-1.2534 5.4012-5.9052 6.7593-7.0348 16.915h14.084c0.60364-11.457-3.2194-11.658-2.817-18.091h-0.03048l6.2491-49.956z" fill="#546e7a" stroke-width=".092389"/>
 <path d="m86.82 75.683s-6.0364 6.0303-38.229 6.0303h-38.229c-1.2072 0-2.0121 0.80404-2.0121 2.0101 0 2.0101 8.0484 4.0202 16.096 4.0202h48.29c8.0484 0 16.096-8.0403 16.096-10.05 0-1.2062-0.80485-2.0102-2.0121-2.0102z" fill="#ff754c" stroke-width=".092389"/>
 <path d="m72.534 18.195c-0.80485-1.407-2.6158-2.0101-4.0242-1.206l-11.469 6.2313-11.066 2.2111h-5.634c-2.817 0-5.2315 1.8091-6.2376 4.4222l-5.8351 17.689c-0.80485 2.4121-0.20121 4.8243 1.4084 6.4323l10.865 11.055v12.664c0 2.2111 1.8109 4.0202 4.0242 4.0202s4.0242-1.8091 4.0242-4.0202v-14.07c0-1.0051-0.40242-1.8091-1.0061-2.6132l-7.0423-9.2464v-0.20101l6.8411-17.488c0-0.20101 0.20121-0.40201 0.20121-0.60303l10.865-4.4222c0.40242 0 0.60364-0.20101 0.80484-0.40202l11.871-6.6333c1.6097-0.60303 2.2133-2.4121 1.4084-3.8192z" fill="#ffba57" stroke-width=".092389"/>
 <path d="m42.554 29.451c0-4.0202 3.4206-4.0202 3.4206-4.0202h-5.634c-2.817 0-5.2315 1.8091-6.2376 4.4222l-5.8351 17.689c-0.80485 2.4121-0.20121 4.8243 1.4084 6.4323l5.634 5.6283 7.646-4.8243s-2.4145-3.0152-2.4145-3.2162l6.8411-17.488c0-0.20101 0.20121-0.40201 0.20121-0.60303 9e-5 0-5.0302 0.80404-5.0302-4.0202z" fill="#9575cd" stroke-width=".092389"/>
 <path d="m47.584 33.471c-0.20121 0-2.0121 0.20101-3.4206-0.60303l-6.2376 15.679 2.6158 3.0152 6.8411-17.488c9.7e-5 -0.20101 0.20131-0.40201 0.20131-0.60303z" fill="#7e57c2" stroke-width=".092389"/>
</svg>
