<?xml version="1.0" encoding="UTF-8"?>
<svg version="1.1" viewBox="0 0 64 64" xmlns="http://www.w3.org/2000/svg">
 <path d="m34 19h-4c-0.59218-3.2596 3.9754-3.6312 3.935-6.0951-0.07338-0.90141-0.66406-1.1186-1.3673-1.2108-1.3053 0.10775-1.7281 1.1897-1.8474 2.2023l-4.0498-0.501c0.34813-3.4373 2.3296-5.3954 5.3296-5.3954 4 0 6 2 6 5s-3.9818 3.1536-4 6zm-4 2h4v3h-4z" fill="#666"/>
 <path d="m34 51h-4c-0.59218-3.2596 3.9754-3.6312 3.935-6.0951-0.07338-0.90141-0.66406-1.1186-1.3673-1.2108-1.3053 0.10775-1.7281 1.1897-1.8474 2.2023l-4.0498-0.501c0.34813-3.4373 2.3296-5.3954 5.3296-5.3954 4 0 6 2 6 5 0 3-3.9818 3.1536-4 6zm-4 2h4v3h-4z" fill="#666"/>
</svg>
