<?xml version="1.0" encoding="UTF-8"?>
<svg version="1.1" viewBox="0 0 128 128" xmlns="http://www.w3.org/2000/svg">
 <g transform="matrix(3.7795 0 0 3.7795 -256 -502.52)">
  <path d="m84.667 142.49c-1.0583 0-12.7 2.1166-12.7 6.3496v10.583h25.4v-10.583c0-4.2333-11.642-6.3496-12.7-6.3496z" fill="#6493db" fill-opacity=".37647"/>
  <path d="m91.647 144.16-15.265 15.26h2.9931l14.381-14.388c-0.67539-0.31721-1.3601-0.62554-2.1097-0.8722z" fill="#fff" fill-opacity=".25098"/>
  <path d="m84.667 142.48-12.7 12.698v4.2333h0.25683l16.202-16.224c-1.1797-0.27257-2.3252-0.56246-3.7589-0.70678z" fill="#fff" fill-opacity=".25098"/>
  <path d="m71.967 148.83h25.4m-8.4677 10.578 9.48e-4 -15.87m-8.4676 15.87 9.2e-4 -15.87m4.2324-1.0628c-1.0583 0-12.7 2.1166-12.7 6.3496v10.583h25.4v-10.583c0-4.2333-11.642-6.3496-12.7-6.3496z" fill="none" stroke="#c08268" stroke-width="1.3229"/>
 </g>
</svg>
