<?xml version="1.0" encoding="UTF-8"?>
<svg version="1.1" viewBox="0 0 128 128" xmlns="http://www.w3.org/2000/svg">
 <path d="m48 116c-0.02151 3.2689-0.3192 3.9897-4 4h-12c-3.6774 0.0103-4-0.7311-4-4v-8h20z" fill="#555"/>
 <path d="m108 44h-88v-4h88z" fill="#99aab5"/>
 <path d="m108 56h-88v-4h88z" fill="#99aab5"/>
 <path d="m33.992 20c-6.4634 0.03191-9.9727 3.471-9.9727 9.9727v75.777h79.781v-75.777c0-6.5018-3.3578-9.9865-9.9727-9.9727z" fill="#f33"/>
 <path d="m100 116c-0.0215 3.2689-0.3192 3.9897-4 4h-12c-3.6774 0.0103-4-0.7311-4-4v-8h20z" fill="#555"/>
 <path d="m107.95 109.33c0.0361 1.7335-1.0152 2.6678-2.6458 2.6678h-82.806c-1.6277 0-2.5474-0.87512-2.5474-2.6091v-2.6661c0-1.7339 0.96792-2.7248 2.5957-2.7248h82.788c1.6307 0 2.524 0.93251 2.5602 2.6661z" fill="#66757f" stroke-width="1.0362"/>
 <path d="m103.8 57.863c0.42048 4.8589-2.5964 7.618-7.4448 7.618h-64.839c-4.8484 0-7.4969-2.7409-7.4969-7.618v-22.594c0-4.8771 2.6485-7.3236 7.4969-7.3236h64.96c4.8484 0 6.9032 2.4647 7.3236 7.3236z" fill="#66757f"/>
 <path d="m98.814 55.423c0 3.2494-1.7531 4.9487-4.9863 4.9487h-59.836c-3.2303 0-5.1156-1.9111-4.9863-5.158v-17.296c0.12927-3.2468 1.756-4.9863 4.9863-4.9863h59.836c3.2332 0 4.9863 1.7369 4.9863 4.9863z" fill="#88c9f9"/>
 <path d="m20 56c0 4-8 4-8.1104-1e-4l0.11039-20c0-4 8-4 8 0z" fill="#99aab5"/>
 <circle cx="33.971" cy="94.534" r="6.2329" fill="#fff"/>
 <circle cx="93.828" cy="94.534" r="6.2329" fill="#fff"/>
 <rect x="24" y="72" width="80" height="12" fill="#e8ff2f"/>
 <path d="m82.951 100h-38v-28h38z" fill="#99aab5"/>
 <path d="m44.951 78h38.024" fill="none" stroke="#66757f" stroke-width="4"/>
 <path d="m44.927 86h38.024" fill="none" stroke="#66757f" stroke-width="4"/>
 <path d="m44.927 94h38.024" fill="none" stroke="#66757f" stroke-width="4"/>
 <path d="m116 56c0 4-8 4-8.1104-1e-4l0.11039-20c0-4 8-4 8 0z" fill="#99aab5"/>
 <rect x="28" y="8" width="72" height="8" fill="#2954ff"/>
 <rect x="56" y="8" width="16" height="8" fill="#66757f"/>
 <rect x="36" y="16" width="8" height="4" fill="#66757f"/>
 <rect x="84" y="16" width="8" height="4" fill="#66757f"/>
</svg>
