<?xml version="1.0" encoding="UTF-8"?>
<svg version="1.1" viewBox="0 0 128 128" xmlns="http://www.w3.org/2000/svg">
 <g transform="matrix(3.7795 0 0 3.7795 -256 -492.52)">
  <path d="m83.206 156.35c6.4807-1.31 0.6302-7.3823-1.121-11.253-1.7684 3.7563-6.1705 11.404 1.121 11.253z" fill="#4ba644"/>
  <path d="m88.9 156.77c-4.337-4.4674 2.3068-6.1882 4.5943-7.7158 1.2087 4.7107-0.51868 8.7702-4.5943 7.7158z" fill="#4db946"/>
  <path d="m79.375 156.77c-4.698-0.0696-2.0711-4.5329-1.6657-6.5686 3.1586 1.8687 4.403 4.9566 1.6657 6.5686z" fill="#4db946"/>
 </g>
 <g transform="matrix(3.7795 0 0 3.7795 -256 -502.52)">
  <path d="m73.025 148.83h23.283m-7.4083 10.583v-16.933m-8.4667 16.933v-16.933m4.2333-2.1167c-1.0583 0-12.7 6.35-12.7 10.583v8.4667h25.4v-8.4667c0-4.2333-11.642-10.583-12.7-10.583z" fill="none" stroke="#555" stroke-opacity=".78431" stroke-width="1.3229" style="paint-order:stroke markers fill"/>
  <path d="m84.667 140.37c-1.0583 0-12.7 6.35-12.7 10.583v8.4667h25.4v-8.4667c0-4.2333-11.642-10.583-12.7-10.583z" fill="#6493db" fill-opacity=".37647" style="paint-order:markers fill stroke"/>
  <path d="m91.597 144.2-15.215 15.216h2.9931l13.933-13.933c-0.55061-0.44149-1.1266-0.8712-1.711-1.2826z" fill="#fff" fill-opacity=".25098" style="paint-order:markers fill stroke"/>
  <path d="m86.189 140.96-14.222 14.222v4.2333h0.25683l16.858-16.858c-1.0956-0.66394-2.1065-1.2144-2.8923-1.5978z" fill="#fff" fill-opacity=".25098" style="paint-order:markers fill stroke"/>
 </g>
</svg>
