<?xml version="1.0" encoding="UTF-8"?>
<svg version="1.1" viewBox="0 0 128 128" xml:space="preserve" xmlns="http://www.w3.org/2000/svg"><rect x="76" y="32" width="8" height="40" fill="#6f829f"/><path d="m28 40v32h48v-32z" fill="#bacfef" stroke-width="0"/><rect x="20" y="32" width="8" height="40" fill="#6f829f"/><g><rect x="8" y="24" width="88" height="8" fill="#727272"/><rect x="16" y="72" width="72" height="36" fill="#cb9781"/><rect x="36" y="72" width="32" height="8" fill="#727272"/></g><path d="m42 72c0-8 4-8 8-8h4c4 0 8 0 8 8" fill="none" stroke="#6f829f" stroke-width="4"/><g stroke-width=".61667"><path d="m76 124v-36h-16v36z" fill="#727272"/><rect transform="scale(-1,1)" x="-118.38" y="94.811" width="25.946" height="12.973" fill="#f00"/><rect transform="scale(-1,1)" x="-92.432" y="94.811" width="25.946" height="12.973" fill="#fff"/></g><rect transform="scale(-1,1)" x="-119" y="94" width="53" height="14" fill="none" stroke="#727272" stroke-linecap="round" stroke-width="2"/><rect x="28" y="32" width="48" height="8" fill="#859dbf"/></svg>
