<?xml version="1.0" encoding="UTF-8"?>
<svg version="1.1" viewBox="0 0 128 128" xmlns="http://www.w3.org/2000/svg">
 <path d="m28 44h8v-12h16v28l12 8v24h-36z" fill="#916857"/>
 <path d="m88 100v-44l8-12h12v68h-28v-8z" fill="#be8771"/>
 <path d="m20 52v60h52v-28h16v28h20v-24h-6l-10-16v-12h-20v8l-20 16h-8v-16h-8v-16z" fill="#deb486"/>
 <path d="m20 112 8.2822-30.91 7.7274 2.0706-8.2822 30.91z" fill="#6f563a"/>
 <path d="m6.9356 109.68 16-27.713 6.9282 4-16 27.713z" fill="#6f563a"/>
 <path d="m48 120s9.6012-16.211 19.015-15.69c8.5244 0.47213 16.985 15.69 16.985 15.69z" fill="#777"/>
</svg>
