<?xml version="1.0" encoding="UTF-8"?>
<svg width="32" height="32" viewBox="0 0 32 32" fill="none" xmlns="http://www.w3.org/2000/svg">
    <g clip-path="url(#a)">
        <path d="M6.331 6.2c0-.088.044-.175.175-.219l.7-.131c.131-.044.263.044.263.219v3.106c0 .131-.088.219-.219.219h-.7c-.131 0-.219-.088-.219-.219z" fill="#3d4856"/>
        <path d="M5.063 3.181c0-.087.087-.175.175-.218L8.738 2c.13-.044.262.088.262.219v3.5c0 .087-.044.175-.175.219l-3.5.962c-.131 0-.263-.087-.263-.219z" fill="#3f4a59"/>
        <path d="M8.431 3.137c0-.13-.131-.218-.262-.175l-.219.044c-.131 0-.175.088-.175.219v.525c0 .175.131.262.263.219l.218-.044c.088-.044.175-.131.175-.219zm-1.093.307c0-.131-.132-.263-.263-.219l-.219.088a.19.19 0 0 0-.175.175v.48c0 .132.132.22.263.22l.219-.044c.087-.044.175-.131.175-.219zm-1.094.262c0-.131-.131-.262-.263-.219l-.218.044c-.088.044-.175.131-.175.219v.525c0 .131.13.262.262.219l.219-.088c.131 0 .175-.087.175-.175zm2.187.963c0-.132-.131-.263-.262-.219l-.219.044c-.131.043-.175.131-.175.218v.525c0 .132.131.263.263.22l.218-.088a.19.19 0 0 0 .175-.175zm-1.093.306c0-.175-.132-.263-.263-.219l-.219.044c-.087.044-.175.131-.175.219v.525c0 .131.132.218.263.175l.219-.044c.087 0 .175-.088.175-.219zm-1.094.262c0-.13-.131-.218-.263-.218l-.218.087c-.088 0-.175.088-.175.219v.481c0 .175.13.263.262.219l.219-.044c.131-.044.175-.131.175-.219z" fill="#f5f5f7"/>
        <path d="M24.094 5.938c0-.132.131-.22.262-.175l.7.13c.131.045.175.132.175.22V9c0 .088-.087.219-.219.219h-.7c-.13 0-.218-.131-.218-.219z" fill="#3d4856"/>
        <path d="M22.563 2.219c0-.131.13-.263.262-.219l3.5.919c.088 0 .175.087.175.219v3.368c0 .132-.131.219-.262.219l-3.5-.787c-.088-.044-.175-.132-.175-.22z" fill="#3f4a59"/>
        <path d="M23.044 3.138c0-.132.131-.22.262-.22l.263.088c.087 0 .131.088.131.175v.569c0 .131-.131.219-.262.175l-.22-.044c-.087 0-.174-.087-.174-.218zm1.094.306c0-.131.13-.263.262-.219l.219.044c.131.044.175.131.175.219v.437c0 .131-.131.219-.263.219l-.218-.044c-.088-.044-.175-.131-.175-.219zm1.093.219c0-.132.131-.22.263-.22l.218.088c.132 0 .175.088.175.219v.481c0 .132-.13.219-.262.219l-.219-.087a.19.19 0 0 1-.175-.175zm-2.187.962c0-.131.131-.262.262-.219l.263.044a.24.24 0 0 1 .131.219v.481c0 .175-.131.263-.262.219l-.22-.044c-.087-.044-.174-.131-.174-.219zm1.094.262c0-.13.13-.218.262-.175l.219.044c.131 0 .175.088.175.219v.481c0 .131-.131.219-.263.219l-.218-.088a.19.19 0 0 1-.175-.175zm1.093.307c0-.131.131-.263.263-.219l.218.044c.132.044.175.131.175.219v.48c0 .176-.13.263-.262.22l-.219-.044c-.087-.044-.175-.131-.175-.219z" fill="#f5f5f7"/>
        <path fill-rule="evenodd" clip-rule="evenodd" d="M30 15.256c0-4.943-6.256-8.968-14-8.968S2 10.312 2 15.256v8.094c2.625 7.438 23.406 9.625 28 0z" fill="#e6e9ec"/>
        <path d="m11.494 8.431.437 3.238 1.444-.219 1.662-.131 2.932.043 2.187.307.438-3.15-.044-.175-.569-.132-2.581-.35-3.194.044-1.356.175zm9.187 3.369 1.225.306 1.094.438 1.356.656.831.656 1.05-2.581-.962-.831L24.05 9.7l-1.4-.612-1.575-.525zm-9.406.044-.437-3.281-1.444.524-1.575.7-1.094.7-.875.788v.175l1.006 2.406 1.006-.743.875-.438 1.225-.525zm.963.612.35 2.1.7-.131 1.75-.131h2.58l1.838.175.35-2.013-2.45-.262H14.82zm7.962 2.232 1.006.175 1.225.437.875.481.744.613.875-1.969-.744-.569-1.094-.569-1.312-.437-1.312-.262-.263 1.837zm-8.4 0-.306-2.1-1.357.306-1.4.481-1.006.569-.569.437.044.219.831 1.794.482-.481.918-.526.963-.393zm14.963-2.844-1.05 2.537.393.525.263.481.262.57.219.787.35-.438.438-.962.174-.481v-.657l-.087-.612-.219-.525-.437-.788zm-21.525 0-.35.481-.35.656-.307.744-.043.438.043.612.219.744.131.306.569.919.438-1.269.7-1.094zm1.356 3.062-.613.963-.306.919-.087.437c.437.744.743 1.05 1.312 1.575l.7-1.838-.919-2.012zm18.812 0L24.4 16.962l.656 1.838c.744-.656 1.094-1.05 1.357-1.575l-.088-.481-.262-.788-.482-.831z" fill="#c8373e"/>
        <path d="m9 17.181 2.188.35-.788 3.413 1.181.393 1.575.35 1.619.263h1.137v-1.488h-.306l-.612-.306-.219-.262-.219-.569v-.437l.219-.438.394-.394.743-.219V15.87l-6.08-.044-.263.088-.132.174zm7.175 4.769h1.137l1.313-.175 1.313-.306 1.618-.525v-.175L20.9 17.53l2.056-.656-.262-.744-.394-.306-6.125.044v2.056l.481.044.438.218.306.394.131.394v.438l-.218.524-.657.438-.481.087z" fill="#409c4e"/>
        <path d="m21.25 17.925.569 2.844 1.4-.656.656-.438-.744-2.319zm-5.337.394-.394.044-.394.218-.219.219-.131.394.131.262.219.219.394.219.35.044zm.262 0v1.619l.613-.175.35-.307.087-.218v-.22l-.219-.393-.35-.219zm-8.05 1.269.569.393 1.356.744.7-2.888-1.881-.174z" fill="#409c4e"/>
        <mask id="b" style="mask-type:alpha" maskUnits="userSpaceOnUse" x="2" y="16" width="28" height="14">
            <path d="M7.25 22.038v6.256c1.269.481 2.1.744 3.5 1.006v-5.863zm17.5 0s-2.144 1.006-3.5 1.4v6.125c1.444-.35 2.231-.525 3.456-1.007zm-10.5 2.318v5.513c1.444.044 1.75.087 3.5.044v-5.557zm14-4.593c-1.006 1.05-2.625 1.837-2.625 1.837v6.475c1.094-.613 2.188-1.356 2.625-1.881zm-24.5 0v6.343c.656.613 1.313 1.094 2.625 1.706V21.6zM20.375 23.7l-1.75.438v5.73a43 43 0 0 0 1.75-.174zm-8.75 0v5.775c.613.131 1.094.219 1.75.306v-5.643zM2 16.35v7.219c.306.744.481 1.05.875 1.531v-6.256zm28 0-.875 2.494v6.212s.525-.656.875-1.487z" fill="#fff"/>
        </mask>
        <g mask="url(#b)">
            <path fill-rule="evenodd" clip-rule="evenodd" d="M30 15.256c0-4.943-6.256-8.925-14-8.925S2 10.312 2 15.256v8.094c2.625 7.438 23.406 9.625 28 0z" fill="#36404e"/>
        </g>
    </g>
    <defs>
        <clipPath id="a">
            <path fill="#fff" d="M2 2h28v28H2z"/>
        </clipPath>
    </defs>
</svg>

