<?xml version="1.0" encoding="UTF-8" standalone="no"?>
<svg xmlns="http://www.w3.org/2000/svg" xmlns:xlink="http://www.w3.org/1999/xlink"
    version="1.1" id="svg2"
    xml:space="preserve" width="553.96533" height="170.64532" viewBox="0 0 553.96533 170.64532">
    <defs id="defs6"><linearGradient id="linearGradient845"><stop style="stop-color:#98bf00;stop-opacity:1;" offset="0" id="stop841"/><stop
        style="stop-color:#98bf00;stop-opacity:0.85958904" offset="1" id="stop843" /></linearGradient>
        <linearGradient id="linearGradient1220"><stop id="stop1216" offset="0" style="stop-color:#98bf00;stop-opacity:1;"/>
            <stop id="stop1218" offset="1" style="stop-color:#98bf00;stop-opacity:0.51" /></linearGradient>
        <linearGradient x1="0" y1="0" x2="1" y2="0" gradientUnits="userSpaceOnUse"
            gradientTransform="matrix(-139.45511,-135.52185,-135.52185,139.45511,177.4727,131.75308)"
            spreadMethod="pad" id="linearGradient28"><stop style="stop-opacity:1;stop-color:#00afbc" offset="0" id="stop24"/>
            <stop style="stop-opacity:1;stop-color:#205374" offset="1" id="stop26" /></linearGradient>
        <clipPath clipPathUnits="userSpaceOnUse" id="clipPath38"><path d="M 0,127.984 H 415.474 V 0 H 0 Z" id="path36"/></clipPath>
        <linearGradient xlink:href="#linearGradient845"
            id="linearGradient898" x1="14.915152" y1="14.167241" x2="213.75" y2="112.50001"
            gradientUnits="userSpaceOnUse" />
        <linearGradient xlink:href="#linearGradient1220"
            id="linearGradient947" gradientUnits="userSpaceOnUse" x1="14.915152" y1="14.167241"
            x2="214.11908" y2="111.76186" /></defs>
    <g id="g10"
        transform="matrix(1.3333333,0,0,-1.3333333,0,170.64533)"><g id="g12" style="fill-opacity:1;fill:url(#linearGradient898)"><g id="g14" style="fill-opacity:1.0;fill:url(#linearGradient898)"><g id="g20" style="fill-opacity:1.0;fill:url(#linearGradient898)"><g id="g22" style="fill-opacity:1.0;fill:url(#linearGradient898)"><path d="m 25.228,113.805 c -6.079,0 -11.051,-4.973 -11.051,-11.051 v 0 -77.523 c 0,-6.079 4.972,-11.051 11.051,-11.051 v 0 h 165.035 c 6.078,0 11.051,4.973 11.051,11.051 v 0 18.26 c 0,2.022 0.803,3.962 2.234,5.393 v 0 l 9.096,9.096 c 2.54,2.539 2.533,6.657 -0.013,9.188 v 0 l -9.067,9.017 c -1.44,1.431 -2.25,3.379 -2.25,5.409 v 0 21.16 c 0,6.078 -4.973,11.051 -11.051,11.051 v 0 z" style="fill:url(#linearGradient947);stroke:none;fill-opacity:1.0" id="path30"/></g></g></g></g>
        <g id="g32"><g id="g34" clip-path="url(#clipPath38)"><g id="g40" transform="translate(175.9982,95.8645)"><path d="m 0,0 v 0 c 4.074,0 7.376,-3.302 7.376,-7.376 v -48.993 c 0,-4.074 -3.302,-7.376 -7.376,-7.376 -4.074,0 -7.376,3.302 -7.376,7.376 V -7.376 C -7.376,-3.302 -4.074,0 0,0" style="fill:#ffffff;fill-opacity:1;stroke:none" id="path42"/></g><g
            id="g44" transform="translate(152.1193,64.9934)"><path d="M 0,0 H -0.506 C -0.57,0 -0.633,-0.008 -0.698,-0.01 -0.762,-0.008 -0.825,0 -0.89,0 h -7.283 c -3.929,0 -7.359,-2.965 -7.613,-6.885 -0.278,-4.296 3.124,-7.867 7.361,-7.867 0.776,0 1.343,-0.754 1.111,-1.494 -0.658,-2.088 -2.341,-3.751 -4.547,-4.333 -2.074,-0.547 -4.276,-0.821 -6.605,-0.821 -4.007,0 -7.574,0.865 -10.7,2.595 -3.127,1.73 -5.57,4.144 -7.331,7.24 -1.761,3.096 -2.641,6.617 -2.641,10.564 0,4.006 0.88,7.558 2.641,10.654 1.761,3.097 4.219,5.493 7.377,7.195 3.156,1.698 6.768,2.549 10.836,2.549 4.681,0 8.865,-1.269 12.55,-3.807 2.341,-1.612 5.524,-1.588 7.757,0.171 3.48,2.741 3.289,8.045 -0.315,10.452 -1.7,1.136 -3.538,2.112 -5.512,2.928 -4.553,1.881 -9.623,2.823 -15.208,2.823 -6.679,0 -12.69,-1.412 -18.03,-4.235 -5.344,-2.822 -9.517,-6.738 -12.522,-11.747 -3.005,-5.008 -4.508,-10.67 -4.508,-16.983 0,-6.315 1.503,-11.975 4.508,-16.984 3.005,-5.009 7.148,-8.924 12.43,-11.747 5.282,-2.824 11.231,-4.235 17.849,-4.235 4.613,0 9.197,0.699 13.751,2.095 0.045,0.014 0.091,0.028 0.136,0.042 7.104,2.202 11.884,8.86 11.884,16.297 v 9.047 C 6.486,-2.904 3.583,0 0,0" style="fill:#ffffff;fill-opacity:1;stroke:none" id="path46"/></g><g
            id="g48" transform="translate(90.5807,88.5798)"><path d="m 0,0 v -49.176 c 0,-4.023 -3.262,-7.285 -7.286,-7.285 h -1.381 c -2.181,0 -4.247,0.977 -5.631,2.662 l -24.229,29.505 c -1.804,2.197 -5.368,0.921 -5.368,-1.922 v -22.96 c 0,-4.023 -3.261,-7.285 -7.285,-7.285 -4.023,0 -7.285,3.262 -7.285,7.285 V 0 c 0,4.024 3.262,7.285 7.285,7.285 h 1.468 c 2.184,0 4.253,-0.979 5.636,-2.669 l 24.135,-29.475 c 1.802,-2.202 5.37,-0.927 5.37,1.918 V 0 c 0,4.024 3.261,7.285 7.285,7.285 C -3.262,7.285 0,4.024 0,0" style="fill:#ffffff;fill-opacity:1;stroke:none" id="path50"/></g></g></g>
        <g aria-label="Z E R O" transform="scale(1,-1)"
            style="font-variant:normal;font-weight:600;font-stretch:normal;font-size:31.76000023px;font-family:'Montserrat SemiBold';-inkscape-font-specification:Montserrat-SemiBold;font-variant-ligatures:normal;font-variant-caps:normal;font-variant-numeric:normal;font-feature-settings:normal;text-align:start;writing-mode:lr-tb;text-anchor:start;fill:#000000;fill-opacity:0.7171717;stroke:none"
            id="text56"><path d="m 243.58117,-73.015206 h 19.46231 v 3.613321 l -12.42176,15.02707 h 12.77844 v 4.512774 h -20.17567 v -3.613321 l 12.42176,-15.02707 h -12.06508 z" style="" id="path2325"/>
            <path
                d="m 278.7684,-73.015206 h 16.11262 v 4.512774 h -10.14211 v 4.311172 h 9.5373 v 4.512773 h -9.5373 v 5.303672 h 10.48328 v 4.512774 H 278.7684 Z"
                style="" id="path2327" />
            <path
                d="m 320.00367,-62.749034 q 1.87645,0 2.68285,-0.697851 0.82192,-0.697852 0.82192,-2.295157 0,-1.581796 -0.82192,-2.26414 -0.8064,-0.682344 -2.68285,-0.682344 h -2.51226 v 5.939492 z m -2.51226,4.125078 v 8.761915 h -5.97051 v -23.153165 h 9.11859 q 4.57481,0 6.69938,1.535274 2.14008,1.535273 2.14008,4.853945 0,2.295156 -1.11657,3.768399 -1.10105,1.473242 -3.33418,2.171093 1.22512,0.279141 2.18661,1.271641 0.97699,0.976992 1.96949,2.9775 l 3.24113,6.575313 h -6.3582 l -2.82242,-5.753399 q -0.85293,-1.736875 -1.73688,-2.372695 -0.86844,-0.635821 -2.32617,-0.635821 z"
                style="" id="path2329" />
            <path
                d="m 357.57911,-69.107237 q -2.72938,0 -4.23364,2.016016 -1.50425,2.016015 -1.50425,5.675859 0,3.644336 1.50425,5.660352 1.50426,2.016015 4.23364,2.016015 2.74488,0 4.24914,-2.016015 1.50426,-2.016016 1.50426,-5.660352 0,-3.659844 -1.50426,-5.675859 -1.50426,-2.016016 -4.24914,-2.016016 z m 0,-4.32668 q 5.58281,0 8.7464,3.19461 3.1636,3.194609 3.1636,8.823945 0,5.613828 -3.1636,8.808438 -3.16359,3.194609 -8.7464,3.194609 -5.56731,0 -8.74641,-3.194609 -3.16359,-3.19461 -3.16359,-8.808438 0,-5.629336 3.16359,-8.823945 3.1791,-3.19461 8.74641,-3.19461 z"
                style="" id="path2331" /></g></g></svg>
