<?xml version="1.0" encoding="UTF-8"?>
<!-- Generator: Adobe Illustrator 19.2.1, SVG Export Plug-In . SVG Version: 6.00 Build 0)  -->
<svg version="1.1" xmlns="http://www.w3.org/2000/svg" x="0px" y="0px" viewBox="0 0 306.7 510.1" style="enable-background:new 0 0 306.7 510.1;" xml:space="preserve">
<style type="text/css">
    .st0{fill:#1D1D1B;}
    .st1{fill:#009ACE;}
</style>
<g id="Ebene_2">
    <g>
        <g>
            <path class="st0" d="M25.2,380.5h11.7c9.2,0,17,4.6,17,13.7c0,9.7-8.3,14.1-17.6,14.1h-4.8l0,17h-6.2L25.2,380.5z M31.4,403.1     l4.9-0.1c4.1,0,11.1-1.5,11.1-8.8c0-7-6.8-8.6-10.4-8.6l-5.6-0.1L31.4,403.1z"/>
            <path class="st0" d="M58.6,402.3c0-2.8-0.1-5.5-0.4-8.1h5.6l0.3,8.1h0.4c1.1-4,4.5-8.6,9.1-8.6c1.7,0,3,0.4,4,0.9l0,5.3     c-0.9-0.4-2.2-0.8-3.5-0.8c-5.9,0-9.2,5.8-9.6,12.4l0,13.8h-5.9L58.6,402.3z"/>
            <path class="st0" d="M95,393.3c10.7,0,15.3,9.4,15.3,16.4c0,8.3-5.4,16.6-15.3,16.6c-9.9,0-15.6-7.9-15.6-16.6     C79.4,402.5,84.2,393.3,95,393.3z M94.9,421.9c4.8,0,9.3-3.8,9.3-12.3c0-7.9-4.3-11.9-9.3-11.9c-4,0-9.4,2.6-9.4,12     C85.5,416.1,88.4,421.9,94.9,421.9z"/>
            <path class="st0" d="M113,394.1h5.1l1.1-9.3h4.6l0,9.3h8.8l0,4.5h-8.8l0,17.6c0,2.8,1.4,4.5,4.3,4.5c1.7,0,3.7-0.6,4.5-0.9l0,4.6     c-1.1,0.7-3.1,1.6-5.2,1.6c-6,0-9.4-3.6-9.4-9.6l0-17.6h-5L113,394.1z"/>
            <path class="st0" d="M151.3,393.3c10.7,0,15.3,9.4,15.3,16.4c0,8.3-5.4,16.6-15.3,16.6c-9.9,0-15.6-7.9-15.6-16.6     C135.7,402.5,140.6,393.3,151.3,393.3z M151.2,421.9c4.8,0,9.3-3.8,9.3-12.3c0-7.9-4.3-11.9-9.3-11.9c-4,0-9.4,2.6-9.4,12     C141.8,416.1,144.7,421.9,151.2,421.9z"/>
            <path class="st0" d="M169.4,394.1h5.1l1.1-9.3h4.6l0,9.3h8.8l0,4.5h-8.8l0,17.6c0,2.8,1.4,4.5,4.3,4.5c1.7,0,3.7-0.6,4.5-0.9     l0,4.6c-1.1,0.7-3.1,1.6-5.2,1.6c-6,0-9.4-3.6-9.4-9.6l0-17.6h-5L169.4,394.1z"/>
            <path class="st0" d="M208,431.5c-1.9,4.8-5,6.3-8.8,6.3c-1.3,0-3-0.2-4.1-0.6l0-5c0.9,0.3,2.5,0.6,3.4,0.6c2,0,3.2-0.7,4.1-2.5     c0.6-1.3,1.6-4,1.9-5c0.3-1.4-0.6-2.2-1.8-2.1l-11.2-29h6.5l8.7,24.7h0.4l7.6-24.7h6.1C210.2,425.3,209.4,427.6,208,431.5z"/>
            <path class="st0" d="M230.5,437.2h-5.8l0-38.5c0-1.3-0.1-3.4-0.1-4.6h5.5c0.1,1.2,0.1,3.5,0.1,4.7h0.4c2.1-3.2,5.1-5.2,9.2-5.2     c8.6,0,13.3,7.6,13.3,16.3c0,9-4.8,16.3-13,16.3c-5.6,0-8.3-3.7-9.2-5h-0.4c0,0,0.1,2.2,0.1,4.2L230.5,437.2z M238.4,398.1     c-4.3,0-7.6,4.5-7.9,7.8l0,7.5c0.1,3.4,3.2,8.3,8.1,8.3c5.7,0,8.3-5.4,8.3-11.8C246.9,402.8,244.1,398.1,238.4,398.1z"/>
            <path class="st0" d="M261.3,410.5c0.1,6.5,3.2,11.2,9.1,11.2c3.8,0,6.7-2.5,7.4-6h5.7c-0.7,5.1-5.3,10.5-13.5,10.5     c-8.7,0-14.6-6.6-14.6-16.8c0-8.7,5.5-16.1,14.2-16.1c11.4,0,14.6,9.9,13.8,17.2H261.3z M277.7,406.2c0.1-3-1.6-8.6-7.9-8.6     c-4.2,0-7.8,3-8.3,8.7L277.7,406.2z"/>
        </g>
        <g>
            <path class="st0" d="M25.2,439h25l0,5.3H31.6l0,14.8h17.6l0,5.2H31.6l0,19.5h-6.3L25.2,439z"/>
            <path class="st0" d="M81.7,452.7l0,25.8c0,1.6,0.1,3.7,0.4,5.3h-6c-0.1-1.3-0.1-3.6-0.1-5.4h-0.4c-0.7,1.3-3.8,5.8-10.1,5.8     c-4.2,0-10.6-2.3-10.6-11.7l0-19.9h6l0,19.9c0,4.1,1.9,6.9,5.9,6.9c4.2,0,7.9-3.7,8.9-9.1l0-17.7H81.7z"/>
            <path class="st0" d="M87.5,458c0-1.6-0.1-3.5-0.3-5.3h6l0,5.3h0.4c0.8-1.4,4.2-6,10.1-6c3.7,0,10.3,2,10.3,11.5l0,20.3h-6l0-20.4     c0-4.3-1.9-6.8-5.5-6.8c-4.3,0-7.9,4-9.1,9.1l0,18.1h-5.9L87.5,458z"/>
            <path class="st0" d="M140.1,439h5.8l0,40.2c0,1.3,0,3.4,0.1,4.6h-5.3c-0.1-1.3-0.1-3.2-0.1-4.6h-0.4c-2.1,3.2-5.2,5.1-9.2,5.1     c-8.7,0-13.5-7.6-13.5-16.3c0-9,4.8-16.3,13-16.3c5.6,0,8.3,3.7,9.2,5h0.4c0,0-0.1-2.1-0.1-4.2L140.1,439z M132.3,479.9     c4.3,0,7.6-4.5,7.8-7.7l0-7.6c-0.1-3.4-3.2-8.3-8.1-8.3c-5.7,0-8.3,5.4-8.3,11.8C123.8,475.2,126.6,479.9,132.3,479.9z"/>
        </g>
    </g>
    <path id="XMLID_19_" class="st1" d="M199.3,28.1l38.3,4.8l45.3,87L237.6,193c0,0-51.7,13.5-71.5,18.3H121l0,117.8l36.5,12.9   l-0.9,12.6l-64.9-0.9l-65.1,0.9l-1.4-12.6L62,329.1l0-275.8L25.2,40.6l1.4-12.6L199.3,28.1z M121,186.2l37.7,7.2l58.2-40.6l18-32.9   l-18-33.1l-58.2-38.4l-37.7,5L121,186.2z"/>
</g>
</svg>
