<?xml version="1.0" encoding="UTF-8" standalone="no"?>
<!DOCTYPE svg PUBLIC "-//W3C//DTD SVG 1.1//EN" "http://www.w3.org/Graphics/SVG/1.1/DTD/svg11.dtd">
<svg width="1086px" height="415px" version="1.1" xmlns="http://www.w3.org/2000/svg" xmlns:xlink="http://www.w3.org/1999/xlink" xml:space="preserve" xmlns:serif="http://www.serif.com/" style="fill-rule:evenodd;clip-rule:evenodd;stroke-linejoin:round;stroke-miterlimit:2;"><g><g><g><path d="M211.345,190.214c-1.137,4.372 -5.39,7.182 -9.858,6.513c-22.854,-3.548 -44.571,-15.066 -60.591,-34.158c-35.111,-41.843 -29.645,-104.32 12.199,-139.431c41.843,-35.111 104.32,-29.645 139.431,12.198c16.02,19.092 23.592,42.479 23.117,65.603c-0.117,4.516 -3.623,8.215 -8.126,8.575c-4.029,0.353 -8.046,0.928 -12.032,1.727c-2.662,0.545 -5.427,-0.168 -7.494,-1.933c-2.066,-1.764 -3.204,-4.383 -3.084,-7.098c0.798,-16.564 -4.394,-33.46 -15.884,-47.152c-24.226,-28.872 -67.335,-32.644 -96.207,-8.418c-28.872,24.227 -32.644,67.336 -8.417,96.208c11.489,13.693 27.226,21.74 43.677,23.832c2.694,0.353 5.075,1.928 6.454,4.269c1.378,2.341 1.6,5.187 0.602,7.714c-1.477,3.787 -2.741,7.643 -3.787,11.551Z" style="fill:#74aa00;"/><path d="M211.306,68.301c16.918,-2.983 33.074,8.33 36.057,25.247c2.983,16.917 -8.33,33.074 -25.247,36.057c-16.918,2.983 -33.074,-8.33 -36.057,-25.248c-2.983,-16.917 8.33,-33.073 25.247,-36.056Z"/></g><g><path d="M224.072,211.345c-4.372,-1.137 -7.183,-5.39 -6.513,-9.858c3.547,-22.854 15.066,-44.571 34.158,-60.591c41.843,-35.111 104.32,-29.645 139.431,12.199c35.111,41.843 29.645,104.32 -12.199,139.431c-19.091,16.02 -42.479,23.592 -65.602,23.117c-4.516,-0.117 -8.216,-3.623 -8.576,-8.126c-0.352,-4.029 -0.927,-8.046 -1.726,-12.032c-0.545,-2.662 0.168,-5.427 1.933,-7.494c1.764,-2.066 4.383,-3.204 7.098,-3.084c16.564,0.798 33.459,-4.394 47.152,-15.884c28.872,-24.226 32.644,-67.335 8.417,-96.207c-24.226,-28.872 -67.335,-32.644 -96.207,-8.417c-13.693,11.489 -21.74,27.226 -23.833,43.677c-0.352,2.694 -1.927,5.075 -4.268,6.454c-2.342,1.378 -5.188,1.6 -7.714,0.602c-3.787,-1.477 -7.644,-2.741 -11.551,-3.787Z" style="fill:#74aa00;"/><path d="M345.985,211.306c2.983,16.918 -8.33,33.074 -25.247,36.057c-16.918,2.983 -33.074,-8.33 -36.057,-25.247c-2.983,-16.918 8.33,-33.074 25.247,-36.057c16.918,-2.983 33.074,8.33 36.057,25.247Z"/></g><g><path d="M202.941,224.072c1.136,-4.372 5.389,-7.183 9.857,-6.513c22.855,3.547 44.572,15.066 60.592,34.158c35.11,41.843 29.644,104.32 -12.199,139.431c-41.843,35.111 -104.32,29.645 -139.431,-12.199c-16.02,-19.091 -23.593,-42.479 -23.117,-65.602c0.117,-4.516 3.622,-8.216 8.126,-8.576c4.029,-0.352 8.046,-0.927 12.032,-1.726c2.662,-0.545 5.427,0.168 7.493,1.933c2.067,1.764 3.205,4.383 3.084,7.098c-0.798,16.564 4.395,33.459 15.884,47.152c24.227,28.872 67.336,32.644 96.208,8.417c28.872,-24.226 32.643,-67.335 8.417,-96.207c-11.49,-13.693 -27.227,-21.74 -43.678,-23.833c-2.694,-0.352 -5.075,-1.927 -6.453,-4.268c-1.379,-2.342 -1.601,-5.188 -0.602,-7.714c1.477,-3.787 2.741,-7.644 3.787,-11.551Z" style="fill:#74aa00;"/><path d="M202.979,345.985c-16.917,2.983 -33.073,-8.33 -36.056,-25.247c-2.983,-16.918 8.329,-33.074 25.247,-36.057c16.917,-2.983 33.074,8.33 36.057,25.247c2.983,16.918 -8.33,33.074 -25.248,36.057Z"/></g><g><path d="M190.214,202.941c4.372,1.136 7.182,5.389 6.513,9.857c-3.548,22.855 -15.066,44.572 -34.158,60.592c-41.843,35.11 -104.32,29.644 -139.431,-12.199c-35.111,-41.843 -29.645,-104.32 12.198,-139.431c19.092,-16.02 42.479,-23.593 65.603,-23.117c4.516,0.117 8.215,3.622 8.575,8.126c0.353,4.029 0.928,8.046 1.727,12.032c0.545,2.662 -0.168,5.427 -1.933,7.493c-1.764,2.067 -4.383,3.205 -7.098,3.084c-16.564,-0.798 -33.46,4.395 -47.152,15.884c-28.872,24.227 -32.644,67.336 -8.418,96.208c24.227,28.872 67.336,32.643 96.208,8.417c13.693,-11.49 21.74,-27.227 23.832,-43.678c0.353,-2.694 1.928,-5.075 4.269,-6.453c2.341,-1.379 5.187,-1.601 7.714,-0.602c3.787,1.477 7.643,2.741 11.551,3.787Z" style="fill:#74aa00;"/><path d="M68.301,202.979c-2.983,-16.917 8.33,-33.073 25.247,-36.056c16.917,-2.983 33.074,8.329 36.057,25.247c2.983,16.917 -8.33,33.074 -25.248,36.057c-16.917,2.983 -33.073,-8.33 -36.056,-25.248Z"/></g></g><g><g><path d="M467.416,259.709c-1.713,-0 -3.169,-0.6 -4.368,-1.799c-1.199,-1.199 -1.798,-2.654 -1.798,-4.367l0,-121.259c0,-1.713 0.599,-3.169 1.798,-4.368c1.199,-1.199 2.655,-1.798 4.368,-1.798l21.066,-0c1.713,-0 3.168,0.599 4.367,1.798c1.199,1.199 1.799,2.655 1.799,4.368l-0,10.533c4.453,-5.481 10.147,-10.062 17.084,-13.745c6.936,-3.682 15.543,-5.523 25.819,-5.523c10.447,-0 19.525,2.355 27.232,7.065c7.707,4.71 13.659,11.346 17.855,19.91c4.196,8.563 6.294,18.84 6.294,30.829l0,72.19c0,1.713 -0.599,3.168 -1.798,4.367c-1.199,1.199 -2.655,1.799 -4.368,1.799l-22.607,-0c-1.713,-0 -3.169,-0.6 -4.368,-1.799c-1.199,-1.199 -1.798,-2.654 -1.798,-4.367l-0,-70.649c-0,-9.934 -2.441,-17.727 -7.322,-23.378c-4.881,-5.652 -11.946,-8.478 -21.195,-8.478c-8.906,-0 -16.013,2.826 -21.323,8.478c-5.309,5.651 -7.964,13.444 -7.964,23.378l0,70.649c0,1.713 -0.599,3.168 -1.798,4.367c-1.199,1.199 -2.655,1.799 -4.368,1.799l-22.607,-0Z" style="fill:#231f20;fill-rule:nonzero;"/><path d="M627.982,259.709c-1.713,-0 -3.169,-0.6 -4.368,-1.799c-1.199,-1.199 -1.798,-2.654 -1.798,-4.367l-0,-170.071c-0,-1.713 0.599,-3.169 1.798,-4.368c1.199,-1.199 2.655,-1.798 4.368,-1.798l21.323,-0c1.713,-0 3.168,0.599 4.367,1.798c1.199,1.199 1.799,2.655 1.799,4.368l-0,170.071c-0,1.713 -0.6,3.168 -1.799,4.367c-1.199,1.199 -2.654,1.799 -4.367,1.799l-21.323,-0Z" style="fill:#231f20;fill-rule:nonzero;"/><path d="M695.805,259.709c-1.713,-0 -3.169,-0.6 -4.368,-1.799c-1.199,-1.199 -1.798,-2.654 -1.798,-4.367l0,-121.259c0,-1.713 0.599,-3.169 1.798,-4.368c1.199,-1.199 2.655,-1.798 4.368,-1.798l21.066,-0c1.713,-0 3.169,0.599 4.367,1.798c1.199,1.199 1.799,2.655 1.799,4.368l-0,10.533c4.453,-5.481 10.147,-10.062 17.084,-13.745c6.936,-3.682 15.543,-5.523 25.819,-5.523c10.447,-0 19.525,2.355 27.232,7.065c7.707,4.71 13.659,11.346 17.855,19.91c4.196,8.563 6.294,18.84 6.294,30.829l0,72.19c0,1.713 -0.599,3.168 -1.798,4.367c-1.199,1.199 -2.655,1.799 -4.368,1.799l-22.607,-0c-1.713,-0 -3.169,-0.6 -4.368,-1.799c-1.199,-1.199 -1.798,-2.654 -1.798,-4.367l-0,-70.649c-0,-9.934 -2.441,-17.727 -7.322,-23.378c-4.881,-5.652 -11.946,-8.478 -21.195,-8.478c-8.906,-0 -16.013,2.826 -21.323,8.478c-5.309,5.651 -7.964,13.444 -7.964,23.378l0,70.649c0,1.713 -0.599,3.168 -1.798,4.367c-1.199,1.199 -2.655,1.799 -4.368,1.799l-22.607,-0Z" style="fill:#74aa00;fill-rule:nonzero;"/><path d="M907.495,262.278c-19.011,-0 -34.083,-5.481 -45.215,-16.442c-11.133,-10.961 -17.128,-26.547 -17.984,-46.757c-0.171,-1.713 -0.257,-3.896 -0.257,-6.551c0,-2.655 0.086,-4.753 0.257,-6.294c0.685,-13.017 3.64,-24.192 8.863,-33.526c5.224,-9.335 12.46,-16.528 21.709,-21.581c9.248,-5.052 20.124,-7.578 32.627,-7.578c13.873,-0 25.519,2.869 34.939,8.606c9.42,5.738 16.528,13.702 21.323,23.892c4.796,10.191 7.194,21.966 7.194,35.325l-0,5.395c-0,1.713 -0.6,3.168 -1.799,4.367c-1.199,1.199 -2.74,1.799 -4.624,1.799l-85.293,-0l0,2.055c0.172,5.994 1.328,11.518 3.469,16.57c2.14,5.053 5.309,9.12 9.505,12.203c4.196,3.083 9.206,4.625 15.029,4.625c4.796,-0 8.82,-0.728 12.075,-2.184c3.254,-1.456 5.908,-3.126 7.964,-5.01c2.055,-1.884 3.511,-3.425 4.367,-4.624c1.541,-2.055 2.783,-3.297 3.725,-3.725c0.942,-0.428 2.355,-0.642 4.239,-0.642l22.094,-0c1.713,-0 3.126,0.513 4.239,1.541c1.113,1.028 1.584,2.312 1.413,3.854c-0.171,2.74 -1.584,6.08 -4.239,10.019c-2.655,3.939 -6.466,7.793 -11.432,11.561c-4.967,3.768 -11.176,6.893 -18.626,9.377c-7.45,2.483 -15.971,3.725 -25.562,3.725Zm-28.26,-80.925l56.776,-0l0,-0.771c0,-6.68 -1.113,-12.546 -3.339,-17.598c-2.227,-5.053 -5.481,-8.992 -9.763,-11.818c-4.282,-2.826 -9.42,-4.239 -15.414,-4.239c-5.995,0 -11.133,1.413 -15.414,4.239c-4.282,2.826 -7.494,6.765 -9.634,11.818c-2.141,5.052 -3.212,10.918 -3.212,17.598l0,0.771Z" style="fill:#74aa00;fill-rule:nonzero;"/><path d="M1058.04,259.709c-10.277,-0 -18.926,-1.799 -25.948,-5.395c-7.022,-3.597 -12.246,-8.949 -15.671,-16.057c-3.426,-7.108 -5.138,-15.971 -5.138,-26.59l-0,-58.317l-20.296,-0c-1.713,-0 -3.168,-0.6 -4.367,-1.799c-1.199,-1.198 -1.799,-2.74 -1.799,-4.624l0,-14.643c0,-1.713 0.6,-3.169 1.799,-4.368c1.199,-1.199 2.654,-1.798 4.367,-1.798l20.296,-0l-0,-42.646c-0,-1.713 0.556,-3.169 1.67,-4.368c1.113,-1.199 2.611,-1.798 4.495,-1.798l20.81,-0c1.713,-0 3.168,0.599 4.367,1.798c1.199,1.199 1.799,2.655 1.799,4.368l-0,42.646l32.113,-0c1.712,-0 3.168,0.599 4.367,1.798c1.199,1.199 1.798,2.655 1.798,4.368l0,14.643c0,1.884 -0.599,3.426 -1.798,4.624c-1.199,1.199 -2.655,1.799 -4.367,1.799l-32.113,-0l-0,55.748c-0,7.022 1.241,12.503 3.725,16.442c2.483,3.939 6.808,5.909 12.973,5.909l17.727,0c1.713,0 3.168,0.6 4.367,1.798c1.199,1.199 1.799,2.655 1.799,4.368l-0,15.928c-0,1.713 -0.6,3.168 -1.799,4.367c-1.199,1.199 -2.654,1.799 -4.367,1.799l-20.809,-0Z" style="fill:#74aa00;fill-rule:nonzero;"/></g><g><path d="M489.774,297.042c0.412,0 0.769,0.15 1.069,0.45c0.3,0.3 0.45,0.657 0.45,1.069l-0,5.963c-0,0.412 -0.15,0.768 -0.45,1.068c-0.3,0.3 -0.657,0.45 -1.069,0.45l-16.819,0l0,7.707l15.694,-0c0.412,-0 0.769,0.15 1.069,0.45c0.3,0.3 0.45,0.656 0.45,1.068l-0,5.963c-0,0.412 -0.15,0.769 -0.45,1.069c-0.3,0.3 -0.657,0.45 -1.069,0.45l-15.694,-0l0,12.15c0,0.412 -0.15,0.768 -0.45,1.068c-0.3,0.3 -0.656,0.45 -1.069,0.45l-7.368,0c-0.413,0 -0.769,-0.15 -1.069,-0.45c-0.3,-0.3 -0.45,-0.656 -0.45,-1.068l-0,-36.338c-0,-0.412 0.15,-0.769 0.45,-1.069c0.3,-0.3 0.656,-0.45 1.069,-0.45l25.706,0Z" style="fill:#231f20;fill-rule:nonzero;"/><path d="M542.48,296.48c3.563,-0 6.638,0.675 9.225,2.025c2.588,1.35 4.585,3.178 5.991,5.484c1.406,2.307 2.184,4.885 2.334,7.735c0.075,1.05 0.113,2.737 0.113,5.062c-0,2.288 -0.038,3.938 -0.113,4.95c-0.15,2.85 -0.928,5.428 -2.334,7.735c-1.406,2.306 -3.403,4.134 -5.991,5.484c-2.587,1.35 -5.662,2.025 -9.225,2.025c-3.562,-0 -6.637,-0.675 -9.225,-2.025c-2.587,-1.35 -4.584,-3.178 -5.99,-5.484c-1.407,-2.307 -2.185,-4.885 -2.335,-7.735c-0.075,-2.025 -0.112,-3.675 -0.112,-4.95c-0,-1.275 0.037,-2.962 0.112,-5.062c0.15,-2.85 0.928,-5.428 2.335,-7.735c1.406,-2.306 3.403,-4.134 5.99,-5.484c2.588,-1.35 5.663,-2.025 9.225,-2.025Zm7.144,15.525c-0.188,-1.988 -0.872,-3.572 -2.053,-4.753c-1.181,-1.181 -2.878,-1.772 -5.091,-1.772c-2.212,-0 -3.909,0.591 -5.09,1.772c-1.182,1.181 -1.866,2.765 -2.054,4.753c-0.112,1.237 -0.168,2.794 -0.168,4.669c-0,1.837 0.056,3.431 0.168,4.781c0.188,1.987 0.872,3.572 2.054,4.753c1.181,1.181 2.878,1.772 5.09,1.772c2.213,-0 3.91,-0.591 5.091,-1.772c1.181,-1.181 1.865,-2.766 2.053,-4.753c0.112,-1.35 0.169,-2.944 0.169,-4.781c-0,-1.875 -0.057,-3.432 -0.169,-4.669Z" style="fill:#231f20;fill-rule:nonzero;"/><path d="M627.868,297.042c0.412,0 0.768,0.15 1.068,0.45c0.3,0.3 0.45,0.657 0.45,1.069l0,22.444c0,3.375 -0.712,6.262 -2.137,8.662c-1.425,2.4 -3.422,4.219 -5.991,5.457c-2.568,1.237 -5.559,1.856 -8.972,1.856c-3.45,-0 -6.459,-0.619 -9.028,-1.856c-2.568,-1.238 -4.556,-3.057 -5.962,-5.457c-1.406,-2.4 -2.11,-5.287 -2.11,-8.662l0,-22.444c0,-0.412 0.15,-0.769 0.45,-1.069c0.3,-0.3 0.657,-0.45 1.069,-0.45l7.369,0c0.412,0 0.769,0.15 1.069,0.45c0.3,0.3 0.45,0.657 0.45,1.069l-0,22.219c-0,2.287 0.572,4.059 1.715,5.316c1.144,1.256 2.803,1.884 4.978,1.884c2.175,-0 3.835,-0.628 4.979,-1.884c1.143,-1.257 1.715,-3.029 1.715,-5.316l0,-22.219c0,-0.412 0.15,-0.769 0.45,-1.069c0.3,-0.3 0.656,-0.45 1.069,-0.45l7.369,0Z" style="fill:#231f20;fill-rule:nonzero;"/><path d="M691.43,336.417c-0.562,0 -1.05,-0.14 -1.462,-0.421c-0.413,-0.282 -0.694,-0.572 -0.844,-0.872l-12.881,-19.238l-0,19.013c-0,0.412 -0.15,0.768 -0.45,1.068c-0.3,0.3 -0.657,0.45 -1.069,0.45l-7.369,0c-0.412,0 -0.769,-0.15 -1.069,-0.45c-0.3,-0.3 -0.45,-0.656 -0.45,-1.068l0,-36.338c0,-0.412 0.15,-0.769 0.45,-1.069c0.3,-0.3 0.657,-0.45 1.069,-0.45l5.85,0c0.563,0 1.05,0.141 1.463,0.422c0.412,0.282 0.693,0.572 0.843,0.872l12.882,19.238l-0,-19.013c-0,-0.412 0.15,-0.769 0.45,-1.069c0.3,-0.3 0.656,-0.45 1.068,-0.45l7.369,0c0.413,0 0.769,0.15 1.069,0.45c0.3,0.3 0.45,0.657 0.45,1.069l-0,36.338c-0,0.412 -0.15,0.768 -0.45,1.068c-0.3,0.3 -0.656,0.45 -1.069,0.45l-5.85,0Z" style="fill:#231f20;fill-rule:nonzero;"/><path d="M768.83,312.736c0.075,2.1 0.113,3.45 0.113,4.05c-0,0.6 -0.038,1.913 -0.113,3.938c-0.112,3.075 -0.909,5.793 -2.39,8.156c-1.482,2.362 -3.516,4.209 -6.104,5.541c-2.587,1.331 -5.587,1.996 -9,1.996l-15.187,0c-0.413,0 -0.769,-0.15 -1.069,-0.45c-0.3,-0.3 -0.45,-0.656 -0.45,-1.068l0,-36.338c0,-0.412 0.15,-0.769 0.45,-1.069c0.3,-0.3 0.656,-0.45 1.069,-0.45l14.906,0c3.413,0 6.441,0.666 9.085,1.997c2.643,1.332 4.725,3.188 6.243,5.569c1.519,2.381 2.335,5.091 2.447,8.128Zm-23.794,-6.694l0,21.375l6.019,0c4.725,0 7.181,-2.156 7.369,-6.468c0.075,-2.175 0.112,-3.6 0.112,-4.275c0,-0.75 -0.037,-2.138 -0.112,-4.163c-0.113,-2.137 -0.816,-3.75 -2.109,-4.837c-1.294,-1.088 -3.141,-1.632 -5.541,-1.632l-5.738,0Z" style="fill:#231f20;fill-rule:nonzero;"/><path d="M835.936,334.336c0.15,0.375 0.225,0.656 0.225,0.844c0,0.337 -0.121,0.628 -0.365,0.872c-0.244,0.244 -0.535,0.365 -0.872,0.365l-7.088,0c-0.637,0 -1.134,-0.14 -1.49,-0.421c-0.356,-0.282 -0.591,-0.61 -0.703,-0.985l-1.575,-4.669l-14.963,0l-1.575,4.669c-0.112,0.375 -0.347,0.703 -0.703,0.985c-0.356,0.281 -0.853,0.421 -1.491,0.421l-7.087,0c-0.338,0 -0.628,-0.121 -0.872,-0.365c-0.244,-0.244 -0.366,-0.535 -0.366,-0.872c0,-0.188 0.075,-0.469 0.225,-0.844l12.263,-35.437c0.187,-0.525 0.487,-0.966 0.9,-1.322c0.412,-0.356 0.956,-0.535 1.631,-0.535l9.113,0c0.675,0 1.218,0.179 1.631,0.535c0.412,0.356 0.712,0.797 0.9,1.322l12.262,35.437Zm-14.793,-12.712l-4.557,-13.5l-4.556,13.5l9.113,-0Z" style="fill:#231f20;fill-rule:nonzero;"/><path d="M898.599,297.042c0.412,0 0.769,0.15 1.069,0.45c0.3,0.3 0.45,0.657 0.45,1.069l-0,5.963c-0,0.412 -0.15,0.768 -0.45,1.068c-0.3,0.3 -0.657,0.45 -1.069,0.45l-9.9,0l-0,28.857c-0,0.412 -0.15,0.768 -0.45,1.068c-0.3,0.3 -0.656,0.45 -1.069,0.45l-7.369,0c-0.412,0 -0.768,-0.15 -1.068,-0.45c-0.3,-0.3 -0.45,-0.656 -0.45,-1.068l-0,-28.857l-9.9,0c-0.413,0 -0.769,-0.15 -1.069,-0.45c-0.3,-0.3 -0.45,-0.656 -0.45,-1.068l-0,-5.963c-0,-0.412 0.15,-0.769 0.45,-1.069c0.3,-0.3 0.656,-0.45 1.069,-0.45l30.206,0Z" style="fill:#231f20;fill-rule:nonzero;"/><path d="M935.668,336.417c-0.413,0 -0.769,-0.15 -1.069,-0.45c-0.3,-0.3 -0.45,-0.656 -0.45,-1.068l-0,-36.338c-0,-0.412 0.15,-0.769 0.45,-1.069c0.3,-0.3 0.656,-0.45 1.069,-0.45l7.368,0c0.413,0 0.769,0.15 1.069,0.45c0.3,0.3 0.45,0.657 0.45,1.069l0,36.338c0,0.412 -0.15,0.768 -0.45,1.068c-0.3,0.3 -0.656,0.45 -1.069,0.45l-7.368,0Z" style="fill:#231f20;fill-rule:nonzero;"/><path d="M997.655,296.48c3.563,-0 6.638,0.675 9.225,2.025c2.588,1.35 4.585,3.178 5.991,5.484c1.406,2.307 2.184,4.885 2.334,7.735c0.075,1.05 0.113,2.737 0.113,5.062c-0,2.288 -0.038,3.938 -0.113,4.95c-0.15,2.85 -0.928,5.428 -2.334,7.735c-1.406,2.306 -3.403,4.134 -5.991,5.484c-2.587,1.35 -5.662,2.025 -9.225,2.025c-3.562,-0 -6.637,-0.675 -9.225,-2.025c-2.587,-1.35 -4.584,-3.178 -5.99,-5.484c-1.407,-2.307 -2.185,-4.885 -2.335,-7.735c-0.075,-2.025 -0.112,-3.675 -0.112,-4.95c-0,-1.275 0.037,-2.962 0.112,-5.062c0.15,-2.85 0.928,-5.428 2.335,-7.735c1.406,-2.306 3.403,-4.134 5.99,-5.484c2.588,-1.35 5.663,-2.025 9.225,-2.025Zm7.144,15.525c-0.188,-1.988 -0.872,-3.572 -2.053,-4.753c-1.181,-1.181 -2.878,-1.772 -5.091,-1.772c-2.212,-0 -3.909,0.591 -5.09,1.772c-1.182,1.181 -1.866,2.765 -2.054,4.753c-0.112,1.237 -0.168,2.794 -0.168,4.669c-0,1.837 0.056,3.431 0.168,4.781c0.188,1.987 0.872,3.572 2.054,4.753c1.181,1.181 2.878,1.772 5.09,1.772c2.213,-0 3.91,-0.591 5.091,-1.772c1.181,-1.181 1.865,-2.766 2.053,-4.753c0.112,-1.35 0.169,-2.944 0.169,-4.781c-0,-1.875 -0.057,-3.432 -0.169,-4.669Z" style="fill:#231f20;fill-rule:nonzero;"/><path d="M1076.35,336.417c-0.563,0 -1.05,-0.14 -1.463,-0.421c-0.412,-0.282 -0.693,-0.572 -0.843,-0.872l-12.882,-19.238l0,19.013c0,0.412 -0.15,0.768 -0.45,1.068c-0.3,0.3 -0.656,0.45 -1.068,0.45l-7.369,0c-0.413,0 -0.769,-0.15 -1.069,-0.45c-0.3,-0.3 -0.45,-0.656 -0.45,-1.068l0,-36.338c0,-0.412 0.15,-0.769 0.45,-1.069c0.3,-0.3 0.656,-0.45 1.069,-0.45l5.85,0c0.562,0 1.05,0.141 1.462,0.422c0.413,0.282 0.694,0.572 0.844,0.872l12.881,19.238l0,-19.013c0,-0.412 0.15,-0.769 0.45,-1.069c0.3,-0.3 0.657,-0.45 1.069,-0.45l7.369,0c0.412,0 0.769,0.15 1.069,0.45c0.3,0.3 0.45,0.657 0.45,1.069l-0,36.338c-0,0.412 -0.15,0.768 -0.45,1.068c-0.3,0.3 -0.657,0.45 -1.069,0.45l-5.85,0Z" style="fill:#231f20;fill-rule:nonzero;"/></g></g></g></svg>
