<?xml version="1.0" encoding="UTF-8"?>
<svg width="100%" height="100%" version="1.1" viewBox="0 0 226 222" xmlns="http://www.w3.org/2000/svg">
 <defs>
  <clipPath id="clipMap">
   <path id="map" d="m0 238.92s1.9844 3.4396 3.1089 7.3422c1.1245 3.9026 1.6536 6.7469 1.6536 6.7469s-1.4552 3.3734-2.1828 6.5484-1.5214 6.0854-1.5214 6.0854 1.5214 4.2333 2.4474 7.9375c0.92604 3.7042 0.99219 6.4161 0.99219 6.4161s-1.0583 2.712-1.9844 6.4162c-0.92604 3.7042-1.3229 8.1359-1.3229 8.1359s2.4474-0.52917 7.5406 0.33073c5.0932 0.85989 8.5328 1.5875 8.5328 1.5875s3.3734-0.72761 6.35-1.6536c2.9766-0.92604 4.2995-1.7198 4.2995-1.7198s1.4552 0.13229 5.9531 1.6536c4.4979 1.5214 7.7391 2.249 7.7391 2.249s3.4396-0.7276 6.8792-1.5214c3.4396-0.79375 7.0115-2.1167 7.0115-2.1167s-0.19844-1.3229 1.1245-6.4823c1.3229-5.1594 2.3151-7.4083 2.3151-7.4083s-0.13229-1.1906-0.99219-5.2255c-0.85989-4.0349-2.6458-7.8714-2.6458-7.8714s0.46302-2.7781 1.7859-6.2838c1.3229-3.5057 2.712-7.0776 2.712-7.0776s-1.2568-4.0349-1.9844-7.8714-2.1828-6.813-2.1828-6.813-6.4161 2.3812-8.4005 2.7781c-1.9844 0.39688-5.5562 1.3891-5.5562 1.3891s-2.5797-1.1245-5.8208-2.249c-3.2411-1.1245-7.8714-1.4552-7.8714-1.4552s-0.8599 0.92604-5.8208 2.1167c-4.9609 1.1906-7.276 1.5214-7.276 1.5214s-4.8948-2.3812-8.3344-3.0427c-3.4396-0.66146-6.35-0.52916-6.5484-0.46302z" fill="#f7ffff" fill-opacity=".33166"/>
  </clipPath>
 </defs>
 <path d="m2.7773e-6 2.3148s7.4956 12.992 11.743 27.734c4.2475 14.741 6.2463 25.485 6.2463 25.485s-5.4968 12.743-8.2452 24.735c-2.7484 11.993-5.7466 22.986-5.7466 22.986s5.7466 15.991 9.2446 29.982c3.4979 13.992 3.7478 24.236 3.7478 24.236s-3.9977 10.244-7.4956 24.236c-3.4979 13.992-4.9971 30.732-4.9971 30.732s9.2446-1.9988 28.483 1.2493c19.239 3.2481 32.231 5.9965 32.231 5.9965s12.743-2.7484 23.986-6.2463c11.243-3.4979 16.24-6.4962 16.24-6.4962s5.4968 0.4997 22.487 6.2463c16.99 5.7466 29.233 8.495 29.233 8.495s12.992-2.7484 25.985-5.7466c12.992-2.9982 26.484-7.9953 26.484-7.9953s-0.74955-4.997 4.2475-24.486c4.9971-19.489 8.7449-27.984 8.7449-27.984s-0.49971-4.4974-3.7478-19.738c-3.2481-15.241-9.9941-29.733-9.9941-29.733s1.749-10.494 6.746-23.736 10.244-26.734 10.244-26.734-4.7472-15.241-7.4956-29.733c-2.7484-14.491-8.2452-25.735-8.2452-25.735s-24.236 8.9947-31.731 10.494c-7.4956 1.4991-20.988 5.247-20.988 5.247s-9.7443-4.2475-21.987-8.495c-12.243-4.2475-29.733-5.4968-29.733-5.4968s-3.2481 3.4979-21.987 7.9953c-18.739 4.4973-27.484 5.7466-27.484 5.7466s-18.489-8.9947-31.481-11.493c-12.992-2.4985-23.986-1.9988-24.735-1.749z" fill="#ceeeab"/>
 <path transform="matrix(3.7773 0 0 3.7773 2.7773e-6 -900.17)" d="m26.921 237.14-1.1245 1.8521c-0.19844 2.3812-0.59531 3.638-2.249 4.3656-1.6536 0.7276-3.2411 0.92604-2.9104 1.9844s3.4396 2.4474 3.7703 3.4396c0.33073 0.99219 2.1828 0.46303 2.9104 1.8521s0.52917 4.0349-0.99219 4.5641-4.6302 0.13229-5.3578 2.5135-1.2568 2.7781-2.3812 3.3734-1.9182 2.7781-0.92604 4.3656c0.99219 1.5875 3.2411-0.33072 3.9688-1.7198 0.7276-1.3891 1.9182-2.3151 1.9182-2.3151h6.2839l15.61-0.46302 0.8599-0.99219s0.8599 1.0583 0.7276 2.3151c-0.13229 1.2568-0.99219 3.9026 0.06615 4.5641 1.0583 0.66146 5.1594-0.52917 6.35-1.8521 1.1906-1.3229-1.2568-7.4745-2.7781-7.8052-1.5214-0.33073-4.8948-0.46303-4.4979-1.8521s3.1089 1.1906 4.5641 0.8599c1.4552-0.33073 4.4318-5.5562 3.175-6.6807-1.2568-1.1245-6.4161-1.3891-6.813-2.1167-0.39688-0.7276 5.5562-2.1167 5.887-2.9104s-0.66146-1.9182-1.6536-2.249-3.7042 4.2995-5.5562 4.1672c-1.8521-0.13229-5.2917 1.5214-4.5641 3.0427 0.7276 1.5214-1.5875 2.9104-3.8365 1.7198-2.249-1.1906-6.5484-3.4396-5.7547-6.35 0.79375-2.9104 5.6885-4.9609 5.6885-4.9609zm-3.5885 28.368c-0.42175 0.0386-1.1822 1.2401-1.3062 1.8603-0.13229 0.66146-0.8599 1.7859-0.92604 3.2412-0.06615 1.4552 1.2568 1.7859 2.3151 1.7198 1.0583-0.0661 0.7276-1.7859 0.52917-3.9688-0.06614 0-0.13229-2.712-0.52917-2.8443a0.20902 0.20902 0 0 0-0.08282-8e-3zm24.532 13.667c-1.6764 0.0781-1.7531 1.9762-1.9598 2.3482-0.33073 0.59531 0.59531 3.638 0.52917 4.7625-0.06614 1.1245-1.2568 1.3891-2.5135 2.5797-1.2568 1.1906 0.13229 4.2333 2.9766 8.2021l11.84 0.33073-0.26458-9.2604s1.2568-1.1245-5.4901-6.4162c-2.5302-1.9844-4.1122-2.5934-5.1181-2.5466zm-39.68 4.3738c-1.066-0.027-2.1908 1.5132-2.563 2.0092-0.39688 0.52916-1.6536 1.3229-4.4979 2.5135l-3.8365 9.062 14.023 1.1245s0.46302-2.9104-1.1245-4.1672c-1.5875-1.2568-4.5641-1.5214-4.8286-3.5057-0.26458-1.9844 2.4474-2.6458 3.638-3.7703 1.1906-1.1245 0.52917-2.9766-0.59531-3.2412a1.0623 1.0623 0 0 0-0.21511-0.0249z" clip-path="url(#clipMap)" fill="#a6dd8b"/>
 <path d="m149.44 75.366c-4.7572-0.0151-9.0257 0.96843-11.524 3.1541-7.9953 6.9959-34.979 0.74957-48.472 6.9959-13.492 6.2464-13.242 37.978-14.741 44.474-1.4991 6.4962-17.49 20.738-19.988 23.486-2.4985 2.7484-13.242 7.2457-19.489 8.495-6.2463 1.2493-12.743 7.2458-15.491 10.994-2.0198 2.7544-7.4017 6.4462-10.119 8.2142-0.045974 0.18094-0.079954 0.34789-0.12493 0.53068-0.13392 0.53467-0.24685 1.0824-0.37478 1.624 4.9771-1.6041 11.173-8.1752 16.615-13.617 6.2463-6.2464 19.988-7.7454 27.734-11.493 7.7454-3.7478 14.242-19.738 26.484-23.736 12.243-3.9977 21.238 11.743 24.236 18.489 2.9982 6.746 1.749 12.743 3.7478 16.99 1.9988 4.2475 10.994 11.743 11.493 13.492 0.49971 1.749-4.9971 6.4962-6.2463 8.495-1.2493 1.9988-10.494 6.9959-11.743 8.7448-0.96544 1.3512-1.9219 6.769-2.3116 9.2136 0.41376-0.16998 0.75456-0.30974 1.1253-0.46872 0.48272-2.5285 1.5141-7.0738 2.9353-8.495 1.9988-1.9988 11.243-4.4974 12.493-8.495 1.2493-3.9976 6.9959-6.4962 6.9959-6.4962s2.7484 3.9976 15.991 13.992c8.8278 6.6631 12.75 15.525 14.398 20.707 0.67361 0.16998 1.5321 0.40976 2.0298 0.53067-1.2193-4.3164-4.8332-16.229-8.9318-20.738-4.9971-5.4968-18.489-10.744-22.737-21.987-4.2475-11.243-24.486-34.23-17.49-40.226 6.9959-5.9965 16.49-3.9976 28.483 7.4956 11.993 11.493 46.223 5.7466 57.716 3.7478 9.9492-1.73 20.822 14.874 23.892 26.016a303.52 303.52 0 0 1 1.655-5.7466c-1.737-1.9249-3.6948-4.6173-5.3089-8.2761-3.7478-8.495-11.993-13.242-11.993-13.242s8.7449-4.9971 14.741-7.7454a18.915 18.915 0 0 0 4.1856-2.6545c-0.16292-0.77352-0.25985-1.2552-0.43775-2.0927l-0.0939-0.43775c-4.7622 5.5597-19.221 9.6103-21.643 10.932-2.7484 1.4991-18.239 2.9982-35.729 4.4974-17.49 1.4991-26.734-7.4956-34.23-14.741-7.4956-7.2458-12.992-35.979-2.9982-37.978 9.9941-1.9988 19.988 13.742 29.982 16.99 9.9941 3.2481 21.487-15.741 19.738-26.984-1.2023-7.7295-13.989-12.618-24.455-12.649zm-53.313 13.273c1.2752 9.9e-4 5.8566 1.593 6.5591 2.3736 2.2487 2.4985 1.9988 7.2457 0 7.9953s-12.743 7.9953-10.494 14.242c2.2487 6.2464 1.749 17.989-3.4979 17.989-5.2469 0-7.9953 0-9.9941-2.4985-1.9988-2.4985-1.9988-11.993 0-19.738 1.9988-7.7454 3.4979-14.991 7.9953-18.239 3.0922-2.2327 6.6281-2.1268 9.4325-2.1238zm13.586 73.051c0.20288 0.0113 1.9049 3.5129 4.7162 7.0269 2.9982 3.7478 3.2481 8.2452 3.2481 8.2452s-4.2475-4.7472-5.9965-7.9953c-1.749-3.2481-1.9988-7.2458-1.9988-7.2458 0-0.0302 0.0181-0.0302 0.031-0.0302z" fill="#aac3e7"/>
 <path transform="matrix(3.7773 0 0 3.7773 2.7773e-6 -900.17)" d="m42.267 298.12c2.3812-3.638 5.424-10.848 7.8052-11.112 2.3812-0.26459 2.712-0.66146 3.3073-1.1245 0.59531-0.46302 4.4979 0.59531 4.4979 0.59531m-39.754 10.98c3.5719-3.0427 6.1516-6.6146 7.5406-7.1438 1.3891-0.52917 3.3734-0.99219 4.1672-2.1167s0.66146-2.8443 1.3891-3.175 0.99219 1.5214 2.3151 1.5875c1.3229 0.0661 9.7234-1.3229 11.311-3.1088 1.5875-1.7859 8.5328-3.3073 8.599-3.8365 0.06614-0.52917-0.26458-1.2568 0.06614-1.4552 0.33073-0.19844 6.5484-1.5875 6.5484-1.5875m-59.862 15.677c5.0271-3.3073 9.525-0.33073 12.965-1.0583 3.4396-0.7276 10.12-9.8557 12.171-9.7896 2.0505 0.0661 1.4552-3.1089 2.249-3.5057 0.79375-0.39688 1.4552 1.5875 3.1089 2.1167 1.6536 0.52917 6.4823-0.7276 6.2177-1.5214-0.26458-0.79375-1.8521-2.0505-1.4552-2.249s2.249 1.3229 3.3734 0.92604c1.1245-0.39687 11.576-0.26458 12.832-3.5719s5.6885-3.5719 5.6885-3.5719m-9.4589-29.501c3.1089 1.3229 10.319 2.5797 12.502 10.649m-57.15 26.524c3.638 0.26458 5.6885 1.1245 8.8635-0.13229 3.175-1.2568 3.5719-1.3891 3.638-2.3151 0.06615-0.92604-0.06615-4.1672-0.79375-5.2917-0.7276-1.1245-3.4396-3.638-4.1672-6.4162-0.7276-2.7781 0.06615-10.848 2.249-12.766 2.1828-1.9182 8.4667-1.9182 9.9219-2.7781s1.3891-4.4318 3.4396-6.4823 7.1438-3.2412 7.1438-3.2412m-32.081 39.952c4.0349-0.39688 5.887 0.92604 8.3344 0.46302s3.5057-0.79375 4.6964-1.5214c1.1906-0.7276 1.5875-0.99218 1.6536-1.7198 0.06615-0.7276 0.26458-3.3073-0.79375-5.8208s-3.3073-8.3344-2.1828-10.253c1.1245-1.9182 1.3891-5.6885 4.1672-6.4823s5.5562-1.6536 7.3422-0.33073c1.7859 1.3229 3.3734 3.7703 5.2917 3.8365 1.9182 0.0661 3.1089-0.39687 3.8365-1.1906 0.7276-0.79375 1.1906-2.712 0.46302-3.638-0.7276-0.92605-4.101-1.4552-4.5641-2.5136-0.46302-1.0583-2.8443-4.4979-0.06615-7.0776 2.7781-2.5797 9.5911-2.1828 9.5911-2.1828m-36.976 42.73c4.8286-2.6458 7.6068-2.249 9.2604-3.0427s3.5057-1.5214 4.1672-2.5135c0.66146-0.99219 1.5214-3.0427 1.5214-4.7625 0-1.7198-0.92604-9.525 0.8599-11.509 1.7859-1.9844 4.5641-6.8792 6.8792-6.1516 2.3151 0.7276 3.2411 2.5797 5.8208 2.5135 2.5797-0.0661 5.7547-1.0583 6.4161-3.2412 0.66146-2.1828-4.1672-4.2333-4.2333-6.0854-0.06615-1.8521 1.4552-3.7703 5.3578-4.4979s6.2177-3.0427 6.2177-3.0427m-42.73 35.454c8.7312-0.66146 10.12-0.92604 9.5911-2.712-0.52917-1.7859-2.3151-6.2177-6.0854-5.9531-3.7703 0.26459-6.0193-1.7859-6.0193-1.7859m27.12-14.552c-2.249-1.4552-2.249-1.9182-1.8521-2.1167 0.39688-0.19844 2.712 1.3229 3.3734 2.1167 0.66146 0.79375-0.59531 0.52917-1.5214 0zm3.7042 4.101c1.6536 0.13229 3.2411-0.59532 2.8443-1.7198s-3.3073-1.9182-3.5057-0.79375c-0.19844 1.1245 0.52917 2.7781 0.66146 2.5136z" clip-path="url(#clipMap)" fill="none" opacity=".387" stroke="#6d7f42" stroke-linecap="round" stroke-linejoin="round" stroke-width=".26474"/>
 <path transform="matrix(3.7773 0 0 3.7773 2.7773e-6 -900.17)" d="m25.598 291.84 3.3073-7.3422 2.9104-1.8521 7.276 4.1672 5.424-0.99219-0.06615-4.1672-2.712-1.5875 3.3734-6.9453 1.5214-0.99219 10.253-2.6458m-43.987-28.509-2.249 7.4745 4.7625 1.6536 2.0505 9.5912-5.5562 5.887 2.3812 2.7781-3.175 3.0427 0.13229 1.1906 5.3578 6.4823 3.7042-1.7859 5.424 4.8948-2.7781 7.4745 2.712 2.249-0.7276 3.4396" clip-path="url(#clipMap)" fill="none" stroke="#d38484" stroke-linecap="round" stroke-width=".52948"/>
</svg>
