<?xml version="1.0" encoding="UTF-8"?>
<svg clip-rule="evenodd" fill-rule="evenodd" stroke-linejoin="round" stroke-miterlimit="2" version="1.1" viewBox="0 0 360 360" xml:space="preserve" xmlns="http://www.w3.org/2000/svg"><g transform="matrix(.1661 0 0 .1661 41.585 62.588)"><path d="m335.04 776.78 43.755-42.192s-37.504-93.759 0-129.7c37.503-35.941 59.38-59.38 64.068-93.759 4.688-34.378 3.125-104.7 3.125-104.7s31.253-15.627 53.131 25.002c21.877 40.629 28.127 76.57 6.25 98.447s-1.563 45.317-1.563 45.317 76.57-56.255 107.82-67.194 145.33-48.442 175.02-57.818 159.39-20.314 179.7-28.128c20.314-7.813 12.501 32.816-4.688 43.755-22.528 14.335-96.885 32.815-134.39 43.754-37.504 10.938-87.508 54.692-87.508 54.692l154.7-53.13s103.14 0 118.76-1.562c15.627-1.563 31.253 12.501 10.939 34.378-20.315 21.877-56.256 21.877-125.01 43.754-27.819 8.851-126.58 70.319-126.58 70.319l107.82-42.191s131.26-57.818 148.45-56.256c17.189 1.563 30.163 25.635-12.502 60.944-45.316 37.503-110.95 57.818-110.95 57.818l-103.14 79.695 135.95-71.882s48.442-35.941 71.882-28.128c23.44 7.814 2.48 21.158-23.44 48.442-29.69 31.253-56.255 51.568-56.255 51.568l-125.01 100.01s-190.64 85.946-231.27 89.071c-40.629 3.126-56.256-17.189-56.256-17.189l-84.383 51.568z" fill="#f6a161"/><path d="m460.53 403.48c-8.5618-0.0373-14.543 2.9531-14.543 2.9531s54.692 31.253 50.004 65.631c-4.688 34.378 12.697 54.694-24.807 90.635-15.31 14.672 32.619 12.5 32.619 12.5s-20.313-23.439 1.5645-45.316c21.877-21.877 15.627-57.818-6.25-98.447-12.306-22.854-27.58-27.907-38.588-27.955zm516.95 22.982c-0.84731 0.50437-2.7923 7.7696-11.082 17.811-25.343 30.694-67.105 22.484-93.809 30.916-29.691 9.376-81.259 21.877-112.51 32.816-14.57 5.099-43.403 25.141-70.035 45.086-30.495 22.837 49.721 11.168 49.721 11.168s50.006-43.753 87.51-54.691c37.503-10.939 111.86-29.419 134.39-43.754 11.136-7.087 18.208-26.549 16.496-37.455-0.23275-1.482-0.39335-2.0646-0.67578-1.8965zm54.711 92.271c-1.5592 0.50811-4.0899 12.726-10.492 16.328-54.569 30.701-133.04 32.18-133.04 32.18l-128.9 63.275-3.252 29.871 16.066-2.3691s98.755-61.467 126.57-70.318c68.756-21.877 104.7-21.877 125.01-43.754 9.44-10.167 11.12-18.646 8.6426-24.654-0.1915-0.46463-0.3945-0.63118-0.6172-0.5586zm11.508 56.869c-6.0922 0.0941-31.314 29.676-44.969 38.113-40.233 24.86-103.56 46.672-103.56 46.672l-115.48 80.127-23.178 16.135 45.756 1.3789 103.13-79.695s65.633-20.315 110.95-57.818c21.249-17.585 28.695-32.382 28.695-43 0-1.3377-0.4793-1.9256-1.3496-1.9121zm-25.146 87.49c-0.821-0.324-5.8327 10.772-13.764 18.35-13.278 12.687-46.656 35.996-46.656 35.996-115.39 78.329-215.35 143.46-354.99 184.25-46.222-3.202-82.545-2.4225-93.6-29.688l-42.381 20.65c-7.314-51.169-25.441-102.38-106.36-140.48l-19.205 19.305 91.895 210.02 84.383-51.568s15.627 20.315 56.256 17.189c40.629-3.125 231.27-89.07 231.27-89.07l125.01-100.01s26.564-20.315 56.254-51.568c11.41-12.01 21.706-21.45 27.982-28.645 9.23-10.582 4.0722-14.659 3.9082-14.723z" fill="#db6632"/><path d="m-336.12 978.98 218.98-56.512 294.92-120.09 113.02-63.577s120.09 12.362 141.28 113.02c21.192 100.66-10.596 146.58-10.596 146.58l-54.747 52.98-215.45 120.09-155.41 63.577-335.54 249.01z" fill="#f43"/><path d="m-308.74 1243.9 225.17-67.109 381.46-188.96 119.58-45.838c19.813-105.89-24.01-172.62-126.64-203.17 0 0 120.09 12.362 141.28 113.02 21.192 100.66 7.284 183.66 7.284 183.66l-81.457 31.788-206.62 104.19-155.41 63.577-335.54 249.01z" fill="#932525"/></g><g transform="matrix(.1661 0 0 .1661 79.244 49.251)" clip-rule="evenodd" fill-rule="evenodd" stroke-linejoin="round" stroke-miterlimit="2"><path d="m1067.1 823.61-59.394 12.916s-17.342 99.481-68.134 110.36c-50.793 10.881-81.721 19.334-103.77 46.124-22.048 26.79-57.659 87.446-57.659 87.446s-34.802-3.121-32.074-49.185 16.289-79.93 46.397-87.053 25.136-37.739 25.136-37.739-94.706 7.644-127.05 0.534c-32.339-7.11-149.11-35.123-179.3-42.742s-113.61-24.427-135-28.45c-21.39-4.024-47.261-42.946-26.943-44.467 61.166-4.578 122.75-8.208 160.41 2.186s112.83 16.853 112.83 16.853l-1.055-13.397-131.82-43.158s-101.07 12.803-149.55-12.741c-13.894-7.321-40.899-38.666-12.12-46.61 28.778-7.944 125.55-6.324 150.79-4.212 84.918 7.107 157.53 4.891 153.6 4.539l-107.64-30.892s-116.3 2.519-130.11-7.841c-13.805-10.359-46.802-37.352-17.596-46.797 55.969-18.1 158.92-13.176 158.92-13.176l94.928 3.339-124.66-15.582s-61.673 11.811-77.514-7.15c-15.84-18.962 10.577-25.983 46.966-35.583 41.681-10.996 74.957-14.327 74.957-14.327l161.3-2.656s204.98 10.245 241.19 28.929c36.213 18.684 56.829 33.618 56.829 33.618l80.9 11.01z" fill="#f68f61"/><path d="m429.54 558.89c-1.188-0.0264-2.2022 0.38199-3.0293 1.3652-3.7 4.399-3.4544 9.6638 2.2266 16.465 15.841 18.961 77.514 7.1504 77.514 7.1504l124.66 15.582 23.828-7.3848-25.422-19.246s-112.55-8.6483-154.23 2.3477c-20.421 5.3874-37.229-16.095-45.545-16.279zm-54.637 70.545c-3.5447 0.12675-5.4524 2.5325-4.5449 3.791 6.444 8.932 17.623 17.844 24.305 22.859 13.806 10.36 130.11 7.8418 130.11 7.8418l107.64 30.893c0.769 0.068-22.932-19.373-22.932-19.373s-12.114-21.906-94.139-27.947c-14.775-1.088-106.74-5.6177-136.4-17.305-1.5015-0.5915-2.8653-0.80202-4.0469-0.75977zm-54.111 87.213c-2.1753 0.0356-3.0741 0.71915-2.2344 2.2871 5.052 9.432 14.86 18.619 21.592 22.166 48.479 25.544 149.55 12.742 149.55 12.742l131.82 43.158-8.9883-22.602s-46.23-29.547-131.15-36.654c-25.24-2.113-28.324-0.6971-86.93-2.2461-12.98-0.34257-61.914-19.044-73.66-18.852zm656.41 69.936s-3.8328 24.966-28.926 89.254c0 0-14.722 55.971-102.34 76.344-30.135 7.008-51.461 36.113-62.549 80.906-11.003 44.451-22.555 40.241-18.496 42.652 7.002 4.1599 13.26 4.7207 13.26 4.7207s35.612-60.655 57.66-87.445c22.049-26.79 52.977-35.244 103.77-46.125 50.792-10.881 68.133-110.36 68.133-110.36l59.395-12.916 8.9804-36.58zm-627.32 24.127c-2.524 0.18642-3.2824 1.1404-1.918 3.1738 6.727 10.024 18.037 20.008 28.311 21.941 21.39 4.023 104.81 20.832 135 28.451s146.96 35.63 179.29 42.74c32.34 7.11 127.04-0.5332 127.04-0.5332l-20.225-17.957s-90.942-11.887-128.6-22.281c-37.658-10.394-122.53-35.464-215.92-40.279-47.98-2.4741-92.053-16.064-102.99-15.256z" fill="#d76136"/><path d="m1744.4 1004.1-216.02-66.951-314.04-52.745-129.57-5.277s-95.69-73.603-60.843-170.39c34.848-96.787 86.017-119.16 86.017-119.16l74.416-16.322 246.42 10.998 165.64 27.542 416.32-35.615z" fill="#529add"/><path d="m1744.4 1004.1-216.02-66.951-314.04-52.745-129.57-5.277s-18.231-14.023-35.88-37.875c-12.686-17.147 36.851-9.281 37.491-10.207 1.904-2.754 112.89-6.75 267.57 1.608 256.31 13.849 573.55-106.58 573.55-106.58z" fill="#346185"/></g><g transform="matrix(.1661 0 0 .1661 48.924 45.159)"><path d="m628.92 341.98 36.99 48.232s97.389-26.693 128.87 14.624c31.484 41.316 52.307 65.697 85.938 74.231s103.68 14.909 103.68 14.909 12.003 32.816-30.834 49.973c-42.836 17.157-79.253 19.315-98.524-4.889s-44.851-6.662-44.851-6.662 47.263 82.424 54.608 114.71c7.346 32.287 31.749 149.86 37.717 180.42 5.969 30.558 26.301 113.19 31.774 134.25s-18.719 61.054-28.75 43.32c-30.2-53.387-59.722-107.56-66.362-146.06s-32.823-109.26-32.823-109.26l-11.671 6.662 17.114 137.64s54.642 85.984 52.186 140.73c-0.704 15.689-17.557 53.474-37.005 30.823-19.447-22.652-59.211-110.89-68.052-134.63-29.748-79.854-62.688-144.6-61.332-140.9l17.912 110.55s51.828 104.15 48.338 121.05c-3.491 16.903-13.854 58.256-34.842 35.857-40.219-42.924-79.623-138.16-79.623-138.16l-37.421-87.304 39.012 119.42s36.96 50.764 26.554 73.174c-10.406 22.409-28.013 1.5-52.201-27.331-27.706-33.025-44.896-61.711-44.896-61.711l-71.123-144.8s-78.057-189.81-76.582-230.53c1.476-40.722 6.203-65.736 6.203-65.736l-24.505-77.882z" fill="#fdc08a"/><path d="m628.92 341.97-36.92 7.4609-176.72 59.66c23.223 72.068 195.33 40.455 240.83-4.4941 20.964-3.3988 78.001-4.9762 160.68 52.527 31.777 22.1 78.935 25.742 63.926 21.934-33.631-8.534-54.455-32.916-85.939-74.232-31.483-41.317-128.87-14.623-128.87-14.623zm355.48 152s-23.569 30.64-57.021 39.844c-27.988 7.701-58.757 12.947-72.338 5.2402 8.321 29.799 55.689 22.046 98.525 4.8887 42.837-17.157 30.834-49.973 30.834-49.973zm-129.36 45.084c-0.43299-1.554-0.51799-0.295 0 0zm-44.85-6.6621-7.6289 25.949s27.987 87.338 34.627 125.84c6.64 38.498 20.12 125.96 55.549 212.5 22.403 54.723 27.051 111.26 33.762 100.06 6.203-10.356 10.418-24.842 7.7891-34.961-5.473-21.066-25.804-103.7-31.773-134.25-5.968-30.558-30.371-148.13-37.717-180.42-7.345-32.287-54.607-114.71-54.607-114.71zm-15.508 224.05-16.617 17.76s-7.037 54.414 22.711 134.27c8.842 23.734 11.437 25.921 35.004 79.602 6.186 14.092 10.559 84.857 17.348 75.719 6.382-8.5879 10.514-21.378 10.855-28.978 2.456-54.742-52.188-140.73-52.188-140.73zm-97.088 33.67c-0.265-0.724-7.7578 29-7.7578 29s-14.659 20.293 14.822 97.074c5.31 13.831 40.391 98.956 42.455 130.77 0.417 6.442 5.4023 8.2914 6.4043 6.4824 5.336-9.636 8.6362-23.546 10.326-31.728 3.49-16.903-48.338-121.05-48.338-121.05zm-102.47 23.582-6.582 31.197s40.127 105.51 67.834 138.54c15.513 18.491-2.7348 47.663 7.2012 50.299 5.556 1.474 10.215-0.9933 13.947-9.0292 10.406-22.41-26.555-73.174-26.555-73.174l-39.012-119.42z" fill="#bc7252"/><path d="m503.68-347.7 31.462 223.96 86.071 306.58 50.428 119.47s-25.823 117.93-128.23 127.64-144.45-27.055-144.45-27.055l-46.47-60.37-95.031-227.62-45.649-161.59-209.59-361.48z" fill="#fd5"/><path d="m503.68-347.7 31.462 223.96 86.071 306.58 50.428 119.47s-18.631 146.02-185.22 128.5c-3.289-0.346 113.58-23.732 117.85-38.176 2.731-9.246 24.154-40.759 24.656-50.666 3.512-69.229-40.924-128.66-41.967-130.5-34.622-61.142-78.531-127.02-78.531-127.02l-36.707-122.11-49.248-322.82z" fill="#c88c3a"/></g><g transform="matrix(.1661 0 0 .1661 69.105 87.815)"><path d="m818.99 990.22-36.76-48.407s-97.515 26.231-128.8-15.235c-31.287-41.465-51.995-65.944-85.585-74.638-33.589-8.693-103.6-15.401-103.6-15.401s-11.848-32.872 31.07-49.825c42.917-16.954 79.343-18.94 98.499 5.356 19.156 24.295 44.82 6.874 44.82 6.874s-46.872-82.647-54.064-114.97c-7.192-32.321-31.037-150.01-36.861-180.6-5.823-30.586-1.452-160.67-6.825-181.76-5.373-21.091 34.057-8.56 42.901 9.795 11.59 24.056 21.208 100.07 27.666 138.6s44.036 93.327 44.036 93.327l-34.592-159.87s12.115-102.42 12.398-118.12c0.284-15.702 16.086-29.568 35.425-6.825 19.34 22.744 15.118 58.436 28.768 129.29 5.522 28.666 54.965 133.96 54.965 133.96l-29.235-112.03s-42-137.14-38.429-154.03c3.571-16.886 29-26.944 59.053 19.573 31.921 49.408 44.386 116.97 44.386 116.97l67.03 111.78-55.416-143.45s-30.002-52.329-19.49-74.688c10.512-22.36 21.303 0.022 45.354 28.967 27.549 33.156 44.602 61.923 44.602 61.923l84.634 135.89s62.958 199.42 61.289 240.13c-1.668 40.715-23.677 53.847-23.677 53.847l41.299 89.856z" fill="#d9773a"/><path d="m703.63 261.7c-7.6963 0.91863 23.878 34.153 31.379 50.264 19.962 42.875 34.188 108.32 34.188 108.32l66.008 124.1 13.297 24.912 6.7461-45.279-67.029-111.78s-12.466-67.563-44.387-116.97c-14.967-23.166-28.787-32.302-39.332-33.549-0.33213-0.0393-0.62087-0.0433-0.86914-0.0137zm-55.953 4.8867c-0.84124 0.0743-1.6534 0.22423-2.4356 0.44336-3.871 1.085 11.126 5.1367 14.355 12.887 24.078 57.797 16.33 135.89 16.33 135.89l47.699 135.44 29.283 6.7363-0.46679-16.232s-49.443-105.29-54.965-133.96c-13.65-70.85-9.4276-106.54-28.768-129.29-7.8636-9.2479-15.145-12.442-21.033-11.922zm142.27 30.336c-2.3522-0.12088-3.5366 1.0782-3.5781 1.1562-0.418 0.777 10.012 7.0563 16.605 15.822 11.04 14.676 30.268 50.562 30.268 50.562 64.234 123.79 117.17 230.71 141.28 374.18-8.61 45.526-12.101 81.69-40.475 89.465l55.551 94.848c16.918-2.9831 44.246-6.459 44.246-6.459l-41.299-89.855s22.008-13.133 23.676-53.848c1.669-40.715-61.289-240.13-61.289-240.13l-84.633-135.89s-17.053-28.766-44.602-61.922c-10.587-12.742-18.752-24.076-25.16-31.154-4.7125-5.2045-8.2337-6.6448-10.586-6.7656zm199.65 626.03c-14.141 2.4935-21.138 4.6506 2.3887 4.0801zm-441.07-612.33c-5.996 0.228 2.4268 0.99689 14.424 13.547 27.505 28.772 14.446 69.281 19.684 96.791 5.823 30.586 12.181 83.265 19.373 115.59 3.353 15.068 19.868 46.056 36.547 74.846 19.098 32.966 16.932-48.064 16.932-48.064s-37.577-54.797-44.035-93.326c-6.458-38.529-16.076-114.54-27.666-138.6-5.73-11.892-24.226-21.2-35.258-20.781zm1.752 463.28c-16.155 0.20415-34.848 4.8614-54.965 12.809-42.918 16.953 6.3915-0.818 39.98 7.875 28.101 7.273 48.242-1.9508 72.393 19.119 4.718 4.115 30.947-14.764 30.947-14.764s-25.664 17.42-44.82-6.875c-10.177-12.907-25.227-18.395-43.535-18.164zm12.65 77.219c-5.1507-0.12708-1.9457 3.7647 7.9863 4.6836 4.1829 0.38703 8.143 0.89082 11.943 1.4805-4.7524-2.1636-9.7077-3.9753-15.01-5.3476-2.0987-0.54319-3.7313-0.78708-4.9199-0.81641zm19.93 6.1641c25.355 11.544 44.228 34.369 70.576 69.289 31.287 41.466 128.8 15.236 128.8 15.236l4.9336-5.8125c-23.683-25.423-66.432-9.2375-98.025-26.271-37.484-20.211-56.295-44.685-106.29-52.441z" fill="#a85a31"/><path d="m940.96 1680.5-30.399-224.11-84.616-306.99-49.861-119.71s26.382-117.8 128.84-127.03c102.46-9.221 144.32 27.74 144.32 27.74l46.183 60.59 93.95 228.07 44.882 161.8 207.87 362.47z" fill="#ca72e2"/><path d="m1207.2 1684.4-40.196-231.49-142.85-401.01-31.475-124.13c-0.515-20.012-3.497-22.36 0.514-22.017 51.923 4.444 94.934 11.229 94.934 11.229l22.001 84.627 79.203 217.43 44.882 161.8 207.87 362.47z" fill="#8246b5"/></g><g transform="matrix(.1661 0 0 .1661 81.031 77.724)"><path d="m968.42 895.68-55.729-24.266s-72.255 70.544-119.82 49.66c-47.562-20.885-77.592-32.12-111.14-23.288-33.554 8.832-97.916 37.2-97.916 37.2s-26.402-22.889 2.754-58.655c29.157-35.766 59.966-55.301 88.552-43.467 28.586 11.833 42.462-15.908 42.462-15.908s-81.286-49.196-103.36-73.879-100.39-115.7-120.42-139.54-77.857-86.265-92.853-102.04-13.212-62.477 4.156-51.826c52.289 32.064 104.36 65.143 128.83 95.601 24.465 30.457 81.657 79.666 81.657 79.666l6.981-11.483-81.672-112.11s-89.465-48.734-113.84-97.809c-6.987-14.065-10.555-55.285 17.433-44.895 27.988 10.391 105.53 68.31 124.77 84.786 64.718 55.436 124.91 96.11 121.93 93.525l-69.239-88.019s-95.807-65.988-100.94-82.465c-5.138-16.478-16.112-57.672 13.101-48.25 55.982 18.057 136.6 82.268 136.6 82.268l75.042 58.234-91.996-85.556s-56.931-26.494-58.687-51.139c-1.757-24.645 23.776-14.888 58.906-1.389 40.239 15.461 69.177 32.224 69.177 32.224l132.38 92.196s160.26 128.21 178.7 164.54c18.443 36.337 26.429 60.508 26.429 60.508l59.177 56.251z" fill="#f6a161"/><path d="m603.79 307.23c-0.28957 8e-3 -0.58889 0.0524-0.90039 0.13086-5.574 1.403-8.4542 5.8153-7.8242 14.654 1.756 24.645 58.688 51.141 58.688 51.141l91.994 85.555 23.648 7.9492-9.3633-30.48s-86.23-72.85-126.47-88.311c-21.827-8.3874-20.797-40.896-29.773-40.639zm-87.281 24.941c-1.1078 0.15657-1.8476 0.75379-1.8476 1.5293 2e-3 11.015 3.8568 24.781 6.3438 32.758 5.138 16.477 100.95 82.465 100.95 82.465l69.238 88.02c0.583 0.506-7.2676-29.127-7.2676-29.127s2.9871-24.853-60.008-77.73c-11.348-9.524-83.288-66.988-100.51-93.818-2.1794-3.395-5.0482-4.3567-6.8945-4.0957zm-92.656 39.348c-0.73365-0.0913-1.1982 0.34066-1.3398 1.3984-1.42 10.605 1.1628 23.794 4.5488 30.609 24.379 49.075 113.84 97.809 113.84 97.809l81.672 112.11 5.9297-23.588s-20.214-51.006-84.932-106.44c-19.236-16.477-22.565-17.133-69.193-52.67-11.092-8.4535-43.437-58.344-50.529-59.227zm-31.436 93.404c-0.99258-0.11393-1.5329 0.57553-1.5879 2.207-0.408 12.065 2.924 26.779 10.127 34.357 14.996 15.775 72.825 78.201 92.854 102.04 20.029 23.838 98.351 114.86 120.42 139.54 22.071 24.683 103.36 73.879 103.36 73.879l-5.9004-26.396s-66.807-62.836-91.271-93.293c-24.464-30.458-78.64-100.43-151.57-158.96-40.351-32.385-69.486-72.576-76.434-73.373zm524.74 348.12s-17.711 18.008-75.668 55.473c0 0-44.681 36.785-127.66 2.0625-28.541-11.943-62.864-0.81081-98.057 29.035-34.926 29.617-41.832 19.443-39.951 23.773 3.246 7.47 7.9961 11.588 7.9961 11.588s64.362-28.367 97.916-37.199c33.553-8.832 63.583 2.4021 111.14 23.287 47.561 20.884 119.82-49.66 119.82-49.66l55.729 24.266 28.682-24.418z" fill="#db6632"/><path d="m1412.2 1438.3-136.05-180.66-223.86-226.47-102.01-80.069s-34.559-115.67 50.318-173.79c84.878-58.119 139.47-46.334 139.47-46.334l69.905 30.289 193.43 153.06 118.24 119.22 493.7 390.97-213.88 222.1z" fill="#9bbe55"/><path d="m1653.2 1755.7-377.05-498.07-223.86-226.47-102.01-80.069s-6.584-22.038-6.946-51.708c-0.261-21.328 35.317 14.028 36.378 13.652 3.156-1.12 95.51 60.556 216.08 157.81 199.79 161.16 669.65 521.18 669.65 521.18z" fill="#707249"/></g><g transform="matrix(.1661 0 0 .1661 40.209 58.46)"><path d="m368.39 576.65 59.191-13.818s15.827-99.733 66.449-111.38c50.621-11.652 81.417-20.574 103.06-47.696s56.323-88.312 56.323-88.312 34.846 2.592 32.819 48.692c-2.028 46.099-15.073 80.168-45.069 87.747-29.996 7.58-24.559 38.118-24.559 38.118s94.579-9.084 127.02-2.466c32.444 6.618 149.62 32.852 179.92 40.011s147.29 64.214 168.74 67.911c21.448 3.698-6.077 34.587-26.443 35.174-26.691 0.77-100.02-21.454-137.83-31.274s-103.17 2.137-103.17 2.137l160.08 33.63s88.571 52.838 102.79 59.502c14.22 6.664 20.435 26.748-8.219 35.128s-59.52-10.033-129.78-26.471c-28.425-6.65-144.73-4.457-144.73-4.457l114.21 19.006s142.35 17.595 156.31 27.744c13.962 10.148 12.771 37.468-41.958 45.933-58.132 8.991-124.9-7.188-124.9-7.188l-129.4 15.604 153.58 7.918s60.015-6.047 76.142 12.671c16.127 18.719-8.71 19.441-44.948 29.593-41.51 11.629-74.731 15.465-74.731 15.465l-158.6 21.841s-207.76-23.861-244.25-41.992-39.505-43.583-39.505-43.583l-98.887 1.054z" fill="#f1984c"/><path d="m653.41 315.44s30.957 54.858 9.3184 81.98c-21.638 27.122-17.115 53.476-67.736 65.127-20.666 4.757 21.609 27.449 21.609 27.449s-5.4374-30.539 24.559-38.119c29.996-7.579 43.04-41.647 45.068-87.746 2.027-46.1-32.818-48.691-32.818-48.691zm193.44 246.77c-16.864 0.26797-38.301 2.0367-58.982 4.2148-37.889 3.989 36.977 35.064 36.977 35.064s65.36-11.957 103.17-2.1367 111.14 32.043 137.83 31.273c13.195-0.38 29.238-13.471 33.355-23.715 2.238-5.567-1.898 1.8095-18.25 7.6445-37.489 13.376-69.148-15.071-96.402-21.51-30.301-7.159-80.992-22.843-113.44-29.461-5.6719-1.1569-14.144-1.5358-24.262-1.375zm-443.73 6.498-26.385 6.7383-28.678 227.44 98.887-1.0547s3.0129 25.453 39.506 43.584c36.493 18.131 244.25 41.992 244.25 41.992l158.6-21.842s33.222-3.8359 74.732-15.465c15.952-4.469 29.629-7.2997 38.705-10.264 13.349-4.359 11.006-10.503 10.898-10.643-0.538-0.698-10.526 6.263-21.219 8.707-17.903 4.093-58.51 7.0117-58.51 7.0117-139.22 8.152-258.44 12.872-399.26-23.641-38.055-26.431-69.649-44.371-65.174-73.449l-46.977-3.9805c19.934-47.69 30.604-100.95-19.369-175.14zm404.96 99.93-18.098 23.988 15.012 6.1953s116.3-2.193 144.73 4.457c70.256 16.438 101.12 34.851 129.78 26.471 13.316-3.894 19.102-10.315 20.053-16.744 0.589-3.976-9.2272 8.0656-17.619 7.8516-62.593-1.591-130.74-40.521-130.74-40.521zm100.98 95.027-140.23 9.6484-28.17 1.9785 38.588 24.629 129.4-15.604s66.77 16.178 124.9 7.1875c27.256-4.216 41.234-13.108 46.674-22.227 5.483-9.191-39.982 7.0714-58.324 7.3574-47.288 0.737-112.85-12.971-112.85-12.971z" fill="#b0642a"/><path d="m-311.59 406.45 217.02 63.659 314.8 47.965 129.64 3.306s96.798 72.14 63.426 169.45c-33.372 97.305-84.195 120.45-84.195 120.45l-74.159 17.451-246.55-7.25-166.04-25.021-415.73 41.94z" fill="#f4900c"/><path d="m-423.79 647.97 227.75 57.726 424.4 33.149 126.18 21.897c71.266-80.79 67.82-160.55-4.671-239.36 0 0 96.798 72.14 63.426 169.45-33.372 97.305-87.839 161.46-87.839 161.46l-86.241-14.433-230.83-16.376-166.04-25.021-415.73 41.94z" fill="#ac5728"/></g><g transform="matrix(.1661 0 0 .1661 56.721 41.489)"><path d="m893.22 336.47 10.289 59.906s98.622 21.703 107.26 72.925c8.635 51.223 15.718 82.493 41.511 105.7 25.794 23.206 84.824 61.452 84.824 61.452s-4.65 34.631-50.549 29.878c-45.9-4.753-79.136-19.792-84.926-50.184-5.791-30.392-36.597-26.772-36.597-26.772s3.469 94.95-5.058 126.94c-8.527 31.996-41.652 147.42-50.592 177.24-8.941 29.824-29.404 112.42-34.365 133.62-4.961 21.192-44.985 45.325-45.609 24.96-1.882-61.308-2.797-122.99 9.244-160.16s21.802-111.98 21.802-111.98l-13.43 0.464-48.918 129.79s8.342 101.54-19.311 148.84c-7.925 13.558-40.429 39.157-47.098 10.057-6.67-29.1-0.792-125.71 2.429-150.83 10.838-84.522 11.819-157.16 11.294-153.25l-35.599 106.18s-2.603 116.3-13.56 129.64-39.376 45.113-47.526 15.52c-15.62-56.711-6.169-159.34-6.169-159.34l7.514-94.689-21.054 123.85s9.086 62.132-10.555 77.123c-19.64 14.991-25.492-11.71-33.481-48.486-9.151-42.125-11.014-75.515-11.014-75.515l4.446-161.26s19.258-204.33 39.517-239.68c20.26-35.356 36.087-55.295 36.087-55.295l14.56-80.337z" fill="#f68f61"/><path d="m668.18 291.78-7.3926 54.91c45.451 43.915 124.4 54.348 215.92 53.32 0 0 42.463 1.949 105.57 29.838-31.945-23.17-78.771-33.48-78.771-33.48l-10.289-59.904zm314.1 138.07c0.01 7e-3 0.0195 0.0143 0.0293 0.0215-2e-5 -2e-5 -6e-3 -0.0117-6e-3 -0.0117-8e-3 -4e-3 -0.0155-6e-3 -0.0234-0.01zm0.0293 0.0215c0.0146 0.0122 5.1272 4.3282 21.6 92.627 3.777 20.244 36.016 52.817 48.367 52.496-25.793-23.207-32.877-54.476-41.512-105.7-2.6827-15.914-14.057-28.974-28.455-39.424zm5.0137 145.04c-11.264-0.33683-22.295 14.455-22.295 14.455s30.807-3.6205 36.598 26.771c5.79 30.392 39.026 45.431 84.926 50.184 45.899 4.753 50.549-29.877 50.549-29.877-11.811 4.617-70.813 16.312-102.57 1.2715-22.239-10.534-20.773-30.131-34.525-53.666-3.8314-6.5571-8.2741-9.0069-12.682-9.1387zm-22.295 14.455-18.83 19.416s-15.879 90.328-27.92 127.49-40.823 120.85-49.744 213.93c-5.641 58.861-27.841 111.07-16.688 104.28 10.311-6.279 20.783-17.137 23.166-27.316 4.961-21.193 25.424-103.79 34.365-133.62 8.94-29.824 42.065-145.24 50.592-177.24 8.527-31.995 5.0586-126.95 5.0586-126.95zm-321.28 148.88-20.346 24.551s-13.594 112.06-4.4434 154.19c5.124 23.586-24.602 40.914-17.035 47.871 4.231 3.89 9.5009 3.876 16.545-1.5 19.641-14.991 10.555-77.123 10.555-77.123l21.053-123.85zm101.67 26.822c0.103-0.765-20.363 22.059-20.363 22.059s-22.419 11.137-32.064 92.816c-1.737 14.713-10.308 106.38-23.289 135.5-2.629 5.895 0.92139 9.8518 2.6504 8.7168 9.208-6.045 18.602-16.819 23.906-23.275 10.957-13.336 13.561-129.64 13.561-129.64zm101.6 15.389-22.975 7.9863s-31.555 44.884-42.393 129.41c-3.221 25.122-1.9414 28.266-6.0684 86.746-1.083 15.352-30.151 80.019-19.889 75.092 9.646-4.632 19.257-14.027 23.096-20.596 27.653-47.308 19.311-148.84 19.311-148.84z" fill="#d76136"/><path d="m1103.4-332.24-76.394 212.87-66.516 311.41-10.974 129.21s-77.745 92.358-172.9 53.284-115.26-91.178-115.26-91.178l-13.031-75.062 21.833-245.69 34.806-164.26-17.257-417.49z" fill="#9aa0ad"/><path d="m1103.4-332.24-76.394 212.87-66.516 311.41-10.974 129.21s-43.76 51.985-105.8 61.452c-20.654 3.151 24.164-11.27 54.752-43.876 1.077-1.149 3.983-20.622 3.086-21.302-2.668-2.024-1.775-113.08 13.383-267.24 25.117-255.46-227.23-669.43-227.23-669.43z" fill="#6d7783"/></g><g transform="matrix(.1661 0 0 .1661 46.172 85.98)"><path d="m447.45 914.55 20.644-57.17s-75.03-67.585-57.237-116.39 27.081-79.491 16.116-112.41c-10.964-32.918-43.398-95.33-43.398-95.33s21.149-27.815 58.71-1.011c37.561 26.805 59.031 56.298 49.054 85.584s18.596 41.355 18.596 41.355 43.885-84.272 67.103-107.88c23.218-23.608 109.03-107.6 131.54-129.12 22.506-21.516 134.07-88.569 148.85-104.54s25.7 23.931 15.102 41.332c-13.889 22.806-72.458 72.203-101.28 98.569s-54.39 87.697-54.39 87.697l115.38-115.95s92.548-45.513 105.88-53.811c13.333-8.299 33.562-2.574 24.987 26.022-8.574 28.596-40.826 44.457-92.871 94.431-21.057 20.219-82.551 118.96-82.551 118.96l78.136-85.443s92.275-109.81 108.39-115.99c16.115-6.184 38.38 9.692 15.677 60.205-24.115 53.652-74.045 100.84-74.045 100.84l-57.38 117.03 90.275-124.5s27.609-53.629 52.091-56.962 11.563 17.892 0.344 53.814c-12.851 41.148-27.725 71.1-27.725 71.1l-68.046 144.91s-133.15 161.26-168.23 181.99c-35.08 20.734-58.067 9.401-58.067 9.401l-52.965 83.513z" fill="#fdc08a"/><path d="m869.54 316.61c-0.99171-0.29683 0.99526 7.2175-2.2637 20.941-9.196 38.728-50.295 49.791-70.537 69.143-22.505 21.516-63.264 55.492-86.482 79.1-10.824 11.005-27.853 41.715-42.949 71.365-17.287 33.951 49.547-11.92 49.547-11.92s25.564-61.331 54.391-87.697c28.827-26.366 87.396-75.762 101.29-98.568 6.866-11.274 4.6234-31.86-1.7266-40.891-0.64706-0.92025-1.0348-1.4042-1.2637-1.4727zm89.957 58.654c-1.9794-0.54072 1.9209 12.863-2.5312 19.354-35.42 51.632-105.18 87.586-105.18 87.586l-87.744 113.66 10.264 28.24 13.371-9.2168s61.496-98.74 82.553-118.96c52.045-49.974 84.295-65.834 92.869-94.43 3.985-13.289 1.7509-21.64-3.123-25.939-0.18844-0.16619-0.34656-0.26278-0.47852-0.29883zm35.666 45.863c-5.305 0.21165-15.264 40.125-24.098 54.207-25.132 40.064-72.33 87.582-72.33 87.582l-68.27 122.87-13.68 24.705 41.668-18.955 57.381-117.03s49.93-47.194 74.045-100.85c11.307-25.157 11.459-41.722 6.7734-51.25-0.44278-0.90037-0.94144-1.3051-1.4902-1.2832zm15.478 89.768c-0.879 0.071-0.4799 12.24-4.2519 22.539-6.317 17.245-25.982 52.893-25.982 52.893-68.978 121.21-129.94 223.77-237.25 322-42.891 17.524-75.142 34.252-97.094 14.664l-37.951 52.512c-20.408-30.587-63.634-88.436-153.07-86.92l-4.0586 18.314 175.14 147.91 52.965-83.514s22.986 11.334 58.066-9.4004c35.079-20.734 168.23-181.99 168.23-181.99l68.047-144.91s14.874-29.952 27.725-71.1c4.938-15.813 10.012-28.828 12.469-38.055 3.612-13.569-2.8152-14.951-2.9922-14.936zm-598.61 9.707c-18.453-0.49316-28.449 12.654-28.449 12.654s62.87 3.9082 73.834 36.826c10.965 32.919 35.529 43.477 17.736 92.279-7.264 19.923 34.789-3.1777 34.789-3.1777s-28.573-12.07-18.596-41.355-11.494-58.779-49.055-85.584c-11.738-8.3762-21.872-11.418-30.26-11.643z" fill="#bc7252"/><path d="m-238.99 1653.7 344.97-408.92 211.66-237.91 73.367-106.93s113.22-41.902 176.66 39.076c63.439 80.978 55.177 136.21 55.177 136.21l-25.747 71.702-140.34 202.84-111.4 125.63-191.21 371.52z" fill="#6390a0"/><path d="m-47.557 1723.6 295.88-265.39 258.92-337.91 87.075-93.903c-28.952-103.77-97.726-144.31-203.3-126.43 0 0 113.22-41.902 176.66 39.076 63.439 80.978 87.589 161.6 87.589 161.6l-59.068 64.472-139.43 184.68-111.4 125.63-191.21 371.52z" fill="#3e5859"/></g><g transform="matrix(.1661 0 0 .1661 70.94 53.415)" clip-rule="evenodd" fill-rule="evenodd" stroke-linejoin="round" stroke-miterlimit="2"><path d="m1103 652.9-49.82 34.823s22.365 98.474-20.302 128.1-67.944 49.353-77.956 82.574c-10.011 33.22-19.475 102.92-19.475 102.92s-33.314 10.542-48.562-33.011c-15.247-43.552-15.795-80.028 9.237-98.211s8.637-44.514 8.637-44.514-84.431 43.576-117.01 49.488c-32.58 5.911-151.12 25.096-181.91 29.709-30.792 4.612-114.24 21.274-135.53 25.811s-60.167-21.398-42.008-30.636c54.669-27.812 110.09-54.911 148.84-59.844 38.754-4.933 110.6-27.964 110.6-27.964l-6.14-11.954-138.27 11.016s-88.314 50.79-142.89 45.918c-15.642-1.396-52.646-19.903-29.158-38.331 23.489-18.427 113.4-54.253 137.5-62.038 81.09-26.191 147.23-56.237 143.47-55.047l-111.23 13.01s-106.34 47.177-123.07 42.943c-16.733-4.234-57.587-16.414-34.283-36.392 44.659-38.284 141.54-73.441 141.54-73.441l88.872-33.528-121.03 33.698s-52.348 34.682-74.275 23.296c-21.928-11.387-0.262-28.052 29.61-50.943 34.216-26.22 63.634-42.126 63.634-42.126l147.8-64.656s193.07-69.595 233.69-66.322c40.618 3.273 65.398 9.101 65.398 9.101l78.888-21.041z" fill="#d9773a"/><path d="m602.4 590.34s-107.18 35.427-141.4 61.646c-19.159 14.681-47.496-4.8363-50.568 4.9727-1.718 5.485 0.53931 10.248 8.4043 14.332 21.927 11.386 74.275-23.297 74.275-23.297l121.03-33.697 19.139-16.004zm494.83 25.344-91.416 37.723s6.0944 24.514 7.7343 93.506c0 0 7.9995 57.319-64.98 109.9-25.101 18.087-33.552 53.166-26.508 98.77 6.99 45.256-23.089 35.573-15.967 40.486 14.454 9.972 29.406 5.2402 29.406 5.2402s9.4636-69.696 19.475-102.92c10.012-33.221 35.288-52.947 77.955-82.574 42.667-29.627 20.303-128.1 20.303-128.1l49.82-34.822zm-499.07 72.41c-15.024 0.26124-37.979 3.6988-72.107 15.1-14.052 4.694-100.65 35.981-132.52 36.637-6.453 0.133-8.5218 5.0294-6.7578 6.1094 9.391 5.757 23.142 9.6688 31.242 11.719 16.732 4.234 123.07-42.943 123.07-42.943l111.23-13.01c0.736-0.233-28.629-9.0312-28.629-9.0312s-6.2082-4.916-25.525-4.5801zm37.719 93.062c-23.694 0.20819-60.75 3.6685-106.36 18.4-24.102 7.785-26.402 10.281-81.072 31.453-14.351 5.558-85.239 6.8003-76.41 13.986 8.298 6.755 20.892 11.448 28.471 12.125 54.58 4.872 142.89-45.918 142.89-45.918l138.27-11.016-17.012-17.387s-10.345-1.8065-28.773-1.6445zm243.35 35.652s-88.489 24.102-127.24 29.035c-38.754 4.933-126.73 14.536-214.75 46.105-55.658 19.964-112.35 22.11-101.45 29.309 10.072 6.655 24.357 11.505 34.582 9.3262 21.287-4.537 104.74-21.199 135.53-25.811 30.792-4.613 149.33-23.798 181.91-29.709 32.58-5.912 117.01-49.488 117.01-49.488z" fill="#a85a31"/><path d="m1797.6 558.25-225.13 21.537-310.08 72.442-121.58 45.1s-116.67-31.008-121.85-133.75c-5.174-102.74 33.41-143.11 33.41-143.11l62.365-43.757 231.6-84.882 163.44-38.466 370.38-193.41z" fill="#a07a43"/><path d="m1797.6 558.25-225.13 21.537-310.08 72.442-121.58 45.1s-65.671-17.453-100.66-69.557c-11.647-17.345 20.488 17.064 63.017 30.853 1.498 0.485 20.354-5.179 20.587-6.28 0.695-3.276 101.55-49.763 247.49-101.7 241.83-86.07 508.92-490.69 508.92-490.69z" fill="#6e4c2f"/></g><g transform="matrix(.1661 0 0 .1661 29.66 30.023)" clip-rule="evenodd" fill-rule="evenodd" stroke-linejoin="round" stroke-miterlimit="2"><path d="m524.5 459.35 57.106 20.82s67.816-74.821 116.56-56.877 79.407 27.326 112.36 16.463 95.464-43.104 95.464-43.104 27.749 21.235 0.829 58.713-56.48 58.857-85.735 48.79c-29.255-10.068-41.412 18.468-41.412 18.468s84.136 44.145 107.67 67.435c23.536 23.291 107.27 109.36 128.71 131.94 21.447 22.571 88.155 134.34 104.08 149.17 15.931 14.831-24.01 25.626-41.378 14.975-22.763-13.96-71.979-72.681-98.256-101.59s-87.528-54.661-87.528-54.661l115.59 115.73s45.228 92.689 53.485 106.05c8.257 13.358 2.471 33.569-26.099 24.906s-44.331-40.963-94.144-93.162c-20.155-21.12-118.7-82.918-118.7-82.918l85.201 78.4s109.52 92.613 115.66 108.75c6.133 16.134-9.811 38.35-60.253 15.491-53.578-24.281-100.62-74.356-100.62-74.356l-116.85-57.74 124.22 90.658s53.544 27.775 56.801 52.267-17.927 11.507-53.815 0.177c-41.108-12.977-71.014-27.943-71.014-27.943l-144.7-68.493s-160.84-133.64-181.47-168.79c-20.625-35.143-9.221-58.095-9.221-58.095l-83.349-53.223z" fill="#f6a161"/><path d="m905.99 396.65s-4.1027 62.858-37.055 73.721c-32.953 10.863-43.587 35.395-92.334 17.451-19.9-7.325 3.0703 34.799 3.0703 34.799s12.157-28.537 41.412-18.469c29.255 10.067 58.814-11.311 85.734-48.789s-0.82812-58.713-0.82812-58.713zm-373.85 66.256-148.45 174.69 83.348 53.223s-11.402 22.953 9.2227 58.096c20.626 35.144 181.47 168.79 181.47 168.79l144.7 68.494c-1e-5 0 29.906 14.966 71.014 27.943 15.798 4.988 28.797 10.101 38.016 12.586 13.558 3.654 14.959-2.7693 14.945-2.9453-0.069-0.88-12.239-0.5153-22.527-4.3203-17.225-6.37-52.811-26.146-52.811-26.146-121-69.352-223.36-130.63-321.26-238.24-17.392-42.945-34.023-75.248-14.367-97.139l-37.143-29.033c42.779-29.012 80.85-67.76 79.609-157.2zm339.84 214.54c-13.968 1.1684 20.994 52.443 20.994 52.443s61.252 25.754 87.529 54.662 75.493 87.628 98.256 101.59c11.253 6.901 31.844 4.7214 40.894-1.5996 4.919-3.436-2.58 0.47511-19.459-3.5879-38.699-9.316-49.635-50.449-68.924-70.75-21.446-22.572-55.294-63.434-78.83-86.725-10.973-10.858-41.63-27.982-71.234-43.17-4.2371-2.1739-7.2311-3.0282-9.2266-2.8613zm-29.781 99.477-28.271 10.176 9.1758 13.398s98.548 61.798 118.7 82.918c49.813 52.199 65.575 84.499 94.145 93.162 13.277 4.026 21.633 1.817 25.947-3.043 2.668-3.006-12.136 1.7016-19.045-3.0684-51.521-35.579-87.26-105.45-87.26-105.45zm-114.78 52.389 18.824 41.727 116.85 57.74s47.039 50.076 100.62 74.357c25.122 11.384 41.687 11.589 51.229 6.9317 9.619-4.693-37.337-15.956-52.846-25.752-39.986-25.256-87.359-72.6-87.359-72.6l-122.65-68.648z" fill="#db6632"/><path d="m-160.22-231.5 355.49 348.36 237.26 212.39 106.7 73.697s41.553 113.35-39.621 176.54c-81.173 63.189-136.38 54.757-136.38 54.757l-71.622-25.968-202.41-140.97-125.29-111.79-370.93-192.36z" fill="#494ead"/><path d="m-177.62 85.613 159.05 172.93 337.1 259.96 93.634 87.365c103.86-28.632 144.61-97.281 127.06-202.91 0 0 41.553 113.35-39.621 176.54-81.173 63.189-161.87 87.09-161.87 87.09l-64.29-59.267-184.25-140-125.29-111.79-370.93-192.36z" fill="#3c435b"/></g><g transform="matrix(.1661 0 0 .1661 56.263 94.236)"><path d="m621.53 990.58-10.422-59.883s-98.669-21.485-107.42-72.688-15.901-82.458-41.745-105.61c-25.845-23.149-84.959-61.264-84.959-61.264s4.573-34.642 50.482-29.991c45.91 4.651 79.179 19.617 85.037 49.996 5.858 30.38 36.656 26.692 36.656 26.692s-3.679-94.943 4.777-126.96 41.326-147.51 50.2-177.35 72.503-143.39 77.417-164.6 34.184 8.037 33.61 28.404c-0.752 26.692-27.119 98.63-39.078 135.82s-3.746 103.13-3.746 103.13l42.698-157.9s57.8-85.417 65.263-99.234c7.464-13.818 27.869-18.878 34.603 10.207 6.733 29.085-13.409 58.851-33.824 128.06-8.259 28-12.698 144.24-12.698 144.24l25.484-112.94s25.679-141.12 36.607-154.48c10.927-13.36 38.135-10.615 43.467 44.508 5.664 58.55-14.294 124.29-14.294 124.29l8.204 130.08 16.658-152.88s-2.618-60.262 16.989-75.296c19.608-15.034 18.913 9.803 26.984 46.561 9.244 42.105 11.181 75.491 11.181 75.491l12.767 159.58s-35.662 206.06-55.843 241.46c-20.182 35.4-45.764 36.957-45.764 36.957l-4.583 98.786z" fill="#f1984c"/><path d="m691.57 262.03c-1.0087 0.23389 4.4405 5.7748 8.416 19.309 11.218 38.191-18.985 68.178-26.967 95.02-8.874 29.844-27.421 79.558-35.877 111.57-3.942 14.925-3.5032 50.038-1.9102 83.271 1.824 38.055 37.115-34.918 37.115-34.918s-8.2129-65.936 3.7461-103.13c11.959-37.191 38.326-109.13 39.078-135.82 0.372-13.195-11.783-29.96-21.775-34.654-1.0183-0.47831-1.5934-0.70631-1.8262-0.65234zm107.2 6.3281c-1.9873 0.51205 8.0462 10.219 7.3984 18.062-5.156 62.4-47.906 128.21-47.906 128.21l-19.834 142.22 22.918 19.434 7.041-14.633s4.4383-116.24 12.697-144.24c20.415-69.205 40.557-98.972 33.824-128.06-3.13-13.516-9.2112-19.659-15.574-20.975-0.24607-0.0509-0.43197-0.0576-0.56446-0.0234zm54.236 21.984c-5.8065 0.21368 6.1422 41.997 5.4297 59.18-1.958 47.254-19.381 111.92-19.381 111.92l1.6426 140.55 0.37109 28.236 26.785-37.121-8.2031-130.08s19.959-65.741 14.295-124.29c-2.655-27.453-10.737-41.914-19.531-47.865-0.55393-0.37487-1.0211-0.54549-1.4082-0.53125zm58.553 70.275c-0.66418-0.0118-1.0826 0.13125-1.1191 0.15625-0.728 0.498 5.6534 10.867 7.4844 21.682 3.066 18.108 3.6641 58.814 3.6641 58.814 0.204 139.46-1.8775 258.75-46.355 397.27-28.557 36.486-48.267 67.005-77.043 60.881l5.7852 109.77c16.398 5.1201 42.27 14.582 42.27 14.582l4.582-98.787s25.582-1.5571 45.764-36.957c20.181-35.401 55.844-241.46 55.844-241.46l-12.768-159.58s-1.9357-33.385-11.18-75.49c-3.553-16.18-5.601-29.999-8.043-39.229-2.6932-10.181-6.8922-11.609-8.8848-11.645zm-107.58 648.57c-13.707-4.2796-20.912-5.578 0.24805 4.7207zm-392.82-349.41c-11.023-0.1352 27.218 7.92 48.217 26.729 25.845 23.15 52.412 20.137 61.16 71.34 3.571 20.902 28.635-20.01 28.635-20.01s-30.798 3.6866-36.656-26.693c-5.858-30.379-39.127-45.345-85.037-49.996-8.6079-0.87206-13.775-1.3379-16.318-1.3691z" fill="#b0642a"/><path d="m412.86 1659.8 75.923-213.04 65.827-311.56 10.688-129.24s77.54-92.529 172.79-53.666c95.245 38.863 115.46 90.923 115.46 90.923l13.197 75.033-21.29 245.74-34.442 164.34 18.18 417.45z" fill="#aa335d"/><path d="m647.59 1785.5 70.611-224.09 57.282-421.82 29.052-124.72c8.733-18.012 7.163-21.467 10.568-19.32 44.082 27.794 79.173 53.575 79.173 53.575l-19.325 85.278-29.504 229.52-34.442 164.34 18.18 417.45z" fill="#5d3052"/></g><g transform="matrix(.1661 0 0 .1661 79.196 28.188)" clip-rule="evenodd" fill-rule="evenodd" stroke-linejoin="round" stroke-miterlimit="2"><path d="m996.72 475.48-26.984 54.465s66.896 75.644 43.692 122.12c-23.203 46.474-35.906 75.913-28.738 109.86 7.167 33.948 32.327 99.631 32.327 99.631s-24.162 25.241-58.447-5.643c-34.286-30.884-52.278-62.619-39.05-90.587 13.229-27.968-13.795-43.194-13.795-43.194s-53.143 78.761-78.884 99.589c-25.742 20.827-120.51 94.567-145.31 113.4-24.796 18.83-89.998 73.509-106.49 87.709s-63.053 10.117-51.558-6.706c34.603-50.644 70.209-101.02 101.84-123.96 31.626-22.933 83.595-77.63 83.595-77.63l-11.125-7.539-116 76.046s-53.086 86.954-103.3 108.88c-14.392 6.285-55.738 7.817-43.98-19.625 11.757-27.442 73.428-102.04 90.833-120.44 58.559-61.906 102.15-120.02 99.423-117.17l-91.326 64.815s-70.631 92.437-87.342 96.757c-16.711 4.319-58.396 13.249-47.545-15.464 20.795-55.024 88.902-132.38 88.902-132.38l61.863-72.079-89.987 87.666s-29.269 55.555-53.97 56.095c-24.702 0.54-13.698-24.482 1.516-58.903 17.427-39.428 35.596-67.504 35.596-67.504l98.61-127.68s135.95-153.74 173.15-170.38c37.202-16.629 61.738-23.414 61.738-23.414l59.099-56.332z" fill="#fdc08a"/><path d="m973.75 445.63-62.08 76.98s17.113 18.577 51.676 78.311c0 0 34.538 46.44-4.2344 127.61-13.336 27.917-3.908 62.747 24.166 99.369 27.86 36.343-3.1744 42.291 5.4316 43.182 17.467 1.807 28.311-9.5215 28.311-9.5215s-25.159-65.683-32.326-99.631c-7.168-33.948 5.5353-63.387 28.738-109.86 23.204-46.475-43.693-122.12-43.693-122.12l26.984-54.465zm-415.33 207.49-30.904 7.8476s-77.011 82.533-94.438 121.96c-9.757 22.077-43.987 18.561-41.973 28.641 1.127 5.636 5.393 8.7301 14.252 8.5371 24.701-0.54 53.971-56.094 53.971-56.094l89.986-87.666zm347.31 69.012-26.654 4.5938s-66.053 63.626-97.68 86.559c-31.626 22.933-104.19 73.596-166.24 143.55-39.24 44.235-87.94 73.334-74.926 74.418 12.031 1.002 26.89-1.6009 34.814-8.4219 16.495-14.2 81.698-68.879 106.49-87.709 24.797-18.83 119.57-92.57 145.31-113.4 25.741-20.828 78.885-99.59 78.885-99.59zm-280.96 12.564c0.533-0.558-29.451 5.8223-29.451 5.8223 0 1e-5 -24.675-4.2084-80.594 56.104-10.073 10.864-71.014 79.883-98.66 95.762-5.598 3.215-5.0601 8.5025-2.9941 8.6035 11.001 0.541 24.942-2.6288 33.031-4.7188 16.711-4.32 87.342-96.758 87.342-96.758zm49.758 65.215s-51.942 17.673-110.5 79.58c-17.405 18.4-18.224 21.692-56.016 66.512-9.92 11.766-71.509 46.89-60.314 48.955 10.522 1.941 23.822 0.0118 30.795-3.0332 50.217-21.93 103.3-108.88 103.3-108.88l116-76.047z" fill="#bc7252"/><path d="m1757.4-82.071-384.06 268.05-237.23 212.42-85.001 97.935s-117.23 28.815-171.1-58.825c-53.864-87.639-39.402-141.58-39.402-141.58l33.698-68.326 162.41-185.65 124.91-112.21 405.45-344.55z" fill="#655555"/><path d="m1757.4-85.01-384.06 270.99-237.23 212.42-85.001 97.935s-65.987 16.219-121.69-12.689c-18.545-9.623 26.165 5.132 70.091-3.19 1.547-0.293 15.368-14.315 15.045-15.393-0.964-3.207 65.191-92.408 168.27-208.04 170.81-191.6 396-524.88 396-524.88z" fill="#2f2828"/></g></svg>
