<?xml version="1.0" encoding="UTF-8"?>
<svg id="vector" version="1.1" viewBox="0 0 500 460" xmlns="http://www.w3.org/2000/svg">
 <path id="path" d="m34.438 0c-19.085 0-34.438 15.353-34.438 34.438v639.78c0 19.084 15.353 34.437 34.438 34.437h427.19c19.085 0 34.438-15.353 34.438-34.437v-639.78c0-19.085-15.353-34.438-34.438-34.438z" fill="#ca333a"/>
 <path d="m87.669 389.1v22.061h149.72v149.14h22.029v-149.14h149.51v-22.061z" fill="#f6f6f6"/>
 <path d="m64.914 102.88h-21.794v186.77h21.794v-82.138h85.302v82.138h21.794v-186.77h-21.794v82.724h-85.302z" fill="#f6f6f6"/>
 <path d="m251.44 236.78-8.469 13.875c-3.16-1.13-6.546-1.75-10.094-1.75-16.585 0-30.031 13.447-30.031 30.032 0 8.64 3.627 16.427 9.469 21.906l-8.594 14.062 10.125 6.188 8.531-14c3.263 1.216 6.813 1.875 10.5 1.875 16.585 0 30-13.447 30-30.031 0-8.779-3.744-16.666-9.75-22.157l8.438-13.812-10.125-6.188zm-18.563 24.969c1.077 0 2.103 0.123 3.125 0.313l-16.719 27.375c-2.247-2.905-3.593-6.544-3.593-10.5 0-9.49 7.698-17.188 17.187-17.188zm13.344 6.375c2.392 2.952 3.812 6.717 3.812 10.813 0 9.489-7.667 17.187-17.156 17.187-1.22 0-2.414-0.133-3.562-0.375l16.906-27.625z" fill="#f6f6f6"/>
 <path d="m42.438 10.438c-16.771 0-30.282 13.479-30.282 30.25v627.28c0 16.77 13.511 30.25 30.282 30.25h411.19c16.77 0 30.281-13.48 30.281-30.25v-627.28c0-16.771-13.511-30.25-30.281-30.25h-411.19zm0.5 15.562h410.19c8.743 0 15.781 7.038 15.781 15.781v625.81c0 8.743-7.038 15.781-15.781 15.781h-410.19c-8.744 0-15.782-7.038-15.782-15.781v-625.81c0-8.743 7.038-15.781 15.782-15.781z" fill="#f6f6f6"/>
 <path d="m0 0h500v710h-500z" fill="none"/>
</svg>
