<?xml version="1.0" encoding="UTF-8"?>
<svg id="vector" version="1.1" viewBox="0 0 735 637" xmlns="http://www.w3.org/2000/svg">
 <path d="m49 0h637c12.991 0 25.462 5.166 34.648 14.352s14.352 21.657 14.352 34.648v882c0 12.991-5.166 25.462-14.352 34.648s-21.657 14.352-34.648 14.352h-637c-12.991 0-25.462-5.166-34.648-14.352s-14.352-21.657-14.352-34.648v-882c0-12.991 5.166-25.462 14.352-34.648s21.657-14.352 34.648-14.352z" fill="#cb403b"/>
 <path d="m122.5 283h490v49h-490z" fill="#fff"/>
 <path d="m178.75 206.77q0 22.225-13.154 34.578-13.153 12.354-36.58 12.354h-54.918v-166.57h49.157q47.621 0 47.621 40.43 0 14.777-6.7205 24.826-6.7209 10.049-19.01 13.477 16.13 2.3645 24.867 13.299 8.737 10.935 8.737 27.604zm-26.307-76.487q0-13.477-7.4888-19.269-7.4888-5.7926-21.698-5.7926h-30.819v52.725h30.819q14.69 0 21.938-6.7976 7.2488-6.7973 7.2488-20.865zm7.7769 74.713q0-29.436-33.604-29.436h-34.18v60.054h35.62q16.802 0 24.483-7.6842 7.6808-7.684 7.6808-22.934zm157.84 48.705h-22.754l-54.054-80.388-17.666 16.55v63.837h-18.338v-166.57h18.338v83.461l65.191-83.461h21.602l-57.606 72.349z" fill="#fff" stroke-width=".22264"/>
 <path d="m136 446.25 73.5-73.5m-73.5 36.75c0 9.743 3.875 19.097 10.764 25.986s16.243 10.764 25.986 10.764 19.097-3.875 25.986-10.764 10.764-16.243 10.764-25.986-3.875-19.097-10.764-25.986c-6.889-6.89-16.243-10.764-25.986-10.764s-19.097 3.874-25.986 10.764c-6.889 6.889-10.764 16.243-10.764 25.986" fill="none" stroke="#fff" stroke-width="12"/>
 <path d="m0 0h735v980h-735z" fill="none"/>
</svg>
