<?xml version="1.0" encoding="UTF-8"?>
<svg version="1.1" viewBox="0 0 80 64" xmlns="http://www.w3.org/2000/svg">
 <path d="m75 19h-6l11 18v-11z" fill="#e1d9af"/>
 <path d="m32 0h16l19 64h-54z" fill="#d7d7d7"/>
 <path d="m5 19h6l-11 18v-11z" fill="#e1d9af"/>
 <path d="m16 19h6l-9 23h-9z" fill="#e1d9af"/>
 <path d="m64 19h-6l9 23h9z" fill="#e1d9af"/>
 <path d="m0 22h80v2h-80z" fill="#8c7570"/>
 <path d="m0 35h80v3h-80z" fill="#8c7570"/>
 <rect x="44" y="47" width="21" height="12" ry="3" fill="none" stroke="#727272" stroke-linecap="round" stroke-width="2"/>
 <rect x="68" y="46" width="4" height="16" fill="#727272" fill-rule="evenodd" stroke-linejoin="round" stroke-width="1.2"/>
 <rect x="65" y="50" width="3" height="2" fill="#727272" fill-rule="evenodd" stroke-linejoin="round" stroke-width="1.2"/>
 <rect x="65" y="54" width="3" height="2" fill="#727272" fill-rule="evenodd" stroke-linejoin="round" stroke-width="1.2"/>
 <rect x="50" y="48" width="2" height="10" fill="#727272" fill-rule="evenodd" stroke-linejoin="round" stroke-width="1.2"/>
 <rect x="57" y="48" width="2" height="10" fill="#727272" fill-rule="evenodd" stroke-linejoin="round" stroke-width="1.2"/>
 <rect transform="scale(-1,1)" x="-36" y="47" width="21" height="12" ry="3" fill="none" stroke="#727272" stroke-linecap="round" stroke-width="2"/>
 <rect transform="scale(-1,1)" x="-12" y="46" width="4" height="16" fill="#727272" fill-rule="evenodd" stroke-linejoin="round" stroke-width="1.2"/>
 <rect transform="scale(-1,1)" x="-15" y="50" width="3" height="2" fill="#727272" fill-rule="evenodd" stroke-linejoin="round" stroke-width="1.2"/>
 <rect transform="scale(-1,1)" x="-15" y="54" width="3" height="2" fill="#727272" fill-rule="evenodd" stroke-linejoin="round" stroke-width="1.2"/>
 <rect transform="scale(-1,1)" x="-30" y="48" width="2" height="10" fill="#727272" fill-rule="evenodd" stroke-linejoin="round" stroke-width="1.2"/>
 <rect transform="scale(-1,1)" x="-23" y="48" width="2" height="10" fill="#727272" fill-rule="evenodd" stroke-linejoin="round" stroke-width="1.2"/>
 <rect x="42" y="8.5" width="10.5" height="6" ry="1.5" fill="none" stroke="#727272" stroke-linecap="round"/>
 <rect x="54" y="8" width="2" height="8" fill="#727272" fill-rule="evenodd" stroke-linejoin="round" stroke-width=".6"/>
 <rect x="52.5" y="10" width="1.5" height="1" fill="#727272" fill-rule="evenodd" stroke-linejoin="round" stroke-width=".6"/>
 <rect x="52.5" y="12" width="1.5" height="1" fill="#727272" fill-rule="evenodd" stroke-linejoin="round" stroke-width=".6"/>
 <rect x="45" y="9" width="1" height="5" fill="#727272" fill-rule="evenodd" stroke-linejoin="round" stroke-width=".6"/>
 <rect x="48.5" y="9" width="1" height="5" fill="#727272" fill-rule="evenodd" stroke-linejoin="round" stroke-width=".6"/>
 <rect transform="scale(-1,1)" x="-38" y="8.5" width="10.5" height="6" ry="1.5" fill="none" stroke="#727272" stroke-linecap="round"/>
 <rect transform="scale(-1,1)" x="-26" y="8" width="2" height="8" fill="#727272" fill-rule="evenodd" stroke-linejoin="round" stroke-width=".6"/>
 <rect transform="scale(-1,1)" x="-27.5" y="10" width="1.5" height="1" fill="#727272" fill-rule="evenodd" stroke-linejoin="round" stroke-width=".6"/>
 <rect transform="scale(-1,1)" x="-27.5" y="12" width="1.5" height="1" fill="#727272" fill-rule="evenodd" stroke-linejoin="round" stroke-width=".6"/>
 <rect transform="scale(-1,1)" x="-35" y="9" width="1" height="5" fill="#727272" fill-rule="evenodd" stroke-linejoin="round" stroke-width=".6"/>
 <rect transform="scale(-1,1)" x="-31.5" y="9" width="1" height="5" fill="#727272" fill-rule="evenodd" stroke-linejoin="round" stroke-width=".6"/>
</svg>
