<?xml version="1.0" encoding="UTF-8"?>
<svg width="100%" height="100%" version="1.1" viewBox="0 0 96 96" xmlns="http://www.w3.org/2000/svg">
 <path id="buddhist" d="m47.936 3.9414c-2.207 0.037795-3.9668 1.8535-3.9336 4.0605l0.21094 4.2031c-7.0969 0.74748-13.586 3.57-18.854 7.8457l-2.7832-3.0762c-3.7657-4.0752-9.7275 1.8867-5.6523 5.6523l3.082 2.7891c-4.2608 5.2687-7.074 11.753-7.8105 18.844l-4.1465-0.20703c-5.5443-0.21884-5.5443 8.2131 0 7.9941l4.1602-0.20703c0.75428 7.0578 3.5628 13.513 7.8105 18.76l-3.25 2.9414c-1.6194 1.5713-1.6193 4.1708 0 5.7422 1.5873 1.5339 4.1152 1.4965 5.6523-0.08789l2.9375-3.248c5.2674 4.277 11.757 7.1018 18.854 7.8496l-0.21094 4.2031c-0.21884 5.5443 8.2131 5.5443 7.9941 0l-0.20898-4.2012c7.0753-0.74434 13.547-3.5542 18.805-7.8086l2.8984 3.2031c1.5713 1.6194 4.1708 1.6193 5.7422 0 1.5339-1.5873 1.4964-4.1152-0.08789-5.6523l-3.1992-2.8945c4.2687-5.2567 7.0885-11.732 7.8438-18.812l4.2578 0.21289c2.2562 0.03402 4.0944-1.8044 4.0605-4.0605-0.0378-2.207-1.8535-3.9668-4.0605-3.9336l-4.2441 0.21289c-0.73747-7.1144-3.5615-13.62-7.8438-18.898l3.0293-2.7402c4.0752-3.7657-1.8867-9.7275-5.6523-5.6523l-2.7461 3.0332c-5.2579-4.2525-11.728-7.0607-18.803-7.8047l0.20898-4.2012c0.03402-2.2562-1.8044-4.0944-4.0605-4.0605zm-3.3242 16.266 0.80469 16.09a12 12 0 0 0-3.9023 1.6074l-10.809-11.945c3.9209-3.0772 8.6872-5.1266 13.906-5.752zm6.7754 0c5.1976 0.62139 9.9471 2.6544 13.859 5.709l-10.826 11.963a12 12 0 0 0-3.8359-1.5898zm18.666 10.506c3.0827 3.9329 5.1317 8.7152 5.748 13.951l-16.086 0.80469a12 12 0 0 0-1.6113-3.9434zm-44.139 0.05078 11.959 10.822a12 12 0 0 0-1.5957 3.877l-16.07-0.80273c0.61425-5.212 2.6471-9.9741 5.707-13.896zm22.086 11.236a6 6 0 0 1 6 6 6 6 0 0 1-6 6 6 6 0 0 1-6-6 6 6 0 0 1 6-6zm11.699 8.6328 16.088 0.80274c-0.63235 5.2031-2.6797 9.9552-5.75 13.865l-11.955-10.816a12 12 0 0 0 1.6172-3.8516zm-23.391 0.0039a12 12 0 0 0 1.5684 3.8047l-11.947 10.811c-3.0481-3.8998-5.0787-8.6328-5.709-13.812zm5.2129 7.4492a12 12 0 0 0 3.8945 1.625l-0.80274 16.076c-5.219-0.62506-9.9853-2.6732-13.906-5.75zm12.906 0.04297 10.816 11.951c-3.912 3.0539-8.6606 5.0877-13.857 5.709l-0.80274-16.086a12 12 0 0 0 3.8438-1.5742z" color="#000000" color-rendering="auto" dominant-baseline="auto" fill="#ffb700" image-rendering="auto" shape-rendering="auto" solid-color="#000000" style="font-feature-settings:normal;font-variant-alternates:normal;font-variant-caps:normal;font-variant-ligatures:normal;font-variant-numeric:normal;font-variant-position:normal;isolation:auto;mix-blend-mode:normal;paint-order:normal;shape-padding:0;text-decoration-color:#000000;text-decoration-line:none;text-decoration-style:solid;text-indent:0;text-orientation:mixed;text-transform:none;white-space:normal"/>
</svg>
