<?xml version="1.0" encoding="UTF-8"?>
<svg version="1.1" viewBox="0 0 96 96" xml:space="preserve" xmlns="http://www.w3.org/2000/svg"><circle cx="49" cy="49" r="45" fill="#fdc99a" stroke-width=".9375"/><g transform="matrix(.83346 0 0 .83346 7.9941 7.8278)"><path d="m5.9311 62.776c12.27-7.0115 23.664-24.716 39.44-24.716s28.922 14.198 44.698 24.716c-21.034 5.2587-30.862 12.203-44.698 12.095-13.837-0.10852-27.17-6.8362-39.44-12.095z" fill="#fff" stroke="#000" stroke-linejoin="round" stroke-width="4.7993"/><circle cx="45.987" cy="56.375" r="14.724"/><circle cx="43.035" cy="50.987" r="4.2069" fill="#fff" stroke-width=".99945"/><path d="m48 29.121c25.241-7.9e-5 33.655 8.4138 37.862 12.621 8.4138 0 4.2069-25.241-29.448-25.241-33.655 0-54.69 16.828-50.483 25.241 8.4138 0 16.828-12.621 42.069-12.621z"/></g></svg>
