<?xml version="1.0" encoding="UTF-8"?>
<svg width="100%" height="100%" version="1.1" viewBox="0 0 96 96" xmlns="http://www.w3.org/2000/svg">
 <path id="chinese" d="m40.416 90.502c-3.9321-0.61523-9.2326-2.2998-12.631-4.0142-8.8262-4.4528-17.405-13.857-20.894-22.905-1.6324-4.233-2.8807-9.5603-2.6681-11.387l0.13761-1.1831 12.401-0.45959 0.1386-2.9437c0.09627-2.0442-0.04422-3.0595-0.45931-3.3229-0.32886-0.20863-3.2626-0.3826-6.5195-0.38653l-5.9216-0.007559 0.28086-2.6871c0.15443-1.4779 0.82516-4.4232 1.4904-6.545 5.4706-17.449 20.872-29.514 39.042-30.584 15.302-0.9013 29.862 6.2443 38.436 18.863 3.7529 5.5234 7.231 14.76 7.231 19.202v1.7508h-5.6535c-7.034 0-7.3113 0.15232-7.1181 3.9169l0.14056 2.743 12.401 0.45959 0.14098 1.4547c0.24945 2.5717-1.691 9.4-4.0244 14.162-6.4623 13.188-19.138 22.279-33.588 24.091-4.8022 0.60219-7.415 0.55608-12.363-0.21808zm16.076-7.6314c1.8946-0.48189 4.7662-1.4942 6.3813-2.25 3.1565-1.477 8.7757-5.2828 8.7757-5.9436 0-0.49689-2.2526-2.3066-2.8711-2.3066-0.24794 0-1.4263 0.71614-2.6188 1.5915-4.6304 3.3991-14.268 6.7722-15.171 5.3102-0.59412-0.96132-0.60276-26.458-0.0094-27.567 0.47141-0.88082 0.95108-0.92194 10.762-0.92194 11.485 0 10.827 0.21014 10.827-3.4495 0-3.4213-0.06225-3.44-11.466-3.44-9.1213 0-10.051-0.07219-10.332-0.80379-0.42558-1.1046-0.18338-26.575 0.25954-27.292 0.77787-1.2586 8.8311 1.2403 13.749 4.2662 2.564 1.5776 3.1404 1.5384 4.1136-0.28006 0.63744-1.1911 0.60566-1.3079-0.62249-2.2872-2.0862-1.6634-7.7348-4.2767-11.62-5.3758-4.9331-1.3956-13.492-1.4037-18.595-0.02268-5.4756 1.4875-14.632 6.5993-14.632 8.1688 0 0.83051 2.2977 2.5423 2.9246 2.1788 0.28607-0.16592 1.4141-0.90705 2.5068-1.6472 4.4136-2.9894 12.637-5.9548 14.516-5.234 0.65534 0.25096 0.72194 1.7915 0.61355 14.188l-0.12159 13.906-10.564 0.25096c-5.8102 0.13795-10.625 0.29291-10.7 0.34432-0.07468 0.05102-0.07468 1.4882 0 3.1934l0.1358 3.1003 10.069 0.12397c6.4832 0.08013 10.286 0.30425 10.679 0.63042 0.48242 0.40025 0.61013 3.3818 0.61013 14.244 0 11.879-0.0946 13.774-0.6995 14.006-1.7184 0.65934-9.8907-2.2251-13.823-4.8789-1.1323-0.76411-2.3346-1.3894-2.6718-1.3894-0.81443 0-2.2306 2.2037-1.9261 2.9972 0.4128 1.0757 7.0594 4.6641 10.996 5.9365 6.8894 2.2268 13.496 2.4355 20.526 0.64792zm7.6933-13.781c1.3262-0.9908 2.4114-1.9924 2.4114-2.2258 0-0.23358-1.4985-0.48529-3.33-0.55926l-3.3299-0.13493-0.13878-2.4114-0.13878-2.4113h8.2915c6.5108 0 8.2915 0.12813 8.2915 0.59902 0 0.32957-0.57931 1.5179-1.2874 2.641-0.70803 1.1231-1.436 2.288-1.6177 2.5887-0.4051 0.67041 1.3964 2.4387 2.4845 2.4387 1.4497 0 5.9721-8.2883 6.0983-11.177l0.06361-1.4543-11.712-0.12926c-6.4418-0.07106-12.177-0.01512-12.746 0.12359-1.0207 0.24983-1.0334 0.34772-1.0334 7.9756 0 4.2476 0.12854 7.8514 0.28558 8.0085 0.41329 0.41352 4.6022-1.7765 7.4078-3.8724zm-26.066-4.0191c0-6.6515-0.10371-7.7988-0.72652-8.0378-1.1439-0.43914-23.773-0.31106-24.483 0.13795-0.43881 0.2778-0.53613 0.81037-0.31355 1.7154 0.58371 2.3738 3.4281 7.8292 5.3491 10.259l1.8862 2.3863 1.1058-1.0389c1.4819-1.3922 1.3934-2.0144-0.74438-5.2323-1.0033-1.5103-1.8242-3.0134-1.8242-3.3403 0-0.46912 1.7661-0.56799 8.3823-0.46912l8.3823 0.12548 0.14449 1.7544c0.21007 2.5513-0.44285 3.0683-3.8751 3.0683-2.0372 0-2.9292 0.17537-2.9292 0.57411 2.6e-5 1.1769 7.0339 5.8291 8.8416 5.8478 0.73412 0.0076 0.80378-0.66418 0.80378-7.7507zm0-35.217v-8.0688l-1.0334 0.30841c-2.7566 0.82235-8.774 5.0041-8.4812 5.894 0.09487 0.288 1.5857 0.62177 3.3501 0.74918l3.1791 0.2298 0.14449 1.7544c0.24525 2.9788-0.0079 3.0683-8.6707 3.0683-4.9791 0-7.8325-0.17424-8.0278-0.49028-0.16668-0.2691 0.47485-1.7504 1.4256-3.2906l1.7285-2.8004-1.3084-1.0432c-0.89049-0.7101-1.5378-0.9191-2.0268-0.65465-0.93965 0.5082-3.499 4.7751-4.8828 8.1403-1.9099 4.6447-2.9327 4.2725 11.743 4.2725h12.861zm44.093 6.9621c0-1.6634-4.2987-9.8582-6.4065-12.213-1.8045-2.016-1.8676-2.0443-2.5644-1.1483-1.3443 1.7286-1.3121 2.857 0.13395 4.6972 1.9226 2.4464 3.028 4.7402 2.526 5.2422-0.23002 0.2298-3.9162 0.36132-8.1917 0.2914l-7.7737-0.12624-0.13878-2.4114-0.13882-2.4114h2.9824c3.7695 0 4.2029-0.60835 1.8495-2.5959-2.2825-1.9276-6.9371-4.4364-7.5399-4.0639-0.27677 0.17121-0.45917 3.3746-0.45917 8.0648v7.781h25.721z" fill="#fa1313" stroke-width=".4593"/>
</svg>
