<svg xmlns="http://www.w3.org/2000/svg" width="194" height="194">
  <g stroke="#fa1313" fill="none">
    <path d="M66,62h-25a70 70 0 0 1 43,-30v51h-75a89 89 0 0 1 176 0 h-75v-51a70 70 0 0 1 43,30h-25m0,70h25a70 70 0 0 1 -43,30v-52h75a89 89 0 0 1 -176 0 h75v52a70 70 0 0 1 -43,-30h25" stroke-width="11" stroke-linejoin="round" stroke-linecap="round"/>
    <path d="M35,37l13,13m105,-13l-13,13m18,37v20m-11,36l13,13m-110,-10l-13,13m0,-72v20m-24,-30a86.5 86.5 0 0 1 168 0 m0,39a86 86 0 0 1 -168 0" stroke-width="13"/>
  </g>
</svg>