<?xml version="1.0" encoding="UTF-8"?>
<svg width="100%" height="100%" version="1.1" viewBox="0 0 96 96" xmlns="http://www.w3.org/2000/svg">
 <path d="m92.873 71.826c-2.0821 1.4742-11.943 7.7465-16.593 4.9683-10.623-9.1353-21.122-29.383-24.872-42.105 0.49996 29.716-0.25009 44.855-0.25009 47.418-0.67852 7.4934-4.5607 9.4018-7.7487 9.4368-4.0021 0.03024-10.855-10.035-13.5-13.749 0.99269-2.88 12.451 4.9922 13.155 4.5625 3.3504-19.028 1.078-45.71 1.078-66.229 0-4.9371-1.3437-8.4524-1.7812-10.546 2.6081 0.38468 9.2113-0.32088 10.812 1.3124-2.8233 11.945 2.3521 24.66 7.7568 34.178 6.4753-7.4572 13.111-11.903 16.616-20.32 2.0623 1.1874 5.2965 2.8592 6.7027 4.0153 1.2695 1.1517 0.66857 1.8994-0.3281 2.6248-6.6827 5.8109-13.433 13.274-19.92 18.608 7.9681 11.686 17.592 20.295 28.873 25.826zm-77.352 1.3903c-2.7117 1.5568-8.4295 2.6326-10.484 1.4065 13.374-9.1867 22.717-21.764 28.029-37.731-7.3142-0.67552-14.021 1.5716-21.029 3.3125-1.5347-0.81876-4.3654-7.6195-3.125-8.3901 10.465 1.7805 20.981-1.3133 29.505-3.4659 2.1151 0.81026 3.8755 5.5081 3.9515 7.2937-3.5991 14.892-18.094 30.635-26.847 37.575z"/>
</svg>
