<?xml version="1.0" encoding="UTF-8"?>
<svg width="100%" height="100%" version="1.1" viewBox="0 0 96 96" xmlns="http://www.w3.org/2000/svg">
 <path d="m3 30.23c1.1006 3.535 4.699 6.182 7.7007 6.7621 2.4599-0.29168 3.9255-1.6152 6.0103-3.0051 4.2772 14.732-2.2624 37.946 1.3147 49.773 1.4063 2.1789 3.8763 2.6923 5.0712 0.37527-0.05089-16.846 2.0823-39.068 0.37564-54.281-0.12521-0.75145-0.50085-1.5025-1.1269-2.2538 3.7831-4.4719 6.4031-9.6224 8.8277-14.462 0.51357-1.6116 1.4321-3.7903-1.5341-2.9519-9.1924 12.674-13.587 14.005-26.639 20.044zm55.22-13.899v5.2591c-7.8165-0.65877-14.999 1.5233-21.975-0.93882-5.1193-0.18355-5.5604 2.8698-4.5078 6.9498 1.1866 4.0872 0.4625 8.5107 1.3147 12.772 1.548 0.44615 2.5087 0.48613 3.7565-0.56336 1.8065-3.8113 0.8136-7.8697 1.5026-11.645 6.972-1.6973 13.46-1.6901 20.473-1.6901-0.09577 4.1473-0.93005 8.4264-0.93909 12.209-0.40998 4.3553 4.7625 6.4813 5.8224 2.4417 0.25042-1.3774 0.43824-2.6921 0.56345-3.9443-0.62806-3.4055-0.47595-7.2942 0-10.706 7.0132 0.03635 13.893-0.13175 20.285 1.1273l-0.18782 11.457c1.2935 1.6342 3.54 1.4659 4.6956 0 1.0525-3.9728 0.02817-8.9872 2.2538-12.396 0.81996-1.9498 1.4378-3.585-0.56345-4.5079-8.798 0.38072-17.949-0.33711-26.483-0.93909 0.0845-1.6646-0.20499-3.4998 0.18782-5.0714 5.3973-0.08178 10.734 0.37073 15.777 0.37618 3.0792-1.2737 3.9616-3.4945 3.3808-6.0102-15.665 1.958-31.572-1.4173-39.735 0.18082-8.1634 1.5979-5.342 2.9573-4.9721 4.6952s1.4565 1.8001 4.7868 1.0946c3.3303-0.70602 9.5921-0.1681 14.565-0.14993zm11.082 13.711c-1.7224 0.2626-1.7984 2.53-1.5025 3.7573 3.4844 0.54065 8.3752 0.4307 11.457-0.37618 1.6321-0.95572 1.2843-2.1196 0.92388-2.7503zm-15.214 3.7541c1.3316-0.82687 1.9568-2.0289 0.69748-3.1883-4.2529 0.41344-10.427-1.6316-12.465 0.38981-1.3999 1.6611-0.751 2.9184 1.6239 3.3627s6.9842-0.12358 10.144-0.56427zm-10.706 3.383c-1.6309 1.3222-1.85 2.2398-1.6904 3.7559 2.7004 1.1172 8.7385 1.1513 11.645 0 1.5122-1.017 1.3815-2.1431 0.87857-2.6679zm25.168 4.5074c3.7771-0.03635 7.9496-0.68421 11.269-0.93863 1.5738-2.1757-0.44078-2.7841-1.628-2.6367-8.3452-0.36073-9.7843-2.3699-10.562-0.66695-0.7778 1.7032-0.76626 3.2526 0.9207 4.2421zm23.478 3.0054c-18.739 5.2939-39.734-2.0082-56.723 1.1267-3.0316 0.77235-4.1976 4.1668-1.8782 6.0102 8.1484-0.8723 16.608-1.5323 24.229-1.5019 6e-3 2.0387-0.92022 4.0342-1.8782 5.4467-4.9273 2.0069-15.037-2.7986-18.407 0.37618-1.0298 5.7535 0.06633 11.539-1.3148 16.904-0.53628 3.3538-3.7099 4.1772-4.6956 6.3855 10.382 17.19 11.102-13.28 11.457-17.843 3.3108-0.72692 6.2849-0.37527 9.579-0.37527 0.49985 5.1081 0.03089 10.583-0.56345 15.402-0.13266 2.8881 0.19781 5.2354 1.6904 7.5129 6.0309-0.2526 4.2873-19.013 4.3198-23.103 2.9076-0.59062 5.7898-0.16174 8.6399 0v18.594c0.46168 5.3878 5.423 4.6144 5.4468-0.37618-0.3392-6.1734 0-12.052 0-18.219 3.1845 0.39617 7.2526-0.96798 9.7668 1.1272-0.02999 5.1817-3.0531 16.349 1.1269 20.661 5.3897 2.3268 5.2224-5.7625 4.5077-9.2033-0.98115-4.9612 0.18982-9.7513 1.6904-14.275-0.41416-3.2829-2.2492-3.8841-5.0712-3.1936-7.4932-0.42434-16.397 0.99652-22.351-0.56336 1.2036-1.9133 3.1688-2.9566 3.193-5.2589 7.2441 0.01817 14.607 0.23625 21.036 2.2537 3.8539-1.6788 8.2301-4.0113 6.1982-7.8875z"/>
</svg>
