<?xml version="1.0" encoding="UTF-8"?>
<svg width="128" height="128" version="1.1" viewBox="0 0 33.867 33.867" xmlns="http://www.w3.org/2000/svg">
 <g transform="translate(0 -229.27)">
  <ellipse cx="16.933" cy="246.2" rx="16.933" ry="16.933" fill="#808080" style="paint-order:fill markers stroke"/>
  <g transform="matrix(.033448 0 0 -.033448 15.36 261.17)" fill="#fff" style="paint-order:stroke fill markers">
   <path d="m343.69 596.88c-21.97 0-39.789-17.815-39.789-39.789 0-21.974 17.819-39.782 39.789-39.782 21.974 0 39.789 17.808 39.789 39.782 0 21.974-17.815 39.789-39.789 39.789zm-41.624-94.045c-40.257-15.056-71.298-40.639-71.648-83.197 0-10.895 8.8301-19.718 19.725-19.718 10.897 0 19.73 8.8236 19.732 19.718 0.32704 10.877 4.9385 20.111 11.679 27.489 0.21174-9.6905 1.7579-20.569 5.0919-32.639-2.0532-3.4182-2.9106-8.5627-2.1018-16.085-6.9609-40.057-51.124-66.12-79.593-79.051-9.9581-4.4242-14.448-16.087-10.025-26.045 4.4274-9.9573 16.087-14.449 26.045-10.025 37.78 19.676 85.831 51.413 99.664 93.085 31.384-14.631 60.752-47.5 66.043-77.838 1.5381-10.787 11.538-18.273 22.325-16.735 10.787 1.5413 18.283 11.524 16.742 22.311-8.1825 48.687-41.8 84.715-83.731 105.83-12.146 5.2176-13.107 33.568-12.423 43.791 36.789-20.885 74.505-30.211 111.83-11.896 9.7473 4.8709 13.69 16.726 8.8188 26.471-4.8741 9.7442-16.711 13.693-26.456 8.8188-43.87-21.688-71.192 11.524-94.276 24.968-8.2572 5.7845-19.233 5.8018-27.439 0.75115z" fill="#fff" style="paint-order:stroke fill markers"/>
  </g>
  <rect x="15.875" y="229.27" width="2.1167" height="33.867" fill="#fff" style="paint-order:markers fill stroke"/>
  <path d="m6.6028 247.4a2.1353 2.1262 0 0 1-2.1353 2.1262 2.1353 2.1262 0 0 1-2.1353-2.1262 2.1353 2.1262 0 0 1 2.1353-2.1262 2.1353 2.1262 0 0 1 2.1353 2.1262zm6.9586-2.6e-4a2.1353 2.1262 0 0 1-2.1353 2.1262 2.1353 2.1262 0 0 1-2.1353-2.1262 2.1353 2.1262 0 0 1 2.1353-2.1262 2.1353 2.1262 0 0 1 2.1353 2.1262zm-7.9068-3.2747 2.6988 3.2631h3.0844l-2.1205-3.2631h-3.6627m2.6988 3.2631 0.96386-4.0308m0 0 0.93952-2e-3m-5.7588 4.0328 1.6067-4.7631h1.5422" fill="none" stroke="#fff" stroke-linecap="round" stroke-linejoin="round" stroke-width=".85781" style="paint-order:normal"/>
 </g>
</svg>
