<?xml version="1.0" encoding="UTF-8"?>
<svg width="128" height="128" version="1.1" viewBox="0 0 33.867 33.867" xmlns="http://www.w3.org/2000/svg">
 <g transform="translate(0 -229.27)">
  <ellipse cx="16.933" cy="246.2" rx="16.933" ry="16.933" fill="#808080" style="paint-order:fill markers stroke"/>
  <path d="m24.576 247.4a2.1353 2.1262 0 0 1-2.1353 2.1262 2.1353 2.1262 0 0 1-2.1353-2.1262 2.1353 2.1262 0 0 1 2.1353-2.1262 2.1353 2.1262 0 0 1 2.1353 2.1262zm6.9586-2.6e-4a2.1353 2.1262 0 0 1-2.1353 2.1262 2.1353 2.1262 0 0 1-2.1353-2.1262 2.1353 2.1262 0 0 1 2.1353-2.1262 2.1353 2.1262 0 0 1 2.1353 2.1262zm-7.9068-3.2747 2.6988 3.2631h3.0844l-2.1205-3.2631h-3.6627m2.6988 3.2631 0.96386-4.0308m0 0 0.93952-2e-3m-5.7588 4.0328 1.6067-4.7631h1.5422" fill="none" stroke="#fff" stroke-linecap="round" stroke-linejoin="round" stroke-width=".85781" style="paint-order:normal"/>
  <rect transform="scale(-1,1)" x="-17.992" y="229.27" width="2.1167" height="33.867" fill="#fff" style="paint-order:markers fill stroke"/>
  <path d="m8.4103 241.21c-0.73486 0-1.3309 0.59587-1.3309 1.3309 0 0.735 0.596 1.3306 1.3309 1.3306 0.735 0 1.3309-0.59562 1.3309-1.3306 0-0.73499-0.59587-1.3309-1.3309-1.3309zm-1.3922 3.1456c-1.3465 0.5036-2.3848 1.3593-2.3965 2.7828 0 0.36441 0.29535 0.65951 0.65976 0.65951 0.36449 0 0.65992-0.29513 0.66-0.65951 0.010939-0.36381 0.16518-0.67266 0.39063-0.91945 0.00708 0.32412 0.058798 0.68799 0.17031 1.0917-0.068676 0.11433-0.097354 0.2864-0.0703 0.53799-0.23283 1.3398-1.71 2.2116-2.6622 2.6441-0.33308 0.14798-0.48327 0.53808-0.33531 0.87113 0.14809 0.33305 0.53809 0.4833 0.87114 0.33532 1.2636-0.65812 2.8709-1.7196 3.3336-3.1135 1.0497 0.48937 2.032 1.5888 2.209 2.6035 0.051447 0.36079 0.38593 0.61119 0.74672 0.55974 0.36079-0.0515 0.61154-0.38545 0.55998-0.74624-0.27369-1.6285-1.3981-2.8335-2.8006-3.5396-0.40626-0.17452-0.43841-1.1228-0.41552-1.4647 1.2305 0.69856 2.492 1.0105 3.7404 0.39789 0.32603-0.16292 0.45789-0.55944 0.29497-0.88539-0.16303-0.32593-0.55896-0.458-0.88491-0.29497-1.4674 0.72543-2.3812-0.38546-3.1533-0.83514-0.27619-0.19348-0.64332-0.19406-0.91776-0.0251z" fill="#fff" style="paint-order:stroke fill markers"/>
 </g>
</svg>
