<?xml version="1.0" encoding="UTF-8"?>
<svg version="1.1" viewBox="0 0 36 36" xmlns="http://www.w3.org/2000/svg">
 <path d="m33 30c1 0 1-1 1-4 0-0.692 0-2.862-0.041-4.138-0.02-0.604-0.81-1.862-1.959-1.862h-12v-6c0-1.058-0.235-2-2-2h-5c-3 0-6 8-6 8s-6 0-6 3v3s-1 0.338-1 1.957 1 2.043 2 2.043z" fill="#dd2e44"/>
 <circle cx="10" cy="30" r="5" fill="#292F33"/>
 <circle cx="10" cy="30" r="2.5" fill="#CCD6DD"/>
 <circle cx="26" cy="30" r="5" fill="#292F33"/>
 <circle cx="26" cy="30" r="2.5" fill="#CCD6DD"/>
 <path d="M10 19c0 1 .448 1 1 1h5c.553 0 1-.448 1-1v-4c0-.552-.447-1-1-1h-3c-1 0-3 4-3 5z" fill="#BBDDF5"/>
 <path d="m21 12v9h2v-7h2.4121l3.8867 7h2.291l-5.002-9h-5.5879z" fill="#99AAB5"/>
 <path d="M36 21.5c0 .828-.672 1.5-1.5 1.5H20v-3h14.5c.828 0 1.5.671 1.5 1.5z" fill="#F492A9"/>
 <path d="m1 23h1v3h-1z" fill="#99aab5"/>
 <path d="m2 30h-1c-0.55 0-1-0.45-1-1v-2c0-0.55 0.45-1 1-1h1c0.55 0 1 0.45 1 1v2c0 0.55-0.45 1-1 1zm32 0h-1c-0.55 0-1-0.45-1-1v-2c0-0.55 0.45-1 1-1h1c0.55 0 1 0.45 1 1v2c0 0.55-0.45 1-1 1z" fill="#ccd6dd"/>
</svg>
