<?xml version="1.0" encoding="UTF-8"?>
<svg version="1.1" viewBox="0 0 256 256" xmlns="http://www.w3.org/2000/svg">
 <g transform="matrix(2.2937 0 0 2.2937 -.32113 -613.58)">
  <circle cx="55.945" cy="323.32" r="54.062" fill="#fff" style="paint-order:fill markers stroke"/>
  <circle cx="55.945" cy="323.32" r="49.702" fill="#25b" style="paint-order:fill markers stroke"/>
  <path d="m22.587 288.87 66.281 66.281" fill="none" stroke="#c1121c" stroke-width="13.951"/>
  <circle cx="55.946" cy="323.32" r="45.567" fill="none" stroke="#c1121c" stroke-width="13.501"/>
 </g>
 <g aria-label="16-31">
  <path d="m147.74 95.736c-0.82624 2.2241-3.0062 3.7576-5.2695 4.6992v3.2305c1.7647-0.58261 3.2974-1.4814 4.5977-2.6973v13.412h3.5605v-18.645zm15.008 0c-4.7606 0.06844-6.8401 4.8623-6.7871 9.6133 0.0272 3.8758 1.2173 8.8788 6.4336 9.3477 3.3324-0.0421 5.7809-2.6325 5.9648-6.2949-0.0339-2.9633-1.9844-5.7661-5.4082-6.0801-1.3172 0-2.4181 0.52525-3.3047 1.5723 0.1351-2.1362 0.45955-3.5433 0.97461-4.2187 1.2877-1.8117 3.497-1.3914 3.9512 1.0644l3.4453-0.38085c-0.25331-1.503-0.84463-2.6464-1.7734-3.4316-0.92035-0.7937-2.086-1.1914-3.4961-1.1914zm22.178 0c-1.7359 0.01264-3.4954 0.66392-4.6992 2.166-0.45595 0.66705-0.79741 1.5625-1.0254 2.6855l3.2812 0.55664c0.29903-1.2214 0.78208-2.3241 2.3418-2.4824 1.103 0.26368 1.9373 0.62149 2.0391 2.0527-0.35222 1.5028-1.0892 2.3846-2.9629 2.3926l-0.39258 2.9004c2.0903-0.44726 3.9172-8e-3 4.1152 2.6484-0.0354 3.4334-4.7075 4.2732-5.2422 0.37891l-3.4453 0.41796c0.37468 2.9792 2.8166 5.0761 6.1055 5.2442 3.165-0.0394 5.9243-2.3396 6.2305-5.8887-0.0223-2.0295-1.3283-3.8086-3.5078-4.4082 1.7816-0.97101 2.6719-2.2708 2.6719-3.9004-0.0411-2.8357-2.6403-4.532-5.5098-4.7637zm14.793 0c-0.82624 2.2241-3.0042 3.7576-5.2676 4.6992v3.2305c1.7647-0.58261 3.2973-1.4814 4.5976-2.6973v13.412h3.5586v-18.645zm-37.324 9.209c3.1474-0.0107 3.7569 6.8404 0.17773 6.8008-3.2114-0.0356-3.9432-6.788-0.17773-6.8008zm8.3594 0.92383v3.5586h6.9902v-3.5586z" fill="#fff" stroke-width=".64847"/>
 </g>
 <g aria-label="1-15">
  <path d="m73.422 155.27c-0.82624 2.2241-3.0062 3.7576-5.2695 4.6992v3.2285c1.7647-0.58261 3.2973-1.4814 4.5977-2.6973v13.412h3.5586v-18.643zm23.102 0c-0.82624 2.2241-3.0062 3.7576-5.2695 4.6992v3.2285c1.7647-0.58261 3.2973-1.4814 4.5977-2.6973v13.412h3.5586v-18.643zm10.525 0.33008-1.8242 9.6621 2.8867 0.41797c5.6704-6.1688 7.8149 8.6635 1.1289 5.0039-0.49817-0.47285-0.79907-1.11-0.90039-1.9121l-3.5469 0.36719c1.0696 7.2417 12.571 6.2814 12.488-1.457-0.046-3.9933-3.8039-7.4384-8.0918-5.5976l0.55664-3.1543h6.7129v-3.3301zm-25.053 9.8027v3.5586h6.9922v-3.5586z" fill="#fff" stroke-width=".64847"/>
 </g>
</svg>
