<?xml version="1.0" encoding="UTF-8"?>
<svg id="SVGRoot" version="1.1" viewBox="0 0 160 240" xmlns="http://www.w3.org/2000/svg">
 <path d="m24 36c-4 56-4 120 0 182 0 28 112 28 112 0 4-62 4-122 0-182 0-12-8-24-16-24-24-16-56-16-80 0-8 0-16 12-16 24z" fill="#637797" stroke-width="3.7795"/>
 <path d="m48 196c-12.66-13.083-11.582-73.136-4-104l-12-32 3.8e-5 -24c0-16 8-20 24-20l1.51e-4 16 7.9998-20c11.503-5.4595 22.018-5.212 32 0l8.0002 20-1.5e-4 -16c16 0 24 4 24 20l-4e-5 24-12 32c8.5598 29.598 8.4478 88.478-4 104l-32.632 16.034z" fill="#778aa3" stroke-width="3.7795"/>
 <path d="m32 60c31.562-20.814 63.541-21.847 96 0l-12 32c-24.463-11.007-48.434-10.322-72 0z" fill="#202932" stroke-width="3.7795"/>
 <path d="m132 68 2 7e-6 4e-5 68h-12c0-8-4-36-4-36z" fill="#202932" stroke-width="3.7795"/>
 <path d="m48 196c23.566 5.1608 39.537 5.5036 64 0l16 20c-31.708 10.677-63.688 10.657-96 0z" fill="#202932" stroke-width="3.7795"/>
 <path d="m128 76 20 1.1e-5c0-4-8-12-16-12z" fill="#637797"/>
 <path d="m56 104h48v28h-48z" fill="#202932"/>
 <path d="m40 10v4s-8 4-12 8c0-8 7.0368-11.994 12-12z" fill="#c58100" stroke="#905e00" stroke-width="2"/>
 <path d="m40 14c8-4 16-4 16-4l1.51e-4 -6s-12 2-16 6z" fill="#c7c7c7" stroke="#808080" stroke-width="2"/>
 <path d="m120 10v4s8 4 12 8c0-8-7.0368-11.994-12-12z" fill="#c58100" stroke="#905e00" stroke-width="2"/>
 <path d="m120 14c-8-4-16-4-16-4l1.9e-4 -6s12 2 16 6z" fill="#c7c7c7" stroke="#808080" stroke-width="2"/>
 <path d="m93.375 45.321c-15.469 11.132-19.648 23.777-21.661 39.125-5.5132 0.36503-15.092 2.11-27.714 7.5536l-12-32c16.691-10.8 37.101-19.327 61.375-14.679z" fill="#fff" fill-opacity=".1" stroke-width="3.7795"/>
 <path d="m48 196-16 20c15.536 4.8408 27.561 7.9323 48 8-7.6318-8.8759-3.9998-24-3.9998-24-11.162-0.48713-18.396-1.6398-28-4z" fill="#fff" fill-opacity=".1"/>
 <path d="m32 76-20 1.1e-5c0-4 8-12 16-12z" fill="#637797"/>
 <path d="m52 236c4 0 0-10-4-10l-16-4c-2.6031 2.2185 0 6 0 6 4 4 12 8 20 8z" fill="#bf4040" stroke="#822b2b" stroke-width="2"/>
 <path d="m122 144h12c0.38071 18.667-0.72219 37.333-2 56l-16-8c3.6562-14.325 5.8806-29.713 6-48z" fill="#202932"/>
 <path d="m28 68-2 7e-6 -3.8e-5 68h12c0-8 4-36 4-36z" fill="#202932" stroke-width="3.7795"/>
 <path d="m38 144h-12c-0.38071 18.667 0.72219 37.333 2 56l16-8c-3.6562-14.325-5.8806-29.713-6-48z" fill="#202932"/>
 <path d="m108 236c-4 0 0-10 4-10l16-4c2.6032 2.2185 0 6 0 6-4 4-12 8-20 8z" fill="#bf4040" stroke="#822b2b" stroke-width="2"/>
</svg>
