<?xml version="1.0" encoding="UTF-8"?>
<svg width="256" height="256" enable-background="new 0 -0.321 144 120" version="1.1" viewBox="0 -.321 256 256" xml:space="preserve" xmlns="http://www.w3.org/2000/svg">



















<g transform="matrix(.98744 0 0 .98744 .0042607 .00041684)"><path d="m55.189 3.7254h148.87c13.665 0 24.812 9.4024 24.812 20.93v209.3c0 11.527-11.146 20.927-24.812 20.927h-148.87c-13.665 0-24.812-9.4-24.812-20.927v-209.3c0-11.383 11.315-20.93 24.812-20.93" fill="#fff"/><path d="m56.889 11.851h145.46c10.085 0.0332 18.326 6.9183 18.392 15.286v204.5c-0.0658 8.372-8.3064 15.077-18.392 15.12h-145.46c-10.06-0.0428-18.352-6.7481-18.386-15.12v-204.5c0.0343-8.3673 8.3264-15.252 18.386-15.286" fill="none" stroke="#c1121c" stroke-width="8.1492"/><path d="m147.21 36.468c-5.1984 0-8.388 2.2884-10.746 7.695-1.8716 4.368-2.632 9.0791-2.632 16.152 0 7.07 0.69196 11.509 2.5636 16.015 2.2881 5.5446 5.476 7.9133 10.815 7.9133 5.1983 0 8.454-2.3721 10.742-7.8491 1.8716-4.506 2.5679-8.9415 2.5679-16.079 0-7.0727-0.69624-11.44-2.5679-15.946-2.3557-5.6149-5.4735-7.9004-10.742-7.9004zm-48.455 0.76179v46.251h6.5138v-30.998l13.866 30.998h4.9217v-46.251h-6.5181v27.66l-12.27-27.66zm48.455 5.6835c2.7046 0 4.4358 1.7372 5.615 5.7563 1.0386 3.397 1.3866 6.4442 1.3866 11.645 0 5.266-0.34803 8.1108-1.3866 11.786-1.1089 3.8812-2.9104 5.6835-5.615 5.6835-2.8399 0-4.5735-1.8048-5.6878-5.7563-1.0359-3.6053-1.3824-6.5848-1.3824-11.645 0-5.1983 0.34648-8.2496 1.3824-11.855 1.1143-3.8812 2.9155-5.615 5.6878-5.615zm49.217 53.634c-4.3707 0-7.0726 1.9389-8.598 6.0986-1.593 4.2977-2.08 8.39-2.08 17.748 0 9.4284 0.48792 13.517 1.943 17.812 1.5254 4.2977 4.1587 6.1158 8.735 6.1158 4.0894 0 7.2111-2.0221 8.1144-5.2812 0.4138-1.4551 0.69331-3.88 0.69331-6.0302v-11.855h-8.3883v6.0344h2.632v6.0987c0 3.1888-1.1786 4.9902-3.2612 4.9902-2.0069 0-3.1836-1.5242-3.6678-4.575-0.62478-3.8812-0.83454-7.0001-0.83454-13.31 0-6.3776 0.20624-9.4983 0.89872-13.242 0.55447-3.0481 1.8746-4.5751 3.9545-4.5751 1.5957 0 2.6344 1.1095 2.9102 3.0515h5.7563c-0.62477-5.8231-3.7473-9.0816-8.8077-9.0816zm-70.128 0.75752v46.256h5.752v-17.346l2.1527-4.5708 6.0944 21.917h6.2399l-8.2471-30.309 7.4896-15.946h-6.5908l-7.1386 14.774v-14.774zm-71.583 0.0045v46.247h5.7477v-20.179h3.0515c6.3776 0 10.678-5.065 10.678-12.689 0-4.9198-1.6668-9.3565-4.3012-11.504-1.4551-1.1792-3.7425-1.8745-6.3768-1.8745zm28.109 0-9.2871 46.251h6.0344l2.4908-12.283h7.4896l2.4908 12.283h6.0344l-9.2913-46.252zm18.758 0v46.247h5.752v-21.638h2.6363l5.0587 21.638h5.8932l-4.575-23.094c3.3916-2.1502 4.7163-4.9942 4.7163-10.263 0-8.5251-3.608-12.891-10.678-12.891zm48.464 0v46.247h5.752v-46.247zm10.99 0v46.247h5.752v-27.463l8.8719 27.463h4.8532v-46.247h-5.752v23.085l-7.9732-23.085zm-53.702 6.0302h2.8418c3.8839 0 4.9945 1.526 4.9945 6.792 0 4.3707-0.97569 5.7563-4.0914 5.7563h-3.7448zm-46.872 4e-3h3.0515c3.2564 0 4.7848 2.2818 4.7848 7.4125-1e-5 4.8521-1.2471 6.5865-4.7848 6.5865h-3.0515zm25.345 9.7022 2.4951 12.202h-4.9902z" fill="#c1121c" fill-rule="evenodd"/><path d="m103.87 153.13-7.5324 30.836h4.3439l2.08-8.4696h6.4196l2.0842 8.4696h4.3397l-7.5324-30.836zm16.961 0v30.836h4.3482v-20.667l9.24 20.667h3.2826v-30.836h-4.3482v18.441l-8.1743-18.441zm22.092 0 7.4382 16.866v13.969h4.3482v-13.969l7.4382-16.866h-4.6221l-4.9902 11.183-4.9902-11.183zm-36.973 9.1501 2.1741 8.919h-4.3439zm-16.511 31.375v4.1128h5.5936v26.723h4.3397v-26.723h5.4567v-4.1128zm23.124 0v30.831h4.3397v-30.831zm13.366 0v30.831h4.3439v-17.337l5.6407 17.337 5.6364-17.337v17.337h4.3482v-30.831h-4.3482l-5.6364 17.333-5.6407-17.333zm28.991 0v30.836h15.39v-4.3097h-11.046v-10.164h6.2399v-4.2969h-6.2399v-7.7678h9.8434v-4.2969z" fill="#c1121c" fill-rule="evenodd"/></g></svg>
