<?xml version="1.0" encoding="UTF-8"?>
<svg width="256" height="256" enable-background="new 0 -0.321 144 120" version="1.1" viewBox="0 -.321 256 256" xml:space="preserve" xmlns="http://www.w3.org/2000/svg">



















<g transform="matrix(.98744 0 0 .98744 .0042607 .00041684)"><path d="m55.189 3.7254h148.87c13.665 0 24.812 9.4024 24.812 20.93v209.3c0 11.527-11.146 20.927-24.812 20.927h-148.87c-13.665 0-24.812-9.4-24.812-20.927v-209.3c0-11.383 11.315-20.93 24.812-20.93" fill="#fff"/><path d="m56.889 11.851h145.46c10.085 0.0332 18.326 6.9183 18.392 15.286v204.5c-0.0658 8.372-8.3064 15.077-18.392 15.12h-145.46c-10.06-0.0428-18.352-6.7481-18.386-15.12v-204.5c0.0343-8.3673 8.3264-15.252 18.386-15.286" fill="none" stroke="#c1121c" stroke-width="8.1492"/><path d="m153.44 28.002c-7.0406 0-11.361 3.0994-14.554 10.422-2.5349 5.916-3.5648 12.297-3.5648 21.876 0 9.5755 0.93719 15.588 3.4721 21.691 3.099 7.5095 7.4166 10.718 14.648 10.718 7.0405 0 11.45-3.2127 14.549-10.631 2.5349-6.1029 3.4779-12.11 3.4779-21.777 0-9.5792-0.94298-15.494-3.4779-21.597-3.1905-7.6048-7.4132-10.7-14.549-10.7zm-65.627 1.0318v62.642h8.8222v-41.983l18.78 41.983h6.6659v-62.642h-8.828v37.462l-16.618-37.462zm65.627 7.6977c3.6631 0 6.0078 2.3528 7.6049 7.7963 1.4067 4.6009 1.878 8.728 1.878 15.772 0 7.1322-0.47137 10.985-1.878 15.963-1.5019 5.2567-3.9418 7.6977-7.6049 7.6977-3.8463 0-6.1943-2.4444-7.7035-7.7963-1.403-4.883-1.8723-8.9184-1.8723-15.772 0-7.0405 0.46927-11.173 1.8723-16.056 1.5092-5.2567 3.9487-7.6049 7.7035-7.6049z" fill="#c1121c" fill-rule="evenodd" stroke-width="1.3544"/></g><g transform="scale(.84784 1.1795)" fill="#c1121c" aria-label="ESTACIONE"><path transform="matrix(1.1795 0 0 .84784 0 -.27216)" d="m75.812 108.06c-2.0746 0-3.6963 1.0815-4.8633 3.2461-1.1346 2.1646-1.7012 4.6222-1.7012 7.373 0 1.398 0.20945 2.9544 0.63086 4.668 0.45382 1.6685 1.1353 3.2908 2.043 4.8691 1.2318 2.1195 2.6257 4.8039 4.1816 8.0508 1.5884 3.2469 2.35 5.8615 2.2852 7.8457-0.03242 3.1116-0.90696 4.7571-2.625 4.9375-1.9125-0.13529-2.902-2.2092-2.9668-6.2227h-4.3262c0.09725 3.5625 0.74397 6.4718 1.9434 8.7266 1.2318 2.2548 3.0157 3.3809 5.3496 3.3809 2.4636 0 4.2455-1.0583 5.3477-3.1777 1.1346-2.1195 1.7031-4.6682 1.7031-7.6445 0-2.7057-0.56857-5.5685-1.7031-8.5898-1.1346-3.0665-2.8672-6.4932-5.2012-10.281-0.71315-1.1274-1.2653-2.2554-1.6543-3.3828s-0.56757-2.2109-0.53516-3.248c0-3.0665 0.7452-4.6209 2.2363-4.666 1.5235-0.0451 2.3344 1.5326 2.4316 4.7344h4.2305c-0.03242-3.2018-0.72838-5.7718-2.0898-7.7109-1.3615-1.9391-2.9339-2.9082-4.7168-2.9082zm53.729 0c-2.4636 0-4.3112 1.601-5.543 4.8027-1.2318 3.2018-1.8805 9.4235-1.9453 18.668 0.0648 8.6132 0.64786 14.68 1.75 18.197 1.1021 3.4723 3.0154 5.207 5.7383 5.207 1.7504 0 3.2737-0.92453 4.5703-2.7734 1.329-1.894 1.9941-4.5765 1.9941-8.0488h-4.0371c-0.1945 2.9312-1.0034 4.3965-2.4297 4.3965-0.94006 0.0902-1.7181-0.60756-2.334-2.0957s-1.0223-6.4268-1.2168-14.814c0.1945-8.9739 0.56807-14.205 1.1191-15.693 0.58348-1.4881 1.3123-2.2092 2.1875-2.1641 1.718 0.0451 2.609 1.555 2.6738 4.5312h4.0371c0-3.2468-0.69792-5.7491-2.0918-7.5078-1.3615-1.8038-2.8519-2.7051-4.4726-2.7051zm29.678 0c-2.8526 0-4.8623 1.8491-6.0293 5.5469-1.167 3.6978-1.75 9.6714-1.75 17.924 0 7.9367 0.58303 13.844 1.75 17.723 1.167 3.8331 3.1767 5.75 6.0293 5.75 2.8526 0 4.8623-1.9169 6.0293-5.75 1.167-3.8782 1.75-9.7859 1.75-17.723 0-8.2524-0.58303-14.226-1.75-17.924-1.167-3.6978-3.1767-5.5469-6.0293-5.5469zm-106.27 0.74414v45.32h12.449v-5.8848h-8.3633v-15.896h5.2988v-6.0195h-5.2988v-11.635h7.9258v-5.8848zm33.002 0v5.8848h4.0352v39.436h4.1328v-39.436h4.2793v-5.8848zm21.891 0-6.7578 45.32h4.2285l1.8476-12.107h5.3496l1.8477 12.107h4.3281l-6.7598-45.32zm34.039 0v45.32h4.0859v-45.32zm29.949 0v45.32h4.084v-26.854l6.1738 26.854h3.793v-45.32h-4.1328v24.689l-5.834-24.689zm18.539 0v45.32h12.447v-5.8848h-8.3633v-15.896h5.3008v-6.0195h-5.3008v-11.635h7.9258v-5.8848zm-31.246 5.6133c1.0049 0 1.8157 0.81212 2.4316 2.4355 0.6159 1.5783 0.98948 6.4026 1.1192 14.475-0.12967 8.072-0.50325 12.922-1.1192 14.545-0.6159 1.5783-1.4268 2.3672-2.4316 2.3672-0.97247 0-1.765-0.78885-2.3809-2.3672-0.6159-1.6234-0.98947-6.4729-1.1191-14.545 0.12967-8.072 0.50324-12.896 1.1191-14.475 0.6159-1.6234 1.4084-2.4355 2.3809-2.4355zm-49.238 6.1562 1.7988 14.678h-3.5508z" fill="#c1121c" stroke-width="1.4338"/></g></svg>
