<?xml version="1.0" encoding="UTF-8"?>
<svg width="256" height="256" enable-background="new 0 -0.321 144 120" version="1.1" viewBox="0 -.321 256 256" xml:space="preserve" xmlns="http://www.w3.org/2000/svg">
<path d="m54.5 3.679h147c13.493 0 24.5 9.2843 24.5 20.667v206.67c0 11.382-11.006 20.664-24.5 20.664h-147c-13.493 0-24.5-9.2819-24.5-20.664v-206.67c0-11.24 11.173-20.667 24.5-20.667" fill="#fff"/>
<path d="m199.81 11.703c9.9583 0.03278 18.096 6.8314 18.161 15.094v201.93c-0.065 8.2668-8.2021 14.888-18.161 14.93h-143.63c-9.9336-0.0423-18.121-6.6633-18.155-14.93v-201.93c0.03387-8.2622 8.2218-15.06 18.155-15.094z" fill="none" stroke="#c1121c" stroke-width="8"/>
<path d="m137.15 37.942c-2.5031 5.8417-3.52 12.143-3.52 21.601 0 9.4552 0.92542 15.392 3.4285 21.419 3.0601 7.4152 7.3234 10.583 14.464 10.583 6.9521 0 11.306-3.1723 14.366-10.497 2.5031-6.0262 3.4342-11.958 3.4342-21.503 0-9.4589-0.93114-15.299-3.4342-21.326-3.1504-7.5093-7.3201-10.566-14.32-10.567-6.9998-9.87e-4 -11.266 3.0595-14.419 10.29zm-50.432-9.2723v61.855h8.7114v-41.456l18.544 41.456h6.5822v-61.855h-8.7171v36.991l-16.409-36.991zm72.312 15.299c1.389 4.5431 1.8544 8.6184 1.8544 15.574 0 7.0426-0.46545 10.847-1.8544 15.763-1.483 5.1907-3.8923 7.601-7.5094 7.601-3.798 0-6.1165-2.4137-7.6067-7.6984-1.3854-4.8217-1.8488-8.8064-1.8488-15.574 0-6.9521 0.46337-11.033 1.8488-15.854 1.4902-5.1907 3.8991-7.5094 7.5615-7.5093 3.6624 9.8e-5 5.9776 2.3233 7.5547 7.6985z" fill="#c1121c"/>
<path d="m70.951 110.99c-1.1346 2.1647-1.7012 4.6223-1.7012 7.3732 0 1.398 0.20946 2.9545 0.63088 4.6681 0.45383 1.6686 1.1353 3.2909 2.0431 4.8692 1.2318 2.1196 2.6258 4.804 4.1817 8.051 1.5884 3.247 2.3501 5.8617 2.2853 7.8459-0.03242 3.1117-0.90698 4.7572-2.6251 4.9376-1.9126-0.1353-2.9021-2.2093-2.9669-6.2229h-4.3263c0.09725 3.5626 0.74399 6.472 1.9435 8.7268 1.2318 2.2549 3.0158 3.381 5.3497 3.381 2.4637 0 4.2456-1.0583 5.3478-3.1778 1.1346-2.1196 1.7031-4.6683 1.7031-7.6447 0-2.7058-0.56859-5.5686-1.7031-8.59-1.1346-3.0666-2.8673-6.4934-5.2013-10.281-0.71317-1.1274-1.2653-2.2555-1.6543-3.3829-0.38901-1.1274-0.56758-2.211-0.53517-3.2481 0-3.0666 0.74522-4.621 2.2364-4.6661 1.5235-0.0451 2.3345 1.5326 2.4317 4.7345h4.2306c-0.03242-3.2019-0.7284-5.772-2.0899-7.7111-1.3615-1.9392-2.934-2.9083-4.8628-2.9085-1.9288-2.5e-4 -3.5505 1.0813-4.7176 3.2459zm53.051 1.5566c-1.2318 3.2019-1.8806 9.4238-1.9454 18.669 0.0648 8.6134 0.64788 14.68 1.75 18.197 1.1021 3.4724 3.0155 5.2072 5.7385 5.2072 1.7504 0 3.2738-0.92456 4.5704-2.7735 1.329-1.894 1.9942-4.5766 1.9942-8.049h-4.0372c-0.19451 2.9313-1.0034 4.3966-2.4298 4.3966-0.94009 0.0902-1.7182-0.60758-2.3341-2.0958-0.61592-1.4882-1.0223-6.427-1.2168-14.814 0.19451-8.9742 0.56809-14.205 1.1191-15.693 0.5835-1.4881 1.3123-2.2093 2.1876-2.1642 1.718 0.0451 2.6091 1.555 2.6739 4.5313h4.0372c0-3.2469-0.69794-5.7493-2.0919-7.508-1.3615-1.8038-2.852-2.7052-4.8941-2.7054-2.0422-2.5e-4 -3.8898 1.6008-5.1216 4.8026zm35.222-4.8028c-2.8527 0-4.8624 1.8492-6.0295 5.547s-1.75 9.6717-1.75 17.924c0 7.9369 0.58305 13.844 1.75 17.723 1.167 3.8332 3.1768 5.7502 6.0295 5.7502 2.8527 0 4.8624-1.917 6.0295-5.7502 1.167-3.8783 1.75-9.7862 1.75-17.723 0-8.2526-0.58305-14.226-1.75-17.924-1.167-3.6979-3.1768-5.547-6.0295-5.547zm-106.27 0.74416v45.321h12.449v-5.885h-8.3635v-15.896h5.2989v-6.0197h-5.2989v-11.635h7.926v-5.885zm33.003 0v5.885h4.0353v39.437h4.1329v-39.437h4.2794v-5.885zm21.892 0-6.758 45.321h4.2286l1.8476-12.107h5.3497l1.8478 12.107h4.3282l-6.76-45.321zm34.04 0v45.321h4.086v-45.321zm29.95 0v45.321h4.0841v-26.855l6.174 26.855h3.7931v-45.321h-4.1329v24.69l-5.8342-24.69zm18.54 0v45.321h12.447v-5.885h-8.3635v-15.896h5.3009v-6.0197h-5.3009v-11.635h7.926v-5.885zm-31.247 5.6134c1.0049 0 1.8158 0.81214 2.4317 2.4356 0.61592 1.5783 0.98951 6.4028 1.1192 14.475-0.12967 8.0722-0.50326 12.922-1.1192 14.545-0.61592 1.5783-1.4268 2.3673-2.4317 2.3673-0.97249 0-1.765-0.78887-2.381-2.3673-0.61592-1.6234-0.9895-6.4731-1.1191-14.545 0.12967-8.0722 0.50325-12.896 1.1191-14.475 0.61592-1.6234 1.4084-2.4356 2.381-2.4356zm-49.239 6.1564 1.7988 14.678h-3.5509z" fill="#c1121c"/>
</svg>
