<?xml version="1.0" encoding="UTF-8"?>
<svg width="256" height="256" enable-background="new 0 -0.321 144 120" version="1.1" viewBox="0 -.321 256 256" xml:space="preserve" xmlns="http://www.w3.org/2000/svg">



















<g transform="matrix(.98744 0 0 .98744 .0042607 .00041684)"><path d="m55.189 3.7254h148.87c13.665 0 24.812 9.4024 24.812 20.93v209.3c0 11.527-11.146 20.927-24.812 20.927h-148.87c-13.665 0-24.812-9.4-24.812-20.927v-209.3c0-11.383 11.315-20.93 24.812-20.93" fill="#fff"/><path d="m56.889 11.851h145.46c10.085 0.0332 18.326 6.9183 18.392 15.286v204.5c-0.0658 8.372-8.3064 15.077-18.392 15.12h-145.46c-10.06-0.0428-18.352-6.7481-18.386-15.12v-204.5c0.0343-8.3673 8.3264-15.252 18.386-15.286" fill="none" stroke="#c1121c" stroke-width="8.1492"/><path transform="matrix(1.0127 0 0 1.0127 -.0043149 -.32551)" d="m145.37 36.332c-5.1331 0-8.2829 2.259-10.611 7.5977-1.8481 4.3131-2.5977 8.9652-2.5977 15.949 0 6.9812 0.68312 11.365 2.5312 15.814 2.2594 5.475 5.4058 7.8125 10.678 7.8125 5.133 0 8.3482-2.3418 10.607-7.75 1.8481-4.4494 2.5352-8.8291 2.5352-15.877 0-6.9839-0.687-11.297-2.5352-15.746-2.3261-5.5444-5.4051-7.8008-10.607-7.8008zm-47.846 0.75195v45.67h6.4316v-30.609l13.691 30.609h4.8594v-45.67h-6.4355v27.312l-12.115-27.312zm47.846 5.6113c2.6706 0 4.3805 1.715 5.5449 5.6836 1.0256 3.3543 1.3691 6.3645 1.3691 11.5 0 5.1999-0.34362 8.0077-1.3691 11.637-1.095 3.8325-2.8743 5.6133-5.5449 5.6133-2.8042 0-4.5169-1.7817-5.6172-5.6836-1.0229-3.56-1.3633-6.5034-1.3633-11.5 0-5.133 0.34037-8.145 1.3633-11.705 1.1003-3.8325 2.8797-5.5449 5.6172-5.5449zm-84.832 53.518c-2.2853 0-4.07 1.075-5.3555 3.2246-1.2498 2.1497-1.875 4.5904-1.875 7.3223 0 1.3883 0.23306 2.933 0.69727 4.6348 0.49991 1.657 1.2482 3.2685 2.248 4.8359 1.3569 2.1049 2.8934 4.7696 4.6074 7.9941 1.7497 3.2245 2.589 5.8224 2.5176 7.793-0.03571 3.0901-1.0001 4.7252-2.8926 4.9043-2.1068-0.13436-3.1962-2.1939-3.2676-6.1797h-4.7676c0.10712 3.538 0.82138 6.4248 2.1426 8.6641 1.3569 2.2392 3.3216 3.3594 5.8926 3.3594 2.7138 0 4.6785-1.0514 5.8926-3.1562 1.2498-2.1049 1.873-4.636 1.873-7.5918 0-2.6871-0.62327-5.5307-1.873-8.5312-1.2498-3.0454-3.1614-6.449-5.7324-10.211-0.78558-1.1196-1.3918-2.2398-1.8203-3.3594-0.42849-1.1196-0.62555-2.1946-0.58984-3.2246 0-3.0454 0.82227-4.59 2.4648-4.6348 1.6783-0.0448 2.5706 1.5234 2.6777 4.7031h4.6602c-0.03571-3.1797-0.80495-5.7325-2.3047-7.6582-1.4997-1.9257-3.2314-2.8887-5.1953-2.8887zm37.584 0c-3.1423 0-5.3551 1.8355-6.6406 5.5078-1.2855 3.6723-1.9297 9.6072-1.9297 17.803 0 7.8821 0.6442 13.748 1.9297 17.6 1.2855 3.8067 3.4983 5.7109 6.6406 5.7109 3.1423 0 5.3571-1.9042 6.6426-5.7109 1.2855-3.8515 1.9277-9.7175 1.9277-17.6 0-8.1956-0.64225-14.13-1.9277-17.803-1.2855-3.6723-3.5003-5.5078-6.6426-5.5078zm97.551 0c-2.7138 0-4.7486 1.5898-6.1055 4.7695-1.3569 3.1797-2.0712 9.3602-2.1426 18.541 0.0714 8.5538 0.71366 14.577 1.9277 18.07 1.2141 3.4484 3.3208 5.1719 6.3203 5.1719 1.9282 1e-5 3.6068-0.91773 5.0352-2.7539 1.464-1.881 2.1953-4.5457 2.1953-7.9941v-11.957h-7.4434v5.9785h2.998v5.9785c-0.21425 2.911-1.1066 4.3672-2.6777 4.3672-1.0355 0.0896-1.8919-0.6061-2.5703-2.084-0.67845-1.4779-1.1256-6.381-1.3398-14.711 0.21425-8.9121 0.62539-14.106 1.2324-15.584 0.64274-1.4779 1.446-2.1952 2.4102-2.1504 1.8925 0.0448 2.8739 1.5442 2.9453 4.5h4.4453c0-3.2245-0.76729-5.7085-2.3027-7.4551-1.4997-1.7914-3.1423-2.6875-4.9277-2.6875zm-123.97 0.73828v5.8437h4.4473v39.164h4.5527v-39.164h4.7129v-5.8437zm40.039 0v45.008h4.5v-21.025h2.6777c2.321 0.0448 4.2838-1.0085 5.8906-3.1582s2.4121-4.8812 2.4121-8.1953c0-4.0754-0.82228-7.1882-2.4648-9.3379-1.6069-2.1944-3.6056-3.291-5.998-3.291zm21.133 0v45.008h4.498v-21.025h2.6777c2.321 0.0448 4.2857-1.0085 5.8926-3.1582s2.4102-4.8812 2.4102-8.1953c0-4.0754-0.82032-7.1882-2.4629-9.3379-1.6069-2.1944-3.6076-3.291-6-3.291zm22.096 0v45.008h4.498v-45.008zm11.334 0v45.008h4.498v-26.668l6.8027 26.668h4.1777v-45.008h-4.5527v24.52l-6.4277-24.52zm-68.291 5.5762c1.107 0 2.0012 0.80573 2.6797 2.418 0.67845 1.5675 1.0876 6.3605 1.2305 14.377-0.14283 8.0164-0.55202 12.829-1.2305 14.441-0.67845 1.5675-1.5727 2.3516-2.6797 2.3516-1.0712 0-1.9446-0.7841-2.623-2.3516-0.67846-1.6122-1.0896-6.425-1.2324-14.441 0.14283-8.0164 0.55396-12.81 1.2324-14.377 0.67845-1.6122 1.5518-2.418 2.623-2.418zm18.229 0.26758h2.3027c1.2141 0 2.1784 0.53845 2.8926 1.6133 0.74988 1.03 1.125 2.6651 1.125 4.9043 0 1.5675-0.32209 2.8664-0.96484 3.8965-0.64275 1.03-1.5351 1.6118-2.6777 1.7461h-2.6777zm21.131 0h2.3027c1.2141 0 2.1784 0.53845 2.8926 1.6133 0.74987 1.03 1.125 2.6651 1.125 4.9043 0 1.5675-0.32014 2.8664-0.96289 3.8965-0.64274 1.03-1.537 1.6118-2.6797 1.7461h-2.6777z" fill="#c1121c" stroke-width=".98744"/><path d="m103.87 153.13-7.5324 30.836h4.3439l2.08-8.4696h6.4196l2.0842 8.4696h4.3397l-7.5324-30.836zm16.961 0v30.836h4.3482v-20.667l9.24 20.667h3.2826v-30.836h-4.3482v18.441l-8.1743-18.441zm22.092 0 7.4382 16.866v13.969h4.3482v-13.969l7.4382-16.866h-4.6221l-4.9902 11.183-4.9902-11.183zm-36.973 9.1501 2.1741 8.919h-4.3439zm-16.511 31.375v4.1128h5.5936v26.723h4.3397v-26.723h5.4567v-4.1128zm23.124 0v30.831h4.3397v-30.831zm13.366 0v30.831h4.3439v-17.337l5.6407 17.337 5.6364-17.337v17.337h4.3482v-30.831h-4.3482l-5.6364 17.333-5.6407-17.333zm28.991 0v30.836h15.39v-4.3097h-11.046v-10.164h6.2399v-4.2969h-6.2399v-7.7678h9.8434v-4.2969z" fill="#c1121c" fill-rule="evenodd"/></g></svg>
