<?xml version="1.0" encoding="UTF-8"?>
<svg width="256" height="256" enable-background="new 0 -0.321 144 120" version="1.1" viewBox="0 -.321 256 256" xml:space="preserve" xmlns="http://www.w3.org/2000/svg">
<path d="m201.5 3.679c13.493 0 24.5 9.2843 24.5 20.667v206.67c0 11.382-11.006 20.664-24.5 20.664h-147c-13.493 0-24.5-9.2819-24.5-20.664v-206.67c0-11.24 11.173-20.667 24.5-20.667z" fill="#fff"/>
<path d="m199.81 11.703c9.9583 0.03278 18.096 6.8314 18.161 15.094v201.93c-0.065 8.2668-8.2021 14.888-18.161 14.93h-143.63c-9.9336-0.0423-18.121-6.6633-18.155-14.93v-201.93c0.03387-8.2622 8.2218-15.06 18.155-15.094z" fill="none" stroke="#c1121c" stroke-width="8"/>
<path d="m134.76 43.608c-1.8481 4.313-2.5976 8.965-2.5976 15.949 0 6.9811 0.68311 11.365 2.5312 15.814 2.2594 5.4749 5.4057 7.8123 10.678 7.8123 5.1329 0 8.348-2.3418 10.607-7.7498 1.8481-4.4493 2.5352-8.8289 2.5352-15.877 0-6.9838-0.68699-11.297-2.5352-15.746-2.3261-5.5443-5.405-7.8006-10.573-7.8003s-8.3174 2.2593-10.645 7.5979zm-37.234-6.8456v45.669h6.4315v-30.608l13.691 30.608h4.8593v-45.669h-6.4354v27.311l-12.115-27.311zm53.39 11.295c1.0256 3.3542 1.3691 6.3644 1.3691 11.5 0 5.1998-0.34361 8.0075-1.3691 11.637-1.095 3.8324-2.8742 5.6132-5.5448 5.6132-2.8041 0-4.5168-1.7817-5.6171-5.6835-1.0229-3.5599-1.3633-6.5033-1.3633-11.5 0-5.1329 0.34036-8.1448 1.3633-11.705 1.1003-3.8324 2.8796-5.5448 5.5836-5.545 2.704-2e-4 4.4139 1.7148 5.5782 5.6833zm-95.731 51.058c-1.2498 2.1497-1.875 4.5903-1.875 7.3222 0 1.3883 0.23306 2.933 0.69726 4.6347 0.4999 1.657 1.2482 3.2684 2.248 4.8358 1.3569 2.1049 2.8933 4.7695 4.6073 7.9939 1.7497 3.2244 2.5889 5.8223 2.5176 7.7928-0.03571 3.09-1.0001 4.7251-2.8925 4.9042-2.1068-0.13435-3.1961-2.1938-3.2675-6.1796h-4.7675c0.10712 3.5379 0.82136 6.4247 2.1426 8.6639 1.3569 2.2392 3.3215 3.3593 5.8925 3.3593 2.7137 0 4.6784-1.0514 5.8925-3.1561 1.2498-2.1049 1.873-4.6359 1.873-7.5916 0-2.687-0.62326-5.5306-1.873-8.531-1.2498-3.0453-3.1613-6.4489-5.7323-10.211-0.78556-1.1196-1.3918-2.2398-1.8203-3.3593-0.42848-1.1196-0.62554-2.1946-0.58983-3.2245 0-3.0453 0.82225-4.5899 2.4648-4.6347 1.6783-0.0448 2.5706 1.5234 2.6776 4.703h4.6601c-0.03571-3.1796-0.80494-5.7324-2.3047-7.658-1.4997-1.9257-3.2313-2.8886-5.3559-2.8886s-3.9092 1.075-5.1947 3.2245zm42.939-3.2245c-3.1422 0-5.355 1.8355-6.6405 5.5077-1.2855 3.6722-1.9297 9.607-1.9297 17.803 0 7.882 0.64419 13.748 1.9297 17.6 1.2855 3.8066 3.4982 5.7108 6.6405 5.7108 3.1422 0 5.357-1.9042 6.6425-5.7108 1.2855-3.8514 1.9277-9.7173 1.9277-17.6 0-8.1954-0.64224-14.13-1.9277-17.803-1.2855-3.6722-3.5002-5.5077-6.6425-5.5077zm91.444 4.7694c-1.3569 3.1796-2.0712 9.36-2.1426 18.541 0.0714 8.5536 0.71365 14.577 1.9277 18.07 1.2141 3.4483 3.3207 5.1718 6.3202 5.1718 1.9282 1e-5 3.6067-0.91771 5.0351-2.7538 1.464-1.881 2.1953-4.5456 2.1953-7.9939v-11.957h-7.4432v5.9784h2.9979v5.9784c-0.21425 2.9109-1.1066 4.3671-2.6776 4.3671-1.0355 0.0896-1.8919-0.60608-2.5702-2.084-0.67844-1.4779-1.1256-6.3809-1.3398-14.711 0.21424-8.9119 0.62537-14.106 1.2324-15.584 0.64273-1.4779 1.446-2.1952 2.4102-2.1504 1.8925 0.0448 2.8738 1.5442 2.9452 4.4999h4.4452c0-3.2244-0.76727-5.7084-2.3026-7.455-1.4997-1.7914-3.1422-2.6874-5.3918-2.6872-2.2496 2e-4 -4.2843 1.59-5.6412 4.7696zm-117.86-4.0311v5.8436h4.4472v39.163h4.5526v-39.163h4.7128v-5.8436zm40.038 0v45.007h4.4999v-21.025h2.6776c2.321 0.0448 4.2837-1.0085 5.8905-3.1581 1.6068-2.1497 2.4121-4.8811 2.4121-8.1951 0-4.0753-0.82227-7.1881-2.4648-9.3377-1.6069-2.1944-3.6055-3.2909-5.9979-3.2909zm21.133 0v45.007h4.4979v-21.025h2.6776c2.321 0.0448 4.2856-1.0085 5.8925-3.1581s2.4102-4.8811 2.4102-8.1951c0-4.0753-0.82031-7.1881-2.4629-9.3377-1.6069-2.1944-3.6075-3.2909-5.9999-3.2909zm22.096 0v45.007h4.4979v-45.007zm11.334 0v45.007h4.4979v-26.667l6.8026 26.667h4.1776v-45.007h-4.5526v24.52l-6.4276-24.52zm-68.29 5.5761c1.107 0 2.0012 0.80572 2.6797 2.418 0.67843 1.5675 1.0876 6.3604 1.2305 14.377-0.14283 8.0162-0.55201 12.829-1.2305 14.441-0.67844 1.5675-1.5727 2.3516-2.6797 2.3516-1.0712 0-1.9446-0.78409-2.6229-2.3516-0.67845-1.6122-1.0896-6.4249-1.2324-14.441 0.14283-8.0162 0.55395-12.81 1.2324-14.377 0.67844-1.6122 1.5518-2.418 2.6229-2.418zm18.229 0.26758h2.3027c1.2141 0 2.1784 0.53844 2.8925 1.6133 0.74987 1.03 1.125 2.665 1.125 4.9042 0 1.5675-0.32208 2.8664-0.96482 3.8964-0.64274 1.03-1.5351 1.6118-2.6776 1.7461h-2.6776zm21.131 0h2.3026c1.2141 0 2.1784 0.53844 2.8926 1.6133 0.74985 1.03 1.125 2.665 1.125 4.9042 0 1.5675-0.32014 2.8664-0.96287 3.8964-0.64273 1.03-1.537 1.6118-2.6796 1.7461h-2.6776z" fill="#c1121c"/>
<path d="m102.57 151.21-7.4378 30.449h4.2893l2.0539-8.3632h6.339l2.058 8.3632h4.2852l-7.4378-30.449zm16.748 0v30.449h4.2936v-20.407l9.124 20.407h3.2414v-30.449h-4.2936v18.209l-8.0716-18.209zm21.815 0 7.3448 16.654v13.794h4.2936v-13.794l7.3448-16.654h-4.564l-4.9275 11.043-4.9275-11.043zm-36.509 9.0352 2.1468 8.807h-4.2893zm-16.304 30.981v4.0611h5.5233v26.387h4.2852v-26.387h5.3882v-4.0611zm22.834 0v30.444h4.2852v-30.444zm13.198 0v30.444h4.2893v-17.119l5.5699 17.119 5.5656-17.119v17.119h4.2936v-30.444h-4.2936l-5.5656 17.115-5.5699-17.115zm28.627 0v30.449h15.197v-4.2556h-10.907v-10.036h6.1615v-4.2429h-6.1615v-7.6702h9.7198v-4.2429z" fill="#c1121c"/>
</svg>
