<?xml version="1.0" encoding="UTF-8"?>
<svg width="256" height="256" enable-background="new 0 -0.321 144 120" version="1.1" viewBox="0 -.321 256 256" xml:space="preserve" xmlns="http://www.w3.org/2000/svg">



















<g transform="matrix(.98744 0 0 .98744 .0042607 .00041684)"><path d="m55.189 3.7254h148.87c13.665 0 24.812 9.4024 24.812 20.93v209.3c0 11.527-11.146 20.927-24.812 20.927h-148.87c-13.665 0-24.812-9.4-24.812-20.927v-209.3c0-11.383 11.315-20.93 24.812-20.93" fill="#fff"/><path d="m56.889 11.851h145.46c10.085 0.0332 18.326 6.9183 18.392 15.286v204.5c-0.0658 8.372-8.3064 15.077-18.392 15.12h-145.46c-10.06-0.0428-18.352-6.7481-18.386-15.12v-204.5c0.0343-8.3673 8.3264-15.252 18.386-15.286" fill="none" stroke="#c1121c" stroke-width="8.1492"/><path transform="matrix(1.0127 0 0 1.0127 -.0043149 -.32551)" d="m145.37 36.332c-5.1331 0-8.2829 2.259-10.611 7.5977-1.8481 4.3131-2.5977 8.9652-2.5977 15.949 0 6.9812 0.68312 11.365 2.5312 15.814 2.2594 5.475 5.4058 7.8125 10.678 7.8125 5.133 0 8.3482-2.3418 10.607-7.75 1.8481-4.4494 2.5352-8.8291 2.5352-15.877 0-6.9839-0.687-11.297-2.5352-15.746-2.3261-5.5444-5.4051-7.8008-10.607-7.8008zm-47.846 0.75195v45.67h6.4316v-30.609l13.691 30.609h4.8594v-45.67h-6.4355v27.312l-12.115-27.312zm47.846 5.6113c2.6706 0 4.3805 1.715 5.5449 5.6836 1.0256 3.3543 1.3691 6.3645 1.3691 11.5 0 5.1999-0.34362 8.0077-1.3691 11.637-1.095 3.8325-2.8743 5.6133-5.5449 5.6133-2.8042 0-4.5169-1.7817-5.6172-5.6836-1.0229-3.56-1.3633-6.5034-1.3633-11.5 0-5.133 0.34037-8.145 1.3633-11.705 1.1003-3.8325 2.8797-5.5449 5.6172-5.5449zm-84.998 53.014c-2.2787 0-4.0581 1.0926-5.3398 3.2773-1.2462 2.1847-1.8691 4.665-1.8691 7.4414 0 1.411 0.23049 2.9814 0.69336 4.7109 0.49847 1.6841 1.2472 3.323 2.2441 4.916 1.353 2.1392 2.8828 4.8479 4.5918 8.125 1.7446 3.2771 2.581 5.9172 2.5098 7.9199-0.03561 3.1406-0.99575 4.8023-2.8828 4.9844-2.1007-0.13655-3.1866-2.2304-3.2578-6.2812h-4.7539c0.10682 3.5957 0.81933 6.5309 2.1367 8.8066 1.353 2.2758 3.3114 3.4141 5.875 3.4141 2.706 0 4.6644-1.0698 5.875-3.209 1.2462-2.1392 1.8691-4.7108 1.8691-7.7148 0-2.7309-0.62297-5.6224-1.8691-8.6719-1.2462-3.095-3.1513-6.5537-5.7148-10.377-0.78331-1.1379-1.3891-2.2762-1.8164-3.4141-0.42726-1.1379-0.6235-2.2305-0.58789-3.2773 0-3.095 0.8192-4.6654 2.457-4.7109 1.6734-0.0455 2.5631 1.5477 2.6699 4.7793h4.6465c-0.03561-3.2316-0.79951-5.826-2.2949-7.7832-1.4954-1.9572-3.2234-2.9355-5.1816-2.9355zm134.74 0c-2.706 0-4.7349 1.6161-6.0879 4.8477-1.353 3.2316-2.0655 9.5131-2.1367 18.844 0.0712 8.6934 0.71325 14.815 1.9238 18.365 1.2106 3.5047 3.31 5.2578 6.3008 5.2578 1.9227 0 3.5973-0.93465 5.0215-2.8008 1.4598-1.9116 2.1895-4.6184 2.1895-8.123v-12.152h-7.4238v6.0762h2.9902v6.0762c-0.21363 2.9585-1.1033 4.4375-2.6699 4.4375-1.0325 0.091-1.886-0.61518-2.5625-2.1172-0.67649-1.502-1.1223-6.4853-1.3359-14.951 0.21363-9.0576 0.62324-14.338 1.2285-15.84 0.64089-1.502 1.441-2.2291 2.4023-2.1836 1.8871 0.0455 2.8663 1.5702 2.9375 4.5742h4.4336c0-3.2771-0.76586-5.803-2.2969-7.5781-1.4954-1.8206-3.1338-2.7324-4.9141-2.7324zm-123.61 0.75195v5.9395h4.4316v39.803h4.541v-39.803h4.6992v-5.9395zm24.045 0-7.4238 45.742h4.6465l2.0293-12.221h5.875l2.0293 12.221h4.7539l-7.4238-45.742zm16.145 0v45.742h4.4863v-27.104l6.7832 27.104h4.166v-45.742h-4.541v24.92l-6.4082-24.92zm21.059 0v45.742h7.3691c2.7772 0 4.8081-1.9339 6.0898-5.8027 1.3174-3.8688 1.9746-9.5583 1.9746-17.068 0-8.3748-0.65722-14.27-1.9746-17.684-1.2818-3.4592-3.3126-5.1875-6.0898-5.1875zm21.777 0v45.742h4.4863v-45.742zm11.301 0v45.742h4.4863v-27.104l6.7832 27.104h4.166v-45.742h-4.5391v24.92l-6.4102-24.92zm-28.592 5.9395h2.2969c1.2106-0.0455 2.1898 0.86434 2.9375 2.7305 0.74771 1.8206 1.1573 6.5546 1.2285 14.201-0.0356 6.6908-0.44521 11.196-1.2285 13.518-0.78331 2.3213-1.7625 3.4596-2.9375 3.4141h-2.2969zm-39.447 5.9394 1.9766 14.816h-3.8984z" fill="#c1121c" stroke-width=".98744"/><path d="m103.87 153.13-7.5324 30.836h4.3439l2.08-8.4696h6.4196l2.0842 8.4696h4.3397l-7.5324-30.836zm16.961 0v30.836h4.3482v-20.667l9.24 20.667h3.2826v-30.836h-4.3482v18.441l-8.1743-18.441zm22.092 0 7.4382 16.866v13.969h4.3482v-13.969l7.4382-16.866h-4.6221l-4.9902 11.183-4.9902-11.183zm-36.973 9.1501 2.1741 8.919h-4.3439zm-16.511 31.375v4.1128h5.5936v26.723h4.3397v-26.723h5.4567v-4.1128zm23.124 0v30.831h4.3397v-30.831zm13.366 0v30.831h4.3439v-17.337l5.6407 17.337 5.6364-17.337v17.337h4.3482v-30.831h-4.3482l-5.6364 17.333-5.6407-17.333zm28.991 0v30.836h15.39v-4.3097h-11.046v-10.164h6.2399v-4.2969h-6.2399v-7.7678h9.8434v-4.2969z" fill="#c1121c" fill-rule="evenodd"/></g></svg>
