<?xml version="1.0" encoding="UTF-8"?>
<svg width="256" height="256" enable-background="new 0 -0.321 144 120" version="1.1" viewBox="0 -.321 256 256" xml:space="preserve" xmlns="http://www.w3.org/2000/svg">



















<g transform="matrix(.98744 0 0 .98744 .0042607 .00041684)"><path d="m55.189 3.7254h148.87c13.665 0 24.812 9.4024 24.812 20.93v209.3c0 11.527-11.146 20.927-24.812 20.927h-148.87c-13.665 0-24.812-9.4-24.812-20.927v-209.3c0-11.383 11.315-20.93 24.812-20.93" fill="#fff"/><path d="m56.889 11.851h145.46c10.085 0.0332 18.326 6.9183 18.392 15.286v204.5c-0.0658 8.372-8.3064 15.077-18.392 15.12h-145.46c-10.06-0.0428-18.352-6.7481-18.386-15.12v-204.5c0.0343-8.3673 8.3264-15.252 18.386-15.286" fill="none" stroke="#c1121c" stroke-width="8.1492"/><path transform="matrix(1.0127 0 0 1.0127 -.0043149 -.32551)" d="m145.37 36.33v2e-3c-5.133 0-8.2833 2.2591-10.611 7.5977-1.8481 4.313-2.5977 8.9636-2.5977 15.947 0 6.9811 0.68321 11.366 2.5312 15.814 2.2594 5.4749 5.4056 7.8125 10.678 7.8125 5.1329 0 8.3487-2.3419 10.607-7.75 1.8481-4.4493 2.5352-8.8292 2.5352-15.877 0-6.9838-0.687-11.297-2.5352-15.746-2.3261-5.5443-5.4056-7.8008-10.607-7.8008zm-47.846 0.75391v45.668h6.4316v-30.607l13.691 30.607h4.8594v-45.668h-6.4356v27.311l-12.115-27.311zm47.846 5.6113c2.6706 0 4.3805 1.7131 5.5449 5.6816 1.0256 3.3542 1.3691 6.3646 1.3691 11.5 0 5.1998-0.34368 8.0075-1.3691 11.637-1.095 3.8324-2.8744 5.6133-5.5449 5.6133-2.8042 0-4.5169-1.7818-5.6172-5.6836-1.0229-3.5599-1.3633-6.5015-1.3633-11.498 0-5.1329 0.34037-8.1451 1.3633-11.705 1.1003-3.8324 2.8797-5.5449 5.6172-5.5449zm48.334 53.363c-3.2211 0-5.6375 1.6107-7.248 4.834-1.6106 3.2233-2.4582 9.4882-2.543 18.795 0.0848 8.6712 0.84803 14.777 2.2891 18.318 1.441 3.4957 3.9418 5.2441 7.502 5.2441 2.2887 0 4.2793-0.93162 5.9746-2.793 1.7377-1.9068 2.6074-4.6078 2.6074-8.1035v-12.121h-8.8379v6.0606h3.5606v6.0606c-0.2543 2.9509-1.3129 4.4277-3.1777 4.4277-1.2291 0.0908-2.2474-0.61317-3.0527-2.1113s-1.3355-6.4699-1.5898-14.914c0.2543-9.0344 0.74237-14.301 1.4629-15.799 0.7629-1.4982 1.717-2.2251 2.8613-2.1797 2.2463 0.0454 3.4113 1.5662 3.4961 4.5625h5.2773c0-3.2687-0.91189-5.788-2.7344-7.5586-1.7801-1.816-3.7285-2.7227-5.8477-2.7227zm-141.7 0.74805 4.959 45.627h4.6406l3.8789-25.605 4.0039 25.605h4.6406l4.8965-45.627h-5.4668l-2.2891 21.111-3.4336-21.111h-4.6406l-3.4336 21.111-2.2246-21.111zm38.453 0-8.8379 45.627h5.5312l2.416-12.189h6.9941l2.416 12.189h5.6582l-8.8379-45.627zm20.045 0v45.627h5.3398v-45.627zm11.928 0v5.9258h5.2754v39.701h5.4043v-39.701h5.5938v-5.9258zm22.963 0v45.627h5.3418v-45.627zm13.453 0v45.627h5.3418v-27.035l8.0723 27.035h4.959v-45.627h-5.4023v24.855l-7.6289-24.855zm-65.719 11.85 2.3516 14.777h-4.6406z" fill="#c1121c"/><path d="m103.87 153.13-7.5324 30.836h4.3439l2.08-8.4696h6.4196l2.0842 8.4696h4.3397l-7.5324-30.836zm16.961 0v30.836h4.3482v-20.667l9.24 20.667h3.2826v-30.836h-4.3482v18.441l-8.1743-18.441zm22.092 0 7.4382 16.866v13.969h4.3482v-13.969l7.4382-16.866h-4.6221l-4.9902 11.183-4.9902-11.183zm-36.973 9.1501 2.1741 8.919h-4.3439zm-16.511 31.375v4.1128h5.5936v26.723h4.3397v-26.723h5.4567v-4.1128zm23.124 0v30.831h4.3397v-30.831zm13.366 0v30.831h4.3439v-17.337l5.6407 17.337 5.6364-17.337v17.337h4.3482v-30.831h-4.3482l-5.6364 17.333-5.6407-17.333zm28.991 0v30.836h15.39v-4.3097h-11.046v-10.164h6.2399v-4.2969h-6.2399v-7.7678h9.8434v-4.2969z" fill="#c1121c" fill-rule="evenodd"/></g></svg>
