<?xml version="1.0" encoding="UTF-8"?>
<svg width="100%" height="100%" version="1.1" viewBox="0 0 96 96" xmlns="http://www.w3.org/2000/svg">
 <path d="m5.8727 8.7197c-0.22455 0.00955-0.41997 0.06187-0.56189 0.17619-1.7166 1.3828-0.65713 2.6142-0.65713 2.6142-1.5e-6 0 2.8305 2.8271 3.1571 4.8951s0.43808 4.6815 4.2475 6.3141c3.8094 1.6326 3.4809 3.5904 3.4809 3.5904s-0.87072 2.3959 3.8094 2.5047c2.5031-0.01466 5.0061-0.02073 7.5093-0.02381 0.93894 1.7447 3.5075 6.6142 1.6047 6.6142-2.0748 0-2.4618 1.8142-2.4618 1.8142-3.3397 0.46062-6.7895 0.08495-9.1236-0.85236-2.6054 1.6493 0.71374 8.9417 2.1952 8.9902h9.2187c-1.3754 13.975-2.6987 24.233-5.2333 40.08 0 0-0.15098 2.5428 3.0856 2.5428 10.359-5.4572 9.5809-31.59 9.5809-42.523h24.699c0.399 10.298-0.0039 39.2 9.5809 42.523 3.2366 0 3.0904-2.5428 3.0904-2.5428-2.2622-14.313-4.4698-27.214-5.2381-40.08h9.2187c2.3623-1.2241 4.096-8.6845 2.2-8.9902-1.927 1.6867-6.1535 0.85236-9.1283 0.85236 0 0-0.38705-1.8142-2.4618-1.8142-1.8782 0 0.59922-4.8478 1.5666-6.5476 2.516-0.0086 5.0316-0.02057 7.5474-0.04286 4.6801-0.10884 3.8094-2.5047 3.8094-2.5047-3e-6 0-0.3238-1.9578 3.4856-3.5904 3.8094-1.6326 3.9162-4.2461 4.2427-6.3141 0.32652-2.068 3.1571-4.8951 3.1571-4.8951 3e-6 0 1.0643-1.2314-0.65236-2.6142-0.75688-0.60968-3.0475 0.54284-3.0475 0.54284-16.17 9.0936-65.846 8.997-79.436 0 1.5e-6 -3e-7 -1.5126-0.76039-2.4856-0.71903zm30.194 20.076c2.6947 0.0064 3.3907 0.0139 6.0855 0.02381l2 9.1808h-6.4474s-1.1632-2.5952-3.238-2.5952c-1.9008 2e-6 0.65854-4.8685 1.6-6.6095zm17.933 0.05238c2.7066 0.0088 3.4123 0.01605 6.1188 0.01905 0.97187 1.6936 3.4414 6.538 1.5666 6.538-2.0748-1e-6 -3.2428 2.5952-3.2428 2.5952h-6.4427z" fill="#e34234"/>
</svg>
