<?xml version="1.0" encoding="UTF-8"?>
<svg width="100%" height="100%" version="1.1" viewBox="0 0 96 96" xmlns="http://www.w3.org/2000/svg">
 <path d="m46.728 4.6904c-2.3571 3.0714-2.7857 3.4999-8.6189 8.0475-0.42856 0.33333-0.42856 0.40476-0.11905 1.0714 0.83332 1.5952 0.80951 1.6904-0.57142 2.3809-5.7618 2.9047-10.381 8.5475-12 14.619-0.92856 3.4047-0.85713 7.7856 0.16666 11.095 1.7381 5.6904 6.3094 11.143 11.405 13.571 1.0476 0.5238 1.9047 0.99998 1.9047 1.0952 0 0.09524-0.35714 0.95236-0.80951 1.9523l-0.80951 1.7619 1.9285 0.88094c1.0714 0.49999 2.8333 1.5238 3.9285 2.3095l1.9523 1.4047v2.7619c0 2.4762-0.04762 2.738-0.40476 2.5952-0.21428-0.09524-1.6904-0.92856-3.2618-1.8571-8.3094-4.8809-15.119-11.119-18.285-16.738-3.6904-6.5237-5.238-15.857-3.4285-20.666 1.0476-2.7857 1.7619-3.8809 4.9047-7.4046 1.7143-1.9523 3.0714-3.5714 3.0238-3.619-0.16666-0.19047-3.1666 1.119-4.7856 2.0952-1.9523 1.1666-5.2618 4.238-6.7142 6.2618-1.5714 2.2381-2.8571 5.0952-3.5476 8.0475-0.59523 2.4285-0.64285 2.9761-0.54761 6.238 0.14286 4.1666 0.69046 6.8094 2.4285 11.476 1.8333 4.9285 2.9761 6.9046 7.1427 12.405 2.0952 2.7857 4.1666 5.619 4.5952 6.3094 0.88094 1.4285 1.6666 3.5952 1.8809 5.2142 0.09524 0.64285 0.21428 1.1428 0.30952 1.1428 0.07143 0 2.119-1.7619 4.5475-3.9285 2.4285-2.1428 4.5714-3.9047 4.7618-3.9047 0.54761-0.02381 2.9761 1.0476 4.4047 1.9047l1.2857 0.76189-2.3095 0.99998c-2.9047 1.2381-3.9761 1.9285-5.6666 3.5952-1.6428 1.6666-2.2142 2.8571-2.2381 4.6904 0 1.2857 0.07143 1.4762 0.80951 2.2142 0.66666 0.66666 0.97617 0.80951 1.8333 0.80951 1.3571 0 2.8809-0.90475 3.4285-2.0714 0.40476-0.83332 0.40476-0.97617 0.04762-2.3571-0.23809-0.80951-0.40476-1.5476-0.40476-1.5952 0-0.21428 2.9285-1.7619 3.8095-2.0238 0.45237-0.14286 1.2381-0.30952 1.7381-0.40476l0.88094-0.14286v3.4285c0 3.3095-0.02381 3.4285-0.57142 3.9523-1.9285 1.8095-1.6904 4.4285 0.5238 6.1189 1.2143 0.95236 3.2857 1.0714 4.9047 0.30952 1.4047-0.64285 2.5238-2.2381 2.5238-3.5476 0-0.80951-1.0238-2.8095-1.6428-3.1904-0.30952-0.19047-0.38095-7.0475-0.07143-7.0475 0.85713 0.02381 3.1428 0.80951 4.4761 1.5238 0.90475 0.49999 1.6666 0.92856 1.7143 0.97618 0.04762 0.02381-0.11905 0.7857-0.35714 1.6428-0.40476 1.5714-0.40476 1.619 0.04762 2.4761 0.90475 1.6428 3.5238 2.5 4.8571 1.5714 0.64285-0.45237 1.2143-1.6904 1.2143-2.6666 0-1.5476-0.76189-2.9761-2.4761-4.6904-1.6904-1.6666-3.5714-2.8333-6.5237-4.0476l-1.3095-0.5238 1.4285-0.83332c0.76189-0.45237 2-1.0238 2.7142-1.2619 0.71427-0.23809 1.4047-0.47618 1.5476-0.5238 0.14286-0.04762 2.2857 1.6666 4.7618 3.8333s4.5714 3.9523 4.6428 3.9523c0.07143 0 0.21428-0.64285 0.28571-1.4285 0.21428-2.4285 1.5238-4.7856 5.5237-9.9998 1.9762-2.5714 3.8809-5.0475 4.238-5.5475 1.0476-1.3809 3.3571-6.4047 4.4285-9.5713 2.2381-6.6666 2.4762-12.833 0.73808-18.309-1.9285-5.9999-7.1189-11.571-12.857-13.833-0.83332-0.33333-1.5714-0.54761-1.619-0.47618-0.14285 0.14286 1.2619 1.9047 3.8095 4.738 3.7142 4.119 4.5714 6.3094 4.5952 11.571 0 3.7857-0.30952 5.7142-1.5952 9.7141-2.2857 7.1904-7.5237 13.476-16.619 19.857-1.6666 1.1666-7.3332 4.4761-7.6665 4.4761-0.09524 0-0.19047-1.2143-0.19047-2.6904v-2.6666l1.9762-1.4047c1.0714-0.76189 2.8809-1.8333 3.9999-2.3809l2.0476-0.99998-1.8095-3.619 1.2381-0.49999c3.3333-1.4047 7.4761-4.8333 9.6189-7.9999 2.4285-3.5952 3.5714-6.8808 3.8095-10.952 0.33333-6.2142-2.0238-11.952-6.857-16.714-1.9047-1.8809-5.0237-3.9999-6.7618-4.6428l-0.7857-0.2619 0.54761-1.2619 0.54761-1.2381-1.4524-1.0238c-3.3095-2.3333-5.4285-4.4047-8.0713-7.857l-0.83332-1.119zm-5.4761 18.643c1.5238 5.4047 2.4047 10.809 2.4047 14.619 0 2.1428-0.5238 6.238-1.0714 8.357-0.30952 1.2857-1.7381 5.6428-1.9285 5.8809-0.09524 0.16666-2.1666-0.99998-3.8809-2.1904-3.2142-2.2142-5.8332-5.9761-6.8332-9.9046-0.57142-2.1904-0.49999-6.0237 0.11905-8.4046 1.1905-4.5475 4.5952-8.8332 8.8094-11.095 0.73808-0.38095 1.3571-0.66666 1.3809-0.64285 0.04762 0.02381 0.47618 1.5476 0.99998 3.3809zm16.547-2.5952c2.119 1.119 5.5713 4.4999 6.8808 6.738 1.2381 2.1428 2.2857 5.9761 2.3095 8.4046 0 1.6666-0.64285 4.3095-1.5238 6.238-0.83332 1.7857-3.0952 4.9285-4.5952 6.3332-0.99998 0.97618-5.0475 4.0237-5.3094 4.0237-0.19047 0-1.0952-3.1666-2.3095-7.9761-0.61904-2.4285-0.66666-2.9523-0.64285-7.0237 0.02381-3.3333 0.14286-5.0713 0.5238-7.1189 0.61904-3.4761 2.4523-10.5 2.738-10.5 0.11904 0 0.97617 0.40476 1.9285 0.88094z" fill="#028"/>
</svg>
