<?xml version="1.0" encoding="UTF-8"?>
<svg id="vector" width="320" height="192" version="1.1" viewBox="0 0 320 192" xmlns="http://www.w3.org/2000/svg">
 <path d="m21.333 0h277.33c5.6559 0 11.085 2.2491 15.085 6.2485 3.9994 3.9993 6.2485 9.4289 6.2485 15.085v384c0 5.656-2.2491 11.086-6.2485 15.085-3.9994 3.9993-9.4289 6.2485-15.085 6.2485h-277.33c-5.6559 0-11.085-2.2492-15.085-6.2485-3.9993-3.9994-6.2485-9.4289-6.2485-15.085v-384c0-5.6559 2.2491-11.085 6.2485-15.085 3.9993-3.9993 9.4289-6.2485 15.085-6.2485z" fill="#c1121c"/>
 <path d="m56 136h208v8h-100v152h-8v-152h-100z" fill="#fff"/>
 <path d="m94.875 119.97 19.55-33.862m1.575 13.89a11.75 11.75 0 0 1-8.3087 14.391 11.75 11.75 0 0 1-14.391-8.3088 11.75 11.75 0 0 1 8.3087-14.391 11.75 11.75 0 0 1 14.391 8.3087z" fill="none" stroke="#fff" stroke-width="4"/>
 <path d="m36 68h40m0-36v72m-40-72v72" fill="#fff" stroke="#fff" stroke-width="8"/>
</svg>
