<?xml version="1.0" encoding="UTF-8"?>
<svg id="vector" width="320" height="236" version="1.1" viewBox="0 0 320 236" xmlns="http://www.w3.org/2000/svg">
 <path d="m21.333 0h277.33c5.6559 0 11.085 2.2491 15.085 6.2485 3.9994 3.9993 6.2485 9.4289 6.2485 15.085v384c0 5.656-2.2491 11.086-6.2485 15.085-3.9994 3.9993-9.4289 6.2485-15.085 6.2485h-277.33c-5.6559 0-11.085-2.2492-15.085-6.2485-3.9993-3.9994-6.2485-9.4289-6.2485-15.085v-384c0-5.6559 2.2491-11.085 6.2485-15.085 3.9993-3.9993 9.4289-6.2485 15.085-6.2485z" fill="#c1121c"/>
 <path d="m44 100h232v16h-232z" fill="#fff"/>
 <path d="m44 84h-16v-56l16 6.3e-5c12 4.7e-5 20 6 20 16 0 6-4 12-10.048 11.792 4.0479 0.20812 12.048 2.2081 12.048 12.208s-6 16-22 16zm-8.0319-32c8.0319 0 20.032 2.096 20.032-7.952s-12-8.048-20-8.0479zm0.03194 24c8 0 22 2 22-8s-14-8-22-8zm84 8.0001h-9l-18-23-5 3v20h-8v-56l8 1.25e-4v26l23-26 9 1.25e-4 -22.5 26z" fill="#fff" stroke-width="20" aria-label="BK"/>
 <path d="m28 196 40-40m-3 20a17 17 0 0 1-17 17 17 17 0 0 1-17-17 17 17 0 0 1 17-17 17 17 0 0 1 17 17z" fill="none" stroke="#fff" stroke-width="6"/>
</svg>
