<?xml version="1.0" encoding="UTF-8"?>
<svg width="146" height="100" version="1.1" viewBox="0 0 38.629 26.458" xmlns="http://www.w3.org/2000/svg">
 <rect x="2e-8" y="8.5449e-6" width="38.629" height="26.458" rx="2.138" ry="2.0906" fill="#fff"/>
 <path d="m20.834 2.5649c-0.55628 0.27805-0.69541 1.6683-0.69541 1.6683-0.29482 0.0776-0.70068 0.31973-0.70081 0.56696l0.0055 0.54523c2.76e-4 0.27805 0.1393 0.41708 0.55637 0.41708v0.6951s-0.03815 0.27072 0.13903 0.27805h0.69511c0.17383 0 0.13903-0.27805 0.13903-0.27805v-0.5561h2.5024v0.5561s-0.03399 0.27805 0.13984 0.27805h0.69541c0.17383 0 0.13794-0.27805 0.13794-0.27805v-0.6951c0.41708 0 0.55618-0.13903 0.55746-0.41708v-0.5561c-0.07571-0.26008-0.45313-0.47801-0.69541-0.55609 0 0-0.1402-1.3903-0.69541-1.6683zm0.34756 0.55609h2.0859c0.34765 0.41708 0.34756 1.1122 0.34756 1.1122h-2.781s-9.2e-5 -0.69511 0.34756-1.1122zm-0.77253 1.5296a0.41708 0.41708 0 0 1 0.41708 0.41707 0.41708 0.41708 0 0 1-0.41708 0.41707 0.41708 0.41708 0 0 1-0.41708-0.41707 0.41708 0.41708 0 0 1 0.41708-0.41707zm3.6225 0a0.41708 0.41708 0 0 1 0.41708 0.41707 0.41708 0.41708 0 0 1-0.41708 0.41707 0.41708 0.41708 0 0 1-0.41708-0.41707 0.41708 0.41708 0 0 1 0.41708-0.41707z"/>
 <g transform="matrix(.19844 0 0 .19844 -7.5584 -7.24)" stroke-width="9.333">
  <g fill="none" stroke="#000">
   <path d="m54.109 141.56c13.113-6.4674 14.007-12.828 19.978-30.38 5.7046 23.391 4.8107 22.453 3.2303 40.327" stroke-linecap="round" stroke-linejoin="round" stroke-width="7.9998"/>
   <path d="m76.378 93.787c-1.7582 6.6667-3.1849 27.072-3.1849 27.072" stroke-width="10.666"/>
   <path d="m56.485 111.3c5.309-9.6794 15.523-17.72 19.893-21.456 7.336 6.2702 2.6624 21.521 15.925 19.864" stroke-linecap="round" stroke-linejoin="round" stroke-width="7.9998"/>
  </g>
  <circle cx="81.007" cy="73.531" r="9.6575"/>
 </g>
 <path d="m30.692 2.6508-5.2917 4.2333 0.52917 1.0583 1.0583-0.0212v6.9004h2.3812v-3.175h2.6458v3.175h2.3812v-6.8792h1.0583l0.52917-1.0583zm-2.6458 4.4979h2.1167v2.3812h-2.1167zm3.175 0h2.1167v2.3812h-2.1167z" stroke-width=".052917"/>
 <circle cx="15.217" cy="21.87" r="1.23"/>
 <g transform="matrix(.21857 0 0 .21857 2.8414 3.75)" stroke-width="1.2105">
  <g fill="none" stroke="#000" stroke-linecap="round">
   <path d="m75 87c1-9 4-16 4-17 2 4 8 6 8 6l7-4" stroke-linejoin="round" stroke-width="6.0526"/>
   <path d="m77 63 2 8" stroke-width="8.4737"/>
   <path d="m65 68s7-1 11-7c4.8832 0.05182 8-1 10 3" stroke-linejoin="bevel" stroke-width="6.0526"/>
  </g>
  <circle cx="72.598" cy="52.05" r="5.5"/>
 </g>
 <path d="m15.712 11.217a1.793 1.7853 0 0 1-1.793 1.7853 1.793 1.7853 0 0 1-1.793-1.7853 1.793 1.7853 0 0 1 1.793-1.7853 1.793 1.7853 0 0 1 1.793 1.7853zm5.843-3.2e-4a1.793 1.7853 0 0 1-1.793 1.7853 1.793 1.7853 0 0 1-1.793-1.7853 1.793 1.7853 0 0 1 1.793-1.7853 1.793 1.7853 0 0 1 1.793 1.7853zm-6.6393-2.7497 2.2661 2.7399h2.5899l-1.7805-2.7399h-3.0755m2.2661 2.7399 0.80935-3.3846m0 0 0.78891-2e-3m-4.8356 3.3863 1.3491-3.9995h1.2949" fill="none" stroke="#000" stroke-linecap="round" stroke-linejoin="round" stroke-width=".52916"/>
 <g transform="translate(.24218 -.57396)">
  <circle cx="31.75" cy="23.041" r="7.1661" fill="#c1121c" stroke-width=".9307"/>
  <circle cx="31.75" cy="23.041" r="5.3583" fill="#fff" stroke-width=".9307"/>
  <path d="m28.279 24.659v-0.65133l1.5736-1.3459q0.19021-0.16716 0.34007-0.31414t0.23344-0.30837q0.08646-0.16139 0.08646-0.36025 0-0.20462-0.08646-0.35448-0.08358-0.15274-0.2392-0.23632-0.15274-0.08358-0.36601-0.08358-0.23056 0-0.39771 0.10087-0.16427 0.10087-0.2565 0.2882-0.08934 0.18445-0.08934 0.44671h-0.8156q0-0.46688 0.19021-0.81272 0.19309-0.34872 0.54181-0.53893 0.34872-0.19309 0.82713-0.19309 0.44094 0 0.7839 0.16427 0.34296 0.16427 0.53605 0.46688 0.19598 0.29973 0.19598 0.70609 0 0.29973-0.1124 0.54758-0.1124 0.24785-0.32566 0.48129-0.21038 0.23056-0.51011 0.48706l-0.91071 0.79255v0.0058h1.8791v0.71185zm5.2222 0.06917q-0.53893 0-0.93088-0.26802-0.38907-0.27091-0.59945-0.76661-0.2075-0.4957-0.2075-1.1787 0-0.68591 0.2075-1.1816 0.21038-0.4957 0.59945-0.76661 0.38907-0.27091 0.93088-0.27091 0.53893 0 0.928 0.27091 0.39195 0.26802 0.59945 0.76661 0.21038 0.4957 0.21038 1.1816 0 0.68303-0.21038 1.1787-0.2075 0.4957-0.59945 0.76661-0.38907 0.26802-0.928 0.26802zm0-0.70897q0.27955 0 0.48129-0.18156t0.31125-0.51876 0.10952-0.80407q0-0.46976-0.10952-0.80696t-0.31125-0.51876q-0.20174-0.18445-0.48129-0.18445t-0.48417 0.18445q-0.20174 0.18156-0.31125 0.51876-0.10663 0.33719-0.10663 0.80696 0 0.46688 0.10663 0.80407 0.10952 0.33719 0.31125 0.51876 0.20462 0.18156 0.48417 0.18156z" stroke-width="1.0583" aria-label="20"/>
 </g>
 <path transform="translate(.24218 -.57396)" d="m-0.24218 0.57385v26.458h38.629v-26.458h-38.629zm1.0583 1.0583h36.512v24.342h-36.512v-24.342z" fill="#fff" fill-rule="evenodd" stroke-width=".26458"/>
 <rect x="1.0583" y="1.0582" width="36.512" height="24.342" ry="1.2247" fill="none" stroke="#000" stroke-width="1.0583"/>
</svg>
