<?xml version="1.0" encoding="UTF-8"?>
<svg version="1.1" viewBox="0 0 320 320" xml:space="preserve" xmlns="http://www.w3.org/2000/svg">
    <g transform="matrix(1.0526 0 0 1.0526 4.3421e-8 .00018021)">
        <path
            d="m297.2 168.43-128.77 128.77c-9.0739 9.0732-23.784 9.0732-32.858 0l-128.77-128.77c-9.0739-9.0739-9.0739-23.785 0-32.858l128.77-128.77c9.0732-9.0732 23.784-9.0732 32.858 0l128.77 128.77c9.0732 9.0732 9.0732 23.784 0 32.858"
            fill="#ffce0d" />
        <path
            d="m293.4 168.43-124.97 124.97c-9.0739 9.0739-23.785 9.0739-32.858 0l-124.97-124.97c-9.0732-9.0739-9.0732-23.785 0-32.858l124.97-124.97c9.0732-9.0732 23.784-9.0732 32.858 0l124.97 124.97c9.0739 9.0732 9.0739 23.784 0 32.858"
            fill="#ffdc19" />
        <path
            d="m201.98 245.58-45.195 43.492c-1.2772 1.2772-2.9753 1.9809-4.7822 1.9809-1.8063 0-3.505-0.70366-4.7822-1.9809l-44.85-43.492c13.814 14.307 42.37 44.099 43.416 46.975 0.20446 0.56227-0.0744 1.4292-0.67711 2.4847-0.33656 0.93866-0.77602 2.1024-1.2739 3.3882 2.6799 1.0316 5.5078 1.5554 8.3397 1.5759 2.8319-0.0206 5.6598-0.54434 8.3397-1.5759-0.49787-1.2858-0.93733-2.4495-1.2739-3.3882-0.60276-1.0555-0.88157-1.9224-0.67644-2.4847 1.0455-2.8764 29.601-32.668 43.415-46.975"
            fill="#ffff87" />
        <path
            d="m158.56 10.311c-0.20512-0.56293 0.0737-1.4292 0.67711-2.4854 0.24827-0.69238 0.55297-1.5082 0.89484-2.4044-5.142-1.8773-10.804-1.9191-15.966-0.11352 0.36046 0.94065 0.68043 1.7963 0.93933 2.5179 0.60275 1.0562 0.88223 1.9225 0.6771 2.4854-1.0462 2.8764-42.147 47.065-42.147 47.065l43.581-43.582c1.2772-1.2772 2.976-1.9809 4.7829-1.9809 1.8063 0 3.505 0.70366 4.7816 1.9809l43.605 43.604s-40.78-44.211-41.825-47.088"
            fill="#ffff87" />
        <path
            d="m147.08 7.3411c0-1.2228 2.0878-2.2145 4.6621-2.2145 2.575 0 4.6621 0.99176 4.6621 2.2145 0 1.2234-2.0871 2.2145-4.6621 2.2145-2.5743 0-4.6621-0.9911-4.6621-2.2145"
            fill="#ffffe6" />
        <path
            d="m152 291.06c-1.807 0-3.505-0.70366-4.7829-1.9809l-132.29-132.29c-1.2779-1.2772-1.9809-2.9753-1.9809-4.7816 0-1.8063 0.703-3.505 1.9809-4.7829l132.29-132.29c1.2779-1.2779 2.976-1.9809 4.7829-1.9809 1.8063 0 3.505 0.703 4.7822 1.9809l132.29 132.29c1.2779 1.2785 1.9809 2.9766 1.9809 4.7829 0 1.8056-0.703 3.5037-1.9809 4.7816l-132.29 132.29c-1.2772 1.2772-2.976 1.9809-4.7822 1.9809z"
            fill="none" stroke="#fbbb00" stroke-width="1.9" />
    </g>
</svg>
