<?xml version="1.0" encoding="UTF-8"?>
<svg version="1.1" viewBox="0 0 290 290" xml:space="preserve" xmlns="http://www.w3.org/2000/svg">
    <defs>
        <clipPath id="clipPath58"><path d="m382.75 231.2h60.73l111.36 111.36v64.095l-172.09 172.09z"/></clipPath>
        <linearGradient id="linearGradient72" x2="1"
            gradientTransform="matrix(0 347.55 347.55 0 468.79 231.2)"
            gradientUnits="userSpaceOnUse"><stop stop-color="#fff" offset="0"/>
            <stop stop-color="#fff" stop-opacity="0" offset="1" /></linearGradient>
        <mask id="mask74" x="0" y="0" width="1" height="1" maskUnits="userSpaceOnUse"><path d="m-32768 32767h65535v-65535h-65535z" fill="url(#linearGradient72)"/></mask>
        <linearGradient id="linearGradient94" x2="1"
            gradientTransform="matrix(0,347.55,347.55,0,468.79,231.2)"
            gradientUnits="userSpaceOnUse"><stop stop-color="#a6ade2" offset="0"/>
            <stop stop-color="#c3c7f4" offset="1" /></linearGradient>
        <linearGradient id="linearGradient120" x2="1"
            gradientTransform="matrix(34.883 0 0 -34.883 382.75 404.97)"
            gradientUnits="userSpaceOnUse"><stop stop-color="#fff" offset="0"/>
            <stop stop-color="#fff" stop-opacity="0" offset=".036313" />
            <stop stop-color="#fff" offset="1" /></linearGradient>
        <mask id="mask122" x="0" y="0" width="1" height="1" maskUnits="userSpaceOnUse"><path d="m-32768 32767h65535v-65535h-65535z" fill="url(#linearGradient120)"/></mask>
        <linearGradient id="linearGradient144" x2="1"
            gradientTransform="matrix(34.883,0,0,-34.883,382.75,404.97)"
            gradientUnits="userSpaceOnUse"><stop stop-color="#c3c7f4" offset="0"/>
            <stop stop-color="#c2c6f3" offset=".036313" />
            <stop stop-color="#a6ade2" offset="1" /></linearGradient>
        <linearGradient id="linearGradient168" x2="1"
            gradientTransform="matrix(0 294.06 294.06 0 239.75 231.2)"
            gradientUnits="userSpaceOnUse"><stop stop-color="#fff" offset="0"/>
            <stop stop-color="#fff" stop-opacity="0" offset="1" /></linearGradient>
        <mask id="mask170" x="0" y="0" width="1" height="1" maskUnits="userSpaceOnUse"><path d="m-32768 32767h65535v-65535h-65535z" fill="url(#linearGradient168)"/></mask>
        <linearGradient id="linearGradient190" x2="1"
            gradientTransform="matrix(0,294.06,294.06,0,239.75,231.2)"
            gradientUnits="userSpaceOnUse"><stop stop-color="#babcbf" offset="0"/>
            <stop stop-color="#d0d2d3" offset="1" /></linearGradient>
        <linearGradient id="linearGradient216" x2="1"
            gradientTransform="matrix(11.628 0 0 -11.628 273.45 374.61)"
            gradientUnits="userSpaceOnUse"><stop stop-color="#fff" offset="0"/>
            <stop stop-color="#fff" stop-opacity="0" offset=".036313" />
            <stop stop-color="#fff" offset="1" /></linearGradient>
        <mask id="mask218" x="0" y="0" width="1" height="1" maskUnits="userSpaceOnUse"><path d="m-32768 32767h65535v-65535h-65535z" fill="url(#linearGradient216)"/></mask>
        <linearGradient id="linearGradient240" x2="1"
            gradientTransform="matrix(11.628,0,0,-11.628,273.45,374.61)"
            gradientUnits="userSpaceOnUse"><stop stop-color="#c3c7f4" offset="0"/>
            <stop stop-color="#c2c6f3" offset=".036313" />
            <stop stop-color="#a6ade2" offset="1" /></linearGradient>
        <linearGradient id="linearGradient266" x2="1"
            gradientTransform="matrix(11.628 0 0 -11.628 251.36 374.61)"
            gradientUnits="userSpaceOnUse"><stop stop-color="#fff" offset="0"/>
            <stop stop-color="#fff" stop-opacity="0" offset=".036313" />
            <stop stop-color="#fff" offset="1" /></linearGradient>
        <mask id="mask268" x="0" y="0" width="1" height="1" maskUnits="userSpaceOnUse"><path d="m-32768 32767h65535v-65535h-65535z" fill="url(#linearGradient266)"/></mask>
        <linearGradient id="linearGradient290" x2="1"
            gradientTransform="matrix(11.628,0,0,-11.628,251.36,374.61)"
            gradientUnits="userSpaceOnUse"><stop stop-color="#c3c7f4" offset="0"/>
            <stop stop-color="#c2c6f3" offset=".036313" />
            <stop stop-color="#a6ade2" offset="1" /></linearGradient>
        <linearGradient id="linearGradient316" x2="1"
            gradientTransform="matrix(11.628 0 0 -11.628 228.1 374.61)"
            gradientUnits="userSpaceOnUse"><stop stop-color="#fff" offset="0"/>
            <stop stop-color="#fff" stop-opacity="0" offset=".036313" />
            <stop stop-color="#fff" offset="1" /></linearGradient>
        <mask id="mask318" x="0" y="0" width="1" height="1" maskUnits="userSpaceOnUse"><path d="m-32768 32767h65535v-65535h-65535z" fill="url(#linearGradient316)"/></mask>
        <linearGradient id="linearGradient340" x2="1"
            gradientTransform="matrix(11.628,0,0,-11.628,228.1,374.61)"
            gradientUnits="userSpaceOnUse"><stop stop-color="#c3c7f4" offset="0"/>
            <stop stop-color="#c2c6f3" offset=".036313" />
            <stop stop-color="#a6ade2" offset="1" /></linearGradient>
        <clipPath id="clipPath350"><path d="m0 750h750v-750h-750z"/></clipPath>
        <linearGradient id="linearGradient376" x2="1"
            gradientTransform="matrix(0,54.739,54.739,0,132.06,246.85)"
            gradientUnits="userSpaceOnUse"><stop stop-color="#99b0c9" offset="0"/>
            <stop stop-color="#99b0c9" offset=".7762" />
            <stop stop-color="#99b0c9" offset=".81574" />
            <stop stop-color="#c3c7f4" offset="1" /></linearGradient>
        <linearGradient id="linearGradient398" x2="1"
            gradientTransform="matrix(0,63.97,63.97,0,133.9,206.52)" gradientUnits="userSpaceOnUse"><stop stop-color="#c3c7f4" offset="0"/>
            <stop stop-color="#5f698f" offset=".96812" />
            <stop stop-color="#5f698f" offset="1" /></linearGradient>
        <linearGradient id="linearGradient422" x2="1"
            gradientTransform="matrix(0,45.22,45.22,0,52.045,239.84)"
            gradientUnits="userSpaceOnUse"><stop stop-color="#99b0c9" offset="0"/>
            <stop stop-color="#99b0c9" offset=".7762" />
            <stop stop-color="#99b0c9" offset=".81574" />
            <stop stop-color="#c3c7f4" offset="1" /></linearGradient>
        <linearGradient id="linearGradient444" x2="1"
            gradientTransform="matrix(0,52.845,52.845,0,53.559,206.52)"
            gradientUnits="userSpaceOnUse"><stop stop-color="#c3c7f4" offset="0"/>
            <stop stop-color="#5f698f" offset=".96812" />
            <stop stop-color="#5f698f" offset="1" /></linearGradient></defs>
    <g transform="matrix(1.3996 0 0 -1.3996 0 290)"><path d="m103.6-6.25e-7c-1.3462 0-2.6114 0.52426-3.5628 1.4762l-98.562 98.562c-0.95193 0.95144-1.4757 2.2165-1.4757 3.5623s0.52376 2.6113 1.4757 3.5628l98.562 98.562c0.95143 0.95143 2.2165 1.4752 3.5628 1.4752s2.6114-0.52377 3.5628-1.4752l98.562-98.562c0.95194-0.95193 1.4757-2.217 1.4757-3.5628 0-1.3453-0.52376-2.6104-1.4757-3.5623l-98.562-98.562c-0.95143-0.95194-2.2165-1.4762-3.5628-1.4762" fill="#c3c7f4"/>
        <g transform="matrix(.49787 0 0 .49787 -82.908 -82.908)" clip-path="url(#clipPath58)"><g mask="url(#mask74)"><path d="m382.75 231.2h60.73l111.36 111.36v64.095l-172.09 172.09z" clip-path="none" fill="url(#linearGradient94)" mask="none"/></g></g>
        <g transform="matrix(.49787 0 0 .49787 -82.908 -82.908)" mask="url(#mask170)"><path d="m169.49 381.77c-1.912-1.911-2.965-4.454-2.965-7.156 0-2.704 1.053-5.245 2.965-7.156l136.25-136.25h7.241v294.06z" fill="url(#linearGradient190)" mask="none"/></g>
        <g transform="matrix(.49787 0 0 .49787 -82.908 -82.908)" mask="url(#mask122)"><path d="m382.75 231.2h34.883v312.66l-34.883 34.883z" fill="url(#linearGradient144)" mask="none"/></g>
        <g transform="matrix(.49787 0 0 .49787 -82.908 -82.908)" mask="url(#mask218)"><path d="m273.45 485.72v-222.23l11.627-11.628v245.49z" fill="url(#linearGradient240)" mask="none"/></g>
        <g transform="matrix(.49787 0 0 .49787 -82.908 -82.908)" mask="url(#mask268)"><path d="m251.36 463.63v-178.05l11.628-11.628v201.3z" fill="url(#linearGradient290)" mask="none"/></g>
        <g transform="matrix(.49787 0 0 .49787 -82.908 -82.908)" mask="url(#mask318)"><path d="m228.1 440.38v-131.54l11.628-11.628v154.79z" fill="url(#linearGradient340)" mask="none"/></g>
        <g transform="matrix(.49787 0 0 .49787 -82.908 -82.908)" clip-path="url(#clipPath350)"><path d="m256.91 280.04 110.55-110.55c1.912-1.912 4.453-2.965 7.157-2.965 2.703 0 5.244 1.053 7.155 2.965l110.55 110.55z" clip-path="none" fill="#26354b"/></g>
        <path
            d="m109.82 55.626-28.977-1.1635-32.998 1.1635c-0.19317 0-0.3495 0.15583-0.3495 0.34901 0 0.19317 0.15633 0.34901 0.3495 0.34901h61.975c0.19317 0 0.34901-0.15583 0.34901-0.34901 0-0.19317-0.15584-0.34901-0.34901-0.34901"
            fill="#242424" stroke-width=".49787" />
        <path d="m115.79 9.9984-24.293 0.020413 2.6805-2.6805 18.209-0.64175z" fill="#242424"
            stroke-width=".49787" />
        <g transform="translate(0,-150)"><path d="m104.69 274.22c0-15.115 12.254-27.37 27.37-27.37s27.37 12.254 27.37 27.37-12.254 27.37-27.37 27.37-27.37-12.254-27.37-27.37" fill="url(#linearGradient376)"/>
            <path
                d="m140.94 266.24-7.0429-7.3332-1.4478 5.6932 0.57952-7.3332-2.809-5.0554h-0.3515l-8.7073 5.0554 8.4036-7.365v-0.52775l-9e-3 -0.0189 9e-3 -3e-3 1.8237-20.066-1.8237-22.771 6.0691 0.19317-1.0709 24.124-1.052 17.365 1.7371 3.0878 11.385 5.4029-12.447-2.9907 0.38635 3.6663 6.2712 7.3327 3.8595 3.4732-3.1844-1.3502-2.0258 3.6658z"
                fill="url(#linearGradient398)" />
            <path
                d="m29.435 262.45c0-12.487 10.122-22.609 22.609-22.609 12.488 0 22.61 10.123 22.61 22.609 0 12.487-10.122 22.61-22.61 22.61-12.487 0-22.609-10.123-22.609-22.61"
                fill="url(#linearGradient422)" />
            <path
                d="m59.378 255.85-5.8186-6.0571-1.1959 4.7019 0.47846-6.0571-2.3201-4.1767h-0.29076l-7.1928 4.1767 6.9423-6.0845v-0.43564l-8e-3 -0.0159 8e-3 -2e-3 1.5066-16.576-1.5066-18.811 5.0136 0.15931-0.88472 19.929-0.86879 14.345 1.4344 2.5506 9.4053 4.4634-10.282-2.4709 0.31864 3.0291 5.1809 6.0576 3.1879 2.8692-2.6303-1.1162-1.6734 3.0291z"
                fill="url(#linearGradient444)" /></g>
        <g transform="translate(150)"><path d="m-50.067 57.736c-6.9404 0-12.567 5.6265-12.567 12.567 0 6.9414 5.627 12.567 12.567 12.567 6.9409 0 12.567-5.626 12.567-12.567 0-6.9404-5.6265-12.567-12.567-12.567m0 25.651c-7.2256 0-13.084-5.858-13.084-13.084 0-7.2251 5.858-13.083 13.084-13.083 7.2261 0 13.084 5.858 13.084 13.083 0 7.2261-5.8575 13.084-13.084 13.084" fill="#fff"/>
            <path
                d="m-85.607 99.685 2.917 2.0652 8.4833 5.7006 0.7269 2.6014 0.72938 4.6676-0.10854 3.5578 2.701 2.0657 3.6733-0.45904 0.21608-2.4102-3.1944-12.548-12.548-5.3551-0.30619 0.38187-1.2243-0.68856-0.68856-0.15285z"
                fill="#424242" />
            <path
                d="m-74.207 118.33-2.7049 1.7067s-2.9713-1.3577-3.4064-0.96488c-0.51132 0.46153-0.79759 2.2758-0.79759 2.2758l-1.0236-0.0966 0.75478 2.567s-0.96836 0.98479-0.68159 2.3046c0.28678 1.3199 3.039 5.1186 5.736 3.2252 2.697-1.8939 2.5825-1.0903 2.697-3.0988 0.11501-2.0084-0.45904-3.5578-0.45904-3.5578l1.7216-0.68906z"
                fill="#ea972f" />
            <path
                d="m-81.122 123.61c0 0.22155 0.17973 0.40178 0.40178 0.40178 0.22155 0 0.40178-0.18023 0.40178-0.40178 0-0.22205-0.18023-0.40178-0.40178-0.40178-0.22205 0-0.40178 0.17973-0.40178 0.40178"
                fill="#0b0b0b" />
            <path
                d="m-81.592 124.4s1.5076 0.44311 1.516 0.58898c9e-3 0.14538-2.2479 0.36694-1.516-0.58898"
                fill="#0b0b0b" />
            <path
                d="m-70.808 88.729c-0.52277 2.1189-1.8939 2.9838-1.8939 2.9838l7.1734 2.6975c-0.22155 0.16679-3.6947 0.74681-3.864 1.0137-0.59197 0.93351-1.1376 2.0821-1.4155 2.7159l-6.9797-4.3982c-0.76971-0.48443-0.99525-1.5051-0.50136-2.2688l8.6774-12.415 0.98728 1.0988-1.2193 4.2503s-0.44211 2.2036-0.96438 4.3225"
                fill="#ea972f" />
            <path
                d="m-68.799 80.784s-0.29026-0.47049-0.63877-0.70598c-0.34801-0.23599-0.58052-0.23599-0.58052-0.23599l-3.8316-3.6101 6.0377 2.1194 0.17426 1.2556z"
                fill="#424242" />
            <path
                d="m-64.872 101.69-11.622-7.133s2.1105 0.15832 2.9265-0.53422c1.1974-1.0162 1.8705-1.9317 1.8705-1.9317s13.464 3.5797 14.394 4.102c0.92903 0.52277-2.9823 2.1882-7.5682 5.497"
                fill="#43404b" />
            <path
                d="m-50.067 57.22c-7.2256 0-13.084 5.858-13.084 13.083 0 7.2261 5.858 13.084 13.084 13.084 7.2261 0 13.084-5.858 13.084-13.084 0-7.2251-5.8575-13.083-13.084-13.083m0 27.544c-7.9864 0-14.461-6.4743-14.461-14.461 0-7.9864 6.4743-14.461 14.461-14.461 7.9869 0 14.461 6.4743 14.461 14.461 0 7.9869-6.4743 14.461-14.461 14.461"
                fill="#242424" />
            <path
                d="m-94.062 57.22c-7.2261 0-13.084 5.858-13.084 13.083 0 7.2261 5.8575 13.084 13.084 13.084 7.2261 0 13.084-5.858 13.084-13.084 0-7.2251-5.8575-13.083-13.084-13.083m0 27.544c-7.9869 0-14.461-6.4743-14.461-14.461 0-7.9864 6.4738-14.461 14.461-14.461 7.9869 0 14.461 6.4743 14.461 14.461 0 7.9869-6.4738 14.461-14.461 14.461"
                fill="#242424" />
            <path
                d="m-94.062 68.353c-1.0779 0-1.9512 0.87327-1.9512 1.9507 0 1.0779 0.87327 1.9512 1.9512 1.9512 1.0774 0 1.9507-0.87327 1.9507-1.9512 0-1.0774-0.87327-1.9507-1.9507-1.9507"
                fill="#424242" />
            <path
                d="m-102.92 61.39c-4.923 4.8926-4.9479 12.85-0.0548 17.773 4.8921 4.923 12.85 4.9479 17.772 0.05526 4.9235-4.8931 4.9479-12.85 0.05526-17.773-4.8926-4.9225-12.85-4.9474-17.773-0.05477m18.082 18.194c-5.1256 5.0932-13.41 5.0679-18.503-0.05775-5.0938-5.1251-5.0679-13.409 0.0572-18.503 5.1251-5.0937 13.409-5.0679 18.503 0.05726 5.0937 5.1256 5.0679 13.409-0.05726 18.503"
                fill="#fff" />
            <path
                d="m-68.468 65.139c-1.986 0-3.5961 1.6101-3.5961 3.5961s1.6101 3.5961 3.5961 3.5961 3.5961-1.6101 3.5961-3.5961-1.6101-3.5961-3.5961-3.5961"
                fill="#424242" />
            <path
                d="m-68.468 66.549c-1.2073 0-2.1862 0.97832-2.1862 2.1857 0 1.2068 0.97882 2.1857 2.1862 2.1857s2.1857-0.97882 2.1857-2.1857c0-1.2073-0.97832-2.1857-2.1857-2.1857"
                fill="#fff" />
            <path
                d="m-67.55 78.72-3.9023-1.3582 0.40178-0.80357 1.2049 0.40178 1.0331-8.1482 0.57405 0.22952-0.74631 8.1487 1.4732 0.57355z"
                fill="#868686" />
            <path
                d="m-55.939 107.6s-6.1662 11.015-9.7747 13.199c-4.3614 2.6397-7.0584 1.2049-7.0584 1.2049l-0.28678-2.7737 1.3199-8.7606s2.7931-1.8262 3.5005-2.6397c1.0744-1.2357 2.4675-5.509 2.4675-5.509z"
                fill="#fff" />
            <path
                d="m-67.03 116.63c-0.34204-3.1152-2.2419-6.429-2.2419-6.429s-0.08563-0.0279-0.31466-0.0423c0.66317-0.4441 1.7535-0.98429 2.6123-0.47547 0.97832 0.58002 1.0625 3.876-0.05576 6.9468"
                fill="#c3c7f4" />
            <path
                d="m-87.061 99.685 2.917 2.0652 8.4833 5.7006 0.7269 2.6014 0.72938 4.6676-0.10854 3.5578 2.7015 2.0657 3.6728-0.45904 0.21608-2.4102-4.0821-11.693c-0.11849-0.33905-0.36793-0.61636-0.69204-0.77021l-9.6483-4.5799-0.81054-0.91858-0.05427-1.7784-2.4849 0.17226z"
                fill="#ea972f" />
            <path
                d="m-50.067 68.353c-1.0774 0-1.9507 0.87327-1.9507 1.9507 0 1.0779 0.87327 1.9512 1.9507 1.9512 1.0779 0 1.9512-0.87327 1.9512-1.9512 0-1.0774-0.87327-1.9507-1.9512-1.9507"
                fill="#424242" />
            <path
                d="m-50.067 69.118c-0.6547 0-1.1859 0.53073-1.1859 1.1859 0 0.6552 0.53123 1.1864 1.1859 1.1864 0.6552 0 1.1859-0.53123 1.1859-1.1864 0-0.6552-0.53073-1.1859-1.1859-1.1859"
                fill="#fff" />
            <path
                d="m-66.978 72.32 5.392 15.636 9.9819-15.636zm-0.29773 2.3559-0.39432-1.1456-0.41722-1.2103h-2.2071s-13.363 15.438-14.548 16.802h22.549l-4.9817-14.447zm17.071-2.5984-10.941 17.139c-9.96e-4 0.0015-0.0025 0.0025-0.0035 4e-3l2.2827 6.6197c0.0941 0.27383-0.05128 0.57255-0.32511 0.66715-0.27433 0.0946-0.57206-0.05128-0.66665-0.32511l-2.0871-6.0526h-22.68l1.9631 5.7111c0.08713 0.25392-0.03137 0.53272-0.27483 0.64624l-4.6491 2.1643 5.5911 0.1643c0.28926 0.0085 0.51729 0.25043 0.50883 0.5397-0.0085 0.28926-0.24595 0.51928-0.5397 0.50833l-7.8042-0.22952c-0.24296-0.0065-0.44908-0.18023-0.49837-0.41821s0.07219-0.47846 0.29225-0.58152l6.2284-2.8991-3.4906-10.155c-2.0687 0.91908-4.3569 1.4314-6.7626 1.4314-0.24844 0-0.44958-0.20164-0.44958-0.45008s0.20114-0.44958 0.44958-0.44958c2.3037 0 4.4933-0.49538 6.4694-1.3851l-2.3579-6.8592-4.4505-7.6453c-0.14538-0.25043-0.06074-0.57106 0.18969-0.71694 0.08315-0.04829 0.17376-0.07169 0.26338-0.07169 0.18023 0 0.35648 0.0941 0.45356 0.26138l4.4759 7.6892c0.01743 0.02937 0.03186 0.06074 0.04282 0.0931l2.3315 6.7825c4.9887-2.6616 8.3912-7.9192 8.3912-13.957 0-0.24794 0.20164-0.44908 0.44958-0.44908 0.24844 0 0.44958 0.20114 0.44958 0.44908 0 6.4325-3.6539 12.026-8.9946 14.818l1.0206 2.9683 14.397-16.637c0.09908-0.11551 0.24396-0.18123 0.39631-0.18123h2.0846l-0.20861-0.60541c-0.0941-0.27383 0.05128-0.57256 0.32511-0.66665 0.05626-0.01942 0.11401-0.02888 0.17077-0.02888 0.21757 0 0.4207 0.13642 0.49588 0.35349l0.32611 0.94745h16.693c0.19168 0 0.36793 0.10455 0.45954 0.27234 0.09211 0.16778 0.08514 0.37241-0.01792 0.53422"
                fill="#424242" />
            <path
                d="m-64.643 95.438h7.1156s1.9128-0.15334 2.5252 0.91808c0.61188 1.0709 0.53521 2.1419-1.3771 2.219-1.9133 0.07618-5.2794-1.5305-5.2794-1.5305s-6.5804 0.22952-2.9843-1.6066"
                fill="#242424" />
            <path
                d="m-65.626 124.05c-1.2462 0.0749-2.6109-0.35038-3.9434-1.7505 0 0 3.5991-0.57921 5.0713-2.6265 1.1639-1.6194 4.3255-5.9277 5.9648-8.1636-0.46254-0.33987-3.1191-2.2007-5.688-1.7856-4.3205 0.69752-7.3447 5.7144-7.3447 5.7144s2.4639-4.927 5.2983-6.1318c2.7493-1.1685 4.9612-0.52477 6.2153 0.10254 1.0851 0.54214 1.967 0.94729 2.2617 1.084 0.1343-0.18311 0.83496-1.1426 0.83496-1.1426s1.2036-0.21507 2.2939 1.3931c1.0898 1.6081 1.5088 2.8623 1.5088 2.8623s-5.1388 7.2367-5.8667 7.4941c-0.72739 0.25691-1.6963 0.19337-1.6963 0.19337s-2.1686 2.5919-4.9102 2.7568z"
                fill="#0b0b0b" />
            <path d="m-82.757 97.734 0.05725 1.7784 0.55463 0.91858-4.916-0.74582 0.92903-1.9064z"
                fill="#6e6e6e" />
            <path
                d="m-71.644 121.99s-1.9895 0.61189-3.1371-1.9128c-1.1476-2.5247-1.3771-8.1104-1.3771-8.1104s3.0604-1.4538 4.7437-1.6833 2.1423-0.0767 2.1423-0.0767 6.5037 11.324-2.3719 11.783"
                fill="#fff" />
            <path
                d="m-67.359 82.093-2.9773-19.266 0.85136-0.38934 2.6547 4.8533s1.5872 1.7112 1.9556 2.7941c0.36793 1.0829 0.07219 3.3816-0.05925 3.5449-0.13144 0.1628-0.36096 1.631-0.36096 1.631l2.0771 6.8005z"
                fill="#ea972f" />
            <path
                d="m-56.134 107.5-9.6372-5.1753 0.2417-4.0664s-1.1694-5.1139-1.2466-7.2847c-0.07147-1.9847-0.01507-4.789-0.0044-5.3013l-0.57861-3.5786s0.15828-0.45198 1.9028-0.41015c1.745 0.04185 2.2383 0.37792 2.2383 0.37792l6.1729 15.255c0.34376 0.47894 1.3609 1.9088 2.042 3.1157 1.8491 3.2775-1.1309 7.0679-1.1309 7.0679z"
                fill="#26354b" />
            <path d="m-69.331 62.718 0.9375-1.5534-5.9551-0.59247-0.1638 0.37191 4.1846 1.9412z"
                fill="#242424" />
            <path
                d="m-79.311 126.3 1.1356-1.9218 0.26188-1.9796-0.72789-1.2815s-1.3682 0.40776-1.9218 0.32013l-0.55314-0.0871s0.08713-1.4558 0.58251-2.3584c0.49489-0.90265 1.048-1.2522 1.048-1.2522s1.048-0.1165 1.4852 0c0.43664 0.11651 1.514 1.1063 1.8635 2.0089 0.34951 0.90265 0.19865 1.3458 0.19865 1.3458l-1.1595 2.0029-0.4441 1.0037s0.41473 1.4379 0.93899 1.4672c0.52426 0.0289 0.51928-0.12248 0.66466-0.64674 0.14588-0.52376 0.12148-1.4164 0.12148-1.4164s1.1645-0.99027 2.0383-1.1063c0.87327-0.1165 1.6888 0.64027 1.6888 0.64027h-0.81552l0.52426 0.58251-0.49489-0.1165s0.29126 0.40776 0.29126 1.281-0.46601 2.3878-0.93202 2.9698c-0.46551 0.58251-0.66964 0.75727-0.66964 0.75727z"
                fill="#242424" />
            <path
                d="m-77.855 130.58c-2.8942 0.0825-5.2865-2.2871-4.4238-4.812-0.14419-0.0166-0.24425-0.034-0.41016-0.0498-1.8342-0.17475-3.2607-0.29151-3.2607-0.29151s-0.3197-0.40755-0.17432-0.66943c2.7841 0.27486 6.0037 0.33703 8.4141 1.251 2.6497 1.0191 3.873 2.2134 3.873 2.2134s-0.96112 2.2713-4.0181 2.3584z"
                fill="#73331d" />
            <path d="m-73.119 60.695 0.91808-0.72988 5.1012 0.48244-0.41224 0.91907z"
                fill="#424242" /></g>
        <g transform="translate(-150)"><path d="m290.61 34.921c-26.597-1.6584-32.559-19.889-38.613-21.802-2.6268-0.83045-7.2127-1.4677-11.672-1.9298l1.171-1.171h24.211z" fill="#d7caf6"/>
            <path
                d="m277.39 21.706c-2.7069 2.819-11.139-2.1503-11.139-2.1503s2.0343 6.6118-7.3755 6.8667c-6.7148 0.18123-16.018-8.184-20.796-12.99l3.2631-3.2631 24.6 0.08862z"
                fill="#fff" />
            <path d="m293.87 40.389 1.1098-3.8645-13.083 2.1682-0.13542 0.8897 10.173 1.5519z"
                fill="#242424" />
            <path
                d="m256.16 34.398c-0.12994 0.05128-0.27582-0.01394-0.32611-0.14339-1.1237-2.8822-2.8085-5.4657-5.0071-7.6777-5.1276-5.1595-12.443-7.48-19.548-6.3439l0.6074-0.60741c0.98081-0.12646 1.9636-0.19068 2.9439-0.19068 6.0586 0 11.984 2.3898 16.354 6.787 2.2479 2.2608 3.97 4.9026 5.1196 7.85 0.0508 0.12895-0.0139 0.27532-0.14339 0.32611"
                fill="#242424" />
            <path
                d="m293.74 67.364s-0.64325-1.0435-1.4154-1.5653c-0.77171-0.52127-1.286-0.52127-1.286-0.52127l-8.4902-7.9998 13.378 4.6954 0.38585 2.7826z"
                fill="#424242" />
            <path
                d="m253.6 107.55 6.4634 4.5774 18.798 12.631 1.6111 5.7644 1.6156 10.342-0.23998 7.8838 5.9849 4.577 8.1392-1.0172 0.47846-5.3402-7.0778-27.804-27.804-11.868-4.9165-1.0172z"
                fill="#a85c31" />
            <path
                d="m279.3 149.76-5.0903 3.9506s-3.6001-4.4296-5.2486-3.4124c-1.8511 1.1421-5.3651 6.0731-5.3651 6.0731h-2.1618l1.1446 3.9417s-2.0343 2.9245-1.399 5.849c0.63628 2.9245 6.9936 11.317 12.97 7.1211 5.976-4.1966 5.7216-2.4162 5.976-6.8667 0.25442-4.45-1.0172-7.8833-1.0172-7.8833l3.8147-1.526z"
                fill="#ea972f" />
            <path
                d="m263.54 160.57c0 0.4914 0.3983 0.8902 0.8897 0.8902s0.8902-0.3988 0.8902-0.8902-0.3988-0.8902-0.8902-0.8902-0.8897 0.3988-0.8897 0.8902"
                fill="#0b0b0b" />
            <path
                d="m262.84 162.82s3.4752-0.21209 3.6026 0.0846c0.12746 0.29673-4.4077 2.458-3.6026-0.0846"
                fill="#0b0b0b" />
            <path
                d="m294.77 77.092-2.8424-35.957 1.9357-0.74532 3.0813 8.7979s5.4164 6.2916 6.0845 8.7357c0.66815 2.4441-0.29573 7.489-0.6084 7.832-0.31266 0.34254-1.0172 3.5603-1.0172 3.5603l3.6872 14.114z"
                fill="#a85c31" />
            <path
                d="m297.17 100.51-3.1003-23.916s0.40975-0.97882 4.2633-0.65121c3.8535 0.3276 4.9016 1.1381 4.9016 1.1381l9.2784 23.175z"
                fill="#424242" />
            <path
                d="m303.94 48.254c2.3091 11.35 11.248 20.288 22.597 22.597l3.5468 3.5464c-15.891-1.1108-28.58-13.8-29.691-29.69z"
                fill="#ff5159" />
            <path
                d="m234.86 38.12c-2.3873 0-4.323 1.9357-4.323 4.323 0 2.3878 1.9357 4.323 4.323 4.323 2.3878 0 4.3235-1.9352 4.3235-4.323 0-2.3873-1.9357-4.323-4.3235-4.323"
                fill="#ff5159" />
            <path
                d="m236.84 14.674 1.0595-1.06c6.4076 0.67113 12.633 3.4677 17.528 8.3932 11.287 11.356 11.23 29.713-0.12696 40.999-11.356 11.286-29.713 11.23-40.999-0.12745-4.8498-4.8797-7.599-11.054-8.2632-17.403l1.0575-1.0575c0.45406 6.4256 3.1202 12.726 8.0178 17.654 10.841 10.908 28.472 10.963 39.381 0.12198 10.908-10.841 10.963-28.472 0.12198-39.38-4.9409-4.9723-11.293-7.6817-17.776-8.1402"
                fill="#fff" />
            <path
                d="m234.86 74.486c-15.74 0-28.82-11.353-31.522-26.314l2.69-2.69c1.5195 14.583 13.847 25.953 28.832 25.953 16.012 0 28.991-12.98 28.991-28.991 0-14.985-11.369-27.313-25.952-28.832l2.69-2.6895c14.962 2.702 26.314 15.782 26.314 31.522 0 17.697-14.346 32.043-32.043 32.043"
                fill="#ff5159" />
            <path
                d="m291.57 30.999c-4.4007 0-7.968 3.5678-7.968 7.9685s3.5673 7.9685 7.968 7.9685c4.4012 0 7.9685-3.5678 7.9685-7.9685s-3.5673-7.9685-7.9685-7.9685"
                fill="#424242" />
            <path
                d="m291.57 34.124c-2.6746 0-4.8438 2.1682-4.8438 4.8438 0 2.6751 2.1692 4.8433 4.8438 4.8433 2.6751 0 4.8438-2.1682 4.8438-4.8433 0-2.6756-2.1687-4.8438-4.8438-4.8438"
                fill="#fff" />
            <path
                d="m305.49 49.806c2.5874 9.4586 10.034 16.905 19.493 19.492l1.5524 1.5529c-11.349-2.3091-20.288-11.248-22.597-22.597z"
                fill="#fff" />
            <path
                d="m292.42 46.911h-4.8896l-32.331 37.363c-0.0339 0.03933-0.0727 0.0712-0.11102 0.10505l2.2862 6.6521 35.971-41.438zm19.71 53.595c-0.6079 0.2106-1.2681-0.11252-1.4772-0.71993l-16.433-47.656-35.972 41.44 1.877 5.4597c0.19317 0.5621-0.0697 1.18-0.6089 1.4309l-10.302 4.7955 12.389 0.36444c0.64176 0.0189 1.1461 0.55413 1.1272 1.1954-0.0189 0.64126-0.54468 1.1511-1.1954 1.1272l-17.293-0.50883c-0.5387-0.0154-0.99525-0.39929-1.1038-0.92654-0.10903-0.52775 0.15932-1.0605 0.64724-1.288l13.801-6.4246-7.7345-22.501c-4.5839 2.0368-9.6543 3.1715-14.986 3.1715-0.54965 0-0.99574-0.4461-0.99574-0.99575 0-0.55065 0.44609-0.99624 0.99574-0.99624 5.1047 0 9.9575-1.0983 14.336-3.0694l-5.2247-15.201-9.8609-16.939c-0.32263-0.55464-0.13493-1.2661 0.4197-1.5887 0.18372-0.10754 0.38486-0.15832 0.58351-0.15832 0.39979 0 0.78963 0.20711 1.0052 0.57753l9.9181 17.039c0.0383 0.0657 0.0702 0.13493 0.0951 0.20712l5.1659 15.029c11.053-5.8983 18.594-17.548 18.594-30.927 0-0.54966 0.4456-0.99575 0.99575-0.99575s0.99624 0.44609 0.99624 0.99575c0 14.253-8.0964 26.648-19.93 32.834l2.2613 6.5779 31.9-36.866c0.22056-0.25541 0.54168-0.40178 0.87825-0.40178h4.6203l-0.46252-1.3413c-0.20911-0.60691 0.11252-1.2681 0.71942-1.4772 0.12547-0.0438 0.25342-0.0642 0.37889-0.0642 0.48244 0 0.93251 0.30221 1.0988 0.78365l0.72341 2.099h6.199l2.3241 2.3241h-7.722l11.948 34.647 11.853-18.568 1.6833 1.6828-12.562 19.678c-2e-3 0.0035-6e-3 0.0065-8e-3 0.01046l5.0579 14.668c0.2091 0.60591-0.11252 1.2681-0.71993 1.4767"
                fill="#43404b" />
            <path
                d="m300.05 98.136h15.767s4.2384-0.33905 5.5946 2.0348c1.3567 2.3734 1.1869 4.7467-3.052 4.9165-4.2379 0.16928-11.698-3.391-11.698-3.391s-14.58 0.50882-6.6118-3.5603"
                fill="#242424" />
            <path
                d="m289.29 87.201c-1.1576 4.6954-4.1961 6.6123-4.1961 6.6123l15.894 5.976c-0.4904 0.36992-8.187 1.6554-8.5614 2.2464-1.3119 2.0687-2.5207 4.6133-3.1366 6.0188l-15.411-9.711c-1.7356-1.0938-2.2434-3.394-1.1302-5.1166l19.193-29.689 2.1867 2.4341-2.7015 11.652s-0.97931 4.8816-2.1369 9.5771"
                fill="#ea972f" />
            <path
                d="m290.06 83.927c-1.1043-0.1409-2.5924-0.3749-3.4821-0.7498-2.584-1.0879-4.2712-2.7149-5.0335-3.5648l10.036-15.525 2.4346 1.7655 0.10704 0.11899-2.701 11.652s-0.57355 2.8578-1.3612 6.3031"
                fill="#fff" />
            <path
                d="m319.34 125.09-33.445-18.009s2.7015-4.6312 4.2454-6.432c1.5434-1.8003 4.2349-3.9143 4.2349-3.9143s22.778 5.844 24.836 7.0016c2.0582 1.158 10.291 14.021 0.12895 21.353"
                fill="#73331d" />
            <path
                d="m293.61 61.092-8.6466-3.0092 0.8902-1.7804 2.7388 0.34851 2.22-17.514 1.2716 0.50882-1.6146 17.632 3.2252 1.6953z"
                fill="#ff5159" />
            <path
                d="m319.34 125.09s-13.664 24.406-21.659 29.246c-9.6632 5.849-15.64 2.6701-15.64 2.6701l-0.63529-6.1458 2.9245-19.412s6.1891-4.0467 7.7559-5.849c2.3808-2.7388 5.4676-12.207 5.4676-12.207z"
                fill="#fff" />
            <path
                d="m250.38 107.55 6.4634 4.5774 18.798 12.631 1.6106 5.7644 1.6156 10.342-0.23948 7.8838 5.9849 4.577 8.1387-1.0172 0.47895-5.3402-8.7651-25.106c-0.44211-1.2651-1.3721-2.3007-2.583-2.8757l-20.61-9.7827-1.7953-2.0343-0.11949-3.9422-5.506 0.38187z"
                fill="#ea972f" />
            <path
                d="m284.54 156.97s-4.4082 1.3567-6.9508-4.2384c-2.5431-5.5946-3.052-17.971-3.052-17.971s6.7815-3.2217 10.512-3.7301c3.7301-0.50883 4.7472-0.16928 4.7472-0.16928s14.41 25.091-5.256 26.108"
                fill="#ff5159" />
            <path
                d="m259.91 103.22 0.12746 3.9417 1.2282 2.0348-2.6273-1.9711-2.225-0.38137-0.8902 0.69951-2.1613-0.25442-2.9882 0.25442 2.0572-4.2235z"
                fill="#a85c31" />
            <path d="m309 95-2.9524-8.5614h2.4585l2.9519 8.5614z" fill="#ababab" />
            <path
                d="m288.65 166.79s-0.89667-0.44858-1.1207-0.5606c-0.22454-0.11203-2.5222 0.67262-2.4665 0.89667 0.0558 0.22454 3.5314 2.1304 3.5314 2.1304s-3.6439-0.44859-5.2695 0.11202c-1.6256 0.5606-2.1862 3.9242-3.5872 5.7738-1.402 1.8501-4.4848 1.5698-6.9513 1.0654-2.4665-0.50485-7.2874-2.6348-8.4086-2.6348s-0.11252 1.999-0.11252 1.999l-3.0271-2.7841s-1.4568-1.3452-1.4568-3.1954c0-1.8496 1.7216-2.5003 1.7216-2.5003s2.8747 0.70648 4.444 1.4916c1.5698 0.78465 2.0931 1.3826 2.0931 1.3826s-0.35498-0.42966-0.41124-0.9345c-0.0563-0.50435-0.20662-2.1458 0.0378-2.8025 0.42468-1.1431 3.0325-3.8212 3.0325-3.8212l-0.62035-4.342 3.0211-0.22006-0.78764 4.6068s1.3876 2.689 2.588 2.7557c1.1999 0.0667 1.3333-0.53323 1.6664-1.7336 0.33358-1.1999-1.5419-2.5018-1.5419-2.5018s3.8152-2.5023 5.743-3.0993c4.0009-1.2382 7.8823 2.1339 7.8823 2.1339l-4.223-0.47846 3.855 1.9875-3.1744-0.12497 1.3562 1.2497c2.1304 1.9621 2.1862 4.1483 2.1862 4.1483"
                fill="#242424" />
            <path
                d="m265.95 153.32s1.1496 0.38735 1.8566 1.6096c0.70748 1.2223 0.70748 2.1802 0.70748 2.1802s0.59695-3.0196-2.564-3.7898"
                fill="#242424" />
        </g>
    </g>
</svg>
