<?xml version="1.0" encoding="UTF-8"?>
<svg clip-rule="evenodd" fill-rule="evenodd" stroke-linejoin="round" stroke-miterlimit="2"
    version="1.1" viewBox="0 0 290 290" xml:space="preserve" xmlns="http://www.w3.org/2000/svg">
    <g>
        <path
            d="m144.84 289.68c-1.881 0-3.651-0.733-4.981-2.063l-137.79-137.79c-1.331-1.33-2.064-3.099-2.064-4.98s0.733-3.651 2.063-4.982l137.79-137.79c1.33-1.331 3.1-2.063 4.981-2.063s3.651 0.732 4.981 2.063l137.79 137.79c1.331 1.332 2.064 3.101 2.064 4.982s-0.733 3.649-2.064 4.98l-137.79 137.79c-1.33 1.33-3.1 2.063-4.981 2.063"
            fill="url(#_Linear1)" />
        <path
            d="m139.63 66.426c0.282-14.22 5.688-25.575 12.335-25.575 4.953 0 9.215 6.317 11.188 15.412 0.996-1.311 2.153-2.108 3.405-2.108 3.549 0 6.42 6.079 6.565 13.672 3.029 2.951 5.143 9.521 5.143 17.174 0 10.403-3.9 18.835-8.711 18.835h-28.534c-4.813 0-8.715-8.432-8.715-18.835 0-9.38 3.175-17.133 7.324-18.575z"
            fill="#abcbad" />
        <path
            d="m137.6 89.189c-0.188-9.495-3.798-17.076-8.236-17.076-3.308 0-6.153 4.218-7.471 10.291-0.664-0.876-1.438-1.408-2.273-1.408-2.37 0-4.287 4.059-4.384 9.129-2.022 1.97-3.434 6.358-3.434 11.468 0 6.946 2.604 12.576 5.816 12.576h19.054c3.214 0 5.819-5.63 5.819-12.576 0-6.264-2.12-11.441-4.891-12.404z"
            fill="#7aa47c" />
        <path
            d="m259.28 111.53 28.329 28.329c1.331 1.332 2.064 3.101 2.064 4.982s-0.733 3.649-2.064 4.98l-137.79 137.79c-1.33 1.33-3.1 2.063-4.981 2.063s-3.651-0.733-4.981-2.063l-137.79-137.79c-1.331-1.33-2.064-3.099-2.064-4.98s0.733-3.651 2.063-4.982l28.33-28.329z"
            fill="url(#_Linear2)" />
    </g>
    <g>
        <path d="m200.34 237.1-77.123 33.873-47.364-47.365 187.61-49.633z" fill="url(#_Linear3)" />
        <path
            d="m115.74 263.5-39.25-39.25 185.66-48.975-40.212 40.212-0.615-9.348-43.402 12.632-4.526 28.986z"
            fill="url(#_Linear4)" />
        <path
            d="m166.49 270.94c-14.667-7.803-28.06-15.557-36.154-21.044-16.153-10.951-34.002-44.451-37.369-51.147l7.128-10.964 7.378 3.962s4e-3 0.132 0.066 0.387l0.155-0.218 33.81-18.788c5.307 3.341 16.105 30.252 23.278 39.396 14.586 18.594 29.433 23.059 37.269 22.855z"
            fill="#b09884" fill-opacity=".25" />
        <path
            d="m171.37 266.06c-18.246-15.219-50.865-50.472-55.002-54.588-5.988-5.347-9.311-9.964-12.928-16.347l6.101-9.668 7.261 4.109s0.013 0.123 0.087 0.361l0.134-0.191 31.241-25.621c5.254 3.409 8.548 32.164 14.572 42.014 12.328 20.153 30.3 26.815 40.493 27.972z"
            fill="#363636" fill-opacity=".25" /></g>
    <g>
        <path
            d="m289.61 145.82c-0.208 1.51-0.899 2.905-1.996 4.002l-25.455 25.456-185.66 48.975-33.346-33.346z"
            fill="url(#_Linear5)" />
        <path
            d="m123.71 142.69-102.06 26.711-19.579-19.58c-1.331-1.33-2.064-3.099-2.064-4.98 0-1.672 0.579-3.256 1.642-4.522z"
            fill="#505050" fill-opacity=".85" />
        <path
            d="m276.61 128.86c-24.339 4.529-67.019 12.499-70.753 13.388-5.25 1.25-16.25-2.5-16.25-2.5s-95.336-20.15-97.586-22.15 26.993-5.271 34.493-6.521 30.786-1.215 30.786-1.215l3.285-2.142 99.772 9.278 5.222 0.831z"
            fill="#47301b" />
        <path
            d="m278.31 130.55c-23.81 4.428-69.301 12.917-73.162 13.836-5.25 1.25-16.25-2.5-16.25-2.5s-95.335-20.15-97.585-22.15 26.993-5.271 34.493-6.521 30.785-1.215 30.785-1.215l3.286-2.143 99.771 9.279 8.62 1.371z"
            fill="#775a3f" />
        <path
            d="m270.69 122.93 1.695 1.695-72.988 19.781-15.017-6.264-29.2 9.8-37-8.8-18-10.2 39.8-4.2 9.2-8.4-3.6-1.6-52.4 11 6.6-7.4 36-7.8 17.8-0.2z"
            fill="#333" fill-opacity=".42" /></g>
    <g>
        <path
            d="m143.59 67.817-0.034 3.019-1.787 2.671 6.594-2.088 0.137 1.649-0.89 0.248-4.229 13.784 2.508 11.536-3.227 3.907 2.539 3.517-2.969 1.818 2.419 4.505-1.512 0.687-2.365-4.3-0.89 0.545-0.067 1.99-2.64 0.22 2.117-36.702 2.282-4.207v-57.405h2.639l-0.016 1.449 3.981 2.323 0.104 2.2-0.868 0.43 1.493 0.257-2.78 5.14 3.196 2.558-2.671 2.184 1.943 0.978-2.542 6.395 2.958 3.777-1.98 1.089 1.564 0.148-2.393 6.149 2.184 2.511-2.116 2.381 2.325 1.743-2.512 5.919 2.199 2.466-1.29 1.24 2.331 0.272-0.52 1.787-2.825-1.085zm-3.65 39.836 0.159-0.11-0.147-0.267zm0.725-2.693 0.862 1.604 1.337-0.917-1.208-1.887zm-0.582-1.548 0.839-0.8-0.772-1.206zm2.464-13.597-2.254 7.346-0.068 2.009 1.756 2.431 2.533-2.415zm-2.09 2.469 1.549-5.047-1.188-5.661zm2.371-7.726 3.325-10.836-5.119 1.427-0.046 1.386 0.089-0.03zm0.786-18.829 0.927-0.76-0.914-0.351zm1.016-1.458 0.668 0.078 1.437-1.178-0.995-1.517zm-0.99-0.826 1.539-2.646-1.483-2.261zm2.336-9.932-2.251 2.533-0.024 2.122 1.821 2.042 3.075-5.287zm-2.246 2.064 1.526-2.451-1.488-0.801zm1.016-3.541 0.81 0.608 1.063-1.707-0.867-1.486zm-0.957-1.548 1.275-2.215-1.226-2.101zm3.046-8.388-2.969 1.634-0.021 1.842 1.668 1.918 3.084-5.355zm-2.965 1.303 1.57-1.333-1.555-0.035zm0.355-1.676 1.457 0.137 1.458-1.237-1.458-2.566zm-0.307-2.553 1.184-2.136-1.136-2zm2.412-9.157-2.329 1.904-0.029 2.545 1.496 1.91 3.129-5.646zm-2.322 1.353 1.325-1.667-1.302-0.409zm0.217-2.84 1.457 0.733 1.458-1.833-1.433-1.639zm-0.157-2.461 0.889-1.137-0.864-0.989zm2.493-6.033-2.437 1.207-0.025 2.142 1.271 1.017 3.539-4.532zm-2.426 0.172-4e-3 0.419 0.529-0.456zm1.524-3.43-1.51 2.226v0.046l1.51 0.26 1.585-1.365zm-1.487 0.196 0.696-0.78-0.681-0.502z"
            fill="#654c20" />
        <path
            d="m137.84 17.844 1.137 1.531 0.726-0.508-0.023-2.437 0.347-2.916 1.735 2.916v54.364l1.908 5.416 1.562 33.327-2.082-0.209-0.03-1.123-3.752-2.266-4.852 4.793-0.041 0.887-2.082 0.209 2.646-37.623 0.824-1.12v-54.364l0.992-1.668-0.291-0.514-0.562-1.172 1.03 1.388 0.566-0.95zm-2.973 85.375-0.273 5.839 3.908-3.643zm5.296 1.935 2.924 1.801-0.121-4.57zm-3.74-2.304 2.909 1.792 3.598-3.354-2.158-2.197zm-1.103-9.311-0.426 9.097 5.198-4.237zm6.393 4.739 1.176 1.232-0.058-2.198zm-5.832-6.103 5.187 5.428 1.733-1.413-0.048-1.818-3.293-9.5zm4.355-8.888 2.408 6.986-0.299-11.289zm-4.068-7.911-0.691 14.801 3.339-7.163zm3.411 6.003 2.401-5.15-4.666-1.421zm-2.098-14.047-0.051 5.328 3.972 1.59-1.202-3.248-0.023-2.413-1.548-1.786zm2.283-1.052 0.395 0.388-6e-3 -0.568zm-2.266-0.78-4e-3 0.427 0.334-0.047zm0.535-0.924 1.134 1.116 0.526-0.074-0.875-2.478zm1.227-2.246 0.875 1.805-0.032-3.347zm-1.705-2.762-0.04 4.19 1.031-1.387zm0.033-3.464-0.026 2.721 1.428 2.948 1.108-1.492-0.028-2.908-1.439-1.943zm1.611-1.041 0.865 1.668-0.021-2.213zm-1.591-1.016-0.017 1.795 0.807-0.727zm0.516-1.057 0.839 1.617 0.639-0.575-0.793-2.449zm1.227-2.523 0.667 1.391-0.026-2.709zm-1.686-2.413-0.034 3.561 0.821-1.133zm0.033-3.425-0.023 2.345 1.322 2.756 0.987-1.363-0.023-2.419-2.007-1.326zm1.356-0.036 0.903 0.92-9e-3 -0.944zm-1.355-0.139v0.076l0.099-0.011zm0.015-1.228 1.149 1.172 1.082-0.122-2e-3 -0.218-1.08-3.262zm0.052-5.744-0.036 3.714 0.84-1.286zm1.555 2.346 0.594 1.286-0.024-2.491zm-1.516-6.443-0.03 3.092 1.257 2.724 0.852-1.306-0.031-3.243-1.501-1.474zm1.334-0.504 0.708 1.069-0.013-1.331zm-1.327-0.233-5e-3 0.454 0.29-0.174zm0.02-2.081-4e-3 0.335 1.035 1.563 0.964-0.582-5e-3 -0.536-0.978-2.171zm0.034-3.563-0.02 2.071 0.665-0.639zm1.57 1.359 0.363 0.558-0.01-1.043zm-1.539-4.66-0.021 2.261 1.234 1.897 0.673-0.647-0.025-2.543-1.588-0.945zm1.854 0.235v-0.078l-0.081-6e-3zm-1.833-2.445-5e-3 0.544 0.969 1.002 0.859-0.178-7e-3 -0.711-0.852-1.51zm1.588-1.405 0.211 0.284-4e-3 -0.467zm-1.564-1.11-0.011 1.129 0.465-0.325z"
            fill="#473c2a" />
        <path
            d="m135.3 23.48 6.308-1.833 7.622-0.366 50.91-0.74 1.509 1.656 0.733 4.399-53.336 3.666-7.148-0.367-6.781 1.65-22.728-1.283-0.183-3.483zm0.626 0.943 6.128-1.244 7.405-0.249 50.442-1.519 0.599 1.056 0.233 2.97-51.452 3.588-6.945-0.249-6.588 1.119-22.081-0.87-0.911-1.63z"
            fill="#524938" />
        <path
            d="m136.58 70.979-0.035 3.019-1.787 2.671 6.594-2.089 0.138 1.65-0.89 0.248-4.23 13.783 2.508 11.537-3.227 3.907 2.54 3.516-2.97 1.818 2.42 4.505-1.512 0.688-2.365-4.3-0.891 0.545-0.067 1.99-2.639 0.22 2.117-36.703 2.282-4.206v-57.405h2.639l-0.017 1.449 1.34 0.781 3.771-4.232-0.713 1.238-2.322 3.424 1.906 1.112 0.104 2.199-0.869 0.43 1.493 0.258-2.779 5.139 3.196 2.559-2.672 2.184 1.943 0.977-2.542 6.395 2.958 3.777-1.98 1.09 1.564 0.148-2.393 6.149 2.185 2.511-2.117 2.381 2.325 1.743-2.512 5.919 2.2 2.466-1.29 1.239 2.331 0.273-0.521 1.787-2.825-1.085zm-3.651 39.835 0.16-0.109-0.147-0.268zm0.725-2.693 0.862 1.605 1.338-0.917-1.208-1.888zm-0.582-1.548 0.839-0.8-0.772-1.205zm2.465-13.596-2.255 7.345-0.067 2.009 1.756 2.432 2.532-2.415zm-2.09 2.468 1.548-5.046-1.188-5.661zm2.37-7.725 3.326-10.836-5.119 1.427-0.047 1.385 0.09-0.029zm0.786-18.829 0.927-0.76-0.914-0.351zm1.016-1.459 0.668 0.078 1.437-1.177-0.994-1.517zm-0.989-0.825 1.539-2.646-1.483-2.261zm2.336-9.932-2.252 2.533-0.024 2.122 1.821 2.042 3.075-5.287zm-2.246 2.064 1.526-2.452-1.489-0.801zm1.015-3.541 0.811 0.608 1.062-1.708-0.867-1.486zm-0.957-1.548 1.276-2.216-1.227-2.101zm3.047-8.388-2.97 1.634-0.021 1.842 1.668 1.917 3.084-5.354zm-2.966 1.303 1.571-1.334-1.555-0.034zm0.356-1.677 1.457 0.138 1.457-1.237-1.457-2.566zm-0.307-2.552 1.183-2.136-1.136-2.001zm2.411-9.158-2.328 1.904-0.03 2.546 1.497 1.91 3.128-5.647zm-2.322 1.354 1.325-1.667-1.301-0.409zm0.218-2.84 1.457 0.733 1.457-1.833-1.433-1.64zm-0.157-2.461 0.888-1.138-0.864-0.989zm2.493-6.033-2.438 1.207-0.025 2.141 1.272 1.018 3.538-4.532zm-2.426 0.171-5e-3 0.42 0.53-0.457zm1.524-3.43-1.51 2.227-1e-3 0.046 1.511 0.26 1.584-1.365zm-1.487 0.197 0.695-0.78-0.681-0.502z"
            fill="#674b1b" />
        <path
            d="m144.11 16.436 1.441 1.617 0.92-0.537-0.03-2.573h2.64v57.405l2.419 5.719 1.98 35.19-2.64-0.22-0.038-1.185-4.755-2.394-6.151 5.062-0.053 0.937-2.639 0.22 3.354-39.727 1.045-1.182v-57.405l1.258-1.761-0.369-0.543-0.713-1.237 1.306 1.465 0.717-1.003zm-3.769 90.151-0.346 6.165 4.954-3.846zm6.713 2.042 3.706 1.903-0.153-4.826zm-4.74-2.432 3.686 1.892 4.561-3.542-2.735-2.319zm-1.4-9.831-0.539 9.604 6.589-4.473zm8.104 5.003 1.492 1.301-0.074-2.321zm-7.392-6.444 6.575 5.732 2.197-1.492-0.061-1.921-4.174-10.031zm5.521-9.385 3.052 7.376-0.379-11.92zm-5.157-8.354-0.877 15.629 4.234-7.563zm4.323 6.339 3.044-5.438-5.915-1.501zm-2.659-14.832-0.064 5.625 5.035 1.679-1.524-3.429-0.029-2.549-1.963-1.885zm2.894-1.112 0.501 0.411-7e-3 -0.601zm-2.872-0.823-5e-3 0.451 0.424-0.05zm0.678-0.975 1.437 1.178 0.668-0.079-1.11-2.616zm1.556-2.372 1.108 1.906-0.04-3.535zm-2.162-2.917-0.051 4.425 1.307-1.465zm0.042-3.657-0.033 2.873 1.81 3.112 1.405-1.575-0.036-3.07-1.823-2.052zm2.043-1.099 1.096 1.76-0.027-2.336zm-2.018-1.073-0.022 1.895 1.024-0.768zm0.655-1.117 1.063 1.708 0.81-0.608-1.006-2.586zm1.554-2.663 0.846 1.468-0.033-2.861zm-2.137-2.549-0.043 3.76 1.041-1.196zm0.042-3.617-0.029 2.477 1.676 2.91 1.252-1.439-0.03-2.555-2.544-1.4zm1.719-0.038 1.145 0.972-0.011-0.997zm-1.717-0.147-1e-3 0.081 0.126-0.012zm0.018-1.295 1.457 1.237 1.372-0.13-3e-3 -0.229-1.369-3.444zm0.066-6.067-0.045 3.923 1.064-1.358zm1.972 2.478 0.753 1.358-0.03-2.63zm-1.922-6.803-0.038 3.265 1.594 2.876 1.08-1.379-0.039-3.425-1.903-1.555zm1.691-0.532 0.897 1.128-0.016-1.405zm-1.682-0.247-6e-3 0.48 0.367-0.184zm0.025-2.197-4e-3 0.354 1.311 1.65 1.222-0.615-6e-3 -0.565-1.24-2.293zm0.043-3.762-0.025 2.187 0.843-0.675zm1.99 1.435 0.46 0.589-0.012-1.102zm-1.95-4.921-0.028 2.387 1.565 2.004 0.853-0.683-0.031-2.686-2.013-0.997zm2.35 0.249-1e-3 -0.082-0.102-8e-3zm-2.324-2.582-6e-3 0.574 1.228 1.058 1.089-0.188-8e-3 -0.751-1.081-1.594zm2.013-1.484 0.268 0.3-6e-3 -0.493zm-1.982-1.172-0.014 1.193 0.59-0.344z"
            fill="#ae7d2b" />
        <path
            d="m133.16 22.13 0.056 0.106 0.596-0.085 6.308-1.833 7.622-0.367 24.042 0.421 0.025-0.038 0.014 0.038 19.017 0.333 0.064-0.077 0.103 0.08 9.154 0.16 0.733 4.398-8.429 0.58-0.25 0.319-0.347-0.278-6.898 0.474-0.145 0.244-0.257-0.216-4.23 0.29 1e-3 0.014-0.017-0.013-5.681 0.391-0.099 0.092-0.045-0.082-26.938 1.851-7.947-1.276-5.983 2.559-22.727-1.283-0.184-3.482 22.402-3.201zm0.903 6.428 0.197 8e-3 1.284-0.219-0.654-1.658zm-0.544-5.349-0.033 4e-3 -0.863 2.851 0.952 2.475 0.243 9e-3 0.797-2.557zm-1.624 5.263 0.951 0.038-0.559-1.335zm-2.795-0.11 2.258 0.089-1.096-1.716zm-0.679-4.511-0.151 0.019-1.067 2.393 1.11 2.068 0.407 0.016 1.178-2.183zm-2.105 4.401 1.36 0.054-0.794-1.323zm-2.67-0.105 2.209 0.087-1.019-1.463zm-0.391-3.646-0.587 0.074-1.305 1.902 1.304 1.632 0.828 0.032 1.055-1.78zm-2.948 3.514 2.161 0.086-1.374-1.233zm14.902-2.046 1.122 2.103 1.771-2.209-1.928-2.073zm2.131 2.073 2.408-0.409-1.193-1.282zm-18.287-3.011-3.801 0.478 0.688 0.894 0.893-0.779-0.688 1.045 0.762 0.992-0.947-0.711-0.574 0.871 3.662 0.145-1.038-1.098-1.103 0.793 0.858-1.051-0.932-0.986 1.157 0.709zm-6.318 1.589-0.9-0.438 0.242 0.754 0.102 0.759 2.086 0.082-0.544-0.675-0.137-0.03-0.789 0.647 0.492-0.712-0.442-0.097zm33.793 1.03 1.265 0.045 1.336-0.093-0.651-1.332-0.888-1.05zm-4.708-0.169 3.01 0.108-1.806-1.729zm7.935-5.891-0.176 1e-3 0.083 0.131-1.427 2.022-0.468 1.07 0.711 1.456 1.101 1.301 0.272-0.019 1.621-2.995-1.81-2.835zm-8.639 5.866 1.382-2.099-1.914-1.832-1.657 2.308 1.42 1.698 0.502-0.085zm9.633 0.033 2.484-0.173-1.261-1.975zm-7.345-2.14 2.224 2.087 1.745-2.472-1.961-2.318zm-25.002 1.237 1.387 0.85 0.898-0.934-0.964-0.865zm-4.424 0.163 0.865 0.609 0.768-0.669-0.815-0.612zm39.926 0.52 3.126-0.218-1.945-2.431zm-28.692-0.933 0.819 0.817 0.435-0.863-0.497-0.829zm5.479-0.201 0.806 0.969 0.338-1.011-0.411-0.984zm-17.078 0.912 0.106 0.052-0.067-0.083zm43.938-5.502-1.097 7e-3 -1.093 2.451 1.761 3.042 0.509-0.036 1.454-2.721zm0.186 5.457 2.759-0.193-1.122-2.004zm-45.288-1.14 0.286 0.758 0.613 0.298 0.104-0.15-0.725-0.901 0.906 0.639 0.6-0.869zm39.905-1.192 1.346 2.173 1.228-2.419-1.422-1.778zm9.315 2.058 2.376-0.166-1.408-1.801zm2.655-5.222-0.086 1e-3 -1.359 2.761 1.469 2.273 0.285-0.02 1.238-2.476zm0.99 4.967 1.954-0.136-0.996-1.634zm2.575-0.179 1.53-2.326-1.749-1.85-1.107 2.046 1.282 2.133zm-8.155-1.971 1.424 1.972 1.159-1.944-1.333-1.705zm8.67 1.935 2.767-0.193-0.445-0.714-1.24-1.312zm-45.881-1.664-2.423 0.305 0.967 1.208zm48.878-3.129-0.337 2e-3 -1.249 1.899-0.143 0.293 1.054 1.692 0.661 0.699 0.306-0.021 1.049-2.131zm1.142 4.504 1.291-0.09-0.816-1.48zm-46.698-1.794-2.485 0.313 1.445 1.442zm48.102-2.724-1.716 9e-3 0.74 1.974 0.878-1.785-0.691 2.286 0.728 1.941 0.76-0.053 2.125-1.903-2.922-2.271zm2.133 4.272 2.763-0.193-1.398-1.086zm-48.433-1.775-1.58 0.199 0.763 1.422zm3.698-0.465-2.588 0.326 1.462 1.759zm48.422 1.983 0.265-1.395-0.531-1.553-1.814 1.699 1.303 1.303zm0.552-0.039 0.172-0.012-0.181-0.53zm0.168-0.023 1.226-1.415-1.412-1.187zm-39.921-3.554-4.248 0.862 2.201 2.632 2.095-2.615 2.234 2.098 2.058-3.123zm41.297 3.47 1.324-0.093-0.7-0.588zm-47.425-2.227-0.716 0.09 1.116 2.092 0.753-2.416zm50.47 2.014 0.731-1.487-1.199-1.113-1.379 1.505 0.964 1.157zm0.838-0.058 1.333-0.093-0.825-0.765zm-52.978-1.745-1.151 0.144 0.59 1.533zm54.783 1.619 2.863-0.199-1.222-0.978zm-0.952-1.316 0.907 1.104 1.156-1.389-1.285-1.028zm5.76 0.981 0.808-1-1.782-1.415-1.853 1.329 1.117 1.205zm-44.388-2.987-1.746 0.058 1.424 2.914 0.586-0.829 0.939-2.15zm45.538 2.907 0.75-0.053-0.438-0.347zm2.512-0.175 0.635-0.045-0.373-0.396zm1.573-0.11 0.409-0.798-0.864-0.969-0.641 1.076 0.387 0.74zm0.879-0.061 0.176-0.013-0.105-0.117zm-4.056-0.818 0.703 0.543 0.485-0.717-0.574-0.612zm-41.329-1.773-2.646 0.015 1.408 2.272zm10.923-0.063-2.904 0.017 1.505 2.33zm-7.625 0.044-2.436 0.014 1.294 2.235zm4.173-0.024-2.832 0.016 1.623 2.247zm19.008-0.11-4.652 0.027 2.183 2.183zm-8.827 0.051-2.424 0.014 1.332 2.137 0.167-0.254zm-3.592 0.021-2.183 0.012 1.188 1.978zm31.876 1.669 0.123 0.155-0.038-0.309zm-15.063-1.766-3.069 0.017 1.498 1.797zm6.337-0.037-2.742 0.016 1.438 1.55zm-3.557 0.021-1.964 0.011 1.225 1.492zm8.25-0.048-3.156 0.018 1.934 1.495zm-14.455 0.083-0.334 2e-3 0.091 1.278zm16.324-0.094-1.515 9e-3 0.657 1.257zm0.705-4e-3 0.922 1.165 0.449-0.876-0.037-0.297z"
            fill="#ae7d2b" />
        <path
            d="m149.39 25.463 0.585-0.829 1.105-2.528 0.323 0.506-1.428 2.022-0.468 1.07 0.712 1.456 1.26 1.489-0.28 0.517-0.98-2.006-0.889-1.05-1.544 3.532-3.022-2.892-2.186 2.944-2.282-2.454-2.452 3.415-1.213-3.076-1.444 3.259-1.159-2.774-0.561 1.854-1.464-2.293-1.918 2.685-1.463-2.438-0.741 1.663-1.305-1.874-1.682 1.945 1.396-2.356-1.565-2.247 1.821 1.816 1.163-1.964 0.862 1.604 1.279-2.538 2.11 2.537 1.292-2.394 0.695 1.807 0.954-2.851 1.678 3.145 0.984-3.157 2.696 3.226 2.096-2.615 2.234 2.097 2.827-4.292zm-15.026 1.491 1.087 2.828 0.905-2.901-1.115-2.827zm-11.261 0.413 1.791 2.239-2.059-1.848-1.297 1.89-1.788-1.89-1.102 0.792 0.857-1.051-0.932-0.985 1.158 0.709 1.644-2.016 1.432 1.79 1.918-1.994zm5.84-0.214 1.318 2.453 1.377-2.552-1.561-2.444zm-10.295 1.397-0.948-0.711-1.062 1.613-1.246-1.546-0.857 0.703 0.657-0.952-0.725-0.9 0.907 0.638 1.129-1.633 1.177 1.53 0.893-0.778-0.688 1.045zm38.453-3.658 2.016 3.482-2.291-2.864-1.47 3.295-1.644-2.575-1.721 3.024-0.512-0.605 1.733-3.202-1.809-2.835 0.46-0.652 1.728 2.787 1.655-3.059 1.739 3.003 1.697-3.344zm-20.151 1.967 1.122 2.103 1.771-2.209-1.928-2.074zm3.718-0.136 1.822 2.179 1.749-2.655-1.914-1.832zm30.72-2.213 0.167-0.254 1.237-2.535 0.196 0.356-1.433 2.179-0.143 0.293 1.054 1.691 0.856 0.905-0.129 0.262-0.727-1.167-1.239-1.311-1.609 3.299-1.606-2.635-1.505 2.781-2.13-2.724-1.538 3.127-1.724-3.082-1.998 2.679 1.708-3.197-2.143-3.83 2.408 3.334 1.458-2.729 1.805 2.793 1.876-3.148 1.665 2.773 1.516-3.034zm-26.243 1.728 2.223 2.088 1.746-2.472-1.962-2.318zm-25.002 1.238 1.386 0.849 0.898-0.933-0.964-0.865zm-4.425 0.162 0.865 0.61 0.769-0.67-0.816-0.611zm79.791-3.906 1.438-1.78 0.796 1.522 1.184-1.749 1.3 1.644 0.591-1.153 0.616 0.616-0.669 1.217 0.791 1-0.569 0.659-0.702-0.787-0.787 1.43-0.516-0.55 0.761-1.487-0.863-0.968-0.642 1.076 0.692 1.324 0.052 0.055-0.011 0.022-0.041-0.077-0.906-0.965-0.879 1.474-1.584-1.257-1.605 2.057-0.687-0.549 1.638-2.028-1.782-1.415-1.853 1.329 1.854 1.999 0.143 0.115-0.017 0.021-0.126-0.136-2.194-1.755-1.927 1.382-1.01-0.937-1.429 2.414-2.339-1.966-1.646 1.797-0.531-1.552 0.029 1.809-0.701-0.545 0.394-2.077-0.531-1.554-1.814 1.7 1.862 1.862 0.089 0.069-3e-3 0.017-0.086-0.086-2.104-1.635-2.902 2.719-0.461-0.835 2.69-2.408-2.922-2.271 0.419-0.851 2.829 2.83 3.067-2.744 0.129 1.808 0.309-1.63 1.787 2.145 1.992-2.301 1.621 1.974 1.022-2.082 1.97 2.124 1.909-2.295zm-68.556 3.494 0.819 0.817 0.435-0.863-0.498-0.829zm5.478-0.201 0.806 0.969 0.338-1.011-0.411-0.984zm42.28-2.701 0.879-1.785-0.691 2.285 0.841 2.245 0.082 0.149-0.02 0.017-0.062-0.166-0.981-1.781-0.774 2.559-0.663-0.702 1.161-2.357-1.495-2.711 0.561-0.853zm-20.617 1.236 1.347 2.172 1.228-2.418-1.423-1.778zm10.526-0.402 1.623 2.513 1.368-2.736-1.594-2.616zm3.684-0.105 1.301 2.168 1.554-2.363-1.749-1.85zm-6.83 0.159 1.424 1.972 1.159-1.943-1.333-1.705zm23.327-0.31 1.501 1.801 1.077-2.193-1.198-1.113zm-2.573 1.392 1.225-1.416-1.411-1.186zm6.112-1.797 0.906 1.104 1.156-1.389-1.285-1.028zm7.818-0.264 0.702 0.543 0.486-0.716-0.575-0.612z"
            fill="#504635" />
        <path
            d="m132.81 21.81 0.056 0.106 0.596-0.085 6.308-1.833 7.622-0.367 24.042 0.421 0.025-0.038 0.014 0.038 19.017 0.333 0.064-0.077 0.103 0.08 9.154 0.16 0.733 4.398-8.429 0.58-0.25 0.319-0.347-0.278-6.898 0.474-0.145 0.244-0.257-0.216-4.23 0.29 1e-3 0.014-0.017-0.013-5.681 0.391-0.099 0.092-0.045-0.082-26.938 1.851-6.567-0.337-0.155 0.209-0.212-0.227-0.215-0.011-4.175 1.015-0.132 0.184-0.055-0.138-2.419 0.588-22.727-1.283-0.184-3.482 22.402-3.201zm0.903 6.428 0.197 8e-3 1.284-0.219-0.654-1.658zm-0.544-5.349-0.033 4e-3 -0.863 2.851 0.952 2.475 0.243 9e-3 0.797-2.557zm-1.624 5.263 0.951 0.038-0.559-1.335zm-2.795-0.11 2.258 0.089-1.096-1.716zm-0.679-4.511-0.151 0.019-1.067 2.393 1.11 2.068 0.407 0.016 1.178-2.183zm-2.105 4.401 1.36 0.054-0.794-1.323zm-2.67-0.105 2.209 0.087-1.019-1.463zm-0.391-3.646-0.587 0.074-1.305 1.902 1.304 1.632 0.828 0.032 1.055-1.78zm-2.948 3.514 2.161 0.086-1.374-1.233zm14.902-2.046 1.122 2.103 1.771-2.209-1.928-2.073zm2.131 2.073 2.408-0.409-1.193-1.282zm-18.287-3.011-3.801 0.478 0.688 0.894 0.893-0.779-0.688 1.045 0.762 0.992-0.947-0.711-0.574 0.871 3.662 0.145-1.038-1.098-1.103 0.793 0.858-1.051-0.932-0.986 1.157 0.709zm-6.318 1.589-0.9-0.438 0.242 0.754 0.102 0.759 2.086 0.082-0.544-0.675-0.137-0.03-0.789 0.647 0.492-0.712-0.442-0.097zm33.793 1.03 1.265 0.045 1.336-0.093-0.651-1.332-0.888-1.05zm-4.708-0.169 3.01 0.108-1.806-1.729zm7.935-5.891-0.176 1e-3 0.083 0.131-1.427 2.022-0.468 1.07 0.711 1.456 1.101 1.301 0.272-0.019 1.621-2.995-1.81-2.835zm-8.639 5.866 1.382-2.099-1.914-1.832-1.657 2.308 1.42 1.698 0.502-0.085zm9.633 0.033 2.484-0.173-1.261-1.975zm-7.345-2.14 2.224 2.087 1.745-2.472-1.961-2.318zm-25.002 1.237 1.387 0.85 0.898-0.934-0.964-0.865zm-4.424 0.163 0.865 0.609 0.768-0.669-0.815-0.612zm39.926 0.52 3.126-0.218-1.945-2.431zm-28.692-0.933 0.819 0.817 0.435-0.863-0.497-0.829zm5.479-0.201 0.806 0.969 0.338-1.011-0.411-0.984zm-17.078 0.912 0.106 0.052-0.067-0.083zm43.938-5.502-1.097 7e-3 -1.093 2.451 1.761 3.042 0.509-0.036 1.454-2.721zm0.186 5.457 2.759-0.193-1.122-2.004zm-45.288-1.14 0.286 0.758 0.613 0.298 0.104-0.15-0.725-0.901 0.906 0.639 0.6-0.869zm39.905-1.192 1.346 2.173 1.228-2.419-1.422-1.778zm9.315 2.058 2.376-0.166-1.408-1.801zm2.655-5.222-0.086 1e-3 -1.359 2.761 1.469 2.273 0.285-0.02 1.238-2.476zm0.99 4.967 1.954-0.136-0.996-1.634zm2.575-0.179 1.53-2.326-1.749-1.85-1.107 2.046 1.282 2.133zm-8.155-1.971 1.424 1.972 1.159-1.944-1.333-1.705zm8.67 1.935 2.767-0.193-0.445-0.714-1.24-1.312zm-45.881-1.664-2.423 0.305 0.967 1.208zm48.878-3.129-0.337 2e-3 -1.249 1.899-0.143 0.293 1.054 1.692 0.661 0.699 0.306-0.021 1.049-2.131zm1.142 4.504 1.291-0.09-0.816-1.48zm-46.698-1.794-2.485 0.313 1.445 1.442zm48.102-2.724-1.716 9e-3 0.74 1.974 0.878-1.785-0.691 2.286 0.728 1.941 0.76-0.053 2.125-1.903-2.922-2.271zm2.133 4.272 2.763-0.193-1.398-1.086zm-48.433-1.775-1.58 0.199 0.763 1.422zm3.698-0.465-2.588 0.326 1.462 1.759zm48.422 1.983 0.265-1.395-0.531-1.553-1.814 1.699 1.303 1.303zm0.552-0.039 0.172-0.012-0.181-0.53zm0.168-0.023 1.226-1.415-1.412-1.187zm-39.921-3.554-4.248 0.862 2.201 2.632 2.095-2.615 2.234 2.098 2.058-3.123zm41.297 3.47 1.324-0.093-0.7-0.588zm-47.425-2.227-0.716 0.09 1.116 2.092 0.753-2.416zm50.47 2.014 0.731-1.487-1.199-1.113-1.379 1.505 0.964 1.157zm0.838-0.058 1.333-0.093-0.825-0.765zm-52.978-1.745-1.151 0.144 0.59 1.533zm54.783 1.619 2.863-0.199-1.222-0.978zm-0.952-1.316 0.907 1.104 1.156-1.389-1.285-1.028zm5.76 0.981 0.808-1-1.782-1.415-1.853 1.329 1.117 1.205zm-44.388-2.987-1.746 0.058 1.424 2.914 0.586-0.829 0.939-2.15zm45.538 2.907 0.75-0.053-0.438-0.347zm2.512-0.175 0.635-0.045-0.373-0.396zm1.573-0.11 0.409-0.798-0.864-0.969-0.641 1.076 0.387 0.74zm0.879-0.061 0.176-0.013-0.105-0.117zm-4.056-0.818 0.703 0.543 0.485-0.717-0.574-0.612zm-41.329-1.773-2.646 0.015 1.408 2.272zm10.923-0.063-2.904 0.017 1.505 2.33zm-7.625 0.044-2.436 0.014 1.294 2.235zm4.173-0.024-2.832 0.016 1.623 2.247zm19.008-0.11-4.652 0.027 2.183 2.183zm-8.827 0.051-2.424 0.014 1.332 2.137 0.167-0.254zm-3.592 0.021-2.183 0.012 1.188 1.978zm31.876 1.669 0.123 0.155-0.038-0.309zm-15.063-1.766-3.069 0.017 1.498 1.797zm6.337-0.037-2.742 0.016 1.438 1.55zm-3.557 0.021-1.964 0.011 1.225 1.492zm8.25-0.048-3.156 0.018 1.934 1.495zm-14.455 0.083-0.334 2e-3 0.091 1.278zm16.324-0.094-1.515 9e-3 0.657 1.257zm0.705-4e-3 0.922 1.165 0.449-0.876-0.037-0.297z"
            fill="#654c20" />
        <path
            d="m110.79 28.626 1.872 1.601 22.342 1.262 6.982-1.487 6.757 0.315 53.582-3.828-1.622-1.397-26.44 1.442-25.867 1.847-6.261-0.181-8.469 1.532z"
            fill="#473c2a" />
        <path d="m134.69 15.098 7.258-3.959v3.189l-7.368 3.739z" fill="#654c20" />
        <path d="m141.95 14.328v-3.189l7.258 1.87 0.11 3.079z" fill="#ae7d2b" />
        <path
            d="m110.96 24.736 22.465-9.583 8.484-4.399 7.7 1.709 50.757 8.231-51.649-7.821-6.471-1.414-8.349 4.008z"
            fill="#181818" /></g>
    <g><path d="m239.8 92.049 32.407 32.407-32.407 5.06z" fill="#dabda5"/>
        <path d="m203.18 55.425 36.877 36.876v37.215l-36.877-5.758z" fill="#736960" />
        <path
            d="m226.59 107.72 10.704 0.272v21.038l-10.738-1.694zm-12.207-0.428 10.704 0.513v19.327l-10.609-1.404zm-10.102-0.256 8.812 0.224v17.953l-8.812-1.346zm22.241-12.286 10.772-0.327v10.845l-10.704-0.374zm-11.771 0.604 9.677-0.355v9.804l-9.615-0.337zm-10.539 0.507 8.812-0.374v9.034l-8.812-0.081zm0-11.469 8.812-0.574-2e-3 9.174-8.812 0.593zm10.539-0.438 9.677-1.071-3e-3 9.83-9.615 0.338zm15.314-1.645 7.229 7.229v2.723l-10.704 0.3-0.022-3.246-0.046-6.569zm-25.635-8.068 8.594-1.2-2e-3 9.175-8.594 0.83zm15.332-2.235 4.665 4.665-2e-3 4.315-9.615 1.029-0.059-9.096zm6.815 6.815 1.785 1.785-1.772 0.186zm-15.969-15.969 2.415 2.415-1e-3 6.232-8.594 1.505 2e-3 -8.804zm4.174 4.174 3.587 3.587-3.559 0.686zm-10.044-10.043 3.452 3.451-3.453 0.768z"
            fill="#363636" />
        <path
            d="m228.14 107.82 9.094 0.262v19.618l-9.128-1.136zm-12.207-0.343 9.156 0.435-0.062 18.687-9.094-1.22zm-10.375-0.358 7.486 0.216v17.048l-7.486-1.244zm22.582-12.269 9.094-0.336v10.474l-9.094-0.276zm-11.934 0.594 8.168-0.363v9.47l-8.168-0.247zm-10.717 0.501 7.486-0.383v8.729l-7.486-0.121zm0-10.835 7.486-0.764-3e-3 8.546-7.486 0.526zm10.717-0.775 8.168-1.007-2e-3 9.133-8.169 0.427zm14.514-1.368 6.514 6.514v2.5l-9.094 0.399v-9.068zm-25.013-8.181 7.268-1.001-3e-3 8.33-7.268 0.764zm14.797-2.035 3.869 3.869-1e-3 4.115-8.169 1.117 2e-3 -8.208zm7.636 7.637 0.197 0.196-0.197 0.026zm-16.915-16.916 1.75 1.75-3e-3 6.177-7.268 1.438 3e-3 -8.093zm4.979 4.979 2.169 2.169-2.17 0.516zm-10.189-10.189 2.208 2.209-2.209 0.563z"
            fill="#8d857e" />
        <path
            d="m229.56 117.36 7.498 0.958v8.254l-7.398-1.117zm-12.387-8.691 7.236 0.495v15.97l-7.236-1.095zm12.384 0.343 7.501 0.201 0.072 7.667-7.556-1.034zm0-12.97 7.501-0.398v8.142l-7.501-0.069zm-12.079 0.473 6.739-0.419v7.375l-6.739-0.062zm0-10.892 6.739-0.894v6.598l-6.739 0.326zm14.209-1.695 5.371 5.371v1.479l-7.501 0.363v-6.94zm-10.279-10.279 2.809 2.809v3.143l-6.739 0.671v-5.901zm-9.175-9.175 0.598 0.598v5.067l-5.958 1.435v-5.695zm-5.05-5.05 0.264 0.264-0.264 0.084z"
            fill="#2c4e51" />
        <path
            d="m253.98 107.86-11.116 0.282v20.758l11.116-1.616zm1.664 0.024 8.908 8.908v8.657l-9.388 1.605v-19.156zm10.898 10.899 5.477 5.476-5.477 0.898zm-23.678-23.678 9.945 9.944-9.945 0.44z"
            fill="#775a3f" />
        <path
            d="m252.37 107.96-9.443 0.272v19.276l9.443-1.329zm3.354 7e-3 7.468 7.469v9.147l-7.975 1.572v-18.171zm10.868 10.869 4.623 4.623-4.623 0.873zm-23.665-23.666 9.443 9.443v0.122l-9.443 0.458z"
            fill="#e3d0c1" />
        <path
            d="m250.9 116.87-7.79 0.882v8.171l7.79-0.947zm11.051-1.016-6.579 0.551v8.115l6.579-1.103zm4.79 3.125 3.318 3.318-3.318 0.533zm-15.841-9.781-7.79 0.208v6.147l7.79-0.44zm5.925-0.135 5.126 5.126v0.084l-6.579 0.576v-5.742zm-12.927-12.927 7.002 7.003v0.563l-7.79 0.243v-7.833z"
            fill="#6a8082" /></g>
    <g><path d="m176.47 66.963 37.545 6.186v53.133l-37.545 5.9z" fill="#dabda5"/>
        <path
            d="m176.73 66.816-38.046 6.55-0.5 52.916 38.546 5.9zm-36.022 19.837 7.065 0.051v7.936l-7.424 0.461v-8.397zm10.905 0.205 5.018 0.153v7.476l-5.376 0.153v-7.731zm6.554 0.358 2.56 0.103 0.051 6.912-2.97 0.256v-7.22zm6.144 0.256 4.326 0.333 0.128 6.17-4.813 0.153v-6.605zm-23.245-11.213 7.066 0.308v7.116l-7.424 0.717v-8.089zm10.547 0.41 5.018 0.41v5.478l-5.376 0.614v-6.451zm6.554 0.358 2.56 0.308v5.068l-2.919 0.205v-5.529zm6.144 0.564 4.454 0.46v3.328l-4.813 0.564v-4.301z"
            fill="#736960" />
        <path
            d="m163.02 109.85 10.898 0.279v21.561l-10.933-1.736zm-12.429-0.438 10.898 0.526v19.808l-10.801-1.439zm-10.285-0.263 8.972 0.229v18.4l-8.972-1.379zm22.644-12.592 10.968-0.335v11.115l-10.898-0.384zm-11.984 0.619 9.853-0.363v10.047l-9.79-0.345zm-10.73 0.52 8.972-0.384v9.26l-8.972-0.084z"
            fill="#363636" />
        <path
            d="m164.6 109.94 9.259 0.269v20.106l-9.294-1.164zm-12.428-0.351 9.321 0.445-0.063 19.153-9.258-1.25zm-10.564-0.367 7.622 0.221v17.473l-7.622-1.275zm22.992-12.575 9.259-0.344v10.735l-9.259-0.283zm-12.151 0.609 8.317-0.372v9.706l-8.317-0.253zm-10.911 0.514 7.622-0.393v8.947l-7.622-0.124z"
            fill="#8d857e" />
        <path
            d="m166.04 119.73 7.635 0.981v8.461l-7.533-1.145zm-12.612-8.907 7.368 0.507v16.368l-7.368-1.123zm-10.638 6.588 6.288 0.687v7.133l-6.288-1.111zm23.247-6.236 7.638 0.205 0.072 7.858-7.693-1.06zm-23.247-0.936 6.288 0.169v6.528l-6.288-0.506zm23.247-12.358 7.638-0.408v8.345l-7.638-0.071zm-12.298 0.485 6.861-0.429v7.558l-6.861-0.064zm-11.019 0.421 6.288-0.445v6.978l-6.288 0.051z"
            fill="#2c4e51" />
        <path
            d="m140.24 85.939 8.972-0.588-3e-3 9.403-8.972 0.607zm0.469 0.714 7.065 0.051v7.936l-7.424 0.461v-8.397zm10.261-1.162 9.852-1.099-2e-3 10.075-9.79 0.346zm0.644 1.367 5.018 0.153v7.476l-5.376 0.153v-7.731zm6.554 0.358 2.56 0.103 0.051 6.912-2.97 0.256v-7.22zm4.786-2.964 10.968-1.363v11.115l-10.898 0.308-0.022-3.327zm1.358 3.22 4.326 0.333 0.128 6.17-4.813 0.153v-6.605zm-23.85-11.936 8.75-1.23-3e-3 9.402-8.75 0.852zm0.605 0.723 7.066 0.308v7.116l-7.424 0.717v-8.089zm9.903-2.079 9.852-1.806-2e-3 10.075-9.79 1.054zm0.644 2.489 5.018 0.41v5.478l-5.376 0.614v-6.451zm6.554 0.358 2.56 0.308v5.068l-2.919 0.205v-5.529zm4.786-4.837 10.968-2.204v11.115l-10.898 1.148-0.022-3.327zm1.358 5.401 4.454 0.46v3.328l-4.813 0.564v-4.301z"
            fill="#363636" />
        <path
            d="m190.9 109.99-11.317 0.29v21.274l11.317-1.656zm10.764-0.238-9.558 0.277v19.633l9.558-1.645zm11.185-0.312-9.158 0.254v18.024l9.158-1.51zm-21.949-12.614-11.317-0.171v10.905l11.317-0.504zm11.222 0.045-9.543-0.375v10.745l9.543-0.291zm10.618 0.406-8.892-0.349v10.012l8.892-0.271z"
            fill="#775a3f" />
        <path
            d="m189.26 110.09-9.614 0.28v19.756l9.614-1.362zm11.019-0.242-8.12 0.267v18.624l8.12-1.611zm11.243-0.32-7.781 0.245v17.097l7.781-1.479zm-22.262-12.602-9.614-0.182v10.511l9.614-0.469zm11.479 0.043-8.108-0.384v10.356l8.108-0.257zm10.712 0.4-7.554-0.358v9.649l7.554-0.239z"
            fill="#e3d0c1" />
        <path
            d="m187.76 119.22-7.931 0.904v8.374l7.931-0.97zm11.251-1.041-6.698 0.564v8.318l6.698-1.131zm11.296-1.004-6.419 0.518v7.636l6.419-1.038zm-22.547-5.818-7.931 0.213v6.3l7.931-0.451zm11.251-0.297-6.698 0.204v5.884l6.698-0.59zm11.296-0.42-6.419 0.187v5.402l6.419-0.542zm-22.547-12.447-7.931-0.248v8.028l7.931-0.25zm11.713 0.024-6.688-0.45v7.91l6.688-0.04zm10.798 0.314-6.231-0.419v7.37l6.231-0.037z"
            fill="#6a8082" />
        <path
            d="m212.85 86.585-8.852-1.028v9.171l8.852 0.459zm-10.434-1.375-9.924-1.03v10.175l9.924 0.4zm-11.524-1.339-11.317-1.064v10.905l11.317 0.389zm21.958-8.576-8.852-1.47v9.612l8.852 0.902zm-10.434-1.707-9.924-1.583v10.507l9.924 0.953zm-11.524-1.892-11.317-1.783v11.127l11.317 1.107z"
            fill="#775a3f" />
        <path
            d="m195.37 88.208-2.82 0.129-0.066 5.797 2.914 0.243zm-4.559 0.281-1.489 0.141v5.236l1.506 0.165zm-2.867 0.256-5.316 0.333v4.698l5.346 0.14zm7.426-10.367-2.82 0.333-0.066 3.903 2.914 0.243zm-4.354 0.639-1.54 0.141v2.88l1.557 0.115zm-3.072 0.256-5.316 0.589v1.472l5.346 0.499z"
            fill="#acdbf2" />
        <path
            d="m218.98 71.222v56.628h-1.334v-19.713l-2.333 0.161v17.92h-1.333v-17.855l-9.334 0.424v22.871h-1.333v-22.81l-4.167 0.189v20.445h-1.666v-20.369l-11.334 0.515v25.476h-1.833v-25.392l-4.667 0.212v24.273h-1.666v-70.635h0.055l0.028-0.63 8.167-1.995-0.4 1.12h0.316v20.934l11.334 1.367v-16.601h0.561l0.064-0.57 6.125-2.375 0.375 1.125-0.722 0.259h0.763v19.027l9.334 1.126v-14.865h1v-1.047l2.491-0.723zm-39.334 37.07 4.667-0.177v-11.914l-4.667-0.131zm6.5-0.247 11.334-0.429v-11.047l-11.334-0.317zm13-0.492 4.167-0.157v-10.664l-4.167-0.116zm5.5-0.208 9.334-0.353v-9.961l-9.334-0.262zm10.667-10.297v9.893l2.333-0.088v-9.966zm0-9.37v7.787l2.333 0.066v-8.341zm-10.667-0.601v8.085l9.334 0.265v-7.47l-0.5 0.105zm-5.5 7.929 4.167 0.118v-8.196l-4.167-0.464zm-13-0.369 11.334 0.322v-8.681l-11.334-1.264zm-6.5-0.185 4.667 0.133v-9.775l-4.667-0.521zm35.667-22.398v14.456l2.333 0.281v-15.671zm-16.167-4.16v16.666l4.167 0.502v-18.662zm-19.5-3.546v17.859l4.667 0.563v-19.723z"
            fill="#181818" />
        <path d="m204.25 68.114 14.286 2.684 0.285 26.031-14.428-0.134z" fill="#ddd" />
        <path d="m204.25 68.114 14.286 2.684 0.285 5.233-14.571-1.476z" fill="#954848" />
        <path d="m206.25 76.031 11 1.61v4.696l-11-0.268z" fill="#acdbf2" />
        <path
            d="m208.5 82.124 0.028-4.349 2-0.268 0.857 1.208 0.428 1.073 1.715-0.537 1.285-0.134 1 2.415-7.313 0.592"
            fill="#505050" fill-opacity=".65" />
    </g>
    <path
        d="m201.92 22.694v14.365l4.523 22.531-12.391-4.036 6.874-18.862 0.044-15.183zm-6.547 31.882 6.087-16.972 4.028 20.52z"
        fill="#181818" />
    <path
        d="m38.429 103.49 101.43-101.43c1.33-1.331 3.1-2.063 4.981-2.063s3.651 0.732 4.981 2.063l137.79 137.79c1.331 1.332 2.064 3.101 2.064 4.982s-0.733 3.649-2.064 4.98l-59.71 59.711c-6.268 0.451-12.638 0.683-19.091 0.683-92.455 0-167.82-47.539-170.38-106.72z"
        fill="url(#_Radial6)" />
    <g>
        <path
            d="m8.374 127.32c0.852-4.561 2.931-10.001 4.612-10.527 0.328-7.082 3.214-12.669 6.581-12.581 2.51 0.066 4.587 3.27 5.467 7.828 0.522-0.64 1.119-1.022 1.753-1.006 1.798 0.047 3.173 3.115 3.148 6.9 1.496 1.511 2.481 4.813 2.382 8.626-0.052 1.981-0.388 3.81-0.92 5.311 1.285 0.947 2.097 2.332 2.097 3.878 0 2.86-2.775 5.178-6.199 5.178l-12.128 3.741c-3.421 0-13.529-1.726-13.529-4.586 0-2.104 0.671-8.243 2.825-9.054 0.093-1.874 1.748-3.413 3.911-3.708z"
            fill="#639d66" />
        <path
            d="m12.986 116.79c0.328-7.082 3.214-12.669 6.581-12.581 2.51 0.066 4.587 3.27 5.467 7.828 0.522-0.64 1.119-1.022 1.753-1.006 1.798 0.047-3.3 5.49-3.325 9.276 1.496 1.51-4.091 8.003-4.191 11.817-0.135 5.184 10.825 3.768 8.388 3.704l-5.055 5.351c-4.639 2.884-8.026 2.264-10.448-1.058-2.438-0.064-4.305-4.317-4.17-9.501 0.123-4.674 2.879-13.166 5-13.83z"
            fill="#5a945d" />
        <path d="m75.39 86.476-48.248 5.269v50.551l48.248 6.916z" fill="#736960" />
        <path d="m75.06 86.476 25.36-30.042 22.888 35.311v50.551l-48.248 6.916z" fill="#dabda5" />
        <path
            d="m27.231 92.631v2.894l47.799-3.01-0.029-2.376 25.536-30.448 21.315 34.217 1.464 0.551-0.024-2.754-21.874-35.183-27.545 32.058z"
            fill="#000c36" fill-opacity=".26" />
        <path
            d="m23.703 93.736-0.097-1.774 25.718-24.657 52.153-12.659 24.507 37.267-2.43 0.81-0.811-1.62-21.874-33.419-27.14 32.406z"
            fill="#7b2c2c" />
        <path d="m23.606 91.962 50.078-4.46 0.09 2.701-50.026 3.466z" fill="#510d0d" />
        <path
            d="m73.47 87.451 27.347-32.859 0.66 0.054 24.507 37.267-2.43 0.81-22.685-35.039-27.14 32.406z"
            fill="#ce6262" />
        <path
            d="m108.65 122.52-14.004 0.616v23.216l13.879-1.687zm-15.972 0.513-14.004 0.327v12.308l14.004-1.089zm29.189-0.822-11.53 0.269v10.134l11.53-0.897zm-29.102-20.995-14.091-0.798v13.027l14.001-0.044zm15.282 0.846-12.54-0.547v11.776l12.459-0.283zm13.829 0.894-11.53-0.774v10.852l11.53 0.226zm-0.712-9.233-8.406-13.975-2.43-0.202v13.266zm-12.912-14.581-12.609-1.732 0.076 14.054 12.536 1.122zm-28.71 10.126 10.33-12.76 2.835 0.405-0.101 13.874zm11.373-14.379 10.262-12.872 9.722 15.843z"
            fill="#775a3f" />
        <path
            d="m106.62 122.74-11.978 0.522 0.081 22.447 11.897-1.464zm-15.971 0.413-11.898 0.315v11.862l11.898-1.05zm29.546-0.842-9.795 0.259v9.766l9.795-0.864zm-29.549-20.976-11.895-0.81v12.582l11.895 0.075zm15.496 0.835-10.566-0.558v11.376l10.566-0.176zm14.062 0.885-9.795-0.784v10.485l9.795 0.179zm-0.507-9.529-7.271-12.089-2.102-0.175v11.476zm-13.273-13.209-10.713-1.41 4e-3 12.562 10.713 0.845zm-26.531 8.752 8.804-10.875 2.417 0.345-0.087 11.825zm11.378-14.229 8.712-10.928 8.253 13.45z"
            fill="#e3d0c1" />
        <path
            d="m88.797 124.59-9.815 0.24v9.061l9.815-0.802zm16.203-0.413-9.467 0.594v7.275l9.467-0.829zm13.671-0.683-8.08 0.198v7.459l8.08-0.66zm-29.877-20.722-9.812-0.884v9.78l9.812 0.323zm29.886 1.466-8.08-0.845v8.178l8.08 0.383zm-14.201-0.777-8.695-0.625v8.859l8.695 0.047zm12.388-11.436-4.963-8.75-1.378-0.114v8.315zm-12.111-10.1-8.836-1.175v8.978l8.836 0.841zm-23.952 6.083 6.798-8.398 1.866 0.267-0.066 9.131zm11.277-13.782 6.743-8.515 6.387 10.479z"
            fill="#6a8082" />
        <path
            d="m56.851 123.2 14.542 0.34v12.781l-14.542-1.131zm-26.952-1.193 13.351 0.312v11.734l-13.351-1.038zm0-19.533 13.351-0.715v11.734l-13.351-0.012zm26.952-1.274 14.542-0.741v12.782l-14.542-0.051z"
            fill="#363636" />
        <path
            d="m58.954 123.32 12.355 0.327v12.319l-12.355-1.09zm-27.124-1.202 11.342 0.3v11.309l-11.342-1.001zm0-19.534 11.342-0.726v11.309l-11.342 0.026zm27.124-1.264 12.355-0.753v12.319l-12.355-0.01z"
            fill="#8d857e" />
        <path
            d="m60.877 124.81 10.192 0.25v9.41l-10.192-0.833zm-27.282-1.324 9.357 0.229v8.638l-9.357-0.765zm0-19.534 9.357-0.797v8.638l-9.357 0.262zm27.282-1.142 10.192-0.83v9.409l-10.192 0.248z"
            fill="#2c4e51" />
        <path
            d="m38.823 131.72c-0.174-5.096-3.508-9.165-7.607-9.165-3.056 0-5.684 2.264-6.901 5.523-0.614-0.47-1.328-0.756-2.1-0.756-2.189 0-3.96 2.179-4.049 4.9-1.868 1.057-3.172 3.412-3.172 6.154 0 3.728 2.405 6.75 5.372 6.75l5.98 3.941c5.553 2.159 9.693 1.777 12.745-0.565 2.968 0 5.375-3.022 5.375-6.75 0-3.361-3.084-9.516-5.643-10.032z"
            fill="#639865" />
        <path
            d="m35.436 136c-0.17-3.937-1.525-10.841-5.534-10.841-2.987 0-4.605 4.005-5.794 6.523-0.601-0.363-1.299-0.584-2.054-0.584-2.14 0-3.871 1.683-3.958 3.785-1.827 0.816-3.102 2.635-3.102 4.753 0 2.88 2.352 5.214 5.253 5.214l5.847 3.044c1.376-0.142-10.174-8.759 4.127-5.515 2.903 0-0.221-2.898-0.221-5.778 0-2.596 7.938-0.202 5.436-0.601z"
            fill="#135916" fill-opacity=".22" />
    </g>
    <g>
        <path
            d="m190.41 247.02-25.957 5.354-55.667-37.334-16.688-34.312 0.688-3.354 9-1.667 1-2.667s18.333-2.333 22.333-2.333 27.334 1 32 2c4.667 1 33.667 15 39.667 16.333 6 1.334 20 22.667 20 22.667l0.291 8.645z"
            fill="#363636" fill-opacity=".25" />
        <path
            d="m287.61 139.86c1.331 1.332 2.064 3.101 2.064 4.982l-1e-3 0.078v0.023l-1e-3 0.057v0.026l-2e-3 0.065s-53.201 9.606-53.201 9.606l-29-10.5 71.795-12.683z"
            fill="#b09884" />
        <path
            d="m287.61 139.86c1.331 1.332 2.064 3.101 2.064 4.982l-1e-3 0.078v0.021l-1e-3 0.067v0.013l-3e-3 0.077v0.02l-3e-3 0.063-1e-3 0.018-4e-3 0.077-1e-3 0.016-4e-3 0.063-2e-3 0.021-6e-3 0.077-9e-3 0.099-8e-3 0.078-9e-3 0.074-3e-3 0.023-8e-3 0.059-2e-3 0.019-0.01 0.073-4e-3 0.024-8e-3 0.053-4e-3 0.025-0.012 0.071-4e-3 0.023-9e-3 0.051-6e-3 0.03-0.013 0.07-5e-3 0.022-9e-3 0.048-8e-3 0.034-8e-3 0.041-7e-3 0.031-0.015 0.063-9e-3 0.039-8e-3 0.031-0.01 0.041c-5e-3 0.02-0.01 0.039-0.015 0.058l-0.012 0.046-6e-3 0.02-0.013 0.049-50.945 9.199-29-10.5 71.158-12.57z"
            fill="#dabda5" />
        <path d="m282.1 134.35 0.306 0.306-69.761 12.466-0.929-0.678z" fill="#736960" />
        <path d="m109.54 178.65 42.601-7.689-4.154-3.765-15.5-0.166-8.667 3.666-13.916-2.083z"
            fill="#363636" />
        <path
            d="m226.64 210.8c-3.285-6.086-22.892-40.848-47.432-51.189-3.57-1.505-22.745-1.187-22.745-1.187l-0.566-14.223c10.993-7.254 30.37-9.994 50.782-7.822 22.031 2.344 44.822 21.917 57.408 36.973z"
            fill="#b09884" />
        <path
            d="m223.43 214-0.593-0.152s-20.989-40.753-47.917-52.101c-3.57-1.505-22.744-1.187-22.744-1.187l-0.566-14.223c7.243-4.779 18.125-7.599 30.545-8.346 6.431-0.387 13.273-0.217 20.236 0.524 22.61 2.406 46.02 22.957 58.377 38.147z"
            fill="#736960" />
        <path
            d="m257.98 179.45c-10.862-12.74-29.208-30.188-51.461-35.503-33.643-8.036-54.842 7.117-54.842 7.117l-0.068-1.727c7.243-4.779 18.125-7.599 30.545-8.346 6.431-0.387 13.273-0.217 20.236 0.524 21.718 2.311 44.337 21.418 57.114 36.411z"
            fill="#494949" fill-opacity=".56" />
        <path
            d="m140.41 161.34h2e-3l54.51-6.235s27.534 10.356 44 27.667c2.698 2.836 5.178 5.606 7.457 8.289l-35.73 35.73c-11.131-20.739-32.134-55.549-51.06-62.704-6.91-2.612-13.376-3.251-19.179-2.747-0.197 0.038-18.806 3.612-28.537 12.964 0 0 11.38-11.473 28.537-12.964z"
            fill="url(#_Linear7)" />
        <path
            d="m177.39 157.1 17.525-2.005s27.534 10.356 44 27.667c2.698 2.836 5.178 5.606 7.457 8.289l-8.343 8.342c-4.496-7.468-10.372-15.055-17.947-21.316-24.856-20.543-38.771-21.253-42.692-20.977l-1.064 0.122-0.056 8e-3c-2e-3 1e-3 -0.032 8e-3 -0.041 3e-3l0.097-0.011c0.159-0.026 0.512-0.084 1.064-0.122z"
            fill="#494949" fill-opacity=".48" />
        <path
            d="m212.11 225.32c-29.079-42.844-61.937-69.885-106.36-48.617l2.034-16.223c5.243-11.254 18.77-12.245 39.182-10.072 29.532 3.142 69.429 41.492 75.279 54.167l0.137 10.477z"
            fill="#b09884" />
        <path
            d="m206.34 231.09c-4.731-9.932-26.859-35.334-53.941-47.252-13.426-5.908-22.806-8.183-29.302-8.693-11.231-0.883-13.843 3.507-13.843 3.507l-8.242-2.104 1.226-18.519c10.993-7.254 18.52-9.395 38.932-7.223 29.532 3.143 70.929 43.243 76.779 55.917l0.032 12.725z"
            fill="#736960" />
        <path d="m217.55 219.88-0.292-15.592 3-0.571 1.572 0.143 0.264 11.475z" fill="#dabda5" />
        <path
            d="m102.03 164.26s13.149-18.93 51.975-4.822c33.554 12.193 63.555 51.472 63.555 51.472l4.777-1.368-0.08-1.644-4.702 1.225c-5.85-12.674-46.847-52.174-76.379-55.317-20.412-2.172-27.939-0.031-38.932 7.223z"
            fill="#494949" fill-opacity=".55" />
        <path d="m19.495 167.25 86.96-11.591-3.016 2.813 0.266 21.521-60.509 10.958z"
            fill="#b09884" />
        <path d="m22.26 170.02 80.945-11.856 0.5 21.834-60.509 10.958z" fill="#dabda5" />
        <path d="m24.559 172.31 79.155-12.202-0.238 1.334-77.347 12.437z" fill="#736960" />
        <path d="m93.422 182.2 9.783-24.046 0.5 21.834z" fill="#333" fill-opacity=".33" /></g>
    <defs><linearGradient id="_Linear1" x2="1" gradientTransform="matrix(17 93.357 -93.357 17 112.25 14.749)" gradientUnits="userSpaceOnUse"><stop stop-color="#7dcdd9" offset="0"/><stop
        stop-color="#c5e3ff" offset="1" /></linearGradient>
        <linearGradient id="_Linear2" x2="1"
            gradientTransform="matrix(2.25 45.525 -12.207 .6033 127.42 121.4)"
            gradientUnits="userSpaceOnUse"><stop stop-color="#b0b0b0" offset="0"/>
            <stop stop-color="#7a7a7a" offset="1" /></linearGradient>
        <linearGradient id="_Linear3" x2="1"
            gradientTransform="matrix(-10.25 87.25 -39.526 -4.6434 172.92 164.05)"
            gradientUnits="userSpaceOnUse"><stop stop-color="#2085ad" offset="0"/>
            <stop stop-color="#2c4e51" offset="1" /></linearGradient>
        <linearGradient id="_Linear4" x2="1"
            gradientTransform="matrix(-12.75 -47.5 14.561 -3.9084 167.67 242.55)"
            gradientUnits="userSpaceOnUse"><stop stop-color="#fff" stop-opacity=".22" offset="0"/>
            <stop stop-color="#b7b7b7" stop-opacity=".22" offset=".69" />
            <stop stop-color="#2c4e51" stop-opacity=".22" offset="1" /></linearGradient>
        <linearGradient id="_Linear5" x2="1"
            gradientTransform="matrix(15 66.5 -20.385 4.5981 140.92 140.05)"
            gradientUnits="userSpaceOnUse"><stop stop-color="#fff" offset="0"/>
            <stop stop-color="#b7b7b7" offset=".69" />
            <stop stop-color="#2c4e51" offset="1" /></linearGradient>
        <radialGradient id="_Radial6" cx="0" cy="0" r="1"
            gradientTransform="matrix(73.182 -14.668 11.625 58 168.61 107.34)"
            gradientUnits="userSpaceOnUse"><stop stop-color="#bdefff" stop-opacity=".31" offset="0"/>
            <stop stop-color="#fff" stop-opacity="0" offset="1" /></radialGradient>
        <linearGradient id="_Linear7" x2="1"
            gradientTransform="matrix(10.8 39.25 -21.826 6.0056 234.62 188.27)"
            gradientUnits="userSpaceOnUse"><stop stop-color="#dcc1aa" offset="0"/>
            <stop stop-color="#b09884" offset="1" /></linearGradient></defs></svg>
