<?xml version="1.0" encoding="UTF-8"?>
<svg version="1.1" viewBox="0 0 290 290" xml:space="preserve" xmlns="http://www.w3.org/2000/svg"><g transform="matrix(1.3333 0 0 -1.3333 0 290)"><path d="m108.63 0.24358c-1.411 0-2.7381 0.55021-3.7358 1.5474l-103.34 103.35c-0.99826 0.99775-1.5479 2.3243-1.5479 3.7353s0.54969 2.7381 1.5474 3.7363l103.35 103.34c0.99775 0.99825 2.3248 1.5474 3.7358 1.5474 1.411 0 2.7381-0.54918 3.7358-1.5474l103.34-103.34c0.99825-0.99878 1.5479-2.3253 1.5479-3.7363 0-1.4105-0.54969-2.737-1.5479-3.7353l-103.34-103.35c-0.99775-0.99722-2.3248-1.5474-3.7358-1.5474" fill="#aab1e0"/><path
    d="m107.12 209.75c-5.5474-0.2451-6.5408-9.4607-6.5408-9.4607s-0.73582 5.405-2.6976 7.6634l-12.549-12.548h37.061l-10.553 0.99683s4.3546 11.125-2.8479 13.117c-0.67528 0.18678-1.2986 0.25693-1.8725 0.23157zm38.4-27.013c-5.0883-0.51027-6.0193-6.1727-6.0193-6.1727s-1.3676 6.6027-5.3492 5.5577c-3.9821-1.0449-3.9858-4.0548-3.9858-4.0548s-2.6462 2.2883-4.8891 1.0536c-2.2428-1.2347 1.4262-3.8064 1.4262-3.8064l-12.059-1.9553h40.175l-0.4248 0.4294-3.6346 0.22544s0.6243 1.0479 1.0091 2.42z"
    fill="#fff" />
    <path
        d="m83.213 169.97h9.3981l1.7974-10.243h5.7277l0.46568 29.613h17.615l-2.6795-46.357 3.5683-0.71512h9.8312l-1.8581 26.004 30.914 4.4172-2.7381-41.121h-72.042l-6.1731 20.97z"
        fill="#afcaff" />
    <path d="m72.665 183.48-8.921-45.068 8.6628-14.61 4.8388-0.70992 6.5346 8.8479 5.0825 67.737z"
        fill="#7590ba" />
    <path
        d="m207.94 97.125h-70.089l-13.164 18.616-4.1434 6.4739h-24.664l-4.1439-6.4744-13.164-18.615h-69.259l23.568-23.568h29.027l-12.024-17.004 55.007-55.007c0.99773-0.99774 2.3248-1.5474 3.7358-1.5474 1.411 0 2.7381 0.54969 3.7358 1.5474l54.521 54.521-12.367 17.489h29.856z"
        fill="#26354b" />
    <path
        d="m95.955 123.8-17.912-25.024-70.145-0.2377 1.417-1.417h68.898l17.742 25.09zm23.995 0v-1.5888l17.741-25.09h68.898l1.417 1.417-70.145 0.2377z"
        fill="#7590ba" />
    <path
        d="m12.988 123.8-11.441-11.441c-0.99775-0.99775-1.5474-2.3248-1.5474-3.7358s0.54965-2.7366 1.5474-3.7343l6.3506-6.3506 70.145 0.2377 17.912 25.024zm106.96 0 17.912-25.024 70.145-0.2377 2.5795 1.2269 5.1237 5.1237c0.99774 0.99827 1.5474 2.3238 1.5474 3.7343 0 1.411-0.54965 2.7376-1.5474 3.7358l-11.439 11.441z"
        fill="#e3d0b1" />
    <path d="m32.883 73.557 16.791-16.791 11.873 16.791zm121.64 0 12.367-17.489 17.489 17.489z"
        fill="#e3d0b1" />
    <path
        d="m92.37 110.46-4.8952-9.5083h2.5059l4.3876 9.5083zm2.7405 0-4.3385-9.5083h2.7467l3.3478 9.5083zm2.7298 0-3.0748-9.5083h3.0028l2.3479 9.5083zm3.4107 0-1.9185-9.5083h3.5533l0.67632 9.5083zm3.5211 0-0.66557-9.5083h4.2327l-0.48154 9.5083zm4.0809 0 0.48307-9.5083h3.426l-1.8311 9.5083zm3.1745 0 2.0443-9.5083h3.446l-2.9644 9.5083zm3.7696 0 2.8325-9.5083h2.9353l-3.6147 9.5083zm2.9138 0 4.4444-9.5083h2.581l-4.4888 9.5083zm3.4813 0 4.9366-9.5083h2.9123l-6.2954 9.5083zm-56.862-45.115-8.2384-16 4.2082-4.2082 9.3258 20.208zm14.494 0-8.148-25.198h7.9593l6.2218 25.198zm-7.234-0.0016-9.8687-21.628 3.5687-3.5687h2.0811l8.8749 25.197zm16.276 0-5.0854-25.197h9.4178l1.7897 25.197zm9.3288 0-1.7636-25.197h11.218l-1.2744 25.197zm10.818 0 1.2805-25.197h9.0789l-4.8554 25.197zm8.4102 0 5.4182-25.197h9.131l-7.855 25.197zm9.9898 0 7.5085-25.197h7.7784l-9.5804 25.197zm7.7216 0 11.78-25.197h4.0548l1.8909 1.8924-11.002 23.304zm9.2276 0 10.869-20.934 4.2772 4.2757-11.03 16.658z"
        fill="#fff" />
    <path
        d="m61.548 73.557-11.873-16.791 1.4692-1.4692 10.404 15.612zm92.808 0v-2.647l10.945-16.425 1.4891 1.4876z"
        fill="#7590ba" />
    <path
        d="m72.407 123.8-14.299-15.175h-58.108c0-1.4116 0.54965-2.7376 1.5474-3.7358l2.5948-2.5948h50.791zm78.856-10.752 6.0776-9.9684 55.948-0.6119 2.42 2.4215c0.25254 0.25306 0.47624 0.52598 0.67018 0.81741h-59.039z"
        fill="#c9ae90" />
    <path d="m1.5476 112.36c-0.99774-0.99774-1.5474-2.3242-1.5474-3.7358h58.107l1.0579 61.354z"
        fill="#59667f" />
    <path d="m59.165 169.98-1.0579-61.354 14.3 15.176 3.0487 62.468z" fill="#afcaff" />
    <g transform="scale(1.0469)">
        <path transform="matrix(.75 0 0 -.75 0 207.75)"
            d="m88.283 65.961 1.9355 31.812h9.8867l1.7188-31.812zm4.5137 64.912v17.303h4.5801l-0.81836-17.303z"
            fill="#59667f" />
        <path transform="matrix(.75 0 0 -.75 0 207.75)"
            d="m86.354 69.83 0.25976 1.5059h16.406v-1.5059zm8.8359 4.1406c-1.6465 0-2.9805 1.336-2.9805 2.9824s1.334 2.9805 2.9805 2.9805c1.6465 0 2.9805-1.334 2.9805-2.9805s-1.334-2.9824-2.9805-2.9824zm6.1777 0.51562-0.28901 5.2929 5.082-4.6445zm-12.549 0.14258-4.7207 0.63867 5.041 4.6211-0.09961-1.6504zm6.3711 7.1641c-1.6465 0-2.9805 1.336-2.9805 2.9824 0 1.6465 1.334 2.9805 2.9805 2.9805 1.6465 0 2.9805-1.334 2.9805-2.9805 0-1.6465-1.334-2.9824-2.9805-2.9824zm5.752 0.55859-0.28125 5.2363 4.748-5.2363zm-16.09 0.13281 4.7656 5.2539-0.19922-3.2793-0.12109-1.9746zm15.668 7.6973-0.25195 4.6523 3.8516-4.6523zm-14.379 0.13281 3.9199 4.7363-0.28711-4.7363zm9.0488 0.04492c-1.6465 0-2.9805 1.334-2.9805 2.9805 0 1.6465 1.334 2.9824 2.9805 2.9824 1.6465 0 2.9805-1.336 2.9805-2.9824 0-1.6465-1.334-2.9805-2.9805-2.9805zm-0.98828 7.3691v33.1h1.8262v-33.1z"
            fill="#26354b" />
    </g>
    <path
        d="m138.78 129.45s-6.7596 23.488-3.9749 22.856c2.7842-0.63267 6.4137-22.856 6.4137-22.856s-4.1704 36.256 0 36.256c4.1699 0 4.1263-30.852 4.1263-30.852s2.903 15.88 5.4839 12.724c2.582-3.1555-1.8197-18.128-1.8197-18.128z"
        fill="#4a807f" />
    <path d="m141.26 186.81 4.0153-63.007 9.0782-8.6742 1.7554 56.832z" fill="#aab1e0" />
    <path d="m149.54 178.53v-63.403l7.8004-9.4194 2.0536 62.968z" fill="#59667f" />
    <path
        d="m159.39 168.68-2.0536-62.967h59.038c0.57043 0.85772 0.87742 1.8638 0.87742 2.917 0 1.411-0.54917 2.7376-1.5474 3.7358z"
        fill="#afcaff" />
    <g transform="scale(1.0469)">
        <path
            d="m207.05 101.65-2.5787 2.275h-24.659l-2.1824-3.2736-3.6-8.6192 7.8287 2.4004 1.3364 4.5823h21.666l1.1769 1.1769c0.42846 0.42896 0.76578 0.92379 1.0124 1.4582"
            fill="#26354b" />
        <path
            d="m177.96 94.977h-5.2084c-0.3071 0-0.61173 0.06043-0.89555 0.17832l-1.4137 0.58647c-0.36506 0.15157-0.76281 0.20804-1.1561 0.16395l-12.522-1.4033c-0.96738-0.10848-1.7664-0.80491-2.0056-1.7485l-1.3646-5.3803c-0.13027-0.51514-0.0817-1.0595 0.13919-1.5434l2.0784-4.5625c0.37892-0.83314 1.2111-1.3681 2.1269-1.3681h28.01l14.782 14.782z"
            fill="#ce3641" />
        <path
            d="m177.85 105.01-7.9649-9.0422 2.4009-0.99611h4.8423l2.4405 6.7375 2.864 1.5548h11.866l1.8822-8.5305h2.2097l-2.2097 8.5305h8.0194l2.5267-2.2176c0.51266 0.80194 0.79104 1.7327 0.79104 2.707 0 0.16495-9e-3 0.3284-0.0243 0.49087l-0.94707 0.76578z"
            fill="#fff" />
        <path
            d="m175.32 87.936c-1.7373 0-3.3108-0.6825-4.4824-1.7871-0.25569 0.21266-0.58025 0.34424-0.9375 0.34424h-16.022c-0.81333 0-1.4736-0.65981-1.4736-1.4736v-1.2847c0-0.34772 0.12425-0.68469 0.34863-0.95068l1.9937-2.3628c0.27936-0.33138 0.69108-0.52295 1.125-0.52295h13.084c0.67651-2.8934 3.2654-5.0508 6.3648-5.0508 3.6144 0 6.5449 2.9305 6.5449 6.5449 0 3.6139-2.9305 6.5435-6.5449 6.5435z"
            fill="#59667f" />
        <path
            d="m171.32 81.392c0 2.2087 1.7906 3.9988 3.9988 3.9988 2.2087 0 3.9993-1.7901 3.9993-3.9988s-1.7906-3.9988-3.9993-3.9988c-2.2082 0-3.9988 1.7901-3.9988 3.9988"
            fill="#fff" />
        <path
            d="m172.49 81.392c0 1.5618 1.2661 2.8278 2.8273 2.8278 1.5618 0 2.8278-1.2661 2.8278-2.8278s-1.266-2.8278-2.8278-2.8278c-1.5613 0-2.8273 1.2661-2.8273 2.8278"
            fill="#26354b" />
        <path
            d="m177.96 94.977h-5.2084c-0.3071 0-0.61173 0.06043-0.89555 0.17832l-1.4137 0.58647c-0.36506 0.15157-0.76281 0.20804-1.1561 0.16395l-12.522-1.4033c-0.96738-0.10848-1.7664-0.80491-2.0056-1.7485h24.557l4.3455-0.77767h14.164l2.7055 2.705z"
            fill="#ff5159" /></g><g transform="scale(1.0469)"><path transform="matrix(.75 0 0 -.75 0 207.75)" d="m211.87 74.727 3.0352 49.912h15.514l2.6973-49.912zm7.082 101.85v22.611l6.6562-6.6562-0.75586-15.955z" fill="#59667f"/>
        <path transform="matrix(.75 0 0 -.75 0 207.75)"
            d="m208.84 80.797 0.40625 2.3613h25.744v-2.3613zm13.863 6.4961c-2.5836 0-4.6777 2.0941-4.6777 4.6777 0 2.5836 2.0941 4.6777 4.6777 4.6777 2.5836 0 4.6777-2.0941 4.6777-4.6777 0-2.5836-2.0941-4.6777-4.6777-4.6777zm9.6856 0.88086-0.44661 8.309 7.9661-7.2933zm-19.689 0.22266-7.4082 1 7.9102 7.252zm10.004 11.17c-2.5836 0-4.6777 2.0941-4.6777 4.6777s2.0941 4.6777 4.6777 4.6777c2.5836 0 4.6777-2.0941 4.6777-4.6777s-2.0941-4.6777-4.6777-4.6777zm9.0195 0.94726-0.44531 8.2109 7.4512-8.2109zm-25.25 0.20703 7.4785 8.2422-0.0801-1.3223-0.42188-6.9199zm8.918 10.973 14.102 0.69531 0.44336 3.2246 0.25195-3.9199zm15.668 1.1055-0.39453 7.3008 6.041-7.3008zm-22.562 0.20703 6.1523 7.4336-0.45312-7.4336zm14.207 0c-2.5836 0-4.6777 2.0941-4.6777 4.6777 0 2.5836 2.0941 4.6777 4.6777 4.6777 2.5836 0 4.6777-2.0941 4.6777-4.6777 0-2.5836-2.0941-4.6777-4.6777-4.6777zm-1.5606 11.633v51.936h2.8672v-51.936z"
            fill="#26354b" />
        <path
            d="m164.08 119.49c0 1.6252 1.3176 2.9428 2.9428 2.9428 1.6257 0 2.9432-1.3176 2.9432-2.9428s-1.3176-2.9428-2.9432-2.9428c-1.6252 0-2.9428 1.3176-2.9428 2.9428"
            fill="#4a807f" />
        <path
            d="m164.08 129.57c0 1.6252 1.3176 2.9428 2.9428 2.9428 1.6257 0 2.9432-1.3176 2.9432-2.9428s-1.3176-2.9428-2.9432-2.9428c-1.6252 0-2.9428 1.3176-2.9428 2.9428"
            fill="#ffdc19" />
        <path
            d="m164.08 138.77c0 1.6252 1.3176 2.9428 2.9428 2.9428 1.6257 0 2.9432-1.3176 2.9432-2.9428s-1.3176-2.9428-2.9432-2.9428c-1.6252 0-2.9428 1.3176-2.9428 2.9428"
            fill="#ce3641" />
        <path
            d="m164.09 119.65c0.53743-0.70733 1.3849-1.166 2.3424-1.166 1.5682 0 2.8466 1.2279 2.9338 2.7748-0.53743 0.70733-1.3854 1.166-2.3419 1.166-1.5687 0-2.8467-1.2279-2.9343-2.7748"
            fill="#678d10" />
        <path
            d="m164.09 138.94c0.53743-0.70733 1.3849-1.166 2.3424-1.166 1.5682 0 2.8466 1.2279 2.9338 2.7743-0.53743 0.70733-1.3854 1.1665-2.3419 1.1665-1.5687 0-2.8467-1.2284-2.9343-2.7748"
            fill="#ff5159" />
        <path
            d="m164.68 130.21c0 0.93667 1.0486 1.6955 2.3424 1.6955 1.2933 0 2.3419-0.75884 2.3419-1.6955s-1.0486-1.696-2.3419-1.696c-1.2938 0-2.3424 0.75933-2.3424 1.696"
            fill="#ffff87" /></g><g transform="scale(1.0469)"><path d="m12.242 103.92-2.1824-3.2731-2.6639-6.3774 1.4964-1.4964 5.3956 1.6544 1.3369 4.5823h26.841l-5.5645 4.9102z" fill="#26354b"/>
        <path
            d="m69.494 92.679-17.326 1.7426c-0.06737 0.0064-0.13473 0.0104-0.20308 0.01139l-41.578 0.54437h-3.6947l15.077-15.078h47.491c1.2908 0 2.3375 1.0466 2.3375 2.3375v8.1165c0 1.2007-0.90942 2.2057-2.1037 2.3256"
            fill="#ffb941" />
        <path
            d="m54.834 81.392c0 1.5618 1.2661 2.8278 2.8278 2.8278s2.8273-1.2661 2.8273-2.8278-1.2656-2.8278-2.8273-2.8278-2.8278 1.2661-2.8278 2.8278"
            fill="#26354b" />
        <path
            d="m69.494 92.679-17.326 1.7426c-0.06737 0.0064-0.13473 0.0104-0.20308 0.01139l-41.578 0.54437h-3.6947l2.223-2.2235h2.8278l4.345-0.77717h35.679l19.797-1.2675c-0.15999 1.0372-0.9966 1.8619-2.07 1.9699"
            fill="#ffdc19" />
        <path
            d="m14.288 94.926-5.4605-2.0992 1.0417-0.07232h1.8738l1.1928-0.21349 8.108-0.56418h17.07l3.3554 0.41558 5.1435 2.1106z"
            fill="#afcaff" />
        <path d="m30.818 94.738-2.2097 8.5305h-1.8822l1.8822-8.5305z" fill="#fff" />
        <path d="m33.726 102.68 5.2485 2.332h-28.696l-5.461-2.0992z" fill="#afcaff" />
        <path
            d="m34.536 102.68-27.755-0.85791-2.1824-3.2736-0.43638-1.0451 4.6412-4.6412 5.4838 2.0606 1.3369 4.0884h27.193l-3.5797 4.2554z"
            fill="#26354b" />
        <path
            d="m64.034 90.579-17.326 1.7426c-0.06737 0.0064-0.13473 0.0104-0.20308 0.01139l-37.662 0.49286 15.026-15.026h39.931c1.2908 0 2.3375 1.0466 2.3375 2.3375v8.1165c0 1.2007-0.90942 2.2057-2.1037 2.3256"
            fill="#ffb941" />
        <path
            d="m71.565 86.002-5.4243-2.1006-9.2622-0.03515c-1.1881 1.215-2.8436 1.9702-4.6772 1.9702-3.6139 0-6.5435-2.9305-6.5435-6.5449 0-3.6139 2.9295-6.5435 6.5435-6.5435 1.9388 0 3.6785 0.84385 4.875 2.1841 0.19237-0.01705 0.38326-0.03662 0.58008-0.03662 2.2647 0 4.2541 1.1552 5.4287 2.9033h2.2148l5.4199 2.1431c0.58252 0.07155 1.07 0.49391 1.2085 1.0767l0.77344 3.2651c0.19152 0.80925-0.35027 1.5813-1.1367 1.7183z"
            fill="#59667f" />
        <path
            d="m48.202 79.293c0 2.2087 1.7906 3.9988 3.9993 3.9988 2.2087 0 3.9988-1.7901 3.9988-3.9988s-1.7901-3.9988-3.9988-3.9988c-2.2087 0-3.9993 1.7901-3.9993 3.9988"
            fill="#fff" />
        <path
            d="m49.373 79.293c0 1.5618 1.2661 2.8278 2.8278 2.8278s2.8278-1.2661 2.8278-2.8278-1.2661-2.8278-2.8278-2.8278-2.8278 1.2661-2.8278 2.8278"
            fill="#26354b" />
        <path
            d="m64.034 90.579-17.326 1.7426c-0.06786 0.0064-0.13522 0.0104-0.20358 0.01139l-37.662 0.49286 2.9492-2.9492h34.514l19.797-1.267c-0.1595 1.0367-0.9966 1.8614-2.07 1.9694"
            fill="#ffdc19" />
        <path d="m66.068 83.874 5.4962 2.1289v4.7066l-5.461-2.0987z" fill="#ffc776" />
        <path transform="matrix(.75 0 0 -.75 0 207.75)"
            d="m96.891 164.18-7.332 3.2793v2e-3l-9.0371 0.0469 8.3047 2.543-0.73438 2.5938 7.7168-3.6309z"
            fill="#7590ba" />
        <path
            d="m64.317 90.531 5.1777 2.1472-16.984 1.7525h-3.8844l-2.0135 0.07182-4.4035-1.1883-0.74052-0.9228 5.2396-0.07034z"
            fill="#ffe252" />
        <path
            d="m43.165 90.773 5.4605 2.0992 3.5431-0.0099 17.827-1.8515-5.5511-2.0695-15.712 1.5093z"
            fill="#ffe876" />
        <path
            d="m38.068 92.446c-0.83215-0.74101-2.0581-1.9704-2.0819-2.6406-0.02427-0.67166-0.0074-7.7038-2e-3 -9.6713h-10.961c-0.01833 4.2851-0.0317 10.352 0 10.731 0.01684 0.19466 0.57904 1.1858 0.92478 1.7649l-0.59043 0.0094s-0.78014-1.1809-0.82769-1.7322c-0.04755-0.5513 0-11.269 0-11.269h11.951s-0.02724 9.3845 0 10.149c0.04755 1.3275 2.5148 2.6446 2.5148 2.6446z"
            fill="#ffb941" />
        <path transform="matrix(.75 0 0 -.75 0 207.75)"
            d="m51.965 136.98-7.2793 2.7988h-38.262l-3.7871 4.2988 4.4883 4.4883 1.5898-4.3867 3.8184-2.0723h15.82l2.5098 11.373h2.9473l-2.9473-11.373h14.174l9.5605 11.365c0.17304 0.20605 0.4239 0.32798 0.69336 0.33789l2.2617 0.0801-11.281-12.373 6.0449-2.209 9.834 11.688 2.6836 0.0957z"
            fill="#fff" />
</g>
</g>
</svg>
