<?xml version="1.0" encoding="UTF-8"?>
<svg clip-rule="evenodd" fill-rule="evenodd" stroke-linejoin="round" stroke-miterlimit="2" version="1.1" viewBox="0 0 290 290" xml:space="preserve" xmlns="http://www.w3.org/2000/svg" xmlns:xlink="http://www.w3.org/1999/xlink">
    <g id="contribute" transform="matrix(1.3333,0,0,-1.3333,0,290)">
        
            <path d="m108.63 0.24393c-1.4112 0-2.7376 0.54962-3.7353 1.5473l-103.34 103.34c-0.99874 0.99769-1.5484 2.3241-1.5484 3.7353s0.54962 2.7376 1.5473 3.7364l103.34 103.34c0.9977 0.99769 2.3241 1.5473 3.7353 1.5473 1.4112 0 2.7376-0.54962 3.7353-1.5473l103.34-103.34c0.99874-0.99874 1.5484-2.3252 1.5484-3.7364 0-1.4102-0.54962-2.7366-1.5484-3.7353l-103.34-103.34c-0.99769-0.9977-2.3241-1.5473-3.7353-1.5473" fill="url(#_Linear1)" fill-rule="nonzero" stroke-width="1.0469"/>
            <path d="m68.815 111.76v15.856l4.6988 0.76726 3.8692 2.4295v10.23l4.4212 3.7082 4.146-3.3244v-11.764l5.2508 0.0618 2.487 5.181 1.6582 7.1608 7.593 1.0931-0.17925-15.697 5.4135 0.0444 0.162 7.5064 8.0145 0.21029-0.276-7.2229 2.7135-0.5594 1.2398 19.091 1.0215-18.915 3.0398-1.1014-0.276 21.945 3.0398-0.38381 8.0145-16.879-2.211-6.2658-4.422-1.4068 6.633-12.148-2.7638-3.7083-46.153-2.046-10.226 1.1507z" fill="#7b8ca7" stroke-width=".51016"/>
            <g id="BG">
                <clipPath id="_clip2">
                    <path d="m108.63 0.244c-1.411 0-2.738 0.55-3.735 1.547l-103.34 103.34c-0.998 0.998-1.548 2.324-1.548 3.736 0 1.411 0.55 2.738 1.547 3.736l103.35 103.34c0.997 0.998 2.324 1.547 3.735 1.547 1.412 0 2.739-0.549 3.736-1.547l103.34-103.34c0.998-0.999 1.548-2.325 1.548-3.736s-0.55-2.738-1.548-3.736l-103.34-103.34c-0.997-0.997-2.324-1.547-3.736-1.547" clip-rule="nonzero"/>
                </clipPath>
                <g clip-path="url(#_clip2)">
                    <rect transform="scale(1,-1)" x="34.446" y="-118.28" width="153.27" height="118.49" fill="url(#_Linear3)" stroke-width=".79434"/>
                    <path d="m127.26 187.79v-69.503l1.6305-2.0025 2.0078 0.10575 9.8482-10.852 0.048-3.1875 33.726-42.098 41.896 41.262 2.724 10.556-74.678 80.19z" fill="#bc896c" stroke-width=".75"/>
                    <path d="m196.8 136.06v-51.841l21.939 18.25 4.0005 7.2495-2.25 8.7502z" fill="#9a6f57" stroke-width=".75"/>
                    <path d="m130.72 116.46-0.375 21.663 10.333 0.75v-33.218z" fill="url(#linearGradient1260)" stroke-width=".75"/>
                    <path d="m157.61 99.045-1.188 68.628 32.734 2.376v-105.24z" fill="url(#_Linear5)" stroke-width="2.376"/>
                    <path d="m142.72 103.84-0.375 41.288 10.333 0.75v-52.844z" fill="url(#linearGradient1256)" stroke-width=".75"/>
                    <path d="m134.18 112.72v25.687l0.8805 0.222v-26.625z" fill="#4d4d4d" fill-opacity=".34" stroke-width=".75"/>
                    <path d="m129.15 135.62v-19.219l1.6875 0.0937v19.219z" fill="#967768" stroke-width=".75"/>
                    <path d="m84.566 187.79v-69.503l-13.579-16.623-76.045-0.49875 1.1518 10.233 80.002 78.585z" fill="#bc896c" stroke-width=".75116"/>
                    <path d="m71.973 189.98-0.98855-88.32-76.045-0.49875 1.1518 10.233z" fill="#9a6f57" stroke-width=".75116"/>
                    <path d="m59.826 153.85v-69.503l-13.579-16.623-76.045-0.49875 1.1518 10.233 80.002 78.585z" fill="#bc896c" stroke-width=".75116"/>
                    <path d="m47.233 156.04-0.98855-88.32-76.045-0.49875 1.1518 10.233z" fill="#9a6f57" stroke-width=".75116"/>
                    <path d="m119.45 118.28h-27.245l-5.0487-10.357-6.2341-11.091-24.727-0.17917-0.26061-8.2704 21.733 0.074746-43.223-88.666h153.27z" fill="url(#_Linear7)" stroke-width=".79434"/>
                    <path d="m117.79 118.28h-24.205l-10.67-23.833-37.352-0.1407 1.0935-5.8554 32.643 0.16818-42.09-88.875 147.93-2.5216z" fill="url(#_Linear8)" stroke-width=".79434"/>
                    <path d="m77.182 109.88v21.75l5.25 3.75v-19.5z" fill="#967768" stroke-width=".75"/>
                    <path d="m81.595 115.82 0.16528 14.799-4.554 0.45536v-20.168z" fill="url(#linearGradient1244)" stroke-width=".38797"/>
                    <path d="m28.945 80.565 1.4542 71.625-39.645 0.42811-0.64014-71.186z" fill="url(#_Linear10)" stroke-width="1.0056"/>
                    <path d="m76.001 109.36 0.12874 19.402-3.5473 0.3547v-23.585z" fill="url(#linearGradient1240)" stroke-width=".3022"/>
                    <path d="m84.26 118.33 0.15284 13.943-1.5784-1.7205-0.0754-13.903z" fill="url(#linearGradient1237)" stroke-width=".13268"/>
                    <path d="m80.245 114.08v16.726l-0.38807 0.13478v-17.247z" fill="#4d4d4d" fill-opacity=".34" stroke-width=".38797"/>
                    <path d="m-1.4362 113.91 102.56 109.69 5.25 0.75 12.375-2.625 68.438-75.375 34.254-35.25-0.1875-5.625-3.1875-6.1875-105.94-101.25-6.9375-0.1875-4.125 2.625-72.562 74.062-30.629 28.875-2.4375 7.875z" fill="url(#_Linear13)" stroke-width=".75"/>
                </g>
            </g>
            
            
            
                <clipPath id="_clip14">
                    <path d="m108.63 0.244c-1.411 0-2.738 0.55-3.735 1.547l-103.34 103.34c-0.998 0.998-1.548 2.324-1.548 3.736 0 1.411 0.55 2.738 1.547 3.736l103.35 103.34c0.997 0.998 2.324 1.547 3.735 1.547 1.412 0 2.739-0.549 3.736-1.547l103.34-103.34c0.998-0.999 1.548-2.325 1.548-3.736s-0.55-2.738-1.548-3.736l-103.34-103.34c-0.997-0.997-2.324-1.547-3.736-1.547" clip-rule="nonzero"/>
                </clipPath>
                <g stroke-width=".75"><path d="m70.78 127.74c-0.74175-0.0375-1.4895-0.057-2.2432-0.057-19.828 0-35.927 13.189-35.927 29.433s16.099 29.433 35.927 29.433c19.829 0 35.928-13.189 35.928-29.433 0-13.444-11.026-24.795-26.07-28.309-0.02625-2.004-0.27975-4.9418-1.4048-6.885-1.8488-3.1935-7.9005-3.3615-7.9005-3.3615s1.1768 0.672 2.0175 4.0342c0.43875 1.755 0.09825 3.693-0.327 5.145z" fill="#e6e6e6"/><path d="m70.78 127.74c-0.74175-0.0375-1.4895-0.057-2.2432-0.057-19.828 0-35.927 13.189-35.927 29.433s16.099 29.433 35.927 29.433c19.829 0 35.928-13.189 35.928-29.433 0-13.444-11.026-24.795-26.07-28.309-0.02625-2.004-0.27975-4.9418-1.4048-6.885-1.8488-3.1935-7.9005-3.3615-7.9005-3.3615s1.1768 0.672 2.0175 4.0342c0.43875 1.755 0.09825 3.693-0.327 5.145zm0.63825-7.755c0.5145 0.105 1.071 0.24675 1.6252 0.438 1.1738 0.40425 2.3648 1.0132 2.973 2.0632 1.0335 1.7858 1.2292 4.494 1.254 6.3352l0.8685 1.0808c14.498 3.387 25.201 14.257 25.201 27.214 0 15.691-15.65 28.308-34.803 28.308-19.153 0-34.802-12.617-34.802-28.308s15.65-28.308 34.802-28.308c0.73425 0 1.464 0.0188 2.187 0.0555l1.1362-0.80775c0.474-1.6178 0.82725-3.7785 0.33825-5.7338-0.2385-0.95325-0.50775-1.7212-0.78-2.337z" fill="#66abd0"/><path d="m67.33 165.87 0.12525 0.34575s-0.03675-0.1335-0.12525-0.34575l-2.769-7.626-6.9202-0.10725v-2.1922l-4.5375 4.6005 4.2735 4.3335 0.264 0.1605v-1.926l4.266 5e-3s2.088-0.066 3.1215 0.3705c1.3988 0.59025 2.0535 1.7902 2.3018 2.382zm-22.683 3.6262-1.7265 1.332 6.3592 0.87525 0.813-6.0728-0.0345-0.3105-1.5105 1.1662-2.0055-2.6775s-1.317-1.6448-1.5998-2.7428c-0.38325-1.4865 0.162-2.7412 0.4755-3.3l0.19575-0.3105s-0.08325 0.111-0.19575 0.3105l-4.3088 6.8528zm1.953-6.7515s-1.0208-1.0942-1.176-2.1848 0.2775-2.634 0.2775-2.634l6.3945-0.1935-0.1335 5.0362zm16.106 1.0635s1.4775-0.1605 2.4278 0.375c0.9495 0.53475 1.8998 1.8188 1.8998 1.8188l-3.219 4.0658-3.7065-2.793zm-1.8352 11.244 1.8525 1.1438-1.5158-6.3225-5.8732 1.4475-0.27225 0.1455 1.6215 1.0012-1.7272 2.8695s-1.0305 1.8428-1.9358 2.5102c-1.2248 0.90375-2.5762 0.84675-3.204 0.7545l-0.357-0.0712s0.132 0.0375 0.357 0.0712l7.8645 1.5682zm-6.9128 0.618s-0.63375 1.3628-1.578 1.9072c-0.945 0.54375-2.52 0.699-2.52 0.699l-2.6108-3.9975 4.239-2.5688z" fill="#619445"/><path id="Hail" d="m79.628 157.64h-1.0178v-20.42h1.0178zm-5.367-4.9462h0.17925v-0.021c0.58875-0.0825 1.3935-0.30975 1.7962-0.93 0.60975-0.93825 0.72075-1.9095 0.73725-2.1008h0.0098v-3.822c0-0.41775-0.339-0.756-0.76275-0.756-0.4215 0-0.7635 0.34425-0.7635 0.756v3.822h0.01275c-0.02475 0.069-0.1995 0.51375-0.52875 0.51375h-0.501v-11.708c0-0.56025-0.4515-1.0148-1.0178-1.0148-0.5655 0-1.017 0.4545-1.017 1.0148v6.6158h-0.5093v-6.6158c0-0.56025-0.4515-1.0148-1.017-1.0148s-1.0178 0.4545-1.0178 1.0148v11.708h-0.501c-0.32925 0-0.504-0.44475-0.52875-0.51375h0.01275v-3.822c0-0.41175-0.342-0.756-0.76275-0.756-0.4245 0-0.7635 0.33825-0.7635 0.756v3.822h0.0097c0.0165 0.19125 0.12825 1.1625 0.73725 2.1008 0.40275 0.62025 1.2075 0.8475 1.7962 0.93v0.021h0.17925c0.312 0.0315 0.52875 0.0233 0.52875 0.0233v-0.0233h3.1635v0.0233s0.216 8e-3 0.528-0.0233zm13.735 0h0.1785v-0.021c0.5895-0.0825 1.3942-0.30975 1.797-0.93 0.609-0.93825 0.72075-1.9095 0.73725-2.1008h0.0097v-3.822c0-0.41775-0.339-0.756-0.7635-0.756-0.4215 0-0.76275 0.34425-0.76275 0.756v3.822h0.01275c-0.02475 0.069-0.1995 0.51375-0.52875 0.51375h-0.50175l1.4752-7.5622-1.4752-0.099v-4.0462c0-0.56025-0.4515-1.0148-1.017-1.0148s-1.0178 0.4545-1.0178 1.0148v3.8175l-0.5085 0.153v-3.9705c0-0.56025-0.4515-1.0148-1.017-1.0148-0.56625 0-1.0178 0.4545-1.0178 1.0148v4.0012l-1.5765 0.0517 1.5765 7.6545h-0.501c-0.33 0-0.504-0.44475-0.5295-0.51375h0.0135v-3.822c0-0.41175-0.342-0.756-0.7635-0.756-0.42375 0-0.76275 0.33825-0.76275 0.756v3.822h0.0098c0.0165 0.19125 0.1275 1.1625 0.7365 2.1008 0.4035 0.62025 1.2082 0.8475 1.797 0.93v0.021h0.17925c0.31125 0.0315 0.528 0.0233 0.528 0.0233v-0.0233h3.1635v0.0233s0.21675 8e-3 0.52875-0.0233zm-15.998 0.50925c1.1242 0 2.0348 0.9105 2.0348 2.0348 0 1.1235-0.9105 2.0348-2.0348 2.0348-1.1235 0-2.0348-0.91125-2.0348-2.0348 0-1.1242 0.91125-2.0348 2.0348-2.0348zm13.735 0c1.1235 0 2.0348 0.9105 2.0348 2.0348 0 1.1235-0.91125 2.0348-2.0348 2.0348-1.1242 0-2.0348-0.91125-2.0348-2.0348 0-1.1242 0.9105-2.0348 2.0348-2.0348z" fill="#da832e"/></g><g><path d="m129.52 135.65c-18.722 0.80026-33.622 13.505-33.622 29.039 0 16.05 15.905 29.079 35.495 29.079 19.591 0 35.496-13.029 35.496-29.079 0-14.426-12.852-26.413-29.678-28.689 0.26749-1.1559 0.72023-2.383 1.4857-3.3774 2.0873-2.7135 3.4181-2.858 3.4181-2.858s-5.547-2.2355-8.482-0.0726c-1.8791 1.3856-3.3196 4.1495-4.1124 5.9582z" fill="#e6e6e6" stroke-width=".74098"/><path d="m129.52 135.65c-18.722 0.80026-33.622 13.505-33.622 29.039 0 16.05 15.905 29.079 35.495 29.079 19.591 0 35.496-13.029 35.496-29.079 0-14.426-12.852-26.413-29.678-28.689 0.26749-1.1559 0.72023-2.383 1.4857-3.3774 2.0873-2.7135 3.4181-2.858 3.4181-2.858s-5.547-2.2355-8.482-0.0726c-1.8791 1.3856-3.3196 4.1495-4.1124 5.9582zm9.895-5.507c-0.48608 0.44903-1.0262 1.0337-1.6109 1.7932-0.86398 1.1233-1.3878 2.5045-1.6894 3.8101l0.94549 1.3686c16.225 2.1948 28.704 13.664 28.704 27.574 0 15.496-15.456 27.954-34.371 27.954-18.914 0-34.37-12.458-34.37-27.954 0-14.992 14.477-27.143 32.545-27.915l0.98254-0.67207c0.72912-1.6642 2.0206-4.2303 3.7494-5.504 0.96179-0.70986 2.2778-0.78989 3.4974-0.69356 0.56685 0.0445 1.1174 0.13338 1.6176 0.2386z" fill="#66abd0" stroke-width=".74098"/><path d="m125.16 166.15h-14.884v-18.542h1.8622l-4e-3 7.9958h10.988l0.0615-7.9958h1.9772zm11.699-17.707-1.7842 0.3045 0.0308-1.128h1.7842zm-6.69 5.6392-1.1138 1.2795-0.6705 0.2445v-7.9868h1.7842zm-14.619 0.3105h4.3598v0.945h1.1272v-7.7122h-1.1272v0.87675h-4.3598v-0.87675h-1.1272v7.7122h1.1272zm9.969 1.7798-0.0157 2.664c1.6215 0.252 4.0808-0.0457 5.8418-1.4048 1.5128-1.167 2.028-2.9715 2.619-4.1032 0.591-1.1325 2.3378-1.8315 3.2258-1.7002l-0.0165-2.7765c-0.576-0.078-1.2555-0.0353-2.0385 0.1275-0.78225 0.1635-1.464 0.48525-2.0445 0.96675-0.32925 0.273-0.6165 0.58125-0.86175 0.92325-0.2445 0.342-0.579 0.94875-1.002 1.8202-0.6345 1.3012-1.242 2.1922-1.8218 2.6738-0.92325 0.76575-2.2185 1.035-3.8858 0.80925zm-9.969-5.289v-1.2532h4.3598v1.2532zm0 2.3812v-1.2532h4.3598v1.2532zm-2.013 3.3855c0.0757 3e-3 3.9698 0.0585 4.1805 0.0585 0.3975 0 4.4655-0.117 4.2082 0.16125-0.066 0.072-0.0833 2.085-0.0833 3.9638 0 2.277-1.848 4.125-4.125 4.125s-4.0605-1.8495-4.125-4.125c-0.0607-2.1442-0.0172-4.1662-0.0555-4.1835zm7.4978 14.541c-3.5722 4.0508-3.36 3.7958-6.9322-0.17025l-3.9975-4.2968c0.081-0.14625 8.7255 0 15.098 0z" fill="#c95e38" stroke-width=".75"/><path d="m134.21 180.48c0.0285 0.594 0.0525 1.0852 0.0525 1.4295 0 2.652 2.1525 4.8045 4.8045 4.8045 2.6512 0 4.8038-2.1525 4.8038-4.8045 0-0.34425 0.0165-0.8355 0.0315-1.4295h2.787l2.25-14.188h-19.438l2.25 14.188zm8.6955 0c-0.0112 0.4485-0.0232 0.82125-0.0232 1.0845 0 2.0962-1.7018 3.798-3.798 3.798s-3.798-1.7018-3.798-3.798c0-0.26325-0.018-0.636-0.0397-1.0845z" fill="#457894" stroke-width=".75"/><circle transform="scale(1,-1)" cx="147.27" cy="-168.46" r="6.7023" fill="#e6e6e6" stroke-width=".47034"/><path d="m147.26 175.36c3.829 0 6.9375-3.1085 6.9375-6.9375 0-3.8286-3.1085-6.9375-6.9375-6.9375s-6.9375 3.1089-6.9375 6.9375c0 3.829 3.1085 6.9375 6.9375 6.9375zm0-1.6067c2.942 0 5.3304-2.3888 5.3304-5.3308s-2.3884-5.3304-5.3304-5.3304-5.3304 2.3884-5.3304 5.3304 2.3884 5.3308 5.3304 5.3308z" fill="#457894" stroke-width=".47034"/><path d="m147.83 164.41h-0.62703v-1.0448h0.62703zm0 4.1814h1.9861v-0.83629h-2.8741v4.3375h0.88804zm-4.5467-0.10425h-1.0973v-0.67953h1.0973zm9.0417 0.20851h-1.0456v-0.78378h1.0456zm-4.6517 4.8602h-0.73128v-1.0973h0.73128z" fill="#457894" stroke-width=".75004"/></g><g clip-path="url(#_clip14)">
                    <g transform="matrix(1.4032 -.20099 .20228 1.4122 -281.29 -44.484)">
                        <path d="m287.06 116.26-5.227-3.8926-4.1011 0.5897-2.7491 4.6127 1.9329 3.545 7.0786-0.12733 9.8426 5.7321-0.75404 3.8622-1.017 8.9255-3.9391 6.7927 3.1345 6.8524 7.6854 2.975 2.9477-4.4519 1.1483-29.732z" fill="#a85c31" fill-rule="nonzero"/>
                        <path d="m304.1 135.39-11.649 0.75463-0.38267 3.3622-3.9391 6.7927 3.1345 6.8524 7.6854 2.975 2.9477-4.4519z" fill="#3e180b" fill-rule="nonzero"/>
                        <path d="m293.26 156.14-0.88869 6.5731s-5.005-3.0392-6.0931-1.438c-1.8214 2.6763 0.0328 2.7565-0.90529 2.8394-0.2222 0.0203-0.65272 0.262-0.50563 0.4908 1.1764 1.8294-0.90987 1.2991-0.93631 1.9908-0.0385 0.97449-0.50545 1.2654-0.50545 1.2654l-2.8201 0.54609 1.7089 1.9454 1.3466 2.5037s-0.92405 3.4402 0.66308 5.9776c1.5894 2.5377 10.411 8.288 14.615 2.3196s4.5667-4.2073 3.2997-8.4813c-1.2661-4.2744-2.8599-7.2972-2.8599-7.2972l1.0654-4.9883z" fill="#ea972f" fill-rule="nonzero"/>
                        <path d="m288.21 182.09c-1.5467-0.96468-2.749-2.071-3.2451-2.8639-1.5877-2.5377-0.66317-5.9775-0.66317-5.9775l-1.3473-2.5035-1.7083-1.9457 2.82-0.54607s0.46685-0.29097 0.50462-1.2649c0.027-0.69185 2.1131-0.16181 0.93699-1.9914-0.14664-0.22852 0.28383-0.47102 0.50576-0.49042 0.93771-0.0832-0.91599-0.16382 0.90432-2.84 1.0891-1.6007 6.0941 1.4382 6.0941 1.4382l0.88819-6.573 6.5277 3.8589-7.1841-4.2476-0.88879 6.5734s-5.005-3.0389-6.0936-1.4381c-1.8208 2.6755 0.0335 2.7562-0.90424 2.8394-0.22253 0.0198-0.65248 0.26243-0.50583 0.49094 1.1761 1.8296-0.90988 1.2991-0.93692 1.9909-0.0379 0.97443-0.50463 1.2649-0.50463 1.2649l-2.8206 0.546 1.7088 1.9458 1.3467 2.5039s-0.92452 3.4398 0.66317 5.9775c0.56435 0.90135 2.0418 2.2088 3.9021 3.2521z" fill="#a85c31" fill-rule="nonzero" stroke-width=".52738"/>
                        <ellipse transform="matrix(.99532 .096591 .097822 -.9952 0 0)" cx="301.41" cy="-144.3" rx=".6664" ry=".66224" stroke-width=".58998"/>
                        <path d="m288.87 114.72 3.2327-17.38s21.637 21.217 17.271 22.12c-6.8107 1.4098-16.058 1.417-20.503-4.7396" fill="#6c6d6f" fill-rule="nonzero" stroke-width=".99966"/>
                        <path d="m293.11 104.3s4.5818 2.4344 5.4599 4.6387c0.87806 2.2043 2.0086 0.58292 2.0086 0.58292s-3.4089-5.3864-6.2754-6.24c-2.8665-0.85353-1.1931 1.0184-1.1931 1.0184z" fill="#3e4043" stroke-width=".58998"/>
                        <path d="m318.4 115.53c-14.125 29.279-5.6002 29.011-10.385 37.027-5.782 9.6882-13.39 9.2585-13.39 9.2585l-3.4491-5.1327-6.543-18.52s4.0068-11.885 4.5419-14.211c0.81517-3.5331-1.8086-12.726 0.14625-12.99 5.2437-0.70772 31.083 0.41351 29.079 4.5677z" fill="#758e1d" fill-rule="nonzero"/>
                        <path d="m289.62 110.93c-0.10424 0.0112-0.20218 0.0233-0.29429 0.0357-1.9541 0.26358 0.66951 9.4559-0.14505 12.989-0.53622 2.3257-4.5429 14.211-4.5429 14.211l6.543 18.52 3.4492 5.1335s7.6079 0.42902 13.39-9.2589c4.7841-8.0164-3.7398-7.7484 10.385-37.027 1.6904-3.5029-16.416-4.8494-25.281-4.761 8.0201 0.13134 24.806 1.8921 23.348 5.1913-12.1 27.386-4.3325 27.359-8.482 34.833-5.015 9.0324-11.966 8.4229-11.966 8.4229l-3.284-4.9597-6.4631-17.736s3.3365-11.162 3.7635-13.353c0.62049-3.1847-1.7676-11.363-0.42149-12.241z" fill="#3f4f06" fill-rule="nonzero" stroke-width=".52738"/>
                        <path d="m251.84 144.97c6.512-1.6746 12.304-4.4036 14.109-6.2777l14.468-5.7325 3.2418 5.0306 4.6006 9.4023 2.101 7.6027 7.0704 2.6035 7.4748-3.3772-1.1211-5.2439-14.665-18.857c-0.57431-0.77696-3.282-4.1692-5.653-6.5581-0.91811-0.92391-5.1082 0.91368-5.4787 0.85977l-14.443 9.6679-2.316-1.4126-4.9371 0.75607-1.4645 3.7348 1.5371 3.723-4.97 2.3751z" fill="#ea972f" fill-rule="nonzero"/>
                        <path d="m303.93 154.67 0.97248-0.4394-1.1207-5.2434-14.665-18.857c-0.57428-0.77689-3.2825-4.1692-5.6532-6.5582-0.91751-0.92452-5.1081 0.91294-5.4783 0.85973l-14.442 9.6678-2.3169-1.4131-4.9369 0.75621-0.57226 1.4597 4.7604-0.72929 2.3169 1.4131 14.442-9.6678c0.3702 0.0532 4.5608-1.7842 5.4783-0.85972 2.3708 2.3889 5.079 5.7812 5.6532 6.5582l14.665 18.857z" fill="#a85c31" fill-rule="nonzero" stroke-width=".52738"/>
                        <path d="m251.59 144.04 4.1752-2.1856 0.59817-1.188 0.39545-2.1502 0.18097-3.6238 3.9828-2.1494-4.3051 0.83036-1.711 2.3877 0.46451 5.0731-3.8032 2.09z" fill="#a85c31" stroke-width=".58998"/>
                        <path d="m298.44 161.11s-3.81 2.5993-7.8921-1.9944c-4.0841-4.5931-7.3257-18.305-7.3257-18.305l13.71-8.5293s10.704 14.652 7.6479 22.479" fill="#758e1d" fill-rule="nonzero"/>
                        <path d="m293.33 134.11s9.0816 9.9177 8.7371 15.046c-0.0106 0.15607-0.2068-5.2342-2.4042-11.685-2.5198-7.3976-6.3328-3.3604-6.3328-3.3604z" fill="#3f4f06" stroke-width=".38118"/>
                        <path d="m284.53 166.16 2.7155 1.0264s1.7178 0.74637 1.2426-0.0573c-0.4753-0.80306-3.4024-2.0846-3.4024-2.0846l-0.15707 0.55733z" stroke-width=".58998"/>
                        <path d="m284.56 175.47s3.3238-0.0702 3.5438 0.1664c0.22062 0.23534-3.4406 2.499-3.5438-0.1664" fill="#582f19" fill-rule="nonzero"/>
                        <path d="m286.02 162.89c5.7033 1.2132 5.978 9.2108 5.978 9.2108s-0.27965 1.9066-0.29245 3.1262c-7e-3 0.70048 0.99546 1.7593 1.2195 2.215 0.22392 0.4562 1.5892 2.0307 1.5892 2.0307s-0.42711 3.4745-2.17 3.2663c-1.7422-0.20866-7.4146-3.1227-7.4146-3.1227s1.3064 7.1179 2.3615 6.7392c1.0551-0.37877-1.2548-1.6661 11.342-1.9722 2.5166-0.0614 5.4872-1.1367 6.1807-3.3519 0.69226-2.2143 0.75168-5.0624 1.4214-6.6458 1.3376-3.1654-6.2967-9.9546-6.2967-9.9546-1.6121 1.2135-4.355 4.8576-4.355 4.8576s2.2055 0.59163 2.2974 1.8336c0.093 1.2421 0.17021 1.8522-0.98121 2.1944-1.1521 0.3432-3.368-1.7188-3.368-1.7188s1.118-4.6338 0.34722-7.3659c-0.89145-3.1593-8.365-3.8156-8.365-3.8156s0.30979 0.93575-3e-3 2.0161c-0.26364 0.90937-0.65576 1.631 0.17856 1.6977 0.18975 0.0148 0.20757-0.22006 0.19465-0.49009l0.15697 0.0345 0.2385-0.72388 4e-3 5.2e-4c0.0778 0.0201 0.15486 0.0417 0.2323 0.0644 0.0779 0.0233 0.15553 0.0482 0.23297 0.0746l6e-3 2e-3 -0.50977 0.6035 0.20085 0.1194 0.49228-0.65644c0.14042 0.0529 0.27897 0.1114 0.41468 0.17479l3e-3 1e-3 -0.67188 0.34144 0.13753 0.18792 0.73746-0.42929zm-0.14709 0.57174c-3e-3 -0.0429-6e-3 -0.0854-9e-3 -0.12766-2e-3 -0.0311-3e-3 -0.0621-4e-3 -0.0935-8.9e-4 -0.0235-1e-3 -0.0469-1e-3 -0.0708 1e-5 -0.0186 9e-5 -0.0377 1e-3 -0.0561 6.8e-4 -0.0158 2e-3 -0.0311 4e-3 -0.0468 1e-3 -0.0115 3e-3 -0.023 5e-3 -0.0349 1e-3 -9e-3 3e-3 -0.0181 5e-3 -0.0268 2e-3 -7e-3 3e-3 -0.0139 5e-3 -0.0205 2e-3 -5e-3 3e-3 -0.01 5e-3 -0.0147 0.0105-0.0282 0.0268-0.0562 0.0536-0.0715 5e-3 -3e-3 0.01-5e-3 0.0149-7e-3 0.0174-6e-3 0.0357-7e-3 0.0535-4e-3 8e-3 1e-3 0.0151 3e-3 0.0229 4e-3 6e-3 8.2e-4 0.0109 2e-3 0.0166 3e-3 0.0166 3e-3 0.0331 7e-3 0.0498 0.0108l2e-3 7.4e-4 -0.22289 0.56361zm4.1635 4.2755 0.32825-0.83114 0.18893 6e-3 -0.2887 0.87553zm-6.3714-0.77509-0.0485 0.89272 1.4492 0.60667 0.74701 0.0495 0.81105-0.53566-0.24982 0.57252 1.3101-0.70521-1.9859-0.61348-0.94796-0.51304c-0.16114-0.27253-0.89636-0.43718-0.89636-0.43718zm5.8823 1.0427 0.32833-0.83166 0.18892 6e-3 -0.28877 0.87605zm-0.66725 0.34635 0.51644-0.85002 0.27512-3e-3 -0.46116 0.89294zm-1.0987 0.20263 0.92208-0.70891 0.38404 0.061-0.85468 0.76418zm-0.86116 0.0862 0.92268-0.70936 0.38344 0.0615-0.85468 0.76418z" fill="#582f19" fill-rule="nonzero" stroke-width=".52738"/>
                        
                    </g>
                    
                <g transform="matrix(.74994 0 0 .74994 -.0064828 .020435)"><path d="m39.876 84.551 18.207 5.1057 2.8039 6.6421 5.1871 15.621 9.586 10.7-2.9935 13.464-12.568 8.221-6.9346-6.873z" fill="#a85c31" fill-rule="nonzero"/><path d="m73.888 138.18-0.6496 12.136s11.004-2.397 11.17 1.139c0.2343 4.99-0.7763 3.508 0.8727 3.975 0.391 0.111 0.8401 1.483 0.4041 1.721-1.8381 1.008 1.5191 1.759 1.3315 3.014-0.2642 1.766 0.4723 2.448 0.4723 2.448s3.0984 2.283 2.8764 2.369c-4.2781 1.648-5.0854 4.822-5.0854 4.822s2.5514 7.368-1.1532 11.4c-3.7062 4.031-23.432 12.261-28.92 0.093-5.4864-12.17-6.7362-9.121-3.0138-16.389 3.722-7.267 7.6023-12.171 7.6023-12.171l-0.2072-9.341z" fill="#ea972f" fill-rule="nonzero"/><path d="m89.38 165.42c0.3063-0.154 0.6341-0.299 0.9853-0.434 0.222-0.086-2.8764-2.369-2.8764-2.369s-0.7365-0.682-0.4723-2.448c0.1876-1.255-3.1696-2.006-1.3315-3.014 0.436-0.238-0.0131-1.61-0.4041-1.721-1.649-0.467-0.6384 1.015-0.8727-3.975-0.1661-3.536-11.17-1.139-11.17-1.139l0.6496-12.136-14.3 5.216 0.0096 0.433 13.522-4.933-0.6496 12.137s11.004-2.397 11.17 1.139c0.2343 4.99-0.7763 3.508 0.8727 3.975 0.391 0.11 0.8401 1.482 0.4041 1.721-1.8381 1.007 1.5191 1.759 1.3315 3.014-0.2642 1.766 0.4723 2.448 0.4723 2.448s1.9765 1.456 2.6591 2.086zm-6.0054 16.487c0.2959-0.243 0.5482-0.477 0.7521-0.699 3.7046-4.032 1.1532-11.4 1.1532-11.4s0.3068-1.207 1.5447-2.518c-1.8846 1.552-2.3127 3.234-2.3127 3.234s2.5443 7.348-1.1373 11.383z" fill="#8b3200" fill-rule="nonzero"/><path d="m81.311 171.74c-0.6672-0.06-1.1603-0.65-1.1003-1.318 0.0599-0.667 0.6503-1.16 1.3176-1.1s1.1603 0.65 1.1004 1.318c-0.06 0.667-0.6504 1.16-1.3177 1.1z" fill-rule="evenodd"/><path d="m51.884 86.846s49.28-68.967 45.224-44.916c-1.0881 6.4527-1.7063 12.881-1.5239 18.808 0.1533 4.981-6.5173 24.103-8.7296 27.371-10.232 15.116-34.97-1.2638-34.97-1.2638z" fill="#6e3f22" fill-rule="evenodd"/><path d="m50.884 83.846s40.414-44.087 42.393-43.157c2.7506 1.2924 1.1691 12.575 1.3068 17.049 0.1533 4.981-6.5173 24.103-8.7296 27.371-10.232 15.116-34.97-1.2638-34.97-1.2638z" fill="#cf9774" fill-rule="evenodd"/><path d="m89.317 52.729c0.6466-12.501-19.452 9.0362-20.529 16.795-1.0777 7.7591-4.6878 18.967-4.6878 18.967l4.7416 0.1616s6.0349-29.043 7.3281-16.542c1.2932 12.501 0.2155 12.716 0.2155 12.716l2.3709-0.2156s3.7337-33.292 4.3106-24.985c1.0776 15.518-1.5087 25.002-1.5087 25.002s1.5087 2.5864 4.095-4.7417c2.5864-7.328 3.0175-14.656 3.6641-27.157zm-36.06 33.468 1.8846-3.0293 5.0867-4.3802 0.8791 5.316 1.7351 5.4192z" fill="#a6785a" fill-rule="evenodd"/><path d="m51.923 86.834c1.3197 1.5771-3.5949 2.0015-3.0081 3.4771 3.551 8.9284-0.6572 18.178 1.1081 35.884 2.0477 20.539 18.026 16.741 18.026 16.741l11.235-4.152 15.23-15.551s3.5583-9.436-4.4016-15.327c-2.0741-1.535-2.2255-13.143-0.4047-18.418 2.8668-8.3056-37.965-2.8701-37.784-2.6544z" fill="#3fa9e1" fill-rule="nonzero"/><path d="m50.933 88.491c1.3582 0.1777 3.0547 0.5043 2.6985-0.5574-0.1855-0.5529 1.3541-1.2258 3.8784-1.8723-3.3996 0.3821-5.6298 0.7221-5.5873 0.7729 0.606 0.7242-0.1026 1.2053-0.9896 1.6568zm22.444 52.522 5.9054-2.229 15.23-15.551s3.5583-9.436-4.4016-15.327c-2.0741-1.535-2.2255-13.143-0.4047-18.418 0.4329-1.2542-0.1306-2.195-1.3986-2.8874 0.0671 0.329 0.0376 0.691-0.0992 1.0874-1.6938 4.9072-0.9815 18.42 0.9479 19.848 7.4048 5.48 4.0946 14.258 4.0946 14.258l-14.597 15.752zm-8.7573 2.192c-4.8223-1.871-11.557-6.625-12.756-18.656-1.62-16.249 0.7776-27.066-2.3289-35.329-0.4859 0.3096-0.7942 0.6543-0.6205 1.0911 3.551 8.9284-0.6572 18.178 1.1081 35.884 1.4412 14.455 9.7825 16.856 14.598 17.01z" fill="#324747" fill-rule="nonzero"/><path d="m104.75 144.28s0.254-3.709 0.478-8.464c0.175-3.725 0.084-2.581-0.799-3.95-0.347-0.538-1.047-0.553-2.038 0.518-1.361 1.47-1.279 3.732-2.9119 4.056-1.258 0.251 0.4162-7.293 1.1279-7.97 0.91-0.865 1.21-2.464 2.256-4.27 0.349-0.604 3.036-0.313 2.328-1.402l-6.2843-20.922-15.265 23.153-3.1162 9.565-6.8904-1.298-19.945-2.504 3.7912-9.061 29.426-26.294c1.2917-1.2049 13.57-12.2 13.964-12.05 5.737 2.1913 7.66 7.9529 8.341 12.293l2.833 27.549 1.885 2.754 5.145 8.495-0.893 4.774-1.599-0.542 0.553-2.897-1.111-0.964-3.756 11.285-3.631 1.39-2.105-1.324z" fill="#ea972f" fill-rule="nonzero"/><path d="m109.54 101.01-0.333-5.3329c-0.681-4.3397-2.604-10.101-8.341-12.293-0.394-0.1502-12.672 10.845-13.964 12.05l-29.426 26.294-3.7912 9.061 0.2425 0.031 2.5487-6.092 29.426-26.294c1.2917-1.2049 13.57-12.2 13.964-12.05 5.7373 2.1913 8.9933 10.286 9.6743 14.626zm-26.86 26.949-0.0446 0.068-2.1374 6.561 0.0212 4e-3z" fill="#a85c31" fill-rule="nonzero"/><path d="m63.536 143.24s10.152-0.235 17.494-8.733c0.2481-0.287-5.456 0.142-11.913-8.386-6.4574-8.527-3.4349-13.531-3.4349-13.531s-27.446 10.273-8.9326 23.402" fill="#3fa9e1" fill-rule="nonzero"/><path d="m110.15 145.28 3.368-9.969-7.274 0.539-0.579-6.077-5.7432 0.046 3.6282-6.362 7.004-0.808 1.347-3.502 2.29 7.004 4.176 6.87 0.943 1.886-0.539 2.694 0.243-3.286-1.859 0.188-4.445 11.316-2.156 1.212-1.347 0.135-1.347-0.943 0.943-1.213 0.404-7.409-0.194 1.948 1.755 3.761z" fill="#a85c31" fill-rule="evenodd"/><path d="m89.195 93.637s-17.47 15.053-24.123 22.247c-0.1947 0.211 3.6344-10.028 11.649-18.34 9.9335-10.302 12.474-3.9067 12.474-3.9067z" fill="#226766" fill-rule="evenodd"/><path d="m86.068 159.19s-2.194-1.578-4.3461 0.068c-1.3566 1.037 0.698-2.714 3.7319-2.264 0.5648 0.084 0.0915 1.057 0.0915 1.057z" fill-rule="evenodd"/><path d="m83.44 175.25s-4.0528 3.193-5.2142-1.162c-0.152-0.57 1.8227 2.725 5.2942-0.281" fill="#8d5a2a" fill-rule="nonzero"/><path d="m39.899 141.35c7.5917 16.057 4.3447 33.492 4.8292 37.713 0.4856 4.223 5.3677 7.553 9.9157 8.127 6.1315 0.773 14.56 8.844 19.349 7.254 19.462-6.46 14.198-16.049 14.198-16.049s-13.565-1.522-16.753-1.736c-3.1887-0.215-7.7538 3.083-7.7538 3.083s2.9795-2.373 3.5352-3.119c0.5554-0.744 4.1272-6.746 4.2826-8.02 1.5596-12.791 0.7541-21.232-0.5551-26.603-0.2164-0.888-1.484 8.929-1.4903 7.282-0.0194-5.073 0.1573-11.53-0.1618-12.244-1.0809-2.415-2.0327-3.34-2.0327-3.34s-1.6545-5.046-5.9039-8.395c-0.4382-0.345-2.7962 8.496-3.74 8.172-0.3726-0.128 2.4515-6.28 1.7483-9.488-1.2854-5.864-13.574-2.781-25.991 8.113 0 0 2.9628 1.718 6.5239 9.25z" fill="#9f7b24" fill-rule="nonzero"/><path d="m63.684 179.75s1.5434-0.072 3.5352-3.119c1.9919-3.046 4.4205-6.903 4.4205-11.046s1.1428-7.715 0.8571-11c-0.2857-3.286-1.2857-12.572-1.2857-12.572l-1.7143 8v-12l-1.1429-2.714-0.8571-1.286s-0.1429-0.571-1-2.285c-0.8571-1.715-3.2857-4.572-3.2857-4.572s2.5714 7.572 2.1428 11.429l-0.4436-5.084 2.0151 1.941 1 3 1.2857 14.286 2.5096-5.911s0.7761 3.911-0.6525 11.625c-1.4285 7.714-3.2857 14.428-3.2857 14.428l-5.5714 8.429 4.5714-1.286 3.1429-2 3.2857-0.143 2.4286 2.286 0.8571-1.571 2.2857-0.429 3.5714 1.429 0.7143-1.286-3.128 0.32-4.7291-1.749-2.8572-0.285-2.7142 0.285z" fill="#734e1a" fill-rule="evenodd"/><path d="m39.899 141.35c7.5917 16.057 5.6918 31.606 6.1763 35.827 0.4856 4.223 5.3317 10.025 9.9157 10.013 12.867-0.035 13.502 4.832 18.54 5.099 5.1831 0.275 13.66-13.894 13.66-13.894l-3.6208 0.199-3.7646 6.853-0.3306-6.628-6.6219 10.409-0.3072-10.028-11.209 4.045s-8.1876 2.11-11.636-2.42c-2.9722-3.903-1.2465-14.402-1.572-15.887-0.4617-2.106 4.1631-35.452 2.8038-27.852-4.1881 23.415-2.4888-2.699-2.7298-4.182-0.9381-5.773-2.7003-9.802-6.155-7.815-3.0788 1.77-6.3711 4.114-9.6724 7.011 0 0 2.9628 1.718 6.5239 9.25z" fill="#eab83e" fill-rule="nonzero"/><path d="m39.899 141.35c7.5917 16.057 4.3447 33.492 4.8292 37.713 0.4856 4.223 5.3677 7.553 9.9157 8.127 6.1315 0.773 14.56 8.844 19.349 7.254 19.462-6.46 14.198-16.049 14.198-16.049-4.0532 15.106-13.121 19.308-26.946 9.274-1.481-1.075-11.059-1.407-13.167-5.959-3.2235-6.961-0.9913-13.757-2.7893-26.426-2.7723-19.536-9.1027-20.03-10.67-22.125-0.2453-0.328 7.8269-8.05 14.332-10.874 2.3559-1.023 10.602 2.555 10.415 1.702-1.2854-5.864-13.574-2.781-25.991 8.113 0 0 2.9628 1.718 6.5239 9.25z" fill="#734e1a"/></g></g>
            
        
        
        
        
        
        
        <path d="m183.7 140.23c-0.61777 2.3704-0.12649 6.4055-0.6499 9.6723-0.52466 3.2674-4.4747 5.3824-7.9948 5.9748-17.614 2.9641-14.111 4.3177-15.516 5.0653-1.4036 0.74694-4.6756-9.043-4.6756-9.043s8.5487 2.9761 11.036 2.9207c2.4874-0.0573 2.3842-5.05 2.3842-5.05s-2.2342-1.9494-2.6416-2.5484c-0.40543-0.59833-2.0273-1.8916-2.1576-2.8834-0.22954-1.7241-0.22237-4.4738-0.22237-4.4738s-2.003-11.239-10.252-11.808c-0.57051-0.0388 0.42245 1.7797-0.21274 1.8189-1.1849 0.0733-0.77934-1.0244-0.5947-2.3616 0.22031-1.5887-0.4037-2.8477-0.4037-2.8477s10.62-0.57502 12.51 3.7074c1.6343 3.7031 1.0024 10.473 1.0024 10.473s3.5269 2.4665 5.0733 1.7502c1.5471-0.71508 1.3144-1.5604 0.93305-3.2958-0.38014-1.736-3.5953-2.1281-3.5953-2.1281s3.1135-5.6982 5.1291-7.7351c0 0 12.087 8.0535 10.848 12.792z" fill="#582f19" fill-rule="nonzero" stroke-width="1.4221"/>
    </g>
    <defs>
        <linearGradient id="_Linear1" x2="1" gradientTransform="matrix(-.99997 40.249 40.249 .99997 105.38 115.8)" gradientUnits="userSpaceOnUse"><stop stop-color="#bfddff" offset="0"/><stop stop-color="#97c0ff" offset="1"/></linearGradient>
        <linearGradient id="_Linear3" x2="1" y2=".020828" gradientTransform="matrix(-.42306 103.69 -54.151 -.81009 102 -119.18)" gradientUnits="userSpaceOnUse"><stop stop-color="#b5b5b5" offset="0"/><stop stop-color="#595959" offset="1"/></linearGradient>
        <linearGradient id="_Linear4" x2="1" gradientTransform="matrix(8.7768 56 -201.89 31.641 169.47 98.333)" gradientUnits="userSpaceOnUse"><stop stop-color="#aab0c6" offset="0"/><stop stop-color="#ced3de" offset=".36"/><stop stop-color="#d9dee6" offset=".52"/><stop stop-color="#bec7d4" offset=".52"/><stop stop-color="#a6b2c4" offset=".52"/><stop stop-color="#9daabe" offset=".52"/><stop stop-color="#7b8ca7" offset="1"/></linearGradient>
        <linearGradient id="_Linear5" x2="1" gradientTransform="matrix(16.166 -102.12 -368.14 -58.281 150.81 154.57)" gradientUnits="userSpaceOnUse"><stop stop-color="#aab0c6" offset="0"/><stop stop-color="#ced3de" offset=".36"/><stop stop-color="#d9dee6" offset=".52"/><stop stop-color="#bec7d4" offset=".52"/><stop stop-color="#a6b2c4" offset=".52"/><stop stop-color="#9daabe" offset=".52"/><stop stop-color="#7b8ca7" offset="1"/></linearGradient>
        
        <linearGradient id="_Linear7" x2="1" y2=".020828" gradientTransform="matrix(-.42306 -103.69 -54.151 .81009 102 119.18)" gradientUnits="userSpaceOnUse"><stop stop-color="#4f4741" stop-opacity=".31" offset="0"/><stop stop-color="#a47a52" offset="1"/></linearGradient>
        <linearGradient id="_Linear8" x2="1" y2=".020828" gradientTransform="matrix(-.42306 -103.69 -54.151 .81009 102 119.18)" gradientUnits="userSpaceOnUse"><stop stop-color="#d3bfb1" stop-opacity=".95" offset="0"/><stop stop-color="#a47a52" offset="1"/></linearGradient>
        <linearGradient id="_Linear9" x2="1" y2="-.037291" gradientTransform="matrix(8.7768 56 -201.89 31.641 169.47 98.333)" gradientUnits="userSpaceOnUse"><stop stop-color="#aab0c6" offset="0"/><stop stop-color="#ced3de" offset=".36"/><stop stop-color="#d9dee6" offset=".52"/><stop stop-color="#bec7d4" offset=".52"/><stop stop-color="#a6b2c4" offset=".52"/><stop stop-color="#9daabe" offset=".52"/><stop stop-color="#7b8ca7" offset="1"/></linearGradient>
        <linearGradient id="_Linear10" x2="1" y2=".01587" gradientTransform="matrix(-2.909 -49.405 222.32 2.7895 34.398 126.39)" gradientUnits="userSpaceOnUse"><stop stop-color="#aab0c6" offset="0"/><stop stop-color="#ced3de" offset=".36"/><stop stop-color="#d9dee6" offset=".52"/><stop stop-color="#bec7d4" offset=".52"/><stop stop-color="#a6b2c4" offset=".52"/><stop stop-color="#9daabe" offset=".52"/><stop stop-color="#7b8ca7" offset="1"/></linearGradient>
        
        
        <linearGradient id="_Linear13" x2="1" gradientTransform="matrix(0 155.88 155.88 0 117.13 42.472)" gradientUnits="userSpaceOnUse"><stop stop-color="#fff" stop-opacity="0" offset="0"/><stop stop-color="#a6b1c2" stop-opacity=".69" offset="1"/></linearGradient>
        
        
    
                
            
                
            
                        
                    
                        
                    
                        
                    <linearGradient id="linearGradient1237" x2="1" y2="-.037291" gradientTransform="matrix(-.99222 -8.7209 22.824 -4.9275 84.881 131.57)" gradientUnits="userSpaceOnUse" xlink:href="#_Linear9"/>
                        
                    <linearGradient id="linearGradient1240" x2="1" y2="-.037291" gradientTransform="matrix(-2.2599 -19.863 51.983 -11.223 77.245 131.42)" gradientUnits="userSpaceOnUse" xlink:href="#_Linear9"/>
                        
                    
                        
                    <linearGradient id="linearGradient1244" x2="1" y2="-.037291" gradientTransform="matrix(-2.9012 -25.5 66.735 -14.408 83.192 134.03)" gradientUnits="userSpaceOnUse" xlink:href="#_Linear9"/>
                        
                    
                        
                    
                        
                    
                        
                    
                        
                    
                        
                    
                        
                    
                        
                    
                        
                    
                        
                    <linearGradient id="linearGradient1256" x2="1" gradientTransform="matrix(6.5826 -42 -151.42 -23.731 139.1 131.13)" gradientUnits="userSpaceOnUse" xlink:href="#_Linear4"/>
                        
                    
                        
                    <linearGradient id="linearGradient1260" x2="1" gradientTransform="matrix(6.5826 -42 -151.42 -23.731 127.1 143.75)" gradientUnits="userSpaceOnUse" xlink:href="#_Linear4"/>
                        
                    
                        
                    
                        
                    
                            
                        
                            
                        
                            
                        
                            
                        
                            
                        
                            
                        
                            
                        
                            
                        
                            
                        
                            
                        
                            
                        
                            
                        
                            
                        
                            
                        
                            
                        
                            
                        
                            
                        
                            
                        
                            
                        
                            
                        
                            
                        
                            
                        
                            
                        
                            
                        
                            
                        
                            
                        
                            
                        
                            
                        
                            
                        
                            
                        
                            
                        
                            
                        
                            
                        
                            
                        
                            
                        
                            
                        
                            
                        
            
        
                
            
            
        
                
            
            
        
                
            
                
            
            
        
                
            
                
            
                
            
            
            
            
        
            
        
                
                
            
                
                
            </defs>
</svg>
