<?xml version="1.0" encoding="UTF-8"?>
<svg clip-rule="evenodd" fill-rule="evenodd" stroke-linecap="round" stroke-linejoin="round"
    version="1.1" viewBox="0 0 290 290" xml:space="preserve" xmlns="http://www.w3.org/2000/svg"><path d="m145 289.02c-1.871 0-3.63-0.729-4.953-2.051l-137.01-137.01c-1.323-1.322-2.051-3.081-2.051-4.952 0-1.87 0.728-3.63 2.051-4.953l137.01-137.01c1.323-1.323 3.082-2.051 4.953-2.051s3.63 0.728 4.953 2.051l137.01 137.01c1.323 1.324 2.051 3.083 2.051 4.953s-0.728 3.629-2.051 4.952l-137.01 137.01c-1.323 1.322-3.082 2.051-4.953 2.051z" fill="url(#_Linear1)"/>
    <path
        d="m152.4 5.367-117.81 176.02 31.356 31.355 117.81-176.02zm45.414 45.414-117.82 176.02 14.059 14.058 117.81-176.02z"
        fill="#59667f" fill-opacity=".2" />
    <g><path d="m170.2 106.94-26.904-17.416-27.777 15.984 8.249-30.968-23.786-21.479 32.002-1.724 13.078-29.259 11.529 29.903 31.867 3.396-24.876 20.205z" fill="#fbe22d"/>
        <path
            d="m145.06 22.076 0.111 47.303 11.418-17.399zm0.111 47.303 18.41 6.201 24.877-20.205zm0 0-1.875 20.144 26.902 17.416zm0 0-21.404 5.16-8.248 30.969zm0 0-13.188-18.043-32.002 1.725z"
            fill="#f4c004" /></g>
    <g><path d="m52.324 111.03c-1.156-1.081-2.949-1.149-4.183-0.159-0.148-0.586-0.46-1.119-0.9-1.535-0.592-0.56-1.377-0.872-2.193-0.872-1.102 0-2.13 0.571-2.712 1.507 0 0-0.925 1.541-1.694 4.165-0.77 2.624-1.562 6.595-1.782 12.264-3e-3 0.05-4e-3 0.1-4e-3 0.149 0 1.754 1.443 3.197 3.196 3.197 0.725 0 1.429-0.247 1.996-0.699 0.276 1.023 1.044 1.844 2.046 2.188-0.084 0.167-0.184 0.347-0.264 0.512-0.212 0.435-0.321 0.912-0.321 1.396 0 1.753 1.443 3.196 3.196 3.196 1.224 0 2.345-0.703 2.877-1.804 2.104-4.331 7.747-12.053 7.747-12.053 0.946-1.237 0.856-2.995-0.212-4.129-0.604-0.651-1.453-1.021-2.341-1.021-1.031 0-2 0.5-2.6 1.339 0 0-1.584 2.147-3.476 4.958 0.314-2.671 0.747-4.653 1.147-6.017 0.607-2.07 0.953-2.506 0.953-2.506 0.847-1.289 0.645-3.017-0.476-4.076z" fill="#5e74ac"/>
        <path
            d="m41.03 108.77c-1.468-1.386-3.839-1.079-4.906 0.635 0 0-0.924 1.541-1.694 4.165-1.829 7.926-2.647 16.8-1.288 25.71 0.789 4.936 0.883 11.308 7.835 25.446s21.084 31.931 48.668 47.857c1.813 1.099 4.07 1.427 6.123 0.9 2.054-0.528 5.559-3.581 6.618-5.418s1.349-4.099 0.776-6.141c-0.573-2.041-1.987-3.852-3.847-4.87-25.199-14.549-36.188-29.221-41.733-40.498s-6.694-13.819-6.229-18.899c0.62-6.767 1.369-10.912-2.206-14.488l-4.588-4.588c-1.432-1.432-2.903-2.019-4.305-2.046 0.101-0.411 0.201-0.847 0.3-1.183 0.607-2.07 0.952-2.506 0.952-2.506 0.851-1.294 0.65-3.012-0.476-4.076z"
            fill="#7693dc" />
        <path
            d="m39.207 124.33c-2.301 0-4.074 0.788-5.322 2.363-0.629 0.79-1.099 1.751-1.41 2.879-0.027 3.055 0.164 6.154 0.613 9.26 0.229 0.46 0.494 0.883 0.797 1.266 1.248 1.567 3.021 2.351 5.322 2.351 2.293 0 4.065-0.784 5.313-2.351 1.247-1.576 1.871-3.808 1.871-6.702 0-2.901-0.624-5.135-1.871-6.703-1.248-1.575-3.02-2.363-5.313-2.363zm11.584 1.041-0.564 0.117v3.065l1.482-0.305c-0.158-1.028-0.446-1.979-0.918-2.877zm-11.584 2.035c0.967 0 1.655 0.449 2.061 1.346 0.413 0.889 0.619 2.426 0.619 4.609 0 2.207-0.206 3.762-0.619 4.666-0.414 0.905-1.102 1.358-2.061 1.358-0.967 0-1.657-0.453-2.07-1.358-0.414-0.904-0.619-2.459-0.619-4.666 0-2.183 0.205-3.72 0.619-4.609 0.413-0.897 1.103-1.346 2.07-1.346zm11.125 11.592v3.113h1.162c-0.192-1.043-0.243-2.048-0.211-3.113zm5.533 15.277c-2.3 0-4.074 0.788-5.322 2.364-1.248 1.567-1.871 3.802-1.871 6.703 0 2.893 0.623 5.128 1.871 6.703 1.248 1.567 3.022 2.351 5.322 2.351 2.293 0 4.063-0.784 5.311-2.351 0.901-1.138 1.474-2.625 1.724-4.451-2.204-3.19-3.931-6.221-5.318-9.041-0.406-0.826-0.74-1.514-1.1-2.25-0.202-0.014-0.405-0.028-0.617-0.028zm-18.236 0.317-0.945 0.195c1.028 2.827 2.399 6.085 4.293 9.936 0.291 0.593 0.616 1.201 0.933 1.806v-11.937zm18.236 2.761c0.967 0 1.653 0.447 2.059 1.344 0.413 0.889 0.621 2.426 0.621 4.61 0 2.207-0.208 3.763-0.621 4.668-0.414 0.904-1.1 1.357-2.059 1.357-0.967 0-1.657-0.453-2.07-1.357-0.413-0.905-0.619-2.461-0.619-4.668 0-2.184 0.206-3.721 0.619-4.61 0.413-0.897 1.103-1.344 2.07-1.344zm-12.633 11.592c0.582 1.024 1.2 2.06 1.858 3.112h0.797v-3.112zm23.758 2.024v1.088h0.924c-0.312-0.364-0.625-0.728-0.924-1.088zm-11.125 13.254c-0.559 0-1.087 0.049-1.584 0.142 2.582 2.952 5.498 5.946 8.768 8.951v-0.027c0-2.901-0.625-5.136-1.873-6.703-1.248-1.575-3.018-2.363-5.311-2.363zm15.078 0.316-4.058 0.842v3.064l4.082-0.842v12.133l4.26-4v-11.197z"
            fill="#fff" fill-opacity=".11" /></g>
    <g><path d="m261.92 75.13c1.156-1.081 2.949-1.149 4.183-0.158 0.148-0.587 0.46-1.119 0.899-1.536 1.25-1.179 3.238-1.15 4.453 0.064 0.172 0.173 0.324 0.365 0.453 0.572 0 0 0.925 1.54 1.694 4.164 0.77 2.624 1.562 6.596 1.782 12.264 0.043 0.899-0.296 1.774-0.932 2.41-1.146 1.146-2.99 1.248-4.256 0.237-0.276 1.023-1.044 1.844-2.047 2.188 0.085 0.168 0.185 0.348 0.265 0.512 0.593 1.222 0.345 2.694-0.616 3.655-1.24 1.24-3.28 1.24-4.52 0-0.253-0.253-0.461-0.546-0.616-0.867-2.104-4.331-7.747-12.052-7.747-12.052-0.946-1.238-0.856-2.995 0.212-4.129 0.026-0.029 0.054-0.058 0.082-0.086 1.239-1.239 3.278-1.239 4.517 0 0.125 0.125 0.239 0.26 0.342 0.403 0 0 1.584 2.147 3.476 4.959-0.314-2.671-0.747-4.654-1.147-6.018-0.607-2.069-0.953-2.505-0.953-2.505-0.847-1.29-0.645-3.017 0.476-4.077z" fill="#5e74ac"/>
        <path
            d="m273.21 72.872c1.249-1.18 3.237-1.151 4.452 0.064 0.172 0.172 0.325 0.364 0.454 0.571 0 0 0.924 1.541 1.694 4.164 0.66 2.253 1.323 5.51 1.641 9.971 9e-3 0.135 0.044 0.267 0.053 0.405 0.013 0.142 0.034 0.288 0.035 0.424 1e-3 0.176-1e-3 0.287 0 0.459 0.018 0.335 0.039 0.657 0.053 1.006 9e-3 0.212-3e-3 0.425-0.035 0.635-6e-3 0.018-0.012 0.035-0.018 0.053 0.032 6.793-0.036 10.221-0.441 12.758-0.789 4.935-0.883 11.308-7.835 25.446s-21.084 31.931-48.668 47.856c-1.813 1.1-4.07 1.427-6.123 0.9-2.054-0.527-5.559-3.58-6.618-5.417s-1.349-4.1-0.776-6.141c0.572-2.042 1.987-3.852 3.847-4.871 25.199-14.548 36.188-29.22 41.733-40.497 5.545-11.278 6.694-13.819 6.229-18.9-0.62-6.767-1.37-10.912 2.206-14.487l4.588-4.588c1.432-1.433 2.903-2.02 4.305-2.047-0.101-0.41-0.201-0.846-0.3-1.182-0.607-2.07-0.953-2.506-0.953-2.506-0.846-1.289-0.644-3.017 0.477-4.076z"
            fill="#7693dc" />
        <path
            d="m279.93 77.841c-1.645 0.26-2.966 1.006-3.953 2.251-1.248 1.568-1.871 3.803-1.871 6.704 0 2.893 0.623 5.125 1.871 6.701 1.247 1.567 3.021 2.351 5.322 2.351 0.11 0 0.213-0.01 0.32-0.013 9e-3 -0.915 0.011-1.988 0.01-3.092-0.11 0.014-0.212 0.041-0.33 0.041-0.967 0-1.657-0.453-2.07-1.358-0.414-0.904-0.621-2.459-0.621-4.666 0-2.183 0.207-3.72 0.621-4.609 0.313-0.68 0.786-1.099 1.418-1.264-0.229-1.151-0.469-2.189-0.717-3.046zm-12.586 7.328-2.16 2.16c-1.019 1.019-1.678 2.087-2.098 3.246v1.822h-0.463c-0.149 0.96-0.18 1.997-0.148 3.113h8.845v-3.113h-3.976zm-2.703 22.505c-0.814 0-1.558 0.104-2.241 0.301-0.746 2.543-2.236 5.765-4.804 11.008 0.249 1.831 0.819 3.321 1.722 4.461 1.248 1.568 3.022 2.352 5.323 2.352 2.292 0 4.062-0.784 5.31-2.352 1.248-1.575 1.873-3.81 1.873-6.703 0-2.901-0.625-5.136-1.873-6.703-1.248-1.576-3.018-2.364-5.31-2.364zm15.078 0.317-4.059 0.842v3.066l4.082-0.844v0.93c0.345-1.474 0.597-2.8 0.785-3.994zm-15.078 2.762c0.967 0 1.653 0.447 2.058 1.343 0.414 0.889 0.621 2.426 0.621 4.61 0 2.207-0.207 3.763-0.621 4.668-0.413 0.904-1.099 1.357-2.058 1.357-0.967 0-1.657-0.453-2.071-1.357-0.413-0.905-0.619-2.461-0.619-4.668 0-2.184 0.206-3.721 0.619-4.61 0.414-0.896 1.104-1.343 2.071-1.343zm11.125 11.591v1.321c0.195-0.452 0.377-0.887 0.556-1.321zm-21.104 2.278c-0.158 0.277-0.319 0.554-0.484 0.834h0.484zm9.979 13c-2.301 0-4.075 0.788-5.323 2.363-1.247 1.568-1.871 3.802-1.871 6.703 0 0.665 0.038 1.29 0.104 1.885h2.459c0.669-0.764 1.325-1.525 1.951-2.283 0.023-1.98 0.221-3.411 0.609-4.246 0.414-0.897 1.104-1.346 2.071-1.346 0.522 0 0.956 0.142 1.314 0.404 0.675-0.937 1.317-1.865 1.93-2.785-0.932-0.457-2.009-0.695-3.244-0.695zm-18.237 0.316-1.853 0.385c-0.705 0.77-1.439 1.544-2.205 2.324v1.197l4.082-0.841v7.57h4.258v-10.635z"
            fill="#fff" fill-opacity=".06" /></g>
    <g><path d="m186.81 125.99c-54.71 0.057-103.31 34.939-120.88 86.754l24.992 25.102 79.908 28.232 104.37-104.37c-23.754-22.864-55.427-35.661-88.397-35.715z" fill="url(#_Linear2)"/>
        <path
            d="m113.41 182.89c-2.301 0-4.075 0.788-5.322 2.363-1.248 1.567-1.871 3.802-1.871 6.703 0 2.893 0.623 5.126 1.871 6.701 1.247 1.568 3.021 2.352 5.322 2.352 2.293 0 4.063-0.784 5.31-2.352 1.248-1.575 1.872-3.808 1.872-6.701 0-2.901-0.624-5.136-1.872-6.703-1.247-1.575-3.017-2.363-5.31-2.363zm33.314 0c-2.3 0-4.074 0.788-5.322 2.363-1.248 1.567-1.871 3.802-1.871 6.703 0 2.893 0.623 5.126 1.871 6.701 1.248 1.568 3.022 2.352 5.322 2.352 2.293 0 4.065-0.784 5.313-2.352 1.248-1.575 1.871-3.808 1.871-6.701 0-2.901-0.623-5.136-1.871-6.703-1.248-1.575-3.02-2.363-5.313-2.363zm33.317 0c-2.301 0-4.075 0.788-5.322 2.363-1.248 1.567-1.872 3.802-1.872 6.703 0 2.893 0.624 5.126 1.872 6.701 1.247 1.568 3.021 2.352 5.322 2.352 2.293 0 4.063-0.784 5.31-2.352 1.248-1.575 1.871-3.808 1.871-6.701 0-2.901-0.623-5.136-1.871-6.703-1.247-1.575-3.017-2.363-5.31-2.363zm33.316 0c-2.3 0-4.076 0.788-5.324 2.363-1.248 1.567-1.871 3.802-1.871 6.703 0 2.893 0.623 5.126 1.871 6.701 1.248 1.568 3.024 2.352 5.324 2.352 2.293 0 4.063-0.784 5.311-2.352 1.248-1.575 1.871-3.808 1.871-6.701 0-2.901-0.623-5.136-1.871-6.703-1.248-1.575-3.018-2.363-5.311-2.363zm-132.74 0.023c-2.676 4.05-5.12 8.248-7.318 12.576 0.309 1.249 0.797 2.31 1.476 3.168 1.248 1.568 3.022 2.352 5.323 2.352 2.292 0 4.064-0.784 5.312-2.352 1.248-1.575 1.871-3.808 1.871-6.701 0-2.901-0.623-5.136-1.871-6.703-1.151-1.453-2.753-2.227-4.793-2.34zm14.561 0.293-4.061 0.842v3.064l4.084-0.842v11.288h-3.978v3.113h12.212v-3.113h-3.976v-14.352zm33.314 0-4.059 0.842v3.064l4.082-0.842v11.288h-3.976v3.113h12.213v-3.113h-3.979v-14.352zm33.316 0-4.06 0.842v3.064l4.084-0.842v11.288h-3.979v3.113h12.213v-3.113h-3.976v-14.352zm33.315 0-4.059 0.842v3.064l4.082-0.842v11.288h-3.976v3.113h12.213v-3.113h-3.979v-14.352zm-115.02 2.76c0.967 0 1.655 0.449 2.06 1.345 0.413 0.889 0.619 2.426 0.619 4.61 0 2.207-0.206 3.761-0.619 4.666-0.413 0.904-1.101 1.357-2.06 1.357-0.968 0-1.657-0.453-2.071-1.357-0.413-0.905-0.619-2.459-0.619-4.666 0-2.184 0.206-3.721 0.619-4.61 0.414-0.896 1.103-1.345 2.071-1.345zm33.316 0c0.967 0 1.653 0.449 2.059 1.345 0.413 0.889 0.621 2.426 0.621 4.61 0 2.207-0.208 3.761-0.621 4.666-0.414 0.904-1.1 1.357-2.059 1.357-0.967 0-1.657-0.453-2.07-1.357-0.414-0.905-0.621-2.459-0.621-4.666 0-2.184 0.207-3.721 0.621-4.61 0.413-0.896 1.103-1.345 2.07-1.345zm33.314 0c0.967 0 1.655 0.449 2.061 1.345 0.413 0.889 0.619 2.426 0.619 4.61 0 2.207-0.206 3.761-0.619 4.666-0.413 0.904-1.101 1.357-2.061 1.357-0.967 0-1.657-0.453-2.07-1.357-0.413-0.905-0.619-2.459-0.619-4.666 0-2.184 0.206-3.721 0.619-4.61 0.413-0.896 1.103-1.345 2.07-1.345zm33.317 0c0.967 0 1.653 0.449 2.058 1.345 0.414 0.889 0.621 2.426 0.621 4.61 0 2.207-0.207 3.761-0.621 4.666-0.413 0.904-1.099 1.357-2.058 1.357-0.967 0-1.657-0.453-2.071-1.357-0.413-0.905-0.621-2.459-0.621-4.666 0-2.184 0.208-3.721 0.621-4.61 0.414-0.896 1.104-1.345 2.071-1.345zm33.316 0c0.967 0 1.653 0.449 2.059 1.345 0.413 0.889 0.619 2.426 0.619 4.61 0 2.207-0.206 3.761-0.619 4.666-0.414 0.904-1.1 1.357-2.059 1.357-0.967 0-1.659-0.453-2.072-1.357-0.413-0.905-0.619-2.459-0.619-4.666 0-2.184 0.206-3.721 0.619-4.61 0.413-0.896 1.105-1.345 2.072-1.345zm-116.6 26.869c-2.301 0-4.075 0.788-5.323 2.363-1.247 1.568-1.871 3.802-1.871 6.703 0 2.894 0.624 5.128 1.871 6.703 1.248 1.568 3.022 2.352 5.323 2.352 2.292 0 4.062-0.784 5.31-2.352 1.248-1.575 1.873-3.809 1.873-6.703 0-2.901-0.625-5.135-1.873-6.703-1.248-1.575-3.018-2.363-5.31-2.363zm66.631 0c-2.301 0-4.075 0.788-5.323 2.363-1.247 1.568-1.871 3.802-1.871 6.703 0 2.894 0.624 5.128 1.871 6.703 1.248 1.568 3.022 2.352 5.323 2.352 2.292 0 4.062-0.784 5.31-2.352 1.248-1.575 1.873-3.809 1.873-6.703 0-2.901-0.625-5.135-1.873-6.703-1.248-1.575-3.018-2.363-5.31-2.363zm33.316 0c-2.301 0-4.075 0.788-5.322 2.363-1.248 1.568-1.873 3.802-1.873 6.703 0 2.894 0.625 5.128 1.873 6.703 1.247 1.568 3.021 2.352 5.322 2.352 2.293 0 4.063-0.784 5.311-2.352 1.247-1.575 1.871-3.809 1.871-6.703 0-2.901-0.624-5.135-1.871-6.703-1.248-1.575-3.018-2.363-5.311-2.363zm-118.18 0.316-4.058 0.842v3.066l4.082-0.843v9.062l5.338 5.338h2.896v-3.111h-3.976v-14.354zm33.315 0-4.059 0.842v3.066l4.082-0.843v11.289h-3.976v3.111h12.213v-3.111h-3.979v-14.354zm16.658 0-4.059 0.842v3.066l4.082-0.843v11.289h-3.976v3.111h12.213v-3.111h-3.979v-14.354zm16.658 0-4.058 0.842v3.066l4.082-0.843v11.289h-3.977v3.111h12.211v-3.111h-3.976v-14.354zm33.315 0-4.059 0.842v3.066l4.082-0.843v11.289h-3.976v3.111h12.212v-3.111h-3.976v-14.354zm33.316 0-4.058 0.842v3.066l4.082-0.843v8.925l4.257-4.257v-7.733zm-115.02 2.762c0.967 0 1.653 0.447 2.058 1.344 0.414 0.889 0.621 2.426 0.621 4.609 0 2.207-0.207 3.763-0.621 4.668-0.413 0.905-1.099 1.357-2.058 1.357-0.967 0-1.657-0.452-2.071-1.357-0.413-0.905-0.619-2.461-0.619-4.668 0-2.183 0.206-3.72 0.619-4.609 0.414-0.897 1.104-1.344 2.071-1.344zm66.631 0c0.967 0 1.653 0.447 2.058 1.344 0.414 0.889 0.621 2.426 0.621 4.609 0 2.207-0.207 3.763-0.621 4.668-0.413 0.905-1.099 1.357-2.058 1.357-0.967 0-1.657-0.452-2.071-1.357-0.413-0.905-0.619-2.461-0.619-4.668 0-2.183 0.206-3.72 0.619-4.609 0.414-0.897 1.104-1.344 2.071-1.344zm33.316 0c0.967 0 1.653 0.447 2.059 1.344 0.413 0.889 0.619 2.426 0.619 4.609 0 2.207-0.206 3.763-0.619 4.668-0.414 0.905-1.1 1.357-2.059 1.357-0.967 0-1.657-0.452-2.07-1.357-0.414-0.905-0.621-2.461-0.621-4.668 0-2.183 0.207-3.72 0.621-4.609 0.413-0.897 1.103-1.344 2.07-1.344zm11.125 11.592v1.613l1.613-1.613zm-44.441 15.277c-2.301 0-4.075 0.788-5.323 2.363-1.247 1.568-1.871 3.802-1.871 6.704 0 0.664 0.038 1.289 0.104 1.884h4.474c-0.043-0.58-0.074-1.202-0.074-1.92 0-2.183 0.206-3.72 0.619-4.609 0.414-0.897 1.104-1.346 2.071-1.346s1.653 0.449 2.058 1.346c0.414 0.889 0.621 2.426 0.621 4.609 0 0.718-0.03 1.341-0.074 1.92h4.475c0.066-0.595 0.103-1.22 0.103-1.884 0-2.902-0.625-5.136-1.873-6.704-1.248-1.575-3.018-2.363-5.31-2.363zm-18.237 0.317-4.058 0.841v3.065l4.082-0.842v7.57h4.258v-10.634zm33.315 0-4.059 0.841v3.065l4.082-0.842v12.133l4.26-4v-11.197z"
            fill="url(#_Linear3)" /></g>
    <g fill="#222" fill-opacity=".5"><path d="m160.22 170.14c-0.16573-1.3e-4 -0.33047 0.0256-0.48828 0.0762-5.3442 1.7074-10.163 1.4724-15.031 0.65234-1.3266-0.22325-2.3168 1.1948-1.6504 2.3633 0 0 0.97457 1.7184 2.5059 3.4512 1.5313 1.7327 3.6612 3.7246 6.5059 3.7246 2.9388 0 5.1254-2.1879 6.7773-4.0859s2.7539-3.7773 2.7539-3.7773c0.62552-1.0628-0.13988-2.403-1.373-2.4043z" clip-rule="nonzero" />
        <circle cx="163.42" cy="160.46" r="3.993" />
        <circle cx="142.66" cy="160.46" r="3.993" /></g>
    <g><path d="m187.96 128.04c-5.136 0.032-10.198 0.377-15.174 0.998v6.986l3.994 3.995h7.985zm28.143 3.867-0.026 0.125 6.215 7.188h3.992l2.397-3.196v-0.224c-1.028-0.377-2.056-0.747-3.096-1.098-0.033-0.011-0.067-0.014-0.1-0.025-1.004-0.339-2.004-0.658-3.019-0.973-0.9-0.279-1.812-0.565-2.721-0.824-0.149-0.043-0.3-0.081-0.449-0.123-0.862-0.243-1.724-0.475-2.594-0.699-0.198-0.051-0.401-0.101-0.599-0.151zm-71.866 4.117c-31.496 11.713-57.131 35.483-71.271 65.709v10.157l11.978 11.978v7.986h3.993l3.992 3.993v3.994l47.117 47.117c1.323 1.323 3.082 2.051 4.953 2.051s3.63-0.728 4.953-2.051l22.918-22.829-0.084-8.317-7.984-7.987h-15.973l-3.992-3.992v-3.994l-31.943-19.963h-7.987l-7.984 7.984h-7.986v-11.978l-3.993-3.992 3.993-3.993v-3.994h-11.979l7.986-15.97 11.979-3.993v11.979h3.992l3.992-3.994v-7.985l19.965-23.959h3.994l31.942-11.978v-7.984l-3.993-3.995zm69.27 3.995 4.791 6.388h5.59l-6.389-6.388zm26.752 0.697-1.897 3.295h-9.681l-4.618 7.986 4.618 7.984-7.987 0.25-3.543 3.745v3.992l6.912 3.992h8.61l6.912-11.979h5.066l7.987 6.389 1.072 3.994h2.92v-6.388l3.992 2.394 3.994 1.598h3.992l0.168 0.166 4.434-4.434c-3.052-3.067-6.252-6.088-10.191-8.883-0.124-0.09-0.258-0.185-0.375-0.275-0.015-0.011-0.035-0.014-0.049-0.025-0.573-0.441-1.142-0.891-1.723-1.323-0.042-0.031-0.082-0.068-0.125-0.099-0.048-0.036-0.102-0.062-0.148-0.1-0.019-0.015-0.035-0.033-0.051-0.051-0.019-0.014-0.031-0.035-0.049-0.049-0.585-0.431-1.181-0.856-1.773-1.273-0.016-0.011-0.035-0.015-0.049-0.025-0.607-0.427-1.207-0.851-1.823-1.272-0.659-0.451-1.327-0.885-1.996-1.324-1.336-0.878-2.698-1.741-4.068-2.57-0.685-0.415-1.377-0.821-2.07-1.223-0.694-0.402-1.394-0.805-2.098-1.197s-1.411-0.772-2.121-1.149c-0.71-0.376-1.403-0.734-2.121-1.097-0.701-0.355-1.413-0.707-2.121-1.049zm-31.543 3.295 2.396 3.992h3.992l-2.396-3.992zm15.971 31.943-3.993 3.992v7.987h-3.992l-7.986 15.97v3.994l3.992 3.993v8.734l1.816 1.762 42.272-42.272-4.158-4.16z" fill="#78a749" fill-opacity=".56"/>
        <path
            d="m185.96 126.05c-5.136 0.031-10.198 0.377-15.174 0.998v6.986l3.994 3.994h7.985zm32.143 3.867-0.026 0.125 6.215 7.188h3.992l2.397-3.196v-0.224c-1.028-0.377-2.056-0.747-3.096-1.098-0.033-0.011-0.067-0.014-0.1-0.025-1.004-0.34-2.004-0.658-3.019-0.973-0.9-0.279-1.812-0.565-2.721-0.824-0.149-0.043-0.3-0.081-0.449-0.123-0.862-0.243-1.724-0.475-2.594-0.7-0.198-0.051-0.401-0.1-0.599-0.15zm-75.866 4.117c-31.496 11.713-57.131 35.483-71.271 65.709v10.156l11.978 11.979v7.986h3.993l3.992 3.993v3.994l49.117 49.117c1.323 1.323 3.082 2.051 4.953 2.051s3.63-0.728 4.953-2.051l20.885-20.885-0.051-12.262-7.984-7.986h-15.973l-3.992-3.992v-3.994l-31.943-19.963h-7.987l-7.984 7.984h-7.986v-11.978l-3.993-3.993 3.993-3.992v-3.994h-11.979l7.986-15.971 11.979-3.992v11.979h3.992l3.992-3.994v-7.985l19.965-23.959h3.994l31.942-11.978v-7.985l-3.993-3.994zm73.27 3.994 4.791 6.389h5.59l-6.389-6.389zm26.752 0.698-1.897 3.295h-9.681l-4.618 7.986 4.618 7.984-7.987 0.25-3.543 3.744v3.993l6.912 3.992h8.61l6.912-11.979h5.066l7.987 6.389 1.072 3.994h2.92v-6.389l3.992 2.395 3.994 1.598h3.992l0.168 0.166 4.434-4.434c-3.052-3.067-6.252-6.088-10.191-8.883-0.124-0.09-0.258-0.185-0.375-0.275-0.015-0.011-0.035-0.014-0.049-0.026-0.573-0.441-1.142-0.89-1.723-1.322-0.042-0.032-0.082-0.068-0.125-0.099-0.048-0.036-0.102-0.062-0.148-0.1-0.019-0.015-0.035-0.033-0.051-0.051-0.019-0.014-0.031-0.035-0.049-0.049-0.585-0.431-1.181-0.857-1.773-1.273-0.016-0.011-0.035-0.015-0.049-0.025-0.607-0.427-1.207-0.851-1.823-1.272-0.659-0.451-1.327-0.885-1.996-1.324-1.336-0.878-2.698-1.742-4.068-2.57-0.685-0.415-1.377-0.821-2.07-1.223-0.694-0.402-1.394-0.805-2.098-1.197s-1.411-0.773-2.121-1.149-1.403-0.734-2.121-1.098c-0.701-0.354-1.413-0.706-2.121-1.048zm-31.543 3.295 2.396 3.992h3.992l-2.396-3.992zm15.971 31.943-3.993 3.992v7.986h-3.992l-7.986 15.971v3.994l3.992 3.992v8.735l1.816 1.762 42.272-42.272-4.158-4.16z"
            fill="#cbeea7" />
        <path
            d="m142.24 134.03c-4.694 1.745-9.261 3.777-13.676 6.039l10.282 5.94v7.486l19.964-7.486v-7.986l-3.993-3.993z"
            fill="#c5eaa2" />
        <path d="m114.89 148.18c-10.528 7.172-19.924 15.863-27.876 25.779h11.904l15.972-15.972z"
            fill="#c5eaa2" />
        <path
            d="m126.87 227.86v5.989l7.985 3.992v7.986l-16.957 18.981 22.152 22.152c1.323 1.323 3.082 2.051 4.953 2.051s3.63-0.728 4.953-2.051l13.152-13.152-0.302-27.981h-15.973l-3.992-3.992v-3.994z"
            fill="#c5eaa2" /></g>
    <path
        d="m231.02 133.99c6.093 22.739 5.072 49.012-0.998 72.905l45.186-45.186c-12.551-12.05-27.553-21.568-44.188-27.719z"
        fill="url(#_Linear4)" />
    <path
        d="m186.51 120.02c-56.076 0.064-106.24 35.918-124.46 88.951l42.814 42.815h80.352l93.74-93.74c-24.614-24.316-57.842-37.984-92.441-38.026z"
        fill="url(#_Radial5)" />
    <defs><linearGradient id="_Linear1" x2="1" gradientTransform="matrix(-1.2043 -126.47 126.47 -1.2043 146.72 185.97)" gradientUnits="userSpaceOnUse"><stop stop-color="#e3d0b1" offset="0"/><stop
        stop-color="#aab1e0" offset="1" /></linearGradient>
        <linearGradient id="_Linear2" x2="1"
            gradientTransform="matrix(-1.1749 96.994 -96.994 -1.1749 176.44 156.91)"
            gradientUnits="userSpaceOnUse"><stop stop-color="#b2dbea" offset="0"/>
            <stop stop-color="#7092ff" offset="1" /></linearGradient>
        <linearGradient id="_Linear3" x2="1"
            gradientTransform="matrix(-1.831 -180.52 180.52 -1.831 177.31 361.89)"
            gradientUnits="userSpaceOnUse"><stop stop-color="#fff" stop-opacity=".57" offset="0"/>
            <stop stop-color="#fff" stop-opacity="0" offset="1" /></linearGradient>
        <linearGradient id="_Linear4" x2="1"
            gradientTransform="matrix(.43555 121.5 -121.5 .43555 225.78 132.19)"
            gradientUnits="userSpaceOnUse"><stop stop-color="#222" stop-opacity=".25" offset="0"/>
            <stop stop-color="#222" stop-opacity="0" offset="1" /></linearGradient>
        <radialGradient id="_Radial5" cx="0" cy="0" r="1"
            gradientTransform="matrix(-.10222 -141.02 143.37 -.10392 185.22 251.79)"
            gradientUnits="userSpaceOnUse"><stop stop-color="#ccf1ff" stop-opacity="0" offset="0"/>
            <stop stop-color="#ccf1ff" stop-opacity="0" offset=".87" />
            <stop stop-color="#789afb" offset="1" /></radialGradient></defs></svg>
