<?xml version="1.0" encoding="UTF-8"?>
<svg version="1.1" viewBox="0 0 290 290" xml:space="preserve" xmlns="http://www.w3.org/2000/svg"><g transform="matrix(1.3333 0 0 -1.3333 0 290)"><path d="m108.75-3.8462e-7c-1.4126 0-2.7411 0.5503-3.74 1.5492l-103.46 103.46c-0.99937 0.99885-1.5497 2.3268-1.5497 3.7395s0.5503 2.7411 1.5492 3.74l103.46 103.46c0.99886 0.99885 2.3274 1.5492 3.74 1.5492 1.4131 0 2.7411-0.5503 3.74-1.5492l103.46-103.46c0.99937-0.99937 1.5497-2.3274 1.5497-3.74 0-1.4121-0.55031-2.7401-1.5497-3.7395l-103.46-103.46c-0.99887-0.99885-2.3269-1.5492-3.74-1.5492" fill="#5a8bfa"/><path
    d="m99.911 210.85-98.363-98.363c-0.99885-0.99884-1.5482-2.3285-1.5482-3.7412 0-1.4126 0.54932-2.7408 1.5482-3.7396l52.889-52.889h45.474zm23.316-5.6402v-153.09h39.834l38.253 38.255v36.748z"
    fill="#ffc341" /><path
    d="m2.068e-4 108.75c0-1.4126 0.5503-2.7406 1.5492-3.7395l52.889-52.889h37.116l-4.5255 31.96-51.725 7.0984v45.854l-8.2395 0.97134-25.515-25.515c-0.99885-0.99887-1.5492-2.3274-1.5492-3.74"
    fill="#e78933" /><path
    d="m77.712 188.65-3.6611-3.6596v-24.024l3.6611-0.82333zm-9.0228-9.0228-3.6596-3.6596v-12.979l3.6596-0.81718zm-9.0228-9.0212-3.6642-3.6658v-1.9283l3.6642-0.81871zm-3.6642-7.0945v-10.429l3.6642-0.70021v10.311zm110.81-1.8898v-6.385l2.7208-0.60635v4.2706zm-101.79-0.13388v-2.6916l3.6596-0.81872v2.6916zm108.49-6.5682v-1.185l1.5251-0.3401zm-6.7021-0.79716v-7.7439l2.7208-0.51863v7.6547zm6.7021-1.502v-1.9991l2.7178-0.60788v1.9991z"
    fill="#2e1f2e" /><path
    d="m106.8 217.13c-0.66296-0.26217-1.2732-0.65762-1.7929-1.1773l-0.4663-0.4663v-158.07h2.2592zm33.532-29.021v-130.69h1.5051v129.19zm-86.993-23.824-2.9209-2.9209v-105.22l2.9209-2.9209z"
    fill="#26354b" /><path
    d="m78.761 189.09 25.907-12.174 36.419-15.121 33.957-8.4025m-97.878 34.709s-2.3751-0.55601 4.9424-2.6383c7.3175-2.0823 24.342-13.226 24.342-13.226l34.637-7.1145 35.973-13.446"
    fill="none" stroke="#26354b" stroke-miterlimit="10" stroke-width=".51916" /><path
    d="m160.71 49.771-99.326-4.5983 4.9554-4.9538 86.043 1.225zm-89.715-14.209 34.014-34.012c0.99886-0.99886 2.327-1.5497 3.7396-1.5497 1.4131 0 2.7408 0.55085 3.7396 1.5497l34.014 34.012z"
    fill="#26354b" /><g transform="matrix(1.0506 0 0 1.0506 -157.72 -94.552)"><path d="m212.19 210.86v-3.9053h-1.6465l0.91552-16.014h2.7349l0.55958 13.178h0.66357l0.34277 2.3789-1.0063 0.45704h-1.4648v3.0205h5.1577l0.19776 0.88477z" fill="#26354b"/>
    <path
        d="m217.25 227.38c-0.52776 0-0.95654-0.42829-0.95654-0.95655v-10.534c0-0.52776 0.42878-0.95508 0.95654-0.95508h56.71l-11.341-35.152v-37.521l5.3774-3.542 26.695 0.86865c-1.6194 2.5449-2.2383 5.2413-2.2383 8.8491 0 8.0454 4.8603 14.566 10.856 14.566 5.9951 0 10.854-6.521 10.854-14.566l41.52 41.52c0.95126 0.95176 1.4751 2.2155 1.4751 3.5596 0 1.3451-0.52383 2.6093-1.4751 3.561l-14.455 14.454-63.253 15.848z"
        fill="#ff5159" />
    <path
        d="m280.78 215.57-54.606-0.39551-7.4443-0.24317-10.25-45.879v-23.18l57.593-1.0986v24.278l14.906-0.55078z"
        fill="#fff" />
    <path
        d="m210.64 172.11 9.0283 40.41c0.13244 0.59497 0.65081 1.0244 1.2601 1.0446l5.2722 0.17296 46.682-0.22731c0.85292-4e-3 1.4835-0.7956 1.2972-1.6278l-9.0154-40.356c-0.13638-0.61028-0.67848-1.0446-1.3041-1.0446h-51.916c-0.85539 0-1.4904 0.79313-1.3041 1.6278"
        fill="#5a8bfa" />
    <path
        d="m221.47 225.72c-1.0926 0-1.979-0.88641-1.979-1.979v-1.8706h-3.2022v-1.4341h3.2022v-1.8691c0-1.0926 0.88639-1.979 1.979-1.979h51.035c1.0931 0 1.9775 0.88639 1.9775 1.979v1.8691h3.4878v1.4341h-3.4878v1.8706c0 1.0926-0.88446 1.979-1.9775 1.979zm20.631-12.056c-0.76546 3e-3 -1.3872-0.6159-1.3872-1.3814v-35.063l11.347 2.3188-10.176-3.3647-4.3184-5.1196h-1.6113l2.8828 3.0498h-3.2153l-4.4268-1.4634 3.041 1.4634h-7.6699c-0.12651 0-0.25197-0.0167-0.37354-0.0513l-3.0557-0.85694c-1.5452-0.43386-1.2315-2.7114 0.37354-2.7114h40.307c0.64686 0 1.2068 0.44855 1.3477 1.0796l8.9956 40.267c0.19224 0.85983-0.45875 1.6772-1.3403 1.6816zm36.177-0.43067c-0.5131-0.036-0.95639-0.40399-1.0723-0.92285l-9.0483-40.5c-0.16163-0.72246 0.37204-1.4142 1.1118-1.4414l9.0483-0.33545c0.67058-0.0247 1.2275 0.51203 1.2275 1.1836v40.834c0 0.5999-0.44848 1.1056-1.0444 1.1763-0.0754 9e-3 -0.14937 0.0109-0.22266 6e-3zm3.6064-2.5386c-0.49503-0.0251-0.90528-0.43491-0.90528-0.95508v-38.918c0-0.51344 0.40456-0.93482 0.91699-0.95508l16.556-0.65772c0.54259-0.0217 0.99316 0.41199 0.99316 0.95508v36.656c0 0.46401-0.33345 0.85987-0.78955 0.94042l-16.554 2.9209c-0.0732 0.0129-0.14608 0.0168-0.21679 0.0132zm-51.299-1.0825v-12.995h4.7578v12.995zm70.721-2.3438c-0.49501-0.0251-0.90528-0.43491-0.90528-0.95508v-36.264c0-0.51343 0.40456-0.93481 0.917-0.95508l23.041-0.91552c0.54258-0.0217 0.99463 0.41102 0.99463 0.95361v33.117c0 0.46351-0.33441 0.86131-0.79101 0.9419l-23.039 4.0635c-0.0732 0.0129-0.14608 0.0168-0.2168 0.0132zm-75.847-2.7803v-25.441h3.8438v25.441zm101.75-1.7886c-0.49467-0.0251-0.90527-0.43492-0.90527-0.95507v-32.725c0-0.51347 0.40454-0.93482 0.917-0.95508l6.312-0.25195 12.171 12.173v18.674c0 0.46401-0.33294 0.85989-0.78955 0.94042l-17.489 3.085c-0.0731 0.0129-0.14612 0.0183-0.2168 0.0147zm20.357-3.5918c-0.49468-0.0251-0.90527-0.43488-0.90527-0.95508v-17.212l9.0132 9.0132c0.95126 0.95126 1.4751 2.2154 1.4751 3.5596 0 1.3446-0.52383 2.6083-1.4751 3.5596l-0.76318 0.76318-7.1279 1.2583c-0.0731 0.0129-0.14612 0.0168-0.21679 0.0132zm-139.09-30.056v-7.21h2.3584l2.8682 5.77h47.14l2.8667-5.77h2.3599v-4.3315l28.859 0.30616c-1.6689-2.737-2.5041-6.1775-2.4829-9.3823 0.0177-2.6897 0.3548-4.8728 1.1953-6.8643l-25.542-1.3506-0.1084 0.17725c-0.13934 0.22633-0.2124 0.4866-0.2124 0.75147v6.9463c0 0.79115-0.64194 1.4341-1.4341 1.4341 0 0-23.542-3.7983-30.807-3.7983-10.253 0-27.579 3.7983-27.579 3.7983-0.79166 0-1.4341-0.64292-1.4341-1.4341v-6.9463c0-0.26487 0.0736-0.52418 0.2124-0.75l1.3198-2.146c0.26091-0.42399 0.72357-0.68116 1.2217-0.68116h19.644c1.6189-2.4242 3.9548-3.9693 6.5654-4.0049v-3e-3h6.8101v0.0352c2.3844 0.23188 4.5042 1.7227 6.0059 3.9727h18.861c0.1673 0 0.32063 0.0338 0.46582 0.0835l1e-3 -4e-3 23.751 1.1543c1.465-1.4635 3.273-2.3434 5.2354-2.3701v-6e-3h6.1538c2.657-1e-3 4.7303 1.5648 6.3164 3.5039h3.0249c1.2843 2.3927 2.0435 5.3275 2.0435 8.5005 5e-3 3.1859-0.81099 6.7532-2.5107 9.5625l12.201 0.12891 8.4785 8.48-66.255 2.4478z"
        fill="#26354b" />
    <path
        d="m240.7 223.37v-4.3579h0.51563v4.3579zm3.4175 0v-1.6978c-0.10828 0.18668-0.24547 0.32494-0.41162 0.41455-0.16428 0.0915-0.36177 0.1377-0.59326 0.1377-0.37896 0-0.6883-0.15168-0.92725-0.45411-0.23709-0.30243-0.35595-0.69954-0.35595-1.1924s0.11886-0.89142 0.35595-1.1938c0.23895-0.30243 0.54829-0.45264 0.92725-0.45264 0.23149 0 0.42898 0.0437 0.59326 0.13331 0.16615 0.0915 0.30334 0.2308 0.41162 0.41748v-0.47021h0.51563v4.3579zm11.21 0c-0.40697 0-0.72227-0.10373-0.94629-0.30908-0.22215-0.20348-0.33252-0.49089-0.33252-0.86426v-3.1846h0.52295v3.1728c0 0.24456 0.0635 0.43076 0.19043 0.55958 0.12695 0.13067 0.31249 0.19628 0.55517 0.19628 0.21096 0 0.37671-0.0522 0.49806-0.15674 0.12321-0.10453 0.19161-0.25302 0.20654-0.44531-0.2819-0.0541-0.5009-0.16171-0.65772-0.32227-0.15494-0.16054-0.23291-0.3591-0.23291-0.59619 0-0.16987 0.0413-0.31836 0.12159-0.44531 0.0821-0.12507 0.21189-0.24288 0.39111-0.35302l0.25781-0.15381c0.18856-0.11574 0.31061-0.2131 0.36475-0.29151 0.056-0.0784 0.0835-0.17535 0.0835-0.29296 0-0.16988-0.0564-0.30005-0.16845-0.38966-0.11201-0.0877-0.27564-0.13183-0.49219-0.13183-0.12135 0-0.24726 0.0134-0.37793 0.0396-0.13068 0.028-0.27107 0.07-0.42041 0.12598v-0.45997c0.13628-0.0448 0.26856-0.0772 0.39551-0.0996 0.12693-0.0243 0.24966-0.0366 0.36914-0.0366 0.3939 0 0.69472 0.085 0.9038 0.25489 0.21096 0.17174 0.31641 0.41719 0.31641 0.73828 0 0.18668-0.0437 0.34646-0.1333 0.479s-0.28923 0.2987-0.59912 0.49658l-0.15967 0.10254c-0.12135 0.0784-0.20954 0.15531-0.26367 0.22998-0.0541 0.0765-0.082 0.15836-0.082 0.2461 0 0.17922 0.079 0.32279 0.23584 0.4292 0.15681 0.10827 0.37582 0.16964 0.65772 0.18457-6e-3 0.41817-0.11106 0.7356-0.31641 0.95215-0.20349 0.21655-0.4994 0.32519-0.8877 0.32519zm-27.923-0.10693c-0.60671 0-1.085-0.1975-1.4341-0.59326-0.34724-0.3939-0.52148-0.93672-0.52148-1.6274 0-0.67393 0.14848-1.1952 0.44531-1.563 0.29869-0.3659 0.71945-0.54786 1.2627-0.54786 0.49284 0 0.8861 0.13401 1.1792 0.40284 0.2931 0.27069 0.43945 0.63009 0.43945 1.0781 0 0.40511-0.13081 0.73276-0.39404 0.98291-0.26135 0.25016-0.60668 0.375-1.0342 0.375-0.16988 0-0.32647-0.0236-0.47022-0.0703-0.14374-0.0448-0.27669-0.11213-0.3999-0.20361 0.0299 0.35096 0.13427 0.61513 0.31348 0.79248 0.17921 0.17921 0.4289 0.26807 0.75 0.26807 0.14935 0 0.30314-0.0205 0.45996-0.0615 0.15681-0.0392 0.32363-0.10056 0.50098-0.18457v0.77344c-0.17735 0.0597-0.35652 0.10343-0.5376 0.1333-0.18108 0.0299-0.36728 0.0454-0.55957 0.0454zm7.8296-0.0703v-4.1807h0.56543v1.9966h1.6582v0.47607h-1.6582v1.2319h1.8369v0.47608zm12.316-0.15381v-0.89062h-0.37793v-0.0615c-0.11184 0.037-0.22341 0.0741-0.3501 0.0952-0.16802 0.028-0.34719 0.0425-0.5376 0.0425-0.38457 0-0.68154-0.0812-0.89062-0.24171-0.20909-0.16053-0.31348-0.38765-0.31348-0.68261 0-0.24269 0.0705-0.4342 0.2124-0.57422 0.14188-0.13814 0.37218-0.24041 0.69141-0.30761l0.18017-0.0425c0.31923-0.0691 0.52482-0.14066 0.61817-0.21533 0.0952-0.0747 0.14355-0.18225 0.14355-0.32226 0-0.15122-0.0656-0.26903-0.19628-0.35304-0.13068-0.0821-0.31836-0.12304-0.56104-0.12304-0.18109 0-0.36304 0.0247-0.54785 0.0732-0.18482 0.0504-0.37355 0.12519-0.56397 0.22413v-0.53321c0.20162-0.0653 0.39314-0.11329 0.57422-0.14502 0.18295-0.0336 0.35933-0.0498 0.52735-0.0498 0.40323 0 0.71959 0.085 0.94921 0.25489 0.23149 0.16988 0.34717 0.40019 0.34717 0.6914 0 0.25576-0.078 0.45432-0.23291 0.59619-0.15308 0.14376-0.41194 0.25412-0.77783 0.33252l-0.17725 0.0396c-0.27628 0.0616-0.4593 0.12615-0.55078 0.19336-0.0915 0.0691-0.13769 0.16324-0.13769 0.28271 0 0.15682 0.0635 0.27462 0.19043 0.35303 0.12881 0.0784 0.32139 0.11719 0.57715 0.11719 0.168 0 0.32951-0.0183 0.48632-0.0557 0.15682-0.0373 0.30849-0.0938 0.4541-0.16845v0.18017h0.26368v-1.7036c0-0.39203 0.0758-0.66218 0.22705-0.81152 0.15121-0.14748 0.42561-0.22119 0.82324-0.22119h0.5288v0.43065h-0.5288c-0.21469 0-0.35827 0.0371-0.4292 0.10987-0.0691 0.0728-0.104 0.23643-0.104 0.49219v1.7036h1.062v0.39991h-1.062v0.89062zm-8.4111-0.81445c-0.47043 0-0.84391-0.15168-1.1221-0.45411-0.27628-0.30056-0.41455-0.70684-0.41455-1.2202 0-0.49657 0.1453-0.8909 0.43652-1.1821 0.2931-0.29123 0.68915-0.43653 1.1895-0.43653 0.19975 0 0.39765 0.0205 0.59179 0.0615 0.19415 0.0411 0.38354 0.1003 0.56837 0.17871v0.4878c-0.18296-0.0971-0.3685-0.16974-0.55518-0.21827-0.18481-0.0485-0.37487-0.0732-0.57276-0.0732-0.34162 0-0.60898 0.092-0.80127 0.27686-0.19041 0.18668-0.29693 0.45682-0.31933 0.81152h2.3686v0.25342c0 0.4667-0.12272 0.83527-0.36914 1.106-0.24455 0.27255-0.57858 0.40869-1.0005 0.40869zm11.871 0c-0.24829 0-0.4592-0.0473-0.63281-0.14063-0.17362-0.0915-0.3136-0.23293-0.42188-0.42334v0.4878h-0.51856v-3.1362h0.51856v1.6523c0 0.35469 0.0765 0.6259 0.23144 0.81445 0.15682 0.19042 0.38114 0.28565 0.67237 0.28565 0.0821 0 0.15691-8e-3 0.22412-0.0249 0.0691-0.0149 0.13256-0.0396 0.19043-0.0732l-3e-3 0.53027c-0.0523 9e-3 -0.0992 0.0151-0.14209 0.019-0.0429 5e-3 -0.0832 9e-3 -0.11865 9e-3zm1.3931 0c-0.16801 0-0.33974-0.0198-0.51708-0.0571-0.17736-0.0355-0.36077-0.0883-0.54933-0.16114v-0.47607c0.15682 0.0859 0.32085 0.15043 0.49073 0.19336 0.16988 0.0429 0.34373 0.0644 0.52295 0.0644 0.28189 0 0.49984-0.0656 0.65478-0.19629 0.15682-0.1288 0.23585-0.31223 0.23585-0.54931v-0.0498h-0.72217c-0.46858 0-0.822-0.0903-1.0591-0.26953-0.23523-0.17922-0.35304-0.44551-0.35304-0.79834 0-0.30242 0.0942-0.54401 0.28272-0.72509 0.19041-0.17922 0.44649-0.26808 0.76758-0.26808 0.25389 0 0.46905 0.0437 0.64453 0.13331 0.17548 0.0915 0.32184 0.23293 0.43946 0.42334v-0.47607h0.51562v1.79c0 0.47791-0.1129 0.83412-0.33691 1.0693-0.22402 0.23521-0.56297 0.35303-1.0166 0.35303zm6.1201 0c-0.47044 0-0.84538-0.15168-1.1235-0.45411-0.27629-0.30056-0.41309-0.70684-0.41309-1.2202 0-0.49657 0.1453-0.8909 0.43652-1.1821 0.2931-0.29123 0.68915-0.43653 1.1895-0.43653 0.19974 0 0.39764 0.0205 0.59179 0.0615 0.19415 0.0411 0.38355 0.1003 0.56836 0.17871v0.4878c-0.18295-0.0971-0.3685-0.16974-0.55517-0.21827-0.18482-0.0485-0.37634-0.0732-0.57422-0.0732-0.34163 0-0.60753 0.092-0.7998 0.27686-0.19043 0.18668-0.29694 0.45682-0.31935 0.81152h2.3687v0.25342c0 0.4667-0.12418 0.83527-0.3706 1.106-0.24456 0.27255-0.57713 0.40869-0.99903 0.40869zm-15.286-0.43213c0.27256 0 0.48625-0.10718 0.64306-0.32373 0.15681-0.21468 0.23584-0.51166 0.23584-0.89063 0-0.37896-0.079-0.67701-0.23584-0.89355-0.15681-0.21469-0.3705-0.32227-0.64306-0.32227s-0.48772 0.10758-0.64454 0.32227c-0.15494 0.21654-0.23291 0.51459-0.23291 0.89355 0 0.37897 0.078 0.67595 0.23291 0.89063 0.15682 0.21655 0.37198 0.32373 0.64454 0.32373zm-4.0928-4e-3c0.2539 0 0.45776-0.0854 0.61084-0.25341 0.15468-0.16802 0.23331-0.39194 0.2373-0.67383l-1.8369-3e-3c0.0261 0.29496 0.12561 0.52314 0.29736 0.68556 0.17361 0.16241 0.40392 0.24462 0.6914 0.24462zm19.384 0c0.25388 0 0.45776-0.0854 0.61084-0.25341 0.15468-0.16802 0.2333-0.39194 0.23731-0.67383l-1.8369-3e-3c0.0261 0.29496 0.12561 0.52314 0.29736 0.68556 0.17362 0.16241 0.40392 0.24462 0.69141 0.24462zm-31.361-0.71191c0.19042 0 0.33293-0.0614 0.42627-0.18458 0.0952-0.12134 0.14209-0.30476 0.14209-0.54931s-0.0469-0.42758-0.14209-0.55078c-0.0933-0.12135-0.23585-0.1831-0.42627-0.1831-0.18855 0-0.33106 0.0617-0.42627 0.1831-0.0933 0.1232-0.13916 0.30623-0.13916 0.55078s0.0458 0.42797 0.13916 0.54931c0.0952 0.12321 0.23772 0.18458 0.42627 0.18458zm3.7046-0.26367v-0.4585h1.5102v0.4585zm30.166 0v-0.4585h1.5088v0.4585zm-8.3101-0.22412h0.5127v-0.11427c0-0.33602-0.0871-0.60657-0.26075-0.81005-0.17175-0.20161-0.39992-0.30176-0.68554-0.30176-0.20722 0-0.37231 0.0533-0.49366 0.15967-0.11947 0.10828-0.17871 0.25358-0.17871 0.43652 0 0.22962 0.0797 0.39259 0.24024 0.4878 0.16054 0.0952 0.44942 0.14209 0.86572 0.14209z"
        fill="#ffdc19" />
    <path
        d="m296.62 148.43c0 4.5606 2.7549 8.2569 6.1533 8.2569 3.3983 0 6.1533-3.6963 6.1533-8.2569 0-4.5601-2.7549-8.2569-6.1533-8.2569-3.3983 0-6.1533 3.6968-6.1533 8.2569"
        fill="#5a8bfa" />
    <path
        d="m300.46 155.42c-0.40274 0-0.79362-0.0677-1.1702-0.18383-1.609-1.4899-2.665-3.9775-2.665-6.7986 0-2.8207 1.056-5.3088 2.665-6.7982 0.37655-0.11612 0.76743-0.18382 1.1702-0.18382 2.8735 0 5.203 3.126 5.203 6.982 0 3.8564-2.3295 6.9825-5.203 6.9825"
        fill="#fff" /></g><g transform="matrix(1.0506 0 0 1.0506 157.45 1.9454e-8)"><path transform="matrix(.75 0 0 -.75 0 207.75)" d="m-93.434 248.16 8.3477 8.3477 23.275-7.625zm54.977 8.2715-34.986 11.463 7.1445 7.1426c1.2677 1.2684 2.9533 1.9668 4.7461 1.9668 1.7928 0 3.4784-0.69845 4.7461-1.9668l17.727-17.727c0.39401-0.55543 0.62305-0.87891 0.62305-0.87891z" fill="#fff"/>
    <path
        d="m-19.06 54.7s-1.8625 4.8714-3.0089 8.4531c-1.146 3.5817 0.28661 9.1696 0 13.754-0.28612 4.5848-5.7308 12.035-5.7308 12.035l-0.85984 3.4384s1.1469 1.7192 2.1496 4.4415c1.0026 2.7223-1.863 6.5906-4.8719 6.1607-3.0079-0.42991-7.8799-3.0084-7.8799-3.0084l1.5764-2.2929-0.14331-1.0026c-0.14331-1.0026-2.4357-3.0089-2.4357-3.0089h1.5759s-0.71604-1.0026-0.28661-2.5785c0.42992-1.5764 3.8683-4.8714 3.8683-4.8714l-2.2919-2.2929 1.4326-1.862s-1.8625-3.4389-1.8625-4.8714c0-1.4331-1.0031-12.321-1.0031-12.321l-6.4473-5.158 0.45759-1.2581-2.9837-1.0111s-2.8068-2.8063-3.2333-3.2946c-0.42745-0.48823-0.8544-1.2201-0.67156-1.3421 0.18333-0.12206 2.9897 2.074 2.9897 2.074s-2.5627-2.8063-2.4402-3.2946c0.12206-0.48774 0.73185 0 0.73185 0s0.18333-0.60979 0.48823-0.60979c0.3049 0 2.196 1.5255 2.196 1.5255s1.4642-0.12206 2.3186 0.42695c0.11267 0.07215 0.22929 0.1527 0.34739 0.2372l7.6797 5.2569-0.57322-6.304s2.8651-1.2893 3.0084-0.85934c0.04744 0.14084-0.95323-3.9849-2.3196-9.5951l-4.1163-11.797s0.2876-3.8984-0.34789-6.5007c0-4.94e-4 0-0.0015-4.94e-4 -2e-3 -0.46154-1.8882-1.8022-7.1436-2.5044-9.8921-0.40669-0.37606-0.88257-0.74915-1.3787-0.99326-1.3639-0.67107-4.6145 0.24411-4.6145 0.24411s-4.7588 0.91518-5.206 0.48823c-0.07561-0.07264-0.06721-0.19519 4.94e-4 -0.34937h-4.94e-4l4.94e-4 -9.88e-4c0.33356-0.75656 2.2124-2.3403 3.9849-3.2659 2.1353-1.1138 7.5038-0.8376 7.5038-0.8376l0.61078-0.73185 2.9284-0.33751 0.60979 0.82525s0.18333 0.60979 0.36617 1.0985c0.11168 0.29748-0.04892 0.93446-0.19173 1.3871 1.5759-0.23818 2.9981-0.42992 2.9981-0.42992s1.2206 4.4114 1.2206 7.6451c0 0.7526 0.23275 2.0033 0.58854 3.473l1.0279 1.9564 4.4232 16.9s6.558-11.131 9.5155-16.138l5.8375 5.8375c-1.9885 4.9307-4.9564 9.8694-6.4651 12.133-2.0058 3.0089-1.2898 10.029-1.2898 10.029z"
        fill="#5a8bfa" />
    <path transform="matrix(.75 0 0 -.75 0 207.75)"
        d="m-40.516 143.79c-1.8304 0.12255-9.3887 2.7656-9.3887 2.7656l7.9238-1.7891s-0.69157 1.8719-0.73242 2.8477c-0.04085 0.97646 1.3223 1.627 1.3223 1.627l-0.87305 2.3008 0.85938 0.30273 0.88867-2.4414s-1.1398-1.016-1.2617-1.5898c-0.12189-0.57323-0.20239-1.7846 0.61133-2.9238s5.2051 0 5.2051 0-2.725-1.2215-4.5547-1.0996zm5.5391 17.709 2e-3 0.0117c0.06612 0.10413 0.11778 0.17714 0.18555 0.28515-0.01611-0.0253-0.1875-0.29687-0.1875-0.29687zm0.21484 0.33984c2.1595 3.448 5.0764 8.7511 5.3145 12.566 0.38215 6.1131-1.5279 13.564 0 18.34 0.98998 3.0928 2.145 6.2566 3.002 8.5606 0.96569-0.31858 1.7012-0.63281 1.7012-0.63281s1.8053-17.032 1.1543-19.678c-0.62964-2.5619-10.531-18.149-11.172-19.156zm-3.9238 8.2266s-0.32493 19.524-0.97656 20.5c-0.65031 0.9758-10.203 8.5352-10.203 8.5352l6.502-4.3047s5.7357-1.3032 6.3867-2.6855c0.65097-1.3837-1.709-22.045-1.709-22.045zm9.6445 37.059-5.1699 1.1738c-5.1696 1.1735-12.406 0.35546-12.406 0.35546 4.595 0.84271 12.977 2.7363 12.977 2.7363s-0.57105 2.9055-1.3848 5.1016c-0.81372 2.1967-4.1465 6.4492-4.1465 6.4492s0.03137 0.0531 0.07617 0.13086c0.06919 0.11728 0.18491 0.31378 0.34766 0.58985 0.06391 0.10937 0.13514 0.23216 0.21289 0.36328 0.28398 0.48164 0.64849 1.1 1.082 1.8359 2.7482 4.6635 8.1125 13.765 10.967 18.596l1.6348-1.6328c-2.1585-4.5542-5.7233-12.266-6.1055-15.002-0.38479-2.7554 2.1024-6.6128 3.1777-8.1289-1.5519-3.9458-1.5964-8.1698-1.2812-12.369v-0.0117c0.0047-0.0494 0.0091-0.0869 0.01172-0.11719 0.0013-0.0152 0.0026-0.0305 0.0039-0.041 0.0013-0.01 0.0039-0.0293 0.0039-0.0293z"
        fill="#26354b" /></g></g></svg>
