<?xml version="1.0" encoding="UTF-8"?>
<svg version="1.1" viewBox="0 0 290 290" xml:space="preserve"><defs><clipPath id="clipPath16-1-4-4"><path d="m0 36h36v-36h-36z"/></clipPath><clipPath
    id="clipPath32-8-7"><path d="m11.815 23.013c-7.615-7.616-13.08-20.153-11.313-21.92 1.768-1.768 14.305 3.698 21.92 11.313 7.616 7.615 7.562 11.53 4.243 14.85-1.328 1.328-2.752 2.133-4.47 2.133-2.575 0-5.812-1.809-10.38-6.376"/></clipPath><linearGradient
    id="linearGradient6249" x1="103.64" x2="103.64" y1="-3.8462e-7" y2="207.03"
    gradientTransform="matrix(1.0506 0 0 1.0506 -.13488 1.9454e-8)" gradientUnits="userSpaceOnUse"><stop stop-color="#42c802" offset="0"/>
    <stop stop-color="#daf87e" offset="1" /></linearGradient></defs>
    <g transform="matrix(1.3333,0,0,-1.3333,0,290)"><path d="m108.75-3.8463e-7c-1.4126 0-2.7412 0.55031-3.74 1.5492l-103.46 103.46c-0.99939 0.99887-1.5497 2.3269-1.5497 3.7395s0.55031 2.7412 1.5492 3.74l103.46 103.46c0.99888 0.99887 2.3274 1.5492 3.74 1.5492 1.4132 0 2.7412-0.55031 3.74-1.5492l103.46-103.46c0.99939-0.99939 1.5497-2.3274 1.5497-3.74 0-1.4121-0.55032-2.7402-1.5497-3.7395l-103.46-103.46c-0.99888-0.99887-2.3269-1.5492-3.74-1.5492" fill="url(#linearGradient6249)" stroke-width="1.0506"/>
        <g transform="matrix(.16211 .041478 .041478 -.16211 58.308 201.5)"><path d="m324.12 104.25s33.994-51.289 37.061-98.925l20.771 12.265c0.859 0.508 1.465 1.787 1.338 2.813 0 0-11.406 94.609-45.156 112.87" fill="#4ca146" stroke-width="20.088"/>
            <path
                d="m378.05 167.1s52.519-31.357 99.629-31.641l-10.869-21.748c-0.44-0.898-1.651-1.504-2.666-1.338 0 0-73.223 11.914-93.184 45.01"
                fill="#4ca146" stroke-width="20.088" />
            <path
                d="m301.96 156.29s32.754-80.39 24.482-141.19l31.983 5.283c0.986 0.166 1.797 1.143 1.758 2.178 0 0-2.666 99.795-43.75 138.92"
                fill="#6ba743" stroke-width="20.088" />
            <path
                d="m313.63 162.62s59.814-63.682 75.244-124.55l26.856 17.295c0.83 0.537 1.191 1.777 0.771 2.734 0 0-39.99 93.672-91.768 115"
                fill="#6ba743" stroke-width="20.088" />
            <path
                d="m334.6 184.52s63.789-59.61 124.21-74.414l-16.768-27.364c-0.518-0.849-1.729-1.201-2.686-0.8 0 0-93.183 39.16-114.99 91.211"
                fill="#6ba743" stroke-width="20.088" />
            <path
                d="m323.75 187.52s79.892-32.266 139.98-23.233l-4.882-32.382c-0.147-1.006-1.123-1.827-2.139-1.807 0 0-98.779 1.641-137.92 42.734"
                fill="#6ba743" stroke-width="20.088" />
            <path
                d="m404.4 213.29c1.631-7.92 1.543-15.673-0.83-23.027-6.523-20.166-21.914-49.043-40.312-60.068-13.77-16.446-44.688-27.12-65.625-30.42-7.627-1.201-15.293-0.069-22.871 2.763-35.947 13.506-89.356 88.838-107.27 113.08-34.57 46.845-99.98 131.24-126.83 183.03-30.889 59.6-39.961 81.279-34.639 149.76 68.477-5.43 85.86-23.965 139.9-63.78 46.953-34.619 122.68-106.25 163.54-147.71 21.152-21.465 87.207-86.006 94.921-123.61z"
                fill="#fdf2e4" stroke-width="4.482" />
            <path
                d="m404.4 213.29c1.631-7.92 1.543-15.673-0.83-23.027-6.523-20.166-21.914-49.043-40.312-60.068-2.315-2.764-5.156-5.362-8.311-7.793 14.297 13.535 25.869 36.298 31.299 53.066 2.383 7.363 2.471 15.117 0.84 23.037-7.715 37.598-73.77 102.14-94.922 123.6-40.849 41.484-116.6 113.1-163.56 147.72-43.877 32.324-63.593 50.615-106.09 59.267-10.459 12.246-16.485 19.307-16.485 19.307 68.477-5.43 85.86-23.965 139.9-63.78 46.953-34.619 122.68-106.25 163.54-147.71 21.152-21.465 87.207-86.006 94.921-123.61"
                fill="#e0d3b7" stroke-width="4.482" />
            <path
                d="m5.131 531.92c0.137 5.176 0.439 10.635 0.898 16.475 0 0 6.026-7.061 16.485-19.307-5.381 1.104-11.172 2.031-17.383 2.832"
                fill="#ded2bb" stroke-width="4.482" />
            <path d="m265.01 151.66s31.367-9.091 39.834 26.641c0 0-16.885-23.125-39.834-26.641"
                fill="#ede7ca" stroke-width="4.482" />
            <path
                d="m265.01 151.66 0.222 0.768 0.032-9e-3c0.363-0.101 3.731-0.995 8.367-0.994 4.863 0 11.096 0.98 16.779 4.82 5.681 3.844 10.88 10.549 13.656 22.24l0.778-0.184 0.645-0.471c-0.023-0.031-4.274-5.852-11.429-12.131-7.156-6.275-17.221-13.029-28.929-14.828l-0.121 0.789 0.222 0.768-0.222-0.768-0.121 0.79c11.241 1.717 21.093 8.282 28.117 14.45 3.511 3.081 6.316 6.057 8.239 8.258 0.962 1.101 1.703 2.009 2.202 2.639 0.25 0.315 0.439 0.561 0.565 0.727l0.142 0.188 0.044 0.06c0.225 0.308 0.634 0.414 0.98 0.255 0.346-0.16 0.531-0.539 0.443-0.91-2.835-11.991-8.277-19.122-14.316-23.196-6.038-4.076-12.605-5.094-17.674-5.094-5.162 1e-3 -8.795 1.053-8.844 1.066-0.359 0.104-0.599 0.446-0.575 0.819 0.025 0.374 0.307 0.682 0.677 0.738l0.121-0.79"
                fill="#ede7ca" stroke-width="4.482" />
            <path d="m58.949 415.14s31.348-9.112 39.834 26.64c0 0-16.875-23.134-39.834-26.64"
                fill="#ede7ca" stroke-width="4.482" />
            <path
                d="m58.949 415.14 0.223 0.767 0.032-9e-3c0.363-0.102 3.737-0.999 8.378-0.998 4.861 0 11.089 0.98 16.768 4.822 5.678 3.844 10.875 10.552 13.656 22.243l0.777-0.185 0.646-0.471c-0.024-0.03-4.272-5.854-11.426-12.135-7.155-6.275-17.22-13.03-28.933-14.824l-0.121 0.79 0.223 0.767-0.223-0.767-0.12 0.79c11.245 1.711 21.097 8.277 28.12 14.445 3.511 3.082 6.315 6.059 8.237 8.261 0.961 1.101 1.702 2.009 2.201 2.639 0.249 0.316 0.439 0.561 0.565 0.728l0.186 0.248c0.224 0.308 0.633 0.414 0.979 0.255 0.347-0.159 0.532-0.539 0.444-0.91-2.841-11.991-8.28-19.123-14.316-23.198-6.033-4.077-12.596-5.096-17.663-5.096-5.169 1e-3 -8.807 1.057-8.856 1.071-0.359 0.104-0.599 0.446-0.574 0.819s0.307 0.681 0.677 0.738l0.12-0.79"
                fill="#ede7ca" stroke-width="4.482" />
            <path d="m287.39 234.35s32.451-3.545 34.638 33.115c0 0-12.617-25.684-34.638-33.115"
                fill="#ede7ca" stroke-width="4.482" />
            <path
                d="m287.39 234.35 0.087 0.794 0.03-3e-3c0.16-0.016 0.945-0.085 2.172-0.085 3.631-4e-3 11.116 0.619 17.842 4.957 3.367 2.169 6.554 5.258 9.027 9.692 2.471 4.435 4.23 10.226 4.683 17.808l0.797-0.048 0.717-0.352c-0.017-0.035-3.194-6.501-9.155-13.919-5.963-7.414-14.711-15.805-25.945-19.601l-0.255 0.757 0.087 0.794-0.087-0.794-0.256 0.757c10.788 3.635 19.359 11.802 25.21 19.088 2.926 3.64 5.173 7.055 6.685 9.554 0.756 1.25 1.329 2.272 1.712 2.978 0.191 0.354 0.335 0.628 0.43 0.813 0.048 0.093 0.083 0.163 0.107 0.21l0.033 0.067c0.168 0.342 0.553 0.518 0.921 0.42 0.369-0.097 0.617-0.439 0.594-0.82-0.464-7.777-2.278-13.818-4.882-18.49-3.906-7.012-9.582-10.902-14.954-13.007-5.376-2.108-10.457-2.461-13.311-2.462-1.472 0-2.352 0.095-2.376 0.098-0.372 0.04-0.667 0.336-0.708 0.707-0.04 0.372 0.185 0.724 0.539 0.844l0.256-0.757"
                fill="#ede7ca" stroke-width="4.482" />
            <path d="m267.99 238.14s32.012-6.426 37.451 29.912c0 0-14.873-24.473-37.451-29.912"
                fill="#ede7ca" stroke-width="4.482" />
            <path
                d="m267.99 238.14 0.157 0.783 0.086-0.016c0.428-0.077 2.419-0.407 5.268-0.407 4.606-2e-3 11.427 0.865 17.544 4.973 6.113 4.112 11.613 11.445 13.606 24.697l0.79-0.118 0.683-0.415c-0.021-0.033-3.765-6.194-10.366-13.055-6.602-6.857-16.062-14.438-27.581-17.219l-0.187 0.777 0.157 0.783-0.157-0.783-0.187 0.777c11.06 2.658 20.325 10.033 26.804 16.773 3.24 3.367 5.783 6.569 7.514 8.926 0.865 1.178 1.527 2.145 1.971 2.815 0.222 0.335 0.39 0.596 0.502 0.772l0.165 0.264c0.197 0.326 0.596 0.466 0.954 0.336 0.359-0.13 0.575-0.492 0.518-0.869-2.024-13.592-7.794-21.435-14.296-25.787-6.498-4.357-13.638-5.243-18.434-5.245-3.396 0-5.63 0.447-5.668 0.455-0.367 0.073-0.634 0.394-0.642 0.768-7e-3 0.373 0.249 0.704 0.612 0.792l0.187-0.777"
                fill="#ede7ca" stroke-width="4.482" />
            <path d="m174.79 268.07s32.451-3.554 34.639 33.116c0 0-12.647-25.703-34.639-33.116"
                fill="#ede7ca" stroke-width="4.482" />
            <path
                d="m174.79 268.07 0.087 0.795 0.03-3e-3c0.162-0.016 0.949-0.086 2.182-0.086 3.635-4e-3 11.118 0.62 17.841 4.959 3.365 2.169 6.55 5.258 9.021 9.693 2.47 4.434 4.227 10.224 4.68 17.805l0.798-0.047 0.717-0.353c-0.018-0.034-3.202-6.505-9.167-13.926-5.966-7.416-14.715-15.807-25.934-19.594l-0.255 0.757 0.087 0.795-0.087-0.795-0.255 0.758c10.773 3.625 19.344 11.792 25.199 19.08 2.928 3.642 5.177 7.058 6.692 9.56 0.757 1.25 1.331 2.272 1.714 2.98 0.192 0.353 0.336 0.628 0.431 0.813 0.048 0.093 0.084 0.163 0.107 0.21l0.034 0.067c0.168 0.342 0.552 0.517 0.921 0.42 0.368-0.097 0.616-0.44 0.593-0.82-0.463-7.777-2.276-13.816-4.879-18.488-3.903-7.012-9.576-10.903-14.946-13.008-5.374-2.109-10.455-2.463-13.312-2.464-1.478 0-2.362 0.096-2.386 0.098-0.372 0.041-0.667 0.337-0.707 0.708-0.041 0.372 0.185 0.724 0.539 0.844l0.255-0.758"
                fill="#ede7ca" stroke-width="4.482" />
            <path d="m155.38 271.84s32.012-6.426 37.451 29.912c0 0-14.873-24.473-37.451-29.912"
                fill="#ede7ca" stroke-width="4.482" />
            <path
                d="m155.38 271.84 0.157 0.783 0.086-0.016c0.427-0.077 2.419-0.407 5.268-0.407 4.606-1e-3 11.427 0.865 17.544 4.974 6.113 4.112 11.612 11.444 13.606 24.696l0.79-0.118 0.683-0.415c-0.021-0.033-3.765-6.193-10.366-13.055-6.602-6.857-16.063-14.438-27.581-17.219l-0.187 0.777 0.157 0.783-0.157-0.783-0.187 0.777c11.06 2.659 20.324 10.034 26.804 16.773 3.239 3.367 5.783 6.57 7.513 8.926 0.866 1.178 1.528 2.145 1.972 2.815 0.222 0.336 0.39 0.596 0.502 0.773l0.125 0.199 0.039 0.064c0.198 0.326 0.597 0.466 0.955 0.336 0.358-0.129 0.575-0.492 0.518-0.869-2.025-13.592-7.794-21.435-14.296-25.787-6.498-4.356-13.638-5.243-18.434-5.245-3.396 1e-3 -5.63 0.447-5.668 0.455-0.367 0.073-0.635 0.394-0.642 0.768s0.248 0.704 0.612 0.792l0.187-0.777"
                fill="#ede7ca" stroke-width="4.482" />
            <path d="m177.61 354.55s32.452-3.555 34.639 33.115c0 0-12.617-25.693-34.639-33.115"
                fill="#ede7ca" stroke-width="4.482" />
            <path
                d="m177.61 354.55 0.087 0.794 0.031-3e-3c0.161-0.016 0.949-0.086 2.181-0.086 3.635-3e-3 11.118 0.62 17.841 4.959 3.365 2.17 6.55 5.259 9.021 9.693 2.47 4.435 4.228 10.225 4.68 17.806l0.798-0.048 0.717-0.352c-0.018-0.034-3.194-6.503-9.156-13.923-5.962-7.415-14.711-15.805-25.945-19.597l-0.255 0.757 0.087 0.794-0.087-0.794-0.255 0.757c10.788 3.63 19.359 11.797 25.21 19.084 2.926 3.641 5.173 7.057 6.685 9.557 0.756 1.25 1.329 2.272 1.711 2.979 0.191 0.353 0.335 0.628 0.431 0.814 0.047 0.092 0.083 0.162 0.106 0.209l0.034 0.067c0.168 0.342 0.552 0.518 0.921 0.421 0.368-0.097 0.616-0.44 0.593-0.82-0.463-7.777-2.276-13.817-4.879-18.488-3.902-7.013-9.575-10.904-14.946-13.009-5.374-2.108-10.455-2.463-13.312-2.464-1.478 0-2.362 0.096-2.386 0.099-0.372 0.041-0.667 0.336-0.707 0.708s0.185 0.724 0.539 0.843l0.255-0.757"
                fill="#ede7ca" stroke-width="4.482" />
            <path d="m158.22 358.34s32.002-6.435 37.441 29.903c0 0-14.863-24.463-37.441-29.903"
                fill="#ede7ca" stroke-width="4.482" />
            <path
                d="m158.22 358.34 0.157 0.783 0.086-0.016c0.428-0.078 2.424-0.408 5.277-0.408 4.606-2e-3 11.423 0.865 17.535 4.973 6.108 4.111 11.603 11.441 13.596 24.689l0.79-0.118 0.683-0.415c-0.021-0.033-3.763-6.192-10.361-13.051-6.599-6.854-16.058-14.433-27.576-17.214l-0.187 0.777 0.157 0.783-0.157-0.783-0.187 0.777c11.06 2.659 20.322 10.031 26.798 16.768 3.239 3.366 5.781 6.567 7.511 8.923 0.865 1.178 1.526 2.144 1.971 2.814 0.222 0.335 0.389 0.596 0.501 0.772l0.125 0.199 0.039 0.064c0.198 0.326 0.597 0.466 0.955 0.337 0.358-0.13 0.575-0.493 0.518-0.87-2.024-13.586-7.788-21.427-14.285-25.779-6.493-4.355-13.629-5.243-18.426-5.244-3.401 0-5.639 0.448-5.678 0.456-0.366 0.074-0.634 0.394-0.641 0.768s0.248 0.704 0.612 0.792l0.187-0.777"
                fill="#ede7ca" stroke-width="4.482" /></g>
        <g transform="matrix(-.083078 -3.2816 -2.8453 .28669 649.83 173.87)"><path d="m16.099 184.52s-2.6671 0.0136-3.0168 3.169" fill="none" stroke="#00801b" stroke-linecap="round" stroke-linejoin="round"/>
            <path
                d="m41.757 178.87c-0.1808 0.1125-0.36854 0.18165-0.56143 0.2068-2.0123 0.24418-4.154-4.2393-4.7836-10.014-0.50216-4.6184 0.11137-8.8152 1.5093-10.324-2.0049 1.8894-4.1506 4.1733-6.6787 6.5586-4.498 4.2439-11.827 9.0718-14.981 13.307-2.1327 2.8638-1.7033 5.3838 0.30598 7.5461 2.8723 3.091 17.272-0.81068 25.19-7.2801z"
                fill="#9ebb2d" />
            <path
                d="m37.696 174.89c-3.2864 2.2654-7.5252 4.9874-12.196 7.492-4.8855 2.6197-7.4985 3.5546-8.8997 3.8024 2.9448 3.0294 17.267-0.86619 25.157-7.3122a10.517 3.6698 83.873 0 1-0.56172 0.2067 10.517 3.6698 83.873 0 1-3.499-4.1889z"
                fill="#6ca21b" />
            <path
                d="m37.921 158.74c-2.0049 1.8894-4.1506 4.173-6.6787 6.5583-4.498 4.2439-11.828 9.0718-14.982 13.307-1.1455 1.5381-1.5458 2.9763-1.3653 4.314 4.2895-2.6997 16.135-10.268 21.428-14.819-0.32288-4.229 0.29748-7.9566 1.5973-9.3596z"
                fill="#b6d63d" /></g>
        <g transform="matrix(-.90676 -.0024634 .0024634 -.90676 1228.8 828.31)" fill-rule="evenodd"
            stroke-width=".8271"><path d="m1242.4 865.02c-4.4301-6.9688-18.612-24.659 1.0185-37.622 17.408-11.496 50.383-2.5376 78.409-7.0102z" fill="#5cae32"/>
            <path
                d="m1242.4 865.02 79.428-44.632c-10.84 24.211-0.5669 36.505-24.41 51.805-12.514 8.0303-39.574 14.352-55.018-7.1726z"
                fill="#63b439" />
            <path d="m1227.1 870.16 2.846 4.9702 90.039-53.807z" fill="#4a8c28" />
            <path d="m1244 841.41 5 19.589 20.761 12.507-17.132-15.218z" fill="#4a8c28" />
            <path d="m1253.9 828 8.0943 26 26 17.029-23-19.029z" fill="#4a8c28" />
            <path d="m1270.5 825.46 4.4561 21.544 26.937 13-23.937-15.596z" fill="#4a8c28" />
            <path d="m1288 825.13v13.867l20 5-16-6.895z" fill="#4a8c28" /></g>
        <g transform="matrix(-1.7745 .57827 -.57827 -1.7745 218.31 354.28)" fill-rule="evenodd"
            stroke-width="1.5188"><path d="m55.09 119.21c-1.5795 17.078-9.2428 27.845-21.07 39.007-6.8773 6.021-15.692 12.804-24.213 9.1847-9.7869-4.1576-9.7543-12.395-6.3242-18.518 5.593-9.9845 11.11-12.597 20.203-18.247 6.3669-3.8471 9.408-10.018 15.908-14.851 1.7283-1.2136 6.5013-3.0092 7.3914-3.2548 5.7015 0.14997 6.6078 2.6843 8.1057 6.6796z" fill="#2c1043"/>
            <path
                d="m44.838 123.38c-6.7159 11.982-18.407 32.91-34.19 37.166-7.5953 0.75828-2.4109-8.1917-0.63006-12.159 6.3243-8.8859 16.915-11.552 23.246-19.243 2.2501-2.7944 3.3211-5.2262 4.6867-6.16 1.5478 1.291 3.9663 1.7812 6.8873 0.39513z"
                fill="#7e4e79" fill-opacity=".41111" />
            <path
                d="m52.442 112.49-0.31774-2.9586c-0.44831 0.45289-0.55951-0.51016-2.0128-0.2184l-1.406 0.64576-1.0344 0.82096s-0.98435 0.14119-1.6939 0.37376c-0.70951 0.23257-2.7624 0.0478-4.6699 1.7117-2.0684 1.8041-2.2455 3.551-6.7167 2.1414l1.5637 4.3838s2.5508 1.727 3.4279 1.3008c0.87715-0.42618 2.2832-1.0719 2.2832-1.0719l-2.805 2.6527c0.1659 3.0955 7.3716-0.43844 6.3796 0.12264-0.32229 0.56785 3.1754 4.2435 3.1754 4.2435s-0.9078-2.4733-0.45518-3.9473c0.45288-1.4748 1.8043-3.1918 1.8043-3.1918s0.03045 4.8555 0.60066 5.7443c1.9847 3.0934 3.9848 3.8405 7.1691 2.8312l-2.088-1.4615 3.8399-0.54434c-1.5967 0.22067-5.0553-2.5103-3.9218-5.4473 0.46985-3.9023 1.0951-5.8322-3.1223-8.1312z"
                fill="#92b147" />
            <path
                d="m35.269 116.81c4.3915 3.4147 6.1154-2.7842 10.98-2.5797-2.8319 1.8521-3.4481 3.7042-4.6302 5.5562-1.6271 1.4624-3.4024 1.8941-5.5562-0.33073z"
                opacity=".12" />
            <path
                d="m39.106 122.37c2.9329 0.74635 4.9304-0.75232 7.0115-2.0505l-0.39688 0.99219c0.39359 1.8694 1.6553 3.5219 2.712 5.2255-1.2374-1.3136-2.5283-2.6164-2.9104-4.101-2.6703 0.73097-5.7626 2.0599-6.4161-0.0662z"
                opacity=".12" />
            <path
                d="m49.954 119.46c1.0992-0.6329 0.73169-2.2997 0.66146-3.7703 3.0648 4.7184-1.2064 5.1311 3.4396 12.766-3.4837-1.0583-4.8507-4.0569-4.101-8.9958z"
                opacity=".12" />
            <path
                d="m52.134 109.55c-0.35874 1.7302-1.5986 2.5792-2.9078 3.359 0.89711 0.35122 2.1167 0.59086 3.175-0.52917z"
                opacity=".12" />
            <path
                d="m55.414 126.57c-2.136-2.3932-2.072-4.6489-2.2918-6.9223 0.63005 2.9246 1.9584 5.1509 3.8353 6.8287z"
                opacity=".12" /></g>
        <g transform="matrix(.60568 .61827 -.78198 .4006 34.722 -1071.1)" fill-rule="evenodd"
            stroke-width=".88013"><path d="m1242.4 865.02c-4.4301-6.9688-18.612-24.659 1.0185-37.622 17.408-11.496 50.383-2.5376 78.409-7.0102z" fill="#5cae32"/>
            <path
                d="m1242.4 865.02 79.428-44.632c-10.84 24.211-0.5669 36.505-24.41 51.805-12.514 8.0303-39.574 14.352-55.018-7.1726z"
                fill="#63b439" />
            <path d="m1227.1 870.16 2.846 4.9702 90.039-53.807z" fill="#4a8c28" />
            <path d="m1244 841.41 5 19.589 20.761 12.507-17.132-15.218z" fill="#4a8c28" />
            <path d="m1253.9 828 8.0943 26 26 17.029-23-19.029z" fill="#4a8c28" />
            <path d="m1270.5 825.46 4.4561 21.544 26.937 13-23.937-15.596z" fill="#4a8c28" />
            <path d="m1288 825.13v13.867l20 5-16-6.895z" fill="#4a8c28" /></g>
        <g transform="matrix(.87586 .23468 .23468 -.87586 -1199.4 471.86)" fill-rule="evenodd"
            stroke-width=".8271"><path d="m1242.4 865.02c-4.4301-6.9688-18.612-24.659 1.0185-37.622 17.408-11.496 50.383-2.5376 78.409-7.0102z" fill="#5cae32"/>
            <path
                d="m1242.4 865.02 79.428-44.632c-10.84 24.211-0.5669 36.505-24.41 51.805-12.514 8.0303-39.574 14.352-55.018-7.1726z"
                fill="#63b439" />
            <path d="m1227.1 870.16 2.846 4.9702 90.039-53.807z" fill="#4a8c28" />
            <path d="m1244 841.41 5 19.589 20.761 12.507-17.132-15.218z" fill="#4a8c28" />
            <path d="m1253.9 828 8.0943 26 26 17.029-23-19.029z" fill="#4a8c28" />
            <path d="m1270.5 825.46 4.4561 21.544 26.937 13-23.937-15.596z" fill="#4a8c28" />
            <path d="m1288 825.13v13.867l20 5-16-6.895z" fill="#4a8c28" /></g>
        <g transform="matrix(2.6752 .12271 .12271 -2.6752 37.639 859.65)" stroke-width="1.0585"><path d="m18.624 267.6c-1.5818 0.11597-3.1276 0.32893-4.4207 1.2245-0.05548-0.0417-0.11347-0.0807-0.17458-0.11693l0.22344-0.89695-1.3911-0.20902-0.02162 0.79685c-2.0838 0.0544-3.0831 3.4464-5.5274 6.8913-1.057 1.4896-2.9077 1.9692-4.1788 3.378-1.8314 2.0297-2.9956 4.9002-3.3644 6.3371-1.2715 4.9538 1.7132 10 6.6671 11.272 3.3681 0.8645 6.7777-0.24051 9.0159-2.5923 2.8178 2.626 7.099 3.3089 10.684 1.3895 4.5088-2.414 6.2068-8.026 3.7928-12.535-0.70587-1.3184-2.46-3.889-4.7698-5.4249-1.5687-1.0431-3.5824-0.98464-4.9661-2.1527-1.5367-1.2972-2.7563-2.6591-3.8321-3.6879 3.7233 2.4358 7.0787 2.3451 10.53 2.9095-1.0797-2.4429-2.7401-4.5745-8.2664-6.583z" fill-opacity=".2"/>
            <path
                d="m15.151 270.68c-4.5415 0.1419-3.8136 5.7292-2.7019 8.5883 0.08036 3.6262-1.3253 7.494 0.70865 11.005 2.3146 7.1553 13.332 8.3837 17.199 1.8996 4.4665-6.481-1.3269-15.133-8.3846-16.593-2.215-1.5801-3.7996-4.7182-6.8212-4.8996z"
                fill="#009100" />
            <path
                d="m30.428 282.57c2.414 4.5088 0.71581 10.121-3.793 12.535-4.5088 2.414-10.121 0.71581-12.535-3.793-0.70018-1.3078-1.7841-4.2103-1.8079-6.944-0.01655-1.8974 1.0226-3.5017 0.7936-5.3138-0.57846-4.5784-2.3879-7.9456-0.09459-9.1735 2.295-1.2287 4.1539 2.1182 7.7005 5.1121 1.3837 1.168 3.3978 1.1092 4.9665 2.1522 2.3099 1.5359 4.064 4.1067 4.7698 5.4251z"
                fill="#bbc041" />
            <path
                d="m13.722 269.78c0.52458 4.7933 2.0378 9.6256 0.29037 14.426-1.1527 7.9842 8.176 15.096 14.05 8.5798 5.6797-6.1685-0.39829-15.67-7.2343-16.681-2.7746-1.5104-4.4148-4.9118-7.1061-6.3246z"
                fill="#f9eda1" />
            <path
                d="m28.114 286.84c-1e-6 3.1301-2.5374 5.6675-5.6675 5.6675s-5.6675-2.5374-5.6675-5.6675c2e-6 -3.1301-0.39449-7.7998 2.7356-7.7998s8.5994 4.6697 8.5995 7.7998z"
                fill="#bb5d33" />
            <path
                d="m18.207 289.64c-1.2715 4.9538-6.3181 7.9389-11.272 6.6674-4.9538-1.2715-7.9389-6.3181-6.6674-11.272 0.3688-1.4369 1.5336-4.3078 3.365-6.3376 1.2711-1.4088 3.1216-1.8877 4.1786-3.3773 2.6706-3.7636 3.6152-7.4676 6.1349-6.8209 2.5215 0.64719 1.627 4.3697 2.2144 8.9737 0.22917 1.7962 1.7525 3.1151 2.2025 4.9444 0.66255 2.6936 0.21581 5.7736-0.15598 7.2221z"
                fill="#009100" />
            <g transform="matrix(1 0 0 .66667 -34.396 95.913)" fill="#782121" stroke-width="1.0585"><path d="m47.756 257.58 1.3908 0.31282-0.24223 1.4623-1.1755-0.2719z" fill="#782121"/></g>
            <path
                d="m14.248 269.2c1.3764-1.1962 3.1037-1.445 4.8751-1.5749 5.5262 2.0085 7.186 4.1402 8.2657 6.5831-4.2381-0.69314-8.3321-0.3969-13.141-5.0082z"
                fill="#4a8c28" /></g>
        <g transform="matrix(1.7382 3.1536 3.1536 -1.7382 -746.76 545.56)" stroke-width=".74731"><path d="m30.49 276.55-1.4189-1.3867-0.0075 0.0203-0.0056-0.0228-1.5803 1.2039c-0.35034 0.25626-0.73558 0.49745-1.1479 0.72361-0.01488 7e-3 -0.03233 0.0184-0.04523 0.0215-0.09162 0.0523-0.17472 0.0953-0.25955 0.14044-0.33333 0.17081-0.68752 0.32721-1.0513 0.47621-0.03916 0.0151-0.07793 0.031-0.11743 0.0459-3.1126 1.1755-7.9493 1.8135-12.179-0.0699-1.7444-0.83899-3.3269-2.1031-4.6471-3.5615-1.8228-2.0758-2.691-3.907-3.6635-6.456l-0.20683-0.87092c-0.015657-0.0899-0.031497-0.17999-0.044133-0.26869-0.00609 3e-3 -0.01171 6e-3 -0.017782 8e-3l-0.014087-0.0594-0.62895 0.25372-0.34077 0.43609c-0.32017 0.29521-0.58045 0.65601-0.76745 1.0931-0.51887 1.2129-0.42233 2.8535 0.14635 4.6069l-0.5563 0.34869-0.25888 0.48918c-0.26349 0.34666-0.45654 0.74703-0.56412 1.2101-0.40946 1.7622 0.45683 4.1132 2.1066 6.3195l-0.38464 0.43492-0.13046 0.54771c-0.16751 0.4116-0.25585 0.854-0.24998 1.3311 0.050695 4.1148 6.9507 9.1912 13.371 8.7125 6.4203-0.47865 12.963-6.8389 12.912-10.954-0.0031-0.24945-0.03276-0.48312-0.08289-0.70515l0.48862-0.90704 0.20125-0.37385 0.0349 0.0138 0.1174-0.29609 0.23335-0.43361-0.0407-0.0531 0.24465-0.61788z" fill-opacity=".2"/>
            <g transform="matrix(-.53913 -.74015 -.74015 .53913 229.98 133.7)"
                stroke-width=".74731"><path d="m3.9746 270.2c-0.84759 0.25371-1.5408 0.75647-2.0266 1.5726-2.29 3.8464 0.85707 13.148 7.0806 16.853 6.2235 3.7053 15.954 2.4269 18.244-1.4194 0.50374-0.84609 0.60549-1.7463 0.39148-2.6748-3.9081 2.0746-10.968 2.2434-15.862-0.67011-4.8621-2.8948-7.8469-9.2051-7.828-13.661z" fill="#d0b524"/>
                <path
                    d="m4.0282 271.46c0.028672 0.0748 0.025001 0.22696 0.056082 0.30216 0.077969 0.69963 0.19434 1.1814 0.33334 1.6868 1.2689 4.6129 5.2795 11.268 12.615 12.349 4.1366 0.60927 6.574 0.0719 10.402-1.0055-3.3121 2.4286-7.8223 2.8698-12.311 1.9795-6.6607-1.321-10.56-9.1141-11.933-13.356-0.30119-0.93061 0.064954-1.402 0.8377-1.9554z"
                    fill="#edcc45" />
                <path d="m2.4159 268.73 1.6057-0.67304-0.070981 3.3189h-1.5347v-2.6458 1.3229"
                    fill="#955a34" />
                <path d="m27.73 284.53 0.18066 0.71871-0.26639 0.93168-1.7843-0.86749"
                    fill="#472f0d" /></g>
            <path
                d="m30.846 276.63-1.4186-1.3866-1.3169 3.5443 1.6257 0.64411 1.1098-2.8018-0.55489 1.4009"
                fill="#472f0d" />
            <g transform="rotate(28.314,15.438,279.64)" stroke-width=".74731"><path d="m25.673 272.9c0.68555 0.43171 1.1738 1.0453 1.4023 1.8844 1.077 3.955-3.9807 11.389-10.38 13.132-6.3993 1.7426-14.67-1.7717-15.747-5.7267-0.23691-0.86999-0.1059-1.6891 0.31063-2.4558 2.939 2.7888 9.1261 4.6692 14.158 3.2989 4.9995-1.3614 9.1804-6.1965 10.257-10.133z" fill="#d0b524"/>
                <path
                    d="m25.318 273.99c-0.04364 0.059-0.07772 0.1941-0.12358 0.25282-0.24037 0.59811-0.46121 0.99464-0.70777 1.4064-2.2507 3.7584-7.4213 8.6464-14.158 7.8005-3.7989-0.477-5.8174-1.5489-8.9304-3.4382 2.3264 2.9548 6.1973 4.4502 10.376 4.7658 6.2003 0.46818 11.551-5.4509 13.803-8.8567 0.49396-0.74715 0.28655-1.2529-0.25946-1.9306z"
                    fill="#edcc45" />
                <path d="m1.202 279.72-0.33564 0.58976 0.006518 0.88728 1.7869-0.32772"
                    fill="#472f0d" />
                <path
                    d="m27.409 271.98-1.5232-1.4526-0.47964 3.4104 1.354 0.37639 0.6489-2.3342-0.32445 1.1671"
                    fill="#955a34" /></g>
            <g transform="matrix(-.87172 0 0 .93555 29.386 20.153)" stroke-width=".74731"><path d="m1.3181 276.97c-0.61705 0.59794-0.97136 1.3469-0.9837 2.2801-0.058154 4.3982 7.4472 11.196 14.812 11.708 7.3651 0.51162 15.281-4.9142 15.339-9.3124 0.01279-0.96749-0.35586-1.805-1.0169-2.5278-2.3845 3.5536-8.5139 6.8222-14.305 6.4199-5.754-0.3997-11.594-4.636-13.846-8.5675z" fill="#d0b524"/>
                <path
                    d="m2.0033 278.05c0.063317 0.0532 0.13754 0.18876 0.20318 0.24123 0.42477 0.58147 0.77248 0.95421 1.1521 1.3376 3.4651 3.5002 10.384 7.587 17.392 5.2963 3.9519-1.2918 5.8241-2.842 8.6458-5.4823-1.6796 3.6018-5.4257 5.9834-9.8309 7.1836-6.5363 1.7807-13.936-3.3569-17.304-6.4848-0.73887-0.68616-0.6565-1.263-0.25789-2.0917z"
                    fill="#edcc45" />
                <path
                    d="m-0.80398 276.36 1.071-1.3021 1.6622 2.9003-1.3864 0.73112-1.3468-2.3293 0.6734 1.1646"
                    fill="#955a34" />
                <path d="m29.524 279.09 0.52488 0.55289 0.23973 0.93794-2.0124 0.0248"
                    fill="#472f0d" /></g></g>
        <g transform="matrix(2.9296 .37512 .32916 -2.5708 -37.424 696.02)" stroke-width=".93809"><path d="m1.4597 214.13c-4e-7 0 0.10357 1.3548 0.058696 2.2278-0.018479 0.35949-0.089743 0.92668-0.16464 1.4724-1.6036-0.58366-3.2303-0.30137-4.8618 0.0954-4.6431 3.6076-5.5689 6.1465-5.8468 8.8028 2.3861-1.2242 4.8497-2.0573 7.1295-3.9401-0.25064 0.8496-0.40775 1.698-0.47458 2.4195-1.5483 3.28-4.5342 6.1119-4.2834 10.162-1.1263 7.4355 8.1818 13.458 14.538 9.3845 6.8916-3.8024 5.5741-14.132-0.087329-18.592-1.2756-2.4033-1.2912-5.9184-3.9133-7.4307-0.45567-0.21006-0.88173-0.32782-1.2827-0.37443 0.047516-0.40341 0.089095-0.77188 0.13243-1.2179 2.3283 3.2511 4.951 3.7787 7.5089 4.9035-0.30533-1.8452-1.0586-3.5809-4.4552-5.9085-1.0139-0.18344-2.021-0.29906-2.9864-0.0114 0.022382-0.82942-0.028633-1.9113-0.028633-1.9113z" fill-opacity=".2"/>
            <path
                d="m4.2873 217.9c-4.1264-1.9022-5.9716 3.4216-6.2545 6.4762-1.5483 3.28-4.534 6.1122-4.2832 10.162-1.1263 7.4355 8.1817 13.457 14.538 9.384 6.8916-3.8024 5.5743-14.131-0.08705-18.591-1.2756-2.4033-1.2911-5.9188-3.9133-7.4311z"
                fill="#bbc30b" />
            <path
                d="m2.6092 215.52c1.1424-0.57065 2.3572-0.43763 3.5812-0.21619 3.3966 2.3276 4.1497 4.0632 4.455 5.9085-2.7529-1.2106-5.5809-1.725-8.0362-5.6923z"
                fill="#398537" />
            <path
                d="m2.1924 213.3 0.98302 0.082s0.068575 1.3525 0.022571 2.1898c-0.046003 0.83729-0.29859 2.8339-0.29859 2.8339l-1.0364 0.10784s0.34341-2.1124 0.38828-2.9855c0.044877-0.87303-0.058901-2.2281-0.058901-2.2281z"
                fill="#804d00" />
            <path
                d="m-2.7753 217.09c-4.6431 3.6076-5.5686 6.1458-5.8464 8.8022 3.8208-1.9604 7.8407-2.9144 10.986-8.7891-1.6934-0.72608-3.4137-0.43284-5.1394-0.0131z"
                fill="#398537" /></g>
        <g transform="matrix(1.1925 0 0 -1.1925 79.018 106.77)"><path d="m20.243 3.6702c-1.7698 0.07529-3.5067 0.90562-4.6654 2.3971-2.0599 2.6514-1.5534 6.4322 1.0981 8.4921 0.85209 0.66198 2.559 1.1332 4.4489 1.4901-8.465-0.19937-17.901 3.8227-17.901 19.055 0 13.4 13.579 28.891 20.479 28.891 3.1 0 4.0936-1.3126 5.9936-1.3126 1.8 0 2.5066 1.3126 6.5066 1.3126 6.9 0 19.309-15.073 19.309-28.573 0-19.915-16.156-20.987-24.082-18.207 0.39069-2.4096 2.1075-7.9187 9.2722-7.9187v-2.5999c-7.2169 0-10.364 4.1254-11.482 8.0006-1.1048-3.0785-3.194-8.3485-5.0457-9.7871-1.16-0.9012-2.5555-1.299-3.932-1.2405zm6.5261 13.115c0.92611 0.07628 1.4486 0.10948 2.0187 0.14043-0.01567 0.14269-0.03416 0.28626-0.04486 0.42519-0.62509-0.2081-1.281-0.39735-1.9738-0.56562z" fill-opacity=".2" stroke-width="1.1827"/>
            <path
                d="m32.007 14.993s-10.683-0.37149-13.334-2.4314c-2.6514-2.0599-3.158-5.8389-1.0981-8.4903s5.947-3.2165 8.5984-1.1566 5.8338 12.078 5.8338 12.078z"
                fill="#83bf4f" stroke-width="1.1827" />
            <path d="m30.7 16.3c0-4.3 2.4-11.6 12-11.6v2.6c-8.7 0-9.4 8.2-9.4 9z" fill="#947151"
                stroke-width=".9621" />
            <path
                d="m32 15.8c-8.4909-3.4223-26.779-3.8925-26.779 17.308 0 13.4 13.579 28.892 20.479 28.892 3.1 0 4.0942-1.3125 5.9942-1.3125 1.8 0 2.5058 1.3125 6.5058 1.3125 6.9 0 19.31-15.075 19.31-28.575 0-21.2-18.311-21.047-25.51-17.625z"
                fill="#ef4d3c" stroke-width=".9621" /></g>
        <g transform="matrix(1.0146 0 0 -1.0146 291.22 569.25)" stroke-width=".73918"><path d="m-236.89 459.21c-2.1812 0.26801-3.4473 6.1881-3.4473 8.1465-4.2748-7.1214-16.762-8.8794-15.338-7.4551-1.4243-1.4243-3.3e-4 11.395 7.123 15.668-2.8485 0-14.243 2.8483-4.2715 7.1211 3.5457 1.5203 5.978 2.3002 7.8105 2.6992 0.0286 3.122 1.398 6.7388 4.4707 11.117 0.39561 0.57873 0.81134 1.1516 1.25 1.7188 0.0697 0.0906 0.14572 0.18415 0.21679 0.27539 0.18048 0.22766 0.36412 0.45473 0.55469 0.67969 1.7333 2.1596 3.8117 4.4777 6.3516 7.0176 2.0108 2.0106 4.1982 3.9404 6.4785 5.7793 0.82078 0.74515 1.7779 1.4549 2.7695 2.1543 14.629 10.949 32.001 17.766 34.908 14.857 2.1056-2.1055-0.90515-11.803-6.8691-22.541 3e-3 -5e-3 5e-3 -0.0103 8e-3 -0.0156-0.60229-1.1243-1.2578-2.2355-1.9492-3.3359-3.5543-5.9009-7.8984-11.907-12.736-16.988-0.92435-1.0126-1.9444-1.9986-2.998-2.9766-7.5386-7.2197-13.215-10.537-17.828-11.064-0.34365-1.8694-1.1417-4.4894-2.9961-8.8164-1.3359-3.1162-2.5164-4.1628-3.5078-4.041z" fill-opacity=".2"/>
            <g transform="matrix(0,-2.0145,-2.0145,0,-183.81,527.99)" stroke-width=".73918"><g clip-path="url(#clipPath16-1-4-4)"><g transform="translate(31.096,27.067)"><path d="m0 0c3.535 2.122 4.408 8.32 3.701 7.613 0.707 0.707-5.657 0-7.778-3.536 0 1.414-1.414 7.071-3.535 2.121-2.122-4.949-1.415-5.656-1.415-7.071 0-1.414 2.829-1.414 2.829-1.414s-0.125-2.704 1.29-2.704c1.414 0 1.997-0.583 6.946 1.538 4.95 2.122-0.624 3.453-2.038 3.453" fill="#77b255"/></g><g
                transform="translate(22.422,12.406)"><path d="m0 0c-7.615-7.615-20.152-13.081-21.92-11.313-1.768 1.767 3.699 14.304 11.313 21.919 7.616 7.616 11.531 7.563 14.85 4.243 3.319-3.319 3.372-7.234-4.243-14.849" fill="#f4900c"/></g></g>
                <g clip-path="url(#clipPath32-8-7)"><g transform="translate(16.209,4.9121)" stroke-width=".73918"><g fill="#d67503" stroke-width=".73918"><path transform="translate(-.062527 24.548)" d="m0.95202-1.9737c2.292-4.583 3.631-4.9013 4.777-6.0463 1.146-1.146-4.7338-0.25284-7.0248 4.3312 0.72162 0.67491 1.48 1.2125 2.2478 1.7152z"/><path
                    transform="translate(-7.5479,16.477)"
                    d="m0.6283-1.2281c2.292-4.584 3.9547-5.6469 5.0997-6.7929 1.146-1.145-4.6912-0.19206-6.9822 4.3919 0.60584 0.88115 1.2117 1.7621 1.8825 2.401z" /><path
                    transform="translate(9,8)"
                    d="m-1.5785 0.75403c-4.582 2.291-5.2955 3.828-6.4415 4.974-1.145 1.147-0.22546-4.7789 4.3575-7.0709 0.71415 0.62618 1.4028 1.3475 2.0839 2.0969z" /><path
                    d="m-2.1622 0.99661c-4.582 2.291-4.7118 3.5854-5.8578 4.7314-1.146 1.147-1.0731-3.8489 3.5099-6.1409 0.79449 0.4256 1.58 0.88491 2.3479 1.4095z" /></g></g></g></g></g></g></svg>
