<?xml version="1.0" encoding="UTF-8"?>
<svg clip-rule="evenodd" fill-rule="evenodd"
    version="1.1" viewBox="0 0 290 290" xml:space="preserve" xmlns="http://www.w3.org/2000/svg">
    <g transform="matrix(1.3959 0 0 -1.3959 0 290)"><path d="m103.76 0.233c-1.348 0-2.615 0.525-3.568 1.478l-98.712 98.712c-0.954 0.953-1.479 2.22-1.479 3.568s0.525 2.615 1.478 3.569l98.713 98.712c0.953 0.953 2.22 1.478 3.568 1.478s2.615-0.525 3.568-1.478l98.712-98.712c0.954-0.954 1.479-2.221 1.479-3.569 0-1.347-0.525-2.614-1.479-3.568l-98.712-98.712c-0.953-0.953-2.22-1.478-3.568-1.478" fill="url(#_Linear1)"/>
        <path
            d="m133.77 179.83 39.365-39.365c0.28225-1.3919 0.43197-2.844 0.43197-4.3377 0-10.373-7.1967-18.781-16.075-18.781h-52.63c-8.8731 0-16.067 8.4074-16.067 18.781 0 7.6309 3.9 14.182 9.487 17.124 0.26721 7.5714 5.5627 13.633 12.108 13.633 2.3096 0 4.4444-0.79518 6.2812-2.1026 3.1592 7.8744 9.502 13.661 17.099 15.048z"
            fill="#7ba570" />
        <path
            d="m99.563 126.71c-0.28543 14.18-5.7324 25.501-12.433 25.501-4.9927 0-9.2891-6.2996-11.277-15.369-1.0042 1.3076-2.1713 2.1031-3.4326 2.1031-3.5775 0-6.4707-6.0612-6.6171-13.633-3.053-2.9404-5.184-9.4912-5.184-17.124 0-10.374 3.9317-18.78 8.7795-18.78h28.762c4.8508 0 8.784 8.4059 8.784 18.78 0 9.3527-3.201 17.086-7.3822 18.522z"
            fill="#a2d395" />
        <path
            d="m36.315 142.4c5.4875-2.4536 9.9476-7.4016 12.422-13.674 1.8053 1.3074 3.9043 2.1026 6.1745 2.1026 6.4345 0 11.641-6.0613 11.903-13.633 5.4925-2.9422 9.3265-9.4934 9.3265-17.124 0-10.373-7.0721-18.781-15.795-18.781h-39.73l-19.136 19.136c-0.95422 0.95351-1.4793 2.2201-1.4793 3.5683 0 1.3482 0.52511 2.6148 1.4779 3.569z"
            fill="#7eab72" />
        <path
            d="m16.315 85.587 163.86-11.024-72.852-72.853c-0.95279-0.95278-2.2201-1.4779-3.5683-1.4779-1.3475 0-2.6148 0.52511-3.5676 1.4779z"
            fill="#b3b3b3" />
        <path
            d="m66.822 35.08c6.7641 0.55591 13.927 0.85464 21.34 0.85464 18.47 0 35.388-1.854 48.462-4.9273l-29.297-29.297c-0.95279-0.95278-2.2201-1.4779-3.5683-1.4779-1.3475 0-2.6148 0.52511-3.5676 1.4779z"
            fill="#808080" />
        <path
            d="m163.9 149.7 42.142-42.142c0.95421-0.95422 1.4786-2.2208 1.4786-3.569 0-1.3468-0.52439-2.6141-1.4786-3.5683l-50.46-50.46-119.09 15.449-3.4802 3.4802z"
            fill="url(#_Linear2)" />
        <path
            d="m143.41 170.19 2.8662-2.8662-0.47639-0.2758h0.0602v-30.566h-3.8212v28.387l-17.91-10.375v-28.996h-3.8204v26.783l-10.268-5.9481v-30.387h-3.8212v28.173l-17.909-10.375v-32.774h-3.8204v30.561l-38.446-22.272s-2.8655-1.9099-2.8655 0.71638c0 2.627 1.4328 3.8212 1.4328 3.8212z"
            fill="#666" />
        <path
            d="m207.27 102.41c-0.0666-0.20274-0.14614-0.40046-0.23855-0.59317l-11.391-7.2705 4.2754-0.25073-0.33957-0.34028-15.879 0.97714-14.643-8.6933 21.54-1.2651-0.35962-0.35962-7.1573 0.43986-15.224-9.7162 12.379-0.72712-0.38183-0.38183-30.449 1.8733-16.222-8.8523 37.49-2.2021-0.39759-0.39759-17.03 1.0481-22.655-12.364-0.35819 0.32882 22.068 12.093-27.978 1.7207 1.2537 0.21921 7.292-0.42768-0.12823 0.11677 15.983 8.7584-8.8193 0.54302 1.2537 0.21921 26.474-1.5553-0.14686 0.15832 14.818 9.4956 0.59746 0.06089-24.191 1.4879 1.2537 0.21921 8.9354-0.52439-0.14041 0.18411 14.322 8.5378-7.5356 0.4635 1.2537 0.21921 18.273-1.0724-5e-3 5e-3z"
            fill="#595959" />
        <path d="m202.54 111.05 0.88258-0.88258-99.014-53.334-12.38 0.92485 108.39 53.834z"
            fill="#404040" />
        <path d="m199.93 113.67 2.8197-2.8197-99.774-53.839-12.38 0.92556z" fill="url(#_Linear3)" />
        <path d="m180.91 132.68 19.061-19.061-92.141-47.366 0.79232 17.159z" fill="#4d4d4d" />
        <path d="m93.428 106.79 49.908-6.2569-17.671-7.1638-50.672 7.6896z" fill="#b3b3b3" />
        <path d="m76.594 92.466 49.908-6.2569-17.671-7.1638-50.672 7.6896z" fill="#b3b3b3" />
        <path d="m74.898 93.046 0.096 8.0163 45.171-6.8414 6.1071-0.84748 0.15977-7.3379z"
            fill="#666" />
        <path d="m112.36 119.83 47.597-5.6678-16.642-6.7465-49.256 5.829z" fill="#b3b3b3" />
        <path d="m93.831 106.83-0.01282 6.5219 49.59-5.9349 0.21724-7.0056z" fill="#666" />
        <path d="m132.38 130.95 43.197-4.6032-15.782-5.3142-46.881 4.4783z" fill="#b3b3b3" />
        <path d="m112.54 119.87 0.16124 5.7339 47.187-4.5708 0.42166-6.5968z" fill="#666" />
        <path d="m174.84 138.76 4.8191-4.8191-5.0333-1.695-41.946 4.8936 15.861 4.3413z"
            fill="#b3b3b3" />
        <path d="m132.46 130.74 0.0502 6.3646 42.195-4.8589 0.39676-6.2072z" fill="#666" />
        <path
            d="m82.914 18.988-81.435 81.435c-0.95422 0.95351-1.4793 2.2201-1.4793 3.5683 0 1.3482 0.52511 2.6148 1.4779 3.569l98.713 98.712c0.95279 0.95278 2.2201 1.4779 3.5676 1.4779 1.3482 0 2.6155-0.52511 3.5683-1.4779l67.549-67.549c0.88616-5.4173 1.3468-10.983 1.3468-16.654 0-53.397-40.866-97.422-93.308-103.08z"
            fill="url(#_Radial4)" /></g>
    <g transform="matrix(1.3959 0 0 -1.3959 0 290)"><path d="m52.953 48.949c-3.1492 13.072-0.94419 28.041 6.6301 38.473 10.739 14.793 28.205 14.866 39.012 0.16692 10.806-14.703 10.86-40.017 0.12035-54.81-5.2833-7.277-12.196-10.652-19.14-10.452l-1.9894 1.9894c7.5635-0.88401 15.315 2.4479 20.956 10.216 10.315 14.21 10.264 37.876-0.11677 51.999-10.378 14.121-27.754 14.049-38.068-0.15975-7.6746-10.569-9.6109-25.985-5.827-38.999z" fill="#808080"/>
        <path
            d="m49.945 51.957c-0.44989 2.8505-0.68629 5.8106-0.68629 8.8458 0 23.052 13.649 41.738 30.489 41.738 16.839 0 30.488-18.686 30.488-41.738 0-21.711-12.109-39.55-27.588-41.549l-3.8097 3.8097c0.30088-0.01361 0.60391-0.02006 0.90908-0.02006 15.235 0 26.987 16.204 26.987 37.057 0 20.855-11.752 38.465-26.987 38.465-15.236 0-27.586-16.907-27.586-37.762 0-4.4373 0.55949-8.6961 1.5861-12.649z"
            fill="#242424" />
        <path
            d="m58.053 43.849 15.459 11.458 1.8912 1.9715-1.6355 2.2681-8.3852 1.427h-14.255v0.62898h10.557l-10.897 1.854 0.10531 0.61967 14.542-2.4737h6.85l-3.7001 5.1336-13.207 13.004 0.51794 0.57167 10.003-9.8502-7.7727 10.782 0.60606 0.47711 10.44-14.482 5.7246-5.6365h0.97714l-0.35676 4.2868-7.4862 29.137 0.48642 0.13611 6.7504-26.272-2.104 25.303 0.50218 0.0523 2.3512-28.271 1.1233-4.3713h1.4199l8.646 33.65 0.72856-0.20345-7.9797-31.057 12.151 27.207 0.68342-0.32309-12.928-28.947 23.09 24.08 0.53298-0.55591-22.869-23.849h1.3905l24.07 17.841 0.43198-0.63758-23.21-17.203h26.341v-0.62898h-27.19l-2.4858-1.8432 28.613-4.8678-0.10531-0.62038-29.207 4.9695-0.75865-0.56236 22.159-21.819-0.51722-0.57167-21.875 21.539 1.0302-4.0117 16.171-22.431-0.60677-0.47639-15.038 20.861 6.8622-26.707-0.48714-0.13611-7.1853 27.967-1.5316 2.1241-0.38255-1.4894 2.5489-30.65-0.55233 0.55304-2.3798 28.607-5.3614-20.867-0.6211 0.6211 5.7919 22.54-0.05373 0.64761-8.9304-19.996-0.57239 0.57239 9.3724 20.986-5e-3 0.06304-0.22064 0.30661-2.0983-1.5553-13.143-13.706-0.54445 0.54445 10.001 10.43-11.734-8.6968zm19.684 11.51 0.75578-1.0481-0.51221 1.9944zm-1.7917 2.4851 0.22208 0.23139-0.08955 1.0789-1.2272 0.20847zm1.2537 0.19486 0.12465 0.09313-0.01863 0.01863zm-0.56522 0.52296 0.12322 0.12823-0.14542 0.14328zm3.3792 2.412-1.081-1.1269-0.09814-0.21993-0.0745-0.29085 0.15402-0.02651 2.2444 1.6641zm-3.5797 0 0.08023-0.96281 0.36034-0.35461 0.25646-0.0437-0.34959 1.3611zm0.86897 0 0.34744-1.3525 0.54946 0.5731 0.20059 0.77942zm-3.6127 0 0.63686-0.88401 1.22-0.20703-1.1082 1.091zm-4.5562 0 4.1106-0.6999-0.50433 0.6999zm6.403 0 0.42553-0.41908-0.0351 0.41908zm0.84461 0.62898h0.23856l-0.35246 1.3704zm-3.1449 0h0.56307l-1.94 1.9106z"
            fill="#262626" />
        <path
            d="m18.915 125c8.8394 4.0432 24.762 2.0231 24.762 2.0231l14.148-0.71638 5.0147-34.565 19.88-9.1338 3.4028-4.2983s1.2537-0.89547-0.71638-4.6565c-1.97-3.761-1.7909-7.1638-10.029-6.0892-7.9117 1.0316-37.624-0.90908-39.97-1.0653l-16.585 16.585c-2.041 11.461-5.1844 29.349-5.5906 33.015-0.14542 1.3124-0.03295 2.4787 0.29515 3.5131z"
            fill="#262626" />
        <path
            d="m75.377 67.56c-8.2384 1.0746-56.691 16.551-58.644 27.996-1.9263 11.29-3.9157 23.188-4.218 25.911-1.6627 14.999 31.162 5.5519 31.162 5.5519l14.148-0.71638 5.0147-34.565 19.88-9.1338 3.4028-4.2983s1.2537-0.89547-0.71638-4.6565c-1.97-3.761-1.7909-7.1638-10.029-6.0892z"
            fill="#262626" />
        <path
            d="m19.858 123.8s0.71638 1.791 2.3282-4.8356c1.6119-6.6265 4.6565-25.969 4.6565-25.969l-1.7909-2.5073s-2.3282 8.4175-3.5819 17.73c-1.2537 9.3129-1.4328 13.432-2.6864 13.969-1.2537 0.53728 1.0746 1.6118 1.0746 1.6118z"
            fill="#4d4d4d" />
        <ellipse transform="scale(1,-1)" cx="75.493" cy="-59.163" rx="5.3084" ry="6.8239"
            fill="#333" />
        <path
            d="m126.48 20.868c-2.8576 0.43484-5.0777 3.564-5.0777 7.3543 0 4.0884 2.5818 7.4066 5.7611 7.4066 3.18 0 5.7618-3.3183 5.7618-7.4066 0-0.32452-0.0165-0.64402-0.048-0.95708z"
            fill="#262626" />
        <ellipse transform="scale(1,-1)" cx="126.55" cy="-28.223" rx="3.2782" ry="4.2145" />
        <path
            d="m58.642 67.44c-1.5917-0.04385-2.7091 0.14127-2.7583 0.5168-0.07023 0.53611 2.0605 1.2578 4.7562 1.6109 2.6949 0.35301 4.9404 0.20458 5.0106-0.33153 0.04919-0.37554-0.98282-0.84221-2.5328-1.2099 1.5924 0.04438 2.7097-0.14074 2.759-0.51671 0.04919-0.37554-0.98282-0.84221-2.5328-1.2099 1.5924 0.04438 2.7097-0.14074 2.759-0.51671 0.04919-0.37554-0.98282-0.84221-2.5328-1.2099 1.5924 0.04438 2.7097-0.14074 2.759-0.51671 0.04919-0.37554-0.98282-0.84221-2.5328-1.2099 1.5924 0.04438 2.7097-0.14074 2.759-0.51671 0.04919-0.37554-0.98282-0.84221-2.5328-1.2099 1.5924 0.04438 2.7097-0.14074 2.759-0.51671 0.04919-0.37554-0.98282-0.84221-2.5328-1.2099 1.5924 0.04438 2.7097-0.14074 2.759-0.51671 0.04919-0.37554-0.98282-0.84221-2.5328-1.2099 1.5924 0.04438 2.7097-0.14074 2.759-0.51671 0.07017-0.53568-2.0612-1.2579-4.7562-1.6109-2.6956-0.3531-4.9404-0.20415-5.0106 0.33153-0.04925 0.37597 0.98276 0.84264 2.5321 1.2098-1.5917-0.04385-2.7091 0.14127-2.7583 0.5168-0.04925 0.37597 0.98276 0.84264 2.5321 1.2098-1.5917-0.04385-2.7091 0.14127-2.7583 0.5168-0.04925 0.37597 0.98276 0.84264 2.5321 1.2098-1.5917-0.04385-2.7091 0.14127-2.7583 0.5168-0.04925 0.37597 0.98276 0.84264 2.5321 1.2098-1.5917-0.04385-2.7091 0.14127-2.7583 0.5168-0.04925 0.37597 0.98276 0.84264 2.5321 1.2098-1.5917-0.04385-2.7091 0.14127-2.7583 0.5168-0.04925 0.37597 0.98276 0.84264 2.5321 1.2098-1.5917-0.04385-2.7091 0.14127-2.7583 0.5168-0.04925 0.37597 0.98276 0.84264 2.5321 1.2098z"
            fill="#262626" />
        <path
            d="m105.65 19.511 31.521 12.895 0.35818 4.2983-7.522 0.53728-21.491-7.3429s-5.5519 0.35819-6.0892-1.2537c-0.53728-1.6119-0.17909-8.4175-0.17909-8.4175z"
            fill="#333" />
        <path
            d="m81.87 79.036 4.8714-8.5965 9.0264 2.0059 1.0029 4.5848s0.14328 3.7252-2.2924 3.7252c-2.4357 0-12.608-1.7193-12.608-1.7193z"
            fill="#313131" />
        <path
            d="m47.349 74.528 8.7738 21.259 21.015 0.81784 21.91-0.70025 14.129-0.98582 3.1086-51.309c-0.0563-4.7764-5.0258-6.4576-8.1656-5.8567 1.4094 6.1742-4.6519 23.91-6.5297 31.621-1.4818 6.0817-0.76759 7.2887-2.812 11.807l-24.445-5.5178-11.051-1.8486-6.2203-3.6561z"
            fill="#404544" />
        <path
            d="m100.84 65.529 15.304 4.1615 3.2436-30.234 13.435-2.3526-6.3069-6.4656-6.8693-1.4181-3.564 1.813-1.4819-2.6357-5.519-1.0918-2.045 7.6391 0.44761 9.2054z"
            fill="#3c2313" />
        <path
            d="m39.769 100.75 10.778 1.7177 11.688-6.5677 17.518-3.5847 12.666-1.3178 14.83-1.4399 0.91671-50.048c-0.27863-4.6472-5.5879-6.1147-8.8661-5.423 1.7674 5.9618-3.7997 23.431-5.4227 31.001-1.2808 5.9701-0.47344 7.1206-2.4184 11.588l-25.99-4.5397-11.72-1.4236-10.982 0.3593-7.6177 8.8427z"
            fill="#636363" />
        <path
            d="m94.933 75.239s-3.0446 8.4175-1.2537 10.567c1.7909 2.1491 7.1638 3.5819 7.1638 3.5819l5.0147 0.1791s-10.746 2.3282-13.074-0.89547c-2.3282-3.2237-2.3282-5.5519-2.3282-5.5519l1.2537-6.2683z"
            fill="#404544" />
        <path
            d="m92.907 61.369 16.303 3.5303 2.0266-29.539 16.287-2.983-9.1872-5.8427-7.2974-1.1468-3.6691 1.8858-1.6812-2.5151-5.8608-0.87503-1.8023 7.5051 0.89398 8.945z"
            fill="#61402b" />
        <path
            d="m93.189 72.445s-3.4601 7.4854-2.2924 12.465c1.0259 4.3735 9.3645 6.3958 10.602 5.1579 3.1829 2.7201 0.63829 5.1121 8.0234 5.1579l-27.079 2.1491-6.1609 1.1462-2.7222-1.4328-5.0147 0.71638h-6.1609l-10.459-7.8802-5.4445-5.5878-3.2953-4.5848s7.8802-7.0205 10.889-7.4503c3.0088-0.42983 13.325-2.8655 13.325-2.8655z"
            fill="#236a87" />
        <path
            d="m92.616 75.741c-0.66838 0.66838-2.215 1.6627-2.6771 6.1143-0.4026 3.8828 0.05158 2.4486-2.6477 3.6772-6.4388 2.9314-19.34 5.0204-17.886 7.2584 2.4479 3.7667 30.426-1.3411 31.664-2.579 3.1829 2.7201 1.0681 4.9688 8.4533 5.0147l-27.079 2.1491-6.1609 1.1462-2.7222-1.4328-5.0147 0.71638h-6.1609l-19.486-4.7281-7.5936-6.1609 0.5731-7.4503s15.187-6.734 18.196-7.1638c3.0088-0.42983 25.503-3.7252 25.503-3.7252z"
            fill="#2b5363" />
        <ellipse transform="scale(1,-1)" cx="100.02" cy="-16.225" rx="6.7358" ry="8.6588"
            fill="#5b5b5b" />
        <ellipse transform="scale(1,-1)" cx="99.307" cy="-16.225" rx="3.8326" ry="4.9269"
            fill="#333" />
        <path
            d="m60.872 57.121 15.223 9.6711c1.6247-0.48714 16.395 11.698 18.089 9.6711 0.31449-0.3761 0.76223-3.6371 1.8153-7.1846 4.2137-14.2 13.05-45.758 13.05-45.469 0 0-1.791-3.0446-4.1192-1.97-2.3282 1.0746-3.761-3.0446-3.761-3.0446l0.53728-4.4774h-3.5819s-2.1491 3.2237-0.1791 6.2683c1.97 3.0446 3.9401 4.1192 3.9401 4.1192l-10.208 39.58s-0.1791 5.0147-2.5073 5.1937c-2.3282 0.1791-25.969-17.014-25.969-17.014-3.1635 0.83601-3.9401 2.3877-2.3282 4.6565z"
            fill="#262626" />
        <path
            d="m32.87 69.033c3.8756 2.0316 18.521 8.3078 21.019 7.3601l2.68-14.069 12.4-3.1965-6.0333-1.8468 3.5389-1.4191 5.4953 2.493-3.0009 0.77297 6.4231 1.9665s1.5997-0.59961 1.7788-2.5697c0.17909-1.97-1.0746-3.2237-1.0746-3.2237l-22.328-7.1652-3.4401 3.4401c0.17766 1.5331 0.87398 2.1133 0.87398 2.1133l4.5497-0.52296-10.294 3.2803zm30.065-11.752-10.232 4.1027-11.314-0.19557 18.644-4.7954z"
            fill="#262626" />
        <path
            d="m59.655 134.49 5.5313-20.23s10.62-6.2063 12.625-7.0186c2.545-1.031 4.614-0.0797 6.1842 1.4872 0.42549 0.42391 2.9634-1.076 3.3155-0.58889 0.87387 1.2117-2.0635 6.2947-1.6546 7.3114 0.31813 0.79098 1.2102 2.2924 0.1642 3.4134-0.20367 0.21867 1.8622 1.1296-0.23603 2.4858-5.8589 3.7876-17.521 6.4976-18.151 7.564-2.0524 3.4734-7.7788 5.5755-7.7788 5.5755z"
            fill="#bb935c" />
        <path
            d="m84.511 114.66s-1.2537 0.89547 1.0746 8.4174 3.4028 13.969 3.4028 13.969-2.6864 2.8655-0.89547 5.731c1.7909 2.8655 2.5073 2.8655 2.5073 5.1938v6.6265l3.2237-0.53729 0.35819-6.0892 8.5965 0.71638-0.72784-3.4236-1.475-1.1641 0.41192-3.8298-2.8655-5.3728s-6.6265 0.53729-5.5519-6.4474c1.0746-6.9847 5.0147-10.925-0.1791-16.477-5.1937-5.5519-5.3728-3.2237-5.3728-3.2237z"
            fill="#c27430" />
        <path
            d="m92.49 128.77c0.0093-0.0874 0.0831 3.8892-1.7738 4.9624-1.8662 1.0789-1.7286 3.3154-1.7286 3.3154 0-0.45992 1.5925-1.1885 3.5038-0.7042 0.63113 0.15975 2.6148 1.1082 3.1127 1.6613 0.66265 0.73572 2.8254 6.3528 1.0903 6.191-1.182-0.10961-4.0332 0.33383-4.7338-0.7916-1.1985-1.9235-0.69346-5.9044 0.53084-7.0606 0.42051-0.39687-1.6355 6.0971-0.63973 6.5778 0.2013 0.0974 0.20202 3.17-0.05803 2.5439-0.77584-1.869 2.7731-1.1784 4.6565-0.29801 1.0495 0.49 0.53943 3.0253-0.4678 2.9558-1.9321-0.13396-5.3578-3.6442-4.1887-2.6578 1.9106 1.6119 0.71638 8.4175 0.71638 8.4175l1.3131 0.17909 0.35819-6.0892 8.5965 0.71638-0.72784-3.4236-1.475-1.1641 0.41192-3.8298-2.8655-5.3728s-6.3242 0.45275-5.6315-6.1286z"
            fill="#a85c31" />
        <path
            d="m63.072 163.3s-1.5352-5.8335-0.20488-9.0056c1.3303-3.1728 1.8425-4.5032 1.9443-8.1875 0.10244-3.6843-1.5345-6.754-1.5345-6.754s-1.1261-1.945-1.6376-4.1958c-0.5115-2.2516-1.1261-3.6843-1.1261-3.6843s-6.1401-2.2516-6.754-1.1262c-0.61394 1.1262-3.2753 0.61394-3.4795 3.7868-0.20488 3.1728-1.0237 7.2662-0.10244 8.8014s1.1254 1.5352 2.2516 3.377c1.1254 1.8418 10.643 16.988 10.643 16.988z"
            fill="#4f1f19" />
        <path
            d="m33.7 117.48s5.8266 0.88334 2.5371 3.3834c-3.2886 2.4992-7.3675 0.26287-7.3675 0.26287l-0.52653 4.6046 9.0781 9.6046 2.6319-0.26287 12.236 3.6834s8.3574-2.8292 9.9378-6.1281c2.4156-5.0435 4.9551-9.1594 4.0346-9.9488-0.92123-0.7894 4.2754-8.2492 4.2754-8.2492l-7.8561-6.5102 1.3728-9.8604c0.74677-2.7416-3.0771 3.2089-10.469-1.964-8.2832-5.7974-17.494-5.84-17.494-5.84-7.4267 5.6032-3.7449 3.8041-3.6131 4.2359 2.7392 9.0134-2.8561 15.734-1.9348 17.708z"
            fill="#d7b78b" />
        <path
            d="m30.542 112.2 10.975-11.438c0.74756-2.7416 13.155-5.5108 11.064-5.8124-7.6761-1.1075-16.247-6.1857-19.422-6.822-0.96465-0.1934-0.65047 3.2744-0.65047 3.2744-7.4267 5.6032-1.8827 9.3915-1.7509 9.8241 2.7392 9.0126-1.1367 9-0.21551 10.973z"
            fill="#a48253" />
        <path
            d="m40.053 135.07s10.49-9.6625 12.161-7.1552c1.6713 2.5073 0.59674 4.2983 0.59674 4.2983s2.5073-5.4918 3.8212-3.1041c1.3131 2.3877-0.71638 7.1638-0.71638 7.1638l-2.5073 1.791s2.1491-3.2237 0.35819-4.1786c-1.7909-0.95565-9.9104-0.47782-10.746 0.8353-0.83601 1.3138 0.35819 1.5524 0.35819 1.5524z"
            fill="#61402b" />
        <path
            d="m27.2 82.425s2.6739-0.89547 15.088 1.0746c12.414 1.97 32.659 4.8356 32.659 4.8356s9.9315 5.0147 11.459-1.4328 0.26128-17.551 0.26128-17.551l-9.14-2.1491-44.717 4.0003-5.6113 11.223"
            fill="#262626" />
        <path
            d="m83.974 88.156s-3.4028 2.1491-4.4774-2.3282c-1.0746-4.4774 0.35819-15.402 0.35819-15.402l2.3282-1.6119s-1.6119 12.537-0.71638 15.044c0.89547 2.5073 2.5073 4.2983 2.5073 4.2983z"
            fill="#4d4d4d" />
        <path
            d="m44.922 146.89s1.7268-2.9909 0.77681-5.8182-3.2846-6.4157-3.2846-6.4157 4.1742-2.7556 9.0345-2.2284c4.8609 0.52767 1.7814 5.9279 1.7814 5.9279l1.1632 4.4316z"
            fill="#ea972f" />
        <path
            d="m47.469 54.433-9.8151 36.631 0.57812 0.15474 10.038-37.463 0.02221-0.0043-3.3226 39.272 0.59603 0.05015 3.3362-39.431 1.3669-0.245 10.161 37.923 0.86467-0.23211-9.2914-34.676 15.431 32.844 0.81022-0.3804-16.77-35.694 0.0394-0.0072 27.617 27.617 0.63328-0.63328-24.674-24.673 28.892 20.107 0.5115-0.735-31.413-21.862h33.994v-0.71638h-30.568l30.39-5.4481-0.1268-0.70563-34.322 6.1537h-0.39616l-0.54875-0.38183-0.74933-0.74862-0.85822 0.85822 0.07307 0.27222h-0.3453zm-5.4753 5.4753-4.2732 4.2732-10.615 14.356 0.71996 0.53299z"
            fill="#5b5b5b" />
        <path
            d="m25.048 76.854c0.85106 1.4148 1.7795 2.7767 2.7846 4.0769 13.107 16.955 34.425 17.038 47.616 0.19127h-7.16e-4c12.013-15.348 13.139-40.783 3.3412-58.009l-0.88258 0.88258c9.9921 16.454 9.0916 40.894-2.6664 55.914-12.667 16.184-33.875 16.101-46.464-0.18268-0.96711-1.2508-1.859-2.5603-2.6778-3.9229z"
            fill="#fff" />
        <path
            d="m22.711 79.191c6.792 11.581 17.582 19.066 29.733 19.066 20.553 0 37.213-21.415 37.213-47.834 0-11.346-3.0733-21.769-8.2083-29.97l-2.8877 2.8877c4.3004 7.171 6.8221 16.255 6.8221 26.276 0 23.903-14.343 44.085-32.939 44.085-11.014 0-20.793-6.7977-26.936-17.308z"
            fill="#5b5b5b" />
        <path
            d="m24.037 77.865c6.3987 10.68 16.497 17.572 27.86 17.572 19.344 0 35.023-19.973 35.023-44.612 0-10.628-2.9178-20.389-7.7899-28.053l-2.7065 2.7065c4.0798 6.701 6.4746 15.208 6.4746 24.595 0 22.292-13.5 41.114-31.001 41.114-10.298 0-19.448-6.2561-25.236-15.947z"
            fill="#d5d5d5" />
        <path
            d="m44.421 57.482c1.0173 0.79375 2.2107 1.2508 3.4866 1.2508 3.718 0 6.7361-3.8799 6.7361-8.6589 0-0.87756-0.10173-1.725-0.29157-2.5231z"
            fill="#5b5b5b" />
        <path
            d="m45.996 55.906c0.29443 0.06806 0.59818 0.10388 0.90837 0.10388 2.6105 0 4.7302-2.5317 4.7302-5.6501 0-0.03009 0-0.06089-7.16e-4 -0.0917z"
            fill="#313131" />
        <path
            d="m65.305 161.25s-3.7287-2.2028-0.03747-6.3394c0.37165-0.41679 0.93098-3.1069-1.2349-6.8875-1.3387-2.3366-3.2616-7.6969-4.6577-7.9258-6.2208-1.0196-12.614 3.4175-13.38 4.4788-1.2816 1.7753-0.97431 4.7651-2.8129 5.0669-1.9055 0.31272-1.8973 1.1673-2.7996 2.3139-1.035 1.315-1.7881 5.3164-1.7968 7.0539-0.02188 4.2495 3.1318 7.8222 5.4978 9.4592 6.2519 4.3242 15.799 4.1059 18.565 0.60684 3.5204-4.452 2.4242-4.4814 2.656-7.8269z"
            fill="#ea972f" />
        <path
            d="m65.305 161.25s-3.7287-2.2028-0.03747-6.3394c0.37165-0.41679 0.93098-3.1069-1.2349-6.8875-1.3387-2.3366-3.2616-7.6969-4.6577-7.9258-1.0633-0.1744-3.1854-0.0139-2.6708-0.10101 3.4418-0.58203 7.2564 10.007 6.6219 10.886-0.36361 0.50302-7.9208 5.0871-2.4594 9.5063 1.8334 1.4827-0.97767-0.20455-3.5795 1.8143-6.2332 4.8382-7.6446 1.1981-8.8536 1.5714-5.2392 1.6146-5.2662 4.0613-4.35 4.6953 6.2519 4.3242 15.799 4.1059 18.565 0.60684 3.5204-4.452 2.4242-4.4814 2.656-7.8269z"
            fill="#a85c31" fill-opacity=".6" />
        <path
            d="m67.42 162.87c-0.10053-0.20301 1.1469 0.54327 0.06478 4.3556-0.60678 2.1391-2.8449 6.1854-2.8449 6.1854s-2.4821-1.748-5.9037-0.79407c-5.3095 1.481-12.387 3.1404-13.944 1.967-1.7201-1.2957-4.6331-0.56918-6.3588-1.9004-0.42162-0.32483 0.04615-2.1568-0.19972-3.088-0.2451-0.93192-3.2505-0.96303-2.3293-0.34917l-1.5856-3.9161s-1.1232-2.7331-1.2574-3.9872c-0.07996-0.74949-2.8651-4.8235-3.1694-11.215-0.04361-0.92357 0.05627-3.7206 1.4186-4.9632 1.3995-1.2767 2.2482-0.63403 2.747-2.7335 0.83098-3.4915-1.9348-7.9092-7.1788-3.0283-0.25194 0.2351-2.0685-2.3796 0.30393-4.0439 5.743-4.0294-1.9424-3.3943-2.9152-1.706-1.1034 1.9147 2.3377-17.129 19.361 1.9 3.2101 3.5882 3.5367 8.7773 1.3189 11.575l-0.98059 3.1204s-0.18699 0.28559-0.41952 0.89332c-0.07308 0.19067-0.38211-0.52433-0.74314-0.38588-1.7902 0.68591-1.7689 1.2154-2.0828 2.5933-0.01041 0.0469 0.11349-0.2407 2.2578 0.32095 1.635 0.42869 1.5457 1.1214 1.5457 1.1214l1.3108-2.3308 1.0894 1.0982s1.3854 0.5204 2.3401 2.2307c0.92947 1.664 1.1397 8.647 0.67917 10.534-0.17022 0.6976-0.07019-0.12407 1.028 0.50602 0.81891 0.47006-1.2676 4.1735 2.0095 3.1417 2.9571-0.93159 8.3751-3.567 9.6461-3.7712 0.62087-0.10056 0.84918-2.3294 1.3373-4.7921 0.2587-1.3032-0.25741-2.2364-0.26504-2.2963-0.01027-0.0747 1.3976 1.195 2.3124 2.7643 0.42056 0.721-0.13972 3.849-0.13972 3.849s2.4666-0.99736 1.5465-2.8563z"
            fill="#633d38" />
        <path
            d="m49.81 166.56 3.3211 1.3754s0.89547-0.35819 2.3282-0.71638 3.6714 0.1791 3.6714 0.1791l2.1491-0.35819 2.3282-2.4178 0.71638-3.8505-0.26864-1.5223 2.1491 2.1491v2.5073l-0.26864 2.1491 1.8805-1.8805s-0.35819 2.0596-0.98502 2.5969c-0.62683 0.53728-2.8655 1.7909-2.8655 1.7909l0.35819-2.3282s-6.0892 1.5223-6.8056 1.8805-4.4774 3.0446-4.4774 3.0446l-2.2387-0.44774-0.44774-1.97-3.0138-0.68199 1.604-3.5826c0.2536-3.3319 0.80234-2.8283 1.306-2.9171z"
            fill="#4f1f19" />
        <path
            d="m37.371 167.58 2.2387 1.1641 0.26864-2.0596 1.4328 0.35819 1.6119 1.2537 0.71638-5.6415 3.0446 4.6565 1.5223-0.53728-0.26864-3.2237-0.89547-3.4924-5.1042-3.1342s-2.0596-1.7014-2.3282-2.5969-0.44774 3.2237-0.44774 3.2237l0.89547 3.9401-3.9401-3.2237-0.08955 3.4923-1.8805-1.5223 0.08955 3.2237z"
            fill="#bb8881" />
        <path
            d="m34.864 142.86 0.35819-2.776s0.53728-0.44774-0.35819-1.791-3.1342-1.7014-3.1342-1.7014l-2.5969 0.26864 1.7909-1.4328 2.5969 0.53729 1.7909 0.53728 1.8805-0.35819 1.2537 1.5223-0.32309-0.39258 1.6663-0.95063 1.3432 1.3432s0.08955 1.4328 0.1791 2.5969c0.08955 1.1641-0.80593 3.2237-0.80593 3.2237l-0.1791-2.1491-1.4328-1.791-0.89547 1.97-0.98502-1.5223-0.53728 2.1491z"
            fill="#bb8881" />
        <path
            d="m61.543 148.21s-1.1422-0.64215-3.4155-0.22846c-2.2733 0.41368-4.3587 0.46276-4.3587 0.46276s0.04839-1.3483 1.9993-2.5378c1.9509-1.1896 5.5332 1.8417 5.5332 1.8417z"
            fill="#fff2e6" />
        <path
            d="m61.549 148.14s-1.0647-1.2134-2.7095-0.95442c-0.74702 0.11724-3.3247 0.79155-4.0212 1.1152-0.96959 0.45123-1.6134 0.32142-1.5066 0.15255 0.38121-0.59808 0.57523-1.9133 2.4446-2.8726 2.0321-1.0421 3.7325 0.0875 3.7325 0.0875z" />
        <path
            d="m56.959 145.26c0.8023 0.15975 0.98555 2.7389-1.0446 2.856-1.3221 0.0761-2.508 0.36723-2.508 0.36723s0.31393-0.81693 0.61311-1.3623 0.39038-0.98448 1.6794-1.4606c0.46241-0.17108 0.81133-0.48934 1.2601-0.40027z"
            fill="url(#_Linear5)" />
        <path
            d="m64.395 160.76s-0.09446 1.0564-1.2917 0.71863c-1.1972-0.33774-1.9662-0.59438-1.9662-0.59438l-0.37814-1.1597s1.9304 0.58887 2.5582 0.80844c0.62777 0.21956 1.0779 0.22699 1.0779 0.22699z"
            fill="#423534" />
        <path
            d="m50.161 160.62s1.27 1.6979 2.6461 1.5207 3.1506-0.75784 3.1506-0.75784l-0.3941-1.0758s-2.079 0.39723-2.8099 0.55209c-0.73092 0.15487-2.5927-0.23911-2.5927-0.23911z"
            fill="#423534" />
        <ellipse transform="rotate(183.83)" cx="-72.636" cy="-151.6" rx=".74916" ry="1.1327" />
        <ellipse transform="rotate(183.83)" cx="-62.812" cy="-151.75" rx="1.1706" ry="1.3609" />
        <path
            d="m59.258 159.11s-0.5691-2.3576 0.54983-4.6016c1.1197-2.2447 3.821-2.7964 3.821-2.7964s-0.93902-2.2601-2.49-2.6077c-1.5517-0.34842-2.5162-0.41293-2.5162-0.41293l0.3211 0.63231s-0.10454-0.25162 1.8721 0.97923c1.9774 1.2309 0.90831 0.91549 0.90831 0.91549s-1.6217 1.1227-2.511 3.1279c-0.99886 2.2528 0.04475 4.7637 0.04475 4.7637"
            fill="#a85c31" />
        <path
            d="m46.41 144.15s1.7126-1.5995 3.483-2.4543c1.7698-0.85512 4.0362-0.97071 4.0362-0.97071l-0.85561-2.8076s-3.8591 2.4155-5.1954 3.924c-1.3366 1.5076-1.4563 1.844-1.4682 2.3085z"
            fill="#a85c31" fill-opacity=".45" />
        <path
            d="m27.486 122.29s-0.71678-8.4071-0.96702-12.019c-0.46732-6.7636 0.30787-13.615 3.3731-16.378 2.1338-1.9238 26.698 1.0294 28.891 0.46811 0.80835-0.20682 1.383-2.32 2.0359-3.8902 1.4122-3.3968 1.4564-5.5732 1.4564-5.5732l5.3308-0.45075 0.28261-3.2705 3.5823-0.17919 0.06868 7.9501 2.1898-3.4007-1.5054 8.1071-6.4684 6.0634-3.2239 0.53758-24.81 4.3583 1.0862 10.784s0.64652 1.9782 0.57942 3.5823c-0.11446 2.71-1.8567 3.786-4.6196 4.5754-2.7629 0.7894-7.2822-1.2654-7.2822-1.2654z"
            fill="#ea972f" />
        <path
            d="m60.998 89.699s0.71065-0.68199 2.1821-0.83816c0.60964-0.06447 2.0761 0.35676 2.5252 0.32667 0.65405-0.0437 1.6097-1.7401 2.4006-1.7544 1.0667-0.01934 2.3755-0.25861 2.3755-0.25861l1.1598 1.8081 0.51149 4.2983 1.6376-7.4711-2.1491 3.1728-0.20488-8.0851h-3.377l-0.61394 3.0704-5.4237 0.61394z"
            fill="#c27430" />
        <path
            d="m42.967 110.83c-0.69073-4.8319-2.4937-3.5247-3.1663-3.3305-1.3522 0.39075-0.02684-2.1069-0.46575-3.3652-0.42786-1.2259-5.0664-0.53363-7.0375-2.7905-1.3443-1.5401-4.7925-2.4511-5.195-2.2419-1.7785 0.92281 0.63942 3.8468-1.2725 4.0378-6.2142 0.62046-0.64652 31.65 11.592 32.197l2.6319-0.26287 5.1343-4.4025-2.7069-2.3248s0.79493-15.361 0.48627-17.517z"
            fill="#d7b78b" />
        <path
            d="m28.096 103.92s0.71638 2.5073 4.4774 3.0446c3.761 0.53729 5.9101 0.1791 5.9101 0.1791s-9.3129-1.4328-10.387-3.2237z"
            fill="#a48253" />
        <path
            d="m40.991 124.33s2.8655-4.4774 1.6119-10.208c-1.2537-5.731-0.53728-8.0077-2.3282-8.3659-0.70563-0.14113-1.3805-1.1799-0.48212-1.715 0.69847-0.41622 2.1792-0.30446 3.8011-0.72856 0.87255-0.22852 1.6025 3.0854 2.0539 4.5411 0.06304 0.20273 5.2575 0.65405 10.014 0.88831 0.72856 0.0358 4.837-8.4375 5.264-8.3644 0.50935 0.0874 2.9329-0.4764 3.0668-0.54947 0.95422-0.51508-0.37825 4.2746-0.3453 5.7833 0.03224 1.4535 1.4399 3.4515 1.4535 3.5031 0.38828 1.4342 5.6895 3.8928 5.4796 5.443-0.18626 1.3726-15.27-0.7307-22.589-0.45705-3.0976 0.11534-2.9099 3.0439-3.2395 3.6034-1.7909 3.0446-3.761 6.6265-3.761 6.6265z"
            fill="#a48253" /></g>
    <g transform="matrix(1.3959 0 0 -1.3959 0 290)"><path d="m165.75 60.135-6.451-6.451v88.261s1.157-0.11606 3.2065-0.11677c2.0488-1e-3 3.2445 0.11677 3.2445 0.11677z" fill="url(#_Linear6)"/>
        <rect transform="scale(1,-1)" x="135.82" y="-161.41" width="50.519" height="46.986"
            fill="#3c5c9b" />
        <path
            d="m138.55 119.88c0.65126 8e-5 1.1794-0.72237 1.1791-1.6117 3e-4 -0.89049-0.52783-1.6131-1.1789-1.6122-0.65045-2.6e-4 -1.1786 0.72219-1.1783 1.6115-3e-4 0.89049 0.52768 1.6122 1.1781 1.6124zm44.928 4.5e-4c0.65111-8.8e-4 1.1793-0.72333 1.1789-1.6127 4.5e-4 -0.88953-0.52768-1.6122-1.1789-1.6122-0.65044-2.5e-4 -1.1786 0.72219-1.1781 1.6125-4.5e-4 0.88953 0.52768 1.6122 1.1781 1.6124zm-45.13 39.799c0.65126 8e-5 1.1794-0.72237 1.1789-1.6127 4.5e-4 -0.88953-0.52768-1.6122-1.1789-1.6122-0.6503 7.1e-4 -1.1785 0.72316-1.1781 1.6125-4.4e-4 0.88953 0.52769 1.6122 1.1781 1.6124zm45.4-2e-5c0.65125 8e-5 1.1794-0.72237 1.1789-1.6127 4.5e-4 -0.88953-0.52769-1.6122-1.1789-1.6122-0.6503 7.1e-4 -1.1785 0.72316-1.1781 1.6125-4.5e-4 0.88952 0.52768 1.6122 1.1781 1.6124z"
            fill="#fff" />
        <path d="m135.82 161.41 1.1053 1.1665 50.557-0.0713-1.098-1.1588z" fill="#c7ebff" />
        <path d="m186.39 161.35-0.10994-46.857 1.238 2.475 0.0387 45.535z" fill="#1c3057" />
        <path
            d="m166.98 146.68-0.29444-3.3677c3.5425-1.4851 6.3371-5.1429 6.3371-9.3215 0-5.5075-4.342-9.9784-9.6905-9.9784-2.9321 0-5.5612 1.3432-7.3393 3.4644l-0.96998-3.5762c2.2401-1.9586 5.1415-3.1413 8.3093-3.1413 7.0914 0 12.85 5.9288 12.85 13.232 0 5.9982-3.8849 11.069-9.2019 12.689zm-12.875-0.99433c2.3877 0.24214 6.6365 0.67483 6.562 0.67984-0.0981 6e-3 0.58242 1.7021 0.62397 1.8346 0.47066 1.513 2.0796 1.7437 3.0374 1.1756 0.47997-0.2844 0.46493-0.8833 0.72497-1.3934 0 0-1.2386-13.386-1.6412-13.849l-7.7634-0.45132c-0.18984-0.22064-2.7452-9.2327-2.7452-9.2327-0.17909 0.26291-4.5268 0.86252-5.2095 1.6305-0.76438 0.86037-0.33742 1.5947 0.44344 1.7702 0.84031 0.18841 3.2015-0.40189 3.2832-0.0416 0.73787 3.243 1.8719 8.939 2.041 9.1618l6.7383 0.46923 0.27295 5.7138-7.7348-0.86753c-2.0281-0.0774-2.0976 2.9787-0.21061 3.2402 0 0 0.13826 0.0136 0.37896 0.038l0.0365 1.0423s-0.0459 0.79518 0.45418 0.7479c0.49932-0.0466 0.68128-0.65477 0.68128-0.65477zm8.714 4.8155c-1.6713-0.0903-3.0969 1.187-3.1865 2.8562-0.0895 1.6663 1.1885 3.0912 2.8562 3.1822 1.6706 0.091 3.0962-1.1863 3.1857-2.8555 0.091-1.667-1.1885-3.0926-2.8555-3.1829z"
            fill="#fff" />
        <path
            d="m184.86 149.04c0 6.1042-4.8132 11.06-10.742 11.06h-25.875c-5.9284 0-10.742-4.9559-10.742-11.06v-22.12c0-6.1052 4.8132-11.06 10.742-11.06h25.875c5.9284 0 10.742 4.9549 10.742 11.06zm-1.0178-0.47583c0 5.8417-4.6069 10.584-10.28 10.584h-24.762c-5.6734 0-10.279-4.7426-10.279-10.584v-21.17c0-5.8417 4.606-10.584 10.279-10.584h24.762c5.6734 0 10.28 4.7426 10.28 10.584z"
            fill="#fff" /></g>
    <defs>
        <linearGradient id="_Linear1" x2="1"
            gradientTransform="matrix(19.7 -27.406 27.406 19.7 61.477 163.04)"
            gradientUnits="userSpaceOnUse"><stop stop-color="#56ddff" offset="0"/>
            <stop stop-color="#c5e3ff" offset="1" /></linearGradient>
        <linearGradient id="_Linear2" x2="1"
            gradientTransform="matrix(-69.847 -72.712 -72.712 69.847 200.18 126.51)"
            gradientUnits="userSpaceOnUse"><stop stop-color="#ccc" offset="0"/>
            <stop stop-color="#808080" offset="1" /></linearGradient>
        <linearGradient id="_Linear3" x2="1"
            gradientTransform="matrix(-48.871 -62.683 -49.385 38.503 164.75 120.69)"
            gradientUnits="userSpaceOnUse"><stop stop-color="#ccc" offset="0"/>
            <stop stop-color="#808080" offset="1" /></linearGradient>
        <radialGradient id="_Radial4" cx="0" cy="0" r="1"
            gradientTransform="matrix(25.79 97.428 96.428 -25.525 77.584 136.49)"
            gradientUnits="userSpaceOnUse"><stop stop-color="#aef" stop-opacity=".72" offset="0"/>
            <stop stop-color="#c5e3ff" stop-opacity="0" offset="1" /></radialGradient>
        <linearGradient id="_Linear5" x2="1" y2="-.0063898"
            gradientTransform="matrix(3.5569 2.2405 -2.2271 3.5865 53.383 145.38)"
            gradientUnits="userSpaceOnUse"><stop offset="0"/>
            <stop stop-color="#b83d00" offset="1" /></linearGradient>
        <linearGradient id="_Linear6" x2="1"
            gradientTransform="matrix(6.0715 0 0 -6.0715 159.57 87.112)"
            gradientUnits="userSpaceOnUse"><stop stop-color="#767676" offset="0"/>
            <stop stop-color="#b4b4b4" offset=".31" />
            <stop stop-color="#3e3e3e" offset="1" /></linearGradient>
    </defs>
</svg>
