<?xml version="1.0" encoding="UTF-8" standalone="no"?>
<svg
   xmlns:dc="http://purl.org/dc/elements/1.1/"
   xmlns:cc="http://creativecommons.org/ns#"
   xmlns:rdf="http://www.w3.org/1999/02/22-rdf-syntax-ns#"
   xmlns:svg="http://www.w3.org/2000/svg"
   xmlns="http://www.w3.org/2000/svg"
   xmlns:sodipodi="http://sodipodi.sourceforge.net/DTD/sodipodi-0.dtd"
   xmlns:inkscape="http://www.inkscape.org/namespaces/inkscape"
   width="96"
   height="96"
   viewBox="0 0 96 96"
   version="1.1"
   id="svg916"
   inkscape:version="1.0 (4035a4fb49, 2020-05-01)"
   sodipodi:docname="buddhist.svg">
  <defs
     id="defs910" />
  <sodipodi:namedview
     id="base"
     pagecolor="#ffffff"
     bordercolor="#666666"
     borderopacity="1.0"
     inkscape:pageopacity="0.0"
     inkscape:pageshadow="2"
     inkscape:zoom="7.919596"
     inkscape:cx="31.136699"
     inkscape:cy="32.13581"
     inkscape:document-units="px"
     inkscape:current-layer="layer1"
     inkscape:document-rotation="0"
     showgrid="true"
     units="px"
     inkscape:window-width="1670"
     inkscape:window-height="1038"
     inkscape:window-x="716"
     inkscape:window-y="184"
     inkscape:window-maximized="0">
    <inkscape:grid
       type="xygrid"
       id="grid1479"
       empspacing="6"
       spacingx="4"
       spacingy="4" />
  </sodipodi:namedview>
  <metadata
     id="metadata913">
    <rdf:RDF>
      <cc:Work
         rdf:about="">
        <dc:format>image/svg+xml</dc:format>
        <dc:type
           rdf:resource="http://purl.org/dc/dcmitype/StillImage" />
        <dc:title />
      </cc:Work>
    </rdf:RDF>
  </metadata>
  <g
     inkscape:label="Layer 1"
     inkscape:groupmode="layer"
     id="layer1">
    <path
       d="m 47.935547,3.9414062 c -2.207018,0.037795 -3.966816,1.8534923 -3.933594,4.0605469 l 0.210938,4.2031249 c -7.096856,0.747477 -13.58614,3.569999 -18.853516,7.845703 l -2.783203,-3.076172 c -3.765656,-4.075163 -9.727532,1.886725 -5.652344,5.652344 l 3.082031,2.789063 C 15.745046,30.684677 12.93183,37.16907 12.195312,44.259766 L 8.0488281,44.052734 c -5.5442647,-0.218835 -5.5442647,8.213051 0,7.994141 l 4.1601559,-0.207031 c 0.754281,7.057814 3.562774,13.512798 7.810547,18.759765 l -3.25,2.941407 c -1.619414,1.571301 -1.619339,4.170811 0,5.742187 1.587326,1.533883 4.11521,1.496484 5.652344,-0.08789 l 2.9375,-3.248046 c 5.267376,4.277026 11.75666,7.10183 18.853516,7.849609 L 44.001953,88 c -0.218835,5.544303 8.213051,5.544303 7.994141,0 l -0.208985,-4.201172 c 7.075303,-0.74434 13.546534,-3.554245 18.804688,-7.808594 l 2.898437,3.203125 c 1.571289,1.619414 4.170811,1.619338 5.742188,0 1.533883,-1.587326 1.496446,-4.11521 -0.08789,-5.652343 l -3.199219,-2.894532 c 4.268712,-5.256718 7.088487,-11.731555 7.84375,-18.8125 l 4.257813,0.212891 c 2.256177,0.03402 4.09445,-1.804358 4.060547,-4.060547 -0.0378,-2.207017 -1.853504,-3.966816 -4.060547,-3.933594 l -4.244141,0.212891 C 83.065269,37.151266 80.241226,30.645789 75.958984,25.367188 l 3.029297,-2.740235 c 4.075162,-3.765656 -1.886736,-9.727544 -5.652343,-5.652344 l -2.746094,3.033203 C 65.331916,15.755316 58.861882,12.947088 51.787109,12.203125 L 51.996094,8.0019531 C 52.030114,5.7457639 50.191736,3.9075038 47.935547,3.9414062 Z m -3.324219,16.2656248 0.804688,16.089844 a 11.999976,11.999976 0 0 0 -3.902344,1.607422 L 30.705078,25.958984 c 3.92087,-3.077178 8.687176,-5.126555 13.90625,-5.751953 z m 6.775391,0 c 5.197557,0.621392 9.947073,2.654371 13.859375,5.708985 l -10.826172,11.96289 a 11.999976,11.999976 0 0 0 -3.835938,-1.589844 z m 18.666015,10.50586 c 3.082734,3.932939 5.131719,8.715241 5.748047,13.951171 L 59.714844,45.46875 a 11.999976,11.999976 0 0 0 -1.611328,-3.943359 z m -44.138672,0.05078 11.958985,10.822266 a 11.999976,11.999976 0 0 0 -1.595703,3.876953 L 20.207031,44.660156 c 0.614249,-5.212006 2.647088,-9.97409 5.707031,-13.896484 z M 48,42 a 5.9999997,5.9999997 0 0 1 6,6 5.9999997,5.9999997 0 0 1 -6,6 5.9999997,5.9999997 0 0 1 -6,-6 5.9999997,5.9999997 0 0 1 6,-6 z m 11.699219,8.632812 16.08789,0.802735 c -0.632353,5.203082 -2.679739,9.955162 -5.75,13.865234 L 58.082031,54.484375 a 11.999976,11.999976 0 0 0 1.617188,-3.851563 z m -23.390625,0.0039 a 11.999976,11.999976 0 0 0 1.568359,3.804687 L 25.929688,65.251953 c -3.048076,-3.899755 -5.078711,-8.632808 -5.708985,-13.8125 z m 5.21289,7.449219 a 11.999976,11.999976 0 0 0 3.894532,1.625 l -0.802735,16.076171 c -5.219036,-0.625058 -9.985266,-2.6732 -13.90625,-5.75 z m 12.90625,0.04297 10.816407,11.951172 c -3.912,3.053858 -8.660583,5.087705 -13.857422,5.708984 L 50.583984,59.703125 a 11.999976,11.999976 0 0 0 3.84375,-1.574219 z"
       inkscape:label="#path12673"
       style="color:#000000;font-style:normal;font-variant:normal;font-weight:normal;font-stretch:normal;font-size:medium;line-height:normal;font-family:sans-serif;font-variant-ligatures:normal;font-variant-position:normal;font-variant-caps:normal;font-variant-numeric:normal;font-variant-alternates:normal;font-feature-settings:normal;text-indent:0;text-align:start;text-decoration:none;text-decoration-line:none;text-decoration-style:solid;text-decoration-color:#000000;letter-spacing:normal;word-spacing:normal;text-transform:none;writing-mode:lr-tb;direction:ltr;text-orientation:mixed;dominant-baseline:auto;baseline-shift:baseline;text-anchor:start;white-space:normal;shape-padding:0;clip-rule:nonzero;display:inline;overflow:visible;visibility:visible;opacity:1;isolation:auto;mix-blend-mode:normal;color-interpolation:sRGB;color-interpolation-filters:linearRGB;solid-color:#000000;solid-opacity:1;vector-effect:none;fill:#ffb700;fill-opacity:1;fill-rule:nonzero;stroke:none;stroke-width:8.00001;stroke-linecap:square;stroke-linejoin:miter;stroke-miterlimit:4;stroke-dasharray:none;stroke-dashoffset:0;stroke-opacity:1;paint-order:normal;color-rendering:auto;image-rendering:auto;shape-rendering:auto;text-rendering:auto;enable-background:accumulate"
       id="buddhist" />
  </g>
</svg>
