<?xml version="1.0" encoding="UTF-8" standalone="no"?>
<svg
   xmlns:dc="http://purl.org/dc/elements/1.1/"
   xmlns:cc="http://creativecommons.org/ns#"
   xmlns:rdf="http://www.w3.org/1999/02/22-rdf-syntax-ns#"
   xmlns:svg="http://www.w3.org/2000/svg"
   xmlns="http://www.w3.org/2000/svg"
   xmlns:sodipodi="http://sodipodi.sourceforge.net/DTD/sodipodi-0.dtd"
   xmlns:inkscape="http://www.inkscape.org/namespaces/inkscape"
   sodipodi:docname="chinese_folk.svg"
   inkscape:version="1.0 (4035a4fb49, 2020-05-01)"
   id="svg916"
   version="1.1"
   viewBox="0 0 96 96"
   height="96"
   width="96">
  <defs
     id="defs910" />
  <sodipodi:namedview
     inkscape:window-maximized="0"
     inkscape:window-y="184"
     inkscape:window-x="716"
     inkscape:window-height="979"
     inkscape:window-width="1663"
     units="px"
     showgrid="true"
     inkscape:document-rotation="0"
     inkscape:current-layer="layer1"
     inkscape:document-units="px"
     inkscape:cy="61.156534"
     inkscape:cx="79.941489"
     inkscape:zoom="5.6"
     inkscape:pageshadow="2"
     inkscape:pageopacity="0.0"
     borderopacity="1.0"
     bordercolor="#666666"
     pagecolor="#ffffff"
     id="base">
    <inkscape:grid
       spacingy="4"
       spacingx="4"
       empspacing="6"
       id="grid1479"
       type="xygrid" />
  </sodipodi:namedview>
  <metadata
     id="metadata913">
    <rdf:RDF>
      <cc:Work
         rdf:about="">
        <dc:format>image/svg+xml</dc:format>
        <dc:type
           rdf:resource="http://purl.org/dc/dcmitype/StillImage" />
        <dc:title></dc:title>
      </cc:Work>
    </rdf:RDF>
  </metadata>
  <g
     id="layer1"
     inkscape:groupmode="layer"
     inkscape:label="Layer 1">
    <path
       style="fill:#fa1313;stroke-width:0.459303"
       d="M 40.415953,90.501911 C 36.483861,89.88668 31.183387,88.202069 27.785089,86.487675 18.958879,82.034862 10.380258,72.630755 6.8910929,63.583057 5.2587112,59.350062 4.0104391,54.022742 4.2229468,52.195794 l 0.1376126,-1.183143 6.2006096,-0.229795 6.20061,-0.229796 0.138595,-2.943685 c 0.09627,-2.044233 -0.04422,-3.059527 -0.459311,-3.322923 -0.328856,-0.20863 -3.262647,-0.382601 -6.5194995,-0.386532 L 4,43.892361 4.2808567,41.205268 C 4.4352882,39.727397 5.1060183,36.782087 5.7712832,34.660222 11.2419,17.211277 26.643422,5.1463825 44.813448,4.0761715 60.115017,3.1748676 74.674989,10.320518 83.249036,22.939416 87.001968,28.46278 90.48007,37.698925 90.48007,42.141608 v 1.750753 h -5.653515 c -7.034,0 -7.311319,0.152315 -7.118128,3.916913 l 0.14056,2.742993 6.200584,0.229795 6.200666,0.229795 0.140977,1.454702 C 90.640662,55.038301 88.700189,61.866585 86.366818,66.62826 79.904495,79.815826 67.22887,88.907366 52.778447,90.719272 47.976221,91.321464 45.36343,91.275354 40.415582,90.501193 Z m 16.075661,-7.631357 c 1.894624,-0.48189 4.76623,-1.494199 6.381316,-2.249991 3.156465,-1.477039 8.775731,-5.282797 8.775731,-5.94361 0,-0.496894 -2.252636,-2.306607 -2.871073,-2.306607 -0.247937,0 -1.426299,0.716144 -2.618755,1.591521 -4.630417,3.39908 -14.267736,6.772233 -15.171323,5.310198 -0.594119,-0.961323 -0.602755,-26.458318 -0.0094,-27.567156 0.471409,-0.880819 0.951076,-0.92194 10.76245,-0.92194 11.485395,0 10.826623,0.210142 10.826623,-3.449537 0,-3.421304 -0.06225,-3.440013 -11.466266,-3.440013 -9.121297,0 -10.050611,-0.07219 -10.332446,-0.803792 -0.425583,-1.104605 -0.183383,-26.574992 0.25954,-27.291591 0.777868,-1.25862 8.831131,1.24029 13.748904,4.266218 2.563971,1.577574 3.140399,1.538419 4.113563,-0.280063 0.637443,-1.191081 0.605661,-1.307868 -0.622492,-2.287182 -2.086177,-1.663445 -7.734783,-4.276686 -11.620002,-5.375773 -4.933126,-1.39559 -13.49221,-1.403678 -18.594554,-0.02268 -5.475556,1.487509 -14.631813,6.599282 -14.631813,8.168769 0,0.830513 2.29771,2.542299 2.924632,2.178822 0.286073,-0.165922 1.414141,-0.907049 2.506798,-1.647156 4.413566,-2.989418 12.637384,-5.954797 14.515639,-5.234041 0.655336,0.25096 0.721935,1.791458 0.613549,14.187893 l -0.121587,13.905789 -10.563999,0.250961 c -5.810192,0.137952 -10.62511,0.292913 -10.699805,0.344315 -0.07468,0.05102 -0.07468,1.488151 0,3.19336 l 0.135799,3.100271 10.068695,0.123969 c 6.483171,0.08013 10.285962,0.304252 10.678825,0.630425 0.482423,0.400252 0.610133,3.38177 0.610133,14.243641 0,11.87932 -0.0946,13.773657 -0.6995,14.005758 -1.718381,0.659338 -9.890665,-2.225084 -13.822836,-4.878879 -1.132275,-0.764107 -2.334569,-1.389355 -2.671775,-1.389355 -0.814427,0 -2.230563,2.203654 -1.926066,2.997241 0.4128,1.075692 7.059391,4.664126 10.995791,5.936504 6.889376,2.226822 13.495862,2.435452 20.525606,0.647925 z m 7.693334,-13.780876 c 1.326244,-0.990803 2.411358,-1.992416 2.411358,-2.225802 0,-0.233575 -1.498474,-0.485291 -3.329965,-0.559257 L 59.936392,66.16969 59.797608,63.758314 59.658824,61.346975 h 8.291463 c 6.510819,0 8.291494,0.128126 8.291494,0.599018 0,0.329574 -0.579311,1.517934 -1.287379,2.64102 -0.708034,1.123087 -1.43602,2.288013 -1.617747,2.588712 -0.405101,0.670413 1.396365,2.438702 2.484536,2.438702 1.449744,0 5.972096,-8.288277 6.098321,-11.176592 l 0.06361,-1.454286 -11.712245,-0.12926 c -6.441752,-0.07106 -12.177313,-0.01512 -12.745694,0.12359 -1.02071,0.249827 -1.033428,0.347717 -1.033428,7.975597 0,4.247584 0.128541,7.85144 0.285581,8.008479 0.413291,0.413518 4.602194,-1.776454 7.407757,-3.872428 z M 38.119432,65.070566 c 0,-6.651515 -0.10371,-7.798829 -0.72652,-8.037808 -1.143934,-0.439143 -23.772892,-0.311055 -24.482555,0.137953 -0.438811,0.277795 -0.536126,0.810368 -0.313549,1.715376 0.583706,2.37377 3.428107,7.829178 5.349127,10.25949 l 1.886249,2.38628 1.105814,-1.038878 c 1.481885,-1.392152 1.393365,-2.014413 -0.744385,-5.232303 -1.003329,-1.510261 -1.824235,-3.013379 -1.824235,-3.340271 0,-0.469115 1.766072,-0.567987 8.382305,-0.469115 l 8.3823,0.125481 0.144492,1.754419 c 0.210066,2.551256 -0.442848,3.068296 -3.875146,3.068296 -2.037188,0 -2.929229,0.17537 -2.929217,0.57411 2.6e-5,1.176945 7.033905,5.829127 8.841592,5.847798 0.734117,0.0076 0.803785,-0.664176 0.803785,-7.750677 z m 0,-35.216882 v -8.0688 L 37.086,22.093293 c -2.75655,0.82235 -8.773954,5.004057 -8.481238,5.893984 0.09487,0.288 1.585709,0.62177 3.35006,0.749178 l 3.179135,0.229796 0.144491,1.754418 c 0.245254,2.97876 -0.0079,3.068297 -8.670724,3.068297 -4.979119,0 -7.832519,-0.174237 -8.027799,-0.490281 -0.166678,-0.269102 0.474852,-1.750412 1.42555,-3.290608 l 1.728514,-2.800441 -1.308351,-1.043225 c -0.890487,-0.710097 -1.53781,-0.919105 -2.026783,-0.654652 -0.939651,0.508195 -3.499,4.775055 -4.882798,8.140309 -1.909882,4.644737 -2.932672,4.272529 11.742879,4.272529 h 12.860526 z m 44.093228,6.962078 c 0,-1.66337 -4.298665,-9.858179 -6.406545,-12.213089 -1.804468,-2.016038 -1.867597,-2.044271 -2.564383,-1.148297 -1.34428,1.728567 -1.312052,2.857021 0.133946,4.69716 1.922646,2.446374 3.028003,4.74017 2.526048,5.242167 -0.230023,0.229795 -3.916184,0.361322 -8.19173,0.291401 l -7.77374,-0.126236 -0.138784,-2.411376 -0.138822,-2.411377 h 2.982376 c 3.769523,0 4.202948,-0.608353 1.849523,-2.595855 -2.282483,-1.927597 -6.937145,-4.436447 -7.539878,-4.063937 -0.276774,0.171213 -0.459167,3.374551 -0.459167,8.064832 v 7.781026 h 12.860569 12.860462 z"
       id="chinese"
       inkscape:connector-curvature="0"
       inkscape:label="#path3021" />
  </g>
</svg>
