<?xml version="1.0" encoding="UTF-8" standalone="no"?>
<svg
   xmlns:dc="http://purl.org/dc/elements/1.1/"
   xmlns:cc="http://creativecommons.org/ns#"
   xmlns:rdf="http://www.w3.org/1999/02/22-rdf-syntax-ns#"
   xmlns:svg="http://www.w3.org/2000/svg"
   xmlns="http://www.w3.org/2000/svg"
   xmlns:sodipodi="http://sodipodi.sourceforge.net/DTD/sodipodi-0.dtd"
   xmlns:inkscape="http://www.inkscape.org/namespaces/inkscape"
   sodipodi:docname="confucian2.svg"
   inkscape:version="1.0 (4035a4fb49, 2020-05-01)"
   id="svg916"
   version="1.1"
   viewBox="0 0 96 96"
   height="96"
   width="96">
  <defs
     id="defs910" />
  <sodipodi:namedview
     inkscape:window-maximized="0"
     inkscape:window-y="184"
     inkscape:window-x="716"
     inkscape:window-height="979"
     inkscape:window-width="1663"
     units="px"
     showgrid="true"
     inkscape:document-rotation="0"
     inkscape:current-layer="layer1"
     inkscape:document-units="px"
     inkscape:cy="61.156534"
     inkscape:cx="79.941489"
     inkscape:zoom="5.6"
     inkscape:pageshadow="2"
     inkscape:pageopacity="0.0"
     borderopacity="1.0"
     bordercolor="#666666"
     pagecolor="#ffffff"
     id="base">
    <inkscape:grid
       spacingy="4"
       spacingx="4"
       empspacing="6"
       id="grid1479"
       type="xygrid" />
  </sodipodi:namedview>
  <metadata
     id="metadata913">
    <rdf:RDF>
      <cc:Work
         rdf:about="">
        <dc:format>image/svg+xml</dc:format>
        <dc:type
           rdf:resource="http://purl.org/dc/dcmitype/StillImage" />
        <dc:title></dc:title>
      </cc:Work>
    </rdf:RDF>
  </metadata>
  <g
     id="layer1"
     inkscape:groupmode="layer"
     inkscape:label="Layer 1">
    <path
       sodipodi:nodetypes="ccccccccccccccccccccccccc"
       inkscape:connector-curvature="0"
       id="path4571"
       style="font-style:normal;font-variant:normal;font-weight:normal;font-stretch:normal;font-size:25.3978px;line-height:1.25;font-family:'Yu Gothic UI';-inkscape-font-specification:'Yu Gothic UI';letter-spacing:0px;word-spacing:0px;fill:#000000;fill-opacity:1;stroke:none;stroke-width:2.39979"
       d="m 92.872556,71.825976 c -2.082085,1.474167 -11.942944,7.74652 -16.593355,4.968303 -10.623277,-9.135307 -21.121992,-29.38303 -24.871846,-42.105374 0.49996,29.716196 -0.250092,44.855472 -0.250092,47.417727 -0.678515,7.493405 -4.560669,9.401764 -7.748681,9.436762 -4.002051,0.03024 -10.854989,-10.035364 -13.499613,-13.749392 0.992687,-2.880038 12.451259,4.992227 13.155162,4.562494 3.350449,-19.028183 1.078031,-45.710325 1.078031,-66.228662 0,-4.937083 -1.343721,-8.452422 -1.78119,-10.5459779 2.608124,0.3846803 9.211269,-0.3208819 10.811838,1.3123653 -2.823345,11.9447816 2.352147,24.6600946 7.75677,34.1782686 6.475328,-7.457197 13.110796,-11.903434 16.616009,-20.32029 2.062322,1.187414 5.296547,2.859174 6.702678,4.015332 1.269547,1.151735 0.668572,1.899439 -0.3281,2.624768 C 77.237474,33.203173 70.486867,40.666682 64,46.000049 71.968064,57.686537 81.592238,66.295205 92.872522,71.825976 Z m -77.352333,1.3903 C 12.808492,74.773101 7.0907515,75.848868 5.0363519,74.622789 18.410203,65.43608 27.75315,52.859022 33.065194,36.891652 25.751044,36.216137 19.043838,38.463217 12.035965,40.204105 10.501269,39.385346 7.6705696,32.584653 8.9109652,31.81397 19.375662,33.594505 29.892289,30.500659 38.415705,28.34803 c 2.115099,0.810255 3.87552,5.508132 3.951477,7.293732 -3.599059,14.891943 -18.093947,30.634999 -26.846959,37.574514 z" />
  </g>
</svg>
