<?xml version="1.0" encoding="UTF-8" standalone="no"?>
<svg
   xmlns:dc="http://purl.org/dc/elements/1.1/"
   xmlns:cc="http://creativecommons.org/ns#"
   xmlns:rdf="http://www.w3.org/1999/02/22-rdf-syntax-ns#"
   xmlns:svg="http://www.w3.org/2000/svg"
   xmlns="http://www.w3.org/2000/svg"
   xmlns:sodipodi="http://sodipodi.sourceforge.net/DTD/sodipodi-0.dtd"
   xmlns:inkscape="http://www.inkscape.org/namespaces/inkscape"
   sodipodi:docname="hindu.svg"
   inkscape:version="1.0 (4035a4fb49, 2020-05-01)"
   id="svg916"
   version="1.1"
   viewBox="0 0 96 96"
   height="96"
   width="96">
  <defs
     id="defs910" />
  <sodipodi:namedview
     inkscape:window-maximized="0"
     inkscape:window-y="184"
     inkscape:window-x="716"
     inkscape:window-height="979"
     inkscape:window-width="1663"
     units="px"
     showgrid="true"
     inkscape:document-rotation="0"
     inkscape:current-layer="layer1"
     inkscape:document-units="px"
     inkscape:cy="44.023232"
     inkscape:cx="61.838858"
     inkscape:zoom="5.6"
     inkscape:pageshadow="2"
     inkscape:pageopacity="0.0"
     borderopacity="1.0"
     bordercolor="#666666"
     pagecolor="#ffffff"
     id="base">
    <inkscape:grid
       spacingy="4"
       spacingx="4"
       empspacing="6"
       id="grid1479"
       type="xygrid" />
  </sodipodi:namedview>
  <metadata
     id="metadata913">
    <rdf:RDF>
      <cc:Work
         rdf:about="">
        <dc:format>image/svg+xml</dc:format>
        <dc:type
           rdf:resource="http://purl.org/dc/dcmitype/StillImage" />
        <dc:title></dc:title>
      </cc:Work>
    </rdf:RDF>
  </metadata>
  <g
     id="layer1"
     inkscape:groupmode="layer"
     inkscape:label="Layer 1">
    <path
       inkscape:connector-curvature="0"
       d="M 25.783318,90.408795 C 16.054478,86.932196 8.9903723,78.281198 6.1934244,66.418168 4.9240606,61.033966 4.5651314,52.137147 5.6174165,52.137147 c 0.3496289,0 1.2833442,2.441235 2.0749841,5.424983 1.7323767,6.529058 4.6871664,12.668674 7.5413404,15.669808 4.74085,4.984894 16.48328,6.937171 23.249125,3.86536 5.270422,-2.392856 7.407696,-8.080063 5.11587,-13.61314 -1.771034,-4.27559 -5.788799,-5.70531 -13.272678,-4.722898 0,0 -4.586532,-4.93697 -6.04774,-13.704264 l 4.701148,0.426255 c 5.662208,0.513449 9.93732,-0.73818 12.156174,-3.558955 2.085037,-2.650658 2.039951,-3.675855 -0.280365,-6.373304 -3.348127,-3.892422 -9.359866,-2.906418 -21.532028,3.531629 l -6.141619,-10.295169 2.574809,-1.963993 c 6.452481,-4.921512 17.65619,-7.382023 24.032248,-5.277657 5.807781,1.916712 10.070517,9.522179 8.931836,15.935773 -0.769859,4.335912 -4.246666,10.40897 -6.93278,12.109682 l -2.316514,1.466721 3.199775,1.442835 c 5.437425,2.451969 8.756855,0.577625 12.722789,-7.183861 5.488456,-10.74104 9.048121,-13.521638 17.325574,-13.533506 3.854139,-0.0076 5.225892,0.39874 8.036988,2.368706 7.015891,4.916636 10.836026,15.097738 9.996964,26.642645 -1.062807,14.621557 -7.988599,23.490294 -18.3441,23.490294 -5.683193,0 -9.346367,-1.993285 -12.262356,-6.672492 -2.561223,-4.11016 -3.715419,-12.250205 -2.244563,-15.83108 0.705645,-1.717871 0.833193,-1.776151 0.879326,-0.401877 0.08481,2.526727 2.959298,6.633259 5.598323,7.998047 6.475,3.348321 15.770336,-0.85852 19.447907,-8.801688 2.792122,-6.030728 1.294189,-17.662791 -2.538565,-19.714054 -0.80185,-0.429203 -2.783293,-0.780246 -4.403067,-0.780246 -3.44321,0 -6.147254,2.475364 -9.938302,9.097928 -1.310664,2.289713 -3.516415,5.248025 -4.901673,6.57411 -2.250682,2.154671 -3.054376,2.41115 -7.555736,2.41115 h -5.037234 l 1.628209,3.61663 c 2.33057,5.176743 2.220303,13.587704 -0.245215,18.707981 -2.178588,4.52451 -7.215848,9.105147 -11.242942,10.223887 -3.920281,1.089036 -10.304213,0.948245 -13.810024,-0.304252 z M 44.752286,20.442142 C 42.523955,16.639786 41.152595,9.541115 42.646355,9.541115 c 1.754608,3.806551 5.351415,7.202608 9.20267,9.572183 6.917193,3.348586 13.931233,1.996989 21.594101,-4.161071 1.686961,-1.355641 3.180876,-2.314016 3.319838,-2.129651 1.871108,2.903698 5.107714,5.276561 6.177547,8.65081 0,1.423672 -6.128685,5.521058 -10.964617,7.330394 -11.986201,3.452787 -20.144009,2.086942 -27.223608,-8.361638 z M 50.792556,11.652737 58.596151,3 l 8.672236,8.027943 c -2.966298,2.443125 -5.107582,6.234671 -8.496375,8.157506 -2.677663,-1.973896 -6.674101,-4.301291 -7.979456,-7.532712 z"
       style="fill:#ee0022;fill-opacity:1;stroke-width:0.251655"
       id="hindu"
       inkscape:label="#path5310" />
  </g>
</svg>
