<?xml version="1.0" encoding="UTF-8"?>
<svg width="100%" height="100%" version="1.1" viewBox="0 0 96 96" xmlns="http://www.w3.org/2000/svg">
 <path id="hindu" d="m25.783 90.409c-9.7288-3.4766-16.793-12.128-19.59-23.991-1.2694-5.3842-1.6283-14.281-0.57601-14.281 0.34963 0 1.2833 2.4412 2.075 5.425 1.7324 6.5291 4.6872 12.669 7.5413 15.67 4.7408 4.9849 16.483 6.9372 23.249 3.8654 5.2704-2.3929 7.4077-8.0801 5.1159-13.613-1.771-4.2756-5.7888-5.7053-13.273-4.7229 0 0-4.5865-4.937-6.0477-13.704l4.7011 0.42626c5.6622 0.51345 9.9373-0.73818 12.156-3.559 2.085-2.6507 2.04-3.6759-0.28036-6.3733-3.3481-3.8924-9.3599-2.9064-21.532 3.5316l-6.1416-10.295 2.5748-1.964c6.4525-4.9215 17.656-7.382 24.032-5.2777 5.8078 1.9167 10.071 9.5222 8.9318 15.936-0.76986 4.3359-4.2467 10.409-6.9328 12.11l-2.3165 1.4667 3.1998 1.4428c5.4374 2.452 8.7569 0.57762 12.723-7.1839 5.4885-10.741 9.0481-13.522 17.326-13.534 3.8541-0.0076 5.2259 0.39874 8.037 2.3687 7.0159 4.9166 10.836 15.098 9.997 26.643-1.0628 14.622-7.9886 23.49-18.344 23.49-5.6832 0-9.3464-1.9933-12.262-6.6725-2.5612-4.1102-3.7154-12.25-2.2446-15.831 0.70564-1.7179 0.83319-1.7762 0.87933-0.40188 0.08481 2.5267 2.9593 6.6333 5.5983 7.998 6.475 3.3483 15.77-0.85852 19.448-8.8017 2.7921-6.0307 1.2942-17.663-2.5386-19.714-0.80185-0.4292-2.7833-0.78025-4.4031-0.78025-3.4432 0-6.1473 2.4754-9.9383 9.0979-1.3107 2.2897-3.5164 5.248-4.9017 6.5741-2.2507 2.1547-3.0544 2.4112-7.5557 2.4112h-5.0372l1.6282 3.6166c2.3306 5.1767 2.2203 13.588-0.24522 18.708-2.1786 4.5245-7.2158 9.1051-11.243 10.224-3.9203 1.089-10.304 0.94824-13.81-0.30425zm18.969-69.967c-2.2283-3.8024-3.5997-10.901-2.1059-10.901 1.7546 3.8066 5.3514 7.2026 9.2027 9.5722 6.9172 3.3486 13.931 1.997 21.594-4.1611 1.687-1.3556 3.1809-2.314 3.3198-2.1297 1.8711 2.9037 5.1077 5.2766 6.1775 8.6508 0 1.4237-6.1287 5.5211-10.965 7.3304-11.986 3.4528-20.144 2.0869-27.224-8.3616zm6.0403-8.7894 7.8036-8.6527 8.6722 8.0279c-2.9663 2.4431-5.1076 6.2347-8.4964 8.1575-2.6777-1.9739-6.6741-4.3013-7.9795-7.5327z" fill="#e02" stroke-width=".25166"/>
</svg>
