<?xml version="1.0" encoding="UTF-8"?>
<svg width="100%" height="100%" version="1.1" viewBox="0 0 96 96" xmlns="http://www.w3.org/2000/svg">
 <g id="jain" transform="matrix(3.7795 0 0 3.7795 -97.568 -643.5)">
  <g transform="matrix(.044252 0 0 .044252 30.753 169.47)" fill="none" stroke="#f14a1c" stroke-linecap="round" stroke-linejoin="round" stroke-width="23.916">
   <path d="m187.65 275.91-1.1145-205.76s-25.77-37.044-52.661 0v209.46"/>
   <path d="m132.19 107.2s-28.011-32.105-49.3 1.8522v63.592"/>
   <path d="m82.891 296.9s0.44135-131.27 0-131.67c-5.1995-4.722-35.91-27.104-50.42 8.0261l-0.56022 240.95c-0.62513 35.489 19.821 145.23 141.18 146.94 128.42 1.8061 135.91-135.4 136.13-137.06 0.52059-3.9358-11.848-144.63 14.436-201.39 0 0-68.634-44.856-82.217 73.597l-5e-3 -173.04s-17.927-41.366-52.661-6.1739"/>
  </g>
  <circle cx="38.318" cy="188.15" r="4.4532" fill="none" stroke="#f14a1c" stroke-linecap="round" stroke-linejoin="round" stroke-width=".79375"/>
  <g transform="matrix(.1332 0 0 .1332 31.426 171.23)" fill="#f14a1c" fill-rule="evenodd">
   <path d="m49.543 93.796 2.3054 16.102 2.0935-16.102z"/>
   <path d="m41.002 95.497 6.3944 14.957-2.1454-16.095z"/>
   <path d="m33.192 99.351 10.048 12.792-6.2382-14.992z"/>
   <path d="m26.645 105.1 13.016 9.7559-9.9058-12.866z"/>
   <path d="m21.809 112.34 15.098 6.0546-12.898-9.8642z"/>
   <path d="m19.011 120.59 16.15 1.9408-15.012-6.1897z"/>
   <path d="m18.444 129.28 16.102-2.3054-16.102-2.0935z"/>
   <path d="m85.023 124.9-16.102 2.3054 16.102 2.0935z"/>
   <path d="m83.322 116.35-14.957 6.3944 16.095-2.1454z"/>
   <path d="m79.468 108.54-12.792 10.048 14.992-6.2382z"/>
   <path d="m73.724 102-9.7559 13.016 12.866-9.9058z"/>
   <path d="m66.481 97.161-6.0546 15.098 9.8642-12.898z"/>
   <path d="m58.234 94.364-1.9408 16.15 6.1897-15.012z"/>
   <path d="m53.924 160.38-2.3054-16.102-2.0935 16.102z"/>
   <path d="m62.465 158.67-6.3944-14.957 2.1454 16.095z"/>
   <path d="m70.275 154.82-10.048-12.792 6.2382 14.992z"/>
   <path d="m76.821 149.08-13.016-9.7559 9.9057 12.866z"/>
   <path d="m81.658 141.83-15.098-6.0546 12.898 9.8642z"/>
   <path d="m84.456 133.59-16.15-1.9408 15.012 6.1897z"/>
   <path d="m20.145 137.82 14.957-6.3944-16.095 2.1454z"/>
   <path d="m23.999 145.63 12.792-10.048-14.992 6.2382z"/>
   <path d="m29.743 152.17 9.7559-13.016-12.866 9.9058z"/>
   <path d="m36.985 157.01 6.0547-15.098-9.8642 12.898z"/>
   <path d="m45.233 159.81 1.9408-16.15-6.1897 15.012z"/>
  </g>
  <circle cx="38.318" cy="188.22" r="2.008" fill="none" stroke="#f14a1c" stroke-linecap="round" stroke-linejoin="round" stroke-width=".79375"/>
 </g>
</svg>
