<?xml version="1.0" encoding="UTF-8"?>
<svg width="100%" height="100%" version="1.1" viewBox="0 0 96 96" xmlns="http://www.w3.org/2000/svg">
 <g id="jain" transform="matrix(3.7795 0 0 3.7795 -97.568 -643.5)">
  <g id="muslim" transform="matrix(.10956 0 0 .10956 24.809 167.42)" fill="#007f00">
   <path d="m125.13 36.188c-57.527 1.0943-103.88 48.119-103.88 105.91 0 58.472 47.466 105.94 105.94 105.94 27.338 0 52.265-10.384 71.062-27.406-13.253 7.6182-28.627 11.969-45 11.969-49.93 0-90.438-40.508-90.438-90.438 0-49.93 40.508-90.437 90.438-90.437 16.504 0 31.988 4.4253 45.312 12.156-18.833-17.192-43.885-27.688-71.375-27.688-0.68522 0-1.3804-0.01297-2.0625 0z"/>
   <path d="m198.97 94.233-21.519 29.619-34.819-11.314 21.519 29.619-21.519 29.619 34.819-11.314 21.519 29.619v-36.61l34.819-11.314-34.819-11.314z"/>
  </g>
 </g>
</svg>
