<?xml version="1.0" encoding="UTF-8" standalone="no"?>
<svg
   xmlns:dc="http://purl.org/dc/elements/1.1/"
   xmlns:cc="http://creativecommons.org/ns#"
   xmlns:rdf="http://www.w3.org/1999/02/22-rdf-syntax-ns#"
   xmlns:svg="http://www.w3.org/2000/svg"
   xmlns="http://www.w3.org/2000/svg"
   xmlns:sodipodi="http://sodipodi.sourceforge.net/DTD/sodipodi-0.dtd"
   xmlns:inkscape="http://www.inkscape.org/namespaces/inkscape"
   sodipodi:docname="shinto.svg"
   inkscape:version="1.0 (4035a4fb49, 2020-05-01)"
   id="svg916"
   version="1.1"
   viewBox="0 0 96 96"
   height="96"
   width="96">
  <defs
     id="defs910" />
  <sodipodi:namedview
     inkscape:window-maximized="0"
     inkscape:window-y="184"
     inkscape:window-x="716"
     inkscape:window-height="979"
     inkscape:window-width="1663"
     units="px"
     showgrid="true"
     inkscape:document-rotation="0"
     inkscape:current-layer="layer1"
     inkscape:document-units="px"
     inkscape:cy="74.119352"
     inkscape:cx="81.311926"
     inkscape:zoom="3.959798"
     inkscape:pageshadow="2"
     inkscape:pageopacity="0.0"
     borderopacity="1.0"
     bordercolor="#666666"
     pagecolor="#ffffff"
     id="base">
    <inkscape:grid
       spacingy="4"
       spacingx="4"
       empspacing="6"
       id="grid1479"
       type="xygrid" />
  </sodipodi:namedview>
  <metadata
     id="metadata913">
    <rdf:RDF>
      <cc:Work
         rdf:about="">
        <dc:format>image/svg+xml</dc:format>
        <dc:type
           rdf:resource="http://purl.org/dc/dcmitype/StillImage" />
        <dc:title></dc:title>
      </cc:Work>
    </rdf:RDF>
  </metadata>
  <g
     id="layer1"
     inkscape:groupmode="layer"
     inkscape:label="Layer 1">
    <path
       sodipodi:nodetypes="cccsscccsccccccccccccccscccsccscccccccscccsccc"
       id="path2051"
       d="m 5.8726648,8.7197262 c -0.2245486,0.00955 -0.4199735,0.06187 -0.5618897,0.1761857 -1.7166382,1.3827861 -0.6571253,2.6142161 -0.6571253,2.6142161 -1.5e-6,0 2.830536,2.827135 3.1570583,4.895107 0.3265223,2.067972 0.4380835,4.681506 4.2475049,6.314115 3.809422,1.63261 3.480859,3.59038 3.480859,3.59038 0,0 -0.870724,2.395854 3.809422,2.504695 2.503134,-0.01466 5.006051,-0.02073 7.509322,-0.02381 0.938939,1.744686 3.507518,6.614217 1.604719,6.614215 -2.074789,0 -2.461838,1.814238 -2.461838,1.814238 -3.339733,0.46062 -6.789537,0.08495 -9.123566,-0.852359 -2.60539,1.649297 0.713743,8.941722 2.195233,8.990236 h 9.218747 c -1.375387,13.974842 -2.698685,24.232885 -5.233299,40.079772 0,0 -0.150983,2.542784 3.085631,2.542789 10.358982,-5.457172 9.580856,-31.590401 9.580856,-42.522564 H 60.42353 c 0.399001,10.297696 -0.0039,39.200381 9.580856,42.522564 3.236616,0 3.090391,-2.542786 3.090394,-2.542789 -2.262233,-14.312904 -4.469756,-27.21401 -5.238062,-40.079772 h 9.218747 c 2.3623,-1.224073 4.096038,-8.684505 2.199995,-8.990236 -1.926992,1.686654 -6.153486,0.852359 -9.128327,0.852359 0,0 -0.387051,-1.814236 -2.461839,-1.814238 -1.878165,0 0.599219,-4.847801 1.566625,-6.54755 2.515957,-0.0086 5.031604,-0.02057 7.547417,-0.04286 4.680142,-0.108841 3.809421,-2.504695 3.809421,-2.504695 -3e-6,0 -0.323801,-1.95777 3.485621,-3.59038 3.809422,-1.632609 3.916221,-4.246143 4.242744,-6.314115 0.326525,-2.067972 3.157058,-4.895107 3.157058,-4.895107 3e-6,0 1.064276,-1.231431 -0.652364,-2.6142161 -0.756883,-0.6096834 -3.047537,0.5428426 -3.047537,0.5428426 -16.169645,9.0936355 -65.846437,8.9970255 -79.4359665,0 1.5e-6,-3e-7 -1.512601,-0.7603941 -2.4856477,-0.7190283 z M 36.067093,28.795378 c 2.694741,0.0064 3.390707,0.0139 6.085498,0.02381 l 2,9.180813 h -6.447446 c 0,0 -1.163219,-2.595169 -3.238009,-2.595169 -1.900752,2e-6 0.658535,-4.868524 1.599957,-6.609454 z M 54,28.847758 c 2.706618,0.0088 3.412266,0.01605 6.11883,0.01905 0.971869,1.69355 3.441366,6.538026 1.566625,6.538026 C 59.610667,35.404833 58.442684,38 58.442684,38 H 52 Z"
       style="fill:#e34234;stroke:none;stroke-width:0.152377"
       inkscape:connector-curvature="0" />
  </g>
</svg>
