<?xml version="1.0" encoding="UTF-8" standalone="no"?>
<svg
   xmlns:dc="http://purl.org/dc/elements/1.1/"
   xmlns:cc="http://creativecommons.org/ns#"
   xmlns:rdf="http://www.w3.org/1999/02/22-rdf-syntax-ns#"
   xmlns:svg="http://www.w3.org/2000/svg"
   xmlns="http://www.w3.org/2000/svg"
   xmlns:sodipodi="http://sodipodi.sourceforge.net/DTD/sodipodi-0.dtd"
   xmlns:inkscape="http://www.inkscape.org/namespaces/inkscape"
   sodipodi:docname="sikh.svg"
   inkscape:version="1.0 (4035a4fb49, 2020-05-01)"
   id="svg916"
   version="1.1"
   viewBox="0 0 96 96"
   height="96"
   width="96">
  <defs
     id="defs910" />
  <sodipodi:namedview
     inkscape:window-maximized="0"
     inkscape:window-y="184"
     inkscape:window-x="716"
     inkscape:window-height="979"
     inkscape:window-width="1663"
     units="px"
     showgrid="true"
     inkscape:document-rotation="0"
     inkscape:current-layer="layer1"
     inkscape:document-units="px"
     inkscape:cy="27.181186"
     inkscape:cx="53.969123"
     inkscape:zoom="5.6"
     inkscape:pageshadow="2"
     inkscape:pageopacity="0.0"
     borderopacity="1.0"
     bordercolor="#666666"
     pagecolor="#ffffff"
     id="base">
    <inkscape:grid
       spacingy="4"
       spacingx="4"
       empspacing="6"
       id="grid1479"
       type="xygrid" />
  </sodipodi:namedview>
  <metadata
     id="metadata913">
    <rdf:RDF>
      <cc:Work
         rdf:about="">
        <dc:format>image/svg+xml</dc:format>
        <dc:type
           rdf:resource="http://purl.org/dc/dcmitype/StillImage" />
        <dc:title></dc:title>
      </cc:Work>
    </rdf:RDF>
  </metadata>
  <g
     id="layer1"
     inkscape:groupmode="layer"
     inkscape:label="Layer 1">
    <path
       style="fill:#002288;fill-opacity:1;stroke:none;stroke-width:0.0238091"
       id="path8803"
       d="m 46.728227,4.6904483 c -2.357104,3.0713778 -2.785669,3.4999421 -8.618905,8.0474857 -0.428565,0.333328 -0.428565,0.404755 -0.119046,1.071411 0.83332,1.595212 0.80951,1.690448 -0.571419,2.380913 -5.76181,2.904714 -10.380781,8.547478 -11.999802,14.618806 -0.928556,3.404705 -0.857128,7.785585 0.166664,11.095054 1.738067,5.690383 6.30942,11.142673 11.404574,13.571205 1.047601,0.5238 1.90473,0.999983 1.90473,1.09522 0,0.09524 -0.357137,0.952365 -0.809511,1.952348 l -0.80951,1.761876 1.92854,0.880938 c 1.07141,0.499991 2.833286,1.523784 3.928506,2.309485 l 1.952349,1.404739 v 2.761859 c 0,2.47615 -0.04762,2.73805 -0.404756,2.595195 -0.214282,-0.09524 -1.690448,-0.928556 -3.26185,-1.857112 C 33.109404,63.498999 26.299993,57.261007 23.133379,51.642053 19.442964,45.118351 17.89537,35.785172 19.704864,30.975728 c 1.047602,-2.785668 1.761876,-3.880888 4.904681,-7.40464 1.714257,-1.952348 3.071378,-3.571369 3.023759,-3.618987 -0.166664,-0.190473 -3.166614,1.119029 -4.785635,2.095203 -1.952348,1.166647 -5.261817,4.238025 -6.714174,6.261801 -1.571403,2.238058 -2.857096,5.095154 -3.547561,8.047486 -0.595228,2.428531 -0.642846,2.976141 -0.54761,6.237992 0.142855,4.166598 0.690465,6.809411 2.428532,11.476001 1.833303,4.92849 2.976141,6.904648 7.142739,12.404557 2.095203,2.785668 4.166597,5.618954 4.595162,6.309419 0.880937,1.428548 1.666639,3.595179 1.880921,5.2142 0.09524,0.642846 0.214282,1.142838 0.309519,1.142838 0.07143,0 2.119012,-1.761876 4.547543,-3.928507 2.428532,-2.142821 4.571353,-3.904697 4.761826,-3.904697 0.54761,-0.02381 2.976142,1.047602 4.404689,1.90473 l 1.285693,0.761893 -2.309485,0.999983 c -2.904714,1.238075 -3.976125,1.92854 -5.666573,3.595179 -1.64283,1.666639 -2.214249,2.857095 -2.238058,4.690398 0,1.285693 0.07143,1.476166 0.80951,2.214249 0.666656,0.666656 0.976174,0.809511 1.833303,0.809511 1.357121,0 2.880905,-0.904747 3.428515,-2.071395 0.404755,-0.833319 0.404755,-0.976174 0.04762,-2.357103 -0.238091,-0.809511 -0.404755,-1.547594 -0.404755,-1.595212 0,-0.214282 2.928523,-1.761876 3.809461,-2.023776 0.452373,-0.142855 1.238074,-0.309519 1.738066,-0.404755 l 0.880938,-0.142855 v 3.428515 c 0,3.309469 -0.02381,3.428514 -0.571419,3.952315 -1.92854,1.809494 -1.690448,4.428498 0.523801,6.118947 1.214265,0.952365 3.28566,1.07141 4.904681,0.309518 1.404738,-0.642846 2.523767,-2.238058 2.523767,-3.54756 0,-0.809511 -1.023792,-2.809477 -1.64283,-3.190424 -0.309518,-0.190473 -0.380946,-7.047502 -0.07143,-7.047502 0.857129,0.02381 3.142805,0.80951 4.476116,1.523784 0.904747,0.499992 1.666639,0.928556 1.714258,0.976175 0.04762,0.02381 -0.119046,0.785701 -0.357137,1.64283 -0.404755,1.571402 -0.404755,1.61902 0.04762,2.476149 0.904747,1.64283 3.523751,2.499959 4.857063,1.571403 0.642846,-0.452374 1.214265,-1.690449 1.214265,-2.666623 0,-1.547593 -0.761892,-2.976141 -2.476149,-4.690398 -1.690449,-1.66664 -3.57137,-2.833287 -6.523702,-4.047553 l -1.309502,-0.5238 1.428548,-0.83332 c 0.761892,-0.452373 1.999967,-1.023793 2.714241,-1.261884 0.714273,-0.238091 1.404738,-0.476182 1.547593,-0.523801 0.142855,-0.04762 2.285676,1.666639 4.761826,3.83327 2.47615,2.166631 4.571353,3.952316 4.64278,3.952316 0.07143,0 0.214282,-0.642847 0.28571,-1.428548 0.214282,-2.428531 1.523784,-4.785635 5.523718,-9.999835 1.976158,-2.571386 3.880888,-5.047535 4.238025,-5.547527 1.047602,-1.380929 3.357088,-6.404656 4.428498,-9.57127 2.238059,-6.666557 2.47615,-12.833121 0.738083,-18.309221 -1.928539,-5.999901 -7.118929,-11.571237 -12.85693,-13.833105 -0.833319,-0.333327 -1.571402,-0.54761 -1.619021,-0.476182 -0.142854,0.142855 1.261884,1.90473 3.809461,4.738017 3.714224,4.118979 4.571353,6.309419 4.595162,11.571237 0,3.785651 -0.309518,5.714191 -1.595211,9.714125 -2.285677,7.190357 -7.523686,13.475967 -16.618773,19.856814 -1.666639,1.166648 -7.333212,4.476117 -7.66654,4.476117 -0.09524,0 -0.190473,-1.214266 -0.190473,-2.690432 v -2.666623 l 1.976158,-1.404738 c 1.071411,-0.761892 2.880904,-1.833303 3.999934,-2.380913 l 2.047585,-0.999984 -0.904747,-1.809494 -0.904747,-1.809493 1.238075,-0.499992 c 3.333278,-1.404739 7.476066,-4.833254 9.618888,-7.999868 2.428531,-3.595178 3.57137,-6.880838 3.809461,-10.9522 C 72.013523,30.9043 69.656419,25.1663 64.823165,20.404474 62.918435,18.523553 59.799439,16.40454 58.061373,15.761694 l -0.785702,-0.261901 0.54761,-1.261884 0.54761,-1.238074 -1.452357,-1.023793 C 53.609065,9.6427473 51.490053,7.571353 48.847239,4.1190292 L 48.01392,3.0000001 Z m -5.4761,18.6425487 c 1.523784,5.404673 2.404722,10.809345 2.404722,14.618806 0,2.142822 -0.523801,6.237992 -1.071411,8.357005 -0.309519,1.285693 -1.738066,5.642763 -1.928539,5.880855 -0.09524,0.166664 -2.166631,-0.999984 -3.880889,-2.19044 -3.214232,-2.214249 -5.833237,-5.976092 -6.83322,-9.904598 -0.571419,-2.19044 -0.499992,-6.02371 0.119046,-8.404623 1.190456,-4.547544 4.595162,-8.833188 8.809378,-11.095055 0.738083,-0.380946 1.35712,-0.666656 1.380929,-0.642846 0.04762,0.02381 0.476183,1.547593 0.999984,3.380896 z m 16.547345,-2.595195 c 2.119013,1.119029 5.571337,4.499925 6.880839,6.737984 1.238074,2.142821 2.285676,5.976091 2.309485,8.404623 0,1.666639 -0.642846,4.309452 -1.523784,6.237992 -0.83332,1.785684 -3.095187,4.92849 -4.595162,6.333228 -0.999984,0.976175 -5.047536,4.023743 -5.309436,4.023743 -0.190473,0 -1.09522,-3.166614 -2.309486,-7.976058 -0.619037,-2.428532 -0.666655,-2.952332 -0.642846,-7.023694 0.02381,-3.333278 0.142855,-5.071344 0.523801,-7.11893 0.619037,-3.476133 2.45234,-10.499826 2.73805,-10.499826 0.119045,0 0.976174,0.404755 1.928539,0.880938 z"
       inkscape:connector-curvature="0" />
  </g>
</svg>
