<?xml version="1.0" encoding="UTF-8"?>
<svg class="icon" version="1.1" viewBox="0 0 96 96" xmlns="http://www.w3.org/2000/svg">
 <path d="m26.36 31.57c0.85918-1.5036 2.7923-2.1479 4.296-1.2888l12.244 6.6587 16.375 2.9619-5.6666 7.2436-12.212-3.9765c-0.4296 0-0.6444-0.21479-0.8592-0.4296l-12.673-7.0882c-1.7184-0.6444-2.3627-2.5775-1.5036-4.0812z" fill="#f9a825" stroke-width=".098676"/>
 <path d="m60.728 39.303c3.0056-0.09868 5.5848 1.9332 6.6587 4.7256l6.2291 18.902c0.85918 2.5775 0.21479 5.1552-1.5036 6.8735l-11.599-2.5775-7.303-18.687c-0.02331-5.944 2.123-9.0592 7.5178-9.2364z" fill="#5ec08f" stroke-width=".098676"/>
 <path d="m52.994 47.895c0.2148 0 2.1479 0.21479 3.6516-0.64439l8.7696 22.27-4.9033-2.2936z" fill="#41a571" stroke-width=".098676"/>
 <path d="m96 64.851v14.243l-67.656 0.01721c-10.314 0.002627-28.644-7.1932-10.394-31.87 16.648 23.832 52.46 18.196 78.05 17.61z" fill="#ff754c" stroke-width=".09658"/>
 <path d="m89.748 71.331s-2.0837 4.1673-8.3347 4.1673-8.3347-4.1673-8.3347-4.1673-2.0837 4.1673-8.3347 4.1673c-6.251 0-8.3347-4.1673-8.3347-4.1673s-2.0837 4.1673-8.3347 4.1673-8.3347-4.1673-8.3347-4.1673-2.0837 4.1673-8.3347 4.1673c-6.251 0-8.3347-4.1673-8.3347-4.1673s-2.0837 4.1673-8.3347 4.1673c-6.251 0-8.3347-4.1673-8.3347-4.1673s-1.8172 3.1254-6.4013 3.959v12.71h96v-12.723c-4.5846-0.83351-6.2516-3.9458-6.2516-3.9458z" fill="#7e8ccf" stroke-width=".10731"/>
 <path d="m89.748 75.498s-2.0837 4.1673-8.3347 4.1673-8.3347-4.1673-8.3347-4.1673-2.0837 4.1673-8.3347 4.1673c-6.251 0-8.3347-4.1673-8.3347-4.1673s-2.0837 4.1673-8.3347 4.1673-8.3347-4.1673-8.3347-4.1673-2.0837 4.1673-8.3347 4.1673c-6.251 0-8.3347-4.1673-8.3347-4.1673s-2.0837 4.1673-8.3347 4.1673c-6.251 0-8.3347-4.1673-8.3347-4.1673s-1.8172 3.1254-6.4013 3.959v16.543h96v-16.543c-4.5846-0.83351-6.2516-3.959-6.2516-3.959z" fill="#c5cae9" stroke-width=".10731"/>
 <path d="m55.143 19.972c-4.0812 0-7.5178 3.4368-7.5178 7.5178 0 4.0811 3.4368 7.5178 7.5178 7.5178 4.0811 0 7.5178-3.4368 7.5178-7.5178 0-4.0811-3.4367-7.5178-7.5178-7.5178z" fill="#ffb74d" stroke-width=".098676"/>
 <path d="m31.196 33.235 5.6672 31.769c1.0458 4.5109 4.9269 5.6452 5.8693 14.127l0.62373 6.2868c-2.9392 2.8807-7.1434 3.6587-11.719 2.2948l-0.95736-6.5087c-0.50363-9.5689 2.9873-11.809 2.6515-17.182h0.0255l-5.4925-30.371c-0.22444-2.5094 2.8929-2.962 3.3316-0.41626z" fill="#546e7a" stroke-width=".077122"/>
 <path d="m33.448 56.701 10.096-5.1552 12.709-11.298c3.5499-2.2978 8.6551 2.6788 4.296 6.4439l-12.709 10.009c-0.2148 0.21479-0.4296 0.4296-0.85918 0.6444l-12.673 6.2291c-2.9996 1.0273-6.7303-3.9757-0.85921-6.8735z" fill="#ffb74d" stroke-width=".098676"/>
</svg>
