<?xml version="1.0" encoding="UTF-8"?>
<!-- Uploaded to: SVG Find, www.svgrepo.com, Generator: SVG Find Mixer Tools -->
<svg width="800px" height="800px" version="1.1" viewBox="144 144 512 512" xmlns="http://www.w3.org/2000/svg">
 <defs>
  <clipPath id="a">
   <path d="m366 265h285.9v166h-285.9z"/>
  </clipPath>
 </defs>
 <path d="m420.25 332.51-97.875 97.824h-91.734c-28.07-0.69531-53.867-15.605-68.484-39.586-14.613-23.977-16.047-53.738-3.8047-79.008 12.246-25.273 36.488-42.594 64.363-45.984 1.668-0.16797 3.3125 0.46484 4.4336 1.7109s1.5781 2.9492 1.2344 4.5859c-0.71875 3.3281-1.0703 6.7266-1.0469 10.129 0.011718 13.398 5.3438 26.246 14.816 35.723 9.4766 9.4727 22.32 14.801 35.723 14.816z"/>
 <g clip-path="url(#a)">
  <path d="m651.9 347.78c-0.027344 21.895-8.7422 42.883-24.227 58.359-15.488 15.477-36.48 24.176-58.375 24.191h-202.36l97.77-97.824h57.414c13.398-0.011718 26.246-5.3398 35.719-14.816 9.4766-9.4766 14.805-22.32 14.82-35.723-0.003906-3.4023-0.35547-6.7969-1.0508-10.125-0.26562-1.5977 0.22266-3.2266 1.3203-4.418 1.0977-1.1914 2.6797-1.8047 4.293-1.6719 20.441 1.8867 39.434 11.348 53.254 26.527 13.816 15.176 21.461 34.973 21.426 55.5z"/>
 </g>
 <path d="m533.93 248.49-220 220-5.2461 32.434c-0.92969 6.4141-3.8672 12.367-8.3984 17.004l-33.586 33.586c-7.8086 7.2891-18.852 9.9805-29.137 7.0977s-18.32-10.922-21.203-21.203c-2.8828-10.285-0.19141-21.328 7.0977-29.137l33.586-33.641c4.6133-4.5977 10.566-7.6094 17.004-8.6055l32.379-4.9336 220.1-220c2.0469-2.0352 5.3555-2.0352 7.4023 0 2.0312 2.0469 2.0312 5.3516 0 7.3984z"/>
</svg>
