<?xml version="1.0" encoding="UTF-8"?>
<!-- Uploaded to: SVG Find, www.svgrepo.com, Generator: SVG Find Mixer Tools -->
<svg width="800px" height="800px" fill="#000000" version="1.1" viewBox="144 144 512 512" xmlns="http://www.w3.org/2000/svg">
 <path d="m631.36 261.77c0-0.17188-0.078125-0.33203-0.10938-0.50391-0.12891-0.66016-0.32812-1.3047-0.59766-1.9219-0.84766-2.582-2.9727-4.543-5.6133-5.1875-5.7188-0.97656-11.578-0.71094-17.184 0.78906-5.0273 1.1797-9.918 2.8867-14.586 5.0938-1.7578 1.0156-3.0938 2.6211-3.7812 4.5312-0.62109 1.2891-0.89063 2.7188-0.78516 4.1406 0.125 2.1953 0.070313 4.3828 0.15625 6.5742-49.125 33.938-105.95 55.062-165.31 61.457l6.0703-11.699v0.003906c8.6406-15.008 16.488-30.453 23.512-46.281 2.8867-5.7578 3.7422-12.316 2.4297-18.621-1.3125-6.3047-4.7188-11.977-9.6641-16.102-4.8555-3.043-10.695-4.0977-16.309-2.9492-5.6172 1.1445-10.574 4.4102-13.848 9.1133-9.6211 13.402-17.859 27.75-24.582 42.816-8.3125 15.539-16.48 31.156-24.496 46.855-0.40234 0.78906-0.78906 1.5742-1.1719 2.3633l-0.003907-0.003906c-50.234 5.0508-100.86 4.8594-151.05-0.57422-1.5078-8.0039-2.6094-16.078-3.2969-24.191-0.12891-1.5234-0.64844-2.9844-1.5117-4.2422-0.92969-2.4922-3.0078-4.375-5.5742-5.0625-10.883-2.8203-22.379-2.0898-32.816 2.0859-2.1914 0.6875-4.0625 2.1289-5.2891 4.0703-0.80859 1.543-1.1641 3.2852-1.0156 5.0234-0.19141 0.50781-0.33594 1.0352-0.43359 1.5742-2.9844 43.297 9.3164 86.266 34.762 121.43 0.43359 0.52734 0.91406 1.0117 1.4336 1.4531 1.1758 1.8555 3.125 3.0859 5.3047 3.3477 30.348 5.1211 61.059 7.7812 91.836 7.9492-6.6914 5.0742-12.605 11.094-17.555 17.879-9.1719 13.723-16.488 28.602-21.75 44.25-0.78516 3.4453 0.10938 7.0586 2.4141 9.7344 15.953 12.512 33.977 22.125 53.25 28.402 1.918 1.8477 4.5703 2.7227 7.2109 2.375 2.6406-0.34766 4.9805-1.875 6.3594-4.1523 8.8008-14.496 16.375-29.703 22.641-45.461 5.0078-12.594 11.438-28.125 5.3828-40.77l4.0625-7.9258c0.30859 0.039062 0.52734 0.1875 0.84375 0.20312 66.227 2.6641 132.56-0.43359 198.25-9.2578 1.3047 0.14844 2.625-0.039062 3.8359-0.55078 8.3047-1.1406 16.602-2.3633 24.883-3.6523 1.0664-0.16406 2.0938-0.53125 3.0234-1.0781 2.8672-0.09375 5.4766-1.6719 6.8945-4.1641 32.793-53.578 44.809-117.32 33.777-179.16zm-57.297 121.77c-62.035 16.109-125.59 25.684-189.61 28.559 3.2266-6.2227 6.457-12.453 9.6914-18.688h-0.003906c65.375-3.3789 129.54-18.984 189.16-46.004-2.3594 12.215-5.4414 24.281-9.2305 36.133zm14.859-87.207c-0.30859 12.355-1.3398 24.684-3.0938 36.918-58.16 27.602-121.06 43.844-185.31 47.848l3.1094-5.9844 10.145-19.52c62.383-4.9922 122.55-25.352 175.15-59.262zm-232.69 64.465c-3.8828 7.7539-7.7695 15.492-11.578 23.285-40.07 0-80.184-0.43359-120.09-4.2734-2.3633-6.5977-4.3516-13.297-6.1328-20.066h-0.003906c45.801 4.7109 91.941 5.0625 137.81 1.0547zm-25.152 51.547c-31.211 1.2305-62.473 0.33984-93.566-2.6641-2.9648-5.7734-5.7031-11.66-8.2188-17.664 36.414 3.2578 72.988 3.8242 109.55 3.8555-2.6133 5.4648-5.1562 10.984-7.7617 16.473zm-149.01-87.066c1.332-0.33984 2.6836-0.58984 4.0469-0.78906 2.6797-0.25781 5.375-0.28125 8.0586-0.070313 3.9688 38.312 16.23 75.297 35.938 108.39-5.8789-0.78906-11.754-1.5195-17.602-2.4883-21.457-30.699-32.16-67.629-30.441-105.04zm70.383 109.95c-0.054688-0.085937-0.078126-0.17188-0.14063-0.26172-2.8242-4.2188-5.5117-8.5352-8.0625-12.902 26.996 2.3438 54.102 3.0977 81.184 2.2539-2 4.2578-4.0391 8.5-6.0156 12.77l0.003907-0.003906c-22.34 0.73828-44.703 0.11719-66.969-1.8555zm86.594 52.469c-2.1094 6.7539-4.7227 13.383-7.4453 19.934l-0.003906-0.003907c-4.418 10.27-9.4609 20.258-15.098 29.914-7.0586-2.3438-13.906-5.2812-20.469-8.7773-4.0781-2.1406-8.0625-4.4531-11.949-6.9336-2-1.2812-3.9688-2.6055-5.9102-3.9766l-0.68359-0.48828h-0.003906c4.2891-11.883 9.9727-23.211 16.934-33.75 6.582-9.7891 16.078-17.262 27.145-21.355 0.10938 0 0.1875-0.125 0.30078-0.16406h-0.003906c3.2305 0.39063 6.3086-1.4648 7.4727-4.5039 15.742-34.332 32.156-68.344 49.23-102.04 8.5508-16.84 17.266-33.594 26.152-50.254 4.7227-8.8867 9.5078-17.746 14.352-26.582 2.9219-5.3359 7.0078-17.066 13.105-19.734 11.637-5.1016 2.6445 17.664 1.0312 20.883-4.3438 8.6992-8.9648 17.27-13.445 25.906-8.957 17.27-17.922 34.539-26.891 51.805-17.816 34.273-35.625 68.543-53.43 102.82-1.957 1.5-3.1719 3.7734-3.3281 6.2383-0.16016 2.4609 0.75391 4.875 2.5039 6.6133 3.7461 3.8281 1.8086 9.9688 0.41016 14.445zm29.82-45.547 9.3047-17.918h-0.003907c64.59-2.543 128.75-11.719 191.46-27.387-4.6641 12.504-10.133 24.691-16.367 36.492-61.125 7.9844-122.8 10.93-184.42 8.8086zm215.18-13.152-0.003906-0.003906c-0.35547-0.003906-0.71094 0.019531-1.0625 0.0625-2.8008 0.44141-5.6133 0.78906-8.4219 1.2266 23.23-48.766 34.207-102.47 31.965-156.44 2.8008-0.94141 5.668-1.6836 8.5742-2.2109 8.1484 54.469-2.832 110.08-31.078 157.36z"/>
</svg>
