<?xml version="1.0" encoding="UTF-8"?>
<!-- Uploaded to: SVG Find, www.svgrepo.com, Generator: SVG Find Mixer Tools -->
<svg width="800px" height="800px" fill="#000000" version="1.1" viewBox="144 144 512 512" xmlns="http://www.w3.org/2000/svg">
 <path d="m464.29 368.82h115.32l-31.285-75.059c-8.6602-19.426-31.977-17.77-31.977-17.77h-229.62s-23.312-1.6562-31.973 17.77l-31.285 75.059zm55.516-71.055 0.43359-0.039062h0.34375c0.55469-0.039063 14.258-0.57031 18.879 9.7578l19.852 47.746h-67.684l-23.836-57.465zm-115.22 6.4883c0-3.5664 2.8828-6.4844 6.4531-6.4844h28.723c3.5781 0 6.457 2.9219 6.457 6.4844v44.438c0 3.5703-2.8828 6.5391-6.457 6.5391h-28.723c-3.5703 0-6.4531-2.9609-6.4531-6.5391zm-59.809 0c0-3.5664 2.8828-6.4844 6.4648-6.4844h28.625c3.582 0 6.4648 2.9219 6.4648 6.4844v44.438c0 3.5703-2.8828 6.5391-6.4648 6.5391h-28.625c-3.582 0-6.4648-2.9609-6.4648-6.5391zm-59.891 0c0-3.5664 2.8828-6.4844 6.4531-6.4844h28.727c3.5703 0 6.4531 2.9219 6.4531 6.4844v44.438c0 3.5703-2.8828 6.5391-6.4531 6.5391h-28.727c-3.5703 0-6.4531-2.9609-6.4531-6.5391z"/>
 <path d="m577.45 481.09c-8.0117 0-15.723 1.8789-22.496 5.043-6.6602 3.0078-14.066 4.793-21.852 4.7969-7.75-0.003906-15.195-1.7852-21.809-4.7969-6.8555-3.168-14.52-5.043-22.547-5.043h-0.023438c-8.0625 0-15.68 1.8789-22.574 5.043-6.5898 3.0117-14.082 4.7969-21.789 4.7969-7.7578 0-15.215-1.7852-21.844-4.7969-6.7617-3.168-14.473-5.043-22.496-5.043h-0.058593c-8.0156 0-15.73 1.8789-22.496 5.043-6.625 3.0117-14.086 4.7969-21.836 4.7969-7.7188 0-15.211-1.7852-21.793-4.7969-6.8984-3.168-14.523-5.043-22.57-5.043h-0.03125c-8.0195 0-15.68 1.8789-22.539 5.043-6.6133 3.0078-14.066 4.793-21.809 4.7969-7.7852-0.003906-15.191-1.7852-21.855-4.7969-6.7656-3.168-14.48-5.043-22.496-5.043s-15.68 1.8789-22.539 5.043c-6.5938 3.0117-14.043 4.7969-21.805 4.7969v33.109c7.7578 0 15.215-1.75 21.805-4.8047 6.8516-3.1758 14.523-5.043 22.539-5.043s15.73 1.875 22.496 5.043c6.6602 3.043 14.051 4.7852 21.824 4.8008h0.066406c7.707 0 15.164-1.75 21.887-4.8047 6.8125-3.1758 14.473-5.043 22.445-5.043 7.9648 0 15.68 1.875 22.434 5.043 6.7305 3.0547 14.141 4.8047 21.938 4.8047h0.023438c7.7578 0 15.25-1.75 21.844-4.8047 6.8398-3.168 14.508-5.0391 22.512-5.043 8 0.003906 15.652 1.875 22.504 5.043 6.5938 3.0547 14.086 4.8047 21.844 4.8047h0.019532c7.8047 0 15.215-1.75 21.938-4.8047 6.7617-3.1758 14.465-5.043 22.434-5.043s15.637 1.875 22.441 5.043c6.7266 3.0547 14.172 4.8047 21.887 4.8047h0.074219c7.7656-0.015625 15.164-1.7578 21.816-4.8008 6.7695-3.168 14.484-5.043 22.496-5.043 8.0156 0 15.688 1.875 22.547 5.043 6.5898 3.0547 14.043 4.8047 21.801 4.8047v-33.109c-7.7578 0-15.215-1.7852-21.801-4.7969-6.8711-3.168-14.539-5.043-22.555-5.043z"/>
 <path d="m248.56 456.34 0.25781 0.13281c3.793 1.5234 7.75 1.9141 11.645 2.7852 2.1367 0.21094 4.2227 0.67969 6.4023 0.69141h0.054688c7.707 0 15.16-1.7383 21.879-4.7422 6.8164-3.1797 14.488-5.0586 22.453-5.0586s15.68 1.8789 22.445 5.0586c6.7227 3.0078 14.133 4.7422 21.93 4.7422h0.007812c7.7578 0 15.254-1.7383 21.852-4.7422 6.8477-3.1797 14.508-5.0469 22.516-5.0547 8 0.003906 15.66 1.8789 22.512 5.0547 6.5938 3.0078 14.086 4.7422 21.844 4.7422h0.011719c7.8008 0 15.211-1.7383 21.938-4.7422 6.7617-3.1797 14.48-5.0586 22.445-5.0586s15.645 1.8789 22.449 5.0586c6.7227 3.0078 14.172 4.7422 21.887 4.7422h0.054687c2.1875-0.011719 4.2734-0.48047 6.4102-0.69141 3.8828-0.87109 7.8438-1.2656 11.633-2.7852l0.25781-0.13281c28.184-11.543 52.531-40.203 67.703-61.555l7.5664-13.031h-453.43l7.582 13.027c15.164 21.355 39.512 50.016 67.691 61.559z"/>
</svg>
