<?xml version="1.0" encoding="UTF-8"?>
<svg class="icon" version="1.1" viewBox="0 0 96 96" xmlns="http://www.w3.org/2000/svg">
 <path d="m9.0207 71.567c1.2572 1.9232 1.9076 6.9989 3.075 8.0717 12.482 11.455 70.248 4.5648 70.248 4.5648s1.5031-7.3606 2.6306-12.636z" fill="#c84747" stroke-width=".79119"/>
 <path d="m21.679 71.561h53.8v-31.647l-28.482-18.988-25.319 18.988z" fill="#deb486" stroke-width="2.0702"/>
 <rect x="24.844" y="11.442" width="12.659" height="18.988" fill="#deb486" stroke-width="2.0702"/>
 <path d="m15.35 43.075 31.647-28.482 34.812 28.482" fill="none" stroke="#c84747" stroke-width="9.4941"/>
 <rect x="50.161" y="46.242" width="12.659" height="25.319" fill="#c08268" stroke-width="2.0702"/>
 <rect x="28.009" y="49.409" width="15.824" height="12.659" fill="#95685e" stroke-width="2.0702"/>
 <rect x="28.009" y="46.242" width="15.824" height="3.1647" fill="#c08268" stroke-width="2.0702"/>
 <path d="m96.003 81.601c-7.1999 0-9.6-4.8-9.6-4.8s-2.4 4.8-9.6 4.8c-7.1999 0-9.6-4.8-9.6-4.8s-2.4 4.8-9.6 4.8c-7.1999 0-9.6-4.8-9.6-4.8s-2.4 4.8-9.5999 4.8-9.6-4.8-9.6-4.8-2.4 4.8-9.6 4.8c-7.1999 0-9.6-4.8-9.6-4.8s-2.4 4.8-9.6 4.8v14.4h96v-14.4z" fill="#7e8ccf" stroke-width=".11026"/>
 <path d="m96.003 86.401c-7.1999 0-9.6-4.8-9.6-4.8s-2.4 4.8-9.6 4.8c-7.1999 0-9.6-4.8-9.6-4.8s-2.4 4.8-9.6 4.8c-7.1999 0-9.6-4.8-9.6-4.8s-2.4 4.8-9.5999 4.8-9.6-4.8-9.6-4.8-2.4 4.8-9.6 4.8c-7.1999 0-9.6-4.8-9.6-4.8s-2.4 4.8-9.6 4.8v9.5999h96v-9.5999z" fill="#c5cae9" stroke-width=".11026"/>
</svg>
