<?xml version="1.0" encoding="UTF-8"?>
<!-- Uploaded to: SVG Find, www.svgrepo.com, Generator: SVG Find Mixer Tools -->
<svg width="800px" height="800px" version="1.1" viewBox="144 144 512 512" xmlns="http://www.w3.org/2000/svg">
 <defs>
  <clipPath id="b">
   <path d="m148.09 356h503.81v77h-503.81z"/>
  </clipPath>
  <clipPath id="a">
   <path d="m148.09 410h503.81v47h-503.81z"/>
  </clipPath>
 </defs>
 <path d="m222.04 338.49c2.1055-2.1758 3.168-5.1523 2.9141-8.1719-0.25-3.0156-1.793-5.7773-4.2266-7.5742l-1.3633-1.0508v0.003907c-2.9922-2.2266-5.3359-5.207-6.793-8.6367-1.457-3.4336-1.9766-7.1914-1.5-10.887 0.75391-5.5312 3.6797-10.531 8.1328-13.902 4.4492-3.3672 10.059-4.8242 15.586-4.0469l145.21 20.992h0.003906c7.6133 1.0781 15.375 0.37891 22.672-2.0469 3.7266-1.207 7.4531-2.5195 11.125-3.9375v0.003906c-2.25-9.0625-6.9336-17.336-13.539-23.934-1.3516-1.4727-3.25-2.3242-5.25-2.3594h-5.5078c-3.0742-0.007812-6.0703-0.95312-8.5898-2.707-2.5234-1.75-4.4531-4.2305-5.5273-7.1094h-18.16c-2.8984 0-5.2461-2.3477-5.2461-5.2461s2.3477-5.25 5.2461-5.25h18.055c1.0742-2.9023 3.0156-5.4062 5.5586-7.168 2.543-1.7656 5.5664-2.707 8.6641-2.6953h20.152c10.434-0.007812 20.461 4.0391 27.969 11.281l23.457 22.617 0.003907 0.003906c11.559-5.0508 24.414-6.3164 36.734-3.6211 34.219 7.7109 75.363 24.613 108 38.676h-115.93c-2.8984 0-5.25 2.3516-5.25 5.25s2.3516 5.2461 5.25 5.2461h134.35c5.7109 4.2773 10.797 9.3281 15.113 15.008 2.2344 2.8945 4.2539 5.9453 6.0352 9.1328h-430.86z"/>
 <g clip-path="url(#b)">
  <path d="m650.8 365.15c-13.727 18.27-31.031 33.551-50.852 44.922-5.2773 3.0156-10.707 5.7461-16.27 8.1875-12.148-12.688-29.289-19.352-46.816-18.195-17.531 1.1523-33.648 10.004-44.027 24.18-0.92188 1.293-1.9766 2.4883-3.1484 3.5664l-37.785 0.89062v0.003906c-1.5391-1.3203-2.9102-2.8203-4.0938-4.4609-11.207-15.207-28.973-24.18-47.863-24.18-18.887 0-36.652 8.9727-47.859 24.18-2.0078 2.7344-4.5 5.082-7.3477 6.9258l-29.234 0.52344c-3.3672-1.9102-6.2812-4.5234-8.5508-7.6602-11.203-15.27-29.008-24.285-47.941-24.285-18.938 0-36.742 9.0156-47.941 24.285-2.6055 3.5508-6 6.4414-9.918 8.4492-6.8555-1.7422-13.047-5.4531-17.816-10.676-4.7656-5.2227-7.8945-11.73-9.0039-18.715h-3.1484c-6.1406 0-12.031-2.4453-16.363-6.8008-4.3359-4.3516-6.7539-10.254-6.7266-16.395 0.015625-6.1445 2.4648-12.031 6.8125-16.367 4.3477-4.3398 10.242-6.7773 16.383-6.7773h475.37c1.9766 0.007813 3.7812 1.1211 4.668 2.8867 0.88672 1.7891 0.68359 3.9219-0.52344 5.5117z"/>
 </g>
 <g clip-path="url(#a)">
  <path d="m188.55 456.68c-15.555 0.12891-30.23-7.2109-39.465-19.73-1.6797-2.3359-1.1641-5.5938 1.1562-7.2969 1.1211-0.82813 2.5234-1.1797 3.9023-0.97266 1.3789 0.20703 2.6172 0.95312 3.4453 2.0742 7.2461 9.8594 18.754 15.68 30.988 15.68s23.742-5.8203 30.988-15.68c9.1836-12.648 23.891-20.105 39.52-20.047 15.59-0.074219 30.262 7.3711 39.41 19.996 7.2422 9.918 18.793 15.77 31.07 15.746 12.258 0.058594 23.793-5.8047 30.965-15.746 9.1914-12.602 23.867-20.035 39.465-19.996 15.523-0.074219 30.145 7.3008 39.305 19.84 7.25 9.8555 18.758 15.676 30.992 15.676s23.738-5.8203 30.988-15.676c9.2344-12.48 23.836-19.84 39.359-19.84s30.129 7.3594 39.359 19.84c7.2539 9.8125 18.734 15.605 30.938 15.605 12.207 0 23.684-5.793 30.938-15.605 1.7695-2.4922 5.2227-3.082 7.7148-1.3125 2.4922 1.7656 3.082 5.2227 1.3125 7.7148-9.2461 12.457-23.844 19.805-39.359 19.805s-30.113-7.3477-39.359-19.805c-7.2539-9.8359-18.746-15.641-30.965-15.641s-23.711 5.8047-30.965 15.641c-9.2188 12.496-23.828 19.875-39.359 19.875s-30.141-7.3789-39.359-19.875c-7.2969-10.102-19.082-15.988-31.539-15.746-12.27-0.042969-23.812 5.8164-31.016 15.746-9.2227 12.496-23.832 19.875-39.363 19.875s-30.137-7.3789-39.359-19.875c-7.1992-9.9375-18.746-15.797-31.016-15.746-12.27-0.042969-23.809 5.8164-31.016 15.746-9.2812 12.574-24.047 19.918-39.676 19.73z"/>
 </g>
 <path d="m329.57 506.95c-15.605 0.074219-30.293-7.3672-39.465-19.996-7.1992-9.9336-18.746-15.797-31.016-15.742-12.27-0.042969-23.809 5.8125-31.016 15.742-0.82031 1.1328-2.0547 1.8867-3.4336 2.1055-1.3789 0.21484-2.7891-0.125-3.9141-0.94922-2.3047-1.6836-2.8398-4.9023-1.207-7.2422 9.1914-12.672 23.914-20.148 39.57-20.102 15.59-0.074219 30.262 7.3711 39.41 19.996 7.2422 9.918 18.793 15.77 31.07 15.742 12.258 0.0625 23.793-5.8008 30.965-15.742 9.1797-12.621 23.855-20.074 39.465-20.047 15.523-0.078125 30.145 7.3008 39.305 19.836 7.25 9.8555 18.758 15.68 30.992 15.68s23.738-5.8242 30.988-15.68c9.2344-12.477 23.836-19.84 39.359-19.84s30.129 7.3633 39.359 19.84l0.47266 0.73437c0.71094 1.2266 0.89453 2.6914 0.50781 4.0547s-1.3047 2.5156-2.5547 3.1875c-2.3555 1.1562-5.1992 0.39453-6.6641-1.7812-7.2656-9.8164-18.75-15.605-30.961-15.605-12.215 0-23.699 5.7891-30.965 15.605-9.2188 12.496-23.828 19.875-39.359 19.875s-30.141-7.3789-39.359-19.875c-7.1797-9.9375-18.707-15.801-30.965-15.746-12.27-0.042968-23.809 5.8164-31.016 15.746-9.1406 12.742-23.887 20.27-39.57 20.203z"/>
 <path d="m329.57 557.23c-15.605 0.074219-30.293-7.3672-39.465-19.996l4.1992-3.1484 4.3555-2.9375v-0.003907c7.2383 9.8359 18.723 15.645 30.938 15.645 12.211 0 23.695-5.8086 30.938-15.645 9.1484-12.672 23.832-20.172 39.465-20.152 15.523-0.074219 30.145 7.3047 39.305 19.84 7.25 9.8555 18.758 15.676 30.992 15.676s23.738-5.8203 30.988-15.676c0.82812-1.1211 2.0664-1.8672 3.4453-2.0742 1.3789-0.20703 2.7812 0.14063 3.9023 0.97266 1.2266 0.75391 2.0898 1.9766 2.3867 3.3867 0.30078 1.4102 0.003907 2.8789-0.8125 4.0664-9.2188 12.496-23.828 19.875-39.359 19.875s-30.141-7.3789-39.359-19.875c-7.1797-9.9375-18.707-15.801-30.965-15.746-12.27-0.042969-23.809 5.8164-31.016 15.746-9.25 12.789-24.152 20.27-39.938 20.047z"/>
</svg>
