<?xml version="1.0" encoding="UTF-8"?>
<svg class="icon" version="1.1" viewBox="0 0 96 96" xmlns="http://www.w3.org/2000/svg">
 <path d="m6.8061 68.424 82.08-6.4801s-19.224 25.92-38.88 25.92h-10.8s-31.752-4.32-32.4-19.44z" fill="#546e7a" stroke-width=".09923"/>
 <path d="m38.126 5.7835c4.104 0 7.56 3.456 7.56 7.56 0 4.1039-3.456 7.56-7.56 7.56-4.1039 0-7.56-3.456-7.56-7.56 0-4.1039 3.4559-7.56 7.56-7.56" fill="#ffba57" stroke-width=".09923"/>
 <path d="m91.046 61.944s-8.208-11.448-23.976-10.152c-15.768 1.296-25.92 4.104-34.344 3.672-8.424-0.43201-15.984 1.08-15.984 1.08l-9.936 11.88z" fill="#5ec08f" stroke-width=".09923"/>
 <path d="m50.261 36.358 11.664 4.5354-0.07371 0.18939-11.664-4.5354z" fill="#455a64" stroke-width=".09923"/>
 <path d="m6.8061 48.984h7.56c3.024 0 5.184 2.16 9.72 2.16h21.6l6.4801 6.4801h-17.28c-14.688 0-18.144-1.08-18.144-1.08-5.832-4.104-9.936-5.4-9.936-5.4v-2.16z" fill="#546e7a" stroke-width=".09923"/>
 <path d="m45.686 51.144 15.12-12.96s19.008 6.2641 30.24 23.76c0 0-7.992-6.264-21.6-6.4801-4.536 0-11.664 0.43201-17.28 2.16z" fill="#76dda6" stroke-width=".09923"/>
 <path d="m96 79.2c-7.2 0-9.6-4.8-9.6-4.8s-2.4 4.8-9.6 4.8c-7.1999 0-9.6-4.8-9.6-4.8s-2.4 4.8-9.6 4.8c-7.1999 0-9.6-4.8-9.6-4.8s-2.4 4.8-9.6 4.8-9.6-4.8-9.6-4.8-2.4 4.8-9.6 4.8c-7.1999 0-9.6-4.8-9.6-4.8s-2.4 4.8-9.6 4.8v16.8h96v-16.8z" fill="#7e8ccf" stroke-width=".11026"/>
 <path d="m96 84c-7.2 0-9.6-4.8-9.6-4.8s-2.4 4.8-9.6 4.8c-7.1999 0-9.6-4.8-9.6-4.8s-2.4 4.8-9.6 4.8c-7.1999 0-9.6-4.8-9.6-4.8s-2.4 4.8-9.6 4.8-9.6-4.8-9.6-4.8-2.4 4.8-9.6 4.8c-7.1999 0-9.6-4.8-9.6-4.8s-2.4 4.8-9.6 4.8v12h96v-12z" fill="#c5cae9" stroke-width=".11026"/>
 <path d="m18.686 40.344 5.184-12.528c1.08-3.024 3.672-4.752 6.6961-4.752 3.024 0 4.752 1.944 5.832 3.456 0 0 2.376 3.888 1.512 6.2641l-8.424 18.36h-5.4c-5.184 0-7.344-2.808-6.2641-8.208 0.4319-0.86422 0.6479-1.7281 0.8639-2.5921z" fill="#9575cd" stroke-width=".09923"/>
 <path d="m37.91 32.136-8.4241 19.008-3.888-0.64801 10.152-22.464z" fill="#7e57c2" stroke-width=".09923"/>
 <path d="m54.326 38.4c0.648-1.728-0.21601-3.456-1.944-4.104l-19.656-10.8c-1.728-0.648-3.456 0.216-4.104 1.944-0.64801 1.728 0.216 3.456 1.944 4.104l19.656 10.8c1.512 0.43201 3.4559-0.216 4.1039-1.944zm-24.84 30.024c1.296 0 2.592-0.86401 3.024-2.16l6.4801-17.28c0.43201-1.08 0.216-2.16-0.432-3.024-0.43201-0.86401-1.512-1.296-2.592-1.296h-12.96c-1.728 0-3.24 1.512-3.24 3.24 0 1.728 1.512 3.24 3.24 3.24h8.208l-4.752 12.96c-0.64801 1.728 0.216 3.456 1.944 4.104 0.43201 0.216 0.64801 0.216 1.08 0.216z" fill="#ffba57" stroke-width=".09923"/>
</svg>
