<?xml version="1.0" encoding="UTF-8"?>
<svg class="icon" version="1.1" viewBox="0 0 96 96" xmlns="http://www.w3.org/2000/svg">
 <path d="m49.68 37.491c3.6719 0 6.48 2.8079 6.48 6.48s-2.808 6.48-6.48 6.48c-3.6719 0-6.48-2.8079-6.48-6.48s2.8079-6.48 6.48-6.48" fill="#ffba57" stroke-width=".09923"/>
 <path d="m51.122 22.291 19.891 43.315" stroke="#546e7a" stroke-width="2.7"/>
 <path d="m12.96 63.411h17.28c10.584 0 25.056 2.16 39.744 6.696-0.86401 5.3999-7.56 12.744-15.984 14.904-8.4239 2.16-41.04 2.16-41.04 2.16h-12.96v-23.112z" fill="#5ec08f" stroke-width=".09923"/>
 <path d="m45.36 64.707s-6.9119-1.296-15.12-1.296h-19.224c0 1.08-0.216 1.944-0.216 2.16 0 5.616 8.6399 8.6399 17.28 8.6399 8.64 0 17.28-3.024 17.28-8.6399z" fill="#0d7c6f" stroke-width=".09923"/>
 <path d="m68.904 58.227c-0.432-1.728-2.376-2.8079-4.104-2.16-12.96 3.888-22.032-4.32-25.92-9.072 1.0801-15.336 12.312-15.984 14.04-15.984 1.7279 0 3.24-1.512 3.24-3.24 0-1.728-1.512-3.24-3.24-3.24-7.7759 0-22.032 4.968-22.68 23.76-3.024 2.8079-6.9119 7.344-10.584 14.904-0.648 1.08-1.08 2.376-1.728 3.6719l-0.432 1.08c2.16 1.08 5.832 1.944 10.368 1.944 3.456 0 6.0479-0.432 8.208-1.08 1.08-1.944 1.944-3.456 2.8079-4.5359 1.512-1.944 2.592-3.024 3.24-3.456 3.888 1.296 9.72 2.808 16.2 2.808 2.592 0 5.184-0.432 8.208-1.08 1.9441-0.8639 3.0241-2.5919 2.3761-4.3199z" fill="#ff754c" stroke-width=".09923"/>
 <path d="m52.272 24.747c3.24-1.512 1.2959-11.016-3.888-21.816l-11.664 5.4c4.968 10.8 12.312 17.928 15.552 16.416zm16.416 35.856c-3.24 1.728-1.512 11.664 3.888 22.248l11.664-5.832c-5.4-10.584-12.312-17.928-15.552-16.416z" fill="#546e7a" stroke-width=".09923"/>
 <path d="m96 81.6c-7.2 0-9.5999-4.8-9.5999-4.8s-2.4 4.8-9.5999 4.8c-7.1999 0-9.5999-4.8-9.5999-4.8s-2.4 4.8-9.5999 4.8c-7.1999 0-9.5999-4.8-9.5999-4.8s-2.4 4.8-9.5999 4.8c-7.1999 0-9.5999-4.8-9.5999-4.8s-2.4 4.8-9.5999 4.8c-7.1999 0-9.5999-4.8-9.5999-4.8s-2.4 4.8-9.5999 4.8v14.4h96v-14.4z" fill="#7e8ccf" stroke-width=".11026"/>
 <path d="m96 86.4c-7.2 0-9.5999-4.8-9.5999-4.8s-2.4 4.8-9.5999 4.8c-7.1999 0-9.5999-4.8-9.5999-4.8s-2.4 4.8-9.5999 4.8c-7.1999 0-9.5999-4.8-9.5999-4.8s-2.4 4.8-9.5999 4.8c-7.1999 0-9.5999-4.8-9.5999-4.8s-2.4 4.8-9.5999 4.8c-7.1999 0-9.5999-4.8-9.5999-4.8s-2.4 4.8-9.5999 4.8v9.5999h96v-9.5999z" fill="#c5cae9" stroke-width=".11026"/>
</svg>
