<?xml version="1.0" encoding="UTF-8"?>
<!-- Uploaded to: SVG Find, www.svgrepo.com, Generator: SVG Find Mixer Tools -->
<svg width="800px" height="800px" fill="#000000" version="1.1" viewBox="144 144 512 512" xmlns="http://www.w3.org/2000/svg">
 <path d="m307.8 393.45c2.5195-5.0391 8.0625-7.5586 13.602-5.543 5.0391 2.5195 7.5586 8.5664 5.0391 13.602-3.0234 7.0547-8.5664 13.098-14.609 17.129-6.5508 4.0312-13.602 6.5508-21.664 6.5508s-15.113-2.5195-21.16-6.0469c-6.5508-4.0312-11.586-9.5742-14.609-16.625-2.5195-5.0391 0-11.082 5.0391-13.602 5.0391-2.5195 11.082 0 13.602 5.0391 1.5117 3.5273 4.0312 6.0469 7.0547 8.0625s6.5508 3.0234 10.578 3.0234c4.0312 0 7.5586-1.0078 10.578-3.0234 2.5195-2.0156 4.5352-5.0391 6.5508-8.5664z"/>
 <path d="m326.44 401.01c-1.5117 5.543-7.5586 8.0625-12.594 6.5508-5.543-1.5117-8.0625-7.5586-6.5508-12.594 2.5195-8.0625 7.5586-14.609 14.609-19.648 6.5508-4.5352 14.609-7.5586 23.176-7.5586 8.5664 0 16.625 2.5195 23.176 7.5586 6.5508 4.5352 11.586 11.586 14.609 19.648 1.5117 5.0391-1.0078 11.082-6.5508 12.594-5.543 1.5117-11.082-1.0078-12.594-6.5508-1.5117-4.0312-4.0312-7.0547-7.0547-9.5742-3.0234-2.5195-7.0547-3.5273-11.082-3.5273-4.5352 0-8.0625 1.5117-11.586 3.5273-3.5273 2.0156-6.0469 5.543-7.5586 9.5742z"/>
 <path d="m417.63 393.45c2.5195-5.0391 8.5664-7.5586 13.602-5.543 5.0391 2.5195 7.5586 8.5664 5.0391 13.602-3.0234 7.0547-8.0625 13.098-14.609 17.129-6.0469 4.5352-13.605 6.5508-21.664 6.5508-7.5586 0-15.113-2.5195-21.16-6.0469-6.5508-4.0312-11.586-9.5742-14.609-16.625-2.5195-5.0391 0-11.082 5.0391-13.602 5.0391-2.5195 11.082 0 13.602 5.0391 1.5117 3.5273 4.0312 6.0469 7.0547 8.0625 3.0234 2.0156 6.5508 3.0234 10.578 3.0234 4.0312 0 7.5586-1.0078 10.578-3.0234 3.0234-2.0156 5.0391-5.0391 6.5508-8.5664z"/>
 <path d="m436.78 401.01c-2.0156 5.543-7.5586 8.0625-13.098 6.5508-5.543-1.5117-8.0625-7.5586-6.5508-12.594 3.0234-8.5703 8.0586-15.117 15.113-20.156 6.5508-4.5352 14.609-7.5586 23.176-7.5586 8.5664 0 16.625 2.5195 23.176 7.5586 6.5508 4.5352 12.09 11.586 14.609 19.648 2.0156 5.0391-1.0078 11.082-6.5508 12.594-5.0391 1.5117-11.082-1.0078-12.594-6.5508-1.5117-4.0312-4.0312-7.0547-7.0547-9.5742-3.0234-2.5195-7.0547-3.5273-11.586-3.5273-4.0312 0-8.0625 1.5117-11.082 3.5273-4.0312 2.5234-6.0469 6.0508-7.5586 10.082z"/>
 <path d="m527.46 393.45c2.5195-5.0391 8.5664-7.5586 13.602-5.0391 5.0391 2.0156 7.5586 8.0625 5.0391 13.098-3.0234 7.0547-8.5664 13.098-14.609 17.129-6.5508 4.0312-13.602 6.5508-21.664 6.5508-7.5586 0-15.113-2.5195-21.16-6.0469-6.5508-4.0312-11.586-9.5742-14.609-16.625-2.5195-5.0391 0-11.082 5.0391-13.602 5.0391-2.5195 11.082 0 13.602 5.0391 1.5117 3.5273 4.0312 6.0469 7.5586 8.0625 3.0234 2.0156 6.5508 3.0234 10.578 3.0234 4.0312 0 7.5586-1.0078 10.578-3.0234 2.0195-2.0156 5.0391-5.0391 6.0469-8.5664z"/>
 <path d="m546.61 401.01c-1.5117 5.543-7.5586 8.0625-12.594 6.5508-5.543-1.5117-8.0625-7.5586-6.5508-12.594 2.5195-8.0625 7.5586-14.609 14.609-19.648 6.5508-4.5352 14.609-7.5586 23.176-7.5586s16.625 2.5195 23.176 7.5586c6.5508 4.5352 11.586 11.586 14.609 19.648 2.0156 5.0391-1.0078 11.082-6.5508 12.594-5.543 1.5117-11.082-1.0078-12.594-6.5508-1.5117-4.0312-4.0312-7.0547-7.0547-9.5742-3.0234-2.5195-7.0547-3.5273-11.586-3.5273-4.0312 0-8.0625 1.5117-11.082 3.5273-3.5273 2.0156-6.0469 5.543-7.5586 9.5742z"/>
 <path d="m216.61 401.01c-1.5117 5.543-7.5586 8.0625-12.594 6.5508-5.543-1.5117-8.0625-7.5586-6.5508-12.594 2.5195-8.0625 8.0625-14.609 14.609-19.648 6.5508-4.5352 14.609-7.5586 23.176-7.5586 5.543 0 10.078 4.5352 10.078 10.078 0 5.543-4.5352 10.078-10.078 10.078-4.0312 0-8.0625 1.5117-11.082 3.5273-3.5312 2.0078-6.0469 5.5352-7.5586 9.5664zm34.762-4.5352c-3.0234-4.5352-2.0156-11.082 2.5195-14.105 4.5352-3.0234 11.082-2.0156 14.105 2.5195 1.0078 1.5117 2.0156 3.0234 2.5195 4.5352 1.0078 1.5117 1.5117 3.5273 2.0156 5.0391 2.0156 5.0391-1.0078 11.082-6.5508 12.594-5.543 1.5117-11.082-1.0078-12.594-6.5508-0.50391-1.0078-0.50391-1.5117-1.0078-2.5195 0-0.50391-1.0078-1.0078-1.0078-1.5117z"/>
 <path d="m619.66 405.04c5.543 0 10.078 4.5352 10.078 10.078s-4.5352 10.078-10.078 10.078c-7.5586 0-15.113-2.5195-21.16-6.0469-6.5508-4.0312-11.586-9.5742-14.609-16.625-2.5195-5.0391 0-11.082 5.0391-13.602 5.0391-2.5195 11.082 0 13.602 5.0391 1.5117 3.5273 4.0312 6.0469 7.0547 8.0625 3.0195 2.0078 6.5469 3.0156 10.074 3.0156z"/>
 <path d="m180.34 425.19c-5.543 0-10.078-4.5352-10.078-10.078s4.5352-10.078 10.078-10.078c3.5273 0 7.5586-1.0078 10.578-3.0234 3.0234-2.0156 5.543-5.0391 7.0547-8.0625 2.5195-5.0391 8.5664-7.0547 13.602-5.0391 5.0391 2.5195 7.5586 8.5664 5.0391 13.602-3.0234 7.0547-8.5664 12.594-14.609 16.625-6.5469 4.0391-14.105 6.0547-21.664 6.0547z"/>
 <path d="m245.33 377.83c0 5.543-4.5352 10.078-10.078 10.078s-10.078-4.5352-10.078-10.078v-20.152c0-16.625 6.5508-32.242 17.633-43.328 11.082-11.082 26.199-18.137 43.328-18.137h17.129c5.543 0 10.078 4.5352 10.078 10.078v7.0547c0 5.543 2.5195 10.578 6.0469 14.105l0.50391 0.50391c3.5273 3.5273 8.5664 5.543 13.602 5.543h41.816c5.543 0 10.078 4.5352 10.078 10.078s-4.5352 10.078-10.078 10.078h-41.816c-10.578 0-20.656-4.5352-27.711-11.082-0.50391 0-0.50391-0.50391-0.50391-0.50391-6.5508-6.5508-11.082-15.617-11.586-25.191h-7.5586c-11.082 0-21.664 4.5352-28.719 12.09-7.5586 7.5586-12.09 17.633-12.09 28.719zm169.79-24.184c-5.543 0-10.078-4.5352-10.078-10.078 0-5.543 4.5352-10.078 10.078-10.078h58.945c5.543 0 10.578-2.5195 14.105-6.0469 3.5273-3.5273 6.0469-8.5664 6.0469-14.105v-7.0547c0-5.543 4.5352-10.078 10.078-10.078h17.129c13.602 0 25.695 4.5352 35.77 11.586 10.578 7.5586 18.137 18.641 22.168 31.234 1.5117 5.543-1.5117 11.082-6.5508 12.594-5.0391 1.5117-11.082-1.5117-12.594-6.5508-2.5195-8.5664-8.0625-15.617-14.609-20.656-6.5508-5.0391-15.113-8.0625-24.184-8.0625h-7.5586c-0.50391 10.078-5.0391 18.641-11.586 25.191-7.5586 7.5586-17.633 11.586-28.719 11.586l-58.441 0.015625z"/>
 <path d="m449.37 271.53c3.0234-4.5352 9.0703-6.0469 14.105-3.0234 4.5352 3.0234 6.0469 9.5742 3.0234 14.105l-62.977 96.23c-3.0234 4.5352-9.0703 6.0469-14.105 3.0234-4.5352-3.0234-6.0469-9.5742-3.0234-14.105zm-82.121 125.45c3.0234-4.5352 9.5742-6.0469 14.105-3.0234 4.5352 3.0234 6.0469 9.0703 3.0234 14.105l-21.664 33.25c-3.0234 4.5352-9.5742 6.0469-14.105 3.0234-4.5352-3.0234-6.0469-9.5742-3.0234-14.105z"/>
 <path d="m361.71 422.67c0.50391 0.50391 1.0078 0.50391 1.5117 1.0078 9.0703 6.0469 14.609 15.113 16.625 25.191s0.50391 20.656-5.0391 29.727c-0.50391 0.50391-0.50391 1.0078-1.0078 1.5117l-43.328 65.992c-3.0234 4.5352-9.5742 6.0469-14.105 3.0234l-50.883-33.25c-4.5352-3.0234-6.0469-9.5742-3.0234-14.105l43.328-66c0.50391-0.50391 0.50391-1.0078 1.0078-1.5117 6.0469-9.0703 15.113-14.609 25.191-16.625 9.5664-2.5195 20.148-0.50391 29.723 5.0391zm-10.582 17.129c-4.5352-3.0234-10.078-3.5273-15.617-2.5195-5.0391 1.0078-9.5742 4.0312-12.594 8.5664l-37.785 58.441 33.754 22.168 38.289-58.441c3.0234-4.5352 4.0312-10.078 3.0234-15.113-1.5117-5.043-4.5352-9.5781-9.0703-13.102z"/>
 <path d="m490.18 285.63c4.5352 3.0234 6.0469 9.5742 3.0234 14.105-3.0234 4.5352-9.5742 6.0469-14.105 3.0234l-52.898-34.258c-4.5352-3.0234-6.0469-9.5742-3.0234-14.105 3.0234-4.5352 9.0703-6.0469 14.105-3.0234z"/>
</svg>
