<?xml version="1.0" encoding="UTF-8"?>
<!-- Uploaded to: SVG Find, www.svgrepo.com, Generator: SVG Find Mixer Tools -->
<svg width="800px" height="800px" fill="#000000" version="1.1" viewBox="144 144 512 512" xmlns="http://www.w3.org/2000/svg">
 <path d="m450.25 315.89c-0.59375-0.76562-0.80078-1.75-0.56641-2.6914l3-11.832c0.35547-1.3906 1.5977-2.3633 3.0352-2.3633h17.324c1.4336 0 2.6797 0.96875 3.0312 2.3633l3 11.832c0.24219 0.94141 0.035156 1.9219-0.56641 2.6914-0.59375 0.76562-1.4961 1.207-2.4688 1.207h-23.32c-0.97266 0-1.8711-0.4375-2.4688-1.207z"/>
 <path d="m572.43 323.29c-0.77344-0.75391-1.8359-1.1719-2.8828-1.1445-12.02 0.19531-24.059 0.39062-36.109 0.58203-7.0117 0.11328-14.023 0.22656-21.031 0.33594l13.895-25.371c0.46094-0.84766 0.44141-1.8906-0.054688-2.7227s-1.4062-1.3477-2.375-1.332l-12.594 0.13281c-0.85547 0.003907-1.668 0.41797-2.1758 1.1016l-21.211 28.586c-11.598 0.1875-23.191 0.36719-34.754 0.5625-25.57 0.41406-52.004 0.83594-77.426 6.9883-7.5977 1.8359-13.574 3.5859-19.125 5.6328l-0.019532-0.050781c-6.6602 2.4336-13.441 5.3711-20.812 8.9531-0.011718 0.003906-0.015624 0.003906-0.023437 0.011719-0.57422 0.28125-1.1562 0.5625-1.7383 0.85156-11.57 5.7188-24.652 13.012-41 22.441l0.050781 0.082032h-17.75c-11.68 0-23.129 4.0234-32.242 11.324l-17.062 13.672h281.2v-42.301c1-2.332 2.3906-3.7734 5.0781-5.3438 1.9336-1.1328 4.1875-2.0508 6.6914-2.7461 7.3555-2.0117 15.172-3.0312 22.734-4.0156l28.48-3.6992c1.9844-0.28516 3.4766-2.0078 3.4766-4.0039v-5.6328c0.003906-1.082-0.44141-2.1367-1.2188-2.8945zm-221.28 23.203v0.003906h-0.042969v-0.003906zm33.938 22.43h-72.371c20.816-11.691 33.477-17.91 45.324-22.391l27.051 0.15234zm30.562-1.2344h-20.723v-19.73c6.9219 0.035157 13.859 0.074219 20.723 0.10938zm53.594 1.2344h-43.754v-22.035c6.668 0.039062 13.211 0.074219 19.547 0.10938 10.594 0.058594 20.738 2.3516 24.207 5.3477z"/>
 <path d="m585.72 412.69c-1.0469-6.3125-6.4531-10.898-12.859-10.898h-377.73v7.3789h5.3086l15.293 23.816c1.6719 0.34375 3.3555 0.68359 5.0469 1.0195 1.7031 0.33984 3.418 0.66797 5.1406 0.98828 90.633 17.012 206.34 15.703 309.65 12.727 0.44922-6.3125 5.7266-11.312 12.148-11.312h40.762c0.40234 0 0.79688 0.023438 1.1914 0.0625zm-303.92 10.105h-25.598v-7.3789h25.598zm42.48 0h-25.605v-7.3789h25.605zm244.27 0h-16.973v-7.3789h16.973z"/>
 <path d="m587.88 465.64-3.6172 13.891c-0.63281 2.4766-2.8789 4.2656-5.4531 4.3359l-252.78 8.418c-1.2773 0.035156-2.5586 0.054688-3.8281 0.054688-39.754 0-76.891-18.691-100.54-50.633 1.8008 0.34375 3.6094 0.68359 5.4336 1.0195 1.8555 0.33984 3.7188 0.67578 5.5977 1 59.098 10.234 127.82 13.18 196.52 13.18 35.941 0 71.883-0.80859 106.44-1.8008 0.80078 5.9453 5.9102 10.539 12.062 10.539z"/>
 <path d="m607.57 437.77v26.527h-7.3789v-9.5742h-8.2969v0.13672c0 0.097656-0.003906 0.19531-0.015625 0.29688 0 0.011718-0.003906 0.023437-0.003906 0.035156 0 0.019531 0 0.039062-0.003906 0.058594-0.003906 0.070312-0.015625 0.13672-0.03125 0.20703 0 0.003906-0.003906 0.011719-0.003906 0.015625-0.011719 0.058594-0.019532 0.11328-0.035157 0.16797-0.011719 0.058593-0.023437 0.11719-0.042969 0.17578-0.011718 0.042969-0.023437 0.089844-0.039062 0.13281-0.019531 0.0625-0.042969 0.12891-0.070312 0.1875-0.035157 0.082032-0.074219 0.16797-0.11328 0.24609-0.035156 0.070313-0.070312 0.13281-0.10938 0.19531-0.015625 0.035156-0.035156 0.0625-0.054687 0.09375-0.015625 0.023437-0.035156 0.050781-0.050782 0.074219-0.015624 0.023437-0.035156 0.054687-0.054687 0.074218-0.054687 0.078125-0.10938 0.15625-0.17188 0.23047-0.058594 0.070313-0.12109 0.13672-0.19141 0.20312-0.019532 0.023438-0.042969 0.050781-0.070313 0.070312-0.039062 0.042969-0.082031 0.082032-0.12891 0.11719l-0.003906 0.003906c-0.039063 0.035156-0.074219 0.058594-0.11328 0.089844-0.011719 0.011719-0.019532 0.015625-0.03125 0.023438-0.042969 0.039062-0.089844 0.070312-0.13672 0.10156-0.015625 0.011719-0.03125 0.019531-0.050781 0.035156-0.070313 0.042969-0.13672 0.089844-0.21094 0.12891 0 0-0.003906 0-0.003906 0.003907-0.042969 0.023437-0.089844 0.050781-0.13672 0.070312-0.042969 0.023438-0.09375 0.042969-0.14453 0.070313-0.10938 0.050781-0.21484 0.09375-0.32812 0.12891-0.054688 0.019531-0.10938 0.035156-0.16797 0.050781-0.054688 0.019531-0.11328 0.035157-0.17188 0.042969-0.03125 0.011719-0.0625 0.015625-0.097656 0.019531-0.089844 0.019531-0.18359 0.03125-0.27734 0.039063-0.11328 0.015625-0.23047 0.019531-0.34766 0.019531h-40.762c-0.14453 0-0.28516-0.003906-0.42969-0.019531-0.019531 0-0.042968-0.003906-0.0625-0.003906-0.10156-0.011719-0.20312-0.023438-0.30078-0.039063-0.050781-0.011719-0.097656-0.019531-0.14453-0.03125-0.011719 0-0.019531-0.003906-0.03125-0.003906-0.10938-0.023438-0.21484-0.050781-0.32031-0.078125-0.011719 0-0.015626-0.003906-0.023438-0.003906-0.11328-0.03125-0.22656-0.070313-0.33984-0.10938-0.074218-0.03125-0.14844-0.054687-0.21484-0.089843-0.058593-0.019531-0.11719-0.050781-0.17578-0.078125-0.054687-0.023438-0.10156-0.050782-0.15625-0.078125-0.070312-0.03125-0.13281-0.070313-0.20312-0.10938-0.003906 0-0.015625-0.003906-0.019531-0.011719-0.003906 0-0.003906-0.003906-0.011719-0.003906-0.03125-0.019531-0.058594-0.035157-0.082031-0.054688-0.035156-0.015625-0.070313-0.035156-0.097656-0.058593-0.023438-0.015626-0.050781-0.03125-0.070313-0.050782-0.054687-0.035156-0.10938-0.070312-0.15625-0.10938-0.13281-0.097656-0.26562-0.20703-0.39062-0.32031-0.058593-0.050781-0.11328-0.10156-0.16797-0.15625-0.089843-0.089844-0.17578-0.18359-0.26172-0.28125-0.0625-0.078125-0.12891-0.15625-0.19141-0.24219-0.17578-0.23438-0.32813-0.49219-0.46094-0.75781-0.039062-0.082031-0.078125-0.16797-0.11328-0.25-0.023438-0.050781-0.042969-0.097657-0.0625-0.15234-0.035157-0.09375-0.070313-0.1875-0.097657-0.28516-0.050781-0.15625-0.089843-0.32031-0.12109-0.48047v-0.003906l-0.09375-3.1211v-2.6797c0-2.6523 2.1484-4.8086 4.8008-4.8086h40.762c0.11719 0 0.23438 0.003906 0.34766 0.019531 0.097656 0.011719 0.20312 0.023438 0.30078 0.042969 0.042969 0.011719 0.082032 0.019531 0.12109 0.023437 0.003906 0.003906 0.011719 0.003906 0.015625 0.003906 0.042969 0.011719 0.082031 0.019532 0.12109 0.035157 0.050781 0.011719 0.09375 0.023437 0.13672 0.039062 0.082031 0.023438 0.16406 0.054688 0.24609 0.082031 0.015625 0.011719 0.035157 0.015626 0.050781 0.019532 0.058594 0.03125 0.11719 0.054687 0.17188 0.082031 0.003906 0 0.003906 0.003906 0.011718 0.003906 0.042969 0.019531 0.082032 0.042969 0.12109 0.0625 0.042969 0.023438 0.082031 0.054688 0.12891 0.078125h0.003906c0.09375 0.054688 0.1875 0.11719 0.26953 0.1875 0.019531 0.011719 0.035156 0.023438 0.050781 0.035156 0.003906 0.003907 0.015625 0.011719 0.019531 0.015626 0.054688 0.042968 0.10156 0.089843 0.15234 0.13281l0.023438 0.023438c0.054687 0.042968 0.10937 0.09375 0.15234 0.14844l0.019531 0.019531c0.050782 0.042969 0.09375 0.09375 0.13672 0.14844v0.003906c0.042969 0.050781 0.089844 0.10156 0.12891 0.16406 0.019531 0.019532 0.035156 0.039063 0.050781 0.058594 0 0.003906 0.003906 0.011719 0.003906 0.015625 0.050781 0.0625 0.09375 0.13281 0.13281 0.20312 0.015624 0.019532 0.023437 0.035156 0.035156 0.050782 0.003906 0.011718 0.011718 0.015624 0.015625 0.023437 0.003906 0.003906 0.003906 0.011719 0.011719 0.015625 0.023437 0.054688 0.054687 0.10938 0.078124 0.16406 0.003907 0.003907 0.011719 0.011719 0.011719 0.015626 0.011719 0.023437 0.023438 0.042968 0.03125 0.070312 0.023438 0.050781 0.050781 0.097656 0.070313 0.14844 0.03125 0.070312 0.054687 0.13672 0.074218 0.21094 0.015626 0.042969 0.03125 0.082031 0.039063 0.12891 0.003906 0.011719 0.003906 0.023438 0.011719 0.035157 0.023437 0.082031 0.042968 0.16406 0.058594 0.24609 0.019531 0.097657 0.035156 0.19531 0.042968 0.30078v0.011719c0.015625 0.11328 0.019532 0.23047 0.019532 0.34766v0.13672h8.2969v-9.5742z"/>
</svg>
