<?xml version="1.0" encoding="UTF-8"?>
<!-- Uploaded to: SVG Find, www.svgrepo.com, Generator: SVG Find Mixer Tools -->
<svg width="800px" height="800px" fill="#000000" version="1.1" viewBox="144 144 512 512" xmlns="http://www.w3.org/2000/svg">
 <path d="m410.25 573.36c47.367-58.23 96.465-158.08 114.66-195.34 37.172-76.105 10.723-186.78 10.723-186.78-0.55078-2.2812-2.0859-4.1953-4.1953-5.2266s-4.5664-1.0703-6.6992-0.10156c0 0-68.457 31.062-113.91 83.508-21.379-53.41-55.512-94.859-55.512-94.859-1.4961-1.8008-3.7148-2.8516-6.0625-2.8516s-4.5742 1.0469-6.0703 2.8516c0 0-72.336 87.836-72.336 172.54 0 37.016 0.20313 129.71 12.367 201.11 5.3828 31.613 13.219 59.133 24.113 76.406 1.8125 2.8828 5.2656 4.2656 8.5664 3.4414l33.363-8.3359s33.355 8.3359 33.355 8.3359c3.2969 0.82812 6.7539-0.55859 8.5742-3.4414 7.8711-12.492 14.152-30.355 19.066-51.246zm-0.85156-120.63c-1.1406 20.309-2.793 41.406-5.2031 61.758-4.5742 38.73-11.699 74.73-23.508 96.848 0 0-29.527-7.375-29.527-7.375-1.25-0.31641-2.5586-0.31641-3.8164 0l-29.52 7.375c-11.801-22.105-18.926-58.086-23.508-96.793zm17.199-32.738c-0.66016 19.285-1.6211 38.559-3.0781 57.797-1.4961 19.672-3.5117 39.312-6.3828 58.836l-0.25 1.6602c40.211-57.535 78.383-135.45 93.883-167.18 24.355-49.871 19.484-115.49 14.242-150.9l-98.406 199.79zm-15.145-21.988c-0.23438 11.328-0.59766 23.586-1.1484 36.359l-117.8 63.281c-1.1094-11.406-2.0156-22.914-2.7461-34.266l121.7-65.379zm0.43359-53.844c0.015626 0.97656 0.03125 1.9609 0.03125 2.9375 0 8.375-0.007812 19.641-0.16406 32.883l-123 66.07c-0.62109-12.121-1.0625-23.898-1.3789-35.008l124.51-66.879zm-8.4297-49.082c3.1875 10.414 5.668 21.129 7.0938 31.93l-123.58 66.387c-0.25-13.594-0.33984-25.703-0.36328-35.551l116.85-62.762zm109.12-85.254c-24.09 13.297-66.367 39.949-95.512 76.723 6.3828 19.508 10.598 40.125 10.598 60.551 0 8.9492-0.015625 21.152-0.20312 35.52l85.121-172.79zm-114.28 70.148-111.52 59.906c3.1562-62.914 46.305-125.95 62.48-147.5 10.918 14.547 34.141 48.012 49.043 87.594z" fill-rule="evenodd"/>
</svg>
