<?xml version="1.0" encoding="UTF-8"?>
<!-- Uploaded to: SVG Find, www.svgrepo.com, Generator: SVG Find Mixer Tools -->
<svg width="800px" height="800px" fill="#000000" version="1.1" viewBox="144 144 512 512" xmlns="http://www.w3.org/2000/svg">
 <path d="m609.39 243.34v-1.9688c0-3.9375-3.1484-7.0859-7.0859-7.0859h-45.266c-10.234-14.957-27.551-24.402-45.266-25.191-16.137-0.39453-30.699 5.1172-42.117 16.137-11.414 11.02-17.711 25.977-17.711 41.723 0 8.2656 1.9688 16.531 5.5117 24.008 0 0.39453 0 0.39453 0.39453 0.78906l0.78906 1.5742c0.39453 0.39453 0.39453 1.1797 0.78906 1.5742l0.39453 0.39453 24.797 37c3.543 5.5117 3.9375 12.203 0.78906 18.105-3.1484 5.9023-9.0547 9.0547-15.352 9.0547h-11.02c-9.4453-18.105-28.34-30.309-49.988-30.309h-120.05c-2.3633 0-4.3281 1.1797-5.5117 2.7539-1.1797 1.9688-1.5742 4.3281-0.78906 6.2969l7.0859 20.074c0 0.39453 0.39453 0.78906 0.39453 1.1797l-92.496 0.003906c-2.3633 0-4.3281 1.1797-5.5117 3.1484-1.1797 1.9688-1.5742 4.3281-0.78906 6.2969l5.1172 14.168c11.809 31.883 35.426 57.07 64.551 71.637h-7.4766c-21.254 0-38.574 17.32-38.574 38.574 0 9.4453 3.543 18.105 9.0547 24.797h-25.977c-3.9375 0-7.0859 3.1484-7.0859 7.0859s3.1484 7.0859 7.0859 7.0859h404.62c3.9375 0 7.0859-3.1484 7.0859-7.0859s-3.1484-7.0859-7.0859-7.0859h-25.977c5.5117-6.6914 9.0547-15.352 9.0547-24.797 0-19.285-14.562-35.426-33.062-38.18 22.043-14.562 37-39.754 37-68.094v-4.3281c0-11.414-2.7539-23.223-7.4766-33.457l-23.617-50.383c1.5742-2.7539 3.1484-5.5117 4.3281-8.2656 25.188 0.003906 46.441-21.25 46.441-47.23zm-47.23 33.457h-8.6602c-7.4766 0-13.383-5.9023-13.383-13.383v-1.9688c0-7.0859 5.5117-12.988 12.594-13.383h42.508c-2.3594 16.141-16.527 28.734-33.059 28.734zm-153.9 66.125c23.617 0 42.508 18.895 42.508 42.508 0 23.617-18.895 42.508-42.508 42.508-47.23 0-89.742-29.914-105.88-74.391l-3.9375-11.02h109.82zm138.55 125.16c13.777 0 24.797 11.02 24.797 24.797s-11.02 24.797-24.797 24.797h-293.63c-13.777 0-24.797-11.02-24.797-24.797s11.02-24.797 24.797-24.797zm22.434-112.96c3.9375 8.6602 6.2969 18.105 6.2969 27.551v4.3281c0 37.391-30.309 67.699-67.699 67.699h-188.93c-48.805-0.39062-92.887-31.094-109.81-76.355l-1.5742-4.7227h88.559c21.648 41.328 64.551 68.09 112.18 68.09 31.094 0 56.285-25.191 56.285-56.285 0-4.3281-0.39453-8.2656-1.1797-12.203h5.9023c11.809 0 22.043-6.2969 27.551-16.531 5.5117-10.234 5.1172-22.434-1.5742-32.273l-24.402-36.211c0-0.39453-0.39453-0.39453-0.39453-0.78906l-0.78906-1.1797v-0.39453c-2.7539-5.9023-4.3281-12.203-4.3281-18.895 0-12.203 4.7227-23.223 13.383-31.883 8.6602-8.2656 20.074-12.988 32.273-12.203 11.414 0.39453 22.434 5.9023 30.309 14.168-9.0547 4.3281-15.352 13.777-15.352 24.402v1.9688c0 12.594 9.0547 23.617 20.859 26.371-0.78906 1.5742-1.9688 2.7539-2.7539 4.3281-1.5742 1.9688-1.9688 4.7227-0.78906 7.0859 0 0.39453 0.39453 0.39453 0.39453 0.78906z"/>
 <path d="m503.52 239.02c-5.1172 0-9.0547 3.9375-9.0547 9.0547s3.9375 9.0547 9.0547 9.0547 9.0547-3.9375 9.0547-9.0547-3.9375-9.0547-9.0547-9.0547z"/>
 <path d="m559.8 547.6h-229.47c-3.9375 0-7.0859 3.1484-7.0859 7.0859s3.1484 7.0859 7.0859 7.0859h229.47c3.9375 0 7.0859-3.1484 7.0859-7.0859s-3.1484-7.0859-7.0859-7.0859z"/>
 <path d="m302.78 554.29c0-3.9375-3.1484-7.0859-7.0859-7.0859l-55.496 0.003906c-3.9375 0-7.0859 3.1484-7.0859 7.0859s3.1484 7.0859 7.0859 7.0859h55.891c3.543-0.003906 6.6914-3.1523 6.6914-7.0898z"/>
 <path d="m504.3 577.12h-29.523c-3.9375 0-7.0859 3.1484-7.0859 7.0859s3.1484 7.0859 7.0859 7.0859h29.52c3.9375 0 7.0859-3.1484 7.0859-7.0859 0-3.9336-3.543-7.0859-7.082-7.0859z"/>
 <path d="m446.45 577.12h-150.75c-3.9375 0-7.0859 3.1484-7.0859 7.0859s3.1484 7.0859 7.0859 7.0859h150.75c3.9375 0 7.0859-3.1484 7.0859-7.0859-0.003906-3.9336-3.1523-7.0859-7.0859-7.0859z"/>
</svg>
