<?xml version="1.0" encoding="UTF-8"?>
<svg class="icon" version="1.1" viewBox="0 0 96 96" xmlns="http://www.w3.org/2000/svg">
 <circle cx="22" cy="82" r="10" fill="#e64a19" stroke="#ff754c" stroke-linecap="round" stroke-linejoin="round" stroke-width="4"/>
 <circle cx="48" cy="82" r="10" fill="#e64a19" stroke="#ff754c" stroke-linecap="round" stroke-linejoin="round" stroke-width="4"/>
 <circle cx="74" cy="82" r="10" fill="#e64a19" stroke="#ff754c" stroke-linecap="round" stroke-linejoin="round" stroke-width="4"/>
 <path d="m8 71h80" fill="none" stroke="#ff754c" stroke-linecap="round" stroke-width="6"/>
 <path d="m95.999 81.6c-7.1999 0-9.5999-4.8-9.5999-4.8s-2.4 4.8-9.5999 4.8-9.5999-4.8-9.5999-4.8-2.4 4.8-9.5999 4.8-9.5999-4.8-9.5999-4.8-2.4 4.8-9.5999 4.8-9.5999-4.8-9.5999-4.8-2.4 4.8-9.5999 4.8-9.5999-4.8-9.5999-4.8-2.4 4.8-9.5999 4.8v14.4h96z" fill="#7e8ccf"/>
 <path d="m95.999 86.4c-7.1999 0-9.5999-4.8-9.5999-4.8s-2.4 4.8-9.5999 4.8-9.5999-4.8-9.5999-4.8-2.4 4.8-9.5999 4.8-9.5999-4.8-9.5999-4.8-2.4 4.8-9.5999 4.8-9.5999-4.8-9.5999-4.8-2.4 4.8-9.5999 4.8-9.5999-4.8-9.5999-4.8-2.4 4.8-9.5999 4.8v9.5999h96z" fill="#c5cae9"/>
 <g transform="matrix(.11494 0 0 .11445 40.654 33.336)">
  <path d="m20.21-222.65c-28.91 0-51.011 22.116-51.011 51.027s22.101 51.01 51.011 51.01c28.91 0 51.011-22.099 51.011-51.01s-22.101-51.027-51.011-51.027zm-61.718 115.13c-16.747-2.1056-29.004 7.2248-36.041 18.721l-47.679 83.822c-1.1424 2.4554-1.8606 5.0867-2.124 7.782l-6.2192 63.416c-1.2888 13.173 8.3403 24.898 21.512 26.196 13.178 1.2923 24.909-8.3422 26.202-21.52l5.8284-59.338 35.642-62.339-1.7252 235.81-34.834 79.8c-8.503 11.904-5.1073 27.216 6.7969 35.719 5.1018 3.4012 8.509 5.1027 13.611 5.1027 8.503 0 17.007-3.4089 20.408-11.912l39.932-86.609c3.4012-3.4012 5.0977-8.4996 5.0977-13.601l17.009-78.229 51.011 68.024v95.227c0 13.605 11.918 25.513 25.522 25.513 13.605 0 25.505-11.908 25.505-25.513v-102.04c0-5.1018-1.6979-8.4936-3.3985-11.895l-49.329-86.728v-105.02l64.796 59.644c7.4201 6.2731 17.762 3.2793 24.346 0.42753l63.364-40.241c11.132-7.1716 14.343-22.01 7.1708-33.142-7.1724-11.127-22.005-14.335-33.135-7.1676-17.379 11.181-31.549 20.262-48.258 30.838l-65.387-65.618c-22.879-19.063-89.178-21.443-125.63-25.133z" fill="#ffb74d" stroke-width="6.8116"/>
  <path d="m-51.67 65.988-2.4787 119.04 72.273 1.6524 0.96319-58.389 45.52 60.632 66.404-18.147c0-1.7006-3.9039-8.9094-3.9039-10.61l-55.878-93.354z" fill="#5f6fc4" stroke-width="6.8116"/>
  <path d="m282.59 304.01-50.909-362.75c-8.0278-42.886 32.946-51.308 16.751-127.92-8.9144-42.166-7.786-70.744-28.961-69.646l-68.697 3.5616c-19.53 1.0125-6.3139 47.159 0.8255 84.361 15.221 79.314 43.213 71.25 52.29 115.7l50.652 360.66c9.7346 4.0889 19.38 6.9285 28.049-3.9753z" fill="#546e7a" stroke-width=".80553"/>
 </g>
</svg>
