<?xml version="1.0" encoding="UTF-8"?>
<svg class="icon" version="1.1" viewBox="0 0 96 96" xmlns="http://www.w3.org/2000/svg">
 <path d="m83.265 48.81v-0.61406c0-1.6375-1.4328-3.0703-3.0703-3.0703h-13.714l-6.9594-5.5265c-1.4328-1.0234-3.275-0.81877-4.2984 0.61406-1.0234 1.4328-0.81878 3.275 0.61406 4.2984l7.7781 6.1406c0.61406 0.40934 1.2281 0.61406 1.8422 0.61406h5.5265s-3.8891 9.825-4.0938 10.234h-7.3688c-0.81878 0-1.8422 0.20471-2.2516 0.81877l-7.7781 10.439c-1.2281 1.2281-1.2281 3.0703 0 4.2984 0.61406 0.61406 1.4328 0.81878 2.2516 0.81878 0.81877 0 1.6375-0.20472 2.2516-0.81878l6.7546-9.4156h12.281c2.2515 0 4.0938-1.4328 4.7078-3.275l4.5031-12.486c0.61416-1.4327 1.0235-2.2515 1.0235-3.0703zm-6.1406-20.059c3.4797 0 6.1406 2.661 6.1406 6.1406 0 3.4796-2.661 6.1406-6.1406 6.1406-3.4796 0-6.1406-2.661-6.1406-6.1406 0-3.4796 2.6609-6.1406 6.1406-6.1406z" fill="#ffb74d" stroke-width=".094268"/>
 <path d="m41.304 12.376c17.808 21.492 0.81878 67.342 0.81878 67.342l-36.844-14.328s15.556-40.733 36.025-53.014z" fill="#e0dddc" stroke-width=".094268"/>
 <path d="m49.492 42.874c-13.509 5.7312-32.136 13.509-42.166 17.603-1.2281 3.0703-2.0469 4.9125-2.0469 4.9125l0.61406 0.20472c8.3922-3.4797 28.452-12.077 43.394-18.217 0-1.4327 0-3.0703 0.20462-4.503zm-24.972 30.089c7.1641-2.8657 15.556-6.3453 22.311-9.211 0.40934-1.6375 0.61406-3.0703 1.0234-4.9125-8.3922 3.4797-20.059 8.1875-28.861 11.872zm23.539-44.827c-8.8015 3.6844-21.492 8.8015-30.294 12.486-1.2281 1.8422-2.2516 3.8891-3.275 5.7312 8.5969-3.4797 23.744-9.6203 34.388-14.123-0.40943-1.2281-0.61416-2.661-0.81877-4.0938z" fill="#bac8ce" stroke-width=".094268"/>
 <path d="m44.17 80.332-3.8891-1.4328c0.20471-0.40934 17.603-40.733 1.0234-66.524l3.4797-2.0469c17.194 27.223 0.20463 68.161-0.61405 70.003z" fill="#bac8ce" stroke-width=".094268"/>
 <path d="m96 81.648c-7.1999 0-9.6-4.8-9.6-4.8s-2.4 4.8-9.6 4.8c-7.1999 0-9.6001-4.8-9.6001-4.8s-2.4 4.8-9.6 4.8c-7.1999 0-9.6-4.8-9.6-4.8s-2.4 4.8-9.6 4.8c-7.1999 0-9.6-4.8-9.6-4.8s-2.4 4.8-9.6 4.8-9.6-4.8-9.6-4.8-2.4 4.8-9.6 4.8v14.4h96v-14.4z" fill="#7e8ccf" stroke-width=".11053"/>
 <path d="m96 86.448c-7.1999 0-9.6-4.8-9.6-4.8s-2.4 4.8-9.6 4.8c-7.1999 0-9.6001-4.8-9.6001-4.8s-2.4 4.8-9.6 4.8c-7.1999 0-9.6-4.8-9.6-4.8s-2.4 4.8-9.6 4.8c-7.1999 0-9.6-4.8-9.6-4.8s-2.4 4.8-9.6 4.8-9.6-4.8-9.6-4.8-2.4 4.8-9.6 4.8v9.6h96v-9.6z" fill="#c5cae9" stroke-width=".11053"/>
 <path d="m80.195 45.126h-7.1641l-2.0469 6.1406s-3.8891 9.825-4.0938 10.234h-6.1406v6.1406h12.281c2.2515 0 4.0938-1.4328 4.7078-3.275l4.5031-12.486c0.61406-1.4328 1.0234-2.2516 1.0234-3.0703v-0.61405c0-1.6374-1.4328-3.0702-3.0703-3.0702z" fill="#ff754c" stroke-width=".094268"/>
 <path d="m70.984 51.266h4.0938l-4.0938 10.234h-4.0938z" fill="#e64a19" stroke-width=".094268"/>
 <path d="m66.89 61.501h-6.1406v6.1406h12.281c2.2515 0 4.0938-1.4328 4.7078-3.275l1.0234-2.8657h-11.872z" fill="#5ec08f" stroke-width=".094268"/>
</svg>
