<?xml version="1.0" encoding="UTF-8"?>
<!-- Uploaded to: SVG Find, www.svgrepo.com, Generator: SVG Find Mixer Tools -->
<svg width="800px" height="800px" fill="#000000" version="1.1" viewBox="144 144 512 512" xmlns="http://www.w3.org/2000/svg">
 <path d="m358.02 198.48-159.54 218.31v16.797h159.54z"/>
 <path d="m416.79 198.48h-33.59v302.29h-33.582l-33.59-33.59h-50.383l0.003907 33.59h-33.59l-33.582 100.76h268.7c36.949 0 82.297-22.668 100.76-50.383 18.469-27.715 33.59-50.379 33.59-50.379zm-29.387 361.06c-6.9531 0-12.594-5.6445-12.594-12.594 0-6.957 5.6445-12.594 12.594-12.594 6.9531 0 12.594 5.6367 12.594 12.594 0.003906 6.9531-5.6406 12.594-12.594 12.594zm58.781 0c-6.957 0-12.594-5.6445-12.594-12.594 0-6.957 5.6367-12.594 12.594-12.594 6.9531 0 12.594 5.6367 12.594 12.594 0 6.9531-5.6406 12.594-12.594 12.594zm58.773 0c-6.9531 0-12.594-5.6445-12.594-12.594 0-6.957 5.6445-12.594 12.594-12.594 6.957 0 12.594 5.6367 12.594 12.594 0 6.9531-5.6367 12.594-12.594 12.594zm-88.168-58.777v-33.59h124.84l20.535 33.59z"/>
</svg>
