<?xml version="1.0" encoding="UTF-8"?>
<svg class="icon" version="1.1" viewBox="0 0 96 96" xmlns="http://www.w3.org/2000/svg">
 <path d="m19.423 73.115-9.6934 11.632s11.632 1.9387 19.387-7.7547z" fill="#e64a19" stroke-width=".084637"/>
 <path d="m23.3 73.115c-1.3571 0-2.7142-0.77552-3.4896-2.1325-0.96937-1.9387-0.19386-4.2651 1.7448-5.2344l13.377-6.5915v-13.183c0-2.1325 1.7448-3.8773 3.8773-3.8773 2.1325 0 5.8161 1.7448 5.8161 3.8773l-1.9387 15.509c0 1.5509-0.77543 2.908-2.1325 3.4896l-15.509 7.7547c-0.58157 0.19377-1.1631 0.38762-1.7448 0.38762z" fill="#f9a825" stroke-width=".084637"/>
 <path d="m64.981 13.21c3.6835 0 6.7853 3.1019 6.7853 6.7853 0 3.6835-3.1019 6.7853-6.7853 6.7853-3.6834 0-6.7853-3.1019-6.7853-6.7853 0-3.6835 3.1019-6.7853 6.7853-6.7853z" fill="#ffb74d" stroke-width=".084637"/>
 <path d="m80.491 44.81-16.479-14.54-0.19386-0.19386-6.9792-4.8467c-0.38771-0.19386-0.77542-0.38771-1.1632-0.38771l-12.795-2.5203-6.2038-11.244c-0.58157-1.5509-2.3264-2.1325-3.8773-1.5509-1.5509 0.58157-2.1325 2.3264-1.5509 3.8773l6.7853 12.601c0.38771 0.96937 1.1632 1.5509 2.1325 1.7448l8.9179 1.7448-11.826 10.663c-2.908 2.5203-3.1019 6.7853-0.58157 9.4995 0.77543 0.77543 1.7448 1.3571 2.7142 1.7448l12.795 8.1424-1.7448 12.989c-0.38772 2.1325 1.1632 4.0712 3.2957 4.459h0.58157c1.9387 0 3.4896-1.3571 3.8773-3.2957l1.9387-15.509c0.19386-1.5509-0.38771-3.1019-1.7448-3.8773l-9.8872-6.2038 13.377-12.02 14.734 12.989c0.58157 0.58157 1.1632 0.77544 1.9387 0.77544 0.77551 0 1.5509-0.38772 2.1325-0.96937 1.1633-1.1631 0.96945-3.1018-0.19378-4.0711z" fill="#ffba57" stroke-width=".084637"/>
 <path d="m73.706 38.8-9.6934-8.5301-0.19386-0.19386-6.9792-4.8467c-0.38771-0.19386-0.77542-0.38771-1.1632-0.38771l-12.795-2.5203s-3.6835 5.2344-2.7142 5.4283l8.9179 1.7448-11.826 10.663c-2.908 2.5203-3.1019 6.7853-0.58157 9.4995 0.77543 0.77543 1.7448 1.3571 2.7142 1.7448l9.1118-3.2957 13.571-11.632 7.7547 6.5915z" fill="#ba68c8" stroke-width=".084637"/>
 <path d="m42.687 48.106h5.8161l13.571-11.632-2.908-2.7142z" fill="#ab47bc" stroke-width=".084637"/>
 <path d="m37.258 40.157c-2.908 2.5203-3.1019 6.7853-0.58157 9.4995 0.77543 0.77543 1.7448 1.3571 2.7142 1.7448l9.1118-3.2957z" fill="#2d4c5c" stroke-width=".084637"/>
 <path d="m62.267 81.063c-34.896 0-50.599-8.3363-51.375-8.724-1.1632-0.58157-1.3571-1.7448-0.96937-2.7142 0.58157-0.96937 1.7448-1.1632 2.7142-0.77542 0.19386 0.19386 20.356 9.1118 68.629 7.5608 1.1632 0 1.9387 0.77552 2.1325 1.7448 0.19386 0.96937-0.77552 1.9387-1.7448 2.1325-6.9793 0.58157-13.571 0.77543-19.387 0.77543z" fill="#ff754c" stroke-width=".084637"/>
</svg>
