<?xml version="1.0" encoding="UTF-8"?>
<!-- Created with Inkscape (http://www.inkscape.org/) -->
<svg width="512" height="512" version="1.1" viewBox="0 0 512 512" xmlns="http://www.w3.org/2000/svg">
 <rect width="512" height="512" fill="#a8ca5c"/>
 <path d="m0 416h512v-192h-512z" fill="#666"/>
 <path d="m0 416h512v48h-512z" fill="#999"/>
 <path d="m0 176h512v48h-512z" fill="#999"/>
 <path d="m160 0v192c0 17.673-14.327 32-32 32h256c-17.673 0-32-14.327-32-32v-192z" fill="#666"/>
 <g stroke-width="3">
  <path d="m0 200h136" stroke="#f00000"/>
  <path d="m0 440h512" stroke="#f00000"/>
  <path d="m64 200v240" stroke="#0ff000"/>
  <path d="m136 200h240" stroke="#0ff000"/>
  <path d="m376 200h136" stroke="#f00000"/>
 </g>
 <g font-family="serif" font-size="21.333px">
  <text x="400" y="496" fill="#f00f0f" xml:space="preserve"><tspan x="400" y="496" fill="#f00f0f" font-family="sans-serif" font-size="21.333px">sidewalk</tspan></text>
  <text x="208" y="240" fill="#00ff00" xml:space="preserve"><tspan x="208" y="240" fill="#00ff00" font-family="sans-serif" font-size="21.333px">crossing</tspan></text>
  <text x="80" y="316" fill="#00ff00" xml:space="preserve"><tspan x="80" y="316" fill="#00ff00" font-family="sans-serif" font-size="21.333px">crossing</tspan></text>
 </g>
 <rect x="112" width="48" height="176" fill="#999"/>
 <rect x="352" width="48" height="176" fill="#999"/>
 <g fill="none" stroke-width="3">
  <path d="m136 200v-200" stroke="#f00000"/>
  <path d="m376 200v-200" stroke="#f00000"/>
  <g stroke="#fffc00">
   <rect transform="rotate(90)" x="192" y="-384" width="16" height="16"/>
   <rect x="128" y="192" width="16" height="16"/>
   <rect x="56" y="192" width="16" height="16"/>
   <rect x="56" y="432" width="16" height="16"/>
  </g>
 </g>
 <text x="416" y="160" fill="#f00f0f" font-family="serif" font-size="21.333px" xml:space="preserve"><tspan x="416" y="160" fill="#f00f0f" font-family="sans-serif" font-size="21.333px">sidewalk</tspan></text>
</svg>
