<?xml version="1.0" encoding="UTF-8"?>
<svg width="160" height="110" version="1.1" viewBox="0 0 42.333 29.104" xmlns="http://www.w3.org/2000/svg">
 <path d="m5.8518 7.5882c-1.0368 2.1926-1.6185 4.6422-1.6185 7.2285 0 4.1406 1.4883 7.9322 3.9563 10.874l9.802-4.5243h6.35l9.802 4.5243c2.468-2.9421 3.9563-6.7337 3.9563-10.874 0-2.5863-0.58175-5.0359-1.6185-7.2285l-7.9065 0.8785h-14.817z" fill="#ffff5a" fill-opacity=".5"/>
 <path d="m14.817 8.4667 2.1167 12.7h8.4667l2.1167-12.7z" fill="#ffffdf" stroke="#a28941"/>
 <path d="m17.992 8.4667 1.0583 12.7" stroke="#a28941"/>
 <path d="m24.342 8.4667-1.0583 12.7" stroke="#a28941"/>
 <path d="m12.7 8.4667h16.933v-2.1167c-3.175 0-5.2917-4.2333-8.4667-5.2917-3.175 1.0583-5.2917 5.2917-8.4667 5.2917z" fill="#666"/>
 <path d="m16.933 21.167v2.1167l2.6458 1.0583v3.4396h3.175v-3.4396l2.6458-1.0583v-2.1167z" fill="#666"/>
 <g transform="matrix(1.5323 0 0 1.5323 -22.134 12.759)" fill="none" stroke="#35e" stroke-linecap="round" stroke-linejoin="round" stroke-width="1.036">
  <path d="m36.777 3.4396v2.1167l1.3229 0.79375"/>
  <path d="m34.993 2.4588h-1.9373m3.9855-0.60668c1.8372 0.00833 3.3907 1.3621 3.6502 3.1809s-0.85343 3.553-2.615 4.0748-3.6395-0.32653-4.4124-1.9933c-0.77293-1.6667-0.20733-3.6482 1.329-4.6558v2.0391"/>
 </g>
</svg>
