<?xml version="1.0" encoding="UTF-8"?>
<svg width="160" height="110" version="1.1" viewBox="0 0 42.333 29.104" xmlns="http://www.w3.org/2000/svg">
 <path d="m5.8518 7.5882c-1.0368 2.1926-1.6185 4.6422-1.6185 7.2285 0 4.1406 1.4883 7.9322 3.9563 10.874l9.802-4.5243h6.35l9.802 4.5243c2.468-2.9421 3.9563-6.7337 3.9563-10.874 0-2.5863-0.58175-5.0359-1.6185-7.2285l-7.9065 0.8785h-14.817z" fill="#ffff5a" fill-opacity=".5"/>
 <path d="m14.817 8.4667 2.1167 12.7h8.4667l2.1167-12.7z" fill="#ffffdf" stroke="#a28941"/>
 <path d="m17.992 8.4667 1.0583 12.7" stroke="#a28941"/>
 <path d="m24.342 8.4667-1.0583 12.7" stroke="#a28941"/>
 <path d="m12.7 8.4667h16.933v-2.1167c-3.175 0-5.2917-4.2333-8.4667-5.2917-3.175 1.0583-5.2917 5.2917-8.4667 5.2917z" fill="#666"/>
 <path d="m16.933 21.167v2.1167l2.6458 1.0583v3.4396h3.175v-3.4396l2.6458-1.0583v-2.1167z" fill="#666"/>
 <path d="m29.242 23.673c4.2952-4.78e-4 7.7998-3.5013 7.7998-7.7965-1e-6 -7.16e-4 1e-6 -0.0012 0-0.0019h-1.9504c-1e-6 7.16e-4 -2e-6 0.0012 0 0.0019-5e-6 3.2416-2.6079 5.8465-5.8494 5.847zm4.66e-4 3.9004c6.448-5.18e-4 11.699-5.2509 11.7-11.699h-1.9504c-9.92e-4 5.3942-4.355 9.7488-9.7493 9.7493zm0-7.8003c2.1416-4.78e-4 3.899-1.7549 3.899-3.8966-1e-6 -7.16e-4 -4e-6 -0.0012 0-0.0019h-1.9504c1e-6 7.16e-4 1e-6 0.0012 0 0.0019-5e-6 1.088-0.86064 1.9462-1.9486 1.9467z" fill="#35e"/>
</svg>
