<?xml version="1.0" encoding="UTF-8"?>
<svg version="1.1" viewBox="0 0 160 110" xmlns="http://www.w3.org/2000/svg">
 <path d="m56 32 8.0002 48h32l8.0002-48z" fill="none" stroke="#666" stroke-width="4"/>
 <path d="m68 32 3.9999 48" stroke="#666" stroke-width="4"/>
 <path d="m92 32-3.9999 48" stroke="#666" stroke-width="4"/>
 <path d="m48 32h64v-8.0002c-12 0-20-16-32-20-12 3.9999-20 20-32 20z" fill="#666" stroke-width="3.7796"/>
 <path d="m64 80v8.0002l10 3.9999v13h12v-13l10-3.9999v-8.0002z" fill="#666" stroke-width="3.7796"/>
 <path d="m128.07 62.263c-0.0121-3.8114-1.4808-6.9591-5-7-5.1542 0.0098-5.694 1.7921-6.7501 6.3334l-8.4445-0.07321-0.66667-9.125c4.0261-3.4364 12.358-5.6538 17.57-5.6768 11.262 1.5431 19.767 12.461 14.361 21.657-6.5898 11.546-13.852 4.7344-14.07 17.885l-9.7476 1.8749c-0.85843-4.6087-3.2323-10.027-0.10303-14.355 3.1293-4.3281 12.811-4.7224 12.851-11.52zm-7.5834 42.583c-2.7392-1.9749-5.0887-4.2681-6.9167-6.875 1.9978-2.734 4.3013-5.0827 6.9167-6.9167 2.6945 2.0402 5.0866 4.3079 6.9167 6.9167-2.0048 2.7226-4.3385 5.0132-6.9167 6.875z" fill="#35e"/>
</svg>
