<?xml version="1.0" encoding="UTF-8"?>
<svg version="1.1" viewBox="0 0 256 256" xmlns="http://www.w3.org/2000/svg">
 <rect transform="scale(1,-1)" y="-256" width="256" height="256" fill="#808080" style="paint-order:stroke fill markers"/>
 <path d="m120 16v32h16v-32zm0 64v32h16v-32zm0 64v32h16v-32zm0 64v32h16v-32z" fill="#fff" style="paint-order:stroke fill markers"/>
 <path d="m170.09 136.51c-2.8889 0-5.173 0.74241-6.8535 2.2285-1.6806 1.4861-2.5215 3.5486-2.5215 6.1875 0 2.4028 0.67426 4.3819 2.0215 5.9375 1.3333 1.5556 3.4792 2.868 6.4375 3.9375 1.6944 0.72221 2.8744 1.4173 3.541 2.084 0.66666 0.68057 1 1.4362 1 2.2695 0 1.0694-0.29731 1.918-0.89453 2.543-0.59723 0.63889-1.4306 0.95703-2.5 0.95703-1.1389 0-2.0082-0.37499-2.6055-1.125-0.61111-0.7361-0.91602-1.8118-0.91602-3.2285h-6.1035c0 1.8194 0.39583 3.4444 1.1875 4.875 0.77778 1.4306 1.8952 2.5347 3.3535 3.3125 1.4583 0.79168 3.1174 1.1875 4.9785 1.1875 2.7917 0 5.0985-0.77843 6.918-2.334 1.8056-1.5417 2.707-3.589 2.707-6.1445 0-2.1111-0.66667-3.9444-2-5.5-1.3333-1.5417-3.5208-2.8902-6.5625-4.043-1.6667-0.68056-2.8125-1.3396-3.4375-1.9785-0.63889-0.62501-0.95703-1.5549-0.95703-2.791 0-2.2639 1.0681-3.3965 3.207-3.3965 1.5417 0 2.6534 0.39584 3.334 1.1875 0.68056 0.79168 1.0215 2.0625 1.0215 3.8125h6.1445c0-2.0417-0.45074-3.8125-1.3535-5.3125-0.91666-1.5-2.1799-2.6534-3.791-3.459-1.6111-0.80554-3.3971-1.207-5.3555-1.207zm24.25 0c-3.1944 0-5.6452 0.83333-7.3535 2.5-1.7083 1.6806-2.5758 4.0972-2.6035 7.25v21h6.125v-20.98c0.0139-1.6667 0.29036-2.8674 0.83203-3.6035 0.54166-0.72222 1.5417-1.084 3-1.084 1.4583 0 2.4659 0.36935 3.0215 1.1055 0.55556 0.7361 0.83399 1.9653 0.83399 3.6875v20.875h6.166v-20.855c0-3.2083-0.85416-5.6591-2.5625-7.3535-1.7222-1.6944-4.209-2.541-7.459-2.541zm23.646 0.41602c-3.0694 0-5.4104 0.75-7.0215 2.25-1.625 1.5-2.4375 3.7216-2.4375 6.666 0 1.7222 0.36936 3.1673 1.1055 4.334 0.73611 1.1806 1.7834 1.9646 3.1445 2.3535-1.1806 0.51389-2.1105 1.3264-2.791 2.4375-0.68055 1.1111-1.0215 2.4388-1.0215 3.9805 0 2.7222 0.82769 4.7847 2.4805 6.1875 1.6389 1.4166 4.0404 2.125 7.207 2.125h9.375v-30.334zm0 5.084h3.916v8.1035h-4.3125c-1.9722-0.0695-2.957-1.4653-2.957-4.1875 0-1.25 0.28407-2.2159 0.85351-2.8965 0.56945-0.68054 1.4028-1.0195 2.5-1.0195zm0.72852 12.562h3.1875v7.582h-3.25c-1.25 0-2.1515-0.29729-2.707-0.89453-0.55556-0.59721-0.83399-1.584-0.83399-2.959 0-2.4861 1.2007-3.7285 3.6035-3.7285z" fill="#fff"/>
 <path d="m199.15 95.449a8.0362 8.0017 0 0 1 8.0362-8.0017 8.0362 8.0017 0 0 1 8.0362 8.0017 8.0362 8.0017 0 0 1-8.0362 8.0017 8.0362 8.0017 0 0 1-8.0362-8.0017zm-26.188 0.0014a8.0362 8.0017 0 0 1 8.0362-8.0017 8.0362 8.0017 0 0 1 8.0362 8.0017 8.0362 8.0017 0 0 1-8.0362 8.0017 8.0362 8.0017 0 0 1-8.0362-8.0017zm29.757 12.324-10.157-12.28h-11.608l7.9804 12.28h13.784m-13.784 2.8895-3.5358 7e-3m7.1632-15.177-3.6274 15.17m18.137-15.17-6.0467 17.926h-5.8039" fill="none" stroke="#fff" stroke-linecap="round" stroke-linejoin="round" stroke-width="3.2283" style="paint-order:normal"/>
</svg>
