<?xml version="1.0" encoding="UTF-8"?>
<svg version="1.1" viewBox="0 0 256 256" xmlns="http://www.w3.org/2000/svg">
 <rect y="1.3767e-6" width="208" height="256" fill="#808080" style="paint-order:stroke fill markers"/>
 <path d="m164.09 168.04a7.2127 7.1818 0 0 1-7.2127 7.1818 7.2127 7.1818 0 0 1-7.2127-7.1818 7.2127 7.1818 0 0 1 7.2127-7.1818 7.2127 7.1818 0 0 1 7.2127 7.1818zm-7.1098-0.0406 5.4271-16.089h5.2092m19.978 16.128a7.2127 7.1818 0 0 1-7.2127 7.1818 7.2127 7.1818 0 0 1-7.2127-7.1818 7.2127 7.1818 0 0 1 7.2127-7.1818 7.2127 7.1818 0 0 1 7.2127 7.1818zm-26.708-11.061 9.1161 11.022h10.418l-7.1626-11.022h-12.372m12.372-2.5934 3.1735-6e-3m-6.4292 13.622 3.2557-13.615" fill="none" stroke="#fff" stroke-linecap="round" stroke-linejoin="round" stroke-width="2.8975" style="paint-order:normal"/>
 <path d="m178 128-12-16-12 16h8v8h8v-8z" fill="#fff"/>
 <path d="m200 8v16h8v-16zm0 32v16h8v-16zm0 32v16h8v-16zm0 32v16h8v-16zm0 32v16h8v-16zm0 32v16h8v-16zm0 32v16h8v-16zm0 32v16h8v-16z" fill="#fff" style="paint-order:stroke fill markers"/>
 <path d="m128 8v16h8v-16zm0 32v16h8v-16zm0 32v16h8v-16zm0 32v16h8v-16zm0 32v16h8v-16zm0 32v16h8v-16zm0 32v16h8v-16zm0 32v16h8v-16z" fill="#fff" style="paint-order:stroke fill markers"/>
</svg>
