<?xml version="1.0" encoding="UTF-8"?>
<svg version="1.1" viewBox="0 0 256 256" xmlns="http://www.w3.org/2000/svg">
 <rect transform="scale(1,-1)" y="-256" width="208" height="256" fill="#808080" style="paint-order:stroke fill markers"/>
 <path d="m128 16v32h8v-32zm0 64v32h8v-32zm0 64v32h8v-32zm0 64v32h8v-32z" fill="#fff" style="paint-order:stroke fill markers"/>
 <path d="m172.79 87.959a7.2127 7.1818 0 0 1 7.2127-7.1818 7.2127 7.1818 0 0 1 7.2127 7.1818 7.2127 7.1818 0 0 1-7.2127 7.1818 7.2127 7.1818 0 0 1-7.2127-7.1818zm-23.505 0.0013a7.2127 7.1818 0 0 1 7.2127-7.1818 7.2127 7.1818 0 0 1 7.2127 7.1818 7.2127 7.1818 0 0 1-7.2127 7.1818 7.2127 7.1818 0 0 1-7.2127-7.1818zm26.708 11.061-9.1161-11.022h-10.418l7.1626 11.022h12.372m3.9069-11.022-5.4271 16.089h-5.2092m-5.6424-2.4734-3.1735 6e-3m6.4292-13.622-3.2557 13.615" fill="none" stroke="#fff" stroke-linecap="round" stroke-linejoin="round" stroke-width="2.8975" style="paint-order:normal"/>
 <path d="m180.15 128.37-12 16-12-16h8v-8h8v8z" fill="#fff"/>
</svg>
