<?xml version="1.0" encoding="UTF-8"?>
<svg version="1.1" viewBox="0 0 256 256" xmlns="http://www.w3.org/2000/svg">
 <rect transform="scale(1,-1)" x="1.8477e-6" y="-256" width="112" height="256" fill="#808080" style="paint-order:stroke fill markers"/>
 <g transform="matrix(3.7795,0,0,3.7795,256,-1378.5)">
  <rect transform="scale(1,-1)" x="-2.1167" y="-432.47" width="2.1167" height="67.733" fill="#999" style="paint-order:stroke fill markers"/>
  <rect transform="scale(1,-1)" x="-35.983" y="-432.47" width="2.1167" height="67.733" fill="#999" style="paint-order:stroke fill markers"/>
  <rect x="-33.867" y="364.73" width="31.75" height="67.733" fill="#d88" style="paint-order:stroke fill markers"/>
  <path d="m-15.875 426.12h4.2333m-4.2333-6.35h4.2333m-4.2333-6.35h4.2333m-4.2333-6.35h4.2333m-4.2333-6.35h4.2333m-4.2333-6.35h4.2333m-4.2333-6.35h4.2333m-4.2333-6.35h4.2333m-4.2333-12.7h4.2333m-4.2333 6.35h4.2333m-21.167 50.8h4.2333m-4.2333-6.35h4.2333m-4.2333-6.35h4.2333m-4.2333-6.35h4.2333m-4.2333-6.35h4.2333m-4.2333-12.7h4.2333m-4.2333-6.35h4.2333m-4.2333-12.7h4.2333m-4.2333 6.35h4.2333m-4.2333 19.05h4.2333m21.167 31.75h4.2333m-4.2333-6.35h4.2333m-4.2333-6.35h4.2333m-4.2333-6.35h4.2333m-4.2333-6.35h4.2333m-4.2333-6.35h4.2333m-4.2333-6.35h4.2333m-4.2333-6.35h4.2333m-4.2333-12.7h4.2333m-4.2333 6.35h4.2333m-21.167 50.8h4.2333m-4.2333-6.35h4.2333m-4.2333-6.35h4.2333m-4.2333-6.35h4.2333m-4.2333-6.35h4.2333m-4.2333-12.7h4.2333m-4.2333-6.35h4.2333m-4.2333-12.7h4.2333m-4.2333 6.35h4.2333m-4.2333 19.05h4.2333m8.4667 34.925h4.2333m-4.2333-6.35h4.2333m-4.2333-6.35h4.2333m-4.2333-6.35h4.2333m-4.2333-6.35h4.2333m-4.2333-6.35h4.2333m-4.2333-6.35h4.2333m-4.2333-6.35h4.2333m-4.2333-6.35h4.2333m-4.2333-12.7h4.2333m-4.2333 6.35h4.2333m-21.167 57.15h4.2333m-4.2333-6.35h4.2333m-4.2333-6.35h4.2333m-4.2333-6.35h4.2333m-4.2333-6.35h4.2333m-4.2333-6.35h4.2333m-4.2333-12.7h4.2333m-4.2333-6.35h4.2333m-4.2333-12.7h4.2333m-4.2333 6.35h4.2333m-4.2333 19.05h4.2333m16.933 41.275v-67.733m-4.2333 0v67.733m8.4667-1e-5v-67.733m-12.7 67.733v-67.733m-4.2333 0v67.733m-4.2333 0v-67.733m-4.2333 0v67.733m-4.2333-67.733-2e-6 67.733m12.7-60.478h4.2333m-4.2333 6.35h4.2333m-4.2333 50.8h4.2333m-4.2333-6.35h4.2333m-4.2333-6.35h4.2333m-4.2333-6.35h4.2333m-4.2333-6.35h4.2333m-4.2333-6.35h4.2333m-4.2333-6.35h4.2333m-4.2333-6.35h4.2333m-4.2333-19.05h4.2333" fill="none" stroke="#da7a7a" stroke-width="1.0583"/>
  <path d="m-19.05 431.41v-4.2333h2.1167v4.2333zm0-8.4667v-4.2333h2.1167v4.2333zm0-8.4667v-4.2333h2.1167v4.2333zm0-8.4667v-4.2333h2.1167v4.2333zm0-8.4667v-4.2333h2.1167v4.2333zm0-8.4667v-4.2333h2.1167v4.2333zm0-8.4667v-4.2333h2.1167v4.2333zm0-8.4667v-4.2333h2.1167v4.2333z" fill="#fff" style="paint-order:stroke fill markers"/>
  <path d="m-8.6873 379.54a1.9084 1.9002 0 0 1 1.9084-1.9002 1.9084 1.9002 0 0 1 1.9084 1.9002 1.9084 1.9002 0 0 1-1.9084 1.9002 1.9084 1.9002 0 0 1-1.9084-1.9002zm-6.219 3.4e-4a1.9084 1.9002 0 0 1 1.9084-1.9002 1.9084 1.9002 0 0 1 1.9084 1.9002 1.9084 1.9002 0 0 1-1.9084 1.9002 1.9084 1.9002 0 0 1-1.9084-1.9002zm7.0664 2.9266-2.412-2.9162h-2.7565l1.8951 2.9162h3.2734m-2.412-2.9162-0.86141 3.6024m0 0-0.83966 2e-3m5.1467-3.6041-1.4359 4.2568h-1.3783" fill="none" stroke="#fff" stroke-linecap="round" stroke-linejoin="round" stroke-width=".76663" style="paint-order:normal"/>
  <path d="m-27.36 417.68a1.9084 1.9002 0 0 1-1.9084 1.9002 1.9084 1.9002 0 0 1-1.9084-1.9002 1.9084 1.9002 0 0 1 1.9084-1.9002 1.9084 1.9002 0 0 1 1.9084 1.9002zm6.219-3.4e-4a1.9084 1.9002 0 0 1-1.9084 1.9002 1.9084 1.9002 0 0 1-1.9084-1.9002 1.9084 1.9002 0 0 1 1.9084-1.9002 1.9084 1.9002 0 0 1 1.9084 1.9002zm-7.0664-2.9266 2.412 2.9162h2.7565l-1.8951-2.9162h-3.2734m-1.0337 2.9162 1.4359-4.2568h1.3783m1.4929 0.65443 0.83966-2e-3m-1.7011 3.6041 0.86141-3.6024" fill="none" stroke="#fff" stroke-linecap="round" stroke-linejoin="round" stroke-width=".76663" style="paint-order:normal"/>
  <path d="m-6.35 390.13-3.175 4.2333-3.175-4.2333h2.1167l-1e-6 -2.1167h2.1167v2.1167z" fill="#fff"/>
  <path d="m-23.283 407.07-3.175-4.2333-3.175 4.2333h2.1167l-1e-6 2.1167h2.1167v-2.1167z" fill="#fff"/>
  <rect transform="scale(1,-1)" x="-38.1" y="-432.47" width="2.1167" height="67.733" fill="#666" style="paint-order:stroke fill markers"/>
 </g>
</svg>
