<?xml version="1.0" encoding="UTF-8"?>
<svg version="1.1" viewBox="0 0 256 256" xmlns="http://www.w3.org/2000/svg">
 <g transform="matrix(3.7795 0 0 3.7795 -1.0206e-5 -866.52)">
  <rect x="33.867" y="229.27" width="19.05" height="67.733" fill="#d88" style="paint-order:stroke fill markers"/>
  <path d="m50.8 290.65h2.1167m-2.1167-6.35h2.1167m-2.1167-6.35h2.1167m0-6.35h-2.1167m0-6.35h2.1167m-2.1167-6.35h2.1167m-2.1167-6.35h2.1167m-2.1167-6.35h2.1167m-2.1167-6.35h2.1167m-2.1167-6.35h2.1167m-19.05 57.15h4.2333m-4.2333-6.35h4.2333m-4.2333-6.35h4.2333m-4.2333-6.35h4.2333m-4.2333-6.35h4.2333m-4.2333-12.7h4.2333m-4.2333-6.35h4.2333m-4.2333-12.7h4.2333m-4.2333 6.35h4.2333m-4.2333 19.05h4.2333m4.2333 31.75h4.2333m-4.2333-6.35h4.2333m-4.2333-6.35h4.2333m-4.2333-6.35h4.2333m-4.2333-6.35h4.2333m-4.2333-12.7h4.2333m-4.2333-6.35h4.2333m-4.2333-12.7h4.2333m-4.2333 6.35h4.2333m-4.2333 19.05h4.2333m-8.4667 34.925h4.2333m-4.2333-6.35h4.2333m-4.2333-6.35h4.2333m-4.2333-6.35h4.2333m-4.2333-6.35h4.2333m-4.2333-6.35h4.2333m-4.2333-12.7h4.2333m-4.2333-6.35h4.2333m-4.2333-12.7h4.2333m-4.2333 6.35h4.2333m-4.2333 19.05h4.2333m8.4667 41.275v-67.733m-4.2333 0v67.733m-4.2333 0v-67.733m-4.2333 0v67.733m8.4667-60.478h4.2333m-4.2333 6.35h4.2333m-4.2333 50.8h4.2333m-4.2333-6.35h4.2333m-4.2333-6.35h4.2333m-4.2333-6.35h4.2333m-4.2333-6.35h4.2333m-4.2333-6.35h4.2333m-4.2333-6.35h4.2333m-4.2333-6.35h4.2333m-4.2333-19.05h4.2333" fill="none" stroke="#da7a7a" stroke-width="1.0583"/>
  <rect x="31.75" y="229.27" width="2.1167" height="67.733" fill="#999" style="paint-order:stroke fill markers"/>
  <rect x="52.917" y="229.27" width="2.1167" height="67.733" fill="#999" style="paint-order:stroke fill markers"/>
  <rect x="29.633" y="229.27" width="2.1167" height="67.733" fill="#666" style="paint-order:stroke fill markers"/>
  <path d="m42.356 273.73a1.9084 1.9002 0 0 1-1.9084 1.9002 1.9084 1.9002 0 0 1-1.9084-1.9002 1.9084 1.9002 0 0 1 1.9084-1.9002 1.9084 1.9002 0 0 1 1.9084 1.9002zm6.219-3.4e-4a1.9084 1.9002 0 0 1-1.9084 1.9002 1.9084 1.9002 0 0 1-1.9084-1.9002 1.9084 1.9002 0 0 1 1.9084-1.9002 1.9084 1.9002 0 0 1 1.9084 1.9002zm-7.0664-2.9266 2.412 2.9162h2.7565l-1.8951-2.9162h-3.2734m2.412 2.9162 0.86141-3.6024m0 0 0.83966-2e-3m-5.1467 3.6041 1.4359-4.2568h1.3783" fill="none" stroke="#fff" stroke-linecap="round" stroke-linejoin="round" stroke-width=".76663" style="paint-order:normal"/>
  <path d="m46.038 263.13-3.175-4.2333-3.175 4.2333h2.1167v2.1167h2.1167v-2.1167z" fill="#fff"/>
 </g>
 <rect x="-2.7655e-7" y="1.3767e-6" width="112" height="256" fill="#808080" style="paint-order:stroke fill markers"/>
</svg>
