<?xml version="1.0" encoding="UTF-8"?>
<svg version="1.1" viewBox="0 0 256 256" xmlns="http://www.w3.org/2000/svg">
 <path d="m112 4.7945e-6v256h3.998v-256h8.0039v256h3.998v-256z" fill="#666" style="paint-order:stroke fill markers"/>
 <path d="m162.68 180h16c2.3687 13.038-15.902 14.525-15.74 24.381 0.2936 3.6056 2.6562 4.4745 5.4693 4.843 5.2214-0.43098 6.9125-4.759 7.3898-8.8093l16.199 2.004c-1.3925 13.749-9.3183 21.582-21.318 21.582-16 0-24-8-24-20s15.927-12.615 16-24zm16-8h-16v-12h16z" fill="#666" stroke-width="4"/>
 <path d="m162.68 52h16c2.3687 13.038-15.902 14.525-15.74 24.381 0.2936 3.6056 2.6562 4.4745 5.4693 4.843 5.2214-0.43098 6.9125-4.759 7.3898-8.8093l16.199 2.004c-1.3925 13.749-9.3183 21.582-21.318 21.582-16 0-24-8-24-20s15.927-12.615 16-24zm16-8h-16v-12h16z" fill="#666" stroke-width="4"/>
</svg>
