<?xml version="1.0" encoding="UTF-8"?>
<svg version="1.1" viewBox="0 0 36 36" xmlns="http://www.w3.org/2000/svg">
 <path d="M7 24c1.957 0 3.633 1.135 4.455 2.772l3.477-1.739C13.488 22.058 10.446 20 6.916 20c-1.301 0-2.534.285-3.649.787l1.668 3.67C5.566 24.17 6.262 24 7 24zm22 0c1.467 0 2.772.643 3.688 1.648l2.897-2.635C33.952 21.169 31.573 20 28.916 20c-3.576 0-6.652 2.111-8.073 5.15l3.648 1.722C25.293 25.18 27.003 24 29 24z" fill="#EA596E"/>
 <path d="m7 22c-3.866 0-7 3.134-7 7s3.134 7 7 7 7-3.134 7-7-3.133-7-7-7zm0 12c-2.761 0-5-2.238-5-5s2.239-5 5-5 5 2.238 5 5-2.238 5-5 5zm22-12c-3.865 0-7 3.134-7 7s3.135 7 7 7c3.867 0 7-3.134 7-7s-3.133-7-7-7zm0 12c-2.761 0-5-2.238-5-5s2.239-5 5-5c2.762 0 5 2.238 5 5s-2.238 5-5 5z" fill="#292F33"/>
 <path d="m6.8184 10.451a1 1 0 0 0-0.96094 0.75977 1 1 0 0 0 0.73047 1.2109c1.5049 0.37222 2.3162 0.89446 2.7539 1.5117 0.43767 0.61726 0.60054 1.4567 0.46484 2.7383-0.27139 2.5631-1.8378 6.577-3.7539 12.02a1 1 0 0 0 0.61133 1.2754 1 1 0 0 0 1.2754-0.61133c1.3696-3.8903 2.5868-7.0255 3.2891-9.6406 0.31153 0.32157 0.64364 0.74345 0.96484 1.2559 0.62494 0.99694 1.2251 2.2682 1.793 3.5215 0.56791 1.2533 1.1007 2.4841 1.6562 3.4648 0.27778 0.49037 0.55558 0.91903 0.90234 1.2812 0.29758 0.31084 0.6969 0.60008 1.209 0.67969a1.0001 1.0001 0 0 0 0.25586 0.035156h10.805a1.0001 1.0001 0 0 0 0.8418-1.541l-6.748-10.488 0.097656-0.27734a1 1 0 0 0-0.61523-1.2734 1 1 0 0 0-0.33008-0.056641 1 1 0 0 0-0.94336 0.67188l-3.5703 10.248c-0.055331-0.088844-0.10648-0.16397-0.16406-0.26562-0.46787-0.82594-0.99869-2.0346-1.5742-3.3047-0.57553-1.2701-1.1997-2.6057-1.9219-3.7578-0.61287-0.97769-1.2865-1.8521-2.1855-2.3926 0.032417-0.21112 0.074146-0.42922 0.095703-0.63281 0.16446-1.5532-0.01953-2.9706-0.82422-4.1055s-2.1323-1.8586-3.9043-2.2969a1 1 0 0 0-0.25-0.029297zm15.256 9.8711 4.9082 7.6309h-7.5664l2.6582-7.6309z" fill="#dd2e44"/>
 <path d="m6.9609 10.406c-0.55-0.091-1.0594 0.27827-1.1504 0.82227-0.091 0.545 0.27631 1.0594 0.82031 1.1504l6 1c0.055 0.01 0.11202 0.013672 0.16602 0.013672 0.48 0 0.90433-0.34694 0.98633-0.83594 0.091-0.545-0.27826-1.0594-0.82226-1.1504l-6-1zm18.975 3.916c-0.1445-0.0045-0.29102 0.033687-0.41602 0.11719-1.922 1.281-5.9473 1.2988-5.9883 1.2988-0.374 0-0.68403 0.29202-0.70703 0.66602-0.024 0.374 0.24909 0.70205 0.62109 0.74805l5.6719 0.70703c0.03 4e-3 0.05789 0.005859 0.08789 0.005859 0.302 0 0.57588-0.19138 0.67188-0.48438l0.70898-2.127c0.096-0.287-0.003188-0.60211-0.24219-0.78711-0.121-0.0915-0.2637-0.14003-0.4082-0.14453z" fill="#292f33"/>
 <path d="M20 29c0 1.104-.895 2-2 2-1.104 0-2-.896-2-2s.896-2 2-2c1.105 0 2 .896 2 2z" fill="#66757F"/>
</svg>
