<?xml version="1.0" encoding="UTF-8"?>
<svg version="1.1" viewBox="0 0 72 48" xmlns="http://www.w3.org/2000/svg">
 <g transform="translate(0 -1074.5)">
  <path d="m22 1078.5v26h48v-26zm-15 10c-0.61037 0.038-1.9032 1.7229-2.1172 2.2969l-3.4375 9.1601c-0.26194 0.6996-0.39062 1.4408-0.39062 2.1856v8.6015c0 0.8611 0.30439 1.7806 1.1641 1.7559l1.0977-0.031c0-3.8701 3.7616-7.5812 8.3418-7.6446 4.5802-0.063 8.3418 3.8057 8.3418 7.6758h24c0-2.1164 2-5 4-6h-28v-18zm1.9785 2.9688 6.0215 0.0312v8l-9.0742 1.1406c-0.0297 0-0.058191 0.01-0.087891 0.01-0.43198 0-0.78125-0.3493-0.78125-0.7813 0-0.092 0.019081-0.1872 0.050781-0.2734l3.1934-7.625c0.10664-0.2888 0.37156-0.4808 0.67773-0.5019zm2.6563 14.986a7 7 0 0 0-7 7 7 7 0 0 0 7 7 7 7 0 0 0 7-7 7 7 0 0 0-7-7zm45.365 0.0449c2 1 4 3.8836 4 6h3l6-2v-3.8926zm-4.5059 0.019a7 7 0 0 0-7 7 7 7 0 0 0 7 7 7 7 0 0 0 7-7 7 7 0 0 0-7-7z"/>
 </g>
</svg>
