<?xml version="1.0" encoding="UTF-8"?>
<!-- Created with Inkscape (http://www.inkscape.org/) -->
<svg width="96" height="96" version="1.1" viewBox="0 0 96 96" xml:space="preserve" xmlns="http://www.w3.org/2000/svg"><rect x="26" y="24" width="30" height="24" ry="4" fill-opacity=".2"/><path d="m70 41v4c-1.1857 0.84535-8 3.2653-8-5v-7h-3v-3l3-1v-3h4v3h4v4h-4v7c0 2.398 2.5846 1.5276 4 1z" aria-label="t"/><rect width="96" height="96" ry="8" fill="#fff"/><rect x="3" y="3" width="90" height="90" ry="6" fill="none" stroke="#000" stroke-width="2"/><g stroke-width="2" aria-label="WEIGHT LIMIT"><path d="m24.263 45.046v-13.581h2.8073v11.174h6.1706v2.4063zm13.198-13.581v13.581h-2.8073v-13.581zm2.0234 13.581v-13.581h4.0925l2.2422 6.3255q0.13672 0.42839 0.32812 1.0573 0.19141 0.61979 0.39193 1.3034 0.20052 0.67448 0.36458 1.2943 0.17318 0.61979 0.28255 1.03h-0.70182q0.10938-0.41016 0.27344-1.03 0.17318-0.61979 0.3737-1.2943 0.20052-0.6836 0.38281-1.3034 0.19141-0.62891 0.31901-1.0573l2.2148-6.3255h4.0925v13.581h-2.7526v-6.4531q0-0.45573 0.01823-1.0846 0.01823-0.62891 0.03646-1.3398 0.01823-0.72005 0.03646-1.4492 0.01823-0.73828 0.02734-1.3945h0.33724q-0.20964 0.72005-0.4375 1.4766-0.21875 0.75651-0.42839 1.4674t-0.40104 1.3125q-0.18229 0.59245-0.31901 1.0117l-2.2969 6.4531h-2.2786l-2.3242-6.4531q-0.13672-0.41927-0.32813-1.0117-0.19141-0.60156-0.41016-1.3125-0.20964-0.71094-0.44662-1.4674-0.22786-0.75651-0.44662-1.4766h0.40104q0.0091 0.65625 0.02734 1.3945 0.01823 0.72917 0.03646 1.4492 0.01823 0.71094 0.02734 1.3398 0.01823 0.62891 0.01823 1.0846v6.4531zm19.496-13.581v13.581h-2.8073v-13.581zm1.4219 2.4063v-2.4063h11.038v2.4063h-4.1107v11.174h-2.8073v-11.174z"/></g><rect x="16" y="56" width="64" height="28" ry="5.6" fill-opacity=".2"/><path d="m24.247 25.577q-1.7409 0-2.9714-0.54688-1.2305-0.55599-1.8867-1.6042-0.65625-1.0482-0.65625-2.5247h2.707q0.01823 0.7474 0.35547 1.276 0.34636 0.52865 0.97526 0.8112t1.4948 0.28255q0.78386 0 1.3581-0.20964 0.58333-0.21875 0.90234-0.61068 0.32813-0.39193 0.32813-0.92058 0-0.4375-0.25521-0.75651-0.24609-0.32812-0.78386-0.57422-0.52865-0.2461-1.3945-0.42839l-1.431-0.3099q-2.0234-0.4375-3.0078-1.3763-0.98438-0.9388-0.98438-2.3971 0-1.2396 0.64714-2.1602 0.64714-0.92969 1.8047-1.4492 1.1667-0.51953 2.707-0.51953 1.5586 0 2.6979 0.52865t1.7682 1.513q0.63802 0.97526 0.6836 2.3425h-2.625q-0.07292-0.96615-0.7474-1.5221-0.67448-0.55599-1.7682-0.55599-0.6836 0-1.2214 0.21875-0.52865 0.20964-0.83854 0.59245-0.30078 0.38281-0.30078 0.875 0 0.41927 0.23698 0.72917 0.23698 0.30078 0.75651 0.52865t1.349 0.41016l1.3034 0.28255q1.0846 0.23698 1.8776 0.58333 0.79297 0.33724 1.3034 0.8112 0.51042 0.46484 0.75651 1.0755 0.2461 0.61068 0.2461 1.3763 0 1.3034-0.65625 2.2604-0.64714 0.94792-1.8594 1.4583-1.2031 0.51042-2.8711 0.51042zm7.0365-0.21875v-13.581h5.3594q1.5313 0 2.6432 0.54688 1.112 0.53776 1.7135 1.5404 0.61068 0.99349 0.61068 2.3698 0 1.3672-0.61068 2.3698-0.61068 0.99349-1.7409 1.5404-1.1211 0.54688-2.6523 0.54688h-3.7643v-2.3516h3.6185q0.7474 0 1.2852-0.25521 0.53776-0.26432 0.82943-0.73828 0.29167-0.47396 0.29167-1.112 0-0.65625-0.29167-1.1211-0.29167-0.46484-0.82943-0.72005-0.53776-0.26432-1.2852-0.26432h-2.3698v11.229zm11.785 0v-13.581h9.7435v2.4063h-6.9362v3.1445h6.4167v2.3425h-6.4167v3.2813h6.9362v2.4063zm11.348 0v-13.581h9.7435v2.4063h-6.9362v3.1445h6.4167v2.3425h-6.4167v3.2813h6.9362v2.4063zm16.142 0h-3.5091v-2.3607h3.3633q1.3672 0 2.2604-0.51042 0.89323-0.51953 1.3307-1.5039 0.4375-0.99349 0.4375-2.4245 0-1.431-0.4375-2.4154-0.4375-0.98438-1.3307-1.4948-0.88412-0.51042-2.2331-0.51042h-3.4544v-2.3607h3.6276q2.0417 0 3.5365 0.82943 1.4948 0.82031 2.306 2.3425t0.8112 3.6094q0 2.0872-0.8112 3.6185-0.8112 1.5221-2.3151 2.3516-1.4948 0.82943-3.582 0.82943zm-1.987-13.581v13.581h-2.8073v-13.581z" stroke-width="24" style="inline-size:224;white-space:pre" aria-label="SPEED"/></svg>
