<?xml version="1.0" encoding="UTF-8"?>
<!-- Created with Inkscape (http://www.inkscape.org/) -->
<svg width="96" height="96" version="1.1" viewBox="0 0 96 96" xml:space="preserve" xmlns="http://www.w3.org/2000/svg"><rect x="26" y="24" width="30" height="24" ry="4" fill-opacity=".2"/><path d="m70 41v4c-1.1857 0.84535-8 3.2653-8-5v-7h-3v-3l3-1v-3h4v3h4v4h-4v7c0 2.398 2.5846 1.5276 4 1z" aria-label="t"/><rect width="96" height="96" ry="8" fill="#fff"/><rect x="3" y="3" width="90" height="90" ry="6" fill="none" stroke="#000" stroke-width="2"/><rect x="16" y="40" width="64" height="40" ry="8" fill-opacity=".2"/><path transform="matrix(.86645 0 0 1 37.603 5.5808)" d="m-34.175 20v-13.581h4.0925l2.2422 6.3255q0.13672 0.42839 0.32813 1.0573 0.19141 0.61979 0.39193 1.3034 0.20052 0.67448 0.36458 1.2943 0.17318 0.61979 0.28255 1.03h-0.70182q0.10938-0.41016 0.27344-1.03 0.17318-0.61979 0.3737-1.2943 0.20052-0.6836 0.38281-1.3034 0.19141-0.62891 0.31901-1.0573l2.2148-6.3255h4.0925v13.581h-2.7526v-6.4531q0-0.45573 0.01823-1.0846t0.03646-1.3398q0.01823-0.72005 0.03646-1.4492 0.01823-0.73828 0.02734-1.3945h0.33724q-0.20964 0.72005-0.4375 1.4766-0.21875 0.75651-0.42839 1.4675-0.20964 0.71094-0.40104 1.3125-0.18229 0.59245-0.31901 1.0117l-2.2969 6.4531h-2.2786l-2.3242-6.4531q-0.13672-0.41927-0.32812-1.0117-0.19141-0.60156-0.41016-1.3125-0.20964-0.71094-0.44662-1.4675-0.22786-0.75651-0.44662-1.4766h0.40104q0.0091 0.65625 0.02734 1.3945 0.01823 0.72917 0.03646 1.4492 0.01823 0.71094 0.02734 1.3398 0.01823 0.62891 0.01823 1.0846v6.4531zm15.759 0 4.7669-13.581h3.6094l4.7669 13.581h-3.1081l-2.1328-6.6081q-0.39193-1.3034-0.8112-2.6797-0.41016-1.3854-0.89323-3.1445h0.77474q-0.5013 1.7591-0.92057 3.1445-0.41016 1.3763-0.82031 2.6797l-2.2057 6.6081zm3.026-2.9622v-2.2422h7.1003v2.2422zm10.309 2.9622 5.5964-7.957v2.0781l-5.1589-7.7018h3.181l1.5039 2.306q0.29167 0.44662 0.56511 0.90235 0.28255 0.44662 0.55599 0.89323 0.28255 0.44662 0.54688 0.89323h-0.72005q0.28255-0.44662 0.55599-0.89323 0.28255-0.44662 0.56511-0.89323 0.29167-0.45573 0.58333-0.90235l1.5313-2.306h3.1081l-5.0768 7.556v-1.987l5.4688 8.0117h-3.2448l-1.905-2.8711q-0.24609-0.38281-0.49219-0.75651-0.24609-0.3737-0.49219-0.7474-0.23698-0.3737-0.48307-0.75651h0.4375q-0.24609 0.38281-0.49219 0.75651-0.23698 0.3737-0.49219 0.7474-0.24609 0.3737-0.51042 0.75651l-1.9596 2.8711zm16.734-13.581v13.581h-2.8073v-13.581zm2.0234 13.581v-13.581h4.0925l2.2422 6.3255q0.13672 0.42839 0.32812 1.0573 0.19141 0.61979 0.39193 1.3034 0.20052 0.67448 0.36458 1.2943 0.17318 0.61979 0.28255 1.03h-0.70182q0.10938-0.41016 0.27344-1.03 0.17318-0.61979 0.3737-1.2943 0.20052-0.6836 0.38281-1.3034 0.19141-0.62891 0.31901-1.0573l2.2148-6.3255h4.0925v13.581h-2.7526v-6.4531q0-0.45573 0.01823-1.0846t0.03646-1.3398q0.01823-0.72005 0.03646-1.4492 0.01823-0.73828 0.02734-1.3945h0.33724q-0.20964 0.72005-0.4375 1.4766-0.21875 0.75651-0.42839 1.4675-0.20964 0.71094-0.40104 1.3125-0.18229 0.59245-0.31901 1.0117l-2.2969 6.4531h-2.2786l-2.3242-6.4531q-0.13672-0.41927-0.32813-1.0117-0.19141-0.60156-0.41016-1.3125-0.20964-0.71094-0.44662-1.4675-0.22786-0.75651-0.44662-1.4766h0.40104q0.0091 0.65625 0.02734 1.3945 0.01823 0.72917 0.03646 1.4492 0.01823 0.71094 0.02734 1.3398 0.01823 0.62891 0.01823 1.0846v6.4531zm22.249 0.21875q-1.6953 0-2.9531-0.61979-1.2487-0.62891-1.9414-1.7409-0.69271-1.1211-0.69271-2.5885v-8.8503h2.7435v8.6224q0 0.80208 0.34636 1.4219 0.35547 0.61979 0.99349 0.97526 0.64714 0.35547 1.5039 0.35547 0.86589 0 1.5039-0.35547 0.63802-0.35547 0.99349-0.97526 0.35547-0.61979 0.35547-1.4219v-8.6224h2.7435v8.8503q0 1.4674-0.69271 2.5885-0.69271 1.112-1.9505 1.7409-1.2578 0.61979-2.9531 0.61979zm7.5833-0.21875v-13.581h4.0925l2.2422 6.3255q0.13672 0.42839 0.32813 1.0573 0.19141 0.61979 0.39193 1.3034 0.20052 0.67448 0.36458 1.2943 0.17318 0.61979 0.28255 1.03h-0.70182q0.10938-0.41016 0.27344-1.03 0.17318-0.61979 0.3737-1.2943 0.20052-0.6836 0.38281-1.3034 0.19141-0.62891 0.31901-1.0573l2.2148-6.3255h4.0925v13.581h-2.7526v-6.4531q0-0.45573 0.01823-1.0846t0.03646-1.3398q0.01823-0.72005 0.03646-1.4492 0.01823-0.73828 0.02734-1.3945h0.33724q-0.20964 0.72005-0.4375 1.4766-0.21875 0.75651-0.42839 1.4675-0.20964 0.71094-0.40104 1.3125-0.18229 0.59245-0.31901 1.0117l-2.2969 6.4531h-2.2786l-2.3242-6.4531q-0.13672-0.41927-0.32812-1.0117-0.19141-0.60156-0.41016-1.3125-0.20964-0.71094-0.44662-1.4675-0.22786-0.75651-0.44662-1.4766h0.40104q0.0091 0.65625 0.02734 1.3945 0.01823 0.72917 0.03646 1.4492 0.01823 0.71094 0.02734 1.3398 0.01823 0.62891 0.01823 1.0846v6.4531z" stroke-width="25.783" style="inline-size:224;white-space:pre" aria-label="MAXIMUM"/></svg>
