<?xml version="1.0" encoding="UTF-8"?>
<svg version="1.1" viewBox="0 0 128 128" xmlns="http://www.w3.org/2000/svg">
 <g fill="#ef4f3e" stroke="#a13125" stroke-width="2">
  <path d="m90.728 101.7c-3.0646 1.1381-6.42 2.0826-10.083 2.7375 0.07216 0.10091 0.13678 0.19571 0.20949 0.29715 5.8597 8.1662 11.861 18.75 22.798 18.245 3.3041-0.15239 6.5136-0.10397 10.355-0.95565l-0.13933-1.4363c-9.7749 0.6738-17.679-9.9888-22.823-18.371-0.11034-0.17941-0.20898-0.33895-0.31728-0.5158z"/>
  <path d="m71.731 67.177v-0.77778c-0.82424-0.57492-1.1059-1.815-1.0449-3.2431v-15.815c-0.06097-1.4286 0.22068-2.6687 1.0449-3.2436v-0.64271h-5.6446v0.64271c0.82423 0.57492 1.1059 1.815 1.0449 3.2436v15.815c0.06097 1.4286-0.22069 2.6682-1.0449 3.2431v0.77778z"/>
  <path d="m63.133 67.177v-0.77778c-0.82425-0.57492-1.1059-1.815-1.0449-3.2431v-15.815c-0.06106-1.4286 0.22067-2.6687 1.0449-3.2436v-0.64271h-5.6446v0.64271c0.82423 0.57492 1.1059 1.815 1.0449 3.2436v15.815c0.06097 1.4286-0.22068 2.6682-1.0449 3.2431v0.77778z"/>
  <path d="m80.335 67.177v-0.77778c-0.82424-0.57492-1.1059-1.815-1.0449-3.2431v-15.815c-0.06106-1.4286 0.22068-2.6687 1.0449-3.2436v-0.64271h-5.6446v0.64271c0.82424 0.57492 1.1059 1.815 1.0449 3.2436v15.815c0.06106 1.4286-0.22068 2.6682-1.0449 3.2431v0.77778z"/>
  <path d="m106.48 31.75-1.5163-19.906s-2.2668 1.1595-4.0195 0.7839c-9.2105-1.976-27.077-12.085-50.155-5.3395-28.065 8.2029-36.304 33.934-36.289 49.984 0.02489 26.533 20.88 43.347 40.265 46.837 24.925 4.4868 41.206-3.184 51.066-10.836l1.6347-11.3-1.048 0.42355c-7.3668 15.03-29.73 22.947-50.706 17.47-7.9571-2.078-15.33-6.7441-20.683-13.686-6.2207-8.0658-9.8156-19.053-9.9987-30.27-0.31576-19.327 9.6234-38.973 27.193-44.075 11.129-3.2329 20.148-2.6519 27.381-0.92712 19.297 4.6009 25.876 20.838 25.876 20.838z"/>
  <path d="m64.867 26.253c-1.4929-0.0042-3.0315 0.04588-4.6159 0.15189-11.697 0.78542-24.588 2.4404-24.588 2.4404l0.18814 1.5087c1.8417 0.35066 5.0822 0.15698 5.0822 4.1514v78.491c0 8.1417-3.1078 7.5617-4.7054 9.0566v0.76963h18.824v-0.76963c-1.5976-1.4949-4.7059-0.91489-4.7059-9.0566 0-9.447 0.17542-19.05 0.40373-28.693 4.5412-0.13914 11.388-0.37563 15.314 1.7548 3.3214 1.8022 7.0119 7.5336 12.064 14.808 3.6148-0.60959 7.0785-1.5892 10.295-2.8986-4.1456-6.6799-7.4298-11.538-11.973-15.624 0 0 22.672-6.5392 22.756-27.849 0.0636-15.973-11.945-28.183-34.338-28.244zm-2.3934 3.8313c4.7771 0.05709 10.657 0.11111 17.107 3.9343 5.5953 3.316 10.375 9.9022 10.842 21.608 0.49627 12.445-6.362 19.778-15.345 23.142-8.3797 3.1376-17.583 1.8257-24.221 0.50204 0.3305-13.984 0.69966-28.003 0.69966-41.692v-4.1504c0-1.0092 0.15-1.7136 0.50288-2.1305 0.64729-0.76554 8.1188-1.2401 10.415-1.2125z"/>
 </g>
</svg>
