<?xml version="1.0" encoding="UTF-8"?>
<svg version="1.1" viewBox="0 0 128 128" xmlns="http://www.w3.org/2000/svg">
 <path d="m60.814 80.362c-1.6243 8.6876 11.504 16.555 14.39 7.37 1.9791-6.2996-7.4065-9.3575-8.0206-2.3891-4.4056-5.6343 3.587-14.296 9.5565-13.823l-0.3413-5.1196c-7.7726 0.66189-14.186 6.4838-15.584 13.961z" fill="#ef4f3e" stroke="#A13125" stroke-width="2"/>
 <path d="m56.823 111.53-7.0317-18.418h2.603l5.835 15.507 5.8474-15.507h2.5906l-7.0193 18.418z" fill="#ef4f3e" stroke="#A13125" stroke-width="2"/>
 <path d="m69.357 93.111h2.4919v18.418h-2.4919z" fill="#ef4f3e" stroke="#A13125" stroke-width="2"/>
 <path d="m76.808 93.111h2.4919v18.418h-2.4919z" fill="#ef4f3e" stroke="#A13125" stroke-width="2"/>
 <path d="m102.86 84.998c12.396-14.993 22.885 19.351 1.8578 22.867-14.395 2.4073-23.829-11.391-26.779-23.717-2.1802-9.1078-0.073-19.592-4.7783-27.304-2.6129-4.2831-5.3705-4.3964-8.384-1.5784-1.3067 0.04991-2.725-0.8227-3.3292-1.3771 1.7466-6.2981 11.831-4.348 14.897-1.0895 6.0032 6.3791 5.4445 17.119 6.3722 24.864 1.2502 10.438 9.0112 29.246 22.278 25.424 6.5158-1.8771 11.657-15.001 3.661-17.741 4.0249 9.8093-11.718 6.8162-5.7957-0.34769z" fill="#ef4f3e" stroke="#A13125" stroke-width="2"/>
 <path d="m64.452 15.888c-14.003-0.10428-27.831 7.9605-22.8 26.208 1.57 6.3299 11.447 7.3963 11.946 0.24514 0.43159-6.1935-7.9951-6.8966-6.2108-0.17305-2.5576-0.83087-3.098-3.5233-3.0717-5.8022 0.17886-10.054 8.1618-16.355 17.748-16.212z" fill="#ef4f3e" stroke="#A13125" stroke-width="2"/>
 <path d="m53.226 55.198 0.34037-4.0886c-14.555 4.5599-24.517 18.271-24.439 33.039 0.11033 20.876 16.412 39.476 37.714 38.909 18.099-0.48215 35.657-15.765 34.13-34.301-0.93953-11.409-7.8179-21.227-19.625-22.355l0.51196 5.2902c8.564 2.0592 13.074 8.6179 13.823 16.724 1.3708 14.837-11.281 28.043-25.256 29.693-21.265 2.5114-38.859-17.734-35.837-38.055 1.6977-11.414 8.1829-20.293 18.638-24.855z" fill="#ef4f3e" stroke="#A13125" stroke-width="2"/>
 <path d="m23.496 86.025c-3.254 2.3269-2.3493 8.8477 1.8772 7.6793 7.7154-2.1328 1.1599-13.181-5.1196-12.628-5.0877 0.44756-8.5679 5.24-8.9608 9.9783-0.51958 11.09 8.9069 19.649 19.2 17.155 18.496-4.4809 25.386-27.799 27.475-44.711l-5.2902-1.3034c-1.581 14.238-7.2847 37.239-22.526 41.407-8.0191 2.1925-15.532-4.0505-14.676-12.287 0.31144-3.2542 4.9478-8.2077 8.0206-5.2902z" fill="#ef4f3e" stroke="#A13125" stroke-width="2"/>
 <path d="m58.857 50.813c4.1978 0.23556 10.89 3.4488 8.5799 8.2621-2.8497 5.9374-9.9573 4.6783-15.094 3.1777-13.751-4.017-21.548-18.121-20.02-31.618 1.5543-13.728 13.07-23.944 26.375-24.627 12.571-0.64559 26.122 6.2232 31.301 17.795 4.6397 10.369 0.91734 22.508-10.963 25.104-9.2235 2.0151-21.876-7.0523-13.823-15.253 2.8315-2.8835 9.5021-1.7845 9.0565 2.7011-0.4162 4.1897-4.4744 3.9515-7.1499 1.5889-1.6084 6.8138 7.3449 8.5098 12.075 6.991 7.983-2.5632 9.9043-10.603 7.1499-17.636-4.1234-10.529-16.029-16.962-27.011-16.206-10.763 0.74044-20.262 8.752-21.767 19.225-1.7996 12.523 5.1604 24.459 17.094 28.057 2.3918 0.72117 8.0713 2.8279 9.2514 0.63834 1.6532-3.0675-2.6265-3.7098-5.0547-4.0682z" fill="#ef4f3e" stroke="#A13125" stroke-width="2"/>
 <path d="m66.974 16.779c19.873 5.7096 25.549 26.32 12.612 41.608l-2.2111-4.7739c7.477-13.246 2.127-27.138-11.93-32.063 0.11672-1.8218 0.51314-3.264 1.5287-4.7711z" fill="#ef4f3e" stroke="#A13125" stroke-width="2"/>
 <path d="m70.456 7.4368c13.126-9.6625 21.274 11.675 8.421 11.758-0.9569-0.23422-1.9069-0.88541-2.3833-1.7477-1.0592-3.4837 2.0323-5.486 5.0844-5.8788 0.11973-3.5278-4.0755-3.3696-6.5143-2.3833-1.4307-0.84956-3.0339-1.2508-4.6077-1.7478z" fill="#ef4f3e" stroke="#A13125" stroke-width="2"/>
 <path d="m70.937 12.816-4.2663-1.3652c-12.131 12.412-11.76 30.554-13.755 46.299 1.8309 0.7488 3.7256 1.2546 5.6473 1.7154 0.80276-16.484 1.1355-33.686 12.374-46.649z" fill="#ef4f3e" stroke="#A13125" stroke-width="2"/>
 <path d="m73.634 57.804c-2.6714 2.4756-12.497 4.282-10.189-1.5889-0.80112-0.737-1.7132-0.76363-2.7474-0.93351-2.9446 9.3387 8.6198 8.6788 14.048 6.0179z" fill="#ef4f3e" stroke="#A13125" stroke-width="2"/>
</svg>
