<?xml version="1.0" encoding="UTF-8"?>
<svg width="128" height="128" version="1.1" viewBox="0 0 33.867 33.867" xmlns="http://www.w3.org/2000/svg">
 <g transform="translate(-99.972 -30.061)">
  <g transform="matrix(.87482 0 0 .87482 14.635 5.8786)">
   <path d="m100.8 50.213c-1.2712-3.3717-0.31817-7.5099 2.3076-10.02 2.514-2.4028 6.3241-2.7593 9.1332-0.85439 0.74236 0.50338 1.0858 0.58941 1.4462 0.36225 0.67247-0.42386 0.80398-0.17945 1.0818 2.0104 0.29531 2.3277 0.0811 4.1481-0.474 4.0261-0.21197-0.0466-0.93258-0.97105-1.6014-2.0543-1.4829-2.402-2.3227-3.0571-4.1432-3.2319-5.2042-0.28126-5.6436 9.033-3.1263 11.525 1.597 1.1746 2.7582 1.2419 4.4849 0.91822v-2.5328c0-2.2825-0.0563-2.5507-0.57042-2.7137-0.31373-0.0995-0.57042-0.42876-0.57042-0.73169 0-0.511 0.2266-0.55078 3.1373-0.55078 2.9107 0 3.1373 0.03979 3.1373 0.55078 0 0.30293-0.25669 0.63219-0.57042 0.73169-0.51603 0.16366-0.57042 0.4312-0.57042 2.8057 0 3.0255-0.25235 3.5709-2.0866 4.5105-4.9342 1.8767-9.1678-0.13684-11.015-4.7513zm17.177 5.0757c-0.10173-0.26491-0.04-0.52994 0.13724-0.58897 0.68821-0.35607 1.1593-0.76526 1.7769-1.2507v-13.088l-1.0122-0.59672c-0.61739-0.364-0.97752-0.77706-0.9234-1.0591 0.0756-0.39406 0.65719-0.47515 3.9356-0.54873 4.6112 0.01718 8.5055 0.70422 8.5528 5.3587 0 1.5317-0.43364 2.5318-1.6324 3.7648l-1.028 1.0573c1.7424 1.785 2.8687 4.6391 5.0116 5.9871 0.4304 0.24646 0.78335 0.67254 0.78436 0.94684 9.9e-4 0.42292-0.27407 0.49874-1.8129 0.49874-1.5975 0-1.9474-0.10518-2.9234-0.87899-1.6799-1.4585-2.9552-3.422-4.3331-4.9142-0.45857-0.49408-0.488-0.42087-0.57292 1.425-0.0887 1.9275-0.0797 1.9544 0.95446 2.8548 0.57419 0.49992 0.95984 1.045 0.85701 1.2112-1.4522 0.33952-7.4278 0.6071-7.7717-0.17938zm7.6342-9.2166c1.3257-0.70894 1.8787-3.6306 0.91116-4.8135-0.79654-0.70851-1.631-0.79132-2.6382-0.95247 0.075 1.1822-0.32622 6.0437 0.58917 6.0594 0.32404 0 0.83609-0.13204 1.1379-0.29344z" fill="#ef4f3e" stroke="#A13125" stroke-width=".60489"/>
  </g>
 </g>
</svg>
