<?xml version="1.0" encoding="UTF-8"?>
<svg version="1.1" viewBox="0 0 128 128" xmlns="http://www.w3.org/2000/svg">
 <g transform="translate(-501.81 403.34)">
  <g transform="matrix(.92976 0 0 .92976 39.742 -22.873)" stroke="#A13125" stroke-width="2.1511">
   <path d="m515.25-317.25s14.847-26.884 50.028-27.047c43.911-0.20339 51.619 30.229 51.619 30.229" fill="none"/>
   <path d="m565.81-321.2-1.1504 0.17188c-0.49229 7.8667-8.807 12.916-14.074 4.6699-2.3271-5.2009-1.6904-5.4068-2.6055 0.29492-1.852 5.6139-9.0538 4.0377-10.764-0.96875-0.91581-2.2361-2.4063-3.2517-2.0801-0.11718-0.69605 5.4165-4.9917 8.4736-8.7734 2.582-1.5609-3.6914-1.4533-3.7822-1.873 0.28906-2.1522 6.0502-7.4615 4.4759-8.5742-1.4004l-1.9297 0.41797c1.3278 6.0834 3.3024 5.555 3.9551 9.8047 28.103-3.1458 58.085-4.6212 95.238-0.12491 1.2077-1.9577 4.5208-3.436 4.4551-9.6797l-1.9297-0.41797c-1.2263 5.5527-7.2166 7.8727-8.5742 1.4004-0.4822-3.9471-0.35095-4.1188-1.873-0.28906-2.7844 5.2892-9.2598 2.8368-8.7734-2.582 0.19167-2.8263-1.3733-2.5381-2.0801 0.11718-2.2235 4.2912-8.4924 7.1899-10.764 0.96875-0.98245-5.0675-0.0726-6.0405-2.6055-0.29492-4.6943 7.6653-14.55 3.8216-14.074-4.6699z" fill="#ef4f3e"/>
   <path d="m556.14-359.51c-23.529-0.27125-46.567 3.4531-47.027 31.48l5.9844 3.7383c-1.6622-31.609 28.282-30.033 50.596-29.064v0.01c0.0383-2e-3 0.0788-4e-3 0.11719-6e-3 0.0384 2e-3 0.0789 4e-3 0.11719 6e-3v-0.01c22.313-0.96806 52.258-2.5443 50.596 29.064l5.9844-3.7383c-0.52417-31.88-30.254-32.315-56.697-31.193-3.1955-0.13553-6.4357-0.24983-9.6699-0.28711z" fill="#ef4f3e"/>
   <path d="m563.53-392.71v5.7139h-5.714v4.5451h5.714v7.5752h4.5452v-7.5752h5.7284v-4.5451h-5.7284v-5.7139z" fill="#ef4f3e"/>
   <path d="m565.81-397.63a2.3495 2.388 0 0 0-2.3496 2.3887 2.3495 2.388 0 0 0 2.3496 2.3867 2.3495 2.388 0 0 0 2.3496-2.3867 2.3495 2.388 0 0 0-2.3496-2.3887zm-5.0527 5.2168a2.6106 2.6534 0 0 0-2.5684 2.6543 2.6106 2.6534 0 0 0 2.6113 2.6524 2.6106 2.6534 0 0 0 2.6094-2.6524 2.6106 2.6534 0 0 0-2.6094-2.6543 2.6106 2.6534 0 0 0-0.043 0zm10.021 0a2.6106 2.6534 0 0 0-2.5684 2.6543 2.6106 2.6534 0 0 0 2.6094 2.6524 2.6106 2.6534 0 0 0 2.6113-2.6524 2.6106 2.6534 0 0 0-2.6113-2.6543 2.6106 2.6534 0 0 0-0.041 0zm-4.9688 4.4199a3.223 3.2757 0 0 0-3.2227 3.2754 3.223 3.2757 0 0 0 3.2227 3.2773 3.223 3.2757 0 0 0 3.2227-3.2773 3.223 3.2757 0 0 0-3.2227-3.2754zm-10.439 0.87695a2.3495 2.388 0 0 0-2.3496 2.3887 2.3495 2.388 0 0 0 2.3496 2.3887 2.3495 2.388 0 0 0 2.3496-2.3887 2.3495 2.388 0 0 0-2.3496-2.3887zm20.879 0a2.3495 2.388 0 0 0-2.3496 2.3887 2.3495 2.388 0 0 0 2.3496 2.3887 2.3495 2.388 0 0 0 2.3496-2.3887 2.3495 2.388 0 0 0-2.3496-2.3887zm-15.492 4.7891a2.6106 2.6534 0 0 0-2.5684 2.6524 2.6106 2.6534 0 0 0 2.6113 2.6543 2.6106 2.6534 0 0 0 2.6094-2.6543 2.6106 2.6534 0 0 0-2.6094-2.6524 2.6106 2.6534 0 0 0-0.043 0zm10.021 0a2.6106 2.6534 0 0 0-2.5684 2.6524 2.6106 2.6534 0 0 0 2.6094 2.6543 2.6106 2.6534 0 0 0 2.6113-2.6543 2.6106 2.6534 0 0 0-2.6113-2.6524 2.6106 2.6534 0 0 0-0.041 0z" fill="none"/>
   <ellipse cx="565.81" cy="-366.87" rx="8.0467" ry="8.0466" fill="#ef4f3e"/>
   <rect x="560.75" y="-360.13" width="10.204" height="30.105" ry="2.6806" fill="#ef4f3e"/>
   <path d="m553.68-363.99c0.25745 0.62978 0.16311 1.374-0.31641 1.7715-2.4076 0.56313-11.602-3.4639-10.842 2.4121 0.24488 1.5524 1.7088 2.6132 3.2559 2.3691 1.2425-0.19599 2.1622-1.1679 2.3516-2.3496 2.6722 0.6816 7.878 1.4008 7.541-2.543-0.11199-1.0876-1.9902-1.6602-1.9902-1.6602zm24.266 0s-1.8782 0.57258-1.9902 1.6602c-0.33697 3.9438 4.8688 3.2246 7.541 2.543 0.18932 1.1818 1.109 2.1536 2.3516 2.3496 1.547 0.24403 3.011-0.81671 3.2559-2.3691 0.76038-5.876-8.4342-1.849-10.842-2.4121-0.47952-0.39752-0.57386-1.1417-0.31641-1.7715zm-45.057 2.3027c0.38391 0.56169 0.44592 1.3076 0.0605 1.7969-2.2358 1.056-12.069-0.94864-10.092 4.6367 0.56529 1.4664 2.2184 2.1942 3.6797 1.6309 1.1737-0.45244 1.8696-1.5959 1.8066-2.791 2.7557 0.10559 7.9952-0.28316 6.8379-4.0684-0.33779-1.0398-2.293-1.2051-2.293-1.2051zm65.848 0s-1.9552 0.16524-2.293 1.2051c-1.1573 3.7852 4.0822 4.1739 6.8379 4.0684-0.063 1.1952 0.63294 2.3386 1.8066 2.791 1.4613 0.56331 3.1144-0.16442 3.6797-1.6309 1.9768-5.5854-7.856-3.5808-10.092-4.6367-0.38537-0.4893-0.32336-1.2352 0.0606-1.7969zm-32.857 2.3418-1.3906 1.1152c0.39446 2.2988 0.091 4.6979-0.30273 7.1094-0.71986 0.51612-1.1934 1.3607-1.1934 2.3203 0 1.5732 1.263 2.8476 2.8203 2.8476 1.5573 0 2.8203-1.2744 2.8203-2.8476 0-0.88493-0.39676-1.6807-1.0234-2.2031-0.27822-2.4969-0.68187-5.0984-0.34179-7.2266zm-50.197 7.3066c-0.84456-0.0333-1.8184 0.48243-1.8184 0.48243 0.62694 0.26478 1.0829 0.85851 1.0234 1.4785-1.3093 2.0975-10.664 5.7289-5.9805 9.3574 1.2687 0.92761 3.0522 0.64707 3.9766-0.61718 0.74243-1.0154 0.70952-2.353 0.01-3.3242 2.3748-1.4019 6.5697-4.5634 3.5488-7.1211-0.21165-0.17297-0.47824-0.24477-0.75976-0.25586zm100.26 0c-0.28152 0.0111-0.54812 0.0829-0.75977 0.25586-3.0208 2.5577 1.174 5.7192 3.5488 7.1211-0.69985 0.97117-0.73335 2.3088 0.01 3.3242 0.92438 1.2642 2.7079 1.5448 3.9766 0.61718 4.6839-3.6285-4.6712-7.2599-5.9805-9.3574-0.0595-0.62 0.3965-1.2137 1.0234-1.4785 0 0-0.97379-0.51569-1.8184-0.48243zm-50.131 7.877c-4.0499 3.977-5.4498 7.4299-4.6992 12.338-3.9341-1.8051-8.4535 0.46752-7.9121 4.7226 3e-3 1.9196 1.4486 3.5822 1.1387 5.5195-0.2911 1.0316-0.72453 2.0191-1.0781 3.0312 3.9752-0.13239 5.6555-1.7589 6.2109-5.4062 0.11753-1.4743 2.4316-2.5944 2.8496-0.64258 0.26606 1.677 0.2058 3.4096 0.58789 5.0762 1.4265 0.23989 5.8477 0.318 6.0059-0.39844 0.14253-1.5566 0.14308-3.1363 0.38671-4.6777 0.41801-1.9518 2.734-0.83173 2.8516 0.64258 0.41527 3.7052 2.6676 5.412 6.209 5.4062-0.37501-1.1702-0.99006-2.2831-1.1328-3.5117 0.0243-1.8329 1.248-3.4162 1.2109-5.2715-0.45967-5.32-4.2172-5.7121-8.0234-4.4551 1.3258-5.2913-1.1324-9.2379-4.6055-12.373zm-31.934 5.3027c-1.2369 1.2179-2.5583 2.388-1.3281 4.7422-2.2325-0.48861-2.9444 0.23365-3.7949 1.6113 2.7985 0.33714 2.1392 0.41184 3.8359 3.7188-3.5912-0.9671-3.5249-0.30518-4.4414-2.9707-1.1687 1.1206-1.7272 1.9665-0.78125 4.0469-2.5599-0.70907-3.426 0.82822-4.3574 2.293 1.2179 1.2369 2.386 2.5583 4.7402 1.3281-0.4886 2.2325 0.23558 2.9424 1.6133 3.793 0.33713-2.7984 0.40403-2.117 3.7363-3.7949-0.9417 3.6101-0.28565 3.5639-2.9512 4.4805 1.1205 1.1686 1.9684 1.7272 4.0488 0.78125-0.70908 2.5598 0.82627 3.426 2.291 4.3574 1.237-1.2179 2.5583-2.388 1.3281-4.7422 2.2325 0.4886 2.9444-0.23368 3.7949-1.6113-2.7985-0.33719-2.1372-0.41181-3.834-3.7188 3.5912 0.96713 3.5249 0.30517 4.4414 2.9707 1.1687-1.1206 1.7252-1.9665 0.7793-4.0469 2.5599 0.70907 3.426-0.82822 4.3574-2.293-1.2179-1.2369-2.386-2.5583-4.7402-1.3281 0.48859-2.2325-0.23559-2.9424-1.6133-3.793-0.33714 2.7984-0.40984 2.1374-3.7363 3.7949 0.94751-3.6304 0.28565-3.5639 2.9512-4.4805-1.1205-1.1687-1.9665-1.7272-4.0469-0.78125 0.70908-2.5598-0.82821-3.426-2.293-4.3574zm63.867 0c-1.4648 0.93145-3.002 1.7976-2.293 4.3574-2.0804-0.94593-2.9263-0.38741-4.0469 0.78125 2.6655 0.91653 2.0037 0.85005 2.9512 4.4805-3.3265-1.6576-3.3992-0.99647-3.7363-3.7949-1.3777 0.85054-2.1019 1.5605-1.6133 3.793-2.3542-1.2302-3.5223 0.0912-4.7402 1.3281 0.93146 1.4648 1.7976 3.002 4.3574 2.293-0.94592 2.0804-0.38939 2.9263 0.7793 4.0469 0.91651-2.6655 0.85213-2.0036 4.4434-2.9707-1.6968 3.3069-1.0375 3.3816-3.8359 3.7188 0.85054 1.3776 1.5624 2.0999 3.7949 1.6113-1.2301 2.3542 0.0912 3.5242 1.3281 4.7422 1.4647-0.9314 3.002-1.7976 2.293-4.3574 2.0804 0.94592 2.9263 0.38738 4.0469-0.78125-2.6655-0.91658-2.0095-0.8704-2.9512-4.4805 3.3323 1.6779 3.3992 0.99647 3.7363 3.7949 1.3777-0.85053 2.1019-1.5605 1.6133-3.793 2.3542 1.2302 3.5223-0.0912 4.7402-1.3281-0.93146-1.4648-1.7976-3.002-4.3574-2.293 0.94592-2.0804 0.38744-2.9263-0.78125-4.0469-0.91652 2.6655-0.85018 2.0036-4.4414 2.9707 1.6968-3.3069 1.0375-3.3816 3.8359-3.7188-0.85054-1.3777-1.5624-2.0999-3.7949-1.6113 1.2302-2.3542-0.0912-3.5243-1.3281-4.7422zm-93.988 1.582c-0.32351-6e-3 -0.65158 6e-3 -0.98242 0.0332 3.3081 7.3112 6.6177 14.622 9.9258 21.934 1.2196-0.57798 2.4386-1.1564 3.6582-1.7344-0.45703-1.4349-0.94183-2.8625-1.3808-4.3027-0.5086-1.4016 1.1907-2.1496 2.0449-1.0039 0.85815 0.92279 1.1456 2.2913 2.2578 3.002 1.118 0.90948 2.6785 1.0176 3.9863 0.47851 0.80133-0.0878 0.90262-0.39678 0.33008-0.86523-0.78541-0.9713-1.8195-1.8857-1.8848-3.2266-0.12498-1.8946-0.21336-3.9468-1.4453-5.5039-1.0699-1.1947-2.851-2.1641-4.4648-1.5762-0.93412 0.19319-1.9724 1.8725-2.459 1.6777-0.77939-5.0836-4.7332-8.828-9.5859-8.9121zm124.11 0c-4.8527 0.0841-8.8065 3.8284-9.5859 8.9121-0.48658 0.19479-1.5249-1.4845-2.459-1.6777-1.6138-0.5879-3.393 0.38148-4.4629 1.5762-1.232 1.5571-1.3223 3.6093-1.4473 5.5039-0.0653 1.3409-1.0994 2.2552-1.8848 3.2266-0.57253 0.46844-0.47125 0.77743 0.33008 0.86523 1.3078 0.53913 2.8684 0.43097 3.9863-0.47851 1.1122-0.71065 1.3997-2.0792 2.2578-3.002 0.85423-1.1457 2.5535-0.39775 2.0449 1.0039-0.43904 1.4402-0.92381 2.8679-1.3809 4.3027 1.2196 0.57798 2.4387 1.1564 3.6582 1.7344 3.3081-7.3112 6.6177-14.622 9.9258-21.934-0.33084-0.0276-0.65891-0.0388-0.98242-0.0332zm-78.846 16.016c-1.6327 0.0443-2.9337 1.4024-2.9336 3.0625-5.4e-4 1.6929 1.35 3.0653 3.0156 3.0644 1.6648-2.1e-4 3.0142-1.3723 3.0137-3.0644-5.2e-4 -1.6914-1.3496-3.0623-3.0137-3.0625-0.0273-3.8e-4 -0.0547-3.8e-4 -0.082 0zm33.42 0c-1.6328 0.0443-2.9337 1.4024-2.9336 3.0625-5.4e-4 1.6921 1.3488 3.0642 3.0137 3.0644 1.6656 8.9e-4 3.0162-1.3715 3.0156-3.0644-5.2e-4 -1.6922-1.3508-3.0634-3.0156-3.0625-0.0267-3.6e-4 -0.0534-3.6e-4 -0.0801 0zm-57.398 2.4668c-1.6648 2.1e-4 -3.0142 1.3723-3.0137 3.0644 5.2e-4 1.6914 1.3496 3.0623 3.0137 3.0625 1.6641-2.1e-4 3.0132-1.3711 3.0137-3.0625 5.4e-4 -1.6921-1.3488-3.0642-3.0137-3.0644zm81.539 0c-1.6648 2.1e-4 -3.0142 1.3723-3.0137 3.0644 5.2e-4 1.6914 1.3496 3.0623 3.0137 3.0625 1.6641-2.1e-4 3.0132-1.3711 3.0137-3.0625 5.4e-4 -1.6921-1.3488-3.0642-3.0137-3.0644zm-44.42 14.6c-2.0103 0-3.6289 1.6186-3.6289 3.6289s1.6186 3.6289 3.6289 3.6289h7.3008c2.0103 0 3.6289-1.6186 3.6289-3.6289s-1.6186-3.6289-3.6289-3.6289zm-12.045 1.1055c-1.6099 0-2.8555 1.2336-2.8555 2.7637s1.2456 2.7637 2.8555 2.7637 2.8691-1.238 2.8691-2.7637c0-1.5257-1.2593-2.7637-2.8691-2.7637zm31.385 0c-1.6098 0-2.8555 1.2336-2.8555 2.7637s1.2456 2.7637 2.8555 2.7637 2.8672-1.238 2.8672-2.7637c0-1.5257-1.2573-2.7637-2.8672-2.7637zm-42.137 0.19336-5.4785 0.53907c-1.4972 0.14711-2.492 1.458-2.2305 2.9394s1.6767 2.5553 3.1738 2.4082l5.4805-0.53906c1.4971-0.14711 2.492-1.458 2.2305-2.9394s-1.6786-2.5553-3.1758-2.4082zm52.338 0c-1.2775 0.12732-2.3903 1.1119-2.6191 2.4082-0.2615 1.4814 0.73333 2.7923 2.2305 2.9394l5.4805 0.53906c1.4971 0.14711 2.9123-0.92676 3.1738-2.4082 0.26151-1.4814-0.73333-2.7923-2.2305-2.9394l-5.4785-0.53907c-0.18715-0.0184-0.37414-0.0182-0.55665 0zm-66.633 1.2422c-1.6098 0-2.8555 1.2336-2.8555 2.7637s1.2456 2.7637 2.8555 2.7637 2.8691-1.238 2.8691-2.7637c0-1.5257-1.2593-2.7637-2.8691-2.7637zm81.477 0c-1.6099 0-2.8555 1.2336-2.8555 2.7637s1.2456 2.7637 2.8555 2.7637c1.6098 0 2.8691-1.238 2.8691-2.7637 0-1.5257-1.2593-2.7637-2.8691-2.7637z" fill="#ef4f3e"/>
   <path d="m565.79-320.7c-1.96-0.0316-3.9144 0.59266-5.2344 1.9668 2.6934 2.4956 7.868 2.7483 10.508 0-1.3467-1.2478-3.3135-1.9352-5.2734-1.9668zm-49.295 2.7558c-2.6734-0.0656-5.4867 1.1112-6.7988 3.3789 3.2107 1.7815 8.2946 0.79254 10.203-2.5059-1.0033-0.55672-2.1891-0.84324-3.4043-0.87305zm98.629 0c-1.2152 0.0298-2.401 0.31633-3.4043 0.87305 1.9085 3.2984 6.9924 4.2874 10.203 2.5059-1.3121-2.2677-4.1254-3.4445-6.7988-3.3789z" fill="#ef4f3e"/>
   <path d="m521.36-291.34c-4.231 0.26065-3.3064 8.2669 1.6065 8.0398 33.141-1.5317 53.936-2.2784 85.846 0.17678 4.8462 0.37286 5.6988-7.8448 1.9972-8.2166-27.297-2.7416-53.266-2.2291-89.45 0z" fill="#ef4f3e"/>
   <path d="m517.9-305.23 1.9445 13.965" fill="none"/>
   <path d="m613-305.93-1.0607 14.319" fill="none"/>
  </g>
 </g>
</svg>
