<?xml version="1.0" encoding="UTF-8"?>
<svg version="1.0" viewBox="0 0 128 128" xmlns="http://www.w3.org/2000/svg">
 <path d="m99.789 14.818c-31.239 22.328-37.928 68.793-57.916 94.807 8.2277-23.878 7.0116-44.389-1.5375-66.285-3.185-8.1582-8.7172-12.738-13.328-19.437-1.5136-2.2308-4.2918-1.6982-3.5887 0.94747 1.1039 2.8377 2.3245 3.3764 2.9415 5.6367-2.4635 4.0228-8.2591 3.3561-11.585 5.9184-2.719 2.0948-4.8954 7.704-1.712 9.7172 4.9318 3.1189 9.3793-3.4511 5.0712-6.7757l-1.9736 2.6541c1.7556 1.0702-0.33221 1.4471-1.1294 1.4632-0.31006-1.0948 0.2538-3.5068 1.6527-4.3574 4.0619-2.4697 9.1649-2.1944 11.906-5.8876 19.253 20.678 14.616 72.674 2.1469 86.814-1.7776 1.9959 0.36846 3.7853 2.5367 2.7143 34.379-25.003 36.225-82.828 68.534-104.76 1.8279-1.2408 3.7866-2.4552 5.9041-2.6806-2.797 4.6047 5.1484 9.9201 8.1891 5.8969 2.5687-4.162-3.4674-7.666-5.4341-3.6974 0.32071-1.595 1.0101-3.0939 0.22075-4.1141-2.7205-3.2747-8.2007-0.50596-10.899 1.4223zm10.874 3.3388 2.9286 0.20673c-0.81384 1.8111-1.7848 1.5832-2.9286-0.20673z" fill="#ef4f3e" stroke="#A13125" stroke-linejoin="round" stroke-width="2" />
 <path d="m84.668 39.419c0.13207-12.018-12.3-18.732-23.331-14.958-15.882 5.4324-13.827 22.384 2.7779 20.697 6.7977-0.69058 9.0904-7.9995 3.3184-10.228-1.4697-0.56731-3.296-0.39669-5.0411 0.55452l1.5838 2.9039c1.4539-0.73413 2.8979-0.71979 3.2667 0.63958 0.50656 1.8669-2.2882 2.779-3.5693 2.849-12.81 0.69984-11.776-10.529-1.3846-13.75 8.4041-2.6056 18.035 1.5151 17.985 11.135-0.04515 8.5993-7.7365 13.478-13.971 14.771-11.707 2.4285-30.67-5.3861-30.844-16.456-0.21157-13.465 8.1968-22.113 18.049-25.831 9.4361-3.5611 26.819-2.6109 34.175 3.054 8.5199 6.5607 12.551 15.182 10.439 24.696-2.2217 10.013-11.463 21.124-20.271 22.524-4.5719-2.4291-7.371-5.1972-11.997-3.8115-8.0656 5.7398 6.1301 7.9934 10.893 7.3369 3.028 2.6833 4.7059 6.8082 5.2806 8.5342 4.0915 12.285 2.7843 25.828 4.2647 35.605 0.8828 5.8302 4.8077 11.043 10.468 12.414 5.8512 1.4173 12.394-2.5802 13.792-8.4438 1.323-5.5491-5.1661-10.42-9.6963-7.8611-1.4971 0.84537-2.5196 2.674-2.443 4.8581 0.14878 4.2436 6.3738 5.1125 7.5237 1.5246 0.59146-2.7771-3.4486-3.6667-3.2285-1-0.701 0.0847-0.72713-0.29402-0.96743-0.64091 0.0608-2.0647 1.4669-2.4357 3.1133-1.9178 1.7937 0.56428 2.3792 2.5703 2.067 4.1405-0.8096 4.0712-5.1333 6.8776-9.0734 5.5965-4.1619-1.3536-7.0778-5.3888-7.6434-9.0144-1.8531-11.871-0.72216-26.832-4.4878-37.173-0.37443-1.0283-2.9662-5.9383-4.1875-7.3324 11.302-4.0976 18.847-15.046 20.71-24.591 2.773-14.211-2.1485-21.675-12.268-28.583-11.472-7.8308-26.046-8.6577-37.991-3.3776-12.843 5.677-21.056 15.191-20.382 29.496 0.82498 17.513 25.11 22.192 34.344 20.148 9.591-2.1229 18.632-9.7448 18.729-18.51zm-11.755 23.157c-2.0743 0.08469-4.4755-0.2997-5.9929-1.2199 2.1788-1.0718 4.2481 0.06367 5.9929 1.2199z" fill="#ef4f3e" stroke="#A13125" stroke-linejoin="round" stroke-width="2"/>
</svg>
