<?xml version="1.0" encoding="UTF-8"?>
<svg version="1.1" viewBox="0 0 144 144" xmlns="http://www.w3.org/2000/svg">
 <g transform="translate(0 -978.52)">
  <g aria-label="n-o">
   <path d="m53.909 1075.8h-10.828v-25.406q0-7.6406-0.60938-10.172-0.60938-2.5312-2.2969-3.8906-1.6406-1.3594-3.75-1.3594-2.7188 0-4.9219 1.7813-2.2031 1.7343-3.0938 4.8281-0.89062 3.0937-0.89062 11.672v22.547h-10.828v-49.781h10.031v7.3125q2.6719-4.2188 6-6.3281 3.375-2.1094 7.4531-2.1094 4.7344 0 7.9688 2.4844 3.2812 2.4375 4.5 6.3281 1.2656 3.8437 1.2656 11.156z"/>
   <path d="m61.784 1057.5v-13.172h21.234v13.172z"/>
   <path d="m88.69 1050.2q0-7.3125 2.9062-13.312t7.5938-9q4.6875-3 10.547-3 9.8438 0 15.469 7.7344 5.625 7.6875 5.625 18 0 7.6875-2.9531 13.875-2.9062 6.1875-7.6875 9.3281-4.7344 3.0937-10.406 3.0937-9.0938 0-15.094-6.9375-6-6.9375-6-19.781zm11.062 0.7031q0 7.5469 2.9531 11.438 2.9531 3.8438 7.125 3.8438 4.0781 0 6.9844-3.8907 2.9062-3.8906 2.9062-11.484 0-7.4063-2.9531-11.297-2.9531-3.8906-7.0781-3.8906-4.0781 0-7.0312 3.8906-2.9062 3.8906-2.9062 11.391z"/>
  </g>
 </g>
</svg>
