<?xml version="1.0" encoding="UTF-8"?><svg xmlns="http://www.w3.org/2000/svg" viewBox="0 0 128 128"><g id="Layer_1"><path d="M119.42,95.99c-17.67,30.6-56.81,41.09-87.41,23.42S-9.09,62.61,8.58,32.01,65.39-9.09,95.99,8.58c30.61,17.67,41.09,56.81,23.42,87.41" style="fill:#9bbe55;"/><g><g style="opacity:.25;"><path d="M92.3,27.29H35.66c-4.86,0-9.42,4.56-9.42,9.43v56.62c0,4.86,4.57,9.45,9.44,9.45h56.62c4.86,0,9.44-4.56,9.44-9.43V36.72c0-4.86-4.58-9.43-9.45-9.43h0Zm1.93,47.82h-20.15v20.13h-20.15v-20.13h-20.16v-20.15h20.16v-20.13h20.15v20.13h20.15v20.15Z"/></g><path d="M92.3,24.21H35.66c-4.86,0-9.42,4.56-9.42,9.43v56.62c0,4.86,4.57,9.45,9.44,9.45h56.62c4.86,0,9.44-4.56,9.44-9.43V33.64c0-4.86-4.58-9.43-9.45-9.43h0Zm1.93,47.82h-20.15v20.13h-20.15v-20.13h-20.16v-20.15h20.16V31.75h20.15v20.13h20.15v20.15Z" style="fill:#fff;"/></g></g><g id="Layer_2"><path d="M119.42,95.99c-17.67,30.6-56.81,41.09-87.41,23.42S-9.09,62.61,8.58,32.01,65.39-9.09,95.99,8.58c30.61,17.67,41.09,56.81,23.42,87.41" style="fill:#9bbe55;"/><g><polygon points="107.84 53.54 78.61 53.54 78.61 24.34 49.39 24.34 49.39 53.54 20.15 53.54 20.15 82.76 49.39 82.76 49.39 111.95 78.61 111.95 78.61 82.76 107.84 82.76 107.84 53.54" style="opacity:.2;"/><polygon points="107.84 46.29 78.61 46.29 78.61 17.09 49.39 17.09 49.39 46.29 20.15 46.29 20.15 75.51 49.39 75.51 49.39 104.7 78.61 104.7 78.61 75.51 107.84 75.51 107.84 46.29" style="fill:#fff;"/></g></g></svg>