<?xml version="1.0" encoding="UTF-8"?><svg id="Layer_1" xmlns="http://www.w3.org/2000/svg" viewBox="0 0 128 128"><path d="M119.42,95.99c-17.67,30.6-56.81,41.09-87.41,23.42S-9.09,62.61,8.58,32.01,65.39-9.09,95.99,8.58s41.09,56.81,23.42,87.41" style="fill:#9bbe55;"/><g><g style="opacity:.25;"><path d="M92.3,27.29H35.66c-4.86,0-9.42,4.56-9.42,9.43v56.62c0,4.86,4.57,9.45,9.44,9.45h56.62c4.86,0,9.44-4.56,9.44-9.43V36.72c0-4.86-4.58-9.43-9.45-9.43h0Zm1.93,47.82h-20.15v20.13h-20.15v-20.13h-20.16v-20.15h20.16v-20.13h20.15v20.13h20.15v20.15Z"/></g><g><path d="M59.02,62.35h0c.72-.29,1.2-.92,1.2-2.09,0-1.68-1.09-2.44-2.76-2.44-.8,0-1.52,.02-2.29,.11v8.12h1.58v-3.21h.82c.21,0,.26,.11,.32,.34l.75,2.86h1.65l-.99-3.32c-.05-.21-.11-.33-.28-.38Zm-1.38-.77h-.88v-2.47c.26-.02,.51-.04,.77-.04,.94,0,1.14,.56,1.14,1.28,0,.86-.3,1.22-1.03,1.22Z" style="fill:#fff;"/><path d="M69.9,62.47h2.15v-1.31h-2.15v-1.96h2.38v-1.32h-3.96v8.17h4.05v-1.29h-2.48v-2.29Z" style="fill:#fff;"/><path d="M38.28,62.47h2.14v-1.31h-2.14v-1.96h2.38v-1.32h-3.96v8.17h4.06v-1.29h-2.47v-2.29Z" style="fill:#fff;"/><path d="M51.4,62.47h2.15v-1.31h-2.15v-1.96h2.38v-1.32h-3.96v8.17h4.05v-1.29h-2.48v-2.29Z" style="fill:#fff;"/><path d="M45.14,60.97l-1.61-3.1h-1.48v8.17h1.54v-5.28l1.54,3.1,1.53-3.11h.05v5.29h1.48v-8.17h-1.48l-1.58,3.1Z" style="fill:#fff;"/><path d="M64.42,62.82h1.11v.29c0,.85-.12,1.8-1.17,1.8-1.37,0-1.41-1.95-1.41-2.95s.1-2.88,1.46-2.88c.64,0,.94,.35,1.3,.79l.87-1.16c-.63-.62-1.28-.98-2.14-.98-2.31,0-3.14,2.2-3.14,4.24s.75,4.2,3.02,4.2,2.66-1.92,2.66-3.7v-.95h-2.55v1.3h0Z" style="fill:#fff;"/><path d="M88.46,66.04h1.57v-3.12l2.07-5.05h-1.61l-1.24,3.72-1.24-3.72h-1.69l2.13,5.13v3.04Z" style="fill:#fff;"/><path d="M73.68,66.04h1.54v-5.04h.04l2.62,5.04h1.38v-8.17h-1.53v4.83h-.02l-2.5-4.84h-1.53v8.17Z" style="fill:#fff;"/><path d="M92.3,24.21H35.66c-4.86,0-9.42,4.56-9.42,9.43v56.62c0,4.86,4.57,9.45,9.44,9.45h56.62c4.86,0,9.44-4.56,9.44-9.43V33.64c0-4.86-4.58-9.43-9.45-9.43h0Zm1.93,47.82h-20.15v20.13h-20.15v-20.13h-20.16v-20.15h20.16V31.75h20.15v20.13h20.15v20.15Z" style="fill:#fff;"/><path d="M83.7,66.18c1,0,1.79-.47,2.33-1.13l-.81-1.15c-.4,.54-.77,.94-1.43,.94-1.27,0-1.5-1.77-1.5-2.88,0-1.47,.34-2.88,1.46-2.88,.6,0,.93,.4,1.29,.94l.94-1.12c-.63-.75-1.25-1.18-2.21-1.18-2.27,0-3.14,2.13-3.14,4.23,0,2.22,.81,4.21,3.06,4.21Z" style="fill:#fff;"/></g></g></svg>