<?xml version="1.0" encoding="UTF-8"?>
<svg version="1.1" viewBox="0 0 128 128" xml:space="preserve" xmlns="http://www.w3.org/2000/svg">
<path d="M119.42 95.995c-17.67 30.605-56.806 41.092-87.411 23.422S-9.083 62.611 8.587 32.006 65.393-9.086 95.998 8.584 137.09 65.39 119.42 95.995" fill="#529add"/>
<path d="m70.072 18.793c-1.5196-1.7724-3.7376-2.7926-6.0723-2.793-3.3951-1.7e-5 -6.4204 2.1429-7.5469 5.3457l-46.686 8.6982c-2.6712 4.6944-4.036 7.5082-4.7707 9.1846l52.932-10.019c0.5887 0.68587 1.2894 1.267 2.0723 1.7188v13.072h-32c-4.432 0-8 3.568-8 8v50c0 4.432 3.568 8 8 8h72c4.432 0 8-3.568 8-8v-50c0-4.432-3.568-8-8-8h-32v-13.072c1.6543-0.95476 2.9124-2.4699 3.5469-4.2715v-2e-3l38.15-7.4737c-2.0857-2.0289-6.8209-6.0179-7.8512-6.7874zm-38.072 33.207h64c2 0 4 2 4 4v32c0 2-2 4-4 4h-64c-2 0-4-2-4-4v-32c0-2 2-4 4-4z" fill-opacity=".2" fill="#000"/>
<path d="m97.713 9.6094-27.641 5.1836c-1.5196-1.7724-3.7376-2.7926-6.0723-2.793-3.3951-1.7e-5 -6.4204 2.1429-7.5469 5.3457l-43.582 8.1719c-1.5387 2.0496-2.9695 4.2129-4.2832 6.4883-0.52162 0.90346-1.0194 1.8149-1.4922 2.7324l50.832-9.5293c0.5887 0.68587 1.2894 1.267 2.0723 1.7188v13.072h-32c-4.432 0-8 3.568-8 8v50c0 4.432 3.568 8 8 8h72c4.432 0 8-3.568 8-8v-50c0-4.432-3.568-8-8-8h-32v-13.072c1.6543-0.95476 2.9124-2.4699 3.5469-4.2715v-2e-3l34.912-6.5449c-2.6843-2.3746-5.6025-4.5542-8.7461-6.5zm-65.713 38.391h64c2 0 4 2 4 4v20c0 2-2 4-4 4h-64c-2 0-4-2-4-4v-20c0-2 2-4 4-4z" fill="#fff"/>
<path d="m92 94c0 15.464-12.536 28-28 28-15.464-1e-5 -28-12.536-28-28-2e-6 -15.464 12.536-28 28-28 15.464 1e-6 28 12.536 28 28" fill-opacity=".2" fill="#000"/>
<path d="m92 90c0 15.464-12.536 28-28 28-15.464-1e-5 -28-12.536-28-28-2e-6 -15.464 12.536-28 28-28 15.464 1e-6 28 12.536 28 28" fill="#c84747"/>
<path d="m42 84h44v12h-44z" fill="#fff"/>
</svg>
