<?xml version="1.0" encoding="UTF-8"?>
<svg version="1.1" viewBox="0 0 128 128" xml:space="preserve" xmlns="http://www.w3.org/2000/svg"><path d="M119.42 95.995c-17.67 30.605-56.806 41.092-87.411 23.422S-9.083 62.611 8.587 32.006 65.393-9.086 95.998 8.584 137.09 65.39 119.42 95.995" fill="#ca72e2"/><path d="m70.072 18.793c-1.5196-1.7724-3.7376-2.7926-6.0723-2.793-3.3951-1.7e-5 -6.4204 2.1429-7.5469 5.3457l-46.686 8.6982c-2.6712 4.6944-4.036 7.5082-4.7707 9.1846l52.932-10.019c0.5887 0.68587 1.2894 1.267 2.0723 1.7188v13.072h-32c-4.432 0-8 3.568-8 8v50c0 4.432 3.568 8 8 8h72c4.432 0 8-3.568 8-8v-50c0-4.432-3.568-8-8-8h-32v-13.072c1.6543-0.95476 2.9124-2.4699 3.5469-4.2715v-2e-3l38.15-7.4737c-2.0857-2.0289-6.8209-6.0179-7.8512-6.7874zm-38.072 33.207h64c2 0 4 2 4 4v32c0 2-2 4-4 4h-64c-2 0-4-2-4-4v-32c0-2 2-4 4-4z" fill-opacity=".2" stroke-linecap="round" stroke-width="4"/><path d="m97.713 9.6094-27.641 5.1836c-1.5196-1.7724-3.7376-2.7926-6.0723-2.793-3.3951-1.7e-5 -6.4204 2.1429-7.5469 5.3457l-43.582 8.1719c-1.5387 2.0496-2.9695 4.2129-4.2832 6.4883-0.52162 0.90346-1.0194 1.8149-1.4922 2.7324l50.832-9.5293c0.5887 0.68587 1.2894 1.267 2.0723 1.7188v13.072h-32c-4.432 0-8 3.568-8 8v50c0 4.432 3.568 8 8 8h72c4.432 0 8-3.568 8-8v-50c0-4.432-3.568-8-8-8h-32v-13.072c1.6543-0.95476 2.9124-2.4699 3.5469-4.2715v-2e-3l34.912-6.5449c-2.6843-2.3746-5.6025-4.5542-8.7461-6.5zm-65.713 38.391h64c2 0 4 2 4 4v32c0 2-2 4-4 4h-64c-2 0-4-2-4-4v-32c0-2 2-4 4-4z" fill="#fff" stroke-linecap="round" stroke-width="4"/><path d="m61.945 55.268-7.6526 0.05442c-0.75675 0.0047-1.4268 0.49002-1.6672 1.2076l-4.2053 12.525c-0.89038-0.18446-1.8126-0.28224-2.7558-0.28224-7.5004 0-13.632 6.1316-13.632 13.632 0 7.5004 6.1316 13.63 13.632 13.63s13.63-6.1296 13.63-13.63c0-5.3118-3.0735-9.9356-7.5317-12.183l0.61891-1.8446 12.428 15.092c0.39745 0.47824 0.90683 0.6293 1.365 0.64328h2.6994c0.84603 6.7014 6.6007 11.922 13.523 11.922 7.5004 0 13.632-6.1296 13.632-13.63 0-7.5004-6.1316-13.632-13.632-13.632-2.0626 0-4.0213 0.46394-5.7778 1.2922l-3.8707-5.9814c-0.08912-0.13792-0.197-0.26276-0.32054-0.37094l0.24796-1.0443 3.5118 0.06451c0.97613 0.01701 1.7817-0.75966 1.8003-1.7358 0.017-0.9769-0.76088-1.7828-1.7378-1.8003l-7.7736-0.14314c-0.97769-0.01926-1.7857 0.75805-1.8043 1.7358-0.01813 0.97768 0.76008 1.7848 1.7378 1.8023l0.64511 0.01209-0.15926 0.67334h-14.803l1.4858-4.4231 6.3906-0.04838c0.97763-0.0065 1.7648-0.8045 1.7579-1.7821-0.0076-0.97684-0.80528-1.7628-1.7821-1.7559zm-6.2677 11.545h12.376l-2.776 11.658zm15.64 1.5704 2.3244 3.5925-0.0021 0.0021c-2.5337 2.1328-4.2846 5.1659-4.7496 8.5961h-0.47579zm-25.653 5.1105c0.4198 0 0.83203 0.02748 1.2358 0.08265l-2.7538 8.203c-0.31173 0.92634 0.18649 1.93 1.1128 2.2418 0.92634 0.31173 1.93-0.18649 2.2418-1.1128l2.7417-8.1647c2.6027 1.5497 4.3344 4.3892 4.3344 7.6607 0 4.9499-3.9628 8.9126-8.9126 8.9126s-8.9126-3.9628-8.9126-8.9126c0-4.9499 3.9628-8.9106 8.9126-8.9106zm36.733 0c4.9499 0 8.9126 3.9607 8.9126 8.9106 0 4.9499-3.9628 8.9126-8.9126 8.9126-4.3654 0-7.9608-3.082-8.7493-7.2051h8.8078c1.4011-0.0011 2.2455-1.5524 1.4858-2.7296l-4.7295-7.3099c0.98761-0.37403 2.0608-0.57858 3.1852-0.57858zm-6.179 2.4696 2.9836 4.6105h-5.5298c0.37032-1.7988 1.2756-3.3922 2.5462-4.6105z" fill-opacity=".2" stop-color="#000000" stroke-width="1.0176"/><g transform="matrix(1.0176 0 0 1.0176 265.62 -352.92)" fill="none" stroke-linecap="round" stroke-linejoin="round"><path d="m-205.08 424.06a11.077 11.077 0 0 1-11.077 11.077 11.077 11.077 0 0 1-11.077-11.077 11.077 11.077 0 0 1 11.077-11.077 11.077 11.077 0 0 1 11.077 11.077" stroke="#555" stroke-width="4.6379"/><path d="m-196 424 5-21" stroke="#ffe420" stroke-width="3.4784"/><path d="m-193.77 402.85 7.641 0.14019" stroke="#555" stroke-width="3.4784"/><path d="m-168.98 424.06a11.077 11.077 0 0 1-11.077 11.077 11.077 11.077 0 0 1-11.077-11.077 11.077 11.077 0 0 1 11.077-11.077 11.077 11.077 0 0 1 11.077 11.077" stroke="#555" stroke-width="4.6379"/><path d="m-210 407 14 17h16l-11-17h-19" stroke="#ffe420" stroke-width="3.4784"/><path d="m-216 424 8.3347-24.815 7.5209-0.0543" stroke="#ffe420" stroke-width="3.4784"/></g></svg>
