<svg version="1.1" viewBox="0 0 128 128" xmlns="http://www.w3.org/2000/svg">
 <path d="m119.42 95.995c-17.67 30.605-56.806 41.092-87.411 23.422-30.606-17.67-41.092-56.806-23.422-87.411s56.806-41.092 87.411-23.422 41.092 56.806 23.422 87.411" fill="#ca72e2" stroke-width=".19997"/>
 <g transform="translate(.00017696 4.0002)" fill-opacity=".26644">
  <path d="m97.84 41.211h-30.769v-14.222c1.1409-0.62045 2.0461-1.5757 2.5846-2.7259l31.262-3.7926c1.6991 0 3.0769-1.3268 3.0769-2.963s-1.3778-2.963-3.0769-2.963l-32.123 3.8519c-1.136-1.4596-2.9065-2.3336-4.8-2.3704-2.4843 0.0112-4.7175 1.4613-5.6615 3.6741l-31.262 3.7333c-1.6991 0-3.0769 1.3268-3.0769 2.963 0 1.6361 1.3778 2.963 3.0769 2.963l32.123-3.8519c0.472 0.59437 1.0566 1.0969 1.7231 1.4815v14.222h-30.769c-3.3988 0-6.1538 2.653-6.1538 5.9259v41.481c0 3.2729 2.7551 5.9259 6.1538 5.9259h67.692c3.3988 0 6.1538-2.653 6.1538-5.9259v-41.481c0-3.2729-2.7551-5.9259-6.1538-5.9259zm-36.923 35.556h-24.615v-23.704h24.615zm30.769 0h-24.615v-23.704h24.615z" fill-opacity=".26644" stroke-width="6.0388"/>
 </g>
 <g fill="#fff">
  <path d="m97.84 41.211h-30.769v-14.222c1.1409-0.62045 2.0461-1.5757 2.5846-2.7259l31.262-3.7926c1.6991 0 3.0769-1.3268 3.0769-2.963s-1.3778-2.963-3.0769-2.963l-32.123 3.8519c-1.136-1.4596-2.9065-2.3336-4.8-2.3704-2.4843 0.0112-4.7175 1.4613-5.6615 3.6741l-31.262 3.7333c-1.6991 0-3.0769 1.3268-3.0769 2.963 0 1.6361 1.3778 2.963 3.0769 2.963l32.123-3.8519c0.472 0.59437 1.0566 1.0969 1.7231 1.4815v14.222h-30.769c-3.3988 0-6.1538 2.653-6.1538 5.9259v41.481c0 3.2729 2.7551 5.9259 6.1538 5.9259h67.692c3.3988 0 6.1538-2.653 6.1538-5.9259v-41.481c0-3.2729-2.7551-5.9259-6.1538-5.9259zm-36.923 35.556h-24.615v-23.704h24.615zm30.769 0h-24.615v-23.704h24.615z" stroke-width="6.0388"/>
  <path d="m26.622 26.458-23.852 2.9302" fill-opacity=".2699" stroke="#fff" stroke-width="5.875"/>
  <path d="m115.71 15.654-23.85 2.9527" fill-opacity=".2699" stroke="#fff" stroke-width="5.875"/>
 </g>
 <g transform="matrix(1.7249 0 0 1.7249 426.64 -621.68)" fill="none" stroke-linecap="round" stroke-linejoin="round">
  <path d="m-202.69 418.37a5.5132 5.5308 0 0 1-5.5132 5.5308 5.5132 5.5308 0 0 1-5.5132-5.5308 5.5132 5.5308 0 0 1 5.5132-5.5308 5.5132 5.5308 0 0 1 5.5132 5.5308" stroke="#404040" stroke-width="2.312"/>
  <path d="m-198.18 418.34 2.4886-10.485" stroke="#ffe51f" stroke-width="1.734"/>
  <path d="m-197.07 407.78 3.8031 0.07" fill="#28220b" stroke="#404040" stroke-width="1.734"/>
  <path d="m-184.73 418.37a5.5132 5.5308 0 0 1-5.5132 5.5308 5.5132 5.5308 0 0 1-5.5132-5.5308 5.5132 5.5308 0 0 1 5.5132-5.5308 5.5132 5.5308 0 0 1 5.5132 5.5308" stroke="#404040" stroke-width="2.312"/>
  <path d="m-205.14 409.85 6.9681 8.4882h7.9635l-5.4749-8.4882h-9.4566" stroke="#ffe51f" stroke-width="1.734"/>
  <path d="m-208.13 418.34 4.1483-12.39 3.7433-0.0271" stroke="#ffe51f" stroke-width="1.734"/>
 </g>
</svg>
