<?xml version="1.0" encoding="UTF-8"?>
<svg version="1.1" viewBox="0 0 128 128" xml:space="preserve" xmlns="http://www.w3.org/2000/svg">
<path d="m128 64c0 35.346-28.654 64-64 64s-64-28.654-64-64 28.654-64 64-64 64 28.654 64 64" fill="#9bbe55"/>
<path d="m34.146 32.44c-9 7.7014-27.581 18.95-16.831 35.182 8.7518 13.214 22.803-2.3538 28.895 6.2638 6.9389 9.8151 8.3049 22.737 18.206 30.022 10.677 7.8561 27.242 6.0556 37.052-2.974 13.874-12.77 18.097-41.468 6.3427-56.212-15.281-19.168-55.04-28.219-73.665-12.281zm0.09383 11.892c4.4376-3.5378 8.3879-6.654 11.824-2.3429 3.437 4.3106 3.5403 12.036-0.89741 15.574-4.4376 3.5378-9.3025 5.2913-12.739 0.98017-3.437-4.3106-2.6257-10.673 1.812-14.211z" fill-opacity=".2"/>
<path d="m34.146 28.44c-9 7.7014-27.581 18.95-16.831 35.182 8.7518 13.214 22.803-2.3538 28.895 6.2638 6.9389 9.815 8.3049 22.737 18.206 30.022 10.677 7.8561 27.242 6.0556 37.052-2.9741 13.874-12.77 18.097-41.468 6.3427-56.212-15.281-19.168-55.04-28.219-73.665-12.281zm0.09383 11.892c4.4376-3.5378 8.3879-6.654 11.824-2.3429 3.437 4.3106 3.5403 12.036-0.89741 15.574-4.4376 3.5378-9.3025 5.2913-12.739 0.98017-3.437-4.3106-2.6257-10.673 1.812-14.211z" fill="#cc826b"/>
<ellipse transform="matrix(.80533 -.59283 .6535 .75693 0 0)" cx="38.168" cy="89.397" rx="9.8675" ry="9.6941" fill="#e8d211"/>
<ellipse transform="matrix(.82047 -.57169 .6739 .73882 0 0)" cx="24.692" cy="115.42" rx="10.348" ry="9.7724" fill="#1e55cc"/>
<ellipse transform="matrix(.81485 -.57968 .66623 .74575 0 0)" cx="-1.4596" cy="119.24" rx="10.546" ry="10.282" fill="#c7233b"/>
<path d="m88.819 17.002c-7.2658 0.037156-31.848 40.61-40.93 62.775-18.363-2.6432-9.2315 23.783-16.834 31.668 18.752 1.4481 35.762-18.305 26.307-27.6 15.519-20.063 37.957-63.515 32.256-66.643-0.23592-0.13642-0.50347-0.20268-0.79883-0.20117z" fill-opacity=".2"/>
<path d="m89.618 13.203c7.6465 4.1955-35.329 80.933-44.333 76.479-7.2143-3.9612 36.323-81.111 44.333-76.479z" fill="#ac573d"/>
<path d="m89.618 13.203c7.6465 4.1955-35.329 80.933-44.333 76.479 3.0511 1.1793 46.798-75.684 44.333-76.479z" fill="#934934"/><path d="m52.07 76.748c19.277 6.7147 0.2519 32.34-21.014 30.698 8.1238-8.4253-2.8589-38.022 21.014-30.698z" fill="#494949"/>
<path d="m52.07 76.748c19.277 6.7147 0.2519 32.34-21.014 30.698 22.241-4.6983 13.089-19.944 21.014-30.698z" fill="#373737"/>
</svg>
