<svg version="1.1" viewBox="0 0 128 128" xmlns="http://www.w3.org/2000/svg">
 <path class="st0" d="m128 64a64 64 0 0 1-64 64 64 64 0 0 1-64-64 64 64 0 0 1 64-64 64 64 0 0 1 64 64" fill="#529add"/>
 <path d="m32 32.1v87.3a64 64 0 0 0 16 6.53v-93.8z" fill="#666"/>
 <path d="m80 32.1v93.8a64 64 0 0 0 16-6.58v-87.3z" fill="#666"/>
 <path d="m24 44.1c-4.46 0-8.04 3.59-8.04 8.04v31.9c0 4.46 3.59 8.04 8.04 8.04h79.9c4.46 0 8.04-3.59 8.04-8.04v-31.9c0-4.46-3.59-8.04-8.04-8.04z" fill-opacity=".2"/>
 <path d="m24 40.1h79.9c4.46 0 8.04 3.59 8.04 8.04v31.9c0 4.46-3.59 8.04-8.04 8.04h-79.9c-4.46 0-8.04-3.59-8.04-8.04v-31.9c0-4.46 3.59-8.04 8.04-8.04z" fill="#fff"/>
 <path d="m24 40.1c-3.82 0-6.99 2.65-7.79 6.21l28.7 41.8h14.1l-32.3-48zm16.6 0 32.3 48h14.1l-32.3-48zm28 0 32.3 48h3.05c3.69 0 6.78-2.48 7.71-5.87l-28.9-42.1zm28 0 15.4 22v-14c0-4.43-3.57-8-8-8zm-80.6 26v14c0 4.43 3.57 8 8 8h7.09z" fill="#c84747"/>
 <path d="m24 40.1h79.9c4.45 0 8.04 3.58 8.04 8.04v31.9c0 4.45-3.58 8.04-8.04 8.04h-79.9c-4.45 0-8.04-3.58-8.04-8.04v-31.9c0-4.45 3.58-8.04 8.04-8.04z" fill="none" stroke="#555" stroke-linecap="round" stroke-linejoin="round" stroke-width="4"/>
 <g transform="matrix(.108 0 0 .0977 57.4 11.8)">
  <path d="m372 142v236c0 62.4-40.2 115-95.9 134h-89.6c-55.7-18.9-95.9-72-95.9-134v-70.6c8.12 2.3 16.9 3.53 26 3.53 10.3 0 20-1.56 29.1-4.43v71.5c0 47.8 38.4 86.6 85.7 86.6s85.7-38.8 85.7-86.6v-236c0-2.22-0.082-4.43-0.246-6.65-0.082-0.657-0.082-1.4-0.164-2.05s-0.164-1.23-0.246-1.8v-0.492c-0.082-0.492-0.164-0.985-0.246-1.48 0-0.246-0.082-0.492-0.082-0.738-0.082-0.41-0.164-0.903-0.246-1.31 0-0.246-0.082-0.492-0.082-0.738 0-0.082 0-0.164-0.082-0.164-0.082-0.492-0.164-0.985-0.246-1.48-0.164-0.657-0.246-1.4-0.41-2.05-0.164-0.492-0.246-1.07-0.411-1.64-0.082-0.328-0.164-0.656-0.246-0.985-0.164-0.738-0.328-1.4-0.574-2.13 0-0.164-0.082-0.328-0.164-0.492 0-0.164-0.082-0.328-0.082-0.492-0.082-0.328-0.164-0.575-0.329-0.903-0.082-0.41-0.164-0.82-0.328-1.23-0.164-0.492-0.329-0.985-0.492-1.48l-0.246-0.738c-0.164-0.492-0.41-0.985-0.574-1.4-0.082-0.41-0.246-0.903-0.41-1.31-0.082-0.082-0.082-0.082-0.082-0.164-0.164-0.246-0.246-0.492-0.328-0.82-0.164-0.328-0.247-0.657-0.41-0.985-0.164-0.246-0.246-0.575-0.41-0.903-0.164-0.329-0.329-0.657-0.411-0.985-0.082-0.082-0.082-0.164-0.082-0.164-0.164-0.246-0.246-0.574-0.411-0.821-0.164-0.328-0.328-0.738-0.492-1.07-0.164-0.329-0.246-0.575-0.41-0.821-0.082-0.328-0.246-0.575-0.41-0.903-0.164-0.246-0.246-0.492-0.41-0.739 0-0.082-0.082-0.164-0.082-0.164-0.246-0.411-0.41-0.821-0.657-1.23-0.246-0.492-0.575-0.985-0.82-1.48-0.082-0.246-0.247-0.41-0.329-0.575-0.246-0.492-0.492-0.903-0.738-1.31-0.082 0-0.082-0.082-0.082-0.082-0.328-0.575-0.657-1.15-1.07-1.72-0.164-0.246-0.328-0.575-0.492-0.82-0.246-0.329-0.41-0.574-0.574-0.821v-0.082c-0.41-0.493-0.738-0.985-1.07-1.48-0.082-0.082-0.082-0.164-0.164-0.246-0.164-0.246-0.411-0.575-0.574-0.821-0.246-0.246-0.411-0.574-0.657-0.82 0-0.082-0.082-0.164-0.082-0.246-0.328-0.328-0.574-0.657-0.82-0.985 0-0.082-0.082-0.082-0.082-0.164-0.082 0-0.082-0.082-0.164-0.164 0 0 0-0.082-0.082-0.082-0.328-0.492-0.656-0.903-0.985-1.31l-1.23-1.48c-0.411-0.41-0.739-0.821-1.07-1.23-0.164-0.164-0.329-0.41-0.492-0.574l-0.164-0.164c-0.328-0.329-0.657-0.657-0.903-0.985-0.492-0.492-0.903-0.985-1.4-1.48-0.493-0.492-0.903-0.903-1.4-1.4l-1.4-1.4c-0.492-0.41-0.903-0.821-1.4-1.23 0 0 0-0.082-0.082-0.082l-0.082-0.082c-0.41-0.411-0.902-0.821-1.4-1.23-0.082 0-0.082-0.082-0.164-0.082-0.41-0.41-0.903-0.82-1.31-1.15-0.492-0.41-1.07-0.821-1.56-1.23-0.328-0.329-0.739-0.575-1.15-0.903-0.082-0.082-0.246-0.164-0.41-0.328-0.329-0.246-0.739-0.492-1.07-0.738l-0.164-0.164c-0.164-0.082-0.246-0.164-0.328-0.246-0.082 0-0.164-0.082-0.247-0.082-0.328-0.329-0.738-0.575-1.15-0.821l-0.246-0.246c-0.574-0.329-1.15-0.739-1.64-1.07-0.574-0.328-1.07-0.657-1.56-0.985-0.082 0-0.082 0-0.164-0.082-1.07-0.657-2.22-1.31-3.28-1.89-0.657-0.328-1.23-0.656-1.89-0.985-0.575-0.328-1.15-0.656-1.72-0.903-0.082-0.082-0.164-0.082-0.246-0.082-0.492-0.328-0.985-0.492-1.48-0.738-0.41-0.247-0.903-0.41-1.31-0.575v-0.082c-0.329-0.082-0.657-0.246-0.985-0.328-0.492-0.246-1.07-0.492-1.64-0.739-0.082-0.082-0.164-0.082-0.246-0.082-0.492-0.246-0.903-0.41-1.4-0.575h-0.082c-0.492-0.246-0.985-0.41-1.48-0.574-0.246-0.082-0.41-0.164-0.575-0.164-0.164-0.082-0.328-0.164-0.41-0.164-0.41-0.164-0.82-0.246-1.23-0.41-0.574-0.164-1.07-0.328-1.64-0.492-0.164-0.082-0.329-0.164-0.574-0.164-0.575-0.164-1.07-0.328-1.64-0.492-0.575-0.164-1.15-0.328-1.72-0.492-0.164 0-0.328-0.082-0.41-0.082-0.492-0.082-0.985-0.246-1.48-0.328-0.246-0.082-0.41-0.082-0.574-0.164-0.492-0.082-0.985-0.164-1.48-0.328h-0.246c-0.164 0-0.246-0.082-0.329-0.082-0.492-0.082-1.07-0.164-1.56-0.246-0.082-0.082-0.164-0.082-0.246-0.082-0.575-0.082-1.23-0.164-1.89-0.329h-0.082c-0.657-0.082-1.31-0.164-1.97-0.246h-0.082c-0.492-0.082-1.07-0.164-1.56-0.164-0.492-0.082-0.903-0.082-1.31-0.082-0.246-0.082-0.41-0.082-0.575-0.082-0.082 0-0.246-0.082-0.328-0.082h-0.903c-0.082-0.082-0.082-0.082-0.164-0.082-0.41 0-0.821 0-1.31-0.082h-2.05c-0.739-0.082-1.4-0.082-2.13-0.082-29.9 0-56.1 15.5-71.5 39-1.48 2.22-2.79 4.51-4.02 6.81-1.31 2.46-2.46 4.92-3.53 7.38-0.985 2.46-1.89 5.01-2.71 7.63-0.328 0.903-0.575 1.89-0.821 2.87-0.246 0.657-0.411 1.4-0.574 2.05-1.23 4.92-1.97 10-2.38 15.2v1.07h-55.2v-0.82c2.87-75.6 64.9-136 141-136 2.13 0 4.27 0.082 6.4 0.164 1.4 0.082 2.71 0.082 4.02 0.246 3.2 0.246 6.32 0.575 9.44 1.07 1.31 0.082 2.54 0.328 3.86 0.574 1.89 0.329 3.78 0.657 5.66 1.07 1.97 0.411 3.86 0.903 5.74 1.4 2.3 0.575 4.51 1.23 6.81 1.89 1.89 0.657 3.78 1.23 5.66 1.97 3.12 1.07 6.07 2.3 9.03 3.69 1.48 0.575 2.96 1.23 4.35 1.97 2.05 0.985 4.1 2.05 6.07 3.12 1.97 1.07 3.94 2.22 5.91 3.45 1.89 1.15 3.86 2.38 5.66 3.69 1.81 1.23 3.61 2.46 5.42 3.86 0.082 0 0.164 0.082 0.328 0.164 1.72 1.4 3.45 2.71 5.09 4.1 5.25 4.35 10.2 9.03 14.7 14.1 1.48 1.64 2.95 3.36 4.35 5.01 0.082 0.082 0.164 0.246 0.247 0.328 1.4 1.72 2.71 3.45 4.02 5.17 1.31 1.81 2.63 3.61 3.94 5.5 1.23 1.89 2.46 3.86 3.61 5.74 1.07 1.72 2.05 3.45 3.04 5.25 4.35 7.88 7.96 16.2 10.7 25 0.575 1.72 1.07 3.45 1.56 5.25 0.492 1.64 0.903 3.28 1.31 5.01 0.164 0.657 0.328 1.4 0.492 2.05 0.328 1.72 0.657 3.36 0.985 5.09 0.328 1.64 0.657 3.28 0.82 4.92 0.329 2.13 0.657 4.27 0.821 6.4 0.164 1.48 0.328 2.96 0.328 4.43 0.164 1.15 0.246 2.3 0.246 3.45 0.08 2.22 0.162 4.35 0.162 6.56z" fill="#999"/>
  <path d="m146 136c-0.014 0.22-0.028 0.447-0.041 0.675h-55.1c7e-3 -0.268 0.021-0.537 0.034-0.806 1.29-3.87 13.1-6.9 27.5-6.9 14.5 0 26.4 3.08 27.6 7 1e-3 0.014 8e-3 0.021 8e-3 0.035z" fill="#5d5d5d" opacity=".2"/>
  <path d="m463 202-0.329 6.98-13.3 284c0 10.8-8.78 19.6-19.7 19.6h-396c-10.9 0-19.7-8.78-19.7-19.6l-0.164-3.28-9.27-199-4.18-88.5c0-10.8 8.78-19.6 19.6-19.6h423c10.8 0 19.6 8.78 19.6 19.6z" fill="#4d4d4d"/>
  <path d="m293 317c0-34.3-27.8-62.1-62.1-62.1s-62.1 27.8-62.1 62.1c0 26.3 16.3 48.7 39.3 57.8-9.15 27.7-22.1 65.6-22.1 65.6h89.8s-12.9-38-22.1-65.6c23-9.1 39.3-31.6 39.3-57.8z" fill="#ececec"/>
  <path d="m463 202-0.329 6.98-13.3 284c0 10.8-8.78 19.6-19.7 19.6h-396c-10.9 0-19.7-8.78-19.7-19.6l-0.164-3.28-9.27-199-4.18-88.5c0-10.8 8.78-19.6 19.6-19.6h212v23.2h85.7v-63.5c0-2.22-0.082-4.43-0.246-6.65-0.082-0.657-0.082-1.4-0.164-2.05s-0.164-1.23-0.246-1.8v-0.492c-0.082-0.492-0.164-0.985-0.246-1.48 0-0.246-0.082-0.492-0.082-0.738-0.082-0.41-0.164-0.903-0.246-1.31 0-0.246-0.082-0.492-0.082-0.738 0-0.082 0-0.164-0.082-0.164-0.082-0.492-0.164-0.985-0.246-1.48-0.164-0.657-0.246-1.4-0.41-2.05-0.164-0.492-0.246-1.07-0.411-1.64-0.082-0.328-0.164-0.656-0.246-0.985-0.164-0.738-0.328-1.4-0.574-2.13 0-0.164-0.082-0.328-0.164-0.492 0-0.164-0.082-0.328-0.082-0.492-0.082-0.328-0.164-0.575-0.329-0.903-0.082-0.41-0.164-0.82-0.328-1.23-0.164-0.492-0.329-0.985-0.492-1.48l-0.246-0.738c-0.164-0.492-0.41-0.985-0.574-1.4-0.082-0.41-0.246-0.903-0.41-1.31-0.082-0.082-0.082-0.082-0.082-0.164-0.164-0.246-0.246-0.492-0.328-0.82-0.164-0.328-0.247-0.657-0.41-0.985-0.164-0.246-0.246-0.575-0.41-0.903-0.164-0.329-0.329-0.657-0.411-0.985-0.082-0.082-0.082-0.164-0.082-0.164-0.164-0.246-0.246-0.574-0.411-0.821-0.164-0.328-0.328-0.738-0.492-1.07-0.164-0.329-0.246-0.575-0.41-0.821-0.082-0.328-0.246-0.575-0.41-0.903-0.164-0.246-0.246-0.492-0.41-0.739 0-0.082-0.082-0.164-0.082-0.164-0.246-0.411-0.41-0.821-0.657-1.23-0.246-0.492-0.575-0.985-0.82-1.48-0.082-0.246-0.247-0.41-0.329-0.575-0.246-0.492-0.492-0.903-0.738-1.31-0.082 0-0.082-0.082-0.082-0.082-0.328-0.575-0.657-1.15-1.07-1.72-0.164-0.246-0.328-0.575-0.492-0.82-0.246-0.329-0.41-0.574-0.574-0.821v-0.082c-0.41-0.493-0.738-0.985-1.07-1.48-0.082-0.082-0.082-0.164-0.164-0.246-0.164-0.246-0.411-0.575-0.574-0.821-0.246-0.246-0.411-0.574-0.657-0.82 0-0.082-0.082-0.164-0.082-0.246-0.328-0.328-0.574-0.657-0.82-0.985 0-0.082-0.082-0.082-0.082-0.164-0.082 0-0.082-0.082-0.164-0.164 0 0 0-0.082-0.082-0.082-0.328-0.492-0.656-0.903-0.985-1.31l-1.23-1.48c-0.411-0.41-0.739-0.821-1.07-1.23-0.164-0.164-0.329-0.41-0.492-0.574l-0.164-0.164c-0.328-0.329-0.657-0.657-0.903-0.985-0.492-0.492-0.903-0.985-1.4-1.48-0.493-0.492-0.903-0.903-1.4-1.4l-1.4-1.4c-0.492-0.41-0.903-0.821-1.4-1.23 0 0 0-0.082-0.082-0.082l-0.082-0.082c-0.41-0.411-0.902-0.821-1.4-1.23-0.082 0-0.082-0.082-0.164-0.082-0.41-0.41-0.903-0.82-1.31-1.15-0.492-0.41-1.07-0.821-1.56-1.23-0.328-0.329-0.739-0.575-1.15-0.903-0.082-0.082-0.246-0.164-0.41-0.328-0.329-0.246-0.739-0.492-1.07-0.738l-0.164-0.164c-0.164-0.082-0.246-0.164-0.328-0.246-0.082 0-0.164-0.082-0.247-0.082-0.328-0.329-0.738-0.575-1.15-0.821l-0.246-0.246c-0.574-0.329-1.15-0.739-1.64-1.07-0.574-0.328-1.07-0.657-1.56-0.985-0.082 0-0.082 0-0.164-0.082-1.07-0.657-2.22-1.31-3.28-1.89-0.657-0.328-1.23-0.656-1.89-0.985-0.575-0.328-1.15-0.656-1.72-0.903-0.082-0.082-0.164-0.082-0.246-0.082-0.492-0.328-0.985-0.492-1.48-0.738-0.41-0.247-0.903-0.41-1.31-0.575v-0.082c-0.329-0.082-0.657-0.246-0.985-0.328-0.492-0.246-1.07-0.492-1.64-0.739-0.082-0.082-0.164-0.082-0.246-0.082-0.492-0.246-0.903-0.41-1.4-0.575h-0.082c-0.492-0.246-0.985-0.41-1.48-0.574-0.246-0.082-0.41-0.164-0.575-0.164-0.164-0.082-0.328-0.164-0.41-0.164-0.41-0.164-0.82-0.246-1.23-0.41-0.574-0.164-1.07-0.328-1.64-0.492-0.164-0.082-0.329-0.164-0.574-0.164-0.575-0.164-1.07-0.328-1.64-0.492-0.575-0.164-1.15-0.328-1.72-0.492-0.164 0-0.328-0.082-0.41-0.082-0.492-0.082-0.985-0.246-1.48-0.328-0.246-0.082-0.41-0.082-0.574-0.164-0.492-0.082-0.985-0.164-1.48-0.328h-0.246c-0.164 0-0.246-0.082-0.329-0.082-0.492-0.082-1.07-0.164-1.56-0.246-0.082-0.082-0.164-0.082-0.246-0.082-0.575-0.082-1.23-0.164-1.89-0.329h-0.082c-0.657-0.082-1.31-0.164-1.97-0.246h-0.082c-0.492-0.082-1.07-0.164-1.56-0.164-0.492-0.082-0.903-0.082-1.31-0.082-0.246-0.082-0.41-0.082-0.575-0.082-0.082 0-0.246-0.082-0.328-0.082h-0.903c-0.082-0.082-0.082-0.082-0.164-0.082-0.41 0-0.821 0-1.31-0.082h-2.05c-0.739-0.082-1.4-0.082-2.13-0.082-29.9 0-56.1 15.5-71.5 39-1.48 2.22-2.79 4.51-4.02 6.81-1.31 2.46-2.46 4.92-3.53 7.38-0.985 2.46-1.89 5.01-2.71 7.63-0.246 0.903-0.575 1.89-0.821 2.87-0.246 0.657-0.411 1.4-0.574 2.05-1.23 4.92-1.97 10-2.38 15.2v1.07h-55.2v-0.82c2.87-75.6 64.9-136 141-136 2.13 0 4.27 0.082 6.4 0.164 1.4 0.082 2.71 0.082 4.02 0.246 3.2 0.246 6.32 0.575 9.44 1.07 1.31 0.082 2.54 0.328 3.86 0.574 1.89 0.329 3.78 0.657 5.66 1.07 1.97 0.411 3.86 0.903 5.74 1.4 2.3 0.575 4.51 1.23 6.81 1.89 1.89 0.657 3.78 1.23 5.66 1.97 3.12 1.07 6.07 2.3 9.03 3.69 1.48 0.575 2.96 1.23 4.35 1.97 2.05 0.985 4.1 2.05 6.07 3.12 1.97 1.07 3.94 2.22 5.91 3.45 1.89 1.15 3.86 2.38 5.66 3.69 1.81 1.23 3.61 2.46 5.42 3.86 0.082 0 0.164 0.082 0.328 0.164 1.72 1.4 3.45 2.71 5.09 4.1 5.25 4.35 10.2 9.03 14.7 14.1 1.48 1.64 2.95 3.36 4.35 5.01 0.082 0.082 0.164 0.246 0.247 0.328 1.4 1.72 2.71 3.45 4.02 5.17 1.31 1.81 2.63 3.61 3.94 5.5 1.23 1.89 2.46 3.86 3.61 5.74 1.07 1.72 2.05 3.45 3.04 5.25 4.35 7.88 7.96 16.2 10.7 25 0.575 1.72 1.07 3.45 1.56 5.25 0.492 1.64 0.903 3.28 1.31 5.01 0.164 0.657 0.328 1.4 0.492 2.05 0.328 1.72 0.657 3.36 0.985 5.09 0.328 1.64 0.657 3.28 0.82 4.92 0.329 2.13 0.657 4.27 0.821 6.4 0.164 1.48 0.328 2.96 0.328 4.43 0.164 1.15 0.246 2.3 0.246 3.45 0.082 2.22 0.164 4.35 0.164 6.56v40.3h71c10.8 0 19.6 8.78 19.6 19.6z" fill="none"/>
  <path d="m239 55.5-7.47 7.47v-7.88c0.738 0 1.4 0 2.13 0.082h2.05c0.492 0.082 0.903 0.082 1.31 0.082 0.082 0 0.082 0 0.164 0.082h0.903c0.082 0 0.246 0.082 0.328 0.082 0.164 0 0.328 0 0.574 0.082z" fill="none"/>
  <path d="m463 202-0.329 6.98-13.3 284c0 10.8-8.78 19.6-19.7 19.6h-198v-330h85.7v-40.3c0-2.22-0.082-4.43-0.246-6.65-0.082-0.657-0.082-1.4-0.164-2.05s-0.164-1.23-0.246-1.8v-0.492c-0.082-0.492-0.164-0.985-0.246-1.48 0-0.246-0.082-0.492-0.082-0.738-0.082-0.41-0.164-0.903-0.246-1.31 0-0.246-0.082-0.492-0.082-0.738 0-0.082 0-0.164-0.082-0.164-0.082-0.492-0.164-0.985-0.246-1.48-0.164-0.657-0.246-1.4-0.41-2.05-0.164-0.492-0.246-1.07-0.411-1.64-0.082-0.328-0.164-0.656-0.246-0.985-0.164-0.738-0.328-1.4-0.574-2.13 0-0.164-0.082-0.328-0.164-0.492 0-0.164-0.082-0.328-0.082-0.492-0.082-0.328-0.164-0.575-0.329-0.903-0.082-0.41-0.164-0.82-0.328-1.23-0.164-0.492-0.329-0.985-0.492-1.48l-0.246-0.738c-0.164-0.492-0.41-0.985-0.574-1.4-0.082-0.41-0.246-0.903-0.41-1.31-0.082-0.082-0.082-0.082-0.082-0.164-0.164-0.246-0.246-0.492-0.328-0.82-0.164-0.328-0.247-0.657-0.41-0.985-0.164-0.246-0.246-0.575-0.41-0.903-0.164-0.329-0.329-0.657-0.411-0.985-0.082-0.082-0.082-0.164-0.082-0.164-0.164-0.246-0.246-0.574-0.411-0.821-0.164-0.328-0.328-0.738-0.492-1.07-0.164-0.329-0.246-0.575-0.41-0.821-0.082-0.328-0.246-0.575-0.41-0.903-0.164-0.246-0.246-0.492-0.41-0.739 0-0.082-0.082-0.164-0.082-0.164-0.246-0.411-0.41-0.821-0.657-1.23-0.246-0.492-0.575-0.985-0.82-1.48-0.082-0.246-0.247-0.41-0.329-0.575-0.246-0.492-0.492-0.903-0.738-1.31-0.082 0-0.082-0.082-0.082-0.082-0.328-0.575-0.657-1.15-1.07-1.72-0.164-0.246-0.328-0.575-0.492-0.82-0.246-0.329-0.41-0.574-0.574-0.821v-0.082c-0.41-0.493-0.738-0.985-1.07-1.48-0.082-0.082-0.082-0.164-0.164-0.246-0.164-0.246-0.411-0.575-0.574-0.821-0.246-0.246-0.411-0.574-0.657-0.82 0-0.082-0.082-0.164-0.082-0.246-0.328-0.328-0.574-0.657-0.82-0.985 0-0.082-0.082-0.082-0.082-0.164-0.082 0-0.082-0.082-0.164-0.164 0 0 0-0.082-0.082-0.082-0.328-0.492-0.656-0.903-0.985-1.31l-1.23-1.48c-0.411-0.41-0.739-0.821-1.07-1.23-0.164-0.164-0.329-0.41-0.492-0.574l-0.164-0.164c-0.328-0.329-0.657-0.657-0.903-0.985-0.492-0.492-0.903-0.985-1.4-1.48-0.493-0.492-0.903-0.903-1.4-1.4l-1.4-1.4c-0.492-0.41-0.903-0.821-1.4-1.23 0 0 0-0.082-0.082-0.082l-0.082-0.082c-0.41-0.411-0.902-0.821-1.4-1.23-0.082 0-0.082-0.082-0.164-0.082-0.41-0.41-0.903-0.82-1.31-1.15-0.492-0.41-1.07-0.821-1.56-1.23-0.328-0.329-0.739-0.575-1.15-0.903-0.082-0.082-0.246-0.164-0.41-0.328-0.329-0.246-0.739-0.492-1.07-0.738l-0.164-0.164c-0.164-0.082-0.246-0.164-0.328-0.246-0.082 0-0.164-0.082-0.247-0.082-0.328-0.329-0.738-0.575-1.15-0.821l-0.246-0.246c-0.574-0.329-1.15-0.739-1.64-1.07-0.574-0.328-1.07-0.657-1.56-0.985-0.082 0-0.082 0-0.164-0.082-1.07-0.657-2.22-1.31-3.28-1.89-0.657-0.328-1.23-0.656-1.89-0.985-0.575-0.328-1.15-0.656-1.72-0.903-0.082-0.082-0.164-0.082-0.246-0.082-0.492-0.328-0.985-0.492-1.48-0.738-0.41-0.247-0.903-0.41-1.31-0.575v-0.082c-0.329-0.082-0.657-0.246-0.985-0.328-0.492-0.246-1.07-0.492-1.64-0.739-0.082-0.082-0.164-0.082-0.246-0.082-0.492-0.246-0.903-0.41-1.4-0.575h-0.082c-0.492-0.246-0.985-0.41-1.48-0.574-0.246-0.082-0.41-0.164-0.575-0.164-0.164-0.082-0.328-0.164-0.41-0.164-0.41-0.164-0.82-0.246-1.23-0.41-0.574-0.164-1.07-0.328-1.64-0.492-0.164-0.082-0.329-0.164-0.574-0.164-0.575-0.164-1.07-0.328-1.64-0.492-0.575-0.164-1.15-0.328-1.72-0.492-0.164 0-0.328-0.082-0.41-0.082-0.492-0.082-0.985-0.246-1.48-0.328-0.246-0.082-0.41-0.082-0.574-0.164-0.492-0.082-0.985-0.164-1.48-0.328h-0.246c-0.164 0-0.246-0.082-0.329-0.082-0.492-0.082-1.07-0.164-1.56-0.246-0.082-0.082-0.164-0.082-0.246-0.082-0.575-0.082-1.23-0.164-1.89-0.329h-0.082c-0.657-0.082-1.31-0.164-1.97-0.246h-0.082c-0.492-0.082-1.07-0.164-1.56-0.164-0.492-0.082-0.903-0.082-1.31-0.082-0.246-0.082-0.41-0.082-0.575-0.082-0.082 0-0.246-0.082-0.328-0.082h-0.903c-0.082-0.082-0.082-0.082-0.164-0.082-0.41 0-0.821 0-1.31-0.082h-2.05c-0.739-0.082-1.4-0.082-2.13-0.082v-55.1c2.13 0 4.27 0.082 6.4 0.164 1.4 0.082 2.71 0.082 4.02 0.246 3.2 0.246 6.32 0.575 9.44 1.07 1.31 0.082 2.54 0.328 3.86 0.574 1.89 0.329 3.78 0.657 5.66 1.07 1.97 0.411 3.86 0.903 5.74 1.4 2.3 0.575 4.51 1.23 6.81 1.89 1.89 0.657 3.78 1.23 5.66 1.97 3.12 1.07 6.07 2.3 9.03 3.69 1.48 0.575 2.96 1.23 4.35 1.97 2.05 0.985 4.1 2.05 6.07 3.12 1.97 1.07 3.94 2.22 5.91 3.45 1.89 1.15 3.86 2.38 5.66 3.69 1.81 1.23 3.61 2.46 5.42 3.86 0.082 0 0.164 0.082 0.328 0.164 1.72 1.4 3.45 2.71 5.09 4.1 5.25 4.35 10.2 9.03 14.7 14.1 1.48 1.64 2.95 3.36 4.35 5.01 0.082 0.082 0.164 0.246 0.247 0.328 1.4 1.72 2.71 3.45 4.02 5.17 1.31 1.81 2.63 3.61 3.94 5.5 1.23 1.89 2.46 3.86 3.61 5.74 1.07 1.72 2.05 3.45 3.04 5.25 4.35 7.88 7.96 16.2 10.7 25 0.575 1.72 1.07 3.45 1.56 5.25 0.492 1.64 0.903 3.28 1.31 5.01 0.164 0.657 0.328 1.4 0.492 2.05 0.328 1.72 0.657 3.36 0.985 5.09 0.328 1.64 0.657 3.28 0.82 4.92 0.329 2.13 0.657 4.27 0.821 6.4 0.164 1.48 0.328 2.96 0.328 4.43 0.164 1.15 0.246 2.3 0.246 3.45 0.082 2.22 0.164 4.35 0.164 6.56v40.3h71c10.8 0 19.6 8.78 19.6 19.6z" fill="#040000" opacity=".08"/>
 </g>
</svg>
