<?xml version="1.0" encoding="UTF-8"?>
<svg version="1.1" viewBox="0 0 128 128" xmlns="http://www.w3.org/2000/svg">
 <path d="M119.416 95.983c-17.67 30.593-56.805 41.075-87.41 23.412C1.4 101.733-9.088 62.612 8.582 32.019 26.253 1.422 65.39-9.06 95.996 8.603c30.604 17.663 41.091 56.784 23.421 87.379" fill="#fd5"/>
 <path d="m110.22 19.75-60.924 106.51c9.6843 2.2928 19.636 2.2446 29.086 0.0664l46.689-81.455c-2.9085-9.2813-7.9339-17.911-14.852-25.121z" fill="#999"/>
 <path d="m123.55 41.986-49.141 85.078c3.6364-0.54313 7.2195-1.3914 10.707-2.5449l41.885-72.52c-0.87304-3.4233-2.0247-6.773-3.4512-10.014z" fill-opacity=".2"/>
 <path d="m107.92 17.455-62.561 107.71c2.6802 0.81908 5.3872 1.4638 8.1094 1.918l60.135-103.53c-1.7449-2.1395-3.6426-4.1742-5.6836-6.0957zm14.637 20.721-51.631 89.391c3.5207-0.38535 7.0001-1.0618 10.402-2.0176l44.68-77.359c-0.87304-3.4233-2.0247-6.773-3.4512-10.014z" fill="#fff"/>
 <path d="m32 32.148v87.273a64 64 0 0 0 16 6.53v-93.803zm48 0v93.84a64 64 0 0 0 16-6.582v-87.258z" fill="#666"/>
 <path d="M24 44.148a8.025 8.025 0 0 0-8.043 8.043v31.914A8.025 8.025 0 0 0 24 92.148h79.914a8.025 8.025 0 0 0 8.043-8.043V52.191a8.025 8.025 0 0 0-8.043-8.043z" fill-opacity=".2"/>
 <path transform="translate(.008 .068)" d="M24.036 40.08h79.913a8.026 8.026 0 0 1 8.043 8.043v31.913a8.026 8.026 0 0 1-8.043 8.044H24.036a8.026 8.026 0 0 1-8.043-8.044V48.123a8.026 8.026 0 0 1 8.043-8.043z" fill="#fff"/>
 <path transform="translate(.008 .068)" d="M23.992 40.08a7.976 7.976 0 0 0-7.795 6.213L44.943 88.08h14.143l-32.332-48zm16.619 0 32.332 48h14.143l-32.332-48zm28 0 32.332 48h3.049a7.973 7.973 0 0 0 7.705-5.87L82.754 40.08zm28 0 15.381 22v-14c0-4.432-3.568-8-8-8zm-80.619 26v14c0 4.432 3.568 8 8 8h7.094z" fill="#c84747"/>
 <path transform="translate(.008 .068)" d="M24.03 40.08h79.924a8.02 8.02 0 0 1 8.038 8.038v31.924a8.02 8.02 0 0 1-8.038 8.038H24.03a8.02 8.02 0 0 1-8.038-8.038V48.118a8.02 8.02 0 0 1 8.038-8.038z" fill="none" stroke="#555" stroke-linecap="round" stroke-linejoin="round" stroke-width="4"/>
</svg>
