<?xml version="1.0" encoding="UTF-8" standalone="no"?>
<svg
   version="1.1"
   viewBox="0 0 128 128"
   id="svg29009"
   sodipodi:docname="bbq_fuel.svg"
   inkscape:version="1.1.1 (3bf5ae0d25, 2021-09-20)"
   xmlns:inkscape="http://www.inkscape.org/namespaces/inkscape"
   xmlns:sodipodi="http://sodipodi.sourceforge.net/DTD/sodipodi-0.dtd"
   xmlns="http://www.w3.org/2000/svg"
   xmlns:svg="http://www.w3.org/2000/svg">
  <defs
     id="defs29013" />
  <sodipodi:namedview
     id="namedview29011"
     pagecolor="#ffffff"
     bordercolor="#666666"
     borderopacity="1.0"
     inkscape:pageshadow="2"
     inkscape:pageopacity="0.0"
     inkscape:pagecheckerboard="0"
     showgrid="false"
     inkscape:zoom="2.298097"
     inkscape:cx="-58.961827"
     inkscape:cy="0.21757132"
     inkscape:window-width="1920"
     inkscape:window-height="1017"
     inkscape:window-x="-8"
     inkscape:window-y="-8"
     inkscape:window-maximized="1"
     inkscape:current-layer="svg29009" />
  <path
     d="m128 64c0 35.346-28.654 64-64 64-35.346 0-64-28.654-64-64 0-35.346 28.654-64 64-64 35.346 0 64 28.654 64 64"
     fill="#9bbe55"
     stroke-width=".2"
     id="path28985" />
  <g
     id="g30131"
     transform="matrix(0.87268593,0,0,0.87268593,8.1480992,7.275415)">
    <path
       d="m 47.082421,24.525639 c -5.639194,2.819597 -11.278388,2.819597 -11.278388,8.458792 0,5.639192 8.458792,8.45879 8.458792,11.278388 0,2.819597 -3.759459,5.639195 -5.639194,8.45879 8.45879,-2.819595 11.278387,-2.819595 11.278387,-8.45879 0,-5.639196 -5.639193,-8.458791 -8.458791,-11.278388 0,-2.819598 4.699332,-4.699327 5.639194,-8.458792 z m 21.146978,0 c -5.639195,2.819597 -11.278388,2.819597 -11.278388,8.458792 0,5.639192 8.458791,8.45879 8.458791,11.278388 0,2.819597 -3.759458,5.639195 -5.639194,8.45879 8.458791,-2.819595 11.278388,-2.819595 11.278388,-8.45879 0,-5.639196 -5.639194,-8.458791 -8.458792,-11.278388 0,-2.819598 4.699333,-4.699327 5.639195,-8.458792 z m 21.146976,0 c -5.639191,2.819597 -11.278382,2.819597 -11.278382,8.458792 0,5.639192 8.45879,8.45879 8.45879,11.278388 0,2.819597 -3.75946,5.639195 -5.639199,8.45879 8.458791,-2.819595 11.27839,-2.819595 11.27839,-8.45879 0,-5.639196 -5.639191,-8.458791 -8.45879,-11.278388 0,-2.819598 4.69933,-4.699327 5.639191,-8.458792 z M 30.164839,58.360803 v 45.113557 h 5.639194 V 92.195968 h 56.391941 v 11.278392 h 5.639187 V 58.360803 c -22.556768,0 -45.113546,0 -67.670322,0 z m 5.639194,5.639194 H 92.195974 V 86.556773 H 35.804033 Z m 11.278388,5.639196 c -3.114436,0 -5.639194,2.524756 -5.639194,5.639192 0,3.114444 2.524758,5.639195 5.639194,5.639195 3.114442,0 5.639194,-2.524752 5.639194,-5.639195 0,-3.114437 -2.524752,-5.639193 -5.639194,-5.639192 z m 16.917583,0 c -3.114437,0 -5.639195,2.524756 -5.639195,5.639192 0,3.114444 2.524758,5.639195 5.639195,5.639195 3.114442,0 5.639193,-2.524752 5.639193,-5.639195 0,-3.114437 -2.524751,-5.639193 -5.639193,-5.639192 z m 16.91758,0 c -3.114437,0 -5.639191,2.524756 -5.639191,5.639192 0,3.114444 2.524754,5.639195 5.639191,5.639195 3.114445,0 5.639199,-2.524752 5.639199,-5.639195 0,-3.114437 -2.524754,-5.639193 -5.639199,-5.639192 z"
       id="path29232"
       style="stroke-width:5.6392" />
    <path
       d="m 47.082423,26.525639 c -5.639194,2.819597 -11.278388,2.819597 -11.278388,8.458792 0,5.639192 8.458792,8.45879 8.458792,11.278388 0,2.819597 -3.759459,5.639195 -5.639194,8.45879 8.45879,-2.819595 11.278387,-2.819595 11.278387,-8.45879 0,-5.639196 -5.639193,-8.458791 -8.458791,-11.278388 0,-2.819598 4.699332,-4.699327 5.639194,-8.458792 z m 21.146981,0 c -5.639198,2.819597 -11.278391,2.819597 -11.278391,8.458792 0,5.639192 8.458791,8.45879 8.458791,11.278388 0,2.819597 -3.759458,5.639195 -5.639194,8.45879 8.458794,-2.819595 11.278384,-2.819595 11.278384,-8.45879 0,-5.639196 -5.63919,-8.458791 -8.458788,-11.278388 0,-2.819598 4.699333,-4.699327 5.639198,-8.458792 z m 21.14697,0 c -5.63919,2.819597 -11.27838,2.819597 -11.27838,8.458792 0,5.639192 8.45879,8.45879 8.45879,11.278388 0,2.819597 -3.75946,5.639195 -5.6392,8.45879 8.45879,-2.819595 11.27839,-2.819595 11.27839,-8.45879 0,-5.639196 -5.63919,-8.458791 -8.45879,-11.278388 0,-2.819598 4.69933,-4.699327 5.63919,-8.458792 z M 30.164841,60.360803 v 45.113557 h 5.639194 V 94.195968 h 56.391939 v 11.278392 h 5.63919 V 60.360803 c -22.55677,0 -45.113547,0 -67.670323,0 z m 5.639194,5.639194 H 92.195974 V 88.556778 H 35.804035 Z m 11.278388,5.639196 c -3.114436,0 -5.639194,2.524755 -5.639194,5.639195 0,3.11444 2.524758,5.63919 5.639194,5.63919 3.114442,0 5.639194,-2.52475 5.639194,-5.63919 0,-3.11444 -2.524752,-5.639196 -5.639194,-5.639195 z m 16.917583,0 c -3.114437,0 -5.639195,2.524755 -5.639195,5.639195 0,3.11444 2.524758,5.63919 5.639195,5.63919 3.114442,0 5.639198,-2.52475 5.639198,-5.63919 0,-3.11444 -2.524756,-5.639196 -5.639198,-5.639195 z m 16.917578,0 c -3.11443,0 -5.63919,2.524755 -5.63919,5.639195 0,3.11444 2.52476,5.63919 5.63919,5.63919 3.11445,0 5.6392,-2.52475 5.6392,-5.63919 0,-3.11444 -2.52475,-5.639196 -5.6392,-5.639195 z"
       id="path29232-7"
       style="opacity:0.403101;stroke-width:5.6392" />
  </g>
</svg>
