<?xml version="1.0" encoding="UTF-8"?>
<svg version="1.1" viewBox="0 0 128 128" xmlns="http://www.w3.org/2000/svg">
 <path d="m128 64c0 35.346-28.654 64-64 64s-64-28.654-64-64 28.654-64 64-64 64 28.654 64 64" fill="#bdd6e1" stroke-width=".2"/>
 <path d="m0.68359 54.676c-0.4446 3.0448-0.68359 6.156-0.68359 9.3242 0 35.346 28.654 64 64 64s64-28.654 64-64c0-3.1682-0.23899-6.2794-0.68359-9.3242-41.878-3.8342-84.099-3.7182-126.63 0z" fill="#529add" stroke-width=".2"/>
 <path d="m105.72 71.7c-17.877 0-36.858 4.857-49.658 6.4023-18.76 2.2075-22.51-5.2993-40.828-3.0918-3.9032 0.40678-8.8244 1.9238-13.484 3.6758 6.6383 28.266 31.996 49.318 62.287 49.318 31.867 0 58.285-23.295 63.178-53.783-1.4837-0.34829-11.107-2.5215-21.494-2.5215z" fill="#f4d4a5" stroke-width=".2"/>
 <path d="m103.4 82.254-1.6816 1.6816 1.6816 1.6816 1.6816-1.6816zm-60.916 0.26562-2.8242 2.8262 2.8242 2.8242 2.8242-2.8242zm46.316 4.8457-1.6816 1.6816 1.6816 1.6816 1.6816-1.6816zm-21.713 0.06055-1.6816 1.6816 1.6816 1.6816 1.6816-1.6816zm11.518 0.19141-3.3613 3.3633 3.3613 3.3633 3.3633-3.3633zm-44.68 1.8203-1.4121 1.4141 1.4121 1.4121 1.4121-1.4121zm62.697 1.3555-1.6797 1.6816 1.6797 1.6816 1.6816-1.6816zm-70.391 0.31445-2.8262 2.8262 2.8262 2.8242 2.8242-2.8242zm80.562 1.5977-3.3633 3.3633 3.3633 3.3633 3.3633-3.3633zm-22.787 1.3652-1.6816 1.6816 1.6816 1.6816 1.6816-1.6816zm-66.643 1.0508-1.4121 1.4121 1.4121 1.4121 1.4121-1.4121zm25.732 0.12695-1.4121 1.4121 1.4121 1.4121 1.4121-1.4121zm-9.1738 1.541-2.8242 2.8262 2.8242 2.8262 2.8242-2.8262zm-9.1191 4.0898-1.4121 1.4121 1.4121 1.4141 1.4121-1.4141zm36.506 0.64843-4.377 4.377 4.377 4.377 4.375-4.377zm-4.4199 8.5059-2.1875 2.1895 2.1875 2.1875 2.1895-2.1875zm10.99 1.3535-2.1895 2.1875 2.1895 2.1894 2.1875-2.1894zm-12.291 7.5469-2.1895 2.1875 2.1895 2.1895 2.1875-2.1895z" fill="#ffebd2" stroke-width="1.4542"/>
 <path d="m121.8 85.515c0 2.243-4.8586 1.8696-10.465 1.1206-2.9899 4.4859-6.7273 6.3552-8.9697 6.3552-1.1212 0-2.2425-4.4859-1.8687-8.5981-5.6061-1.4961-9.7172-3.7383-9.3435-5.2336 1.1214-9.3456 31.02 1.8696 30.647 6.3552" fill="#a38982" stroke-width="1.9048"/>
 <path d="m0.0859 64c-0.091 0.99416 0.054 1.9714 0.01 2.9782 10.654-0.0575 21.309-2.3106 31.963 0 12.864 3.192 21.829 0.75141 31.963 0 6.6804-1.1208 12.836-2.3898 31.963 0 10.767 0.33751 21.802 1.4788 31.963 0-0.045-1.0068 0.056-2.0058-0.035-3-10.865 1.4736-21.471 0.34625-32.032 0-10.372-0.13969-14.749-3.6683-31.858 0-11.584 2.3136-21.905 1.5988-31.858 0-9.5609-1.3232-21.346-0.11672-32.076 0.0218z" fill="#3581c8" stroke-width=".2"/>
 <path d="m103.11 59.347c1.121-0.37352 4.8585 2.9906 8.2222 7.8503 5.9798-1.4961 10.465-2.243 10.465-1.1206 0.3735 1.4961-1.1214 5.6073-4.4849 10.841 2.9899 4.8598 4.8586 8.5981 3.7374 9.3458-1.495 1.4961-5.2323 0.37351-10.838-1.1226-3.7374 4.1122-6.3536 7.1028-8.596 6.7289-1.1212 0-1.495-4.4859-1.8687-10.093-5.6061-2.243-8.9697-4.8599-9.3434-6.7289-0.374-1.1206 4.1111-2.9906 9.7171-4.8598 0.7475-5.6073 1.8687-10.467 2.99-10.841" fill="#f27a52" stroke-width="1.9048"/>
 <path d="m1.5957 49.676c-0.4515 1.5598-1.2157 7.231-1.3739 9 10.478-0.6516 21.35-1.8485 32.14 0 10.337 1.3338 21.024 0.56807 31.679 0 10.397-0.81388 20.954-0.82799 31.679 0 11.127 1.7029 21.508 0.0585 32.048 0-0.062-1.1499-0.7667-6.9032-1.2815-9-2.6234 0.53074-8.3967 0.84671-31.223 0-10.382-0.10132-20.429-1.5452-31.223 0-11.731 1.3235-22.72 1.9048-31.223 0-10.893-1.4559-21.258-1.3293-31.223 0z" fill="#3581c8" stroke-width=".2"/>
</svg>
