<svg xmlns="http://www.w3.org/2000/svg" xml:space="preserve" viewBox="0 0 128 128"><path fill="#fd5" d="M119.42 95.995c-17.67 30.605-56.806 41.092-87.411 23.422S-9.083 62.611 8.587 32.006 65.393-9.086 95.998 8.584 137.09 65.39 119.42 95.995" style="fill:#00c7ff;fill-opacity:1"/><path fill="none" stroke="#000" stroke-linecap="round" stroke-linejoin="round" stroke-opacity=".2" stroke-width="8" d="M52.325 76.111a19.107 19.107 0 0 1-19.107 19.107 19.107 19.107 0 0 1-19.107-19.107 19.107 19.107 0 0 1 19.107-19.107 19.107 19.107 0 0 1 19.107 19.107m62.265-.004a19.107 19.107 0 0 1-19.107 19.108 19.107 19.107 0 0 1-19.107-19.107A19.107 19.107 0 0 1 95.483 57a19.107 19.107 0 0 1 19.107 19.107M43.841 46.679 67.99 76.003h27.599L76.615 46.68zm32.773-6.9 8.407-.017M67.99 76.003l8.624-36.223M33.492 76.003 47.87 33.199h13.8" transform="matrix(.63099 0 0 .65362 36.282 44.85)"/><g fill="none" stroke-linecap="round" stroke-linejoin="round" style="fill-rule:nonzero"><path stroke="#555" stroke-width="2.312" d="M-202.694 418.368a5.513 5.53 0 0 1-5.514 5.531 5.513 5.53 0 0 1-5.513-5.53 5.513 5.53 0 0 1 5.513-5.531 5.513 5.53 0 0 1 5.514 5.53" transform="matrix(2.19132 0 0 2.28033 513.526 -861.31)"/><path stroke="#ffe420" stroke-width="1.734" d="m-198.175 418.338 1.735-7.31.753-3.175" style="stroke:#1dc011;stroke-opacity:1" transform="matrix(2.19132 0 0 2.28033 513.526 -861.31)"/><path stroke="#555" stroke-width="1.734" d="m-197.065 407.778 3.803.07" style="fill:#28220b" transform="matrix(2.19132 0 0 2.28033 513.526 -861.31)"/><path stroke="#555" stroke-width="2.312" d="M-184.727 418.368a5.513 5.53 0 0 1-5.513 5.531 5.513 5.53 0 0 1-5.513-5.53 5.513 5.53 0 0 1 5.513-5.531 5.513 5.53 0 0 1 5.513 5.53" transform="matrix(2.19132 0 0 2.28033 513.526 -861.31)"/><path stroke="#ffe420" stroke-width="1.734" d="m-205.143 409.85 6.968 8.488h7.963l-5.475-8.488z" style="stroke:#1cc011;stroke-opacity:1" transform="matrix(2.19132 0 0 2.28033 513.526 -861.31)"/><path stroke="#ffe420" stroke-width="1.734" d="m-208.13 418.338 4.149-12.39 3.743-.027" style="stroke:#1dc111;stroke-opacity:1" transform="matrix(2.19132 0 0 2.28033 513.526 -861.31)"/></g><g fill="#1c274c" style="fill:#000;fill-opacity:.27"><path d="M17 12a5 5 0 1 1-10 0 5 5 0 0 1 10 0" style="fill:#000;fill-opacity:.27" transform="translate(16.207 16.884)scale(2.09302)"/><path fill-rule="evenodd" d="M12 1.25a.75.75 0 0 1 .75.75v2a.75.75 0 0 1-1.5 0V2a.75.75 0 0 1 .75-.75M3.669 3.716a.75.75 0 0 1 1.06-.047L6.95 5.7a.75.75 0 1 1-1.012 1.107L3.716 4.776a.75.75 0 0 1-.047-1.06m16.662 0a.75.75 0 0 1-.047 1.06l-2.222 2.031A.75.75 0 0 1 17.05 5.7l2.222-2.031a.75.75 0 0 1 1.06.047M1.25 12a.75.75 0 0 1 .75-.75h2a.75.75 0 0 1 0 1.5H2a.75.75 0 0 1-.75-.75m18 0a.75.75 0 0 1 .75-.75h2a.75.75 0 0 1 0 1.5h-2a.75.75 0 0 1-.75-.75m-2.224 5.025a.75.75 0 0 1 1.06 0l2.222 2.222a.75.75 0 0 1-1.06 1.061l-2.222-2.222a.75.75 0 0 1 0-1.06m-10.051 0a.75.75 0 0 1 0 1.061l-2.223 2.222a.75.75 0 0 1-1.06-1.06l2.222-2.223a.75.75 0 0 1 1.06 0M12 19.25a.75.75 0 0 1 .75.75v2a.75.75 0 0 1-1.5 0v-2a.75.75 0 0 1 .75-.75" clip-rule="evenodd" style="fill:#000;fill-opacity:.27" transform="translate(16.207 16.884)scale(2.09302)"/></g><g fill="#1c274c" style="fill:#ff0"><path d="M17 12a5 5 0 1 1-10 0 5 5 0 0 1 10 0" style="fill:#ff0;fill-opacity:1" transform="translate(16.206 15.172)scale(2.09302)"/><path fill-rule="evenodd" d="M12 1.25a.75.75 0 0 1 .75.75v2a.75.75 0 0 1-1.5 0V2a.75.75 0 0 1 .75-.75M3.669 3.716a.75.75 0 0 1 1.06-.047L6.95 5.7a.75.75 0 1 1-1.012 1.107L3.716 4.776a.75.75 0 0 1-.047-1.06m16.662 0a.75.75 0 0 1-.047 1.06l-2.222 2.031A.75.75 0 0 1 17.05 5.7l2.222-2.031a.75.75 0 0 1 1.06.047M1.25 12a.75.75 0 0 1 .75-.75h2a.75.75 0 0 1 0 1.5H2a.75.75 0 0 1-.75-.75m18 0a.75.75 0 0 1 .75-.75h2a.75.75 0 0 1 0 1.5h-2a.75.75 0 0 1-.75-.75m-2.224 5.025a.75.75 0 0 1 1.06 0l2.222 2.222a.75.75 0 0 1-1.06 1.061l-2.222-2.222a.75.75 0 0 1 0-1.06m-10.051 0a.75.75 0 0 1 0 1.061l-2.223 2.222a.75.75 0 0 1-1.06-1.06l2.222-2.223a.75.75 0 0 1 1.06 0M12 19.25a.75.75 0 0 1 .75.75v2a.75.75 0 0 1-1.5 0v-2a.75.75 0 0 1 .75-.75" clip-rule="evenodd" style="fill:#ff0;fill-opacity:1" transform="translate(16.206 15.172)scale(2.09302)"/></g></svg>