<?xml version="1.0" encoding="UTF-8"?>
<svg version="1.1" viewBox="0 0 128 128" xmlns="http://www.w3.org/2000/svg">
 <path d="m128 64c0 35.346-28.654 64-64 64s-64-28.654-64-64 28.654-64 64-64 64 28.654 64 64" fill="#ca72e2" stroke-width=".2"/>
 <path d="m36.222 24h55.056c4.6935 0 8.472 3.7785 8.472 8.472v63.056c0 4.6935-3.7785 8.472-8.472 8.472h-55.056c-4.6935 0-8.472-3.7785-8.472-8.472v-63.056c0-4.6935 3.7785-8.472 8.472-8.472z" fill="none" stroke="#000" stroke-opacity=".2" stroke-width="8"/>
 <g stroke="#fff">
  <path d="m36.347 20.111h55.056c4.6935 0 8.472 3.7785 8.472 8.472v63.056c0 4.6935-3.7785 8.472-8.472 8.472h-55.056c-4.6935 0-8.472-3.7785-8.472-8.472v-63.056c0-4.6935 3.7785-8.472 8.472-8.472z" fill="#495aad" stroke-opacity=".98995" stroke-width="8"/>
  <path d="m67.194 83.081a7.1936 7.1936 0 0 1-7.1936 7.1936 7.1936 7.1936 0 0 1-7.1936-7.1936 7.1936 7.1936 0 0 1 7.1936-7.1936 7.1936 7.1936 0 0 1 7.1936 7.1936m23.443-0.0013a7.1936 7.1936 0 0 1-7.1936 7.1936 7.1936 7.1936 0 0 1-7.1936-7.1936 7.1936 7.1936 0 0 1 7.1936-7.1936 7.1936 7.1936 0 0 1 7.1936 7.1936m-26.637-11.08 9.0919 11.04h10.391l-7.1436-11.04h-12.339m12.339-2.5977 3.1651-0.0065m-6.4122 13.644 3.2471-13.638m-16.236 13.638 5.4127-16.115h5.1954" fill="none" stroke-linecap="round" stroke-linejoin="round" stroke-width="2.5"/>
  <path d="m44 76v-40h12s12 0 12 12-12 12-12 12h-12" fill="none" stroke-linecap="square" stroke-width="8"/>
 </g>
 <path d="m86.485 79.247a19.452 19.479 0 0 0-19.452 19.479 19.452 19.479 0 0 0 19.452 19.479 19.452 19.479 0 0 0 19.452-19.479 19.452 19.479 0 0 0-19.452-19.479z" fill="none" stroke="#000" stroke-linecap="round" stroke-linejoin="round" stroke-opacity=".2" stroke-width="4"/>
 <path d="m105.94 95.447a19.452 19.479 0 0 1-19.452 19.479 19.452 19.479 0 0 1-19.452-19.479 19.452 19.479 0 0 1 19.452-19.479 19.452 19.479 0 0 1 19.452 19.479" fill="#dbdbdb" stroke="#a6a6a6" stroke-linecap="round" stroke-linejoin="round" stroke-width="4"/>
 <path d="m84.054 81.682v2.3635c-1.2417 0.28391-2.3098 0.80181-3.204 1.5551-1.5957 1.3443-2.3936 3.0943-2.3936 5.2503 0 1.5302 0.35459 2.7561 1.0638 3.6777 0.70919 0.92152 1.6084 1.6064 2.6975 2.0545 1.0975 0.43958 2.4737 0.83273 4.1284 1.1794 1.2833 0.28748 2.2585 0.5791 2.9254 0.87502 0.67539 0.29592 1.0131 0.8497 1.0131 1.6613 0 0.84548-0.35459 1.4584-1.0638 1.8388-0.70919 0.37205-1.5282 0.558-2.4569 0.558-2.5243 0-4.082-1.0568-4.673-3.1704l-4.825 1.1413c0.47276 2.0714 1.5323 3.6228 3.1787 4.6542 1.0731 0.66684 2.2778 1.1121 3.6092 1.3442v2.6125h4.863v-2.6378c1.5678-0.27295 2.8759-0.80643 3.9132-1.6106 1.8321-1.4372 2.7481-3.3057 2.7481-5.6053 0-2.2574-0.9666-4.0244-2.9-5.301-0.69225-0.47342-1.4183-0.81585-2.1782-1.0272-0.75133-0.21135-1.9798-0.50727-3.6853-0.88768-2.1782-0.36361-3.2673-1.1118-3.2673-2.2447 0-1.4204 1.0384-2.1305 3.1153-2.1305 1.9587 0 3.2547 0.88354 3.8879 2.6505l4.4071-1.4458c-0.9769-2.8126-2.9921-4.4933-6.0407-5.0457v-2.3097z" fill="#a6a6a6" stroke-width="1.233"/>
</svg>
