<?xml version="1.0" encoding="UTF-8"?>
<svg version="1.1" viewBox="0 0 128 128" xmlns="http://www.w3.org/2000/svg">
 <path d="m128 64c0 35.346-28.654 64-64 64s-64-28.654-64-64 28.654-64 64-64 64 28.654 64 64" fill="#ca72e2"/>
 <path d="m48 16c-4 0-4 8 0 8h16.135l-0.13477 12h-12v8h4v56h-4v1.5312c-1.5297-0.4075-2.7062-1.0656-3.5859-1.9453-1.5286-1.5286-2.4141-3.9193-2.4141-7.5859v-28c0-4.3333-1.0901-7.8546-3.2441-10.316s-5.3114-3.6836-8.7559-3.6836-6.6018 1.2218-8.7559 3.6836-3.2441 5.9831-3.2441 10.316v12h-2v-6.3438h-4v12h4v2.3438h12v-8h-6v-12c0-3.6667 0.9099-6.1454 2.2559-7.6836s3.1886-2.3164 5.7441-2.3164 4.3982 0.77816 5.7441 2.3164 2.2559 4.0169 2.2559 7.6836v28c0 4.3333 1.1145 7.9427 3.5859 10.414 1.662 1.662 3.8488 2.6966 6.4141 3.2051v3.3809l-12 3v4h56v-4l-16-4v-64h4v-8h-12v-12h16c4 0 4-8 0-8z" fill-opacity=".2"/>
 <path d="m96 108-2e-6 4h-56l2e-6 -4 16-4h24z" fill="#444"/>
 <path d="m56 104h24l2e-6 -64h-24z" fill="#8ea0ad"/>
 <path d="m52 40h32l-2e-6 -8h-32z" fill="#444"/>
 <path d="m64 32h8v-12h-7.865z" fill="#666"/>
 <path d="m56 100c-8 0-12-4-12-12l1e-6 -28c0-8-4-12-10-12s-10 4-10 12v12" fill="none" stroke="#666" stroke-width="4"/>
 <path d="m60 104h8v-64h-8z" fill="#c4ced4"/>
 <path d="m52 108h8v-12h-8z" fill="#444"/>
 <path d="m48 12c-4 0-4 8 0 8h40c4 0 4-8 0-8z" fill="#333"/>
 <path d="m20 80v-8h12v8z" fill="#333"/>
 <path d="m16 77.657v-12h4v12z" fill="#333"/>
</svg>
