<?xml version="1.0" encoding="UTF-8"?>
<svg version="1.1" viewBox="0 0 128 128" xmlns="http://www.w3.org/2000/svg">
 <path d="m119.42 95.989c-17.67 30.594-56.806 41.076-87.411 23.413s-41.092-56.784-23.422-87.378 56.806-41.076 87.411-23.413 41.092 56.784 23.422 87.378" fill="#ca72e2" stroke-width=".19993"/>
 <g stroke-width=".19993">
  <path d="m67.991 127.97c3.3653-0.17754 6.7151-0.69568 9.9983-1.3943l47.113-81.417c-1.0365-3.192-1.7039-5.7024-4.1204-8.9951 0 0-52.991 91.95-52.991 91.807z" fill-opacity=".2"/>
  <path d="m95.987 8.6467c-10.1-5.8292-21.128-8.5747-32.008-8.5619l-55.403 95.925c5.429 9.4253 13.322 17.599 23.422 23.429 10.082 5.8187 21.088 8.5647 31.95 8.5619l55.432-95.975c-5.4282-9.4039-13.31-17.559-23.392-23.378z" fill="#999"/>
  <path d="m119.44 31.983-55.407 95.931c3.2441-3e-3 6.4738-0.24966 9.6629-0.73906l49.935-86.458c-1.1706-3.0055-2.572-5.9246-4.1912-8.7347z" fill="#fff"/>
  <path d="m64.024 2.6865e-6c-3.2441 0.0033537-6.4738 0.24966-9.6629 0.73906l-49.935 86.458c1.1705 3.0055 2.572 5.9246 4.1912 8.7347z" fill="#fff"/>
 </g>
 <g>
  <path d="m72.642 25.086a5.9968 5.999 90 0 1-8.1948 2.195 5.9968 5.999 90 0 1-2.1958-8.1917 5.9968 5.999 90 0 1 8.1948-2.195 5.9968 5.999 90 0 1 2.1958 8.1917" fill="#bbb"/>
  <path d="m93.945 25.396a5.9968 5.999 90 0 1-8.1948 2.195 5.9968 5.999 90 0 1-2.1958-8.1917 5.9968 5.999 90 0 1 8.1948-2.195 5.9968 5.999 90 0 1 2.1958 8.1917" fill="#bbb"/>
  <path d="m36.027 87.38a5.9968 5.999 90 0 1-8.1948 2.195 5.9968 5.999 90 0 1-2.1958-8.1917 5.9968 5.999 90 0 1 8.1948-2.195 5.9968 5.999 90 0 1 2.1958 8.1917" fill="#ccc"/>
  <path d="m40.971 102.58a5.9968 5.999 90 0 1-8.1948 2.195 5.9968 5.999 90 0 1-2.1958-8.1917 5.9968 5.999 90 0 1 8.1948-2.195 5.9968 5.999 90 0 1 2.1958 8.1917" fill="#ccc"/>
  <path d="m105.23 41.712a5.9968 5.999 90 0 1-8.1948 2.195 5.9968 5.999 90 0 1-2.1958-8.1917 5.9968 5.999 90 0 1 8.1948-2.195 5.9968 5.999 90 0 1 2.1958 8.1917" fill="#aaa"/>
  <path d="m52.234 121.12a5.9968 5.999 90 0 1-8.1948 2.195 5.9968 5.999 90 0 1-2.1958-8.1917 5.9968 5.999 90 0 1 8.1948-2.195 5.9968 5.999 90 0 1 2.1958 8.1917" fill="#aaa"/>
  <path d="m97.606 44.014a5.9968 5.999 90 0 1-8.1948 2.195 5.9968 5.999 90 0 1-2.1958-8.1917 5.9968 5.999 90 0 1 8.1948-2.195 5.9968 5.999 90 0 1 2.1958 8.1917" fill="#bbb"/>
  <path d="m25.066 100.8a5.9968 5.999 90 0 1-8.1948 2.195 5.9968 5.999 90 0 1-2.1958-8.1917 5.9968 5.999 90 0 1 8.1948-2.195 5.9968 5.999 90 0 1 2.1958 8.1917" fill="#bbb"/>
  <path d="m62.118 36.061a5.9968 5.999 90 0 1-8.1948 2.195 5.9968 5.999 90 0 1-2.1958-8.1917 5.9968 5.999 90 0 1 8.1948-2.195 5.9968 5.999 90 0 1 2.1958 8.1917" fill="#ccc"/>
  <path d="m87.685 14.367a5.9968 5.999 90 0 1-8.1948 2.195 5.9968 5.999 90 0 1-2.1958-8.1917 5.9968 5.999 90 0 1 8.1948-2.195 5.9968 5.999 90 0 1 2.1958 8.1917" fill="#aaa"/>
  <path d="m79.997 36.308a3.9978 3.9993 90 0 1-5.4632 1.4633 3.9978 3.9993 90 0 1-1.4639-5.4611 3.9978 3.9993 90 0 1 5.4632-1.4633 3.9978 3.9993 90 0 1 1.4639 5.4611" fill="#bbb"/>
  <path d="m104.51 22.226a3.9978 3.9993 90 0 1-5.4632 1.4633 3.9978 3.9993 90 0 1-1.4639-5.4611 3.9978 3.9993 90 0 1 5.4632-1.4633 3.9978 3.9993 90 0 1 1.4639 5.4611" fill="#bbb"/>
  <path d="m31.143 75.089a3.9978 3.9993 90 0 1-5.4632 1.4633 3.9978 3.9993 90 0 1-1.4639-5.4611 3.9978 3.9993 90 0 1 5.4632-1.4633 3.9978 3.9993 90 0 1 1.4639 5.4611" fill="#bbb"/>
  <path d="m28.446 109.97a3.9978 3.9993 90 0 1-5.4632 1.4633 3.9978 3.9993 90 0 1-1.4639-5.4612 3.9978 3.9993 90 0 1 5.4632-1.4633 3.9978 3.9993 90 0 1 1.4639 5.4612" fill="#ccc"/>
  <path d="m73.981 8.5622a3.9978 3.9993 90 0 1-5.4632 1.4633 3.9978 3.9993 90 0 1-1.4639-5.4611 3.9978 3.9993 90 0 1 5.4632-1.4633 3.9978 3.9993 90 0 1 1.4639 5.4611" fill="#bbb"/>
  <path d="m113.1 32.741a3.9978 3.9993 90 0 1-5.4632 1.4633 3.9978 3.9993 90 0 1-1.4639-5.4611 3.9978 3.9993 90 0 1 5.4632-1.4633 3.9978 3.9993 90 0 1 1.4639 5.4611" fill="#bbb"/>
  <path d="m86.46 33.114a1.9989 1.9997 90 0 1-2.7316 0.73166 1.9989 1.9997 90 0 1-0.73193-2.7306 1.9989 1.9997 90 0 1 2.7316-0.73166 1.9989 1.9997 90 0 1 0.73193 2.7306" fill="#ccc"/>
  <path d="m79.375 24.844a1.9989 1.9997 90 0 1-2.7316 0.73166 1.9989 1.9997 90 0 1-0.73193-2.7306 1.9989 1.9997 90 0 1 2.7316-0.73166 1.9989 1.9997 90 0 1 0.73193 2.7306" fill="#ccc"/>
  <path d="m68.727 33.692a1.9989 1.9997 90 0 1-2.7316 0.73166 1.9989 1.9997 90 0 1-0.73193-2.7306 1.9989 1.9997 90 0 1 2.7316-0.73166 1.9989 1.9997 90 0 1 0.73193 2.7306" fill="#777"/>
  <path d="m59.167 125.85a1.9989 1.9997 90 0 1-2.7316 0.73166 1.9989 1.9997 90 0 1-0.73193-2.7306 1.9989 1.9997 90 0 1 2.7316-0.73165 1.9989 1.9997 90 0 1 0.73193 2.7306" fill="#bbb"/>
  <path d="m60.932 21.843a1.9989 1.9997 90 0 1-2.7316 0.73166 1.9989 1.9997 90 0 1-0.73193-2.7306 1.9989 1.9997 90 0 1 2.7316-0.73166 1.9989 1.9997 90 0 1 0.73193 2.7306" fill="#bbb"/>
  <path d="m97.362 28.73a1.9989 1.9997 90 0 1-2.7316 0.73166 1.9989 1.9997 90 0 1-0.73193-2.7306 1.9989 1.9997 90 0 1 2.7316-0.73166 1.9989 1.9997 90 0 1 0.73193 2.7306" fill="#ccc"/>
  <path d="m110.95 41.188a1.9989 1.9997 90 0 1-2.7316 0.73166 1.9989 1.9997 90 0 1-0.73193-2.7306 1.9989 1.9997 90 0 1 2.7316-0.73166 1.9989 1.9997 90 0 1 0.73193 2.7306" fill="#ccc"/>
  <path d="m49.669 37.847a1.9989 1.9997 90 0 1-2.7316 0.73166 1.9989 1.9997 90 0 1-0.73193-2.7306 1.9989 1.9997 90 0 1 2.7316-0.73166 1.9989 1.9997 90 0 1 0.73193 2.7306" fill="#aaa"/>
  <path d="m22.737 88.624a3.2233 3.2245 90 0 1-4.4047 1.1798 3.2233 3.2245 90 0 1-1.1802-4.4031 3.2233 3.2245 90 0 1 4.4047-1.1798 3.2233 3.2245 90 0 1 1.1802 4.4031" fill="#777"/>
  <path d="m62.989 119.15a3.2233 3.2245 90 0 1-4.4047 1.1798 3.2233 3.2245 90 0 1-1.1802-4.4031 3.2233 3.2245 90 0 1 4.4047-1.1798 3.2233 3.2245 90 0 1 1.1802 4.4031" fill="#777"/>
  <path d="m77.563 16.847a3.2233 3.2245 90 0 1-4.4047 1.1798 3.2233 3.2245 90 0 1-1.1802-4.4031 3.2233 3.2245 90 0 1 4.4047-1.1798 3.2233 3.2245 90 0 1 1.1802 4.4031" fill="#ccc"/>
  <path d="m98.945 16.791a3.2233 3.2245 90 0 1-4.4047 1.1798 3.2233 3.2245 90 0 1-1.1802-4.4031 3.2233 3.2245 90 0 1 4.4047-1.1798 3.2233 3.2245 90 0 1 1.1802 4.4031" fill="#777"/>
 </g>
 <path d="m104.41 75.856a31.999 31.999 0 0 1-31.999 31.998 31.999 31.999 0 0 1-31.998-31.999 31.999 31.999 0 0 1 31.999-31.998 31.999 31.999 0 0 1 31.998 31.999" fill="#88888f" stroke-width=".99998"/>
 <path d="m58.581 74.876a12.834 12.834 0 0 1-17.532 4.6976 12.834 12.834 0 0 1-4.6976-17.532 12.834 12.834 0 0 1 17.532-4.6976 12.834 12.834 0 0 1 4.6976 17.532m36.222 20.91a12.834 12.834 0 0 1-17.532 4.6976 12.834 12.834 0 0 1-4.6976-17.532 12.834 12.834 0 0 1 17.532-4.6976 12.834 12.834 0 0 1 4.6976 17.532m-31.272-40.88 4.1993 25.169 16.055 9.2691-1.1891-23.431-19.065-11.007m21.382 6.9935 4.8961 2.8134m-22.079 15.362 17.182-18.175m-37.251 6.5887 22.739-20.071 8.0273 4.6346" fill="none" stroke="#fff" stroke-linecap="round" stroke-linejoin="round" stroke-width="3.7975"/>
 <g transform="translate(194.14 -359.88)">
  <path d="m-121.98 400.69c-22.011 1e-5 -39.855 17.844-39.855 39.855 0 9.477 3.3136 18.178 8.8379 25.018l-1.8965 1.8965-0.0645-0.0645c-1.3616-1.3616-3.7572-1.2339-5.2852 0.37109l-7.5457 7.9259c4.237 2.7245 9.2786 5.7704 13.768 7.5564l4.7832-4.4765c1.618-1.5142 1.7327-3.9236 0.37109-5.2852l-0.0273-0.0273 1.8965-1.8965c6.8404 5.5238 15.541 8.8359 25.018 8.8359 22.011 1e-5 39.854-17.842 39.854-39.854 2e-6 -22.011-17.842-39.855-39.854-39.855zm0 11.855c15.464 1e-5 28 12.536 28 28 3e-6 15.464-12.536 28-28 28-15.464-1e-5 -28-12.536-28-28-1e-5 -15.464 12.536-28 28-28z" fill-opacity=".2" fill-rule="evenodd"/>
  <g transform="rotate(30,-1483.4,-249.38)">
   <path d="m23.03-296.7 1.8301-6.8301 8.1962 2.1962-1.8301 6.8301z" fill="#b0bdc6"/>
   <path d="m22.976-296.84 8.32 2.2293c1.86 0.49838 2.8962 2.623 2.3221 4.7633l-2.8479 10.617c-5.4622 0.25608-10.939 0.43919-15.657-0.54562l3.4701-14.1c0.52958-2.1518 2.5327-3.4625 4.3926-2.9641z" fill="#555"/>
   <path d="m18.182-371.1c-19.062 11.006-25.594 35.381-14.588 54.444 11.006 19.062 35.38 25.592 54.443 14.586 19.062-11.006 25.593-35.379 14.587-54.441s-35.38-25.595-54.442-14.589zm4.0947 6.8735a32 32 0 0 1 43.713 11.713 32 32 0 0 1-11.713 43.713 32 32 0 0 1-43.713-11.713 32 32 0 0 1 11.713-43.713z" fill="#dfe9ef"/>
   <path d="m21.297-365.97c-15.305 8.8365-21.128 31.07-12.291 46.375 8.8366 15.305 30.486 20.485 45.791 11.649 15.305-8.8366 21.764-30.244 12.927-45.55-8.8366-15.305-31.122-21.31-46.427-12.474zm2.8122 5.1367c13.392-7.732 30.517-3.1435 38.249 10.249 7.732 13.392 3.1435 30.517-10.249 38.249-13.392 7.732-30.517 3.1435-38.249-10.249-7.732-13.392-3.1435-30.517 10.249-38.249z" fill="#b0bdc6"/>
   <path d="m15.325-328.05c3.4641-2 10.829-25.244 29.622-30.959-18.911-5.7922-34.795 10.851-29.622 30.959z" fill="#fff" fill-opacity=".56471" fill-rule="evenodd"/>
   <path d="m62.358-350.58a28 28 0 0 1-10.249 38.249 28 28 0 0 1-38.249-10.249 28 28 0 0 1 10.249-38.249 28 28 0 0 1 38.249 10.249" fill="#fff" fill-opacity=".2"/>
  </g>
 </g>
</svg>
