<?xml version="1.0" encoding="UTF-8"?>
<svg version="1.1" viewBox="0 0 128 128" xmlns="http://www.w3.org/2000/svg">
 <path d="m128 64c0 35.346-28.654 64-64 64s-64-28.654-64-64 28.654-64 64-64 64 28.654 64 64" fill="#ca72e2"/>
 <path d="m61.25 60.606-10.479 0.07412c-0.95975 0.0084-1.8087 0.624-2.1137 1.534l-5.8317 17.364c-1.2479-0.26987-2.5388-0.42158-3.8663-0.42158-10.143 0-18.43 8.2865-18.43 18.43 0 10.143 8.2865 18.43 18.43 18.43 9.9403 0 18.047-7.9716 18.369-17.837 0.03985-0.19527 0.0601-0.39403 0.06051-0.59332-0.0014-0.19408-0.02168-0.38755-0.06051-0.57771-0.22197-6.9815-4.3505-12.999-10.262-15.936l1.0227-3.0466 17.216 20.907c0.51688 0.61052 1.0742 0.778 1.8404 0.81593h3.8156c1.079 9.1314 8.8802 16.267 18.291 16.267 9.9403 0 18.049-7.9716 18.371-17.837 0.0398-0.19527 0.0601-0.39403 0.0605-0.59332-4e-4 -0.1993-0.0207-0.39804-0.0605-0.59332-0.32245-9.8652-8.4309-17.837-18.371-17.837-2.8395 0-5.5223 0.66907-7.9298 1.8268l-5.4277-8.3884c-0.13152-0.20314-0.29496-0.38372-0.48402-0.53477l0.39815-1.6726 4.9437 0.09167c1.2411 0.02173 2.265-0.96632 2.2874-2.2074 0.02285-1.2411-0.96437-2.2659-2.2054-2.2893l-10.647-0.19517c-1.2411-0.02173-2.265 0.96632-2.2874 2.2074-0.02175 1.2411 0.96633 2.2649 2.2074 2.2874l1.0988 0.01951-0.30251 1.2686h-20.647l2.1508-6.4035 8.8744-0.06437c1.241-0.0098 2.2394-1.023 2.2308-2.264-0.0086-1.2418-1.0222-2.2414-2.264-2.2327zm-8.9485 15.459h17.532l-3.9327 16.515zm21.705 1.8912 3.5189 5.4374c-3.5197 2.9158-5.9296 7.1151-6.5362 11.86h-1.1008zm-35.047 7.194c0.66241 0 1.3065 0.06576 1.94 0.16394l-3.8527 11.472c-0.39561 1.1771 0.23791 2.452 1.415 2.8475 1.177 0.39416 2.4508-0.24009 2.8456-1.4169l3.837-11.425c3.7398 2.1362 6.2474 6.1508 6.2474 10.795 0 6.9031-5.5292 12.432-12.432 12.432-6.9031 0-12.436-5.5292-12.436-12.432 0-6.9031 5.5331-12.436 12.436-12.436zm50.293 0c6.9031 0 12.436 5.5331 12.436 12.436 0 6.9031-5.5331 12.432-12.436 12.432-6.1632 0-11.221-4.4121-12.237-10.27h12.317c1.781 1.1e-4 2.8552-1.9719 1.8892-3.4682l-6.6202-10.231c1.436-0.5748 3.0017-0.89974 4.6509-0.89974zm-8.4509 3.3081 4.3972 6.7958h-8.1561c0.50154-2.6735 1.8499-5.0289 3.759-6.7958z" color="#000000" fill-opacity=".2"/>
 <g transform="translate(0 2.8348)" fill="none" stroke-linecap="round" stroke-linejoin="round">
  <path d="m54.287 90.664a15.444 15.444 0 0 1-15.444 15.444 15.444 15.444 0 0 1-15.444-15.444 15.444 15.444 0 0 1 15.444-15.444 15.444 15.444 0 0 1 15.444 15.444" stroke="#555" stroke-width="5.9998"/>
  <path d="m66.947 90.581 6.971-29.278" stroke="#ffe420" stroke-width="4.4999"/>
  <path d="m70.056 61.093 10.653 0.19545" stroke="#555" stroke-width="4.4999"/>
  <path d="m104.62 90.664a15.444 15.444 0 0 1-15.444 15.444 15.444 15.444 0 0 1-15.444-15.444 15.444 15.444 0 0 1 15.444-15.444 15.444 15.444 0 0 1 15.444 15.444" stroke="#555" stroke-width="5.9998"/>
  <path d="m47.428 66.879 19.519 23.701h22.307l-15.336-23.701h-26.49" stroke="#ffe420" stroke-width="4.4999"/>
  <path d="m39.063 90.581 11.62-34.597 10.486-0.0757" stroke="#ffe420" stroke-width="4.4999"/>
 </g>
 <path d="m76.297 16.108c-2.5252 0.01256-4.5598 2.0643-4.5488 4.5879l-15.996 0.07031c-3.3734 0.01462-6.2781 1.8773-7.8496 4.6016l-3.5566 0.01758c-4.2587 0.01845-7.7948 2.9624-8.7891 6.9121-4.8957-0.07896-14.552-3.0725-20.387-8.857-2.0258 1.9705-3.9059 4.1492-5.5078 6.7285v2e-3c8.0578 7.9883 19.369 11.18 25.946 11.259 1.0413 3.9247 4.5944 6.8228 8.8418 6.8027l3.5508-0.01563c1.5951 2.7138 4.5172 4.5498 7.8906 4.5352l15.992-0.06836c0.0125 2.5219 2.0679 4.5581 4.5898 4.5488 2.5236-0.01093 4.5637-2.0676 4.5527-4.5879l-0.0098-2.2832 25.131-0.10938c1.2569-0.0054 2.2824-1.0396 2.2754-2.2949-5e-3 -1.2569-1.0396-2.2805-2.2949-2.2734l-25.131 0.10938-0.08008-18.281 25.133-0.10742c1.2569-0.0054 2.2804-1.0396 2.2734-2.2949-5e-3 -1.2569-1.0396-2.2805-2.2949-2.2734l-25.131 0.10742-0.0098-2.2871c-0.0109-2.5236-2.0663-4.5598-4.5898-4.5488z" fill-opacity=".2" stroke-width="2.2848"/>
 <g transform="matrix(-1.6086 1.6226 1.6226 1.6086 65.667 -30.695)">
  <path d="m12.858 20.736c0.389-0.389 0.389-1.025 0-1.414s-1.025-0.389-1.414 0l-8.485 8.486c-0.389 0.388-0.389 1.025 0 1.414 0.388 0.389 1.025 0.389 1.414 0z" fill="#9aaab4"/>
  <path d="m19.93 27.807c0.389-0.389 0.389-1.025 0-1.414s-1.025-0.389-1.414 0l-8.486 8.486c-0.389 0.388-0.389 1.025 0 1.414 0.388 0.389 1.025 0.389 1.414 0z" fill="#9aaab4"/>
  <path d="m34.766 1.0786c0 4.966-2.3263 8.5024-4.3283 10.571 0.899 1.533 0.705 3.53-0.61 4.844l-1.099 1.099c0.352 1.332 0.022 2.806-1.022 3.85l-4.949 4.95c0.78 0.781 0.78 2.047 0 2.828-0.781 0.781-2.049 0.781-2.829 1e-3l-9.9-9.9c-0.781-0.781-0.781-2.047 0-2.828 0.782-0.781 2.047-0.781 2.828 0l4.951-4.95c1.044-1.044 2.518-1.373 3.849-1.022l1.101-1.1c1.318-1.318 3.323-1.51 4.857-0.602 1.484-1.546 3.3626-4.507 3.3626-8.103 1.2367-0.022466 2.4934 0.064809 3.7887 0.36166z" fill="#444"/>
  <path d="m17.295 19.929 2.3669-4.9071 1.2441 1.8098 2.6844-3.9978-0.1702 9.4446-2.4882-3.6196-1.1488 4.8897z" fill="#fd5"/>
 </g>
</svg>
