<?xml version="1.0" encoding="UTF-8"?>
<svg version="1.1" viewBox="0 0 128 128" xmlns="http://www.w3.org/2000/svg">
 <path d="m128 64c0 35.346-28.654 64-64 64s-64-28.654-64-64 28.654-64 64-64 64 28.654 64 64" fill="#e9a76f" stroke-width=".2"/>
 <path d="m61.212 38.343-10.479 0.07412c-0.95975 0.0084-1.8087 0.624-2.1137 1.534l-5.8317 17.364c-1.2479-0.26987-2.5388-0.42158-3.8663-0.42158-10.143 0-18.43 8.2865-18.43 18.43 0 10.143 8.2865 18.43 18.43 18.43 9.9403 0 18.047-7.9716 18.369-17.837 0.03985-0.19527 0.0601-0.39403 0.06051-0.59332-0.0014-0.19408-0.02168-0.38755-0.06051-0.57771-0.22197-6.9815-4.3505-12.999-10.262-15.936l1.0227-3.0466 17.216 20.907c0.51688 0.61052 1.0742 0.778 1.8404 0.81593h3.8156c1.079 9.1314 8.8802 16.267 18.291 16.267 9.9403 0 18.049-7.9716 18.371-17.837 0.0398-0.19527 0.0601-0.39403 0.0605-0.59332-4e-4 -0.1993-0.0207-0.39804-0.0605-0.59332-0.32245-9.8652-8.4309-17.837-18.371-17.837-2.8395 0-5.5223 0.66907-7.9298 1.8268l-5.4277-8.3884c-0.13152-0.20314-0.29496-0.38372-0.48402-0.53477l0.39815-1.6726 4.9437 0.09167c1.2411 0.02173 2.265-0.96632 2.2874-2.2074 0.02285-1.2411-0.96437-2.2659-2.2054-2.2893l-10.647-0.19517c-1.2411-0.02173-2.265 0.96632-2.2874 2.2074-0.02175 1.2411 0.96633 2.2649 2.2074 2.2874l1.0988 0.01951-0.30251 1.2686h-20.647l2.1508-6.4035 8.8744-0.06437c1.241-0.0098 2.2394-1.023 2.2308-2.264-0.0086-1.2418-1.0222-2.2414-2.264-2.2327zm-8.9485 15.459h17.532l-3.9327 16.515zm21.705 1.8912 3.5189 5.4374c-3.5197 2.9158-5.9296 7.1151-6.5362 11.86h-1.1008zm-35.047 7.194c0.66241 0 1.3065 0.06576 1.94 0.16394l-3.8527 11.472c-0.39561 1.1771 0.23791 2.452 1.415 2.8475 1.177 0.39416 2.4508-0.24009 2.8456-1.4169l3.837-11.425c3.7398 2.1362 6.2474 6.1508 6.2474 10.795 0 6.9031-5.5292 12.432-12.432 12.432-6.9031 0-12.436-5.5292-12.436-12.432 0-6.9031 5.5331-12.436 12.436-12.436zm50.293 0c6.9031 0 12.436 5.5331 12.436 12.436 0 6.9031-5.5331 12.432-12.436 12.432-6.1632 0-11.221-4.4121-12.237-10.27h12.317c1.781 1.12e-4 2.8552-1.9719 1.8892-3.4682l-6.6202-10.231c1.436-0.5748 3.0017-0.89974 4.6509-0.89974zm-8.4509 3.3081 4.3972 6.7958h-8.1561c0.50154-2.6735 1.8499-5.0289 3.759-6.7958z" color="#000000" fill-opacity=".2"/>
 <g fill="none" stroke-linecap="round" stroke-linejoin="round">
  <path d="m54.247 71.234a15.444 15.444 0 0 1-15.444 15.444 15.444 15.444 0 0 1-15.444-15.444 15.444 15.444 0 0 1 15.444-15.444 15.444 15.444 0 0 1 15.444 15.444" stroke="#555" stroke-width="5.9998"/>
  <path d="m66.907 71.151 6.971-29.278" stroke="#ffe420" stroke-width="4.4999"/>
  <path d="m70.016 41.663 10.653 0.19545" stroke="#555" stroke-width="4.4999"/>
  <path d="m104.58 71.234a15.444 15.444 0 0 1-15.444 15.444 15.444 15.444 0 0 1-15.444-15.444 15.444 15.444 0 0 1 15.444-15.444 15.444 15.444 0 0 1 15.444 15.444" stroke="#555" stroke-width="5.9998"/>
  <path d="m47.388 47.449 19.519 23.701h22.307l-15.336-23.701h-26.49" stroke="#ffe420" stroke-width="4.4999"/>
  <path d="m39.023 71.151 11.62-34.597 10.486-0.0757" stroke="#ffe420" stroke-width="4.4999"/>
 </g>
 <path d="m3.0239 68.008 13.746 20 12.001-20.001-9.3279 1.34e-4c1.52e-4 -18.017 10.824-34.247 27.468-41.166 16.68-6.9338 35.866-3.1304 48.639 9.6423l5.2533-5.2552c-9.3032-9.3032-21.549-14.527-34.172-15.164-7.5735-0.38261-15.282 0.8845-22.571 3.9147-6.6818 2.7777-12.563 6.8509-17.403 11.853-9.2098 9.5199-14.646 22.411-14.646 36.176zm24.174 36.762c9.3032 9.3032 21.548 14.528 34.171 15.166 7.5736 0.38265 15.283-0.88618 22.572-3.9164 19.397-8.0635 32.043-27.03 32.043-48.028l8.9919-1.76e-4 -13.748-20.001-12.003 20 9.3279-1.33e-4c3.5e-4 18.018-10.82 34.249-27.465 41.168-16.68 6.9338-35.866 3.1304-48.639-9.6423z" color="#000000" fill-opacity=".2"/>
 <path d="m3.0239 64.008 13.746 20 12.001-20.001-9.3279 1.34e-4c1.52e-4 -18.017 10.824-34.247 27.468-41.166 16.68-6.9338 35.866-3.1304 48.639 9.6423l5.2533-5.2552c-9.3031-9.3032-21.549-14.527-34.172-15.164-7.5735-0.38261-15.282 0.8845-22.571 3.9147-6.6818 2.7777-12.563 6.8509-17.403 11.853-9.2098 9.5199-14.646 22.411-14.646 36.176zm24.174 36.762c9.3032 9.3032 21.548 14.528 34.171 15.166 7.5736 0.38265 15.283-0.88618 22.572-3.9164 19.397-8.0635 32.043-27.03 32.043-48.028l8.9919-1.76e-4 -13.748-20.001-12.003 20 9.3279-1.33e-4c3.5e-4 18.018-10.82 34.249-27.465 41.168-16.68 6.9338-35.866 3.1304-48.639-9.6423z" color="#000000" fill="#fff"/>
</svg>
