<?xml version="1.0" encoding="UTF-8"?>
<svg version="1.1" viewBox="0 0 128 128" xmlns="http://www.w3.org/2000/svg">
 <path d="m128 64c0 35.346-28.654 64-64 64-35.346 0-64-28.654-64-64 0-35.346 28.654-64 64-64 35.346 0 64 28.654 64 64" fill="#ca72e2" stroke-width=".2"/>
 <path d="m36.222 24h55.056c4.6935 0 8.472 3.7785 8.472 8.472v63.056c0 4.6935-3.7785 8.472-8.472 8.472h-55.056c-4.6935 0-8.472-3.7785-8.472-8.472v-63.056c0-4.6935 3.7785-8.472 8.472-8.472z" fill="none" stroke="#000" stroke-opacity=".2" stroke-width="8" style="paint-order:normal"/>
 <path d="m36.347 20.111h55.056c4.6935 0 8.472 3.7785 8.472 8.472v63.056c0 4.6935-3.7785 8.472-8.472 8.472h-55.056c-4.6935 0-8.472-3.7785-8.472-8.472v-63.056c0-4.6935 3.7785-8.472 8.472-8.472z" fill="#495aad" stroke="#fff" stroke-opacity=".98995" stroke-width="8" style="paint-order:normal"/>
 <path d="m58.304 82.604a8.8314 8.8314 0 0 1-8.8314 8.8314 8.8314 8.8314 0 0 1-8.8314-8.8314 8.8314 8.8314 0 0 1 8.8314-8.8314 8.8314 8.8314 0 0 1 8.8314 8.8314m28.78-0.0016a8.8314 8.8314 0 0 1-8.8314 8.8314 8.8314 8.8314 0 0 1-8.8314-8.8314 8.8314 8.8314 0 0 1 8.8314-8.8314 8.8314 8.8314 0 0 1 8.8314 8.8314m-32.701-13.602 11.162 13.554h12.756l-8.7701-13.554h-15.148m15.148-3.1891 3.8857-8e-3m-7.8721 16.751 3.9864-16.743m-19.932 16.743 6.6451-19.784h6.3782" fill="none" stroke="#fff" stroke-linecap="round" stroke-linejoin="round" stroke-width="3.0692" style="paint-order:normal"/>
 <path d="m69.318 48.395a8.8314 8.8314 0 0 0 8.8314 8.8314 8.8314 8.8314 0 0 0 8.8314-8.8314 8.8314 8.8314 0 0 0-8.8314-8.8314 8.8314 8.8314 0 0 0-8.8314 8.8314m-28.78-0.0016a8.8314 8.8314 0 0 0 8.8314 8.8314 8.8314 8.8314 0 0 0 8.8314-8.8314 8.8314 8.8314 0 0 0-8.8314-8.8314 8.8314 8.8314 0 0 0-8.8314 8.8314m32.701-13.602-11.162 13.554h-12.756l8.7701-13.554h15.148m-15.148-3.1891-3.8857-8e-3m7.8721 16.751-3.9864-16.743m19.932 16.743-6.6451-19.784h-6.3782" fill="none" stroke="#fff" stroke-linecap="round" stroke-linejoin="round" stroke-width="3.0692" style="paint-order:normal"/>
</svg>
