<?xml version="1.0" encoding="UTF-8"?>
<svg version="1.1" viewBox="0 0 128 128" xml:space="preserve" xmlns="http://www.w3.org/2000/svg"><path d="m128 64c0 35.346-28.654 64-64 64s-64-28.654-64-64 28.654-64 64-64 64 28.654 64 64" fill="#ca72e2" stroke-width=".2"/><g transform="matrix(-1.4938 .86245 .86245 1.4938 -693.27 -436.78)" fill="none" stroke-linecap="round" stroke-linejoin="round"><path d="m-245.33 444.25c0.2532-0.13934 0.53713-0.2134 0.82613-0.21547l7.5214-0.0553c0.96102-7e-3 1.7456 0.76669 1.7519 1.7277 6e-3 0.96086-0.76742 1.7449-1.7283 1.7509l-6.28 0.0472-1.4598 4.3469 14.547-5.9e-4 0.15717-0.6608-0.63432-0.0116c-0.96019-0.018-1.724-0.81084-1.7063-1.771 0.0175-0.96035 0.81011-1.7247 1.7705-1.7073l7.6412 0.14097c0.95974 0.0178 1.7236 0.80973 1.7067 1.7695-0.0178 0.95974-0.80972 1.7236-1.7695 1.7067l-3.4498-0.0623-0.24555 1.0308c0.12132 0.10405 0.22772 0.22433 0.3162 0.35744l3.8052 5.882c1.7263-0.81416 3.6502-1.2722 5.6774-1.2722 7.3709 0 13.397 6.0247 13.397 13.396 0 7.3709-6.0259 13.395-13.397 13.395-6.8023 0-12.455-5.1311-13.287-11.716l-2.6557-3.9e-4c-0.59314-0.0617-1.1157-0.42521-1.3431-0.63314l-12.214-14.83-0.60988 1.8152c4.3811 2.2082 7.4042 6.7507 7.4042 11.971 0 7.3709-6.0234 13.395-13.394 13.395s-13.396-6.0238-13.396-13.395c0-7.3709 6.0247-13.397 13.396-13.397 0.9272 0 1.8331 0.0959 2.7084 0.27727l4.1342-12.311c0.13893-0.41346 0.42813-0.75962 0.81028-0.96989zm-12.206 18.904c-2.5281 1.53-4.206 4.3039-4.206 7.4962 0 4.8644 3.8947 8.7578 8.7591 8.7578 4.8644 0 8.7584-3.8937 8.7584-8.7581 0-3.215-1.7019-6.0043-4.2596-7.5273l-2.6932 8.0217c-0.30619 0.91047-1.2925 1.4003-2.203 1.0941-0.91047-0.30619-1.4003-1.2925-1.0941-2.203l2.7072-8.0586c-0.39707-0.0543-0.80213-0.0843-1.215-0.0843-1.6721 0-3.2296 0.46013-4.5539 1.2616zm14.393-7.8261 9.435 11.457 2.7284-11.457zm15.37 1.5439-2.8528 11.98 0.47078 1.5e-4c0.4571-3.3708 2.1776-6.3517 4.6674-8.4476zm7.7599 5.5914 4.6472 7.1819c0.74737 1.1572-0.0832 2.6827-1.4608 2.683l-8.6539 4.8e-4c0.77533 4.0514 4.3073 7.0797 8.597 7.0797 4.8644 0 8.7583-3.8937 8.7583-8.7581 0-4.8644-3.8932-8.7574-8.7575-8.7574-1.1052 0-2.1596 0.20268-3.1303 0.57039zm-2.9414 1.8577c-1.2484 1.1973-2.1391 2.7632-2.503 4.5308l5.4336-4.6e-4z" color="#000000" fill="#000" fill-opacity=".2" style="-inkscape-stroke:none"/></g><g transform="matrix(-1.4938 .86245 .86245 1.4938 -598.46 -403.28)" fill="none" stroke-linecap="round" stroke-linejoin="round"><path d="m-205.08 424.06a11.077 11.077 0 0 1-11.077 11.077 11.077 11.077 0 0 1-11.077-11.077 11.077 11.077 0 0 1 11.077-11.077 11.077 11.077 0 0 1 11.077 11.077" stroke="#555" stroke-width="4.6379"/><path d="m-196 424 5-21" stroke="#ffe420" stroke-width="3.4784"/><path d="m-193.77 402.85 7.641 0.14019" stroke="#555" stroke-width="3.4784"/><path d="m-168.98 424.06a11.077 11.077 0 0 1-11.077 11.077 11.077 11.077 0 0 1-11.077-11.077 11.077 11.077 0 0 1 11.077-11.077 11.077 11.077 0 0 1 11.077 11.077" stroke="#555" stroke-width="4.6379"/><path d="m-210 407 14 17h16l-11-17h-19" stroke="#ffe420" stroke-width="3.4784"/><path d="m-216 424 8.3347-24.815 7.5209-0.0543" stroke="#ffe420" stroke-width="3.4784"/></g><g transform="rotate(29.68 26.008 81.595)" fill="none" stroke="#000" stroke-opacity=".2" stroke-width="8"><path d="m51.606 106.44 44.243-75.859" stroke="#000" stroke-opacity=".2" stroke-width="8"/></g><g transform="rotate(29.68 33.557 79.595)" fill="none" stroke-width="8"><path d="m51.606 106.44 44.243-75.859" stroke="#fff" stroke-width="8"/></g></svg>
