<?xml version="1.0" encoding="UTF-8" standalone="no"?>
<svg
   version="1.1"
   viewBox="0 0 128 128"
   id="svg9426"
   sodipodi:docname="bin_amenity.svg"
   inkscape:version="1.1.1 (3bf5ae0d25, 2021-09-20)"
   xmlns:inkscape="http://www.inkscape.org/namespaces/inkscape"
   xmlns:sodipodi="http://sodipodi.sourceforge.net/DTD/sodipodi-0.dtd"
   xmlns="http://www.w3.org/2000/svg"
   xmlns:svg="http://www.w3.org/2000/svg">
  <defs
     id="defs9430" />
  <sodipodi:namedview
     id="namedview9428"
     pagecolor="#ffffff"
     bordercolor="#666666"
     borderopacity="1.0"
     inkscape:pageshadow="2"
     inkscape:pageopacity="0.0"
     inkscape:pagecheckerboard="0"
     showgrid="false"
     inkscape:zoom="6.3203125"
     inkscape:cx="64"
     inkscape:cy="64"
     inkscape:window-width="1920"
     inkscape:window-height="1017"
     inkscape:window-x="-8"
     inkscape:window-y="-8"
     inkscape:window-maximized="1"
     inkscape:current-layer="svg9426" />
  <path
     d="m128 64c0 35.346-28.654 64-64 64s-64-28.654-64-64 28.654-64 64-64 64 28.654 64 64"
     fill="#529add"
     stroke-width=".19997"
     id="path9404"
     style="fill:#9bbe55;fill-opacity:1" />
  <g
     stroke-width=".87786"
     id="g9412">
    <path
       d="m51.338 22.348c-3.1066 0-5.6289 2.5204-5.6289 5.627v5.6289h-16.395c-1.825 0-3.3027 1.6655-3.3027 3.7207v7.4395c0 2.0551 1.4777 3.7188 3.3027 3.7188h1.3008l6.9688 58.068c0.01804 0.21498 0.05668 0.42238 0.11328 0.62305 0.11237 0.39973 0.29717 0.76653 0.53906 1.0879 0.12134 0.16118 0.25629 0.30923 0.4043 0.44531 0.44246 0.40714 0.99425 0.69459 1.6055 0.8125 0.20378 0.0393 0.4142 0.0605 0.62891 0.0605h46.248c0.21407 0 0.42371-0.0214 0.62695-0.0605 0.20385-0.0393 0.40275-0.0969 0.5918-0.17187 1.1341-0.45054 1.9658-1.5123 2.0723-2.7969l1.2441-10.365 5.7266-47.703h1.3008c1.8252 0 3.3026-1.6635 3.3027-3.7188v-7.4395c0-2.0551-1.4777-3.7207-3.3027-3.7207h-16.395v-5.6289c0-3.1066-2.5223-5.627-5.6289-5.627zm2.8125 5.627h19.699c1.556 0 2.8125 1.2613 2.8125 2.8145v2.8145h-25.324v-2.8145c0-1.5535 1.2565-2.8145 2.8125-2.8145z"
       fill-opacity=".2"
       id="path9406" />
    <path
       d="m30.416 42.817 7.1683 59.734c0.1437 1.7128 1.5741 3.0292 3.2917 3.0292h46.247c1.7178 0 3.1497-1.3165 3.2917-3.0292l7.17-59.734z"
       fill="#d9d9d9"
       id="path9408" />
    <path
       d="m98.685 44.483h-69.37c-1.825 0-3.3032-1.6648-3.3032-3.7199v-7.4399c0-2.0552 1.4783-3.7199 3.3032-3.7199h69.37c1.825 0 3.3032 1.6648 3.3032 3.7199v7.4399c-1.8e-4 2.0552-1.4782 3.7199-3.3035 3.7199"
       fill="#bbb"
       id="path9410" />
  </g>
  <g
     fill="#999"
     id="g9420">
    <path
       d="m64 84.108c-0.91175 0-1.6518-0.7383-1.6518-1.6518v-29.73c0-0.91343 0.73999-1.6518 1.6518-1.6518 0.91175 0 1.6518 0.7383 1.6518 1.6518v29.73c0 0.91325-0.73999 1.6516-1.6518 1.6516"
       id="path9414" />
    <path
       d="m49.755 84.108c-0.91175 0-1.6905-0.7383-1.7384-1.6518l-1.5581-29.73c-0.04788-0.91343 0.65342-1.6518 1.5652-1.6518 0.91175 0 1.6905 0.7383 1.7384 1.6518l1.5581 29.73c0.04787 0.91325-0.65343 1.6516-1.5652 1.6516"
       id="path9416" />
    <path
       d="m78.245 84.108c-0.91175 0-1.6131-0.7383-1.5652-1.6518l1.5581-29.73c0.04788-0.91343 0.82656-1.6518 1.7384-1.6518 0.91175 0 1.6131 0.7383 1.5652 1.6518l-1.5581 29.73c-0.04787 0.91325-0.82654 1.6516-1.7383 1.6516"
       id="path9418" />
  </g>
  <path
     d="m36.341 92.186 1.2438 10.365c0.1437 1.7127 1.5728 3.0277 3.2904 3.0277h46.247c1.7178 0 3.1505-1.3151 3.2925-3.0277l1.2438-10.365z"
     fill="#bbb"
     id="path9422" />
  <path
     d="m51.337 18.347h25.325c3.1066 0 5.6279 2.5214 5.6279 5.6279v5.6279h-5.6279v-2.814c0-1.5531-1.2579-2.814-2.814-2.814h-19.697c-1.556 0-2.814 1.2605-2.814 2.814v2.814h-5.6279v-5.6279c0-3.1066 2.5213-5.6279 5.6279-5.6279z"
     fill="#d9d9d9"
     id="path9424" />
</svg>
