<?xml version="1.0" encoding="UTF-8"?>
<svg version="1.1" viewBox="0 0 128 128" xmlns="http://www.w3.org/2000/svg">
 <path d="m128 64c0 35.346-28.654 64-64 64s-64-28.654-64-64 28.654-64 64-64 64 28.654 64 64" fill="#529add" stroke-width=".2"/>
 <g transform="matrix(1.5442,0,0,1.5442,1050.6,201.31)">
  <rect x="-644.08" y="-117.41" width="31.084" height="59.577" ry="15.542" fill-opacity=".2" stroke-width=".99986"/>
  <rect x="-644.08" y="-120" width="31.084" height="59.577" ry="15.542" fill="#888" stroke-width=".99986"/>
  <g transform="translate(.77181)">
   <path d="m-619.34-75.969a9.9737 10.055 0 0 1-9.9737 10.055 9.9737 10.055 0 0 1-9.9737-10.055 9.9737 10.055 0 0 1 9.9737-10.055 9.9737 10.055 0 0 1 9.9737 10.055" fill="#69ff69" stroke="#555" stroke-width="4"/>
   <path d="m-619.35-76s-4.4817 6.6313-10.01 6.6313c-5.5285 0-10.001-6.5961-10.001-6.5961 0 5.5284 4.4724 10.001 10.001 10.001 5.5284 0 10.01-4.5077 10.01-10.036z" fill="#fff" fill-opacity=".37647"/>
  </g>
  <g transform="translate(.43044 -.23923)">
   <path d="m-619-103.97a9.9737 10.055 0 0 1-9.9737 10.055 9.9737 10.055 0 0 1-9.9737-10.055 9.9737 10.055 0 0 1 9.9737-10.055 9.9737 10.055 0 0 1 9.9737 10.055" fill="#ff6969" stroke="#555" stroke-width="4"/>
   <path d="m-619-104s-4.4817 6.6313-10.01 6.6313c-5.5285 0-10.001-6.5961-10.001-6.5961 0 5.5284 4.4724 10.001 10.001 10.001 5.5284 0 10.01-4.5077 10.01-10.036z" fill="#fff" fill-opacity=".37647" stroke-width=".99986"/>
  </g>
 </g>
 <path d="m18 92c-10.869-12.447-10.468-35.106 0-48m8 8c-5.5725 10.962-5.0897 21.603 0 32" fill="none" stroke="#000" stroke-linecap="round" stroke-opacity=".2" stroke-width="6"/>
 <path d="m38 40c-1.1079-4.78e-4 -2.0041 0.89212-2 2 0 0 0 52-1e-3 52.015 0.0082 1.099 0.90196 1.9854 2.001 1.9849l4.4023-0.0028c0.59358 3.73e-4 1.2174-0.54148 1.5977-0.9972l12-15h10c1.1053 4.73e-4 2.0005-0.8947 2-2v-20c-0.0013-1.1041-0.89595-2.0005-2-2h-10l-12-15c-0.38034-0.45572-1.0041-0.99496-1.5977-0.99454z" fill-opacity=".2"/>
 <path d="m38 36c-1.1079-4.78e-4 -2.0041 0.89212-2 2 0 0 0 52-1e-3 52.015 0.0082 1.099 0.90196 1.9854 2.001 1.9849l4.4023-0.0028c0.59358 3.73e-4 1.2174-0.54148 1.5977-0.9972l12-15h10c1.1053 4.73e-4 2.0005-0.8947 2-2v-20c-0.0013-1.1041-0.89595-2.0005-2-2h-10l-12-15c-0.38034-0.45572-1.0041-0.99496-1.5977-0.99454z" fill="#fff"/>
 <path d="m18 88c-10.869-12.447-10.468-35.106 0-48m8 8c-5.5725 10.962-5.0897 21.603 0 32" fill="none" stroke="#fff" stroke-linecap="round" stroke-width="6"/>
</svg>
