<?xml version="1.0" encoding="UTF-8"?>
<svg version="1.1" viewBox="0 0 128 128" xmlns="http://www.w3.org/2000/svg">
 <path d="m128 64c0 35.346-28.654 64-64 64-35.346 0-64-28.654-64-64 0-35.346 28.654-64 64-64 35.346 0 64 28.654 64 64" fill="#529add" stroke-width=".2"/>
 <path d="m59.978 58.883c0 1 1 2 2 2l2 0.12695v23.037h-0.5605c-0.9718 6.6e-4 -1.4088 0.46836-1.4355 1.4473l-0.029 1.0488c-0.027 0.97891 0.493 1.5029 1.4648 1.502l2.6172-2e-3 -0.024 3.5078c-0.016 2.5008 0.9958 3.4959 3.0293 3.4902l5.9297-0.0156c2.0358-6e-3 2.99-0.97391 3.0078-3.5957l0.022-3.3984 20.035-0.0195-0.024 3.4922c-0.016 2.5008 0.9958 3.4959 3.0293 3.4902l5.9297-0.0156c2.0358-6e-3 2.99-0.97391 3.0078-3.5957l0.022-3.3828 2.5215-2e-3c0.9735-9.2e-4 1.4637-0.48364 1.4707-1.4629l0.01-1.0176c0.01-0.97924-0.4972-1.5065-1.4707-1.5059h-0.5489v-21.877l2-0.125c1 0 2-1 2-2l0.0174-4.0097h-56z" fill-opacity=".2"/>
 <g transform="matrix(.75 0 0 .75 -722 480.59)" stroke-width="1.3333">
  <path d="m1066.7-524.23c-0.024 3.4957-1.2943 4.7866-4.0087 4.7942l-7.9075 0.0221c-2.7114 8e-3 -4.0598-1.3206-4.0381-4.655l0.033-5.0265 15.954 0.0447z" fill="#555"/>
  <path d="m1117.3-566.12c0 1.3333-1.3333 2.6667-2.6666 2.6667l-2.6667 0.16785v-21.333l2.6667-0.16786c1.3333 0 2.6666 1.3633 2.6666 2.6667z" fill="#99aab5"/>
  <path d="m1069.3-603.46c-2.6666 0-5.3333 2.6667-5.3333 5.3333l-8-1e-5c-5.1849 0.0256-8 0.90931-8 6.125v28h64v-28c0-5.2157-2.6935-6.136-8-6.125h-7.873c-0.1982-2.7997-2.7937-5.3333-5.4603-5.3333z" fill="#ccd6dd"/>
  <path d="m1112-532h-64v-32h64z" fill="#ffcc4d"/>
  <path d="m1112-534h-64v-13.458h64z" fill="#ffac33"/>
  <path d="m1109.3-524.29c-0.024 3.4957-1.2943 4.7866-4.0087 4.7942l-7.9075 0.0221c-2.7114 8e-3 -4.0598-1.3206-4.0381-4.655l0.033-5.0265 15.954 0.0447z" fill="#555"/>
  <path d="m1114.7-530.76c-0.01 1.3057-0.6621 1.9499-1.9602 1.9511l-65.472 0.0621c-1.2957 1e-3 -1.987-0.69759-1.9514-2.0028l0.038-1.3974c0.036-1.3052 0.618-1.9299 1.9136-1.9308l65.48-0.0447c1.298-8.8e-4 1.971 0.7019 1.9616 2.0076z" fill="#66757f"/>
  <path d="m1112-563.46c0 4-1.444 5.3333-5.3333 5.3333h-53.333c-3.8893 0-5.3333-1.421-5.3333-5.3333v-18.667c0-3.9124 1.444-5.3333 5.3333-5.3333h53.333c4 0 5.3333 1.3333 5.3333 5.3333z" fill="#66757f"/>
  <path d="m1108-565.96c0 2.2292-1.3333 3.8322-4 3.8322l-48 0.13771c-2.5913 0-4.1037-1.5331-4-4.1377v-13.875c0.1037-2.6046 1.4087-3.4583 4-3.4583h48c2.5937 0 4 0.85166 4 3.4583z" fill="#88c9f9"/>
  <path d="m1090.7-536.79h-21.333v-8h21.333z" fill="#99aab5"/>
  <path d="m1089.3-594.12h-18.667c-1.3334 0-2.6667-1.3333-2.6667-2.6667 0-1.3333 1.6374-2.6667 2.6667-2.6667h18.667c1.3334 0 2.6667 1.3333 2.6667 2.6667 0 1.3333-1.3333 2.6667-2.6667 2.6667z" fill="#555"/>
  <path d="m1061.4-540.85a5.3051 5.3051 0 0 1-5.3051 5.3051 5.3051 5.3051 0 0 1-5.3051-5.3051 5.3051 5.3051 0 0 1 5.3051-5.3051 5.3051 5.3051 0 0 1 5.3051 5.3051" fill="#fff" style="paint-order:normal"/>
  <path d="m1109.2-540.85a5.3051 5.3051 0 0 1-5.3051 5.3051 5.3051 5.3051 0 0 1-5.305-5.3051 5.3051 5.3051 0 0 1 5.305-5.3051 5.3051 5.3051 0 0 1 5.3051 5.3051" fill="#fff" style="paint-order:normal"/>
  <path d="m1042.7-567.63c0 1.3333 1.3333 2.6667 2.6667 2.6667l2.6666 0.16786v-21.333l-2.6666-0.16785c-1.3334 0-2.6667 1.3633-2.6667 2.6667z" fill="#99aab5"/>
 </g>
 <g transform="matrix(.2165 0 0 -.2165 -7.6799 127.4)" fill="#fff" style="paint-order:stroke fill markers">
  <g transform="translate(8.651e-5 -18.476)" style="paint-order:stroke fill markers">
   <path d="m165.93 137.01c59.696 52.084 64.964 101.51 69.037 159.56 50.105-53.016 63.355-100.61 73.903-159.56" fill="none" stroke="#000" stroke-linecap="round" stroke-opacity=".2" stroke-width="50.808"/>
   <path d="m169.67 298.17c-0.38542 43.088 18.025 78.483 65.301 97.504 33.884-28.962 51.558-72.088 109.57-100.39" fill="none" stroke="#000" stroke-linecap="round" stroke-linejoin="round" stroke-opacity=".2" stroke-width="50.808"/>
   <path transform="scale(1,-1)" d="m301.12-483.5a48.632 48.632 0 0 1-48.632 48.632 48.632 48.632 0 0 1-48.632-48.632 48.632 48.632 0 0 1 48.632-48.632 48.632 48.632 0 0 1 48.632 48.632" fill="#000" fill-opacity=".2" style="paint-order:normal"/>
   <path d="m391.91 264.66 127.27-137.37" fill="none" stroke="#000" stroke-linecap="round" stroke-opacity=".2" stroke-width="27.714"/>
  </g>
  <path d="m165.93 137.01c59.696 52.084 64.964 101.51 69.037 159.56 50.105-53.016 63.355-100.61 73.903-159.56" fill="none" stroke="#fff" stroke-linecap="round" stroke-width="50.808"/>
  <path d="m234.97 395.67c-8.121-30.793-2.0045-72.048 3.7364-102.84" fill="none" stroke="#fff" stroke-width="55.428"/>
  <path d="m169.67 298.17c-0.38542 43.088 18.025 78.483 65.301 97.504 33.884-28.962 51.558-72.088 109.57-100.39" fill="none" stroke="#fff" stroke-linecap="round" stroke-linejoin="round" stroke-width="50.808"/>
  <path transform="scale(1,-1)" d="m301.12-483.5a48.632 48.632 0 0 1-48.632 48.632 48.632 48.632 0 0 1-48.632-48.632 48.632 48.632 0 0 1 48.632-48.632 48.632 48.632 0 0 1 48.632 48.632" fill="#fff" style="paint-order:normal"/>
  <path d="m391.91 264.66 127.27-137.37" fill="none" stroke="#fff" stroke-linecap="round" stroke-width="27.714"/>
 </g>
</svg>
