<?xml version="1.0" encoding="UTF-8"?>
<svg version="1.1" viewBox="0 0 128 128" xml:space="preserve" xmlns="http://www.w3.org/2000/svg"><circle cx="64" cy="64" r="64" fill="#9bbe55" stroke-opacity=".2" stroke-width="12"/><path d="m67.907 18.027c-5.42 0-9.9844 4.5643-9.9844 9.9844s4.5643 9.9844 9.9844 9.9844 9.9844-4.5643 9.9844-9.9844-4.5643-9.9844-9.9844-9.9844zm-37.084 25.676c-2.2821 0-4.2793 1.9953-4.2793 4.2773 0 2.2822 1.9972 4.2793 4.2793 4.2793h0.39258l16.102 20.746c-0.80455 1.2098-1.3237 2.6252-1.4668 4.1211-11.287-0.54026-22.681-1.6213-34.229-3.4746l8.3594 28.898 50.951 0.88476 6.8809 8.8672 4.3535-3.3789-4.1641-5.3652 28.752 0.5c4.762-8.0358 14.674-30.357 14.674-30.357-9.4386 1.1205-18.913 2.059-28.439 2.7363l-8.8203-26.459c-1.4262-3.9938-4.8502-6.2754-8.8438-6.2754h-11.695zm7.3691 8.5566h25.885c0.25285 1.1149 0.55778 2.3205 0.97852 3.709l5.666 14.938c-2.3579-1.2411-4.7761-2.5348-7.0918-3.8125-2.2821-1.1411-4.849-0.85611-6.8457 0.85547l-1.3457 1.3867c-0.39645-0.06077-0.79936-0.10348-1.2129-0.10547-0.89612-0.0043-1.7513 0.13856-2.5508 0.40234z" fill-opacity=".2"/><path d="m74.469 76.788h19.968l-10.27-30.808c-1.4263-3.9938-4.8496-6.2759-8.8432-6.2759h-11.696s-1.4263 2.8527 1.4263 12.266z" fill="#fff" stroke-width=".15071"/><path d="m84.453 73.936c-2.8526-1.4263-12.552-6.2759-20.824-10.84-2.2821-1.1411-4.8496-0.8558-6.8464 0.85578l-9.699 9.9844z" fill="#fff" stroke-width=".15071"/><path d="m67.908 14.029c5.4201 0 9.9844 4.5643 9.9844 9.9844s-4.5643 9.9844-9.9844 9.9844-9.9844-4.5643-9.9844-9.9844 4.5643-9.9844 9.9844-9.9844" fill="#fff" stroke-width=".15071"/><path d="m106.75 100.06c4.762-8.0359 14.673-30.359 14.673-30.359-35.756 4.2447-72.002 6.0186-109.81-0.04881l8.359 28.9z" fill="#ff754c" stroke-width=".13673"/><path d="m31.031 43.528 48.959 63.087" fill="#c08a5e" stroke="#546e7a" stroke-width="5.5116"/><path d="m47.876 73.936c0.0205-3.5488 2.7904-6.6536 6.3392-6.6366 3.5488 0.01703 6.4129 3.0886 6.3992 6.6375" fill="none" stroke="#ff754c" stroke-width="4.1337"/><path d="m30.823 48.261h40.222c2.2821 0 4.2789-1.9968 4.2789-4.2789s-1.9968-4.2789-4.2789-4.2789h-40.222c-2.2821 0-4.2789 1.9968-4.2789 4.2789 0 2.2822 1.9968 4.2789 4.2789 4.2789z" fill="#fff" stroke-width=".15071"/><path d="m-132.46 59.136 48.959 63.087" color="#000000" fill="#c08a5e" stroke-width="5.5116" style="-inkscape-stroke:none"/><path d="m123.35 88.405c-5.1564 12.794-14.453 24.03-27.326 31.462-7.7605 4.4805-16.069 7.1425-24.437 8.1334h-15.076c-19.348-2.3041-37.407-13.383-47.898-31.555-1.514-2.6222-2.8059-5.3111-3.9116-8.0397 10.013-1.9688 19.727-1.5772 29.662 0 10.141 1.6099 21.61 2.168 29.662 0 17.974-4.8393 22.901 1.942 29.662 0 5.6582-1.6251 14.599-9.3239 17.139-0.42697z" fill="#3e74c9" stroke-width=".19997"/><path d="m106.65 88.11c1.0379 0.0297 1.9741 0.34965 2.7593 1.074-1.4797 2.0743-3.225 4.0505-4.4935 5.2159-15.774 14.475-83.301 5.7686-83.301 5.7686s-1.0547-3.6261-2.2164-8.5611c6.9288-0.46511 7.788 0.0364 14.754 1.1424 10.141 1.6099 21.611 2.168 29.663 0 17.974-4.8393 22.9 1.942 29.661 0 3.7132-1.0665 9.3693-4.7488 13.173-4.6399z" fill="#3665ae"/><path d="m71.599 92.117c-4.5556 7.2165 4.3685 22.022 15.034 29.556 5.3969-0.88427 10.676-3.7099 13.123-9.1843-5.7829-8.5046-17.95-22.474-28.156-20.372z" fill="#3665ae"/></svg>
