<?xml version="1.0" encoding="UTF-8"?>
<svg version="1.1" viewBox="0 0 128 128" xml:space="preserve" xmlns="http://www.w3.org/2000/svg"><path d="m128 64c0 35.346-28.654 64-64 64s-64-28.654-64-64 28.654-64 64-64 64 28.654 64 64" fill="#ca72e2" stroke-width=".2"/><path d="m36.222 24h55.056c4.6935 0 8.472 3.7785 8.472 8.472v63.056c0 4.6935-3.7785 8.472-8.472 8.472h-55.056c-4.6935 0-8.472-3.7785-8.472-8.472v-63.056c0-4.6935 3.7785-8.472 8.472-8.472z" fill="none" stroke="#000" stroke-opacity=".2" stroke-width="8"/><path d="m36.347 20.111h55.056c4.6935 0 8.472 3.7785 8.472 8.472v63.056c0 4.6935-3.7785 8.472-8.472 8.472h-55.056c-4.6935 0-8.472-3.7785-8.472-8.472v-63.056c0-4.6935 3.7785-8.472 8.472-8.472z" fill="#495aad" stroke="#fff" stroke-opacity=".98995" stroke-width="8"/><g fill="#fff"><path d="m87.877 34.554c-2.2991-2.2945-5.4742-3.7008-8.9791-3.6747-5.7972 0-10.82 3.9139-12.454 9.1209h-27.405l-3.1621 3.1557v2.1038l5.2702 5.2596h3.1621l3.1621-3.1557h1.054l3.1621 3.1557h6.3242l3.1621-3.1557h5.2702c1.5284 5.3122 6.5517 8.971 12.296 8.9184 7.1148 0.0526 12.859-5.68 12.859-12.728 0-3.5239-1.423-6.7064-3.7221-9.0009zm-2.4694 6.292c0.6983 0.69689 1.1333 1.657 1.1333 2.7089 0.05271 2.1564-1.6867 3.8923-3.9002 3.8923-2.1081 0-3.8477-1.7361-3.8477-3.8399s1.7394-3.8397 3.9002-3.8923c1.054 0 2.0161 0.43412 2.7144 1.131z" stroke-width=".74457"/><g stroke-width=".12799"><path d="m71.935 70.858h14.76l-4.0041-9.6067c-1.1084-2.4863-4.0927-2.2743-4.0927-2.2743h-29.389s-2.9837-0.21197-4.0922 2.2743l-4.0041 9.6067zm7.1054-9.0942 0.0555-5e-3h0.044c0.07099-5e-3 1.8249-0.07299 2.4163 1.2489l2.5408 6.1109h-8.6628l-3.0507-7.3548zm-14.747 0.83042c0-0.45646 0.36896-0.82993 0.82592-0.82993h3.6762c0.45795 0 0.82642 0.37397 0.82642 0.82993v5.6875c0 0.45696-0.36896 0.83693-0.82642 0.83693h-3.6762c-0.45696 0-0.82592-0.37896-0.82592-0.83693zm-7.6548 0c0-0.45646 0.36896-0.82993 0.82742-0.82993h3.6637c0.45845 0 0.82742 0.37397 0.82742 0.82993v5.6875c0 0.45696-0.36896 0.83693-0.82742 0.83693h-3.6637c-0.45845 0-0.82742-0.37896-0.82742-0.83693zm-7.6653 0c0-0.45646 0.36896-0.82993 0.82592-0.82993h3.6767c0.45696 0 0.82592 0.37397 0.82592 0.82993v5.6875c0 0.45696-0.36896 0.83693-0.82592 0.83693h-3.6767c-0.45696 0-0.82592-0.37896-0.82592-0.83693z"/><path d="m86.418 85.227c-1.0254 0-2.0124 0.24048-2.8792 0.64544-0.85243 0.38496-1.8003 0.61345-2.7968 0.61395-0.99191-5.12e-4 -1.9448-0.22848-2.7913-0.61395-0.87742-0.40547-1.8584-0.64544-2.8857-0.64544h-3e-3c-1.0319 0-2.0069 0.24048-2.8892 0.64544-0.84342 0.38546-1.8023 0.61395-2.7887 0.61395-0.99291 0-1.9473-0.22848-2.7958-0.61395-0.86541-0.40547-1.8524-0.64544-2.8792-0.64544h-0.0075c-1.0259 0-2.0133 0.24048-2.8792 0.64544-0.84792 0.38546-1.8028 0.61395-2.7947 0.61395-0.98791 0-1.9468-0.22848-2.7892-0.61395-0.88291-0.40547-1.8588-0.64544-2.8887-0.64544h-4e-3c-1.0264 0-2.0069 0.24048-2.8847 0.64544-0.84642 0.38496-1.8003 0.61345-2.7913 0.61395-0.99641-5.12e-4 -1.9443-0.22848-2.7972-0.61395-0.86592-0.40547-1.8533-0.64544-2.8792-0.64544s-2.0069 0.24048-2.8847 0.64544c-0.84393 0.38546-1.7973 0.61395-2.7908 0.61395v4.2376c0.99291 0 1.9473-0.22398 2.7908-0.61494 0.87692-0.40646 1.8588-0.64544 2.8847-0.64544s2.0133 0.23998 2.8792 0.64544c0.85243 0.38947 1.7984 0.61245 2.7932 0.61444h0.0085c0.9864 0 1.9408-0.22398 2.8013-0.61494 0.87192-0.40646 1.8524-0.64544 2.8727-0.64544 1.0194 0 2.0069 0.23998 2.8713 0.64544 0.86142 0.39096 1.8099 0.61494 2.8078 0.61494h3e-3c0.9929 0 1.9518-0.22398 2.7958-0.61494 0.87541-0.40547 1.8568-0.64494 2.8813-0.64544 1.0239 5.12e-4 2.0033 0.23998 2.8802 0.64544 0.84393 0.39096 1.8028 0.61494 2.7958 0.61494h0.002512c0.99891 0 1.9473-0.22398 2.8078-0.61494 0.86542-0.40646 1.8513-0.64544 2.8713-0.64544s2.0013 0.23998 2.8722 0.64544c0.86092 0.39096 1.8138 0.61494 2.8013 0.61494h0.0095c0.9939-2e-3 1.9408-0.22498 2.7922-0.61444 0.86642-0.40547 1.8538-0.64544 2.8792-0.64544 1.0259 0 2.0079 0.23998 2.8857 0.64544 0.84342 0.39096 1.7973 0.61494 2.7903 0.61494v-4.2376c-0.99291 0-1.9473-0.22848-2.7903-0.61395-0.87942-0.40547-1.8608-0.64544-2.8868-0.64544z"/><path d="m44.324 82.06 0.033 0.017c0.48546 0.19498 0.99191 0.24498 1.4904 0.35647 0.27347 0.027 0.54046 0.08699 0.81942 0.08849h7e-3c0.9864 0 1.9403-0.22248 2.8003-0.60694 0.87242-0.40696 1.8543-0.64744 2.8737-0.64744 1.0194 0 2.0069 0.24048 2.8727 0.64744 0.86042 0.38496 1.8089 0.60694 2.8068 0.60694h0.001024c0.99291 0 1.9523-0.22248 2.7968-0.60694 0.87642-0.40696 1.8569-0.64594 2.8818-0.64694 1.0239 5.12e-4 2.0043 0.24048 2.8813 0.64694 0.84393 0.38496 1.8028 0.60694 2.7958 0.60694h0.0015c0.99841 0 1.9468-0.22248 2.8078-0.60694 0.86542-0.40696 1.8533-0.64744 2.8727-0.64744s2.0024 0.24048 2.8732 0.64744c0.86042 0.38496 1.8138 0.60694 2.8013 0.60694h7e-3c0.27997-0.0015 0.54694-0.06149 0.82043-0.08849 0.49695-0.11149 1.0039-0.16198 1.4889-0.35647l0.033-0.017c3.6072-1.4774 6.7233-5.1455 8.6652-7.8783l0.96841-1.6678h-58.034l0.9704 1.6673c1.9408 2.7332 5.0571 6.4015 8.6636 7.8788z"/></g></g></svg>
