<?xml version="1.0" encoding="UTF-8"?>
<svg version="1.1" viewBox="0 0 128.03 128.03" xmlns="http://www.w3.org/2000/svg">
 <path d="m123.35 88.017c-13.255 32.767-50.563 48.584-83.33 35.33-32.767-13.255-48.584-50.563-35.33-83.33 13.255-32.767 50.563-48.584 83.33-35.33s48.584 50.563 35.33 83.33" fill="#c8c4b7" stroke-width=".2"/>
 <path d="m23.944 64.017 40-40 40 40" fill="none" stroke="#000" stroke-linecap="square" stroke-opacity=".2" stroke-width="11.2"/>
 <path d="m23.944 60.281 40-40 40 40" fill="none" stroke="#c84747" stroke-linecap="square" stroke-width="11.2"/>
 <path d="m63.944 32.017-32 32v55.375c2.5633 1.4805 5.2497 2.8133 8.0723 3.9551 7.8503 3.1756 15.961 4.6651 23.939 4.6699h1.2832c10.856-0.21244 21.417-3.2112 30.705-8.5508v-55.449z" fill="#fff" stroke-width=".2"/>
 <g transform="rotate(-60 -331.65 -34.848)">
  <path d="m-260.63 369.84h80.462c1.5342 0 2.7692 1.2351 2.7692 2.7692v18.462c0 1.5342-1.2351 2.7692-2.7692 2.7692h-80.462c-1.5342 0-2.7692-1.2351-2.7692-2.7692v-18.462c0-1.5342 1.2351-2.7692 2.7692-2.7692z" fill-opacity=".2"/>
  <path d="m-257.34 368h80.69c1.4709 0 2.655 1.2351 2.655 2.7692v18.462c0 1.5342-1.1841 2.7692-2.655 2.7692h-80.69c-1.4709 0-2.655-1.2351-2.655-2.7692v-18.462c0-1.5342 1.1841-2.7692 2.655-2.7692z" fill="#cc826b"/>
  <path d="m-177 368-5.9993-4.2e-4 5.1e-4 16.001 5.9993 4.2e-4zm-11.999-8.4e-4 -5.6194 1e-3 -2.3e-4 7.9996 5.6204 4.1e-4zm-12 1.4e-4 -6.001 5.5e-4 5.1e-4 16.001 6.001-5.5e-4zm-12 1.3e-4 -6.001 5.6e-4 7.4e-4 8.0013 6.001-5.6e-4zm-12 1.4e-4 -6.001 5.6e-4 5.1e-4 16.001 6.001-5.6e-4zm-12 1.4e-4 -5.9993-4.2e-4 7.4e-4 8.0013 5.9993 4.2e-4zm-12 1.3e-4 -5.9993-4.2e-4 5.1e-4 16.001 5.9993 4.3e-4z" fill="#ac573d" style="paint-order:normal"/>
 </g>
</svg>
