<?xml version="1.0" encoding="UTF-8"?>
<svg version="1.1" viewBox="0 0 128 128" xmlns="http://www.w3.org/2000/svg">
 <path d="m128 64c0 35.346-28.654 64-64 64s-64-28.654-64-64 28.654-64 64-64 64 28.654 64 64" fill="#9bbe55"/>
 <path d="m88.02 17.994c-0.139 0-0.27776 0.0118-0.41406 0.0391l-40 8c-0.70388 0.14044-1.2786 0.64728-1.5059 1.3281l-16 48c-0.48594 1.4575 0.78464 2.896 2.291 2.5937l17.111-3.4219-7.4726 41.104c-0.356 1.9622 2.0643 3.1799 3.4277 1.7246l60-64c1.3282-1.4197 0.055-3.7081-1.8516-3.3281l-35.566 7.1133 21.674-36.123c0.79504-1.3249-0.14834-3.0125-1.6934-3.0293z" fill-opacity=".2"/>
 <path d="m48 24-16 48 20-4-8 44 60-64-40 8 24-40z" fill="#fd5" stroke="#fac800" stroke-linejoin="round" stroke-width="4"/>
</svg>
