<?xml version="1.0" encoding="UTF-8"?>
<svg version="1.1" viewBox="0 0 128 128" xmlns="http://www.w3.org/2000/svg">
 <path d="m128 64a64 64 0 0 1-64 64 64 64 0 0 1-64-64 64 64 0 0 1 64-64 64 64 0 0 1 64 64" fill="#fd5"/>
 <path d="m57.807 16a50 50 0 0 0-40.258 20.609 50 50 0 0 0 11.062 69.842 50 50 0 0 0 69.84-11.063 50 50 0 0 0-11.062-69.84 50 50 0 0 0-0.07617-0.05664 50 50 0 0 0-29.506-9.4922zm-8.6406 21.254 2.0371 15.373a15 15 0 0 0-3.8516 2.8086l-13.904-6.6621c0.09527-0.13559 0.18346-0.2736 0.28125-0.4082 4.0044-5.5116 9.462-9.2644 15.438-11.111zm17.668 0.04297c3.0649 0.9601 6.0392 2.4253 8.8008 4.4316 2.7653 2.0091 5.0801 4.3874 6.9414 7.0098l-13.941 6.6816a15 15 0 0 0-1.8184-1.5566 15 15 0 0 0-2.0391-1.2461zm-8.8457 23.703a5 5 0 0 1 2.9512 0.95508 5 5 0 0 1 1.1055 6.9824 5 5 0 0 1-6.9844 1.1074 5 5 0 0 1-1.1055-6.9844 5 5 0 0 1 4.0332-2.0606zm30.08 4.5312c0.08696 6.25-1.797 12.596-5.7988 18.104-0.09755 0.13426-0.20153 0.26041-0.30078 0.39257l-10.633-11.166a15 15 0 0 0 1.4805-4.5274zm-60.129 0.01367 15.246 2.8008a15 15 0 0 0 1.4629 4.4902l-10.662 11.197c-4.089-5.3867-6.1594-11.91-6.0469-18.488zm27.686 15.266a15 15 0 0 0 4.7188 0.0039l7.375 13.637c-6.2202 2.1387-13.062 2.1817-19.447-0.04101z" fill-opacity=".2"/>
 <g transform="matrix(-1.0113 .73473 -.73473 -1.0113 157.61 88.515)">
  <path d="m23.468 73.27c5.0959 15.684 22.119 24.357 37.802 19.261 15.684-5.0959 24.357-22.119 19.261-37.802-5.0959-15.684-22.119-24.357-37.802-19.261-15.684 5.0959-24.357 22.119-19.261 37.802zm3.8042-1.2361c-4.4613-13.731 2.9625-28.301 16.693-32.762 13.731-4.4613 28.301 2.9625 32.762 16.693 4.4613 13.731-2.9625 28.301-16.693 32.762-13.731 4.4613-28.301-2.9625-32.762-16.693z" color="#000000" fill="#bbb" stroke="#999" stroke-linecap="round" stroke-linejoin="round" stroke-width="4"/>
  <path d="m13.981 76.433a40 40 0 0 0 50.379 25.609 40 40 0 0 0 25.682-50.403 40 40 0 0 0-50.403-25.682 40 40 0 0 0-25.682 50.403 40 40 0 0 0 0.02354 0.07244zm11.389-3.7806a28 28 0 0 1 17.977-35.282 28 28 0 0 1 35.282 17.977 28 28 0 0 1-17.977 35.282 28 28 0 0 1-35.282-17.977z" fill="#333"/>
  <circle transform="rotate(252)" cx="-76.936" cy="29.678" r="12" fill="#999"/>
  <path d="m30.01 81.333c3.1944 4.0532 7.4468 7.1447 12.288 8.9331l9.7228-17.941 9.6981 17.934c4.8381-1.7903 9.0875-4.8823 12.279-8.935l-14.047-14.752 20.026-3.6768c-0.10096-2.5655-0.55428-5.1049-1.3472-7.5468-0.79382-2.4417-1.9197-4.7625-3.346-6.8974l-18.358 8.7949 2.6918-20.189c-4.965-1.4034-10.221-1.4076-15.189-0.01216l2.6952 20.209-18.401-8.8115c-2.8686 4.2904-4.4956 9.2901-4.7013 14.447l20.067 3.6822z" fill="#bbb"/>
  <circle transform="rotate(252)" cx="-76.936" cy="29.678" r="5.6" fill="#999"/>
 </g>
 <path d="m56 94c0-11 12-5 20 3s10 15 16 15 8-4 8-12v-28" fill="none" stroke="#000" stroke-opacity=".2" stroke-width="4"/>
 <path d="m99.988 30.111c-10.909 1e-6 -19.801 8.8915-19.801 19.801 0 8.102 4.9096 15.083 11.902 18.143v7.8691h15.91v-7.9238c6.9307-3.086 11.787-10.031 11.787-18.088 0-10.909-8.8896-19.801-19.799-19.801z" fill-opacity=".2"/>
 <path d="m56 94c0-11 12-6 20 2s10 12 16 12 8-4 8-12v-28" fill="none" stroke="#666" stroke-width="4"/>
 <g transform="matrix(.99435 0 0 .99435 6.5309 10.203)">
  <circle cx="93.987" cy="35.987" r="17.7" fill="#fff" stroke="#4461c3" stroke-width="4"/>
  <rect x="86.045" y="54.148" width="16" height="8" fill="#4461c3"/>
  <circle cx="94" cy="36" r="4.0227" fill="#333"/>
  <path d="m85.215 41.208a10.213 10.213 0 0 1 2.1645-12.981 10.213 10.213 0 0 1 13.16-0.07119 10.213 10.213 0 0 1 2.3049 12.957" fill="none" stroke="#aaa" stroke-width="4"/>
  <path d="m94 23.932-2.0114 22.125h4.0227z" fill="none"/>
  <rect x="91.989" y="25.943" width="4.0227" height="16.091" fill="#333"/>
 </g>
</svg>
