<?xml version="1.0" encoding="UTF-8"?>
<svg version="1.1" viewBox="0 0 128 128" xmlns="http://www.w3.org/2000/svg">
 <path class="st0" d="m128 64a64 64 0 0 1-64 64 64 64 0 0 1-64-64 64 64 0 0 1 64-64 64 64 0 0 1 64 64" fill="#fd5"/>
 <path d="m46.295 26.301c-7.5022 2.073-14.858 4.6811-18.848 6.9372-5.683 3.2129-5.2861 15.984-4.6736 22.563-0.56568-0.15898-1.1772-0.18188-1.7854-0.01383l-4.2861 1.1843c-1.7768 0.49096-2.8189 2.3262-2.3278 4.1033 0.49104 1.7771 2.3278 2.8184 4.1047 2.3274l2.3893-0.66019c-0.6116 2.9023 0.45918 6.7948 0.45918 6.7948l7.6997 27.866c0.65388 2.3664 3.104 3.7557 5.4704 3.1018l6.4307-1.7769c2.3664-0.65388 3.7571-3.1044 3.1032-5.4708l-0.23939-0.86635c6.0555-0.74868 11.63-2.2809 19.531-4.4643 7.9017-2.1834 13.47-3.7287 19.052-6.1952l0.23896 0.8648c0.65388 2.3664 3.1055 3.7552 5.4718 3.1014l6.4307-1.7769c2.3664-0.65388 3.7557-3.104 3.1018-5.4704l-7.6997-27.866c-0.87773-3.1766-2.018-5.009-3.1069-6.0632l2.4015-0.66357c1.7748-0.4904 2.8184-2.3278 2.3274-4.1047-0.49098-1.7769-2.3295-2.8164-4.1043-2.326l-4.2861 1.1843c-0.60714 0.16776-1.1197 0.5016-1.5234 0.9281-2.852-5.9606-9.0693-17.124-15.597-16.962-4.5831 0.11281-12.232 1.6508-19.735 3.7239z" fill-opacity=".2"/>
 <path d="m94.002 61.863-12.287 13.984 0.77539 2.8066c0.65387 2.3664 3.1082 3.7554 5.4746 3.1016l6.4277-1.7773c2.3664-0.65387 3.7574-3.1043 3.1035-5.4707l-3.4941-12.645zm-69.836 14.451 4.7383 17.146c0.6539 2.3664 3.1063 3.7574 5.4727 3.1035l6.4297-1.7773c2.3664-0.6539 3.6659-3.0814 3.1016-5.4707l-0.4707-1.998-19.271-11.004z" fill="#555"/>
 <path d="m65.908 18.637c-9.166 0.225-30.602 6.1476-38.584 10.66-5.6874 3.2154-5.2833 15.978-4.6699 22.553-0.35847-0.10052-0.73737-0.14331-1.1211-0.11719-0.22122 0.01506-0.44389 0.0519-0.66602 0.11328l-4.2871 1.1855c-1.7769 0.491-2.8191 2.3265-2.3281 4.1035 0.491 1.7769 2.3265 2.8172 4.1035 2.3262l2.3906-0.66016c-0.61219 2.9025 0.45898 6.7949 0.45898 6.7949l4.7383 17.148s2.0501 6.4239 10.941 6.2051c9.166-0.2256 15.596-2.0015 26.314-4.9629 9.0758-2.4155 17.274-4.8175 25.131-9.25 3.9685-2.409 6.8871-5.9428 6.2051-10.945-1.5786-5.7164-3.1586-11.432-4.7383-17.148-0.87759-3.1761-2.0189-5.0083-3.1074-6.0625l2.4023-0.66406c1.7748-0.4904 2.8191-2.3266 2.3281-4.1035-0.42963-1.5549-1.892-2.5446-3.4395-2.4395-0.22106 0.01502-0.44417 0.05198-0.66602 0.11328l-4.2871 1.1836c-0.60937 0.16838-1.1231 0.50283-1.5273 0.93164-2.8466-5.9546-9.0552-17.126-15.592-16.965z" fill="#3b88c3"/>
 <path d="m52.54 45.402c8.3703-2.3128 18.602-4.6785 26.055-5.9027l-5.4378-11.33c-3.9203-5.8383-16.782-2.2845-25.355 0.08452-8.574 2.3691-21.435 5.9227-21.802 12.946l1.1508 12.515c7.0242-2.7761 17.019-5.9992 25.389-8.312" fill="#bbddf5"/>
 <path d="m81.07 49.365c-0.65587-0.02099-1.3247 0.05633-1.9902 0.24024l-2.1445 0.5918c-3.5497 0.9809-5.6338 4.6552-4.6523 8.207 0.9814 3.5518 4.6573 5.6351 8.207 4.6543l2.1426-0.5918c3.5497-0.9808 5.6357-4.6552 4.6543-8.207-0.79739-2.8858-3.3747-4.8036-6.2168-4.8945zm-45.012 12.438c-0.65601-0.02095-1.3262 0.05622-1.9922 0.24024l-2.1445 0.5918c-3.5518 0.9814-5.6357 4.6552-4.6543 8.207 0.9814 3.5518 4.6572 5.6357 8.209 4.6543l2.1426-0.5918c3.5518-0.9814 5.6357-4.6572 4.6543-8.209-0.79739-2.8858-3.3721-4.8018-6.2148-4.8926z" fill="#fff"/>
 <path d="m79.438 43.629c-5.9249-0.11605-11.322 1.7196-11.646 1.834-1.1547 0.40526-1.7717 1.6674-1.3691 2.8262 0.39875 1.1611 1.6644 1.7757 2.8242 1.375 0.09948-0.03258 9.945-3.3666 16.23-0.31836 0.69377 0.3377 1.4803 0.27807 2.0996-0.085937 0.36425-0.21412 0.67257-0.53794 0.87305-0.94727 0.53594-1.1069 0.07566-2.4347-1.0312-2.9707-2.4847-1.2045-5.2874-1.6601-7.9805-1.7129zm-39.51 9.6094c-0.14806 4.97e-4 -0.29823 0.015688-0.44922 0.046875-0.49069 0.09946-12.056 2.5829-16.902 9.9727-0.6725 1.0282-0.38742 2.4053 0.63867 3.0801 0.38222 0.24832 0.81192 0.36657 1.2344 0.36328 0.71828-0.0056 1.4215-0.35789 1.8457-1.0039 3.8285-5.8431 13.99-8.0354 14.092-8.0586 1.2011-0.25176 1.9725-1.4298 1.7207-2.6309-0.22029-1.051-1.1433-1.773-2.1797-1.7695zm30.826 20.9c-2.7956-0.014156-6.234 0.49431-9.8594 1.4961h-0.001953c-8.2868 2.2898-14.411 6.2886-13.523 9.5039 0.4904 1.7748 7.0137-0.7844 15.301-3.0742 8.287-2.2898 15.199-3.4419 14.709-5.2168-0.49973-1.8086-3.0307-2.6908-6.625-2.709z" fill="#269"/>
 <path d="m30.554 80.283c-1.0697-0.60653-1.444-1.9612-0.83749-3.0309 0.53303-0.94325 1.6512-1.3468 2.6436-1.0119 0.55652 0.07694 5.3889 0.42366 27.156-5.5908 21.767-6.0146 25.736-8.7931 26.174-9.1449 0.68175-0.79747 1.8443-1.0241 2.7881-0.48891 1.0697 0.60653 1.444 1.9612 0.83749 3.0309-1.6567 2.9218-16.476 7.5357-28.615 10.89-12.139 3.3542-27.225 7.0036-30.147 5.3468z" fill="#55acee"/>
 <path d="m94 88a20 14 0 0 0-19.793 12h39.586a20 14 0 0 0-19.793-12z" fill-opacity=".2"/>
 <path d="m94 84a20 14 0 0 0-19.793 12h39.586a20 14 0 0 0-19.793-12z" fill="#555"/>
</svg>
