<?xml version="1.0" encoding="UTF-8"?>
<svg version="1.1" viewBox="0 0 128 128" xmlns="http://www.w3.org/2000/svg">
 <path class="st0" d="m128 64a64 64 0 0 1-64 64 64 64 0 0 1-64-64 64 64 0 0 1 64-64 64 64 0 0 1 64 64" fill="#fd5"/>
 <path d="m88.676 11.632c-1.2569 0.0055-2.2824 1.0396-2.2754 2.2949l0.10937 25.133-18.279 0.08008-0.10742-25.133c-0.0054-1.2569-1.0396-2.2824-2.2949-2.2754-1.2569 0.0054-2.2824 1.0396-2.2754 2.2949l0.10742 25.133-2.2871 0.0098c-2.5236 0.01093-4.5598 2.0643-4.5488 4.5879 0.0126 2.5252 2.0643 4.5598 4.5879 4.5488l0.07227 15.996c0.0146 3.3734 1.8773 6.2781 4.6016 7.8496l0.01563 3.5566c0.0185 4.2587 2.9644 7.7948 6.9141 8.7891-0.05589 3.4635-0.13253 15.211-3.3789 29.279-3.6556-6.7636-8.3595-13.476-11.779-17.729 1.7641-2.9081 1.4498-6.735-1.0293-9.2871l-2.0703-2.1348c0.71158-2.539 0.12047-5.3688-1.8477-7.3965l-9.3281-9.6152c1.5149-1.4724 1.5505-3.8953 0.08007-5.4121-1.4723-1.5168-3.8992-1.5525-5.4141-0.08203l-1.373 1.332-14.662-15.105c-0.73334-0.75551-1.9534-0.77438-2.707-0.04102-0.75551 0.73334-0.77243 1.9534-0.03906 2.707l14.662 15.105-10.988 10.666-14.662-15.107c-0.73333-0.75551-1.9515-0.77438-2.7051-0.04102-0.75551 0.73334-0.77437 1.9534-0.04101 2.707l14.662 15.105-1.375 1.3359c-1.5168 1.4723-1.5524 3.8953-0.08008 5.4121 1.4742 1.5169 3.8953 1.5524 5.4121 0.08008l9.334 9.6133c1.9681 2.0276 4.7788 2.7002 7.3359 2.0664l2.0762 2.1367c2.4847 2.5598 6.3159 2.983 9.2774 1.2891 2.2202 2.383 11.365 13.029 14.994 20.762-0.84842 2.7784 0.63057 6.4278 7.5292 4.9053 6.2404-15.049 6.3594-27.116 7.25-42.603 3.9247-1.0413 6.8208-4.5924 6.8008-8.8398l-0.01367-3.5527c2.7138-1.5951 4.5478-4.5173 4.5332-7.8906l-0.06641-15.992c2.5219-0.01254 4.5581-2.0679 4.5488-4.5898-0.01093-2.5236-2.0695-4.5617-4.5898-4.5508l-2.2813 0.0098-0.10937-25.133c-0.0054-1.2569-1.0396-2.2824-2.2949-2.2754z" fill-opacity=".2" stroke-width="2.2848"/>
 <g transform="matrix(1.6226 1.6086 1.6086 -1.6226 14.02 50.387)">
  <path d="m12.858 20.736c0.389-0.389 0.389-1.025 0-1.414s-1.025-0.389-1.414 0l-8.485 8.486c-0.389 0.388-0.389 1.025 0 1.414 0.388 0.389 1.025 0.389 1.414 0z" fill="#9aaab4"/>
  <path d="m19.93 27.807c0.389-0.389 0.389-1.025 0-1.414s-1.025-0.389-1.414 0l-8.486 8.486c-0.389 0.388-0.389 1.025 0 1.414 0.388 0.389 1.025 0.389 1.414 0z" fill="#9aaab4"/>
  <path d="m30.438 11.65c0.899 1.533 0.705 3.53-0.61 4.844l-1.099 1.099c0.352 1.332 0.022 2.806-1.022 3.85l-4.949 4.95c0.78 0.781 0.78 2.047 0 2.828-0.781 0.781-2.049 0.781-2.829 1e-3l-9.9-9.9c-0.781-0.781-0.781-2.047 0-2.828 0.782-0.781 2.047-0.781 2.828 0l4.951-4.95c1.044-1.044 2.518-1.373 3.849-1.022l1.101-1.1c1.318-1.318 3.323-1.51 4.857-0.602 1.484-1.546 8.0573-8.2317 11.761-17.613 0.72799 0.60616 2.4574 2.7688 2.6802 3.0356-1.4017 5.678-7.1226 12.319-11.618 17.407z" fill="#444"/>
  <path d="m17.295 19.929 2.3669-4.9071 1.2441 1.8098 2.6844-3.9978-0.1702 9.4446-2.4882-3.6196-1.1488 4.8897z" fill="#fd5" style="paint-order:markers fill stroke"/>
 </g>
 <g transform="matrix(1.9137 .028502 .028502 -1.9137 -.7228 113.47)">
  <path d="m12.858 20.736c0.389-0.389 0.389-1.025 0-1.414s-1.025-0.389-1.414 0l-8.485 8.486c-0.389 0.388-0.389 1.025 0 1.414 0.388 0.389 1.025 0.389 1.414 0z" fill="#9aaab4"/>
  <path d="m19.93 27.807c0.389-0.389 0.389-1.025 0-1.414s-1.025-0.389-1.414 0l-8.486 8.486c-0.389 0.388-0.389 1.025 0 1.414 0.388 0.389 1.025 0.389 1.414 0z" fill="#9aaab4"/>
  <path d="m30.438 11.65c0.899 1.533 0.705 3.53-0.61 4.844l-1.099 1.099c0.352 1.332 0.022 2.806-1.022 3.85l-4.949 4.95c0.78 0.781 0.78 2.047 0 2.828-0.781 0.781-2.049 0.781-2.829 1e-3l-9.9-9.9c-0.781-0.781-0.781-2.047 0-2.828 0.782-0.781 2.047-0.781 2.828 0l4.951-4.95c1.044-1.044 2.518-1.373 3.849-1.022l1.101-1.1c1.318-1.318 3.323-1.51 4.857-0.602 1.484-1.546 8.824-9.8598 8.824-13.456 1.2347 0.047522 2.4966 0.24913 3.1366 0.334-1.0833 5.0016-6.086 12.271-9.1377 15.952z" fill="#444"/>
  <path d="m17.295 19.929 2.3669-4.9071 1.2441 1.8098 2.6844-3.9978-0.1702 9.4446-2.4882-3.6196-1.1488 4.8897z" fill="#fd5" style="paint-order:markers fill stroke"/>
 </g>
</svg>
