<?xml version="1.0" encoding="UTF-8"?>
<svg xmlns="http://www.w3.org/2000/svg" version="1.1" viewBox="0 0 128 128">
  <defs>
    <style>
      .cls-1 {
        fill: #4fc2e9;
      }

      .cls-2 {
        fill: #434a54;
      }

      .cls-3 {
        fill: #f6bb42;
      }

      .cls-4 {
        fill: #3bafda;
      }

      .cls-5 {
        fill: #f5f7fa;
      }

      .cls-6 {
        fill: #e6e9ed;
      }

      .cls-7 {
        fill: #ffce54;
      }

      .cls-8 {
        fill: #9bbe55;
      }
    </style>
  </defs>
  <!-- Generator: Adobe Illustrator 28.6.0, SVG Export Plug-In . SVG Version: 1.2.0 Build 709)  -->
  <g>
    <g id="Layer_1">
      <circle class="cls-8" cx="64" cy="64" r="64"/>
      <g>
        <path class="cls-6" d="M113.7,86.3h-34.6v-44.8l19.1,2.6,8.3,16.8,8.1,4.1c.7.4,1.2,1.1,1.2,1.9v17.3c0,1.2-1,2.2-2.2,2.2Z"/>
        <path class="cls-3" d="M44.6,36.6h-17.3c-1.2,0-2.2-1-2.2-2.2s1-2.2,2.2-2.2h17.3c1.2,0,2.2,1,2.2,2.2s-1,2.2-2.2,2.2Z"/>
        <polygon class="cls-1" points="106.5 60.8 98.2 44 79.1 41.4 79.1 60.8 106.5 60.8"/>
        <path class="cls-7" d="M105,34.4H14.3c-1.2,0-2.2,1-2.2,2.2v47.5c0,1.2,1,2.2,2.2,2.2h64.8c1.2,0,2.2-1,2.2-2.2v-36.7h23.8c1.2,0,2.2-1,2.2-2.2v-8.6c0-1.2-1-2.2-2.2-2.2Z"/>
        <g>
          <path class="cls-2" d="M44.6,73.3c-6,0-10.8,4.8-10.8,10.8s4.8,10.8,10.8,10.8,10.8-4.8,10.8-10.8c0-6-4.8-10.8-10.8-10.8Z"/>
          <path class="cls-2" d="M96.4,73.3c-6,0-10.8,4.8-10.8,10.8s4.8,10.8,10.8,10.8,10.8-4.8,10.8-10.8-4.8-10.8-10.8-10.8Z"/>
        </g>
        <rect class="cls-4" x="85.6" y="47.4" width="4.3" height="13.4"/>
        <g>
          <path class="cls-5" d="M48.3,87.9c-2.1,2.1-5.4,2.1-7.5,0-2.1-2.1-2.1-5.4,0-7.5,2.1-2.1,5.4-2.1,7.5,0,2.1,2.1,2.1,5.4,0,7.5Z"/>
          <path class="cls-5" d="M100.2,87.9c-2.1,2.1-5.4,2.1-7.5,0-2.1-2.1-2.1-5.4,0-7.5,2.1-2.1,5.4-2.1,7.5,0,2.1,2.1,2.1,5.4,0,7.5Z"/>
        </g>
        <path class="cls-6" d="M31.6,47.4H14.3c-1.2,0-2.2,1-2.2,2.2v34.6c0,1.2,1,2.2,2.2,2.2h17.3c1.2,0,2.2-1,2.2-2.2v-34.6c0-1.2-1-2.2-2.2-2.2Z"/>
        <path class="cls-2" d="M18,66.2c-.8.8-2.2.8-3.1,0-.8-.8-.8-2.2,0-3.1.8-.8,2.2-.8,3.1,0,.8.8.8,2.2,0,3.1Z"/>
        <path class="cls-1" d="M70.5,47.4h-30.2c-1.2,0-2.2,1-2.2,2.2v13c0,1.2,1,2.2,2.2,2.2h30.2c1.2,0,2.2-1,2.2-2.2v-13c0-1.2-1-2.2-2.2-2.2Z"/>
        <rect class="cls-4" x="53.2" y="47.4" width="4.3" height="17.3"/>
      </g>
    </g>
  </g>
</svg>