<?xml version="1.0" encoding="UTF-8"?>
<svg version="1.1" viewBox="0 0 128 128" xml:space="preserve" xmlns="http://www.w3.org/2000/svg"><circle cx="64" cy="64" r="64" fill="#9bbe55" stroke-opacity=".2" stroke-width="12"/><path d="m99.861 79.979h16.047v8h-8v12h-8v-12h-43.982c0 6.6274-5.3726 12.021-12 12.021s-12-5.3726-12-12c-3.4136-0.13049-6.8144 0.18814-10.166-0.18563-8.0337-1.2493-10.649-9.7899-9.5039-19.836-0.33007 8.2e-5 87.605 12 87.605 12z" fill-opacity=".2"/><g transform="matrix(-1 0 0 1 127.93 -4)"><path d="m104 88h-76c0-24 0-56 28-56h32c24 0 40 56 16 56z" fill="#deb486"/><path d="m28.579 68c-0.51995 6.7346-0.53514 13.645-0.53514 20h76c9.6849 0 12.849-9.1215 11.609-20z" fill="#c84747"/><path d="m84 72a16 16 0 0 0-16 16h32a16 16 0 0 0-16-16z" fill="#913636"/><circle cx="83.982" cy="88.022" r="12" fill="#555"/><path d="m12 80v8h8v12h8v-12l8-1.89e-4v-8z" fill="#aaa"/><rect x="44" y="48" width="16" height="36" ry="4" fill="#c08268"/><rect x="72" y="48" width="28" height="16" ry="4" fill="#95685e"/><path d="m37.241 39.984c-1.0234 1.2226-1.9273 2.5652-2.7363 4h71.984c-0.99658-1.427-2.0564-2.7655-3.1758-4z" fill="#c84747"/><circle cx="84" cy="88" r="5.9464" fill="#aaa"/></g></svg>
