<?xml version="1.0" encoding="UTF-8"?>
<svg version="1.1" viewBox="0 0 128 128" xmlns="http://www.w3.org/2000/svg">
 <path d="m128 64c0 35.346-28.654 64-64 64s-64-28.654-64-64 28.654-64 64-64 64 28.654 64 64" fill="#e9a76f"/>
 <rect x="16" y="36" width="96" height="64" rx="4.3636" ry="4.2857" fill-opacity=".2" />
 <rect x="16" y="32" width="96" height="64" rx="4.3636" ry="4.2857" fill="#fff" />
 <rect x="89" y="63" width="16" height="14" ry="2" fill="#efd27b" stroke="#e4b31d" stroke-width="2"/>
 <rect x="16" y="40" width="96" height="16" ry="0" fill="#444" />
 <rect x="20" y="64" width="44" height="8" ry="3.8258" fill="#ccc"/>
 <rect x="20" y="80" width="44" height="8" ry="4" fill="#ccc"/>
 <path d="m101 70h4m-12 0h-4m8-4-4 4 4 4 4-4z" fill="none" stroke="#e4b31d" stroke-linejoin="bevel" stroke-width="2"/>
</svg>
