<?xml version="1.0" encoding="UTF-8"?>
<svg version="1.1" viewBox="0 0 128 128" xml:space="preserve" xmlns="http://www.w3.org/2000/svg"><path class="st0" d="m128 64a64 64 0 0 1-64 64 64 64 0 0 1-64-64 64 64 0 0 1 64-64 64 64 0 0 1 64 64" fill="#fd5"/><g transform="translate(0,2)"><path d="m74.078 25.377c-2.5252 0.01256-4.5598 2.0643-4.5488 4.5879l-15.996 0.07227c-3.3734 0.01462-6.2781 1.8773-7.8496 4.6016l-3.5566 0.01563c-4.2587 0.01845-7.7948 2.9644-8.7891 6.9141-4.8957-0.07895-18.955-5.7384-24.79-11.523-1.1962 2.1721-2.4662 4.4025-3.7598 7.6651 8.0578 7.9883 22.023 12.911 28.6 12.991 1.0413 3.9247 4.5944 6.8208 8.8418 6.8008l3.5508-0.01367c1.5951 2.7138 4.5173 4.5478 7.8906 4.5332l15.992-0.06641c0.01254 2.5219 2.0679 4.5581 4.5898 4.5488 2.5236-0.01093 4.5637-2.0695 4.5527-4.5898l-0.0098-2.2832 25.131-0.10742c1.2569-0.0054 2.2824-1.0396 2.2754-2.2949-5e-3 -1.2569-1.0396-2.2825-2.2949-2.2754l-25.131 0.10937-0.080078-18.279 25.133-0.10742c1.2569-0.0054 2.2804-1.0396 2.2734-2.2949-5e-3 -1.2569-1.0377-2.2825-2.293-2.2754l-25.133 0.10742-0.0098-2.2871c-0.01093-2.5236-2.0663-4.5598-4.5898-4.5488z" fill-opacity=".2" stroke-width="2.2848"/><g transform="matrix(-1.6086 1.6226 1.6226 1.6086 63.448 -21.426)"><path d="m12.858 20.736c0.389-0.389 0.389-1.025 0-1.414s-1.025-0.389-1.414 0l-8.485 8.486c-0.389 0.388-0.389 1.025 0 1.414 0.388 0.389 1.025 0.389 1.414 0z" fill="#9aaab4"/><path d="m19.93 27.807c0.389-0.389 0.389-1.025 0-1.414s-1.025-0.389-1.414 0l-8.486 8.486c-0.389 0.388-0.389 1.025 0 1.414 0.388 0.389 1.025 0.389 1.414 0z" fill="#9aaab4"/><path d="m34.998-0.56584s-2.5582 10.147-4.5602 12.215c0.899 1.533 0.705 3.53-0.61 4.844l-1.099 1.099c0.352 1.332 0.022 2.806-1.022 3.85l-4.949 4.95c0.78 0.781 0.78 2.047 0 2.828-0.781 0.781-2.049 0.781-2.829 1e-3l-9.9-9.9c-0.781-0.781-0.781-2.047 0-2.828 0.782-0.781 2.047-0.781 2.828 0l4.951-4.95c1.044-1.044 2.518-1.373 3.849-1.022l1.101-1.1c1.318-1.318 3.323-1.51 4.857-0.602 1.484-1.546 3.7212-6.7959 3.7212-10.392 0.58637 0.032878 3.665 0.99168 3.662 1.0065z" fill="#444"/><path d="m17.295 19.929 2.3669-4.9071 1.2441 1.8098 2.6844-3.9978-0.1702 9.4446-2.4882-3.6196-1.1488 4.8897z" fill="#fd5"/></g></g><g transform="translate(-4)"><path d="m51.282 59.308c-0.37115 0.01231-0.74746 0.06402-1.123 0.15625-0.925 0.22636-1.6279 0.99048-1.8906 1.9043l-2.332 8.1562-15.371 18.445c-3.6296 4.3558-6.1165 6.4356-11.617 7.8106l-5.416 1.8242c3.1595 5.5666 14.271 16.731 18.983 19.657 12.177-4.0676 20.844-0.40491 34.806-0.73909 4.6893-0.33534 27.074-13.896 27.074-13.896 8.2382-4.1475 20.245-1.9774 20.008-10.285 0-3.3423-2.7104-6.0508-6.0527-6.0508-2.0496 0-4.0928 0.12862-6.1172 0.38086 0.27276-0.2691 0.54393-0.54002 0.81446-0.81055h2e-3c0.16876-0.16925 0.32342-0.3471 0.46484-0.53125 2.8454-3.6733 0.22653-9.0128-4.4199-9.0117-1.4308 0-2.8585 0.54405-3.9512 1.6367-3.729 3.7276-7.6907 7.3176-12.33 11.133l-0.0078 0.0039c-0.02462 0.02026-0.04956 0.04028-0.07422 0.06055 1.0493-1.7722 2.0205-3.6937 2.9395-5.7637 0.25794-0.43874 0.45506-0.91051 0.58594-1.4023 0.02091-0.08548 0.03979-0.17144 0.05664-0.25781 0.035-0.15174 0.06367-0.30486 0.08594-0.45898 0.01528-0.12459 0.02635-0.24966 0.0332-0.375 0.0095-0.11568 0.01531-0.23162 0.01758-0.34766-2.95e-4 -0.14405-0.0062-0.28804-0.01758-0.43164-0.0074-0.1064-0.01781-0.21256-0.03125-0.31836-0.01904-0.14545-0.0438-0.29009-0.07422-0.43359-0.0078-0.04829-0.0163-0.09647-0.02539-0.14453-0.0023 0.0025-0.0056 0.0053-0.0078 0.0078-0.5932-2.5163-2.8347-4.2974-5.42-4.3066-1.9654-8.09e-4 -3.7868 1.0308-4.7969 2.7168-1.9865 3.3108-4.0334 6.2313-6.4121 9.0332 0.34024-3.2946-2.2445-6.1601-5.5566-6.1602-2.1199-0.0022-4.0586 1.1952-5.0059 3.0918-1.3154 2.6308-3.2406 5.4115-5.3926 8.0352-0.54632-0.09188-1.0997-0.24578-1.6582-0.4707 0.43036-1.1206 0.72135-1.4109 3.1582-5.9492 2.5762-5.1859 3.1777-11.717 2.0293-17.318-0.02364-1.4102-0.17306-2.8227-0.45312-4.2227-0.53153-2.6545-2.9058-4.4534-5.5039-4.3672z" fill-opacity=".2" stroke-width="2.7946"/><g transform="matrix(2.7946 0 0 2.7946 15.572 30.55)"><path d="m17.368 16.446a2 2 0 0 0-1.791 1.106c-1.162 2.324-3.655 4.978-5.411 6.294a2.0003 2.0003 0 1 0 2.401 3.2c2.107-1.581 5.068-4.667 6.589-7.706a1.999 1.999 0 0 0-1.788-2.894z" fill="#f3f3f3"/><path d="m12.457 26.852c1.987-1.2 4.73-3.868 6.695-7.499a2.002 2.002 0 0 0-0.403-2.339c-1.498 1.925-3.465 4.143-5.695 3.245 0.154-0.401 0.258-0.505 1.13-2.129 0.923-1.858 1.138-4.198 0.725-6.204-1.884 3.08-4.369 2.655-5.091 13.049 0.658 2.227 1.819 2.554 2.639 1.877z" fill="#cfcfcf"/><path d="m23.368 14.446a2 2 0 0 0-1.717 0.972c-2.109 3.515-4.404 5.799-9.447 9.401a2.001 2.001 0 0 0 2.324 3.255c5.487-3.919 8.15-6.593 10.553-10.599a2 2 0 0 0-1.713-3.029z" fill="#f3f3f3"/><path d="m25.084 17.476a2.01 2.01 0 0 0 0.226-1.492c-2.215 2.453-4.94 6.839-9.949 5.224-1.121-0.024-2.07 0.449-2.518 1.203-0.366 0.614-0.178 1.386 0.588 2.583 6.55-0.075 9.496-2.659 11.653-7.518z" fill="#cfcfcf"/><path d="m29.888 14.946c-0.512 0-1.023 0.195-1.414 0.586-2.758 2.757-5.871 5.303-10.748 8.787a2 2 0 0 0 2.324 3.255c5.068-3.621 8.329-6.29 11.252-9.213a2 2 0 0 0-1.414-3.415z" fill="#f3f3f3"/><path d="m31.873 17.112c-2.105 0.202-4.15 0.739-6.096 1.624l-1.718 0.781c-1.771 1.457-3.814 3.004-6.332 4.802a2 2 0 0 0 2.324 3.255c5.068-3.621 8.329-6.29 11.252-9.213 0.348-0.349 0.532-0.794 0.57-1.249z" fill="#cfcfcf"/><path d="m35.366 20.68c0-1.196-0.97-2.165-2.166-2.165-2.527 0-5.025 0.541-7.325 1.587l-2.873 1.306c-2.953 1.3421-6.3346 1.3788-9.316 0.101-1.2375-0.5281-1.7366-2.018-1.067-3.185l1.183-2.07c1.009-1.7661 1.345-3.8375 0.946-5.832-0.21738-1.0856-1.2958-1.771-2.371-1.507-0.331 0.081-0.583 0.355-0.677 0.682l-0.834 2.918-5.501 6.601c-1.2988 1.5587-3.0597 2.6639-5.028 3.156l-1.7678 0.50439c1.5531 2.7664 3.3656 5.2293 6.1429 7.2797 4.3575-1.4555 8.8098-0.60355 13.806-0.72314 1.678-0.12 9.6881-4.9727 9.6881-4.9727 2.948-1.4841 7.2447-0.70746 7.1599-3.6803z" fill="#fff"/></g></g></svg>
