<?xml version="1.0" encoding="UTF-8"?>
<svg id="Layer_1" xmlns="http://www.w3.org/2000/svg" version="1.1" viewBox="0 0 128 128">
    <path d="M128,64c0,35.3-28.7,64-64,64S0,99.3,0,64,28.7,0,64,0s64,28.7,64,64" style="fill: #fd5;"/>
    <path d="M67.4,122.1c-.8,2.8.6,6.4,7.5,4.9,6.2-15,6.4-27.1,7.2-42.6,3.9-1,6.8-4.6,6.8-8.8v-3.6c2.7-1.6,4.5-4.5,4.5-7.9v-16c2.5,0,4.5-2.1,4.5-4.6,0-2.5-2.1-4.6-4.6-4.6h-2.3s-.1-25.1-.1-25.1c0-1.3-1-2.3-2.3-2.3h0c-1.3,0-2.3,1-2.3,2.3v25.1c.1,0-18.2,0-18.2,0V14c-.1-1.3-1.1-2.3-2.4-2.3-1.3,0-2.3,1-2.3,2.3v25.1c.1,0-2.2,0-2.2,0-2.5,0-4.6,2.1-4.5,4.6,0,2.5,2.1,4.6,4.6,4.5v16c0,3.4,1.9,6.3,4.7,7.8v3.6c0,4.3,3,7.8,6.9,8.8,0,3.5-.1,15.2-3.4,29.3" style="fill-opacity: .2;"/>
    <g>
        <path d="M68.2,37.4c0,1.3-1,2.3-2.3,2.3s-2.3-1-2.3-2.3V10c-.1-1.3.9-2.3,2.2-2.3,1.3,0,2.3,1,2.3,2.3v27.4Z" style="fill: #9aaab4;"/>
        <path d="M91.1,37.3c0,1.3-1,2.3-2.3,2.3s-2.3-1-2.3-2.3V9.9c-.1-1.3.9-2.3,2.2-2.3,1.3,0,2.3,1,2.3,2.3v27.4Z" style="fill: #9aaab4;"/>
        <path d="M82.1,80.4c3.9-1,6.8-4.6,6.8-8.8v-3.6c2.7-1.6,4.5-4.5,4.5-7.9v-16c2.5,0,4.5-2.1,4.5-4.6,0-2.5-2.1-4.6-4.6-4.6h-32c-2.5.1-4.6,2.2-4.5,4.7,0,2.5,2.1,4.6,4.6,4.5v16c0,3.4,1.9,6.3,4.7,7.8v3.6c0,4.3,3,7.8,6.9,8.8,0,4.9-.2,26.3-9.2,47.5,2.2.2,8.4-.5,9.2-.6,6.9-11.5,8.3-31.4,9.1-46.9h0Z" style="fill: #444;"/>
        <path d="M74.1,45.9l-4.1,11.8,4.9-.9-2.1,10.8,14.9-15.6-9.9,1.9,6-9.8-9.9,1.9Z" style="fill: #fd5;"/>
    </g>
    <path d="M56.4,91.6l7.3-7.3-24.7-24.7-1.5,1.5-11.8-12.2c-.7-.8-2-.8-2.7,0-.8.7-.8,2,0,2.7l11.8,12.2-10.8,10.8-12-12.4c-.7-.8-2-.8-2.7,0-.8.7-.8,2,0,2.7l12,12.4-2.3,2.3,24.7,24.7,7.4-7.4c3.2,3.5,15.9,16.4,15.8,23.1,1-2.9,2-7,3.3-7.2-1.9-9.5-7.9-14.1-13.7-21.3Z" style="fill-opacity: .2;"/>
    <g>
        <path d="M27.9,74.7c.7.8.7,2,0,2.7s-2,.7-2.7,0l-16-16.5c-.7-.8-.7-2,0-2.7.8-.7,2-.7,2.7,0l16,16.5Z" style="fill: #9aaab4;"/>
        <path d="M41.6,61.4c.7.8.7,2,0,2.7s-2,.7-2.7,0l-16-16.5c-.7-.8-.7-2,0-2.7.8-.7,2-.7,2.7,0l16,16.5Z" style="fill: #9aaab4;"/>
        <path d="M73.3,118.2c-1.9-9.5-11.1-23.4-16.9-30.6l7.3-7.3-24.7-24.7-20,20,24.7,24.7,7.4-7.4c3.2,3.5,16.4,19,16.3,25.8,2.4,0,4.8-.4,6-.5Z" style="fill: #444;"/>
        <path d="M33.2,73.6l4.4,9.5,2.4-3.4,5,7.7v-18.1c0,0-4.9,6.9-4.9,6.9l-2.1-9.4-4.9,6.9Z" style="fill: #fd5;"/>
    </g>
</svg>
