<?xml version="1.0" encoding="UTF-8"?>
<svg version="1.1" viewBox="0 0 128 128" xml:space="preserve" xmlns="http://www.w3.org/2000/svg" xmlns:xlink="http://www.w3.org/1999/xlink"><defs><clipPath id="clipPath5608"><use xlink:href="#g5604"/></clipPath></defs><g clip-path="url(#clipPath5608)"><g id="g5604"><path class="st0" d="m128 64a64 64 0 0 1-64 64 64 64 0 0 1-64-64 64 64 0 0 1 64-64 64 64 0 0 1 64 64" fill="#fd5"/></g><path d="m16 4v33.656l16 16v2.3711c-2.3641 1.2517-3.7966 2.7394-3.9688 4.4609-0.018255-0.14052-0.03125-0.28215-0.03125-0.42578v0.77344h-0.0019c0 0.0131 0.0013 0.02595 0.0019 0.03906v23.062c0 0.64956 0.19461 1.2673 0.55078 1.8555l-12.551 12.551v33.656h96v-33.656l-12.594-12.594c0.3414-0.57522 0.52651-1.1789 0.53125-1.8125l0.125-23.875c0 0.2332-0.0263 0.46249-0.0742 0.6875-0.0657-1.8216-1.5232-3.3879-3.9883-4.6973v-2.3965l16-16v-33.656h-88z" fill-opacity=".2"/><path d="m28 56.836c4.72e-4 -13.085 72-13.085 72 0.04029v10.501h-72l0.0014-10.461c-1.03e-4 -0.02699-0.0029-0.05384-0.0029-0.08069z" fill="#80684c" stroke-width="2.625"/><path d="m20 0v32l16 16v32l-16 16v32h88v-32l-16-16v-32l16-16v-32z" color="#000000" fill="#999" style="-inkscape-stroke:none"/><path d="m112 128v-33.656l-16-16v-28.688l16-16v-33.656h-8v30.344l-16 16v35.312l16 16v30.344zm-96-128v33.656l16 16v28.688l-16 16v33.656h8v-30.344l16-16v-35.312l-16-16v-30.344z" color="#000000" fill="#fff" style="-inkscape-stroke:none"/><path d="m53.205 59.607c-2.2666 0-4.3976 0.67344-6.1211 1.998-1.7235 1.3246-3.084 3.4973-3.084 6.002v0.39258c-9.015-1.6091-16-4.3829-16-8.3301v23.875c0 3.9471 6.9851 6.7634 16 8.4082v3.6543c0 2.5047 1.3605 4.6773 3.084 6.0019s3.8545 1.998 6.1211 1.998h21.59c2.2666 0 4.3976-0.67344 6.1211-1.998 1.7235-1.3246 3.084-3.4973 3.084-6.0019v-3.6602c8.9693-1.646 15.908-4.4605 15.938-8.4023l0.125-23.875c1e-5 3.9506-7.018 6.7255-16.062 8.334v-0.39648c0-2.5047-1.3605-4.6773-3.084-6.002-1.7235-1.3246-3.8545-1.998-6.1211-1.998zm0 8h21.59c0.59634 0 1.0325 0.20484 1.2051 0.32812v1.1445c-4.0104 0.39035-8.1235 0.58984-12 0.58984-3.8795 0-7.9923-0.19889-12-0.58984v-1.1445c0.17257-0.12329 0.60874-0.32812 1.2051-0.32812zm-1.2051 25.453c4.0077 0.40209 8.1205 0.60938 12 0.60938 3.8848 0 7.9965-0.20613 12-0.60938v2.2188c-0.17257 0.12329-0.60874 0.32812-1.2051 0.32812h-21.59c-0.59634 0-1.0325-0.20484-1.2051-0.32812z" fill-opacity=".2"/><path d="m28 56.062c0 6.6798 20 10 36 10v24c-16 0-36-3.4452-36-10.125z" fill="#a58868" stroke-width="2.625"/><path d="m64 66.063v24c16 0 35.887-3.4457 35.937-10.126l0.126-23.874c1e-5 6.6798-20.063 10-36.063 10z" fill="#947859" stroke-width="2.625"/><rect x="48" y="60" width="32" height="36" rx="5.2046" ry="4" fill="none" stroke="#ccc" stroke-width="8"/><circle cx="64" cy="78" r="7" fill="#80684d" stroke-width="1.1667"/><path d="m84 78h-20" fill="none" stroke="#aaa" stroke-linecap="round" stroke-width="6"/></g></svg>
