<?xml version="1.0" encoding="UTF-8"?>
<svg version="1.1" viewBox="0 0 128 128" xmlns="http://www.w3.org/2000/svg">
 <path d="m128 64c0 35.346-28.654 64-64 64s-64-28.654-64-64 28.654-64 64-64 64 28.654 64 64" fill="#9bbe55" stroke-width=".2"/>
 <path d="m51.658 8.9199-0.64648 26.08h3.5176c-1.4579 3.6794-0.39486 7.9614 1.8867 10.641-0.18839 0.46226-0.1577 0.80382-0.21485 1.2422-4.6493-0.57356-8.9538-1.5247-11.99-2.8574-22.183-9.2267-36.104 11.361-26.557 27.615l-2.2559 0.9668 11.213 27.963c-2.2753 3.1599-2.7913 8.7076 1.125 10.363 0.85069 1.0467 2.218 1.7552 4.1543 2.4141 18.939 4.1627 46.977 5.4052 63.969 0.25195 2.0511-0.63151 3.5517-1.3192 4.5684-2.248 4.375-1.3974 3.8668-7.9695 1.3789-10.498l11.324-28.244-2.0215-0.86914c10.412-23.043-10.608-37.491-26.844-27.561-4.1913 1.7185-8.5277 2.5596-12.221 2.9355 0.0522-0.43124-0.0741-0.88258-0.14062-1.252 2.7398-3.4444 3.5367-7.0915 2.0957-10.863h4.1761l-0.13028-25.94zm-8.5976 43.236 0.0117 0.0078 0.0137 0.0078c4.172 2.4799 8.4396 2.7563 13.115 2.6973v2.4297c-4.7446 0.84118-9.4073 2.4552-13.781 4.9902-6.608-4.1765-16.148-4.9311-19.57 2.1992-3.619-16.083 9.4568-19.06 20.211-12.332zm62.889 12.975c-3.1642-9.0618-13.965-6.4988-19.844-2.834-4.3673-2.3957-9.1313-4.0493-14.061-4.9434v-2.7832c6.7953-0.36545 11.424-1.472 14.996-3.8008l4e-3 -0.0039 6e-3 -0.0039c11.331-6.673 19.814 5.0384 18.898 14.369z" fill-opacity=".2"/>
 <g transform="matrix(1.1746 0 0 1.1746 -8.8431 -4.8606)">
  <ellipse cx="62.013" cy="33.811" rx="8.1131" ry="8.113" fill="#ffdd57" stroke="#deb400" stroke-width="1.7028"/>
  <path d="m60.156 17.836c-0.70868-3.3466-3.7187-5.9559-6.6527-8.5895h17.885c-2.6926 2.7458-6.5386 5.1713-6.8096 8.5895 3.4718-1.5049 5.7089-4.5523 8.3813-7.056l0.12565 17.197c-2.6555-2.131-4.9198-4.8323-8.3813-5.7882 1.0293 3.1263 3.5639 5.5293 6.8756 7.5587h-18.149c3.0034-2.1004 5.7287-4.3872 6.8507-7.5587-3.2977 1.0628-5.6683 3.8148-8.3153 6.063l-0.12565-17.334c2.5496 2.7688 4.9269 5.8965 8.3153 6.9185z" fill="#ffdd57" stroke="#deb400" stroke-width="1.7028"/>
  <path d="m91.922 82.366c7.5485-11.298 5.2867-11.561 5.4849-21.94-0.55748-11.027-9.616-10.362-16.751-5.6331-11.124-6.2976-25.532-7.0595-37.287 0-7.1022-5.0063-16.661-4.3408-16.751 5.6331-0.16209 11.959-1.115 9.3397 5.4849 21.94z" fill="#ef4f3e"/>
  <path d="m44.417 44.487c-14.502-9.2479-24.345 2.8388-16.367 16.434-1.2809 0.74856-2.5617 1.4971-3.8426 2.2457-12.059-16.169 3.404-34.277 20.389-24.104 8.5519 3.7536 26.714 4.2993 34.905 0.06701 14.76-9.5133 31.334 5.6165 21.366 22.919-3.6798 3.6193-6.3347 3.8188-4.2021-0.36156 6.3512-11.853-4.9067-25.636-15.727-18.375-3.859 2.5155-8.9891 3.4238-18.765 3.2553-7.282 0.0012-12.533 1.0249-17.757-2.0803z" fill="#ffdd57" stroke="#deb400" stroke-width="1.7028"/>
  <rect x="56" y="37.983" width="11.786" height="18.017" ry="2.5294" fill="#ffdd57" stroke="#deb400" stroke-width="1.7028"/>
  <path d="m32.45 90.36-10.942-27.286 8.726-3.7397c-1.4573 3.8863-1.3559 6.6034-1.3851 9.4186 3.0537-0.52607 2.4533-2.1481 4.0916-3.7357l1.9391 8.172c-3.0569-1.3584-3.0921-1.3753-5.0612-0.55809 3.0402 6.0741 12.463 7.6175 14.409 0.88248 0.43212-4.4534-2.464-6.692-3.9256-1.2822-2.2757-4.3878-4.235-11.107 3.0946-7.8593-1.2712-3.4112-1.5396-5.1162 0.64217-7.5385 3.0582 1.8143 2.4984 3.4509 2.3811 7.0891 6.7678-4.1762 5.9337 1.39 4.7763 6.8336-2.768-4.4897-4.876-2.4459-3.3345 2.2318 5.073 2.5211 12.429 0.16309 12.429-5.7587 0 0-1.7872 0.33176-3.9572 2.8374l-0.47878-9.7074c2.5846 2.3377 4.436 2.1607 4.436 2.1607-0.19505-2.9377-1.6677-4.2462-4.0662-6.8167 3.768-1.2005 7.9821-1.11 11.756 4e-6 -2.3985 2.5705-4.0492 3.879-4.2443 6.8167 0 0 2.6592-0.59898 4.7368-2.4774l0.09114 9.7628c-2.17-2.5056-4.8279-2.5762-4.8279-2.5762 0.62274 6.0888 8.9586 8.2254 12.516 5.6716 1.5137-4.2105-0.41372-7.1162-3.1604-2.2318-1.1272-4.8126-1.7041-11.783 4.6021-6.8336-0.33502-3.4813-0.52316-5.4079 2.294-7.002 2.4451 2.6082 1.8431 4.063 0.81632 7.6256 7.5867-2.3843 5.2935 3.0415 2.8333 8.0335-1.5793-5.0324-4.0086-3.892-3.6644 1.021 3.8708 6.3454 10.745 5.7367 14.235-0.88248-1.9691-0.81717-2.2655-0.88741-5.3224 0.47102l1.9391-8.172c1.6383 1.5876 1.2992 3.2967 4.3529 3.8227-0.02922-2.8152 0.07226-5.5323-1.3851-9.4186l8.726 3.7397-10.942 27.286z" fill="#ffdd57" stroke="#deb400" stroke-width="1.7028"/>
  <path d="m61.17 83.371c-14.061 0.16017-26.733 1.8672-29.895 3.2949-1.557-0.27817-3.6473 6.6217 0.08984 7.8848a30.859 5.5523 0 0 0 30.648 4.9043 30.859 5.5523 0 0 0 30.387-4.5879c2.8405 0.12529 3.3315-6.6812 0.27734-8.2012-8.7951-2.6088-20.572-3.4195-31.508-3.2949z" fill="#dedede" stroke="#aaa" stroke-width="1.7028"/>
  <ellipse cx="62.013" cy="92.794" rx="23.685" ry="2.7448" fill="#6f6f6f" stroke="#aaa" stroke-width="1.7028"/>
  <circle cx="106.33" cy="58.062" r="4.4012" fill="#fff" stroke="#ccc" stroke-width="1.7028"/>
  <circle cx="106.03" cy="46.425" r="4.4012" fill="#fff" stroke="#ccc" stroke-width="1.7028"/>
  <circle cx="99.745" cy="36.573" r="4.4012" fill="#fff" stroke="#ccc" stroke-width="1.7028"/>
  <circle cx="88.293" cy="33.372" r="4.4012" fill="#fff" stroke="#ccc" stroke-width="1.7028"/>
  <circle cx="76.718" cy="35.958" r="4.4012" fill="#fff" stroke="#ccc" stroke-width="1.7028"/>
  <circle transform="scale(-1,1)" cx="-17.702" cy="58.277" r="4.4012" fill="#fff" stroke="#ccc" stroke-width="1.7028"/>
  <circle transform="scale(-1,1)" cx="-18.01" cy="46.64" r="4.4012" fill="#fff" stroke="#ccc" stroke-width="1.7028"/>
  <circle transform="scale(-1,1)" cx="-24.29" cy="36.789" r="4.4012" fill="#fff" stroke="#ccc" stroke-width="1.7028"/>
  <circle transform="scale(-1,1)" cx="-35.742" cy="33.587" r="4.4012" fill="#fff" stroke="#ccc" stroke-width="1.7028"/>
  <circle transform="scale(-1,1)" cx="-47.317" cy="36.173" r="4.4012" fill="#fff" stroke="#ccc" stroke-width="1.7028"/>
  <circle cx="61.941" cy="44.947" r="4.4012" fill="#fff" stroke="#ccc" stroke-width="1.7028"/>
  <circle cx="62.064" cy="52.336" r="4.4012" fill="#fff" stroke="#ccc" stroke-width="1.7028"/>
 </g>
</svg>
