<?xml version="1.0" encoding="UTF-8"?>
<svg version="1.1" viewBox="0 0 128 128" xmlns="http://www.w3.org/2000/svg">
 <path d="m128 64c0 35.346-28.654 64-64 64s-64-28.654-64-64 28.654-64 64-64 64 28.654 64 64" fill="#9bbe55" stroke-width=".2"/>
 <path d="m64 16c0 8.4635-31.855 47.229-31.855 64 0 17.693 14.343 32.037 32.037 32.037 1.9578 0 3.8715-0.18515 5.7324-0.52149 13.773-1.9416 25.489-14.236 26.264-29.867 6.9e-4 -0.01359 0.0013-0.02742 2e-3 -0.04102 0.0257-0.532 0.03907-1.068 0.03907-1.6074 0-1.4454-0.23543-3.0407-0.63282-4.7344-3.7313-17.806-22.607-37.886-31.586-59.266z" fill-opacity=".2" stroke-width="2.329"/>
 <g transform="matrix(1.659 0 0 1.659 -49.861 -76.632)">
  <path d="m88 92c0 10.665-8.6459 19.311-19.311 19.311-10.665 0-19.311-8.6459-19.311-19.311 0-10.109 19.201-33.475 19.201-38.576 0 4.9282 19.42 27.947 19.42 38.576z" fill="#3581c8" stroke-width="1.4038"/>
  <path d="m69.247 60.906c4.7413 10.081 23.201 27.001 9.8651 29.912-13.336 2.9115-9.2312-21.652-9.8651-29.912z" fill="#529add" stroke-width="1.4038"/>
  <path d="m68.58 53.424c2.6783 23.584-9.5687 57.459 2.2166 57.712 9.1664-0.52951 17.204-8.7316 17.204-19.136-0.53372-11.421-13.523-24.535-19.42-38.576z" fill="#529add" fill-opacity=".6129" stroke-width="1.7838"/>
  <path d="m70.024 62.492c4.7413 10.081 15.831 21.122 7.8471 22.104s-7.2133-13.843-7.8471-22.104z" fill="#87bce1" stroke-width="1.4038"/>
  <path d="m57.296 80.816c-13.197 14.858-0.4695 27.086 8.8063 28.007-3.9351-3.0862-13.66-10.301-8.8063-28.007z" fill="#2b68a3" stroke-width="1.4038"/>
 </g>
 <g transform="translate(-949.21 1084.1)">
  <path d="m1034.8-1014a24 24 0 0 0-24 24 24 24 0 0 0 24 24 24 24 0 0 0 24-24 24 24 0 0 0-24-24z" fill="none" stroke="#000" stroke-linecap="round" stroke-linejoin="round" stroke-opacity=".2" stroke-width="4"/>
  <path d="m1058.8-994.04a24 24 0 0 1-24 24 24 24 0 0 1-24-24 24 24 0 0 1 24-24 24 24 0 0 1 24 24" fill="#dbdbdb" stroke="#a6a6a6" stroke-linecap="round" stroke-linejoin="round" stroke-width="4"/>
  <path d="m1031.8-1011v2.9121c-1.532 0.3498-2.8498 0.9879-3.9531 1.916-1.9688 1.6563-2.9532 3.8125-2.9532 6.4688 0 1.8854 0.4375 3.3958 1.3125 4.5312s1.9844 1.9792 3.3282 2.5313c1.3541 0.5416 3.0521 1.026 5.0937 1.4531 1.5834 0.3542 2.7865 0.7135 3.6094 1.0781 0.8333 0.3646 1.25 1.0469 1.25 2.0469 0 1.0417-0.4375 1.7969-1.3125 2.2656-0.875 0.4584-1.8855 0.6875-3.0313 0.6875-3.1145 0-5.0364-1.3021-5.7656-3.9062l-5.9531 1.4062c0.5833 2.5521 1.8906 4.4636 3.9219 5.7344 1.324 0.8216 2.8104 1.3702 4.4531 1.6562v3.2188h6v-3.25c1.9343-0.3363 3.5483-0.9936 4.8281-1.9844 2.2605-1.7708 3.3906-4.0729 3.3906-6.9062 0-2.7813-1.1926-4.9584-3.5781-6.5313-0.8541-0.5833-1.7499-1.0052-2.6875-1.2656-0.927-0.2604-2.4427-0.625-4.5469-1.0937-2.6875-0.448-4.0312-1.3698-4.0312-2.7657 0-1.75 1.2812-2.625 3.8437-2.625 2.4167 0 4.0157 1.0886 4.7969 3.2657l5.4375-1.7813c-1.2053-3.4654-3.6917-5.5361-7.4531-6.2168v-2.8457z" fill="#a6a6a6"/>
 </g>
</svg>
