<?xml version="1.0" encoding="UTF-8"?>
<svg id="ferry_bicycle" xmlns="http://www.w3.org/2000/svg" version="1.1" viewBox="0 0 128 128">
  <path d="M119.4,96c-17.7,30.6-56.8,41.1-87.4,23.4C1.4,101.7-9.1,62.6,8.6,32,26.3,1.4,65.4-9.1,96,8.6c30.6,17.7,41.1,56.8,23.4,87.4" style="fill: #ca72e2;"/>
  <path d="M30.4,40c-.9,0-1.6.4-1.6.8v1.6c0,.4.7.8,1.5.8l-2.7,18.9h2.8c.9,0,1.6.7,1.6,1.6v4.2H10.1c2.2,7.5,8,16,8,16,1.6,2.4,3.7,4.9,5.2,6.2,15.8,14.5,88.8,5.8,88.8,5.8,0,0,1.6-5.3,3-12,0,0,3-11,3-16h-19.9v-4.2c0-.9.7-1.6,1.6-1.6h6l-1.3-6.3h-50.4v-12.6c.9,0,1.6-.4,1.6-.8v-1.6c0-.4-.7-.8-1.6-.8h-23.6Z" style="fill-opacity: .2;"/>
  <g>
    <path d="M18,80c1.6,2.4,3.7,4.9,5.2,6.2,15.8,14.5,88.8,5.8,88.8,5.8,0,0,1.6-5.3,3-12H18Z" style="fill: #dd2e44;"/>
    <path d="M49.3,23.5c-.9,0-1.6.7-1.6,1.6v12.6c0,.3.1.7.3.9h-3.5v-7.2c0-.9-.7-1.6-1.6-1.6s-1.6.7-1.6,1.6v7.2h-11l-2.8,19.6h2.8c.9,0,1.6.7,1.6,1.6v4.2H10c2.2,7.5,8,16,8,16h97s3-11,3-16h-19.9v-4.2c0-.9.7-1.6,1.6-1.6h6l-1.3-6.3h-50.4v-13.3h-3.5c.2-.3.3-.6.3-.9v-12.6c0-.9-.7-1.6-1.6-1.6h0Z" style="fill: #ccd6dd;"/>
    <path d="M29.9,42.4l-.9,6.3h12.5v-6.3h-11.5ZM44.5,42.4v6.3h4.7c.9,0,1.6-.7,1.6-1.6v-3.2c0-.9-.7-1.6-1.6-1.6h-4.7ZM36.7,58.2c-.9,0-1.6.7-1.6,1.6v4.2h15.8v-4.2c0-.9-.7-1.6-1.6-1.6h-12.6ZM58.7,58.2c-.9,0-1.6.7-1.6,1.6v4.2h15.8v-4.2c0-.9-.7-1.6-1.6-1.6h-12.6ZM80.8,58.2c-.9,0-1.6.7-1.6,1.6v4.2h15.8v-4.2c0-.9-.7-1.6-1.6-1.6h-12.6ZM27.2,70.8c-.9,0-1.6.7-1.6,1.6v3.2c0,.9.7,1.6,1.6,1.6h3.2c.9,0,1.6-.7,1.6-1.6v-3.2c0-.9-.7-1.6-1.6-1.6h-3.2ZM39.8,70.8c-.9,0-1.6.7-1.6,1.6v3.2c0,.9.7,1.6,1.6,1.6h3.2c.9,0,1.6-.7,1.6-1.6v-3.2c0-.9-.7-1.6-1.6-1.6h-3.2ZM52.4,70.8c-.9,0-1.6.7-1.6,1.6v3.2c0,.9.7,1.6,1.6,1.6h3.2c.9,0,1.6-.7,1.6-1.6v-3.2c0-.9-.7-1.6-1.6-1.6h-3.2ZM65,70.8c-.9,0-1.6.7-1.6,1.6v3.2c0,.9.7,1.6,1.6,1.6h3.2c.9,0,1.6-.7,1.6-1.6v-3.2c0-.9-.7-1.6-1.6-1.6h-3.2ZM77.6,70.8c-.9,0-1.6.7-1.6,1.6v3.2c0,.9.7,1.6,1.6,1.6h3.2c.9,0,1.6-.7,1.6-1.6v-3.2c0-.9-.7-1.6-1.6-1.6h-3.2ZM90.3,70.8c-.9,0-1.6.7-1.6,1.6v3.2c0,.9.7,1.6,1.6,1.6h3.2c.9,0,1.6-.7,1.6-1.6v-3.2c0-.9-.7-1.6-1.6-1.6h-3.2ZM102.9,70.8c-.9,0-1.6.7-1.6,1.6v3.2c0,.9.7,1.6,1.6,1.6h3.2c.9,0,1.6-.7,1.6-1.6v-3.2c0-.9-.7-1.6-1.6-1.6h-3.2Z" style="fill: #66757f;"/>
    <path d="M55.6,38.5c0,.4-.7.8-1.6.8h-23.6c-.9,0-1.6-.4-1.6-.8v-1.6c0-.4.7-.8,1.6-.8h23.6c.9,0,1.6.4,1.6.8v1.6Z" style="fill: #269;"/>
  </g>
  <path d="M4.5,88.4c5.2,12.8,14.5,24,27.3,31.5,7.8,4.5,16.1,7.1,24.4,8.1h15.1c19.3-2.3,37.4-13.4,47.9-31.6,1.5-2.6,2.8-5.3,3.9-8-10-2-19.7-1.6-29.7,0-10.1,1.6-21.6,2.2-29.7,0-18-4.8-22.9,1.9-29.7,0-5.7-1.6-14.6-9.3-17.1-.4l-12.5.4Z" style="fill: #3e74c9;"/>
  <path d="M21.7,88.1c-1,0-2,.3-2.8,1.1,1.5,2.1,3.2,4.1,4.5,5.2,15.8,14.5,88.8,5.8,88.8,5.8,0,0,1.1-3.6,2.2-8.6-6.9-.5-13.8,0-20.8,1.1-10.1,1.6-21.6,2.2-29.7,0-18-4.8-22.9,1.9-29.7,0-3.7-1.1-8.8-4.7-12.6-4.6h0Z" style="fill-opacity: .1;"/>
</svg>
