<?xml version="1.0" encoding="UTF-8"?>
<svg version="1.1" viewBox="0 0 128 128" xml:space="preserve" xmlns="http://www.w3.org/2000/svg"><path d="m119.42 95.995c-17.67 30.605-56.806 41.092-87.411 23.422-30.606-17.67-41.092-56.806-23.422-87.411s56.806-41.092 87.411-23.422 41.092 56.806 23.422 87.411" fill="#fd5" stroke-width=".19997"/><path d="m8.0002 67.999c-0.87005 0-1.5762 0.3521-1.5762 0.78711v2.4258c0 0.43501 0.70612 0.78711 1.5762 0.78711h2.0391c2.1398 7.3449 7.8525 11.856 7.9844 11.959h-0.03125c1.5887 2.4304 3.7337 4.873 5.209 6.2285 15.773 14.476 88.773 5.7695 88.773 5.7695s1.5752-5.33 3-11.996h0.0391s2.9829-6.9645 2.998-11.961h1.9883c0.87005 0 1.5762-0.3521 1.5762-0.78711v-2.4258c0-0.43501-0.70612-0.78711-1.5762-0.78711z" fill-opacity=".2" stroke-width=".99983"/><path d="m44.007 58c-0.72669 0-1.1611 0.44274-1.1582 1.2168l0.01367 3.6191c0.0029 0.77408 0.41007 1.1641 1.1367 1.1641h40c0.72795 0 1.1978-0.41753 1.1816-1.1914l-0.0391-3.6191c-0.01612-0.77392-0.41455-1.1895-1.1425-1.1895z" fill-opacity=".2" stroke-width="2.6795"/><g transform="matrix(.99983 0 0 .99983 -1207.8 -399.96)"><path d="m1226 480c1.589 2.4308 3.7357 4.8747 5.2112 6.2304 15.776 14.478 88.788 5.7696 88.788 5.7696s1.5752-5.3319 3.0003-12z" fill="#dd2e44"/><path transform="matrix(1.0002,0,0,1.0002,1208,400.03)" d="m10.033 67.958c2.1559 7.4532 7.998 11.998 7.998 11.998h96.984s2.998-6.9991 2.998-11.998z" fill="#ccd6dd"/><path transform="matrix(1.0002,0,0,1.0002,1208,400.03)" d="m27.212 70.808c-0.86996 0-1.5762 0.70616-1.5762 1.5762v3.1523c0 0.87003 0.70622 1.5762 1.5762 1.5762h3.1523c0.87006 0 1.5762-0.70615 1.5762-1.5762v-3.1523c0-0.87002-0.70612-1.5762-1.5762-1.5762zm12.609 0c-0.86996 0-1.5762 0.70616-1.5762 1.5762v3.1523c0 0.87003 0.70622 1.5762 1.5762 1.5762h3.1523c0.87006 0 1.5762-0.70615 1.5762-1.5762v-3.1523c0-0.87002-0.70612-1.5762-1.5762-1.5762zm12.607 0c-0.86996 0-1.5742 0.70616-1.5742 1.5762v3.1523c0 0.87003 0.70426 1.5762 1.5742 1.5762h3.1523c0.87006 0 1.5762-0.70615 1.5762-1.5762v-3.1523c0-0.87002-0.70612-1.5762-1.5762-1.5762zm12.609 0c-0.86996 0-1.5762 0.70616-1.5762 1.5762v3.1523c0 0.87003 0.70622 1.5762 1.5762 1.5762h3.1523c0.87006 0 1.5762-0.70615 1.5762-1.5762v-3.1523c0-0.87002-0.70612-1.5762-1.5762-1.5762zm12.609 0c-0.86996 0-1.5762 0.70616-1.5762 1.5762v3.1523c0 0.87003 0.70621 1.5762 1.5762 1.5762h3.1523c0.87006 0 1.5762-0.70615 1.5762-1.5762v-3.1523c0-0.87002-0.70612-1.5762-1.5762-1.5762zm12.609 0c-0.86996 0-1.5762 0.70616-1.5762 1.5762v3.1523c0 0.87003 0.70622 1.5762 1.5762 1.5762h3.1523c0.87006 0 1.5762-0.70615 1.5762-1.5762v-3.1523c0-0.87002-0.70612-1.5762-1.5762-1.5762zm12.609 0c-0.86996 0-1.5762 0.70616-1.5762 1.5762v3.1523c0 0.87003 0.70621 1.5762 1.5762 1.5762h3.1523c0.87006 0 1.5762-0.70615 1.5762-1.5762v-3.1523c0-0.87002-0.70611-1.5762-1.5762-1.5762z" fill="#66757f"/><path d="m1329.6 467.25c0 0.43508-0.7062 0.78819-1.5764 0.78819h-112.02c-0.8702 0-1.5764-0.35311-1.5764-0.78819v-2.4243c0-0.43508 0.7062-0.78819 1.5764-0.78819h112.02c0.8702 0 1.5764 0.35311 1.5764 0.78819z" fill="#269"/></g><path d="m4.5084 88.382c5.1564 12.794 14.453 24.03 27.326 31.462 7.7605 4.4805 16.069 7.1425 24.437 8.1334h15.076c19.348-2.3041 37.407-13.383 47.898-31.555 1.514-2.6222 2.8059-5.3111 3.9116-8.0397-10.013-1.9688-19.727-1.5772-29.662 0-10.141 1.6099-21.61 2.168-29.662 0-17.974-4.8393-22.901 1.942-29.662 0-5.6582-1.6251-14.599-9.3239-17.139-0.42697z" fill="#3e74c9" stroke-width=".19997"/><path d="m21.736 88.087c-1.0379 0.0297-1.9741 0.34965-2.7593 1.074 1.4797 2.0743 3.225 4.0505 4.4935 5.2159 15.774 14.475 88.772 5.7686 88.772 5.7686s1.0547-3.6261 2.2164-8.5611c-6.9288-0.46511-13.788 0.03639-20.754 1.1424-10.141 1.6099-21.611 2.168-29.663 0-17.974-4.8393-22.9 1.942-29.661 0-3.7132-1.0665-8.8405-4.7488-12.644-4.6399z" fill-opacity=".13333"/><g transform="translate(-20 -4.0001)"><g stroke-width="2.6795"><path d="m76 66s0.35748 1.9955-1.2857 2.0001h-5.3571c-1.6417 0.0043-1.3571-2.0593-1.3571-2.0742v-1.9258h8z" fill="#555"/><path d="m100 66s0.35747 1.9955-1.2857 2.0001h-5.3571c-1.6417 0.0043-1.3571-2.0593-1.3571-2.0742v-1.9258h8z" fill="#555"/><path d="m64 60v-44h40v44z" fill="#539841"/><path d="m68 20v16h4v-16zm19 0v16h4v-16zm9 0v16h4v-16zm-19 0v16h4v-16z" fill="#62b34e" stop-color="#000000"/><path d="m71.424 28c-1.7857 0-5.4254 4.4286-5.4242 8v24h36v-24c0-3.5714-4.2143-8-6-8z" fill="#cd584c"/></g><path d="m105.18 62.809c0.0161 0.77387-0.45321 1.191-1.1812 1.191h-40c-0.72665 0-1.1343-0.3907-1.1372-1.1648l-0.01353-3.6188c-0.0029-0.77407 0.43211-1.2164 1.1588-1.2164h39.992c0.728 0 1.1268 0.41629 1.143 1.1902z" fill="#66757f" stroke-width="1.0362"/><g stroke-width="2.6795"><path d="m98 42.381c0 1.4506-0.55661 1.6193-2 1.6193h-24c-1.4421 0-2.0577-0.26318-2-1.7127v-5.9357c0.05771-1.4495 0.5579-2.3516 2-2.3516h24c1.4434 0 2 0.90097 2 2.3516z" fill="#88c9f9"/><circle cx="70.041" cy="54.003" r="2.7825" fill="#fff"/><circle cx="97.94" cy="53.94" r="2.7825" fill="#fff"/><path d="m92 56h-16v-10h16z" fill="#99aab5"/></g></g></svg>
