<?xml version="1.0" encoding="UTF-8"?>
<svg version="1.1" viewBox="0 0 128 128" xml:space="preserve" xmlns="http://www.w3.org/2000/svg">

  <path d="m57.26 11.346c8.3248 30.767-26.957 33.696-26.957 50.545 0 5.4447 1.4083 10.186 3.9961 14.109h-5.2988c-10.276 0-10.276 36 0 36h71c6.3287 0 8.9946-11.904 8.041-22.025-0.0285-0.33992-0.0843-0.70874-0.12696-1.0684-0.74535-6.1272-2.8333-11.407-6.3262-12.633-0.14063-0.04934-0.2846-0.09092-0.42969-0.12695-0.0346-0.0087-0.0686-0.01937-0.10351-0.02734-0.14255-0.03199-0.28681-0.05732-0.4336-0.07617-0.0237-3e-3 -0.0465-9e-3 -0.0703-0.01172-3e-3 -3.66e-4 -7e-3 3.6e-4 -0.01 0-0.17719-0.019721-0.35724-0.031249-0.54079-0.031254h-6.2988c2.5878-3.9234 3.9961-8.6646 3.9961-14.109 0-16.848-10.109-26.957-10.109-26.957-2.8958 4.7058-10.109 13.479-10.109 13.479 6.7394-20.218-20.219-37.066-20.219-37.066z" fill-opacity=".2"/><path d="m128 64c0 35.346-28.654 64-64 64s-64-28.654-64-64 28.654-64 64-64 64 28.654 64 64z" fill="#9bbe55"/>

  

  
  
  
  

  
  
  
  

  
  
  
  

<g transform="matrix(.84242 0 0 .84242 7.8178 .60606)" stroke-width="1.187"><path d="m66.691 100c-24 0-40-12-40-32s41.882-23.478 32-60c0 0 32 20 24 44 0 0 8.5626-10.414 12-16 0 0 12 12 12 32s-16 32-40 32z" fill="#eb650d"/><path d="m90.691 52c4 8 24 28-8 28-8 0 4-20 8-28z" fill="#e98616"/><path d="m82.691 64c-16-16 0-24-16-44 4 20-28 36-28 52s12 24 28 24 24.335-22.671 16-32z" fill="#f1b014"/><path d="m66.691 88c-16 0-16-20 0-40 0 20 16 40 0 40z" fill="#f3f40f"/></g><g transform="matrix(1.2845 0 0 1.2845 -12.241 -35.862)" stroke-width=".77852"><path d="m32.107 83.973h55.275c8.5638 0 8.5638 28.027 0 28.027h-55.275c8 0 8-28.027 0-28.027z" fill="#896847" stroke-dasharray="12.4564, 6.22819, 3.11409, 6.22819" stroke-width="3.1141"/><g><path d="m32.107 83.973h55.275c4.6711 0 6.3365 8.4564 6.3365 12.456 0 0-43.04 3.2606-54.719-2.4295z" fill="#9a7650" stroke-dasharray="12.4564, 6.22819, 3.11409, 6.22819" stroke-width="3.1141"/><path d="m32.107 83.973c8 0 8 28.027 0 28.027s-8-28.027 0-28.027z" fill="#896847"/><path d="m32.107 85.53c6.5951 0 6.5951 24.913 0 24.913-6.5951 0-6.5951-24.913 0-24.913z" fill="#ae8862"/><path d="m32.107 90.98c3.3333 0 3.3333 14.013 0 14.013-3.3333 0-3.3333-14.013 0-14.013z" fill="#a5774a"/><path d="m67 92h-8m-7 0h-8m24-4h20" stroke="#ae8862" stroke-linecap="round" stroke-width="3.1141"/><path d="m40 108h16m18-2h16m-38-6h16" stroke="#9a7650" stroke-linecap="round" stroke-width="3.1141"/><path d="m47.785 84-4-4c-3-2 5-11 8-8 0 0 10 12 16 12 0 4-15 4-20 0z" fill="#896847"/><path d="m44.785 79c2 2 8-4 6-6s-8 4-6 6z" fill="#ae8862"/></g></g></svg>
