<?xml version="1.0" encoding="UTF-8"?>
<svg version="1.1" viewBox="0 0 128 128" xmlns="http://www.w3.org/2000/svg">
 <path class="st0" d="m128 64a64 64 0 0 1-64 64 64 64 0 0 1-64-64 64 64 0 0 1 64-64 64 64 0 0 1 64 64" fill="#aaa"/>
 <path d="m58.776 83.2c-1.3402 4.7289-9.083 20.929-10.82 28.91-0.37394-8.829-3.3259-19.812-7.0312-23.209-1.1397 10.828-4.4279 14.015-5.875 19.541-2.5159-5.7072-5.1799-11.386-9.8828-15.561 4.0873 5.163-2.2555 12.998 1.3848 19.934 3.1594 1.4801 5.4895 0.96014 7.8262 0.45313-0.03139 0.91167-0.03487 1.8724 0.0293 2.9531 5.2039 0.67713 7.7092 2.5268 13.525 0 7.5517 2.7236 11.744 3.4683 17.156 2.957 1.7793 0.37056 3.5586 0.33417 5.3379-0.77539-0.0326-0.0524-0.0597-0.11634-0.0918-0.16992 3.3671 0.19375 7.6691-0.30261 9.7246-1.0254 0.0259-0.0834 0.0437-0.1683 0.0684-0.25195 3.5178 0.76299 7.0485 1.4938 11.805-0.73438 0.56192-1.0705 0.96263-2.1551 1.2461-3.248 1.4617 0.23388 3.0987 0.0935 5.1328-0.88672-0.96332-6.4409 5.8926-21.502 5.8926-21.502s-6.7155 6.821-10.822 13.246c-0.94789-6.7588-3.2169-13.25 0.67188-18.162-6.2352 5.5351-10.123 12.803-13.559 20.324-1.6132-9.3395-7.0391-17.459-7.0391-17.459s-2.2896 11.839-5.4805 23.355c-1.656-6.8677-1.7949-14.99-1.7949-14.99s-4.1779 8.1349-4.8086 15.006c-3.0785-8.799-0.18441-23.936-2.5957-28.705z" fill-opacity=".2"/>
 <path d="m40.004 35.971v8h8l-0.0038 14.029-11.996-0.0075c-3.2983 0.06291-5.9397 2.7538-5.9414 6.0527 0.0027 3.2982 2.6438 5.9879 5.9414 6.0508v5.875h8v-4s38.996 0.029 40 0v4h8v-5.7773c0.07935 0.0055 0.1588 0.0094 0.2383 0.0117 3.3449-1.66e-4 6.0564-2.7117 6.0566-6.0566 9.39e-4 -3.3457-2.7109-6.0584-6.0566-6.0586-0.07948 0.0011-0.15893 0.0038-0.2383 8e-3l-12.004-0.0982 0.0038-14.029h8v-8c-0.0038 0.0288-48-2e-4 -48-2e-4z" fill-opacity=".2"/>
 <g transform="translate(-1608.1,-275.42)">
  <path d="m1652.1 327.39h40v16h-40z" fill="#a8493e"/>
  <path transform="translate(1480.1,275.39)" d="m191.99 12.109c-10.98 3.71e-4 -19.882 8.9023-19.881 19.883l3.8887 4.9885v55.019h32v-56l3.873-4.0078c7.1e-4 -10.981-8.9004-19.882-19.881-19.883z" fill="#cd584c"/>
  <path d="m1706.4 335.57a6.0569 6.0569 0 0 1-6.0569 6.0568 6.0569 6.0569 0 0 1-6.0568-6.0568 6.0569 6.0569 0 0 1 6.0568-6.0568 6.0569 6.0569 0 0 1 6.0569 6.0568" fill="#cd584c"/>
  <path d="m1692.1 323.39h8v24h-8z" fill="#9e3d33"/>
  <path d="m1650.3 335.47a6.0569 6.0569 0 0 1-6.0568 6.0568 6.0569 6.0569 0 0 1-6.0569-6.0568 6.0569 6.0569 0 0 1 6.0569-6.0568 6.0569 6.0569 0 0 1 6.0568 6.0568" fill="#cd584c"/>
  <path d="m1644.1 323.39h8v24h-8z" fill="#9e3d33"/>
  <path d="m1684.2 343.52a12.147 12.147 0 0 1-12.147 12.147 12.147 12.147 0 0 1-12.147-12.147 12.147 12.147 0 0 1 12.147-12.147 12.147 12.147 0 0 1 12.147 12.147" fill="#9e3d33"/>
  <path d="m1647.1 379.39h49v8h-49z" fill="#9e3d33"/>
  <path d="m1648.1 307.39h48v8h-48z" fill="#9e3d33"/>
  <path transform="rotate(15)" d="m1699.8-105.32h8.4852v8.4853h-8.4852z" fill="#cd584c"/>
  <path d="m1652.1 367.39h40v12h-40z" fill="#a8493e"/>
 </g>
 <g>
  <path d="m48 111.97c-2.4363-3.4397 9.1749-27.134 10.843-33.021 3.5144 6.9505-4.2426 35.929 11.651 35.202-8.554 1.5761-12.668 1.3627-22.494-2.1812z" fill="#57a352"/>
  <path d="m26.618 108.56c-3.6403-6.9351 2.7033-14.77-1.384-19.933 5.9088 5.2454 8.6033 12.867 11.823 19.933-3.3511 0.31028-6.1219 2.0224-10.439 0z" fill="#57a352"/>
  <path d="m34.475 111.97c-0.71321-12.012 4.9471-12.409 6.5167-27.32 4.3097 3.9505 7.6118 18.172 7.0084 27.32-5.8162 2.5268-8.3212 0.67713-13.525 0z" fill="#539c4e"/>
  <path d="m80.127 112.96c4-12.882-6.604-28.675-6.604-28.675s-3.0786 15.948-7.0785 28.83c2.3905 1.5417 10.597 0.92982 13.683-0.15528z" fill="#539c4e"/>
  <path d="m90.379 107.84c-0.96332-6.4409 13.892-21.504 13.892-21.504s-6.8554 15.063-5.8921 21.504c-3.4507 1.6629-5.7748 0.93635-8 0z" fill="#539c4e"/>
  <path d="m92 111.97c5.5796-10.63-4.1435-22.639 2.1213-30.552-9.0567 8.0399-13.187 19.722-18.121 30.552 5.1364 0.47558 9.3833 3.0998 16 0z" fill="#57a352"/>
  <path d="m62.494 114.15c-4-6.4409 3.7537-21.504 3.7537-21.504s0.24628 15.063 4.2463 21.504c-2.6667 1.6629-5.3333 0.93635-8 0z" fill="#539c4e"/>
 </g>
</svg>
