<?xml version="1.0" encoding="utf-8"?>
<!-- Generator: Adobe Illustrator 26.4.1, SVG Export Plug-In . SVG Version: 6.00 Build 0)  -->
<svg version="1.1" id="Layer_1" xmlns="http://www.w3.org/2000/svg" xmlns:xlink="http://www.w3.org/1999/xlink" x="0px" y="0px"
	 viewBox="0 0 128 128" style="enable-background:new 0 0 128 128;" xml:space="preserve">
<style type="text/css">
	.st0{fill:#AAAAAA;}
	.st1{fill-opacity:0.2;}
	.st2{fill:#A8493E;}
	.st3{fill:#CD584C;}
	.st4{fill:#9E3D33;}
	.st5{fill:#FFFFFF;}
	.st6{fill:#555555;}
</style>
<g id="Layer_1_00000011717745126514458220000001372261501311614595_">
	<path class="st0" d="M128,64c0,35.3-28.7,64-64,64S0,99.3,0,64S28.7,0,64,0S128,28.7,128,64"/>
	<path class="st1" d="M64,16.1C53,16.1,44.1,25,44.1,36l0,0H40v8h8v12h-4v-4h-8v6c-3.3,0.1-5.9,2.8-5.9,6.1c0,3.3,2.6,6,5.9,6.1V76
		h8v-4h4v24h-4v12h-5v8h49v-8h-4V96h-4V72h4v4h8v-5.8c0.1,0,0.2,0,0.2,0c3.3,0,6.1-2.7,6.1-6.1c0-3.3-2.7-6.1-6.1-6.1l0,0
		c-0.1,0-0.2,0-0.2,0v-6h-8v4h-4V44h8v-8h-4.1l0,0C83.9,25,75,16.1,64,16.1L64,16.1z"/>
	<g transform="translate(-1608.1 -275.42)">
		<path class="st2" d="M1652.1,327.4h40v16h-40V327.4z"/>
		<path class="st3" d="M1672.1,287.5c-11,0-19.9,8.9-19.9,19.9l3.9,5v55h32v-56l3.9-4C1692,296.4,1683.1,287.5,1672.1,287.5
			L1672.1,287.5z"/>
		<path class="st3" d="M1706.4,335.6c0,3.3-2.7,6.1-6.1,6.1c-3.3,0-6.1-2.7-6.1-6.1s2.7-6.1,6.1-6.1
			C1703.7,329.5,1706.4,332.2,1706.4,335.6"/>
		<path class="st4" d="M1692.1,323.4h8v24h-8V323.4z"/>
		<path class="st3" d="M1650.3,335.5c0,3.3-2.7,6.1-6.1,6.1c-3.3,0-6.1-2.7-6.1-6.1s2.7-6.1,6.1-6.1
			C1647.6,329.4,1650.3,332.1,1650.3,335.5"/>
		<path class="st4" d="M1644.1,323.4h8v24h-8V323.4z"/>
		<path class="st4" d="M1684.2,343.5c0,6.7-5.4,12.1-12.1,12.1s-12.1-5.4-12.1-12.1s5.4-12.1,12.1-12.1
			C1678.8,331.4,1684.2,336.8,1684.2,343.5"/>
		<path class="st4" d="M1647.1,379.4h49v8h-49V379.4z"/>
		<path class="st4" d="M1648.1,307.4h48v8h-48V307.4z"/>
		<path class="st3" d="M1669.1,338.2l8.2,2.2l-2.2,8.2l-8.2-2.2L1669.1,338.2z"/>
		<path class="st2" d="M1652.1,367.4h40v12h-40V367.4z"/>
	</g>
</g>
<path class="st1" d="M63.7,49.1l30.2,30.2h2.6l23.9-23.6v-2.6L90.1,22.7h-25L63.7,24V49.1z"/>
<path class="st5" d="M63.7,45.1L94,75.3h2.6l23.8-23.8V49L90.1,18.7H65L63.7,20V45.1z M69,27.9c0-2.2,1.8-4,4-4s4,1.8,4,4
	s-1.8,4-4,4S69,30.2,69,27.9z"/>
<path class="st6" d="M100.3,38.4c-0.9-0.9-1.9-1.8-2.8-2.6L96,37c2.2,3.9-8.8,15.8-13.6,13.6L81.1,52c9.4,10.3,15.3,17,25,7.6
	C113.4,52.4,106.9,44.7,100.3,38.4L100.3,38.4z M87.8,26l-1.4,1.2C88.7,31.4,77.7,43,72.8,41l-1.3,1.4l7.3,7.3l1.4-1.2
	c-2.2-4,8.7-15.8,13.6-13.8l1.2-1.4L87.8,26z M101.5,43.2c4.1,4.1,4.9,8.3,0,13.2c-4,3.9-8.2,4.7-12.3-0.1
	C92.3,51.5,96.8,47.3,101.5,43.2L101.5,43.2z"/>
</svg>
