<?xml version="1.0" encoding="UTF-8"?>
<svg version="1.1" viewBox="0 0 128 128" xmlns="http://www.w3.org/2000/svg">
 <path d="m128 64c0 35.346-28.654 64-64 64s-64-28.654-64-64 28.654-64 64-64 64 28.654 64 64" fill="#9bbe55"/>
 <path d="m64 112c-24 0-40-12-40-32 0-20 41.882-23.478 32-60 0 0 32 20 24 44 0 0 8.5626-10.414 12-16 0 0 12 12 12 32 0 20-16 32-40 32z" fill-opacity=".2"/>
 <path d="m64 108c-24 0-40-12-40-32s41.882-23.478 32-60c0 0 32 20 24 44 0 0 8.5626-10.414 12-16 0 0 12 12 12 32s-16 32-40 32z" fill="#eb650d"/>
 <path d="m88 60c4 8 24 28-8 28-8 0 4-20 8-28z" fill="#e98616"/>
 <path d="m80 72c-16-16 0-24-16-44 4 20-28 36-28 52s12 24 28 24c16 0 24.335-22.671 16-32z" fill="#f1b014" />
 <path d="m64 96c-16 0-16-20 0-40 0 20 16 40 0 40z" fill="#f3f40f"/>
</svg>
