<?xml version="1.0" encoding="utf-8"?>
<!-- Generator: Adobe Illustrator 26.4.1, SVG Export Plug-In . SVG Version: 6.00 Build 0)  -->
<svg version="1.1" id="Layer_1" xmlns="http://www.w3.org/2000/svg" xmlns:xlink="http://www.w3.org/1999/xlink" x="0px" y="0px"
	 viewBox="0 0 128 128" style="enable-background:new 0 0 128 128;" xml:space="preserve">
<style type="text/css">
	.st0{fill:#AAAAAA;}
	.st1{fill-opacity:0.2;}
	.st2{fill:#A8493E;}
	.st3{fill:#CD584C;}
	.st4{fill:#9E3D33;}
	.st5{fill:#A0A0A0;stroke:#707070;stroke-miterlimit:10;}
</style>
<path class="st0" d="M128,64c0,35.3-28.7,64-64,64S0,99.3,0,64S28.7,0,64,0S128,28.7,128,64"/>
<path class="st1" d="M64,16.1C53,16.1,44.1,25,44.1,36l0,0H40v8h8v12h-4v-4h-8v6c-3.3,0.1-5.9,2.8-5.9,6.1c0,3.3,2.6,6,5.9,6.1V76h8
	v-4h4v24h-4v12h-5v8h49v-8h-4V96h-4V72h4v4h8v-5.8c0.1,0,0.2,0,0.2,0c3.3,0,6.1-2.7,6.1-6.1c0-3.3-2.7-6.1-6.1-6.1c0,0,0,0,0,0
	c-0.1,0-0.2,0-0.2,0V52h-8v4h-4V44h8v-8h-4.1l0,0C83.9,25,75,16.1,64,16.1L64,16.1z"/>
<g transform="translate(-1608.1 -275.42)">
	<path class="st2" d="M1652.1,327.4h40v16h-40V327.4z"/>
	<path class="st3" d="M1672.1,287.5c-11,0-19.9,8.9-19.9,19.9l3.9,5v55h32v-56l3.9-4C1692,296.4,1683.1,287.5,1672.1,287.5
		L1672.1,287.5z"/>
	<path class="st3" d="M1706.4,335.6c0,3.3-2.7,6.1-6.1,6.1c-3.3,0-6.1-2.7-6.1-6.1s2.7-6.1,6.1-6.1
		C1703.7,329.5,1706.4,332.2,1706.4,335.6"/>
	<path class="st4" d="M1692.1,323.4h8v24h-8V323.4z"/>
	<path class="st3" d="M1650.3,335.5c0,3.3-2.7,6.1-6.1,6.1c-3.3,0-6.1-2.7-6.1-6.1s2.7-6.1,6.1-6.1
		C1647.6,329.4,1650.3,332.1,1650.3,335.5"/>
	<path class="st4" d="M1644.1,323.4h8v24h-8V323.4z"/>
	<path class="st4" d="M1684.2,343.5c0,6.7-5.4,12.1-12.1,12.1c-6.7,0-12.1-5.4-12.1-12.1s5.4-12.1,12.1-12.1
		C1678.8,331.4,1684.2,336.8,1684.2,343.5"/>
	<path class="st4" d="M1647.1,379.4h49v8h-49V379.4z"/>
	<path class="st4" d="M1648.1,307.4h48v8h-48V307.4z"/>
	<path class="st3" d="M1669.1,338.2l8.2,2.2l-2.2,8.2l-8.2-2.2L1669.1,338.2z"/>
	<path class="st2" d="M1652.1,367.4h40v12h-40V367.4z"/>
</g>
<g>
	<path class="st5" d="M107.9,101.6H64.5c-1.7,0-3-1.3-3-3v-18c0-1.7,1.3-3,3-3h43.4c1.7,0,3,1.3,3,3v18
		C110.9,100.2,109.6,101.6,107.9,101.6z"/>
	<g>
		<path d="M74.2,82.8c1.5,0,2.6,0.3,3.4,1s1.2,1.6,1.2,2.8c0,0.7-0.2,1.3-0.6,1.8s-0.9,0.9-1.6,1.2c0.7,0.2,1.3,0.6,1.6,1.2
			c0.3,0.6,0.5,1.2,0.5,2v1.1c0,0.4,0.1,0.7,0.2,0.9c0.1,0.2,0.3,0.3,0.5,0.4l0.5,0.1v1.2h-1c-0.7,0-1.2-0.2-1.5-0.8
			c-0.3-0.5-0.5-1.1-0.5-1.8v-1.1c0-0.7-0.2-1.3-0.6-1.8c-0.4-0.5-1-0.7-1.7-0.7h-3V95l1.5,0.3v1.2h-4.9v-1.2l1.5-0.3V84.3L68.2,84
			v-1.2h1.5H74.2z M71.6,88.9h2.4c1,0,1.8-0.2,2.3-0.6c0.5-0.4,0.7-1,0.7-1.7c0-0.7-0.2-1.3-0.7-1.7c-0.5-0.4-1.1-0.6-2.1-0.6h-2.6
			V88.9z"/>
		<path d="M81.3,96.5v-1.2l1.5-0.3V84.3L81.3,84v-1.2h10.5v3.3h-1.6L90,84.3h-5.4v4.4h5.2v1.5h-5.2V95h5.5l0.2-1.8h1.6v3.3H81.3z"/>
		<path d="M93.5,95.3L95,95V84.3L93.5,84v-1.2h10.6v3.3h-1.6l-0.2-1.8h-5.5V89h5.3v1.5h-5.3V95l1.5,0.3v1.2h-4.9V95.3z"/>
	</g>
</g>
</svg>
