<?xml version="1.0" encoding="UTF-8"?>
<svg version="1.1" viewBox="0 0 128 128" xml:space="preserve" xmlns="http://www.w3.org/2000/svg">

  <path d="m128,64c0,35.346 -28.654,64 -64,64s-64,-28.654 -64,-64 28.654,-64 64,-64 64,28.654 64,64z"
        fill="#9bbe55"/>

  <path d="M30,96a34,8 0 1,0 68,0a34,8 0 1,0 -68,0z"
        fill="#000000" fill-opacity="0.2"/>

  <path d="M34,68 L62,68 A14,14 0 0 1 62,94 L34,94 A14,14 0 0 1 34,68 Z"
        fill="#b15c20"/>
  <path d="M34,81 m-13,0 a13,13 0 1,0 26,0 a13,13 0 1,0 -26,0"
        fill="#e8ad55"/>
  <path d="M34,81 m-6,0 a6,6 0 1,0 12,0 a6,6 0 1,0 -12,0"
        fill="#a35c27" fill-opacity="0.5"/>
  <path d="M28,75 m-2,0 a2,2 0 1,0 4,0 a2,2 0 1,0 -4,0"
        fill="#ffffff" fill-opacity="0.2"/>

  <path d="M48,43 L76,43 A16,14 0 0 1 76,69 L48,69 A14,14 0 0 1 48,43 Z"
        fill="#b15c20"/>
  <path d="M48,56 m-13,0 a13,13 0 1,0 26,0 a13,13 0 1,0 -26,0"
        fill="#e8ad55"/>
  <path d="M48,56 m-6,0 a6,6 0 1,0 12,0 a6,6 0 1,0 -12,0"
        fill="#a35c27" fill-opacity="0.5"/>
  <path d="M42,50 m-2,0 a2,2 0 1,0 4,0 a2,2 0 1,0 -4,0"
        fill="#ffffff" fill-opacity="0.2"/>

  <path d="M66,68 L94,68 A14,14 0 0 1 94,94 L66,94 A14,14 0 0 1 66,68 Z"
        fill="#b15c20"/>
  <path d="M66,81 m-13,0 a13,13 0 1,0 26,0 a13,13 0 1,0 -26,0"
        fill="#e8ad55"/>
  <path d="M66,81 m-6,0 a6,6 0 1,0 12,0 a6,6 0 1,0 -12,0"
        fill="#a35c27" fill-opacity="0.5"/>
  <path d="M60,75 m-2,0 a2,2 0 1,0 4,0 a2,2 0 1,0 -4,0"
        fill="#ffffff" fill-opacity="0.2"/>

</svg>
