<?xml version="1.0" encoding="UTF-8"?>
<svg version="1.1" viewBox="0 0 128 128" xml:space="preserve" xmlns="http://www.w3.org/2000/svg"><path d="M64 0a64 64 0 1 0 0 128A64 64 0 1 0 64 0z" fill="#9bbe55" stroke-width=".2"/><path d="m44 20c-2.2091 0-4 1.7909-4 4v12h-16c-4.432 0-8 3.568-8 8v48c0 4.432 3.568 8 8 8h80c4.432 0 8-3.568 8-8v-48c0-4.432-3.568-8-8-8h-16v-12c0-2.2091-1.7909-4-4-4zm4 8h32v8h-32z" fill-opacity=".2"/><path d="m44 16c-2.2091 0-4 1.7909-4 4v12h-16c-4.432 0-8 3.568-8 8v48c0 4.432 3.568 8 8 8h80c4.432 0 8-3.568 8-8v-48c0-4.432-3.568-8-8-8h-16v-12c0-2.2091-1.7909-4-4-4zm4 8h32v8h-32z" fill="#5a8049"/><path d="m70 44h-12v14h-14v12h14v14h12v-14h14v-12h-14z" fill="#fff"/></svg>
