<?xml version="1.0" encoding="UTF-8"?>
<svg version="1.1" viewBox="0 0 128.02 128.02" xmlns="http://www.w3.org/2000/svg">
 <path d="m119.44 96.011c-17.673 30.611-56.815 41.099-87.426 23.426s-41.099-56.815-23.426-87.426 56.815-41.099 87.426-23.426 41.099 56.815 23.426 87.426" fill="#fd5" stroke-width=".2"/>
 <path d="m20 34v10c21.422-6e-6 25.505 1.7466 38.082 14.912l-14.082 15.088 6 8h4v15l1 2 21 13h2l13.934-10.947 0.30079 0.22071 6.9785-6.0996c3.3707 2.6519 7.3757 8.7142 9.3496 14.783 1.6248-1.5769 3.1763-3.2487 4.6445-5.0176-1.8165-5.4133-5.858-11.428-9.207-13.939l-0.11719 0.0937 8.1172-7.0937-40-40-7.1797 7.6934c-12.155-12.211-23.654-17.693-44.82-17.693zm40 48h6l20.721 15.223-9.7207 7.7773-17-10z" fill-opacity=".2"/>
 <path d="m104 87-5 4c4 3 9 11 10.406 18.139 1.0844-1.0467 3.5813-3.8876 4.5937-5.1393-1-6-6-14-10-17z" fill="#666"/>
 <path d="m20 30-4e-6 9c23-6e-6 28 4 41.35 17.959l6.6501-5.9588c-13.415-14.55-25-21-48-21z" fill="#ccc" stroke-linejoin="round" stroke-width="5.577"/>
 <path d="m20 35-2e-6 5c23-6e-6 26 2 41 18l4-3c-14.696-15.599-22-20-45-20z" fill="#aaa" stroke-linejoin="round" stroke-width="5.577"/>
 <path d="m54 78-2e-6 15 1.0001 2 21 13h2l14-11-5.0001-4-10 8-17-10 7.7e-5 -13z" fill="#555" stroke-linejoin="bevel" stroke-width="5.577"/>
 <path d="m72 40-28 30 6 8 16-4e-6 26.234 19.274 19.766-17.274z" fill="#41a94c" fill-rule="evenodd" stroke-width="2.7094"/>
 <path d="m117.25 31.922c-13.436 15.046-22.862 30.05-44.643 40.676a14.105 14.105 0 0 0-6.4941 18.861 14.105 14.105 0 0 0 18.867 6.4941c20.31-9.9087 33.031-22.465 43.016-33.953-0.65172-11.41-4.342-22.52-10.746-32.078z" fill-opacity=".2"/>
 <path d="m117.16 28.326c-13.436 15.046-22.862 30.05-44.643 40.676a14.105 14.105 0 0 0-6.4941 18.861 14.105 14.105 0 0 0 18.867 6.4941c20.31-9.9087 33.031-22.465 43.016-33.953-0.65172-11.41-4.342-22.52-10.746-32.078z" fill="#fff"/>
</svg>
