<?xml version="1.0" encoding="UTF-8"?>
<svg enable-background="new 0 0 128 128" version="1.1" viewBox="0 0 128 128" xmlns="http://www.w3.org/2000/svg">
 <path d="M119.4,96c-17.7,30.6-56.8,41.1-87.4,23.4S-9.1,62.6,8.6,32S65.4-9.1,96,8.6S137.1,65.4,119.4,96" fill="#aaa"/>
 <path d="m26 65.111 44.889 44.741h3.8519l35.259-35.259v-3.7037l-44.889-44.889h-37.185l-1.9259 1.9259zm7.8519-25.481c0-3.2593 2.6667-5.9259 5.9259-5.9259 3.2593 0 5.9259 2.6667 5.9259 5.9259 0 3.2593-2.6667 5.9259-5.9259 5.9259-3.2593 0-5.9259-2.5185-5.9259-5.9259z" fill="#fff"/>
 <path d="m80.222 55.185c-1.3333-1.3333-2.8148-2.6667-4.1481-3.8519l-2.2222 1.7778c3.2593 5.7778-13.037 23.407-20.148 20.148l-1.9259 2.0741c13.926 15.259 22.667 25.185 37.037 11.259 10.815-10.667 1.1852-22.074-8.5926-31.407zm-18.519-18.37-2.0741 1.7778c3.4074 6.2222-12.889 23.407-20.148 20.444l-1.9259 2.0741 10.815 10.815 2.0741-1.7778c-3.2593-5.9259 12.889-23.407 20.148-20.444l1.7778-2.0741zm20.296 25.481c6.0741 6.0741 7.2593 12.296 0 19.556-5.9259 5.7778-12.148 6.963-18.222-0.14815 4.5926-7.1111 11.259-13.333 18.222-19.407z" fill="#555"/>
</svg>
