<?xml version="1.0" encoding="UTF-8"?>
<svg version="1.1" viewBox="0 0 128 128" xmlns="http://www.w3.org/2000/svg">
 <path d="m128 64c0 35.346-28.654 64-64 64s-64-28.654-64-64 28.654-64 64-64 64 28.654 64 64" fill="#e9a76f" stroke-width=".2"/>
 <path d="m64 12c-29.742 0-54 24.258-54 54s24.258 54 54 54c29.742 0 54-24.258 54-54s-24.258-54-54-54zm0 13.746c8.6156 0 16.573 2.6836 23.104 7.252l-56.106 56.105c-4.5683-6.5307-7.2519-14.488-7.2519-23.104 0-22.313 17.94-40.254 40.254-40.254zm33.002 17.15c4.5683 6.5307 7.2519 14.488 7.2519 23.104 0 22.313-17.94 40.254-40.254 40.254-8.6156 0-16.573-2.6836-23.104-7.252z" fill-opacity=".2"/>
 <path d="m64 8c-29.742 0-54 24.258-54 54s24.258 54 54 54 54-24.258 54-54-24.258-54-54-54zm0 13.746c8.6156 0 16.573 2.6836 23.104 7.252l-56.106 56.105c-4.5683-6.5307-7.2519-14.488-7.2519-23.104 0-22.313 17.94-40.254 40.254-40.254zm33.002 17.15c4.5683 6.5307 7.2519 14.488 7.2519 23.104 0 22.313-17.94 40.254-40.254 40.254-8.6156 0-16.573-2.6836-23.104-7.252z" fill="#c84747"/>
 <path d="m59.35 20.449c-9.0101 9.0101-9.6949 23.165-2.1016 32.984l-10.6-10.52c-1.9594-11.873-12.244-20.938-24.672-20.937 1e-5 11.993 8.4367 22.003 19.695 24.451l9.7422 9.668c-4.1484-2.7182-8.9254-4.0802-13.703-4.0801-6.4077 1.04e-4 -12.814 2.4452-17.703 7.334 9.6562 9.6562 25.226 9.7583 35.029 0.34374l10.506 10.428c-4.2314-2.8809-9.1417-4.3359-14.061-4.3359-6.4078-1.06e-4 -12.816 2.4449-17.705 7.334 9.6733 9.6733 25.283 9.761 35.084 0.29297l10.854 10.773c-4.3215-3.07-9.3852-4.6308-14.463-4.6308-6.4078-1.05e-4 -12.816 2.4449-17.705 7.334 9.6908 9.6908 25.341 9.7639 35.139 0.24414l11.203 11.119c-4.4077-3.2663-9.6297-4.9276-14.867-4.9277-6.4078-1.06e-4 -12.816 2.4449-17.705 7.334 9.7083 9.7082 25.399 9.767 35.193 0.19531l7.6293 7.2271c1.1758 1.167 3.075 1.16 4.2422-0.0156 1.167-1.1758 1.16-3.075-0.0156-4.2422l-7.6098-7.2076c9.6737-9.7865 9.6449-25.556-0.0977-35.299-9.1568 9.1568-9.7357 23.638-1.7441 33.471l-11.85-11.76c9.5922-9.7925 9.5394-25.502-0.17578-35.217-8.9752 8.9752-9.6872 23.056-2.1875 32.871l-11.502-11.416c9.6001-9.7919 9.5498-25.507-0.16797-35.225-8.9935 8.9935-9.6913 23.114-2.1426 32.932l-11.379-11.293c9.6079-9.7913 9.5603-25.51-0.16016-35.23z" color="#000000" fill-opacity=".2" stroke-linecap="round" stroke-width=".21849" style="-inkscape-stroke:none"/>
 <path d="m25.829 22.13 80.343 79.741" fill="#f6e27d" stroke="#f0cc12" stroke-linecap="round" stroke-width="6"/>
 <path d="m59.35 16.506c-9.7785 9.7785-9.7773 25.633 0 35.41 9.7783-9.7783 9.7775-25.633 0-35.41zm-37.373 1.4707c-1e-6 13.827 11.208 25.035 25.035 25.035 1e-6 -13.827-11.208-25.035-25.035-25.035zm50.955 12.051c-9.7785 9.7785-9.7773 25.631 1e-6 35.408 9.7783-9.7783 9.7775-25.631-1e-6 -35.408zm13.957 13.52c-9.7785 9.7785-9.7773 25.633 1e-6 35.41 9.7783-9.7783 9.7775-25.633-1e-6 -35.41zm-49.176 4.4707c-6.4077 1.1e-4 -12.816 2.4433-17.705 7.332 9.7782 9.7782 25.631 9.7773 35.408-1e-6 -4.8892-4.8892-11.295-7.3321-17.703-7.332zm62.945 9.2988c-9.7785 9.7785-9.7773 25.633 0 35.41 9.7784-9.7783 9.7775-25.633 0-35.41zm-49.176 4.4707c-6.4078-1.08e-4 -12.816 2.4429-17.705 7.332 9.7775 9.7775 25.63 9.7783 35.408 3e-6 -4.8886-4.8886-11.295-7.3319-17.703-7.332zm13.77 13.77c-6.4078-1.08e-4 -12.816 2.4429-17.705 7.332 9.7775 9.7775 25.63 9.7783 35.408 2e-6 -4.8886-4.8886-11.295-7.3319-17.703-7.332zm13.77 13.77c-6.4078-1.08e-4 -12.816 2.4429-17.705 7.332 9.7775 9.7775 25.63 9.7783 35.408-1e-6 -4.8886-4.8886-11.295-7.3319-17.703-7.332z" fill="#f6e27d" stroke-width=".24722"/>
 <path d="m59.35 16.506c-0.14736 0.14736-0.29255 0.29533-0.43555 0.44531 5.9833 9.5028 4.962 22.154-3.0645 30.582l3.1e-5 0.0021c0.97927 1.5551 2.1456 3.0245 3.5 4.3789 9.7783-9.7783 9.7775-25.631 2e-6 -35.408zm-37.373 1.4707c-1.76e-4 13.827 11.208 25.037 25.035 25.037l0.0021 3.1e-5c3.8e-4 -1.4712-0.13554-2.9109-0.37888-4.3125-10.37-1.801-18.546-9.9774-20.348-20.348-1.4016-0.24333-2.8394-0.3773-4.3105-0.37695zm50.955 12.049c-0.14736 0.14736-0.29078 0.29745-0.4336 0.44726 5.9833 9.5029 4.962 22.152-3.0645 30.58l3.1e-5 0.0021c0.97909 1.5553 2.1435 3.0266 3.498 4.3809 9.7783-9.7783 9.7775-25.633 0-35.41zm13.957 13.521c-0.14736 0.14736-0.29273 0.29551-0.43555 0.44531 5.9833 9.5029 4.962 22.152-3.0645 30.58v0.0021c0.97927 1.5551 2.1456 3.0265 3.5 4.3809 9.7783-9.7783 9.7775-25.631 2e-6 -35.408zm-35.854 8.3047c-8.4285 8.0264-21.077 9.0481-30.58 3.0645-0.15015 0.14317-0.2999 0.28819-0.44726 0.43555 9.7783 9.7783 25.631 9.7775 35.408 3e-6 -1.3541-1.3541-2.824-2.5209-4.3789-3.5zm49.623 5.4648c-0.14736 0.14736-0.29271 0.29552-0.43555 0.44531 5.9833 9.5028 4.962 22.152-3.0645 30.58v0.0021c0.97909 1.5553 2.1454 3.0266 3.5 4.3809 9.7784-9.7783 9.7775-25.631 0-35.408zm-35.854 8.3047c-8.4285 8.0264-21.077 9.0481-30.58 3.0645-0.15015 0.14317-0.2999 0.28819-0.44726 0.43555 9.7783 9.7783 25.631 9.7775 35.408 1e-6 -1.3541-1.3541-2.824-2.5209-4.3789-3.5zm13.77 13.77c-8.4285 8.0264-21.077 9.0481-30.58 3.0645-0.15016 0.14317-0.2999 0.28819-0.44726 0.43555 9.7783 9.7783 25.631 9.7775 35.408 0-1.3541-1.3541-2.824-2.5209-4.3789-3.5zm13.77 13.77c-8.4283 8.0263-21.077 9.0479-30.58 3.0645-0.15016 0.14317-0.2999 0.28819-0.44726 0.43555 9.7783 9.7784 25.631 9.7775 35.408 1e-6 -1.3541-1.3541-2.824-2.5209-4.3789-3.5z" fill="#f0cc12" stroke-width=".24722"/>
 <path d="m30.998 85.103 9.8979 9.899 56.106-56.106-9.898-9.898z" fill="#c84747"/>
</svg>
