<svg version="1.1" viewBox="0 0 128 128" xmlns="http://www.w3.org/2000/svg">
 <path d="m128 64c0 35.346-28.654 64-64 64s-64-28.654-64-64 28.654-64 64-64 64 28.654 64 64" fill="#e9a76f" stroke-width=".2"/>
 <path d="m64.015 14.08c-28.702 0-51.971 23.269-51.971 51.971s23.269 51.971 51.971 51.971 51.971-23.269 51.971-51.971-23.269-51.971-51.971-51.971z" fill-opacity=".2"/>
 <g transform="matrix(2.8872 0 0 -2.8872 12.074 113.99)">
  <g transform="translate(36,18)">
   <path d="m0 0c0-9.941-8.059-18-18-18s-18 8.059-18 18 8.059 18 18 18 18-8.059 18-18" fill="#fff"/>
  </g>
  <g transform="matrix(1.1034 0 0 1.1006 31.074 18)">
   <path d="m0 0c0-6.628-5.372-12-12-12s-12 5.372-12 12 5.372 12 12 12 12-5.372 12-12" fill="#ccd6dd"/>
  </g>
  <g transform="matrix(1.0555 0 0 1.061 29.415 18)" fill="#fff">
   <path d="m0 0c0-6.075-4.925-11-11-11-6.076 0-11 4.925-11 11 0 6.076 4.924 11 11 11 6.075 0 11-4.924 11-11" fill="#fff"/>
  </g>
 </g>
 <g transform="matrix(.21849 0 0 .21849 7.4693 7.4878)">
  <g fill="#f8e99b">
   <path d="m368.53 188.48c0 55.933-45.342 101.28-101.28 101.28 0-55.932 45.341-101.28 101.28-101.28z"/>
   <path d="m368.53 109.71c0 55.933-45.342 101.28-101.28 101.28 0-55.932 45.341-101.28 101.28-101.28z"/>
   <path d="m256 8.439c-39.55 39.55-39.55 103.67 0 143.22 39.55-39.55 39.55-103.67 0-143.22z"/>
   <path d="m368.53 267.25c0 55.933-45.342 101.28-101.28 101.28 0-55.932 45.341-101.28 101.28-101.28z"/>
   <path d="m143.47 188.48c0 55.933 45.342 101.28 101.28 101.28 0-55.932-45.343-101.28-101.28-101.28z"/>
   <path d="m143.47 109.71c0 55.933 45.342 101.28 101.28 101.28 0-55.932-45.343-101.28-101.28-101.28z"/>
   <path d="m143.47 267.25c0 55.933 45.342 101.28 101.28 101.28 0-55.932-45.343-101.28-101.28-101.28z"/>
   <path d="m368.53 346.02c0 55.933-45.342 101.28-101.28 101.28 0-55.932 45.341-101.28 101.28-101.28z"/>
   <path d="m143.47 346.02c0 55.933 45.342 101.28 101.28 101.28 0-55.932-45.343-101.28-101.28-101.28z"/>
  </g>
  <g fill="#f6e27d">
   <path d="m345.99 191c-1.15 47.066-34.41 86.167-78.705 96.234-0.02 0.837-0.031 1.678-0.031 2.521 55.933 0 101.28-45.342 101.28-101.28-7.748-1e-3 -15.29 0.872-22.539 2.52z"/>
   <path d="m345.99 112.23c-1.15 47.066-34.41 86.167-78.705 96.234-0.02 0.838-0.031 1.678-0.031 2.521 55.933 0 101.28-45.342 101.28-101.28-7.748 0-15.29 0.873-22.539 2.52z"/>
   <path d="m256 8.439c-4.209 4.207-7.94 8.707-11.253 13.412 24.51 34.813 24.51 81.586 0 116.4 3.313 4.705 7.044 9.205 11.253 13.412 39.55-39.549 39.55-103.67 0-143.22z"/>
   <path d="m345.99 269.77c-1.15 47.066-34.41 86.167-78.705 96.234-0.02 0.837-0.031 1.678-0.031 2.521 55.933 0 101.28-45.342 101.28-101.28-7.748 0-15.29 0.873-22.539 2.52z"/>
   <path d="m222.21 287.24c7.248 1.647 14.791 2.521 22.537 2.521 0-55.933-45.342-101.28-101.28-101.28 0 0.843 0.011 1.682 0.031 2.521 44.297 10.067 77.557 49.167 78.707 96.233z"/>
   <path d="m222.21 208.47c7.248 1.647 14.791 2.521 22.537 2.521 0-55.933-45.342-101.28-101.28-101.28 0 0.843 0.011 1.682 0.031 2.521 44.297 10.067 77.557 49.167 78.707 96.233z"/>
   <path d="m222.21 366.01c7.248 1.647 14.791 2.521 22.537 2.521 0-55.933-45.342-101.28-101.28-101.28 0 0.843 0.011 1.682 0.031 2.521 44.297 10.067 77.557 49.167 78.707 96.233z"/>
   <path d="m345.99 348.54c-1.15 47.066-34.41 86.167-78.705 96.234-0.02 0.837-0.031 1.678-0.031 2.521 55.933 0 101.28-45.342 101.28-101.28-7.748-1e-3 -15.29 0.872-22.539 2.52z"/>
   <path d="m222.21 444.78c7.248 1.647 14.791 2.521 22.537 2.521 0-55.933-45.342-101.28-101.28-101.28 0 0.843 0.011 1.682 0.031 2.521 44.297 10.068 77.557 49.168 78.707 96.233z"/>
  </g>
  <path d="m368.53 196.92c4.662 0 8.44-3.779 8.44-8.44s-3.778-8.44-8.44-8.44c-6.275 0-12.425 0.537-18.414 1.554 8.86-10.186 15.934-22.088 20.608-35.313 1.553-4.394-0.751-9.216-5.145-10.769-4.393-1.553-9.216 0.751-10.769 5.145-12.091 34.212-43.059 58.049-78.696 61.466 4.477-47.047 44.216-83.973 92.416-83.973 4.662 0 8.44-3.779 8.44-8.44s-3.778-8.44-8.44-8.44c-48.376 0-89.535 31.474-104.09 75.018v-21.226c29.172-31.108 37.744-76.243 21.74-116.02-1.74-4.326-6.656-6.417-10.98-4.68-4.324 1.74-6.419 6.655-4.679 10.979 12.807 31.831 7.022 67.719-14.521 93.787-30.107-36.433-28.116-90.643 5.968-124.73 3.296-3.296 3.296-8.64 0-11.935-3.297-3.296-8.64-3.295-11.936 0-41.928 41.927-42.732 109.61-2.472 152.56v21.262c-14.553-43.544-55.712-75.018-104.09-75.018-4.661 0-8.44 3.779-8.44 8.44 0 27.476 10.153 52.624 26.903 71.892-6.006-1.022-12.172-1.562-18.464-1.562-4.661 0-8.44 3.779-8.44 8.44 0 27.476 10.153 52.624 26.903 71.892-6.006-1.022-12.172-1.562-18.464-1.562-4.661 0-8.44 3.779-8.44 8.44 0 27.476 10.153 52.624 26.903 71.892-6.006-1.022-12.172-1.562-18.464-1.562-4.661 0-8.44 3.779-8.44 8.44 0 60.497 49.217 109.72 109.72 109.72 0.988 0 1.932-0.179 2.813-0.491v48.315c0 4.661 3.779 8.44 8.44 8.44 4.662 0 8.44-3.779 8.44-8.44v-48.315c0.881 0.312 1.825 0.491 2.813 0.491 46.426 0 88.007-29.395 103.47-73.144 1.553-4.394-0.751-9.216-5.145-10.769-4.393-1.555-9.216 0.751-10.769 5.145-12.091 34.212-43.059 58.049-78.696 61.466 4.477-47.047 44.216-83.973 92.416-83.973 4.662 0 8.44-3.779 8.44-8.44s-3.778-8.44-8.44-8.44c-6.275 0-12.425 0.537-18.414 1.554 8.86-10.186 15.934-22.088 20.608-35.313 1.553-4.394-0.751-9.216-5.145-10.769-4.393-1.553-9.216 0.751-10.769 5.145-12.091 34.212-43.059 58.049-78.696 61.466 4.477-47.047 44.216-83.973 92.416-83.973 4.662 0 8.44-3.779 8.44-8.44s-3.778-8.44-8.44-8.44c-6.275 0-12.425 0.537-18.414 1.554 8.86-10.186 15.934-22.088 20.608-35.313 1.553-4.394-0.751-9.216-5.145-10.769-4.393-1.554-9.216 0.751-10.769 5.145-12.091 34.212-43.059 58.049-78.696 61.466 4.48-47.047 44.218-83.973 92.419-83.973zm-120.97 136.91c-4.619-13.821-11.916-26.426-21.277-37.195 6.006 1.022 12.172 1.562 18.464 1.562 0.988 0 1.932-0.179 2.813-0.491zm0-114.89v36.124c-4.619-13.821-11.916-26.426-21.277-37.195 6.006 1.022 12.172 1.562 18.464 1.562 0.988-1e-3 1.932-0.178 2.813-0.491zm-11.672-16.807c-44.136-4.196-79.361-39.422-83.557-83.557 44.135 4.195 79.361 39.421 83.557 83.557zm0 78.769c-44.136-4.196-79.361-39.422-83.557-83.557 44.135 4.196 79.361 39.421 83.557 83.557zm0 78.769c-44.136-4.196-79.361-39.422-83.557-83.557 44.135 4.196 79.361 39.422 83.557 83.557zm-83.558-4.788c44.136 4.196 79.361 39.422 83.557 83.557-44.135-4.195-79.361-39.421-83.557-83.557zm73.953 20.524c6.006 1.022 12.172 1.562 18.464 1.562 0.988 0 1.932-0.179 2.813-0.491v36.124c-4.619-13.82-11.916-26.426-21.277-37.195zm59.457-0.027c-9.372 10.775-16.678 23.389-21.3 37.222v-36.124c0.881 0.312 1.825 0.491 2.813 0.491 6.27 0 12.446-0.553 18.487-1.589zm0-78.769c-9.372 10.775-16.678 23.389-21.3 37.222v-36.124c0.881 0.312 1.825 0.491 2.813 0.491 6.27 0 12.446-0.554 18.487-1.589zm-21.301-41.548v-36.124c0.881 0.312 1.825 0.491 2.813 0.491 6.27 0 12.447-0.554 18.487-1.589-9.372 10.775-16.677 23.39-21.3 37.222z" fill="#2e2d31"/>
 </g>
</svg>
