<?xml version="1.0" encoding="utf-8"?>
<!-- Generator: Adobe Illustrator 27.9.1, SVG Export Plug-In . SVG Version: 6.00 Build 0)  -->
<svg version="1.1" id="Layer_1" xmlns="http://www.w3.org/2000/svg" xmlns:xlink="http://www.w3.org/1999/xlink" x="0px" y="0px"
	 viewBox="0 0 128 128" style="enable-background:new 0 0 128 128;" xml:space="preserve">
<style type="text/css">
	.st0{fill:#9BBE55;}
	.st1{fill:#666666;}
	.st2{fill-opacity:0.2;}
	.st3{fill:#3279BB;}
</style>
<path class="st0" d="M119.4,96c-17.7,30.6-56.8,41.1-87.4,23.4S-9.1,62.6,8.6,32S65.4-9.1,96,8.6S137.1,65.4,119.4,96"/>
<path class="st1" d="M58,16h12.2v112H58L58,16z"/>
<path class="st2" d="M84,32.1l-52.9,0L16,45.3l15.1,13.2l52.9,0V32.1z"/>
<path class="st3" d="M84,28l-52.9,0L16,41.2l15.1,13.2H84V28z"/>
<path class="st2" d="M47.2,72.2H100l15.1,13.2L100,98.6l-52.9,0V72.2z"/>
<path class="st3" d="M47.1,68H100l15.1,13.2L100,94.4H47.1L47.1,68z"/>
</svg>
