<?xml version="1.0" encoding="UTF-8" standalone="no"?>
<!-- Generator: Adobe Illustrator 27.9.1, SVG Export Plug-In . SVG Version: 6.00 Build 0)  -->

<svg
   version="1.1"
   id="Layer_1"
   x="0px"
   y="0px"
   viewBox="0 0 128 128"
   style="enable-background:new 0 0 128 128;"
   xml:space="preserve"
   sodipodi:docname="guidepost_name.svg"
   inkscape:version="1.3.2 (091e20e, 2023-11-25, custom)"
   xmlns:inkscape="http://www.inkscape.org/namespaces/inkscape"
   xmlns:sodipodi="http://sodipodi.sourceforge.net/DTD/sodipodi-0.dtd"
   xmlns="http://www.w3.org/2000/svg"
   xmlns:svg="http://www.w3.org/2000/svg"><defs
   id="defs6" /><sodipodi:namedview
   id="namedview6"
   pagecolor="#ffffff"
   bordercolor="#000000"
   borderopacity="0.25"
   inkscape:showpageshadow="2"
   inkscape:pageopacity="0.0"
   inkscape:pagecheckerboard="0"
   inkscape:deskcolor="#d1d1d1"
   inkscape:zoom="4.491233"
   inkscape:cx="34.511681"
   inkscape:cy="65.126882"
   inkscape:window-width="1920"
   inkscape:window-height="1009"
   inkscape:window-x="-8"
   inkscape:window-y="-8"
   inkscape:window-maximized="1"
   inkscape:current-layer="Layer_1" />
<style
   type="text/css"
   id="style1">
	.st0{fill:#9BBE55;}
	.st1{fill:#666666;}
	.st2{fill-opacity:0.2;}
	.st3{fill:#3279BB;}
</style>
<path
   class="st0"
   d="M119.4,96c-17.7,30.6-56.8,41.1-87.4,23.4S-9.1,62.6,8.6,32S65.4-9.1,96,8.6S137.1,65.4,119.4,96"
   id="path1" />
<path
   class="st1"
   d="M58,16h12.2v112H58L58,16z"
   id="path2" />
<path
   class="st2"
   d="M84,32.1l-52.9,0L16,45.3l15.1,13.2l52.9,0V32.1z"
   id="path3" />
<path
   class="st3"
   d="M84,28l-52.9,0L16,41.2l15.1,13.2H84V28z"
   id="path4" />
<path
   class="st2"
   d="M47.2,72.2H100l15.1,13.2L100,98.6l-52.9,0V72.2z"
   id="path5" />
<path
   class="st3"
   d="M47.1,68H100l15.1,13.2L100,94.4H47.1L47.1,68z"
   id="path6" />
<path
   class="st5"
   d="m 61.943943,41.32041 43.071957,43.071956 2.92322,0.76317 18.97104,-19.10893 -0.82843,-2.82844 L 83.064035,20.200478 H 62.984038 l -1.039987,1.039988 z m 4.239969,-13.759999 c 0,-1.760021 1.440013,-3.200034 3.200033,-3.200032 1.75999,2.6e-5 3.20001,1.440038 3.20001,3.200005 0,1.76002 -1.44002,3.200034 -3.20001,3.20006 -1.760021,0 -3.200033,-1.36005 -3.200033,-3.200033 z"
   id="path15-8"
   style="fill:#ffffff;stroke-width:0.799998"
   sodipodi:nodetypes="cccccccccsssss" /><path
   style="font-size:7.66615px;font-family:Serif;-inkscape-font-specification:Serif;fill:#555555;stroke-width:1.93163"
   d="m 79.430195,26.610326 2.94515,2.945153 -1.50457,14.773746 6.25845,-6.258449 q 1.00038,-1.000381 1.02454,-1.472454 0.04,-0.63222 -0.60028,-1.272476 l -0.37616,-0.37616 0.29612,-0.296116 3.77749,3.777492 -0.29612,0.296116 -0.38415,-0.38415 q -0.68828,-0.688284 -1.39255,-0.560214 -0.43215,0.0799 -1.34455,0.992304 l -9.14759,9.147587 -0.28812,-0.288124 1.58465,-15.894229 -6.68264,6.682634 q -1.00038,1.000381 -1.03226,1.464685 -0.032,0.640283 0.60022,1.272522 l 0.38415,0.38415 -0.29611,0.296116 -3.77746,-3.77746 0.29611,-0.296117 0.37613,0.376129 q 0.69628,0.696281 1.40057,0.568239 0.43215,-0.07991 1.34458,-0.992337 l 7.54696,-7.546957 q 0.08,-1.024409 0.008,-1.448592 -0.0639,-0.416112 -0.38417,-1.040389 -0.15982,-0.304135 -0.63211,-0.776425 z m 6.92274,26.514355 q -2.00079,-0.25611 -2.42495,-0.408148 -0.63235,-0.232004 -1.12054,-0.720198 -0.76028,-0.760281 -0.73631,-1.776722 0.032,-1.008347 0.88036,-1.856688 0.53622,-0.536217 1.16835,-0.688365 0.87239,-0.216073 2.16085,0.112034 1.29652,0.336126 3.87354,1.536629 l 0.2881,-0.288098 q 1.09646,-1.096458 1.15247,-1.85674 0.064,-0.752317 -0.60023,-1.41658 -0.50419,-0.504195 -1.07242,-0.528194 -0.57625,-0.03202 -0.92839,0.320116 l -0.44811,0.480217 q -0.36817,0.368167 -0.76012,0.376345 -0.38431,0.01604 -0.68836,-0.288014 -0.29612,-0.296122 -0.28024,-0.696088 0.0238,-0.392061 0.38409,-0.752371 0.68826,-0.688257 1.96878,-0.560188 1.28048,0.12804 2.55298,1.400535 0.97639,0.976387 1.27247,1.92874 0.22418,0.720196 -0.08,1.472564 -0.20009,0.488193 -1.26451,1.552608 l -2.48898,2.488981 q -1.0484,1.048406 -1.24841,1.3286 -0.19188,0.272068 -0.18411,0.440139 0.016,0.175848 0.1363,0.296113 0.12801,0.128015 0.28008,0.167839 0.27233,0.06387 1.23249,0.06401 l -0.44818,0.448183 q -2.09682,0.304131 -2.91314,-0.512188 -0.39214,-0.39214 -0.35211,-0.896345 0.0401,-0.504063 0.68836,-1.168347 z m 0.52021,-0.520208 2.79308,-2.793087 q -1.68864,-0.728294 -2.24089,-0.880307 -0.9844,-0.280134 -1.64064,-0.168127 -0.65626,0.112088 -1.11241,0.568236 -0.57625,0.576251 -0.61626,1.304542 -0.032,0.720245 0.41616,1.168423 0.60825,0.608248 2.40096,0.80032 z m 9.70777,0.888375 q 1.60063,-5.4e-5 1.86476,0.02397 0.66425,0.05604 1.2485,0.304136 0.584275,0.248065 0.992425,0.656215 0.68825,0.688255 0.78431,1.584625 0.096,0.896334 -0.49621,1.824723 1.78468,-0.136065 2.64901,0.136029 0.87236,0.264098 1.47259,0.864324 0.58424,0.58424 0.72829,1.336559 0.16005,0.752285 -0.25608,1.696629 -0.28834,0.640042 -1.28073,1.632428 l -3.15324,3.15324 q -0.68829,0.688281 -0.84014,1.048591 -0.0962,0.256029 -0.008,0.600229 0.0957,0.336201 0.584,0.824521 l -0.28813,0.288129 -3.617405,-3.6174 0.28813,-0.28813 0.15207,0.15207 q 0.47218,0.47219 0.92042,0.55215 0.31215,0.0561 0.67222,-0.14413 0.16806,-0.104 0.80832,-0.74426 l 3.153245,-3.153236 q 0.89634,-0.89634 1.04827,-1.480686 0.2001,-0.824341 -0.48817,-1.512603 -0.42417,-0.424179 -1.07253,-0.64012 -0.63211,-0.216263 -1.81673,-0.248118 l -0.10425,0.07214 -0.32809,0.360193 -3.497385,3.497379 q -0.75226,0.752261 -0.85643,1.016261 -0.096,0.27232 0.008,0.63226 0.11171,0.35224 0.67204,0.91257 l -0.28813,0.28812 -3.70546,-3.705463 0.28812,-0.288126 q 0.60827,0.608268 0.97639,0.688286 0.37602,0.08792 0.75231,-0.112032 0.17613,-0.09594 0.8324,-0.752205 l 3.15323,-3.153238 q 0.89634,-0.89634 1.02446,-1.552554 0.16009,-0.864349 -0.47215,-1.496588 -0.43218,-0.432176 -1.08831,-0.624359 -1.01639,-0.312124 -1.81673,-0.232082 l -3.92953,3.929527 q -0.72027,0.720274 -0.84043,1.032322 -0.11171,0.320168 -0.032,0.624222 0.0959,0.304396 0.69609,0.904546 l -0.28812,0.288125 -3.62543,-3.625421 0.28813,-0.288126 q 0.50419,0.504196 0.80849,0.600036 0.31215,0.08819 0.64822,-0.04001 0.34422,-0.135766 1.0246,-0.816139 l 2.8011,-2.801105 q 1.20846,-1.208464 1.48846,-1.632784 0.20791,-0.32019 0.18428,-0.535973 -0.016,-0.224494 -0.22391,-0.432362 -0.22422,-0.224224 -0.65619,-0.416195 l 0.16785,-0.408357 3.10518,1.312506 0.34414,0.344142 z m 10.388075,13.221168 q -1.64061,1.62463 -1.7687,3.353301 -0.12804,1.728669 0.95237,2.80909 0.72028,0.72028 1.64064,0.856309 0.93638,0.13606 2.2569,-0.46417 l 0.0879,0.408101 q -1.26454,0.92833 -2.9772,1.024379 -1.70464,0.088 -2.92113,-1.12845 -1.32049,-1.32049 -1.24045,-3.28927 0.096,-1.96877 1.83271,-3.70546 1.88074,-1.88074 3.88949,-1.96875 2.0248,-0.0881 3.48137,1.36852 1.23247,1.232471 1.20847,2.84112 -0.016,1.60063 -1.37652,2.961161 z m 0.46419,-0.4642 3.39332,3.39332 q 0.66417,-0.74436 0.82428,-1.1605 0.24799,-0.64832 0.10404,-1.30448 -0.13611,-0.648169 -0.56831,-1.08038 -0.66423,-0.66423 -1.71266,-0.67224 -1.0324,-0.008 -2.04078,0.82434 z"
   id="text10"
   aria-label="Name" /></svg>
