<?xml version="1.0" encoding="UTF-8" standalone="no"?>
<!-- Generator: Adobe Illustrator 27.9.1, SVG Export Plug-In . SVG Version: 6.00 Build 0)  -->

<svg
   version="1.1"
   id="Layer_1"
   x="0px"
   y="0px"
   viewBox="0 0 128 128"
   style="enable-background:new 0 0 128 128;"
   xml:space="preserve"
   sodipodi:docname="guidepost_ref.svg"
   inkscape:version="1.3.2 (091e20e, 2023-11-25, custom)"
   xmlns:inkscape="http://www.inkscape.org/namespaces/inkscape"
   xmlns:sodipodi="http://sodipodi.sourceforge.net/DTD/sodipodi-0.dtd"
   xmlns="http://www.w3.org/2000/svg"
   xmlns:svg="http://www.w3.org/2000/svg"><defs
   id="defs6" /><sodipodi:namedview
   id="namedview6"
   pagecolor="#ffffff"
   bordercolor="#000000"
   borderopacity="0.25"
   inkscape:showpageshadow="2"
   inkscape:pageopacity="0.0"
   inkscape:pagecheckerboard="0"
   inkscape:deskcolor="#d1d1d1"
   inkscape:zoom="6.3515625"
   inkscape:cx="63.921279"
   inkscape:cy="64"
   inkscape:window-width="1920"
   inkscape:window-height="1009"
   inkscape:window-x="-8"
   inkscape:window-y="-8"
   inkscape:window-maximized="1"
   inkscape:current-layer="Layer_1" />
<style
   type="text/css"
   id="style1">
	.st0{fill:#9BBE55;}
	.st1{fill:#666666;}
	.st2{fill-opacity:0.2;}
	.st3{fill:#3279BB;}
</style>
<path
   class="st0"
   d="M119.4,96c-17.7,30.6-56.8,41.1-87.4,23.4S-9.1,62.6,8.6,32S65.4-9.1,96,8.6S137.1,65.4,119.4,96"
   id="path1" />
<path
   class="st1"
   d="M58,16h12.2v112H58L58,16z"
   id="path2" />
<path
   class="st2"
   d="M84,32.1l-52.9,0L16,45.3l15.1,13.2l52.9,0V32.1z"
   id="path3" />
<path
   class="st3"
   d="M84,28l-52.9,0L16,41.2l15.1,13.2H84V28z"
   id="path4" />
<path
   class="st2"
   d="M47.2,72.2H100l15.1,13.2L100,98.6l-52.9,0V72.2z"
   id="path5" />
<path
   class="st3"
   d="M47.1,68H100l15.1,13.2L100,94.4H47.1L47.1,68z"
   id="path6" />
<path
   class="st5"
   d="m 61.907749,45.728413 30.3,30.2 h 2.6 l 23.800001,-23.8 v -2.5 l -30.300001,-30.3 h -25.1 l -1.3,1.3 z m 5.3,-17.2 c 0,-2.2 1.8,-4 4,-4 2.2,0 4,1.8 4,4 0,2.2 -1.8,4 -4,4 -2.2,0 -4,-1.7 -4,-4 z"
   id="path15"
   style="fill:#ffffff" /><path
   class="st6"
   d="m 98.507749,39.028413 c -0.9,-0.9 -1.9,-1.8 -2.8,-2.6 l -1.5,1.2 c 2.2,3.9 -8.8,15.8 -13.6,13.6 l -1.3,1.4 c 9.4,10.3 15.3,17 25.000001,7.6 7.3,-7.2 0.8,-14.9 -5.800001,-21.2 z m -12.5,-12.4 -1.4,1.2 c 2.3,4.2 -8.7,15.8 -13.6,13.8 l -1.3,1.4 7.3,7.3 1.4,-1.2 c -2.2,-4 8.7,-15.8 13.6,-13.8 l 1.2,-1.4 z m 13.7,17.2 c 4.100001,4.1 4.900001,8.3 0,13.2 -4,3.9 -8.2,4.7 -12.3,-0.1 3.1,-4.8 7.6,-9 12.3,-13.1 z"
   id="path16"
   style="fill:#555555" /></svg>
