<?xml version="1.0" encoding="UTF-8"?>
<svg width="128" height="128" version="1.1" viewBox="0 0 128 128" xml:space="preserve" xmlns="http://www.w3.org/2000/svg">
<circle cx="64" cy="64" r="64" fill="#e9a66f" stroke-width=".25397"/>







<path d="m36.942 15.999c-3.1469 1.7777-4.4855 7.6746-2.7051 10.824l21.627 38.449-5.3926 7.5488v2e-3c0.11736 0.30985 0.2129 0.62477 0.29688 0.94141-0.15994-0.51411-0.29688-0.94141-0.29688-0.94141-2.6404 3.7509-21.646-3.8e-4 -29.764 8.1172-8.1176 8.1176-5.4117 18.942 0 24.354 5.4117 5.4117 17.883 2.7043 24.352-8.1191 6.4686-10.823 5.2404-8.8971 8.1191-13.529 1.7201-3.4389 6.713-5.7872 10.822-8.4297 4.1087 2.6421 9.1015 4.9897 10.822 8.4277-7.6e-5 5.96e-4 7.5e-5 0.0014 0 2e-3 2.8788 4.6322 1.6505 2.7059 8.1191 13.529 6.4686 10.823 18.94 13.531 24.352 8.1191 5.4117-5.4117 8.1176-16.236 0-24.354-8.1176-8.1176-27.123-4.3663-29.764-8.1172 0 0-0.13693 0.4273-0.29688 0.94141 0.08398-0.31663 0.17952-0.63156 0.29688-0.94141 2.2e-4 -5.82e-4 -2.21e-4 -0.0014 0-2e-3l-5.3926-7.5488 21.627-38.449c1.7805-3.1496 0.44183-9.0465-2.7051-10.824l-27.059 37.881zm-0.79688 66.855c3.3417-0.03869 6.0466 0.63624 6.209 0.79102 1.6867 1.6084-1.0195 4.588-5.4121 10.824-4.3926 6.2362-8.1164 8.118-10.822 5.4121-2.7059-2.7058-5.4117-8.1176 0-13.529 2.7059-2.7059 6.6837-3.4594 10.025-3.4981zm55.711 0c3.3417 0.03869 7.3195 0.79219 10.025 3.4981 5.4117 5.4117 2.7059 10.823 0 13.529-2.7059 2.7059-6.4297 0.82409-10.822-5.4121-4.3926-6.2362-7.0989-9.2159-5.4121-10.824 0.16235-0.15478 2.8673-0.82971 6.209-0.79102z" fill-opacity=".2" stroke-width="2.7059"/><g transform="matrix(-2.7059 0 0 -2.7059 101.88 117.51)"><path d="m6.9994 8.9917c2.3906 4 1.9361 3.2881 3 5-0.1925 1.5267-1 4-1 4-0.97582-1.3862-8 0-11-3s-2-7 0-9 6.6094-1 9 3zm-7 4c2 2 5.88 1.1144 6 1 0.62337-0.5944-0.37663-1.6953-2-4s-3-3-4-2-2 3 0 5z" fill="#dd2e44"/><path d="m23.999 38.992c1.163-0.657 1.658-2.836 1-4l-9-16c-1-2-5-3-6-5-1.103 0.496-0.394 2.401-1 4z" fill="#99aab5"/><path d="m20.999 8.9917c-2.3906 4-1.9361 3.2881-3 5 0.1925 1.5267 1 4 1 4 0.97582-1.3862 8 0 11-3s2-7 0-9-6.6094-1-9 3zm7 4c-2 2-5.88 1.1144-6 1-0.62337-0.5944 0.37663-1.6953 2-4s3-3 4-2 2 3 0 5z" fill="#dd2e44"/><path d="m3.9994 38.992c-1.163-0.657-1.658-2.836-1-4l9-16c1-2 5-3 6-5 1.103 0.496 0.394 2.401 1 4z" fill="#ccd6dd"/><circle transform="scale(-1)" cx="-13.999" cy="-20.992" r="1.3722" fill="#99aab5"/></g></svg>
