<svg width="800px" height="800px" version="1.1" viewBox="0 0 504 504" xml:space="preserve" xmlns="http://www.w3.org/2000/svg">
<circle cx="252" cy="252" r="252" fill="#e9a66f"/>







<g transform="matrix(-10.269 0 0 -10.269 399.12 475.1)"><path d="m6.9994 8.9917c2.3906 4 1.9361 3.2881 3 5-0.1925 1.5267-1 4-1 4-0.97582-1.3862-8 0-11-3s-2-7 0-9 6.6094-1 9 3zm-7 4c2 2 5.88 1.1144 6 1 0.62337-0.5944-0.37663-1.6953-2-4s-3-3-4-2-2 3 0 5z" fill="#dd2e44"/><path d="m23.999 38.992c1.163-0.657 1.658-2.836 1-4l-9-16c-1-2-5-3-6-5-1.103 0.496-0.394 2.401-1 4z" fill="#99aab5"/><path d="m20.999 8.9917c-2.3906 4-1.9361 3.2881-3 5 0.1925 1.5267 1 4 1 4 0.97582-1.3862 8 0 11-3s2-7 0-9-6.6094-1-9 3zm7 4c-2 2-5.88 1.1144-6 1-0.62337-0.5944 0.37663-1.6953 2-4s3-3 4-2 2 3 0 5z" fill="#dd2e44"/><path d="m3.9994 38.992c-1.163-0.657-1.658-2.836-1-4l9-16c1-2 5-3 6-5 1.103 0.496 0.394 2.401 1 4z" fill="#ccd6dd"/><circle transform="scale(-1)" cx="-13.999" cy="-20.992" r="1.3722" fill="#99aab5"/></g></svg>
