<?xml version="1.0" encoding="UTF-8" standalone="no"?>
<svg
   version="1.1"
   viewBox="0 0 128 128"
   id="svg8"
   sodipodi:docname="ic_quest_aerialway_bike.svg"
   xml:space="preserve"
   inkscape:version="1.4.2 (f4327f4, 2025-05-13)"
   xmlns:inkscape="http://www.inkscape.org/namespaces/inkscape"
   xmlns:sodipodi="http://sodipodi.sourceforge.net/DTD/sodipodi-0.dtd"
   xmlns="http://www.w3.org/2000/svg"
   xmlns:svg="http://www.w3.org/2000/svg"><defs
     id="defs8" /><sodipodi:namedview
     id="namedview8"
     pagecolor="#ffffff"
     bordercolor="#000000"
     borderopacity="0.25"
     inkscape:showpageshadow="2"
     inkscape:pageopacity="0.0"
     inkscape:pagecheckerboard="0"
     inkscape:deskcolor="#d1d1d1"
     showguides="true"
     inkscape:zoom="6.8324197"
     inkscape:cx="66.008826"
     inkscape:cy="66.228367"
     inkscape:window-width="1920"
     inkscape:window-height="991"
     inkscape:window-x="-9"
     inkscape:window-y="-9"
     inkscape:window-maximized="1"
     inkscape:current-layer="svg8" /><path
     d="m119.42 95.995c-17.67 30.605-56.806 41.092-87.411 23.422-30.606-17.67-41.092-56.806-23.422-87.411 17.67-30.605 56.806-41.092 87.411-23.422 30.605 17.67 41.092 56.806 23.422 87.411"
     fill="#fd5"
     stroke-width=".19997"
     id="path1"
     style="fill:#ca72e2;fill-opacity:1" /><path
     d="M 97.84016,44.212614 H 67.070933 V 29.99039 c 1.140907,-0.620448 2.046134,-1.575712 2.5846,-2.725936 l 31.261527,-3.792592 c 1.6991,0 3.07694,-1.326816 3.07694,-2.96296 0,-1.636144 -1.37784,-2.96296 -3.07694,-2.96296 L 68.794,21.397798 c -1.136,-1.459568 -2.906467,-2.333632 -4.8,-2.370368 -2.484307,0.0112 -4.717533,1.461328 -5.661533,3.674064 l -31.261534,3.733344 c -1.699093,0 -3.076933,1.3268 -3.076933,2.96296 0,1.636144 1.37784,2.96296 3.076933,2.96296 L 59.194,28.508902 c 0.472,0.594368 1.056613,1.096896 1.723067,1.481488 V 44.212614 H 30.14784 c -3.398773,0 -6.15384,2.653024 -6.15384,5.92592 v 41.481483 c 0,3.27289 2.755067,5.92592 6.15384,5.92592 h 67.69232 c 3.39877,0 6.15384,-2.65303 6.15384,-5.92592 V 50.138534 c 0,-3.272896 -2.75507,-5.92592 -6.15384,-5.92592 z M 60.917067,79.768166 H 36.301693 V 56.064454 h 24.615374 z m 30.76924,0 H 67.070933 V 56.064454 h 24.615374 z"
     id="path1-0-8"
     style="fill:#000000;fill-opacity:0.269896;stroke-width:6.03882" /><path
     d="M 97.839809,41.210946 H 67.070582 V 26.988722 c 1.140907,-0.620448 2.046134,-1.575712 2.5846,-2.725936 l 31.261528,-3.792592 c 1.6991,0 3.07694,-1.326816 3.07694,-2.96296 0,-1.636144 -1.37784,-2.96296 -3.07694,-2.96296 L 68.793649,18.39613 c -1.136,-1.459568 -2.906467,-2.333632 -4.8,-2.370368 -2.484307,0.0112 -4.717533,1.461328 -5.661533,3.674064 L 27.070582,23.43317 c -1.699093,0 -3.076933,1.3268 -3.076933,2.96296 0,1.636144 1.37784,2.96296 3.076933,2.96296 l 32.123067,-3.851856 c 0.472,0.594368 1.056613,1.096896 1.723067,1.481488 V 41.210946 H 30.147489 c -3.398773,0 -6.15384,2.653024 -6.15384,5.92592 v 41.481483 c 0,3.27289 2.755067,5.92592 6.15384,5.92592 h 67.69232 c 3.398771,0 6.153841,-2.65303 6.153841,-5.92592 V 47.136866 c 0,-3.272896 -2.75507,-5.92592 -6.153841,-5.92592 z M 60.916716,76.766498 H 36.301342 V 53.062786 h 24.615374 z m 30.76924,0 H 67.070582 V 53.062786 h 24.615374 z"
     id="path1-0"
     style="fill:#808080;fill-opacity:1;stroke-width:6.03882" /><g
     id="g33"
     transform="matrix(0.49668413,0,0,0.49441167,50.978027,63.763847)"><path
       d="M 52.325,76.111 A 19.107,19.107 0 0 1 33.218,95.218 19.107,19.107 0 0 1 14.111,76.111 19.107,19.107 0 0 1 33.218,57.004 19.107,19.107 0 0 1 52.325,76.111 M 114.59,76.1075 A 19.107,19.107 0 0 1 95.483,95.2145 19.107,19.107 0 0 1 76.376,76.1075 19.107,19.107 0 0 1 95.483,57.0005 19.107,19.107 0 0 1 114.59,76.1075 M 43.841,46.6795 67.99,76.0025 H 95.589 L 76.615,46.6795 H 43.842 m 32.773,-6.8996 8.4067,-0.01725 m -17.031,36.24 8.6246,-36.223 m -43.123,36.223 14.377,-42.804 h 13.799"
       fill="none"
       stroke="#000000"
       stroke-linecap="round"
       stroke-linejoin="round"
       stroke-opacity="0.2"
       stroke-width="8"
       id="path2" /></g><g
     transform="matrix(1.7249,0,0,1.7249,426.64129,-621.67783)"
     fill="none"
     stroke-linecap="round"
     stroke-linejoin="round"
     id="g8"
     style="fill-rule:nonzero"><path
       d="m -202.69449,418.36843 a 5.5132325,5.5308016 0 0 1 -5.51323,5.5308 5.5132325,5.5308016 0 0 1 -5.51323,-5.5308 5.5132325,5.5308016 0 0 1 5.51323,-5.5308 5.5132325,5.5308016 0 0 1 5.51323,5.5308"
       stroke="#555555"
       stroke-width="2.31205"
       id="path3" /><path
       d="m -198.1752,418.33847 1.73493,-7.30994 0.75366,-3.17547"
       stroke="#ffe420"
       stroke-width="1.73402"
       id="path4"
       sodipodi:nodetypes="ccc"
       style="stroke:#203fff;stroke-opacity:1" /><path
       d="m -197.06529,407.77817 3.80307,0.07"
       stroke="#555555"
       stroke-width="1.73402"
       id="path5"
       style="fill:#28220b" /><path
       d="m -184.72684,418.36843 a 5.5132325,5.5308016 0 0 1 -5.51323,5.5308 5.5132325,5.5308016 0 0 1 -5.51323,-5.5308 5.5132325,5.5308016 0 0 1 5.51323,-5.5308 5.5132325,5.5308016 0 0 1 5.51323,5.5308"
       stroke="#555555"
       stroke-width="2.31205"
       id="path6" /><path
       d="m -205.14326,409.85029 6.96806,8.48818 h 7.9635 l -5.47491,-8.48818 h -9.45665"
       stroke="#ffe420"
       stroke-width="1.73402"
       id="path7"
       style="stroke:#203eff;stroke-opacity:1" /><path
       d="m -208.12958,418.33847 4.14834,-12.39025 3.74329,-0.0271"
       stroke="#ffe420"
       stroke-width="1.73402"
       id="path8"
       style="stroke:#203eff;stroke-opacity:1" /></g></svg>
