<?xml version="1.0" encoding="UTF-8"?>
<svg version="1.1" viewBox="0 0 128 128" xmlns="http://www.w3.org/2000/svg">
 <path d="m128 64c0 35.346-28.654 64-64 64s-64-28.654-64-64 28.654-64 64-64 64 28.654 64 64" fill="#e9a76f" />
 <path d="m64.015 14.08c-28.702 0-51.971 23.269-51.971 51.971s23.269 51.971 51.971 51.971 51.971-23.269 51.971-51.971-23.269-51.971-51.971-51.971z" fill-opacity=".2"/>
 <g transform="matrix(2.8872,0,0,-2.8872,12.074,113.99)">
  <path d="m36 18c0-9.941-8.059-18-18-18s-18 8.059-18 18 8.059 18 18 18 18-8.059 18-18" fill="#fff"/>
  <circle transform="scale(1,-1)" cx="17.985" cy="-18.007" r="13.854" fill="#444" />
  <path d="m11.058 27.012 4.1563-0.05937-1e-6 -6.8678 5.5417 6.8678 5.5417 0.05937-7.6198-9.0053 7.6198-9.0053-5.5417-0.059375-5.5417 6.9271v-6.9271l-4.1563 0.059375z" fill="#fff" />
 </g>
</svg>
