<svg xmlns="http://www.w3.org/2000/svg" viewBox="0 0 128 128"><path fill="#aaa" d="M128 64c0 35.346-28.654 64-64 64S0 99.346 0 64 28.654 0 64 0s64 28.654 64 64"/><path fill-opacity=".2" d="M52.97 60.094v5.515l6.894 2.757h8.272l6.893-2.757v-5.515z"/><path fill="#ffffdf" fill-rule="evenodd" stroke="#c1a551" stroke-width="2.757" d="m47.456 23.301 5.515 33.088h22.058l5.515-33.088z"/><path fill="none" stroke="#c1a551" stroke-width="2.757" d="m55.728 23.301 2.757 33.088M72.272 23.301 69.515 56.39"/><path fill="#555" fill-rule="evenodd" d="M64 4c-8.272 2.757-13.787 13.787-22.059 13.787V23.3H86.06v-5.514C77.787 17.787 72.272 6.757 64 4M52.97 56.389v5.515l6.894 2.757v63.207c1.363.127 2.74.094 4.136.094s2.773.033 4.136-.094V64.661l6.893-2.757v-5.515z" style="stroke-width:.689329"/></svg>