<?xml version="1.0" encoding="UTF-8"?>
<svg version="1.1" viewBox="0 0 128 128" xmlns="http://www.w3.org/2000/svg">
 <path d="m128 64c0 35.346-28.654 64-64 64s-64-28.654-64-64 28.654-64 64-64 64 28.654 64 64" fill="#b9a065" stroke-width=".2"/>
 <path d="m114.02 37.521c-28.027 4.4727-61.002-4.484-78.41 7.0117-17.926 11.837-7.7218 27.519-2.4297 35.477l-13.844 7.2793 2.8457 4.9707 13.82-8.2598c15.633 19.298 41.466 13.117 53.607 5.3262 23.843-15.3 13.57-27.594 24.41-51.805z" fill-opacity=".2" fill-rule="evenodd"/>
 <g transform="translate(-1208 -787)" fill-rule="evenodd">
  <path d="m1242.4 865.02c-4.4301-6.9688-18.612-24.659 1.0185-37.622 17.408-11.496 50.383-2.5376 78.409-7.0102z" fill="#5cae32"/>
  <path d="m1242.4 865.02 79.428-44.632c-10.84 24.211-0.5669 36.505-24.41 51.805-12.514 8.0303-39.574 14.352-55.018-7.1726z" fill="#63b439"/>
  <path transform="translate(1208 787)" d="m112 34.318-28.303 14.881-3.6973-11.066v13.01l-10.328 5.4297-7.1289-18.115 4.0801 19.719-10.279 5.4043-10.438-22.58 7.5078 24.121-9.4102 4.9473-8.0039-15.656 4.4707 17.514-21.355 11.229 2.8457 4.9707 21.328-12.746 18.473 11.129-14.918-13.252 8.7363-5.2207 24.42 15.994-21.467-17.76 9.5879-5.7285 25.816 12.459-22.326-14.545 10.09-6.0293 18.299 4.5742-15.08-6.498z" fill="#4a8c28"/>
 </g>
</svg>
