<?xml version="1.0" encoding="UTF-8"?>
<svg version="1.1" viewBox="0 0 128 128" xmlns="http://www.w3.org/2000/svg">
 <path d="m128 64c0 35.346-28.654 64-64 64s-64-28.654-64-64 28.654-64 64-64 64 28.654 64 64" fill="#e9a76f" stroke-width=".2"/>
 <path d="m68 12v4h38.307c-1.6042-1.415-3.2785-2.7494-5.0195-4zm0 40v4h59.484c-0.16804-1.3464-0.37467-2.681-0.625-4zm0 40v4h51.416c0.75641-1.307 1.4781-2.6366 2.1426-4z" fill-opacity=".2"/>
 <path d="m64 0c-2.7116 0-5.3771 0.18827-8 0.51562v126.97c2.6229 0.32734 5.2884 0.51562 8 0.51562 13.917 0 26.786-4.4564 37.287-12h-1.2871v-24h20v2.9844c5.0914-9.182 8-19.741 8-30.984s-2.9086-21.802-8-30.984v2.9844h-20v-24h1.2871c-10.501-7.5435-23.37-12-37.287-12zm4 12h20v24h-20v-24zm0 40h20v24h-20v-24zm32 0h20v24h-20v-24zm-32 40h20v24h-20v-24z" fill="#fff"/>
 <path d="m44 68-24-20v12h-12v16h12v12z" fill-opacity=".2"/>
 <path d="m44 64-24-20v12h-12v16h12v12z" fill="#666"/>
</svg>
