<?xml version="1.0" encoding="UTF-8"?>
<svg version="1.1" viewBox="0 0 128 128" xmlns="http://www.w3.org/2000/svg">
 <path d="m128 64c0 35.346-28.654 64-64 64s-64-28.654-64-64 28.654-64 64-64 64 28.654 64 64" fill="#fd5" stroke-width=".2"/>
 <path d="m116 66c0 28.719-23.281 52-52 52s-52-23.281-52-52 23.281-52 52-52 52 23.281 52 52" fill-opacity=".2"/>
 <path d="m114 62c0 27.614-22.386 50-50 50s-50-22.386-50-50 22.386-50 50-50 50 22.386 50 50" fill="#c84747" stroke="#fff" stroke-width="3.8462"/>
 <path d="m99.741 62.001a35.756 35.756 0 0 1-35.756 35.756 35.756 35.756 0 0 1-35.756-35.756 35.756 35.756 0 0 1 35.756-35.756 35.756 35.756 0 0 1 35.756 35.756" fill="#444"/>
 <path d="m79.965 93.979c12.123-6.0492 19.785-18.43 19.791-31.979-6e-3 -13.548-7.6684-25.929-19.791-31.979l-15.965 13.979-15.938-13.961c-12.128 6.0387-19.801 18.413-19.818 31.961 0.0176 13.548 7.6907 25.922 19.818 31.961l15.938-13.961z" fill="#fff"/>
 <path d="m54.001 48c-4.0013 2-5.0013 12-5.0013 12-2.1206 0.55846-5.0395 2.2998-5.0404 4.0781l0.0391 3.9219c2e-3 2 1.0013 3 4.0013 3v5s-0.27444 1.9473 1 2h5c1.2503 0 1-2 1-2v-4h18v4s-0.24382 2 1.0065 2h5.0013c1.2503 0 0.99218-2 0.99218-2v-5c3 0 4-1 4.0091-3v-4c-0.54462-1.8708-3.2587-3.4384-5.0013-4 0 0-1.0078-10-5.0013-12zm17.505 4c2.5007 3 2.5007 8 2.5007 8h-20.005s0-5 2.5007-8z" fill="#444"/>
 <g transform="rotate(-60 -325.08 -36.272)">
  <path d="m-260.8 370h80.462c1.5342 0 2.7692 1.2351 2.7692 2.7692v18.462c0 1.5342-1.2351 2.7692-2.7692 2.7692h-80.462c-1.5342 0-2.7692-1.2351-2.7692-2.7692v-18.462c0-1.5342 1.2351-2.7692 2.7692-2.7692z" fill-opacity=".2"/>
  <path d="m-257.34 368h80.69c1.4709 0 2.655 1.2351 2.655 2.7692v18.462c0 1.5342-1.1841 2.7692-2.655 2.7692h-80.69c-1.4709 0-2.655-1.2351-2.655-2.7692v-18.462c0-1.5342 1.1841-2.7692 2.655-2.7692z" fill="#cc826b"/>
  <path d="m-255 368v16h6v-16zm12 0v8h6v-8zm12 0v16h6v-16zm12 0v8h6v-8zm12 0v16h6v-16zm12.381 0v8h5.6191v-8zm11.619 0v16h6v-16z" fill="#ac573d"/>
 </g>
</svg>
