<?xml version="1.0" encoding="UTF-8"?>
<svg version="1.1" viewBox="0 0 128 128" xmlns="http://www.w3.org/2000/svg">
 <path d="m128 64c0 35.346-28.654 64-64 64s-64-28.654-64-64 28.654-64 64-64 64 28.654 64 64" fill="#fd5" stroke-width=".2"/>
 <path d="m116 66c0 28.719-23.281 52-52 52-28.719 0-52-23.281-52-52s23.281-52 52-52c28.719 0 52 23.281 52 52" fill-opacity=".2"/>
 <g>
  <path d="m114 62c0 27.614-22.386 50-50 50-27.614 0-50-22.386-50-50s22.386-50 50-50c27.614 0 50 22.386 50 50" fill="#c84747" stroke="#fff" stroke-width="3.8462"/>
  <path d="m99.741 62.001a35.756 35.756 0 0 1-35.756 35.756 35.756 35.756 0 0 1-35.756-35.756 35.756 35.756 0 0 1 35.756-35.756 35.756 35.756 0 0 1 35.756 35.756" fill="#fff"/>
  <path d="m63.982 35.99a8 8 0 0 0-8 8 8 8 0 0 0 1.0859 4.0098h-5.0684l-12 32h48l-12-32h-5.1074a8 8 0 0 0 1.0898-4.0098 8 8 0 0 0-8-8zm0.02148 4.0137a3.9972 3.9974 0 0 1 3.9961 3.9961 3.9972 3.9974 0 0 1-3.9961 3.998 3.9972 3.9974 0 0 1-3.998-3.998 3.9972 3.9974 0 0 1 3.998-3.9961z" fill="#444" fill-rule="evenodd"/>
  <path d="m65 54v4h5v4h-5l-0.02744 5.9951c-0.0034 0.74479 0.1008 1.2962 0.39681 1.5635 0.29601 0.25781 0.77582 0.47256 1.6542 0.46295l1.9764-0.021626v4l-3.9843-0.05112c-2.0241-0.02597-3.1658-0.1086-4.0157-0.94888-0.84028-0.84983-0.99123-2.9578-0.99344-4.9821l-0.0066-6.0179h-3v-4h3v-4z" fill="#fff"/>
 </g>
</svg>
