<?xml version="1.0" encoding="UTF-8"?>
<svg version="1.1" viewBox="0 0 128 128" xmlns="http://www.w3.org/2000/svg">
 <path d="m128 64c0 35.346-28.654 64-64 64-35.346 0-64-28.654-64-64 0-35.346 28.654-64 64-64 35.346 0 64 28.654 64 64" fill="#fd5" stroke-width=".2"/>
 <path d="m36.222 24h55.056c4.6935 0 8.472 3.7785 8.472 8.472v63.056c0 4.6935-3.7785 8.472-8.472 8.472h-55.056c-4.6935 0-8.472-3.7785-8.472-8.472v-63.056c0-4.6935 3.7785-8.472 8.472-8.472z" fill="none" stroke="#000" stroke-opacity=".2" stroke-width="8" style="paint-order:normal"/>
 <path d="m36.347 20.111h55.056c4.6935 0 8.472 3.7785 8.472 8.472v63.056c0 4.6935-3.7785 8.472-8.472 8.472h-55.056c-4.6935 0-8.472-3.7785-8.472-8.472v-63.056c0-4.6935 3.7785-8.472 8.472-8.472z" fill="#495aad" stroke="#fff" stroke-opacity=".98995" stroke-width="8" style="paint-order:normal"/>
 <path d="m65.649 27.466a1.4212 1.4212 0 1 0 0 2.842h4.7302l1.5515 3.7931c-0.71252-0.06508-1.5698 0.06835-2.558 0.42-2.6227 1.2432-5.3749 3.1368-6.0088 5.734h-2.595c-1.6482-1.7432-3.598-2.7851-5.5693-3.2723-2.2416-0.55391-4.481-0.53335-6.6175-0.51711a1.8949 1.8949 0 0 0-1.7078 2.7264c-0.11899 0.045-0.2379 0.08995-0.35711 0.13968-2.761 1.1518-5.4113 3.7503-6.4843 8.0422l2.8161 0.70407c-0.11221 0.53307-0.173 1.0852-0.173 1.6505 0 4.4281 3.6243 8.0524 8.0524 8.0524 3.9427 0 7.2409-2.8758 7.9183-6.6314h8.8971a1.4212 1.4212 0 0 0 1.211-0.67721l1.7494-2.8458 1.4959 0.37377c-0.12327 0.55751-0.19335 1.135-0.19335 1.7282 0 4.4281 3.6243 8.0524 8.0524 8.0524s8.0524-3.6243 8.0524-8.0524c0-2.9104-1.5709-5.4661-3.9013-6.8812l1.804-2.1491c-1.6385-1.3752-3.8965-1.9175-6.2946-1.7143-0.77268 0.06546-1.5593 0.20984-2.3452 0.42739l-1.1324-2.7671c1.3392 0.70947 3.2542 1.1592 4.2168 1.1592v-5.6841c-1.2583 0-4.1439 0.86848-5.2409 2.0214l-2.3693-5.7923a1.4212 1.4212 0 0 0-1.3155-0.88254zm-14.921 17.431c2.1919 0 4.0213 1.4261 4.622 3.4101h-4.8588a1.4212 1.4212 0 1 0 0 2.842h4.8588c-0.60092 1.9834-2.4305 3.4101-4.622 3.4101-2.6874 0-4.8311-2.1437-4.8311-4.8311 0-2.6875 2.1437-4.8311 4.8311-4.8311zm29.131 0c2.6874 0 4.8311 2.1436 4.8311 4.8311 0 2.6873-2.1437 4.8311-4.8311 4.8311-2.6874 0-4.8311-2.1437-4.8311-4.8311 0-1.5177 0.68417-2.8623 1.7633-3.745l1.7522 4.2834a1.4215 1.4215 0 1 0 2.6311-1.0769l-1.7476-4.2713c0.1426-0.01232 0.28596-0.02132 0.43204-0.02132z" color="#000000" color-rendering="auto" dominant-baseline="auto" fill="#fff" image-rendering="auto" shape-rendering="auto" solid-color="#000000" style="font-feature-settings:normal;font-variant-alternates:normal;font-variant-caps:normal;font-variant-ligatures:normal;font-variant-numeric:normal;font-variant-position:normal;isolation:auto;mix-blend-mode:normal;paint-order:fill markers stroke;shape-padding:0;text-decoration-color:#000000;text-decoration-line:none;text-decoration-style:solid;text-indent:0;text-orientation:mixed;text-transform:none;white-space:normal"/>
 <path d="m62.61 61.662a1.4212 1.4212 0 1 1 0 2.842h-4.7302l-1.5515 3.7931c0.71252-0.06508 1.5698 0.06835 2.558 0.42 2.6227 1.2432 5.3749 3.1368 6.0088 5.734h2.595c1.6482-1.7432 3.598-2.7851 5.5693-3.2723 2.2416-0.55391 4.481-0.53335 6.6175-0.51711a1.8949 1.8949 0 0 1 1.7078 2.7264c0.11899 0.045 0.2379 0.08995 0.35711 0.13968 2.761 1.1518 5.4113 3.7503 6.4843 8.0422l-2.8161 0.70407c0.11221 0.53307 0.173 1.0852 0.173 1.6505 0 4.4281-3.6243 8.0524-8.0524 8.0524-3.9427 0-7.2409-2.8758-7.9183-6.6314h-8.8971a1.4212 1.4212 0 0 1-1.211-0.67721l-1.7494-2.8458-1.4959 0.37377c0.12327 0.55751 0.19335 1.135 0.19335 1.7282 0 4.4281-3.6243 8.0524-8.0524 8.0524s-8.0524-3.6243-8.0524-8.0524c0-2.9104 1.5709-5.4661 3.9013-6.8812l-1.804-2.1491c1.6385-1.3752 3.8965-1.9175 6.2946-1.7143 0.77268 0.06546 1.5593 0.20984 2.3452 0.42739l1.1324-2.7671c-1.3392 0.70947-3.2542 1.1592-4.2168 1.1592v-5.6841c1.2583 0 4.1439 0.86848 5.2409 2.0214l2.3693-5.7923a1.4212 1.4212 0 0 1 1.3155-0.88254zm14.921 17.431c-2.1919 0-4.0213 1.4261-4.622 3.4101h4.8588a1.4212 1.4212 0 1 1 0 2.842h-4.8588c0.60092 1.9834 2.4305 3.4101 4.622 3.4101 2.6874 0 4.8311-2.1437 4.8311-4.8311 0-2.6875-2.1437-4.8311-4.8311-4.8311zm-29.131 0c-2.6874 0-4.8311 2.1436-4.8311 4.8311 0 2.6873 2.1437 4.8311 4.8311 4.8311 2.6874 0 4.8311-2.1437 4.8311-4.8311 0-1.5177-0.68417-2.8623-1.7633-3.745l-1.7522 4.2834a1.4215 1.4215 0 1 1-2.6311-1.0769l1.7476-4.2713c-0.1426-0.012316-0.28596-0.021316-0.43204-0.021316z" color="#000000" color-rendering="auto" dominant-baseline="auto" fill="#fff" image-rendering="auto" shape-rendering="auto" solid-color="#000000" style="font-feature-settings:normal;font-variant-alternates:normal;font-variant-caps:normal;font-variant-ligatures:normal;font-variant-numeric:normal;font-variant-position:normal;isolation:auto;mix-blend-mode:normal;paint-order:fill markers stroke;shape-padding:0;text-decoration-color:#000000;text-decoration-line:none;text-decoration-style:solid;text-indent:0;text-orientation:mixed;text-transform:none;white-space:normal"/>
</svg>
