<svg version="1.1" viewBox="0 0 128 128" xml:space="preserve" xmlns="http://www.w3.org/2000/svg">
  <path d="M128,64C128,99.346 99.346,128 64,128 28.654,128 0,99.346 0,64 0,28.654 28.654,0 64,0c35.346,0 64,28.654 64,64"
        fill="#ffdd55" stroke-width="0.2"/>
  <path d="M36.222,24L91.278,24A8.472,8.472 0,0 1,99.75 32.472L99.75,95.528A8.472,8.472 0,0 1,91.278 104L36.222,104A8.472,8.472 0,0 1,27.75 95.528L27.75,32.472A8.472,8.472 0,0 1,36.222 24z"
        stroke="black" stroke-opacity="0.2" stroke-width="8" fill="none"/>
  <path d="M36.347,20.111L91.403,20.111A8.472,8.472 0,0 1,99.875 28.583L99.875,91.639A8.472,8.472 0,0 1,91.403 100.111L36.347,100.111A8.472,8.472 0,0 1,27.875 91.639L27.875,28.583A8.472,8.472 0,0 1,36.347 20.111z"
        fill="#495aad" stroke="white" stroke-width="8" stroke-opacity="0.99"/>
  <path d="M44,76V36h12c0,0 12,0 12,12C68,60 56,60 56,60H44"
        stroke="white" stroke-width="8" stroke-linecap="square" fill="none"/>
  <path d="m73.168,66.28a1.218,1.218 0,1 0,0 2.436h4.054l1.33,3.251c-0.611,-0.056 -1.345,0.059 -2.192,0.36 -2.248,1.065 -4.606,2.688 -5.149,4.914h-2.224c-1.412,-1.494 -3.083,-2.387 -4.773,-2.804 -1.921,-0.475 -3.84,-0.457 -5.671,-0.443a1.624,1.624 0,0 0,-1.464 2.336c-0.102,0.039 -0.204,0.077 -0.306,0.12 -2.366,0.987 -4.637,3.214 -5.557,6.892l2.413,0.603c-0.096,0.457 -0.148,0.93 -0.148,1.414 0,3.795 3.106,6.901 6.901,6.901 3.379,0 6.205,-2.465 6.786,-5.683h7.625a1.218,1.218 0,0 0,1.038 -0.58l1.499,-2.439 1.282,0.32c-0.106,0.478 -0.166,0.973 -0.166,1.481 0,3.795 3.106,6.901 6.901,6.901 3.795,0 6.901,-3.106 6.901,-6.901 0,-2.494 -1.346,-4.684 -3.343,-5.897l1.546,-1.842c-1.404,-1.179 -3.339,-1.643 -5.394,-1.469 -0.662,0.056 -1.336,0.18 -2.01,0.366l-0.97,-2.371c1.148,0.608 2.789,0.993 3.614,0.993v-4.871c-1.078,0 -3.551,0.744 -4.491,1.732L79.167,67.036A1.218,1.218 0,0 0,78.039 66.28ZM60.381,81.218c1.878,0 3.446,1.222 3.961,2.922h-4.164a1.218,1.218 0,1 0,0 2.436h4.164c-0.515,1.7 -2.083,2.922 -3.961,2.922 -2.303,0 -4.14,-1.837 -4.14,-4.14 0,-2.303 1.837,-4.14 4.14,-4.14zM85.346,81.218c2.303,0 4.14,1.837 4.14,4.14 0,2.303 -1.837,4.14 -4.14,4.14 -2.303,0 -4.14,-1.837 -4.14,-4.14 0,-1.301 0.586,-2.453 1.511,-3.209l1.502,3.671a1.218,1.218 0,1 0,2.255 -0.923l-1.498,-3.66c0.122,-0.011 0.245,-0.018 0.37,-0.018z"
        fill="#fff"/>
  <path d="m41.485,79.247a19.479,19.452 90,0 0,-19.452 19.479,19.479 19.452,90 0,0 19.452,19.479 19.479,19.452 90,0 0,19.452 -19.479,19.479 19.452,90 0,0 -19.452,-19.479z"
        stroke="black" stroke-width="4.9318" stroke-linecap="round" stroke-linejoin="round" stroke-opacity="0.2" fill="none"/>
  <path d="m60.937,95.447a19.479,19.452 90,0 1,-19.452 19.479,19.479 19.452,90 0,1 -19.452,-19.479 19.479,19.452 90,0 1,19.452 -19.479,19.479 19.452,90 0,1 19.452,19.479"
        fill="#dbdbdb" stroke="#a6a6a6" stroke-width="4.9318" stroke-linecap="round" stroke-linejoin="round"/>
  <path d="m39.054,81.682l0,2.364c-1.242,0.284 -2.31,0.802 -3.204,1.555 -1.596,1.344 -2.394,3.094 -2.394,5.25 0,1.53 0.355,2.756 1.064,3.678s1.608,1.606 2.698,2.054c1.097,0.44 2.474,0.833 4.128,1.179 1.283,0.287 2.258,0.579 2.925,0.875 0.675,0.296 1.013,0.85 1.013,1.661 0,0.845 -0.355,1.458 -1.064,1.839 -0.709,0.372 -1.528,0.558 -2.457,0.558 -2.524,0 -4.082,-1.057 -4.673,-3.17l-4.825,1.141c0.473,2.071 1.532,3.623 3.179,4.654 1.073,0.667 2.278,1.112 3.609,1.344l0,2.612l4.863,0l0,-2.638c1.568,-0.273 2.876,-0.806 3.913,-1.611 1.832,-1.437 2.748,-3.306 2.748,-5.605 0,-2.257 -0.967,-4.024 -2.9,-5.301 -0.692,-0.473 -1.418,-0.816 -2.178,-1.027 -0.751,-0.211 -1.98,-0.507 -3.685,-0.888 -2.178,-0.364 -3.267,-1.112 -3.267,-2.245 0,-1.42 1.038,-2.131 3.115,-2.131 1.959,0 3.255,0.884 3.888,2.651l4.407,-1.446c-0.977,-2.813 -2.992,-4.493 -6.041,-5.046l0,-2.31z"
        fill="#a6a6a6" stroke-width="1.5202"/>
</svg>
