<?xml version="1.0" encoding="UTF-8"?>
<svg version="1.1" viewBox="0 0 128 128" xml:space="preserve" xmlns="http://www.w3.org/2000/svg"><path d="m128 64c0 35.346-28.654 64-64 64s-64-28.654-64-64 28.654-64 64-64 64 28.654 64 64" fill="#9bbe55"/><path d="m0.16797 59.607c8.2574 7.0297 27.394 33.54 38.751 33.54 18.182 0 20.91-13.329 30.001-13.329 13.636 0 18.181-21.177 36.363-21.177 7.4908 0 15.314 9.9138 21.533 17.599-5.7134 29.489-31.658 51.76-62.816 51.76-35.346 0-64-28.654-64-64 0-1.4783 0.0693-2.9393 0.16797-4.3926z" fill="#c5a787"/><path d="m104.91 54.619c-3.75 0.17747-6.9557 2.1792-9.7812 4.4473-3.2292 2.5921-6.2189 5.8095-9.1973 8.7637s-5.945 5.6166-8.6191 7.1113c-2.6741 1.4947-4.7002 1.9071-7.1035 1.0898-4.4544-1.5147-8.7093-1.0743-11.988 0.51758s-5.6277 4.0082-7.7109 6.1836c-2.0832 2.1754-3.928 4.1455-5.6328 5.2793s-3.0143 1.5909-5.2637 1.1953c-1.6947-0.29806-4.9642-2.3709-8.5059-5.7539-3.5416-3.383-7.4486-7.8489-11.518-12.199-4.0689-4.3504-8.2798-8.6012-12.846-11.633-1.9677-1.3065-4.0898-2.3857-6.2949-3.0859-0.2849 2.4506-0.44727 4.9378-0.44727 7.4648 0 0.31577 0.0189 0.62672 0.0234 0.94141 0.72521 0.36719 1.4846 0.80699 2.293 1.3438 3.5386 2.3496 7.4897 6.2211 11.43 10.434 3.94 4.2125 7.8877 8.75 11.834 12.52 3.9463 3.7696 7.7996 6.9952 12.646 7.8477 4.2922 0.75491 8.1928-0.49329 11.078-2.4121 2.8853-1.9188 5.01-4.3484 6.9824-6.4082 1.9724-2.0598 3.7668-3.7141 5.4258-4.5195 1.659-0.80545 3.1371-1.0869 5.9199-0.14063 4.8339 1.6438 9.6736 0.5038 13.58-1.6797 3.9064-2.1835 7.2357-5.3255 10.352-8.416s6.0212-6.1589 8.5703-8.2051c2.5491-2.0462 4.4849-2.7935 5.6504-2.6816 3.1909 0.30631 8.589 5.0839 14.143 10.705 1.995 2.0193 4.0479 4.0714 6.2266 5.9258 0.75334-3.0797 1.2847-6.2459 1.5742-9.4824-0.703-0.6901-1.3935-1.3398-2.1094-2.0645-5.4767-5.5434-10.996-12.272-19.07-13.047-0.55842-0.0536-1.1049-0.06637-1.6406-0.04102z" fill="#79ae54"/><g transform="rotate(22.857 123.39 72.883)" fill="none" stroke-linecap="round" stroke-linejoin="round"><path d="m61.277 102.99a19.107 19.107 0 0 1-1e-6 27.021 19.107 19.107 0 0 1-27.021 0 19.107 19.107 0 0 1 0-27.021 19.107 19.107 0 0 1 27.021 0m44.026-44.03a19.107 19.107 0 0 1 0 27.021 19.107 19.107 0 0 1-27.021 2e-6 19.107 19.107 0 0 1 3e-6 -27.021 19.107 19.107 0 0 1 27.021 0m-70.836 29.218 37.81 3.6586 19.515-19.515-34.151-7.3178-23.174 23.174m18.295-28.053 5.9322-5.9566m13.583 37.668-19.515-31.712m-4.879 56.106-20.101-40.433 9.7574-9.7574" stroke="#000" stroke-opacity=".2" stroke-width="8"/><g transform="matrix(1.2197 -1.2197 1.2197 1.2197 -207.37 -668.05)"><path d="m-205.08 424.06a11.077 11.077 0 0 1-11.077 11.077 11.077 11.077 0 0 1-11.077-11.077 11.077 11.077 0 0 1 11.077-11.077 11.077 11.077 0 0 1 11.077 11.077" stroke="#555" stroke-width="4.6379"/><path d="m-196 424 5-21" stroke="#ffe420" stroke-width="3.4784"/><path d="m-193.77 402.85 7.641 0.14019" stroke="#555" stroke-width="3.4784"/><path d="m-168.98 424.06a11.077 11.077 0 0 1-11.077 11.077 11.077 11.077 0 0 1-11.077-11.077 11.077 11.077 0 0 1 11.077-11.077 11.077 11.077 0 0 1 11.077 11.077" stroke="#555" stroke-width="4.6379"/><path d="m-210 407 14 17h16l-11-17h-19" stroke="#ffe420" stroke-width="3.4784"/><path d="m-216 424 8.3347-24.815 7.5209-0.0543" stroke="#ffe420" stroke-width="3.4784"/></g></g></svg>
