<svg xmlns="http://www.w3.org/2000/svg" viewBox="0 0 128 128"><path fill="#be0000" d="M119.42 95.995c-17.67 30.605-56.806 41.092-87.411 23.422S-9.083 62.611 8.587 32.006 65.393-9.086 95.998 8.584 137.09 65.39 119.42 95.995"/><path fill-opacity=".27" d="m77.934 67.5 26.117-25.972c3.799-3.778 3.799-9.445 0-13.223-1.425-1.889-3.799-3.305-6.173-3.305s-4.749.944-6.648 2.833L64.638 54.277 38.52 28.305c-3.799-3.777-9.972-3.777-13.296 0-1.9 1.417-3.324 3.778-3.324 6.611s.95 4.723 2.85 6.611L50.866 67.5 24.749 93.472c-1.424 1.889-2.849 4.25-2.849 7.083 0 2.361.95 4.722 2.85 6.611S29.022 110 31.396 110s4.749-.944 6.648-2.833l26.118-25.972 26.117 25.972c3.799 3.778 9.972 3.778 13.296 0 3.799-3.778 3.799-9.917 0-13.222z"/><path fill="#fff" d="m77.934 64.3 26.117-25.973c3.799-3.778 3.799-9.444 0-13.222-1.425-1.889-3.799-3.306-6.173-3.306s-4.749.945-6.648 2.834L64.638 51.077 38.52 25.105c-3.799-3.778-9.972-3.778-13.296 0-1.9 1.417-3.324 3.778-3.324 6.611s.95 4.722 2.85 6.611L50.866 64.3 24.749 90.271c-1.424 1.89-2.849 4.25-2.849 7.084 0 2.36.95 4.722 2.85 6.61s4.273 2.834 6.647 2.834 4.749-.944 6.648-2.833l26.118-25.972 26.117 25.972c3.799 3.777 9.972 3.777 13.296 0 3.799-3.778 3.799-9.917 0-13.222z"/></svg>