<svg version="1.1" viewBox="0 0 128 128" xmlns="http://www.w3.org/2000/svg">
 <path d="m119.42 95.995c-17.67 30.605-56.806 41.092-87.411 23.422-30.606-17.67-41.092-56.806-23.422-87.411s56.806-41.092 87.411-23.422 41.092 56.806 23.422 87.411" fill="#be0000" stroke-width=".19997"/>
 <g transform="matrix(4.7486 0 0 4.7222 -11.34 -8.0556)" fill-opacity=".27">
  <path d="m18.8 16 5.5-5.5c0.8-0.8 0.8-2 0-2.8-0.3-0.4-0.8-0.7-1.3-0.7s-1 0.2-1.4 0.6l-5.6 5.6-5.5-5.5c-0.8-0.8-2.1-0.8-2.8 0-0.4 0.3-0.7 0.8-0.7 1.4s0.2 1 0.6 1.4l5.5 5.5-5.5 5.5c-0.3 0.4-0.6 0.9-0.6 1.5 0 0.5 0.2 1 0.6 1.4s0.9 0.6 1.4 0.6 1-0.2 1.4-0.6l5.5-5.5 5.5 5.5c0.8 0.8 2.1 0.8 2.8 0 0.8-0.8 0.8-2.1 0-2.8z" fill-opacity=".27"/>
 </g>
 <g transform="matrix(4.7486 0 0 4.7222 -11.34 -11.256)" fill="#fff">
  <path d="m18.8 16 5.5-5.5c0.8-0.8 0.8-2 0-2.8-0.3-0.4-0.8-0.7-1.3-0.7s-1 0.2-1.4 0.6l-5.6 5.6-5.5-5.5c-0.8-0.8-2.1-0.8-2.8 0-0.4 0.3-0.7 0.8-0.7 1.4s0.2 1 0.6 1.4l5.5 5.5-5.5 5.5c-0.3 0.4-0.6 0.9-0.6 1.5 0 0.5 0.2 1 0.6 1.4s0.9 0.6 1.4 0.6 1-0.2 1.4-0.6l5.5-5.5 5.5 5.5c0.8 0.8 2.1 0.8 2.8 0 0.8-0.8 0.8-2.1 0-2.8z" fill="#fff"/>
 </g>
</svg>
