<?xml version="1.0" encoding="UTF-8"?>
<svg version="1.1" viewBox="0 0 128 128" xmlns="http://www.w3.org/2000/svg">
 <path d="m128 64c0 35.346-28.654 64-64 64s-64-28.654-64-64 28.654-64 64-64 64 28.654 64 64" fill="#ca72e2" stroke-width=".2"/>
 <path d="m66 12c-29.742 0-54 24.258-54 54s24.258 54 54 54 54-24.258 54-54-24.258-54-54-54zm0 13.746c8.616 0 16.575 2.6812 23.106 7.25l-56.107 56.107c-4.5688-6.5309-7.252-14.488-7.252-23.104 0-22.313 17.94-40.254 40.254-40.254zm33.002 17.15c4.5681 6.5306 7.2519 14.488 7.2519 23.104 0 22.313-17.94 40.254-40.254 40.254-8.6155 0-16.573-2.6837-23.104-7.252z" fill-opacity=".2"/>
 <path d="m64.551 7.2605c-29.742 0-54 24.258-54 54 0 12.936 4.2397 23.254 11.873 32.571l9.5608-9.0319c-4.5683-6.5307-7.6873-14.923-7.6873-23.539 0-22.313 17.94-40.254 40.254-40.254 7.9728 0 17.285 4.2358 23.811 8.4883l10.133-10.184c-9.285-7.5309-21.104-12.051-33.943-12.051z" fill="#c84747"/>
 <g transform="matrix(1.0123 .029761 -.029761 1.0123 2.2672 2.7724)" fill="none" stroke-linecap="round" stroke-linejoin="round" stroke-width="5.9243">
  <path d="m44.774 63.034a18.087 18.087 0 0 1-22.152 12.789 18.087 18.087 0 0 1-12.789-22.152 18.087 18.087 0 0 1 22.152-12.789 18.087 18.087 0 0 1 12.789 22.152m56.935 15.252a18.087 18.087 0 0 1-22.152 12.789 18.087 18.087 0 0 1-12.789-22.152 18.087 18.087 0 0 1 22.152-12.789 18.087 18.087 0 0 1 12.789 22.152m-57.481-44.243 14.896 32.728 25.236 6.7619-10.165-31.461-29.967-8.0295m31.657 1.7207 7.691 2.0439m-24.451 28.963 16.761-31.008m-48.306 22.556 23.632-35.615 12.618 3.3809" stroke="#000" stroke-opacity=".2"/>
  <path d="m44.644 58.636a18.087 18.087 0 0 1-22.152 12.789 18.087 18.087 0 0 1-12.789-22.152 18.087 18.087 0 0 1 22.152-12.789 18.087 18.087 0 0 1 12.789 22.152m56.935 15.252a18.087 18.087 0 0 1-22.152 12.789 18.087 18.087 0 0 1-12.789-22.152 18.087 18.087 0 0 1 22.152-12.789 18.087 18.087 0 0 1 12.789 22.152m-57.481-44.243 14.896 32.728 25.236 6.7619-10.165-31.461-29.967-8.0295m31.657 1.7207 7.691 2.0439m-24.451 28.963 16.761-31.008m-48.306 22.556 23.632-35.615 12.618 3.3809" stroke="#fff"/>
 </g>
 <path d="m22.424 93.831c9.8401 13.425 25.72 22.169 43.576 22.169 29.742 0 54-24.258 54-54 0-16.928-9.251-32.775-21.505-42.689zm76.578-54.935c4.5683 6.5307 7.2519 14.488 7.2519 23.104 0 22.313-17.94 40.254-40.254 40.254-8.6156 0-16.573-2.6836-23.104-7.252z" fill="#c84747"/>
</svg>
