<?xml version="1.0" encoding="UTF-8"?>
<svg version="1.1" viewBox="0 0 128 128" xmlns="http://www.w3.org/2000/svg">
 <path d="m128 64c0 35.346-28.654 64-64 64s-64-28.654-64-64 28.654-64 64-64 64 28.654 64 64" fill="#ca72e2"/>
 <path d="m66 12c-29.742 0-54 24.258-54 54s24.258 54 54 54 54-24.258 54-54-24.258-54-54-54zm0 13.746c8.616 0 16.575 2.6812 23.106 7.25l-56.107 56.107c-4.5688-6.5309-7.252-14.488-7.252-23.104 0-22.313 17.94-40.254 40.254-40.254zm33.002 17.15c4.5681 6.5306 7.2519 14.488 7.2519 23.104 0 22.313-17.94 40.254-40.254 40.254-8.6155 0-16.573-2.6837-23.104-7.252z" fill-opacity=".2"/>
 <path d="m64.551 7.2605c-29.742 0-54 24.258-54 54 0 12.936 4.2397 23.254 11.873 32.571l9.5608-9.0319c-4.5683-6.5307-7.6873-14.923-7.6873-23.539 0-22.313 17.94-40.254 40.254-40.254 7.9728 0 17.285 4.2358 23.811 8.4883l10.133-10.184c-9.285-7.5309-21.104-12.051-33.943-12.051z" fill="#c84747"/>
 <path d="m45.716 67.914a18.317 18.317 0 0 1-22.805 12.287 18.317 18.317 0 0 1-12.287-22.805 18.317 18.317 0 0 1 22.805-12.287 18.317 18.317 0 0 1 12.287 22.805m57.181 17.134a18.317 18.317 0 0 1-22.805 12.287 18.317 18.317 0 0 1-12.287-22.805 18.317 18.317 0 0 1 22.805-12.287 18.317 18.317 0 0 1 12.287 22.805m-56.871-46.498 14.105 33.574 25.345 7.5961-9.3537-32.15-30.097-9.0201m31.995 2.684 7.7248 2.2979m-25.614 28.592 17.89-30.891m-49.571 21.396 24.983-35.35 12.673 3.798" fill="none" stroke="#000" stroke-linecap="round" stroke-linejoin="round" stroke-opacity=".2" stroke-width="5.9998"/>
 <path d="m45.715 63.458a18.317 18.317 0 0 1-22.805 12.287 18.317 18.317 0 0 1-12.287-22.805 18.317 18.317 0 0 1 22.805-12.287 18.317 18.317 0 0 1 12.287 22.805m57.181 17.134a18.317 18.317 0 0 1-22.805 12.287 18.317 18.317 0 0 1-12.287-22.805 18.317 18.317 0 0 1 22.805-12.287 18.317 18.317 0 0 1 12.287 22.805m-56.871-46.498 14.105 33.574 25.345 7.5961-9.3537-32.15-30.097-9.0201m31.995 2.684 7.7248 2.2979m-25.614 28.592 17.89-30.891m-49.571 21.396 24.983-35.35 12.673 3.798" fill="none" stroke="#fff" stroke-linecap="round" stroke-linejoin="round" stroke-width="5.9998"/>
 <path d="m22.424 93.831c9.8401 13.425 25.72 22.169 43.576 22.169 29.742 0 54-24.258 54-54 0-16.928-9.251-32.775-21.505-42.689z" fill="#c84747"/>
 <g>
  <path d="m94.971 44.119c-4.9757 0-9.9373 1.9115-13.701 5.7324-6.2731 6.2731-7.4619 15.954-3.584 23.367l-29.656 29.654v6.8047l-0.0293 0.0293 2.2812 2.2812 0.0098-0.01 0.01953 0.0195h4.5352l-2e-3 2e-3h6.8438l3.4219-3.4219v-6.8164l1.1777-1.1777h6.8047l6.8438-6.8437v-6.8047l5.7324-5.7324c7.4136 4.106 16.818 2.6364 22.977-3.6367 7.7558-7.6418 7.755-20.073 0.11328-27.715-3.8209-3.8209-8.8114-5.7324-13.787-5.7324zm4.1504 9.4961c1.5112 0 3.0215 0.57038 4.1621 1.7109 2.3952 2.2811 2.3952 6.0443 0 8.4395-2.2811 2.2811-6.045 2.2811-8.3262 0s-2.2811-6.0443 0-8.4395c1.1406-1.1406 2.6528-1.7109 4.1641-1.7109z" fill-opacity=".2"/>
  <path d="m108.76 45.851c-7.6418-7.6418-19.96-7.6418-27.488 0-6.2731 6.2731-7.4635 15.954-3.5856 23.368l-29.655 29.655v6.8434l2.2811 2.2811h4.5622l30.795-30.795c7.4136 4.106 16.816 2.6375 22.975-3.6355 7.7558-7.6418 7.7558-20.074 0.11406-27.716m-5.4747 13.915c-2.2811 2.2811-6.045 2.2811-8.3261 0s-2.2811-6.045 0-8.4402c2.2811-2.2811 6.045-2.2811 8.3261 0 2.3952 2.2811 2.3952 6.045 0 8.4402" fill="#eda432"/>
  <path d="m81.076 72.631-33.076 33.076 2.2812 2.2812 33.076-33.076-2.2812-2.2812zm-1.1406 10.266-13.75 13.688h6.9062l6.8438-6.8438v-6.8438zm-14.826 14.838-10.266 10.266h6.8438l3.4219-3.4219v-6.8437z" fill="#d68c3a"/>
 </g>
</svg>
