<?xml version="1.0" encoding="UTF-8"?>
<svg version="1.1" viewBox="0 0 128 128" xmlns="http://www.w3.org/2000/svg">
<path class="st0" d="m128 64a64 64 0 0 1-64 64 64 64 0 0 1-64-64 64 64 0 0 1 64-64 64 64 0 0 1 64 64" fill="#fd5"/>
<path d="m63.874 31.14c-7.7833 0-15.568 0.55482-20.015 1.6667-6.3334 1.5833-9.3523 13.999-10.514 20.503-0.5029-0.3039-1.0862-0.48883-1.7172-0.48883h-4.4467c-1.8434 0-3.3366 1.4914-3.3366 3.3351s1.4931 3.3366 3.3366 3.3366h2.4788c-1.3625 2.6346-1.3671 6.6717-1.3671 6.6717v28.91c0 2.4551 1.9916 4.4467 4.4467 4.4467h6.6717c2.4551 0 4.4482-1.9916 4.4482-4.4467v-0.89882c6.0362 0.89115 11.817 0.89882 20.015 0.89882 8.1978 0 13.977-0.0064 20.014-0.89721v0.89721c0 2.4551 1.9932 4.4467 4.4482 4.4467h6.6717c2.4551 0 4.4467-1.9916 4.4467-4.4467v-28.91c0-3.2956-0.61108-5.3656-1.3798-6.6717h2.4915c1.8413 0 3.3366-1.4931 3.3366-3.3366s-1.4953-3.3351-3.3366-3.3351h-4.4467c-0.62989 0-1.2129 0.18526-1.7156 0.48883-1.1615-6.5049-4.181-18.921-10.516-20.503-4.4476-1.1119-12.23-1.6667-20.014-1.6667z" fill-opacity=".2"/>
<g stroke-width="3.4118">
<path d="m43.827 90.977c0 2.4551-1.9925 4.4476-4.4476 4.4476h-6.6715c-2.4551 0-4.4476-1.9925-4.4476-4.4476v-17.791c0-2.4551 1.9925-4.4476 4.4476-4.4476h6.6715c2.4551 0 4.4476 1.9925 4.4476 4.4476z" fill="#555"/>
<path d="m83.856 28.71c8.6307 2.1571 11.119 24.462 11.119 24.462s4.4476 0 4.4476 8.8953v17.791s-0.26464 6.7382-8.8953 8.8953c-8.8953 2.2238-15.567 2.2238-26.686 2.2238s-17.791 0-26.686-2.2238c-8.6284-2.1571-8.8953-8.8953-8.8953-8.8953v-17.791s0-8.8953 4.4476-8.8953c0 0 2.4907-22.305 11.119-24.462 8.8953-2.2238 31.134-2.2238 40.029 0z" fill="#3b88c3"/>
<path d="m63.842 50.948c8.684 0 19.176 0.44476 26.686 1.2498l-2.2238-12.369c-2.2238-6.6715-15.567-6.6715-24.462-6.6715-8.8953 0-22.238 0-24.462 6.6715l-2.2238 12.369c7.5099-0.80502 18.002-1.2498 26.686-1.2498" fill="#bbddf5"/>
<path d="m31.596 55.396h-4.4476c-1.8436 0-3.3357-1.4922-3.3357-3.3357 0-1.8436 1.4922-3.3357 3.3357-3.3357h4.4476c1.8436 0 3.3357 1.4922 3.3357 3.3357 0 1.8436-1.4922 3.3357-3.3357 3.3357z" fill="#3b88c3"/>
<path d="m96.087 55.396h4.4477c1.8413 0 3.3357-1.4922 3.3357-3.3357 0-1.8436-1.4944-3.3357-3.3357-3.3357h-4.4477c-1.8413 0-3.3357 1.4922-3.3357 3.3357 0 1.8436 1.4944 3.3357 3.3357 3.3357z" fill="#3b88c3"/>
<path d="m48.275 68.739c0 3.6849-2.9866 6.6715-6.6715 6.6715h-2.2238c-3.6849 0-6.6715-2.9866-6.6715-6.6715 0-3.6849 2.9866-6.6715 6.6715-6.6715h2.2238c3.6849 0 6.6715 2.9866 6.6715 6.6715" fill="#fff"/>
<path d="m94.975 68.739c0 3.6849-2.9888 6.6715-6.6715 6.6715h-2.2238c-3.6827 0-6.6715-2.9866-6.6715-6.6715 0-3.6849 2.9888-6.6715 6.6715-6.6715h2.2238c3.6827 0 6.6715 2.9866 6.6715 6.6715" fill="#fff"/>
<path d="m33.14 63.521c5.2464-4.6124 15.625-4.0208 15.73-4.0158 1.2248 0.07723 2.2821-0.85275 2.3594-2.0776 0.07723-1.2248-0.84472-2.2776-2.0754-2.3588-0.49946-0.03482-12.31-0.7222-18.949 5.1101-0.92206 0.81197-1.0126 2.2151-0.20329 3.1388 0.30228 0.34115 0.68519 0.57038 1.0933 0.67973 0.69383 0.18591 1.4645 0.03327 2.0455-0.47643z" fill="#269"/>
<path d="m97.679 63.318c0.8114-0.92421 0.72091-2.3274-0.20328-3.1388-6.6371-5.8329-18.45-5.1449-18.949-5.1101-1.2209 0.0831-2.1527 1.134-2.0733 2.3582 0.0751 1.2254 1.1324 2.1554 2.3571 2.0781 0.10456-0.0049 10.483-0.59649 15.73 4.0158 0.57877 0.51028 1.3516 0.66234 2.0455 0.47643 0.40812-0.10937 0.79105-0.33858 1.0933-0.67973z" fill="#269"/>
<path d="m33.36 78.714c-0.86952-0.86952-0.86952-2.275 0-3.1445 0.765-0.76722 1.9503-0.8584 2.8176-0.27131 0.51593 0.22238 5.0814 1.8436 27.664 1.8436 22.583 0 27.148-1.6212 27.664-1.8436 0.86952-0.58709 2.0504-0.49591 2.8176 0.27131 0.86952 0.86952 0.86952 2.275 0 3.1445-2.375 2.375-17.888 2.8754-30.482 2.8754-12.594 0-28.107-0.50036-30.482-2.8754z" fill="#55acee"/>
<path d="m63.842 82.313c-8.5973 0-15.567 2.2238-15.567 5.5596 0 1.8413 6.9695 1.1119 15.567 1.1119s15.567 0.72942 15.567-1.1119c0-3.3357-6.9695-5.5596-15.567-5.5596z" fill="#269"/>
</g>
<path d="m63.874 11.331c-29.742 0-54 24.258-54 54 0 29.742 24.258 54 54 54s54-24.258 54-54c0-29.742-24.258-54-54-54zm0 13.746c8.616 0 16.575 2.6812 23.106 7.25l-56.107 56.107c-4.5688-6.5309-7.252-14.488-7.252-23.104 0-22.313 17.94-40.254 40.254-40.254zm33.002 17.15c4.5681 6.5306 7.2519 14.488 7.2519 23.104 0 22.313-17.94 40.254-40.254 40.254-8.6155 0-16.573-2.6837-23.104-7.252z" fill-opacity=".2"/>
<path d="m64 8c-29.742 0-54 24.258-54 54s24.258 54 54 54 54-24.258 54-54-24.258-54-54-54zm0 13.746c8.6156 0 16.573 2.6836 23.104 7.252l-56.106 56.105c-4.5683-6.5307-7.2519-14.488-7.2519-23.104 0-22.313 17.94-40.254 40.254-40.254zm33.002 17.15c4.5683 6.5307 7.2519 14.488 7.2519 23.104 0 22.313-17.94 40.254-40.254 40.254-8.6156 0-16.573-2.6836-23.104-7.252z" fill="#c84747"/>
<g fill="#3b88c3" stroke-width="3.4118">
<path d="m63.842 27.041c-7.7834 0-15.566 0.55606-20.014 1.668-8.6284 2.1571-11.119 24.463-11.119 24.463 13.031-1.1801 11.102 0.10561 32.43-2.209-0.42318-2e-3 -0.90315-0.14816-1.2969-0.01563-7.1944 2.4217-19.176 0.44498-26.686 1.25l2.2227-12.369c2.2238-6.6715 15.568-6.6699 24.463-6.6699 5.3941 0 12.412 0.0085 17.605 1.4961l4.7676-4.7676c-0.7302-0.55696-1.515-0.96669-2.3594-1.1777-4.4476-1.1119-12.23-1.668-20.014-1.668z"/>
<path d="m31.596 55.396h-4.4476c-1.8436 0-3.3357-1.4922-3.3357-3.3357 0-1.8436 1.4922-3.3357 3.3357-3.3357h4.4476c1.8436 0 3.3357 1.4922 3.3357 3.3357 0 1.8436-1.4922 3.3357-3.3357 3.3357z"/>
<path d="m96.087 55.396h4.4477c1.8413 0 3.3357-1.4922 3.3357-3.3357 0-1.8436-1.4944-3.3357-3.3357-3.3357h-4.4477c-1.8413 0-3.3357 1.4922-3.3357 3.3357 0 1.8436 1.4944 3.3357 3.3357 3.3357z"/>
</g>
<g stroke-width="3.4118">
<path d="m99.424 81.857-0.60156 0.39453c-3.5031 6.034-8.5258 11.059-14.559 14.564 0.70184 1.535 2.244 2.6074 4.041 2.6074h6.6699c2.4551 0 4.4492-1.9922 4.4492-4.4473v-13.119z" fill-opacity=".2"/>
<path d="m99.424 77.857-15.568 10.207v2.9121c0 2.4551 1.9941 4.4473 4.4492 4.4473h6.6699c2.4551 0 4.4492-1.9922 4.4492-4.4473z" fill="#555"/>
<path d="m99.424 74.559-4.6005 4.7532-15.714 11.294c3.763-0.30015 7.3628-0.83776 11.418-1.8516 8.6307-2.1571 8.8965-8.8965 8.8965-8.8965z" fill="#3b88c3"/>
<path d="m24.535 54.01c-0.44521 0.56692-0.72266 1.2733-0.72266 2.0508 0 0.41272 0.08393 0.80327 0.2207 1.168 0.12707-1.0866 0.29085-2.161 0.50195-3.2188z" fill-opacity=".2"/>
<path d="m103.6 54.742c0.09268 0.51209 0.17483 1.0281 0.24805 1.5469 0.00531-0.077026 0.02343-0.15013 0.02343-0.22852 0-0.46866-0.09718-0.91385-0.27148-1.3184z" fill-opacity=".2"/>
</g>
</svg>
