<?xml version="1.0" encoding="UTF-8"?>
<svg version="1.1" viewBox="0 0 128 128" xmlns="http://www.w3.org/2000/svg">
 <path d="m128 64c0 35.346-28.654 64-64 64s-64-28.654-64-64 28.654-64 64-64 64 28.654 64 64" fill="#b9a065" stroke-width=".2"/>
 <path d="m117.23 41.809c-3.5968 0.0836-6.4945 0.76068-8.2695 1.9531-1.1202 1.8004-1.725 4.6161-1.8262 8.0449l-9.0606 5.6055c-3.5374-2.1937-7.804-3.4746-12.398-3.4746h-39.355v20.371c-0.72662-0.22165-1.4958-0.3457-2.293-0.3457-4.4403 0-8.0293 3.6717-8.0293 8.209v25.83c1.3e-4 0.28183 0.01376 0.55951 0.04102 0.83399 1.9e-4 2e-3 -1.9e-4 4e-3 0 6e-3 0.02737 0.27377 0.06805 0.54348 0.12109 0.80859 0.74581 3.7407 3.98 6.5547 7.8672 6.5547 3.5983 0 6.6409-2.4268 7.6543-5.7676 0.05227-0.17202 0.09151-0.35066 0.13281-0.52734 0.08139-0.34924 0.14934-0.70336 0.18555-1.0684 0.02775-0.27774 0.04297-0.55849 0.04297-0.84375v-13.502h10.336v13.486c0 0.56634 0.05721 1.1203 0.16406 1.6543v2e-3c0.05336 0.26635 0.11932 0.52697 0.19726 0.78321 1.0167 3.3477 4.0667 5.7773 7.6758 5.7773 4.4452 0 8.041-3.6762 8.041-8.2168h-0.0332v-10.713c0.01095-0.0012 0.02225-7.4e-4 0.0332-2e-3v-1.9863a8.5368 5.1799 0 0 0 3.8164 2.5215v3.416c0 1.1113 0.62869 2.0117 1.4062 2.0117 0.78414 0 1.4137-0.8988 1.4121-2.0117v-2.8574a8.5368 5.1799 0 0 0 1.207 0.05273 8.5368 5.1799 0 0 0 1.209-0.05078v2.8555c0 1.1113 0.63126 2.0117 1.4121 2.0117 0.77592 0 1.4102-0.8988 1.4102-2.0117v-3.4179a8.5368 5.1799 0 0 0 2.8496-1.5v5.9961c0 4.1436 3.2848 7.502 7.3457 7.502 4.049 0 7.3301-3.3584 7.3301-7.502v-15.652c0.22528-4.6584 0.52744-8.8829-0.12695-15.375-0.0422-0.41867-0.17064-0.80958-0.37305-1.1738-1.0081-4.4686-3.6241-8.3843-7.2578-11.248 2.4086-1.3514 4.8785-2.9792 7.1894-4.918 4.256 0.08391 7.6871-0.6056 9.6934-1.9512 1.3448-2.1597 1.9655-5.7707 1.834-10.17-0.54106-0.01254-1.0702-0.01194-1.584 0z" fill-opacity=".2"/>
 <g>
  <path d="m86.931 60.307s16.924-4.2677 25.636-15.859" fill="none" stroke="#7f7265" stroke-miterlimit="10" stroke-width="2.4659"/>
  <path d="m107.13 49.931c-0.12493-4.3976 0.48826-8.0077 1.833-10.169 2.0286-1.3628 5.5253-2.0533 9.8538-1.953 0.13152 4.3992-0.48825 8.0093-1.833 10.169-2.0319 1.3628-5.522 2.0582-9.8538 1.953" fill="#7f7265" stroke-width="1.6439"/>
  <path d="m93.183 74.674c0-4.1497 3.2836-7.507 7.3446-7.507 4.0489 0 7.3296 3.3573 7.3296 7.507v23.624c0 4.1436-3.2806 7.5009-7.3296 7.5009-4.0609 0-7.3446-3.3573-7.3446-7.5009z" fill="#e3e2d7" stroke-width="1.5035"/>
  <ellipse cx="86.301" cy="89.236" rx="8.5368" ry="5.1799" fill="#eba8a3" stroke-width="1.6439"/>
  <path d="m83.682 99.23c-0.77756 0-1.4055-0.89921-1.4055-2.0105v-4.6161c0-1.1129 0.62961-2.0121 1.4055-2.0121 0.78414 0 1.4121 0.89921 1.4121 2.0121v4.6161c0.0016 1.1129-0.62797 2.0105-1.4121 2.0105" fill="#eba8a3" stroke-width="1.6439"/>
  <path d="m88.923 99.23c-0.78085 0-1.4121-0.89921-1.4121-2.0105v-4.6161c0-1.1129 0.6329-2.0121 1.4121-2.0121 0.77756 0 1.4088 0.89921 1.4088 2.0121v4.6161c0 1.1129-0.6329 2.0105-1.4088 2.0105" fill="#eba8a3" stroke-width="1.6439"/>
  <path d="m107.82 70.238c0 11.189-9.913 20.258-22.142 20.258h-39.356v-40.558h39.356c12.231 0 22.142 9.0729 22.142 20.299" fill="#e3e2d7" stroke-width="1.6439"/>
  <path d="m62.382 78.152c0-4.5373 3.5904-8.2082 8.0307-8.2082 4.4271 0 8.0142 3.6709 8.0142 8.2082v25.831c0 4.5307-3.5871 8.2016-8.0142 8.2016-4.4403 0-8.0307-3.6709-8.0307-8.2016z" fill="#e3e2d7" stroke-width="1.6439"/>
  <path d="m77.031 73.406c0.89924 1.3283 1.4286 2.941 1.4286 4.6803v15.182c-0.28276 0.03126-0.56552 0.04766-0.8565 0.04766-5.0502 0.0021-9.1486-4.4633-9.1486-9.9714 0-5.2894 3.7926-9.6097 8.5765-9.9385z" fill="#7f7265" stroke-width="1.6439"/>
  <path d="m70.419 112.2c4.4452 0 8.0405-3.6775 8.0405-8.2181h-16.078c0.0017 4.5406 3.597 8.2181 8.0373 8.2181" fill="#333" stroke-width="1.6439"/>
  <path d="m36 78.172c0-4.5373 3.5904-8.2082 8.0307-8.2082 4.4271 0 8.0142 3.6709 8.0142 8.2082v25.831c0 4.5307-3.5871 8.2016-8.0142 8.2016-4.4403 0-8.0307-3.6709-8.0307-8.2016z" fill="#e3e2d7" stroke-width="1.6439"/>
  <path d="m36 101.44v-13.98c4.5209 0.42249 8.0208 3.3882 8.0208 6.9884 0 3.6035-3.5 6.5692-8.0208 6.9917z" fill="#7f7265" stroke-width="1.6439"/>
  <path d="m44.031 112.2c-4.4403 0-8.0307-3.6709-8.0307-8.2016h16.045c0 4.5307-3.5871 8.2016-8.0142 8.2016" fill="#333" stroke-width="1.6439"/>
  <path d="m96.493 78.74c-30.772-16.847 10.325-20.54 11.239-11.47 0.91424 9.0699-0.0408 13.697-0.0408 21.295-1.9732 1.7133-16.236-4.889-11.198-9.8251z" fill="#7f7265" stroke-width="1.6439"/>
  <path d="m100.5 105.71c4.049 0 7.3205-3.3487 7.3205-7.4816h-14.634c0 4.1329 3.2747 7.4816 7.3139 7.4816" fill="#333" stroke-width="1.6439"/>
 </g>
 <path d="m64 14c-29.742 0-54 24.258-54 54 0 29.742 24.258 54 54 54s54-24.258 54-54c0-29.742-24.258-54-54-54zm0 13.746c8.6156 0 16.573 2.6836 23.104 7.252l-56.106 56.105c-4.5683-6.5307-7.2519-14.488-7.2519-23.104 0-22.313 17.94-40.254 40.254-40.254zm33.002 17.15c4.5683 6.5307 7.2519 14.488 7.2519 23.104 0 22.313-17.94 40.254-40.254 40.254-8.6156 0-16.573-2.6836-23.104-7.252z" fill-opacity=".2"/>
 <path d="m64 10c-29.742 0-54 24.258-54 54s24.258 54 54 54 54-24.258 54-54-24.258-54-54-54zm0 13.746c8.6156 0 16.573 2.6836 23.104 7.252l-56.106 56.105c-4.5683-6.5307-7.2519-14.488-7.2519-23.104 0-22.313 17.94-40.254 40.254-40.254zm33.002 17.15c4.5683 6.5307 7.2519 14.488 7.2519 23.104 0 22.313-17.94 40.254-40.254 40.254-8.6156 0-16.573-2.6836-23.104-7.252z" fill="#c84747"/>
 <path d="m38.669 14.846c-0.63223 6.0973-0.12276 10.462 0.95312 13.541-0.79096 0.63442-1.5446 1.3147-2.2617 2.0332-0.27011-0.61638-0.55884-1.1995-0.87891-1.7188-3.3487-2.2654-9.1113-3.4204-16.256-3.2461-0.20878 7.3238 0.80736 13.34 3.0234 16.938 1.7233 1.1652 4.0895 2.0316 6.9434 2.5801-0.09463 0.84971-0.1582 1.709-0.1582 2.5879 0 7.9969 1.6533 15.501 4.6797 21.652-1.2328 2.8413-1.3047 6.039-1.3047 9.0566 0 8.2344 5.5762 11.998 23.824 11.998 18.24 0 23.826-3.7618 23.826-11.998 0-3.2909-0.08539-6.7951-1.6699-9.8184 0.03894-0.07745 0.07478-0.15843 0.11328-0.23633 0.41416-0.83697 0.80222-1.6983 1.1641-2.584 0.02761-0.06765 0.05473-0.1352 0.08203-0.20312 1.0175-2.5289 1.8199-5.2397 2.3945-8.0898 0.0025-0.01221 0.0034-0.02489 0.0059-0.03711 0.57635-2.8695 0.92249-5.8703 1.0215-8.959 5.2e-4 -0.01619-5.07e-4 -0.03263 0-0.04883 0.01879-0.6021 0.05078-1.2006 0.05078-1.8086 0-0.52199-0.02444-1.0348-0.05859-1.5449 2.8219-0.5229 5.1872-1.3692 6.9492-2.5371 2.1799-3.4769 3.3051-9.452 3.1309-16.861-7.064-0.22029-12.862 0.83853-16.334 3.1367-0.24954 0.39722-0.48169 0.83583-0.70312 1.2969-0.7638-0.76887-1.5743-1.4922-2.4258-2.166 0.94418-3.0017 1.3722-7.1365 0.78125-12.82 0 0-3.3775 5.2609-8.6875 8.3789-3.1178-1.1603-6.4083-1.7836-9.6504-1.7832-3.075 0-6.1693 0.7818-9.1055 2.1094-5.7517-3.0989-9.4492-8.8477-9.4492-8.8477z" fill-opacity=".2"/>
 <g>
  <path d="m48.723 20.017c-6.1003-3.0041-10.055-9.1718-10.055-9.1718-1.6852 16.252 4.7431 20.202 8.3788 20.268 4.8714 0.10112 8.7158-7.6305 1.6761-11.1" fill="#f6c799" stroke-width="2.2469"/>
  <path d="m65.654 20.031c6.0098-2.9617 9.9084-9.0423 9.9084-9.0423 1.6658 16.022-4.6784 19.916-8.2604 19.982-4.8025 0.09968-8.5882-7.5227-1.648-10.943" fill="#f6c799" stroke-width="2.2152"/>
  <path d="m94.243 21.541c-7.064-0.22029-12.862 0.83841-16.334 3.1366-2.1832 3.4753-3.3043 9.4543-3.1301 16.865 7.0607 0.21864 12.862-0.83841 16.334-3.1399 2.1799-3.4769 3.3043-9.4527 3.1301-16.862" fill="#7f7265" stroke-width="1.6439"/>
  <path d="m89.953 25.95c-3.9422-0.12165-7.1824 0.46852-9.1255 1.7524-1.2198 1.9431-1.8429 5.2869-1.7492 9.4264 3.9455 0.12165 7.189-0.46852 9.1288-1.7524 1.2182-1.9431 1.8412-5.2836 1.7459-9.4264" fill="#333" stroke-width="1.6439"/>
  <path d="m39.51 41.645c0.21207-7.3287-0.80882-13.344-3.0281-16.944-3.3487-2.2654-9.1124-3.4211-16.257-3.2468-0.20878 7.3238 0.80882 13.341 3.0249 16.939 3.3553 2.2686 9.1157 3.4211 16.26 3.2517" fill="#7f7265" stroke-width="1.6439"/>
  <path d="m35.303 37.231c0.11508-4.1279-0.45537-7.5178-1.7081-9.548-1.8856-1.2773-5.134-1.9267-9.1601-1.8314-0.12165 4.1296 0.45208 7.5178 1.7048 9.5464 1.8905 1.279 5.1373 1.9316 9.1634 1.833" fill="#333" stroke-width="1.6439"/>
  <path d="m57.223 79.579c-16.719 0-26.547-16.921-26.547-36.964 0-10.995 13.456-25.031 26.547-25.031 13.084-0.0017 26.978 10.132 26.978 24.888 0 20.041-10.26 37.107-26.978 37.107z" fill="#e3e2d7" stroke-width="1.6439"/>
  <path d="m65.531 18.936c-8.5679 15.805-0.81785 12.763-1.3455 22.886-0.52763 10.123-10.446 17.419 0.0033 36.695 12.566-4.0235 20.032-18.94 20.032-36.032 0-11.626-8.6322-20.357-18.69-23.548z" fill="#7f7265" stroke-width="1.6439"/>
  <path d="m43.771 57.499c1.6508 10.001 16.745 2.818 6.2952 22.094-12.566-4.0235-20.032-18.94-20.032-36.032 0-11.626 8.5452-20.836 18.603-24.027-7.4638 11.466-6.979 25.267-4.8659 37.965z" fill="#7f7265" stroke-width="1.6439"/>
  <path d="m81.059 74.269c0 8.2362-5.5861 11.999-23.826 11.999-18.248 0-23.824-3.7646-23.824-11.999 0-8.2362 0.50469-17.817 23.824-17.817 23.321 0 23.826 9.5809 23.826 17.817" fill="#eba8a3" stroke-width="1.6439"/>
  <ellipse cx="74.894" cy="41.264" rx="6.127" ry="6.5445" fill="#333" stroke-width="1.6439"/>
  <ellipse cx="39.548" cy="41.264" rx="6.127" ry="6.5445" fill="#333" stroke-width="1.6439"/>
  <path d="m51.567 70.164c-1.7475 3.7334-5.0601 5.8245-7.4076 4.6688-2.3443-1.159-2.8292-5.1308-1.0817-8.8691 1.7409-3.7367 5.0568-5.8278 7.401-4.6688 2.3459 1.159 2.8342 5.1275 1.0883 8.8691" fill="#333" stroke-width="1.6439"/>
  <path d="m62.893 70.161c1.7409 3.7367 5.0568 5.8278 7.401 4.6721 2.3476-1.1623 2.8325-5.1308 1.0866-8.8691-1.7442-3.7367-5.0584-5.8278-7.4043-4.6688-2.3443 1.159-2.8292 5.1275-1.0834 8.8658" fill="#333" stroke-width="1.6439"/>
 </g>
</svg>
