<?xml version="1.0" encoding="UTF-8"?>
<svg version="1.1" viewBox="0 0 128 128" xml:space="preserve" xmlns="http://www.w3.org/2000/svg"><path d="m128 64c0 35.346-28.654 64-64 64s-64-28.654-64-64 28.654-64 64-64 64 28.654 64 64" fill="#9bbe55"/><g id="Layer_2_copy" transform="matrix(.79611 0 0 .79611 12.898 29.142)" fill-opacity=".2">
	
	<path d="m62.54 4.84-52.16 26.89c-1.14 0.67-1.47 1.67-1.46 3.12l0.1 1.81 55.07 28.24 54.94-27.79s0.06-0.28 0.06-1.26c0 0-0.05-1.29-0.34-1.89-0.32-0.68-1-1.29-1.44-1.66-1.17-0.97-2.34-1.83-4.33-2.95-28.53-16.13-47.29-24.44-47.29-24.44-1.21-0.45-2.21-0.61-3.15-0.07z"/><path d="m9.74 80.16c3.04 2.01 8.59 4.65 14.2 7.69 13.04 7.06 29.52 15.64 37.72 19.01 1.11 0.46 1.77 0.68 2.54 0.72 0.57 0.03 1.51-0.35 1.51-0.35s-1.53-39.19-1.62-42.34c-0.09-3.08-1.38-4.1-2.52-4.84-1.78-1.14-5.64-2.92-5.64-2.92s-13.52-6.72-27.02-13.8c-6.42-3.37-11.84-6.82-17.67-9.66-1.07-0.51-2.33 0.13-2.33 1.33v43.8c0 0.57 0.35 1.05 0.83 1.36z"/><path d="m117.58 80.51-51.89 26.732-1.628-42.378c0-0.55-0.14234-1.7148-0.31234-2.1948-0.47-1.4 0.55-1.96 1.01-2.19l51.34-26.44c1.36-0.7 2.99 0.29 2.99 1.82v42.19c0 1.03-0.58 1.98-1.51 2.46z"/><path d="m94.46 47.59s-28.37 14.51-28.83 15.74c-0.46 1.22 22.26-9.7 24.92-11.07 3.01-1.55 26.65-14.19 26.65-15.58 0.01-1.14-22.74 10.91-22.74 10.91z" opacity=".5"/><path d="m100.74 41.49c-0.5-0.37-54.19-28.42-54.19-28.42l-16.66 8.61 55.05 28.39 0.03 0.03 16.11-8.25s-0.03-0.08-0.12-0.18c-0.07-0.06-0.19-0.15-0.22-0.18z"/><path d="m101 41.73c-9.12 4.49-16.06 8.34-16.06 8.34 0.23 0.23 0.24 0.53 0.24 0.68-0.03 1.16-0.05 2.08-0.08 3.23-0.14 5.95-0.22 11.91-0.42 17.86 0.67-0.4 1.48 0.48 2.09 0 0.94-0.74 2.94-4 3.24-4.1 0.4-0.13 0.83-0.03 1.24-0.05 1.8-0.1 5.83-3.77 6.69-3.94 0.83-0.16 3.57 0.37 3.57 0.37s-0.19-18.15-0.26-21.2c-0.02-1.08-0.25-1.19-0.25-1.19z"/>
	
	
	
	
	
	
	
	
	
	
	
		
	
	
	
	
</g><g transform="matrix(.79949 0 0 .79949 12.596 21.072)">
	
	<path d="m62.54 4.84-52.16 26.89c-1.14 0.67-1.47 1.67-1.46 3.12l0.1 1.81 55.07 28.24 54.94-27.79s0.06-0.28 0.06-1.26c0 0-0.05-1.29-0.34-1.89-0.32-0.68-1-1.29-1.44-1.66-1.17-0.97-2.34-1.83-4.33-2.95-28.53-16.13-47.29-24.44-47.29-24.44-1.21-0.45-2.21-0.61-3.15-0.07z" fill="#dea66c"/><path d="m9.74 80.16c3.04 2.01 8.59 4.65 14.2 7.69 13.04 7.06 29.52 15.64 37.72 19.01 1.11 0.46 1.77 0.68 2.54 0.72 0.57 0.03 1.51-0.35 1.51-0.35s-1.53-39.19-1.62-42.34c-0.09-3.08-1.38-4.1-2.52-4.84-1.78-1.14-5.64-2.92-5.64-2.92s-13.52-6.72-27.02-13.8c-6.42-3.37-11.84-6.82-17.67-9.66-1.07-0.51-2.33 0.13-2.33 1.33v43.8c0 0.57 0.35 1.05 0.83 1.36z" fill="#b38251"/><path d="m117.58 80.51-51.76 26.69c-0.83 0.43-1.82-0.17-1.82-1.11l0.09-41.18c0-0.55-0.17-1.76-0.34-2.24-0.47-1.4 0.55-1.96 1.01-2.19l51.34-26.44c1.36-0.7 2.99 0.29 2.99 1.82v42.19c0 1.03-0.58 1.98-1.51 2.46z" fill="#966239"/><path d="m94.46 47.59s-28.37 14.51-28.83 15.74c-0.46 1.22 22.26-9.7 24.92-11.07 3.01-1.55 26.65-14.19 26.65-15.58 0.01-1.14-22.74 10.91-22.74 10.91z" fill="#212121" opacity=".5"/><path d="m12.722 62.745 0.08813 13.047 31.498 16.303-0.08813-13.047z" fill="#212121" fill-opacity=".79083" opacity=".5"/><path d="m100.74 41.49c-0.5-0.37-54.19-28.42-54.19-28.42l-16.66 8.61 55.05 28.39 0.03 0.03 16.11-8.25s-0.03-0.08-0.12-0.18c-0.07-0.06-0.19-0.15-0.22-0.18z" fill="#ffe0b2"/><path d="m101 41.73c-9.12 4.49-16.06 8.34-16.06 8.34 0.23 0.23 0.24 0.53 0.24 0.68-0.03 1.16-0.05 2.08-0.08 3.23-0.14 5.95-0.22 11.91-0.42 17.86 0.67-0.4 1.48 0.48 2.09 0 0.94-0.74 2.94-4 3.24-4.1 0.4-0.13 0.83-0.03 1.24-0.05 1.8-0.1 5.83-3.77 6.69-3.94 0.83-0.16 3.57 0.37 3.57 0.37s-0.19-18.15-0.26-21.2c-0.02-1.08-0.25-1.19-0.25-1.19z" fill="#bf9f85"/>
	
	
	
	
	
	
	
	
	
	
	
		
	
	
	
	
</g><g transform="matrix(.051097 0 0 .051097 40.744 8.517)" fill-opacity=".2">
	<g fill-opacity=".2">
		<polygon points="451.9 0 222.5 327.2 367 327.2 366.7 903.8 536.7 903.8 537 327.2 681.3 327.2" fill-opacity=".2"/>
	</g>
</g><g transform="matrix(.051097 0 0 .051097 40.72 6.4535)" fill="#fff">
	<g fill="#fff">
		<polygon points="366.7 903.8 536.7 903.8 537 327.2 681.3 327.2 451.9 0 222.5 327.2 367 327.2" fill="#fff"/>
	</g>
</g></svg>
