<?xml version="1.0" encoding="UTF-8"?>
<svg version="1.1" viewBox="0 0 128 128" xml:space="preserve" xmlns="http://www.w3.org/2000/svg">
<path d="m128 64c0 35.346-28.654 64-64 64s-64-28.654-64-64 28.654-64 64-64 64 28.654 64 64" fill="#9bbe55"/>
<path d="m20.041 91.966v5.2719c0 0.4566 0.27784 0.84149 0.66034 1.0898 2.4225 1.6101 6.8447 3.7243 11.315 6.1595 10.391 5.6555 23.524 12.529 30.059 15.229 0.88453 0.36849 1.4104 0.54418 2.024 0.57623 0.35628 0.0189 0.80115-0.13664 1.0164-0.21653 0.14722-5e-3 0.29594-0.0333 0.43486-0.10558l41.245-21.381c0.74109-0.38451 1.2044-1.1452 1.2044-1.9703v-4.5847c0-0.0025 1e-5 -0.0047 0-0.0071z" fill-opacity=".2" stroke-width=".79896"/>
<path d="m62.936 32.274-41.565 21.541c-0.90845 0.53673-1.3786 1.3378-1.3706 2.4994l0.07969 1.45 44.092 22.623 43.781-22.262s0.0478-0.22431 0.0478-1.0094c0 0-0.0399-1.0334-0.27095-1.514-0.255-0.54474-0.79688-1.0334-1.1475-1.3299-0.93236-0.77705-1.8647-1.466-3.4505-2.3632-22.735-12.922-37.685-19.579-37.685-19.579-0.96423-0.36049-1.7611-0.48867-2.5102-0.05607z" fill="#dea66c" />
<path d="m20.701 94.33c2.4225 1.6102 6.8452 3.725 11.316 6.1604 10.391 5.6557 23.524 12.529 30.059 15.228 0.88454 0.3685 1.4105 0.54474 2.0241 0.57678 0.45422 0.0241 1.2033-0.28038 1.2033-0.28038s-1.0598-33.113-1.1316-35.637c-0.071715-2.4673-1.0997-3.2845-2.0081-3.8772-14.654-7.0074-26.573-14.437-40.107-21.133-0.85267-0.40856-2.0161 0.10414-2.0161 1.0654l1.1e-5 36.806c0 0.45662 0.27891 0.84114 0.66142 1.0895z" fill="#b38251" />
<path d="m106.8 94.593-41.247 21.381c-0.66142 0.34447-1.53-0.13618-1.53-0.8892v-35.438c0-0.4406 0.01592-0.66137-0.11955-1.0459-0.37454-1.1215 0.43829-1.5701 0.80485-1.7544l40.912-21.181c1.0838-0.56076 2.3827 0.23231 2.3827 1.458v35.499c0 0.82513-0.4622 1.5862-1.2033 1.9706z" fill="#966239" />
<path d="m88.373 66.521s-22.608 11.624-22.974 12.609c-0.36657 0.97733 17.739-7.7706 19.858-8.8681 2.3987-1.2417 21.237-11.368 21.237-12.481 8e-3 -0.91324-18.121 8.7398-18.121 8.7398z" fill="#212121" opacity=".5" />
<path d="m24 84.001v8.0002l24 12v-8.0002z" fill="#212121" fill-opacity=".79083" opacity=".5" />
<path d="m93.377 61.586c-0.39844-0.2964-43.183-22.767-43.183-22.767l-13.277 6.8974 43.845 22.766 0.0239 0.02403 12.862-6.6329s-0.0239-0.06409-0.09563-0.1442c-0.05578-0.04807-0.1514-0.12016-0.17532-0.1442z" fill="#ffe0b2" />
<path d="m93.585 61.826c-7.2675 3.5969-12.798 6.681-12.798 6.681 0.18328 0.18425 0.19125 0.42458 0.19125 0.54474-0.02391 0.92926-0.03984 1.6662-0.06375 2.5876-0.11156 4.7665-0.17532 9.5409-0.3347 14.308 0.53391-0.32044 1.1793 0.38453 1.6655 0 0.74907-0.5928 2.3428-3.2044 2.5819-3.2845 0.31876-0.10414 0.66142-0.02403 0.98814-0.04005 1.4344-0.08011 4.6458-3.0201 5.3312-3.1563 0.66142-0.12818 2.8449 0.2964 2.8449 0.2964s-0.1514-14.54-0.20719-16.983c-0.01594-0.86518-0.19922-0.95329-0.19922-0.95329z" fill="#bf9f85" />
<path d="m64 12 32 32h-20v16h-24v-16h-20z" fill-opacity=".2"/>
<path d="m64 8 32 32h-20v16h-24v-16h-20z" fill="#3b88c3"/>
</svg>
