<?xml version="1.0" encoding="UTF-8" standalone="no"?>
<svg
   version="1.1"
   viewBox="0 0 128.02 128.02"
   id="svg8"
   sodipodi:docname="parking_charge.svg"
   inkscape:version="1.4.2 (ebf0e940d0, 2025-05-08)"
   xmlns:inkscape="http://www.inkscape.org/namespaces/inkscape"
   xmlns:sodipodi="http://sodipodi.sourceforge.net/DTD/sodipodi-0.dtd"
   xmlns="http://www.w3.org/2000/svg"
   xmlns:svg="http://www.w3.org/2000/svg">
  <defs
     id="defs8" />
  <sodipodi:namedview
     id="namedview8"
     pagecolor="#ffffff"
     bordercolor="#000000"
     borderopacity="0.25"
     inkscape:showpageshadow="2"
     inkscape:pageopacity="0.0"
     inkscape:pagecheckerboard="0"
     inkscape:deskcolor="#d1d1d1"
     inkscape:zoom="6.2490234"
     inkscape:cx="63.92999"
     inkscape:cy="64.010002"
     inkscape:window-width="1920"
     inkscape:window-height="1011"
     inkscape:window-x="0"
     inkscape:window-y="32"
     inkscape:window-maximized="1"
     inkscape:current-layer="svg8" />
  <path
     d="m119.44 96.011c-17.673 30.611-56.815 41.099-87.426 23.426-30.611-17.673-41.099-56.815-23.426-87.426 17.673-30.611 56.815-41.099 87.426-23.426 30.611 17.673 41.099 56.815 23.426 87.426"
     fill="#fd5"
     stroke-width=".2"
     id="path1" />
  <path
     d="m36.907 28.011h55.056c4.6935 0 8.472 3.7785 8.472 8.472v63.056c0 4.6935-3.7785 8.472-8.472 8.472h-55.056c-4.6935 0-8.472-3.7785-8.472-8.472v-63.056c0-4.6935 3.7785-8.472 8.472-8.472z"
     fill="none"
     stroke="#000"
     stroke-opacity=".2"
     stroke-width="8"
     id="path2" />
  <path
     d="m36.907 24.011h55.056c4.6935 0 8.472 3.7785 8.472 8.472v63.056c0 4.6935-3.7785 8.472-8.472 8.472h-55.056c-4.6935 0-8.472-3.7785-8.472-8.472v-63.056c0-4.6935 3.7785-8.472 8.472-8.472z"
     fill="#495aad"
     stroke="#fff"
     stroke-opacity=".98995"
     stroke-width="8"
     id="path3" />
  <path
     d="m44.435 80.011v-40l12 2e-6s12-2e-6 12 12-12 12-12 12l-12-3e-6"
     fill="none"
     stroke="#fff"
     stroke-linecap="square"
     stroke-width="8"
     id="path4" />
  <g
     transform="matrix(1.0520279,0,0,1.0520279,50.382271,50.382271)"
     id="g10">
    <path
       d="M 61,20.9 C 54.8,15.3 48.6,9.6 42.4,4 33.3,17.8 17.9,30.1 3.3,39 2.9,40.9 2.5,42.7 2,44.5 8.4,50.3 14.8,56.2 21.2,62 36.3,53.7 52.3,41.9 62,28.5 61.7,26 61.3,23.5 61,20.9"
       fill="#699635"
       id="path3-9" />
    <path
       d="M 22.4,54.6 C 16.1,48.8 9.8,43 3.5,37.3 19.2,28.4 32.4,16.3 42.1,2 48.4,7.8 54.7,13.5 61,19.3 51.3,33.6 38.1,45.7 22.4,54.6"
       fill="#83bf4f"
       id="path4-3" />
    <path
       d="M 20.8,50.8 C 16.6,47 12.4,43.1 8.2,39.3 8.5,39.1 8.7,39 9,38.8 9.8,38.3 10,37.4 9.3,36.7 L 8.7,36.1 C 21.4,28.3 32.4,18.3 41,6.7 l 0.6,0.6 c 0.7,0.6 1.7,0.5 2.3,-0.2 0.2,-0.2 0.3,-0.5 0.5,-0.7 4.2,3.8 8.4,7.7 12.6,11.5 -0.2,0.2 -0.3,0.5 -0.5,0.7 -0.6,0.8 -0.5,1.9 0.2,2.6 l 0.6,0.6 C 48.7,33.3 37.7,43.3 25,51.1 l -0.6,-0.6 c -0.7,-0.6 -1.9,-0.7 -2.8,-0.2 -0.3,0.2 -0.5,0.3 -0.8,0.5 M 10.9,39.4 c 3.4,3.1 6.8,6.2 10.3,9.4 1.3,-0.4 2.8,-0.3 4,0.3 C 36.8,41.7 46.9,32.5 55,21.8 54.3,20.7 54.2,19.3 54.7,18.1 51.3,15 47.9,11.9 44.4,8.7 43.5,9.5 42.2,9.6 41.1,9 33,19.8 22.9,29 11.3,36.4 c 0.6,1 0.5,2.2 -0.4,3"
       fill="#699635"
       id="path5" />
    <path
       d="m 20,37.3 c 1.1,-0.4 2.3,-0.3 3.1,0.4 -0.5,0.4 -1.1,0.8 -1.6,1.2 -0.2,-0.2 -0.7,-0.2 -0.9,0 -0.3,0.2 -0.4,0.5 -0.1,0.7 0.2,0.2 0.7,0.2 1,0 1.2,-0.8 2.9,-0.9 3.8,0 0.7,0.7 0.8,1.7 0.1,2.5 0.2,0.2 0.4,0.3 0.6,0.5 -0.5,0.3 -1,0.7 -1.5,1 -0.2,-0.2 -0.4,-0.4 -0.6,-0.5 -1.1,0.3 -2.3,0.2 -3,-0.5 0.6,-0.4 1.1,-0.7 1.7,-1.1 0.2,0.2 0.7,0.2 1,0 0.3,-0.2 0.3,-0.5 0.1,-0.7 -0.2,-0.2 -0.6,-0.2 -0.9,0 -0.7,0.5 -1.6,0.7 -2.4,0.6 -0.6,-0.1 -1.1,-0.3 -1.5,-0.6 -0.7,-0.7 -0.7,-1.6 -0.1,-2.4 -0.2,-0.1 -0.3,-0.3 -0.5,-0.5 0.5,-0.3 1,-0.7 1.5,-1 -0.1,0.1 0.1,0.2 0.2,0.4"
       fill="#699635"
       id="path6" />
    <path
       d="m 43.2,15.9 c 0.9,-0.6 2,-0.6 2.7,0.1 l -1.2,1.5 c -0.2,-0.2 -0.6,-0.2 -0.8,0.1 -0.2,0.3 -0.2,0.7 0,0.9 0.2,0.2 0.6,0.2 0.8,-0.1 0.9,-1.1 2.4,-1.3 3.3,-0.5 0.7,0.7 0.9,1.8 0.5,2.8 0.2,0.2 0.4,0.3 0.6,0.5 -0.4,0.5 -0.7,0.9 -1.1,1.4 -0.2,-0.2 -0.4,-0.4 -0.6,-0.5 -0.9,0.5 -1.9,0.5 -2.6,-0.2 0.4,-0.5 0.9,-1 1.3,-1.5 0.2,0.2 0.6,0.2 0.8,-0.1 0.2,-0.3 0.2,-0.7 0,-0.9 -0.2,-0.2 -0.6,-0.2 -0.8,0.1 -0.5,0.6 -1.3,1 -2,1 -0.5,0 -1,-0.2 -1.4,-0.5 C 42,19.3 41.8,18.3 42.2,17.3 42,17.2 41.9,17 41.7,16.8 c 0.4,-0.4 0.8,-0.9 1.1,-1.4 0,0.2 0.2,0.3 0.4,0.5"
       fill="#699635"
       id="path7" />
    <path
       d="m 40.2,35.5 c -3.2,2.9 -8.6,2.8 -11.7,0 -3.1,-2.9 -2.9,-7.4 0.3,-10.3 3.2,-2.9 8.2,-3.2 11.3,-0.3 3.2,2.8 3.3,7.7 0.1,10.6"
       fill="#699635"
       id="path8" />
    <path
       d="m 21.8,24.5 18.9,17.3 c 2.2,-1.8 4.2,-3.7 6.2,-5.7 L 28.1,18.8 c -2,1.9 -4.1,3.8 -6.3,5.7"
       fill="#ffdd7d"
       id="path9" />
    <path
       d="m 40.8,49.4 c 2.1,-1.6 4.2,-3.3 6.2,-5 V 36 c -2,2 -4.1,3.9 -6.2,5.7 v 7.7"
       fill="#dbb471"
       id="path10" />
  </g>
</svg>
