<?xml version="1.0" encoding="UTF-8"?>
<svg version="1.1" viewBox="0 0 128.02 128.02" xmlns="http://www.w3.org/2000/svg">
 <path d="m119.44 96.011c-17.673 30.611-56.815 41.099-87.426 23.426s-41.099-56.815-23.426-87.426 56.815-41.099 87.426-23.426 41.099 56.815 23.426 87.426" fill="#fd5" stroke-width=".2"/>
 <g stroke-width="8">
  <path d="m36 28h56c4.6935 0 8 3.5473 8 8v64c0 4.6935-3.3065 8-8 8h-56c-4.6935 0-8-3.3065-8-8v-64c0-4.6935 3.3065-8 8-8z" fill="none" stroke="#000" stroke-opacity=".2"/>
  <path d="m36.907 24.011h55.056c4.6935 0 8.037 3.2955 8.037 7.989v64c0 4.6935-3.3435 8.011-8.037 8.011h-55.056c-4.6935 0-8.907-3.3175-8.907-8.011v-64c0-4.6935 4.2135-7.989 8.907-7.989z" fill="#495aad" stroke="#fff"/>
  <path d="m44 80v-40h12s12-1e-6 12 12-12 12-12 12h-12" fill="none" stroke="#fff" stroke-linecap="square"/>
 </g>
 <path d="m93.815 40.523c-6.0336 8.8948-13.019 17.193-20.836 24.773-2.5752 2.421-5.2651 4.8407-8.0684 7.2617l0.03125 0.0293c-8.0028 6.7935-16.732 12.893-26.086 18.195 0.4921 0.44523 0.98446 0.89183 1.4766 1.3379-0.58777 0.36497-1.1755 0.72665-1.7617 1.084-0.56952 2.7052-1.1397 5.2673-1.8516 7.8301 9.1123 8.258 18.226 16.658 27.338 24.916 9.3404-5.1342 18.923-11.208 27.906-18.002v0.0625c2.99-2.2781 5.9805-4.6987 8.8281-7.1191v-0.0312c8.1928-7.0014 15.563-14.605 21.355-22.607-0.42713-3.5595-0.99669-7.1185-1.4238-10.82-0.32167-0.29054-0.64317-0.58019-0.96484-0.87109 0.32432-0.46694 0.64583-0.93594 0.96484-1.4062-8.9699-8.258-17.938-16.375-26.908-24.633z" fill-opacity=".2" stroke-width="1.177"/>
 <g transform="matrix(1.4238 0 0 1.4238 33.872 33.676)" stroke-width=".82667">
  <path d="m61 20.9c-6.2-5.6-12.4-11.3-18.6-16.9-9.1 13.8-24.5 26.1-39.1 35-0.4 1.9-0.8 3.7-1.3 5.5 6.4 5.8 12.8 11.7 19.2 17.5 15.1-8.3 31.1-20.1 40.8-33.5-0.3-2.5-0.7-5-1-7.6" fill="#699635"/>
  <path d="m22.4 54.6c-6.3-5.8-12.6-11.6-18.9-17.3 15.7-8.9 28.9-21 38.6-35.3 6.3 5.8 12.6 11.5 18.9 17.3-9.7 14.3-22.9 26.4-38.6 35.3" fill="#83bf4f"/>
  <g fill="#699635">
   <path d="m20.8 50.8c-4.2-3.8-8.4-7.7-12.6-11.5 0.3-0.2 0.5-0.3 0.8-0.5 0.8-0.5 1-1.4 0.3-2.1l-0.6-0.6c12.7-7.8 23.7-17.8 32.3-29.4l0.6 0.6c0.7 0.6 1.7 0.5 2.3-0.2 0.2-0.2 0.3-0.5 0.5-0.7 4.2 3.8 8.4 7.7 12.6 11.5-0.2 0.2-0.3 0.5-0.5 0.7-0.6 0.8-0.5 1.9 0.2 2.6l0.6 0.6c-8.6 11.5-19.6 21.5-32.3 29.3l-0.6-0.6c-0.7-0.6-1.9-0.7-2.8-0.2-0.3 0.2-0.5 0.3-0.8 0.5m-9.9-11.4c3.4 3.1 6.8 6.2 10.3 9.4 1.3-0.4 2.8-0.3 4 0.3 11.6-7.4 21.7-16.6 29.8-27.3-0.7-1.1-0.8-2.5-0.3-3.7-3.4-3.1-6.8-6.2-10.3-9.4-0.9 0.8-2.2 0.9-3.3 0.3-8.1 10.8-18.2 20-29.8 27.4 0.6 1 0.5 2.2-0.4 3"/>
   <path d="m20 37.3c1.1-0.4 2.3-0.3 3.1 0.4-0.5 0.4-1.1 0.8-1.6 1.2-0.2-0.2-0.7-0.2-0.9 0-0.3 0.2-0.4 0.5-0.1 0.7 0.2 0.2 0.7 0.2 1 0 1.2-0.8 2.9-0.9 3.8 0 0.7 0.7 0.8 1.7 0.1 2.5 0.2 0.2 0.4 0.3 0.6 0.5-0.5 0.3-1 0.7-1.5 1-0.2-0.2-0.4-0.4-0.6-0.5-1.1 0.3-2.3 0.2-3-0.5 0.6-0.4 1.1-0.7 1.7-1.1 0.2 0.2 0.7 0.2 1 0s0.3-0.5 0.1-0.7-0.6-0.2-0.9 0c-0.7 0.5-1.6 0.7-2.4 0.6-0.6-0.1-1.1-0.3-1.5-0.6-0.7-0.7-0.7-1.6-0.1-2.4-0.2-0.1-0.3-0.3-0.5-0.5 0.5-0.3 1-0.7 1.5-1-0.1 0.1 0.1 0.2 0.2 0.4"/>
   <path d="m43.2 15.9c0.9-0.6 2-0.6 2.7 0.1l-1.2 1.5c-0.2-0.2-0.6-0.2-0.8 0.1s-0.2 0.7 0 0.9 0.6 0.2 0.8-0.1c0.9-1.1 2.4-1.3 3.3-0.5 0.7 0.7 0.9 1.8 0.5 2.8 0.2 0.2 0.4 0.3 0.6 0.5-0.4 0.5-0.7 0.9-1.1 1.4-0.2-0.2-0.4-0.4-0.6-0.5-0.9 0.5-1.9 0.5-2.6-0.2 0.4-0.5 0.9-1 1.3-1.5 0.2 0.2 0.6 0.2 0.8-0.1s0.2-0.7 0-0.9-0.6-0.2-0.8 0.1c-0.5 0.6-1.3 1-2 1-0.5 0-1-0.2-1.4-0.5-0.7-0.7-0.9-1.7-0.5-2.7-0.2-0.1-0.3-0.3-0.5-0.5 0.4-0.4 0.8-0.9 1.1-1.4 0 0.2 0.2 0.3 0.4 0.5"/>
   <path d="m40.2 35.5c-3.2 2.9-8.6 2.8-11.7 0-3.1-2.9-2.9-7.4 0.3-10.3s8.2-3.2 11.3-0.3c3.2 2.8 3.3 7.7 0.1 10.6"/>
  </g>
  <path d="m21.8 24.5 18.9 17.3c2.2-1.8 4.2-3.7 6.2-5.7l-18.8-17.3c-2 1.9-4.1 3.8-6.3 5.7" fill="#ffdd7d"/>
  <path d="m40.8 49.4c2.1-1.6 4.2-3.3 6.2-5v-8.4c-2 2-4.1 3.9-6.2 5.7v7.7" fill="#dbb471"/>
 </g>
</svg>
