<?xml version="1.0" encoding="UTF-8"?>
<svg version="1.1" viewBox="0 0 128 128" xmlns="http://www.w3.org/2000/svg">
 <path d="m128 64c0 35.346-28.654 64-64 64-35.346 0-64-28.654-64-64 0-35.346 28.654-64 64-64 35.346 0 64 28.654 64 64" fill="#529add" stroke-width=".2"/>
 <path d="m69.959 23.473c-6.0271 0-10.915 4.8871-10.915 10.915 0 6.0282 4.8882 10.913 10.915 10.913 6.0282 0 10.915-4.8851 10.915-10.913 0-6.0282-4.8871-10.915-10.915-10.915zm-11.419 25.799c-11.044 4.1304-19.559 11.148-19.655 22.823 0 2.9888 2.4223 5.4091 5.4111 5.4091 2.9894 0 5.4124-2.4206 5.4131-5.4091 0.08972-2.9838 1.3548-5.5169 3.2039-7.5411 0.05809 2.6584 0.48224 5.6427 1.3969 8.9538-0.56326 0.93772-0.79847 2.349-0.57658 4.4125-1.9096 10.989-14.025 18.139-21.835 21.686-2.7318 1.2137-3.9636 4.4132-2.7501 7.1448 1.2146 2.7316 4.4132 3.9638 7.1448 2.7501 10.364-5.3977 23.546-14.104 27.341-25.536 8.6094 4.0136 16.666 13.031 18.118 21.353 0.42196 2.9591 3.1653 5.0128 6.1244 4.5908 2.9591-0.42281 5.0156-3.1613 4.5928-6.1204-2.2447-13.356-11.467-23.24-22.97-29.031-3.332-1.4313-3.5957-9.2088-3.4079-12.013 10.092 5.7293 20.439 8.2877 30.677 3.2633 2.674-1.3362 3.7555-4.5884 2.4192-7.2617-1.3371-2.6731-4.5844-3.7563-7.2577-2.4192-12.035 5.9497-19.53-3.1614-25.863-6.8496-2.2652-1.5869-5.2763-1.5916-7.5272-0.20606z" fill-opacity=".2" style="paint-order:stroke fill markers"/>
 <path d="m70.314 19.51c-6.0271 0-10.915 4.8871-10.915 10.915 0 6.0282 4.8882 10.913 10.915 10.913 6.0282 0 10.915-4.8851 10.915-10.913 0-6.0282-4.8871-10.915-10.915-10.915zm-11.419 25.799c-11.044 4.1304-19.559 11.148-19.655 22.823 0 2.9888 2.4223 5.4091 5.4111 5.4091 2.9894 0 5.4124-2.4206 5.4131-5.4091 0.08972-2.9838 1.3548-5.5169 3.2039-7.5411 0.05809 2.6584 0.48224 5.6427 1.3969 8.9538-0.56326 0.93772-0.79847 2.349-0.57658 4.4125-1.9096 10.989-14.025 18.139-21.835 21.686-2.7318 1.2137-3.9636 4.4132-2.7501 7.1448 1.2146 2.7316 4.4132 3.9638 7.1448 2.7501 10.364-5.3977 23.546-14.104 27.341-25.536 8.6094 4.0136 16.666 13.031 18.118 21.353 0.42196 2.9591 3.1653 5.0128 6.1244 4.5908 2.9591-0.42281 5.0156-3.1613 4.5928-6.1204-2.2447-13.356-11.467-23.24-22.97-29.031-3.332-1.4313-3.5957-9.2088-3.4079-12.013 10.092 5.7293 20.439 8.2877 30.677 3.2633 2.674-1.3362 3.7555-4.5884 2.4192-7.2617-1.3371-2.6731-4.5844-3.7563-7.2577-2.4192-12.035 5.9497-19.53-3.1614-25.863-6.8496-2.2652-1.5869-5.2763-1.5916-7.5272-0.20606z" fill="#fff" style="paint-order:stroke fill markers"/>
</svg>
