<?xml version="1.0" encoding="utf-8"?>
<!-- Uploaded to: SVG Repo, www.svgrepo.com, Generator: SVG Repo Mixer Tools -->
<svg width="800px" height="800px" viewBox="0 0 1024 1024" class="icon"  version="1.1" xmlns="http://www.w3.org/2000/svg"><path d="M812.739059 365.607418v607.891105H204.815985v-607.891105h607.923074z m-113.777778 370.521058v-122.95289h-129.954107v-129.954107h-122.984858v129.954107h-129.954107v122.95289h129.954107v129.986076h122.984858v-129.986076h129.954107z" fill="#42BC90" /><path d="M812.739059 365.19182H204.815985l134.941275-122.153663h338.040523z" fill="#FFB578" /><path d="M698.961281 613.175586v122.95289h-129.954107v129.986076h-122.984858v-129.986076h-129.954107v-122.95289h129.954107v-129.954107h122.984858v129.954107z" fill="#FF4893" /><path d="M339.75726 58.35307h338.040523v122.153664h-338.040523z" fill="#FFB578" /><path d="M812.742256 995.880041H204.815985a22.378321 22.378321 0 0 1-22.378321-22.378321v-607.891105a22.378321 22.378321 0 0 1 22.378321-22.378321h607.923074a22.378321 22.378321 0 0 1 22.378321 22.378321v607.891105a22.371927 22.371927 0 0 1-22.375124 22.378321z m-585.54795-44.756642h563.166432v-563.134463H227.194306v563.134463z" fill="#4F46A3" /><path d="M812.742256 387.570141H204.815985a22.378321 22.378321 0 0 1-15.019051-38.970247l134.941276-122.153664a22.365533 22.365533 0 0 1 15.01905-5.789591h338.040523a22.378321 22.378321 0 0 1 15.019051 5.789591l134.941275 122.153664a22.378321 22.378321 0 0 1-15.015853 38.970247z m-549.857725-44.756642h491.789179l-85.497974-77.397021H348.382504l-85.497973 77.397021zM677.80098 202.885055h-338.040523a22.378321 22.378321 0 0 1-22.378321-22.378321v-122.153664a22.378321 22.378321 0 0 1 22.378321-22.378321h338.040523a22.378321 22.378321 0 0 1 22.378321 22.378321v122.153664a22.378321 22.378321 0 0 1-22.378321 22.378321z m-315.665399-44.756642h293.283881v-77.397022h-293.283881v77.397022zM569.007174 888.496069h-122.984858a22.378321 22.378321 0 0 1-22.378321-22.378321v-107.607755h-107.575786a22.378321 22.378321 0 0 1-22.378321-22.378321v-122.952889a22.378321 22.378321 0 0 1 22.378321-22.378321h107.575786v-107.575786a22.378321 22.378321 0 0 1 22.378321-22.378321h122.984858a22.378321 22.378321 0 0 1 22.378321 22.378321v107.575786h107.575786a22.378321 22.378321 0 0 1 22.378321 22.378321v122.952889a22.378321 22.378321 0 0 1-22.378321 22.378321h-107.575786v107.607755a22.378321 22.378321 0 0 1-22.378321 22.378321z m-100.60334-44.756642h78.228216v-107.607755a22.378321 22.378321 0 0 1 22.378321-22.378321h107.575786v-78.196247h-107.575786a22.378321 22.378321 0 0 1-22.378321-22.378321v-107.575786h-78.228216v107.575786a22.378321 22.378321 0 0 1-22.378321 22.378321h-107.575786v78.196247h107.575786a22.378321 22.378321 0 0 1 22.378321 22.378321v107.607755z" fill="#4F46A3" /></svg>