<?xml version="1.0" encoding="UTF-8"?>
<svg version="1.1" viewBox="0 0 128 128" xmlns="http://www.w3.org/2000/svg">
<path d="m128 64c0 35.346-28.654 64-64 64s-64-28.654-64-64 28.654-64 64-64 64 28.654 64 64" fill="#9bbe55"/>
<path d="m32 52v8h16l-10.4 16h-19.6c-2.216 0-4 1.784-4 4s1.784 4 4 4h14.4l-10.4 16h10l10.4-16h43.199l10.4 16h10l-10.4-16h14.4c2.216 0 4-1.784 4-4s-1.784-4-4-4h-19.6l-10.4-16h16v-8zm26 8h12l10.4 16h-32.801z" fill-opacity=".2"/>
<path d="m58 56-26 40h-10l26-40z" fill="#896847"/>
<path d="m70 56 26 40h10l-26-40z" fill="#896847"/>
<rect x="32" y="48" width="64" height="4" fill="#ae8862"/>
<rect x="14" y="72" width="100" height="8" ry="4" fill="#ae8862"/>
<path d="m24 42.08 40-16 40 16" fill="none" stroke="#000" stroke-linecap="square" stroke-opacity=".2" stroke-width="11.2"/>
<path d="m24 38.08 40-16 40 16" fill="none" stroke="#c84747" stroke-linecap="square" stroke-width="11.2"/>
<path d="m14 76c0 2.216 1.784 4 4 4h92c2.216 0 4-1.784 4-4z" fill="#896847"/>
<rect x="32" y="52" width="64" height="4" fill="#896847"/>
</svg>
