<svg enable-background="new 0 0 128 128" version="1.1" viewBox="0 0 128 128" xml:space="preserve" xmlns="http://www.w3.org/2000/svg">
<style type="text/css">
	.st0{fill:#C8C4B7;}
	.st1{fill-opacity:0.2;}
	.st2{fill:#495AAD;}
	.st3{fill:#FFFFFF;}
</style>
<path class="st0" d="M128,64c0,35.3-28.7,64-64,64S0,99.3,0,64S28.7,0,64,0S128,28.7,128,64"/><g transform="matrix(.621 0 0 .621 40.7 4.65)"><path d="m48 93.4v8l10 4h12l10-4v-8z" fill-opacity=".2" stroke-width=".2"/><path d="m6.12 36.7c-3.92 8.29-6.12 17.5-6.12 27.3 0 15.6 5.63 30 15 41.1l37-17.1h24l37 17.1c9.33-11.1 15-25.4 15-41.1 0-9.78-2.2-19-6.12-27.3l-29.9 3.32h-56z" fill="#ffffdf" fill-opacity=".533" stroke-width=".2"/><g stroke="#c1a551" stroke-width="4"><path d="m40 40 8 48h32l8-48z" fill="#ffffdf" fill-rule="evenodd"/><path d="m52 40 4 48" fill="none"/><path d="m76 40-4 48" fill="none"/></g><path d="m64 12c-12 4-20 20-32 20v8h64v-8c-12 0-20-16-32-20zm-16 76v8l10 4v76c1.98 0.184 3.98 0.289 6 0.289s4.02-0.105 6-0.289v-76l10-4v-8z" fill="#555" fill-rule="evenodd"/></g><g transform="matrix(.661 0 0 .661 .612 39.6)" enable-background="new 0 0 128 128"><path class="st1" d="m63.9 23.2h0.1c24.3 0 43.9 19.7 43.9 43.9 0 24.3-19.7 43.9-43.9 43.9h-0.1c-24.2 0.1-43.9-19.6-43.9-43.8 0-24.3 19.7-44 43.9-44z"/><circle class="st2" cx="64.5" cy="62" r="44"/><path class="st3" d="m71 44v28c0 1.7 1.2 2.1 2.6 2.1h2.4v6h-20v-6h2.7c1.3 0 2.3-0.6 2.3-2.1v-18c0 2-8 2-8 2v-6c4 0 9-2 9-6z"/></g>



</svg>
