<?xml version="1.0" encoding="UTF-8"?>
<svg version="1.1" viewBox="0 0 128 128" xmlns="http://www.w3.org/2000/svg">
 <path d="m128 64c0 35.346-28.654 64-64 64s-64-28.654-64-64 28.654-64 64-64 64 28.654 64 64" fill="#9bbe55" stroke-width=".2"/>
 <g transform="matrix(-1.0272 0 0 1.0272 1572.5 -1317.9)">
  <path d="m1470.4 1301a11.11 11.11 0 0 1 11.11 11.11 11.11 11.11 0 0 1-11.11 11.11 11.11 11.11 0 0 1-11.11-11.11 11.11 11.11 0 0 1 11.11-11.11zm-15.051 22.858c2.6985 0.014 5.3155 0.2485 8.115 0.2187l5.1489 2.7227c6.4278 9.6417 17.996 11.477 17.996 11.477a6.1136 6.1136 0 1 1-1.7265 12.104s-8.4312-1.2134-16.804-7.1606l-2.3101 9.2444a8.559 8.559 0 0 1-0.386 1.2321c0.3833 1.2273 0.7989 2.5771 1.2339 4.0689 1.8259 6.2602 3.9415 14.683 5.0063 24.267a6.1136 6.1136 0 1 1-12.152 1.3501c-0.9551-8.5959-2.8789-16.333-4.5879-22.193-0.1158-0.3968-0.1947-0.6096-0.3081-0.9887-1.2438 0.8771-2.5082 1.8994-3.6696 2.563-4.0793 2.331-7.6644 3.5232-7.6644 3.5232a6.1136 6.1136 0 0 1-4.9682-0.4924l-14.138-8.0808a6.1136 6.1136 0 1 1 6.0672-10.612l11.437 6.5368c1.0041-0.4075 1.4485-0.4859 3.2001-1.4868 1.4391-0.8224 2.889-1.8523 4.1354-2.9434a8.559 8.559 0 0 1 0.1921-0.8955l3.0099-12.039c-0.01 0-0.025 7e-4 -0.034 0-1.996 0.2964-1.9903 0-3.3464 2.7075a6.1138 6.1138 0 1 1-10.937-5.4682c2.6839-5.368 7.8603-8.6484 12.488-9.3358 1.7353-0.2578 3.3832-0.3292 5.0024-0.3213zm47.319 39.181a11.368 11.368 0 0 1 11.368 11.368 11.368 11.368 0 0 1-11.368 11.366 11.368 11.368 0 0 1-11.366-11.366 11.368 11.368 0 0 1 11.366-11.368z" fill-opacity=".2" style="paint-order:stroke fill markers"/>
  <path transform="matrix(-.9735 0 0 .9735 2901.5 161.54)" d="m1470.1 1166.4a11.412 11.412 0 0 0-11.412 11.412 11.412 11.412 0 0 0 11.412 11.412 11.412 11.412 0 0 0 11.412-11.412 11.412 11.412 0 0 0-11.412-11.412zm15.461 23.48c-2.772 0.014-5.4602 0.2552-8.336 0.2246l-5.289 2.7969c-6.6028 9.9042-18.486 11.789-18.486 11.789a6.28 6.28 0 1 0 1.7735 12.434s8.6608-1.2464 17.262-7.3555l2.373 9.4961a8.7921 8.7921 0 0 0 0.3965 1.2656c-0.3937 1.2607-0.8206 2.6473-1.2675 4.1797-1.8756 6.4306-4.0488 15.083-5.1426 24.928a6.28 6.28 0 1 0 12.482 1.3868c0.9811-8.8299 2.9573-16.778 4.7129-22.797 0.1189-0.4076 0.2-0.6262 0.3164-1.0156 1.2777 0.901 2.5765 1.9511 3.7695 2.6328 4.1904 2.3944 7.8731 3.6191 7.8731 3.6191a6.28 6.28 0 0 0 5.1035-0.5058l14.523-8.3008a6.28 6.28 0 1 0-6.2324-10.9l-11.748 6.7148c-1.0314-0.4186-1.4879-0.4992-3.2872-1.5273-1.4783-0.8448-2.9676-1.9027-4.248-3.0235a8.7921 8.7921 0 0 0-0.1973-0.9199l-3.0918-12.367c0.01 0 0.026 7e-4 0.035 0 2.0503 0.3045 2.0445 0 3.4375 2.7812a6.2802 6.2802 0 1 0 11.234-5.6171c-2.7569-5.5141-8.0743-8.8838-12.828-9.5899-1.7826-0.2648-3.4754-0.3382-5.1386-0.3301zm-48.607 40.248a11.677 11.677 0 0 0-11.678 11.678 11.677 11.677 0 0 0 11.678 11.676 11.677 11.677 0 0 0 11.676-11.676 11.677 11.677 0 0 0-11.676-11.678z" fill="#fff" style="paint-order:stroke fill markers"/>
 </g>
</svg>
