<?xml version="1.0" encoding="UTF-8"?>
<svg version="1.1" viewBox="0 0 128 128" xmlns="http://www.w3.org/2000/svg">
 <path d="m119.42 95.994c-17.67 30.605-56.806 41.092-87.411 23.422s-41.092-56.806-23.422-87.411 56.806-41.092 87.411-23.422 41.092 56.806 23.422 87.411" fill="#9bbe55"/>
 <path d="m63.348 15.121c-13.606 0-24.559 2.1546-24.559 4.8301v2.0977c-0.56528 0.55861-0.98047 2.409-0.98047 4.6406v7.625c0 2.0324 0.34383 3.7578 0.83203 4.4727h-1.0762c-1.2901 0-2.3281 1.5859-2.3281 3.5566s1.038 3.5566 2.3281 3.5566h0.21094c-0.76714 2.6209-1.1816 5.4117-1.1816 8.3125 0 15.405 11.669 27.734 25.965 27.734s25.965-12.329 25.965-27.734c0-2.9008-0.41451-5.6916-1.1816-8.3125h1.3145c1.2901 0 2.3301-1.5859 2.3301-3.5566s-1.04-3.5566-2.3301-3.5566h-0.65625c0.4882-0.71489 0.83203-2.4403 0.83203-4.4727v-7.625c0-2.1553-0.3882-3.9512-0.92383-4.5762v-2.1621c0-2.6754-10.955-4.8301-24.561-4.8301zm16.652 64.879c-10.516 7.2122-23.393 7.5714-33.344 1.0977-7.9562 5.0957-13.132 13.54-13.133 23.057 4.8e-4 1.7777 0.27831 3.5398 0.64453 5.2852 19.959 10.239 43.21 8.1336 60.742-3.8711 0.0262-0.47058 0.06611-0.94084 0.06641-1.4121 3.67e-4 -10.235-5.9827-19.235-14.977-24.156z" fill-opacity=".2"/>
 <path d="m62.377 22.496c-14.295 0-25.965 12.329-25.965 27.734s11.669 27.734 25.965 27.734 25.965-12.329 25.965-27.734-11.669-27.734-25.965-27.734zm17.441 53.521c-4.9083 3.7351-10.924 5.9473-17.441 5.9473-5.8509 0-11.298-1.7839-15.902-4.8496-7.9562 5.0957-13.132 13.54-13.133 23.057 4.8e-4 1.7777 0.27831 3.5398 0.64453 5.2852 19.959 10.239 43.21 8.1336 60.742-3.8711 0.0262-0.47058 0.0661-0.94084 0.0664-1.4121 3.7e-4 -10.235-5.9827-19.235-14.977-24.156z" color="#fff" fill="#fff"/>
 <path d="m62.873 11.088c-13.606 0-24.559 2.1546-24.559 4.8301v2.0977c-0.56528 0.55861-0.98047 2.409-0.98047 4.6406v7.625c0 2.0324 0.34383 3.7578 0.83203 4.4727h-1.0762c-1.2901 0-2.3281 1.5859-2.3281 3.5566s1.038 3.5566 2.3281 3.5566h3.4473a24.126 11.25 0 0 0 22.383 7.0508 24.126 11.25 0 0 0 22.383-7.0508h2.8789c1.2901 0 2.3301-1.5859 2.3301-3.5566s-1.04-3.5566-2.3301-3.5566h-0.65625c0.4882-0.71489 0.83203-2.4403 0.83203-4.4727v-7.625c0-2.1553-0.3882-3.9512-0.92383-4.5762v-2.1621c0-2.6754-10.955-4.8301-24.561-4.8301z" fill="#4357ba"/>
 <path d="m36.367 36.301h52.283c-0.65442-8.4779-12.165-15.147-26.142-15.147-13.977 3.25e-4 -25.487 6.6694-26.141 15.147z" fill="#2c3c85"/>
 <ellipse cx="62.76" cy="27.886" rx="8.249" ry="6.6754" fill="#fd5"/>
</svg>
