<?xml version="1.0" encoding="UTF-8"?>
<svg version="1.1" viewBox="0 0 128 128" xml:space="preserve" xmlns="http://www.w3.org/2000/svg"><circle cx="64" cy="64" r="64" fill="#9bbe55" stroke-opacity=".2" stroke-width="12"/><path d="m105.46 73.865c0.9683-4.1978 0.64643-8.6882-1.2184-13.157-1.8036-4.3228-4.9134-7.7412-8.7015-10.037 0.84593-3.1709 0.62248-6.584-0.86191-9.9757-2.2372-5.1076-7.0761-8.5153-12.535-9.4756 0.66238-1.5216 0.8752-3.429 0.09571-5.7646-2.6602-7.9806-13.301-2.6602-21.282-13.298-6.4909 3.8945-7.9008 9.6831-7.656 14.596-6.4403 1.096-10.109 2.4899-10.109 2.4899v0.0054c-3.6179 1.4631-6.177 5.0091-6.177 9.1564 0 2.3383 0.84594 4.4585 2.2026 6.1504-6.2044 0.09728-12.412 9.4617-12.412 15.163 0 2.7852 0.79806 5.3922 2.1814 7.656-7.5097 3.3758-12.753 10.702-12.753 19.265 0 33.96 95.767 33.073 95.767 1.7744 0-5.7886-2.5352-10.973-6.5414-14.549z" fill-opacity=".33"/><path d="m105.46 69.708c0.9683-4.1978 0.64643-8.6882-1.2184-13.157-1.8036-4.3228-4.9134-7.7412-8.7015-10.037 0.84593-3.1709 0.62248-6.584-0.86191-9.9757-2.2372-5.1076-7.0761-8.5153-12.535-9.4756 0.66239-1.5216 0.87521-3.429 0.09574-5.7646-2.6602-7.9806-13.301-2.6602-21.282-13.298-6.4909 3.8945-7.9008 9.6831-7.656 14.596-6.4403 1.096-10.109 2.4899-10.109 2.4899v0.0054c-3.6179 1.4631-6.177 5.0091-6.177 9.1564 0 2.3383 0.84594 4.4585 2.2026 6.1504-6.2044 0.09727-12.412 9.4617-12.412 15.163 0 2.7852 0.79806 5.3922 2.1814 7.656-7.5097 3.3758-12.753 10.702-12.753 19.265 0 33.96 95.767 33.073 95.767 1.7743 0-5.7886-2.5352-10.973-6.5414-14.549z" fill="#a65945"/><ellipse cx="58" cy="54" rx="10" ry="10" fill="#f5f8fa"/><ellipse cx="82" cy="54" rx="10" ry="10" fill="#f5f8fa"/><g fill="#292f33"><circle cx="55" cy="51" r="5"/><circle cx="79" cy="51" r="5"/><path d="m50.748 74.026c-0.5569-1.1161 0.03522-2.2897 1.2519-2.0261 12.138 2.6295 24.138 2.6295 36 0 1.2156-0.26947 1.8088 0.91005 1.2519 2.0261 0 0-2.9262 13.974-18.773 13.974s-19.731-13.974-19.731-13.974z"/></g></svg>
