<svg xmlns="http://www.w3.org/2000/svg" viewBox="0 0 128 128"><path fill="#ca72e2" d="M119.42 95.995c-17.67 30.605-56.806 41.092-87.411 23.422S-9.083 62.611 8.587 32.006 65.393-9.086 95.998 8.584 137.09 65.39 119.42 95.995"/><path fill-opacity=".27" d="M97.84 44.213H67.071V29.991a6 6 0 0 0 2.585-2.726l31.262-3.793c1.699 0 3.076-1.326 3.076-2.963s-1.377-2.963-3.076-2.963l-32.123 3.852c-1.136-1.46-2.907-2.333-4.8-2.37-2.485.011-4.718 1.461-5.662 3.674l-31.262 3.733c-1.699 0-3.077 1.327-3.077 2.963s1.378 2.963 3.077 2.963l32.123-3.852a6.1 6.1 0 0 0 1.723 1.482v14.222H30.148c-3.399 0-6.154 2.653-6.154 5.926v41.48c0 3.274 2.756 5.927 6.154 5.927H97.84c3.399 0 6.154-2.653 6.154-5.926V50.139c0-3.273-2.755-5.926-6.154-5.926zM60.917 79.769H36.302V56.065h24.615zm30.769 0H67.071V56.065h24.615z"/><path fill="gray" d="M97.84 41.211H67.071V26.989a6 6 0 0 0 2.585-2.726l31.262-3.793c1.699 0 3.076-1.326 3.076-2.963s-1.377-2.963-3.076-2.963l-32.123 3.852c-1.136-1.46-2.907-2.333-4.8-2.37-2.485.011-4.718 1.461-5.662 3.674l-31.262 3.733c-1.699 0-3.077 1.327-3.077 2.963s1.378 2.963 3.077 2.963l32.123-3.852a6.1 6.1 0 0 0 1.723 1.482v14.222H30.148c-3.399 0-6.154 2.653-6.154 5.926v41.48c0 3.274 2.756 5.927 6.154 5.927H97.84c3.399 0 6.154-2.653 6.154-5.926V47.137c0-3.273-2.755-5.926-6.154-5.926zM60.917 76.767H36.302V53.063h24.615zm30.769 0H67.071V53.063h24.615z"/><path fill="none" stroke="#000" stroke-linecap="round" stroke-linejoin="round" stroke-opacity=".2" stroke-width="8" d="M52.325 76.111a19.107 19.107 0 0 1-19.107 19.107 19.107 19.107 0 0 1-19.107-19.107 19.107 19.107 0 0 1 19.107-19.107 19.107 19.107 0 0 1 19.107 19.107m62.265-.003a19.107 19.107 0 0 1-19.107 19.106 19.107 19.107 0 0 1-19.107-19.106A19.107 19.107 0 0 1 95.483 57a19.107 19.107 0 0 1 19.107 19.107M43.841 46.679 67.99 76.004h27.599L76.615 46.679H43.842m32.773-6.9 8.407-.016M67.99 76.003l8.624-36.223M33.492 76.003 47.87 33.199h13.8" transform="matrix(.49668 0 0 .49441 50.978 63.764)"/><g fill="none" stroke-linecap="round" stroke-linejoin="round"><path stroke="#555" stroke-width="3.9879688" d="M77.02 99.966a9.51 9.54 0 0 1-9.51 9.54 9.51 9.54 0 0 1-9.51-9.54 9.51 9.54 0 0 1 9.51-9.54 9.51 9.54 0 0 1 9.51 9.54"/><path stroke="#e72727" stroke-width="2.9909766" d="m84.8 99.915 4.292-18.086"/><path fill="#28220b" stroke="#555" stroke-width="2.9909766" d="m86.714 81.7 6.56.12"/><path stroke="#555" stroke-width="3.9879688" d="M108 99.966a9.51 9.54 0 0 1-9.51 9.54 9.51 9.54 0 0 1-9.51-9.54 9.51 9.54 0 0 1 9.51-9.54 9.51 9.54 0 0 1 9.51 9.54"/><path stroke="#e72929" stroke-width="2.9909766" d="m72.794 85.27 12.02 14.642H98.55L89.106 85.27z"/><path stroke="#e72727" stroke-width="2.9909766" d="m67.637 99.915 7.155-21.372 6.457-.047"/></g></svg>