<?xml version="1.0" encoding="UTF-8"?>
<svg version="1.1" viewBox="0 0 128 128" xmlns="http://www.w3.org/2000/svg">
 <path d="m128 64c0 35.346-28.654 64-64 64s-64-28.654-64-64 28.654-64 64-64 64 28.654 64 64" fill="#9bbe55" stroke-width=".2"/>
 <g transform="matrix(2.8749 0 0 -2.8749 10.571 119.08)" stroke-width=".43479">
  <path d="m22.562 33.07-6.0796-0.02582c-0.95859 0.01952-1.6116-0.52923-1.9654-1.0347-0.01795-0.02565-0.06998-0.10678-0.12706-0.1943l-0.0034-0.0054c-0.10581-0.16236-0.23371-0.35802-0.23371-0.35802s0.01774 0.01063 0.01903 0.01155l-2.5768-4.1652c-0.18091-0.27577-0.20759-0.61189-0.06658-0.88589 0.06738-0.13301 0.26508-0.37078 0.3981-0.45857l4.3669-2.7079c0.40968-0.26868 0.92631-0.11232 1.195 0.29824l1.3526 2.1869 1.3696-2.6876-1.5802-0.80504c-0.31834-0.16316-0.51006-0.50204-0.48168-0.85939 0.0099-0.11971 0.04233-0.23248 0.09374-0.33357 0.10557-0.20572 0.28825-0.36663 0.51698-0.44022l7.1564-2.3255c0.4655-0.15163 0.96635 0.10378 1.1162 0.5693l2.3255 7.1571c0.07447 0.22789 0.05096 0.47045-0.05367 0.67528-0.05231 0.10197-0.12379 0.19616-0.21333 0.27242-0.27402 0.2341-0.65883 0.27865-0.97894 0.11549l-1.5802-0.80504-3.2209 6.3208c-0.15336 0.29971-0.46046 0.48506-0.74864 0.48506zm-9.3079-10.288c-0.05885-0.0025-0.11858-0.01047-0.17799-0.02513l-7.3113-1.7779c-0.23322-0.05852-0.42696-0.20423-0.54759-0.40286-0.059375-0.09754-0.10091-0.20544-0.11955-0.32338-0.054958-0.3538 0.11054-0.70673 0.41646-0.89472l1.515-0.92121-3.6869-6.0599c-0.17468-0.2873-0.17301-0.64726-0.020383-0.892l3.2141-5.1618c0.4877-0.82466 1.2973-1.0934 1.9144-1.1271 0.031235-0.00183 0.12759-0.00352 0.23096-0.00611 0.19566-0.0049 0.43549-0.01087 0.43549-0.01087s-0.018261 0.00959-0.019722 0.010192l4.8969-0.00611c0.32985-0.00975 0.62979 0.14562 0.78941 0.40897 0.07715 0.12592 0.17562 0.41988 0.18004 0.5795l0.01221 5.1387c0.01242 0.48947-0.39211 0.84704-0.88249 0.86211l-2.5707 0.0014 1.5673 2.5761 1.515-0.92189c0.30682-0.18621 0.69532-0.17028 0.9844 0.04076 0.09576 0.07094 0.17451 0.15878 0.23301 0.25544 0.12059 0.19774 0.16139 0.43711 0.10463 0.67121l-1.7792 7.3106c-0.10164 0.41743-0.48157 0.69218-0.89337 0.67596zm17.167-4.3432c-0.14894 0-0.44999-0.06829-0.58832-0.1481l-4.3968-2.6604c-0.42474-0.24296-0.52036-0.7748-0.27649-1.2004l1.3349-2.1984h-3.0171v1.7738c0 0.35824-0.21524 0.68275-0.54686 0.81931-0.10988 0.04611-0.22529 0.06726-0.33969 0.06726-0.23051 0-0.45764-0.09083-0.62704-0.2602l-5.3208-5.3201c-0.34672-0.34671-0.34672-0.90739 0-1.2541l5.3208-5.3201c0.16939-0.16937 0.39653-0.2602 0.62704-0.2602 0.1144 0 0.22974 0.021837 0.33969 0.067939 0.33162 0.13656 0.54686 0.46107 0.54686 0.81931v1.7731h7.0939c0.33608 0 0.64252 0.18939 0.77108 0.44566l2.7392 5.4295c0.45222 0.84505 0.26018 1.6764-0.02991 2.2208-0.01471 0.02765-0.06369 0.1099-0.11548 0.19973v0.0014l-0.01155 0.0197c-0.09461 0.16385-0.20585 0.35599-0.20585 0.35599s0.0012-0.01787 0.0014-0.01902l-2.5388 4.1855c-0.16404 0.28642-0.45163 0.46197-0.76022 0.46197z" fill-opacity=".2"/>
  <g>
   <path d="m29.608 9.2743c-0.30858 0-0.60741 0.1605-0.77057 0.44691l-3.7553 6.1849c-0.24385 0.42563-0.14808 0.95767 0.27666 1.2006l4.3964 2.6602c0.13833 0.07981 0.43982 0.14808 0.58879 0.14808 0.30858 0 0.59588-0.17557 0.75993-0.46198l2.7551-4.5418 0.14542-1.9792c0.24296-0.42474-0.84949-1.0499-1.2742-1.2929l-2.6832-2.2479c-0.13833-0.079806-0.28996-0.11705-0.43893-0.11705" fill="#ddd"/>
   <path d="m22.513 16.368c-0.23052 0-0.45772-0.09088-0.62711-0.26024l-5.3205-5.3199c-0.34671-0.34671-0.34671-0.9075 0-1.2542l5.3205-5.3205c0.16939-0.16937 0.39658-0.25964 0.62711-0.25964 0.1144 0 0.22981 0.021375 0.33977 0.06747 0.33163 0.13656 0.54698 0.46104 0.54698 0.81928v1.7735h7.094c0.3361 0 0.64253 0.18952 0.77108 0.44578l2.7392 5.4289c0.45222 0.84505 0.25986 1.6766-0.03023 2.2211-0.04253 0.0798-0.33252 0.57711-0.33252 0.57711s0.26575-1.5789-1.3747-1.5789h-8.8669v1.7735c0 0.35824-0.21535 0.68272-0.54698 0.81928-0.10986 0.04611-0.22528 0.06747-0.33968 0.06747z" fill="#fff"/>
   <path d="m21.265 32.064c0.1401-0.27489 0.13301-0.61362-0.04788-0.89028l-3.8058-6.1539c-0.26868-0.41056-0.78564-0.56662-1.1953-0.29794l-4.3671 2.7081c-0.13301 0.08779-0.33075 0.32543-0.39814 0.45844-0.14099 0.274-0.11439 0.61007 0.06651 0.88584l2.795 4.517 1.6972 1.0277c0.26868 0.41144 1.3212-0.27932 1.7318-0.548l3.2197-1.37c0.13478-0.0869 0.23676-0.20572 0.30415-0.33696" fill="#ddd"/>
   <path d="m22.485 34.546-6.0801-0.02591c-0.95858 0.01952-1.6113-0.5295-1.9651-1.0349-0.05145-0.0736-0.36386-0.55783-0.36386-0.55783s1.2871 0.95438 2.0319-0.50783l4.0259-7.9-1.5807-0.80542c-0.31833-0.16316-0.50969-0.50168-0.48131-0.85904 0.0099-0.11971 0.04253-0.23265 0.09395-0.33373 0.10555-0.20572 0.28811-0.36676 0.51687-0.44036l7.156-2.3253c0.46552-0.15163 0.96641 0.10374 1.1163 0.56928l2.3253 7.1572c0.07449 0.22789 0.05101 0.47047-0.05361 0.6753-0.05231 0.10198-0.12371 0.19603-0.21325 0.27229-0.27401 0.2341-0.65881 0.27822-0.97894 0.11506l-1.5801-0.80482-3.2211 6.3211c-0.15338 0.29971-0.46 0.48494-0.7482 0.48494z" fill="#fff"/>
   <path d="m5.9984 13.227c0.1605 0.26336 0.45223 0.4345 0.7821 0.42474l7.2357-0.0035c0.49036-0.01507 0.89471-0.37243 0.8823-0.8619l-0.012415-5.1386c-0.004433-0.15961-0.10286-0.45401-0.18001-0.57992-0.15961-0.26336-0.45932-0.41854-0.78919-0.40878l-5.3124 0.0070938-1.7673 0.90269c-0.48859 0.015074-0.45401 1.2725-0.44159 1.761l-0.52583 3.4618c0.00355 0.15872 0.050543 0.3077 0.12858 0.43538" fill="#ddd"/>
   <path d="m13.177 24.258c-0.05885-0.0025-0.11832-0.01006-0.17772-0.02471l-7.3114-1.7783c-0.23321-0.058525-0.427-0.20378-0.54759-0.40241-0.059404-0.097542-0.10064-0.20556-0.11927-0.32349-0.054963-0.3538 0.11036-0.70659 0.41626-0.89458l1.5151-0.92168-3.6867-6.0596c-0.1747-0.2873-0.173-0.64743-0.020357-0.89217l3.2138-5.1614c0.48769-0.82466 1.2973-1.0934 1.9144-1.1271 0.090463-0.0053 0.66628-0.016871 0.66628-0.016871s-1.4877 0.59414-0.63553 1.9952l4.6084 7.5753 1.5151-0.92168c0.3068-0.18621 0.69524-0.17008 0.98433 0.04096 0.09577 0.07094 0.1746 0.15877 0.23311 0.25542 0.1206 0.19774 0.16159 0.43698 0.10484 0.67108l-1.7795 7.3102c-0.10163 0.41743-0.48156 0.69212-0.89335 0.6759z" fill="#fff"/>
  </g>
 </g>
</svg>
