<?xml version="1.0" encoding="UTF-8"?>
<svg version="1.1" viewBox="0 0 128.03 128.03" xmlns="http://www.w3.org/2000/svg">
 <path d="m123.35 88.017c-13.255 32.767-50.563 48.584-83.33 35.33-32.767-13.255-48.584-50.563-35.33-83.33 13.255-32.767 50.563-48.584 83.33-35.33s48.584 50.563 35.33 83.33" fill="#c8c4b7" stroke-width=".2"/>
 <path d="m64.194 20.017-36 12-0.17677 68 36.177-12 35.823 12 0.17678-68z" fill-opacity=".2"/>
 <path d="m31.017 101.02 33-11 33 11v11h-24v-9h-18v9h-24z" fill-opacity=".2" fill-rule="evenodd"/>
 <path d="m28.017 28.017 36-12v68l-36 12z" fill="#c84747"/>
 <path d="m64.017 16.017 36 12v68l-36-12z" fill="#a33"/>
 <path d="m31.017 97.017 33.177-11 32.823 11v11h-24v-9h-18v9h-24z" fill="#fff" fill-rule="evenodd"/>
 <path d="m39.524 43.053c-1.8225 3.1207-3.0626 6.6161-3.5818 10.334-1.3513 9.6772 2.4144 19.233 9.6868 25.424l-4.3936 7.4516 19.027-1.3201-8.6483-16.282-3.8999 6.6135c-5.89-5.3128-8.8963-13.263-7.7697-21.329 1.3579-9.7238 8.434-17.658 17.94-20.112l-1.0104-3.9069c-6.924 1.7878-12.751 6.0786-16.534 11.813-0.28373 0.43006-0.55569 0.86888-0.81604 1.3147zm28.078-13.383 8.6483 16.282 3.8999-6.6135c5.89 5.3128 8.8963 13.263 7.7697 21.329-1.3579 9.7238-8.434 17.658-17.94 20.112l1.0104 3.9069c6.924-1.7878 12.751-6.0786 16.534-11.813 2.2698-3.4404 3.8045-7.3996 4.3978-11.649 1.3513-9.6772-2.4144-19.233-9.6868-25.424l4.3936-7.4516z" opacity=".2" stroke-width=".54353"/>
 <path d="m39.524 39.053c-1.8225 3.1207-3.0626 6.6161-3.5818 10.334-1.3513 9.6772 2.4144 19.233 9.6868 25.424l-4.3936 7.4516 19.027-1.3201-8.6483-16.282-3.8999 6.6135c-5.89-5.3128-8.8963-13.263-7.7697-21.329 1.3579-9.7238 8.434-17.658 17.94-20.112l-1.0104-3.9069c-6.924 1.7878-12.751 6.0786-16.534 11.813-0.28373 0.43006-0.55569 0.86888-0.81604 1.3147zm28.078-13.383 8.6483 16.282 3.8999-6.6135c5.89 5.3128 8.8963 13.263 7.7697 21.329-1.3579 9.7238-8.434 17.658-17.94 20.112l1.0104 3.9069c6.924-1.7878 12.751-6.0786 16.534-11.813 2.2698-3.4404 3.8045-7.3996 4.3978-11.649 1.3513-9.6772-2.4144-19.233-9.6868-25.424l4.3936-7.4516z" fill="#fff" stroke-width=".54353"/>
</svg>
