<svg width="128" height="128" viewBox="0 0 128 128" fill="none" xmlns="http://www.w3.org/2000/svg">
<mask id="mask0_8_150" style="mask-type:alpha" maskUnits="userSpaceOnUse" x="0" y="0" width="128" height="128">
<path d="M0 64C0 80.9739 6.74284 97.2525 18.7452 109.255C30.7475 121.257 47.0261 128 64 128C80.9739 128 97.2525 121.257 109.255 109.255C121.257 97.2525 128 80.9739 128 64C128 47.0261 121.257 30.7475 109.255 18.7452C97.2525 6.74284 80.9739 0 64 0C47.0261 0 30.7475 6.74284 18.7452 18.7452C6.74284 30.7475 0 47.0261 0 64Z" fill="#95C4F8"/>
</mask>
<g mask="url(#mask0_8_150)">
<path d="M-5.57758 0H164.046V133.49H-5.57758V0Z" fill="#95C4F8"/>
<path d="M144.101 133.49H-24.9085V94.811C-17.5869 91.0712 -12.0212 83.1527 -5.75314 76.9198C0.514919 70.6868 8.76698 65.8936 16.0709 69.6861C20.2145 71.8281 23.3398 76.4106 26.1665 80.9756C31.7674 90.0178 37.2629 100.026 45.4272 104.433C53.3632 100.447 60.2809 93.6522 67.62 87.9986C74.9591 82.3451 83.1936 77.6572 91.6388 78.5878C101.998 79.729 110.724 88.9994 118.256 98.4805L144.101 133.49Z" fill="#7E7E92"/>
<path d="M79.2431 63.8569C77.1713 60.3279 73.8354 57.5713 69.9727 56.2018C68.3223 55.6224 66.3032 55.3415 64.9513 56.4476C63.5993 57.5538 64.0734 60.3981 65.8291 60.363C60.4038 56.6057 53.89 54.4812 47.3059 54.3232C45.6555 54.2881 43.7944 54.4636 42.7409 55.7453C41.6875 57.027 42.5653 59.5553 44.1982 59.2569C39.2294 56.0614 32.6629 57.0446 27.0971 59.0286C25.4818 59.608 23.8841 60.2576 22.2863 60.8897C20.5306 61.592 21.0397 64.1905 22.936 64.1905L79.2431 63.8569Z" fill="white"/>
<path d="M162.29 3.12524V127.872H34.9629L40.5462 120.515L44.3913 118.303L59.2626 116.916L75.4156 107.786L77.4874 97.4622L84.1768 95.882L84.3875 77.6572L87.2318 74.8304L85.0196 68.0883L83.5096 63.4707L81.5432 57.5186L82.3859 53.1819L87.899 50.6185L89.6723 37.5557L86.073 32.3235L84.9142 25.7921L84.4226 23.018L87.2318 19.4362L85.7043 12.9224L92.6747 2.1069L162.29 3.12524Z" fill="#FFBE55"/>
<path d="M97.5381 37.5557L91.2174 50.6185L84.9142 59.1515L83.5096 63.4707L81.5432 57.5187L82.3859 53.1819L87.899 50.6185L89.6723 37.5557L86.073 32.3235L84.9142 25.7921L89.1807 30.8838H93.2541L97.5381 37.5557ZM88.0219 93.7048C88.0921 94.7056 89.5494 97.4622 89.5494 97.4622L81.5607 102.571L79.8928 113.036L72.7819 117.583L57.2084 119.234L47.5868 122.341L42.7409 127.872H34.9629L40.5462 120.515L44.3913 118.321L59.245 116.934L75.398 107.786L77.4874 97.4622L84.1768 95.882L84.3875 77.6572L87.2318 74.8304L85.0196 68.0883L94.5007 71.8281C94.5007 71.8456 87.9517 92.7041 88.0219 93.7048Z" fill="#E59520"/>
<path d="M121.627 63.4707L111.303 73.7945L115.798 93.7048L107.722 111.877L93.5701 113.036L81.5607 122.025L85.7043 127.872H79.2607L66.3032 122.482L84.3875 117.092L88.1624 107.786L90.8487 108.787L106.563 93.7048L101.19 72.3899L106.58 69.8441L116.904 55.9209C116.904 55.9209 117.571 26.1257 116.904 24.3348C116.237 22.5439 105.896 24.3348 105.896 24.3348L104.544 11.7636L101.945 5.56574H107.757L110.601 13.3438L123.629 18.5057L126.543 38.8198L121.627 63.4707ZM134.795 46.2116L126.578 52.6201L124.612 62.1714L129.704 58.3614L137.289 50.6185L134.795 46.2116ZM140.747 96.9354C137.85 97.4797 119.994 107.786 119.994 107.786L116.307 118.321L130.95 111.894C130.95 111.894 139.957 106.417 140.747 105.89C141.537 105.363 140.747 96.9354 140.747 96.9354Z" fill="#E59520"/>
<path d="M74.766 98.9545L73.2911 99.9553L74.766 101.044L75.679 99.9904L74.766 98.9545ZM62.7917 111.333C62.3879 111.333 58.7008 112.333 58.7008 112.333V114.739H61.7031L62.7917 111.333ZM65.1795 108.541L64.723 110.244L66.3032 110.63L66.7421 109.594L65.1795 108.541ZM67.8834 103.748L68.5857 104.345L67.8834 104.749V103.748ZM71.1842 106.434L70.0781 107.786L71.1842 108.541V106.434ZM36.5255 120.217L32.8209 122.921L34.9629 123.324L37.3156 121.323L36.5255 120.217ZM43.9173 116.424L42.618 117.021L43.2677 117.53L43.9173 116.424ZM37.8248 121.762L38.4218 123.324L39.089 121.762H37.8248Z" fill="#E59520"/>
<path d="M49.9395 87.8055C48.9914 91.7384 37.0874 110.894 36.3675 111.842C34.8225 112.193 34.1026 109.7 34.1026 109.7C34.1026 109.7 38.3866 96.6194 41.3539 94.7056C42.8989 91.4926 42.1791 84.7153 45.8135 83.0474C48.9914 83.8726 49.9395 87.8055 49.9395 87.8055ZM69.9903 69.8441C71.4476 70.0021 72.5537 70.2128 73.3965 70.4235C74.924 70.8097 76.0477 72.0914 76.2584 73.6365L78.7866 92.6689H76.7149C76.7149 92.6689 70.8682 79.8343 71.9041 77.3763C69.6567 77.0076 66.707 74.9533 66.707 74.9533L69.9903 69.8441Z" fill="#FCD2B1"/>
<path d="M56.9099 70.1075C59.8771 69.809 71.3071 69.7212 73.3087 70.1075C72.0094 71.7227 68.8666 76.7091 68.4101 77.0076C67.9536 77.3061 56.6816 79.0091 55.9969 79.0091C55.5404 80.6947 51.8182 89.2803 50.7998 90.1933C47.6395 90.4918 42.1439 87.9635 42.1791 85.9795C43.7417 83.4512 46.6738 70.7044 46.6738 70.7044L56.9099 70.1075Z" fill="#2A94F4"/>
<path d="M64.1963 40.5405C69.3934 31.9021 79.0149 26.3013 80.718 24.4753C82.1753 22.8249 86.0028 19.7874 87.2319 19.4362C86.2311 20.437 84.4753 22.421 84.4227 23.018C85.1776 22.6668 86.9158 22.3684 86.9158 22.3684C86.9158 22.3684 84.7211 24.4226 83.2638 25.0722C81.8066 25.7219 65.0566 43.1741 64.0207 46.3696C62.9673 49.5826 64.1963 40.5405 64.1963 40.5405Z" fill="#FCD2B1"/>
<path d="M47.6746 67.983C45.8837 68.1586 42.6531 68.5624 40.4233 67.4914C39.6859 67.1402 39.0714 66.631 38.6324 65.9287C39.3172 60.7668 42.5478 50.162 46.1822 47.4757C46.2349 47.4406 46.2876 47.4055 46.3402 47.3879C46.6914 47.265 47.2532 47.3879 47.2532 47.3879L47.6746 47.0543C47.6746 47.0543 46.4807 46.6505 46.4105 46.194C46.27 45.4215 49.2723 40.8565 51.5899 39.9084C51.8533 39.803 52.0991 39.7328 52.3449 39.7328C54.6976 39.6977 56.8748 41.0145 56.8572 42.4542C57.5771 46.5452 49.2723 66.7891 47.6746 67.983Z" fill="#0E538C"/>
<path d="M68.059 42.4718C66.83 42.9108 64.565 45.2459 64.2139 46.2116C63.5467 45.1581 61.6154 43.2795 59.4733 43.9642C62.3001 41.5764 64.7757 40.5756 64.7757 40.5756L68.059 42.4718Z" fill="#FCD2B1"/>
<path d="M62.6161 30.8838C60.4565 31.1823 57.8404 31.6212 58.2092 35.3961C58.5779 39.171 60.7023 43.0688 65.7062 42.4016C65.8818 39.0832 62.6161 30.8838 62.6161 30.8838Z" fill="#0B4870"/>
<path d="M69.9376 36.0984C71.0788 38.6969 71.8514 41.5588 69.7445 42.4894C67.6376 43.4199 63.1253 42.1207 61.9665 39.5397C60.8252 36.9412 61.9313 34.0266 64.0383 33.0961C66.1627 32.1479 67.8131 31.1823 69.9376 36.0984Z" fill="#FFE3CA"/>
<path d="M62.0191 34.4831C63.7924 34.7465 68.4276 34.6236 68.8666 32.464C69.3055 30.3044 67.6551 28.8647 66.1627 29.7426C66.5665 29.9006 67.6024 30.8136 67.2162 31.0243C66.8475 31.2525 60.3336 29.7601 59.5786 32.7098C58.8061 35.677 62.0191 34.4831 62.0191 34.4831Z" fill="#0B4870"/>
<path d="M63.3535 34.009C63.3535 34.009 63.5291 36.5198 62.4405 37.5732C62.5108 38.5389 63.1604 39.6626 63.1604 39.6626L61.6153 39.7679L59.6313 33.4823L63.3535 34.009Z" fill="#0B4870"/>
<path d="M62.6719 40.5871C63.078 40.2121 62.9593 39.423 62.4067 38.8246C61.8541 38.2262 61.077 38.045 60.6709 38.4199C60.2648 38.7949 60.3836 39.584 60.9362 40.1824C61.4887 40.7809 62.2659 40.962 62.6719 40.5871Z" fill="#FFE3CA"/>
<path d="M65.0391 52.0582C65.0215 54.2529 64.8459 55.6576 64.8459 55.6576C64.8459 55.6576 64.7406 55.8156 64.5475 56.0965C64.0383 56.8515 62.9146 58.5194 61.7207 60.3454C60.4039 62.347 59.0168 64.5066 58.2443 65.841C58.016 66.2272 57.858 66.6135 57.7351 66.9822C57.5771 67.4562 57.5069 67.9127 57.4893 68.3517C57.4015 70.1074 58.2443 71.3365 58.2443 71.3365C55.8213 72.1617 49.9395 76.235 45.8135 71.7227C46.0242 70.6342 46.3051 69.37 46.6212 68.0181C46.7441 67.5089 46.8845 66.9822 47.0074 66.4555C47.183 65.7707 47.3586 65.086 47.5517 64.3837C47.6922 63.8921 47.8151 63.4004 47.9555 62.9088C49.3426 57.9576 50.9052 53.2346 51.5197 52.3918C52.0816 51.6193 54.3465 49.091 56.2076 47.0192C57.0328 46.1062 57.7878 45.281 58.2794 44.7367C58.6481 44.3329 58.8764 44.0871 58.8764 44.0871C60.3161 43.2795 64.3719 42.9283 64.8108 47.5459C64.8811 48.2307 64.9162 48.9154 64.9513 49.5475C65.0391 50.4429 65.0391 51.3033 65.0391 52.0582Z" fill="#FFBE55"/>
<path d="M77.8737 53.2346L81.6485 50.9697C81.6485 50.9697 86.6349 50.4078 86.8807 50.7239C86.5295 51.0224 82.8951 51.5315 82.8951 51.5315C84.0013 51.6895 85.1601 51.7247 85.1601 51.7247C85.1601 51.7247 87.0738 52.5323 86.8807 52.6376C86.1257 52.6903 84.9669 52.2338 84.9669 52.2338L82.8951 52.2865L83.8959 52.6376L84.7562 53.8491C84.1593 53.7964 83.4394 53.0415 83.4394 53.0415L82.3684 53.1995C82.3684 53.1995 81.5607 54.2881 79.8577 54.6568C78.3302 54.5339 77.8737 53.2346 77.8737 53.2346Z" fill="#FCD2B1"/>
<path d="M65.0391 52.0582C64.881 50.7239 64.6528 49.4071 64.249 48.1429C64.1787 47.9673 64.1436 47.7742 64.0558 47.6162L63.8451 47.0894C63.7574 46.9314 63.6696 46.7559 63.5818 46.5978C63.5467 46.5101 63.494 46.4398 63.4413 46.3696L63.2833 46.1413L63.2131 46.036L63.1253 45.9306L62.9497 45.72C62.897 45.6497 62.8268 45.5971 62.7566 45.5268L62.5634 45.3512C62.4932 45.2986 62.423 45.2459 62.3528 45.2108C62.2825 45.1581 62.2123 45.1054 62.1245 45.0703C61.9665 45.0001 61.8085 44.9123 61.6504 44.8772C61.2993 44.7718 60.9306 44.7367 60.5443 44.7719C60.2107 44.807 59.8947 44.8772 59.5787 44.9825C58.8939 45.2108 58.2267 45.5619 57.6122 45.9833C57.1557 46.2994 56.6992 46.633 56.2603 46.9841C55.5404 47.5811 54.8381 48.2307 54.1709 48.8979L53.5037 48.1956C54.645 47.1597 55.8389 46.1413 57.1908 45.3161C57.5595 45.0879 57.9458 44.8948 58.3321 44.7016C58.6657 44.5436 58.9993 44.4207 59.368 44.3154L59.6664 44.2276C59.7718 44.21 59.8596 44.1924 59.9649 44.1749C60.1581 44.1398 60.3687 44.1222 60.5794 44.1047C61.0008 44.1047 61.4222 44.1398 61.826 44.2802C62.0367 44.3329 62.2123 44.4383 62.4054 44.5436C62.5108 44.5787 62.581 44.6665 62.6688 44.7192C62.7566 44.7894 62.8444 44.8421 62.9146 44.9123L63.1428 45.123C63.2131 45.1932 63.3009 45.2635 63.3535 45.3512L63.5467 45.5971L63.6345 45.72L63.7222 45.8429L63.8803 46.1062C63.9329 46.194 63.9856 46.2818 64.0207 46.3696C64.1085 46.5452 64.1963 46.7207 64.2841 46.9139L64.4948 47.4757C64.565 47.6513 64.6177 47.8444 64.6704 48.0376C64.8108 48.5292 64.9337 49.0208 65.0215 49.53C65.0391 50.4429 65.0391 51.3033 65.0391 52.0582ZM63.4589 56.395C62.3527 57.5362 61.1764 58.6248 59.9474 59.6256C58.7008 60.6263 57.4015 61.5393 55.9969 62.347C54.5923 63.1371 53.0823 63.7867 51.467 64.173C50.2205 64.4539 48.8861 64.5592 47.5868 64.3661C47.7273 63.8745 47.8502 63.3829 47.9907 62.8913C49.009 62.9966 50.08 62.9088 51.0983 62.663C52.5205 62.3119 53.89 61.7149 55.1717 60.9599C56.471 60.205 57.7 59.3271 58.8588 58.3439C60.0176 57.3782 61.1413 56.3247 62.1772 55.2186L63.4589 56.395Z" fill="#0E538C"/>
<path d="M59.2626 45.0879C57.4366 46.2467 57.8053 57.7469 63.0901 61.6271C68.375 65.5073 79.8752 54.6216 79.8752 54.6216L77.8736 53.217C77.8736 53.217 62.8092 68.141 63.81 47.5108C63.81 46.1062 61.3344 43.5779 59.2626 45.0879Z" fill="#FCD2B1"/>
<path d="M57.7351 66.9646C57.577 67.4387 57.5068 67.8952 57.4893 68.3341C56.0144 68.6326 54.5045 68.8784 52.9594 68.9837C51.6426 69.0715 50.3082 69.0891 48.9563 68.8257C48.2891 68.7028 47.6043 68.4921 46.9547 68.1585C46.8494 68.1059 46.744 68.0532 46.6387 67.9829C46.7616 67.4738 46.902 66.947 47.0249 66.4203C47.6219 66.8944 48.412 67.2104 49.2548 67.386C50.4136 67.6318 51.6426 67.6669 52.8892 67.5967C54.1358 67.5264 55.3648 67.3684 56.6114 67.1753C56.9976 67.1051 57.3664 67.0348 57.7351 66.9646Z" fill="#0E538C"/>
<path d="M48.5173 65.9287C48.5173 65.9287 47.2532 69.0891 47.341 69.9845C48.2364 70.7571 49.5006 70.7044 49.5006 70.7044C49.5006 70.7044 50.4487 66.5081 50.7647 66.4204C49.8693 66.0692 48.5173 65.9287 48.5173 65.9287Z" fill="#2A94F4"/>
<path d="M51.5899 39.9259C51.1334 43.0161 49.4128 46.2116 47.6746 47.0543C47.6746 47.0543 46.4807 46.6505 46.4105 46.194C46.2524 45.439 49.2723 40.8741 51.5899 39.9259ZM40.318 67.5616C39.5806 67.2104 38.966 66.7013 38.5271 65.999C39.2118 60.837 42.4424 50.2323 46.0769 47.5459C46.1295 47.5108 46.1822 47.4757 46.2349 47.4582C46.7265 52.0056 46.9547 64.1379 40.318 67.5616Z" fill="#0B4870"/>
<path d="M44.9181 55.9209C43.215 55.9209 41.1783 55.5873 40.5462 55.0782L41.1607 54.3232C41.7753 54.8324 45.5677 55.2011 46.6036 54.7446L46.9899 55.6224C46.5685 55.8331 45.7784 55.9209 44.9181 55.9209Z" fill="#0E538C"/>
<path d="M56.6992 43.0336C56.7519 42.4718 56.787 41.91 56.787 41.3657C56.787 40.8038 56.7694 40.2595 56.6641 39.7328C56.6114 39.4694 56.5412 39.2236 56.4358 39.0305C56.3832 38.9427 56.3129 38.8725 56.2603 38.8374C56.2076 38.8023 56.1725 38.8023 56.1022 38.8198C56.0847 38.8198 55.9969 38.8374 55.9618 38.8549C55.9091 38.8725 55.8564 38.89 55.8213 38.9076C55.7335 38.9427 55.6633 38.9954 55.6282 39.0481C55.5931 39.1007 55.5755 39.1359 55.558 39.1885C55.558 39.2236 55.5404 39.2412 55.5404 39.2763V39.3641L55.5228 39.2939C55.6106 39.5046 55.6984 39.7153 55.7862 39.9435L56.032 40.5931L56.5061 41.91V41.9275C56.5412 42.0855 56.5587 42.226 56.5763 42.4191C56.5939 42.6123 56.629 42.8229 56.6992 43.0336ZM56.6992 43.0336C56.6465 42.9107 56.5587 42.7703 56.4534 42.6123C56.348 42.4542 56.2427 42.2611 56.1549 42.068V42.0855L55.3999 40.9092L55.0312 40.3122C54.9083 40.1191 54.803 39.9084 54.6801 39.6977L54.6625 39.6801L54.645 39.645C54.6274 39.5572 54.6098 39.5221 54.6098 39.4694C54.6098 39.4168 54.5923 39.3641 54.5923 39.3114C54.5923 39.2061 54.5923 39.1007 54.6274 38.9954C54.6801 38.7847 54.803 38.5565 54.9786 38.416C55.1541 38.2755 55.3297 38.1877 55.5053 38.1351L55.7686 38.0824C55.8564 38.0648 55.9267 38.0648 56.032 38.0648C56.2427 38.0648 56.4885 38.1351 56.6641 38.2755C56.8397 38.416 56.9274 38.5916 56.9977 38.7496C57.1206 39.0656 57.1557 39.3817 57.1733 39.6626C57.1908 40.2595 57.1206 40.8214 57.0503 41.3832C56.9626 41.9451 56.8397 42.4894 56.6992 43.0336Z" fill="#0B4870"/>
<path d="M43.4959 59.0637L41.863 58.695C41.7928 58.6775 41.7401 58.6072 41.7577 58.537L41.9333 57.7469C41.9508 57.6767 42.021 57.624 42.0913 57.6416L43.7241 58.0103C43.7944 58.0278 43.847 58.0981 43.8295 58.1683L43.6539 58.9584C43.6363 59.0286 43.5661 59.0813 43.4959 59.0637Z" fill="#F7F7F7"/>
<path d="M43.7241 61.9958L44.2157 59.8187L44.2333 59.766C44.3211 59.3446 44.0928 58.9232 43.7066 58.7828C43.6715 58.7652 43.6188 58.7477 43.5837 58.7477L41.9508 58.379C41.8981 58.3614 41.863 58.3614 41.8104 58.3614C41.4065 58.3263 41.0203 58.6072 40.9149 59.0286L40.8798 59.2042L40.3004 61.8202C40.1951 62.2767 40.4935 62.7508 40.95 62.8386L42.5829 63.2073C42.8989 63.2775 43.2325 63.1546 43.4256 62.9264L43.7241 61.9958Z" fill="#2A94F4"/>
<path d="M44.3913 59.8187C43.1447 59.7836 40.9676 59.4851 40.8096 59.1515C40.3882 59.7485 39.3874 63.6638 40.1775 64.4539C40.9676 65.244 42.1615 65.402 42.5829 64.9455C43.0043 64.489 44.3913 59.8187 44.3913 59.8187ZM82.1928 97.6553C81.6485 97.9538 75.3102 97.9538 75.3102 97.9538L75.2049 97.1812L74.3445 91.0185L78.8568 89.4383C78.8568 89.4383 78.6813 92.9674 78.8568 93.2132C78.8568 93.2132 79.2255 94.372 79.3836 94.9163C79.5416 95.4606 80.876 95.4606 81.7187 95.882C82.5088 96.2858 83.2638 95.6186 84.1943 95.882C84.2646 95.8995 84.3348 95.9171 84.405 95.9522C84.563 96.6896 82.7371 97.3568 82.1928 97.6553Z" fill="#0E538C"/>
<path d="M82.1928 97.6553C81.6485 97.9538 75.3102 97.9538 75.3102 97.9538L75.2049 97.1812L82.7722 96.9179L84.1944 95.882C84.2646 95.8995 84.3348 95.9171 84.4051 95.9522C84.5631 96.6896 82.7371 97.3568 82.1928 97.6553Z" fill="#0B4870"/>
<path d="M36.3148 117.917C35.7003 117.794 30.8369 113.738 30.8369 113.738L31.2582 113.071L34.5415 107.786L39.0187 109.454C39.0187 109.454 36.6133 112.053 36.5958 112.351C36.5958 112.351 36.1393 113.475 35.911 114.001C35.6828 114.528 36.7011 115.371 37.0874 116.249C37.4385 117.056 38.4393 117.039 39.0011 117.829C39.0363 117.882 39.0714 117.952 39.1065 118.005C38.7729 118.672 36.9294 118.022 36.3148 117.917Z" fill="#0E538C"/>
<path d="M36.3148 117.917C35.7003 117.794 30.8369 113.738 30.8369 113.738L31.2582 113.071L37.2278 117.706L38.9836 117.811C39.0187 117.864 39.0538 117.934 39.0889 117.987C38.7729 118.672 36.9294 118.022 36.3148 117.917Z" fill="#0B4870"/>
<path d="M18.7397 36.2564C17.5282 36.6954 16.2992 35.203 16.5626 33.9388C16.8259 32.6747 18.0023 31.8144 19.1786 31.2876C21.8474 30.1113 25.0253 30.1288 27.6765 31.3227C27.062 30.8487 27.0971 29.8304 27.6063 29.2334C28.0979 28.6364 28.888 28.3555 29.6605 28.2151C33.3125 27.5127 37.2805 29.128 39.4225 32.1479C38.7202 31.4105 39.1065 30.0762 39.9492 29.5143C40.792 28.9525 41.9157 28.97 42.9165 29.1456C47.2356 29.9181 50.8876 32.2709 51.7128 36.5725L18.7397 36.2564Z" fill="white"/>
</g>
</svg>
