<?xml version="1.0" encoding="UTF-8" standalone="no"?>
<svg
   version="1.1"
   viewBox="0 0 128 128"
   id="svg848"
   sodipodi:docname="sanitary_dump_station.svg"
   inkscape:version="1.1.1 (3bf5ae0d25, 2021-09-20)"
   xmlns:inkscape="http://www.inkscape.org/namespaces/inkscape"
   xmlns:sodipodi="http://sodipodi.sourceforge.net/DTD/sodipodi-0.dtd"
   xmlns="http://www.w3.org/2000/svg"
   xmlns:svg="http://www.w3.org/2000/svg">
  <defs
     id="defs852" />
  <sodipodi:namedview
     id="namedview850"
     pagecolor="#ffffff"
     bordercolor="#666666"
     borderopacity="1.0"
     inkscape:pageshadow="2"
     inkscape:pageopacity="0.0"
     inkscape:pagecheckerboard="0"
     showgrid="false"
     inkscape:zoom="4.4691358"
     inkscape:cx="64.553867"
     inkscape:cy="61.868784"
     inkscape:window-width="1920"
     inkscape:window-height="1017"
     inkscape:window-x="-8"
     inkscape:window-y="-8"
     inkscape:window-maximized="1"
     inkscape:current-layer="svg848" />
  <path
     d="m128 64c0 35.346-28.654 64-64 64-35.346 0-64-28.654-64-64 0-35.346 28.654-64 64-64 35.346 0 64 28.654 64 64"
     fill="#9bbe55"
     stroke-width=".2"
     id="path824" />
  <path
     d="M 106.93264,63.751968 V 41.942801 35.821717 35.481742 h -0.0224 c -0.19103,-1.530016 -1.65193,-2.720567 -3.42679,-2.720567 H 31.658361 l -5.490102,8.331561 2.819269,3.910607 h 28.126125 v 30.945394 h 18.762652 c 0.521823,4.590558 4.520421,8.161446 9.377756,8.161446 4.856825,0 8.855423,-3.570888 9.377245,-8.161446 h 8.887814 z"
     id="path1140"
     style="stroke-width:0.255045" />
  <path
     d="m 36.291766,47.383935 -10.385439,14.808942 -0.162973,0.232346 v 0.08595 l -4.675998,6.509008 4.675998,6.843882 h 5.397775 c 0.441228,4.671917 4.478083,8.331305 9.394844,8.331305 4.91676,0 8.95336,-3.659388 9.394588,-8.331305 h 4.887686 V 47.383935 Z"
     id="path1142"
     style="stroke-width:0.255045" />
  <ellipse
     fill="#ffffff"
     cx="40.790764"
     cy="73.695923"
     rx="5.3559484"
     ry="5.6535859"
     id="ellipse1144"
     style="stroke-width:0.255045;fill:#79a4a4;fill-opacity:1" />
  <ellipse
     fill="#ffffff"
     cx="64.371735"
     cy="67.138962"
     rx="5.0264301"
     ry="5.1327839"
     id="ellipse1146"
     style="stroke-width:0.255045;fill:#79a4a4;fill-opacity:1" />
  <path
     fill="#ffffff"
     d="m 79.700963,72.718336 c -0.09258,0.416488 -0.143336,0.850065 -0.143336,1.296394 0,3.122518 2.39768,5.653586 5.355949,5.653586 2.958013,0 5.355948,-2.531068 5.355948,-5.653586 0,-0.446329 -0.0505,-0.879906 -0.143335,-1.296394 z"
     id="path1148"
     style="stroke-width:0.255045;fill:#79a4a4;fill-opacity:1" />
  <polygon
     fill="#ffffff"
     points="179.588,209.719 152.078,248.969 236.469,248.969 236.469,209.719 "
     id="polygon1150"
     transform="matrix(0.25504516,0,0,0.25504516,-8.2549314,-3.7873061)"
     style="fill:#79a4a4;fill-opacity:1" />
  <rect
     x="72.713997"
     y="42.814289"
     fill="#ffffff"
     width="27.991207"
     height="13.644917"
     id="rect1152"
     style="stroke-width:0.255045;fill:#79a4a4;fill-opacity:1" />
  <path
     stroke="#000000"
     stroke-linecap="round"
     stroke-linejoin="round"
     d="m 74.642397,90.22183 c -0.756719,-1.367807 -3.900406,-2.159468 -5.452355,-1.848568 -1.293334,0.259636 -2.069437,1.146684 -3.081711,1.605765 l -0.876845,0.242803 c -2.271433,0.493002 -3.024326,-1.404534 -4.993785,-1.804445 -1.423152,-0.288966 -4.202379,0.375172 -5.185833,1.568783 v 2.040871 c 0.937801,-1.231868 3.786401,-1.923295 5.233782,-1.629483 1.969459,0.399911 2.722097,2.297447 4.993529,1.804189 l 0.8771,-0.242548 c 1.012275,-0.458826 1.788377,-1.346128 3.081711,-1.605764 1.55195,-0.3109 4.695636,0.48076 5.452355,1.848312 z"
     id="path1154"
     style="stroke-width:0.255045" />
  <path
     stroke="#000000"
     stroke-linecap="round"
     stroke-linejoin="round"
     d="m 74.514874,95.258972 c -0.756719,-1.367807 -3.900405,-2.159468 -5.452355,-1.848568 -1.293334,0.259636 -2.069436,1.146683 -3.081711,1.605765 l -0.876845,0.242803 c -2.271432,0.493002 -3.024325,-1.404534 -4.993784,-1.804445 -1.423152,-0.288966 -4.202379,0.375172 -5.185833,1.568783 v 2.040871 c 0.937801,-1.231868 3.7864,-1.923295 5.233781,-1.629483 1.969459,0.399911 2.722097,2.297447 4.993529,1.804189 l 0.877101,-0.242548 c 1.012274,-0.458826 1.788376,-1.346128 3.08171,-1.605764 1.55195,-0.3109 4.695637,0.48076 5.452356,1.848312 z"
     id="path1156"
     style="stroke-width:0.255045" />
  <polygon
     points="348.718,419.387 348.719,419.387 348.719,359.469 433.219,359.469 433.219,349.219 338.219,349.219 338.219,349.22 338.219,359.469 338.219,409.386 236.219,409.386 236.219,359.469 236.219,349.302 236.219,349.219 141.219,349.219 141.219,359.469 225.719,359.469 225.719,419.469 225.885,419.469 225.885,419.636 348.718,419.636 "
     id="polygon1158"
     transform="matrix(0.25504516,0,0,0.25504516,-8.2549314,-3.7873061)" />
  <polygon
     points="271.402,339.969 256.501,319.47 286.303,319.47 316.104,319.47 301.203,339.969 286.303,360.47 "
     id="polygon1160"
     transform="matrix(0.25504516,0,0,0.25504516,-8.2549314,-3.7873061)" />
</svg>
