<?xml version="1.0" encoding="UTF-8"?>
<svg xmlns="http://www.w3.org/2000/svg" version="1.1" viewBox="0 0 128 128">
  <defs>
    <style>
      .cls-1 {
        stroke: #fff;
        stroke-width: 0px;
      }

      .cls-1, .cls-2 {
        fill: #fff;
      }

      .cls-3 {
        fill: #9bbe55;
      }
    </style>
  </defs>
  <!-- Generator: Adobe Illustrator 28.6.0, SVG Export Plug-In . SVG Version: 1.2.0 Build 709)  -->
  <g>
    <g id="Layer_1">
      <path class="cls-3" d="M128,64c0,35.3-28.7,64-64,64S0,99.3,0,64,28.7,0,64,0s64,28.7,64,64"/>
      <g>
        <path id="path4624" class="cls-2" d="M24.9,83.2h21.2l-2.8,24.4h-16l-2.4-24.4Z"/>
        <path id="path4626" class="cls-1" d="M28.3,20.6c-25.1,16.2,20.2,18.9-7.6,38.1h5.5c26.1-20.6-19.4-22.1,8.2-38.3l-6.1.2Z"/>
        <path id="path4628" class="cls-1" d="M47.3,20.6c-25.1,16.2,20.2,18.9-7.6,38.1h5.5c26.1-20.6-19.4-22.1,8.2-38.3l-6.1.2Z"/>
        <ellipse id="circle4630" class="cls-2" cx="83.8" cy="34" rx="8.7" ry="8.7"/>
        <path id="rect4632" class="cls-2" d="M59.6,100.1l15.7-18.9c1.5-1.8,4.1-2,5.8-.3h0c1.7,1.7,1.8,4.5.3,6.3l-15.7,18.9c-1.5,1.8-4.1,2-5.8.3h0c-1.7-1.7-1.8-4.5-.3-6.3Z"/>
        <path id="rect4634" class="cls-2" d="M64.1,68.2l16.6-5.6c1.6-.5,3.3.3,3.8,1.9h0c.5,1.6-.3,3.3-1.9,3.8l-16.6,5.6c-1.6.5-3.3-.3-3.8-1.9h0c-.5-1.6.3-3.3,1.9-3.8Z"/>
        <path id="rect4636" class="cls-2" d="M92.5,50.8l-7.8,15.3c-.7,1.5-2.5,2-4,1.3h0c-1.5-.8-2-2.5-1.3-4l7.8-15.3c.7-1.5,2.5-2,4-1.3h0c1.5.8,2,2.5,1.3,4Z"/>
        <path id="rect4638" class="cls-2" d="M78.4,79.5h25.1c2.2,0,4,1.8,4,4.1h0c0,2.2-1.8,4-4,4h-25.1c-2.2,0-4-1.8-4-4.1h0c0-2.2,1.8-4,4-4Z"/>
        <rect id="rect4640" class="cls-2" x="86.2" y="95.7" width="21.4" height="4.6"/>
        <path id="rect4642" class="cls-2" d="M95.1,48.2l12.2,33.8c.8,2.1-.3,4.5-2.5,5.3h0c-2.2.8-4.5-.3-5.3-2.5l-12.2-33.8c-.8-2.1.3-4.5,2.5-5.3h0c2.2-.8,4.5.3,5.3,2.5Z"/>
      </g>
    </g>
  </g>
</svg>