<?xml version="1.0" encoding="utf-8"?>
<svg xmlns="http://www.w3.org/2000/svg" viewBox="0 0 128 128">
  <g id="Layer_1">
    <path d="M119.42,95.99c-17.67,30.6-56.81,41.09-87.41,23.42S-9.09,62.61,8.58,32.01,65.39-9.09,95.99,8.58c30.61,17.67,41.09,56.81,23.42,87.41" style="fill:#9bbe55;"/>
    <g>
      <g style="opacity:.25;">
        <path d="M92.3,27.29H35.66c-4.86,0-9.42,4.56-9.42,9.43v56.62c0,4.86,4.57,9.45,9.44,9.45h56.62c4.86,0,9.44-4.56,9.44-9.43V36.72c0-4.86-4.58-9.43-9.45-9.43h0Zm1.93,47.82h-20.15v20.13h-20.15v-20.13h-20.16v-20.15h20.16v-20.13h20.15v20.13h20.15v20.15Z"/>
      </g>
      <path d="M92.3,24.21H35.66c-4.86,0-9.42,4.56-9.42,9.43v56.62c0,4.86,4.57,9.45,9.44,9.45h56.62c4.86,0,9.44-4.56,9.44-9.43V33.64c0-4.86-4.58-9.43-9.45-9.43h0Zm1.93,47.82h-20.15v20.13h-20.15v-20.13h-20.16v-20.15h20.16V31.75h20.15v20.13h20.15v20.15Z" style="fill:#fff;"/>
    </g>
  </g>
  <g id="Layer_2">
    <path d="M119.42,95.99c-17.67,30.6-56.81,41.09-87.41,23.42S-9.09,62.61,8.58,32.01,65.39-9.09,95.99,8.58c30.61,17.67,41.09,56.81,23.42,87.41" style="fill:#9bbe55;"/>
    <g id="group-3" style="filter: none;" transform="matrix(-0.182918, 0, 0, 0.182918, 72.459785, 39.840393)">
      <g transform="matrix(1, 0, 0, 1, -211.733139, -218.760117)">
        <path class="st0" d="M47.577,274.127c26.279,0,47.585-21.298,47.585-47.577s-21.306-47.586-47.585-47.586 C21.307,178.964,0,200.272,0,226.55S21.307,274.127,47.577,274.127z" style="fill-opacity: 0.2;"/>
        <path class="st0" d="M505.74,264.051c-3.124-6.036-7.359-11.63-12.491-16.602c-7.706-7.457-17.348-13.556-28.808-18.466 c-11.4-4.856-24.654-8.558-40.146-11.106v-0.009l-265.85-52.113c-7.28-1.296-14.711,0.693-20.375,5.434 c-5.673,4.749-8.923,11.718-8.923,19.105v106.491h-99.69c-13.761,0-24.93,11.159-24.93,24.93c0,13.761,11.168,24.92,24.93,24.92 h424.455c7.963,0,15.58-1.704,22.417-4.626c10.272-4.404,18.91-11.461,25.267-20.428c6.33-8.94,10.396-20.073,10.404-32.2 C512.026,280.901,509.932,272.086,505.74,264.051z" style="fill-opacity: 0.2;"/>
      </g>
    </g>
    <g id="group-2" style="filter: none;" transform="matrix(-0.182918, 0, 0, 0.182918, 72.459785, 35.840393)">
      <g transform="matrix(1, 0, 0, 1, -211.733139, -218.760117)">
        <path class="st0" d="M47.577,274.127c26.279,0,47.585-21.298,47.585-47.577s-21.306-47.586-47.585-47.586 C21.307,178.964,0,200.272,0,226.55S21.307,274.127,47.577,274.127z" style="fill: rgb(255, 255, 255);"/>
        <path class="st0" d="M505.74,264.051c-3.124-6.036-7.359-11.63-12.491-16.602c-7.706-7.457-17.348-13.556-28.808-18.466 c-11.4-4.856-24.654-8.558-40.146-11.106v-0.009l-265.85-52.113c-7.28-1.296-14.711,0.693-20.375,5.434 c-5.673,4.749-8.923,11.718-8.923,19.105v106.491h-99.69c-13.761,0-24.93,11.159-24.93,24.93c0,13.761,11.168,24.92,24.93,24.92 h424.455c7.963,0,15.58-1.704,22.417-4.626c10.272-4.404,18.91-11.461,25.267-20.428c6.33-8.94,10.396-20.073,10.404-32.2 C512.026,280.901,509.932,272.086,505.74,264.051z" style="fill: rgb(255, 255, 255);"/>
      </g>
    </g>
    <g id="group-4" style="filter: none;" transform="matrix(0.182918, 0, 0, 0.182918, 53.73658, 77.8162)">
      <g transform="matrix(1, 0, 0, 1, -199.890503, -207.826248)">
        <path class="st0" d="M47.577,274.127c26.279,0,47.585-21.298,47.585-47.577s-21.306-47.586-47.585-47.586 C21.307,178.964,0,200.272,0,226.55S21.307,274.127,47.577,274.127z" style="fill-opacity: 0.2;"/>
        <path class="st0" d="M505.74,264.051c-3.124-6.036-7.359-11.63-12.491-16.602c-7.706-7.457-17.348-13.556-28.808-18.466 c-11.4-4.856-24.654-8.558-40.146-11.106v-0.009l-265.85-52.113c-7.28-1.296-14.711,0.693-20.375,5.434 c-5.673,4.749-8.923,11.718-8.923,19.105v106.491h-99.69c-13.761,0-24.93,11.159-24.93,24.93c0,13.761,11.168,24.92,24.93,24.92 h424.455c7.963,0,15.58-1.704,22.417-4.626c10.272-4.404,18.91-11.461,25.267-20.428c6.33-8.94,10.396-20.073,10.404-32.2 C512.026,280.901,509.932,272.086,505.74,264.051z" style="fill-opacity: 0.2;"/>
      </g>
    </g>
    <g id="group-1" style="filter: none;" transform="matrix(0.182918, 0, 0, 0.182918, 53.736584, 73.8162)">
      <g transform="matrix(1, 0, 0, 1, -199.890503, -207.826248)">
        <path class="st0" d="M47.577,274.127c26.279,0,47.585-21.298,47.585-47.577s-21.306-47.586-47.585-47.586 C21.307,178.964,0,200.272,0,226.55S21.307,274.127,47.577,274.127z" style="fill: rgb(255, 255, 255);"/>
        <path class="st0" d="M505.74,264.051c-3.124-6.036-7.359-11.63-12.491-16.602c-7.706-7.457-17.348-13.556-28.808-18.466 c-11.4-4.856-24.654-8.558-40.146-11.106v-0.009l-265.85-52.113c-7.28-1.296-14.711,0.693-20.375,5.434 c-5.673,4.749-8.923,11.718-8.923,19.105v106.491h-99.69c-13.761,0-24.93,11.159-24.93,24.93c0,13.761,11.168,24.92,24.93,24.92 h424.455c7.963,0,15.58-1.704,22.417-4.626c10.272-4.404,18.91-11.461,25.267-20.428c6.33-8.94,10.396-20.073,10.404-32.2 C512.026,280.901,509.932,272.086,505.74,264.051z" style="fill: rgb(255, 255, 255);"/>
      </g>
    </g>
  </g>
</svg>