<?xml version="1.0" encoding="utf-8"?>
<!-- Generator: Adobe Illustrator 26.4.1, SVG Export Plug-In . SVG Version: 6.00 Build 0)  -->
<svg version="1.1" xmlns="http://www.w3.org/2000/svg" xmlns:xlink="http://www.w3.org/1999/xlink" x="0px" y="0px"
	 viewBox="0 0 128 128" style="enable-background:new 0 0 128 128;" xml:space="preserve">
<style type="text/css">
	.st0{fill:#9BBE55;}
	.st1{opacity:0.25;}
	.st2{fill:#FFFFFF;}
	.st3{opacity:0.2;}
	.st4{fill-rule:evenodd;clip-rule:evenodd;}
	.st5{fill-rule:evenodd;clip-rule:evenodd;fill:#FFFFFF;}
</style>
<g id="Layer_1">
	<g id="Layer_1_00000101066416301118460770000002001345265007388303_">
		<path class="st0" d="M119.4,96c-17.7,30.6-56.8,41.1-87.4,23.4S-9.1,62.6,8.6,32S65.4-9.1,96,8.6C126.6,26.2,137.1,65.4,119.4,96"
			/>
		<g>
			<g class="st1">
				<path d="M92.3,27.3H35.7c-4.9,0-9.4,4.6-9.4,9.4v56.6c0,4.9,4.6,9.4,9.4,9.4h56.6c4.9,0,9.4-4.6,9.4-9.4V36.7
					C101.7,31.9,97.2,27.3,92.3,27.3L92.3,27.3L92.3,27.3z M94.2,75.1H74.1v20.1H53.9V75.1H33.8V55h20.2V34.8h20.2V55h20.2V75.1z"/>
			</g>
			<path class="st2" d="M92.3,24.2H35.7c-4.9,0-9.4,4.6-9.4,9.4v56.6c0,4.9,4.6,9.4,9.4,9.4h56.6c4.9,0,9.4-4.6,9.4-9.4V33.6
				C101.7,28.8,97.2,24.2,92.3,24.2L92.3,24.2L92.3,24.2z M94.2,72H74.1v20.1H53.9V72H33.8V51.9h20.2V31.8h20.2v20.1h20.2V72z"/>
		</g>
	</g>
	<g id="Layer_2_00000146493287375252918290000013112964780099768252_">
		<path class="st0" d="M119.4,96c-17.7,30.6-56.8,41.1-87.4,23.4S-9.1,62.6,8.6,32S65.4-9.1,96,8.6C126.6,26.2,137.1,65.4,119.4,96"
			/>
	</g>
</g>
<g id="Layer_2">
	<g class="st3">
		<polygon points="108.1,65.1 63.7,47.5 63.7,47.5 63.7,47.5 19.3,65.1 21.8,71.2 36.8,65.2 36.8,106.5 43.3,106.5 43.3,62.6 
			63.7,54.5 84.6,62.8 84.6,106.5 91.1,106.5 91.1,65.4 105.7,71.2 		"/>
		<polygon class="st4" points="48.9,14.2 43.7,24.6 46.1,24.6 51.6,14.2 		"/>
		<polygon class="st4" points="69.8,14.2 64.6,24.6 67,24.6 72.5,14.2 		"/>
		<polygon class="st4" points="90.7,14.2 85.5,24.6 87.9,24.6 93.4,14.2 		"/>
		<polygon class="st4" points="33.2,24.6 28,35.1 30.4,35.1 35.9,24.6 		"/>
		<polygon class="st4" points="54.1,24.6 48.9,35.1 51.4,35.1 56.8,24.6 		"/>
		<polygon class="st4" points="75,24.6 69.8,35.1 72.2,35.1 77.7,24.6 		"/>
		<polygon class="st4" points="95.9,24.6 90.7,35.1 93.1,35.1 98.6,24.6 		"/>
		<polygon class="st4" points="41,35.1 35.8,45.5 38.3,45.5 43.7,35.1 		"/>
		<polygon class="st4" points="82.7,35.1 77.5,45.5 79.9,45.5 85.4,35.1 		"/>
	</g>
	<g>
		<polygon class="st2" points="108.1,62.5 63.7,44.9 63.7,44.9 63.7,44.9 19.3,62.5 21.8,68.6 36.8,62.6 36.8,103.9 43.3,103.9 
			43.3,60 63.7,51.9 84.6,60.2 84.6,103.9 91.1,103.9 91.1,62.8 105.7,68.6 		"/>
		<polygon class="st5" points="48.9,11.6 43.7,22.1 46.1,22.1 51.6,11.6 		"/>
		<polygon class="st5" points="69.8,11.6 64.6,22.1 67,22.1 72.5,11.6 		"/>
		<polygon class="st5" points="90.7,11.6 85.5,22.1 87.9,22.1 93.4,11.6 		"/>
		<polygon class="st5" points="33.2,22.1 28,32.5 30.4,32.5 35.9,22.1 		"/>
		<polygon class="st5" points="54.1,22.1 48.9,32.5 51.4,32.5 56.8,22.1 		"/>
		<polygon class="st5" points="75,22.1 69.8,32.5 72.2,32.5 77.7,22.1 		"/>
		<polygon class="st5" points="95.9,22.1 90.7,32.5 93.1,32.5 98.6,22.1 		"/>
		<polygon class="st5" points="41,32.5 35.8,42.9 38.3,42.9 43.7,32.5 		"/>
		<polygon class="st5" points="82.7,32.5 77.5,42.9 79.9,42.9 85.4,32.5 		"/>
	</g>
</g>
</svg>
