<?xml version="1.0" encoding="UTF-8"?>
<svg version="1.1" viewBox="0 0 128 128" xmlns="http://www.w3.org/2000/svg">
 <path d="m119.42 95.99c-17.67 30.6-56.81 41.09-87.41 23.42s-41.1-56.8-23.43-87.4 56.81-41.1 87.41-23.43c30.61 17.67 41.09 56.81 23.42 87.41" fill="#9bbe55"/>
 <g transform="translate(-4)" stroke-width="2">
  <path d="m31 26c-4.9706 0-9 4.0294-9 9s4.0294 9 9 9 9-4.0294 9-9-4.0294-9-9-9zm21 0c-6-1-8 17-8 22h-20c-2.2091 0-4 1.7909-4 4s1.7909 4 4 4h82c6.0751 0 10-1.9249 10-8 0-11-64-22-64-22z" fill-opacity=".2"/>
  <path d="m31 22c-4.9706 0-9 4.0294-9 9s4.0294 9 9 9 9-4.0294 9-9-4.0294-9-9-9zm21 0c-6-1-8 17-8 22h-20c-2.2091 0-4 1.7909-4 4s1.7909 4 4 4h82c6.0751 0 10-1.9249 10-8 0-11-64-22-64-22z" fill="#fff"/>
  <path d="m105 70c4.9706 0 9 4.0294 9 9s-4.0294 9-9 9-9-4.0294-9-9 4.0294-9 9-9zm-21 0c6-1 8 17 8 22h20c2.2091 0 4 1.7909 4 4s-1.7909 4-4 4h-82c-6.0751 0-10-1.9249-10-8 0-11 64-22 64-22z" fill-opacity=".2"/>
  <path d="m105 66c4.9706 0 9 4.0294 9 9s-4.0294 9-9 9-9-4.0294-9-9 4.0294-9 9-9zm-21 0c6-1 8 17 8 22h20c2.2091 0 4 1.7909 4 4s-1.7909 4-4 4h-82c-6.0751 0-10-1.9249-10-8 0-11 64-22 64-22z" fill="#fff"/>
 </g>
</svg>
