<?xml version="1.0" encoding="UTF-8"?>
<svg version="1.1" viewBox="0 0 128 128" xml:space="preserve" xmlns="http://www.w3.org/2000/svg"><path d="m128 64c0 35.346-28.654 64-64 64s-64-28.654-64-64 28.654-64 64-64 64 28.654 64 64" fill="#e9a76f"/><g transform="matrix(.81975 0 0 .81975 9.6301 4.1881)"><path d="m16.31 48.566s0 31.717 0.09636 32.268c-6.6025 0-11.955-5.3524-11.955-11.955z" fill-opacity=".2" stroke-width="1.2941"/><path d="m124 68.88c0 6.6025-5.3524 11.955-11.955 11.955-0.58431-0.55147 1.8555-24.949 1.8555-24.949z" fill-opacity=".2" stroke-width="1.2941"/><g stroke-width="1.5787"><path d="m7.7706 112h112.23v-73.193h-112.23z" fill="#cb9781"/><rect x="19.969" y="80.283" width="58.554" height="21.958" fill="#a4c1ee"/><rect x="88.283" y="80.283" width="15.859" height="31.717" fill="#a4c1ee"/><rect x="19.969" y="80.283" width="58.554" height="7.3193" fill="#859dbf"/><rect x="88.283" y="80.283" width="15.859" height="7.3193" fill="#859dbf"/><rect x="17.53" y="24.168" width="92.711" height="14.639" fill="#d6bdb1"/><path d="m4 64 9.87-17.874h100.03l10.099 17.874z" fill="#c84747"/><path d="m28 64c1.1e-5 6.6274-5.3726 12-12 12s-12-5.3726-12-12z" fill="#9a2e2e"/><path d="m52 64c1.4e-5 6.6274-5.3726 12-12 12s-12-5.3726-12-12z" fill="#c8c8c8"/><path d="m76 64c9e-6 6.6274-5.3726 12-12 12s-12-5.3726-12-12z" fill="#9a2e2e"/><path d="m100 64c1e-5 6.6274-5.3726 12-12 12s-12-5.3726-12-12z" fill="#c8c8c8"/><path d="m124 64c1e-5 6.6274-5.3726 12-12 12s-12-5.3726-12-12z" fill="#9a2e2e"/><path d="m28 64 5.3881-17.874h20.738l-2.1262 17.874z" fill="#fff"/><path d="m76 64-2.3556-17.874h20.738l5.6176 17.874z" fill="#fff"/></g></g><rect x="16" y="96" width="92" height="4" fill-opacity=".2"/></svg>
