<?xml version="1.0" encoding="UTF-8"?>
<svg id="shower_hot_water" xmlns="http://www.w3.org/2000/svg" version="1.1" viewBox="0 0 128 128">
  <path d="M128,64c0,35.3-28.7,64-64,64S0,99.3,0,64,28.7,0,64,0s64,28.7,64,64" style="fill: #9bbe55;"/>
  <path d="M46,18c-18,0-30,10-30,30v58.3c3.5,4,7.6,7.6,12,10.6V48c0-12,7.6-18.1,18-18,9.2,0,16.2,4.7,17.7,14-6.6.3-11.8,8.6-13.3,16h-.4c-2.2,0-4,1.8-4,4s1.8,4,4,4h40c2.2,0,4-1.8,4-4s-1.8-4-4-4h-.4c-1.5-7.5-6.8-16-13.6-16h-.2c-1.5-17.3-13.1-26-29.8-26h0ZM70,72c0,1.6-6,10.9-6,14s2.7,6,6,6,6-2.7,6-6-6-12.5-6-14ZM52,80c0,1.6-6,10.9-6,14s2.7,6,6,6,6-2.7,6-6-6-12.5-6-14ZM88,80c0,1.6-6,10.9-6,14s2.7,6,6,6,6-2.7,6-6-6-12.5-6-14ZM70,98c0,1.6-6,10.9-6,14s2.7,6,6,6,6-2.7,6-6-6-12.5-6-14Z" style="fill-opacity: .2;"/>
  <path d="M58,90c0,3.3-2.7,6-6,6s-6-2.7-6-6,6-12.4,6-14c0,1.5,6,10.7,6,14h0Z" style="fill: #9e3d33;"/>
  <path d="M76,108c0,3.3-2.7,6-6,6s-6-2.7-6-6,6-12.4,6-14c0,1.5,6,10.7,6,14h0Z" style="fill: #9e3d33;"/>
  <path d="M46,14c-18,0-30,10-30,30v62.3c3.5,4,7.6,7.6,12,10.6V44c0-12,7.6-18.1,18-18,10.4,0,18,6,18,18h12c0-20-12-30-30-30Z" style="fill: #4b5b6f;"/>
  <path d="M76,82c0,3.3-2.7,6-6,6s-6-2.7-6-6,6-12.4,6-14c0,1.5,6,10.7,6,14h0Z" style="fill: #9e3d33;"/>
  <path d="M94,90c0,3.3-2.7,6-6,6s-6-2.7-6-6,6-12.4,6-14c0,1.5,6,10.7,6,14h0Z" style="fill: #9e3d33;"/>
  <path d="M64,40h12c8,0,14,12,14,20h-40c0-8,6-20,14-20Z" style="fill: #999;"/>
  <path d="M50,56c-2.2,0-4,1.8-4,4s1.8,4,4,4h40c2.2,0,4-1.8,4-4s-1.8-4-4-4h-40Z" style="fill: #666;"/>
</svg>
