<?xml version="1.0" encoding="UTF-8"?>
<svg version="1.1" viewBox="0 0 128 128" xmlns="http://www.w3.org/2000/svg">
 <path d="m128 64c0 35.346-28.654 64-64 64s-64-28.654-64-64 28.654-64 64-64 64 28.654 64 64" fill="#9bbe55" stroke-width=".2"/>
 <path d="m46 18c-18-0.03503-30 10-30 30v58.307c3.5398 4.0131 7.5652 7.5864 12 10.609v-68.916c0-12 7.621-18.063 18-18 9.1556 0.05553 16.156 4.6886 17.682 14.016-6.5928 0.26388-11.771 8.632-13.252 15.984h-0.42969a4 4 0 0 0-4 4 4 4 0 0 0 4 4h40a4 4 0 0 0 4-4 4 4 0 0 0-4-4h-0.42773c-1.5044-7.4709-6.8276-16-13.572-16h-0.17578c-1.5179-17.326-13.069-25.967-29.824-26zm24 53.982c0 1.5849-6 10.877-6 14.018 0 3.3137 2.6863 6 6 6 3.3137 0 6-2.6864 6-6 0-3.3025-6-12.486-6-14.018zm-18 8c0 1.5849-6 10.877-6 14.018 0 3.3137 2.6863 6 6 6 3.3137 0 6-2.6864 6-6 0-3.3025-6-12.486-6-14.018zm36 0c0 1.5849-6 10.877-6 14.018 0 3.3137 2.6863 6 6 6 3.3137 0 6-2.6864 6-6 0-3.3025-6-12.486-6-14.018zm-18 18c0 1.5849-6 10.877-6 14.018 0 3.3137 2.6863 6 6 6 3.3137 0 6-2.6863 6-6 0-3.3025-6-12.486-6-14.018z" fill-opacity=".2"/>
 <path d="m58 90c0 3.3137-2.6863 6-6 6-3.3137 0-6-2.6863-6-6 0-3.1409 6-12.432 6-14.017 0 1.5312 5.9997 10.715 5.9997 14.017z" fill="#3581c8" stroke-width="2.3289"/>
 <path d="m76 108c0 3.3137-2.6863 6-6 6-3.3137 0-6-2.6863-6-6 0-3.1409 6-12.432 6-14.017 0 1.5312 5.9997 10.715 5.9997 14.017z" fill="#3581c8" stroke-width="2.3289"/>
 <path d="m46 14c-18-0.03503-30 10-30 30v62.307c3.5398 4.0131 7.5652 7.5864 12 10.609v-72.916c0-12 7.621-18.063 18-18 10.379 0.06295 18 6 18 18h12c0-20-12-29.965-30-30z" fill="#4b5b6f"/>
 <path d="m76 82c0 3.3137-2.6863 6-6 6-3.3137 0-6-2.6863-6-6 0-3.1409 6-12.432 6-14.017 0 1.5312 5.9997 10.715 5.9997 14.017z" fill="#3581c8" stroke-width="2.3289"/>
 <path d="m94 90c0 3.3137-2.6863 6-6 6-3.3137 0-6-2.6863-6-6 0-3.1409 6-12.432 6-14.017 0 1.5312 5.9997 10.715 5.9997 14.017z" fill="#3581c8" stroke-width="2.3289"/>
 <path d="m64 40h12c8 0 14 12 14 20h-40c0-8 6-20 14-20z" fill="#999"/>
 <path d="m50 56a4 4 0 0 0-4 4 4 4 0 0 0 4 4h40a4 4 0 0 0 4-4 4 4 0 0 0-4-4z" color="#000000" fill="#666" stroke-linecap="round" style="-inkscape-stroke:none"/>
</svg>
