<?xml version="1.0" encoding="UTF-8"?>
<svg id="shower_hot_water" xmlns="http://www.w3.org/2000/svg" version="1.1" viewBox="0 0 128 128">
  <path d="M128,64c0,35.3-28.7,64-64,64S0,99.3,0,64,28.7,0,64,0s64,28.7,64,64" style="fill: #9bbe55;"/>
  <path d="M46,18c-18,0-30,10-30,30v58.3c3.5,4,7.6,7.6,12,10.6V48c0-12,7.6-18.1,18-18,9.2,0,16.2,4.7,17.7,14-6.6.3-11.8,8.6-13.3,16h-.4c-2.2,0-4,1.8-4,4s1.8,4,4,4h40c2.2,0,4-1.8,4-4s-1.8-4-4-4h-.4c-1.5-7.5-6.8-16-13.6-16h-.2c-1.5-17.3-13.1-26-29.8-26h0Z" style="fill-opacity: .2;"/>
  <path d="M46,14c-18,0-30,10-30,30v62.3c3.5,4,7.6,7.6,12,10.6V44c0-12,7.6-18.1,18-18,10.4,0,18,6,18,18h12c0-20-12-30-30-30Z" style="fill: #4b5b6f;"/>
  <path d="M64,40h12c8,0,14,12,14,20h-40c0-8,6-20,14-20Z" style="fill: #999;"/>
  <path d="M50,56c-2.2,0-4,1.8-4,4s1.8,4,4,4h40c2.2,0,4-1.8,4-4s-1.8-4-4-4h-40Z" style="fill: #666;"/>
  <g>
    <path d="M65.6,115.5h2.8c.1,0,.2,0,.4-.1,3.7-2.5,13.3-10.7,7.6-23.4-4.1-9.1-2.6-17.4-1.6-21,.1-.4-.2-.8-.6-.8h-2.8s-9.5,11.8-5,23.7c3.6,9.7-.8,21.5-.8,21.5h0Z" style="fill: #c33;"/>
    <path d="M49.1,115.5s2.4,0,2.8,0,.3,0,.4-.1c3.3-2.3,11.9-9.5,6.8-20.9-3.7-8.1-2.4-15.6-1.5-18.8.1-.3-.2-.7-.5-.7h-2.8s-8.3,10.6-4.2,21.2c3.2,8.7-1,19.3-1,19.3h0Z" style="fill: #c33;"/>
    <path d="M65,114.7c-.1.5.5,1,.9.7,3.7-2.5,13.3-10.7,7.6-23.4-4.1-9.1-2.6-17.4-1.6-21,.2-.6-.5-1-1-.6-3.6,3.1-11.9,11.7-7.4,23.6,3.7,9.6,2.3,17.5,1.5,20.7Z" style="fill: #f44336;"/>
    <path d="M48.6,114.8c-.1.5.4.8.8.6,3.3-2.3,12-9.6,6.8-20.9-3.7-8.1-2.4-15.6-1.5-18.8.1-.5-.5-.9-.8-.6-3.3,2.8-10.7,10.5-6.7,21.1,3.3,8.7,2,15.8,1.3,18.6h0Z" style="fill: #f44336;"/>
    <path d="M82.4,115.5s2.4,0,2.7,0c.1,0,.3,0,.4-.1,3.3-2.3,12-9.6,6.8-20.9-3.7-8.1-2.4-15.6-1.5-18.8.1-.3-.2-.7-.5-.7h-2.8s-8.2,10.6-4.2,21.2c3.2,8.7-1,19.3-1,19.3h0Z" style="fill: #c33;"/>
    <path d="M81.9,114.8c-.1.5.4.8.8.6,3.3-2.3,12-9.6,6.8-20.9-3.7-8.1-2.4-15.6-1.5-18.8.1-.5-.5-.9-.8-.6-3.2,2.8-10.7,10.5-6.6,21.1,3.2,8.7,2,15.8,1.2,18.6Z" style="fill: #f44336;"/>
  </g>
</svg>
