<?xml version="1.0" encoding="UTF-8"?>
<svg version="1.1" viewBox="0 0 128 128" xmlns="http://www.w3.org/2000/svg">
 <path d="m119.44 96.041c-17.673 30.611-56.815 41.099-87.426 23.426s-41.099-56.815-23.426-87.426 56.815-41.099 87.426-23.426 41.099 56.815 23.426 87.426" fill="#529add"/>
 <path d="m62.638 0.016057c-21.611 0.48424-42.455 11.906-54.053 31.994-17.673 30.611-7.1852 69.753 23.426 87.426 4.4436 2.5655 9.0699 4.5186 13.781 5.9219l62.238-107.8c-3.5709-3.3785-7.5759-6.4072-12.02-8.9727-10.523-6.0751-22.053-8.822-33.373-8.5684z" fill="#999"/>
 <path d="m108.52 18.121-62.098 107.45c2.5731 0.78515 5.4908 1.2657 8.183 1.7979l59.63-103.08c-1.8072-2.0658-3.6197-4.3188-5.7151-6.1619z" fill-opacity=".2"/>
 <g>
  <path d="m62.968 61.059a2 2 0 0 1-2.7321 0.73205 2 2 0 0 1-0.73205-2.7321 2 2 0 0 1 2.7321-0.73205 2 2 0 0 1 0.73205 2.7321" fill="#aaa" style="paint-order:stroke fill markers"/>
  <path d="m91.968 36.059a2 2 0 0 1-2.7321 0.73205 2 2 0 0 1-0.73205-2.7321 2 2 0 0 1 2.7321-0.73205 2 2 0 0 1 0.73205 2.7321" fill="#aaa" style="paint-order:stroke fill markers"/>
  <path d="m51.475 76.132a2 2 0 0 1-2.7321 0.73205 2 2 0 0 1-0.73205-2.7321 2 2 0 0 1 2.732-0.73205 2 2 0 0 1 0.73205 2.732" fill="#aaa" style="paint-order:stroke fill markers"/>
  <path d="m42.475 120.132a2 2 0 0 1-2.7321 0.73205 2 2 0 0 1-0.73205-2.7321 2 2 0 0 1 2.732-0.73205 2 2 0 0 1 0.73205 2.732" fill="#aaa" style="paint-order:stroke fill markers"/>
  <path d="m82.475 41.132a2 2 0 0 1-2.7321 0.73205 2 2 0 0 1-0.73205-2.7321 2 2 0 0 1 2.732-0.73205 2 2 0 0 1 0.73205 2.732" fill="#aaa" style="paint-order:stroke fill markers"/>
  <path d="m65.272 78.101a6 6 0 0 1-8.1962 2.1962 6 6 0 0 1-2.1962-8.1962 6 6 0 0 1 8.1962-2.1962 6 6 0 0 1 2.1962 8.1962" fill="#aaa" style="paint-order:stroke fill markers"/>
  <path d="m51.243 108.18a6 6 0 0 1-8.1962 2.1962 6 6 0 0 1-2.1962-8.1962 6 6 0 0 1 8.1962-2.1962 6 6 0 0 1 2.1962 8.1962" fill="#aaa" style="paint-order:stroke fill markers"/>
  <path d="m78.814 63.281a6 6 0 0 1-8.1962 2.1962 6 6 0 0 1-2.1962-8.1962 6 6 0 0 1 8.1962-2.1962 6 6 0 0 1 2.1962 8.1962" fill="#bbb" style="paint-order:stroke fill markers"/>
  <path d="m54.582 86.665a6 6 0 0 1-8.1962 2.1962 6 6 0 0 1-2.1962-8.1962 6 6 0 0 1 8.1962-2.1962 6 6 0 0 1 2.1962 8.1962" fill="#bbb" style="paint-order:stroke fill markers"/>
  <path d="m95.7 16.375a6 6 0 0 1-8.1962 2.1962 6 6 0 0 1-2.1962-8.1962 6 6 0 0 1 8.1962-2.1962 6 6 0 0 1 2.1962 8.1962" fill="#aaa" style="paint-order:stroke fill markers"/>
  <path d="m83.972 49.789a6 6 0 0 1-8.1962 2.1962 6 6 0 0 1-2.1962-8.1962 6 6 0 0 1 8.1962-2.1962 6 6 0 0 1 2.1962 8.1962" fill="#ccc" style="paint-order:stroke fill markers"/>
  <path d="m80.011 34.328a4 4 0 0 1-5.4641 1.4641 4 4 0 0 1-1.4641-5.4641 4 4 0 0 1 5.4641-1.4641 4 4 0 0 1 1.4641 5.4641" fill="#bbb" style="paint-order:stroke fill markers"/>
  <path d="m91.53 26.238a4 4 0 0 1-5.4641 1.4641 4 4 0 0 1-1.4641-5.4641 4 4 0 0 1 5.4641-1.4641 4 4 0 0 1 1.4641 5.4641" fill="#bbb" style="paint-order:stroke fill markers"/>
  <path d="m69.227 54.206a4 4 0 0 1-5.4641 1.4641 4 4 0 0 1-1.4641-5.4641 4 4 0 0 1 5.4641-1.4641 4 4 0 0 1 1.4641 5.4641" fill="#aaa" style="paint-order:stroke fill markers"/>
  <path d="m40.227 113.206a4 4 0 0 1-5.4641 1.4641 4 4 0 0 1-1.4641-5.4641 4 4 0 0 1 5.4641-1.4641 4 4 0 0 1 1.4641 5.4641" fill="#aaa" style="paint-order:stroke fill markers"/>
  <path d="m58.516 94.734a4 4 0 0 1-5.4641 1.4641 4 4 0 0 1-1.4641-5.4641 4 4 0 0 1 5.4641-1.4641 4 4 0 0 1 1.4641 5.4641" fill="#bbb" style="paint-order:stroke fill markers"/>
  <path d="m86.475 33.132a2 2 0 0 1-2.7321 0.73205 2 2 0 0 1-0.73205-2.7321 2 2 0 0 1 2.732-0.73205 2 2 0 0 1 0.73205 2.732" fill="#ccc" style="paint-order:stroke fill markers"/>
  <path d="m80.388 24.858a2 2 0 0 1-2.7321 0.73205 2 2 0 0 1-0.73205-2.7321 2 2 0 0 1 2.7321-0.73205 2 2 0 0 1 0.73205 2.7321" fill="#ccc" style="paint-order:stroke fill markers"/>
  <path d="m45.388 114.858a2 2 0 0 1-2.7321 0.73205 2 2 0 0 1-0.73205-2.7321 2 2 0 0 1 2.7321-0.73205 2 2 0 0 1 0.73205 2.7321" fill="#ccc" style="paint-order:stroke fill markers"/>
  <path d="m95.388 21.858a2 2 0 0 1-2.7321 0.73205 2 2 0 0 1-0.73205-2.7321 2 2 0 0 1 2.7321-0.73205 2 2 0 0 1 0.73205 2.7321" fill="#ccc" style="paint-order:stroke fill markers"/>
  <path d="m74.723 39.387a2 2 0 0 1-2.7321 0.73205 2 2 0 0 1-0.73205-2.7321 2 2 0 0 1 2.7321-0.73205 2 2 0 0 1 0.73205 2.7321" fill="#ccc" style="paint-order:stroke fill markers"/>
  <path d="m88.699 40.753a2 2 0 0 1-2.7321 0.73205 2 2 0 0 1-0.73205-2.7321 2 2 0 0 1 2.732-0.73205 2 2 0 0 1 0.73205 2.7321" fill="#777" style="paint-order:stroke fill markers"/>
  <path d="m66.865 67.276a2 2 0 0 1-2.7321 0.73205 2 2 0 0 1-0.73205-2.7321 2 2 0 0 1 2.732-0.73205 2 2 0 0 1 0.73205 2.7321" fill="#bbb" style="paint-order:stroke fill markers"/>
  <path d="m70.525 74.008a2 2 0 0 1-2.7321 0.73205 2 2 0 0 1-0.73205-2.7321 2 2 0 0 1 2.7321-0.73205 2 2 0 0 1 0.73205 2.732" fill="#ccc" style="paint-order:stroke fill markers"/>
  <path d="m55.537 69.324a2 2 0 0 1-2.7321 0.73205 2 2 0 0 1-0.73205-2.7321 2 2 0 0 1 2.732-0.73205 2 2 0 0 1 0.73205 2.732" fill="#ccc" style="paint-order:stroke fill markers"/>
  <path d="m42.792 91.528a2 2 0 0 1-2.732 0.73205 2 2 0 0 1-0.73205-2.732 2 2 0 0 1 2.7321-0.73205 2 2 0 0 1 0.73205 2.7321" fill="#bbb" style="paint-order:stroke fill markers"/>
  <path d="m31.812 115.31a2 2 0 0 1-2.7321 0.73205 2 2 0 0 1-0.73205-2.732 2 2 0 0 1 2.7321-0.73205 2 2 0 0 1 0.73205 2.732" fill="#ccc" style="paint-order:stroke fill markers"/>
  <path d="m97.378 28.746a2 2 0 0 1-2.732 0.73205 2 2 0 0 1-0.73205-2.732 2 2 0 0 1 2.7321-0.73205 2 2 0 0 1 0.73205 2.7321" fill="#ccc" style="paint-order:stroke fill markers"/>
  <path d="m67.776 80.02a2 2 0 0 1-2.7321 0.73205 2 2 0 0 1-0.73205-2.732 2 2 0 0 1 2.7321-0.73205 2 2 0 0 1 0.73205 2.7321" fill="#777" style="paint-order:stroke fill markers"/>
  <path d="m69.776 45.02a2 2 0 0 1-2.7321 0.73205 2 2 0 0 1-0.73205-2.732 2 2 0 0 1 2.7321-0.73205 2 2 0 0 1 0.73205 2.7321" fill="#777" style="paint-order:stroke fill markers"/>
  <path d="m46.968 96.059a2 2 0 0 1-2.7321 0.73205 2 2 0 0 1-0.73205-2.7321 2 2 0 0 1 2.7321-0.73205 2 2 0 0 1 0.73205 2.7321" fill="#aaa" style="paint-order:stroke fill markers"/>
  <path d="m83.968 19.059a2 2 0 0 1-2.7321 0.73205 2 2 0 0 1-0.73205-2.7321 2 2 0 0 1 2.7321-0.73205 2 2 0 0 1 0.73205 2.7321" fill="#aaa" style="paint-order:stroke fill markers"/>
  <path d="m55.968 101.059a2 2 0 0 1-2.7321 0.73205 2 2 0 0 1-0.73205-2.7321 2 2 0 0 1 2.7321-0.73205 2 2 0 0 1 0.73205 2.7321" fill="#aaa" style="paint-order:stroke fill markers"/>
  <path d="m61.122 63.733a3.225 3.225 0 0 1-4.4054 1.1804 3.225 3.225 0 0 1-1.1804-4.4054 3.225 3.225 0 0 1 4.4054-1.1804 3.225 3.225 0 0 1 1.1804 4.4054" fill="#bbb" style="paint-order:stroke fill markers"/>
  <path d="m40.812 98.713a3.225 3.225 0 0 1-4.4054 1.1804 3.225 3.225 0 0 1-1.1804-4.4054 3.225 3.225 0 0 1 4.4054-1.1804 3.225 3.225 0 0 1 1.1804 4.4054" fill="#ccc" style="paint-order:stroke fill markers"/>
  <path d="m37.157 106.73a3.225 3.225 0 0 1-4.4055 1.1804 3.225 3.225 0 0 1-1.1804-4.4054 3.225 3.225 0 0 1 4.4055-1.1804 3.225 3.225 0 0 1 1.1804 4.4055" fill="#777" style="paint-order:stroke fill markers"/>
  <path d="m100.961 16.8a3.225 3.225 0 0 1-4.4054 1.1804 3.225 3.225 0 0 1-1.1804-4.4054 3.225 3.225 0 0 1 4.4054-1.1804 3.225 3.225 0 0 1 1.1804 4.4054" fill="#777" style="paint-order:stroke fill markers"/>
  <path d="m63.866 87.424a3.225 3.225 0 0 1-4.4054 1.1804 3.225 3.225 0 0 1-1.1804-4.4055 3.225 3.225 0 0 1 4.4055-1.1804 3.225 3.225 0 0 1 1.1804 4.4054" fill="#bbb" style="paint-order:stroke fill markers"/>
 </g>
<path d="m81.164 2.3203-61.963 107.33c1.4471 1.4218 2.9746 2.7798 4.5742 4.0742l63.205-109.48c-1.9207-0.738-3.8617-1.3816-5.8164-1.9238zm25.256 13.68-62.744 108.68c2.6434 0.8929 5.3215 1.5889 8.0137 2.1211l60.576-104.92c-1.8072-2.0658-3.7503-4.0358-5.8457-5.8789z" fill="#fff"/>
</svg>
