<?xml version="1.0" encoding="UTF-8"?>
<svg version="1.1" viewBox="0 0 128 128" xmlns="http://www.w3.org/2000/svg">
 <path d="m128 64c0 35.346-28.654 64-64 64s-64-28.654-64-64 28.654-64 64-64 64 28.654 64 64" fill="#e9a76f" />
 <path d="m64 19-4 2.9727v12.584l-8-4.5566-5 2 1 5 12 6.0078v8.9922l-8-5v8l-8-4.6152v-12.385l-4-3-3 2v9l-11-6-4 3 1 4.5 10 6-8 4.5-1 4 5 2 11-6.5 8 4.5-7 5 7 5.0078-8 4.5-11-6.5-5 2 1 4 8 4.5-10 6-1 4.5 4 3 11-6v9l3 2 4-3v-12.385l8-4.6152v8l8-5v8.9922l-12 6.0078-1 5 5 2 8-4.5566v12.582l4 2.9746 4-2.9746v-12.59l8 4.5566 5-2-1-5-12-6.0078v-8.9922l8 5v-8l8 4.6152v12.385l4 3 3-2v-9l11 6 4-3-1-4.5-10-6 8-4.5 1-4-5-2-11 6.5-8-4.5 7-5-7-5 8-4.5 11 6.5 5-2-1-4-8-4.5 10-6 1-4.5-4-3-11 6v-9l-3-2-4 3v12.385l-8 4.6152v-8l-8 5v-8.9922l12-6.0078 1-5-5-2-8 4.5566v-12.586zm-4 42h8l3 6-3 6-8 4e-3 -3-6.0039z" fill-opacity=".2"/>
 <path d="m64 15-4 2.9727v12.584l-8-4.5566-5 2 1 5 12 6.0078v8.9922l-8-5v8l-8-4.6152v-12.385l-4-3-3 2v9l-11-6-4 3 1 4.5 10 6-8 4.5-1 4 5 2 11-6.5 8 4.5-7 5 7 5.0078-8 4.5-11-6.5-5 2 1 4 8 4.5-10 6-1 4.5 4 3 11-6v9l3 2 4-3v-12.385l8-4.6152v8l8-5v8.9922l-12 6.0078-1 5 5 2 8-4.5566v12.582l4 2.9746 4-2.9746v-12.59l8 4.5566 5-2-1-5-12-6.0078v-8.9922l8 5v-8l8 4.6152v12.385l4 3 3-2v-9l11 6 4-3-1-4.5-10-6 8-4.5 1-4-5-2-11 6.5-8-4.5 7-5-7-5 8-4.5 11 6.5 5-2-1-4-8-4.5 10-6 1-4.5-4-3-11 6v-9l-3-2-4 3v12.385l-8 4.6152v-8l-8 5v-8.9922l12-6.0078 1-5-5-2-8 4.5566v-12.586zm-4 42h8l3 6-3 6-8 0.0039-3-6.0039z" fill="#fff" />
</svg>
