<?xml version="1.0" encoding="UTF-8"?>
<svg version="1.1" viewBox="0 0 128 128" xmlns="http://www.w3.org/2000/svg">
 <path d="m128 64c0 35.346-28.654 64-64 64s-64-28.654-64-64 28.654-64 64-64 64 28.654 64 64" fill="#529add" stroke-width=".2"/>
 <path d="m88 37c4 0 9 0 9-5 0-3-2-4-5-4s-6 1-6 4h-6c0-6 4-10 12-10s12 4 12 10c0 4-2 6-5.7969 7.8203 3.6267 1.4283 5.7969 4.1797 5.7969 8.1797 0 7-4 10-12 10s-12-4-12-10h6c0 3 3 4 6 4s5-1 5-4c0-5-5-5-9-5z" fill-opacity=".2"/>
 <path d="m30 94h-6v-28l-8 4v-6l14-7z" fill-opacity=".2"/>
 <path d="m68 74h-24v-6c4.0966-5.2958 16-11 16-19-0.0797-2.8718-2-4-4-4-4 0-5 3-5 6h-6c0-8 4-12 11-12 6 0 11 3 11 10 0 8-7.5228 13.094-13 19h14z" fill-opacity=".2"/>
 <path d="m39.99 120v-16h24v-16h24v-16h24" fill="none" stroke="#000" stroke-opacity=".2" stroke-width="8"/>
 <path d="m88 33c4 0 9 0 9-5 0-3-2-4-5-4s-6 1-6 4h-6c0-6 4-10 12-10s12 4 12 10c0 4-2 6-5.7969 7.8203 3.6267 1.4283 5.7969 4.1797 5.7969 8.1797 0 7-4 10-12 10s-12-4-12-10h6c0 3 3 4 6 4s5-1 5-4c0-5-5-5-9-5z" fill="#fff"/>
 <path d="m30 90h-6v-28l-8 4v-6l14-7z" fill="#fff"/>
 <path d="m68 70h-24v-6c4.0966-5.2958 16-11 16-19-0.07966-2.8718-2-4-4-4-4 0-5 3-5 6h-6c0-8 4-12 11-12 6 0 11 3 11 10 0 8-7.5228 13.094-13 19h14z" fill="#fff"/>
 <path d="m39.99 116v-16h24v-16h24v-16h24" fill="none" stroke="#fff" stroke-width="8"/>
</svg>
