<?xml version="1.0" encoding="UTF-8"?>
<svg version="1.1" viewBox="0 0 128 128" xmlns="http://www.w3.org/2000/svg">
 <path d="m119.44 96.041c-17.673 30.611-56.815 41.099-87.426 23.426s-41.099-56.815-23.426-87.426 56.815-41.099 87.426-23.426 41.099 56.815 23.426 87.426" fill="#fd5"/>
 <path d="m62.638 0.016057c-21.611 0.48424-42.455 11.906-54.053 31.994-17.673 30.611-7.1852 69.753 23.426 87.426 4.4436 2.5655 9.0699 4.5186 13.781 5.9219l62.238-107.8c-3.5709-3.3785-7.5759-6.4072-12.02-8.9727-10.523-6.0751-22.053-8.822-33.373-8.5684z" fill="#999"/>
 <path d="m108.52 18.121-62.098 107.45c2.5731 0.78515 5.4908 1.2657 8.183 1.7979l59.63-103.08c-1.8072-2.0658-3.6197-4.3188-5.7151-6.1619z" fill-opacity=".2"/>
 <path d="m81.164 2.3203-61.963 107.33c1.4471 1.4218 2.9746 2.7798 4.5742 4.0742l63.205-109.48c-1.9207-0.738-3.8617-1.3816-5.8164-1.9238zm25.256 13.68-62.744 108.68c2.6434 0.8929 5.3215 1.5889 8.0137 2.1211l60.576-104.92c-1.8072-2.0658-3.7503-4.0358-5.8457-5.8789z" fill="#fff"/>
</svg>
