<svg version="1.1" viewBox="0 0 128 128" xml:space="preserve" xmlns="http://www.w3.org/2000/svg"><path d="m128 64c0 35.346-28.654 64-64 64s-64-28.654-64-64 28.654-64 64-64 64 28.654 64 64" fill="#fd5" stroke-width=".2"/><g transform="matrix(1.2778 0 0 1.2778 -16.055 -17.869)"><g transform="matrix(6 0 0 6 16 -6215.2)"><path transform="matrix(.13043 0 0 .13043 -.57497 1038)" d="m25.706 108.77h76.664" fill="none" stroke="#c87137" stroke-width="7.6667" style="mix-blend-mode:color-burn"/><g><rect x="4.2728" y="1040.9" width="7" height="11" fill="#aaa" stroke="#333"/><path d="m2.773 1051.9h9.9996" fill="none" stroke="#c87137"/></g></g><path transform="translate(.01482)" d="m63.796 38.99-3.9122 11.737 4.8903-0.97808-1.9561 10.759 14.671-15.649-9.7809 1.9562 5.8684-9.7809z" fill="#fac800" stroke="#fac800" stroke-linejoin="round" stroke-width=".97809"/><rect transform="matrix(6 0 0 6 16.015 -6214.2)" x="5.6971" y="1045.3" width="1" height="2.1844" fill="#ccc" style="paint-order:normal"/></g></svg>
