<?xml version="1.0" encoding="UTF-8"?>
<svg version="1.1" viewBox="0 0 128 128" xmlns="http://www.w3.org/2000/svg">
 <path d="m128 64c0 35.346-28.654 64-64 64s-64-28.654-64-64 28.654-64 64-64 64 28.654 64 64" fill="#529add" stroke-width=".2"/>
 <path d="m88 113v-16h-24v-16h-24v-16h-24" fill="none" stroke="#000" stroke-opacity=".2" stroke-width="8"/>
 <path d="m88 109v-16h-24v-16h-24v-16h-24" fill="none" stroke="#fff" stroke-width="8"/>
 <path class="st5" d="m58 52.4 30.3 30.2h2.6l23.8-23.8v-2.5l-30.3-30.3h-25.1l-1.3 1.3zm5.3-17.2c0-2.2 1.8-4 4-4s4 1.8 4 4-1.8 4-4 4-4-1.7-4-4z" fill="#fff"/>
 <path class="st6" d="m94.6 45.7c-0.9-0.9-1.9-1.8-2.8-2.6l-1.5 1.2c2.2 3.9-8.8 15.8-13.6 13.6l-1.3 1.4c9.4 10.3 15.3 17 25 7.6 7.3-7.2 0.8-14.9-5.8-21.2zm-12.5-12.4-1.4 1.2c2.3 4.2-8.7 15.8-13.6 13.8l-1.3 1.4 7.3 7.3 1.4-1.2c-2.2-4 8.7-15.8 13.6-13.8l1.2-1.4zm13.7 17.2c4.1 4.1 4.9 8.3 0 13.2-4 3.9-8.2 4.7-12.3-0.1 3.1-4.8 7.6-9 12.3-13.1z" fill="#555"/>
</svg>
