<?xml version="1.0" encoding="UTF-8"?>
<svg version="1.1" viewBox="0 0 128 128" xmlns="http://www.w3.org/2000/svg">
 <path d="m128 64c0 35.346-28.654 64-64 64s-64-28.654-64-64 28.654-64 64-64 64 28.654 64 64" fill="#9bbe55"/>
 <path d="m64 67.012c-13.866 0-32.482 29.797-40.84 46.26 11.082 9.1962 25.314 14.729 40.84 14.729 15.976 0 30.571-5.869 41.785-15.549-9.4099-17.224-28.669-45.439-41.785-45.439z" fill="#646464"/>
 <path d="m58 19v18h-18v12h18v36h12v-36h18v-12h-18v-18z" fill-opacity=".2"/>
 <path d="m64.178 67.023c-1.5786 0.035255-3.2004 0.38508-4.8555 1.0098-9.784 3.9705-20.925 18.999-29.057 32.484 4.592-2.6013 9.5126-6.7304 13.947-6.6328 6.2285 0.13694 8.4108 8.404 14.637 8.1582 4.6687-0.18436 6.5294-5.3933 11.189-5.7598 6.0743-0.47773 8.9874 8.5499 15.066 8.1582 5.0118-0.32296 8.7587-2.8874 11.434-7.2344-9.8707-14.839-22.732-30.001-32.361-30.184z" fill="#f0f0f0"/>
 <path d="m58 15v18h-18v12h18v36h12v-36h18v-12h-18v-18z" fill="#9d6147"/>
</svg>
