<?xml version="1.0" encoding="UTF-8"?>
<svg version="1.1" viewBox="0 0 128 128" xmlns="http://www.w3.org/2000/svg">
 <path d="m128 64c0 35.346-28.654 64-64 64s-64-28.654-64-64 28.654-64 64-64 64 28.654 64 64" fill="#e9a76f" stroke-width=".2"/>
 <path d="m100.59 20.664c-0.41375 0.0062-0.81908 0.11782-1.1777 0.32422l-78.268 45.053c-1.5883 0.91365-1.6363 3.1882-0.0879 4.168 3.1116 1.9674 6.6605 3.1513 10.301 3.9922l-2.0332 1.1738c-0.80626 0.46572-1.2763 1.3505-1.2109 2.2793 0.38024 5.3874 2.6066 10.842 8.4277 14.535 0.7652 0.48542 1.7367 0.50573 2.5215 0.0527l11.125-6.4238c1.333 1.4656 2.8703 2.85 4.6895 4.1133 0.77495 0.53789 1.7909 0.57974 2.6074 0.10742l16.201-9.3535c3.2597 3.8379 8.4948 5.3816 13.287 3.9922l17.365 14.289c1.1788 0.97001 2.657 1.4999 4.1836 1.5h7.3672v1.1133c4.865-6.6016 8.3204-16.669 9.7266-24.475l0.10156-0.58594-7.8281 2v0.5c0.0669 9.2126 1.8095 8.2754-7.0039 8.2754l-14.971-12.316c0.45874-2.242 0.33088-4.6118-0.4707-6.8555l16.859-9.7324c1.1644-0.67255 1.5632-2.1617 0.89062-3.3262l-3.709-6.4258 2.7539-1.5977c1.1378-0.65976 1.546-2.1039 0.92188-3.2617-1.2272-2.2753-1.3369-6.047-2.3008-10.334-0.96393-4.287-3.23-9.1147-9.0156-12.455-0.38084-0.21998-0.81415-0.33269-1.2539-0.32617z" fill-opacity=".2"/>
 <path d="m90.143 66.988-7.7324 9.4004 22.15 18.225a6.087 6.087 0 0 0 3.8672 1.3867h11.006c2.1922-3.8284 4.0056-7.8996 5.377-12.172h-14.199z" fill="#666"/>
 <g transform="matrix(1.1758 .31505 -.31505 1.1758 30.316 -16.4)">
  <path d="m37.615 69.9-8.4853-8.4853-9.9069 9.9069c1.3197 3.8246 3.6614 6.9744 8.4853 8.4853z" fill="#333" stroke="#333" stroke-linejoin="round" stroke-width="4"/>
  <path d="m78.627 37.373-14.142-14.142-36.77 36.77c3.2045 5.8434 6.7023 11.467 14.142 14.142z" fill="#66666f" stroke="#666" stroke-linejoin="round" stroke-width="4"/>
  <circle transform="rotate(-45)" cx="2.859" cy="82.134" r="10" fill="#666" fill-rule="evenodd"/>
  <path d="m10.745 65.657 52.528-52.392c9.5206 2.551 8.98 10.978 12.888 15.119l-37.132 37.273c-7.3263-1.7577-19.49 2.7398-28.284 0z" fill="#ccc" stroke="#999" stroke-linejoin="round" stroke-width="4"/>
  <circle cx="60.03" cy="55.927" r="4.5625" fill="#444" fill-rule="evenodd"/>
 </g>
 <path d="m118.29 75.053v22.818c4.2807-6.8471 7.2958-14.56 8.7344-22.818z" fill="#666"/>
</svg>
