<?xml version="1.0" encoding="UTF-8"?>
<svg version="1.1" viewBox="0 0 128 128" xmlns="http://www.w3.org/2000/svg">
 <path d="M128,64c0,35.3-28.7,64-64,64S0,99.3,0,64,28.7,0,64,0s64,28.7,64,64" fill="#9bbe55"/>
 <path d="m64 12c-8.7948 0-16 7.2052-16 16v44.883c-7.5532 5.2295-12.172 13.831-12.172 23.117-5.58e-4 15.512 12.66 28.172 28.172 28.172 15.512 5.5e-4 28.172-12.66 28.172-28.172 3.2e-5 -9.2864-4.6186-17.888-12.172-23.117v-44.883c0-8.7948-7.2052-16-16-16z" fill-opacity=".2" fill="#000000"/>
 <path d="m64 8c-8.7948 0-16 7.2052-16 16v44.883c-7.5532 5.2295-12.172 13.831-12.172 23.117-5.58e-4 15.512 12.66 28.172 28.172 28.172 15.512 5.5e-4 28.172-12.66 28.172-28.172 3.2e-5 -9.2864-4.6186-17.888-12.172-23.117v-44.883c0-8.7948-7.2052-16-16-16z" fill="#d4d4d4"/>
 <path d="m56 36v37.67c-7.2885 3.1809-12 10.378-12 18.33 0 11.046 8.9543 20 20 20s20-8.9543 20-20c-8.9e-5 -7.9524-4.7115-15.149-12-18.33v-37.67z" fill="#f44336"/>
 <path d="m79.896 79.863a22 22 0 0 1 0.10352 2.1367 22 22 0 0 1-22 22 22 22 0 0 1-12.189-3.6856 20 20 0 0 0 18.189 11.686 20 20 0 0 0 20-20 20 20 0 0 0-4.1035-12.137z" fill="#c33"/>
 <circle cx="58" cy="86" r="6" fill="#ff7070"/>
 <path d="m64 16c-4.4183 0-8 3.5817-8 8v12h16v-12c0-4.4183-3.5817-8-8-8z" fill="#fff"/>
 <g fill="none" stroke="#7e7e7e" stroke-linecap="round" stroke-width="4">
  <path d="m52 62h8"/>
  <path d="m52 50h8"/>
  <path d="m52 38h8"/>
  <path d="m52 26h8"/>
 </g>
</svg>
