<?xml version="1.0" encoding="UTF-8"?>
<svg version="1.1" viewBox="0 0 128 128" xmlns="http://www.w3.org/2000/svg">
    <path d="m128 64c0 35.346-28.654 64-64 64s-64-28.654-64-64 28.654-64 64-64 64 28.654 64 64"
        fill="#9bbe55" />
    <path
        d="m34 27.08c-4.4361 0-8.0332 3.5962-8.0332 8.0332s3.5971 8.0332 8.0332 8.0332c4.437 0 8.0332-3.5963 8.0332-8.0332 0-4.437-3.5962-8.0332-8.0332-8.0332zm-5.1992 19c-4.2652 0-7.702 2.5942-9.8477 5.5625s-3.4542 6.4633-4.4121 9.8496c-1.9159 6.7727-2.3047 13.336-2.3047 13.336-0.4009 5.3798 7.7057 5.8914 7.9844 0.50391 0 0 0.39738-5.9369 2.0176-11.664 0.9055-2.8502 1.9942-5.6416 3.627-7.8633l-3.6367 47.275c-0.076 5.4093 8.0765 5.4093 8 0l2-24h4l2 24c-0.076 5.4093 8.0765 5.4093 8 0l-3.6367-47.275c1.7461 2.3668 2.9284 5.4357 3.627 7.8633 1.6202 5.7273 2.0176 11.664 2.0176 11.664 0.2787 5.3875 8.3853 4.8759 7.9844-0.50391 0 0-0.38879-6.5631-2.3047-13.336-0.9579-3.3863-2.2664-6.8813-4.4121-9.8496s-5.5825-5.5625-9.8477-5.5625c-3.6921 1.3781-7.3062 1.2879-10.855 0z"
        fill-opacity=".2" />
    <path
        d="m94.199 27.08c-4.4361 0-8.0332 3.5962-8.0332 8.0332s3.5971 8.0332 8.0332 8.0332c4.437 0 8.0352-3.5962 8.0352-8.0332s-3.5982-8.0332-8.0352-8.0332zm-4 19c-2.8333 0-5.1513 2.4184-6.8652 3.9805-4.5775 3.7715-4.8081 10.958-9.6309 14.363-4.5552 2.9343-0.023 9.7326 4.4375 6.6562 5.1597-3.6166 5.8497-9.7376 9.6035-14.072 0.1572 11.058-9.3622 20.457-9.5449 30.072 2e-4 2.209 1.791 3.9998 4 4h2.9238l-0.9238 12c-0.076 5.4093 8.0765 5.4093 8 0v-12h4v12c-0.076 5.4093 8.0765 5.4093 8 0l-0.9238-12h2.9238c2.209-2.2e-4 3.9998-1.791 4-4-1.4517-11.037-8.7359-20.099-9.5488-30.127 3.9608 4.4537 5.2015 11.195 9.4473 14.127 4.4606 3.0762 8.9927-3.722 4.4375-6.6562-4.792-4.2041-5.1204-10.413-9.461-14.379-1.7263-1.5554-4.0417-3.9648-6.875-3.9648-3.6604 1.7942-5.768 0.78477-8 0z"
        fill-opacity=".2" />
    <path
        d="m64.2 8.04a3.0003 3.0003 0 0 0-2.9551 3.043v112a3.0003 3.0003 0 1 0 6 0v-112a3.0003 3.0003 0 0 0-3.0449-3.043z"
        fill-opacity=".2" />
    <path
        d="m34 23.1c-4.4361 0-8.0332 3.5982-8.0332 8.0352s3.5971 8.0312 8.0332 8.0312c4.437 0 8.0332-3.5944 8.0332-8.0312 0-4.437-3.5962-8.0352-8.0332-8.0352zm-5.1992 19c-4.2652 0-7.702 2.5942-9.8477 5.5625s-3.4542 6.4633-4.4121 9.8496c-1.9159 6.7727-2.3047 13.336-2.3047 13.336-0.4009 5.3798 7.7057 5.8914 7.9844 0.50391 0 0 0.39738-5.9369 2.0176-11.664 0.9055-2.8502 1.9942-5.6416 3.627-7.8633l-3.6367 47.275c-0.076 5.4093 8.0765 5.4093 8 0l2-24h4l2 24c-0.076 5.4093 8.0765 5.4093 8 0l-3.6367-47.275c1.7461 2.3668 2.9284 5.4357 3.627 7.8633 1.6202 5.7273 2.0176 11.664 2.0176 11.664 0.2787 5.3875 8.3853 4.8759 7.9844-0.50391 0 0-0.38879-6.5631-2.3047-13.336-0.9579-3.3863-2.2664-6.8813-4.4121-9.8496s-5.5825-5.5625-9.8477-5.5625c-3.6921 1.3781-7.3062 1.2879-10.855 0z"
        fill="#fff" />
    <path
        d="m94.199 23.1c-4.4361 0-8.0332 3.5982-8.0332 8.0352s3.5971 8.0312 8.0332 8.0312c4.437 0 8.0352-3.5942 8.0352-8.0312s-3.5982-8.0352-8.0352-8.0352zm-4 19c-2.8333 0-5.1513 2.4184-6.8652 3.9805-4.5775 3.7715-4.8081 10.958-9.6309 14.363-4.5552 2.9343-0.023 9.7326 4.4375 6.6562 5.1597-3.6166 5.8497-9.7376 9.6035-14.072 0.1572 11.058-9.3622 20.457-9.5449 30.072 2e-4 2.209 1.791 3.9998 4 4h2.9238l-0.92383 12c-0.076 5.4093 8.0765 5.4093 8 0v-12h4v12c-0.076 5.4093 8.0765 5.4093 8 0l-0.92383-12h2.9238c2.209-2.2e-4 3.9998-1.791 4-4-1.4517-11.037-8.7359-20.099-9.5488-30.127 3.9608 4.4537 5.2015 11.195 9.4473 14.127 4.4606 3.0762 8.9927-3.722 4.4375-6.6562-4.792-4.2041-5.1203-10.413-9.4609-14.379-1.7263-1.5554-4.0417-3.9648-6.875-3.9648-3.6604 1.7942-5.768 0.78477-8 0z"
        fill="#fff" />
    <path
        d="m64.2 4.06a3.0003 3.0003 0 0 0-2.9551 3.043v112a3.0003 3.0003 0 1 0 6 0v-112a3.0003 3.0003 0 0 0-3.0449-3.043z"
        fill="#fff" />
</svg>
