<?xml version="1.0" encoding="UTF-8"?>
<svg version="1.1" viewBox="0 0 128 128" xml:space="preserve" xmlns="http://www.w3.org/2000/svg">
    <path d="m128 64c0 35.346-28.654 64-64 64s-64-28.654-64-64 28.654-64 64-64 64 28.654 64 64" fill="#9bbe55" stroke-width=".2"/><rect x="28" y="64" width="72" height="8" fill-opacity=".2"/><rect x="28" y="20" width="72" height="8" fill-opacity=".2"/><g>
    
    
<path d="m44 68v56.812c6.2924 2.0682 13.016 3.1875 20 3.1875 6.9844 0 13.708-1.1193 20-3.1875v-56.812z" fill="#888"/><path d="m50 68.087v58.465c4.5059 1.0055 9.191 1.5352 14 1.5352 4.809 0 9.4941-0.52965 14-1.5352v-58.465z" fill="#a8a8a8"/><path d="m58 68v59.723c1.9753 0.18366 3.9767 0.27734 6 0.27734s4.0247-0.0937 6-0.27734v-59.723z" fill="#c6c6c6"/></g><g transform="translate(0,12)"><path d="m32 12v36h63.998l2e-3 -36z" fill="#9c9c9c"/><path d="m40 12v36h48l-1e-5 -36z" fill="#aaa"/><path d="m76 12v36h-24v-36z" fill="#c6c6c6"/><rect x="32" y="20" width="64" height="20" fill="#bacfef"/><rect x="28" y="48" width="72" height="8" fill="#5878b7"/><rect x="28" y="4" width="72" height="8" fill="#5878b7"/><rect x="32" y="20" width="64" height="4" fill="#859dbf"/><g fill="#6f829f"><rect x="32" y="20" width="4" height="20"/><rect x="92" y="20" width="4" height="20"/><rect x="80" y="20" width="6" height="20"/><rect x="60" y="20" width="8" height="20"/><rect x="42" y="20" width="6" height="20"/></g><rect x="44" y="56" width="40" height="4" fill-opacity=".2" stroke-width=".70711"/></g></svg>
