<svg version="1.1" viewBox="0 0 128 128" xml:space="preserve" xmlns="http://www.w3.org/2000/svg">
    <path d="M128,64C128,99.346 99.346,128 64,128 28.654,128 0,99.346 0,64 0,28.654 28.654,0 64,0c35.346,0 64,28.654 64,64"
        fill="#9bbe55" stroke-width="0.2"/>
    <path d="M64,26 L86,42 L42,42 M40,42 H88 V52 H40 M46,52 L54,52 L44,100 L36,100 M74,52 L82,52 L92,100 L84,100 M60,52 H68 V92 H60 M44,68 H84 V72 H44 M44,80 H84 V84 H44 M32,100 H96 V108 H32 M30,108 H98 V112 H30"
        fill="#000000" fill-opacity="0.2"/>
    <path d="M64,22 L86,38 L42,38 M40,38 H88 V48 H40 M46,48 L54,48 L44,96 L36,96 M74,48 L82,48 L92,96 L84,96 M60,48 H68 V88 H60 M44,64 H84 V68 H44 M44,76 H84 V80 H44 M32,96 H96 V104 H32 M30,104 H98 V108 H30"
        fill="#FFFFFF"/>
</svg>
