<?xml version="1.0" encoding="UTF-8"?>
<svg version="1.1" viewBox="0 0 128.02 128.02" xmlns="http://www.w3.org/2000/svg">
 <path d="m119.44 96.011c-17.673 30.611-56.815 41.099-87.426 23.426-30.611-17.673-41.099-56.815-23.426-87.426 17.673-30.611 56.815-41.099 87.426-23.426 30.611 17.673 41.099 56.815 23.426 87.426" fill="#fd5" stroke-width=".2"/>
 <path d="m39.005 24.001c-2.216 0-4 1.784-4 4 0 2.216 1.784 4 4 4l-5.6406 22.563a30 30 0 0 0-18.092 11.086l4.7637 3.6836a24 24 0 0 0-5.0313 14.668 24 24 0 0 0 24 24 24 24 0 0 0 22.076-14.715l5.5781 2.3457a30 30 0 0 0 1.2422-3.6309h7.4316a17.459 17.459 0 0 0 17.381 15.918 17.459 17.459 0 0 0 17.459-17.459 17.459 17.459 0 0 0-1.3594-6.7168l2.1914 0.25781 4-12c-1e-5 -18.448-14.281-15.634-34.139-16.557l-5.8613-23.443c2.216 0 4-1.784 4-4 0-2.216-1.784-4-4-4zm8 8h20l4 20h-28zm14.338 32h0.48828l-0.3203 0.20312a30 30 0 0 0-0.16798-0.2031z" fill-opacity=".2" fill-rule="evenodd"/>
 <g transform="rotate(30 -137.09 866.15)">
  <path transform="rotate(-30 -367.58 65.67)" d="m-392 36-8 32h52l-8-32h-8l4 20h-28l4-20z" fill="#888" fill-rule="evenodd"/>
  <path transform="rotate(-30)" d="m-355.59-112.59h32v16h-32z" fill="#468e2d" style="paint-order:normal"/>
  <path d="m-360.17 53.838-17.925 34.453 62.89-27.072-2.5359-12.392c-10-17.321-22.022-4.6061-42.429 5.0108z" fill="#80d53b" fill-rule="evenodd"/>
  <path d="m-312.7 67.229a17.459 17.459 0 0 1-6.3905 23.85 17.459 17.459 0 0 1-23.85-6.3905 17.459 17.459 0 0 1 6.3905-23.85 17.459 17.459 0 0 1 23.85 6.3905" fill="#666" style="paint-order:normal"/>
  <path d="m-320.26 71.594a8.7296 8.7296 0 0 1-3.1953 11.925 8.7296 8.7296 0 0 1-11.925-3.1953 8.7296 8.7296 0 0 1 3.1953-11.925 8.7296 8.7296 0 0 1 11.925 3.1953" fill="#aaa" style="paint-order:normal"/>
  <path transform="rotate(-30)" d="m-375.59-164.59h36c2.216 0 4 1.784 4 4s-1.784 4-4 4h-36c-2.216 0-4-1.784-4-4s1.784-4 4-4z" fill="#80d53b" style="paint-order:normal"/>
  <path d="m-350.46 56.167 20.785-12" fill="none" stroke="#468e2d" stroke-linecap="round" stroke-width="3"/>
  <path transform="rotate(-15)" d="m-417.53-15.397a30 30 0 0 1 35.57-17.359 30 30 0 0 1 21.825 33.019l-29.722-4.0768z" fill="#468e2d" style="paint-order:normal"/>
  <path d="m-347.46 61.363 20.785-12" fill="none" stroke="#468e2d" stroke-linecap="round" stroke-width="3"/>
  <path d="m-351.25 53.302-17.925 34.453 62.89-27.072-2.5359-12.392c-10-17.321-22.022-4.6061-42.429 5.0108z" fill-opacity="0"/>
  <path d="m-356.78 85.219a24 24 0 0 1-8.7846 32.785 24 24 0 0 1-32.785-8.7846 24 24 0 0 1 8.7846-32.785 24 24 0 0 1 32.785 8.7846" fill="#666" style="paint-order:normal"/>
  <path d="m-367.17 91.219a12 12 0 0 1-4.3923 16.392 12 12 0 0 1-16.392-4.3923 12 12 0 0 1 4.3923-16.392 12 12 0 0 1 16.392 4.3923" fill="#aaa" style="paint-order:normal"/>
 </g>
</svg>
