<?xml version="1.0" encoding="UTF-8"?>
<svg version="1.1" viewBox="0 0 128 128" xmlns="http://www.w3.org/2000/svg">
 <path d="m119.42 95.994c-17.67 30.605-56.806 41.092-87.411 23.422s-41.092-56.806-23.422-87.411 56.806-41.092 87.411-23.422 41.092 56.806 23.422 87.411" fill="#529add" stroke-width=".19997"/>
 <path d="m44 20v36h-16c-1.0546 12.363 6.0193 12.514 16 20v8h-15.998c-1.0545 12.362 6.0185 12.514 15.998 19.998v12.002h40v-12.002c9.9795-7.4843 17.053-7.636 15.998-19.998h-15.998v-8.002c9.9795-7.4843 17.053-7.636 15.998-19.998h-15.998v-8c9.9807-7.486 17.055-7.637 16-20h-16v-8zm0 28-2e-3 -20h-15.998c-1.0546 12.363 6.0193 12.514 16 20z" fill-opacity=".2"/>
 <path d="m44 16h40v96h-40z" fill="#888"/>
 <path d="M 75.536,37.46 A 11.996,11.996 0 0 1 63.54,49.456 11.996,11.996 0 0 1 51.544,37.46 11.996,11.996 0 0 1 63.54,25.464 11.996,11.996 0 0 1 75.536,37.46" fill="#ff6969" stroke="#555" stroke-width="3"/>
 <path d="m75.54 65.483a11.998 11.998 0 0 1-11.998 11.998 11.998 11.998 0 0 1-11.998-11.998 11.998 11.998 0 0 1 11.998-11.998 11.998 11.998 0 0 1 11.998 11.998" fill="#ffff69" stroke="#555" stroke-width="2.9995"/>
 <path d="m75.522 93.509a11.998 11.998 0 0 1-11.998 11.998 11.998 11.998 0 0 1-11.998-11.998 11.998 11.998 0 0 1 11.998-11.998 11.998 11.998 0 0 1 11.998 11.998" fill="#69ff69" stroke="#555" stroke-width="2.9995"/>
 <path d="m28 24c-1.0546 12.363 6.0193 12.514 16 20l-0.001953-20h-15.998zm56 0v20c9.9807-7.486 17.055-7.637 16-20h-16zm-56 28c-1.0546 12.363 6.0193 12.514 16 20v-20h-16zm56 0-0.001953 20c9.9807-7.486 17.055-7.637 16-20h-15.998zm-55.998 28c-1.0546 12.363 6.0193 12.514 16 20l-0.001953-20h-15.998zm55.998 0-0.001953 20c9.9807-7.486 17.055-7.637 16-20h-15.998zm-26 32v15.723c4.0002 0.36983 8.0003 0.37219 12-0.01172v-15.711h-12z" fill="#555"/>
 <path d="m75.518 37.441s-5.3718 7.9492-11.998 7.9492c-6.6263 0-11.988-7.9062-11.988-7.9062 0 6.6263 5.3619 11.986 11.988 11.986 6.6264 0 11.998-5.4032 11.998-12.029zm0 27.996s-5.3718 7.9473-11.998 7.9473c-6.6263 0-11.988-7.9062-11.988-7.9062 0 6.6263 5.3619 11.988 11.988 11.988 6.6264 0 11.998-5.4032 11.998-12.029zm0.011719 28.037s-5.3718 7.9492-11.998 7.9492-11.986-7.9063-11.986-7.9063c0 6.6263 5.3599 11.986 11.986 11.986 6.6263 0 11.998-5.4032 11.998-12.029z" fill="#fff" fill-opacity=".37647"/>
 <path d="m92 64a28 28 0 0 1-28 28 28 28 0 0 1-28-28 28 28 0 0 1 28-28 28 28 0 0 1 28 28" fill="#ffff69" fill-opacity=".26667" stroke-width="1.0123"/>
</svg>
