<?xml version="1.0" encoding="UTF-8"?>
<svg version="1.1" viewBox="0 0 128 128" xml:space="preserve" xmlns="http://www.w3.org/2000/svg"><path d="m128 64c0 35.346-28.654 64-64 64s-64-28.654-64-64 28.654-64 64-64 64 28.654 64 64" fill="#529add" stroke-width=".2"/><rect x="16.012" y="20" width="48" height="91.999" ry="24" fill-opacity=".2" stroke-width="1.544"/><rect x="16.012" y="16.001" width="48" height="91.999" ry="24" fill="#888" stroke-width="1.544"/><path d="m55.407 83.994a15.401 15.527 0 0 1-15.401 15.527 15.401 15.527 0 0 1-15.401-15.527 15.401 15.527 0 0 1 15.401-15.527 15.401 15.527 0 0 1 15.401 15.527" fill="#69ff69" stroke="#555" stroke-width="6.1768"/><path d="m55.392 83.946s-6.9206 10.24-15.457 10.24c-8.5371 0-15.444-10.186-15.444-10.186 0 8.537 6.9063 15.444 15.444 15.444 8.537 0 15.457-6.9608 15.457-15.498z" fill="#fff" fill-opacity=".37647" stroke-width="1.5442"/><path d="m55.405 40.385a15.401 15.527 0 0 1-15.401 15.527 15.401 15.527 0 0 1-15.401-15.527 15.401 15.527 0 0 1 15.401-15.527 15.401 15.527 0 0 1 15.401 15.527" fill="#ff6969" stroke="#555" stroke-width="6.1768"/><path d="m55.405 40.339s-6.9206 10.24-15.457 10.24c-8.5371 0-15.444-10.186-15.444-10.186 0 8.537 6.9063 15.444 15.444 15.444 8.537 0 15.457-6.9608 15.457-15.498z" fill="#fff" fill-opacity=".37647" stroke-width="1.544"/><path d="m86.532 28.615c0.46044 4.2186-1.7703 35.228 0.20558 37.298 4.1905-6.2858 3.3897-16.475 5.1802-25.366 1.1056-5.2498 2.7423-8.2579 5.954-8.2887 3.2116-0.0293 4.3173 4.0021 3.8912 8.3564-0.53108 5.3858-1.4514 11.155-2.3285 16.688-0.53391 3.086-3.0426 22.295 1.7724 9.7402 0.99436-2.6496 2.9276-9.7089 4.5829-13.538 1.6552-3.8295 4.1936-5.1325 7.2694-3.5082 3.0758 1.6244 0.40167 8.7577-0.1419 10.524-0.82768 2.699-2.7362 11.982-3.7738 16.083-1.05 5.1572-3.5266 21.709-9.7647 26.261-10.654 7.7882-28.238 6.1826-34.84-1.4636-6.6025-7.6462-6.862-12.482-12.538-18.77-4.8051-5.324-10.988-4.5087-13.334-7.2202-1.9702-2.2852 0.94487-5.7623 2.0566-6.7197 1.9763-1.7047 9.2149-3.5389 14.965 3.1252 2.2359 2.5879 4.9968 4.2987 7.6526 2.0073 4.0595-6.2491-2.8228-29.954-4.1071-35.335-1.0006-4.0332 1.1056-6.417 3.7243-7.0408 2.6187-0.62405 5.367 0.93852 7.0161 9.0048 2.9361 12.243 3.1449 19.173 5.4598 22.754 0.63001 0.04883 1.1487-1.476 1.2599-2.9706 0.16016-6.3995-0.0752-12.803 0-19.202 0.09278-5.9726-2.3408-16.491 4.9904-17.195 2.7413 0.25587 4.5517 2.7052 4.8484 4.775z" fill-opacity=".2" stroke-width="1.3205"/><path d="m86.532 24.615c0.46044 4.2186-1.7703 35.228 0.20558 37.298 4.1905-6.2858 3.3897-16.475 5.1802-25.366 1.1055-5.2498 2.7423-8.2579 5.954-8.2887 3.2116-0.0293 4.3173 4.0021 3.8912 8.3564-0.53108 5.3858-1.4514 11.155-2.3285 16.688-0.53391 3.086-3.0426 22.295 1.7724 9.7402 0.99436-2.6496 2.9276-9.7089 4.5829-13.538 1.6552-3.8295 4.1936-5.1325 7.2694-3.5082 3.0758 1.6244 0.40167 8.7577-0.1419 10.524-0.82768 2.699-2.7362 11.982-3.7738 16.083-1.05 5.1572-3.5266 21.709-9.7647 26.261-10.654 7.7882-28.238 6.1826-34.84-1.4636-6.6025-7.6462-6.862-12.482-12.538-18.77-4.8051-5.324-10.988-4.5087-13.334-7.2201-1.9702-2.2852 0.94487-5.7623 2.0566-6.7197 1.9763-1.7047 9.2149-3.5389 14.965 3.1252 2.2359 2.5879 4.9968 4.2987 7.6526 2.0073 4.0595-6.2491-2.8228-29.954-4.1071-35.335-1.0006-4.0332 1.1056-6.417 3.7243-7.0408 2.6187-0.62405 5.367 0.93852 7.0161 9.0048 2.9361 12.243 3.1449 19.173 5.4598 22.754 0.63001 0.04883 1.1487-1.476 1.2599-2.9706 0.16016-6.3995-0.0752-12.803 0-19.202 0.09278-5.9726-2.3408-16.491 4.9904-17.195 2.7413 0.25587 4.5516 2.7052 4.8484 4.775z" fill="#f5ffff" stroke-width="1.3205"/></svg>
