<svg version="1.1" viewBox="0 0 128 128" xml:space="preserve" xmlns="http://www.w3.org/2000/svg"><g transform="matrix(.125 0 0 .125 .01 .035)"><path d="m512 512m-512 0a512 512 0 1 0 1024 0 512 512 0 1 0-1024 0z" fill="#95c4f8"/><path d="m43 307c-15.5 35.4-27 72.5-34.1 111-3.39 19.3-3.49 19.6-6.14 41.4 0 46.8 12.1 102 24.6 145 93.2 4.72 241 4.72 241 4.72l81.1-124-53.3-1.34c-100 0-168-140-253-176zm836 104c-54.9 0-77.6 72.5-151 72.5l24 169s188 15.8 204 19.9c9.06 2.33 29.7-4.35 45.8-10.6 14.4-47.2 22.2-97.4 22.2-149 0-3.65-0.2-7.25-0.276-10.9-2.97-2.37-113-90.4-145-90.4z" fill="#7e7e92"/><path d="m677 920 272-142c31.3-51.4 53.8-109 65.4-170 0 0-108 3-151-16-52.9-23.4-173-189-248-288-13.9-17.5-27.5-33.8-40.3-48.1-22.2-24.6-87.1-32-96-32-7.68 0-69.9 73.2-115 128-68.4 83.6-149 184-189 224l-66.6 136z" fill="#6e6e84"/><path d="m461 719c-7.46-3.72-24.8-13.1-40-33.2s-15.3-33.3-33.3-42.3c-20.2-10.1-20-11-44-23s-24-20-38.5-37c-15.9-18.6-40.6-17.6-64.6-28.3s-34.2-29.6-48.9-36.7-24 0.666-37.3-6.13c-18.1-9.21-19.1-35.4-41.7-32.7s-28.2 10.6-43.7-3.16c-25.8-23-37.8-8.5-66.6-17.3a518 518 0 0 0-2.77 53.3c0 43.2 5.41 85.2 15.5 125 22.8 4.45 47.8 9.18 72.6 14.7 77.4 17.3 281 81.3 353 93.3s27.5-23 20-26.8z" fill="#00a07d"/><path d="m1.91 555c12.3 149 88.3 280 201 365h185l252-152c-210 0-327-212-638-213z" fill="#52c883"/><path d="m512 1024c250 0 458-179 503-416-189 0.056-421 237-631 208-116-16-146-48.1-296-16.8 92.1 136 248 225 424 225z" fill="#34be71"/><path d="m835 748a6.68 6.68 0 0 1-6.68-6.67v-71.9a6.68 6.68 0 0 1 6.68-6.67 6.68 6.68 0 0 1 6.68 6.67v71.9a6.68 6.68 0 0 1-6.68 6.67z" fill="#674447"/><path d="m877 663c0 23.2-18.8 42.1-42.1 42.1s-42.1-18.8-42.1-42.1 18.8-94.7 42.1-94.7 42.1 71.4 42.1 94.7z" fill="#00a07d"/><path d="m835 568c-5.83 0-11.4 4.51-16.4 11.6h2e-3c21.3 0 38.5 65.4 38.5 86.6 0 18.5-13.1 33.9-30.4 37.6 2.71 0.548 5.51 0.844 8.38 0.844 23.2 0 42.1-18.8 42.1-42.1s-18.8-94.7-42.1-94.7z" fill="#36b294"/><path d="m944 757a6.68 6.68 0 0 1-6.68-6.67v-71.9c0-3.69 2.99-6.67 6.68-6.67s6.68 2.99 6.68 6.67v71.9a6.68 6.68 0 0 1-6.68 6.67z" fill="#674447"/><path d="m986 672c0 23.2-18.8 42.1-42.1 42.1s-42.1-18.8-42.1-42.1 18.8-94.7 42.1-94.7 42.1 71.4 42.1 94.7z" fill="#00a07d"/><path d="m944 578c-5.83 0-11.4 4.51-16.4 11.6h2e-3c21.3 0 38.5 65.4 38.5 86.6 0 18.5-13.1 33.9-30.4 37.6 2.71 0.548 5.51 0.844 8.38 0.844 23.2 0 42.1-18.8 42.1-42.1 0-23.2-18.8-94.7-42.1-94.7z" fill="#36b294"/><path d="m971 738c-283-53.8-343 167-788 167 88.9 74.5 203 119 328 119 202 0 376-117 459-286z" fill="#44a67d"/><path d="m616 304c-13.9-17.5-27.5-33.8-40.3-48.1-22.2-24.6-87.1-32-96-32-7.68 0-69.9 73.2-115 128-17.4 21.2-35.6 43.6-53.7 65.8 7.83 10.9 23 26.3 45.4 24.1 44.1-4.3 52.7-56 86.1-51.7 45.4 5.86 38.5 138 86.1 138 46.3 0 14.2-100 68.9-121 40.3-15.1 55.1 28.2 123 33.8-37.1-47.5-74.2-97.6-104-137z" fill="#c3e1f5"/><path d="m636 330c-6.62-8.82-13.1-17.4-19.2-25.5-13.9-17.5-27.5-33.8-40.3-48.1-22.2-24.6-87.1-32-96-32-5.35 0-37.2 35.6-71.4 75.7 37.4-29.7 57.7-17.5 64.7 17.2 16 80.1 33.3 144 53.3 93.8s11.2-79.7 69.9-73.7c23.2 2.37 27.9-4.41 39-7.47z" fill="#edf5fb"/><path d="m961 455c-31.8-22.2-66.8-43.9-82.4-43.9-34.8 0-56.7 29-86.6 50.4l0.022 0.014c49.7-8.39 53.3 55.6 76.3 55.6 26.9 0 27.6-34.3 54-22.7 51.3 22.7 12.7-30.3 38.7-39.4z" fill="#c3e1f5"/><path d="m930 434c-21.3-13.2-40.7-23.2-51.2-23.2-23.8 0-41.5 13.6-60 29 26.2 11.4 47 44.7 79.2 23.3 21.3-14.2 25.2-22.8 32-29.1z" fill="#edf5fb"/><path d="m778 778a8.31 8.31 0 0 1-8.31-8.3v-89.4c0-4.59 3.72-8.3 8.31-8.3s8.31 3.72 8.31 8.3v89.4a8.31 8.31 0 0 1-8.31 8.3z" fill="#674447"/><path d="m831 672c0 28.9-23.4 52.3-52.3 52.3s-52.3-23.4-52.3-52.3 23.4-118 52.3-118 52.3 88.9 52.3 118z" fill="#00a07d"/><path d="m778 555c-7.26 0-14.2 5.61-20.4 14.5h2e-3c26.5 0 47.9 81.3 47.9 108 0 23-16.2 42.2-37.9 46.8 3.37 0.68 6.85 1.05 10.4 1.05 28.9 0 52.3-23.4 52.3-52.3-2e-3 -28.9-23.4-118-52.3-118z" fill="#36b294"/><path d="m893 765a7.85 7.85 0 0 1-7.85-7.85v-84.5c0-4.33 3.51-7.85 7.85-7.85s7.85 3.51 7.85 7.85v84.5a7.85 7.85 0 0 1-7.85 7.85z" fill="#674447"/><path d="m942 665c0 27.3-22.1 49.5-49.5 49.5s-49.5-22.1-49.5-49.5 22.1-111 49.5-111c27.3 0 49.5 84 49.5 111z" fill="#00a07d"/><path d="m893 554c-6.86 0-13.4 5.3-19.3 13.7h2e-3c25 0 45.3 76.8 45.3 102 0 21.7-15.3 39.9-35.8 44.2 3.18 0.644 6.47 0.992 9.85 0.992 27.3 0 49.5-22.1 49.5-49.5-2e-3 -27.3-22.1-111-49.5-111z" fill="#36b294"/><path d="m714 787a6.85 6.85 0 0 1-6.86-6.85v-73.8c0-3.78 3.07-6.85 6.86-6.85s6.86 3.07 6.86 6.85v73.8a6.85 6.85 0 0 1-6.86 6.85z" fill="#674447"/><path d="m757 700c0 23.8-19.3 43.2-43.2 43.2-23.8 0-43.2-19.3-43.2-43.2s19.3-97.2 43.2-97.2c23.8 0 43.2 73.3 43.2 97.2z" fill="#00a07d"/><path d="m714 603c-5.99 0-11.7 4.63-16.9 11.9h2e-3c21.8 0 39.5 67.1 39.5 88.9 0 19-13.4 34.8-31.3 38.6 2.78 0.562 5.65 0.866 8.6 0.866 23.8 0 43.2-19.3 43.2-43.2 0-23.8-19.3-97.2-43.2-97.2z" fill="#36b294"/><path d="m512 1024c135 0 257-52.1 349-137-55.6 9.2-140-84.8-228-50.5-39.2 15.3-164 121-272 165 48 14.9 98.9 23 152 23z" fill="#5f5f74"/></g><g transform="matrix(.6 0 0 .6 25.6 40.4)"><path d="m12.8 29.7v-9.19c0.98-1.14 3.82-3.48 10.8-4.16 1.86-0.18 3.66-0.27 5.35-0.27 6.68 0 14.8 0.63 18.2 3.35 1.79 1.48 3.25 2.64 3.8 3.52l-15.4 12.1z" fill="#263238"/><path d="m119 94.9s-3.7-13.4-9.94-15.3c-4.67-1.4-9.57-1.61-14.4-1.94-3.25-0.22-6.3-1.09-8.75-3.31-2.62-2.37-14.8-17.2-19.9-24.7-1.93-2.81-0.25-7.49 0.63-10.9 0.88-3.41 2-6.85 1.77-10.4-0.26-3.87-2.2-6.47-8.3-7.26-4.7-0.61-7.03-0.38-7.03-0.38-3.54-4.36-13.8-7.02-23.2-6.48-6.17 0.36-14.6 1.19-19.5 5.52-3.08 2.77-4.19 8.96-0.27 13.2-3.26 2.08-3.64 6.07-2.74 8.97 0.89 2.87 2.91 4.02 3.01 4.86 0.1 0.81 0.44 8.81 0.82 12 0.43 3.59-1.39 7.01-2.56 10.4-0.86 2.5-1.45 7.13-1.22 10.6 0.07 1-0.03 1.84 0.19 2.58 0.22 0.73 0.75 1.37 1.14 1.69 7.91 6.45 24.7 10.6 28.2 12.7 3.54 2.08 21 14.2 32.3 16 11.2 1.87 25.7 1.47 38.6-6.65 12.9-8.15 11.1-11.2 11.1-11.2zm-93.9-76.3c15-0.98 20.7 2.04 22.5 3.99 0 0-5.29 1.07-7.07 4.49-0.78 1.49-1.75 3.18-1.69 4.87-3.51-3.06-7.2-2.42-11.5-2.7-5.83-0.38-12.5-2.16-12.3-5.72 0.18-3.94 8.01-4.8 10-4.93z" fill="#784d30"/><path d="m34.9 29.2c-1.08 3.29 0.16 6.85 1.4 10.1 1.31 3.43 2.62 6.87 3.92 10.3" fill="none"/><path d="m93.9 96.4c0.89-0.61 1.76-1.31 2.27-2.25s0.62-2.19-0.01-3.06c-0.72-1-2.16-1.24-3.36-0.93s-2.23 1.04-3.3 1.66c-1.39 0.8-4.83 2.12-7.95 2.98-3.09 0.86-4.98 2.6-4.48 4.48 0.85 3.21 6.28 1.73 8.08 1.25 3-0.8 6.17-2.36 8.75-4.13z" fill="#a06841"/><path d="m23.7 65.4c1.63 2.37 1.34 6.02-0.93 7.78-1.2 0.93-2.74 1.27-4.03 2.06-0.77 0.47-2.71 2.51-4.81 1.98-1.19-0.3-1.7-1.74-1.92-2.94-0.67-3.63 0.47-7.59 3.14-10.2 2.43-2.43 6.86-1.09 8.55 1.37z" fill="#a06841"/><path d="m124 100c0.75-2.26 0.26-4.77-0.46-6.98-0.55-0.93-2.06-1.17-3.02-1.55-0.27-0.09-2.53-0.52-2.59-0.7 0.3 0.98 0.8 1.93 0.91 2.96 0.07 1.43-4.13 6.99-12.8 11-22 10.1-35.6 5.95-39 5.37-10.9-1.99-22-9.38-29.4-14-7.86-3.59-19.6-6.32-27.1-11.8-0.93-0.66-1.96-1.3-2.39-2.42 0 0-0.1-0.25-0.14-0.51-0.07-0.51-0.2-1.75-0.2-1.75-1.56 0.96-3.39 2.4-3.37 4.43l-0.07 6.98c-0.01 0.7 0.28 1.37 0.8 1.84 1.12 1.03 3.1 2.28 4.55 3.15 0.86 0.51 1.81 0.32 2.02-0.72 0.08-0.39 0.18-0.78 0.3-1.17 0.41-1.49 1.4-0.52 2.45-0.09 0.36 0.17 0.81 0.32 0.8 0.78v3.22c0 0.88 0.52 1.66 1.34 1.99 1.29 0.35 3.63 2.1 4.94 0.79 0.43-0.96 0.27-2.27 0.98-3.08 0.53-0.32 1.9 0.39 2.41 0.58 0.79 0.3 0.18 3.16 0.15 3.53-0.07 0.89 0.39 1.62 1.25 1.95l2.74 1.04c0.58 0.22 1.75 0.22 2.18-0.33 0.53-0.87 0.36-2.04 0.86-2.92 0.61-0.84 2.11 0.31 2.76 0.64 1.18 0.57 2.54 1.4 3.64 2.13 3.24 2.08 5.03 2.96 9.94 5.57 0.2 0.11 0.33 0.31 0.34 0.53l0.17 3.19c0.2 2.13 3 2.53 4.52 3.54 0.58 0.29 1.69 0.41 2.11-0.21 0.37-0.69 0.4-1.53 0.79-2.23 0.39-0.83 1.34-0.6 2.03-0.34 2.83 0.72 1.8 2.37 1.85 4.55 0.05 0.81 0.83 1.54 1.59 1.77 1.41 0.42 3.16 0.84 4.08 1.05 2.24 0.51 2.1-1.88 2.24-3.2 0.05-0.58 0.14-1.6 0.99-1.5 0.77 0.09 1.54 0.17 2.32 0.24 0.32 0.03 0.57 0.28 0.59 0.6l0.15 2.85c0.06 1.12 0.98 2.02 2.09 2.05 1.55 0.04 3.83 0.06 5.6 0.04 0.91 0.02 1.75-0.74 1.67-1.69 0.06-1.56-0.93-3.25 1.13-3.79 0.76-0.24 2.91-0.51 3.77-0.55 0.75-0.03 0.85 0.54 0.96 1.66 0.08 0.76 0.07 1.65 0.63 2.16 0.4 0.37 1.01 0.39 1.55 0.31 12.8-1.84 28.2-9.4 34.4-20.9z" fill="#e2a610"/><g fill="none" stroke-miterlimit="10" stroke-width="3.07"><g stroke="#c62828"><g stroke-linecap="round"><path d="m44.2 50.5c2.66 3.84 19 0.28 24.3 2.77"/><path d="m48.8 60.7c1.9 2.88 18.8-2.59 24.7-0.98"/><path d="m55.1 69.4c2.35 2.72 16-4.61 23.7-3.14"/></g><path d="m62.3 76.5c1.73 3.3 15.4-5.46 23-2.24 0.87 0.37 1.75 0.9 0.89 1.29-6.12 2.77-14.2 9.37-17.2 7.27"/></g><g stroke="#f44336" stroke-linecap="round"><path d="m67.3 82.2c0.48-6.63 6.51-12.4 11.4-16"/><path d="m60.3 75.5c0-5.74 10.3-14.4 13.2-15.8"/><path d="m53 68.2c2.35-6.47 9.95-11.8 15.5-14.9"/><path d="m47.7 58.5c3.72-5.59 11.7-9.35 17.4-11.2"/><path d="m44.5 47.9c4.89-5.52 13.9-6.96 21.2-6.09"/></g></g><path d="m39.5 35c1.04 4.38 1.04 9.15 0.86 13.6 4.84-4.16 5.05-11.1 4.86-17.1-0.11-1.21 0.11-2.51 1.7-3.53 5.16-3.33 10.7-4.64 16.5-4.26 2.33 0.16 4 1.23 4 1.23-1.15-2.25-3.5-3.91-7.69-4.26-5.59-0.46-12.1 0.05-16.9 3.23-4.01 2.68-5.26 6.78-3.31 11.1z" fill="#a06841"/><g fill="#78a3ac"><path d="m44.2 50.5 3.21 0.88c0.53 0.14 1.01-0.34 0.87-0.86l-1.19-4.46c-0.14-0.53-0.8-0.7-1.19-0.31l-2.36 2.4a2.49 2.49 0 0 0-3.07-1.74l-0.99 0.27c-1.14 0.31-1.81 1.5-1.5 2.64l0.84 3.03c0.31 1.14 1.5 1.81 2.64 1.5l0.99-0.27a2.5 2.5 0 0 0 1.75-3.08z"/><path d="m63.7 86.6 2.54 1.85c0.96 0.7 2.3 0.49 3-0.47l0.61-0.83c0.81-1.11 0.57-2.68-0.55-3.49l3.06-1.31c0.5-0.21 0.58-0.89 0.14-1.22l-3.71-2.75a0.701 0.701 0 0 0-1.12 0.49l-0.35 3.35a2.5 2.5 0 0 0-3.49 0.55l-0.61 0.83c-0.69 0.96-0.48 2.3 0.48 3z"/><path d="m56 79.2 2.2 2.25c0.83 0.85 2.19 0.87 3.04 0.04l0.74-0.72c0.99-0.96 1.01-2.54 0.04-3.53l3.24-0.78c0.53-0.13 0.72-0.78 0.34-1.18l-3.19-3.33a0.704 0.704 0 0 0-1.19 0.3l-0.9 3.24a2.49 2.49 0 0 0-3.53-0.04l-0.74 0.72c-0.86 0.82-0.87 2.18-0.05 3.03z"/><path d="m48.8 70.2 1.75 2.62c0.66 0.99 1.99 1.25 2.98 0.59l0.86-0.57c1.15-0.77 1.45-2.32 0.69-3.46l3.32-0.18c0.54-0.03 0.85-0.64 0.55-1.09l-2.53-3.86a0.707 0.707 0 0 0-1.23 0.08l-1.48 3.02a2.5 2.5 0 0 0-3.46-0.69l-0.86 0.57a2.14 2.14 0 0 0-0.59 2.97z"/><path d="m42.5 60.8 1.44 2.8a2.15 2.15 0 0 0 2.89 0.93l0.92-0.47a2.49 2.49 0 0 0 1.08-3.36l3.32 0.2c0.54 0.03 0.92-0.54 0.67-1.02l-2.07-4.12a0.706 0.706 0 0 0-1.23-0.06l-1.82 2.83a2.49 2.49 0 0 0-3.36-1.08l-0.92 0.47c-1.05 0.53-1.46 1.83-0.92 2.88z"/></g><path d="m28.5 41.2c-7.76 0-17.4-2.68-18.9-6.11-0.65-1.53 0.55-2.24 0.55-2.24 4.18 3.44 11 5.37 18.9 5.28 0.84-0.01 1.54 0.63 1.57 1.46 0.04 0.87-0.65 1.59-1.52 1.6-0.19 0-0.38 0.01-0.56 0.01z" fill="#4e342e"/><path d="m28.1 53.5c-6.8 0-13-1.45-17.6-4.05 0 0 0.19-2.03-0.46-2.74-0.95-1.05-1.61-2.61-1.61-2.61 4 4.05 11.4 6.38 19.8 6.33 0.84 0 1.53 0.64 1.56 1.47 0.03 0.86-0.65 1.59-1.5 1.59-0.09 0.01-0.17 0.01-0.25 0.01z" fill="#4e342e"/><path d="m23.9 18.7c-1.68 0.13-3.58 0.55-5.16 1.14-1.4 0.52-3.06 1.33-3.52 2.74-0.55 1.7 0.45 3.02 1.63 3.92 1.66 1.42 5.86 1.54 5.14 4.24-1.02 3.81-9.09 1.56-11-0.31-6.01-5.36-1.5-11.7 4.85-13.8 3.03-1.01 6.41-1.78 9.17-1.73 0.67 0.01 2.87 0.21 2.67 1.91-0.17 1.48-1.57 1.77-3.75 1.94z" fill="#a06841"/><path d="m12.4 39.4c1.52 0.85 4.87 1.28 5.07 3.01 0.31 2.61-4.26 2.42-6.02 1.53-1.34-0.47-2.87-1.72-3.26-3.53-0.47-2.14 0.94-2.84 4.21-1.01z" fill="#a06841"/></g></svg>
