<?xml version="1.0" encoding="UTF-8"?>
<svg xmlns="http://www.w3.org/2000/svg" version="1.1" viewBox="0 0 128 128">
  <defs>
    <style>
      .cls-1 {
        fill: #c4ced4;
      }

      .cls-2 {
        fill: #666;
      }

      .cls-3 {
        fill: #8ea0ad;
      }

      .cls-4 {
        fill: #444;
      }

      .cls-5 {
        fill: #ca72e2;
      }
    </style>
  </defs>
  <!-- Generator: Adobe Illustrator 28.6.0, SVG Export Plug-In . SVG Version: 1.2.0 Build 709)  -->
  <g>
    <g id="Layer_1">
      <path class="cls-5" d="M128,64c0,35.3-28.7,64-64,64S0,99.3,0,64,28.7,0,64,0s64,28.7,64,64"/>
      <g>
        <path class="cls-3" d="M49.8,104.1h28.5V27.9h-28.5v76.2Z"/>
        <path class="cls-4" d="M45,58.9h38v-14.3h-38v14.3Z"/>
        <path class="cls-2" d="M59.3,27.9h9.5v-14.3h-9.3l-.2,14.3Z"/>
        <path class="cls-1" d="M45,113.6h38v-9.5h-38v9.5Z"/>
        <path class="cls-1" d="M49.8,32.9h28.5v-2.4h-28.5v2.4Z"/>
        <path class="cls-1" d="M49.8,37.4h28.5v-2.4h-28.5v2.4Z"/>
        <path class="cls-1" d="M49.8,42.2h28.5v-2.4h-28.5v2.4Z"/>
        <path class="cls-1" d="M49.8,63.8h28.5v-2.4h-28.5v2.4Z"/>
        <path class="cls-1" d="M49.8,68.3h28.5v-2.4h-28.5v2.4Z"/>
        <path class="cls-1" d="M49.8,73.1h28.5v-2.4h-28.5v2.4Z"/>
        <path class="cls-1" d="M49.8,78h28.5v-2.4h-28.5v2.4Z"/>
        <path class="cls-1" d="M49.8,82.5h28.5v-2.4h-28.5v2.4Z"/>
        <path class="cls-1" d="M49.8,87.3h28.5v-2.4h-28.5v2.4Z"/>
        <path class="cls-1" d="M49.8,92.2h28.5v-2.4h-28.5v2.4Z"/>
        <path class="cls-1" d="M49.8,96.7h28.5v-2.4h-28.5v2.4Z"/>
        <path class="cls-1" d="M49.8,101.5h28.5v-2.4h-28.5v2.4Z"/>
      </g>
    </g>
  </g>
</svg>