<svg version="1.1" viewBox="0 0 128.02 128.07" xml:space="preserve" xmlns="http://www.w3.org/2000/svg"><path d="m119.44 96.035c-17.673 30.611-56.815 41.099-87.426 23.426-30.611-17.673-41.099-56.815-23.426-87.426 17.673-30.611 56.815-41.099 87.426-23.426 30.611 17.673 41.099 56.815 23.426 87.426" fill="#529add" stroke-width=".2"/><g transform="matrix(.30696 0 0 .30696 147.89 93.055)">
	
	
	
	
	
	
	
	
	
	
	
	
	
	
	<g transform="translate(-485.08 -303.02)"><path d="m252.38 48.436c0.721-6.43 4.885-16.804 4.332-20.491-1.652-11.01-11.083-11.435-12.891-10.547-4.348 1.631-12.852 3.386-17.627 4.304-2.898 0.177-5.744 0.978-8.367 2.467-10.369 5.887-13.321 20.266-6.592 32.117s20.589 16.685 30.958 10.797c5.936-3.37 9.427-9.527 10.077-16.396 5e-3 0.015 0.011 0.029 0.015 0.044-5e-3 -0.086 2e-3 -0.188-1e-3 -0.277 0.057-0.666 0.094-1.339 0.096-2.018zm-15.104 10.419c-6.321 3.44-14.675 0.47-18.75-6.708-4.116-7.249-2.31-16.044 4.032-19.646 6.343-3.601 14.821-0.644 18.936 6.604 4.116 7.249 2.31 16.044-4.032 19.646-0.062 0.036-0.124 0.071-0.186 0.104" fill="#3d3c3c"/><path d="m420.35 208.5c0-115.15-93.345-208.5-208.49-208.5-1.743 0-3.482 0.023-5.215 0.067-17.706 50.268-34.633 99.939-34.633 99.939l18.735 60.696-47.294 103.6 2.054 60.97-20.171 72.974c26.358 12.039 55.656 18.753 86.524 18.753 115.15 0 208.49-93.348 208.49-208.5z" fill="#9ba2a8"/><path d="m385.5 148.65 19.253-10.589-156.94-95.378-75.668 56.909c-0.09 0.263-0.141 0.412-0.141 0.412l18.735 60.696-0.31 0.56 129.6-28.442z" fill="#505b66"/><path d="m247.53 261.31-103.99 3.069 1.956 60.892-1.058 3.833 82.099-23.85 155.84 23.226c0.572-0.812 1.138-1.63 1.698-2.449z" fill="#505b66"/>
		<path d="m255.45 194.06c6.641-18.805 45.52-60.251 79.564-5.781 39.607 54.067-97.418 56.342-79.564 5.781z" fill="#29546c"/>
		<path d="m335.02 188.28c-3.017-4.118-6.049-7.568-9.074-10.44 1.163 1.392 2.324 2.868 3.484 4.451 36.755 50.173-61.508 63.091-74.949 10.226-0.756 0.972-1.159 1.544-1.159 1.544 10.147 52.766 121.3 48.286 81.698-5.781z" fill="#00b5ae" opacity=".25"/>
	<g fill="#f4b7a9"><path d="m280.37 245.41c2.574 7.631-1.526 15.903-9.157 18.476s-15.903-1.525-18.476-9.156l-8.624-25.57c-2.574-7.632 1.525-15.904 9.155-18.476 7.631-2.573 15.903 1.525 18.478 9.156z"/><path d="m280.37 245.41c2.574 7.631-1.526 15.903-9.157 18.476s-15.903-1.525-18.476-9.156l-8.624-25.57c-2.574-7.632 1.525-15.904 9.155-18.476 7.631-2.573 15.903 1.525 18.478 9.156z" opacity=".41"/><path d="m344.68 247.77c0-0.846-0.042-1.682-0.105-2.513 0.062-0.481 0.105-0.967 0.105-1.465v-47.063c0-6.26-5.074-11.335-11.335-11.335s-11.335 5.075-11.335 11.335v19.209c-0.186-0.061-1.439 0.057-1.627 0v-19.209c0-6.26-4.007-11.335-10.267-11.335s-11.335 5.075-11.335 11.335v19.209h-1.627v-19.209c0-6.26-4.007-11.335-10.267-11.335s-11.335 5.075-11.335 11.335v19.209c-0.203 0.061-1.471-0.066-1.673 0v-19.209c0-6.26-4.007-11.335-10.267-11.335s-11.335 5.075-11.335 11.335v47.063c0 0.498 0.043 0.984 0.105 1.465-0.063 0.831-0.105 1.667-0.105 2.513 0 13.047 7.607 24.317 18.628 29.618v131.11c19.762-5.827 38.301-14.501 55.145-25.551v-105.56c11.023-5.302 18.63-16.572 18.63-29.619z"/></g><g opacity=".39">
		<path d="m344.68 196.73c0-6.26-5.074-11.335-11.335-11.335-3.077 0-5.864 1.231-7.906 3.222 0.596-0.097 1.203-0.161 1.826-0.161 6.26 0 11.335 5.075 11.335 11.335v51.041c0 13.047-7.607 24.317-18.628 29.618v105.56c-5.69 3.733-11.578 7.188-17.637 10.359 8.219-3.965 16.141-8.45 23.718-13.421v-105.56c11.021-5.301 18.628-16.572 18.628-29.618-1e-3 -0.847-1e-3 -51.042-1e-3 -51.042z" fill="#c9978c"/>
	</g><path d="m220.32 54.485c2.68-1.92 6.719-2.012 9.911-1.007 8.416 2.65 12.195 14.463 8.441 26.385s-13.619 19.439-22.035 16.789-15.729-22.707-2.909-36.988z" fill="none" stroke="#fff" stroke-linecap="round" stroke-linejoin="round" stroke-miterlimit="10" stroke-width="6.6095"/>
		<path d="m256.72 27.945c-1.652-11.01-11.083-11.435-12.891-10.547-4.348 1.631-12.852 3.386-17.627 4.304-2.898 0.177-5.744 0.978-8.367 2.467-10.369 5.887-13.321 20.266-6.592 32.117 5.639 9.932 16.124 14.992 25.528 12.886-0.091-0.291 0.155-4.816-2.983-9.147-5.712 1.194-11.838-1.861-15.254-7.878-4.116-7.249-2.31-16.044 4.032-19.646 6.343-3.601 14.821-0.644 18.936 6.604 3.619 6.374 2.937 13.82-1.66 18.003 0.35 0.293 3.027 6.54 3.314 9.346 5.579-3.435 8.494-9.128 9.122-15.766 5e-3 0.015 0.011 0.029 0.015 0.044-5e-3 -0.086 2e-3 -0.188-1e-3 -0.277 0.057-0.668 0.093-1.341 0.096-2.02 0.722-6.428 4.886-16.803 4.332-20.49z" fill="#3d3c3c"/>
		<circle cx="246.55" cy="26.196" r="3.683" fill="#1b1919"/>
	
		<path d="m218.5 89.18c-3.761-0.472-7.28 1.942-8.139 5.634l-66.558 286.07-7.851 33.75c-0.921 3.961 1.543 7.918 5.503 8.84l0.145 0.034c3.961 0.921 7.918-1.543 8.839-5.503l7.517-32.313 68.249-293.34c0.25-1.075-0.463-2.144-1.553-2.314-2.041-0.317-4.092-0.606-6.152-0.864z" fill="#ea7053"/>
		<path d="m224.61 90.039c-0.983-0.152-1.92 0.486-2.145 1.454l-67.365 289.54-8.748 37.607c-0.125 0.538-0.771 1.074-1.509 1.431-0.92 0.445-2.012 0.347-2.873-0.205l-3.134-2.012c-1.037-0.241-2.072 0.404-2.314 1.44 0 0 1.001 2.352 4.069 3.982 5.32 1.488 9.03-1.759 10.08-6.276l7.282-31.306 68.248-293.34c0.25-1.075-0.463-2.145-1.554-2.315-0.011-1e-3 -0.024-3e-3 -0.037-5e-3z" fill="#f2aa99" opacity=".48"/>
	</g>
</g></svg>
