<svg width="129" height="129" viewBox="0 0 129 129" fill="none" xmlns="http://www.w3.org/2000/svg">
<mask id="mask0_1_24" style="mask-type:alpha" maskUnits="userSpaceOnUse" x="0" y="0" width="129" height="129">
<path d="M119.44 96.035C101.767 126.646 62.625 137.134 32.014 119.461C1.403 101.788 -9.085 62.646 8.588 32.035C26.261 1.424 65.403 -9.064 96.014 8.609C126.625 26.282 137.113 65.424 119.44 96.035Z" fill="#529ADD"/>
</mask>
<g mask="url(#mask0_1_24)">
<path d="M119.44 96.035C101.767 126.646 62.625 137.134 32.014 119.461C1.403 101.788 -9.085 62.646 8.588 32.035C26.261 1.424 65.403 -9.064 96.014 8.609C126.625 26.282 137.113 65.424 119.44 96.035Z" fill="#529ADD"/>
<path d="M76.4604 14.9079C76.6817 12.9341 77.9599 9.74974 77.7902 8.61798C77.2831 5.23835 74.3881 5.10789 73.8331 5.38047C72.4985 5.88113 69.8881 6.41984 68.4224 6.70163C67.5328 6.75596 66.6592 7.00184 65.854 7.4589C62.6711 9.26597 61.765 13.6798 63.8305 17.3175C65.8961 20.9553 70.1505 22.4392 73.3334 20.6318C75.1555 19.5973 76.2271 17.7074 76.4266 15.5989C76.4282 15.6035 76.43 15.6078 76.4312 15.6124C76.4297 15.586 76.4319 15.5547 76.4309 15.5273C76.4484 15.3229 76.4598 15.1163 76.4604 14.9079ZM71.8241 18.1061C69.8838 19.1621 67.3194 18.2504 66.0686 16.047C64.8051 13.8219 65.3595 11.1222 67.3062 10.0165C69.2533 8.91113 71.8557 9.81881 73.1188 12.0437C74.3823 14.2688 73.8279 16.9685 71.8812 18.0742C71.8621 18.0852 71.8431 18.096 71.8241 18.1061Z" fill="#3D3C3C"/>
<path d="M128.02 64.0411C128.02 28.6947 99.3673 0.0399857 64.0224 0.0399857C63.4874 0.0399857 62.9536 0.0470457 62.4216 0.060552C56.9866 15.4908 51.7906 30.7378 51.7906 30.7378L57.5415 49.3691L43.0242 81.1701L43.6547 99.8855L37.463 122.286C45.5538 125.981 54.5471 128.042 64.0224 128.042C99.3688 128.042 128.02 99.3879 128.02 64.0408V64.0411Z" fill="#9BA2A8"/>
<path d="M117.323 45.6696L123.233 42.4192L75.0585 13.142L51.8315 30.6108C51.8038 30.6915 51.7882 30.7372 51.7882 30.7372L57.5391 49.3685L57.4439 49.5404L97.2259 40.8098L117.323 45.6696Z" fill="#505B66"/>
<path d="M74.9716 80.2517L43.0509 81.1938L43.6513 99.8852L43.3265 101.062L68.5276 93.7408L116.364 100.87C116.54 100.621 116.714 100.37 116.886 100.118L74.9716 80.2517Z" fill="#505B66"/>
<path d="M77.4028 59.6086C79.4413 53.8363 91.3756 41.114 101.826 57.8341C113.984 74.4305 71.9223 75.1288 77.4028 59.6086Z" fill="#29546C"/>
<path opacity="0.25" d="M101.828 57.8344C100.901 56.5704 99.9708 55.5113 99.0422 54.6297C99.3992 55.057 99.7556 55.5101 100.112 55.996C111.394 71.3971 81.2312 75.3624 77.1053 59.135C76.8733 59.4334 76.7496 59.6089 76.7496 59.6089C79.8643 75.806 113.984 74.4308 101.828 57.8344Z" fill="#00B5AE"/>
<path d="M85.0522 75.371C85.8423 77.7134 84.5838 80.2526 82.2414 81.0424C79.899 81.8322 77.3598 80.5743 76.57 78.2319L73.9228 70.3829C73.1327 68.0402 74.3909 65.501 76.733 64.7115C79.0754 63.9217 81.6146 65.1797 82.405 67.5221L85.0522 75.371Z" fill="#F4B7A9"/>
<path opacity="0.41" d="M85.0522 75.371C85.8423 77.7134 84.5838 80.2526 82.2414 81.0424C79.899 81.8322 77.3598 80.5743 76.57 78.2319L73.9228 70.3829C73.1327 68.0402 74.3909 65.501 76.733 64.7115C79.0754 63.9217 81.6146 65.1797 82.405 67.5221L85.0522 75.371Z" fill="#F4B7A9"/>
<path d="M104.793 76.0955C104.793 75.8358 104.78 75.5792 104.761 75.3241C104.78 75.1764 104.793 75.0272 104.793 74.8744V60.4279C104.793 58.5063 103.235 56.9485 101.313 56.9485C99.3916 56.9485 97.8341 58.5063 97.8341 60.4279V66.3243C97.777 66.3056 97.3923 66.3418 97.3346 66.3243V60.4279C97.3346 58.5063 96.1046 56.9485 94.1831 56.9485C92.2615 56.9485 90.7037 58.5063 90.7037 60.4279V66.3243H90.2042V60.4279C90.2042 58.5063 88.9743 56.9485 87.0527 56.9485C85.1311 56.9485 83.5733 58.5063 83.5733 60.4279V66.3243C83.511 66.343 83.1218 66.3041 83.0598 66.3243V60.4279C83.0598 58.5063 81.8298 56.9485 79.9082 56.9485C77.9866 56.9485 76.4288 58.5063 76.4288 60.4279V74.8744C76.4288 75.0272 76.442 75.1764 76.461 75.3241C76.4417 75.5792 76.4288 75.8358 76.4288 76.0955C76.4288 80.1004 78.7638 83.5598 82.1469 85.187V125.433C88.213 123.644 93.9037 120.981 99.0742 117.589V85.1867C102.458 83.5592 104.793 80.0998 104.793 76.0949V76.0955Z" fill="#F4B7A9"/>
<g opacity="0.39">
<path d="M104.793 60.4282C104.793 58.5067 103.235 56.9488 101.313 56.9488C100.369 56.9488 99.5134 57.3267 98.8866 57.9379C99.0695 57.9081 99.2559 57.8884 99.4471 57.8884C101.369 57.8884 102.926 59.4463 102.926 61.3678V77.0354C102.926 81.0403 100.591 84.4997 97.2084 86.1269V118.53C95.4618 119.675 93.6545 120.736 91.7946 121.709C94.3175 120.492 96.7492 119.116 99.0751 117.59V85.187C102.458 83.5598 104.793 80.1001 104.793 76.0955C104.793 75.8355 104.793 60.4276 104.793 60.4276V60.4282Z" fill="#C9978C"/>
</g>
<path d="M66.6193 16.7647C67.4419 16.1753 68.6817 16.1471 69.6615 16.4556C72.2449 17.269 73.4049 20.8952 72.2526 24.5547C71.1003 28.2143 68.0721 30.5217 65.4887 29.7083C62.9053 28.8948 60.6606 22.7381 64.5958 18.3544L66.6193 16.7647Z" stroke="white" stroke-width="2.02885" stroke-miterlimit="10" stroke-linecap="round" stroke-linejoin="round"/>
<path d="M77.7926 8.61798C77.2855 5.23835 74.3906 5.10789 73.8356 5.38047C72.5009 5.88113 69.8905 6.41984 68.4248 6.70163C67.5352 6.75596 66.6616 7.00184 65.8565 7.4589C62.6736 9.26597 61.7674 13.6798 63.833 17.3175C65.5639 20.3663 68.7824 21.9195 71.6691 21.273C71.6411 21.1837 71.7166 19.7947 70.7534 18.4653C69 18.8318 67.1196 17.894 66.071 16.047C64.8076 13.8219 65.3619 11.1222 67.3087 10.0165C69.2557 8.91113 71.8581 9.81881 73.1213 12.0437C74.2322 14.0002 74.0228 16.2858 72.6117 17.5699C72.7192 17.6598 73.5409 19.5774 73.629 20.4387C75.3415 19.3843 76.2363 17.6368 76.4291 15.5992C76.4306 15.6038 76.4325 15.6081 76.4337 15.6127C76.4322 15.5863 76.4343 15.555 76.4334 15.5277C76.4509 15.3226 76.4619 15.116 76.4628 14.9076C76.6845 12.9345 77.9627 9.74974 77.7926 8.61798Z" fill="#3D3C3C"/>
<path d="M74.6708 9.21164C75.2952 9.21164 75.8014 8.70549 75.8014 8.08111C75.8014 7.45673 75.2952 6.95058 74.6708 6.95058C74.0465 6.95058 73.5403 7.45673 73.5403 8.08111C73.5403 8.70549 74.0465 9.21164 74.6708 9.21164Z" fill="#1B1919"/>
<path d="M66.0606 27.4147C64.9061 27.2698 63.8259 28.0108 63.5622 29.1441L43.1316 116.956L40.7217 127.316C40.4389 128.532 41.1953 129.747 42.4109 130.03L42.4554 130.04C43.6712 130.323 44.8859 129.566 45.1686 128.351L47.476 118.432L68.4257 28.3884C68.5025 28.0584 68.2836 27.7302 67.949 27.678C67.3225 27.5807 66.6929 27.492 66.0606 27.4128V27.4147Z" fill="#EA7053"/>
<path opacity="0.48" d="M67.9361 27.6784C67.6344 27.6317 67.3468 27.8275 67.2777 28.1247L46.5993 117.002L43.9141 128.546C43.8757 128.711 43.6774 128.875 43.4509 128.985C43.1684 129.122 42.8332 129.092 42.569 128.922L41.6069 128.304C41.2886 128.23 40.9709 128.428 40.8966 128.746C40.8966 128.746 41.2039 129.468 42.1457 129.969C43.7787 130.426 44.9175 129.429 45.2398 128.042L47.4751 118.433L68.4245 28.389C68.5012 28.059 68.2824 27.7305 67.9475 27.6784C67.9441 27.6781 67.9401 27.6774 67.9361 27.6768V27.6784Z" fill="#F2AA99"/>
</g>
</svg>
