<?xml version="1.0" encoding="UTF-8"?>
<svg version="1.1" viewBox="0 0 128 128" xml:space="preserve" xmlns="http://www.w3.org/2000/svg"><path d="m128 64c0 35.346-28.654 64-64 64s-64-28.654-64-64c0-35.346 28.654-64 64-64s64 28.654 64 64" fill="#9bbe55" stroke-width=".2"/><g><path d="m59.571 29.518c1.4561 3.205-0.40744 7.823-4.9906 11.123-3.0092 2.1675-7.3176 2.8396-7.7397 5.6506-0.15996 1.0739 0.75809 2.8693 3.2849 2.8442l43.949-0.43518s4.662-0.04616 4.7082 4.6159c0.04617 4.662-4.6159 4.7082-4.6159 4.7082l-34.11 0.33776c0.06749-2.63e-4 0.17227 2.3295 0.21422 2.3291l39.746-0.39357s4.662-0.04616 4.7082 4.6159c0.0462 4.662-4.6159 4.7082-4.6159 4.7082l-39.751 0.39362c-0.03948-1.58e-4 -0.07249 2.332-0.13776 2.3326l34.667-0.34326s4.662-0.04617 4.7082 4.6159c0.04617 4.662-4.6159 4.7082-4.6159 4.7082l-36.452 0.36094c-0.27506 0.0027-0.562 2.3368-0.90466 2.3402l26.891-0.26627s4.662-0.04616 4.7082 4.6159c0.04616 4.662-4.6159 4.7082-4.6159 4.7082l-42.541 0.42126c-15.448 0.15298-32.756 0.47166-33.035-27.648-0.13849-13.986 10.656-18.895 16.893-23.237 5.2904-3.6821 10.809-4.7882 12.478-5.0285 0 0 3.4447-0.32085 6.6517-2.7608 3.0841-2.3287 6.0668-4.7888 8.9396-7.3737 0.82952-0.74722 3.9646-1.4963 5.5781 2.0569z" fill-opacity=".2"/><path d="m59.867 25.518c1.4561 3.205-0.40744 7.823-4.9906 11.123-3.0092 2.1675-7.3176 2.8396-7.7397 5.6506-0.15996 1.0739 0.75809 2.8693 3.2849 2.8442l43.949-0.43518s4.662-0.04616 4.7082 4.6159c0.04617 4.662-4.6159 4.7082-4.6159 4.7082l-34.11 0.33775c0.06749-2.63e-4 0.17227 2.3295 0.21423 2.3291l39.746-0.39357s4.662-0.04615 4.7082 4.6159c0.0462 4.662-4.6159 4.7082-4.6159 4.7082l-39.751 0.39362c-0.03948-1.58e-4 -0.07249 2.332-0.13776 2.3326l34.667-0.34327s4.662-0.04616 4.7082 4.6159c0.04617 4.662-4.6159 4.7082-4.6159 4.7082l-36.452 0.36094c-0.27506 0.0027-0.562 2.3368-0.90466 2.3402l26.891-0.26627s4.662-0.04616 4.7082 4.6159c0.04616 4.662-4.6159 4.7082-4.6159 4.7082l-42.541 0.42125c-15.448 0.15299-32.756 0.47167-33.035-27.648-0.13849-13.986 10.656-18.895 16.893-23.237 5.2904-3.6821 10.809-4.7882 12.478-5.0285 0 0 3.4447-0.32085 6.6517-2.7608 3.0841-2.3287 6.0668-4.7888 8.9396-7.3737 0.82952-0.74722 3.9646-1.4963 5.5781 2.0569z" fill="#ddd"/><path d="m50.683 50.894c3.2292 1.4018 4.9426 6.0775 3.7543 11.599-0.77945 3.6257-3.5256 7.013-1.9541 9.3816 0.60165 0.9038 2.4861 1.6206 4.3442-0.09204l32.317-29.788s3.4281-3.1599 6.5879 0.26823c3.1599 3.4281-0.26823 6.588-0.26823 6.588l-25.082 23.119c0.04971-0.04579 1.6896 1.6129 1.7205 1.5845l29.226-26.94s3.4281-3.1599 6.5879 0.26823c3.1599 3.4281-0.26823 6.588-0.26823 6.588l-29.23 26.943c-0.02912 0.0269 1.5096 1.7788 1.4616 1.8231l25.491-23.497s3.4281-3.1599 6.5879 0.26824c3.1598 3.4281-0.26823 6.588-0.26823 6.588l-26.804 24.707c-0.20226 0.18643 1.1497 2.1106 0.89773 2.3429l19.773-18.226s3.4281-3.1599 6.5879 0.26824c3.1599 3.4281-0.26823 6.588-0.26823 6.588l-31.281 28.834c-11.359 10.47-23.988 22.311-43.047 1.6342-9.4796-10.284-4.7622-21.164-3.0453-28.567 1.4566-6.2789 4.8098-10.8 5.8871-12.097 0 0 2.3407-2.5476 3.0843-6.508 0.72709-3.7955 1.2907-7.6205 1.6892-11.464 0.11453-1.1105 1.9384-3.7682 5.5177-2.2136z" fill-opacity=".2"/><path d="m50.774 46.893c3.2292 1.4018 4.9426 6.0776 3.7544 11.599-0.77946 3.6257-3.5256 7.013-1.9542 9.3816 0.60165 0.9038 2.4861 1.6206 4.3442-0.09204l32.317-29.788s3.4281-3.1599 6.588 0.26823c3.1599 3.4281-0.26823 6.588-0.26823 6.588l-25.082 23.119c0.04971-0.04579 1.6896 1.6129 1.7205 1.5845l29.226-26.94s3.4281-3.1599 6.588 0.26823c3.1599 3.4281-0.26823 6.588-0.26823 6.588l-29.23 26.943c-0.02912 0.0269 1.5097 1.7788 1.4617 1.8231l25.491-23.497s3.4281-3.1599 6.588 0.26823c3.1599 3.4281-0.26822 6.588-0.26822 6.588l-26.804 24.707c-0.20226 0.18643 1.1497 2.1106 0.89774 2.3429l19.773-18.226s3.4281-3.1599 6.588 0.26824c3.1599 3.4281-0.26823 6.588-0.26823 6.588l-31.281 28.834c-11.359 10.47-23.988 22.311-43.047 1.6342-9.4796-10.284-4.7622-21.164-3.0454-28.567 1.4566-6.2789 4.8098-10.8 5.8871-12.097 0 0 2.3408-2.5476 3.0844-6.508 0.72709-3.7955 1.2907-7.6205 1.6892-11.464 0.11453-1.1106 1.9384-3.7682 5.5177-2.2136z" fill="#fff"/></g><path d="m61.897 9.716c-0.62977-0.0074-1.1971 0.37944-1.4203 0.96838l-3.6637 9.7214-9.2319 3.1957c-1.3322 0.45697-1.3572 2.3321-0.03766 2.8244l9.7214 3.6583 3.1956 9.2319c0.45697 1.3322 2.3321 1.3572 2.8244 0.03766l3.6583-9.7214 9.2319-3.1956c1.3224-0.46137 1.3472-2.3225 0.03765-2.8191l-9.7214-3.6637-3.1956-9.2265c-0.20616-0.59849-0.76582-1.0032-1.3988-1.0114z" fill-opacity=".2" stop-color="#000000"/><path d="m86.892 12.315c-0.64679-0.0078-1.2258 0.39985-1.4364 1.0114l-6.7464 19.556-18.674 5.891c-1.3734 0.4378-1.399 2.372-0.03765 2.846l19.556 6.7518 5.891 18.674c0.4378 1.3734 2.372 1.399 2.846 0.03765l6.7518-19.556 18.674-5.891c1.3842-0.43258 1.41-2.3824 0.0377-2.8513l-19.556-6.7464-5.891-18.674c-0.19507-0.61892-0.76601-1.0422-1.4149-1.0491z" fill-opacity=".2" stop-color="#000000"/><path d="m61.794 7.2463-3.91 10.38-9.8947 3.4247 10.38 3.91 3.4247 9.8947 3.91-10.38 9.8947-3.4247-10.38-3.91z" fill="#feffd6" stroke="#89dfe2" stroke-linejoin="round" stroke-width="2.9999"/><path d="m86.838 9.8823-6.9942 20.271-19.395 6.1183 20.271 6.9942 6.1183 19.395 6.9942-20.271 19.395-6.1183-20.271-6.9942z" fill="#feffd6" stroke="#89dfe2" stroke-linejoin="round" stroke-width="2.9999"/></svg>
