<?xml version="1.0" encoding="UTF-8"?>
<svg version="1.1" viewBox="0 0 128 128" xmlns="http://www.w3.org/2000/svg">
 <path d="m128 64c0 35.346-28.654 64-64 64s-64-28.654-64-64 28.654-64 64-64 64 28.654 64 64" fill="#529add"/>
 <g stroke-opacity=".2">
  <g fill="none" stroke="#000" stroke-linecap="round">
   <path d="m80.185 100.46a23.155 23.155 0 0 1-23.571 8.8437 23.155 23.155 0 0 1-17.709-17.894 23.155 23.155 0 0 1 9.0883-23.477" stroke-width="10"/>
   <path d="m95.991 99.935-12.255-24.895-21.224-3.9026c3.1412-6.7364 5.0913-18.537 5.2232-25.681" stroke-linejoin="round" stroke-width="12"/>
   <path d="m37.275 60.243c3.9253-11.54 13.212-14.996 30.462-14.787" stroke-linejoin="round" stroke-width="10"/>
  </g>
  <path d="m86.33 27.374a10.151 10.151 0 0 1-10.151 10.151 10.151 10.151 0 0 1-10.151-10.151 10.151 10.151 0 0 1 10.151-10.151 10.151 10.151 0 0 1 10.151 10.151" fill-opacity=".2"/>
 </g>
 <g fill="none" stroke="#fff" stroke-linecap="round">
  <path d="m80.185 96.532a23.155 23.155 0 0 1-23.571 8.8437 23.155 23.155 0 0 1-17.709-17.894 23.155 23.155 0 0 1 9.0883-23.477" stroke-width="10"/>
  <path d="m95.991 96.005-12.255-24.895-21.224-3.9026c3.1412-6.7364 5.0913-18.537 5.2232-25.681" stroke-linejoin="round" stroke-width="12"/>
  <path d="m37.275 56.313c3.9253-11.54 13.212-14.996 30.462-14.787" stroke-linejoin="round" stroke-width="10"/>
 </g>
 <path d="m86.33 23.444a10.151 10.151 0 0 1-10.151 10.151 10.151 10.151 0 0 1-10.151-10.151 10.151 10.151 0 0 1 10.151-10.151 10.151 10.151 0 0 1 10.151 10.151" fill="#fff"/>
 <g transform="translate(288.03 -292)">
  <path d="m-257.23 372h80.462c1.5342 0 2.7692 1.2351 2.7692 2.7692v18.462c0 1.5342-1.2351 2.7692-2.7692 2.7692h-80.462c-1.5342 0-2.7692-1.2351-2.7692-2.7692v-18.462c0-1.5342 1.2351-2.7692 2.7692-2.7692z" fill-opacity=".2"/>
  <path d="m-257.34 368h80.69c1.4709 0 2.655 1.2351 2.655 2.7692v18.462c0 1.5342-1.1841 2.7692-2.655 2.7692h-80.69c-1.4709 0-2.655-1.2351-2.655-2.7692v-18.462c0-1.5342 1.1841-2.7692 2.655-2.7692z" fill="#cc826b"/>
  <g fill="#ac573d">
   <path d="m-231 368h6v16h-6z"/>
   <path d="m-207 368h6v16h-6z"/>
   <path d="m-243 368h6v8h-6z"/>
   <path d="m-219 368h6v8h-6z"/>
   <path d="m-194.62 368h5.6187v8h-5.6187z"/>
   <path d="m-255 368h6v16h-6z"/>
   <path d="m-183 368h6v16h-6z"/>
  </g>
 </g>
</svg>
