<?xml version="1.0" encoding="UTF-8"?>
<svg version="1.1" viewBox="0 0 128 128" xmlns="http://www.w3.org/2000/svg">
 <path d="m128 64c0 35.346-28.654 64-64 64s-64-28.654-64-64 28.654-64 64-64 64 28.654 64 64" fill="#e9a76f" />
 <path d="m63.998 24c-23.204 0.1897-44.203 13.095-51.617 33.307a8.0008 8.0008 0 1 0 15.021 5.5098c4.7415-12.925 19.41-22.677 36.729-22.818 17.318-0.14105 32.236 9.3871 37.271 22.254a8.0008 8.0008 0 1 0 14.9-5.8301c-7.8527-20.065-29.097-32.61-52.303-32.422h-0.001953zm0.51172 31.91c-14.014 0.035-26.732 8.1956-31.588 20.865a6.0006 6.0006 0 1 0 11.205 4.2949c2.9427-7.6772 11.041-13.137 20.412-13.16 9.3708-0.0234 17.508 5.3984 20.496 13.062a6.0006 6.0006 0 1 0 11.18-4.3594c-4.9297-12.643-17.692-20.738-31.705-20.703zm0.009765 28.01a12 12 0 0 0-12 12 12 12 0 0 0 12 12 12 12 0 0 0 12-12 12 12 0 0 0-12-12z" fill-opacity=".2" />
 <path d="m64.109 19.939c-23.205 0.18899-44.205 13.095-51.619 33.307a8.0008 8.0008 0 1 0 15.021 5.5098c4.7415-12.925 19.41-22.675 36.729-22.816 17.318-0.14105 32.236 9.3871 37.271 22.254a8.0008 8.0008 0 1 0 14.9-5.8301c-7.8529-20.066-29.097-32.611-52.303-32.422zm0.50977 31.91c-14.014 0.035-26.732 8.1956-31.588 20.865a6.0006 6.0006 0 1 0 11.205 4.2949c2.9427-7.6772 11.041-13.137 20.412-13.16 9.3708-0.0234 17.508 5.3984 20.496 13.062a6.0006 6.0006 0 1 0 11.18-4.3594c-4.9297-12.643-17.692-20.738-31.705-20.703zm0.01172 28.01a12 12 0 0 0-12 12 12 12 0 0 0 12 12 12 12 0 0 0 12-12 12 12 0 0 0-12-12z" fill="#fff"/>
</svg>
