<svg xmlns="http://www.w3.org/2000/svg" xml:space="preserve" viewBox="0 0 128 128"><path fill="#fd5" d="M119.42 95.995c-17.67 30.605-56.806 41.092-87.411 23.422S-9.083 62.611 8.587 32.006 65.393-9.086 95.998 8.584 137.09 65.39 119.42 95.995" style="fill:#037100;fill-opacity:1"/><path fill="green" d="M13 4.197q0 .31-.217.527l-5.605 5.605-1.053 1.053q-.217.217-.526.217t-.527-.217L4.02 10.329 1.217 7.526Q1 7.31 1 7t.217-.527L2.27 5.422q.216-.217.526-.217t.527.217l2.276 2.284 5.078-5.087q.217-.217.527-.217t.526.217l1.053 1.053q.217.217.217.526" style="fill:#000;fill-opacity:.27" transform="matrix(8.33333 0 0 8.69811 4.667 8.113)"/><path fill="green" d="M13 4.197q0 .31-.217.527l-5.605 5.605-1.053 1.053q-.217.217-.526.217t-.527-.217L4.02 10.329 1.217 7.526Q1 7.31 1 7t.217-.527L2.27 5.422q.216-.217.526-.217t.527.217l2.276 2.284 5.078-5.087q.217-.217.527-.217t.526.217l1.053 1.053q.217.217.217.526" style="fill:#fff;fill-opacity:1" transform="matrix(8.33333 0 0 8.69811 4.667 4.113)"/></svg>