<?xml version="1.0" encoding="UTF-8"?>
<svg version="1.1" viewBox="0 0 16 16" xmlns="http://www.w3.org/2000/svg">
 <path d="m7.9544 15.026c0.7448-0.8658 0.91535-1.0207 1.5065-1.1049 1.1953-0.17027 2.9875-2.1541 3.8584-3.4321 1.2902-1.8933 2.6807-7.4972 2.6807-7.4972s-0.83542 1.3982-1.8956 2.0968c-0.81085 0.53426-1.8598 1.0923-2.3828 1.6141-1.0714 1.0691-1.7937 1.8416-2.5725 3.4101-1.0044 2.0227-0.27102 2.2989-0.63516 3.284-0.19069 0.51591-0.74883 1.3011-0.74883 1.3011z" fill="#006a00"/>
 <path d="m8.0456 15.026c-0.7448-0.8658-0.91535-1.0207-1.5065-1.1049-1.1953-0.17026-2.9875-2.1541-3.8584-3.4321-1.2902-1.8933-2.6807-7.4972-2.6807-7.4972s0.83542 1.3982 1.8956 2.0968c0.81085 0.53426 1.8598 1.0923 2.3828 1.6141 1.0714 1.0691 1.7937 1.8416 2.5725 3.4101 1.0044 2.0227 0.27102 2.2989 0.63516 3.284 0.19069 0.51591 0.74883 1.3011 0.74883 1.3011z" fill="#006a00"/>
</svg>
