<?xml version="1.0" encoding="UTF-8"?>
<svg width="100%" height="100%" version="1.1" viewBox="0 0 96 96" xmlns="http://www.w3.org/2000/svg">
 <g transform="matrix(8.1874 0 0 8.1893 -221.72 -2115.6)">
  <path d="m36.97 267.46c-1.4835 0-3.0586 0.40293-4.1209 0.53114-1.5568 0.18315-1.8681-0.43956-3.3883-0.25641-0.87912 0.0916-2.3809 0.8608-2.3809 0.8608v1.4652h11.722v-2.381s-0.89743-0.21978-1.8315-0.21978" fill="#f4d4a5" stroke-width=".093335"/>
  <g transform="matrix(.18315 0 0 .18315 27.08 258.34)" fill="#ffebd2" stroke-width=".50961">
   <path transform="matrix(.7071 -.7071 .7071 .7071 -39.929 20.718)" d="m4.3 57.9h1.4v1.4h-1.4z"/>
   <path transform="matrix(.7071 -.7071 .7071 .7071 -40.556 23.204)" d="m7 59.9h1.4v1.4h-1.4z"/>
   <path transform="matrix(.7071 -.7071 .7071 .7071 -38.435 22.325)" d="m7.4 57.2h0.7v0.7h-0.7z"/>
   <path transform="matrix(.7071 -.7071 .7071 .7071 -38.897 25.209)" d="m10.6 59.2h0.7v0.7h-0.7z"/>
   <path transform="matrix(.7071 -.7071 .7071 .7071 -42.197 21.242)" d="m4.2 61.2h0.7v0.7h-0.7z"/>
   <path transform="matrix(.7071 -.7071 .7071 .7071 -41.552 18.8)" d="m1.6 59.2h0.7v0.7h-0.7z"/>
   <path transform="matrix(.7071 -.7071 .7071 .7071 -36.142 23.86)" d="m10 54.9h1.4v1.4h-1.4z"/>
   <path transform="matrix(.7071 -.7071 .7071 .7071 -28.196 46.043)" d="m41.1 56.7h0.7v0.7h-0.7z"/>
   <path transform="matrix(.7071 -.7071 .7071 .7071 -28.165 50.12)" d="m46.1 58.7h0.7v0.7h-0.7z"/>
   <path transform="matrix(.7071 -.7071 .7071 .7071 -26.329 50.551)" d="m47.5 56.7h0.7v0.7h-0.7z"/>
   <path transform="matrix(.7071 -.7071 .7071 .7071 -26.359 52.479)" d="m49.8 57.7h0.7v0.7h-0.7z"/>
   <path transform="matrix(.7071 -.7071 .7071 .7071 -24.011 53.148)" d="m51.8 55.2h0.7v0.7h-0.7z"/>
   <path transform="matrix(.7071 -.7071 .7071 .7071 -21.846 61.014)" d="m62.4 56.5h0.7v0.7h-0.7z"/>
   <path transform="matrix(.7071 -.7071 .7071 .7071 -23.849 59.539)" d="m59.6 58.2h0.7v0.7h-0.7z"/>
   <path transform="matrix(.7071 -.7071 .7071 .7071 -22.352 59.153)" d="m59.9 56.2h0.7v0.7h-0.7z"/>
   <path transform="matrix(.7071 -.7071 .7071 .7071 -27.563 48.574)" d="m44.1 56.9h1.4v1.4h-1.4z"/>
   <path transform="matrix(.7071 -.7071 .7071 .7071 -20.999 59.421)" d="m60.5 54.4h1.4v1.4h-1.4z"/>
   <path transform="matrix(.7071 -.7071 .7071 .7071 -26.193 54.88)" d="m52.4 58.4h1.4v1.4h-1.4z"/>
  </g>
  <path d="m37.904 268.36c0 0.10989-0.23809 0.0916-0.51282 0.0549-0.14652 0.21978-0.32967 0.31136-0.43956 0.31136-0.05494 0-0.10989-0.21978-0.09157-0.42125-0.27472-0.0733-0.47619-0.18315-0.45787-0.25641 0.05495-0.45787 1.5201 0.0916 1.5018 0.31136" fill="#a38982" stroke-width=".093335"/>
  <path d="m36.989 267.08c0.05494-0.0183 0.2381 0.14652 0.40293 0.38461 0.29304-0.0733 0.51282-0.10989 0.51282-0.0549 0.01831 0.0733-0.05495 0.27472-0.21978 0.53113 0.14652 0.2381 0.23809 0.42125 0.18315 0.45788-0.07326 0.0733-0.25641 0.0183-0.53113-0.055-0.18315 0.20147-0.31135 0.34799-0.42124 0.32967-0.05494 0-0.07326-0.21978-0.09157-0.4945-0.27472-0.10989-0.43956-0.2381-0.45787-0.32967-0.01832-0.0549 0.20146-0.14652 0.47619-0.2381 0.03663-0.27472 0.09157-0.51282 0.14652-0.53113" fill="#f27a52" stroke-width=".093335"/>
 </g>
 <g transform="matrix(1.0715 0 0 1.0717 12.396 5.8565)" stroke-width=".72324">
  <circle cx="32" cy="32" r="30" fill="#dcdcdc"/>
  <circle cx="29.276" cy="28.591" r="25.631" fill="#f0f0f0"/>
  <circle cx="24.702" cy="23.31" r="17.351" fill="#fff"/>
  <path d="m28.4 18c-0.1-3.1 0.3-5.9 0.9-8.4 14.5 0.3 25.2 7.1 30.5 11.3-0.5-1.2-1.1-2.4-1.7-3.6-6-4.2-15.8-9.2-28.3-9.6 0.7-2.5 1.6-4.4 2.2-5.7h-0.1c-0.7 0-1.4 0-2.1 0.1-2.4 5.2-6.8 18 1 30-2 4-4.8 6.9-7.7 9-10-18.3-5.5-32.4-4-36.2-0.9 0.4-1.7 0.9-2.5 1.4-1.9 5.9-4.3 19.1 5 35.9-2.6 1.6-5.3 2.7-7.8 3.4-7-12.7-6.5-25.4-5.5-32.1-0.8 1-1.6 2.1-2.3 3.3-0.4 7.3 0.1 18.2 6 29.3-2.5 0.6-4.7 0.8-6 0.9 0.4 0.6 0.7 1.2 1.1 1.8 5.7-0.5 19-3.1 25.5-15.8 4.5-0.2 8.4 0.7 11.7 2.2-10.8 17.8-25.3 21-29.3 21.5l2.4 1.5c6-1.3 18.7-5.8 28.6-22.3 2.7 1.4 5 3.2 6.8 5-7.5 12.4-18.7 18.3-25.1 20.8 1.3 0.2 2.6 0.3 4 0.3 6.6-3.1 15.9-9.1 22.4-19.7 1.8 1.9 3 3.6 3.8 4.8 0.4-0.6 0.7-1.2 1-1.9-3.3-4.7-12.2-14.9-26.4-14.2-2.4-3.7-3.6-7.6-4-11.2 20.9 0.4 30.8 11.3 33.4 14.6 0.1-0.8 0.1-1.6 0.1-2.4v-0.5c-4.1-4.6-14.4-13.2-33.6-13.5" fill="#a7b2b1"/>
 </g>
</svg>
