<?xml version="1.0" encoding="UTF-8"?>
<svg width="100%" height="100%" version="1.1" viewBox="0 0 96 96" xmlns="http://www.w3.org/2000/svg">
 <g transform="matrix(1.494 0 0 1.494 -1.0816 .79679)" fill="#3e4347" stroke-width=".45366">
  <ellipse cx="48.7" cy="57" rx="13.3" ry="5"/>
  <ellipse cx="48.7" cy="51.1" rx="13.3" ry="5"/>
  <path d="m35.5 51.1h26.5v5.9h-26.5z"/>
 </g>
 <ellipse cx="71.678" cy="77.143" rx="19.871" ry="7.4702" fill="#b2c1c0" opacity=".5" stroke-width=".67778"/>
 <path d="m33.73 55.927c-8.2173-0.59762-18.078-2.5399-27.64-4.781-2.8387-0.59762-6.1256 14.044-2.9881 15.09 19.124 5.9762 39.293 4.4821 46.764 3.2869 2.6893-0.44821 4.6315-3.5857 4.781-3.5857l11.952-20.02-6.8726-4.3327c-10.757 12.699-20.618 14.791-25.996 14.343" fill="#3e4347" stroke-width=".67778"/>
 <path d="m83.332 3.7849s-21.066 34.811-23.755 37.799l6.8726 4.3327 25.1-42.132z" fill="#ed4c5c" stroke-width=".67778"/>
 <path d="m12.514 52.491-2.3905 16.285c12.699 2.8387 24.951 2.5399 33.168 1.7929l2.6893-17.929c-4.9304 2.6893-9.2631 3.2869-12.102 3.1375-6.4244-0.44821-13.895-1.6435-21.365-3.2869" fill="#e8e8e8" stroke-width=".67778"/>
 <g transform="matrix(1.494 0 0 1.494 -1.0816 .79679)" fill="#b2c1c0" stroke-width=".45366">
  <path d="m9.2 45.8 1.5 0.3 2.8-10.6-1.5-0.3-2.8 10.6"/>
  <path d="m24.2 47h1.6l3.6-11.3-1.8 0.6-3.4 10.7"/>
  <path d="m16.1 46.7c0.5 0 1 0.1 1.5 0.1l0.8-10.6c-0.5-0.1-1-0.1-1.5-0.2l-0.8 10.7"/>
  <path d="m22.1 36.7-2.2 10.3h1.5l2.3-10.2h-0.3c-0.4-0.1-0.8-0.1-1.3-0.1"/>
 </g>
</svg>
