<?xml version="1.0" encoding="UTF-8"?>
<svg version="1.1" viewBox="0 0 320 96" xml:space="preserve" xmlns="http://www.w3.org/2000/svg">
    <style type="text/css">
        .cables{fill: none; stroke:#AA0000;stroke-width:4;}
        .support{fill:#E44848;stroke:#AA0000;stroke-width:2;}
        .struct{fill:#E0D8D8;stroke:#916F6F;stroke-width:2;}
        .land{fill:#bea288;stroke:#82a04e;stroke-width:6;}
    </style>
    <path class="cables" d="m113.37 23.767v20.244m93.275-21.547v21.536m-69.959-33.368v33.368m46.643-33.574v33.574m-23.327 0v-36.82m84.494 16.586v20.244m23.316-33.379v33.368m46.643-33.574v33.574m-23.316 0v-36.82m-214.55 15.284v21.536m-69.959-33.368v33.368m46.643-33.574v33.574m-23.327 0v-36.82"/>
    <path class="support" d="m288.58 3.7188c-11.047 0-21.494 2.0268-31.082 6.0273-7.669 3.196-14.78 7.6573-21.129 13.256-5.9067 5.2044-9.9865 10.357-12.559 14.078-2.5977-3.6478-6.5496-8.4837-12.051-13.336-6.35-5.5982-13.46-10.06-21.129-13.256-9.578-3.9897-20.025-6.0156-31.072-6.0156s-21.503 2.0151-31.07 6.0156c-7.669 3.196-14.78 7.6573-21.129 13.256-5.1804 4.5645-8.9626 9.1054-11.559 12.67-2.5963-3.6584-6.5622-8.5293-12.111-13.424-6.35-5.5982-13.46-10.06-21.129-13.256-9.577-3.9898-20.014-6.0059-31.061-6.0059s-21.503 2.0151-31.07 6.0156c-7.669 3.196-14.78 7.6592-21.129 13.258l5.5664 5.8125c12.956-11.315 28.648-17.053 46.623-17.053s33.665 5.737 46.621 17.041c6.8597 5.986 11.061 11.987 13.002 15.096l9.2461 0.08398c2.1055-3.264 6.1932-8.852 12.578-14.424 12.956-11.315 28.646-17.053 46.621-17.053s33.667 5.7377 46.623 17.053c6.9759 6.0874 11.21 12.199 13.104 15.258l9.1426-0.08203c1.5837-2.6791 5.8014-9.1194 13.273-15.705 13.01-11.455 28.775-17.268 46.879-17.268 17.975 0 33.667 5.7377 46.623 17.053l5.5781-5.8242c-6.35-5.5982-13.46-10.06-21.129-13.256-9.578-3.9897-20.025-6.0156-31.072-6.0156z"/>
    <path class="land" d="m-3 52v48h92c-40 0-56-40-88-48h-4zm324 0c-32 8-48 48-88 48h92v-48h-4z"/>
    <rect class="struct" x="216" y="48" width="16" height="52"/>
    <rect class="struct" x="88" y="48" width="16" height="52"/>
    <rect class="struct" x="-4" y="44" width="328" height="8"/>
</svg>
