<?xml version="1.0" encoding="UTF-8"?>
<svg version="1.1" viewBox="0 0 320 96" xml:space="preserve" xmlns="http://www.w3.org/2000/svg">
    <style type="text/css">
        .support{fill:#E44848;stroke:#AA0000;stroke-width:2;}
        .struct{fill:#E0D8D8;stroke:#916F6F;stroke-width:2;}
        .land{fill:#bea288;stroke:#82a04e;stroke-width:6;}
    </style>
    <path class="land" d="m-3 52v48h92c-40 0-56-40-88-48h-4zm324 0c-32 8-48 48-88 48h92v-48h-4z"/>
    <rect class="struct" x="204" y="48" width="16" height="52"/>
    <rect class="struct" x="100" y="48" width="16" height="52"/>
    <path class="support" d="m29.621 10.828-3.6211 1.1719v36h4v-29.814l22.379 30.986h3.2422l22.379-30.986v29.814h4v-36l-3.6211-1.1719-22.379 30.986v-29.814h-4v29.814l-22.379-30.986zm106 0-3.6211 1.1719v36h4v-29.814l22.379 30.986h3.2422l22.379-30.986v29.814h4v-36l-3.6211-1.1719-22.379 30.986v-29.814h-4v29.814l-22.379-30.986zm106 0-3.6211 1.1719v36h4v-29.814l22.379 30.986h3.2422l22.379-30.986v29.814h4v-36l-3.6211-1.1719-22.379 30.986v-29.814h-4v29.814l-22.379-30.986z"/>
    <path class="support" d="m26.572 9-26.9 33.107-1.8926 2.3301 4.6582 3.7832 1.8906-2.3281 25.1-30.893h49.145l25.1 30.893h6.6562l25.1-30.893h49.145l25.1 30.893h6.6562l25.1-30.893h49.145l25.1 30.893 1.8906 2.3281 4.6582-3.7832-1.8926-2.3301-26.9-33.107h-54.855l-25.572 31.473-25.572-31.473h-54.855l-25.572 31.473-25.572-31.473z"/>
    <rect class="struct" x="-4" y="44" width="328" height="8"/>
</svg>
