<svg version="1.1" viewBox="0 0 128 128" xml:space="preserve" xmlns="http://www.w3.org/2000/svg"><path d="m128 64c0 35.346-28.654 64-64 64s-64-28.654-64-64 28.654-64 64-64 64 28.654 64 64" fill="#aaa" stroke-width=".2"/><g transform="matrix(1.3333 0 0 1.3333 24 24)"><rect x="17" y="5.5" width="28" height="16" fill="#556080"/><g fill="none" stroke="#7383bf" stroke-linejoin="round" stroke-miterlimit="10" stroke-width="2"><line x1="21" x2="21" y1="5.5" y2="21.5"/><line x1="25" x2="25" y1="5.5" y2="21.5"/><line x1="29" x2="29" y1="5.5" y2="21.5"/><line x1="33" x2="33" y1="5.5" y2="21.5"/><line x1="37" x2="37" y1="5.5" y2="21.5"/><line x1="41" x2="41" y1="5.5" y2="21.5"/></g><polygon points="43 26.5 19 26.5 19 34.5 7 34.5 7 54.5 53 54.5 53 34.5 43 34.5" fill="#c7cac7"/><rect x="24" y="21.5" width="14" height="5" fill="#afb6bb"/><rect x="19" y="2.5" width="24" height="3" fill="#38454f"/><g fill="#7383bf" stroke="#556080" stroke-linecap="round" stroke-linejoin="round" stroke-miterlimit="10" stroke-width="2"><rect x="1" y="32.5" width="6" height="6"/><rect x="1" y="38.5" width="6" height="6"/><rect x="1" y="44.5" width="6" height="6"/><rect x="1" y="50.5" width="6" height="6"/><rect x="53" y="32.5" width="6" height="6"/><rect x="53" y="38.5" width="6" height="6"/><rect x="53" y="44.5" width="6" height="6"/><rect x="53" y="50.5" width="6" height="6"/></g></g><g transform="matrix(.4237 0 0 .4237 36.883 47.777)"><path d="m64 112c-24 0-40-12-40-32s41.882-23.478 32-60c0 0 32 20 24 44 0 0 8.5626-10.414 12-16 0 0 12 12 12 32s-16 32-40 32z" fill-opacity=".2"/><path d="m64 108c-24 0-40-12-40-32s41.882-23.478 32-60c0 0 32 20 24 44 0 0 8.5626-10.414 12-16 0 0 12 12 12 32s-16 32-40 32z" fill="#eb650d"/><path d="m88 60c4 8 24 28-8 28-8 0 4-20 8-28z" fill="#e98616"/><path d="m80 72c-16-16 0-24-16-44 4 20-28 36-28 52s12 24 28 24 24.335-22.671 16-32z" fill="#f1b014"/><path d="m64 96c-16 0-16-20 0-40 0 20 16 40 0 40z" fill="#f3f40f"/></g></svg>
