<svg version="1.1" viewBox="0 0 128 128" xml:space="preserve" xmlns="http://www.w3.org/2000/svg"><path d="m128 64c0 35.346-28.654 64-64 64s-64-28.654-64-64 28.654-64 64-64 64 28.654 64 64" fill="#aaa"/><g transform="matrix(.8228 0 0 .8228 9.2903 16.926)"><g stroke-width=".31706"><circle cx="56.212" cy="60.356" r="50.892" fill="#999"/><path d="m95.331 60.356c0-1.0621-0.04122-2.1179-0.12682-3.1579-1.525-19.087-16.747-34.309-35.834-35.834-1.0399-0.0856-2.0957-0.12682-3.1579-0.12682-0.63411 0-1.2619 0.01585-1.8865 0.04439-6.5948 0.31388-12.765 2.2606-18.107 5.447-10.124 6.0272-17.292 16.493-18.824 28.716-0.19974 1.6075-0.30437 3.2466-0.30437 4.9112 0 20.973 16.503 38.088 37.235 39.074 0.6246 0.02853 1.2524 0.04439 1.8865 0.04439 1.6614 0 3.2974-0.10463 4.9049-0.30754 7.9644-0.99238 15.187-4.3849 20.916-9.4261 2.0767-1.8262 3.96-3.8713 5.6119-6.097 0.7863-1.059 1.5187-2.1591 2.194-3.2942 3.4876-5.8497 5.4914-12.689 5.4914-19.994z" fill="#9acbd8"/><path d="m95.518 60.356c0 20.97-16.503 38.088-37.232 39.074-20.732-0.98604-37.235-18.101-37.235-39.074 0-20.973 16.503-38.088 37.235-39.074 20.729 0.98604 37.232 18.104 37.232 39.074z" fill="#b5e4f4"/><path d="m55.99 68.639c-4.5751 0-8.2837-3.7089-8.2837-8.2837 0-4.5751 3.7089-8.2837 8.2837-8.2837h2.1664v16.545z" fill="#808080"/><path d="m23.018 39.715 15.243 8.1867-9.9645-14.574c-1.9763 1.9345-3.7478 4.0771-5.2785 6.3878z" fill="#9acbd8"/><path d="m23.501 38.86 15.271 8.1351-10.014-14.541c-1.9697 1.9411-3.734 4.0897-5.2569 6.4056z" fill="#ef7954"/></g><polygon transform="matrix(.31706 0 0 .31706 -8.3149 9.4644)" points="152.24 74.17 218.58 159.08 198.98 171.26" fill="#808080"/><circle cx="58.156" cy="60.356" r="8.2837" fill="#999" stroke-width=".31706"/><circle cx="58.156" cy="60.356" r="4.0016" fill="#808080" stroke-width=".31706"/></g><g transform="matrix(.65265 0 0 .65265 52.57 8.249)"><path d="m64 112c-24 0-40-12-40-32s41.882-23.478 32-60c0 0 32 20 24 44 0 0 8.5626-10.414 12-16 0 0 12 12 12 32s-16 32-40 32z" fill-opacity=".2"/><path d="m64 108c-24 0-40-12-40-32s41.882-23.478 32-60c0 0 32 20 24 44 0 0 8.5626-10.414 12-16 0 0 12 12 12 32s-16 32-40 32z" fill="#eb650d"/><path d="m88 60c4 8 24 28-8 28-8 0 4-20 8-28z" fill="#e98616"/><path d="m80 72c-16-16 0-24-16-44 4 20-28 36-28 52s12 24 28 24 24.335-22.671 16-32z" fill="#f1b014"/><path d="m64 96c-16 0-16-20 0-40 0 20 16 40 0 40z" fill="#f3f40f"/></g></svg>
