<svg version="1.1" viewBox="0 0 128 128" xml:space="preserve" xmlns="http://www.w3.org/2000/svg"><path d="m128 64c0 35.346-28.654 64-64 64s-64-28.654-64-64 28.654-64 64-64 64 28.654 64 64" fill="#aaa"/><g transform="translate(-.81468 -.51328)" stroke-width=".092454"><path d="m64.828 111.75c-10.812 0-19.608-8.7961-19.608-19.608 0-7.1397 3.9378-13.738 10.138-17.166v-45.497c0-5.2232 4.2482-9.4729 9.47-9.4729s9.47 4.2494 9.47 9.4729v45.497c6.1998 3.4274 10.138 10.026 10.138 17.166 0 10.812-8.796 19.608-19.608 19.608zm0-87.606c-2.94 0-5.332 2.3932-5.332 5.335v46.765a2.0696 2.0696 0 0 1-1.1947 1.8754c-5.4328 2.5324-8.9432 8.0367-8.9432 14.023 0 8.5301 6.9399 15.47 15.47 15.47 8.53 0 15.47-6.9396 15.47-15.47 0-5.9876-3.5101-11.492-8.9426-14.023a2.0681 2.0681 0 0 1-1.1953-1.8754v-46.765c0-2.9418-2.392-5.335-5.332-5.335z" fill="#888"/><path d="m58.086 51.934v21.857l-7.6877 5.6214-3.1345 8.2702 3.8829 12.736 7.795 5.53 9.3417 1.0049 8.7157-4.9366s4.6383-7.6008 4.7737-8.1568c0.13537-0.55596-0.32365-10.035-0.527-10.555-0.20335-0.5196-2.322-5.82-2.322-5.82l-6.7315-4.7291 0.01182-20.246" fill="#f3f40f"/><path d="m57.402 44.545h14.802v6.1918h-14.802z" fill="#f3f40f"/><path d="m58.086 37.451h13.3v6.1918h-13.3z" fill="#eb650d"/><path d="m64.802 109.02c-10.812 0-19.608-8.796-19.608-19.608 0-7.1397 3.9378-13.738 10.138-17.166v-45.497c0-5.2232 4.2482-9.4729 9.4699-9.4729 5.2218 0 9.4699 4.2494 9.4699 9.4729v45.497c6.1998 3.4274 10.138 10.026 10.138 17.166 0 10.812-8.7961 19.608-19.608 19.608zm0-87.606c-2.94 0-5.332 2.3932-5.332 5.335v46.765a2.0696 2.0696 0 0 1-1.1947 1.8754c-5.4328 2.5324-8.9432 8.0367-8.9432 14.023 0 8.53 6.9399 15.47 15.47 15.47 8.53 0 15.47-6.9396 15.47-15.47 0-5.9876-3.5101-11.492-8.9427-14.023a2.0681 2.0681 0 0 1-1.1953-1.8754v-46.765c0-2.9418-2.392-5.335-5.332-5.335z" fill="#232323"/><path d="m64.802 102.19c-6.8595 0-12.44-5.5821-12.44-12.443 0-4.8127 2.8215-9.2394 7.1882-11.277a2.0691 2.0691 0 1 1 1.7498 3.7501c-2.9161 1.3605-4.8 4.315-4.8 7.5269 0 4.5795 3.7244 8.3054 8.3025 8.3054s8.3025-3.7256 8.3025-8.3054a2.069 2.069 0 1 1 4.1379 0c0 6.861-5.5809 12.443-12.44 12.443zm0-69.765h-7.401a2.069 2.069 0 1 1 0-4.1379h7.401a2.069 2.069 0 1 1 0 4.1379zm7.3892 7.0936h-14.79a2.069 2.069 0 1 1 0-4.1379h14.79a2.069 2.069 0 1 1 0 4.1379zm0 7.0936h-14.79a2.069 2.069 0 1 1 0-4.1379h14.79a2.069 2.069 0 1 1 0 4.1379zm0 7.0936h-14.79a2.069 2.069 0 1 1 0-4.1379h14.79a2.069 2.069 0 1 1 0 4.1379z" fill="#f1b014"/></g></svg>
