<svg version="1.1" viewBox="0 0 128 128" xml:space="preserve" xmlns="http://www.w3.org/2000/svg"><path d="m128 64c0 35.346-28.654 64-64 64s-64-28.654-64-64 28.654-64 64-64 64 28.654 64 64" fill="#aaa"/><style type="text/css">
	.st0{fill:#77B3D4;}
	.st1{opacity:0.2;}
	.st2{fill:#231F20;}
	.st3{fill:#FFFFFF;}
</style><g transform="matrix(.77767 0 0 .77767 -39.153 -65.758)"><path d="m143.36 130h16l4 88h-24z" fill="#aaa"/><path d="m95.364 130h16l4 88h-24z" fill="#aaa"/><path d="m79.364 218h96v-60l-48 20v-20l-48 20z" fill="#b75858"/><path d="m75.364 182 56-24" fill="none" stroke="#333" stroke-width="12"/><rect x="143.36" y="186" width="24" height="32" fill="#aaa"/><g fill="#808080"><rect x="147.36" y="190" width="16" height="4"/><rect x="147.36" y="200" width="16" height="4"/><rect x="147.36" y="210" width="16" height="4"/></g><path d="m127.36 178 52-20" fill="none" stroke="#333" stroke-width="12"/><rect x="87.364" y="190" width="12" height="16" fill="#aaa"/><rect x="87.364" y="190" width="12" height="4" fill="#808080"/><rect x="105.36" y="190" width="12" height="16" fill="#aaa"/><rect x="105.36" y="190" width="12" height="4" fill="#808080"/><rect x="123.36" y="190" width="12" height="16" fill="#aaa"/><g fill="#808080"><rect x="123.36" y="190" width="12" height="4"/><rect x="95.364" y="122" width="16" height="8"/><rect x="143.36" y="122" width="16" height="8"/><rect x="95.364" y="138" width="16" height="8"/><rect x="143.36" y="138" width="16" height="8"/></g></g><g transform="matrix(.72151 0 0 .72151 36.509 -2.9353)"><g transform="matrix(2.5799 0 0 2.5799 23.545 22.722)"><g fill="#8f8e8e">

<g fill="#8f8e8e">

<path d="m26.87 12.49-10 18c-0.18 0.32-0.51 0.51-0.87 0.51-0.08 0-0.17-0.01-0.25-0.03-0.44-0.12-0.75-0.51-0.75-0.97v-11h-9c-0.34 0-0.65-0.17-0.84-0.45-0.18-0.28-0.21-0.64-0.08-0.95l7-16c0.16-0.36 0.52-0.6 0.92-0.6h6c0.33 0 0.64 0.16 0.83 0.44 0.18 0.27 0.22 0.62 0.1 0.93l-3.45 8.63h9.52c0.35 0 0.68 0.19 0.86 0.49 0.18 0.31 0.19 0.69 0.01 1z" fill="#8f8e8e"/>

</g>

</g></g><g transform="matrix(2.5799 0 0 2.5799 23.545 18.742)">



<path d="m26.87 12.49-10 18c-0.18 0.32-0.51 0.51-0.87 0.51-0.08 0-0.17-0.01-0.25-0.03-0.44-0.12-0.75-0.51-0.75-0.97v-11h-9c-0.34 0-0.65-0.17-0.84-0.45-0.18-0.28-0.21-0.64-0.08-0.95l7-16c0.16-0.36 0.52-0.6 0.92-0.6h6c0.33 0 0.64 0.16 0.83 0.44 0.18 0.27 0.22 0.62 0.1 0.93l-3.45 8.63h9.52c0.35 0 0.68 0.19 0.86 0.49 0.18 0.31 0.19 0.69 0.01 1z" fill="#ffb841"/>



</g></g></svg>
