<svg version="1.1" viewBox="0 0 128 128" xml:space="preserve" xmlns="http://www.w3.org/2000/svg"><path d="m128 64c0 35.346-28.654 64-64 64s-64-28.654-64-64 28.654-64 64-64 64 28.654 64 64" fill="#aaa"/><g transform="translate(-.38969 -.84659)"><g transform="matrix(.37515 0 0 .37515 8.6794 20.579)">
			<path d="m222.75 137h-16.5v-90.75c0-4.556 3.694-8.25 8.25-8.25s8.25 3.694 8.25 8.25z" fill="#ecf0f1"/>
		
			<path d="m55.917 198h185.17c8.1 0 14.667-6.566 14.667-14.667v-36.667c0-8.1-6.566-14.667-14.667-14.667h-185.17c-8.1 0-14.667 6.566-14.667 14.667v36.667c0 8.101 6.566 14.667 14.667 14.667z" fill="#e3e5e4"/>
		
			<path d="m55.917 198h185.17c8.1 0 14.667-6.566 14.667-14.667v-36.667c0-8.1-6.566-14.667-14.667-14.667h-185.17c-8.1 0-14.667 6.566-14.667 14.667v36.667c0 8.101 6.566 14.667 14.667 14.667z" fill="#232" fill-opacity=".2"/>
		
			<path d="m241.08 132h-93.25v66h93.25c8.1 0 14.667-6.566 14.667-14.667v-36.667c0-8.1-6.566-14.666-14.667-14.666z" fill="#c4c6c5"/>
		
			<path d="m134.33 181.5h-70.666c-3.268 0-5.917-2.649-5.917-5.917v-4.667c0-3.268 2.649-5.917 5.917-5.917h70.667c3.268 0 5.917 2.649 5.917 5.917v4.667c-1e-3 3.268-2.65 5.917-5.918 5.917z" fill="#61676b"/>
		</g><g transform="matrix(.37515 0 0 .37515 8.6794 20.579)" fill="#3581c8">
			<circle cx="232.94" cy="173.25" r="6.309"/>
		
			<circle cx="214.02" cy="173.25" r="6.309"/>
		</g><g transform="matrix(.37515 0 0 .37515 8.6794 20.579)">
			<circle cx="195.09" cy="173.25" r="6.309" fill="#3581c8"/>
		</g></g></svg>
