<svg version="1.1" viewBox="0 0 128 128" xml:space="preserve" xmlns="http://www.w3.org/2000/svg"><path d="m128 64c0 35.346-28.654 64-64 64s-64-28.654-64-64 28.654-64 64-64 64 28.654 64 64" fill="#aaa"/><style type="text/css">
	.st0{fill:#77B3D4;}
	.st1{opacity:0.2;}
	.st2{fill:#231F20;}
	.st3{fill:#FFFFFF;}
</style><g transform="matrix(.69435 0 0 .69435 17.22 6.8201)"><g transform="matrix(3.7795 0 0 3.7795 -208.27 -972.16)"><path d="m57.15 277.95h3.175v11.642h-3.175z" fill="#95685e"/><ellipse transform="scale(-1,1)" cx="-58.69" cy="273.26" rx="5.8191" ry="4.7546" fill="#5aaa55"/><ellipse transform="scale(-1,1)" cx="-55.547" cy="277.42" rx="4.7475" ry="4.7546" fill="#57a352"/><ellipse transform="scale(-1,1)" cx="-61.895" cy="278.55" rx="4.7498" ry="4.7546" fill="#539c4e"/></g><g transform="matrix(2.6166 0 0 2.6166 32.043 -630.04)"><path d="m4.5861 294.88h25.988v-15.287l-13.758-9.1722-12.23 9.1722z" fill="#deb486"/><rect x="6.1148" y="265.84" width="6.1148" height="9.1722" fill="#deb486"/><path d="m1.5287 281.12 15.287-13.758 16.816 13.758" fill="none" stroke="#c84747" stroke-width="4.5861"/><rect x="18.344" y="282.65" width="6.1148" height="12.23" fill="#c08268"/><rect x="7.6435" y="284.18" width="7.6435" height="6.1148" fill="#95685e"/><rect x="7.6435" y="282.65" width="7.6435" height="1.5287" fill="#c08268"/></g><path d="m36.257 145.05c-8.9032 0-8.9032-11.777 0-11.871 5.9355-8.8095 11.871 0 11.871 0 5.9355-5.9355 11.871 0 11.871 2.9677 5.9355 0 2.9677 8.9032 0 8.9032 0.81897 0.47724-10.791 6.4482-23.742 0z" fill="#539c4e"/></g><g transform="matrix(.72151 0 0 .72151 36.509 -2.9353)"><g transform="matrix(2.5799 0 0 2.5799 23.545 22.722)"><g fill="#8f8e8e">

<g fill="#8f8e8e">

<path d="m26.87 12.49-10 18c-0.18 0.32-0.51 0.51-0.87 0.51-0.08 0-0.17-0.01-0.25-0.03-0.44-0.12-0.75-0.51-0.75-0.97v-11h-9c-0.34 0-0.65-0.17-0.84-0.45-0.18-0.28-0.21-0.64-0.08-0.95l7-16c0.16-0.36 0.52-0.6 0.92-0.6h6c0.33 0 0.64 0.16 0.83 0.44 0.18 0.27 0.22 0.62 0.1 0.93l-3.45 8.63h9.52c0.35 0 0.68 0.19 0.86 0.49 0.18 0.31 0.19 0.69 0.01 1z" fill="#8f8e8e"/>

</g>

</g></g><g transform="matrix(2.5799 0 0 2.5799 23.545 18.742)">



<path d="m26.87 12.49-10 18c-0.18 0.32-0.51 0.51-0.87 0.51-0.08 0-0.17-0.01-0.25-0.03-0.44-0.12-0.75-0.51-0.75-0.97v-11h-9c-0.34 0-0.65-0.17-0.84-0.45-0.18-0.28-0.21-0.64-0.08-0.95l7-16c0.16-0.36 0.52-0.6 0.92-0.6h6c0.33 0 0.64 0.16 0.83 0.44 0.18 0.27 0.22 0.62 0.1 0.93l-3.45 8.63h9.52c0.35 0 0.68 0.19 0.86 0.49 0.18 0.31 0.19 0.69 0.01 1z" fill="#ffb841"/>



</g></g></svg>
