<svg version="1.1" viewBox="0 0 128 128" xml:space="preserve" xmlns="http://www.w3.org/2000/svg"><path d="m128 64c0 35.346-28.654 64-64 64s-64-28.654-64-64 28.654-64 64-64 64 28.654 64 64" fill="#aaa"/><style type="text/css">
	.st0{fill:#77B3D4;}
	.st1{opacity:0.2;}
	.st2{fill:#231F20;}
	.st3{fill:#FFFFFF;}
</style><g transform="matrix(.10087 0 0 .10087 89.706 46.992)"><g transform="matrix(2.3955 0 0 2.3955 -848.64 -495.23)"><rect x="381.7" y="125.2" width="3" height="222" fill="#fff"/><path d="m319.2 367.2-59.6-30.4 39.6-20.8c2-1.2 2.8-3.6 1.6-5.2-0.8-1.2-2-2-3.2-2l-40-30.4 28.8-21.6c1.2-0.8 1.6-2.4 1.2-3.6s-1.6-2.4-3.2-2.4h-64.4c-1.6 0-2.8 0.8-3.2 2.4-0.4 1.2 0 2.8 1.2 3.6l28.8 21.6-40.8 31.2-0.8-0.4c-2-1.2-4.4-0.4-5.2 1.6s-0.4 4.4 1.6 5.2l41.2 21.2-57.6 30.4c-1.6 0.8-2.4 2.8-2 4.4s2 3.2 4 3.2h130.8c2 0 3.6-1.2 4-3.2-0.4-2-1.2-3.6-2.8-4.8zm-89.6-110h44.8l-22.4 16.8zm22.4 25.2 35.6 26.8h-70.8zm-33.6 33.2h64.4l-31.6 16.8zm-15.6 51.2 48.4-25.6 50 25.6z" fill="#2b3b4e"/><path d="m166.8 446.4c-0.8 0-1.6 0-2.4-0.4-4-1.2-6.4-5.6-5.2-10l85.2-276.4c1.2-3.2 4-5.6 7.6-5.6s6.4 2.4 7.6 5.6l85.2 276.4c1.2 4-1.2 8.8-5.2 10s-8.8-1.2-10-5.2l-77.6-252-77.6 252c-1.2 3.6-4 5.6-7.6 5.6z" fill="#324a5e"/><rect transform="matrix(.9799 -.1994 .1994 .9799 -26.051 53.379)" x="98.787" y="138.02" width="306.39" height="35.998" fill="#803300"/><path d="m167.2 301.2c-30.8-35.2-42.8-84.8-28-132.4 1.2-4.4 2.8-8.4 4.8-12.8 3.6-8.4-0.8-18-9.2-20.4l-30.4-9.6c-7.2-2.4-15.2 1.2-18.4 8-3.6 7.6-6.4 15.2-8.4 23.6-16.4 64 16 131.6 76.4 159.2 0.4 0 0.8 0.4 1.2 0.4 10 4.8 19.2-7.6 12-16z" fill="#520"/><rect x="361.6" y="348" width="42.8" height="74.8" fill="#502d16"/><path d="m409.6 354.8h-52.8c-7.2 0-12.8-5.6-12.8-12.8v-7.2c0-7.2 5.6-12.8 12.8-12.8h52.8c7.2 0 12.8 5.6 12.8 12.8v7.2c-0.4 6.8-6 12.8-12.8 12.8z" fill="#784421"/></g></g></svg>
