<svg version="1.1" viewBox="0 0 128 128" xml:space="preserve" xmlns="http://www.w3.org/2000/svg"><path d="m128 64c0 35.346-28.654 64-64 64s-64-28.654-64-64 28.654-64 64-64 64 28.654 64 64" fill="#aaa"/><style type="text/css">
	.st0{fill:#77B3D4;}
	.st1{opacity:0.2;}
	.st2{fill:#231F20;}
	.st3{fill:#FFFFFF;}
</style><g transform="translate(.25315 -4.7802)" stroke-width=".25412"><path d="m52.254 91.404 33.207-33.207c4.6523 1.1697 9.7842-0.063 13.423-3.7017 3.2804-3.2804 4.6058-7.7744 3.9787-12.036l-7.8565 7.8565-6.8492 0.90643-5.943-5.943 0.90643-6.8492 7.8565-7.8565c-4.262-0.62741-8.756 0.69831-12.036 3.9787-3.6387 3.6387-4.8714 8.771-3.7017 13.423l-33.207 33.207c-4.6523-1.1697-9.7842 0.063-13.423 3.7017-3.2804 3.2804-4.6058 7.7744-3.9787 12.036l7.8565-7.8565 6.8492-0.90643 5.943 5.943-0.90643 6.8491-7.8565 7.8565c4.262 0.62741 8.756-0.6978 12.036-3.9784 3.6382-3.6389 4.8709-8.7708 3.7012-13.424z" fill="#8f8e8e"/><path d="m52.254 89.585 33.207-33.207c4.6523 1.1697 9.7842-0.063 13.423-3.7017 3.2804-3.2804 4.6058-7.7744 3.9787-12.036l-7.8565 7.8565-6.8491 0.90643-5.943-5.943 0.90643-6.8492 7.8565-7.8565c-4.262-0.62741-8.756 0.69831-12.036 3.9787-3.6387 3.6387-4.8714 8.771-3.7017 13.423l-33.207 33.207c-4.6523-1.1697-9.7842 0.063-13.423 3.7017-3.2804 3.2804-4.6058 7.7744-3.9787 12.036l7.8565-7.8565 6.8492-0.90643 5.943 5.943-0.90643 6.8492-7.8565 7.8565c4.262 0.62741 8.756-0.6978 12.036-3.9784 3.6382-3.6389 4.8709-8.7708 3.7012-13.424z" fill="#fc0"/></g></svg>
