<svg version="1.1" viewBox="0 0 128 128" xml:space="preserve" xmlns="http://www.w3.org/2000/svg"><path d="m128 64c0 35.346-28.654 64-64 64s-64-28.654-64-64 28.654-64 64-64 64 28.654 64 64" fill="#aaa"/><g transform="matrix(.64028 0 0 .64028 15.106 23.268)"><g transform="matrix(.24566 0 0 .24566 14.184 .99921)"><path d="m400.7 512v-49.652c0-35.212-6.891-64.877-18.635-95.044-4.231-10.904-7.496-22.059-9.902-33.391h-210.06c-2.406 11.332-5.671 22.487-9.902 33.391-11.833 30.398-18.635 59.971-18.635 95.044v49.652z" fill="#999"/><path d="m400.7 512v-49.652c0-35.212-6.891-64.877-18.635-95.044-4.231-10.904-7.496-22.059-9.902-33.391h-105.03v178.09z" fill="#808080"/><path d="m367.3 288.96v-71.913c0-9.223-7.479-16.696-16.696-16.696h-166.96c-9.217 0-16.696 7.473-16.696 16.696v71.913c0 3.879-0.343 7.712-0.546 11.566h201.44c-0.203-3.853-0.546-7.687-0.546-11.566z" fill="#333"/><path d="m350.61 200.35h-83.479v100.17h100.72c-0.204-3.852-0.547-7.687-0.547-11.566v-71.913c1e-3 -9.222-7.477-16.695-16.694-16.695z" fill="#4d4d4d"/><path d="m372.16 333.91c-2.331-10.972-3.711-22.122-4.309-33.391-0.204-3.852-0.547-7.687-0.547-11.566v-21.826h-200.35v21.826c0 3.879-0.343 7.712-0.546 11.566-0.598 11.27-1.978 22.419-4.309 33.391-2.406 11.332-5.671 22.487-9.902 33.391h229.86c-4.231-10.904-7.496-22.059-9.902-33.391z" fill="#4d4d4d"/><path d="m267.13 267.13v100.17h114.93c-4.231-10.904-7.496-22.059-9.902-33.391-2.331-10.972-3.711-22.122-4.309-33.391-0.204-3.852-0.547-7.687-0.547-11.566v-21.826z" fill="#666"/><path d="m150.26 133.56h-66.783c-27.619 0-50.087-22.468-50.087-50.087s22.468-50.087 50.087-50.087h19.554c6.892-19.435 25.457-33.391 47.229-33.391h66.783c27.619 0 50.087 22.468 50.087 50.087s-22.468 50.087-50.087 50.087h-19.554c-6.892 19.435-25.457 33.391-47.229 33.391z" fill="#484537"/><path d="m233.74 255.56v-71.913c0-9.223-7.479-16.696-16.696-16.696h-166.96c-9.217 0-16.696 7.473-16.696 16.696v71.913c0 3.879-0.343 7.712-0.547 11.566h201.44c-0.202-3.853-0.545-7.687-0.545-11.566z" fill="#4d4d4d"/><path d="m217.04 166.96h-83.478v100.17h100.72c-0.204-3.852-0.546-7.687-0.546-11.566v-71.913c0-9.222-7.478-16.694-16.696-16.694z" fill="#666"/><path d="m248.5 333.91c-4.231-10.904-7.496-22.059-9.902-33.391h-210.06c-2.406 11.332-5.671 22.487-9.902 33.391-11.832 30.398-18.634 59.971-18.634 95.044v83.043h267.13v-83.043c0-35.212-6.892-64.877-18.634-95.044z" fill="#999"/><path d="m238.59 300.52h-105.03v211.48h133.56v-83.043c0-35.212-6.891-64.877-18.635-95.044-4.23-10.904-7.496-22.059-9.901-33.391z" fill="#ccc"/><path d="m238.59 300.52c-2.331-10.972-3.711-22.122-4.309-33.391-0.204-3.852-0.546-7.687-0.546-11.566v-21.826h-200.35v21.826c0 3.879-0.343 7.712-0.547 11.566-0.598 11.27-1.978 22.419-4.309 33.391-2.406 11.332-5.671 22.487-9.902 33.391h229.86c-4.229-10.904-7.495-22.059-9.9-33.391z" fill="#666"/><path d="m133.56 233.74v100.17h114.93c-4.231-10.904-7.496-22.059-9.902-33.391-2.331-10.972-3.711-22.122-4.309-33.391-0.204-3.852-0.546-7.687-0.546-11.566v-21.826z" fill="#808080"/><rect x="311.65" y="411.83" width="200.35" height="100.17" fill="#999"/><path d="m512 411.83c-7.756-38.058-43.163-77.913-83.478-77.913h-33.392c-40.316 0-75.723 39.855-83.478 77.913z" fill="#ccc"/><path d="m411.83 333.91v77.913h100.17c-7.756-38.058-43.163-77.913-83.478-77.913z" fill="#b6b6bf"/><rect x="411.83" y="411.83" width="100.17" height="100.17" fill="#b3b3b3"/></g></g><g transform="matrix(.72151 0 0 .72151 40.373 1.7345)"><g transform="matrix(2.5799 0 0 2.5799 23.545 22.722)"><g fill="#8f8e8e">

<g fill="#8f8e8e">

<path d="m26.87 12.49-10 18c-0.18 0.32-0.51 0.51-0.87 0.51-0.08 0-0.17-0.01-0.25-0.03-0.44-0.12-0.75-0.51-0.75-0.97v-11h-9c-0.34 0-0.65-0.17-0.84-0.45-0.18-0.28-0.21-0.64-0.08-0.95l7-16c0.16-0.36 0.52-0.6 0.92-0.6h6c0.33 0 0.64 0.16 0.83 0.44 0.18 0.27 0.22 0.62 0.1 0.93l-3.45 8.63h9.52c0.35 0 0.68 0.19 0.86 0.49 0.18 0.31 0.19 0.69 0.01 1z" fill="#8f8e8e"/>

</g>

</g></g><g transform="matrix(2.5799 0 0 2.5799 23.545 18.742)">



<path d="m26.87 12.49-10 18c-0.18 0.32-0.51 0.51-0.87 0.51-0.08 0-0.17-0.01-0.25-0.03-0.44-0.12-0.75-0.51-0.75-0.97v-11h-9c-0.34 0-0.65-0.17-0.84-0.45-0.18-0.28-0.21-0.64-0.08-0.95l7-16c0.16-0.36 0.52-0.6 0.92-0.6h6c0.33 0 0.64 0.16 0.83 0.44 0.18 0.27 0.22 0.62 0.1 0.93l-3.45 8.63h9.52c0.35 0 0.68 0.19 0.86 0.49 0.18 0.31 0.19 0.69 0.01 1z" fill="#ffb841"/>



</g></g></svg>
