<svg version="1.1" viewBox="0 0 128 128" xml:space="preserve" xmlns="http://www.w3.org/2000/svg"><path d="m128 64c0 35.346-28.654 64-64 64s-64-28.654-64-64 28.654-64 64-64 64 28.654 64 64" fill="#aaa"/><g transform="matrix(.83739 0 0 .83739 6.8996 21.143)"><g class="st2" transform="matrix(1.9283,0,0,1.9283,-2.5972,-3.985)" fill="#231f20" opacity=".2">
	<path class="st3" d="m20 34h24c1.1 0 2-0.9 2-2v-12c0-1.1-0.9-2-2-2h-24c-1.1 0-2 0.9-2 2v12c0 1.1 0.9 2 2 2z"/>
	<path class="st3" d="m44 14h-24c-3.3 0-6 2.7-6 6v24c0 3.3 2.7 6 6 6h24c3.3 0 6-2.7 6-6v-24c0-3.3-2.7-6-6-6zm-26 6c0-1.1 0.9-2 2-2h24c1.1 0 2 0.9 2 2v12c0 1.1-0.9 2-2 2h-24c-1.1 0-2-0.9-2-2z"/>
	<circle class="st3" cx="44" cy="44" r="2"/>
	<path class="st3" d="m42 52h-20c-1.1 0-2 0.9-2 2s0.9 2 2 2h20c1.1 0 2-0.9 2-2s-0.9-2-2-2z"/>
</g><path class="st4" d="m89.961 77.004c0 4.2423-3.4709 7.7132-7.7132 7.7132h-46.279c-4.2423 0-7.7132-3.4709-7.7132-7.7132v-46.279c0-4.2423 3.4709-7.7132 7.7132-7.7132h46.279c4.2423 0 7.7132 3.4709 7.7132 7.7132z" fill="#fff" stroke="#9d2217" stroke-miterlimit="10" stroke-width="7.7132"/><path class="st5" d="m89.887 55.218c0 4.4182-3.4625 8.033-7.6946 8.033h-46.167c-4.2321 0-7.6946-3.6148-7.6946-8.033v-24.099c0-4.4182 3.4625-8.033 7.6946-8.033h46.167c4.2321 0 7.6946 3.6148 7.6946 8.033z" fill="#fff" stroke="#9d2217" stroke-miterlimit="10" stroke-width="7.862"/><g transform="matrix(1.9283,0,0,1.9283,-2.5972,-3.985)">
	<path class="st6" d="m20 46h24c2.2 0 4-1.8 4-4v-4h-32v4c0 2.2 1.8 4 4 4z" fill="#690812" stroke="#690812" stroke-miterlimit="10" stroke-width="4"/>
</g><path class="st7" d="m43.682 77.004c0 4.2423-3.4709 7.7132-7.7132 7.7132s-7.7132-3.4709-7.7132-7.7132 3.4709-7.7132 7.7132-7.7132 7.7132 3.4709 7.7132 7.7132z" fill="#fd5" stroke="#690812" stroke-miterlimit="10" stroke-width="7.7132"/><path class="st7" d="m89.961 77.004c0 4.2423-3.4709 7.7132-7.7132 7.7132s-7.7132-3.4709-7.7132-7.7132 3.4709-7.7132 7.7132-7.7132 7.7132 3.4709 7.7132 7.7132z" fill="#fd5" stroke="#690812" stroke-miterlimit="10" stroke-width="7.7132"/><path class="st8" d="m82.248 96.287c0 2.1211-1.7355 3.8566-3.8566 3.8566h-38.566c-2.1211 0-3.8566-1.7355-3.8566-3.8566s1.7355-3.8566 3.8566-3.8566h38.566c2.1211 0 3.8566 1.7355 3.8566 3.8566z" fill="#a07a53" stroke-width="1.9283"/></g><g transform="translate(165.12 -48.096)"><g transform="matrix(.1875 0 0 .1875 -125.63 53.96)"><path d="m221.68 167.75c-13.508-13.795-32.388-50.28-7.16-89.623 10.615-16.554 26.272-26.634 45.281-29.151 15.126-2.002 31.84 1.064 47.074 8.632 28.291 14.056 42.726 38.369 35.101 59.126-7.07 19.246-22.055 26.267-32.997 31.393-9.253 4.335-14.225 6.902-17.316 13.444z" fill="#529add"/><path d="m222.7 157.49c-7.217 0.6-11.921-2.428-20.3-8.273-9.911-6.912-23.487-16.381-43.686-12.88-21.788 3.775-35.627 28.433-33.654 59.963 1.062 16.976 6.766 32.986 16.062 45.083 11.684 15.203 28.242 23.722 47.885 24.638 1.414 0.066 2.802 0.098 4.169 0.098 43.841 0 64.83-33.077 69.867-51.11z" fill="#2b68a3"/><path d="m296.52 297.75c-11.87 0-22.238-4.161-29.197-12.506-13.132-15.745-11.719-32.234-10.689-44.274 0.873-10.18 1.136-15.77-2.986-21.718l29.641-63.697c18.7-4.799 59.737-2.908 81.194 38.611 9.029 17.469 9.931 36.069 2.606 53.789-5.827 14.098-16.84 27.044-31.01 36.452-13.385 8.887-27.276 13.343-39.559 13.343z" fill="#3581c8"/></g><path d="m-77.632 96.803c-5.0728 0-9.1995-4.1269-9.1995-9.1995s4.1267-9.1995 9.1995-9.1995 9.1995 4.1269 9.1995 9.1995-4.1267 9.1995-9.1995 9.1995z" fill="#6f6f6f" stroke-width=".1875"/><path d="m-77.632 96.803v-18.399c5.0728 0 9.1995 4.1269 9.1995 9.1995s-4.1267 9.1995-9.1995 9.1995z" fill="#444" stroke-width=".1875"/></g></svg>
