<svg version="1.1" viewBox="0 0 128 128" xml:space="preserve" xmlns="http://www.w3.org/2000/svg"><path d="m128.01 63.533c0 35.346-28.654 64-64 64s-64-28.654-64-64 28.654-64 64-64 64 28.654 64 64" fill="#aaa" stroke-width=".2"/><g stroke-width=".17551"><path d="m99.975 54.733c-1.6059 0-2.908-1.3019-2.908-2.908v-21.771h-66.134v21.771c0 1.6059-1.3019 2.908-2.908 2.908s-2.908-1.3019-2.908-2.908v-24.679c0-1.6059 1.3019-2.908 2.908-2.908h71.95c1.6059 0 2.908 1.3019 2.908 2.908v24.679c0 1.6061-1.3019 2.9078-2.9078 2.9078z" fill="#a07a53"/><path d="m99.975 24.239h-35.972v5.8158h33.064v21.771c0 1.6059 1.3019 2.908 2.908 2.908 1.6061 0 2.908-1.3019 2.908-2.908v-24.679c-1.7e-4 -1.6061-1.3021-2.9078-2.908-2.9078z" fill="#a07a53"/><path d="m31.713 45.426h-7.3765c-2.9041 0-5.2666 2.3625-5.2666 5.2666v47.802c0 2.9038 2.3625 5.2666 5.2666 5.2666h7.3767c2.9038 0 5.2666-2.3627 5.2666-5.2666v-47.802c-1.76e-4 -2.9041-2.3628-5.2666-5.2668-5.2666z" fill="#eda637"/><path d="m103.66 45.426h-7.3767c-2.9041 0-5.2666 2.3628-5.2666 5.2666v47.802c0 2.9038 2.3625 5.2666 5.2666 5.2666h7.3767c2.9038 0 5.2666-2.3627 5.2666-5.2666v-47.802c-1.8e-4 -2.9041-2.3627-5.2666-5.2666-5.2666z" fill="#eda637"/></g><g transform="matrix(.17551 0 0 .17551 19.07 19.07)" fill="#3150ab">
	<path d="m256 82.855c-4.575 0-8.284 3.708-8.284 8.284v16.569c0 4.576 3.709 8.284 8.284 8.284s8.284-3.708 8.284-8.284v-16.569c0-4.575-3.709-8.284-8.284-8.284z"/>
	<path d="m256 120.21c-4.575 0-8.284 3.708-8.284 8.284v20.785c0 4.576 3.709 8.284 8.284 8.284s8.284-3.708 8.284-8.284v-20.785c0-4.576-3.709-8.284-8.284-8.284z"/>
	<path d="m256 161.78c-4.575 0-8.284 3.708-8.284 8.284v16.569c0 4.576 3.709 8.284 8.284 8.284s8.284-3.708 8.284-8.284v-16.569c0-4.575-3.709-8.284-8.284-8.284z"/>

	<path d="m233.73 83.068c-4.457-1.028-8.906 1.751-9.936 6.209l-3.726 16.144c-1.028 4.458 1.751 8.906 6.21 9.935 0.626 0.145 1.254 0.214 1.87 0.214 3.771 0 7.18-2.592 8.064-6.423l3.726-16.144c1.031-4.458-1.75-8.908-6.208-9.935z"/>
	<path d="m225.14 120.28c-4.457-1.027-8.906 1.751-9.936 6.209l-4.862 21.068c-1.028 4.458 1.751 8.906 6.21 9.935 0.626 0.145 1.254 0.214 1.87 0.214 3.771 0 7.18-2.592 8.064-6.423l4.862-21.067c1.03-4.459-1.749-8.906-6.208-9.936z"/>
	<path d="m215.42 162.42c-4.455-1.029-8.906 1.751-9.936 6.209l-3.726 16.143c-1.028 4.458 1.751 8.906 6.21 9.935 0.626 0.145 1.254 0.214 1.87 0.214 3.771 0 7.18-2.592 8.064-6.423l3.726-16.143c1.03-4.458-1.749-8.906-6.208-9.935z"/>

	<path d="m285.72 115.36c4.458-1.028 7.238-5.476 6.21-9.935l-3.726-16.144c-1.028-4.459-5.483-7.239-9.935-6.209-4.458 1.028-7.238 5.476-6.21 9.935l3.726 16.144c0.884 3.832 4.293 6.423 8.064 6.423 0.618 0 1.245-0.069 1.871-0.214z"/>
	<path d="m295.45 157.49c4.458-1.029 7.238-5.476 6.21-9.935l-4.862-21.067c-1.029-4.458-5.479-7.238-9.936-6.209-4.458 1.029-7.238 5.476-6.21 9.935l4.862 21.068c0.885 3.832 4.293 6.423 8.064 6.423 0.618-1e-3 1.244-0.071 1.872-0.215z"/>
	<path d="m310.24 184.77-3.726-16.143c-1.029-4.458-5.479-7.239-9.936-6.209-4.458 1.029-7.238 5.476-6.21 9.935l3.726 16.143c0.885 3.832 4.293 6.423 8.064 6.423 0.617 0 1.244-0.07 1.87-0.214 4.461-1.029 7.241-5.476 6.212-9.935z"/>
</g><path d="m28.025 45.426h-3.6881c-2.9041 0-5.2666 2.3625-5.2666 5.2666v47.802c0 2.9038 2.3625 5.2666 5.2666 5.2666h3.6884v-58.336z" fill="#f7dc4d" stroke-width=".17551"/><path d="m99.975 45.426h-3.6884c-2.9041 0-5.2666 2.3628-5.2666 5.2666v47.802c0 2.9038 2.3625 5.2666 5.2666 5.2666h3.6884z" fill="#f7dc4d" stroke-width=".17551"/><g transform="matrix(.714 0 0 .714 -30.041 -46.098)"><g transform="translate(72.601 123.85)"><g class="st2" transform="matrix(1.9283,0,0,1.9283,-2.5972,-3.985)" fill="#231f20" opacity=".2">
	<path class="st3" d="m20 34h24c1.1 0 2-0.9 2-2v-12c0-1.1-0.9-2-2-2h-24c-1.1 0-2 0.9-2 2v12c0 1.1 0.9 2 2 2z"/>
	<path class="st3" d="m44 14h-24c-3.3 0-6 2.7-6 6v24c0 3.3 2.7 6 6 6h24c3.3 0 6-2.7 6-6v-24c0-3.3-2.7-6-6-6zm-26 6c0-1.1 0.9-2 2-2h24c1.1 0 2 0.9 2 2v12c0 1.1-0.9 2-2 2h-24c-1.1 0-2-0.9-2-2z"/>
	<circle class="st3" cx="44" cy="44" r="2"/>
	<path class="st3" d="m42 52h-20c-1.1 0-2 0.9-2 2s0.9 2 2 2h20c1.1 0 2-0.9 2-2s-0.9-2-2-2z"/>
</g><path class="st4" d="m89.961 77.004c0 4.2423-3.4709 7.7132-7.7132 7.7132h-46.279c-4.2423 0-7.7132-3.4709-7.7132-7.7132v-46.279c0-4.2423 3.4709-7.7132 7.7132-7.7132h46.279c4.2423 0 7.7132 3.4709 7.7132 7.7132z" fill="#fff" stroke="#9d2217" stroke-miterlimit="10" stroke-width="7.7132"/><path class="st5" d="m89.887 55.218c0 4.4182-3.4625 8.033-7.6946 8.033h-46.167c-4.2321 0-7.6946-3.6148-7.6946-8.033v-24.099c0-4.4182 3.4625-8.033 7.6946-8.033h46.167c4.2321 0 7.6946 3.6148 7.6946 8.033z" fill="#fff" stroke="#9d2217" stroke-miterlimit="10" stroke-width="7.862"/><g transform="matrix(1.9283,0,0,1.9283,-2.5972,-3.985)">
	<path class="st6" d="m20 46h24c2.2 0 4-1.8 4-4v-4h-32v4c0 2.2 1.8 4 4 4z" fill="#690812" stroke="#690812" stroke-miterlimit="10" stroke-width="4"/>
</g><path class="st7" d="m43.682 77.004c0 4.2423-3.4709 7.7132-7.7132 7.7132s-7.7132-3.4709-7.7132-7.7132 3.4709-7.7132 7.7132-7.7132 7.7132 3.4709 7.7132 7.7132z" fill="#fd5" stroke="#690812" stroke-miterlimit="10" stroke-width="7.7132"/><path class="st7" d="m89.961 77.004c0 4.2423-3.4709 7.7132-7.7132 7.7132s-7.7132-3.4709-7.7132-7.7132 3.4709-7.7132 7.7132-7.7132 7.7132 3.4709 7.7132 7.7132z" fill="#fd5" stroke="#690812" stroke-miterlimit="10" stroke-width="7.7132"/><path class="st8" d="m82.248 96.287c0 2.1211-1.7355 3.8566-3.8566 3.8566h-38.566c-2.1211 0-3.8566-1.7355-3.8566-3.8566s1.7355-3.8566 3.8566-3.8566h38.566c2.1211 0 3.8566 1.7355 3.8566 3.8566z" fill="#a07a53" stroke-width="1.9283"/></g></g></svg>
