<svg version="1.1" viewBox="0 0 128 128" xmlns="http://www.w3.org/2000/svg">
 <path d="m128 64c0 35.346-28.654 64-64 64s-64-28.654-64-64 28.654-64 64-64 64 28.654 64 64" fill="#aaa" stroke-width=".2"/>
 <g transform="matrix(.6215 0 0 .6215 24.138 33.456)">
  <path d="m64 16c0 8.4635-31.855 47.229-31.855 64 0 17.693 14.343 32.037 32.037 32.037 1.9578 0 3.8715-0.18515 5.7324-0.52149 13.773-1.9416 25.489-14.236 26.264-29.867 6.9e-4 -0.01359 0.0013-0.02742 2e-3 -0.04102 0.0257-0.532 0.03907-1.068 0.03907-1.6074 0-1.4454-0.23543-3.0407-0.63282-4.7344-3.7313-17.806-22.607-37.886-31.586-59.266z" fill-opacity=".2" stroke-width="2.329"/>
  <g transform="matrix(1.659,0,0,1.659,-49.861,-76.632)">
   <path d="m88 92c0 10.665-8.6459 19.311-19.311 19.311-10.665 0-19.311-8.6459-19.311-19.311 0-10.109 19.201-33.475 19.201-38.576 0 4.9282 19.42 27.947 19.42 38.576z" fill="#3581c8" stroke-width="1.4038"/>
   <path d="m69.247 60.906c4.7413 10.081 23.201 27.001 9.8651 29.912-13.336 2.9115-9.2312-21.652-9.8651-29.912z" fill="#529add" stroke-width="1.4038"/>
   <path d="m68.58 53.424c2.6783 23.584-9.5687 57.459 2.2166 57.712 9.1664-0.52951 17.204-8.7316 17.204-19.136-0.53372-11.421-13.523-24.535-19.42-38.576z" fill="#529add" fill-opacity=".6129" stroke-width="1.7838"/>
   <path d="m70.024 62.492c4.7413 10.081 15.831 21.122 7.8471 22.104s-7.2133-13.843-7.8471-22.104z" fill="#87bce1" stroke-width="1.4038"/>
   <path d="m57.296 80.816c-13.197 14.858-0.4695 27.086 8.8063 28.007-3.9351-3.0862-13.66-10.301-8.8063-28.007z" fill="#2b68a3" stroke-width="1.4038"/>
  </g>
 </g>
 <g transform="translate(-5.9658 3.6759)">
  <rect x="27.837" y="43.88" width="10.532" height="56.172" ry="9.1534e-5" fill="#deb486" stroke-width=".87769"/>
  <rect x="101.56" y="43.88" width="10.532" height="56.172" ry="9.1534e-5" fill="#deb486" stroke-width=".87769"/>
  <path d="m20.815 47.39 49.15-21.064 49.15 21.064" fill="none" stroke="#c84747" stroke-width="10.532"/>
 </g>
</svg>
