<svg version="1.1" viewBox="0 0 128 128" xml:space="preserve" xmlns="http://www.w3.org/2000/svg"><path d="m128.01 63.533c0 35.346-28.654 64-64 64s-64-28.654-64-64 28.654-64 64-64 64 28.654 64 64" fill="#aaa" stroke-width=".2"/><g transform="matrix(1.2934 0 0 1.2934 -18.786 -18.564)"><g transform="matrix(.12276 0 0 .12276 32.58 32.408)"><path d="m175.16 138.1c156.27 0 282.95 126.68 282.95 282.95v26.948h-161.68v-26.947c0-66.972-54.291-121.26-121.26-121.26h-13.474v-161.68z" fill="#6dc180"/><path d="m296.42 165.35v282.65h161.68v-26.947c0-112.87-66.095-210.29-161.68-255.7z" fill="#5ca15d"/><polyline points="0 84.211 94.316 84.211 94.316 299.79 0 299.79" fill="#dfdfe1"/><rect x="80.842" y="43.789" width="94.316" height="296.42" fill="#cfcdd2"/><rect x="242.53" y="427.79" width="269.47" height="40.421" fill="#5ca15d"/><rect x="296.42" y="427.79" width="215.58" height="40.421" fill="#477e48"/><path d="m343.21 351.44c-18.334-44.262-52.702-78.973-96.773-97.741l15.837-37.19c53.866 22.938 95.873 65.364 118.28 119.46z" fill="#95d5a7"/><path d="m296.42 234.67v50.718c20.153 17.989 36.165 40.416 46.786 66.057l37.345-15.468c-17.416-42.045-46.673-77.032-84.131-101.31z" fill="#6dc180"/></g></g></svg>
