<svg version="1.1" viewBox="0 0 128 128" xml:space="preserve" xmlns="http://www.w3.org/2000/svg"><path d="m128 64c0 35.346-28.654 64-64 64s-64-28.654-64-64 28.654-64 64-64 64 28.654 64 64" fill="#aaa"/><g transform="matrix(1.6359 0 0 1.6359 11.935 -384.67)"><path d="m2.4989e-6 293.83 5.2917-1e-5v-10.583l-5.2917-5.2917z" fill="#c4aea0"/><path d="m0 274.77v4.2333l6.2852 6.4138 2.2461-2.2441z" fill="#ad6262"/></g><style type="text/css">
	.st0{fill:#77B3D4;}
	.st1{opacity:0.2;}
	.st2{fill:#231F20;}
	.st3{fill:#FFFFFF;}
</style><g transform="matrix(.63212 0 0 .63212 17.113 9.8615)"><path d="m14.606 69.916v66.533h15.121v3.0242h9.0727v-3.0242h15.121v-66.533z" fill="#bacfef" stroke-width="0"/><g fill="#859dbf" stroke-width=".75606"><rect x="14.606" y="69.916" width="39.315" height="3.0242"/><rect x="14.606" y="91.085" width="39.315" height="3.0242"/><rect x="14.606" y="112.25" width="39.315" height="3.0242"/></g><g fill="#6f829f" stroke-width=".75606"><rect x="23.679" y="66.891" width="6.0485" height="72.582"/><rect x="38.8" y="66.891" width="6.0485" height="72.582"/><rect x="53.921" y="66.891" width="6.0485" height="66.533"/><rect x="8.5577" y="66.891" width="6.0485" height="66.533"/></g><path d="m5.5335 63.867v72.582h18.145v-9.0727h-15.121v-15.121h51.412v15.121h-15.121v9.0727h18.145v-72.582h-3.0242zm3.0242 6.0485h51.412v15.121h-51.412zm0 21.17h51.412v15.121h-51.412z" fill="#acb4c2" stroke-width=".75606"/><rect x="11.582" y="57.819" width="45.363" height="6.0485" fill="#b9c0c9" stroke-width=".75606"/></g><g transform="matrix(.38964 0 0 .38964 19.543 49.26)"><rect x="96" y="44" width="32" height="76" fill="#c4aea0"/><rect x="104" y="56" width="16" height="16" fill="#88706b"/><rect x="104" y="92" width="16" height="16" fill="#88706b"/><rect x="104" y="88" width="16" height="4" fill="#ae897a"/><rect x="104" y="52" width="16" height="4" fill="#ae897a"/><path d="m96 44 8-28 24 3.8e-5v28z" fill="#ad6262"/></g><g stroke-width=".44837"><path d="m100.9 56.354h7.1739l1.7935 39.456h-10.761z" fill="#aaa"/><path d="m79.376 56.354h7.1739l1.7935 39.456h-10.761z" fill="#aaa"/><path d="m72.202 95.81h43.043v-26.902l-21.522 8.9674v-8.9674l-21.522 8.9674z" fill="#b75858"/></g><path d="m70.408 79.669 25.109-10.761" fill="none" stroke="#333" stroke-width="5.3804"/><rect x="100.9" y="81.462" width="10.761" height="14.348" fill="#aaa" stroke-width=".44837"/><g fill="#808080" stroke-width=".44837"><rect x="102.69" y="83.256" width="7.1739" height="1.7935"/><rect x="102.69" y="87.74" width="7.1739" height="1.7935"/><rect x="102.69" y="92.223" width="7.1739" height="1.7935"/></g><path d="m93.723 77.875 23.315-8.9674" fill="none" stroke="#333" stroke-width="5.3804"/><g stroke-width=".44837"><rect x="75.789" y="83.256" width="5.3804" height="7.1739" fill="#aaa"/><rect x="75.789" y="83.256" width="5.3804" height="1.7935" fill="#808080"/><rect x="83.859" y="83.256" width="5.3804" height="7.1739" fill="#aaa"/><rect x="83.859" y="83.256" width="5.3804" height="1.7935" fill="#808080"/><rect x="91.93" y="83.256" width="5.3804" height="7.1739" fill="#aaa"/></g><g fill="#808080" stroke-width=".44837"><rect x="91.93" y="83.256" width="5.3804" height="1.7935"/><rect x="100.9" y="52.767" width="7.1739" height="3.5869"/><rect x="100.9" y="59.941" width="7.1739" height="3.5869"/></g><g transform="matrix(.72151 0 0 .72151 36.509 -2.9353)"><g transform="matrix(2.5799 0 0 2.5799 23.545 22.722)"><g fill="#8f8e8e">

<g fill="#8f8e8e">

<path d="m26.87 12.49-10 18c-0.18 0.32-0.51 0.51-0.87 0.51-0.08 0-0.17-0.01-0.25-0.03-0.44-0.12-0.75-0.51-0.75-0.97v-11h-9c-0.34 0-0.65-0.17-0.84-0.45-0.18-0.28-0.21-0.64-0.08-0.95l7-16c0.16-0.36 0.52-0.6 0.92-0.6h6c0.33 0 0.64 0.16 0.83 0.44 0.18 0.27 0.22 0.62 0.1 0.93l-3.45 8.63h9.52c0.35 0 0.68 0.19 0.86 0.49 0.18 0.31 0.19 0.69 0.01 1z" fill="#8f8e8e"/>

</g>

</g></g><g transform="matrix(2.5799 0 0 2.5799 23.545 18.742)">



<path d="m26.87 12.49-10 18c-0.18 0.32-0.51 0.51-0.87 0.51-0.08 0-0.17-0.01-0.25-0.03-0.44-0.12-0.75-0.51-0.75-0.97v-11h-9c-0.34 0-0.65-0.17-0.84-0.45-0.18-0.28-0.21-0.64-0.08-0.95l7-16c0.16-0.36 0.52-0.6 0.92-0.6h6c0.33 0 0.64 0.16 0.83 0.44 0.18 0.27 0.22 0.62 0.1 0.93l-3.45 8.63h9.52c0.35 0 0.68 0.19 0.86 0.49 0.18 0.31 0.19 0.69 0.01 1z" fill="#ffb841"/>



</g></g></svg>
