<svg version="1.1" viewBox="0 0 128 128" xml:space="preserve" xmlns="http://www.w3.org/2000/svg"><path d="m128 64c0 35.346-28.654 64-64 64s-64-28.654-64-64 28.654-64 64-64 64 28.654 64 64" fill="#aaa"/><g transform="matrix(.64028 0 0 .64028 15.106 23.268)"><g transform="matrix(6.2404 0 0 6.2404 1.4784 -5.0228)"><g fill="#fc0"><path d="m5.6844 12c0 0.5847-0.47127 1.0588-1.0526 1.0588-0.58135 0-1.0526-0.4741-1.0526-1.0588 0-0.5848 0.47128-1.0589 1.0526-1.0589 0.58136 0 1.0526 0.4741 1.0526 1.0589z"/><path d="m5.6844 18.353c0 0.5848-0.47127 1.0588-1.0526 1.0588-0.58135 0-1.0526-0.474-1.0526-1.0588s0.47128-1.0588 1.0526-1.0588c0.58136 0 1.0526 0.474 1.0526 1.0588z"/><path d="m5.6844 5.6467c0 0.58478-0.47127 1.0588-1.0526 1.0588-0.58135 0-1.0526-0.47405-1.0526-1.0588 0-0.58477 0.47128-1.0588 1.0526-1.0588 0.58136 0 1.0526 0.47405 1.0526 1.0588z"/></g><g clip-rule="evenodd" fill="#4d4d4d" fill-rule="evenodd"><path d="m3.5155 15.725c0.27152-0.0186 0.61841-0.0189 1.1161-0.0189h14.737c0.4977 0 0.8446 3e-4 1.1161 0.0189 0.2668 0.0183 0.4222 0.0526 0.5408 0.102 0.3869 0.1612 0.6943 0.4704 0.8545 0.8595 0.0491 0.1193 0.0832 0.2756 0.1014 0.544 0.0185 0.2731 0.0188 0.622 0.0188 1.1226s-3e-4 0.8496-0.0188 1.1227c-0.0182 0.2684-0.0523 0.4246-0.1014 0.544-0.1602 0.3891-0.4676 0.6983-0.8545 0.8595-0.1186 0.0494-0.274 0.0837-0.5408 0.102-0.2715 0.0186-0.6184 0.0189-1.1161 0.0189h-14.737c-0.49767 0-0.84456-3e-4 -1.1161-0.0189-0.2668-0.0183-0.42217-0.0526-0.54079-0.102-0.38689-0.1612-0.69427-0.4704-0.85452-0.8595-0.04914-0.1194-0.08318-0.2756-0.10138-0.544-0.01853-0.2731-0.01881-0.6221-0.01881-1.1227s2.8e-4 -0.8495 0.01881-1.1226c0.0182-0.2684 0.05224-0.4247 0.10138-0.544 0.16025-0.3891 0.46763-0.6983 0.85452-0.8595 0.11862-0.0494 0.27399-0.0837 0.54079-0.102zm1.1161 3.687c0.58135 0 1.0526-0.4741 1.0526-1.0589 0-0.5847-0.47128-1.0588-1.0526-1.0588s-1.0526 0.4741-1.0526 1.0588c0 0.5848 0.47128 1.0589 1.0526 1.0589z"/><path d="m4.6316 8.2941c-0.49767 0-0.84456-2.9e-4 -1.1161-0.01892-0.2668-0.01831-0.42217-0.05256-0.54079-0.10198-0.38689-0.1612-0.69427-0.47038-0.85452-0.85955-0.04914-0.11932-0.08318-0.2756-0.10138-0.54397-0.01853-0.27312-0.01881-0.62205-0.01881-1.1226s2.8e-4 -0.84953 0.01881-1.1226c0.0182-0.26836 0.05224-0.42464 0.10138-0.54397 0.16025-0.38916 0.46763-0.69835 0.85452-0.85954 0.11862-0.04943 0.27399-0.08367 0.54079-0.10198 0.27152-0.01863 0.61841-0.01892 1.1161-0.01892h14.737c0.4977 0 0.8446 2.9e-4 1.1161 0.01892 0.2668 0.01831 0.4222 0.05255 0.5408 0.10198 0.3869 0.16119 0.6943 0.47038 0.8545 0.85954 0.0491 0.11933 0.0832 0.27561 0.1014 0.54397 0.0185 0.27312 0.0188 0.62206 0.0188 1.1226s-3e-4 0.84952-0.0188 1.1226c-0.0182 0.26837-0.0523 0.42465-0.1014 0.54397-0.1602 0.38917-0.4676 0.69835-0.8545 0.85955-0.1186 0.04942-0.274 0.08367-0.5408 0.10198-0.2715 0.01863-0.6184 0.01892-1.1161 0.01892zm0 1.0588c-0.49767 0-0.84456 2.9e-4 -1.1161 0.01892-0.2668 0.01831-0.42217 0.05255-0.54079 0.10198-0.38689 0.16119-0.69427 0.47038-0.85452 0.85956-0.04914 0.1193-0.08318 0.2756-0.10138 0.544-0.01853 0.2731-0.01881 0.622-0.01881 1.1226s2.8e-4 0.8495 0.01881 1.1226c0.0182 0.2684 0.05224 0.4247 0.10138 0.544 0.16025 0.3892 0.46763 0.6984 0.85452 0.8596 0.11862 0.0494 0.27399 0.0836 0.54079 0.1019 0.27152 0.0187 0.61841 0.019 1.1161 0.019h14.737c0.4977 0 0.8446-3e-4 1.1161-0.019 0.2668-0.0183 0.4222-0.0525 0.5408-0.1019 0.3869-0.1612 0.6943-0.4704 0.8545-0.8596 0.0491-0.1193 0.0832-0.2756 0.1014-0.544 0.0185-0.2731 0.0188-0.622 0.0188-1.1226s-3e-4 -0.8495-0.0188-1.1226c-0.0182-0.2684-0.0523-0.4247-0.1014-0.544-0.1602-0.38918-0.4676-0.69837-0.8545-0.85956-0.1186-0.04943-0.274-0.08367-0.5408-0.10198-0.2715-0.01863-0.6184-0.01892-1.1161-0.01892zm1.0526 2.6471c0 0.5848-0.47128 1.0588-1.0526 1.0588s-1.0526-0.474-1.0526-1.0588 0.47128-1.0588 1.0526-1.0588 1.0526 0.474 1.0526 1.0588zm-1.0526-5.2941c0.58135 0 1.0526-0.47405 1.0526-1.0588s-0.47128-1.0588-1.0526-1.0588-1.0526 0.47405-1.0526 1.0588 0.47128 1.0588 1.0526 1.0588z"/></g></g></g><g transform="matrix(.72151 0 0 .72151 40.373 1.7345)"><g transform="matrix(2.5799 0 0 2.5799 23.545 22.722)"><g fill="#8f8e8e">

<g fill="#8f8e8e">

<path d="m26.87 12.49-10 18c-0.18 0.32-0.51 0.51-0.87 0.51-0.08 0-0.17-0.01-0.25-0.03-0.44-0.12-0.75-0.51-0.75-0.97v-11h-9c-0.34 0-0.65-0.17-0.84-0.45-0.18-0.28-0.21-0.64-0.08-0.95l7-16c0.16-0.36 0.52-0.6 0.92-0.6h6c0.33 0 0.64 0.16 0.83 0.44 0.18 0.27 0.22 0.62 0.1 0.93l-3.45 8.63h9.52c0.35 0 0.68 0.19 0.86 0.49 0.18 0.31 0.19 0.69 0.01 1z" fill="#8f8e8e"/>

</g>

</g></g><g transform="matrix(2.5799 0 0 2.5799 23.545 18.742)">



<path d="m26.87 12.49-10 18c-0.18 0.32-0.51 0.51-0.87 0.51-0.08 0-0.17-0.01-0.25-0.03-0.44-0.12-0.75-0.51-0.75-0.97v-11h-9c-0.34 0-0.65-0.17-0.84-0.45-0.18-0.28-0.21-0.64-0.08-0.95l7-16c0.16-0.36 0.52-0.6 0.92-0.6h6c0.33 0 0.64 0.16 0.83 0.44 0.18 0.27 0.22 0.62 0.1 0.93l-3.45 8.63h9.52c0.35 0 0.68 0.19 0.86 0.49 0.18 0.31 0.19 0.69 0.01 1z" fill="#ffb841"/>



</g></g></svg>
