<svg version="1.1" viewBox="0 0 128 128" xml:space="preserve" xmlns="http://www.w3.org/2000/svg"><path d="m128 64c0 35.346-28.654 64-64 64s-64-28.654-64-64 28.654-64 64-64 64 28.654 64 64" fill="#aaa"/><style type="text/css">
	.st0{fill:#77B3D4;}
	.st1{opacity:0.2;}
	.st2{fill:#231F20;}
	.st3{fill:#FFFFFF;}
</style><g transform="matrix(.18004 0 0 .18004 40.084 52.665)"><g class="st1" transform="matrix(12.5 0 0 12.5 -267.16 -350.17)">
		
			<path class="st2" d="m29 25.3c-0.4-4.8-5.4-7.1-5.6-7.2-0.3-0.1-0.5-0.1-0.7-0.1-5.8 1-6.6 4.3-6.7 4.5v0.6c6.9 21.4 21.2 25.3 25.9 26.6 0.4 0.1 0.7 0.2 0.9 0.3 0.1 0 0.2 0.1 0.3 0.1 0.2 0 0.3 0 0.5-0.1 0.1-0.1 3.5-1.7 4.4-6.9 0-0.2 0-0.5-0.1-0.7-0.1-0.1-1.9-3.5-6.8-4.7-0.3-0.1-0.7 0-1 0.2-1.6 1.3-3.7 2.7-4.6 2.9-6.2-3-9.7-8.9-9.8-10-0.1-0.6 1.3-2.8 3-4.6 0.2-0.2 0.3-0.6 0.3-0.9z"/>
		
	</g><g transform="matrix(12.5 0 0 12.5 -267.16 -350.17)">
		
			<path class="st3" d="m29 23.3c-0.4-4.8-5.4-7.1-5.6-7.2-0.3-0.1-0.5-0.1-0.7-0.1-5.8 1-6.6 4.3-6.7 4.5v0.6c6.9 21.4 21.2 25.3 25.9 26.6 0.4 0.1 0.7 0.2 0.9 0.3 0.1 0 0.2 0.1 0.3 0.1 0.2 0 0.3 0 0.5-0.1 0.1-0.1 3.5-1.7 4.4-6.9 0-0.2 0-0.5-0.1-0.7-0.1-0.1-1.9-3.5-6.8-4.7-0.3-0.1-0.7 0-1 0.2-1.6 1.3-3.7 2.7-4.6 2.9-6.2-3-9.7-8.9-9.8-10-0.1-0.6 1.3-2.8 3-4.6 0.2-0.2 0.3-0.6 0.3-0.9z" fill="#3581c8"/>
		
	</g></g></svg>
