<svg version="1.1" viewBox="0 0 128 128" xml:space="preserve" xmlns="http://www.w3.org/2000/svg"><path d="m128 64c0 35.346-28.654 64-64 64s-64-28.654-64-64 28.654-64 64-64 64 28.654 64 64" fill="#aaa"/><g transform="matrix(.83739 0 0 .83739 6.8996 21.143)"><g class="st2" transform="matrix(1.9283,0,0,1.9283,-2.5972,-3.985)" fill="#231f20" opacity=".2">
	<path class="st3" d="m20 34h24c1.1 0 2-0.9 2-2v-12c0-1.1-0.9-2-2-2h-24c-1.1 0-2 0.9-2 2v12c0 1.1 0.9 2 2 2z"/>
	<path class="st3" d="m44 14h-24c-3.3 0-6 2.7-6 6v24c0 3.3 2.7 6 6 6h24c3.3 0 6-2.7 6-6v-24c0-3.3-2.7-6-6-6zm-26 6c0-1.1 0.9-2 2-2h24c1.1 0 2 0.9 2 2v12c0 1.1-0.9 2-2 2h-24c-1.1 0-2-0.9-2-2z"/>
	<circle class="st3" cx="44" cy="44" r="2"/>
	<path class="st3" d="m42 52h-20c-1.1 0-2 0.9-2 2s0.9 2 2 2h20c1.1 0 2-0.9 2-2s-0.9-2-2-2z"/>
</g><path class="st4" d="m89.961 77.004c0 4.2423-3.4709 7.7132-7.7132 7.7132h-46.279c-4.2423 0-7.7132-3.4709-7.7132-7.7132v-46.279c0-4.2423 3.4709-7.7132 7.7132-7.7132h46.279c4.2423 0 7.7132 3.4709 7.7132 7.7132z" fill="#fff" stroke="#9d2217" stroke-miterlimit="10" stroke-width="7.7132"/><path class="st5" d="m89.887 55.218c0 4.4182-3.4625 8.033-7.6946 8.033h-46.167c-4.2321 0-7.6946-3.6148-7.6946-8.033v-24.099c0-4.4182 3.4625-8.033 7.6946-8.033h46.167c4.2321 0 7.6946 3.6148 7.6946 8.033z" fill="#fff" stroke="#9d2217" stroke-miterlimit="10" stroke-width="7.862"/><g transform="matrix(1.9283,0,0,1.9283,-2.5972,-3.985)">
	<path class="st6" d="m20 46h24c2.2 0 4-1.8 4-4v-4h-32v4c0 2.2 1.8 4 4 4z" fill="#690812" stroke="#690812" stroke-miterlimit="10" stroke-width="4"/>
</g><path class="st7" d="m43.682 77.004c0 4.2423-3.4709 7.7132-7.7132 7.7132s-7.7132-3.4709-7.7132-7.7132 3.4709-7.7132 7.7132-7.7132 7.7132 3.4709 7.7132 7.7132z" fill="#fd5" stroke="#690812" stroke-miterlimit="10" stroke-width="7.7132"/><path class="st7" d="m89.961 77.004c0 4.2423-3.4709 7.7132-7.7132 7.7132s-7.7132-3.4709-7.7132-7.7132 3.4709-7.7132 7.7132-7.7132 7.7132 3.4709 7.7132 7.7132z" fill="#fd5" stroke="#690812" stroke-miterlimit="10" stroke-width="7.7132"/><path class="st8" d="m82.248 96.287c0 2.1211-1.7355 3.8566-3.8566 3.8566h-38.566c-2.1211 0-3.8566-1.7355-3.8566-3.8566s1.7355-3.8566 3.8566-3.8566h38.566c2.1211 0 3.8566 1.7355 3.8566 3.8566z" fill="#a07a53" stroke-width="1.9283"/></g><g transform="matrix(.72151 0 0 .72151 40.373 1.7345)"><g transform="matrix(2.5799 0 0 2.5799 23.545 22.722)"><g fill="#8f8e8e">

<g fill="#8f8e8e">

<path d="m26.87 12.49-10 18c-0.18 0.32-0.51 0.51-0.87 0.51-0.08 0-0.17-0.01-0.25-0.03-0.44-0.12-0.75-0.51-0.75-0.97v-11h-9c-0.34 0-0.65-0.17-0.84-0.45-0.18-0.28-0.21-0.64-0.08-0.95l7-16c0.16-0.36 0.52-0.6 0.92-0.6h6c0.33 0 0.64 0.16 0.83 0.44 0.18 0.27 0.22 0.62 0.1 0.93l-3.45 8.63h9.52c0.35 0 0.68 0.19 0.86 0.49 0.18 0.31 0.19 0.69 0.01 1z" fill="#8f8e8e"/>

</g>

</g></g><g transform="matrix(2.5799 0 0 2.5799 23.545 18.742)">



<path d="m26.87 12.49-10 18c-0.18 0.32-0.51 0.51-0.87 0.51-0.08 0-0.17-0.01-0.25-0.03-0.44-0.12-0.75-0.51-0.75-0.97v-11h-9c-0.34 0-0.65-0.17-0.84-0.45-0.18-0.28-0.21-0.64-0.08-0.95l7-16c0.16-0.36 0.52-0.6 0.92-0.6h6c0.33 0 0.64 0.16 0.83 0.44 0.18 0.27 0.22 0.62 0.1 0.93l-3.45 8.63h9.52c0.35 0 0.68 0.19 0.86 0.49 0.18 0.31 0.19 0.69 0.01 1z" fill="#ffb841"/>



</g></g></svg>
