<svg version="1.1" viewBox="0 0 128 128" xml:space="preserve" xmlns="http://www.w3.org/2000/svg"><path d="m128 64c0 35.346-28.654 64-64 64s-64-28.654-64-64 28.654-64 64-64 64 28.654 64 64" fill="#aaa" stroke-width=".2"/><g transform="matrix(.1875 0 0 .1875 15.775 19.265)" fill="#888"><rect x="311.81" y="411.18" width="33.391" height="34.97"/><rect x="240.5" y="346.1" width="33.391" height="100.06"/><path d="m257.2 362.79c-98.942 0-179.44-80.495-179.44-179.44 0-98.941 80.494-179.44 179.44-179.44s179.44 80.495 179.44 179.44c0 98.941-80.494 179.44-179.44 179.44z"/><path d="m257.2 362.79v-358.87c98.942 0 179.44 80.495 179.44 179.44 0 98.941-80.494 179.44-179.44 179.44z"/><path d="m222.88 171.67c-13.508-13.795-32.388-50.28-7.16-89.623 10.615-16.554 26.272-26.634 45.281-29.151 15.126-2.002 31.84 1.064 47.074 8.632 28.291 14.056 42.726 38.369 35.101 59.126-7.07 19.246-22.055 26.267-32.997 31.393-9.253 4.335-14.225 6.902-17.316 13.444z"/><path d="m223.9 161.41c-7.217 0.6-11.921-2.428-20.3-8.273-9.911-6.912-23.487-16.381-43.686-12.88-21.788 3.775-35.627 28.433-33.654 59.963 1.062 16.976 6.766 32.986 16.062 45.083 11.684 15.203 28.242 23.722 47.885 24.638 1.414 0.066 2.802 0.098 4.169 0.098 43.841 0 64.83-33.077 69.867-51.11z"/><path d="m297.71 301.67c-11.87 0-22.238-4.161-29.197-12.506-13.132-15.745-11.719-32.234-10.689-44.274 0.873-10.18 1.136-15.77-2.986-21.718l29.641-63.697c18.7-4.799 59.737-2.908 81.194 38.611 9.029 17.469 9.931 36.069 2.606 53.789-5.827 14.098-16.84 27.044-31.01 36.452-13.385 8.887-27.276 13.343-39.559 13.343z"/><path d="m257.2 232.42c-27.055 0-49.064-22.01-49.064-49.064s22.009-49.064 49.064-49.064 49.064 22.01 49.064 49.064-22.009 49.064-49.064 49.064z"/><path d="m257.2 232.42v-98.128c27.055 0 49.064 22.01 49.064 49.064s-22.009 49.064-49.064 49.064z"/><path d="m382.41 515.92h-250.41v-77.913h250.42v77.913z"/><path d="m382.41 515.92h-125.21v-77.913h125.21z"/></g><g transform="matrix(.1875 0 0 .1875 16 16)"><rect x="310.61" y="407.26" width="33.391" height="34.97" fill="#87bce1"/><rect x="239.3" y="342.18" width="33.391" height="100.06" fill="#8b8b8b"/><path d="m256 358.87c-98.942 0-179.44-80.495-179.44-179.44s80.494-179.44 179.44-179.44 179.44 80.495 179.44 179.44-80.494 179.44-179.44 179.44z" fill="#f7f7f8"/><path d="m256 358.87v-358.87c98.942 0 179.44 80.495 179.44 179.44s-80.494 179.44-179.44 179.44z" fill="#d7d7d7"/><g><path d="m221.68 167.75c-13.508-13.795-32.388-50.28-7.16-89.623 10.615-16.554 26.272-26.634 45.281-29.151 15.126-2.002 31.84 1.064 47.074 8.632 28.291 14.056 42.726 38.369 35.101 59.126-7.07 19.246-22.055 26.267-32.997 31.393-9.253 4.335-14.225 6.902-17.316 13.444z" fill="#529add"/><path d="m222.7 157.49c-7.217 0.6-11.921-2.428-20.3-8.273-9.911-6.912-23.487-16.381-43.686-12.88-21.788 3.775-35.627 28.433-33.654 59.963 1.062 16.976 6.766 32.986 16.062 45.083 11.684 15.203 28.242 23.722 47.885 24.638 1.414 0.066 2.802 0.098 4.169 0.098 43.841 0 64.83-33.077 69.867-51.11z" fill="#2b68a3"/><path d="m296.52 297.75c-11.87 0-22.238-4.161-29.197-12.506-13.132-15.745-11.719-32.234-10.689-44.274 0.873-10.18 1.136-15.77-2.986-21.718l29.641-63.697c18.7-4.799 59.737-2.908 81.194 38.611 9.029 17.469 9.931 36.069 2.606 53.789-5.827 14.098-16.84 27.044-31.01 36.452-13.385 8.887-27.276 13.343-39.559 13.343z" fill="#3581c8"/></g><path d="m256 228.5c-27.055 0-49.064-22.01-49.064-49.064s22.009-49.064 49.064-49.064 49.064 22.01 49.064 49.064-22.009 49.064-49.064 49.064z" fill="#6f6f6f"/><path d="m256 228.5v-98.128c27.055 0 49.064 22.01 49.064 49.064s-22.009 49.064-49.064 49.064z" fill="#444"/><path d="m381.21 512h-250.41v-77.913h250.42v77.913z" fill="#d7d7d7"/><path d="m381.21 512h-125.21v-77.913h125.21z" fill="#b0b0b0"/></g></svg>
