<?xml version="1.0" encoding="UTF-8" standalone="no"?>
<svg version="1.1" viewBox="0 0 128 128" id="svg7" sodipodi:docname="water_pump.svg" xml:space="preserve" inkscape:version="1.3 (0e150ed6c4, 2023-07-21)" xmlns:inkscape="http://www.inkscape.org/namespaces/inkscape" xmlns:sodipodi="http://sodipodi.sourceforge.net/DTD/sodipodi-0.dtd" xmlns="http://www.w3.org/2000/svg" xmlns:svg="http://www.w3.org/2000/svg"><defs id="defs7" /><sodipodi:namedview id="namedview7" pagecolor="#505050" bordercolor="#eeeeee" borderopacity="1" inkscape:showpageshadow="0" inkscape:pageopacity="0" inkscape:pagecheckerboard="0" inkscape:deskcolor="#505050" inkscape:zoom="14.304688" inkscape:cx="64" inkscape:cy="64" inkscape:window-width="3840" inkscape:window-height="2066" inkscape:window-x="3829" inkscape:window-y="-11" inkscape:window-maximized="1" inkscape:current-layer="svg7" /><path d="m128 64c0 35.346-28.654 64-64 64s-64-28.654-64-64 28.654-64 64-64 64 28.654 64 64" fill="#aaa" stroke-width=".2" id="path1" /><g id="g8" transform="matrix(1.3333333,0,0,1.3333333,24.000001,24.000001)"><rect x="17" y="5.5" style="fill:#556080" width="28" height="16" id="rect1" /><line style="fill:none;stroke:#7383bf;stroke-width:2;stroke-linejoin:round;stroke-miterlimit:10" x1="21" y1="5.5" x2="21" y2="21.5" id="line1" /><line style="fill:none;stroke:#7383bf;stroke-width:2;stroke-linejoin:round;stroke-miterlimit:10" x1="25" y1="5.5" x2="25" y2="21.5" id="line2" /><line style="fill:none;stroke:#7383bf;stroke-width:2;stroke-linejoin:round;stroke-miterlimit:10" x1="29" y1="5.5" x2="29" y2="21.5" id="line3" /><line style="fill:none;stroke:#7383bf;stroke-width:2;stroke-linejoin:round;stroke-miterlimit:10" x1="33" y1="5.5" x2="33" y2="21.5" id="line4" /><line style="fill:none;stroke:#7383bf;stroke-width:2;stroke-linejoin:round;stroke-miterlimit:10" x1="37" y1="5.5" x2="37" y2="21.5" id="line5" /><line style="fill:none;stroke:#7383bf;stroke-width:2;stroke-linejoin:round;stroke-miterlimit:10" x1="41" y1="5.5" x2="41" y2="21.5" id="line6" /><polygon style="fill:#c7cac7" points="43,26.5 19,26.5 19,34.5 7,34.5 7,54.5 53,54.5 53,34.5 43,34.5 " id="polygon6" /><rect x="24" y="21.5" style="fill:#afb6bb" width="14" height="5" id="rect6" /><rect x="19" y="2.5" style="fill:#38454f" width="24" height="3" id="rect7" /><rect x="1" y="32.5" style="fill:#7383bf;stroke:#556080;stroke-width:2;stroke-linecap:round;stroke-linejoin:round;stroke-miterlimit:10" width="6" height="6" id="rect8" /><rect x="1" y="38.5" style="fill:#7383bf;stroke:#556080;stroke-width:2;stroke-linecap:round;stroke-linejoin:round;stroke-miterlimit:10" width="6" height="6" id="rect9" /><rect x="1" y="44.5" style="fill:#7383bf;stroke:#556080;stroke-width:2;stroke-linecap:round;stroke-linejoin:round;stroke-miterlimit:10" width="6" height="6" id="rect10" /><rect x="1" y="50.5" style="fill:#7383bf;stroke:#556080;stroke-width:2;stroke-linecap:round;stroke-linejoin:round;stroke-miterlimit:10" width="6" height="6" id="rect11" /><rect x="53" y="32.5" style="fill:#7383bf;stroke:#556080;stroke-width:2;stroke-linecap:round;stroke-linejoin:round;stroke-miterlimit:10" width="6" height="6" id="rect12" /><rect x="53" y="38.5" style="fill:#7383bf;stroke:#556080;stroke-width:2;stroke-linecap:round;stroke-linejoin:round;stroke-miterlimit:10" width="6" height="6" id="rect13" /><rect x="53" y="44.5" style="fill:#7383bf;stroke:#556080;stroke-width:2;stroke-linecap:round;stroke-linejoin:round;stroke-miterlimit:10" width="6" height="6" id="rect14" /><rect x="53" y="50.5" style="fill:#7383bf;stroke:#556080;stroke-width:2;stroke-linecap:round;stroke-linejoin:round;stroke-miterlimit:10" width="6" height="6" id="rect15" /></g><g id="g9" transform="matrix(0.40405701,0,0,0.40405701,38.084476,49.92004)"><path d="m 64,16 c 0,8.4635 -31.855,47.229 -31.855,64 0,17.693 14.343,32.037 32.037,32.037 1.9578,0 3.8715,-0.18515 5.7324,-0.52149 13.773,-1.9416 25.489,-14.236 26.264,-29.867 6.9e-4,-0.01359 0.0013,-0.02742 0.002,-0.04102 0.0257,-0.532 0.03907,-1.068 0.03907,-1.6074 0,-1.4454 -0.23543,-3.0407 -0.63282,-4.7344 -3.7313,-17.806 -22.607,-37.886 -31.586,-59.266 z" fill-opacity="0.2" stroke-width="2.329" id="path2" /><g transform="matrix(1.659,0,0,1.659,-49.861,-76.632)" id="g7"><path d="m 88,92 c 0,10.665 -8.6459,19.311 -19.311,19.311 -10.665,0 -19.311,-8.6459 -19.311,-19.311 0,-10.109 19.201,-33.475 19.201,-38.576 0,4.9282 19.42,27.947 19.42,38.576 z" fill="#3581c8" stroke-width="1.4038" id="path3" /><path d="M 69.247,60.906 C 73.9883,70.987 92.448,87.907 79.1121,90.818 65.7761,93.7295 69.8809,69.166 69.247,60.906 Z" fill="#529add" stroke-width="1.4038" id="path4" /><path d="m 68.58,53.424 c 2.6783,23.584 -9.5687,57.459 2.2166,57.712 C 79.963,110.60649 88.0006,102.4044 88.0006,92 87.46688,80.579 74.4776,67.465 68.5806,53.424 Z" fill="#529add" fill-opacity="0.6129" stroke-width="1.7838" id="path5" /><path d="M 70.024,62.492 C 74.7653,72.573 85.855,83.614 77.8711,84.596 69.8872,85.578 70.6578,70.753 70.024,62.492 Z" fill="#87bce1" stroke-width="1.4038" id="path6" /><path d="m 57.296,80.816 c -13.197,14.858 -0.4695,27.086 8.8063,28.007 -3.9351,-3.0862 -13.66,-10.301 -8.8063,-28.007 z" fill="#2b68a3" stroke-width="1.4038" id="path7" /></g></g></svg>
