<svg version="1.1" viewBox="0 0 128 128" xml:space="preserve" xmlns="http://www.w3.org/2000/svg"><path d="m128.01 63.533c0 35.346-28.654 64-64 64s-64-28.654-64-64 28.654-64 64-64 64 28.654 64 64" fill="#aaa" stroke-width=".2"/><g transform="matrix(.1875 0 0 .1875 16.013 19.533)" fill="#888"><rect x="124.88" y="124.88" width="37.463" height="237.27"/><rect x="349.66" y="124.88" width="37.463" height="237.27"/><rect x="237.27" y="137.37" width="37.463" height="87.415"/><polygon points="293.46 287.22 218.54 287.22 212.29 212.29 299.71 212.29"/><path d="m106.15 512v-137.37c0-20.69 16.774-37.463 37.463-37.463h224.78c20.69 0 37.463 16.774 37.463 37.463v137.37z"/><polygon points="380.88 0 131.12 0 106.15 149.85 405.85 149.85"/><path d="m405.85 374.63c0-20.69-16.774-37.463-37.463-37.463h-112.39v174.83h149.85z"/><polygon points="380.88 0 256 0 256 149.85 405.85 149.85"/><polygon points="299.71 212.29 256 212.29 256 287.22 293.46 287.22"/></g><g transform="matrix(.1875 0 0 .1875 16.013 15.533)"><rect x="124.88" y="124.88" width="37.463" height="237.27" fill="#88888f"/><rect x="349.66" y="124.88" width="37.463" height="237.27" fill="#797781"/><rect x="237.27" y="137.37" width="37.463" height="87.415" fill="#d8ccbc"/><polygon points="293.46 287.22 218.54 287.22 212.29 212.29 299.71 212.29" fill="#3581c8"/><path d="m106.15 512v-137.37c0-20.69 16.774-37.463 37.463-37.463h224.78c20.69 0 37.463 16.774 37.463 37.463v137.37z" fill="#ebe4dd"/><polygon points="380.88 0 131.12 0 106.15 149.85 405.85 149.85" fill="#87bce1"/><path d="m405.85 374.63c0-20.69-16.774-37.463-37.463-37.463h-112.39v174.83h149.85z" fill="#d8ccbc"/><polygon points="380.88 0 256 0 256 149.85 405.85 149.85" fill="#529add"/><polygon points="299.71 212.29 256 212.29 256 287.22 293.46 287.22" fill="#2b68a3"/></g></svg>
