<?xml version="1.0" encoding="UTF-8" standalone="no"?>
<svg
   xmlns:dc="http://purl.org/dc/elements/1.1/"
   xmlns:cc="http://creativecommons.org/ns#"
   xmlns:rdf="http://www.w3.org/1999/02/22-rdf-syntax-ns#"
   xmlns:svg="http://www.w3.org/2000/svg"
   xmlns="http://www.w3.org/2000/svg"
   xmlns:sodipodi="http://sodipodi.sourceforge.net/DTD/sodipodi-0.dtd"
   xmlns:inkscape="http://www.inkscape.org/namespaces/inkscape"
   width="100%"
   height="100%"
   viewBox="0 0 290 290"
   version="1.1"
   xml:space="preserve"
   style="fill-rule:evenodd;clip-rule:evenodd;stroke-linecap:round;stroke-linejoin:round;"
   id="svg60"
   sodipodi:docname="ic_achievement_first_edit.svg"
   inkscape:version="0.92.1 r15371"><metadata
     id="metadata64"><rdf:RDF><cc:Work
         rdf:about=""><dc:format>image/svg+xml</dc:format><dc:type
           rdf:resource="http://purl.org/dc/dcmitype/StillImage" /></cc:Work></rdf:RDF></metadata><sodipodi:namedview
     pagecolor="#ffffff"
     bordercolor="#666666"
     borderopacity="1"
     objecttolerance="10"
     gridtolerance="10"
     guidetolerance="10"
     inkscape:pageopacity="0"
     inkscape:pageshadow="2"
     inkscape:window-width="1972"
     inkscape:window-height="1018"
     id="namedview62"
     showgrid="false"
     inkscape:zoom="2.3017545"
     inkscape:cx="39.377067"
     inkscape:cy="107.18799"
     inkscape:window-x="0"
     inkscape:window-y="0"
     inkscape:window-maximized="0"
     inkscape:current-layer="g5448" /><g
     id="g7001"><path
       id="path4510"
       d="M 145,289.016 C 143.129,289.016 141.37,288.287 140.047,286.965 L 3.035,149.952 C 1.712,148.63 0.984,146.871 0.984,145 0.984,143.13 1.712,141.37 3.035,140.047 L 140.047,3.035 C 141.37,1.712 143.129,0.984 145,0.984 146.871,0.984 148.63,1.712 149.953,3.035 L 286.965,140.047 C 288.288,141.371 289.016,143.13 289.016,145 289.016,146.87 288.288,148.629 286.965,149.952 L 149.953,286.965 C 148.63,288.287 146.871,289.016 145,289.016 Z"
       style="fill:url(#_Linear1);fill-rule:nonzero"
       inkscape:connector-curvature="0" /><path
       id="path4510-4"
       d="M 152.395,5.367 34.582,181.391 65.938,212.746 183.75,36.723 Z M 197.809,50.781 79.994,226.803 94.053,240.861 211.865,64.838 Z"
       style="fill:#59667f;fill-opacity:0.2;fill-rule:nonzero"
       inkscape:connector-curvature="0" /><g
       id="g4521"><path
         id="path4502"
         d="M 170.199,106.939 143.295,89.523 115.518,105.507 123.767,74.539 99.981,53.06 131.983,51.336 145.061,22.077 156.59,51.98 188.457,55.376 163.581,75.581 Z"
         style="fill:#fbe22d;fill-rule:nonzero"
         inkscape:connector-curvature="0" /><path
         id="path4505"
         d="M 145.06,22.076 145.171,69.379 156.589,51.98 Z M 145.171,69.379 163.581,75.58 188.458,55.375 Z M 145.171,69.379 143.296,89.523 170.198,106.939 Z M 145.171,69.379 123.767,74.539 115.519,105.508 Z M 145.171,69.379 131.983,51.336 99.981,53.061 Z"
         style="fill:#f4c004;fill-rule:nonzero"
         inkscape:connector-curvature="0" /></g><g
       id="g5202"><path
         id="path8245-4-5"
         d="M 52.324,111.029 C 51.168,109.948 49.375,109.88 48.141,110.87 47.993,110.284 47.681,109.751 47.241,109.335 46.649,108.775 45.864,108.463 45.048,108.463 43.946,108.463 42.918,109.034 42.336,109.97 42.336,109.97 41.411,111.511 40.642,114.135 39.872,116.759 39.08,120.73 38.86,126.399 38.857,126.449 38.856,126.499 38.856,126.548 38.856,128.302 40.299,129.745 42.052,129.745 42.777,129.745 43.481,129.498 44.048,129.046 44.324,130.069 45.092,130.89 46.094,131.234 46.01,131.401 45.91,131.581 45.83,131.746 45.618,132.181 45.509,132.658 45.509,133.142 45.509,134.895 46.952,136.338 48.705,136.338 49.929,136.338 51.05,135.635 51.582,134.534 53.686,130.203 59.329,122.481 59.329,122.481 60.275,121.244 60.185,119.486 59.117,118.352 58.513,117.701 57.664,117.331 56.776,117.331 55.745,117.331 54.776,117.831 54.176,118.67 54.176,118.67 52.592,120.817 50.7,123.628 51.014,120.957 51.447,118.975 51.847,117.611 52.454,115.541 52.8,115.105 52.8,115.105 53.647,113.816 53.445,112.088 52.324,111.029 Z"
         style="fill:#5e74ac;fill-rule:nonzero"
         inkscape:connector-curvature="0" /><path
         id="path8234-8-67"
         d="M 41.03,108.77 C 39.562,107.384 37.191,107.691 36.124,109.405 36.124,109.405 35.2,110.946 34.43,113.57 32.601,121.496 31.783,130.37 33.142,139.28 33.931,144.216 34.025,150.588 40.977,164.726 47.929,178.864 62.061,196.657 89.645,212.583 91.458,213.682 93.715,214.01 95.768,213.483 97.822,212.955 101.327,209.902 102.386,208.065 103.445,206.228 103.735,203.966 103.162,201.924 102.589,199.883 101.175,198.072 99.315,197.054 74.116,182.505 63.127,167.833 57.582,156.556 52.037,145.279 50.888,142.737 51.353,137.657 51.973,130.89 52.722,126.745 49.147,123.169 L 44.559,118.581 C 43.127,117.149 41.656,116.562 40.254,116.535 40.355,116.124 40.455,115.688 40.554,115.352 41.161,113.282 41.506,112.846 41.506,112.846 42.357,111.552 42.156,109.834 41.03,108.77 Z"
         style="fill:#7693dc;fill-rule:nonzero"
         inkscape:connector-curvature="0" /><path
         id="path8234-8-67-8"
         d="M 39.207,124.334 C 36.906,124.334 35.133,125.122 33.885,126.697 33.256,127.487 32.786,128.448 32.475,129.576 32.448,132.631 32.639,135.73 33.088,138.836 33.317,139.296 33.582,139.719 33.885,140.102 35.133,141.669 36.906,142.453 39.207,142.453 41.5,142.453 43.272,141.669 44.52,140.102 45.767,138.526 46.391,136.294 46.391,133.4 46.391,130.499 45.767,128.265 44.52,126.697 43.272,125.122 41.5,124.334 39.207,124.334 Z M 50.791,125.375 50.227,125.492 V 128.557 L 51.709,128.252 C 51.551,127.224 51.263,126.273 50.791,125.375 Z M 39.207,127.41 C 40.174,127.41 40.862,127.859 41.268,128.756 41.681,129.645 41.887,131.182 41.887,133.365 41.887,135.572 41.681,137.127 41.268,138.031 40.854,138.936 40.166,139.389 39.207,139.389 38.24,139.389 37.55,138.936 37.137,138.031 36.723,137.127 36.518,135.572 36.518,133.365 36.518,131.182 36.723,129.645 37.137,128.756 37.55,127.859 38.24,127.41 39.207,127.41 Z M 50.332,139.002 V 142.115 H 51.494 C 51.302,141.072 51.251,140.067 51.283,139.002 Z M 55.865,154.279 C 53.565,154.279 51.791,155.067 50.543,156.643 49.295,158.21 48.672,160.445 48.672,163.346 48.672,166.239 49.295,168.474 50.543,170.049 51.791,171.616 53.565,172.4 55.865,172.4 58.158,172.4 59.928,171.616 61.176,170.049 62.077,168.911 62.65,167.424 62.9,165.598 60.696,162.408 58.969,159.377 57.582,156.557 57.176,155.731 56.842,155.043 56.482,154.307 56.28,154.293 56.077,154.279 55.865,154.279 Z M 37.629,154.596 36.684,154.791 C 37.712,157.618 39.083,160.876 40.977,164.727 41.268,165.32 41.593,165.928 41.91,166.533 V 154.596 Z M 55.865,157.357 C 56.832,157.357 57.518,157.804 57.924,158.701 58.337,159.59 58.545,161.127 58.545,163.311 58.545,165.518 58.337,167.074 57.924,167.979 57.51,168.883 56.824,169.336 55.865,169.336 54.898,169.336 54.208,168.883 53.795,167.979 53.382,167.074 53.176,165.518 53.176,163.311 53.176,161.127 53.382,159.59 53.795,158.701 54.208,157.804 54.898,157.357 55.865,157.357 Z M 43.232,168.949 C 43.814,169.973 44.432,171.009 45.09,172.061 H 45.887 V 168.949 Z M 66.99,170.973 V 172.061 H 67.914 C 67.602,171.697 67.289,171.333 66.99,170.973 Z M 55.865,184.227 C 55.306,184.227 54.778,184.276 54.281,184.369 56.863,187.321 59.779,190.315 63.049,193.32 63.049,193.311 63.049,193.302 63.049,193.293 63.049,190.392 62.424,188.157 61.176,186.59 59.928,185.015 58.158,184.227 55.865,184.227 Z M 70.943,184.543 66.885,185.385 V 188.449 L 70.967,187.607 V 199.74 L 75.227,195.74 V 184.543 Z"
         style="fill:#ffffff;fill-opacity:0.11000001;fill-rule:nonzero"
         inkscape:connector-curvature="0" /></g><g
       id="g5259"><path
         id="path8245-4-4-7"
         d="M 261.92,75.13 C 263.076,74.049 264.869,73.981 266.103,74.972 266.251,74.385 266.563,73.853 267.002,73.436 268.252,72.257 270.24,72.286 271.455,73.5 271.627,73.673 271.779,73.865 271.908,74.072 271.908,74.072 272.833,75.612 273.602,78.236 274.372,80.86 275.164,84.832 275.384,90.5 275.427,91.399 275.088,92.274 274.452,92.91 273.306,94.056 271.462,94.158 270.196,93.147 269.92,94.17 269.152,94.991 268.149,95.335 268.234,95.503 268.334,95.683 268.414,95.847 269.007,97.069 268.759,98.541 267.798,99.502 266.558,100.742 264.518,100.742 263.278,99.502 263.025,99.249 262.817,98.956 262.662,98.635 260.558,94.304 254.915,86.583 254.915,86.583 253.969,85.345 254.059,83.588 255.127,82.454 255.153,82.425 255.181,82.396 255.209,82.368 256.448,81.129 258.487,81.129 259.726,82.368 259.851,82.493 259.965,82.628 260.068,82.771 260.068,82.771 261.652,84.918 263.544,87.73 263.23,85.059 262.797,83.076 262.397,81.712 261.79,79.643 261.444,79.207 261.444,79.207 260.597,77.917 260.799,76.19 261.92,75.13 Z"
         style="fill:#5e74ac;fill-rule:nonzero"
         inkscape:connector-curvature="0" /><path
         id="path8234-8-6-5"
         d="M 273.214,72.872 C 274.463,71.692 276.451,71.721 277.666,72.936 277.838,73.108 277.991,73.3 278.12,73.507 278.12,73.507 279.044,75.048 279.814,77.671 280.474,79.924 281.137,83.181 281.455,87.642 281.464,87.777 281.499,87.909 281.508,88.047 281.521,88.189 281.542,88.335 281.543,88.471 281.544,88.647 281.542,88.758 281.543,88.93 281.561,89.265 281.582,89.587 281.596,89.936 281.605,90.148 281.593,90.361 281.561,90.571 281.555,90.589 281.549,90.606 281.543,90.624 281.575,97.417 281.507,100.845 281.102,103.382 280.313,108.317 280.219,114.69 273.267,128.828 266.315,142.966 252.183,160.759 224.599,176.684 222.786,177.784 220.529,178.111 218.476,177.584 216.422,177.057 212.917,174.004 211.858,172.167 210.799,170.33 210.509,168.067 211.082,166.026 211.654,163.984 213.069,162.174 214.929,161.155 240.128,146.607 251.117,131.935 256.662,120.658 262.207,109.38 263.356,106.839 262.891,101.758 262.271,94.991 261.521,90.846 265.097,87.271 L 269.685,82.683 C 271.117,81.25 272.588,80.663 273.99,80.636 273.889,80.226 273.789,79.79 273.69,79.454 273.083,77.384 272.737,76.948 272.737,76.948 271.891,75.659 272.093,73.931 273.214,72.872 Z"
         style="fill:#7693dc;fill-rule:nonzero"
         inkscape:connector-curvature="0" /><path
         id="path8234-8-6-5-0"
         d="M 279.931,77.841 C 278.286,78.101 276.965,78.847 275.978,80.092 274.73,81.66 274.107,83.895 274.107,86.796 274.107,89.689 274.73,91.921 275.978,93.497 277.225,95.064 278.999,95.848 281.3,95.848 281.41,95.848 281.513,95.838 281.62,95.835 281.629,94.92 281.631,93.847 281.63,92.743 281.52,92.757 281.418,92.784 281.3,92.784 280.333,92.784 279.643,92.331 279.23,91.426 278.816,90.522 278.609,88.967 278.609,86.76 278.609,84.577 278.816,83.04 279.23,82.151 279.543,81.471 280.016,81.052 280.648,80.887 280.419,79.736 280.179,78.698 279.931,77.841 Z M 267.345,85.169 265.185,87.329 C 264.166,88.348 263.507,89.416 263.087,90.575 V 92.397 H 262.624 C 262.475,93.357 262.444,94.394 262.476,95.51 H 271.321 V 92.397 H 267.345 Z M 264.642,107.674 C 263.828,107.674 263.084,107.778 262.401,107.975 261.655,110.518 260.165,113.74 257.597,118.983 257.846,120.814 258.416,122.304 259.319,123.444 260.567,125.012 262.341,125.796 264.642,125.796 266.934,125.796 268.704,125.012 269.952,123.444 271.2,121.869 271.825,119.634 271.825,116.741 271.825,113.84 271.2,111.605 269.952,110.038 268.704,108.462 266.934,107.674 264.642,107.674 Z M 279.72,107.991 275.661,108.833 V 111.899 L 279.743,111.055 V 111.985 C 280.088,110.511 280.34,109.185 280.528,107.991 Z M 264.642,110.753 C 265.609,110.753 266.295,111.2 266.7,112.096 267.114,112.985 267.321,114.522 267.321,116.706 267.321,118.913 267.114,120.469 266.7,121.374 266.287,122.278 265.601,122.731 264.642,122.731 263.675,122.731 262.985,122.278 262.571,121.374 262.158,120.469 261.952,118.913 261.952,116.706 261.952,114.522 262.158,112.985 262.571,112.096 262.985,111.2 263.675,110.753 264.642,110.753 Z M 275.767,122.344 V 123.665 C 275.962,123.213 276.144,122.778 276.323,122.344 Z M 254.663,124.622 C 254.505,124.899 254.344,125.176 254.179,125.456 H 254.663 Z M 264.642,137.622 C 262.341,137.622 260.567,138.41 259.319,139.985 258.072,141.553 257.448,143.787 257.448,146.688 257.448,147.353 257.486,147.978 257.552,148.573 H 260.011 C 260.68,147.809 261.336,147.048 261.962,146.29 261.985,144.31 262.183,142.879 262.571,142.044 262.985,141.147 263.675,140.698 264.642,140.698 265.164,140.698 265.598,140.84 265.956,141.102 266.631,140.165 267.273,139.237 267.886,138.317 266.954,137.86 265.877,137.622 264.642,137.622 Z M 246.405,137.938 244.552,138.323 C 243.847,139.093 243.113,139.867 242.347,140.647 V 141.844 L 246.429,141.003 V 148.573 H 250.687 V 137.938 Z"
         style="fill:#ffffff;fill-opacity:0.06000001;fill-rule:nonzero"
         inkscape:connector-curvature="0" /></g><g
       id="g5452"><path
         id="path4510-44"
         d="M 186.814,125.992 C 132.104,126.049 83.501,160.931 65.938,212.746 L 90.93,237.848 170.838,266.08 275.211,161.707 C 251.457,138.843 219.784,126.046 186.814,125.992 Z"
         style="fill:url(#_Linear2);fill-rule:nonzero"
         inkscape:connector-curvature="0" /><path
         id="path7176-0-5-1"
         d="M 113.406,182.892 C 111.105,182.892 109.331,183.68 108.084,185.255 106.836,186.822 106.213,189.057 106.213,191.958 106.213,194.851 106.836,197.084 108.084,198.659 109.331,200.227 111.105,201.011 113.406,201.011 115.699,201.011 117.469,200.227 118.716,198.659 119.964,197.084 120.588,194.851 120.588,191.958 120.588,189.057 119.964,186.822 118.716,185.255 117.469,183.68 115.699,182.892 113.406,182.892 Z M 146.72,182.892 C 144.42,182.892 142.646,183.68 141.398,185.255 140.15,186.822 139.527,189.057 139.527,191.958 139.527,194.851 140.15,197.084 141.398,198.659 142.646,200.227 144.42,201.011 146.72,201.011 149.013,201.011 150.785,200.227 152.033,198.659 153.281,197.084 153.904,194.851 153.904,191.958 153.904,189.057 153.281,186.822 152.033,185.255 150.785,183.68 149.013,182.892 146.72,182.892 Z M 180.037,182.892 C 177.736,182.892 175.962,183.68 174.715,185.255 173.467,186.822 172.843,189.057 172.843,191.958 172.843,194.851 173.467,197.084 174.715,198.659 175.962,200.227 177.736,201.011 180.037,201.011 182.33,201.011 184.1,200.227 185.347,198.659 186.595,197.084 187.218,194.851 187.218,191.958 187.218,189.057 186.595,186.822 185.347,185.255 184.1,183.68 182.33,182.892 180.037,182.892 Z M 213.353,182.892 C 211.053,182.892 209.277,183.68 208.029,185.255 206.781,186.822 206.158,189.057 206.158,191.958 206.158,194.851 206.781,197.084 208.029,198.659 209.277,200.227 211.053,201.011 213.353,201.011 215.646,201.011 217.416,200.227 218.664,198.659 219.912,197.084 220.535,194.851 220.535,191.958 220.535,189.057 219.912,186.822 218.664,185.255 217.416,183.68 215.646,182.892 213.353,182.892 Z M 80.609,182.915 C 77.933,186.965 75.489,191.163 73.291,195.491 73.6,196.74 74.088,197.801 74.767,198.659 76.015,200.227 77.789,201.011 80.09,201.011 82.382,201.011 84.154,200.227 85.402,198.659 86.65,197.084 87.273,194.851 87.273,191.958 87.273,189.057 86.65,186.822 85.402,185.255 84.251,183.802 82.649,183.028 80.609,182.915 Z M 95.17,183.208 91.109,184.05 V 187.114 L 95.193,186.272 V 197.56 H 91.215 V 200.673 H 103.427 V 197.56 H 99.451 V 183.208 Z M 128.484,183.208 124.425,184.05 V 187.114 L 128.507,186.272 V 197.56 H 124.531 V 200.673 H 136.744 V 197.56 H 132.765 V 183.208 Z M 161.8,183.208 157.74,184.05 V 187.114 L 161.824,186.272 V 197.56 H 157.845 V 200.673 H 170.058 V 197.56 H 166.082 V 183.208 Z M 195.115,183.208 191.056,184.05 V 187.114 L 195.138,186.272 V 197.56 H 191.162 V 200.673 H 203.375 V 197.56 H 199.396 V 183.208 Z M 80.09,185.968 C 81.057,185.968 81.745,186.417 82.15,187.313 82.563,188.202 82.769,189.739 82.769,191.923 82.769,194.13 82.563,195.684 82.15,196.589 81.737,197.493 81.049,197.946 80.09,197.946 79.122,197.946 78.433,197.493 78.019,196.589 77.606,195.684 77.4,194.13 77.4,191.923 77.4,189.739 77.606,188.202 78.019,187.313 78.433,186.417 79.122,185.968 80.09,185.968 Z M 113.406,185.968 C 114.373,185.968 115.059,186.417 115.465,187.313 115.878,188.202 116.086,189.739 116.086,191.923 116.086,194.13 115.878,195.684 115.465,196.589 115.051,197.493 114.365,197.946 113.406,197.946 112.439,197.946 111.749,197.493 111.336,196.589 110.922,195.684 110.715,194.13 110.715,191.923 110.715,189.739 110.922,188.202 111.336,187.313 111.749,186.417 112.439,185.968 113.406,185.968 Z M 146.72,185.968 C 147.687,185.968 148.375,186.417 148.781,187.313 149.194,188.202 149.4,189.739 149.4,191.923 149.4,194.13 149.194,195.684 148.781,196.589 148.368,197.493 147.68,197.946 146.72,197.946 145.753,197.946 145.063,197.493 144.65,196.589 144.237,195.684 144.031,194.13 144.031,191.923 144.031,189.739 144.237,188.202 144.65,187.313 145.063,186.417 145.753,185.968 146.72,185.968 Z M 180.037,185.968 C 181.004,185.968 181.69,186.417 182.095,187.313 182.509,188.202 182.716,189.739 182.716,191.923 182.716,194.13 182.509,195.684 182.095,196.589 181.682,197.493 180.996,197.946 180.037,197.946 179.07,197.946 178.38,197.493 177.966,196.589 177.553,195.684 177.345,194.13 177.345,191.923 177.345,189.739 177.553,188.202 177.966,187.313 178.38,186.417 179.07,185.968 180.037,185.968 Z M 213.353,185.968 C 214.32,185.968 215.006,186.417 215.412,187.313 215.825,188.202 216.031,189.739 216.031,191.923 216.031,194.13 215.825,195.684 215.412,196.589 214.998,197.493 214.312,197.946 213.353,197.946 212.386,197.946 211.694,197.493 211.281,196.589 210.868,195.684 210.662,194.13 210.662,191.923 210.662,189.739 210.868,188.202 211.281,187.313 211.694,186.417 212.386,185.968 213.353,185.968 Z M 96.748,212.837 C 94.447,212.837 92.673,213.625 91.425,215.2 90.178,216.768 89.554,219.002 89.554,221.903 89.554,224.797 90.178,227.031 91.425,228.606 92.673,230.174 94.447,230.958 96.748,230.958 99.04,230.958 100.81,230.174 102.058,228.606 103.306,227.031 103.931,224.797 103.931,221.903 103.931,219.002 103.306,216.768 102.058,215.2 100.81,213.625 99.04,212.837 96.748,212.837 Z M 163.379,212.837 C 161.078,212.837 159.304,213.625 158.056,215.2 156.809,216.768 156.185,219.002 156.185,221.903 156.185,224.797 156.809,227.031 158.056,228.606 159.304,230.174 161.078,230.958 163.379,230.958 165.671,230.958 167.441,230.174 168.689,228.606 169.937,227.031 170.562,224.797 170.562,221.903 170.562,219.002 169.937,216.768 168.689,215.2 167.441,213.625 165.671,212.837 163.379,212.837 Z M 196.695,212.837 C 194.394,212.837 192.62,213.625 191.373,215.2 190.125,216.768 189.5,219.002 189.5,221.903 189.5,224.797 190.125,227.031 191.373,228.606 192.62,230.174 194.394,230.958 196.695,230.958 198.988,230.958 200.758,230.174 202.006,228.606 203.253,227.031 203.877,224.797 203.877,221.903 203.877,219.002 203.253,216.768 202.006,215.2 200.758,213.625 198.988,212.837 196.695,212.837 Z M 78.511,213.153 74.453,213.995 V 217.061 L 78.535,216.218 V 225.28 L 83.873,230.618 H 86.769 V 227.507 H 82.793 V 213.153 Z M 111.826,213.153 107.767,213.995 V 217.061 L 111.849,216.218 V 227.507 H 107.873 V 230.618 H 120.086 V 227.507 H 116.107 V 213.153 Z M 128.484,213.153 124.425,213.995 V 217.061 L 128.507,216.218 V 227.507 H 124.531 V 230.618 H 136.744 V 227.507 H 132.765 V 213.153 Z M 145.142,213.153 141.084,213.995 V 217.061 L 145.166,216.218 V 227.507 H 141.189 V 230.618 H 153.4 V 227.507 H 149.424 V 213.153 Z M 178.457,213.153 174.398,213.995 V 217.061 L 178.48,216.218 V 227.507 H 174.504 V 230.618 H 186.716 V 227.507 H 182.74 V 213.153 Z M 211.773,213.153 207.715,213.995 V 217.061 L 211.797,216.218 V 225.143 L 216.054,220.886 V 213.153 Z M 96.748,215.915 C 97.715,215.915 98.401,216.362 98.806,217.259 99.22,218.148 99.427,219.685 99.427,221.868 99.427,224.075 99.22,225.631 98.806,226.536 98.393,227.441 97.707,227.893 96.748,227.893 95.781,227.893 95.091,227.441 94.677,226.536 94.264,225.631 94.058,224.075 94.058,221.868 94.058,219.685 94.264,218.148 94.677,217.259 95.091,216.362 95.781,215.915 96.748,215.915 Z M 163.379,215.915 C 164.346,215.915 165.032,216.362 165.437,217.259 165.851,218.148 166.058,219.685 166.058,221.868 166.058,224.075 165.851,225.631 165.437,226.536 165.024,227.441 164.338,227.893 163.379,227.893 162.412,227.893 161.722,227.441 161.308,226.536 160.895,225.631 160.689,224.075 160.689,221.868 160.689,219.685 160.895,218.148 161.308,217.259 161.722,216.362 162.412,215.915 163.379,215.915 Z M 196.695,215.915 C 197.662,215.915 198.348,216.362 198.754,217.259 199.167,218.148 199.373,219.685 199.373,221.868 199.373,224.075 199.167,225.631 198.754,226.536 198.34,227.441 197.654,227.893 196.695,227.893 195.728,227.893 195.038,227.441 194.625,226.536 194.211,225.631 194.004,224.075 194.004,221.868 194.004,219.685 194.211,218.148 194.625,217.259 195.038,216.362 195.728,215.915 196.695,215.915 Z M 207.82,227.507 V 229.12 L 209.433,227.507 Z M 163.379,242.784 C 161.078,242.784 159.304,243.572 158.056,245.147 156.809,246.715 156.185,248.949 156.185,251.851 156.185,252.515 156.223,253.14 156.289,253.735 H 160.763 C 160.72,253.155 160.689,252.533 160.689,251.815 160.689,249.632 160.895,248.095 161.308,247.206 161.722,246.309 162.412,245.86 163.379,245.86 164.346,245.86 165.032,246.309 165.437,247.206 165.851,248.095 166.058,249.632 166.058,251.815 166.058,252.533 166.028,253.156 165.984,253.735 H 170.459 C 170.525,253.14 170.562,252.515 170.562,251.851 170.562,248.949 169.937,246.715 168.689,245.147 167.441,243.572 165.671,242.784 163.379,242.784 Z M 145.142,243.101 141.084,243.942 V 247.007 L 145.166,246.165 V 253.735 H 149.424 V 243.101 Z M 178.457,243.101 174.398,243.942 V 247.007 L 178.48,246.165 V 258.298 L 182.74,254.298 V 243.101 Z"
         style="fill:url(#_Linear3);fill-rule:nonzero"
         inkscape:connector-curvature="0" /></g><g
       id="g5448"><path
         style="color:#000000;font-style:normal;font-variant:normal;font-weight:normal;font-stretch:normal;font-size:medium;line-height:normal;font-family:sans-serif;font-variant-ligatures:normal;font-variant-position:normal;font-variant-caps:normal;font-variant-numeric:normal;font-variant-alternates:normal;font-feature-settings:normal;text-indent:0;text-align:start;text-decoration:none;text-decoration-line:none;text-decoration-style:solid;text-decoration-color:#000000;letter-spacing:normal;word-spacing:normal;text-transform:none;writing-mode:lr-tb;direction:ltr;text-orientation:mixed;dominant-baseline:auto;baseline-shift:baseline;text-anchor:start;white-space:normal;shape-padding:0;clip-rule:nonzero;display:inline;overflow:visible;visibility:visible;opacity:1;isolation:auto;mix-blend-mode:normal;color-interpolation:sRGB;color-interpolation-filters:linearRGB;solid-color:#000000;solid-opacity:1;vector-effect:none;fill:#222222;fill-opacity:0.5;fill-rule:nonzero;stroke:none;stroke-width:3.19000006px;stroke-linecap:butt;stroke-linejoin:miter;stroke-miterlimit:4;stroke-dasharray:none;stroke-dashoffset:0;stroke-opacity:1;color-rendering:auto;image-rendering:auto;shape-rendering:auto;text-rendering:auto;enable-background:accumulate"
         d="M 160.22461,170.13672 C 160.05888,170.13659 159.89414,170.16229 159.73633,170.21289 154.3921,171.92025 149.57301,171.68533 144.70508,170.86523 143.37853,170.64198 142.38827,172.05999 143.05469,173.22852 143.05469,173.22852 144.02926,174.94697 145.56055,176.67969 147.09184,178.4124 149.22174,180.4043 152.06641,180.4043 155.00521,180.4043 157.19182,178.21636 158.84375,176.31836 160.49568,174.42036 161.59766,172.54102 161.59766,172.54102 162.22318,171.47827 161.45778,170.138 160.22461,170.13672 Z"
         id="path8488-9-2"
         inkscape:connector-curvature="0"
         sodipodi:nodetypes="cccccsscc" /><circle
         id="path8131-0-2-9"
         cx="163.423"
         cy="160.461"
         r="3.993"
         style="fill:#222222;fill-opacity:0.5" /><circle
         id="path8157-4-9-0"
         cx="142.66"
         cy="160.461"
         r="3.993"
         style="fill:#222222;fill-opacity:0.5" /></g><g
       id="g5474"><path
         id="path7176-9-1-8-8"
         d="M 187.961,128.041 C 182.825,128.073 177.763,128.418 172.787,129.039 V 136.025 L 176.781,140.02 H 184.766 Z M 216.104,131.908 216.078,132.033 222.293,139.221 H 226.285 L 228.682,136.025 V 135.801 C 227.654,135.424 226.626,135.054 225.586,134.703 225.553,134.692 225.519,134.689 225.486,134.678 224.482,134.339 223.482,134.02 222.467,133.705 221.567,133.426 220.655,133.14 219.746,132.881 219.597,132.838 219.446,132.8 219.297,132.758 218.435,132.515 217.573,132.283 216.703,132.059 216.505,132.008 216.302,131.958 216.104,131.908 Z M 144.238,136.025 C 112.742,147.738 87.107,171.508 72.967,201.734 V 211.891 L 84.945,223.869 V 231.855 H 88.938 L 92.93,235.848 V 239.842 L 140.047,286.959 C 141.37,288.282 143.129,289.01 145,289.01 146.871,289.01 148.63,288.282 149.953,286.959 L 172.871,264.13 172.787,255.813 164.803,247.826 H 148.83 L 144.838,243.834 V 239.84 L 112.895,219.877 H 104.908 L 96.924,227.861 H 88.938 V 215.883 L 84.945,211.891 88.938,207.898 V 203.904 H 76.959 L 84.945,187.934 96.924,183.941 V 195.92 H 100.916 L 104.908,191.926 V 183.941 L 124.873,159.982 H 128.867 L 160.809,148.004 V 140.02 L 156.816,136.025 Z M 213.508,140.02 218.299,146.408 H 223.889 L 217.5,140.02 Z M 240.26,140.717 238.363,144.012 H 228.682 L 224.064,151.998 228.682,159.982 220.695,160.232 217.152,163.977 V 167.969 L 224.064,171.961 H 232.674 L 239.586,159.982 H 244.652 L 252.639,166.371 253.711,170.365 H 256.631 V 163.977 L 260.623,166.371 264.617,167.969 H 268.609 L 268.777,168.135 273.211,163.701 C 270.159,160.634 266.959,157.613 263.02,154.818 262.896,154.728 262.762,154.633 262.645,154.543 262.63,154.532 262.61,154.529 262.596,154.518 262.023,154.077 261.454,153.627 260.873,153.195 260.831,153.164 260.791,153.127 260.748,153.096 260.7,153.06 260.646,153.034 260.6,152.996 260.581,152.981 260.565,152.963 260.549,152.945 260.53,152.931 260.518,152.91 260.5,152.896 259.915,152.465 259.319,152.04 258.727,151.623 258.711,151.612 258.692,151.608 258.678,151.598 258.071,151.171 257.471,150.747 256.855,150.326 256.196,149.875 255.528,149.441 254.859,149.002 253.523,148.124 252.161,147.261 250.791,146.432 250.106,146.017 249.414,145.611 248.721,145.209 248.027,144.807 247.327,144.404 246.623,144.012 245.919,143.62 245.212,143.24 244.502,142.863 243.792,142.487 243.099,142.129 242.381,141.766 241.68,141.411 240.968,141.059 240.26,140.717 Z M 208.717,144.012 211.113,148.004 H 215.105 L 212.709,144.012 Z M 224.688,175.955 220.695,179.947 V 187.934 H 216.703 L 208.717,203.904 V 207.898 L 212.709,211.891 V 220.625 L 214.525,222.387 256.797,180.115 252.639,175.955 Z"
         style="fill:#78a749;fill-opacity:0.56000001;fill-rule:nonzero"
         inkscape:connector-curvature="0" /><path
         id="path7176-9-1-8"
         d="M 185.961,126.047 C 180.825,126.078 175.763,126.424 170.787,127.045 V 134.031 L 174.781,138.025 H 182.766 Z M 218.104,129.914 218.078,130.039 224.293,137.227 H 228.285 L 230.682,134.031 V 133.807 C 229.654,133.43 228.626,133.06 227.586,132.709 227.553,132.698 227.519,132.695 227.486,132.684 226.482,132.344 225.482,132.026 224.467,131.711 223.567,131.432 222.655,131.146 221.746,130.887 221.597,130.844 221.446,130.806 221.297,130.764 220.435,130.521 219.573,130.289 218.703,130.064 218.505,130.013 218.302,129.964 218.104,129.914 Z M 142.238,134.031 C 110.742,145.744 85.107,169.514 70.967,199.74 V 209.896 L 82.945,221.875 V 229.861 H 86.938 L 90.93,233.854 V 237.848 L 140.047,286.965 C 141.37,288.288 143.129,289.016 145,289.016 146.871,289.016 148.63,288.288 149.953,286.965 L 170.838,266.08 170.787,253.818 162.803,245.832 H 146.83 L 142.838,241.84 V 237.846 L 110.895,217.883 H 102.908 L 94.924,225.867 H 86.938 V 213.889 L 82.945,209.896 86.938,205.904 V 201.91 H 74.959 L 82.945,185.939 94.924,181.947 V 193.926 H 98.916 L 102.908,189.932 V 181.947 L 122.873,157.988 H 126.867 L 158.809,146.01 V 138.025 L 154.816,134.031 Z M 215.508,138.025 220.299,144.414 H 225.889 L 219.5,138.025 Z M 242.26,138.723 240.363,142.018 H 230.682 L 226.064,150.004 230.682,157.988 222.695,158.238 219.152,161.982 V 165.975 L 226.064,169.967 H 234.674 L 241.586,157.988 H 246.652 L 254.639,164.377 255.711,168.371 H 258.631 V 161.982 L 262.623,164.377 266.617,165.975 H 270.609 L 270.777,166.141 275.211,161.707 C 272.159,158.64 268.959,155.619 265.02,152.824 264.896,152.734 264.762,152.639 264.645,152.549 264.63,152.538 264.61,152.535 264.596,152.523 264.023,152.082 263.454,151.633 262.873,151.201 262.831,151.169 262.791,151.133 262.748,151.102 262.7,151.066 262.646,151.04 262.6,151.002 262.581,150.987 262.565,150.969 262.549,150.951 262.53,150.937 262.518,150.916 262.5,150.902 261.915,150.471 261.319,150.045 260.727,149.629 260.711,149.618 260.692,149.614 260.678,149.604 260.071,149.177 259.471,148.753 258.855,148.332 258.196,147.881 257.528,147.447 256.859,147.008 255.523,146.13 254.161,145.266 252.791,144.438 252.106,144.023 251.414,143.617 250.721,143.215 250.027,142.813 249.327,142.41 248.623,142.018 247.919,141.626 247.212,141.245 246.502,140.869 245.792,140.493 245.099,140.135 244.381,139.771 243.68,139.417 242.968,139.065 242.26,138.723 Z M 210.717,142.018 213.113,146.01 H 217.105 L 214.709,142.018 Z M 226.688,173.961 222.695,177.953 V 185.939 H 218.703 L 210.717,201.91 V 205.904 L 214.709,209.896 V 218.631 L 216.525,220.393 258.797,178.121 254.639,173.961 Z"
         style="fill:#cbeea7;fill-rule:nonzero"
         inkscape:connector-curvature="0" /><path
         id="path7176-4-7-4-4"
         d="M 142.239,134.032 C 137.545,135.777 132.978,137.809 128.563,140.071 L 138.845,146.011 V 153.497 L 158.809,146.011 V 138.025 L 154.816,134.032 Z"
         style="fill:#c5eaa2;fill-rule:nonzero"
         inkscape:connector-curvature="0" /><path
         id="path7176-4-76-0-9"
         d="M 114.888,148.182 C 104.36,155.354 94.964,164.045 87.012,173.961 H 98.916 L 114.888,157.989 Z"
         style="fill:#c5eaa2;fill-rule:nonzero"
         inkscape:connector-curvature="0" /><path
         id="path4510-8"
         d="M 126.867,227.865 V 233.854 L 134.852,237.846 V 245.832 L 117.895,264.813 140.047,286.965 C 141.37,288.288 143.129,289.016 145,289.016 146.871,289.016 148.63,288.288 149.953,286.965 L 163.105,273.813 162.803,245.832 H 146.83 L 142.838,241.84 V 237.846 Z"
         style="fill:#c5eaa2;fill-rule:nonzero"
         inkscape:connector-curvature="0" /></g><path
       id="path4510-9"
       d="M 231.023,133.988 C 237.116,156.727 236.095,183 230.025,206.893 L 275.211,161.707 C 262.66,149.657 247.658,140.139 231.023,133.988 Z"
       style="fill:url(#_Linear4);fill-rule:nonzero"
       inkscape:connector-curvature="0" /><path
       id="path4510-0"
       d="M 186.514,120.025 C 130.438,120.089 80.269,155.943 62.049,208.976 L 104.863,251.791 H 185.215 L 278.955,158.051 C 254.341,133.735 221.113,120.067 186.514,120.025 Z"
       style="fill:url(#_Radial5);fill-rule:nonzero"
       inkscape:connector-curvature="0" /></g><defs
     id="defs58"><linearGradient
       id="_Linear1"
       x1="0"
       y1="0"
       x2="1"
       y2="0"
       gradientUnits="userSpaceOnUse"
       gradientTransform="matrix(-1.20427,-126.468,126.468,-1.20427,146.72,185.968)"><stop
         offset="0"
         style="stop-color:rgb(227,208,177);stop-opacity:1"
         id="stop31" /><stop
         offset="1"
         style="stop-color:rgb(170,177,224);stop-opacity:1"
         id="stop33" /></linearGradient><linearGradient
       id="_Linear2"
       x1="0"
       y1="0"
       x2="1"
       y2="0"
       gradientUnits="userSpaceOnUse"
       gradientTransform="matrix(-1.17488,96.9935,-96.9935,-1.17488,176.444,156.906)"><stop
         offset="0"
         style="stop-color:rgb(178,219,234);stop-opacity:1"
         id="stop36" /><stop
         offset="1"
         style="stop-color:rgb(112,146,255);stop-opacity:1"
         id="stop38" /></linearGradient><linearGradient
       id="_Linear3"
       x1="0"
       y1="0"
       x2="1"
       y2="0"
       gradientUnits="userSpaceOnUse"
       gradientTransform="matrix(-1.83097,-180.522,180.522,-1.83097,177.314,361.891)"><stop
         offset="0"
         style="stop-color:white;stop-opacity:0.57"
         id="stop41" /><stop
         offset="1"
         style="stop-color:white;stop-opacity:0"
         id="stop43" /></linearGradient><linearGradient
       id="_Linear4"
       x1="0"
       y1="0"
       x2="1"
       y2="0"
       gradientUnits="userSpaceOnUse"
       gradientTransform="matrix(0.43555,121.5,-121.5,0.43555,225.775,132.19)"><stop
         offset="0"
         style="stop-color:rgb(34,34,34);stop-opacity:0.25"
         id="stop46" /><stop
         offset="1"
         style="stop-color:rgb(34,34,34);stop-opacity:0"
         id="stop48" /></linearGradient><radialGradient
       id="_Radial5"
       cx="0"
       cy="0"
       r="1"
       gradientUnits="userSpaceOnUse"
       gradientTransform="matrix(-0.102217,-141.021,143.373,-0.103923,185.215,251.791)"><stop
         offset="0"
         style="stop-color:rgb(204,241,255);stop-opacity:0"
         id="stop51" /><stop
         offset="0.87"
         style="stop-color:rgb(204,241,255);stop-opacity:0"
         id="stop53" /><stop
         offset="1"
         style="stop-color:rgb(120,154,251);stop-opacity:1"
         id="stop55" /></radialGradient></defs></svg>