<?xml version="1.0" encoding="UTF-8"?>
<svg width="100%" height="100%" version="1.1" viewBox="0 0 96 96" xmlns="http://www.w3.org/2000/svg" xmlns:xlink="http://www.w3.org/1999/xlink">
 <defs>
  <radialGradient id="radialGradient4639" cx="39.57" cy="375.67" r="6.35" gradientTransform="matrix(3.2362 5.3937 -7.4577 4.4746 2708.1 -1859.8)" gradientUnits="userSpaceOnUse">
   <stop stop-color="#ffcdcd" offset="0"/>
   <stop stop-color="#e44848" offset="1"/>
  </radialGradient>
 </defs>
 <g>
  <path d="m30.483 66.103v27.4l-23.29-23.29v-27.4" fill="#f2eeee" fill-rule="evenodd" stroke="#916f6f" stroke-linecap="square" stroke-linejoin="bevel"/>
  <path d="m30.483 66.103 57.54-19.18v27.4l-57.54 19.18v-27.4" fill="#e0d8d8" fill-rule="evenodd" stroke="#916f6f" stroke-linecap="square" stroke-linejoin="bevel"/>
  <path d="m7.1925 42.813 23.29 23.29 57.54-19.18-23.29-23.29z" fill="#e3dbdb" fill-rule="evenodd" stroke="#916f6f" stroke-linejoin="bevel"/>
  <path d="m18.153 52.403c2.74 8.22 24.66 9.59 41.1 4.11 12.33-4.11 19.18-9.59 19.18-19.18 0-19.18-16.062-27.074-28.941-25.859-17.107 1.6139-31.339 10.789-31.339 40.929z" fill="url(#radialGradient4639)" fill-rule="evenodd" stroke="#a00"/>
  <path d="m19.523 55.143c-6.85-6.8501 10.96-17.81 19.18-20.55 8.22-2.74 31.51-5.4801 39.73 2.74" fill="none" stroke="#a00" stroke-dasharray="2, 2" stroke-opacity=".50196"/>
 </g>
</svg>
