<?xml version="1.0" encoding="UTF-8"?>
<svg version="1.1" viewBox="0 0 128 128" xmlns="http://www.w3.org/2000/svg">
 <rect x="1.1341" y="1.014" width="125.86" height="125.86" ry="12.004" fill="#fff" stroke="#000" stroke-width="2"/>
 <polygon transform="matrix(.3847 0 0 .3847 4.1769 25.652)" points="100 0 125 0 25 200 0 200" fill="#009246"/>
 <polygon transform="matrix(.3847 0 0 .3847 4.1769 25.652)" points="120 0 145 0 45 200 20 200" fill="#fff"/>
 <polygon transform="matrix(.3847 0 0 .3847 4.1769 25.652)" points="140 0 310 0 210 200 40 200" fill="#ce2b37"/>
 <circle cx="71.499" cy="64.122" r="23.082" fill="#fff"/>
 <path d="m71.499 45.541c-1.5773 0-2.8852 1.2695-2.8852 2.8468 0 1.308 0.88481 2.4236 2.0774 2.7314v1.962h-5.7705c-0.30776-0.42317-0.88481-0.69246-1.5003-0.69246-1.0002 0-1.7696 0.65399-1.7696 1.5003 0 0.80787 0.80787 1.5003 1.7696 1.5003 0.65399 0 1.231-0.30776 1.5388-0.73093h5.7705v21.62c0 1.0772-0.69246 1.8466-1.5773 1.8466-2.4236 0-5.0011-1.0772-7.0015-2.6929-2.1543-1.6927-3.6546-3.9239-3.6546-6.0013 0-1.0387 1.1156-1.3849 1.8466-1.5773-1.8081-0.46164-4.3471-1.1926-5.9628-2.539 0.42317 2.1543-0.03847 4.4625-0.57705 6.6168 0.50011-0.53858 0.96175-1.2695 2.0004-1.2695s2.4621 3.8085 5.5782 6.1552c3.2315 2.4621 7.0015 2.616 8.6942 3.8085 0.61552 0.42317 1.4619 2.0389 1.4619 2.0389s0.84634-1.6157 1.4619-2.0389c1.6542-1.1926 5.4243-1.3464 8.6942-3.8085 3.0776-2.3467 4.5395-6.1552 5.5782-6.1552s1.5003 0.7694 2.0004 1.2695c-0.53858-2.1543-0.96175-4.4625-0.57705-6.6168-1.6157 1.3464-4.1163 2.0774-5.9628 2.539 0.73093 0.19235 1.8466 0.53858 1.8466 1.5773 0 2.0774-1.5003 4.3086-3.6546 6.0013-2.0004 1.5773-4.6164 2.6929-7.0015 2.6929-0.88481 0-1.5773-0.7694-1.5773-1.8466v-21.582h5.732c0.30776 0.46164 0.88481 0.73093 1.5388 0.73093 1.0002 0 1.7696-0.65399 1.7696-1.5003 0-0.80787-0.80787-1.5003-1.7696-1.5003-0.61552 0-1.1926 0.26929-1.5003 0.69246h-5.7705v-1.962c1.1926-0.34623 2.0774-1.4234 2.0774-2.7314-0.07694-1.5773-1.3464-2.8852-2.9237-2.8852zm0 1.4619c0.7694 0 1.3849 0.61552 1.3849 1.4234 0 0.7694-0.61552 1.3849-1.4234 1.3849-0.7694 0-1.4234-0.61552-1.4234-1.3849 0.03847-0.7694 0.69246-1.4234 1.4619-1.4234z"/>
</svg>
