<?xml version="1.0" encoding="UTF-8"?>
<svg version="1.1" viewBox="0 0 128 128" xmlns="http://www.w3.org/2000/svg">
 <rect x="1.1341" y="1.014" width="125.86" height="125.86" ry="12.004" fill="#fff" stroke="#000" stroke-width="2"/>
 <path d="m103.05 22.64-2.1698 5.4217-27.054-6.6723-9.2478-9.03zm-2.18 8.336-29.86-5.0742-10.896 10.203zm0.972 5.1287c0.16546 8.6287-1.743 16.608-12.296 16.932-7.6771 0.23563-14.583-2.6081-16.932-13.304zm8.468 21.568 3.4e-4 57.246-43.136-6.5e-4c-2.6876-2.1501-2.6876-6.0651 0-8.7525l38.702-0.11577c2.7778-1.7469 0.72214-3.4939 0-5.2408h-32.251zm-39.109-0.806-23.785 22.173-25.398-8.466c-3.2178 1.8415-5.6898 4.6316-4.0314 9.2724l33.058 12.901 15.722-11.691 0.40314 16.932 34.382-41.236z" fill="#000" stroke="#000" stroke-linecap="round" stroke-linejoin="round" stroke-width="3"/>
</svg>
