<?xml version="1.0" encoding="UTF-8"?>
<svg width="100%" height="100%" version="1.1" viewBox="0 0 96 96" xmlns="http://www.w3.org/2000/svg">
 <g transform="matrix(10.235 -4.0981 4.0981 10.235 -1224.8 -2518.9)">
  <path d="m22.427 256.21s-0.49716-0.97802-0.62756-1.0514c-0.1304-0.0733-0.85576-0.057-1.1247-0.163 0 0-0.33415 0.39121-0.83131 0.39121s-0.83131-0.39121-0.83131-0.39121c-0.2771 0.10595-0.99431 0.0897-1.1247 0.163-0.1304 0.0734-0.63571 1.0514-0.63571 1.0514 0.2771 0.62756 0.92911 0.76611 0.92911 0.76611l0.2608-0.40751c0.26018 0.8027 0.0044 2.0318-0.12225 3.1541 0.62756 0.36675 1.084 0.3912 1.5241 0.3912s0.88836-0.0245 1.5159-0.38305l-0.12225-3.1541 0.2608 0.40751c0-8e-3 0.66016-0.13855 0.92911-0.77426" fill="#e96f54" stroke-width=".081501"/>
  <g transform="matrix(.081501 0 0 .081501 17.236 254.89)" fill="#22648c">
   <path d="m32.2 7.2c-1.6 0-3.1-0.3-4.7-0.9-1.2-0.5-2.5-1.1-3.7-1.9-2-1.3-3.3-2.7-3.3-2.7 0.33569-0.26369 0.66667-0.53333 1-0.8l1.895-1.8751s0.77699 1.4453 2.577 2.6453c1.6 1 3.493 2.1319 6.293 2.1319 3.2 0 5.3698-1.2482 8.2698-4.4482l2.7652 2.1461c-1.8 2-3.6 3.5-5.6 4.4-1.7 0.8-3.5 1.3-5.5 1.3"/>
   <path d="m4.7593 16.841c-1.4-1.8-1.8994-4.039-2.2994-5.039l-2.4598 4.6984c0.5 1 1.2 2.1 2.1 3.2 1.4 1.8 3 3.2 4.7 4.2 1.5 0.9 3.1 1.5 4.9 1.7l2.03-3.3127c-3.5-0.3-6.5708-2.3466-8.9708-5.4466z"/>
   <path d="m59.078 17.541c1.4-1.8 2.3733-4.3124 2.7733-5.3124l2.1484 4.2712c-0.5 1-1.2 2.1-2.1 3.2-1.4 1.8-3 3.2-4.7 4.2-1.5 0.9-3.2 1.5-4.9 1.7l-2.3224-3.7809c3.5-0.3 6.7006-1.1779 9.1006-4.2779z"/>
  </g>
 </g>
 <path d="m87.549 39.755 5.6874-14.952-34.391-13.081-5.6874 14.952c-20.145 32.07-23.166 51.583-23.166 51.583l19.308 0.9867c3.7806-24.725 17.6-36.951 17.6-36.951l1.8156 0.69061s0.38534 17.629-13.221 38.616l15.083 12.094s10.71-16.587 16.971-53.939z" fill="#428bc1" stroke-width="1.1427"/>
 <g transform="matrix(1.068 .40624 -.40624 1.068 41.864 5.262)" fill="#347aa5">
  <path d="m35.2 53.9 16.8 6.1-0.7 4-17-5.2z"/>
  <path d="m28.8 53.9-16.8 6.1 0.7 4 17-5.2z"/>
 </g>
 <ellipse transform="rotate(20.825)" cx="79.508" cy="-6.994" rx="1.4855" ry="1.3712" fill="#ffce31" stroke-width="1.1427"/>
 <path d="m74.587 17.662-8.2895 21.658c-0.30058 1.0612-0.50406 2.1048 0.87565 2.8605l1.7513 0.64214 6.8884-18.038m11.792 14.711c-6.2635-2.5623-5.8433-6.9594-4.2615-11.675l2.2767-5.9544m-32.38 4.5734c4.532 2.0962 8.1901-0.17686 11.166-5.8616l2.3003-5.8921m-10.158 2.9188 34.442 13.018" fill="none" stroke="#22648c" stroke-width="4"/>
</svg>
