<svg version="1.1" viewBox="0 0 24 24" xmlns="http://www.w3.org/2000/svg">
    <path d="m11 0c-0.5523-8.083e-17 -1 0.4476-1 1v1h-5.758c-0.208 0-0.5025 0.1233-0.6543 0.2734l-2.475 2.453c-0.1515 0.1502-0.1515 0.3967 0 0.5469l2.475 2.453c0.1518 0.1502 0.4462 0.2734 0.6543 0.2734h5.758v1h-2.621c-0.208 0-0.3789 0.1807-0.3789 0.4004v5.201c0 0.2197 0.1709 0.3984 0.3789 0.3984h2.621v8c0 0.5523 0.4477 1 1 1 0.5524 0 1-0.4477 1-1v-8h7.758c0.2081 0 0.5025-0.1233 0.6543-0.2734l2.475-2.453c0.1516-0.1502 0.1516-0.3967 0-0.5469l-2.475-2.453c-0.1518-0.1501-0.4462-0.2734-0.6543-0.2734h-7.758v-1h2.623c0.208 0 0.377-0.1788 0.377-0.3984v-5.201c0-0.2197-0.169-0.4004-0.377-0.4004h-2.623v-1c0-0.5524-0.4476-1-1-1z" fill="#fff"/>
</svg>
