<svg version="1.1" viewBox="0 0 512 512" xml:space="preserve" xmlns="http://www.w3.org/2000/svg">
    <defs>
        <linearGradient id="linearGradient7" x1="364" x2="782.9" y1="93.68" y2="-325.2" gradientUnits="userSpaceOnUse"><stop offset="0"/><stop stop-opacity="0" offset="1"/></linearGradient>
        <mask id="mask6" maskUnits="userSpaceOnUse"><g transform="matrix(1.25 0 0 -1.25 136.2 308.2)" stroke-width=".8"><path d="m512 256c0 141.4-114.6 256-256 256s-256-114.6-256-256 114.6-256 256-256 256 114.6 256 256" fill="#fff" stroke-width=".8"/></g></mask>
    </defs>
    <path d="m512 256c0 141.4-114.6 256-256 256s-256-114.6-256-256 114.6-256 256-256 256 114.6 256 256" fill="#7db6d8"/>
    <g transform="matrix(.8 0 0 -.8 -108.9 246.6)" fill-opacity=".1255" mask="url(#mask6)">
            <path d="m456.2 208.2c-11.05 0-20-8.948-20-20v-20.01h-115.2c-4.161 0-10.04-2.46-13.08-5.464l-49.5-49.07c-3.023-2.996-3.036-7.907-0.0293-10.91l117.8-117.8v-68.79c0-2.28 0.9116-4.354 2.373-5.815l57.63-57.63v-104.6c0-5.527 2.237-10.54 5.859-14.16l282.8-282.8c3.617-3.617 8.601-5.859 14.12-5.859 11.05 0 20.01 8.963 20.01 20.01v160h155.1c4.161 0 10.04 2.46 13.08 5.464l49.5 49.07c3.023 2.996 3.036 7.892 0.0293 10.9l-0.0147 0.0293-1.714 1.699-156 156v28.83c-1e-5 2.276-0.9012 4.329-2.358 5.786l-282.8 282.8c-1.356 1.356-3.18 2.197-5.186 2.197h-24.17l-34.13 34.13c-3.622 3.622-8.623 5.874-14.15 5.874z" fill="url(#linearGradient7)" fill-opacity=".1255"/>
        </g>
    <path d="m240 96v352c0 8.838 7.162 16 16 16s16-7.162 16-16v-352c0-8.838-7.162-16-16-16s-16 7.162-16 16" fill="#f3cc70"/>
    <path d="m147.9 112c-3.329 0-8.034 1.969-10.46 4.372l-39.6 39.26c-2.425 2.403-2.425 6.341 0 8.744l39.6 39.26c2.429 2.403 7.134 4.372 10.46 4.372h166.1c3.328 0 6.05-2.878 6.05-6.394v-83.22c0-3.515-2.722-6.394-6.05-6.394h-166.1" fill="#495672"/>
    <path d="m396.1 320c3.329 0 8.034-1.969 10.46-4.372l39.6-39.26c2.425-2.403 2.425-6.341 0-8.744l-39.6-39.26c-2.429-2.403-7.134-4.372-10.46-4.372h-198.1c-3.329 0-6.05 2.878-6.05 6.394v83.22c0 3.515 2.722 6.394 6.05 6.394h198.1" fill="#fff"/>
</svg>
