<?xml version="1.0" encoding="UTF-8"?>
<svg version="1.1" viewBox="0 0 85.333 85.333" xml:space="preserve" xmlns="http://www.w3.org/2000/svg"><g stroke-width=".16054">
    
    
    
    
<path d="m39.917 16.017v59.115c0 1.4841 1.203 2.687 2.687 2.687 1.4842 0 2.6872-1.203 2.6872-2.687v-59.115c0-1.4842-1.203-2.6872-2.6872-2.6872-1.4841 0-2.687 1.203-2.687 2.6872" fill="#f3cc70"/><path d="m24.447 18.705c-0.55901 0-1.3494 0.33072-1.7572 0.73417l-6.6505 6.5927c-0.40714 0.40361-0.40714 1.0649 0 1.4685l6.6505 6.5926c0.40778 0.40361 1.1981 0.73433 1.7572 0.73433h27.89c0.55885 0 1.0159-0.4834 1.0159-1.0737v-13.975c0-0.59032-0.45707-1.0737-1.0159-1.0737h-27.89" fill="#6380c2"/><path d="m66.136 53.636c0.55917 0 1.3494-0.33072 1.7572-0.73417l6.6505-6.5927c0.4073-0.40361 0.4073-1.0649 0-1.4685l-6.6505-6.5927c-0.40778-0.40345-1.198-0.73417-1.7572-0.73417h-33.263c-0.55901 0-1.0161 0.4834-1.0161 1.0737v13.975c0 0.59032 0.45707 1.0737 1.0161 1.0737h33.263" fill="#fff"/></g></svg>
