<?xml version="1.0" encoding="UTF-8"?>
<svg version="1.1" viewBox="0 0 85.333 85.333" xml:space="preserve"
    xmlns="http://www.w3.org/2000/svg">
    <defs>
        <radialGradient id="radialGradient876" cx="35.468" cy="32.206" r="42.666"
            gradientTransform="translate(-.1161 .29025)" gradientUnits="userSpaceOnUse"><stop stop-color="#c0e4f9" offset="0"/>
            <stop stop-color="#7db6d8" offset="1" />
        </radialGradient>
    </defs>
    <rect width="85.333" height="85.333" fill="url(#radialGradient876)" />
    <path
        d="m42.667 13.341c-1.4729 0-2.666 1.1912-2.666 2.6641v2.668h-15.354c-0.55479 0-1.3394 0.32799-1.7441 0.72852l-6.5996 6.543c-0.40302 0.39943-0.40476 1.0543-0.0039 1.4551l15.701 15.701v9.1719c0 0.30398 0.12156 0.58054 0.3164 0.77539l7.6836 7.6836v13.939c0 0.73693 0.2983 1.4058 0.78125 1.8887l8.7734 8.7734h35.777v-34.051l-32.314-32.314c-0.1808-0.1808-0.42406-0.29297-0.69141-0.29297h-3.2227l-4.5508-4.5508c-0.48293-0.48294-1.1498-0.7832-1.8867-0.7832z"
        fill-opacity=".23529" />
    <g transform="matrix(1.3333,0,0,-1.3333,0,85.333)">
        <path d="m30 52v-44c0-1.1047 0.8953-2 2-2s2 0.89531 2 2v44c0 1.1047-0.8953 2-2 2s-2-0.8953-2-2" fill="#f3cc70"/>
        <path
            d="m18.485 50c-0.4161 0-1.0043-0.2461-1.3079-0.5465l-4.95-4.907c-0.3031-0.3004-0.3031-0.7926 0-1.093l4.95-4.907c0.3036-0.3004 0.8918-0.5465 1.3079-0.5465h20.759c0.416 0 0.7562 0.3598 0.7562 0.7992v10.402c0 0.4394-0.3402 0.7992-0.7562 0.7992h-20.759"
            fill="#495672" />
        <path
            d="m49.515 24c0.4161 0 1.0043 0.2461 1.3079 0.5465l4.95 4.907c0.3031 0.3004 0.3031 0.7926 0 1.093l-4.95 4.907c-0.3036 0.3004-0.8918 0.5465-1.3079 0.5465h-24.758c-0.4161 0-0.7563-0.3598-0.7563-0.7992v-10.402c0-0.4394 0.3402-0.7992 0.7563-0.7992h24.758"
            fill="#fff" />
    </g>
</svg>
