<?xml version="1.0" encoding="UTF-8"?>
<svg version="1.1" viewBox="0 0 512 512" xml:space="preserve" xmlns="http://www.w3.org/2000/svg">
    <g transform="matrix(.55867 0 0 .55867 113 128.39)"><path d="m56 64c-18.299 0.0022-29.865 19.659-20.98 35.656l200 360c9.5102 16.02 32.7 15.774 41.961 0l74.154-133.48h-54.914l-40.221 72.398-40.221-72.398c-16.566 0.85909-32.092-4.4316-32.461-21.318v-37.109l-22.59-40.662c-5.5071-0.0501-11.277-0.62236-18.266-7.5488l-1.7734-1.7559-21.027-39.584c-3.2512-8.7089-1.4475-13.098 2.7871-20.014l-25.66-46.188h130.03c2.3496-13.467 14.071-25 28.627-25s26.277 11.534 28.627 25h131.14l-55.24 99.432c26.82-0.62014 29.565 4.6524 40.582 25.797l76.428-137.57c8.8846-15.997-2.6817-35.654-20.98-35.656zm199.65 39.775c-7.6251 0-13.207 6.1894-13.207 13.826v11.762h-79.484c-2.8722 0-6.9341 2.1175-9.0293 4.1934l-17.672 33.922c-1.4008 2.1676-1.3644 5.3871 0 7.5547l17.672 33.922c2.0952 2.0767 6.1571 2.9512 9.0293 2.9512h79.484v16.301h-36.195c-2.8722 0-6.7266 2.4861-6.7266 5.5234v71.906c0 3.0374 3.8544 5.3184 6.7266 5.3184h36.195v33.246l13.553 24.377 12.859-23.184v-34.439h101.7c2.873 0 6.9322-1.4964 9.0273-3.5723l17.674-33.92c1.4497-2.2824 1.2954-5.4028 0-7.5566l-17.674-33.92c-2.0952-2.0758-6.1543-3.7793-9.0273-3.7793h-101.7v-16.301h37.4c2.8714 0 5.5215-1.6599 5.5215-4.6973v-71.904c0-3.0374-2.6501-5.9414-5.5215-5.9414h-37.4v-11.762c0-7.6368-5.5792-13.826-13.205-13.826z" color="#000000"/></g>
</svg>
