<?xml version="1.0" encoding="UTF-8"?>
<svg version="1.1" viewBox="0 0 512 512" xml:space="preserve" xmlns="http://www.w3.org/2000/svg">
    <path d="m262.03 58.867c-9.245 0-16.732 7.489-16.732 16.733v16.746h-96.365c-3.482 0-8.408 2.058-10.948 4.572l-41.422 41.066c-2.53 2.507-2.54 6.617-0.025 9.133l98.549 98.547v57.566c0 1.909 0.762 3.644 1.986 4.868l48.225 48.224v87.491c0 4.625 1.871 8.824 4.902 11.855 76.719 74.086 195.79 193.26 248.52 241.59 9.245 0 195.71 7.411 197.62-1.633 3.788-61.191 1.876-158.23 1.349-203.76l-0.011-0.025-1.436-1.422c-114.49-142.82-249.37-276.59-369.24-396.23-1.135-1.135-2.662-1.84-4.34-1.84h-20.226l-28.563-28.565c-3.031-3.031-7.217-4.914-11.842-4.914z" fill="url(#_Linear1)"/>
    <path d="m245.29 75.579v368.22c0 9.244 7.493 16.737 16.737 16.737 9.245 0 16.738-7.493 16.738-16.737v-368.22c0-9.245-7.493-16.738-16.738-16.738-9.244 0-16.737 7.493-16.737 16.738" fill="#f3cc70"/>
    <path d="m148.93 92.319c-3.482 0-8.405 2.06-10.945 4.573l-41.425 41.065c-2.536 2.514-2.536 6.633 0 9.147l41.425 41.064c2.54 2.514 7.463 4.574 10.945 4.574h173.72c3.481 0 6.328-3.011 6.328-6.688v-87.047c0-3.677-2.847-6.688-6.328-6.688h-173.72" fill="#495672"/>
    <path d="m408.6 309.9c3.483 0 8.405-2.06 10.945-4.573l41.425-41.065c2.537-2.514 2.537-6.633 0-9.147l-41.425-41.065c-2.54-2.513-7.462-4.573-10.945-4.573h-207.19c-3.482 0-6.329 3.011-6.329 6.688v87.047c0 3.677 2.847 6.688 6.329 6.688h207.19" fill="#fff"/>
    <defs>
        <linearGradient id="_Linear1" x2="1" gradientTransform="matrix(243.5 274.18 -274.18 243.5 311.43 223.18)" gradientUnits="userSpaceOnUse">
            <stop stop-opacity=".12" offset="0"/>
            <stop stop-opacity="0" offset="1"/>
        </linearGradient>
    </defs>
</svg>
