<?xml version="1.0" encoding="UTF-8"?>
<svg version="1.1" viewBox="0 0 512 512" xml:space="preserve" xmlns="http://www.w3.org/2000/svg">
    <defs>
        
    <linearGradient id="linearGradient5030" x1="327.5" x2="433.3" y1="326.18" y2="381.37" gradientUnits="userSpaceOnUse"><stop stop-opacity=".12549" offset="0"/><stop stop-opacity="0" offset="1"/></linearGradient></defs>
    
<g transform="matrix(.84157 0 0 .84157 41.198 50.593)"><path d="m239.43 465.44 219.94 215.8c5.7117 5.2155 24.292 3.0479 32.402-10.365l74.154-133.47h19.211c8.4276 0 13.777-1.3677 20.287-8.2052 8.5627-8.9936 14.473-25.318 20.606-37.893 3.7712-7.7325 3.343-15.963-0.47896-23.196-3.1469-5.956-6.1925-13.535-9.6385-20.686l75.86-136.54c5.4914-10.118 3.0255-22.71-1.368-26.46l-219.38-215.31z" color="#000000" fill="url(#linearGradient5030)" stroke-linejoin="round" stroke-width="26.816" style="-inkscape-stroke:none"/><path d="m56 88h400l-200 360z" fill="#fff" stroke="#c3272f" stroke-linejoin="round" stroke-width="48" style="paint-order:normal"/><path d="m255.45 87c-14.772-3.87e-4 -26.673 11.865-28.773 25.588h-63.918c-10.735 0-15.347 2.7336-20.291 8.8281-8.9082 10.981-14.085 25.718-20.6 37.893-2.4465 4.5719-3.5114 16.215 0.64844 23.473 5.9412 10.365 13.181 27.488 19.949 36.762 6.5095 8.9193 14.174 7.5859 20.293 7.5859h21.416c-0.52794 1.759-0.85547 3.6863-0.85547 5.8262v71.906c0 8.2873 4.8771 13.867 8.9551 16.795s8.1033 4.5234 13.773 4.5234h20.193v96.848h58.414v-96.848h85.689c8.4276 0 13.779-1.3695 20.289-8.207 8.5627-8.9936 14.471-25.318 20.604-37.893 3.7712-7.7325 3.3435-15.962-0.47851-23.195-5.9202-11.205-11.348-28.349-20.125-37.041-6.3306-6.2697-11.094-8.4121-20.289-8.4121h-43.512c0.45512-1.6504 0.74414-3.3324 0.74414-5v-71.902c1e-5 -12.344-7.8665-21.941-21.521-21.941h-21.836c-2.1001-13.722-13.998-25.588-28.77-25.588z" color="#000000" fill="#fff" style="-inkscape-stroke:none;paint-order:stroke fill markers"/><path d="m242.24 116.82v11.763h-79.484c-2.8722 0-7.6658 1.5772-9.0285 4.193l-17.672 33.921c-1.1924 2.2888-1.1834 5.2839 0 7.5554l17.672 33.921c1.363 2.6162 6.1563 2.9509 9.0285 2.9509h79.484v16.302h-36.195c-2.8722 0-6.727 2.4868-6.727 5.5242v71.906c0 3.0374 3.8548 5.3176 6.727 5.3176h36.195v96.848h26.413v-96.848h101.69c2.873 0 7.6656-0.95631 9.0285-3.572l17.674-33.921c1.2494-2.3979 1.1614-5.3265 0-7.5554l-17.674-33.921c-1.3628-2.6156-6.1555-3.7785-9.0285-3.7785h-101.69v-16.302h37.4c2.8714 0 5.5214-1.6592 5.5214-4.6966v-71.904c0-3.0374-2.6501-5.9402-5.5214-5.9402h-37.4v-11.763c0-7.6368-5.5807-13.825-13.206-13.825s-13.207 6.188-13.207 13.825z" color="#000000" fill="#333" stroke-width="32" style="-inkscape-stroke:none;paint-order:stroke fill markers"/><path d="m199.63 346.53 56.373 101.47 56.778-102.2" fill="none" stroke="#c3272f" stroke-linejoin="round" stroke-width="48" style="paint-order:normal"/></g></svg>
