<?xml version="1.0" encoding="UTF-8"?>
<svg width="256" height="256" enable-background="new 0 -0.321 144 120" version="1.1" viewBox="0 -.321 256 256" xml:space="preserve" xmlns="http://www.w3.org/2000/svg">
<path d="m201.5 3.679c13.493 0 24.5 9.2843 24.5 20.667v206.67c0 11.382-11.006 20.664-24.5 20.664h-147c-13.493 0-24.5-9.2819-24.5-20.664v-206.67c0-11.24 11.173-20.667 24.5-20.667z" fill="#fff"/>
<path d="m199.81 11.703c9.9583 0.03278 18.096 6.8314 18.161 15.094v201.93c-0.065 8.2668-8.2021 14.888-18.161 14.93h-143.63c-9.9336-0.0423-18.121-6.6633-18.155-14.93v-201.93c0.03387-8.2622 8.2218-15.06 18.155-15.094z" fill="none" stroke="#c1121c" stroke-width="8"/>
<path d="m134.75 43.609c-1.8481 4.3131-2.5989 8.9651-2.5989 15.949 0 6.9812 0.68327 11.364 2.5314 15.814 2.2594 5.475 5.4072 7.8139 10.679 7.8139 5.133 0 8.3478-2.3423 10.607-7.7505 1.8481-4.4494 2.5356-8.8292 2.5356-15.877 0-6.9839-0.68749-11.296-2.5356-15.746-2.3261-5.5444-5.4048-7.8012-10.573-7.8016s-8.3176 2.2593-10.646 7.598zm-37.235-6.8461v45.67h6.432v-30.609l13.692 30.609h4.8599v-45.67h-6.4362v27.313l-12.116-27.313zm53.391 11.296c1.0256 3.3543 1.3692 6.3633 1.3692 11.499 0 5.1999-0.34366 8.0089-1.3692 11.638-1.095 3.8325-2.8738 5.6121-5.5445 5.6121-2.8042 0-4.516-1.7821-5.6164-5.684-1.0229-3.56-1.365-6.5021-1.365-11.499 0-5.133 0.34213-8.146 1.365-11.706 1.1003-3.8325 2.8789-5.5445 5.5829-5.5442 2.704 2.47e-4 4.4135 1.7156 5.5779 5.6842zm34.564 53.298c-1.573 4.2437-2.0539 8.2846-2.0539 17.525 0 9.31 0.48179 13.347 1.9186 17.588 1.5062 4.2437 4.1065 6.039 8.6253 6.039 4.038 0 7.1205-1.9967 8.0125-5.2149 0.4086-1.4368 0.6846-3.8313 0.6846-5.9545v-11.706h-8.2829v5.9586h2.5989v6.0221c0 3.1488-1.1638 4.9275-3.2202 4.9275-1.9817 0-3.1436-1.5051-3.6217-4.5175-0.61693-3.8324-0.82406-6.9122-0.82406-13.143 0-6.2975 0.20365-9.379 0.88743-13.076 0.54751-3.0098 1.8511-4.5176 3.9048-4.5176 1.5756 0 2.6013 1.0956 2.8736 3.0132h5.684c-0.61692-5.75-3.7002-8.9675-8.3565-8.9671-4.6563 4.44e-4 -7.3242 1.915-8.8305 6.0224zm-60.757-5.274v45.675h5.6798v-17.128l2.1257-4.5134 6.0179 21.642h6.1615l-8.1435-29.928 7.3955-15.746h-6.508l-7.0489 14.588v-14.588zm-70.684 0.0044v45.666h5.6755v-19.926h3.0132c6.2975 0 10.544-5.0014 10.544-12.53 0-4.858-1.6459-9.239-4.2472-11.36-1.4368-1.1644-3.6955-1.851-6.2967-1.851zm27.756 0-9.1705 45.67h5.9586l2.4595-12.129h7.3955l2.4595 12.129h5.9586l-9.1746-45.671zm18.522 0v45.666h5.6798v-21.366h2.6032l4.9952 21.366h5.8192l-4.5175-22.804c3.349-2.1232 4.6571-4.9315 4.6571-10.134 0-8.418-3.5627-12.729-10.544-12.729zm47.855 0v45.666h5.6798v-45.666zm10.852 0v45.666h5.6798v-27.118l8.7605 27.118h4.7922v-45.666h-5.6798v22.795l-7.8731-22.795zm-53.028 5.9545h2.8061c3.8351 0 4.9318 1.5068 4.9318 6.7067 0 4.3158-0.96344 5.684-4.04 5.684h-3.6978zm-46.283 4e-3h3.0132c3.2155 0 4.7247 2.2531 4.7247 7.3194-9e-6 4.7912-1.2314 6.5038-4.7247 6.5038h-3.0132zm25.027 9.5803 2.4638 12.049h-4.9275z" fill="#c1121c" />
<path d="m102.57 151.21-7.4378 30.449h4.2893l2.0539-8.3632h6.339l2.058 8.3632h4.2852l-7.4378-30.449zm16.748 0v30.449h4.2936v-20.407l9.124 20.407h3.2414v-30.449h-4.2936v18.209l-8.0716-18.209zm21.815 0 7.3448 16.654v13.794h4.2936v-13.794l7.3448-16.654h-4.564l-4.9275 11.043-4.9275-11.043zm-36.509 9.0352 2.1468 8.807h-4.2893zm-16.304 30.981v4.0611h5.5233v26.387h4.2852v-26.387h5.3882v-4.0611zm22.834 0v30.444h4.2852v-30.444zm13.198 0v30.444h4.2893v-17.119l5.5699 17.119 5.5656-17.119v17.119h4.2936v-30.444h-4.2936l-5.5656 17.115-5.5699-17.115zm28.627 0v30.449h15.197v-4.2556h-10.907v-10.036h6.1615v-4.2429h-6.1615v-7.6702h9.7198v-4.2429z" fill="#c1121c"/>
</svg>
