<svg version="1.1" viewBox="0 0 128 128" xml:space="preserve" xmlns="http://www.w3.org/2000/svg"><g transform="matrix(1.7363 0 0 1.7363 -44.778 -47.227)"><g transform="matrix(6,0,0,6,16,-6215.2)"><path transform="matrix(.13043 0 0 .13043 -.57497 1038)" d="m25.706 108.77h76.664" fill="none" stroke="#c87137" stroke-width="7.6667" style="mix-blend-mode:color-burn"/><rect x="4.2728" y="1040.9" width="7" height="11" fill="#aaa" stroke="#333"/><path d="m2.773 1051.9h9.9996" fill="none" stroke="#c87137"/></g></g><style type="text/css">
	.st0{fill:#77B3D4;}
	.st1{opacity:0.2;}
	.st2{fill:#231F20;}
	.st3{fill:#FFFFFF;}
</style><g transform="matrix(1.4706 0 0 1.4706 37.529 37.601)"><g fill="#31373d"><path d="m35 31s0 4-4 4h-26c-4 0-4-4-4-4v-19c0-4 4-4 4-4h26s4 0 4 4z"/><path d="m21.303 10.389a0.99985 0.99985 0 1 1-1.414 1.414l-9.192-9.192a0.99985 0.99985 0 1 1 1.414-1.414z"/><path d="m14.697 10.389a0.99985 0.99985 0 1 0 1.414 1.414l9.192-9.192a0.99985 0.99985 0 1 0-1.414-1.414z"/></g><path d="m18 11c8 0 10 1 11 2s2 3 2 8-1 7-2 8-3 2-11 2-10-1-11-2-2-3-2-8 1-7 2-8 3-2 11-2z" fill="#55acee"/><circle cx="31.5" cy="31.5" r="1.5" fill="#66757f"/><circle cx="4.5" cy="31.5" r="1.5" fill="#66757f"/></g></svg>
