<svg version="1.1" viewBox="0 0 128 128" xml:space="preserve" xmlns="http://www.w3.org/2000/svg"><g transform="matrix(1.7363 0 0 1.7363 -44.778 -47.227)"><g transform="matrix(6,0,0,6,16,-6215.2)"><path transform="matrix(.13043 0 0 .13043 -.57497 1038)" d="m25.706 108.77h76.664" fill="none" stroke="#c87137" stroke-width="7.6667" style="mix-blend-mode:color-burn"/><rect x="4.2728" y="1040.9" width="7" height="11" fill="#aaa" stroke="#333"/><path d="m2.773 1051.9h9.9996" fill="none" stroke="#c87137"/></g></g><style type="text/css">
	.st0{fill:#77B3D4;}
	.st1{opacity:0.2;}
	.st2{fill:#231F20;}
	.st3{fill:#FFFFFF;}
</style><g transform="matrix(1.3571 0 0 1.3571 -178.59 58.37)"><g transform="translate(11.972,-47.823)"><g transform="matrix(.46032 0 0 .46032 -418.74 -338.38)"><path d="m1238.5 816h67.065c3.5829 0 6.4674 2.8845 6.4674 6.4674v51.065c0 3.5829-2.8845 6.4674-6.4674 6.4674h-67.065c-3.5829 0-6.4674-2.8845-6.4674-6.4674v-51.065c0-3.5829 2.8845-6.4674 6.4674-6.4674z" fill="#ddd"/><path d="m1236 874 36-38 36 38" fill="none" stroke="#aaa" stroke-linecap="round" stroke-linejoin="round" stroke-width="8"/><path d="m1236 880c-3.6785 3.3e-4 -5.4075-4.5462-2.6582-6.9902l36-32c1.5158-1.3478 3.8006-1.3478 5.3164 0l36 32c2.7493 2.444 1.0203 6.9906-2.6582 6.9902z" fill="#e9e9e9" fill-rule="evenodd"/><path d="m1236 822 36 38 36-38" fill="none" stroke="#aaa" stroke-linecap="round" stroke-linejoin="round" stroke-width="8"/><path d="m1236 816c-3.6785-3.3e-4 -5.4075 4.5462-2.6582 6.9902l36 32c1.5158 1.3478 3.8006 1.3478 5.3164 0l36-32c2.7493-2.444 1.0203-6.9906-2.6582-6.9902z" fill="#fff" fill-rule="evenodd"/></g></g></g></svg>
