<svg version="1.1" viewBox="0 0 128 128" xml:space="preserve" xmlns="http://www.w3.org/2000/svg"><g transform="matrix(1.7363 0 0 1.7363 -44.778 -47.227)"><g transform="matrix(6,0,0,6,16,-6215.2)"><path transform="matrix(.13043 0 0 .13043 -.57497 1038)" d="m25.706 108.77h76.664" fill="none" stroke="#c87137" stroke-width="7.6667" style="mix-blend-mode:color-burn"/><rect x="4.2728" y="1040.9" width="7" height="11" fill="#aaa" stroke="#333"/><path d="m2.773 1051.9h9.9996" fill="none" stroke="#c87137"/></g></g><style type="text/css">
	.st0{fill:#77B3D4;}
	.st1{opacity:0.2;}
	.st2{fill:#231F20;}
	.st3{fill:#FFFFFF;}
</style><g transform="matrix(.28736 0 0 .28736 30.258 10.086)"><g transform="matrix(1.5031 0 0 1.5031 20.389 175.59)"><path d="m116 108c0 3.5499-2.881 6.4309-6.4309 6.4309h-9.6463c-3.5499 0-6.4309-2.881-6.4309-6.4309v-25.724c0-3.5499 2.881-6.4309 6.4309-6.4309h9.6463c3.5499 0 6.4309 2.881 6.4309 6.4309z" fill="#555"/><path d="m35.614 108c0 3.5499-2.881 6.4309-6.4309 6.4309h-9.6463c-3.5499 0-6.4309-2.881-6.4309-6.4309v-25.724c0-3.5499 2.881-6.4309 6.4309-6.4309h9.6463c3.5499 0 6.4309 2.881 6.4309 6.4309z" fill="#555"/><path d="m93.492 17.967c12.479 3.119 16.077 35.37 16.077 35.37s6.4309 0 6.4309 12.862v25.724s-0.38264 9.7428-12.862 12.862c-12.862 3.2154-22.508 3.2154-38.585 3.2154s-25.724 0-38.585-3.2154c-12.476-3.119-12.862-12.862-12.862-12.862v-25.724s0-12.862 6.4309-12.862c0 0 3.6013-32.251 16.077-35.37 12.862-3.2154 45.016-3.2154 57.878 0z" fill="#3b88c3"/><path d="m64.553 50.122c12.556 0 27.727 0.64309 38.585 1.8071l-3.2155-17.884c-3.2154-9.6463-22.508-9.6463-35.37-9.6463s-32.154 0-35.37 9.6463l-3.2154 17.884c10.859-1.164 26.029-1.8071 38.585-1.8071" fill="#bbddf5"/><path d="m17.929 56.553h-6.4309c-2.6656 0-4.8232-2.1576-4.8232-4.8232s2.1576-4.8232 4.8232-4.8232h6.4309c2.6656 0 4.8232 2.1576 4.8232 4.8232s-2.1576 4.8232-4.8232 4.8232z" fill="#3b88c3"/><path d="m111.18 56.553h6.4309c2.6624 0 4.8232-2.1576 4.8232-4.8232s-2.1608-4.8232-4.8232-4.8232h-6.4309c-2.6624 0-4.8232 2.1576-4.8232 4.8232s2.1608 4.8232 4.8232 4.8232z" fill="#3b88c3"/><path d="m42.045 75.846c0 5.328-4.3183 9.6463-9.6463 9.6463h-3.2154c-5.328 0-9.6463-4.3183-9.6463-9.6463s4.3183-9.6463 9.6463-9.6463h3.2154c5.328 0 9.6463 4.3183 9.6463 9.6463" fill="#fff"/><path d="m109.57 75.846c0 5.328-4.3216 9.6463-9.6463 9.6463h-3.2154c-5.3248 0-9.6463-4.3183-9.6463-9.6463s4.3216-9.6463 9.6463-9.6463h3.2154c5.3248 0 9.6463 4.3183 9.6463 9.6463" fill="#fff"/><path d="m22.475 65.808c9.0535-4.4784 23.328 0.2319 23.472 0.278 1.6817 0.56625 3.5064-0.33695 4.0727-2.0187s-0.32742-3.4972-2.0159-4.0711c-0.68454-0.23557-16.923-5.6155-28.378 0.04554-1.5917 0.78898-2.2432 2.7148-1.4586 4.3077 0.2945 0.58959 0.74352 1.053 1.2726 1.3585 0.89944 0.5193 2.033 0.59454 3.0351 0.10006z" fill="#269"/><path d="m110.93 64.351c0.78738-1.5944 0.13589-3.5203-1.4586-4.3077-11.453-5.6627-27.693-0.2811-28.378-0.04554-1.6741 0.573-2.5822 2.3893-2.0131 4.0695 0.56347 1.6834 2.3882 2.5866 4.0699 2.0203 0.14417-0.04611 14.419-4.7565 23.472-0.278 0.99929 0.49608 2.1356 0.41923 3.0351-0.10006 0.52909-0.30547 0.9781-0.76892 1.2726-1.3585z" fill="#269"/><path d="m20.479 90.981c-1.2572-1.2572-1.2572-3.2894 0-4.5466 1.1061-1.1093 2.8199-1.2412 4.074-0.39228 0.74598 0.32154 7.3473 2.6656 40 2.6656s39.254-2.3441 40-2.6656c1.2572-0.84888 2.9646-0.71704 4.074 0.39228 1.2572 1.2572 1.2572 3.2894 0 4.5466-3.4341 3.4341-25.865 4.1576-44.074 4.1576s-40.64-0.72348-44.074-4.1576z" fill="#55acee"/><path d="m64.553 104.78c-12.431 0-22.508-3.2154-22.508-8.0386 0-2.6624 10.077-1.6077 22.508-1.6077s22.508-1.0547 22.508 1.6077c0 4.8232-10.077 8.0386-22.508 8.0386z" fill="#269"/></g><g transform="matrix(-1.5656 0 0 1.5656 158.97 31.201)"><path d="M 61.802,49.027 80,64 h 16" fill="none" stroke="#444" stroke-linejoin="round" stroke-width="10"/><g transform="rotate(15,95.703,48.155)"><path d="m37.615 69.9-8.4853-8.4853-9.9069 9.9069c1.3197 3.8246 3.6614 6.9744 8.4853 8.4853z" fill="#333" stroke="#333" stroke-linejoin="round" stroke-width="4"/><path d="m78.627 37.373-14.142-14.142-36.77 36.77c3.2045 5.8434 6.7023 11.467 14.142 14.142z" fill="#66666f" stroke="#666" stroke-linejoin="round" stroke-width="4"/><circle transform="rotate(-45)" cx="2.859" cy="82.134" r="10" fill="#666" fill-rule="evenodd"/><path d="m10.745 65.657 52.528-52.392c9.5206 2.551 8.98 10.978 12.888 15.119l-37.132 37.273c-7.3263-1.7577-19.49 2.7398-28.284 0z" fill="#ccc" stroke="#999" stroke-linejoin="round" stroke-width="4"/><circle cx="60.03" cy="55.927" r="4.5625" fill="#444" fill-rule="evenodd"/></g><rect x="88" y="52" width="8" height="24" fill="#666" fill-rule="evenodd"/></g></g></svg>
