<svg version="1.1" viewBox="0 0 128 128" xml:space="preserve" xmlns="http://www.w3.org/2000/svg"><g transform="matrix(1.7363 0 0 1.7363 -44.778 -47.227)"><g transform="matrix(6,0,0,6,16,-6215.2)"><path transform="matrix(.13043 0 0 .13043 -.57497 1038)" d="m25.706 108.77h76.664" fill="none" stroke="#c87137" stroke-width="7.6667" style="mix-blend-mode:color-burn"/><rect x="4.2728" y="1040.9" width="7" height="11" fill="#aaa" stroke="#333"/><path d="m2.773 1051.9h9.9996" fill="none" stroke="#c87137"/></g></g><style type="text/css">
	.st0{fill:#77B3D4;}
	.st1{opacity:0.2;}
	.st2{fill:#231F20;}
	.st3{fill:#FFFFFF;}
</style><g transform="matrix(1.2952 0 0 1.2952 -166.68 56.525)"><g transform="matrix(.61418 0 0 .61418 138.79 -33.435)"><g transform="matrix(.12276 0 0 .12276 32.58 32.408)"><path d="m175.16 138.1c156.27 0 282.95 126.68 282.95 282.95v26.948h-161.68v-26.947c0-66.972-54.291-121.26-121.26-121.26h-13.474v-161.68z" fill="#6dc180"/><path d="m296.42 165.35v282.65h161.68v-26.947c0-112.87-66.095-210.29-161.68-255.7z" fill="#5ca15d"/><polyline points="0 84.211 94.316 84.211 94.316 299.79 0 299.79" fill="#dfdfe1"/><rect x="80.842" y="43.789" width="94.316" height="296.42" fill="#cfcdd2"/><rect x="242.53" y="427.79" width="269.47" height="40.421" fill="#5ca15d"/><rect x="296.42" y="427.79" width="215.58" height="40.421" fill="#477e48"/><path d="m343.21 351.44c-18.334-44.262-52.702-78.973-96.773-97.741l15.837-37.19c53.866 22.938 95.873 65.364 118.28 119.46z" fill="#95d5a7"/><path d="m296.42 234.67v50.718c20.153 17.989 36.165 40.416 46.786 66.057l37.345-15.468c-17.416-42.045-46.673-77.032-84.131-101.31z" fill="#6dc180"/></g></g></g></svg>
