<?xml version="1.0" encoding="UTF-8" standalone="no"?>
<svg version="1.1" viewBox="0 0 128 128" xml:space="preserve" id="svg5" sodipodi:docname="street_cabinet_gas.svg" inkscape:version="1.3 (0e150ed6c4, 2023-07-21)" xmlns:inkscape="http://www.inkscape.org/namespaces/inkscape" xmlns:sodipodi="http://sodipodi.sourceforge.net/DTD/sodipodi-0.dtd" xmlns="http://www.w3.org/2000/svg" xmlns:svg="http://www.w3.org/2000/svg"><defs id="defs5" /><sodipodi:namedview id="namedview5" pagecolor="#505050" bordercolor="#eeeeee" borderopacity="1" inkscape:showpageshadow="0" inkscape:pageopacity="0" inkscape:pagecheckerboard="0" inkscape:deskcolor="#505050" inkscape:zoom="10.114942" inkscape:cx="38.01307" inkscape:cy="64.508526" inkscape:window-width="3840" inkscape:window-height="2066" inkscape:window-x="3829" inkscape:window-y="-11" inkscape:window-maximized="1" inkscape:current-layer="svg5" /><g transform="matrix(1.7362764,0,0,1.7362764,-44.778493,-47.226974)" id="g5" style="display:inline" inkscape:label="street_cabinet"><g transform="matrix(6,0,0,6,16,-6215.2)" id="g4"><path transform="matrix(0.13043,0,0,0.13043,-0.57497,1038)" d="M 25.706,108.77 H 102.37" fill="none" stroke="#c87137" stroke-width="7.6667" style="mix-blend-mode:color-burn" id="path2" /><g id="g3"><rect x="4.2728" y="1040.9" width="7" height="11" fill="#aaaaaa" stroke="#333333" id="rect2" /><path d="m 2.773,1051.9 h 9.9996" fill="none" stroke="#c87137" id="path3" /></g></g></g><g id="g6" transform="matrix(0.6178009,0,0,0.6178009,24.460742,25.696344)" style="display:inline" inkscape:label="gas"><path d="M 64,108 C 40,108 24,96 24,76 24,56 65.882,52.522 56,16 c 0,0 32,20 24,44 0,0 8.5626,-10.414 12,-16 0,0 12,12 12,32 0,20 -16,32 -40,32 z" fill="#eb650d" id="path3-7" /><path d="m 88,60 c 4,8 24,28 -8,28 -8,0 4,-20 8,-28 z" fill="#e98616" id="path4-0" /><path d="M 80,72 C 64,56 80,48 64,28 68,48 36,64 36,80 c 0,16 12,24 28,24 16,0 24.335,-22.671 16,-32 z" fill="#f1b014" id="path5" /><path d="M 64,96 C 48,96 48,76 64,56 64,76 80,96 64,96 Z" fill="#f3f40f" id="path6" /></g></svg>
