<svg version="1.1" viewBox="0 0 128 128" xml:space="preserve" xmlns="http://www.w3.org/2000/svg"><g transform="matrix(1.7363 0 0 1.7363 -44.778 -47.227)"><g transform="matrix(6,0,0,6,16,-6215.2)"><path transform="matrix(.13043 0 0 .13043 -.57497 1038)" d="m25.706 108.77h76.664" fill="none" stroke="#c87137" stroke-width="7.6667" style="mix-blend-mode:color-burn"/><rect x="4.2728" y="1040.9" width="7" height="11" fill="#aaa" stroke="#333"/><path d="m2.773 1051.9h9.9996" fill="none" stroke="#c87137"/></g></g><style type="text/css">
	.st0{fill:#77B3D4;}
	.st1{opacity:0.2;}
	.st2{fill:#231F20;}
	.st3{fill:#FFFFFF;}
</style><g transform="matrix(1.6022 0 0 1.6022 -144.21 -.80726)"><g transform="matrix(.38058 0 0 .38058 -281.07 254.32)"><path d="m1068-524.02c-0.017 2.6223-1.1099 4.031-4.0626 4.0392l-7.9075 0.0221c-2.9501 8e-3 -4.0627-1.3948-4.0627-4.0171l0.033-5.0265h16.033z" fill="#555"/><path d="m1108-524c0 2.609-1.0011 4.0814-3.9286 4.0814h-8.0386c-2.9249 0-3.9218-1.4338-3.9599-4.0426l-0.073-4.9934h16z" fill="#555"/><g fill="#99aab5"><path d="m1121-565c0 1.3057-0.702 2-2 2h-3c-1.298 0-2-0.69431-2-2v-17c0-1.3033 0.702-2 2-2h3c1.298 0 2 0.69666 2 2z"/><path d="m1116-576h-72v-3.9097h72z"/><path d="m1116-567-72-0.0278v-4.9722h72z"/></g><path d="m1068-604c-3.0432 0.11134-3.9787 1.6973-4 4l-8-1e-5c-5.1849 0.0256-8 2.7843-8 8v28h64v-28c0-5.2157-2.6935-8.011-8-8h-7.873c-0.1982-2.7997-2.0299-3.9358-4.127-4z" fill="#ccd6dd"/><path d="m1112-532h-64v-32h64z" fill="#ffcc4d"/><path d="m1112-534h-64v-14h64z" fill="#ffac33"/><path d="m1115.1-529.95c0.029 1.3054-0.8081 2.0089-2.1061 2.0089h-65.913c-1.2956 0-2.0277-0.65897-2.0277-1.9647v-2.0076c0-1.3057 0.7705-2.0518 2.0662-2.0518h65.899c1.298 0 2.0092 0.70218 2.0379 2.0076z" fill="#66757f"/><path d="m1112-564c0.3373 3.8978-2.0828 6.1111-5.9722 6.1111h-52.014c-3.8894 0-6.014-2.1988-6.014-6.1111v-18.125c0-3.9124 2.1246-5.875 6.014-5.875h52.111c3.8893 0 5.5377 1.9772 5.875 5.875z" fill="#66757f"/><path d="m1108-565.96c0 2.6067-1.4063 3.9699-4 3.9699h-48c-2.5913 0-4.1037-1.5331-4-4.1377v-13.875c0.1037-2.6046 1.4087-4 4-4h48c2.5937 0 4 1.3933 4 4z" fill="#88c9f9"/><path d="m1092-536h-24v-10h24z" fill="#99aab5"/><path d="m1089-594h-18c-2 0-3-1-3-3s1-3 3-3h18c2 0 3 1 3 3s-1 3-3 3z" fill="#555"/><path d="m1046-565c0 1.3057-0.702 2-2 2h-3c-1.298 0-2-0.69431-2-2v-17c0-1.3033 0.702-2 2-2h3c1.298 0 2 0.69666 2 2z" fill="#99aab5"/><path d="m1061-541a5 5 0 0 1-5 5 5 5 0 0 1-5-5 5 5 0 0 1 5-5 5 5 0 0 1 5 5" fill="#fff"/><path d="m1109-541a5 5 0 0 1-5 5 5 5 0 0 1-5-5 5 5 0 0 1 5-5 5 5 0 0 1 5 5" fill="#fff"/></g></g></svg>
