<svg version="1.1" viewBox="0 0 128 128" xml:space="preserve" xmlns="http://www.w3.org/2000/svg"><g transform="matrix(1.7363 0 0 1.7363 -44.778 -47.227)"><g transform="matrix(6,0,0,6,16,-6215.2)"><path transform="matrix(.13043 0 0 .13043 -.57497 1038)" d="m25.706 108.77h76.664" fill="none" stroke="#c87137" stroke-width="7.6667" style="mix-blend-mode:color-burn"/><rect x="4.2728" y="1040.9" width="7" height="11" fill="#aaa" stroke="#333"/><path d="m2.773 1051.9h9.9996" fill="none" stroke="#c87137"/></g></g><style type="text/css">
	.st0{fill:#77B3D4;}
	.st1{opacity:0.2;}
	.st2{fill:#231F20;}
	.st3{fill:#FFFFFF;}
</style><g transform="matrix(.78125 0 0 .78125 14 9.3125)"><path d="m48 93.375v8l10 4h12l10-4v-8z" fill-opacity=".2" stroke-width=".2"/><g stroke="#c1a551" stroke-width="4"><path d="m40 40 8 48h32l8-48z" fill="#ffffdf" fill-rule="evenodd"/><path d="m52 40 4 48" fill="none"/><path d="m76 40-4 48" fill="none"/></g><path d="m64 12c-12 4-20 20-32 20v8h64v-8c-12 0-20-16-32-20zm-16 76v8l10 4v27.711c1.9766 0.18389 3.9754 0.28906 6 0.28906s4.0234-0.10517 6-0.28906v-27.711l10-4v-8z" fill="#555" fill-rule="evenodd"/></g></svg>
