<svg version="1.1" viewBox="0 0 128 128" xml:space="preserve" xmlns="http://www.w3.org/2000/svg"><g transform="matrix(1.7363 0 0 1.7363 -44.778 -47.227)"><g transform="matrix(6,0,0,6,16,-6215.2)"><path transform="matrix(.13043 0 0 .13043 -.57497 1038)" d="m25.706 108.77h76.664" fill="none" stroke="#c87137" stroke-width="7.6667" style="mix-blend-mode:color-burn"/><rect x="4.2728" y="1040.9" width="7" height="11" fill="#aaa" stroke="#333"/><path d="m2.773 1051.9h9.9996" fill="none" stroke="#c87137"/></g></g><g transform="matrix(1.8657 0 0 1.8657 -65.977 -20.505)"><path d="m61.864 31.913c-4.8396 0.80277-5.5673 3.6195-5.5965 3.7363 2.4452 10.56 14.943 20.672 22.473 23.028 2.3032-0.02452 4.2192-5.2191 4.3269-5.8141-0.88302-1.7409-4.6383-4.471-6.582-4.3269-1.3041 1.1136-3.1054 2.3007-3.8826 2.4232-5.2106-2.5479-8.12-7.4362-8.2299-8.3637-0.06387-0.52116 2.7414-2.9351 2.6225-4.1909-1.1384-2.8646-3.0242-5.3789-5.1315-6.4916z" fill="#fc0" stroke-width=".31395"/></g></svg>
