<svg version="1.1" viewBox="0 0 128 128" xml:space="preserve" xmlns="http://www.w3.org/2000/svg"><g transform="matrix(1.7363 0 0 1.7363 -44.778 -47.227)"><g transform="matrix(6,0,0,6,16,-6215.2)"><path transform="matrix(.13043 0 0 .13043 -.57497 1038)" d="m25.706 108.77h76.664" fill="none" stroke="#c87137" stroke-width="7.6667" style="mix-blend-mode:color-burn"/><rect x="4.2728" y="1040.9" width="7" height="11" fill="#aaa" stroke="#333"/><path d="m2.773 1051.9h9.9996" fill="none" stroke="#c87137"/></g></g><g transform="matrix(.78034 0 0 .78034 13.985 17.168)"><g transform="matrix(1.659,0,0,1.659,-49.861,-76.632)"><path d="m88 92c0 10.665-8.6459 19.311-19.311 19.311-10.665 0-19.311-8.6459-19.311-19.311 0-10.109 19.201-33.475 19.201-38.576 0 4.9282 19.42 27.947 19.42 38.576z" fill="#3581c8" stroke-width="1.4038"/><path d="m69.247 60.906c4.7413 10.081 23.201 27.001 9.8651 29.912-13.336 2.9115-9.2312-21.652-9.8651-29.912z" fill="#529add" stroke-width="1.4038"/><path d="m68.58 53.424c2.6783 23.584-9.5687 57.459 2.2166 57.712 9.1664-0.52951 17.204-8.7316 17.204-19.136-0.53372-11.421-13.523-24.535-19.42-38.576z" fill="#529add" fill-opacity=".6129" stroke-width="1.7838"/><path d="m70.024 62.492c4.7413 10.081 15.831 21.122 7.8471 22.104s-7.2133-13.843-7.8471-22.104z" fill="#87bce1" stroke-width="1.4038"/><path d="m57.296 80.816c-13.197 14.858-0.4695 27.086 8.8063 28.007-3.9351-3.0862-13.66-10.301-8.8063-28.007z" fill="#2b68a3" stroke-width="1.4038"/></g></g></svg>
