<?xml version="1.0" encoding="UTF-8"?>
<svg id="Layer_1" xmlns="http://www.w3.org/2000/svg" version="1.1" viewBox="0 0 106 100">
  <g>
    <g>
      <polygon points="30.1 99.5 22.7 86.6 30.1 73.7 45 73.7 52.4 86.6 45 99.5 30.1 99.5"/>
      <path d="M44.7,74.2l7.1,12.4-7.1,12.4h-14.3l-7.1-12.4,7.1-12.4h14.3M45.3,73.2h-15.4l-7.7,13.4,7.7,13.4h15.4l7.7-13.4-7.7-13.4h0Z"/>
    </g>
    <text transform="translate(27.6 95)" style="fill: #fff; font-family: OpenSans, &apos;Open Sans&apos;; font-size: 22px;"><tspan x="0" y="0">M</tspan></text>
    <g>
      <polygon points="61 99.5 53.6 86.6 61 73.7 75.9 73.7 83.3 86.6 75.9 99.5 61 99.5"/>
      <path d="M75.6,74.2l7.1,12.4-7.1,12.4h-14.3l-7.1-12.4,7.1-12.4h14.3M76.2,73.2h-15.4l-7.7,13.4,7.7,13.4h15.4l7.7-13.4-7.7-13.4h0Z"/>
    </g>
    <text transform="translate(60.2 95)" style="fill: #fff; font-family: OpenSans, &apos;Open Sans&apos;; font-size: 22px;"><tspan x="0" y="0">N</tspan></text>
  </g>
  <g id="Ebene_2">
    <g id="Ebene_1-2">
      <path d="M80.9,27.9c0,13.5-9.6,25-22.8,27.4-14.9,2.8-29.6-7.1-32.4-22-1.3-6.9-.3-13.4,3.2-19.5.1-.3.2-.6.1-.9-.3-1.3-.6-2.6-.9-3.9-.1-.4,0-.7.3-1,1.6-1.6,3.2-3.2,4.8-4.8.3-.3.5-.4.9-.2.9.4,1.8.7,2.6,1.1.7.3,1.3.3,2-.1C43.6,1.1,48.9-.3,54.6,0c4.6.2,9.1,1.7,13.1,4.2.4.3.8.3,1.2,0,1-.4,2.1-.8,3.1-1.3.4-.2.6-.1.9.2,1.6,1.7,3.3,3.3,4.9,4.9.2.3.3.6.2.9-.3,1.3-.7,2.7-.9,4,0,.3,0,.7.1,1,2.4,4.3,3.7,8.9,3.6,13.9ZM53.1,4.1c-12.7-.2-23.9,10.2-24,23.7,0,13.2,10.7,23.9,23.8,24,12.8.1,24-10.3,24-23.8,0-13.7-11.2-24.1-23.9-24Z"/>
      <path d="M33.8,27.6c0-4.5,3.5-8.1,8-8.1,0,0,.1,0,.2,0,4.5,0,8.1,3.7,8.1,8.1,0,4.5-3.7,8.1-8.3,8.1-4.5,0-8.1-3.8-8-8.1ZM36.8,27.6c0,2.9,2.3,5.2,5.1,5.2,2.8,0,5.2-2.4,5.2-5.2s-2.4-5.1-5.2-5.1c-2.8,0-5.2,2.3-5.2,5.2,0,0,0,0,0,0h0Z"/>
      <path d="M72.2,27.6c0,4.6-3.6,8.1-8.2,8.1-4.1,0-8-3.2-8-8.1,0-5,4.1-8.2,8.2-8.1,4.5,0,8.1,3.6,8.1,8.1,0,0,0,0,0,0ZM69.2,27.6c0-2.9-2.3-5.2-5.1-5.2,0,0,0,0,0,0-2.8,0-5.2,2.4-5.2,5.2,0,2.8,2.4,5.2,5.1,5.2,2.9,0,5.2-2.3,5.2-5.1Z"/>
      <path d="M52.9,36.7c3.1,0,5.7,2.5,5.7,5.6,0,0,0,0,0,0,0,3-2.4,5.7-5.7,5.7-3.2,0-5.7-2.6-5.7-5.8s2.6-5.7,5.8-5.7ZM52.9,37.7c-2.6,0-4.7,2.1-4.7,4.7s2.1,4.7,4.7,4.7,4.7-2.2,4.7-4.7-2.1-4.7-4.7-4.7h0Z"/>
      <polygon points="55.6 39.7 55 39.3 52.9 41.9 50.9 39.3 50.4 39.6 52.5 42.5 50.3 45.3 50.8 45.7 52.9 43 55 45.8 55.5 45.4 53.3 42.5 55.6 39.7"/>
      <path d="M52.9,7.7c3.1,0,5.7,2.5,5.7,5.6,0,0,0,0,0,0,0,3-2.4,5.7-5.7,5.7-3.2,0-5.7-2.6-5.7-5.8s2.6-5.7,5.8-5.7ZM52.9,8.7c-2.6,0-4.7,2.1-4.7,4.7s2.1,4.7,4.7,4.7,4.7-2.2,4.7-4.7-2.1-4.7-4.7-4.7h0Z"/>
      <polygon points="55.6 10.7 55 10.3 52.9 13 50.9 10.3 50.4 10.7 52.5 13.5 50.3 16.4 50.8 16.8 52.9 14.1 55 16.8 55.5 16.4 53.3 13.5 55.6 10.7"/>
    </g>
  </g>
</svg>
