<?xml version="1.0" encoding="UTF-8"?>
<svg id="Layer_1" xmlns="http://www.w3.org/2000/svg" version="1.1" viewBox="0 0 106 100">
  <g id="Ebene_2">
    <g id="Ebene_1-2">
      <path d="M78.7,17.1C72.7,2.9,56.4-3.8,42.2,2.2c-14.2,6-20.9,22.3-14.9,36.5s22.3,20.9,36.5,14.9c10.3-4.4,17.1-14.5,17.1-25.7,0-3.7-.7-7.4-2.2-10.8ZM56.7,50.6v-3.9c0-.3-.2-.5-.5-.5h-6.2c-.3,0-.5.2-.5.5v3.9c-11-1.8-19.4-11.3-19.4-22.7S38.5,6.9,49.4,5.2v3.9c0,.3.2.5.5.5h6.2c.3,0,.5-.2.5-.5,0,0,0,0,0,0v-3.9c11,1.8,19.4,11.3,19.4,22.7s-8.4,21-19.4,22.7Z"/>
      <circle cx="41.2" cy="27.9" r="4.5"/>
      <circle cx="65" cy="27.9" r="4.5"/>
    </g>
  </g>
</svg>
