<svg width="50mm" height="43mm" version="1.1" viewBox="0 0 50 43" xml:space="preserve" xmlns="http://www.w3.org/2000/svg">
<path d="m10.798824 0h26.985433c9.245277 0.03709 12.112935 11.234187 12.112956 18.057813 1.17e-4 13.778926-11.169939 24.948981-24.948865 24.948864-13.778724-1.69e-4 -24.948465-11.17014-24.948348-24.948864-1.1299728e-4 -6.823549 3.5244269-18.020636 10.798824-18.057813zm6.564974 4.7444129c-2.208948 1.35e-4 -3.999621 1.790808-3.999756 3.999756-1.51e-4 2.2091501 1.790606 4.0001381 3.999756 4.0002731 2.209352 1.5e-4 4.000424-1.790921 4.000273-4.0002731-1.35e-4 -2.20915-1.791123-3.999906-4.000273-3.999756zm15.17065 0.157097c-2.208949 1.35e-4 -3.999621 1.790807-3.999756 3.999756-1.5e-4 2.2091501 1.790606 4.0001371 3.999756 4.0002721 2.209351 1.5e-4 4.000423-1.790921 4.000273-4.0002721-1.35e-4 -2.20915-1.791123-3.999906-4.000273-3.999756zm-15.17065 2.343009c0.828355-9.2e-5 1.499974 0.671295 1.500167 1.49965 9.2e-5 0.828557-0.67161 1.5002591-1.500167 1.5001671-0.828356-1.93e-4 -1.499742-0.6718111-1.49965-1.5001671 1.93e-4 -0.828154 0.671496-1.499457 1.49965-1.49965zm15.17065 0.157096c0.828356-9.2e-5 1.499974 0.671295 1.500167 1.499651 9.2e-5 0.828558-0.671609 1.5002581-1.500167 1.5001661-0.828356-1.93e-4 -1.499742-0.6718101-1.49965-1.5001661 1.93e-4 -0.828154 0.671496-1.499458 1.49965-1.499651zm-22.819279 5.6523691c-3.313826-8.4e-5 -6.000233 2.686324-6.00015 6.00015 2.02e-4 3.313625 2.686525 5.999718 6.00015 5.999634 3.3134231-2.02e-4 5.9994321-2.686211 5.9996341-5.999634 8.3e-5 -3.313624-2.68601-5.999948-5.9996341-6.00015zm15.051278 0c-3.313826-8.3e-5 -6.000234 2.686324-6.000151 6.00015 2.02e-4 3.313625 2.686526 5.999717 6.000151 5.999634 3.313422-2.03e-4 5.999432-2.686212 5.999634-5.999634 8.3e-5 -3.313624-2.68601-5.999947-5.999634-6.00015zm15.416113 0c-3.313826-8.3e-5 -6.000233 2.686324-6.00015 6.00015 2.02e-4 3.313625 2.686525 5.999717 6.00015 5.999634 3.313423-2.02e-4 5.999432-2.686211 5.999634-5.999634 8.3e-5 -3.313624-2.68601-5.999948-5.999634-6.00015zm-30.467391 2.999817c1.6569131 1.01e-4 3.0000011 1.34342 2.9998171 3.000333-1.01e-4 1.656711-1.343106 2.999716-2.9998171 2.999817-1.656913 1.84e-4 -3.000232-1.342904-3.000333-2.999817-1.84e-4 -1.657115 1.343218-3.000518 3.000333-3.000333zm15.051278 0c1.656912 1.02e-4 3.000001 1.343421 2.999817 3.000333-1.01e-4 1.656711-1.343106 2.999715-2.999817 2.999817-1.656913 1.84e-4 -3.000233-1.342904-3.000334-2.999817-1.84e-4 -1.657115 1.343219-3.000518 3.000334-3.000333zm15.416113 0c1.656913 1.01e-4 3.000001 1.34342 2.999817 3.000333-1.01e-4 1.656711-1.343106 2.999716-2.999817 2.999817-1.656913 1.84e-4 -3.000232-1.342904-3.000333-2.999817-1.84e-4 -1.657115 1.343218-3.000518 3.000333-3.000333zm-22.905578 10.062434c-3.313826-8.3e-5 -6.000234 2.686325-6.000151 6.000151 2.02e-4 3.313624 2.686527 5.999717 6.000151 5.999634 3.313423-2.02e-4 5.999431-2.686211 5.999633-5.999634 8.3e-5 -3.313624-2.686009-5.999949-5.999633-6.000151zm14.90555 0.145728c-3.313826-8.3e-5 -6.000234 2.686325-6.000151 6.000151 2.02e-4 3.313624 2.686527 5.999716 6.000151 5.999633 3.313423-2.02e-4 5.999432-2.68621 5.999634-5.999633 8.3e-5 -3.313625-2.686009-5.999949-5.999634-6.000151zm-14.90555 2.854089c1.656913 1.01e-4 3.000001 1.343421 2.999817 3.000334-1.01e-4 1.656711-1.343106 2.999716-2.999817 2.999817-1.656913 1.84e-4 -3.000233-1.342904-3.000334-2.999817-1.84e-4 -1.657114 1.34322-3.000518 3.000334-3.000334zm14.90555 0.145728c1.656913 1.01e-4 3.000001 1.343421 2.999817 3.000334-1.01e-4 1.656711-1.343106 2.999715-2.999817 2.999816-1.656913 1.84e-4 -3.000233-1.342903-3.000334-2.999816-1.85e-4 -1.657115 1.343219-3.000518 3.000334-3.000334z"/>
</svg>
