<?xml version="1.0" encoding="UTF-8"?>
<svg id="Layer_1" xmlns="http://www.w3.org/2000/svg" version="1.1" viewBox="0 0 106 100">
  <polygon points="79.2 4.5 26.8 4.5 .5 50 26.8 95.5 79.2 95.5 105.5 50 79.2 4.5"/>
  <g style="isolation: isolate;">
    <g style="isolation: isolate;">
      <g style="isolation: isolate;">
        <path d="M54.1,27.7c-5.9,0-10.6,2-14.1,5.9s-5.2,9.4-5.2,16.2,1.7,12.5,5,16.4c3.3,3.9,8,5.8,14.2,5.8s8.1-.7,12.9-2v5.5c-3.7,1.4-8.4,2.1-13.9,2.1-8,0-14.1-2.4-18.4-7.2-4.3-4.8-6.5-11.7-6.5-20.6s1-10.4,3.1-14.6c2.1-4.2,5.1-7.4,9-9.7,3.9-2.3,8.6-3.4,13.9-3.4s10.6,1,14.9,3.1l-2.7,5.4c-4.1-1.9-8.2-2.9-12.3-2.9Z" style="fill: #fff;"/>
      </g>
    </g>
  </g>
</svg>
