<?xml version="1.0" encoding="UTF-8"?>
<svg id="Layer_1" xmlns="http://www.w3.org/2000/svg" version="1.1" viewBox="0 0 106 100">
  <g>
    <polygon points="27.9 93.4 2.9 50 27.9 6.6 78.1 6.6 103.1 50 78.1 93.4 27.9 93.4" style="fill: #fff;"/>
    <path d="M76.6,9.1l23.6,40.9-23.6,40.9H29.4L5.8,50,29.4,9.1h47.2M79.5,4.1H26.5L0,50l26.5,45.9h53l26.5-45.9L79.5,4.1h0Z"/>
  </g>
  <g style="isolation: isolate;">
    <g style="isolation: isolate;">
      <g style="isolation: isolate;">
        <path d="M58.5,27.8c-5.9,0-10.6,2-14.1,5.9s-5.2,9.4-5.2,16.2,1.7,12.5,5,16.4c3.3,3.9,8,5.8,14.2,5.8s8.1-.7,12.9-2v5.5c-3.7,1.4-8.4,2.1-13.9,2.1-8,0-14.1-2.4-18.4-7.2-4.3-4.8-6.5-11.7-6.5-20.6s1-10.4,3.1-14.6c2.1-4.2,5.1-7.4,9-9.7,3.9-2.3,8.6-3.4,13.9-3.4s10.6,1,14.9,3.1l-2.7,5.4c-4.1-1.9-8.2-2.9-12.3-2.9Z"/>
      </g>
    </g>
  </g>
</svg>
