<?xml version="1.0" encoding="UTF-8"?>
<svg id="Layer_1" xmlns="http://www.w3.org/2000/svg" version="1.1" viewBox="0 0 106 100">
  <g>
    <polygon points="45.6 99.5 38.1 86.6 45.6 73.7 60.4 73.7 67.9 86.6 60.4 99.5 45.6 99.5"/>
    <path d="M60.1,74.2l7.1,12.4-7.1,12.4h-14.3l-7.1-12.4,7.1-12.4h14.3M60.7,73.2h-15.4l-7.7,13.4,7.7,13.4h15.4l7.7-13.4-7.7-13.4h0Z"/>
  </g>
  <text transform="translate(46.1 95)" style="fill: #fff; font-family: OpenSans, &apos;Open Sans&apos;; font-size: 22px;"><tspan x="0" y="0">C</tspan></text>
  <g id="Ebene_2">
    <g id="Ebene_1-2">
      <path d="M53,0h14c1.6,0,3.1.3,4.6.9,1.8.7,3,2.1,4.1,3.6,3,4.1,4.7,9,5.1,14.1,1.2,13.6-8.1,26.3-21.4,29.3-14.7,3.3-29.1-5.1-33.1-19.6-2.6-9.5-.7-18.1,5.6-25.7,1.2-1.4,2.9-2.1,4.7-2.4,1-.2,2-.3,3.1-.3,4.5,0,8.9,0,13.4,0ZM39.6,4.1c-2,.3-3.9,1-5.2,2.7-4.4,5.9-5.9,12.5-4.3,19.6,2.8,12.4,15,20.2,27.5,17.8,10.4-2,18.3-11,18.9-21.5.3-5.3-1-10.3-4-14.7-1.8-2.7-4.3-3.9-7.5-3.9-4,0-8,0-12,0h-13.5Z"/>
      <path d="M39.8,27.9c-2.9,0-5.3-2.5-5.2-5.4,0-2.9,2.4-5.2,5.2-5.2,2.9,0,5.3,2.3,5.4,5.2s-2.3,5.3-5.2,5.4c0,0-.1,0-.2,0ZM39.8,19.2c-1.9,0-3.4,1.5-3.4,3.3,0,0,0,0,0,0,0,1.8,1.5,3.3,3.4,3.4,1.9,0,3.4-1.5,3.4-3.4,0,0,0,0,0,0,0-1.8-1.4-3.3-3.2-3.4,0,0,0,0-.1,0h0Z"/>
      <path d="M58.3,22.6c0,2.9-2.3,5.2-5.2,5.3,0,0,0,0-.1,0-2.9,0-5.3-2.4-5.3-5.3,0-2.9,2.4-5.3,5.3-5.3,2.9,0,5.3,2.4,5.3,5.3,0,0,0,0,0,0ZM53,19.2c-1.9,0-3.4,1.5-3.4,3.4,0,1.9,1.5,3.4,3.4,3.4,0,0,0,0,0,0,1.9,0,3.4-1.5,3.4-3.4,0-1.9-1.5-3.3-3.4-3.3h0Z"/>
      <path d="M66.2,27.9c-2.9,0-5.3-2.3-5.3-5.2,0,0,0,0,0,0,0-3,2.3-5.4,5.2-5.4,2.9,0,5.3,2.3,5.4,5.2,0,0,0,0,0,0,0,3-2.3,5.4-5.3,5.4ZM66.2,19.2c-1.9,0-3.4,1.5-3.4,3.4,0,1.8,1.6,3.4,3.4,3.4,1.8,0,3.4-1.6,3.4-3.4,0-1.8-1.5-3.4-3.4-3.4Z"/>
      <path d="M46.4,39.7c-2.8,0-5.1-2.2-5.1-5,0,0,0-.1,0-.2,0-2.8,2.3-5.2,5.2-5.2,2.8,0,5.2,2.4,5.2,5.2,0,2.8-2.3,5.1-5.2,5.1,0,0,0,0,0,0ZM49.7,34.5c0-1.8-1.4-3.2-3.2-3.2,0,0,0,0,0,0-1.8,0-3.2,1.5-3.3,3.3,0,1.8,1.5,3.2,3.3,3.3,1.8,0,3.3-1.5,3.3-3.3,0,0,0,0,0,0Z"/>
      <path d="M59.6,39.7c-2.8,0-5.1-2.2-5.2-5,0,0,0-.1,0-.2,0-2.9,2.3-5.2,5.2-5.2s5.2,2.3,5.2,5.2c0,2.8-2.2,5.1-5,5.2,0,0,0,0-.1,0ZM59.6,31.2c-1.8,0-3.3,1.4-3.3,3.2,0,1.7,1.5,3.3,3.3,3.3,1.8,0,3.2-1.5,3.3-3.3,0-1.8-1.5-3.2-3.3-3.3Z"/>
      <path d="M50.2,12.8c0,2.1-1.7,3.8-3.8,3.8-2.1,0-3.8-1.7-3.8-3.8h0c0-2.1,1.8-3.8,3.8-3.8,2.1,0,3.7,1.7,3.8,3.8ZM49.1,12.9c0-1.5-1.1-2.7-2.6-2.8-1.5,0-2.7,1.1-2.8,2.6s1.1,2.7,2.6,2.8c0,0,0,0,0,0,1.5,0,2.7-1.1,2.7-2.6Z"/>
      <path d="M55.8,12.8c0-2.1,1.7-3.7,3.8-3.7,2.1,0,3.7,1.7,3.7,3.8,0,2-1.7,3.7-3.7,3.7-2.1,0-3.8-1.7-3.8-3.8ZM59.5,15.5c1.5,0,2.7-1.2,2.7-2.6,0-1.4-1.2-2.7-2.6-2.7-1.5,0-2.7,1.1-2.7,2.6,0,1.5,1.1,2.7,2.6,2.7h0Z"/>
    </g>
  </g>
</svg>
