<?xml version="1.0" encoding="UTF-8"?>
<svg id="Layer_1" xmlns="http://www.w3.org/2000/svg" version="1.1" viewBox="0 0 106 100">
  <g>
    <polygon points="74.9 73.2 59.4 73.2 51.7 86.6 59.4 100 74.9 100 82.6 86.6 74.9 73.2"/>
    <g style="isolation: isolate;">
      <text transform="translate(60.2 95)" style="fill: #fff; font-family: OpenSans, &apos;Open Sans&apos;; font-size: 22px; isolation: isolate;"><tspan x="0" y="0">L</tspan></text>
    </g>
  </g>
  <g>
    <polygon points="44 73.2 28.5 73.2 20.8 86.6 28.5 100 44 100 51.7 86.6 44 73.2"/>
    <g style="isolation: isolate;">
      <text transform="translate(29.3 95)" style="fill: #fff; font-family: OpenSans, &apos;Open Sans&apos;; font-size: 22px; isolation: isolate;"><tspan x="0" y="0">K</tspan></text>
    </g>
  </g>
  <g id="Ebene_2">
    <g id="Ebene_1-2">
      <path d="M39.8,27.9c-2.9,0-5.3-2.5-5.2-5.4,0-2.9,2.4-5.2,5.2-5.2s5.3,2.3,5.4,5.2-2.3,5.3-5.2,5.4h-.2ZM39.8,19.2c-1.9,0-3.4,1.5-3.4,3.3h0c0,1.8,1.5,3.3,3.4,3.4,1.9,0,3.4-1.5,3.4-3.4h0c0-1.8-1.4-3.3-3.2-3.4h-.2Z"/>
      <path d="M58.3,22.6c0,2.9-2.3,5.2-5.2,5.3h0c-2.9,0-5.3-2.4-5.3-5.3s2.4-5.3,5.3-5.3,5.3,2.4,5.3,5.3h0ZM53,19.2c-1.9,0-3.4,1.5-3.4,3.4s1.5,3.4,3.4,3.4h0c1.9,0,3.4-1.5,3.4-3.4s-1.5-3.3-3.4-3.3h0Z"/>
      <path d="M66.2,27.9c-2.9,0-5.3-2.3-5.3-5.2h0c0-3,2.3-5.4,5.2-5.4s5.3,2.3,5.4,5.2h0c0,3-2.3,5.4-5.3,5.4ZM66.2,19.2c-1.9,0-3.4,1.5-3.4,3.4s1.6,3.4,3.4,3.4,3.4-1.6,3.4-3.4-1.5-3.4-3.4-3.4Z"/>
      <path d="M46.4,39.7c-2.8,0-5.1-2.2-5.1-5v-.2c0-2.8,2.3-5.2,5.2-5.2s5.2,2.4,5.2,5.2-2.3,5.1-5.2,5.1h-.1ZM49.7,34.5c0-1.8-1.4-3.2-3.2-3.2h0c-1.8,0-3.2,1.5-3.3,3.3,0,1.8,1.5,3.2,3.3,3.3,1.8,0,3.3-1.5,3.3-3.3h0Z"/>
      <path d="M59.6,39.7c-2.8,0-5.1-2.2-5.2-5v-.2c0-2.9,2.3-5.2,5.2-5.2s5.2,2.3,5.2,5.2-2.2,5.1-5,5.2h-.2ZM59.6,31.3c-1.8,0-3.3,1.4-3.3,3.2s1.5,3.3,3.3,3.3,3.2-1.5,3.3-3.3c0-1.8-1.5-3.2-3.3-3.3h0Z"/>
      <path d="M50.2,12.8c0,2.1-1.7,3.8-3.8,3.8s-3.8-1.7-3.8-3.8h0c0-2.1,1.8-3.8,3.8-3.8s3.7,1.7,3.8,3.8ZM49.1,12.9c0-1.5-1.1-2.7-2.6-2.8-1.5,0-2.7,1.1-2.8,2.6s1.1,2.7,2.6,2.8h0c1.5,0,2.7-1.1,2.7-2.6h0Z"/>
      <path d="M55.8,12.8c0-2.1,1.7-3.7,3.8-3.7s3.7,1.7,3.7,3.8-1.7,3.7-3.7,3.7-3.8-1.7-3.8-3.8ZM59.5,15.5c1.5,0,2.7-1.2,2.7-2.6s-1.2-2.7-2.6-2.7-2.7,1.1-2.7,2.6,1.1,2.7,2.6,2.7h0Z"/>
      <path d="M69.4,46.4h-5.3c10.7-4.6,17.7-15.9,16.7-27.8-.4-5.1-2.2-9.9-5.1-14.1-1.1-1.5-2.3-2.9-4.1-3.6C70.2.3,68.6,0,67,0h-27.4C38.6,0,37.6.1,36.5.3c-1.8.4-3.6,1-4.7,2.4-6.3,7.6-8.2,16.2-5.6,25.7,2.2,8.1,8,14.7,15.7,18h-5.4c-6,0-10.9,4.9-10.9,10.9v5c0,6,4.9,10.9,10.9,10.9h32.9c6,0,10.9-4.9,10.9-10.9v-5c0-6-4.9-10.9-10.9-10.9ZM30.1,26.4c-1.6-7.2-.1-13.8,4.3-19.6,1.3-1.7,3.2-2.4,5.2-2.7.7,0,1.4,0,2.1,0h23.4c3.2,0,5.7,1.2,7.5,3.9,2.9,4.5,4.3,9.4,4,14.7-.6,10.5-8.6,19.5-18.9,21.5-12.5,2.4-24.7-5.4-27.5-17.8h0ZM75.9,61.7c0,4.4-3.5,7.9-7.9,7.9h-30c-4.4,0-7.9-3.5-7.9-7.9v-3.8c0-4.4,3.5-7.9,7.9-7.9h30c4.4,0,7.9,3.5,7.9,7.9v3.8Z"/>
      <path d="M63.9,66.3c-3.4,0-6.8-2.6-6.9-6.8,0-3.8,3.1-6.9,6.9-6.9s6.9,3.1,6.9,6.9-3.1,6.8-6.9,6.9h0ZM68.7,59.5c0-2.6-2.1-4.8-4.7-4.8s-4.9,2.1-4.9,4.8,2.3,4.9,4.9,4.8c2.6,0,4.8-2.2,4.8-4.8h0Z"/>
      <path d="M49,59.5c0,3.9-3,6.8-6.9,6.8s-6.8-3-6.8-6.8h0c0-3.8,3.1-6.8,7-6.8s6.7,3.1,6.7,6.9h0ZM37.3,59.5c0,2.6,2.2,4.9,4.8,4.8s4.8-2.3,4.8-4.8-2.2-4.8-4.9-4.8-4.8,2-4.8,4.6v.2h.1Z"/>
    </g>
  </g>
</svg>
