<?xml version="1.0" encoding="UTF-8"?>
<!-- Created with Inkscape (http://www.inkscape.org/) -->
<svg width="128" height="128" version="1.1" viewBox="0 0 128 128" xml:space="preserve" xmlns="http://www.w3.org/2000/svg"><path d="m16 0v32l16 16v32l-16 16v32h96v-32l-16-16v-32l16-16v-32zm48 38 12 10v32l-12 10-12-10v-32z" fill="#808080"/><g fill="none" stroke-width="2"><path d="m15 0v32l16 16v32l-16 16v32" stroke="#666"/><path d="m13 0v32.8l16 16v30.4l-16 16v32.8" stroke="#999"/><path d="m113 0v32l-16 16v32l16 16v32" stroke="#666"/><path d="m115 0v32.8l-16 16v30.4l16 16v32.8" stroke="#999"/><path d="m64 37.3-12 10.7v32l12 10.6 12-10.6v-32z" stroke="#666"/><path d="m74 48.8v30.4l-10 8.8-10-8.8v-30.4l10-8.8z" stroke="#999"/></g></svg>
