<?xml version="1.0" encoding="UTF-8"?>
<svg version="1.1" viewBox="0 0 128 128" xmlns="http://www.w3.org/2000/svg">
 <path d="m24 120h80v-72h-80z" fill="#deb486"/>
 <rect x="66" y="92" width="20" height="28" fill="#c08268" style="paint-order:stroke markers fill"/>
 <path d="m16 72 8-32h80l8 32z" fill="#c84747"/>
 <path d="m61.716 112 22.627-22.627 5.6569 5.6569-22.627 22.627z" fill="#6f563a"/>
 <path d="m67.373 89.373 22.627 22.627-5.6569 5.6568-22.627-22.627z" fill="#6f563a"/>
 <path d="m109.86 118.03-8.2822-30.91-7.7274 2.0706 8.2822 30.91z" fill="#6f563a"/>
 <path d="m122.93 115.71-16-27.713-6.9282 4 16 27.713z" fill="#6f563a"/>
 <path d="m14 119c-8.0966-9.5929 7.5341-39.492 18.769-22.817 5.2714 7.8239-6.0931 22.071-9.4752 17.416-14.358-19.766 35.421-8.3831 22.707 3.4017-5.0563 4.6866-17.833-2.6794-4-8s26.106 12.268 10 13" fill="none" stroke="#5e5e5e" stroke-width="4"/>
</svg>
