<?xml version="1.0" encoding="UTF-8"?>
<svg version="1.1" viewBox="0 0 128 128" xmlns="http://www.w3.org/2000/svg">
 <rect x="22" y="52" width="84" height="48" fill="#959595" style="paint-order:normal"/>
 <rect x="18" y="52" width="12" height="48" fill="#d9d9d9" style="paint-order:stroke markers fill"/>
 <rect x="12" y="100" width="104" height="8" fill="#b9b9b9" style="paint-order:stroke markers fill"/>
 <rect x="8" y="108" width="112" height="8" fill="#aaa" style="paint-order:stroke markers fill"/>
 <path d="m20.609 56.783v35.217h11.739v-35.217z" fill-opacity="0"/>
 <path d="m95.739 56.783v35.217h11.739v-35.217z" fill-opacity="0"/>
 <path d="m44.087 56.783v35.217h11.739v-35.217z" fill-opacity="0"/>
 <path d="m72.261 56.783v35.217h11.739v-35.217z" fill-opacity="0"/>
 <rect x="12" y="44" width="104" height="8" fill="#b9b9b9" style="paint-order:stroke markers fill"/>
 <path d="m12 36v8h104v-8l-52-24z" fill="#d9d9d9" stroke="#aeaeae" stroke-width="7.0435"/>
 <rect x="98" y="52" width="12" height="48" fill="#d9d9d9" style="paint-order:stroke markers fill"/>
 <rect x="78" y="52" width="12" height="48" fill="#d9d9d9" style="paint-order:stroke markers fill"/>
 <rect x="38" y="52" width="12" height="48" fill="#d9d9d9" style="paint-order:stroke markers fill"/>
 <path d="m64 68c-4.4183 0-8 3.5817-8 8v24h16v-24c0-4.4183-3.5817-8-8-8z" fill="#58595b" style="paint-order:normal"/>
 <rect x="18" y="52" width="92" height="4" fill-opacity=".2" style="paint-order:normal"/>
</svg>
