<?xml version="1.0" encoding="UTF-8"?>
<svg version="1.1" viewBox="0 0 128 128" xmlns="http://www.w3.org/2000/svg">
 <g id="ferry" transform="translate(-1207.3 -392.03)">
  <path d="m1227.3 476.03c1.589 2.4308 2.4111 8.8461 3.8866 10.202 15.776 14.478 88.788 5.7696 88.788 5.7696s1.8998-9.3033 3.3249-15.971z" fill="#c84747"/>
  <path d="m1207.3 488.03v32l128 1e-5v-32c-10.015-1.9691-23.912-1.179-33.849 0.39845-10.142 1.6102-21.613 2.1684-29.667 0-17.977-4.8401-22.904 1.9424-29.667 0-5.6591-1.6254-14.602-9.3254-17.142-0.42704z" fill="#529add" stroke-width=".2"/>
  <path d="m1229.7 488.13c-1.0381 0.0297-1.9744 0.34971-2.7598 1.0742 1.4799 2.0746 3.2255 4.0511 4.4942 5.2168 15.776 14.478 60.684 8.952 75.885 5.6061s13.957-3.4633 15.119-8.399c-6.93-0.46519-13.79 0.0364-20.758 1.1426-10.142 1.6102-21.614 2.1684-29.668 0-17.977-4.8401-22.903 1.9424-29.666 0-3.7138-1.0666-8.842-4.7496-12.646-4.6406z" fill-opacity=".13333"/>
 </g>
 <g transform="matrix(2.6166 0 0 2.6166 24 -687.59)">
  <path d="m4.5861 294.88h25.988v-15.287l-13.758-9.1722-12.23 9.1722z" fill="#deb486"/>
  <rect x="6.1148" y="265.84" width="6.1148" height="9.1722" fill="#deb486" style="paint-order:stroke markers fill"/>
  <path d="m1.5287 281.12 15.287-13.758 16.816 13.758" fill="none" stroke="#c84747" stroke-width="4.5861"/>
  <rect x="18.344" y="282.65" width="6.1148" height="12.23" fill="#c08268" style="paint-order:stroke markers fill"/>
  <rect x="7.6435" y="284.18" width="7.6435" height="6.1148" fill="#95685e" style="paint-order:stroke markers fill"/>
  <rect x="7.6435" y="282.65" width="7.6435" height="1.5287" fill="#c08268" style="paint-order:stroke markers fill"/>
 </g>
</svg>
