<?xml version="1.0" encoding="UTF-8"?>
<svg version="1.1" viewBox="0 0 128 128" xmlns="http://www.w3.org/2000/svg">
 <g transform="matrix(3.5629 0 0 3.5629 4.4542 -448.89)">
  <rect x="3.175" y="143.54" width="12.7" height="12.7" fill="#c1c7ff" stroke="#5961b6" stroke-linecap="round" stroke-linejoin="round" stroke-width="1.5875" style="paint-order:fill markers stroke"/>
  <path d="m5.542 153.2c0.8116-0.12765 1.0578-0.62848 1.0666-1.3243l0.049616-3.904c0.01093-0.85997-0.33532-1.1253-1.0666-1.3171l0.032459-1.2511c2.3577-0.14331 7.3308-0.64201 7.187 2.1046-0.06069 1.1592-0.23018 1.802-1.2352 2.0583 1.2011 0.16715 1.8842 1.0117 1.8937 2.2224 0.0268 3.3937-5.1482 2.6128-7.8599 2.6128zm5.0643-5.4414c0.01042-1.274-0.93661-1.0414-1.9509-1.0414l-0.024808 2.3467c1.3038 0.11176 1.9653-0.0313 1.9757-1.3053zm0.66573 4.1375c-0.0075-1.391-1.4194-1.4766-2.6166-1.4766-0.00498 1.0472-0.081289 1.7464 0.10404 2.7141 1.3525 0.0768 2.5201 0.15346 2.5126-1.2375z" fill="#5961b6"/>
 </g>
 <g transform="matrix(3.5671 0 0 3.5671 2.519 -456.88)">
  <rect x="17.992" y="145.66" width="12.7" height="12.7" fill="#d5f7c9" stroke="#468e2d" stroke-linecap="round" stroke-linejoin="round" stroke-width="1.5875" style="paint-order:fill markers stroke"/>
  <path d="m20.531 152.17c-0.0074-2.5821 2.5455-4.4382 4.0748-4.6632s2.8739 0.25329 3.7499 0.61531l-0.17729 2.3457-1.224-0.057c-0.10654-1.3828-1.124-1.6377-2.1002-1.4644s-1.7681 1.7501-1.8085 2.8282c-0.04042 1.0781 0.53374 3.0841 1.9451 3.145 1.4114 0.0609 2.0064-0.46546 2.658-0.95713l0.51939 1.2352c-0.96622 0.87029-1.6453 1.2971-3.5623 1.305-1.917 8e-3 -4.0674-1.7505-4.0748-4.3326z" fill="#468e2d"/>
 </g>
 <g transform="matrix(3.5693 0 0 3.5693 1.9006 -451.62)">
  <rect x="9.525" y="129.78" width="12.7" height="12.7" fill="#ffc1c1" stroke="#c84747" stroke-linecap="round" stroke-linejoin="round" stroke-width="1.5875" style="paint-order:fill markers stroke"/>
  <path d="m20.401 139.67-0.02773 0.95951-3.5851 5e-3 -0.05546-0.9547c1.4031-0.33853 0.45127-1.2806 0.11986-2.2251h-2.2336c-0.37842 1.0349-1.2999 1.9537-0.02827 2.2994l-0.05546 0.88041-3.1579-5e-3 0.0218-0.95174c1.8926-1.309 2.2077-5.5609 3.113-7.8264h2.8017c1.1532 1.8434 1.1375 7.0029 3.0871 7.8186zm-3.8742-3.1438c-0.23297-1.0331 0.03747-2.0976-0.77147-2.9481-0.54096 0.90853-0.57646 1.9153-0.78971 2.9481z" fill="#c84747"/>
 </g>
</svg>
