<?xml version="1.0" encoding="UTF-8"?>
<svg version="1.1" viewBox="0 0 128 128" xmlns="http://www.w3.org/2000/svg">
 <path d="m19.594 112h88.406v-52.004l-46.803-31.202-41.603 31.202z" fill="#deb486"/>
 <path d="m9.193 65.197 52.004-46.803 57.204 46.803" fill="none" stroke="#c84747" stroke-width="15.601"/>
 <path d="m69 62c-0.01228-3.8114-1.4808-6.9591-5-7-5.1542 0.0098-5.694 1.7921-6.7501 6.3334l-8.4445-0.07321-0.66667-9.125c4.0261-3.4364 12.358-5.6538 17.57-5.6768 11.262 1.5431 19.767 12.461 14.361 21.657-6.5898 11.546-13.852 4.7344-14.07 17.885l-9.7476 1.8749c-0.85843-4.6087-3.2323-10.027-0.10304-14.355 3.1293-4.3281 12.811-4.7224 12.851-11.52zm-7.5834 42.583c-2.7392-1.9749-5.0887-4.2681-6.9167-6.875 1.9978-2.734 4.3013-5.0827 6.9167-6.9167 2.6945 2.0402 5.0866 4.3079 6.9167 6.9167-2.0048 2.7226-4.3385 5.0132-6.9167 6.875z" fill="#fff"/>
</svg>
