<?xml version="1.0" encoding="UTF-8"?>
<svg version="1.1" viewBox="0 0 128 128" xmlns="http://www.w3.org/2000/svg">
 <rect x="16" y="28" width="96" height="64" fill="#4d793e" stroke="#c08268" stroke-linecap="round" stroke-linejoin="round" stroke-width="8" style="paint-order:fill markers stroke"/>
 <path d="m49.593 77.011c-4.0144 1.6035-20.21 2.2121-20.478-2.9631 2.8296-6.801 14.447-9.97 14.566-20.089-1.1772-13.202-11.235 5.0303-12.363-4.2627 0.49897-5.1627 7.3432-6.6318 10.794-6.6729 4.8906 0 7.1592 4.4796 7.1592 10.964 0 7.0469-3.2724 12.982-11.585 18.514 5.5716 1.4017 8.4751-2.132 13.319-3.2579 4.1934 1.5378 0.38253 6.9857-1.413 7.7678z" fill="#fff"/>
 <path d="m65.701 72.782c-3.2209-1.7868-2.0139-6.3875-1.836-9.6719-2.1502-0.43-8.3691 0.17348-8.4531-2.6563 1.4698-3.3152 5.9361-2.1758 8.6563-1.8828 0.41537-2.2097 0.36132-8.581 3.2968-8.6641 3.2323 1.4457 2.1436 6.1045 2.0469 9.1797 2.8566 0.54588 6.9701 0.86358 6.8162 3.8084-0.15383 2.9448-5.5865 0.61742-7.3246 1.328-0.98816 2.5872-0.23773 8.4697-3.2025 8.5588z" fill="#fff"/>
 <path d="m97.389 74.852c-6.0378 5.0795-20.007 0.81298-17.367-4.3672 0.48438-0.51564 1.4688-1.7734 2.2031-1.7734 14.88 8.62 17.936-6.7876 5.4844-8.1094-4.9059-0.09184-4.5756-5.3343-0.51564-5.3828 8.8529 2.0227 8.3437-7.1027 2.7656-7.2031-2.0727 0.31597-8.6987 2.7124-6.5-2.2969 12.088-10.084 20.73 7.5857 12.234 12.586 6.6771 4.0387 6.4853 12.234 1.6953 16.547z" fill="#fff"/>
 <path d="m39.459 113.72 8-20" fill="none" stroke="#c08268" stroke-linecap="round" stroke-width="12"/>
 <path d="m87.459 113.72-8-20" fill="none" stroke="#c08268" stroke-linecap="round" stroke-width="12"/>
</svg>
