<?xml version="1.0" encoding="UTF-8"?>
<svg version="1.1" viewBox="0 0 128 128" xmlns="http://www.w3.org/2000/svg">
 <path d="m64 8c4e-5 0-24 4-32 12v92h63.998l2e-3 -92c-8-8-32-12-32-12z" fill="#9c9c9c" style="paint-order:markers fill stroke"/>
 <path d="m64 8c-1e-5 1.4e-4 -15.2 5.8636-24 12v92h48l-1e-5 -92c-8-8-24-12-24-12z" fill="#aaa" style="paint-order:markers fill stroke"/>
 <path d="m64 8 12 12v92h-24v-92z" fill="#c6c6c6"/>
 <rect x="28" y="112" width="72" height="8" fill="#b75858" style="paint-order:markers fill stroke"/>
 <rect x="28" y="20" width="72" height="8" fill="#b75858" style="paint-order:markers fill stroke"/>
 <path d="m42 116v-100" fill="none" stroke="#5c5c5c" stroke-width="6"/>
 <path d="m54 116-3.7e-5 -100" fill="none" stroke="#5c5c5c" stroke-width="6"/>
 <path d="m42 64h12" fill="none" stroke="#5c5c5c" stroke-width="6"/>
 <path d="m42 44h12" fill="none" stroke="#5c5c5c" stroke-width="6"/>
 <path d="m42 24h12" fill="none" stroke="#5c5c5c" stroke-width="6"/>
 <path d="m42 84 12 4e-5" fill="none" stroke="#5c5c5c" stroke-width="6"/>
 <path d="m42 104 12 4e-5" fill="none" stroke="#5c5c5c" stroke-width="6"/>
</svg>
