<?xml version="1.0" encoding="UTF-8"?>
<svg version="1.1" viewBox="0 0 128 128" xmlns="http://www.w3.org/2000/svg">
 <circle cx="63.14" cy="65.721" r="51.623" fill="#dcdcdc" stroke-width=".93147"/>
 <circle cx="58.452" cy="59.855" r="44.104" fill="#f0f0f0" stroke-width=".93147"/>
 <circle cx="50.582" cy="50.767" r="29.856" fill="#fff" stroke-width=".93147"/>
 <path d="m56.945 41.63c-0.17208-5.3343 0.51623-10.152 1.5487-14.454 24.951 0.51623 43.363 12.217 52.483 19.444-0.86038-2.0649-1.8928-4.1298-2.9253-6.1947-10.325-7.2272-27.188-15.831-48.697-16.519 1.2045-4.3019 2.7532-7.5713 3.7857-9.8083h-0.17208c-1.2045 0-2.4091 0-3.6136 0.17208-4.1298 8.9479-11.701 30.974 1.7208 51.623-3.4415 6.883-8.2596 11.873-13.25 15.487-17.208-31.49-9.4641-55.752-6.883-62.291-1.5487 0.6883-2.9253 1.5487-4.3019 2.4091-3.2694 10.152-7.3992 32.866 8.6038 61.775-4.474 2.7532-9.12 4.646-13.422 5.8506-12.045-21.854-11.185-43.707-9.4641-55.236-1.3766 1.7208-2.7532 3.6136-3.9577 5.6785-0.6883 12.561 0.17208 31.318 10.325 50.418-4.3019 1.0325-8.0875 1.3766-10.325 1.5487 0.6883 1.0325 1.2045 2.0649 1.8928 3.0974 9.8083-0.86038 32.694-5.3343 43.879-27.188 7.7434-0.34415 14.454 1.2045 20.133 3.7857-18.584 30.629-43.535 36.136-50.418 36.996 1.3766 0.86038 2.7532 1.7208 4.1298 2.5811 10.325-2.237 32.178-9.9804 49.214-38.373 4.646 2.4091 8.6038 5.5064 11.701 8.6038-12.906 21.337-32.178 31.49-43.191 35.792 2.237 0.34415 4.474 0.51623 6.883 0.51623 11.357-5.3343 27.36-15.659 38.545-33.899 3.0974 3.2694 5.1622 6.1947 6.5389 8.2596 0.6883-1.0325 1.2045-2.0649 1.7208-3.2694-5.6785-8.0875-20.993-25.639-45.428-24.435-4.1298-6.3668-6.1947-13.078-6.883-19.272 35.964 0.6883 52.999 19.444 57.473 25.123 0.17208-1.3766 0.17208-2.7532 0.17208-4.1298v-0.86038c-7.0551-7.9155-24.779-22.714-57.817-23.23" fill="#a7b2b1" stroke-width=".93147"/>
</svg>
