<?xml version="1.0" encoding="UTF-8"?>
<svg version="1.1" viewBox="0 0 128 128" xmlns="http://www.w3.org/2000/svg">
 <path d="m8 120h112" fill="#95685e" stroke="#95685e" stroke-width="10"/>
 <path d="m24 104h80" fill="#95685e" stroke="#95685e" stroke-width="8"/>
 <path d="m36 92h56" fill="none" stroke="#95685e" stroke-width="6"/>
 <path d="m16 128h8l28-40v-4z" fill="#58595b"/>
 <path d="m112 128h-8l-28-40v-4z" fill="#58595b"/>
 <path d="m8 128h8l36-44h-4z" fill="#a7a9ac"/>
 <path d="m120 128h-8l-36-44h4z" fill="#a7a9ac"/>
 <g transform="matrix(4.3375 0 0 4.3375 -584.14 -551.71)">
  <path d="m142.84 149.33c0.90066 1.1222 2.096 1.9954 3.2988 1.9954h6.4072c1.2018 0 2.3981-0.87412 3.2988-1.9954l-2.0411-3.6045c-1.0883 0.0888-2.5217 0.108-4.4612 0.108-1.9743 0-3.4232 0.0211-4.5189-7e-3z" fill="#58595b"/>
  <path d="m150.25 130.27c0 0.50525-0.41006 0.91531-0.91531 0.91531s-0.91531-0.41006-0.91531-0.91531v-0.91531c0-0.50525 0.41006-0.91531 0.91531-0.91531s0.91531 0.41006 0.91531 0.91531z" fill="#414042"/>
  <path d="m153 132.1c0 1.0105-0.82012 1.8306-1.8306 1.8306h-3.6612c-1.0105 0-1.8306-0.82012-1.8306-1.8306s0.82011-1.8306 1.8306-1.8306h3.6612c1.0105 0 1.8306 0.82012 1.8306 1.8306" fill="#6d6e71"/>
  <path d="m157.58 144c0 2.0219-3.123 4.5765-4.9427 4.5765h-6.5902c-1.8196 0-4.9427-2.5546-4.9427-4.5765v-9.1531c0-2.0219 1.4755-3.6612 3.2951-3.6612h9.8853c1.8196 0 3.2951 1.6393 3.2951 3.6612z" fill="#d1d3d4"/>
  <path d="m155.75 142.17c0 2.0219-1.6393 3.6612-3.6612 3.6612h-5.4918c-2.0219 0-3.6612-1.6393-3.6612-3.6612v-4.5765c0-2.0219 1.6393-2.7459 3.6612-2.7459h5.4918c2.0219 0 3.6612 0.72401 3.6612 2.7459z" fill="#808285"/>
  <path d="m146.59 141.25h5.4918c2.0219 0 3.6612-1.6393 3.6612-3.6612v-0.91531h-12.814v0.91531c0 2.0219 1.6393 3.6612 3.6612 3.6612" fill="#88c9f9"/>
  <path d="m149.34 145.83c-5.7664 0-7.2108-1.6485-8.2378-2.9674v1.1368c0 2.0219 2.4713 5.4918 4.9427 5.4918h6.5902c2.4713 0 4.9427-3.4699 4.9427-5.4918v-1.7308c-1.0261 1.5835-2.4713 3.5615-8.2378 3.5615" fill="#5c913b"/>
  <path d="m146.59 143.54c0 0.75787-0.61509 1.373-1.373 1.373-0.75879 0-1.373-0.61509-1.373-1.373 0-0.75879 0.61417-1.373 1.373-1.373 0.75787 0 1.373 0.61417 1.373 1.373" fill="#fff"/>
  <path d="m154.83 143.54c0 0.75787-0.61509 1.373-1.373 1.373-0.75788 0-1.373-0.61509-1.373-1.373 0-0.75879 0.61508-1.373 1.373-1.373 0.75787 0 1.373 0.61417 1.373 1.373" fill="#fff"/>
  <path d="m155.75 136.68v-1.8306c0-1.0105-0.82012-1.8306-1.8306-1.8306h-9.1531c-1.0105 0-1.8306 0.82011-1.8306 1.8306v1.8306z" fill="#292f33"/>
  <path d="m152.09 134.85c0 0.50525-0.40914 0.91531-0.91531 0.91531h-3.6612c-0.50525 0-0.91531-0.41006-0.91531-0.91531s0.41006-0.91531 0.91531-0.91531h3.6612c0.50617 0 0.91531 0.41006 0.91531 0.91531" fill="#6d6e71"/>
 </g>
</svg>
