<?xml version="1.0" encoding="UTF-8"?>
<svg version="1.1" viewBox="0 0 128 128" xmlns="http://www.w3.org/2000/svg">
 <path d="m48 111.7c-0.02151 3.2689-1.3836 5.0249-5.0644 5.0352l-9.8573 0.0275c-3.6774 0.0103-5.0644-1.7387-5.0644-5.0076l0.04086-6.2658h19.986z" fill="#555"/>
 <path d="m97.863 111.73c0 3.2524-1.248 5.0878-4.8973 5.0878h-10.021c-3.646 0-4.8887-1.7874-4.9362-5.0394l-0.09091-6.2247h19.945z" fill="#555"/>
 <path d="m114.07 60.616c0 1.6276-0.87512 2.4931-2.4932 2.4931h-3.7397c-1.6181 0-2.4932-0.8655-2.4932-2.4932v-21.192c0-1.6247 0.87508-2.4932 2.4932-2.4932h3.7397c1.6181 0 2.4932 0.86845 2.4932 2.4932z" fill="#99aab5"/>
 <path d="m107.84 46.904h-89.753v-4.8738h89.753z" fill="#99aab5"/>
 <path d="m107.84 58.123-89.753-0.034628v-6.1983l89.753 2e-6z" fill="#99aab5"/>
 <path d="m48 12c-3.7936 0.13879-4.9598 2.1158-4.9863 4.9863l-9.9726-1.2e-5c-6.4634 0.03191-9.9726 3.4709-9.9726 9.9726v34.904h79.781v-34.904c0-6.5018-3.3577-9.9864-9.9726-9.9726h-9.8143c-0.24707-3.49-2.5304-4.9063-5.1446-4.9863z" fill="#ccd6dd"/>
 <path d="m102.85 101.75h-79.781v-39.89h79.781z" fill="#ffcc4d"/>
 <path d="m102.85 99.26h-79.781v-17.452h79.781z" fill="#ffac33"/>
 <path d="m106.69 104.3c0.0358 1.6272-1.0074 2.5042-2.6254 2.5042h-82.166c-1.6151 0-2.5277-0.82145-2.5277-2.4491v-2.5026c0-1.6276 0.96044-2.5577 2.5756-2.5577h82.148c1.6181 0 2.5045 0.87532 2.5404 2.5026z" fill="#66757f"/>
 <path d="m102.85 61.863c0.42048 4.8589-2.5964 7.618-7.4448 7.618h-64.839c-4.8484 0-7.4969-2.7409-7.4969-7.618v-22.594c0-4.8771 2.6485-7.3236 7.4969-7.3236h64.96c4.8484 0 6.9032 2.4647 7.3236 7.3236z" fill="#66757f"/>
 <path d="m97.863 59.423c0 3.2494-1.7531 4.9487-4.9863 4.9487h-59.836c-3.2303 0-5.1156-1.9111-4.9863-5.158v-17.296c0.12927-3.2468 1.756-4.9863 4.9863-4.9863h59.836c3.2332 0 4.9863 1.7369 4.9863 4.9863z" fill="#88c9f9"/>
 <path d="m77.918 96.767h-29.918v-12.466h29.918z" fill="#99aab5"/>
 <path d="m74.178 24.466h-22.438c-2.4932 0-3.7397-1.2466-3.7397-3.7397 0-2.4932 1.2466-3.7397 3.7397-3.7397h22.438c2.4932 0 3.7397 1.2466 3.7397 3.7397 0 2.4932-1.2466 3.7397-3.7397 3.7397z" fill="#555"/>
 <path d="m20.575 60.616c0 1.6276-0.87512 2.4931-2.4932 2.4931h-3.7397c-1.6181 0-2.4932-0.8655-2.4932-2.4932v-21.192c0-1.6247 0.87508-2.4932 2.4932-2.4932h3.7397c1.6181 0 2.4932 0.86845 2.4932 2.4932z" fill="#99aab5"/>
 <circle cx="33.02" cy="90.534" r="6.2329" fill="#fff" style="paint-order:normal"/>
 <circle cx="92.877" cy="90.534" r="6.2329" fill="#fff" style="paint-order:normal"/>
</svg>
