<?xml version="1.0" encoding="UTF-8"?>
<svg version="1.1" viewBox="0 0 256 256" xmlns="http://www.w3.org/2000/svg">
 <circle cx="128" cy="128" r="115.87" fill="#25b"/>
 <path d="m128 6.0328c-67.174 0-121.96 54.794-121.96 121.97 1.6e-6 67.174 54.79 121.96 121.96 121.96 67.174 0 121.97-54.79 121.97-121.96 0-67.174-54.796-121.97-121.97-121.97zm0 31.476c50.164 0 90.492 40.328 90.492 90.492 0 18.517-5.5001 35.689-14.956 49.991l-125.53-125.53c14.303-9.4559 31.475-14.956 49.991-14.956zm-73.456 37.489 126.46 126.46c-14.875 10.725-33.17 17.034-53.005 17.034-50.164 0-90.492-40.328-90.492-90.492 1e-6 -19.835 6.3107-38.128 17.036-53.003z" fill="#c1121c" stroke="#fff" stroke-width="2"/>
</svg>
