<?xml version="1.0" encoding="UTF-8"?>
<svg version="1.1" viewBox="0 0 256 256" xmlns="http://www.w3.org/2000/svg">
 <circle cx="128" cy="128" r="115.87" fill="#25b"/>
 <path d="m128 6.0328c-67.176 1.9e-6 -121.97 54.795-121.97 121.97 0 67.176 54.795 121.97 121.97 121.97 67.176 0 121.97-54.795 121.97-121.97-1e-5 -67.176-54.795-121.97-121.97-121.97zm0 31.477c50.166 0 90.497 40.328 90.497 90.495 0 18.518-5.5014 35.691-14.958 49.994l-125.53-125.53c14.304-9.4561 31.477-14.956 49.994-14.956zm-73.458 37.488 126.47 126.47c-14.876 10.727-33.172 17.037-53.009 17.037-50.166 0-90.497-40.33-90.497-90.497 1e-6 -19.837 6.3082-38.135 17.036-53.01z" fill="#c1121c" stroke="#fff" stroke-width="2"/>
 <path d="m77.97 168.82c-0.83978 2.2606-3.0555 3.8192-5.3559 4.7762v3.2835c1.7936-0.59216 3.3515-1.5057 4.6731-2.7415v13.632h3.6189v-18.951zm15.254 0c-4.8386 0.0695-6.9522 4.942-6.8984 9.7709 0.02765 3.9393 1.2373 9.0244 6.5391 9.5009 3.387-0.0428 5.8757-2.6757 6.0626-6.3981-0.03446-3.0119-2.0169-5.8606-5.4969-6.1798-1.3388 0-2.4577 0.53386-3.3589 1.5981 0.13732-2.1712 0.46708-3.6014 0.99059-4.2879 1.3088-1.8414 3.5543-1.4142 4.016 1.0818l3.5018-0.3871c-0.25746-1.5276-0.85848-2.6898-1.8025-3.4878-0.93544-0.80672-2.1202-1.2109-3.5534-1.2109zm22.542 0c-1.7644 0.0128-3.5527 0.67481-4.7762 2.2015-0.46343 0.67799-0.81049 1.5881-1.0422 2.7295l3.335 0.56576c0.30393-1.2414 0.7949-2.3622 2.3802-2.5231 1.1211 0.268 1.9691 0.63167 2.0725 2.0864-0.35799 1.5274-1.107 2.4237-3.0115 2.4318l-0.39901 2.948c2.1246-0.4546 3.9814-8e-3 4.1827 2.6918-0.036 3.4897-4.7847 4.3433-5.3281 0.38513l-3.5018 0.42481c0.38082 3.028 2.8628 5.1593 6.2056 5.3302 3.2169-0.0401 6.0214-2.378 6.3326-5.9852-0.0227-2.0628-1.3501-3.871-3.5653-4.4805 1.8108-0.98693 2.7157-2.308 2.7157-3.9644-0.0418-2.8822-2.6836-4.6063-5.6001-4.8418zm15.036 0c-0.83978 2.2606-3.0534 3.8192-5.354 4.7762v3.2835c1.7936-0.59216 3.3514-1.5057 4.673-2.7415v13.632h3.6169v-18.951zm-37.936 9.36c3.199-0.0109 3.8185 6.9525 0.18064 6.9123-3.264-0.0362-4.0078-6.8993-0.18064-6.9123zm8.9184-1.8102v3.6169h6.1299v-3.6169z" fill="#fff"/>
</svg>
