<?xml version="1.0" encoding="UTF-8"?>
<svg version="1.1" viewBox="0 0 256 256" xmlns="http://www.w3.org/2000/svg">
 <circle cx="128" cy="128" r="115.87" fill="#25b"/>
 <path d="m128 6.0401c-67.173 0-121.97 54.794-121.97 121.97 1.6e-6 67.173 54.79 121.97 121.97 121.97 67.173 0 121.97-54.79 121.97-121.97 0-67.176-54.796-121.97-121.97-121.97zm51.5 47.452-50.237 50.237-51.255-51.255c14.303-9.4558 31.474-14.956 50.319-14.957s36.576 5.8963 51.173 15.975zm-124.96 21.512 51.723 51.721-52.783 52.783c-10.079-14.596-15.976-32.327-15.976-51.5 0-19.835 6.3107-38.128 17.036-53.003zm147.95 1.4769c10.091 14.602 15.994 32.341 15.994 51.526 0 18.517-5.5001 35.688-14.956 49.991l-51.276-51.276zm-73.238 73.24 51.744 51.744c-14.875 10.725-33.169 17.034-53.005 17.034-19.183 0-36.922-5.9026-51.523-15.992z" fill="#c1121c" stroke="#fff" stroke-width="2"/>
</svg>
