<?xml version="1.0" encoding="UTF-8"?>
<svg version="1.1" viewBox="0 0 128 128" xmlns="http://www.w3.org/2000/svg">
 <g transform="matrix(2.1053 0 0 2.1053 9.6842 13.895)" stroke="#fff">
  <path d="m8.7206 3h23.592c2.0112 0 3.6873 1.65 3.6873 3.6613v27.021c0 2.0112-1.676 3.3177-3.6873 3.3177h-23.592c-2.0112 0-3.7206-1.3065-3.7206-3.3177v-27.021c0-2.0112 1.7093-3.6613 3.7206-3.6613z" fill="#495aad" stroke-width="4"/>
  <path d="m14.728 30v-19.906h5.8612s5.9395-0.18838 5.9395 5.8396c0 6.0278-5.9395 5.8828-5.9395 5.8828h-5.8612" fill="none" stroke-linecap="square" stroke-width="4.1028"/>
 </g>
 <path d="m112.7 87.563-32.054-22.588m-51.594 40.039c21.961-21.72 51.071-20.578 83.647-17.45l-32.698 20.436" fill="none" stroke="#e48f00" stroke-linecap="round" stroke-linejoin="round" stroke-width="12"/>
</svg>
