<?xml version="1.0" encoding="UTF-8"?>
<svg version="1.1" viewBox="0 0 128 256" xmlns="http://www.w3.org/2000/svg">
 <path d="m94 1e-6h2v256h-2z" fill="#999"/>
 <path d="m92 1e-6h2v256h-2z" fill="#666"/>
 <rect y="1.3767e-6" width="92" height="256" fill="#808080"/>
 <path d="m31 63v3h2v-1h1v-2zm7 0v2h4v-2zm8 0v2h4v-2zm8 0v2h4v-2zm8 0v2h4v-2zm8 0v2h4v-2zm8 0v2h4v-2zm8 0v2h4v-2zm-55 7v4h2v-4zm0 8v4h2v-4zm0 8v4h2v-4zm0 8v4h2v-1h1v-2h-1v-1zm7 1v2h4v-2zm8 0v2h4v-2zm8 0v2h4v-2zm8 0v2h4v-2zm8 0v2h4v-2zm8 0v2h4v-2zm8 0v2h4v-2zm-55 7v4h2v-4zm0 8v4h2v-4zm0 8v4h2v-4zm0 8v4h2v-1h1v-2h-1v-1zm7 1v2h4v-2zm8 0v2h4v-2zm8 0v2h4v-2zm8 0v2h4v-2zm8 0v2h4v-2zm8 0v2h4v-2zm8 0v2h4v-2zm-55 7v4h2v-4zm0 8v4h2v-4zm0 8v4h2v-4zm7 9v2h4v-2zm8 0v2h4v-2zm8 0v2h4v-2zm8 0v2h4v-2zm8 0v2h4v-2zm8 0v2h4v-2zm8 0v2h4v-2zm-55-1v4h2v-1h1v-2h-1v-1zm0 8v4h2v-4zm0 8v4h2v-4zm0 8v4h2v-4zm0 8v3h3v-2h-1v-1zm7 1v2h4v-2zm8 0v2h4v-2zm8 0v2h4v-2zm8 0v2h4v-2zm8 0v2h4v-2zm8 0v2h4v-2zm8 0v2h4v-2z" fill="#fff"/>
</svg>
