<?xml version="1.0" encoding="UTF-8"?>
<svg version="1.1" viewBox="0 0 128 256" xmlns="http://www.w3.org/2000/svg">
 <path d="m94 1e-6h2v256h-2z" fill="#999"/>
 <path d="m92 1e-6h2v256h-2z" fill="#666"/>
 <rect y="1.3767e-6" width="92" height="256" fill="#808080"/>
 <path d="m87.162 66.506-3.2598 2.3184 1.1602 1.6309 3.2578-2.3203zm-6.5176 4.6387-3.2598 2.3203 1.1602 1.6289 3.2598-2.3203zm-6.5176 4.6387-3.2598 2.3203 1.1602 1.6289 3.2598-2.3184zm-6.5176 4.6406-3.2578 2.3184 1.1582 1.6309 3.2598-2.3203zm-6.5176 4.6387-3.2578 2.3203 1.1602 1.6289 3.2578-2.3203zm-6.5176 4.6406-3.2578 2.3184 1.1602 1.6289 3.2578-2.3184zm-6.5176 4.6387-3.2578 2.3203 1.1602 1.6289 3.2578-2.3203zm-6.5156 4.6387-3.2598 2.3203 1.1602 1.6289 3.2578-2.3184zm-6.5176 4.6406-3.2598 2.3184 1.1602 1.6309 3.2598-2.3203zm55.053 0.8086-3.2598 2.3203 1.1602 1.6289 3.2598-2.3184zm-6.5176 4.6406-3.2578 2.3184 1.1582 1.6309 3.2598-2.3203zm-52.559 1.5078v4h2v-4zm46.041 3.1309-3.2578 2.3203 1.1602 1.6289 3.2578-2.3203zm-6.5176 4.6387-3.2578 2.3203 1.1602 1.6289 3.2578-2.3184zm-39.523 0.23046v4h2v-4zm33.006 4.4102-3.2578 2.3203 1.1602 1.6289 3.2578-2.3203zm-33.006 3.5898v4h2v-4zm26.49 1.0488-3.2598 2.3203 1.1602 1.6289 3.2578-2.3203zm-6.5176 4.6406-3.2598 2.3184 1.1602 1.6309 3.2598-2.3203zm-19.973 2.3105v4h2v-4zm13.455 2.3281-3.2598 2.3203 1.1602 1.6289 3.2598-2.3203zm-6.5176 4.6387-3.2578 2.3203 1.1582 1.6289 3.2598-2.3184zm-6.9375 1.0332v4h2v-4zm57.918 3.6777-3.2598 2.3184 1.1602 1.6309 3.2598-2.3203zm-57.918 4.3223v4h2v-4zm51.4 0.31641-3.2598 2.3203 1.1602 1.6289 3.2598-2.3203zm-6.5176 4.6387-3.2598 2.3203 1.1602 1.6289 3.2598-2.3184zm-44.883 3.0449v4h2v-4zm38.365 1.5957-3.2578 2.3184 1.1582 1.6309 3.2598-2.3203-1.1602-1.6289zm-6.5176 4.6387-3.2578 2.3203 1.1602 1.6289 3.2578-2.3203zm-31.848 1.7656v4h2v-4zm25.33 2.875-3.2578 2.3184 1.1602 1.6289 3.2578-2.3184zm-6.5176 4.6387-3.2578 2.3203 1.1602 1.6289 3.2578-2.3203zm-18.812 0.48632v4h2v-4zm12.297 4.1524-3.2598 2.3203 1.1602 1.6289 3.2578-2.3184zm-12.297 3.8476v4h2v-4zm5.7793 0.79297-3.2598 2.3184 1.1602 1.6309 3.2598-2.3203zm52.102 2.8464-3.2598 2.3184 1.1602 1.6309 3.2598-2.3203zm-57.918 4.3223v4h2v-4zm51.4 0.31641-3.2598 2.3203 1.1602 1.6289 3.2598-2.3203zm-6.5176 4.6387-3.2598 2.3203 1.1602 1.6289 3.2598-2.3184zm-44.883 3.0449v4h2v-4zm38.365 1.5957-3.2578 2.3184 1.1582 1.6309 3.2598-2.3203-1.1602-1.6289zm-6.5176 4.6387-3.2578 2.3203 1.1602 1.6289 3.2578-2.3203zm-31.848 1.7656v4h2v-4zm25.33 2.875-3.2578 2.3184 1.1602 1.6289 3.2578-2.3184zm-6.5176 4.6387-3.2578 2.3203 1.1602 1.6289 3.2578-2.3203zm-18.812 0.48632v4h2v-4zm12.297 4.1524-3.2598 2.3203 1.1602 1.6289 3.2578-2.3184zm-12.297 3.8476v4h2v-4zm5.7793 0.79297-3.2598 2.3184 1.1602 1.6309 3.2598-2.3203z" fill="#fff"/>
</svg>
