<?xml version="1.0" encoding="UTF-8"?>
<svg version="1.1" viewBox="0 0 128 128" xmlns="http://www.w3.org/2000/svg">
 <path d="m74 1e-6h2v128h-2z" fill="#999"/>
 <path d="m72 1e-6h2v128h-2z" fill="#666"/>
 <rect y="1.3767e-6" width="72" height="128" fill="#808080"/>
 <path d="m62.5 0v9h3v-9h-3zm0 18v9h3v-9h-3zm0 18v9h3v-9h-3zm0 18v9h3v-9h-3zm0 18v9h3v-9h-3zm0 18v9h3v-9h-3zm0 18v9h3v-9h-3zm0 18v2h3v-2h-3z" color="#000000" color-rendering="auto" dominant-baseline="auto" fill="#ff0" image-rendering="auto" shape-rendering="auto" solid-color="#000000" stop-color="#000000" style="font-feature-settings:normal;font-variant-alternates:normal;font-variant-caps:normal;font-variant-east-asian:normal;font-variant-ligatures:normal;font-variant-numeric:normal;font-variant-position:normal;font-variation-settings:normal;inline-size:0;isolation:auto;mix-blend-mode:normal;shape-margin:0;shape-padding:0;text-decoration-color:#000000;text-decoration-line:none;text-decoration-style:solid;text-indent:0;text-orientation:mixed;text-transform:none;white-space:normal"/>
</svg>
