<?xml version="1.0" encoding="UTF-8" standalone="no"?>
<svg
   version="1.1"
   viewBox="0 0 40 40"
   id="svg1183"
   sodipodi:docname="bbq.svg"
   inkscape:version="1.1.1 (3bf5ae0d25, 2021-09-20)"
   xmlns:inkscape="http://www.inkscape.org/namespaces/inkscape"
   xmlns:sodipodi="http://sodipodi.sourceforge.net/DTD/sodipodi-0.dtd"
   xmlns="http://www.w3.org/2000/svg"
   xmlns:svg="http://www.w3.org/2000/svg">
  <defs
     id="defs1187" />
  <sodipodi:namedview
     id="namedview1185"
     pagecolor="#ffffff"
     bordercolor="#666666"
     borderopacity="1.0"
     inkscape:pageshadow="2"
     inkscape:pageopacity="0.0"
     inkscape:pagecheckerboard="0"
     showgrid="false"
     inkscape:zoom="11.313709"
     inkscape:cx="32.217553"
     inkscape:cy="21.345786"
     inkscape:window-width="1920"
     inkscape:window-height="1017"
     inkscape:window-x="-8"
     inkscape:window-y="-8"
     inkscape:window-maximized="1"
     inkscape:current-layer="svg1183" />
  <path
     d="m 12,4.0883593 c -2.666666,1.142857 -5.333334,1.142857 -5.333334,3.428571 0,2.285715 4.000001,3.4285717 4.000001,4.5714287 0,1.142858 -1.77778,2.285714 -2.666667,3.428571 4,-1.142857 5.333334,-1.142857 5.333334,-3.428571 0,-2.2857137 -2.666667,-3.4285707 -4,-4.5714287 0,-1.142857 2.222221,-1.904763 2.666666,-3.428571 z m 10,0 c -2.666666,1.142857 -5.333334,1.142857 -5.333334,3.428571 0,2.285715 4,3.4285717 4,4.5714287 0,1.142858 -1.777777,2.285714 -2.666666,3.428571 4,-1.142857 5.333334,-1.142857 5.333334,-3.428571 0,-2.2857137 -2.666668,-3.4285707 -4,-4.5714287 0,-1.142857 2.22222,-1.904763 2.666666,-3.428571 z m 10,0 c -2.666666,1.142857 -5.333333,1.142857 -5.333333,3.428571 0,2.285715 4,3.4285717 4,4.5714287 0,1.142858 -1.777776,2.285714 -2.666667,3.428571 4,-1.142857 5.333334,-1.142857 5.333334,-3.428571 0,-2.2857137 -2.666667,-3.4285707 -4,-4.5714287 0,-1.142857 2.222224,-1.904763 2.666666,-3.428571 z M 4,17.802645 v 18.285714 h 2.666666 v -4.571428 h 26.666668 v 4.571428 H 36 V 17.802645 c -10.666667,0 -21.333333,0 -32,0 z m 2.666666,2.285714 h 26.666668 v 9.142858 H 6.666666 Z M 12,22.374073 c -1.472759,0 -2.666666,1.023348 -2.666666,2.285714 0,1.262364 1.193907,2.285715 2.666666,2.285715 1.472757,0 2.666667,-1.023351 2.666667,-2.285715 0,-1.262366 -1.19391,-2.285714 -2.666667,-2.285714 z m 8.000001,0 c -1.47276,0 -2.666667,1.023348 -2.666667,2.285714 0,1.262364 1.193907,2.285715 2.666667,2.285715 1.472757,0 2.666666,-1.023351 2.666666,-2.285715 0,-1.262366 -1.193909,-2.285714 -2.666666,-2.285714 z m 7.999999,0 c -1.47276,0 -2.666667,1.023348 -2.666667,2.285714 0,1.262364 1.193907,2.285715 2.666667,2.285715 1.47276,0 2.666667,-1.023351 2.666667,-2.285715 0,-1.262366 -1.193907,-2.285714 -2.666667,-2.285714 z"
     id="path1438"
     style="fill:#000000;stroke:#e6e6e6;stroke-width:0.469;stroke-miterlimit:4;stroke-dasharray:none" />
</svg>
