<?xml version="1.0" encoding="UTF-8"?>
<svg version="1.1" viewBox="0 0 40 40" xmlns="http://www.w3.org/2000/svg">
 <path d="m4.4316 10c-0.79354 0-1.4316 0.67729-1.4316 1.5176v5.9648c0 0.84024 0.63802 1.5176 1.4316 1.5176h4.5684v3h-6v4h6v4h3v-4h16v4h3v-4h6v-4h-6v-3h4.5684c0.79354 0 1.4316-0.67728 1.4316-1.5176v-5.9648c0-0.8402-0.638-1.5176-1.4316-1.5176zm7.5684 9h16v3h-16z" fill="none" stroke="#fff" stroke-linejoin="round" stroke-width="4"/>
 <path d="m9 19h3v11h-3z" fill="#666" stroke-width="1.232"/>
 <path d="m28 19h3v11h-3z" fill="#666" stroke-width="1.232"/>
 <path d="m4.4325 10h31.135c0.79364 0 1.4325 0.6765 1.4325 1.5167v5.9666c0 0.8403-0.63893 1.5167-1.4325 1.5167h-31.135c-0.79362 0-1.4325-0.67646-1.4325-1.5167v-5.9666c0-0.84029 0.63893-1.5167 1.4325-1.5167z" fill="#ae8862" stroke-width="1.2495"/>
 <path d="m5 11h30v1.5h-30z" fill="#896847" stroke-width="1.067"/>
 <path d="m3 24h34v2h-34z" fill="#896847" stroke-width="1.232"/>
 <path d="m5 16.5h30v1.5h-30z" fill="#896847" stroke-width="1.067"/>
 <path d="m12 14.5a1.5 1.5 0 0 1-1.5 1.5 1.5 1.5 0 0 1-1.5-1.5 1.5 1.5 0 0 1 1.5-1.5 1.5 1.5 0 0 1 1.5 1.5" fill="#666" stroke-width="1.2858"/>
 <path d="m31 14.5a1.5 1.5 0 0 1-1.5 1.5 1.5 1.5 0 0 1-1.5-1.5 1.5 1.5 0 0 1 1.5-1.5 1.5 1.5 0 0 1 1.5 1.5" fill="#666" stroke-width="1.2858"/>
 <path d="m3 22h34v2h-34z" fill="#ae8862" stroke-width="1.232"/>
</svg>
