<?xml version="1.0" encoding="UTF-8"?>
<svg version="1.1" viewBox="0 0 40 40" xmlns="http://www.w3.org/2000/svg">
 <path d="m9.3642 4.5455h21.272c1.8134 0 3.2733 1.4599 3.2733 3.2733v24.363c0 1.8134-1.4599 3.2733-3.2733 3.2733h-21.272c-1.8134 0-3.2733-1.4599-3.2733-3.2733v-24.363c0-1.8134 1.4599-3.2733 3.2733-3.2733z" fill="#495aad" stroke="#fff" stroke-width="3"/>
 <path d="m17.703 27.947a3.8926 3.8926 0 0 1-3.8926 3.8926 3.8926 3.8926 0 0 1-3.8926-3.8926 3.8926 3.8926 0 0 1 3.8926-3.8926 3.8926 3.8926 0 0 1 3.8926 3.8926m12.685-6.95e-4a3.8926 3.8926 0 0 1-3.8926 3.8926 3.8926 3.8926 0 0 1-3.8926-3.8926 3.8926 3.8926 0 0 1 3.8926-3.8926 3.8926 3.8926 0 0 1 3.8926 3.8926m-14.413-5.9952 4.9196 5.9736h5.6228l-3.8656-5.9736h-6.6768m6.6768-1.4056 1.7126-0.0035m-3.4696 7.3826 1.757-7.3795m-8.7851 7.3795 2.9288-8.7198h2.8112" fill="none" stroke="#fff" stroke-width="1.3527"/>
 <path d="m29.274 10.126c-0.88829-0.88651-2.115-1.4299-3.4692-1.4198-2.2398 0-4.1805 1.5122-4.8118 3.524h-10.588l-1.2217 1.2192v0.81283l2.0362 2.0321h1.2217l1.2217-1.2192h0.40723l1.2217 1.2192h2.4434l1.2217-1.2192h2.0362c0.59052 2.0524 2.5313 3.4661 4.7507 3.4457 2.7489 0.02032 4.9682-2.1945 4.9682-4.9176 0-1.3615-0.5498-2.5911-1.4381-3.4776zm-0.95409 2.431c0.2698 0.26925 0.43787 0.6402 0.43787 1.0466 0.02036 0.83315-0.65168 1.5038-1.5069 1.5038-0.81449 0-1.4866-0.67077-1.4866-1.4836 0-0.81283 0.67204-1.4835 1.5069-1.5038 0.40723 0 0.77895 0.16773 1.0487 0.43698z" fill="#fff"/>
</svg>
