<?xml version="1.0" encoding="UTF-8"?>
<svg version="1.1" viewBox="0 0 40 40" xmlns="http://www.w3.org/2000/svg">
 <g transform="matrix(.89474 0 0 .89474 1.6579 2.1053)" stroke="#fff">
  <path d="m8.7206 3h23.592c2.0112 0 3.6873 1.65 3.6873 3.6613v27.021c0 2.0112-1.676 3.3177-3.6873 3.3177h-23.592c-2.0112 0-3.7206-1.3065-3.7206-3.3177v-27.021c0-2.0112 1.7093-3.6613 3.7206-3.6613z" fill="#495aad" stroke-width="4"/>
  <path d="m21.939 30.015a3.0826 3.0826 0 0 1-3.0826 3.0826 3.0826 3.0826 0 0 1-3.0826-3.0826 3.0826 3.0826 0 0 1 3.0826-3.0826 3.0826 3.0826 0 0 1 3.0826 3.0826m10.046-5.58e-4a3.0826 3.0826 0 0 1-3.0826 3.0826 3.0826 3.0826 0 0 1-3.0826-3.0826 3.0826 3.0826 0 0 1 3.0826-3.0826 3.0826 3.0826 0 0 1 3.0826 3.0826m-11.414-4.7479 3.896 4.7308h4.4527l-3.0611-4.7308h-5.2874m5.2874-1.1132 1.3563-0.0028m-2.7478 5.8467 1.3915-5.844m-6.9574 5.844 2.3195-6.9055h2.2263" fill="none" stroke-linecap="round" stroke-linejoin="round"/>
  <path d="m12 26.981v-16.981h5s5.0668-0.1607 5.0668 4.9816c0 5.1421-5.0668 5.0184-5.0668 5.0184h-5" fill="none" stroke-linecap="square" stroke-width="3.5"/>
 </g>
</svg>
