<?xml version="1.0" encoding="UTF-8"?>
<svg version="1.1" viewBox="0 0 40 40" xmlns="http://www.w3.org/2000/svg">
 <path d="m16 3c-1.36 0-1.36 3 0 3h6v4h-4v3h1v18h-1v1.1953c-0.79535-0.091221-1.2919-0.29777-1.5938-0.59961-0.41283-0.41278-0.65625-1.1788-0.65625-2.5957v-10c0-1.5833-0.2481-2.968-0.93164-4.0312s-1.8684-1.7188-3.3184-1.7188c-1.45 0-2.6348 0.65547-3.3184 1.7188-0.68354 1.0633-0.93164 2.4479-0.93164 4.0312v5h-0.25v-2h-1v3h1v1h4v-2h-2.25v-5c0-1.4167 0.2519-2.532 0.69336-3.2188 0.44146-0.68672 1.0066-1.0312 2.0566-1.0312 1.05 0 1.6152 0.34453 2.0566 1.0312s0.69336 1.8021 0.69336 3.2188v10c0 1.5836 0.25658 2.8192 1.0938 3.6562 0.65049 0.65042 1.5484 0.94542 2.6562 1.0469v0.46289l-5 0.83398v2h20v-2l-6-1v-21h1v-3h-4v-4h6c1.36 0 1.36-3 0-3z" fill="none" stroke="#fff" stroke-width="4"/>
 <path d="m33 35v2h-20v-2l6-1h8z" fill="#444" stroke-width=".34"/>
 <path d="m19 34h8v-21h-8z" fill="#8ea0ad" stroke-width=".34"/>
 <path d="m18 13h10v-3h-10z" fill="#444" stroke-width=".34"/>
 <path d="m22 10h2v-4h-2z" fill="#666" stroke-width=".34"/>
 <path d="m19 33c-3 0-4-0.99948-4-4v-10c0-3-1-5-3.5-5s-3.5 2-3.5 5v5" fill="none" stroke="#666" stroke-width="1.4"/>
 <path d="m21 34h2v-21h-2z" fill="#c4ced4" stroke-width=".34"/>
 <path d="m18 35h2v-4h-2z" fill="#444" stroke-width=".34"/>
 <path d="m16 3c-1.36 0-1.36 3 0 3h14c1.36 0 1.36-3 0-3z" fill="#333" stroke-width=".34"/>
 <path d="m7 26v-2h4v2z" fill="#333" stroke-width=".34"/>
 <path d="m6 25v-3h1v3z" fill="#333" stroke-width=".34"/>
</svg>
