<?xml version="1.0" encoding="UTF-8"?>
<svg version="1.1" viewBox="0 0 40 40" xmlns="http://www.w3.org/2000/svg">
 <path d="m15.584 4.7895c-1.0833 0-1.9625 0.8791-1.9625 1.9625v1.9625h-5.7179c-0.63639 0-1.1516 0.5817-1.1516 1.2984v2.5933c0 0.71668 0.51519 1.2984 1.1516 1.2984h0.45435l1.9957 16.635 0.43339 3.6156c0.02506 0.29863 0.163 0.56213 0.36873 0.75143 0.20584 0.18943 0.47991 0.30406 0.77939 0.30406h16.128c0.29952 0 0.57349-0.11463 0.77939-0.30406 0.20598-0.18931 0.34397-0.45281 0.36873-0.75143l0.43339-3.6156 1.9974-16.635h0.45261c0.63654 0 1.1533-0.5817 1.1534-1.2984v-2.5933c0-0.71668-0.51693-1.2984-1.1534-1.2984h-5.7162v-1.9625c0-1.0833-0.8791-1.9625-1.9625-1.9625zm0.98036 1.9625h6.8695c0.54265 0 0.98214 0.44049 0.98214 0.98215v0.98036h-8.832v-0.98036c1e-6 -0.54175 0.43774-0.98215 0.98036-0.98215z" fill="none" stroke="#fff" stroke-linejoin="round" stroke-width="3.5789"/>
 <path d="m8.2888 13.323 2.4998 20.831c0.05011 0.5973 0.54894 1.0564 1.1479 1.0564h16.128c0.59905 0 1.0984-0.4591 1.1479-1.0564l2.5004-20.831z" fill="#d9d9d9" stroke-width=".34873"/>
 <path d="m32.096 13.904h-24.192c-0.63643 0-1.152-0.58056-1.152-1.2973v-2.5945c0-0.71671 0.51553-1.2973 1.152-1.2973h24.192c0.63643 0 1.152 0.58056 1.152 1.2973v2.5945c-6.3e-5 0.71671-0.51549 1.2973-1.1521 1.2973" fill="#bbb" stroke-width=".34873"/>
 <path d="m20.001 27.722c-0.31795 0-0.57603-0.25747-0.57603-0.57603v-10.368c0-0.31854 0.25806-0.57604 0.57603-0.57604 0.31795 0 0.57604 0.25747 0.57604 0.57604v10.368c0 0.31848-0.25806 0.57596-0.57604 0.57596" fill="#999" stroke-width=".34873"/>
 <path d="m15.033 27.722c-0.31795 0-0.58953-0.25747-0.60623-0.57603l-0.54335-10.368c-0.0167-0.31854 0.22787-0.57604 0.54583-0.57604 0.31795 0 0.58953 0.25747 0.60623 0.57604l0.54335 10.368c0.0167 0.31848-0.22787 0.57596-0.54583 0.57596" fill="#999" stroke-width=".34873"/>
 <path d="m24.968 27.722c-0.31795 0-0.56254-0.25747-0.54583-0.57603l0.54335-10.368c0.0167-0.31854 0.28825-0.57604 0.60623-0.57604 0.31795 0 0.56253 0.25747 0.54583 0.57604l-0.54335 10.368c-0.01669 0.31848-0.28824 0.57596-0.6062 0.57596" fill="#999" stroke-width=".34873"/>
 <path d="m10.355 30.539 0.43375 3.6146c0.05011 0.59727 0.54848 1.0559 1.1475 1.0559h16.128c0.59905 0 1.0986-0.45861 1.1482-1.0559l0.43375-3.6146z" fill="#bbb" stroke-width=".34873"/>
 <path d="m15.584 4.7895h8.8316c1.0833 0 1.9626 0.87929 1.9626 1.9626v1.9626h-1.9626v-0.98134c0-0.54162-0.43867-0.98134-0.98134-0.98134h-6.8689c-0.54263 0-0.98134 0.43957-0.98134 0.98134v0.98134h-1.9626v-1.9626c0-1.0833 0.87925-1.9626 1.9626-1.9626z" fill="#d9d9d9" stroke-width=".34873"/>
</svg>
