<?xml version="1.0" encoding="UTF-8"?>
<svg version="1.1" viewBox="0 0 40 40" xmlns="http://www.w3.org/2000/svg">
 <path d="m15.064 3c-1.2108 0-2.1934 0.98253-2.1934 2.1934v2.1934h-6.3906c-0.71127 0-1.2871 0.65014-1.2871 1.4512v2.8984c0 0.801 0.5758 1.4512 1.2871 1.4512h0.50781l2.2305 18.592 0.48438 4.041c0.028005 0.33377 0.18218 0.62827 0.41211 0.83984 0.23006 0.21172 0.53637 0.33984 0.87109 0.33984h18.025c0.33476 0 0.64096-0.12812 0.87109-0.33984 0.23021-0.21158 0.38444-0.50609 0.41211-0.83984l0.48438-4.041 2.2324-18.592h0.50586c0.71143 0 1.289-0.65014 1.2891-1.4512v-2.8984c0-0.801-0.57775-1.4512-1.2891-1.4512h-6.3887v-2.1934c0-1.2108-0.98253-2.1934-2.1934-2.1934zm1.0957 2.1934h7.6777c0.6065 0 1.0977 0.49232 1.0977 1.0977v1.0957h-9.8711v-1.0957c1e-6 -0.60549 0.48924-1.0977 1.0957-1.0977z" fill="none" stroke="#fff" stroke-linejoin="round" stroke-width="4"/>
 <path d="m6.9103 12.537 2.7939 23.282c0.05601 0.66758 0.61352 1.1807 1.283 1.1807h18.025c0.66953 0 1.2276-0.51312 1.283-1.1807l2.7946-23.282z" fill="#d9d9d9" stroke-width=".38976"/>
 <path d="m33.519 13.187h-27.038c-0.71131 0-1.2875-0.64887-1.2875-1.4499v-2.8998c0-0.80103 0.57618-1.4499 1.2875-1.4499h27.038c0.71131 0 1.2875 0.64887 1.2875 1.4499v2.8998c-7e-5 0.80103-0.57614 1.4499-1.2876 1.4499" fill="#bbb" stroke-width=".38976"/>
 <path d="m20 28.631c-0.35536 0-0.6438-0.28776-0.6438-0.6438v-11.588c0-0.35602 0.28842-0.64381 0.6438-0.64381 0.35536 0 0.64381 0.28776 0.64381 0.64381v11.588c0 0.35595-0.28842 0.64373-0.64381 0.64373" fill="#999" stroke-width=".38976"/>
 <path d="m14.448 28.631c-0.35536 0-0.65889-0.28776-0.67756-0.6438l-0.60728-11.588c-0.01866-0.35602 0.25468-0.64381 0.61005-0.64381 0.35536 0 0.65889 0.28776 0.67756 0.64381l0.60728 11.588c0.01866 0.35595-0.25468 0.64373-0.61005 0.64373" fill="#999" stroke-width=".38976"/>
 <path d="m25.552 28.631c-0.35536 0-0.62872-0.28776-0.61005-0.6438l0.60728-11.588c0.01866-0.35602 0.32216-0.64381 0.67756-0.64381 0.35536 0 0.62872 0.28776 0.61005 0.64381l-0.60728 11.588c-0.01865 0.35595-0.32215 0.64373-0.67752 0.64373" fill="#999" stroke-width=".38976"/>
 <path d="m9.2196 31.779 0.48478 4.0399c0.05601 0.66754 0.61301 1.1801 1.2825 1.1801h18.025c0.66953 0 1.2279-0.51257 1.2833-1.1801l0.48478-4.0399z" fill="#bbb" stroke-width=".38976"/>
 <path d="m15.064 3h9.8707c1.2108 0 2.1935 0.98274 2.1935 2.1935v2.1935h-2.1935v-1.0968c0-0.60534-0.49028-1.0968-1.0968-1.0968h-7.6771c-0.60647 0-1.0968 0.49129-1.0968 1.0968v1.0968h-2.1935v-2.1935c0-1.2108 0.9827-2.1935 2.1935-2.1935z" fill="#d9d9d9" stroke-width=".38976"/>
</svg>
