<?xml version="1.0" encoding="UTF-8"?>
<svg version="1.1" viewBox="0 0 40 40" xmlns="http://www.w3.org/2000/svg">
 <path d="m13.287 4.0001c-0.40598 0.00176-0.73668 0.33477-0.73438 0.74023l0.03516 8.1172-5.9043 0.02539-0.035157-8.1172c-0.00176-0.40598-0.33477-0.73668-0.74023-0.73438-0.40598 0.00176-0.73668 0.33477-0.73438 0.74023l0.033203 8.1172-0.73633 0.0039c-0.81509 0.0035-1.4742 0.66733-1.4707 1.4824 0.0041 0.81562 0.66731 1.4723 1.4824 1.4688l0.023437 5.166c0.0047 1.0896 0.60642 2.0276 1.4863 2.5352l0.00586 1.1484c6e-3 1.3755 0.95662 2.5187 2.2324 2.8398-0.02551 1.5813-0.57898 4.1096-2.4473 5.9941 0.63642 0.65437 1.3388 1.2618 2.1719 1.7793v-2e-3c2.5803-2.6027 3.1991-5.6647 3.2246-7.7891 0.19309-0.05123 0.37524-0.1261 0.55078-0.21289v1.207c-1e-6 0.82056 0.66577 1.4863 1.4863 1.4863h2.2285c0.82056 2e-6 1.4863-0.66577 1.4863-1.4863v-0.30273c2.0178 0.29802 3.9491 0.30273 6.6895 0.30273 2.7396 5e-6 4.6723-5e-3 6.6895-0.30273v0.30273c-1e-6 0.82056 0.66577 1.4863 1.4863 1.4863h2.2305c0.82056 1e-6 1.4863-0.66577 1.4863-1.4863v-9.6641c2e-6 -1.1025-0.20565-1.7921-0.46289-2.2285h0.83398c0.61542 1e-6 1.1152-0.49907 1.1152-1.1152 1e-6 -0.61616-0.49982-1.1152-1.1152-1.1152h-1.4863c-0.21426-1e-6 -0.4023 0.07683-0.57226 0.18164-0.38491-2.1672-1.3903-6.3399-3.5156-6.8711-2.973-0.74326-10.406-0.74326-13.379 0-1.3936 0.34839-2.3 2.2718-2.873 4.1641l-0.0293-7.127c-0.0018-0.40598-0.33672-0.73668-0.74219-0.73438z" fill="none" stroke="#fff" stroke-linejoin="round" stroke-width="4"/>
 <g transform="matrix(1.9709 1.9539 1.9539 -1.9709 -36.875 76.253)">
  <g transform="matrix(.069049 .068453 .068453 -.069049 -137.62 -61.05)">
   <g transform="matrix(2.7545,0,0,-2.7545,1619.1,385.96)">
    <path d="m35 4c0-1.104-0.896-2-2-2h-3c-1.104 0-2 0.896-2 2v8c0 1.104 0.896 2 2 2h3c1.104 0 2-0.896 2-2z" fill="#555"/>
    <path d="m10 4c0-1.104-0.896-2-2-2h-3c-1.104 0-2 0.896-2 2v8c0 1.104 0.896 2 2 2h3c1.104 0 2-0.896 2-2z" fill="#555"/>
    <path d="m28 32c3.881-0.97 5-11 5-11s2 0 2-4v-8s-0.119-3.03-4-4c-4-1-7-1-12-1s-8 0-12 1c-3.88 0.97-4 4-4 4v8s0 4 2 4c0 0 1.12 10.03 5 11 4 1 14 1 18 0z" fill="#3b88c3"/>
    <path d="m19 22c3.905 0 8.623-0.2 12-0.562l-1 5.562c-1 3-7 3-11 3s-10 0-11-3l-1-5.562c3.377 0.362 8.095 0.562 12 0.562" fill="#bbddf5"/>
    <path d="m4.5 20h-2c-0.829 0-1.5 0.671-1.5 1.5s0.671 1.5 1.5 1.5h2c0.829 0 1.5-0.671 1.5-1.5s-0.671-1.5-1.5-1.5z" fill="#3b88c3"/>
    <path d="m33.5 20h2c0.828 0 1.5 0.671 1.5 1.5s-0.672 1.5-1.5 1.5h-2c-0.828 0-1.5-0.671-1.5-1.5s0.672-1.5 1.5-1.5z" fill="#3b88c3"/>
    <path d="m12 14c0-1.657-1.343-3-3-3h-1c-1.657 0-3 1.343-3 3s1.343 3 3 3h1c1.657 0 3-1.343 3-3" fill="#fff"/>
    <path d="m33 14c0-1.657-1.344-3-3-3h-1c-1.656 0-3 1.343-3 3s1.344 3 3 3h1c1.656 0 3-1.343 3-3" fill="#fff"/>
    <path d="m5.914 17.122c2.8156 1.3928 7.2549-0.07212 7.2998-0.08646 0.52302-0.1761 1.0905 0.10479 1.2666 0.62781s-0.10183 1.0876-0.62695 1.2661c-0.21289 0.07326-5.2629 1.7464-8.8255-0.01416-0.495-0.24537-0.69762-0.84431-0.45361-1.3397 0.09159-0.18336 0.23123-0.32749 0.39578-0.42249 0.27973-0.1615 0.63226-0.1849 0.9439-0.03112z" fill="#269"/>
    <path d="m33.424 17.575c0.24487 0.49587 0.04226 1.0948-0.45361 1.3397-3.5617 1.7611-8.6126 0.08742-8.8255 0.01416-0.52065-0.1782-0.80305-0.74308-0.62608-1.2656 0.17524-0.52352 0.74271-0.80442 1.2657-0.62831 0.04484 0.01434 4.4841 1.4792 7.2998 0.08646 0.31078-0.15428 0.66417-0.13038 0.9439 0.03112 0.16454 0.095 0.30419 0.23913 0.39578 0.42249z" fill="#269"/>
    <path d="m5.293 9.293c-0.391 0.391-0.391 1.023 0 1.414 0.344 0.345 0.877 0.386 1.267 0.122 0.232-0.1 2.285-0.829 12.44-0.829s12.208 0.729 12.44 0.829c0.391 0.264 0.922 0.223 1.267-0.122 0.391-0.391 0.391-1.023 0-1.414-1.068-1.068-8.044-1.293-13.707-1.293s-12.639 0.225-13.707 1.293z" fill="#55acee"/>
    <path d="m19 5c-3.866 0-7 1-7 2.5 0 0.828 3.134 0.5 7 0.5s7 0.328 7-0.5c0-1.5-3.134-2.5-7-2.5z" fill="#269"/>
   </g>
  </g>
  <path d="m-4.6534 26.989c0.10344-0.10344 0.10344-0.27257 0-0.37601s-0.27257-0.10344-0.37601 0l-2.2563 2.2566c-0.10344 0.10318-0.10344 0.27257 0 0.37601 0.10318 0.10344 0.27257 0.10344 0.37601 0z" fill="#9aaab4" stroke-width=".26592"/>
  <path d="m-2.7728 28.869c0.10344-0.10344 0.10344-0.27257 0-0.37601s-0.27257-0.10344-0.37601 0l-2.2566 2.2566c-0.10344 0.10318-0.10344 0.27257 0 0.37601 0.10318 0.10344 0.27257 0.10344 0.37601 0z" fill="#9aaab4" stroke-width=".26592"/>
  <path d="m1.1723 21.762c0 1.3206-0.61861 2.2609-1.151 2.811 0.23906 0.40765 0.18747 0.93869-0.16221 1.2881l-0.29224 0.29224c0.093603 0.3542 0.00585 0.74617-0.27177 1.0238l-1.316 1.3163c0.20742 0.20768 0.20742 0.54434 0 0.75202-0.20768 0.20768-0.54487 0.20768-0.75228 2.66e-4l-2.6326-2.6326c-0.20768-0.20768-0.20768-0.54434 0-0.75202 0.20795-0.20768 0.54433-0.20768 0.75202 0l1.3166-1.3163c0.27762-0.27762 0.66958-0.36511 1.0235-0.27177l0.29278-0.29251c0.35048-0.35048 0.88365-0.40154 1.2916-0.16008 0.39462-0.41111 0.89418-1.1985 0.89418-2.1547 0.32886-6e-3 0.66304 0.01723 1.0075 0.09617z" fill="#444" stroke-width=".26592"/>
  <path d="m-3.4735 26.774 0.6294-1.3049 0.33083 0.48126 0.71383-1.0631-0.045259 2.5115-0.66166-0.96252-0.30549 1.3003z" fill="#fd5" stroke-width=".26592" style="paint-order:markers fill stroke"/>
 </g>
</svg>
