<?xml version="1.0" encoding="UTF-8"?>
<svg version="1.1" viewBox="0 0 40 40" xmlns="http://www.w3.org/2000/svg">
 <g>
  <path d="m5 2c-1.633 1.633e-4 -2.9998 1.367-3 3v3c0.71796 3.2706 3.6682 5.9278 6 7.7227v7.2773c0 0.34195 0.22244 0.59402 0.29688 0.91406-2.4193 2.3079-5.7751 4.8253-6.2969 8.0859v4c1.1e-4 1.1045 0.89548 1.9999 2 2h32c1.1045-1.1e-4 1.9999-0.89548 2-2v-4c-0.78456-3.4481-3.8717-6.037-6.2949-8.084 0.07443-0.31524 0.29238-0.56313 0.29492-0.90039v-0.0039l0.04492-7.3262c2.3613-2.1008 5.461-4.5978 5.9551-7.6856v-3c-1.63e-4 -1.633-1.367-2.9998-3-3z" fill="#fff" />
 </g>
 <path d="m9.9998 14.985c1.8e-4 -4.9847 20-4.9847 20 0.01535v4.0004h-20l5.5e-4 -3.985c-3.9e-5 -0.01028-0.0011-0.02051-0.0011-0.03074z" fill="#80684c" />
 <path d="m4 4v4l8 8v8l-8 8v4h32v-4l-8-8v-8l8-8v-4z" fill="#999"/>
 <path d="m5 4v4c1 2 6 7 8 8v8c-2 1-7 6-8 8v4m30 0v-4c-1-2-6-7-8-8v-8c2-1 7-6 8-8v-4" fill="none" stroke="#777" stroke-linejoin="round" stroke-width="2"/>
 <path d="m10 15c0 2.5447 4 4 10 4v9c-6 0-10-2.4553-10-5z" fill="#a58868" />
 <path d="m20 19v8.9998c6 0 9.9808-2.4553 10-5l0.048-8c2e-6 2.5447-4.048 4.0002-10.048 4.0002z" fill="#947859" />
 <rect x="15" y="19" width="10" height="8" ry="2" fill="none" stroke="#ccc" stroke-width="2"/>
 <circle cx="20" cy="23" r="2" fill="#80684d" />
 <path d="m26 23h-6" fill="none" stroke="#ccc" stroke-linecap="round" stroke-width="2"/>
</svg>
