<?xml version="1.0" encoding="UTF-8"?>
<svg version="1.1" viewBox="0 0 40 40" xmlns="http://www.w3.org/2000/svg">
 <path d="m33.21 20a13.21 13.21 0 0 1-13.21 13.21 13.21 13.21 0 0 1-13.21-13.21 13.21 13.21 0 0 1 13.21-13.21 13.21 13.21 0 0 1 13.21 13.21" fill="#fff" stroke="#fff" stroke-linecap="round" stroke-linejoin="round" stroke-width="5.5798"/>
 <g transform="matrix(.28632 0 0 .28632 1.6555 2.2553)">
  <path d="m110.21 61.976a46.139 46.139 0 0 1-46.139 46.139 46.139 46.139 0 0 1-46.139-46.139 46.139 46.139 0 0 1 46.139-46.139 46.139 46.139 0 0 1 46.139 46.139" fill="#fff" stroke="#666" stroke-linecap="round" stroke-linejoin="round" stroke-width="7.7222"/>
  <path d="m64 62-23.236-13.955" fill="none" stroke="#666" stroke-linecap="round" stroke-linejoin="round" stroke-width="8"/>
  <path d="M 91.838,44.045 64,62" fill="none" stroke="#666" stroke-linecap="round" stroke-linejoin="round" stroke-width="6"/>
  <path d="m72.077 62a8.0303 8.0146 0 0 1-8.0302 8.0146 8.0303 8.0146 0 0 1-8.0303-8.0146 8.0303 8.0146 0 0 1 8.0303-8.0146 8.0303 8.0146 0 0 1 8.0302 8.0146" fill="#444"/>
 </g>
</svg>
