<?xml version="1.0" encoding="UTF-8"?>
<svg version="1.1" viewBox="0 0 40 40" xmlns="http://www.w3.org/2000/svg">
 <rect x="4.9964" y="4.9964" width="30.007" height="30.007" rx="15.004" ry="15.004" fill="#999" fill-rule="evenodd" stroke="#fff" stroke-linejoin="round" stroke-width="1.9927"/>
 <path d="m6.8888 27.075 1.7321 1 2-3.4641-1.7321-1zm3.5-6.0622 1.7321 1 2-3.4641-1.7321-1zm3.5-6.0622 1.7321 1 2-3.4641-1.7321-1zm3.5-6.0622 1.7321 1 2-3.4641-1.7321-1zm2.4904 25.687 1.7321 1 2-3.4641-1.7321-1zm3.5-6.0622 1.7321 1 2-3.4641-1.7321-1zm3.5-6.0622 1.7321 1 2-3.4641-1.7321-1zm3.5-6.0622 1.7321 1 2-3.4641-1.7321-1z" fill="#fff" fill-rule="evenodd"/>
</svg>
