<?xml version="1.0" encoding="UTF-8"?>
<svg version="1.1" viewBox="0 0 40 40" xmlns="http://www.w3.org/2000/svg">
 <path d="m17.265 33.633c-7.0302-4.6926-12.179-10.344-13.7-15.035-1.0885-3.3596-0.56203-7.1445 1.3855-9.9602 1.8633-2.6938 5.3216-4.0812 8.7437-3.5077 2.0461 0.34289 3.2538 1.0111 4.9272 2.7262l1.3877 1.4223 1.3878-1.4223c1.6767-1.7183 2.881-2.3833 4.9434-2.729 3.4064-0.57088 6.8601 0.82909 8.7667 3.5534 1.901 2.7168 2.426 6.5845 1.3462 9.9173-1.2167 3.7551-5.1193 8.543-10.152 12.455-2.5471 1.98-5.9555 4.2046-6.4074 4.1824-0.13553-0.0068-1.3185-0.72775-2.6287-1.6024z" fill="none" stroke="#fff" stroke-width="4" style="paint-order:markers fill stroke"/>
 <g transform="matrix(1.2143 0 0 1.2143 .57078 .57135)">
  <path d="m13.742 27.13c-5.7896-3.8645-10.03-8.5185-11.282-12.382-0.89645-2.7667-0.46285-5.8837 1.141-8.2025 1.5345-2.2184 4.3825-3.361 7.2007-2.8887 1.685 0.28238 2.6796 0.8327 4.0577 2.2451l1.1428 1.1713 1.1429-1.1713c1.3808-1.4151 2.3726-1.9627 4.071-2.2474 2.8053-0.47014 5.6495 0.68278 7.2196 2.9263 1.5655 2.2374 1.9979 5.4225 1.1086 8.1672-1.002 3.0924-4.2159 7.0354-8.3606 10.257-2.0976 1.6306-4.9045 3.4626-5.2767 3.4443-0.11161-0.0056-1.0858-0.59932-2.1648-1.3196z" fill="#5a8049" stroke-width=".28243" style="paint-order:markers fill stroke"/>
  <path d="m19.653 6.7868-3.6527 7.5009h4.6311l-8.1098 9.4361 3.1308-7.3922h-4.5006z" fill="#fff" stroke-width=".21742"/>
 </g>
</svg>
