<?xml version="1.0" encoding="UTF-8"?>
<svg version="1.1" viewBox="0 0 40 40" xmlns="http://www.w3.org/2000/svg">
 <path d="m17.545 32.084c-6.2866-4.1962-10.891-9.2499-12.251-13.445-0.97337-3.0042-0.50258-6.3888 1.239-8.9067 1.6662-2.4089 4.7587-3.6495 7.8188-3.1367 1.8297 0.30662 2.9096 0.90415 4.406 2.4378l1.2409 1.2719 1.241-1.2719c1.4993-1.5365 2.5763-2.1312 4.4205-2.4403 3.0461-0.5105 6.1345 0.74139 7.8394 3.1775 1.6999 2.4294 2.1694 5.888 1.2038 8.8683-1.088 3.3579-4.5778 7.6394-9.0782 11.138-2.2777 1.7706-5.3256 3.7599-5.7297 3.74-0.1212-0.0061-1.179-0.65077-2.3507-1.4329z" fill="none" stroke="#fff" stroke-width="3.5769"/>
 <g transform="matrix(1.0859 0 0 1.0859 2.6161 2.5191)">
  <path d="m13.742 27.13c-5.7896-3.8645-10.03-8.5185-11.282-12.382-0.89645-2.7667-0.46285-5.8837 1.141-8.2025 1.5345-2.2184 4.3825-3.361 7.2007-2.8887 1.685 0.28238 2.6796 0.8327 4.0577 2.2451l1.1428 1.1713 1.1429-1.1713c1.3808-1.4151 2.3726-1.9627 4.071-2.2474 2.8053-0.47014 5.6495 0.68278 7.2196 2.9263 1.5655 2.2374 1.9979 5.4225 1.1086 8.1672-1.002 3.0924-4.2159 7.0354-8.3606 10.257-2.0976 1.6306-4.9045 3.4626-5.2767 3.4443-0.11161-0.0056-1.0858-0.59932-2.1648-1.3196z" fill="#5a8049" stroke-width=".28243"/>
  <path d="m19.653 6.7868-3.6527 7.5009h4.6311l-8.1098 9.4361 3.1308-7.3922h-4.5006z" fill="#fff" stroke-width=".21742"/>
 </g>
</svg>
