<?xml version="1.0" encoding="UTF-8"?>
<svg version="1.1" viewBox="0 0 40 40" xmlns="http://www.w3.org/2000/svg">
 <path d="m20 3c-3.7373 1.26e-4 -6.8363 3.2625-6.8359 7h-1.1641v3h2.5v4h-1.5v-1.5h-2.5v2.0039c-0.016-3.43e-4 -0.03078-0.0039-0.04687-0.0039-1.1386 0-1.9531 0.86143-1.9531 2 3.4e-5 1.1386 0.81455 2 1.9531 2 0.01609 0 0.03087-0.0036 0.04687-0.0039v2.0039h2.5v-1.5h1.5v8h-1.5v4h-1v3h16v-3h-1v-4h-1.5v-8h1.5v1.5h2.5v-2c1.1386 0 2-0.86143 2-2 0-1.1386-0.86143-2-2-2v-2h-2.5v1.5h-1.5v-4h2.5v-3h-1.3027c2.41e-4 -3.7376-2.9598-6.9997-6.6973-7z" fill="none" stroke="#fff" stroke-linejoin="round" stroke-width="4"/>
 <g transform="matrix(.34037 0 0 .34037 -549.2 -94.856)">
  <path d="m1651.7 328.63h41.132v14.69h-41.132z" fill="#a8493e"/>
  <path transform="translate(1480.1,275.39)" d="m192.19 12.109c-10.98 3.71e-4 -20.085 9.585-20.084 20.566l3.9253 5.8758v52.884h32.318v-52.884l3.5186-5.8761c7.1e-4 -10.981-8.6971-20.565-19.678-20.566z" fill="#cd584c"/>
  <path d="m1706.1 335.98c0 3.3451-2.5308 5.876-5.8759 5.876-3.3451-6e-5 -5.8759-2.5309-5.876-5.876 1e-4 -3.345 2.5309-5.8759 5.876-5.876 3.3451 0 5.8759 2.5309 5.8759 5.876" fill="#cd584c"/>
  <path d="m1692.9 324.22h7.345v23.504h-7.345z" fill="#9e3d33"/>
  <path d="m1650.3 335.98c-1e-4 3.3451-2.67 5.8759-6.0151 5.876-3.3451 0-5.7367-2.5309-5.7368-5.876 1e-4 -3.3451 2.3928-5.876 5.7379-5.876 3.345 6e-5 6.0139 2.5309 6.014 5.876" fill="#cd584c"/>
  <path d="m1644.4 324.22h7.3449v23.504h-7.3449z" fill="#9e3d33"/>
  <path d="m1684 343.32c0 6.7086-5.0433 11.752-11.752 11.752s-11.752-5.0433-11.752-11.752 5.0434-11.752 11.752-11.752 11.752 5.0433 11.752 11.752" fill="#9e3d33"/>
  <path d="m1648.8 378.58h47.008v8.8139h-47.008z" fill="#9e3d33"/>
  <path d="m1648.8 308.06h47.008v8.8139h-47.008z" fill="#9e3d33"/>
  <path transform="rotate(15)" d="m1699.8-105.32h8.4852v8.4853h-8.4852z" fill="#cd584c"/>
  <path d="m1651.7 366.82h41.132v11.752h-41.132z" fill="#a8493e"/>
 </g>
</svg>
