<?xml version="1.0" encoding="UTF-8" standalone="no"?>
<svg
   version="1.1"
   viewBox="0 0 40 40"
   id="svg12"
   width="40"
   height="40"
   xmlns="http://www.w3.org/2000/svg"
   xmlns:svg="http://www.w3.org/2000/svg">
  <defs
     id="defs16" />
  <path
     d="M 9.7882773,5.0189998 H 30.211723 c 2.652474,0 4.788028,2.1353846 4.788028,4.7880294 V 30.192972 c 0,2.652473 -2.135384,4.788028 -4.788028,4.788028 H 9.7882773 c -2.6524746,0 -4.7880286,-2.135385 -4.7880286,-4.788028 V 9.8070292 c 0,-2.6524744 2.135384,-4.7880293 4.7880286,-4.7880294 z"
     fill="#495aad"
     style="fill:#ffffff;stroke-width:0.34093;paint-order:normal"
     id="path6-2" />
  <g
     id="g123"
     transform="matrix(0.28411638,0,0,0.28411638,1.7678259,2.3147498)">
    <path
       d="m 34.219,18.305 h 59.905 c 7.7801,0 14.044,6.2634 14.044,14.044 v 59.795 c 0,7.7801 -6.2634,14.044 -14.044,14.044 H 34.219 c -7.7801,0 -14.044,-6.2634 -14.044,-14.044 V 32.349 c 0,-7.7801 6.2634,-14.044 14.044,-14.044 z"
       fill="#495aad"
       style="paint-order:normal"
       id="path6" />
    <path
       d="M 28.922,41.078 V 83.311 C 35.9609,83.311 43,90.3499 43,97.389 h 42.233 c 0,-7.0389 7.0389,-14.078 14.078,-14.078 V 41.078 C 92.2721,41.078 85.233,34.0391 85.233,27 H 43 c 0,7.0389 -7.0389,14.078 -14.078,14.078 z"
       fill="none"
       stroke="#ffffff"
       stroke-width="5.0152"
       id="path8" />
  </g>
</svg>
