<?xml version="1.0" encoding="UTF-8"?>
<svg version="1.1" viewBox="0 0 40 40" xmlns="http://www.w3.org/2000/svg">
 <g transform="matrix(1.2143 0 0 1.2143 .57155 .57143)">
  <path d="m7.3319 3.4737h17.336c1.7292 0 3.1212 1.3921 3.1212 3.1213v18.81c0 1.7292-1.3921 3.1213-3.1212 3.1213h-17.336c-1.7292 0-3.1212-1.3921-3.1212-3.1213v-18.81c0-1.7292 1.3921-3.1213 3.1212-3.1213z" fill="#495aad" stroke="#fff" stroke-opacity=".98995" stroke-width="2.9474"/>
  <path d="m19.868 24.067h-7.5371v-1.4372c0.80989-0.0196 1.3623-0.23797 1.4583-1.0458v-2.6365c-0.08465-0.98022-0.8852-1.2072-1.6982-1.3528v-2.1741l6.1747-0.24946 0.14391 0.14392v6.1442c0.02398 0.66843 0.44501 0.89044 0.97859 1.0746 0.1535 0.04477 0.31341 0.07675 0.47972 0.09594z" fill="#fff" stroke-width=".36842"/>
  <path d="m18.783 10.788a2.817 2.8171 0 0 1-2.817 2.8171 2.817 2.8171 0 0 1-2.817-2.8171 2.817 2.8171 0 0 1 2.817-2.8171 2.817 2.8171 0 0 1 2.817 2.8171" fill="#fff" stroke-width=".36842"/>
 </g>
</svg>
