<?xml version="1.0" encoding="UTF-8"?>
<svg version="1.1" viewBox="0 0 40 40" xml:space="preserve" xmlns="http://www.w3.org/2000/svg"><g stroke-width="1.1765">

<path d="m5.9161 40h30.588c0.026129-12.078-30.575-11.602-30.588 0z" fill="#ffc170"/>
<path d="m18.237 34.118 1.4549-7.2745h-1.4039l1.9791-6.0967-1.2875-0.15071 2.0754-4.848-4.6167-1.8466-0.53231 6.3348-1.4185-0.16593 0.54878 6.7733h-1.1638l1.4549 7.2744z" fill="#a0815c"/>
<path d="m9.2844 2.4554c3.5013-0.038549 5.8677 0.90932 7.4625 2.1399-7.9628-0.43876-13.353 5.5097-13.634 13.699 10.842-11.223 25.274-5.1184 24.701 9.7812 4.2138-6.7714 7.7711-12.568-0.55924-19.319 2.0051 0.19471 4.3787 1.1238 6.9042 3.5492-1.0284-4.4702-3.2304-10.338-10.808-9.0406-3.8854-4.3047-10.726-4.1189-14.067-0.80939z" fill="#4b925e"/></g><g fill="#50412e" stroke-width="1.1765">
<circle cx="27.093" cy="31.765" r="2.3529"/>
<circle cx="17.681" cy="12.941" r="2.3529"/>
<circle cx="21.21" cy="14.118" r="2.3529"/>
</g></svg>
