<?xml version="1.0" encoding="UTF-8"?>
<svg version="1.1" viewBox="0 0 40 40" xml:space="preserve" xmlns="http://www.w3.org/2000/svg">
<path d="m5.9473 7.1426 3.3691-0.037109c-5.5456 4.1537-5.6617 10.348-5.877 16.578 3.0648-3.2983 6.8911-7.5657 11.008-7.8809 0.0899 0.17743 0.25374 0.29654 0.36914 0.45898l-0.14453 1.7109-1.5781-0.1875 0.48828 6.0312h-1.2578l0.99414 4.9727c-5.7232 1.6328-7.6619 5.4478-7.3203 10.211h29.998c0.25876-5.82-1.9441-8.2355-6.1816-9.9023-0.18192-0.74683-0.50986-1.4332-1.0488-1.9551 2.1346-3.7407 4.0344-6.2936 3.5332-10.629l3.1602 3.0332c-1.3976-7.5993-2.9844-16.547-12.1-15.789-6.6309-5.3765-13.767-1.7711-17.412 3.3848zm16.787 12.162c1.2057 1.7651 1.9295 4.177 1.8652 7.2012-0.63414 0.25875-1.1306 0.58236-1.5586 1.1133-0.54787-0.03813-1.0965-0.01718-1.6484-0.02148l0.75586-3.7812h-0.87891z" fill="#fff"/>
<path d="m8 37h26c0.02221-10.266-25.989-9.8621-26 0z" fill="#ffc170"/>
<path d="m18.473 32 1.2367-6.1833h-1.1933l1.6822-5.1822-1.0944-0.1281 1.7641-4.1208-3.9242-1.5696-0.45246 5.3846-1.2057-0.14104 0.46646 5.7573h-0.98919l1.2367 6.1832z" fill="#a0815c"/>
<path d="m10.863 5.0871c2.9761-0.032767 4.9875 0.77292 6.3431 1.8189-6.7684-0.37295-11.35 4.6832-11.589 11.644 9.2156-9.5392 21.483-4.3506 20.996 8.314 3.5817-5.7557 6.6054-10.683-0.47535-16.421 1.7043 0.1655 3.7219 0.95526 5.8686 3.0168-0.87415-3.7997-2.7458-8.7873-9.1864-7.6845-3.3026-3.659-9.1173-3.5011-11.957-0.68798z" fill="#4b925e"/>
<circle cx="26" cy="30" r="2" fill="#50412e"/>
<circle cx="18" cy="14" r="2" fill="#50412e"/>
<circle cx="21" cy="15" r="2" fill="#50412e"/>
</svg>
