<?xml version="1.0" encoding="UTF-8"?>
<svg version="1.1" viewBox="0 0 40 40" xmlns="http://www.w3.org/2000/svg">
 <path d="m4.6855 6.5c-1.2152-1.09e-4 -1.9148 1.1662-1.623 2.1738v22.84c-0.29177 1.0076 0.40787 2.172 1.623 2.1719h30.586c1.1991 1.87e-4 1.9004-1.1345 1.6387-2.1328v-22.918c0.2617-0.99827-0.43958-2.135-1.6387-2.1348z" fill="none" stroke="#fff" stroke-linejoin="round" stroke-width="4" style="paint-order:stroke fill markers"/>
 <g transform="matrix(1.2143 0 0 1.2143 .57143 1.5961)">
  <path d="m4.2769 3.9619h23.461c1.2534 0 2.2624 1.0091 2.2624 2.2624v17.864c0 1.2534-1.0091 2.2624-2.2624 2.2624h-23.461c-1.2534 0-2.2624-1.0091-2.2624-2.2624v-17.864c0-1.2534 1.0091-2.2624 2.2624-2.2624z" fill="#ddd" stroke-width=".34982" style="paint-order:stroke fill markers"/>
  <path d="m3.4024 24.251 12.594-13.293 12.594 13.293" fill="none" stroke="#aaa" stroke-linecap="round" stroke-linejoin="round" stroke-width="2.7986"/>
  <path d="m3.4024 26.35c-1.2868 1.15e-4 -1.8917-1.5904-0.92989-2.4453l12.594-11.194c0.53026-0.47149 1.3295-0.47149 1.8598 0l12.594 11.194c0.96176 0.85496 0.35692 2.4455-0.92989 2.4453z" color="#000000" color-rendering="auto" dominant-baseline="auto" fill="#e9e9e9" fill-rule="evenodd" image-rendering="auto" shape-rendering="auto" solid-color="#000000" stroke-width=".34982" style="font-feature-settings:normal;font-variant-alternates:normal;font-variant-caps:normal;font-variant-ligatures:normal;font-variant-numeric:normal;font-variant-position:normal;isolation:auto;mix-blend-mode:normal;shape-padding:0;text-decoration-color:#000000;text-decoration-line:none;text-decoration-style:solid;text-indent:0;text-orientation:mixed;text-transform:none;white-space:normal"/>
  <path d="m3.4024 6.0608 12.594 13.293 12.594-13.293" fill="none" stroke="#aaa" stroke-linecap="round" stroke-linejoin="round" stroke-width="2.7986"/>
  <path d="m3.4024 3.9619c-1.2868-1.154e-4 -1.8917 1.5904-0.92989 2.4453l12.594 11.194c0.53026 0.47149 1.3295 0.47149 1.8598 0l12.594-11.194c0.96176-0.85496 0.35692-2.4455-0.92989-2.4453z" color="#000000" color-rendering="auto" dominant-baseline="auto" fill="#fff" fill-rule="evenodd" image-rendering="auto" shape-rendering="auto" solid-color="#000000" stroke-width=".34982" style="font-feature-settings:normal;font-variant-alternates:normal;font-variant-caps:normal;font-variant-ligatures:normal;font-variant-numeric:normal;font-variant-position:normal;isolation:auto;mix-blend-mode:normal;shape-padding:0;text-decoration-color:#000000;text-decoration-line:none;text-decoration-style:solid;text-indent:0;text-orientation:mixed;text-transform:none;white-space:normal"/>
 </g>
</svg>
