<?xml version="1.0" encoding="UTF-8"?>
<svg version="1.1" viewBox="0 0 40 40" xmlns="http://www.w3.org/2000/svg">
 <path d="m6.2979 7.8235c-1.0886-9.76e-5 -1.7153 1.0447-1.4539 1.9473v20.46c-0.26137 0.90261 0.36537 1.9457 1.4539 1.9456h27.399c1.0742 1.67e-4 1.7024-1.0163 1.468-1.9106v-20.53c0.23443-0.89425-0.39378-1.9125-1.468-1.9124z" fill="none" stroke="#fff" stroke-linejoin="round" stroke-width="3.5832"/>
 <g transform="matrix(1.0878 0 0 1.0878 2.6125 3.4306)">
  <path d="m4.2769 3.9619h23.461c1.2534 0 2.2624 1.0091 2.2624 2.2624v17.864c0 1.2534-1.0091 2.2624-2.2624 2.2624h-23.461c-1.2534 0-2.2624-1.0091-2.2624-2.2624v-17.864c0-1.2534 1.0091-2.2624 2.2624-2.2624z" fill="#ddd" stroke-width=".34982"/>
  <path d="m3.4024 24.251 12.594-13.293 12.594 13.293" fill="none" stroke="#aaa" stroke-linecap="round" stroke-linejoin="round" stroke-width="2.7986"/>
  <path d="m3.4024 26.35c-1.2868 1.15e-4 -1.8917-1.5904-0.92989-2.4453l12.594-11.194c0.53026-0.47149 1.3295-0.47149 1.8598 0l12.594 11.194c0.96176 0.85496 0.35692 2.4455-0.92989 2.4453z" fill="#e9e9e9" fill-rule="evenodd" stroke-width=".34982" />
  <path d="m3.4024 6.0608 12.594 13.293 12.594-13.293" fill="none" stroke="#aaa" stroke-linecap="round" stroke-linejoin="round" stroke-width="2.7986"/>
  <path d="m3.4024 3.9619c-1.2868-1.154e-4 -1.8917 1.5904-0.92989 2.4453l12.594 11.194c0.53026 0.47149 1.3295 0.47149 1.8598 0l12.594-11.194c0.96176-0.85496 0.35692-2.4455-0.92989-2.4453z" fill="#fff" fill-rule="evenodd" stroke-width=".34982" />
 </g>
</svg>
