<?xml version="1.0" encoding="UTF-8"?>
<svg version="1.1" viewBox="0 0 40 40" xmlns="http://www.w3.org/2000/svg">
 <path d="m25.723 2.9999c-2.3761 3.503-5.1256 6.7724-8.1973 9.7637-1.0555 0.99523-2.1542 1.9911-3.3066 2.9863l0.0098 0.0078c-3.1851 2.7038-6.6562 5.1357-10.379 7.2461 0.19139 0.17316 0.38283 0.35191 0.57422 0.52539-0.22879 0.14202-0.45931 0.29839-0.6875 0.4375-0.22667 1.0767-0.453 2.0972-0.73633 3.1172 3.6268 3.2865 7.254 6.6295 10.881 9.916 3.7226-2.0461 7.5259-4.4851 11.105-7.1934v0.05273c1.19-0.90667 2.3804-1.8687 3.5137-2.832v-0.01953c3.2591-2.7857 6.1953-5.8065 8.5-8.9902-0.16992-1.416-0.39645-2.8339-0.56641-4.3066-0.1296-0.11706-0.25907-0.23631-0.38867-0.35352 0.12852-0.18506 0.26029-0.3683 0.38672-0.55469-3.5701-3.2868-7.139-6.5162-10.709-9.8027z" fill="none" stroke="#fff" stroke-linejoin="round" stroke-width="4"/>
 <g transform="matrix(.32816 0 0 .32816 -.43549 .0085052)" stroke-width="1.7268">
  <path d="m112.35 41.753c-10.706-9.6701-21.412-19.513-32.118-29.183-15.714 23.83-42.307 45.069-67.518 60.438-0.69072 3.2809-1.3814 6.3892-2.2448 9.4974 11.052 10.015 22.103 20.204 33.155 30.219 26.075-14.332 53.703-34.709 70.453-57.848-0.51804-4.317-1.2088-8.634-1.7268-13.124" fill="#699635"/>
  <path d="m45.694 99.946c-10.879-10.015-21.758-20.031-32.637-29.874 27.111-15.369 49.905-36.263 66.654-60.956 10.879 10.015 21.758 19.858 32.637 29.874-16.75 24.693-39.544 45.588-66.654 60.956" fill="#83bf4f"/>
  <path d="m42.931 93.384c-7.2526-6.5618-14.505-13.296-21.758-19.858 0.51804-0.34536 0.8634-0.51804 1.3814-0.8634 1.3814-0.8634 1.7268-2.4175 0.51804-3.6263l-1.0361-1.0361c21.93-13.469 40.925-30.737 55.776-50.768l1.0361 1.0361c1.2088 1.0361 2.9356 0.8634 3.9716-0.34536 0.34536-0.34536 0.51804-0.8634 0.8634-1.2088 7.2526 6.5618 14.505 13.296 21.758 19.858-0.34536 0.34536-0.51804 0.8634-0.8634 1.2088-1.0361 1.3814-0.8634 3.2809 0.34536 4.4897l1.0361 1.0361c-14.85 19.858-33.845 37.126-55.776 50.595l-1.0361-1.0361c-1.2088-1.0361-3.2809-1.2088-4.835-0.34536-0.51804 0.34536-0.8634 0.51804-1.3814 0.8634m-17.095-19.686c5.8711 5.3531 11.742 10.706 17.786 16.232 2.2448-0.69072 4.835-0.51804 6.9072 0.51804 20.031-12.778 37.472-28.665 51.459-47.142-1.2088-1.8995-1.3814-4.317-0.51804-6.3892-5.8711-5.3531-11.742-10.706-17.786-16.232-1.5541 1.3814-3.799 1.5541-5.6984 0.51804-13.987 18.649-31.428 34.536-51.459 47.314 1.0361 1.7268 0.8634 3.799-0.69072 5.1804" fill="#699635"/>
  <path d="m41.549 70.072c1.8995-0.69072 3.9716-0.51804 5.3531 0.69072-0.8634 0.69072-1.8995 1.3814-2.7629 2.0722-0.34536-0.34536-1.2088-0.34536-1.5541 0-0.51804 0.34536-0.69072 0.8634-0.17268 1.2088 0.34536 0.34536 1.2088 0.34536 1.7268 0 2.0722-1.3814 5.0077-1.5541 6.5618 0 1.2088 1.2088 1.3814 2.9356 0.17268 4.317 0.34536 0.34536 0.69072 0.51804 1.0361 0.8634-0.8634 0.51804-1.7268 1.2088-2.5902 1.7268-0.34536-0.34536-0.69072-0.69072-1.0361-0.8634-1.8995 0.51804-3.9716 0.34536-5.1804-0.8634 1.0361-0.69072 1.8995-1.2088 2.9356-1.8995 0.34536 0.34536 1.2088 0.34536 1.7268 0s0.51804-0.8634 0.17268-1.2088-1.0361-0.34536-1.5541 0c-1.2088 0.8634-2.7629 1.2088-4.1443 1.0361-1.0361-0.17268-1.8995-0.51804-2.5902-1.0361-1.2088-1.2088-1.2088-2.7629-0.17268-4.1443-0.34536-0.17268-0.51804-0.51804-0.8634-0.8634 0.8634-0.51804 1.7268-1.2088 2.5902-1.7268-0.17268 0.17268 0.17268 0.34536 0.34536 0.69072" fill="#699635"/>
  <path d="m81.611 33.119c1.5541-1.0361 3.4536-1.0361 4.6624 0.17268l-2.0722 2.5902c-0.34536-0.34536-1.0361-0.34536-1.3814 0.17268s-0.34536 1.2088 0 1.5541 1.0361 0.34536 1.3814-0.17268c1.5541-1.8995 4.1443-2.2448 5.6984-0.8634 1.2088 1.2088 1.5541 3.1082 0.8634 4.835 0.34536 0.34536 0.69072 0.51804 1.0361 0.8634-0.69072 0.8634-1.2088 1.5541-1.8995 2.4175-0.34536-0.34536-0.69072-0.69072-1.0361-0.8634-1.5541 0.8634-3.2809 0.8634-4.4897-0.34536 0.69072-0.8634 1.5541-1.7268 2.2448-2.5902 0.34536 0.34536 1.0361 0.34536 1.3814-0.17268s0.34536-1.2088 0-1.5541-1.0361-0.34536-1.3814 0.17268c-0.8634 1.0361-2.2448 1.7268-3.4536 1.7268-0.8634 0-1.7268-0.34536-2.4175-0.8634-1.2088-1.2088-1.5541-2.9356-0.8634-4.6624-0.34536-0.17268-0.51804-0.51804-0.8634-0.8634 0.69072-0.69072 1.3814-1.5541 1.8995-2.4175 0 0.34536 0.34536 0.51804 0.69072 0.8634" fill="#699635"/>
  <path d="m76.431 66.964c-5.5258 5.0077-14.85 4.835-20.204 0-5.3531-5.0077-5.0077-12.778 0.51804-17.786s14.16-5.5258 19.513-0.51804c5.5258 4.835 5.6984 13.296 0.17268 18.304" fill="#699635"/>
  <path d="m44.658 47.969 32.637 29.874c3.799-3.1082 7.2526-6.3892 10.706-9.8428l-32.464-29.874c-3.4536 3.2809-7.0799 6.5618-10.879 9.8428" fill="#ffdd7d"/>
  <path d="m77.467 90.967c3.6263-2.7629 7.2526-5.6984 10.706-8.634v-14.505c-3.4536 3.4536-7.0799 6.7345-10.706 9.8428v13.296" fill="#dbb471"/>
 </g>
</svg>
