<?xml version="1.0" encoding="UTF-8"?>
<svg version="1.1" viewBox="0 0 40 40" xmlns="http://www.w3.org/2000/svg">
 <path d="m25.422 3.8946c-2.2511 3.3186-4.8559 6.416-7.7659 9.2499-0.99995 0.94285-2.0408 1.8863-3.1326 2.8291l0.0093 0.0074c-3.0175 2.5615-6.3059 4.8654-9.8328 6.8648 0.18132 0.16405 0.36268 0.33339 0.544 0.49774-0.21675 0.13455-0.43514 0.28269-0.65132 0.41448-0.21474 1.02-0.42916 1.9868-0.69758 2.9531 3.4359 3.1135 6.8722 6.2806 10.308 9.3941 3.5267-1.9384 7.1298-4.2491 10.521-6.8148v0.04995c1.1274-0.85895 2.2551-1.7704 3.3288-2.683v-0.0185c3.0876-2.6391 5.8693-5.5009 8.0527-8.5171-0.16098-1.3415-0.37559-2.6848-0.5366-4.08-0.12278-0.1109-0.24544-0.22387-0.36822-0.33492 0.12176-0.17532 0.24659-0.34892 0.36637-0.5255-3.3822-3.1138-6.7633-6.1733-10.145-9.2868z" fill="none" stroke="#fff" stroke-linejoin="round" stroke-width="3.7895"/>
 <g transform="matrix(.31089 0 0 .31089 .63984 1.0607)" stroke-width="1.7268">
  <path d="m112.35 41.753c-10.706-9.6701-21.412-19.513-32.118-29.183-15.714 23.83-42.307 45.069-67.518 60.438-0.69072 3.2809-1.3814 6.3892-2.2448 9.4974 11.052 10.015 22.103 20.204 33.155 30.219 26.075-14.332 53.703-34.709 70.453-57.848-0.51804-4.317-1.2088-8.634-1.7268-13.124" fill="#699635"/>
  <path d="m45.694 99.946c-10.879-10.015-21.758-20.031-32.637-29.874 27.111-15.369 49.905-36.263 66.654-60.956 10.879 10.015 21.758 19.858 32.637 29.874-16.75 24.693-39.544 45.588-66.654 60.956" fill="#83bf4f"/>
  <path d="m42.931 93.384c-7.2526-6.5618-14.505-13.296-21.758-19.858 0.51804-0.34536 0.8634-0.51804 1.3814-0.8634 1.3814-0.8634 1.7268-2.4175 0.51804-3.6263l-1.0361-1.0361c21.93-13.469 40.925-30.737 55.776-50.768l1.0361 1.0361c1.2088 1.0361 2.9356 0.8634 3.9716-0.34536 0.34536-0.34536 0.51804-0.8634 0.8634-1.2088 7.2526 6.5618 14.505 13.296 21.758 19.858-0.34536 0.34536-0.51804 0.8634-0.8634 1.2088-1.0361 1.3814-0.8634 3.2809 0.34536 4.4897l1.0361 1.0361c-14.85 19.858-33.845 37.126-55.776 50.595l-1.0361-1.0361c-1.2088-1.0361-3.2809-1.2088-4.835-0.34536-0.51804 0.34536-0.8634 0.51804-1.3814 0.8634m-17.095-19.686c5.8711 5.3531 11.742 10.706 17.786 16.232 2.2448-0.69072 4.835-0.51804 6.9072 0.51804 20.031-12.778 37.472-28.665 51.459-47.142-1.2088-1.8995-1.3814-4.317-0.51804-6.3892-5.8711-5.3531-11.742-10.706-17.786-16.232-1.5541 1.3814-3.799 1.5541-5.6984 0.51804-13.987 18.649-31.428 34.536-51.459 47.314 1.0361 1.7268 0.8634 3.799-0.69072 5.1804" fill="#699635"/>
  <path d="m41.549 70.072c1.8995-0.69072 3.9716-0.51804 5.3531 0.69072-0.8634 0.69072-1.8995 1.3814-2.7629 2.0722-0.34536-0.34536-1.2088-0.34536-1.5541 0-0.51804 0.34536-0.69072 0.8634-0.17268 1.2088 0.34536 0.34536 1.2088 0.34536 1.7268 0 2.0722-1.3814 5.0077-1.5541 6.5618 0 1.2088 1.2088 1.3814 2.9356 0.17268 4.317 0.34536 0.34536 0.69072 0.51804 1.0361 0.8634-0.8634 0.51804-1.7268 1.2088-2.5902 1.7268-0.34536-0.34536-0.69072-0.69072-1.0361-0.8634-1.8995 0.51804-3.9716 0.34536-5.1804-0.8634 1.0361-0.69072 1.8995-1.2088 2.9356-1.8995 0.34536 0.34536 1.2088 0.34536 1.7268 0s0.51804-0.8634 0.17268-1.2088-1.0361-0.34536-1.5541 0c-1.2088 0.8634-2.7629 1.2088-4.1443 1.0361-1.0361-0.17268-1.8995-0.51804-2.5902-1.0361-1.2088-1.2088-1.2088-2.7629-0.17268-4.1443-0.34536-0.17268-0.51804-0.51804-0.8634-0.8634 0.8634-0.51804 1.7268-1.2088 2.5902-1.7268-0.17268 0.17268 0.17268 0.34536 0.34536 0.69072" fill="#699635"/>
  <path d="m81.611 33.119c1.5541-1.0361 3.4536-1.0361 4.6624 0.17268l-2.0722 2.5902c-0.34536-0.34536-1.0361-0.34536-1.3814 0.17268s-0.34536 1.2088 0 1.5541 1.0361 0.34536 1.3814-0.17268c1.5541-1.8995 4.1443-2.2448 5.6984-0.8634 1.2088 1.2088 1.5541 3.1082 0.8634 4.835 0.34536 0.34536 0.69072 0.51804 1.0361 0.8634-0.69072 0.8634-1.2088 1.5541-1.8995 2.4175-0.34536-0.34536-0.69072-0.69072-1.0361-0.8634-1.5541 0.8634-3.2809 0.8634-4.4897-0.34536 0.69072-0.8634 1.5541-1.7268 2.2448-2.5902 0.34536 0.34536 1.0361 0.34536 1.3814-0.17268s0.34536-1.2088 0-1.5541-1.0361-0.34536-1.3814 0.17268c-0.8634 1.0361-2.2448 1.7268-3.4536 1.7268-0.8634 0-1.7268-0.34536-2.4175-0.8634-1.2088-1.2088-1.5541-2.9356-0.8634-4.6624-0.34536-0.17268-0.51804-0.51804-0.8634-0.8634 0.69072-0.69072 1.3814-1.5541 1.8995-2.4175 0 0.34536 0.34536 0.51804 0.69072 0.8634" fill="#699635"/>
  <path d="m76.431 66.964c-5.5258 5.0077-14.85 4.835-20.204 0-5.3531-5.0077-5.0077-12.778 0.51804-17.786s14.16-5.5258 19.513-0.51804c5.5258 4.835 5.6984 13.296 0.17268 18.304" fill="#699635"/>
  <path d="m44.658 47.969 32.637 29.874c3.799-3.1082 7.2526-6.3892 10.706-9.8428l-32.464-29.874c-3.4536 3.2809-7.0799 6.5618-10.879 9.8428" fill="#ffdd7d"/>
  <path d="m77.467 90.967c3.6263-2.7629 7.2526-5.6984 10.706-8.634v-14.505c-3.4536 3.4536-7.0799 6.7345-10.706 9.8428v13.296" fill="#dbb471"/>
 </g>
</svg>
