<?xml version="1.0" encoding="UTF-8"?>
<svg version="1.1" viewBox="0 0 40 40" xmlns="http://www.w3.org/2000/svg">
 <g transform="matrix(.89473 0 0 .89473 2.1055 2.1053)">
  <path d="m8.1129 2.7273h23.774c2.0267 0 3.6584 1.6316 3.6584 3.6584v27.229c0 2.0267-1.6316 3.6584-3.6584 3.6584h-23.774c-2.0267 0-3.6584-1.6316-3.6584-3.6584v-27.229c0-2.0267 1.6316-3.6584 3.6584-3.6584z" fill="#495aad" stroke="#fff" stroke-opacity=".98995" stroke-width="3.4546"/>
  <path d="m11.418 26.861v-17.273h5.1818s5.1818 0 5.1818 5.1818-5.1818 5.1818-5.1818 5.1818h-5.1818" fill="none" stroke="#fff" stroke-linecap="square" stroke-width="3.4546"/>
  <path d="m24.013 22.664a0.52591 0.52591 0 1 0 0 1.0517h1.7505l0.57414 1.4037c-0.26368-0.02409-0.58092 0.0253-0.94663 0.15543-0.97056 0.46006-1.989 1.1608-2.2236 2.122h-0.96032c-0.6099-0.64509-1.3315-1.0307-2.061-1.2109-0.82952-0.20498-1.6583-0.19738-2.4489-0.19136a0.70123 0.70123 0 0 0-0.63201 1.0089c-0.04403 0.01665-0.08804 0.03329-0.13215 0.05169-1.0218 0.42625-2.0026 1.3879-2.3996 2.9761l1.0422 0.26055c-0.04152 0.19727-0.06402 0.4016-0.06402 0.61076 0 1.6387 1.3412 2.9799 2.9799 2.9799 1.4591 0 2.6796-1.0643 2.9303-2.4541h3.2925a0.52591 0.52591 0 0 0 0.44814-0.25061l0.64742-1.0531 0.55359 0.13832c-0.04562 0.20631-0.07155 0.42003-0.07155 0.63952 0 1.6387 1.3412 2.9799 2.9799 2.9799s2.9799-1.3412 2.9799-2.9799c0-1.077-0.58136-2.0228-1.4437-2.5465l0.66759-0.79532c-0.60636-0.5089-1.442-0.70961-2.3294-0.63438-0.28594 0.02423-0.57704 0.07765-0.86787 0.15816l-0.41905-1.024c0.4956 0.26255 1.2043 0.42899 1.5605 0.42899v-2.1035c-0.46563 0-1.5335 0.32139-1.9395 0.74804l-0.87681-2.1435a0.52591 0.52591 0 0 0-0.48683-0.3266zm-5.5217 6.4509c0.81113 0 1.4882 0.52772 1.7104 1.2619h-1.7981a0.52591 0.52591 0 1 0 0 1.0517h1.7981c-0.22238 0.734-0.89943 1.2619-1.7104 1.2619-0.99452 0-1.7878-0.79329-1.7878-1.7878 0-0.99452 0.79329-1.7878 1.7878-1.7878zm10.78 0c0.99452 0 1.7878 0.79329 1.7878 1.7878 0 0.99448-0.79329 1.7878-1.7878 1.7878-0.99452 0-1.7878-0.79329-1.7878-1.7878 0-0.56167 0.25318-1.0592 0.65252-1.3859l0.64842 1.5851a0.52604 0.52604 0 1 0 0.97366-0.39852l-0.64673-1.5807c0.05277-0.0046 0.10582-0.0079 0.15988-0.0079z" fill="#fff" stroke-width=".43182"/>
 </g>
</svg>
