<?xml version="1.0" encoding="UTF-8"?>
<svg version="1.1" viewBox="0 0 40 40" xmlns="http://www.w3.org/2000/svg">
 <path d="m15.208 3.0467h9.3319c2.438 0 4.4007 2.0219 4.4007 4.5333v24.933c0 2.5115-1.9627 4.5333-4.4007 4.5333h-9.3319c-2.438 0-4.4007-2.0219-4.4007-4.5333v-24.933c0-2.5115 1.9627-4.5333 4.4007-4.5333z" fill="none" stroke="#fefefe" stroke-width="4"/>
 <path d="m15.208 3.0467h9.3319c2.438 0 4.4007 2.0219 4.4007 4.5333v24.933c0 2.5115-1.9627 4.5333-4.4007 4.5333h-9.3319c-2.438 0-4.4007-2.0219-4.4007-4.5333v-24.933c0-2.5115 1.9627-4.5333 4.4007-4.5333z" fill="#888" stroke-width=".56667"/>
 <path d="m25.345 27.998a5.6518 5.6978 0 0 1-5.6518 5.6978 5.6518 5.6978 0 0 1-5.6518-5.6978 5.6518 5.6978 0 0 1 5.6518-5.6978 5.6518 5.6978 0 0 1 5.6518 5.6978" fill="#69ff69" stroke="#555" stroke-width="2.2667"/>
 <path d="m25.34 27.98s-2.5396 3.7577-5.6723 3.7577c-3.1328 0-5.6672-3.7378-5.6672-3.7378 0 3.1328 2.5344 5.6672 5.6672 5.6672 3.1328 0 5.6723-2.5544 5.6723-5.6871z" fill="#fff" fill-opacity=".37647" stroke-width=".56667"/>
 <path d="m25.538 12.13a5.6518 5.6978 0 0 1-5.6518 5.6978 5.6518 5.6978 0 0 1-5.6518-5.6978 5.6518 5.6978 0 0 1 5.6518-5.6978 5.6518 5.6978 0 0 1 5.6518 5.6978" fill="#ff6969" stroke="#555" stroke-width="2.2667"/>
 <path d="m25.538 12.113s-2.5396 3.7577-5.6723 3.7577c-3.1328 0-5.6672-3.7378-5.6672-3.7378 0 3.1328 2.5344 5.6672 5.6672 5.6672 3.1328 0 5.6723-2.5544 5.6723-5.6871z" fill="#fff" fill-opacity=".37647" stroke-width=".56667"/>
</svg>
