<?xml version="1.0" encoding="UTF-8"?>
<svg version="1.1" viewBox="0 0 40 40" xmlns="http://www.w3.org/2000/svg">
 <path d="m10.087 3c-6.148 1.0198-7.0725 4.5981-7.1096 4.7465 3.1063 13.416 18.984 26.261 28.549 29.254 2.9259-0.03115 5.3599-6.6302 5.4967-7.386-1.1218-2.2116-5.8923-5.6798-8.3615-5.4967-1.6567 1.4146-3.945 2.9228-4.9324 3.0783-6.6194-3.2368-10.315-9.4467-10.455-10.625-0.08113-0.66206 3.4825-3.7286 3.3315-5.324-1.4462-3.6391-3.8419-6.8332-6.5189-8.2466z" fill="none" stroke="#fcfcfc" stroke-linejoin="round" stroke-width="4"/>
 <path d="m10.087 3c-6.148 1.0198-7.0725 4.5981-7.1096 4.7465 3.1063 13.416 18.984 26.261 28.549 29.254 2.9259-0.03115 5.3599-6.6302 5.4967-7.386-1.1218-2.2116-5.8923-5.6798-8.3615-5.4967-1.6567 1.4146-3.945 2.9228-4.9324 3.0783-6.6194-3.2368-10.315-9.4467-10.455-10.625-0.08113-0.66206 3.4825-3.7286 3.3315-5.324-1.4462-3.6391-3.8419-6.8332-6.5189-8.2466z" fill="#444" stroke-width=".39883"/>
</svg>
