<?xml version="1.0" encoding="UTF-8"?>
<svg version="1.1" viewBox="0 0 40 40" xmlns="http://www.w3.org/2000/svg">
 <path d="m10.609 3.8947c-5.8244 0.96612-6.7002 4.356-6.7353 4.4966 2.9428 12.71 17.985 24.879 27.046 27.714 2.7719-0.02951 5.0777-6.2812 5.2073-6.9972-1.0627-2.0952-5.5821-5.3808-7.9213-5.2073-1.5695 1.3401-3.7373 2.7689-4.6727 2.9162-6.2709-3.0664-9.772-8.9494-9.9046-10.066-0.07686-0.62721 3.2992-3.5323 3.1561-5.0437-1.3701-3.4475-3.6397-6.4735-6.1757-7.8125z" fill="none" stroke="#fcfcfc" stroke-linejoin="round" stroke-width="3.7894"/>
 <path d="m10.609 3.8947c-5.8244 0.96612-6.7002 4.356-6.7353 4.4966 2.9428 12.71 17.985 24.879 27.046 27.714 2.7719-0.02951 5.0777-6.2812 5.2073-6.9972-1.0627-2.0952-5.5821-5.3808-7.9213-5.2073-1.5695 1.3401-3.7373 2.7689-4.6727 2.9162-6.2709-3.0664-9.772-8.9494-9.9046-10.066-0.07686-0.62721 3.2992-3.5323 3.1561-5.0437-1.3701-3.4475-3.6397-6.4735-6.1757-7.8125z" fill="#444" stroke-width=".37784"/>
</svg>
