<?xml version="1.0" encoding="UTF-8"?>
<svg version="1.1" viewBox="0 0 40 40" xmlns="http://www.w3.org/2000/svg">
 <path d="m9 12v3h6l-3.4609 5h-7.1797c-0.75344 0-1.3594 0.60594-1.3594 1.3594v0.28125c0 0.75344 0.60594 1.3594 1.3594 1.3594h5.1016l-3.4609 5h3l3.4609-5h15.078l3.4609 5h3l-3.4609-5h5.1016c0.75344 0 1.3594-0.60594 1.3594-1.3594v-0.28125c0-0.75344-0.60594-1.3594-1.3594-1.3594h-7.1797l-3.4609-5h6v-3zm9 3h4l3.4609 5h-10.922z" fill="none" stroke="#fff" stroke-linejoin="round" stroke-width="4"/>
 <g transform="matrix(1.2143 0 0 1.2143 .57143 .57143)">
  <path d="m14.353 11.882-7.4118 10.706h-2.4706l7.4118-10.706z" fill="#896847" stroke-width=".28"/>
  <path d="m17.647 11.882 7.4118 10.706h2.4706l-7.4118-10.706z" fill="#896847" stroke-width=".28"/>
  <rect x="6.9412" y="9.4118" width="18.118" height=".82353" fill="#ae8862" stroke-width=".28"/>
  <rect x="2" y="16" width="28" height="2.4706" ry="1.12" fill="#ae8862" stroke-width=".28"/>
  <path d="m2 17.235c0 0.68435 0.49952 1.2353 1.12 1.2353h25.76c0.62048 0 1.12-0.55094 1.12-1.2353z" fill="#896847" stroke-width="1.0502"/>
  <rect x="6.9412" y="10.235" width="18.118" height="1.6471" fill="#896847" stroke-width=".28"/>
 </g>
</svg>
