<?xml version="1.0" encoding="UTF-8"?>
<svg version="1.1" viewBox="0 0 40 40" xmlns="http://www.w3.org/2000/svg">
 <g transform="translate(-.21506 .011821)" stroke="#fff" stroke-width="4">
  <path d="m27 3c-0.03737 8.403e-4 -0.0746 0.00476-0.11133 0.011719l-13.602 2.7207c-0.23912 0.047773-0.43437 0.21992-0.51172 0.45117l-5.4395 16.32c-0.16631 0.49607 0.26642 0.98628 0.7793 0.88281l5.8164-1.1641-2.5391 13.975c-0.12093 0.66615 0.69972 1.0806 1.1641 0.58789l20.4-21.762c0.44954-0.4825 0.01814-1.2582-0.62891-1.1309l-12.092 2.4199 7.3672-12.283c0.27622-0.46104-0.0663-1.0452-0.60352-1.0293z" fill="none" stroke="#fff" stroke-linejoin="round" stroke-width="4"/>
 </g>
 <path d="m13.2 6.4-5.44 16.32 6.8-1.36-2.72 14.96 20.4-21.76-13.6 2.72 8.16-13.6z" fill="#fd5" stroke="#fac800" stroke-linejoin="round" stroke-width="1.36"/>
</svg>
