<?xml version="1.0" encoding="UTF-8"?>
<svg version="1.1" viewBox="0 0 40 40" xmlns="http://www.w3.org/2000/svg">
 <path d="m8.0703 14.937v17.877c6.9509 5.5854 16.94 5.22 23.859 0v-17.877c-0.31356-15.461-23.265-15.355-23.859-1e-6z" fill="none" stroke="#fff" stroke-linejoin="round" stroke-width="4"/>
 <g transform="matrix(1.1484 0 0 1.1484 1.0559 1.4389)" stroke-width=".2597">
  <path d="m16.496 1.3599c-5.7371 0-10.388 4.651-10.388 10.388v15.567c2.8458 2.2823 6.4562 3.6507 10.388 3.6507 3.9319 0 7.542-1.3683 10.388-3.6507v-15.567c0-5.7371-4.651-10.388-10.388-10.388z" fill="#5a8049"/>
  <path d="m16.496 1.3599c-0.20323 0-0.40633 0.00832-0.6091 0.021247 5.5604 0.23018 6.8353 4.8016 6.8419 10.367v18.005c1.5079-0.61064 2.9053-1.4353 4.1552-2.4377v-15.567c0-5.7371-4.651-10.388-10.388-10.388z" fill="#49653a"/>
  <path d="m16.496 1.3599c-5.7371 0-10.388 4.651-10.388 10.388v15.567c1.25 1.0024 2.6474 1.8271 4.1552 2.4377v-18.005c0.0066-5.5651 1.2816-10.137 6.8419-10.367-0.20277-0.012999-0.40587-0.020257-0.60917-0.021247z" fill="#6b9357"/>
  <path d="m16.496 1.3599a10.388 10.388 0 0 0-10.388 10.388h20.776a10.388 10.388 0 0 0-10.388-10.388z" fill="#72a85a" fill-opacity=".29293"/>
  <path d="m19.663 7.5954a3.1164 2.5403 0 0 1-3.1165 2.5403 3.1164 2.5403 0 0 1-3.1164-2.5403 3.1164 2.5403 0 0 1 3.1164-2.5403 3.1164 2.5403 0 0 1 3.1165 2.5403" fill="#262626"/>
  <path d="m21.509 24.897c-0.1408 0-0.27715-0.07323-0.35158-0.20392l-1.7135-2.8219c-0.11126-0.1942-0.06757-0.43698 0.12623-0.54782l2.006-1.2138c0.06312-0.03641 0.20068-0.06757 0.26866-0.06757 0.1408 0 0.27188 0.08011 0.34673 0.2108l1.2571 2.0723 0.06635 0.90306c0.11086 0.1938-0.3876 0.47904-0.58139 0.58991l-1.2243 1.0256c-0.06312 0.03641-0.1323 0.05341-0.20027 0.05341" fill="#ddd"/>
  <path d="m18.272 21.66c-0.10518 0-0.20884 0.04146-0.28614 0.11874l-2.4276 2.4273c-0.15819 0.1582-0.15819 0.41407 0 0.57228l2.4276 2.4276c0.07729 0.07728 0.18095 0.11846 0.28614 0.11846 0.05219 0 0.10486-0.0097 0.15503-0.03078 0.15132-0.0623 0.24957-0.21036 0.24957-0.37381v-0.8092h3.2369c0.15335 0 0.29318-0.08647 0.35182-0.2034l1.2498-2.4771c0.20634-0.38558 0.11857-0.765-0.01379-1.0134-0.01941-0.03641-0.15172-0.26331-0.15172-0.26331s0.12125 0.72041-0.62723 0.72041h-4.0456v-0.8092c0-0.16346-0.09826-0.31151-0.24957-0.37382-0.05013-0.02104-0.10279-0.03078-0.15499-0.03078z" fill="#fff"/>
  <path d="m17.702 14.499c0.06393 0.12543 0.06069 0.27998-0.02185 0.40622l-1.7365 2.8079c-0.12259 0.18733-0.35847 0.25854-0.5454 0.13594l-1.9926-1.2356c-0.06069-0.04005-0.15091-0.14849-0.18166-0.20918-0.06433-0.12502-0.05219-0.27835 0.03035-0.4042l1.2753-2.061 0.7744-0.46892c0.12259-0.18773 0.60284 0.12745 0.79017 0.25004l1.4691 0.6251c0.0615 0.03965 0.10802 0.09387 0.13878 0.15374" fill="#ddd"/>
  <path d="m18.259 13.366-2.7741 0.01182c-0.43739-0.0089-0.73519 0.2416-0.89662 0.47222-0.02348 0.03358-0.16602 0.25453-0.16602 0.25453s0.58726-0.43547 0.92714 0.23171l1.8369 3.6047-0.72124 0.3675c-0.14525 0.07445-0.23256 0.22891-0.21961 0.39197 0.0045 0.05462 0.01941 0.10615 0.04286 0.15228 0.04816 0.09387 0.13146 0.16735 0.23584 0.20093l3.2652 1.061c0.2124 0.06919 0.44095-0.04734 0.50933-0.25975l1.061-3.2657c0.03399-0.10398 0.02328-0.21466-0.02446-0.30814-0.02387-0.04653-0.05645-0.08944-0.0973-0.12424-0.12502-0.10681-0.3006-0.12694-0.44666-0.0525l-0.72096 0.36722-1.4697-2.8842c-0.06998-0.13675-0.20988-0.22127-0.34137-0.22127z" fill="#fff"/>
  <path d="m10.736 23.094c0.07323-0.12016 0.20634-0.19825 0.35686-0.1938l3.3016 0.0016c0.22374 0.0069 0.40822 0.16993 0.40256 0.39327l-0.0057 2.3446c-2e-3 0.07283-0.04693 0.20715-0.08213 0.26461-0.07283 0.12016-0.20958 0.19097-0.3601 0.18652l-2.4239-0.0032-0.80635-0.41189c-0.22293-0.0069-0.20715-0.58059-0.20149-0.80352l-0.23993-1.5795c0.0016-0.07242 0.02306-0.14039 0.05867-0.19866" fill="#ddd"/>
  <path d="m14.011 18.06c-0.02685 0.0011-0.05398 0.0046-0.08109 0.01128l-3.3361 0.81141c-0.10641 0.0267-0.19483 0.09298-0.24985 0.18361-0.02711 0.04451-0.04592 0.09379-0.05442 0.1476-0.02508 0.16143 0.05035 0.32239 0.18993 0.40817l0.69127 0.42053-1.6822 2.7648c-0.07971 0.13109-0.078936 0.29541-0.00929 0.40708l1.4664 2.3551c0.22252 0.37628 0.59194 0.49889 0.87351 0.51426 0.04127 0.0023 0.30401 0.0077 0.30401 0.0077s-0.67881-0.2711-0.28998-0.91036l2.1027-3.4564 0.69127 0.42054c0.13998 0.08496 0.31722 0.0776 0.44913-0.01869 0.04369-0.03237 0.07967-0.07244 0.10636-0.11654 0.05503-0.09023 0.07373-0.19939 0.04783-0.30619l-0.81196-3.3356c-0.04637-0.19046-0.21972-0.3158-0.4076-0.3084z" fill="#fff"/>
 </g>
</svg>
