<?xml version="1.0" encoding="UTF-8"?>
<svg version="1.1" viewBox="0 0 40 40" xmlns="http://www.w3.org/2000/svg">
 <path d="m28.254 6.3208a0.76326 0.76326 0 0 0-0.33984 0.10156l-24.516 14.113-0.019531 0.0098v2e-3a0.76326 0.76326 0 0 0-0.1582 0.12109 0.76326 0.76326 0 0 0 0.13281 1.1836s0.00195 2e-3 0.00195 2e-3a0.76326 0.76326 0 0 0 0.23828 0.09766c0.926 0.54038 1.9605 0.8824 3.0176 1.1367l-0.66796 0.38463a0.76326 0.76326 0 0 0-0.37891 0.71289c0.1192 1.6889 0.81588 3.399 2.6406 4.5566a0.76326 0.76326 0 0 0 0.79102 0.01758l3.498-2.0195c0.41789 0.45956 0.88856 0.89882 1.459 1.2949a0.76326 0.76326 0 0 0 0.81836 0.0332l5.2441-3.0273a3.8159 3.8159 0 0 0 4.0059 1.1484l5.5371 4.5566a1.9082 1.9082 0 0 0 1.2129 0.43555h3.0898v2.498h3.1348v-9.0664h-3.1348v2.752h-2.4062l-4.8359-3.9785a3.8159 3.8159 0 0 0-0.11523-2.0938l5.4512-3.1465a0.76326 0.76326 0 0 0 0.2793-1.041l-1.1641-2.0137 0.86523-0.50195a0.76326 0.76326 0 0 0 0.28906-1.0234c-0.3847-0.71322-0.41853-1.8964-0.7207-3.2402-0.30217-1.3439-1.0125-2.8572-2.8262-3.9043a0.76326 0.76326 0 0 0-0.34961-0.10156 0.76326 0.76326 0 0 0-0.07422 0z" fill="none" stroke="#fff" stroke-linejoin="round" stroke-width="4"/>
 <g transform="matrix(1.1333 0 0 1.1333 .73337 .90769)">
  <path d="m21.449 18.687-2.1388 2.6002 6.1267 5.0411a1.6837 1.6837 0 0 0 1.0697 0.38356h3.0443c0.60637-1.0589 1.108-2.185 1.4873-3.3668h-3.9275z" fill="#666" stroke-width=".2766"/>
  <path d="m11.042 21.633-2.0202-3.4991-4.0853 2.3587c0.095915 1.3589 0.58302 2.5873 2.0202 3.4991z" fill="#333" stroke="#333" stroke-linejoin="round" stroke-width="1.3468"/>
  <path d="m27.215 14.628-3.367-5.8318-15.163 8.7544c0.53298 2.1797 1.1805 4.3135 3.367 5.8318z" fill="#66666f" stroke="#666" stroke-linejoin="round" stroke-width="1.3468"/>
  <circle transform="rotate(-30)" cx="7.3957" cy="26.313" r="3.367" fill="#666" fill-rule="evenodd" stroke-width=".3367"/>
  <path d="m2.6733 17.911 21.649-12.462c2.8741 1.6593 1.9639 4.3529 2.874 6.0402l-15.324 8.8864c-2.2295-1.2101-6.5775-0.80736-9.1988-2.4648z" fill="#ccc" stroke="#999" stroke-linejoin="round" stroke-width="1.3468"/>
  <circle transform="rotate(15)" cx="23.812" cy="13.333" r="1.5362" fill="#444" fill-rule="evenodd" stroke-width=".3367"/>
  <rect x="29.234" y="20.917" width="2.766" height="8" fill="#666" fill-rule="evenodd"/>
 </g>
</svg>
