<?xml version="1.0" encoding="UTF-8"?>
<svg version="1.1" viewBox="0 0 40 40" xmlns="http://www.w3.org/2000/svg">
 <path d="m19.963 2.9998a0.86388 0.86388 0 0 0-0.85086 0.87616v32.248a0.86388 0.86388 0 1 0 1.7276 0v-32.248a0.86388 0.86388 0 0 0-0.87673-0.87616zm-8.6958 5.4825c-1.2773 0-2.313 1.0355-2.313 2.313 0 1.2775 1.0357 2.313 2.313 2.313 1.2775 0 2.3136-1.0355 2.3136-2.313 0-1.2775-1.036-2.313-2.3136-2.313zm17.334 0c-1.2773 0-2.3136 1.0355-2.3136 2.313 0 1.2775 1.0363 2.313 2.3136 2.313 1.2775 0 2.313-1.0355 2.313-2.313 0-1.2775-1.0355-2.313-2.313-2.313zm-1.1517 5.4701v5.76e-4c-0.81579 0-1.4832 0.69632-1.9767 1.1461-1.318 1.0859-1.3849 3.1547-2.7736 4.1351-1.3116 0.84487-0.0066 2.8023 1.2777 1.9165 1.4856-1.0413 1.6849-2.8032 2.7657-4.0513 0.04526 3.1839-2.6957 5.8897-2.7483 8.6582 5.7e-5 0.63604 0.51568 1.1517 1.1517 1.1517h0.84186l-0.266 3.4552c-0.02188 1.5575 2.3255 1.5575 2.3034 0v-3.4552h1.1517v3.4552c-0.02188 1.5575 2.3255 1.5575 2.3034 0l-0.266-3.4552h0.84186c0.63604-6.4e-5 1.1517-0.51568 1.1517-1.1517-0.41799-3.1779-2.5153-5.7871-2.7494-8.6745 1.1404 1.2824 1.4977 3.2234 2.7202 4.0676 1.2843 0.88573 2.5893-1.0717 1.2777-1.9165-1.3798-1.2105-1.4743-2.9982-2.7241-4.1401-0.49705-0.44785-1.1637-1.1416-1.9795-1.1416-1.0539 0.5166-1.6608 0.22596-2.3034 0zm-17.679 5.76e-4c-1.2281 0-2.2176 0.74695-2.8354 1.6016-0.61781 0.85466-0.99457 1.861-1.2704 2.836-0.55164 1.9501-0.66359 3.8398-0.66359 3.8398-0.11543 1.549 2.2187 1.6963 2.2989 0.14509 0 0 0.11442-1.7094 0.58092-3.3584 0.26072-0.82066 0.57418-1.6244 1.0443-2.2641l-1.0471 13.611c-0.02188 1.5575 2.3255 1.5575 2.3034 0l0.57586-6.9103h1.1517l0.57586 6.9103c-0.02188 1.5575 2.3255 1.5575 2.3034 0l-1.0471-13.611c0.50276 0.68147 0.84316 1.5651 1.0443 2.2641 0.4665 1.6491 0.58092 3.3584 0.58092 3.3584 0.08024 1.5512 2.4144 1.4039 2.2989-0.14509 0 0-0.11194-1.8897-0.66359-3.8398-0.27581-0.97502-0.65257-1.9813-1.2704-2.836-0.61781-0.85466-1.6074-1.6016-2.8354-1.6016-1.0631 0.3968-2.1037 0.37082-3.1256 0z" fill="none" stroke="#fff" stroke-linejoin="round" stroke-width="4" />
 <path d="m19.964 2.9998a0.86388 0.86388 0 0 0-0.85086 0.87616v32.248a0.86388 0.86388 0 1 0 1.7276 0v-32.248a0.86388 0.86388 0 0 0-0.87673-0.87616zm-8.6958 5.4825c-1.2773 0-2.313 1.0355-2.313 2.313 0 1.2775 1.0357 2.313 2.313 2.313 1.2775 0 2.3136-1.0355 2.3136-2.313 0-1.2775-1.036-2.313-2.3136-2.313zm17.334 0c-1.2773 0-2.3136 1.0355-2.3136 2.313 0 1.2775 1.0363 2.313 2.3136 2.313 1.2775 0 2.313-1.0355 2.313-2.313 0-1.2775-1.0355-2.313-2.313-2.313zm-1.1517 5.4701v5.76e-4c-0.81579 0-1.4832 0.69632-1.9767 1.1461-1.318 1.0859-1.3849 3.1547-2.7736 4.1351-1.3116 0.84487-0.0066 2.8023 1.2777 1.9165 1.4856-1.0413 1.6849-2.8032 2.7657-4.0513 0.04526 3.1839-2.6957 5.8897-2.7483 8.6582 5.7e-5 0.63604 0.51568 1.1517 1.1517 1.1517h0.84186l-0.266 3.4552c-0.02188 1.5575 2.3255 1.5575 2.3034 0v-3.4552h1.1517v3.4552c-0.02188 1.5575 2.3255 1.5575 2.3034 0l-0.266-3.4552h0.84186c0.63604-6.4e-5 1.1517-0.51568 1.1517-1.1517-0.41799-3.1779-2.5153-5.7871-2.7494-8.6745 1.1404 1.2824 1.4977 3.2234 2.7202 4.0676 1.2843 0.88573 2.5893-1.0717 1.2777-1.9165-1.3798-1.2105-1.4743-2.9982-2.7241-4.1401-0.49705-0.44785-1.1637-1.1416-1.9795-1.1416-1.0539 0.5166-1.6608 0.22596-2.3034 0zm-17.679 5.76e-4c-1.2281 0-2.2176 0.74695-2.8354 1.6016-0.61781 0.85466-0.99457 1.861-1.2704 2.836-0.55165 1.9501-0.66359 3.8398-0.66359 3.8398-0.11543 1.549 2.2187 1.6963 2.2989 0.14509 0 0 0.11442-1.7094 0.58092-3.3584 0.26072-0.82066 0.57418-1.6244 1.0443-2.2641l-1.0471 13.611c-0.02188 1.5575 2.3255 1.5575 2.3034 0l0.57586-6.9103h1.1517l0.57586 6.9103c-0.02188 1.5575 2.3255 1.5575 2.3034 0l-1.0471-13.611c0.50276 0.68147 0.84316 1.5651 1.0443 2.2641 0.4665 1.6491 0.58092 3.3584 0.58092 3.3584 0.08024 1.5512 2.4144 1.4039 2.2989-0.14509 0 0-0.11194-1.8897-0.66359-3.8398-0.27581-0.97502-0.65257-1.9813-1.2704-2.836-0.61781-0.85466-1.6074-1.6016-2.8354-1.6016-1.0631 0.3968-2.1037 0.37082-3.1256 0z" fill="#444" stroke-width=".28793" />
</svg>
