<?xml version="1.0" encoding="UTF-8"?>
<svg version="1.1" viewBox="0 0 40 40" xmlns="http://www.w3.org/2000/svg">
 <path d="m31.407 25.658c0 6.2643-5.0782 11.342-11.342 11.342-6.2643 0-11.342-5.0782-11.342-11.342 0-5.9376 11.278-19.662 11.278-22.658 0 2.8947 11.407 16.415 11.407 22.658z" fill="none" stroke="#fff" stroke-linejoin="round" stroke-width="4"/>
 <path d="m31.342 25.658c0 6.2643-5.0782 11.342-11.342 11.342-6.2643 0-11.342-5.0782-11.342-11.342 0-5.9376 11.278-19.662 11.278-22.658 0 2.8947 11.407 16.415 11.407 22.658z" fill="#3581c8" stroke-width=".82454"/>
 <path d="m20.327 7.3948c2.7849 5.9211 13.627 15.859 5.7943 17.57-7.8327 1.7101-5.4221-12.717-5.7943-17.57z" fill="#529add" stroke-width=".82454"/>
 <path d="m19.935 3c1.5731 13.852-5.6203 33.749 1.302 33.897 5.384-0.31101 10.105-5.1286 10.105-11.24-0.31348-6.7085-7.9429-14.41-11.407-22.658z" fill="#529add" fill-opacity=".6129" stroke-width="1.0478"/>
 <path d="m20.784 8.3265c2.7849 5.9211 9.2983 12.407 4.609 12.983-4.6892 0.57717-4.2368-8.1311-4.609-12.983z" fill="#87bce1" stroke-width=".82454"/>
 <path d="m13.307 19.09c-7.7515 8.7268-0.27577 15.91 5.1724 16.45-2.3113-1.8127-8.0234-6.0504-5.1724-16.45z" fill="#2b68a3" stroke-width=".82454"/>
</svg>
