<?xml version="1.0" encoding="utf-8"?>
<!-- Generator: Adobe Illustrator 25.2.3, SVG Export Plug-In . SVG Version: 6.00 Build 0)  -->
<svg version="1.1" id="Layer_1" xmlns="http://www.w3.org/2000/svg" xmlns:xlink="http://www.w3.org/1999/xlink" x="0px" y="0px"
	 viewBox="0 0 2000 1000" style="enable-background:new 0 0 2000 1000;" xml:space="preserve">
<style type="text/css">
	.st0{fill:#E44848;stroke:#AA0000;stroke-width:5;stroke-miterlimit:10;}
	.st1{fill:#E0D8D8;stroke:#916F6F;stroke-width:5;stroke-miterlimit:10;}
</style>
<g>
	<g>
		<g>
			<g>
				<line class="st0" x1="333" y1="89" x2="1000" y2="500"/>
				
					<rect x="654" y="-97.2" transform="matrix(0.5246 -0.8514 0.8514 0.5246 66.1342 707.4325)" class="st0" width="25" height="783.5"/>
			</g>
			<g>
				<line class="st0" x1="333" y1="89" x2="499.8" y2="500"/>
				
					<rect x="403.9" y="72.7" transform="matrix(0.9266 -0.3761 0.3761 0.9266 -80.1827 178.2039)" class="st0" width="25" height="443.6"/>
			</g>
			<g>
				<line class="st0" x1="333" y1="89" x2="666.5" y2="500"/>
				
					<rect x="487.3" y="29.9" transform="matrix(0.7765 -0.6301 0.6301 0.7765 -73.8779 380.7051)" class="st0" width="25" height="529.3"/>
			</g>
			<g>
				<line class="st0" x1="833.2" y1="500" x2="333" y2="89"/>
				
					<rect x="570.6" y="-29.2" transform="matrix(0.6349 -0.7726 0.7726 0.6349 -14.6228 558.0592)" class="st0" width="25" height="647.4"/>
			</g>
		</g>
		<g>
			<g>
				<line class="st0" x1="-333.5" y1="500" x2="333.5" y2="89"/>
				
					<rect x="-391.7" y="282" transform="matrix(0.8513 -0.5246 0.5246 0.8513 -154.4968 43.7791)" class="st0" width="783.5" height="25"/>
			</g>
			<g>
				<line class="st0" x1="333.5" y1="89" x2="166.8" y2="500"/>
				
					<rect x="28.4" y="282" transform="matrix(0.3759 -0.9267 0.9267 0.3759 -116.7774 415.6179)" class="st0" width="443.5" height="25"/>
			</g>
			<g>
				<line class="st0" x1="333.5" y1="89" x2="0" y2="500"/>
				
					<rect x="-97.9" y="282" transform="matrix(0.6301 -0.7765 0.7765 0.6301 -167.0038 238.4269)" class="st0" width="529.3" height="25"/>
			</g>
			<g>
				<line class="st0" x1="-166.8" y1="500" x2="333.5" y2="89"/>
				
					<rect x="-240.4" y="282" transform="matrix(0.7727 -0.6348 0.6348 0.7727 -167.9924 119.8447)" class="st0" width="647.5" height="25"/>
			</g>
		</g>
	</g>
	<g>
		<g>
			<g>
				<line class="st0" x1="1666.8" y1="89" x2="2333.8" y2="500"/>
				
					<rect x="1987.8" y="-97.2" transform="matrix(0.5246 -0.8514 0.8514 0.5246 700.2288 1842.9652)" class="st0" width="25" height="783.5"/>
			</g>
			<g>
				<line class="st0" x1="1666.8" y1="89" x2="1833.5" y2="500"/>
				
					<rect x="1737.6" y="72.7" transform="matrix(0.9267 -0.3759 0.3759 0.9267 17.6361 679.4035)" class="st0" width="25" height="443.5"/>
			</g>
			<g>
				<line class="st0" x1="1666.8" y1="89" x2="2000.2" y2="500"/>
				
					<rect x="1821" y="29.9" transform="matrix(0.7766 -0.63 0.63 0.7766 224.0547 1220.8577)" class="st0" width="25" height="529.2"/>
			</g>
			<g>
				<line class="st0" x1="2167" y1="500" x2="1666.8" y2="89"/>
				
					<rect x="1904.4" y="-29.2" transform="matrix(0.6349 -0.7726 0.7726 0.6349 472.4119 1588.5983)" class="st0" width="25" height="647.4"/>
			</g>
		</g>
		<g>
			<g>
				<line class="st0" x1="1000.2" y1="500" x2="1667.2" y2="89"/>
				
					<rect x="942" y="282" transform="matrix(0.8513 -0.5246 0.5246 0.8513 43.7653 743.4479)" class="st0" width="783.5" height="25"/>
			</g>
			<g>
				<line class="st0" x1="1667.2" y1="89" x2="1500.5" y2="500"/>
				
					<rect x="1362.1" y="282" transform="matrix(0.3759 -0.9267 0.9267 0.3759 715.6205 1651.5146)" class="st0" width="443.5" height="25"/>
			</g>
			<g>
				<line class="st0" x1="1667.2" y1="89" x2="1333.8" y2="500"/>
				
					<rect x="1235.9" y="282" transform="matrix(0.63 -0.7766 0.7766 0.63 326.5206 1274.2975)" class="st0" width="529.2" height="25"/>
			</g>
			<g>
				<line class="st0" x1="1167" y1="500" x2="1667.2" y2="89"/>
				
					<rect x="1093.4" y="282" transform="matrix(0.7726 -0.6348 0.6348 0.7726 135.2312 966.5977)" class="st0" width="647.4" height="25"/>
			</g>
		</g>
	</g>
</g>
<g>
	<rect y="462.5" class="st1" width="2000" height="75"/>
	<rect x="1629.5" y="67" class="st1" width="75" height="933"/>
	<rect x="295.5" y="67" class="st1" width="75" height="933"/>
</g>
</svg>
