<?xml version="1.0" encoding="utf-8"?>
<!-- Generator: Adobe Illustrator 25.2.3, SVG Export Plug-In . SVG Version: 6.00 Build 0)  -->
<svg version="1.1" id="Layer_1" xmlns="http://www.w3.org/2000/svg" xmlns:xlink="http://www.w3.org/1999/xlink" x="0px" y="0px"
	 viewBox="0 0 2000 1000" style="enable-background:new 0 0 2000 1000;" xml:space="preserve">
<style type="text/css">
	.st0{fill:#E44848;stroke:#AA0000;stroke-width:25;}
	.st1{fill:#E44848;stroke:#AA0000;stroke-width:5;stroke-miterlimit:10;}
	.st2{fill:#E0D8D8;stroke:#916F6F;stroke-width:5;}
</style>
<g>
	<path class="st0" d="M-197,493.1v150.4"/>
	<path class="st0" d="M17.8,693.6V493.1"/>
	<path class="st0" d="M-411.9,693.6V493.1"/>
	<path class="st0" d="M232.6,793.8V493.1"/>
	<path class="st0" d="M-626.7,808.3V493.1"/>
	<path class="st1" d="M-783,1034.7l-66.9-33.8l16.9-33.5c1.9-3.7,47.4-92.7,148.3-181.6c59.2-52.2,125.5-93.8,197-123.6
		c89.2-37.3,186.7-56.1,289.7-56.1S2.3,624.9,91.6,662.1c71.5,29.8,137.8,71.4,197,123.6c100.9,89,146.5,177.9,148.3,181.6
		l16.9,33.5l-67,33.8l-16.9-33.5c-0.4-0.7-42.2-81.7-133.3-161.2C115.8,734.5-30.5,681-198.1,681S-512,734.5-632.8,840
		c-91.1,79.5-132.9,160.4-133.3,161.3L-783,1034.7z"/>
</g>
<g>
	<path class="st0" d="M2200.1,493.1v150.4"/>
	<path class="st0" d="M2414.9,693.6V493.1"/>
	<path class="st0" d="M1985.3,693.6V493.1"/>
	<path class="st0" d="M2629.8,793.8V493.1"/>
	<path class="st0" d="M1770.4,808.3V493.1"/>
	<path class="st1" d="M2783.9,1034.7l-16.9-33.5c-0.4-0.7-42.2-81.7-133.3-161.2c-120.8-105.5-267.1-159-434.7-159
		c-168.8,0-315.8,54.2-437.1,161c-90.2,79.5-130.6,158.4-131,159.2l-16.9,33.5l-67-33.8l16.9-33.5c1.9-3.7,47.4-92.7,148.3-181.6
		c59.2-52.2,125.5-93.8,197-123.6C1998.6,624.9,2096,606,2199,606s200.4,18.9,289.7,56.1c71.5,29.8,137.8,71.4,197,123.6
		c100.9,89,146.5,177.9,148.3,181.6l16.9,33.5L2783.9,1034.7z"/>
</g>
<g>
	<path class="st0" d="M997,500v150.4"/>
	<path class="st0" d="M1211.9,700.5V500"/>
	<path class="st0" d="M782.2,700.5V500"/>
	<path class="st0" d="M1426.7,800.7V500"/>
	<path class="st0" d="M567.4,815.3V500.1"/>
	<path class="st1" d="M411,1041.6l-66.9-33.8l16.9-33.5c1.9-3.7,47.4-92.7,148.3-181.6c59.2-52.2,125.5-93.8,197-123.6
		c89.2-37.3,186.7-56.1,289.7-56.1c103,0,200.4,18.9,289.7,56.1c71.5,29.8,137.8,71.4,197,123.6c100.9,89,146.5,177.9,148.3,181.6
		l16.9,33.5l-67,33.8l-16.9-33.5c-0.4-0.7-42.2-81.7-133.3-161.2c-120.8-105.5-267.1-159-434.7-159c-167.6,0-313.9,53.5-434.7,159
		c-91.1,79.5-132.9,160.4-133.3,161.3L411,1041.6z"/>
</g>
<g>
	<rect x="1569" y="501.1" class="st2" width="75" height="501.2"/>
	<rect x="365.9" y="501.1" class="st2" width="75" height="501.2"/>
	<rect x="-37.5" y="463.6" class="st2" width="2075" height="75"/>
</g>
</svg>
