<?xml version="1.0" encoding="UTF-8" standalone="no"?>
<svg version="1.1" id="Layer_1" x="0px" y="0px" viewBox="0 0 320 96" xml:space="preserve"
    width="320" height="96" xmlns="http://www.w3.org/2000/svg"
    xmlns:svg="http://www.w3.org/2000/svg" xmlns:rdf="http://www.w3.org/1999/02/22-rdf-syntax-ns#"
    xmlns:cc="http://creativecommons.org/ns#" xmlns:dc="http://purl.org/dc/elements/1.1/">
<style type="text/css" id="style2">
	.st0{fill:#E44848;stroke:#AA0000;stroke-width:5;}
	.st1{fill:#E0D8D8;stroke:#916F6F;stroke-width:5;}
</style>
    <rect x="287.37402" y="15.724204" class="st0" width="4.8000002" height="32.015999" id="rect4"
        style="stroke-width:2;stroke-miterlimit:4;stroke-dasharray:none" />
    <rect x="255.35803" y="15.724204" class="st0" width="4.8000002" height="31.910398" id="rect6"
        style="stroke-width:2;stroke-miterlimit:4;stroke-dasharray:none" />
    <rect x="319.39005" y="15.724204" class="st0" width="4.8000002" height="31.910398" id="rect8"
        style="stroke-width:2;stroke-miterlimit:4;stroke-dasharray:none" />
    <rect x="168.73698" y="193.37833" transform="rotate(-45)" class="st0" width="4.7999539"
        height="45.273167" id="rect10"
        style="stroke-width:2;stroke-miterlimit:4;stroke-dasharray:none" />
    <rect x="171.13881" y="236.25352" transform="rotate(-45)" class="st0" width="45.273167"
        height="4.7999539" id="rect12"
        style="stroke-width:2;stroke-miterlimit:4;stroke-dasharray:none" />
    <polygon class="st0"
        points="2983.3,518.8 2657.1,192.6 2010.9,192.6 1684.7,518.8 1649.3,483.4 1990.1,142.6 2677.9,142.6 3018.7,483.4 "
        id="polygon14" transform="matrix(0.096,0,0,0.096,65.710037,-0.36539682)"
        style="stroke-width:20.83333333;stroke-miterlimit:4;stroke-dasharray:none" />
    <rect x="31.246037" y="15.724204" class="st0" width="4.8000002" height="32.015999" id="rect18"
        style="stroke-width:2;stroke-miterlimit:4;stroke-dasharray:none" />
    <rect x="-0.76996303" y="15.724204" class="st0" width="4.8000002" height="31.910398" id="rect20"
        style="stroke-width:2;stroke-miterlimit:4;stroke-dasharray:none" />
    <rect x="63.262035" y="15.724204" class="st0" width="4.8000002" height="31.910398" id="rect22"
        style="stroke-width:2;stroke-miterlimit:4;stroke-dasharray:none" />
    <rect x="-12.370412" y="12.268307" transform="rotate(-45)" class="st0" width="4.7999539"
        height="45.273167" id="rect24"
        style="stroke-width:2;stroke-miterlimit:4;stroke-dasharray:none" />
    <rect x="-9.9685669" y="55.143684" transform="rotate(-45)" class="st0" width="45.273167"
        height="4.7999539" id="rect26"
        style="stroke-width:2;stroke-miterlimit:4;stroke-dasharray:none" />
    <polygon class="st0"
        points="315.3,518.8 -10.9,192.6 -657.1,192.6 -983.3,518.8 -1018.7,483.4 -677.9,142.6 9.9,142.6 350.7,483.4 "
        id="polygon28" transform="matrix(0.096,0,0,0.096,65.710037,-0.36539682)"
        style="stroke-width:20.83333333;stroke-miterlimit:4;stroke-dasharray:none" />
    <rect x="159.31004" y="15.724204" class="st0" width="4.8000002" height="32.015999" id="rect32"
        style="stroke-width:2;stroke-miterlimit:4;stroke-dasharray:none" />
    <rect x="127.29404" y="15.724204" class="st0" width="4.8000002" height="31.910398" id="rect34"
        style="stroke-width:2;stroke-miterlimit:4;stroke-dasharray:none" />
    <rect x="191.32603" y="15.724204" class="st0" width="4.8000002" height="31.910398" id="rect36"
        style="stroke-width:2;stroke-miterlimit:4;stroke-dasharray:none" />
    <rect x="78.183281" y="102.82333" transform="rotate(-45)" class="st0" width="4.7999539"
        height="45.273167" id="rect38"
        style="stroke-width:2;stroke-miterlimit:4;stroke-dasharray:none" />
    <rect x="80.585129" y="145.69859" transform="rotate(-45)" class="st0" width="45.273167"
        height="4.7999539" id="rect40"
        style="stroke-width:2;stroke-miterlimit:4;stroke-dasharray:none" />
    <polygon class="st0"
        points="1649.3,518.8 1323.1,192.6 676.9,192.6 350.7,518.8 315.3,483.4 656.1,142.6 1343.9,142.6 1684.7,483.4 "
        id="polygon42" transform="matrix(0.096,0,0,0.096,65.710037,-0.36539682)"
        style="stroke-width:20.83333333;stroke-miterlimit:4;stroke-dasharray:none" />
    <rect x="221.83012" y="45.649364" class="st1" width="7.8238397" height="52.296883" id="rect46"
        style="stroke-width:2.17616;stroke-miterlimit:4;stroke-dasharray:none" />
    <rect x="93.764992" y="45.648239" class="st1" width="7.826087" height="52.299133" id="rect48"
        style="stroke-width:2.17391;stroke-miterlimit:4;stroke-dasharray:none" />
    <rect x="1.4544219" y="43.681828" class="st1" width="317.90555" height="7.9055471" id="rect50"
        style="stroke-width:2.09445;stroke-miterlimit:4;stroke-dasharray:none" />
    <metadata id="metadata1027"><rdf:RDF><cc:Work
       rdf:about=""><dc:creator><cc:Agent><dc:title>TurnrDev</dc:title></cc:Agent></dc:creator><cc:license
        rdf:resource="http://creativecommons.org/publicdomain/zero/1.0/" /></cc:Work><cc:License
        rdf:about="http://creativecommons.org/publicdomain/zero/1.0/"><cc:permits
         rdf:resource="http://creativecommons.org/ns#Reproduction" />
        <cc:permits rdf:resource="http://creativecommons.org/ns#Distribution" />
        <cc:permits rdf:resource="http://creativecommons.org/ns#DerivativeWorks" /></cc:License></rdf:RDF></metadata></svg>
