<?xml version="1.0" encoding="utf-8"?>
<!-- Generator: Adobe Illustrator 25.2.3, SVG Export Plug-In . SVG Version: 6.00 Build 0)  -->
<svg version="1.1" id="Layer_1" xmlns="http://www.w3.org/2000/svg" xmlns:xlink="http://www.w3.org/1999/xlink" x="0px" y="0px"
	 viewBox="0 0 2000 1000" style="enable-background:new 0 0 2000 1000;" xml:space="preserve">
<style type="text/css">
	.st0{fill:none;stroke:#AA0000;stroke-width:25;stroke-miterlimit:10;}
	.st1{fill:none;stroke:#AA0000;stroke-width:23;stroke-miterlimit:10;}
	.st2{fill:#E0D8D8;stroke:#916F6F;stroke-width:5;stroke-miterlimit:10;}
</style>
<g>
	<path class="st0" d="M333,89c0,0,26.4,35.7,75.4,84C586.7,348.6,1065.1,690.9,1667,89"/>
	<line class="st1" x1="402" y1="500" x2="402" y2="165.2"/>
	<line class="st1" x1="448" y1="500" x2="448" y2="210"/>
	<line class="st1" x1="494" y1="500" x2="494" y2="248.4"/>
	<line class="st1" x1="540" y1="500" x2="540" y2="282.6"/>
	<line class="st1" x1="586" y1="500" x2="586" y2="312.7"/>
	<line class="st1" x1="632" y1="500" x2="632" y2="332.6"/>
	<line class="st1" x1="678" y1="500" x2="678" y2="365.1"/>
	<line class="st1" x1="724" y1="500" x2="724" y2="381.4"/>
	<line class="st1" x1="770" y1="500" x2="770" y2="397.4"/>
	<line class="st1" x1="816" y1="500" x2="816" y2="408.8"/>
	<line class="st1" x1="862" y1="500" x2="862" y2="418.6"/>
	<line class="st1" x1="908" y1="500" x2="908" y2="426.2"/>
	<line class="st1" x1="954" y1="500" x2="954" y2="429.5"/>
	<line class="st1" x1="1000" y1="500" x2="1000" y2="429.8"/>
	<line class="st1" x1="1046" y1="500" x2="1046" y2="426.9"/>
	<line class="st1" x1="1092" y1="500" x2="1092" y2="423.3"/>
	<line class="st1" x1="1138" y1="500" x2="1138" y2="412"/>
	<line class="st1" x1="1184" y1="500" x2="1184" y2="400"/>
	<line class="st1" x1="1230" y1="500" x2="1230" y2="384.9"/>
	<line class="st1" x1="1276" y1="500" x2="1276" y2="366.9"/>
	<line class="st1" x1="1322" y1="500" x2="1322" y2="345.7"/>
	<line class="st1" x1="1368" y1="500" x2="1368" y2="323.3"/>
	<line class="st1" x1="1414" y1="500" x2="1414" y2="295.5"/>
	<line class="st1" x1="1460" y1="500" x2="1460" y2="264"/>
	<line class="st1" x1="1506" y1="500" x2="1506" y2="230.6"/>
	<line class="st1" x1="1552" y1="500" x2="1552" y2="194"/>
	<line class="st1" x1="1598" y1="500" x2="1598" y2="154.4"/>
</g>
<g>
	<path class="st0" d="M-1001,90c0,0,26.4,35.7,75.4,84C-747.3,349.7-268.9,691.9,333,90"/>
	<line class="st1" x1="-932" y1="501.1" x2="-932" y2="166.3"/>
	<line class="st1" x1="-886" y1="501.1" x2="-886" y2="211"/>
	<line class="st1" x1="-840" y1="501.1" x2="-840" y2="249.5"/>
	<line class="st1" x1="-794" y1="501.1" x2="-794" y2="283.6"/>
	<line class="st1" x1="-748" y1="501.1" x2="-748" y2="313.8"/>
	<line class="st1" x1="-702" y1="501.1" x2="-702" y2="333.7"/>
	<line class="st1" x1="-656" y1="501.1" x2="-656" y2="366.2"/>
	<line class="st1" x1="-610" y1="501.1" x2="-610" y2="382.4"/>
	<line class="st1" x1="-564" y1="501.1" x2="-564" y2="398.5"/>
	<line class="st1" x1="-518" y1="501.1" x2="-518" y2="409.9"/>
	<line class="st1" x1="-472" y1="501.1" x2="-472" y2="419.7"/>
	<line class="st1" x1="-426" y1="501.1" x2="-426" y2="427.3"/>
	<line class="st1" x1="-380" y1="501.1" x2="-380" y2="430.5"/>
	<line class="st1" x1="-334" y1="501.1" x2="-334" y2="430.8"/>
	<line class="st1" x1="-288" y1="501.1" x2="-288" y2="427.9"/>
	<line class="st1" x1="-242" y1="501.1" x2="-242" y2="424.4"/>
	<line class="st1" x1="-196" y1="501.1" x2="-196" y2="413.1"/>
	<line class="st1" x1="-150" y1="501.1" x2="-150" y2="401"/>
	<line class="st1" x1="-104" y1="501.1" x2="-104" y2="386"/>
	<line class="st1" x1="-58" y1="501.1" x2="-58" y2="367.9"/>
	<line class="st1" x1="-12" y1="501.1" x2="-12" y2="346.8"/>
	<line class="st1" x1="34" y1="501.1" x2="34" y2="324.4"/>
	<line class="st1" x1="80" y1="501.1" x2="80" y2="296.6"/>
	<line class="st1" x1="126" y1="501.1" x2="126" y2="265"/>
	<line class="st1" x1="172" y1="501.1" x2="172" y2="231.6"/>
	<line class="st1" x1="218" y1="501.1" x2="218" y2="195.1"/>
	<line class="st1" x1="264" y1="501.1" x2="264" y2="155.4"/>
</g>
<g>
	<path class="st0" d="M1656.9,90c0,0,26.4,35.7,75.4,84c178.3,175.6,656.7,517.9,1258.6-84"/>
	<line class="st1" x1="1725.9" y1="501.1" x2="1725.9" y2="166.3"/>
	<line class="st1" x1="1771.9" y1="501.1" x2="1771.9" y2="211"/>
	<line class="st1" x1="1817.9" y1="501.1" x2="1817.9" y2="249.5"/>
	<line class="st1" x1="1863.9" y1="501.1" x2="1863.9" y2="283.6"/>
	<line class="st1" x1="1909.9" y1="501.1" x2="1909.9" y2="313.8"/>
	<line class="st1" x1="1955.9" y1="501.1" x2="1955.9" y2="333.7"/>
	<line class="st1" x1="2001.9" y1="501.1" x2="2001.9" y2="366.2"/>
	<line class="st1" x1="2047.9" y1="501.1" x2="2047.9" y2="382.4"/>
	<line class="st1" x1="2093.9" y1="501.1" x2="2093.9" y2="398.5"/>
	<line class="st1" x1="2139.9" y1="501.1" x2="2139.9" y2="409.9"/>
	<line class="st1" x1="2185.9" y1="501.1" x2="2185.9" y2="419.7"/>
	<line class="st1" x1="2231.9" y1="501.1" x2="2231.9" y2="427.3"/>
	<line class="st1" x1="2277.9" y1="501.1" x2="2277.9" y2="430.5"/>
	<line class="st1" x1="2323.9" y1="501.1" x2="2323.9" y2="430.8"/>
	<line class="st1" x1="2369.9" y1="501.1" x2="2369.9" y2="427.9"/>
	<line class="st1" x1="2415.9" y1="501.1" x2="2415.9" y2="424.4"/>
	<line class="st1" x1="2461.9" y1="501.1" x2="2461.9" y2="413.1"/>
	<line class="st1" x1="2507.9" y1="501.1" x2="2507.9" y2="401"/>
	<line class="st1" x1="2553.9" y1="501.1" x2="2553.9" y2="386"/>
	<line class="st1" x1="2599.9" y1="501.1" x2="2599.9" y2="367.9"/>
	<line class="st1" x1="2645.9" y1="501.1" x2="2645.9" y2="346.8"/>
	<line class="st1" x1="2691.9" y1="501.1" x2="2691.9" y2="324.4"/>
	<line class="st1" x1="2737.9" y1="501.1" x2="2737.9" y2="296.6"/>
	<line class="st1" x1="2783.9" y1="501.1" x2="2783.9" y2="265"/>
	<line class="st1" x1="2829.9" y1="501.1" x2="2829.9" y2="231.6"/>
	<line class="st1" x1="2875.9" y1="501.1" x2="2875.9" y2="195.1"/>
	<line class="st1" x1="2921.9" y1="501.1" x2="2921.9" y2="155.4"/>
</g>
<g>
	<rect y="462.5" class="st2" width="2000" height="75"/>
	<rect x="1629.5" y="89" class="st2" width="75" height="911"/>
	<rect x="295.5" y="89" class="st2" width="75" height="911"/>
</g>
</svg>
