<?xml version="1.0" encoding="UTF-8" standalone="no"?>
<svg xmlns:cc="http://creativecommons.org/ns#" xmlns:dc="http://purl.org/dc/elements/1.1/" xmlns:rdf="http://www.w3.org/1999/02/22-rdf-syntax-ns#" xmlns:svg="http://www.w3.org/2000/svg" height="96" id="Layer_1"
    version="1.1" viewBox="0 0 320 96" width="320"
    x="0px" xmlns="http://www.w3.org/2000/svg"
    y="0px" xml:space="preserve">
    <style id="style2" type="text/css">
	.cables{fill:#e44848;fill-opacity:1;stroke-width:2;stroke:#aa0000;stroke-opacity:1;}
	.main-cables{fill:#e44848;fill-opacity:1;stroke-width:2;stroke:#aa0000;stroke-opacity:1;}
</style>

    <path class="main-cables"
        d="M 322.79878,7.2827111 C 176.30296,76.796588 59.978866,37.246958 16.658808,17.002713 h -0.0021 C 4.7530439,11.434811 -1.6143144,7.3468696 -1.6143144,7.3468696 L -2.7230523,9.075137 c 0,0 6.5112766,4.175181 18.5117113,9.78817 C 59.456604,39.270452 176.52853,78.96179 323.67895,9.1372904 Z"
        id="path4" />
    <path class="main-cables"
        d="M 321.98877,51.173092 C 175.49138,120.68774 59.165749,81.13714 15.846803,60.893094 3.9416986,55.324692 -2.4263195,51.237251 -2.4263195,51.237251 l -1.1087379,1.728267 c 0,0 6.5112771,4.175179 18.5117114,9.788171 h 0.0021 C 58.646656,83.160833 175.71857,122.85218 322.86901,53.027671 Z"
        id="path4-2" />

    <line class="cables" id="line6" x1="14.661973" x2="14.661973" y1="60.510067" y2="18.290834" />
    <line class="cables" id="line8" x1="25.882881" x2="25.882881" y1="66.429169" y2="24.209934" />
    <line class="cables" id="line10" x1="37.103878" x2="37.103878" y1="69.815781" y2="27.596533" />
    <line class="cables" id="line12" x1="48.324898" x2="48.324898" y1="74.123497" y2="31.904259" />
    <line class="cables" id="line14" x1="59.545879" x2="59.545879" y1="77.029732" y2="34.810505" />
    <line class="cables" id="line16" x1="70.766785" x2="70.766785" y1="80.343559" y2="38.124313" />
    <line class="cables" id="line18" x1="81.987785" x2="81.987785" y1="83.056061" y2="40.836823" />
    <line class="cables" id="line20" x1="93.20871" x2="93.20871" y1="84.997314" y2="42.778072" />
    <line class="cables" id="line22" x1="104.42979" x2="104.42979" y1="86.422249" y2="44.203011" />
    <line class="cables" id="line24" x1="115.6507" x2="115.6507" y1="88.745186" y2="46.525944" />
    <line class="cables" id="line26" x1="126.87171" x2="126.87171" y1="89.312363" y2="47.093121" />
    <line class="cables" id="line28" x1="138.09264" x2="138.09264" y1="90.251144" y2="48.03191" />
    <line class="cables" id="line30" x1="149.31364" x2="149.31364" y1="90.608452" y2="48.38921" />
    <line class="cables" id="line32" x1="160.53458" x2="160.53458" y1="90.79213" y2="48.572891" />
    <line class="cables" id="line34" x1="171.75565" x2="171.75565" y1="90.62429" y2="48.405052" />
    <line class="cables" id="line36" x1="182.97658" x2="182.97658" y1="89.418037" y2="47.198811" />
    <line class="cables" id="line38" x1="194.19756" x2="194.19756" y1="88.764069" y2="46.54483" />
    <line class="cables" id="line40" x1="205.41849" x2="205.41849" y1="87.071671" y2="44.852432" />
    <line class="cables" id="line42" x1="216.63948" x2="216.63948" y1="85.698814" y2="43.47958" />
    <line class="cables" id="line44" x1="227.86047" x2="227.86047" y1="83.492859" y2="41.273628" />
    <line class="cables" id="line46" x1="239.0815" x2="239.0815" y1="80.935394" y2="38.71616" />
    <line class="cables" id="line48" x1="250.30241" x2="250.30241" y1="78.474792" y2="36.255558" />
    <line class="cables" id="line50" x1="261.52338" x2="261.52338" y1="75.535355" y2="33.316109" />
    <line class="cables" id="line52" x1="272.74435" x2="272.74435" y1="71.716507" y2="29.497271" />
    <line class="cables" id="line54" x1="283.96536" x2="283.96536" y1="67.954025" y2="25.734779" />
    <line class="cables" id="line56" x1="295.18634" x2="295.18634" y1="63.507389" y2="21.288155" />
    <line class="cables" id="line58" x1="306.40738" x2="306.40738" y1="58.887127" y2="16.667892" />


    <metadata id="metadata1385"><rdf:RDF><cc:Work
       rdf:about=""><dc:creator><cc:Agent><dc:title>TurnrDev</dc:title></cc:Agent></dc:creator><cc:license
        rdf:resource="http://creativecommons.org/publicdomain/zero/1.0/" /></cc:Work><cc:License
        rdf:about="http://creativecommons.org/publicdomain/zero/1.0/"><cc:permits
         rdf:resource="http://creativecommons.org/ns#Reproduction" />
        <cc:permits rdf:resource="http://creativecommons.org/ns#Distribution" />
        <cc:permits rdf:resource="http://creativecommons.org/ns#DerivativeWorks" /></cc:License></rdf:RDF></metadata></svg>
