<?xml version="1.0" encoding="utf-8"?>
<!-- Generator: Adobe Illustrator 25.2.3, SVG Export Plug-In . SVG Version: 6.00 Build 0)  -->
<svg version="1.1" id="Layer_1" xmlns="http://www.w3.org/2000/svg" xmlns:xlink="http://www.w3.org/1999/xlink" x="0px" y="0px"
	 viewBox="0 0 2000 1000" style="enable-background:new 0 0 2000 1000;" xml:space="preserve">
<style type="text/css">
	.st0{fill:#E44848;stroke:#AA0000;stroke-width:5;}
	.st1{fill:#E0D8D8;stroke:#916F6F;stroke-width:5;}
</style>
<g>
	<rect x="2309" y="167.6" class="st0" width="50" height="333.5"/>
	<rect x="1975.5" y="167.6" class="st0" width="50" height="332.4"/>
	<rect x="2642.5" y="167.6" class="st0" width="50" height="332.4"/>
	
		<rect x="2142.2" y="98.5" transform="matrix(0.7071 -0.7071 0.7071 0.7071 398.3527 1630.4072)" class="st0" width="50" height="471.6"/>
	
		<rect x="2264.9" y="309.3" transform="matrix(0.7071 -0.7071 0.7071 0.7071 496.0317 1866.2261)" class="st0" width="471.6" height="50"/>
	<polygon class="st0" points="2983.3,518.8 2657.1,192.6 2010.9,192.6 1684.7,518.8 1649.3,483.4 1990.1,142.6 2677.9,142.6 
		3018.7,483.4 	"/>
</g>
<g>
	<rect x="-359" y="167.6" class="st0" width="50" height="333.5"/>
	<rect x="-692.5" y="167.6" class="st0" width="50" height="332.4"/>
	<rect x="-25.5" y="167.6" class="st0" width="50" height="332.4"/>
	
		<rect x="-525.8" y="98.5" transform="matrix(0.7071 -0.7071 0.7071 0.7071 -383.0878 -256.155)" class="st0" width="50" height="471.6"/>
	
		<rect x="-403.1" y="309.3" transform="matrix(0.7071 -0.7071 0.7071 0.7071 -285.4074 -20.3348)" class="st0" width="471.6" height="50"/>
	<polygon class="st0" points="315.3,518.8 -10.9,192.6 -657.1,192.6 -983.3,518.8 -1018.7,483.4 -677.9,142.6 9.9,142.6 
		350.7,483.4 	"/>
</g>
<g>
	<rect x="975" y="167.6" class="st0" width="50" height="333.5"/>
	<rect x="641.5" y="167.6" class="st0" width="50" height="332.4"/>
	<rect x="1308.5" y="167.6" class="st0" width="50" height="332.4"/>
	
		<rect x="808.2" y="98.5" transform="matrix(0.7071 -0.7071 0.7071 0.7071 7.6325 687.1262)" class="st0" width="50" height="471.6"/>
	
		<rect x="930.9" y="309.3" transform="matrix(0.7071 -0.7071 0.7071 0.7071 105.3121 922.9456)" class="st0" width="471.6" height="50"/>
	<polygon class="st0" points="1649.3,518.8 1323.1,192.6 676.9,192.6 350.7,518.8 315.3,483.4 656.1,142.6 1343.9,142.6 
		1684.7,483.4 	"/>
</g>
<g>
	<rect x="1629.5" y="501.7" class="st1" width="75" height="500"/>
	<rect x="295.5" y="501.1" class="st1" width="75" height="501.2"/>
	<rect x="-37.5" y="462.5" class="st1" width="2075" height="75"/>
</g>
</svg>
