<?xml version="1.0" encoding="UTF-8" standalone="no"?>
<svg version="1.1" id="Layer_1" x="0px" y="0px" viewBox="0 0 320 96" xml:space="preserve"
    width="320" height="96" xmlns="http://www.w3.org/2000/svg"
    xmlns:svg="http://www.w3.org/2000/svg" xmlns:rdf="http://www.w3.org/1999/02/22-rdf-syntax-ns#"
    xmlns:cc="http://creativecommons.org/ns#" xmlns:dc="http://purl.org/dc/elements/1.1/">
<style type="text/css" id="style2">
	.st0{fill:#E44848;stroke:#AA0000;stroke-width:25;}
	.st1{fill:#E44848;stroke:#AA0000;stroke-width:5;stroke-miterlimit:10;}
	.st2{fill:#E0D8D8;stroke:#916F6F;stroke-width:5;}
</style>
    <path class="st0" d="M 30.790493,51.204885 V 14.385346" id="path4"
        style="stroke-width:2;stroke-miterlimit:4.94736862;stroke-dasharray:none" />
    <path class="st0" d="M 54.117495,17.630936 V 51.204885" id="path6"
        style="stroke-width:2;stroke-miterlimit:4.94736862;stroke-dasharray:none" />
    <path class="st0" d="M 7.4743461,17.837178 V 51.204885" id="path8"
        style="stroke-width:2;stroke-miterlimit:4.94736862;stroke-dasharray:none" />
    <path class="st0" d="M 77.433642,29.668928 V 51.204885" id="path10"
        style="stroke-width:2;stroke-miterlimit:4.94736862;stroke-dasharray:none" />
    <path class="st1"
        d="m -32.373687,56.795116 -7.261873,-3.668928 1.834464,-3.636364 c 0.206242,-0.401628 5.145184,-10.062415 16.097694,-19.712347 C -15.27735,24.111262 -8.0806067,19.595658 -0.31941251,16.360923 9.3630843,12.312076 19.946531,10.27137 31.126992,10.27137 c 11.180462,0 21.742199,2.040706 31.43555,6.078698 7.761195,3.234735 14.957938,7.750339 21.38399,13.416554 10.95251,9.660787 15.902307,19.310719 16.097698,19.712347 l 1.83446,3.636364 -7.272728,3.668928 -1.834464,-3.625509 C 92.728079,53.082769 88.190765,44.290367 78.302027,35.660787 65.189408,24.208955 49.308811,18.401628 31.116138,18.401628 c -18.192674,0 -34.073271,5.807327 -47.18589,17.259159 -9.888738,8.62958 -14.426052,17.411127 -14.469471,17.50882 z"
        id="path14" style="stroke-width:2;stroke-miterlimit:4.94736862;stroke-dasharray:none" />
    <path class="st0" d="M 291.9791,51.204885 V 14.385346" id="path18"
        style="stroke-width:2;stroke-miterlimit:4.94736862;stroke-dasharray:none" />
    <path class="st1"
        d="m 355.78371,56.795116 -1.83446,-3.636364 c -0.0434,-0.07598 -4.58073,-8.868385 -14.46947,-17.497965 -13.11262,-11.451832 -28.99322,-17.259159 -47.18589,-17.259159 -18.32293,0 -34.27951,5.883311 -47.44641,17.476256 -9.79104,8.629579 -14.17639,17.19403 -14.21981,17.280868 l -1.83446,3.636364 -7.27273,-3.668928 1.83447,-3.636364 c 0.20624,-0.401628 5.14518,-10.062415 16.09769,-19.712347 6.42605,-5.666215 13.6228,-10.181819 21.38399,-13.416554 9.6825,-4.048847 20.26594,-6.089553 31.4464,-6.089553 11.18047,0 21.75306,2.051561 31.44641,6.089553 7.76119,3.234735 14.95794,7.750339 21.38399,13.416554 10.95251,9.660787 15.90231,19.310719 16.09769,19.712347 l 1.83447,3.636364 z"
        id="path20" style="stroke-width:2;stroke-miterlimit:4.94736862;stroke-dasharray:none" />
    <path class="st0" d="M 315.29525,17.630936 V 51.204885" id="path22"
        style="stroke-width:2;stroke-miterlimit:4.94736862;stroke-dasharray:none" />
    <path class="st0" d="M 268.6521,17.837178 V 51.204885" id="path24"
        style="stroke-width:2;stroke-miterlimit:4.94736862;stroke-dasharray:none" />
    <path class="st0" d="M 245.33595,30.971506 V 51.21574" id="path28"
        style="stroke-width:2;stroke-miterlimit:4.94736862;stroke-dasharray:none" />
    <path class="st0" d="M 160.84206,51.204885 V 14.385346" id="path32"
        style="stroke-width:2;stroke-miterlimit:4.94736862;stroke-dasharray:none" />
    <path class="st0" d="M 184.16906,17.630936 V 51.204885" id="path34"
        style="stroke-width:2;stroke-miterlimit:4.94736862;stroke-dasharray:none" />
    <path class="st0" d="M 137.52591,17.837178 V 51.204885" id="path36"
        style="stroke-width:2;stroke-miterlimit:4.94736862;stroke-dasharray:none" />
    <path class="st0" d="M 207.4852,29.668928 V 51.204885" id="path38"
        style="stroke-width:2;stroke-miterlimit:4.94736862;stroke-dasharray:none" />
    <path class="st0" d="M 114.20976,30.971506 V 51.21574" id="path40"
        style="stroke-width:2;stroke-miterlimit:4.94736862;stroke-dasharray:none" />
    <path class="st1"
        d="m 97.677875,56.795116 -7.261872,-3.668928 1.834464,-3.636364 c 0.206241,-0.401628 5.145183,-10.062415 16.097693,-19.712347 6.42605,-5.666215 13.6228,-10.181819 21.38399,-13.416554 9.6825,-4.048847 20.26594,-6.089553 31.4464,-6.089553 11.18047,0 21.75306,2.051561 31.44641,6.089553 7.76119,3.234735 14.95794,7.750339 21.38399,13.416554 10.95251,9.660787 15.90231,19.310719 16.09769,19.712347 l 1.83447,3.636364 -7.27273,3.668928 -1.84532,-3.636364 c -0.0434,-0.07598 -4.58073,-8.868385 -14.46947,-17.497965 -13.11262,-11.451832 -28.99322,-17.259159 -47.18589,-17.259159 -18.19267,0 -34.07327,5.807327 -47.18589,17.259159 -9.88874,8.62958 -14.426051,17.411127 -14.469471,17.50882 z"
        id="path42" style="stroke-width:2;stroke-miterlimit:4.94736862;stroke-dasharray:none" />
    <rect x="222.93161" y="51.324287" class="st2" width="8.1411123" height="54.404343" id="rect46"
        style="stroke-width:2;stroke-miterlimit:4.94736862;stroke-dasharray:none" />
    <rect x="92.337303" y="51.324287" class="st2" width="8.1411123" height="54.404343" id="rect48"
        style="stroke-width:2;stroke-miterlimit:4.94736862;stroke-dasharray:none" />
    <rect x="0.34550717" y="46.669792" class="st2" width="319.30899" height="9.3089857" id="rect50"
        style="stroke-width:2;stroke-miterlimit:4.94736862;stroke-dasharray:none" />
    <metadata id="metadata1169"><rdf:RDF><cc:Work
       rdf:about=""><dc:creator><cc:Agent><dc:title>TurnrDev</dc:title></cc:Agent></dc:creator><cc:license
        rdf:resource="http://creativecommons.org/publicdomain/zero/1.0/" /></cc:Work><cc:License
        rdf:about="http://creativecommons.org/publicdomain/zero/1.0/"><cc:permits
         rdf:resource="http://creativecommons.org/ns#Reproduction" />
        <cc:permits rdf:resource="http://creativecommons.org/ns#Distribution" />
        <cc:permits rdf:resource="http://creativecommons.org/ns#DerivativeWorks" /></cc:License></rdf:RDF></metadata></svg>
