<?xml version="1.0" encoding="UTF-8" standalone="no"?>
<svg xmlns:cc="http://creativecommons.org/ns#" xmlns:dc="http://purl.org/dc/elements/1.1/" xmlns:rdf="http://www.w3.org/1999/02/22-rdf-syntax-ns#" xmlns:svg="http://www.w3.org/2000/svg" height="96" id="Layer_1"
    version="1.1" viewBox="0 0 320 96" width="320"
    x="0px" xmlns="http://www.w3.org/2000/svg"
    y="0px" xml:space="preserve">
<style id="style2" type="text/css">
	.truss{fill:#E44848;stroke:#AA0000;stroke-width:2;}
	.struct{fill:#E0D8D8;stroke:#916F6F;stroke-width:2;}
</style>
    <rect class="truss" height="32.015999" id="rect4" width="4.8000002" x="287.37402"
        y="15.724204" />
    <rect class="truss" height="31.910398" id="rect6" width="4.8000002" x="255.35803"
        y="15.724204" />
    <rect class="truss" height="31.910398" id="rect8" width="4.8000002" x="319.39005"
        y="15.724204" />
    <rect class="truss" height="45.273167" id="rect10" transform="rotate(-45)" width="4.7999539"
        x="168.73698" y="193.37833" />
    <rect class="truss" height="4.7999539" id="rect12" transform="rotate(-45)" width="45.273167"
        x="171.13881" y="236.25352" />
    <polygon class="truss"
        id="polygon14"
        points="2983.3,518.8 2657.1,192.6 2010.9,192.6 1684.7,518.8 1649.3,483.4 1990.1,142.6 2677.9,142.6 3018.7,483.4 " transform="matrix(0.096,0,0,0.096,65.710037,-0.36539682)" />
    <rect class="truss" height="32.015999" id="rect18" width="4.8000002" x="31.246037"
        y="15.724204" />
    <rect class="truss" height="31.910398" id="rect20" width="4.8000002" x="-0.76996303"
        y="15.724204" />
    <rect class="truss" height="31.910398" id="rect22" width="4.8000002" x="63.262035"
        y="15.724204" />
    <rect class="truss" height="45.273167" id="rect24" transform="rotate(-45)" width="4.7999539"
        x="-12.370412" y="12.268307" />
    <rect class="truss" height="4.7999539" id="rect26" transform="rotate(-45)" width="45.273167"
        x="-9.9685669" y="55.143684" />
    <polygon class="truss"
        id="polygon28"
        points="315.3,518.8 -10.9,192.6 -657.1,192.6 -983.3,518.8 -1018.7,483.4 -677.9,142.6 9.9,142.6 350.7,483.4 " transform="matrix(0.096,0,0,0.096,65.710037,-0.36539682)" />
    <rect class="truss" height="32.015999" id="rect32" width="4.8000002" x="159.31004"
        y="15.724204" />
    <rect class="truss" height="31.910398" id="rect34" width="4.8000002" x="127.29404"
        y="15.724204" />
    <rect class="truss" height="31.910398" id="rect36" width="4.8000002" x="191.32603"
        y="15.724204" />
    <rect class="truss" height="45.273167" id="rect38" transform="rotate(-45)" width="4.7999539"
        x="78.183281" y="102.82333" />
    <rect class="truss" height="4.7999539" id="rect40" transform="rotate(-45)" width="45.273167"
        x="80.585129" y="145.69859" />
    <polygon class="truss"
        id="polygon42"
        points="1649.3,518.8 1323.1,192.6 676.9,192.6 350.7,518.8 315.3,483.4 656.1,142.6 1343.9,142.6 1684.7,483.4 " transform="matrix(0.096,0,0,0.096,65.710037,-0.36539682)" />
    <rect class="struct" height="52.296883" id="rect46" width="7.8238397" x="221.83012"
        y="45.649364" />
    <rect class="struct" height="52.299133" id="rect48" width="7.826087" x="93.764992"
        y="45.648239" />
    <rect class="struct" height="7.9055471" id="rect50" width="317.90555" x="1.4544219"
        y="43.681828" />
    <metadata id="metadata1027"><rdf:RDF><cc:Work
       rdf:about=""><dc:creator><cc:Agent><dc:title>TurnrDev</dc:title></cc:Agent></dc:creator><cc:license
        rdf:resource="http://creativecommons.org/publicdomain/zero/1.0/" /></cc:Work><cc:License
        rdf:about="http://creativecommons.org/publicdomain/zero/1.0/"><cc:permits
         rdf:resource="http://creativecommons.org/ns#Reproduction" />
        <cc:permits rdf:resource="http://creativecommons.org/ns#Distribution" />
        <cc:permits rdf:resource="http://creativecommons.org/ns#DerivativeWorks" /></cc:License></rdf:RDF></metadata></svg>
