<?xml version="1.0" encoding="UTF-8" standalone="no"?>

<svg xmlns:cc="http://creativecommons.org/ns#" xmlns:dc="http://purl.org/dc/elements/1.1/" xmlns:rdf="http://www.w3.org/1999/02/22-rdf-syntax-ns#" height="96" id="Layer_1" version="1.1"
    viewBox="0 0 320 96" width="320" x="0px"
    xmlns="http://www.w3.org/2000/svg"
    y="0px" xml:space="preserve">
<style id="style1101" type="text/css">
	.cables{fill:#E44848;stroke:#AA0000;stroke-width:2;}
	.struct{fill:#E0D8D8;stroke:#916F6F;stroke-width:2;}
</style>
    <rect class="cables" height="97.615089" id="rect1105" transform="rotate(-58.360219)"
        width="3.1147125" x="32.235916" y="70.229881" />
    <rect class="cables" height="55.266125" id="rect1111" transform="rotate(-22.091867)" width="3.1146374"
        x="67.2323" y="36.628147" />
    <rect class="cables" height="65.941109" id="rect1117" transform="rotate(-39.058007)" width="3.1145432"
        x="53.552944" y="55.11578" />
    <rect class="cables" height="80.655441" id="rect1123" transform="rotate(-50.587638)" width="3.1145906"
        x="41.420521" y="65.01741" />
    <rect class="cables" height="3.1144476" id="rect1131" transform="rotate(-31.642785)"
        width="97.606789" x="-35.790058" y="46.011269" />
    <rect class="cables" height="3.1146917" id="rect1137" transform="rotate(-67.920907)"
        width="55.254631" x="-33.575176" y="73.368744" />
    <rect class="cables" height="3.1145432" id="rect1143" transform="rotate(-50.941993)"
        width="65.941109" x="-23.328325" y="63.769855" />
    <rect class="cables" height="3.1146336" id="rect1149" transform="rotate(-39.404296)"
        width="80.669014" x="-25.846457" y="53.925365" />
    <rect class="cables" height="97.615089" id="rect1159" transform="rotate(-58.360219)"
        width="3.1147125" x="119.41158" y="211.69635" />
    <rect class="cables" height="55.254631" id="rect1165" transform="rotate(-22.079093)" width="3.1146917"
        x="221.22408" y="99.06723" />
    <rect class="cables" height="65.929619" id="rect1171" transform="rotate(-39.049947)"
        width="3.1145887" x="182.60229" y="159.78616" />
    <rect class="cables" height="80.655441" id="rect1177" transform="rotate(-50.587638)"
        width="3.1145906" x="146.92145" y="193.40872" />
    <rect class="cables" height="3.1144476" id="rect1185" transform="rotate(-31.642785)"
        width="97.606789" x="105.65791" y="133.17775" />
    <rect class="cables" height="3.1146917" id="rect1191" transform="rotate(-67.920907)"
        width="55.254631" x="28.887384" y="227.34236" />
    <rect class="cables" height="3.1145887" id="rect1197" transform="rotate(-50.950053)"
        width="65.929619" x="81.350914" y="192.82013" />
    <rect class="cables" height="3.114393" id="rect1203" transform="rotate(-39.407934)"
        width="80.650322" x="102.53193" y="159.41211" />
    <rect class="struct" height="9.2944803" id="rect1213" width="334.1575" x="-6.4420877"
        y="54.629135" />
    <rect class="struct" height="92.812149" id="rect1215" width="9.4081087" x="239.00507"
        y="5.2997155" />
    <rect class="struct" height="92.370262" id="rect1217" width="9.4094019" x="72.8106"
        y="5.2990689" />
    <metadata id="metadata1472"><rdf:RDF><cc:Work
       rdf:about=""><dc:creator><cc:Agent><dc:title>TurnrDev</dc:title></cc:Agent></dc:creator><cc:license
        rdf:resource="http://creativecommons.org/publicdomain/zero/1.0/" /></cc:Work><cc:License
        rdf:about="http://creativecommons.org/publicdomain/zero/1.0/"><cc:permits
         rdf:resource="http://creativecommons.org/ns#Reproduction" />
        <cc:permits rdf:resource="http://creativecommons.org/ns#Distribution" />
        <cc:permits rdf:resource="http://creativecommons.org/ns#DerivativeWorks" /></cc:License></rdf:RDF></metadata></svg>
