<?xml version="1.0" encoding="UTF-8"?>
<svg version="1.1" viewBox="0 0 96 96" xmlns="http://www.w3.org/2000/svg">
 <path d="m77.806 36.262c0 16.493-13.37 29.862-29.862 29.862-16.493 0-29.862-13.37-29.862-29.862 0-17.064 59.725-17.064 59.725 0z" fill="#333" fill-rule="evenodd"/>
 <path d="m77.806 31.995 8.5321-12.798 4.2661-17.064c-28.722 0.09545-57.153-0.09641-85.321 0l4.2661 17.064 8.5321 12.798c19.709-0.01248 39.61 0.01237 59.725 0z" fill="#ccc"/>
 <path d="m9.5493 19.197 8.5321 12.798c19.392 0.6288 39.119-0.60987 59.725 0l8.5321-12.798c-25.491-0.36625-51.038 0.3644-76.789 0z" fill="#b7b7b7"/>
 <path d="m7.4163 2.133 2.133 17.064 8.5321 12.798h59.725l8.5321-12.798 2.133-17.064z" fill="none" stroke="#999" stroke-width="4.2661"/>
 <circle cx="43.678" cy="51.193" r="8.5321" fill="#262626" fill-rule="evenodd" stroke="#404040" stroke-linecap="round" stroke-linejoin="round" stroke-width="6.3991"/>
 <path d="m22.699 34.217 22.718 29.412 27.338-29.506h4.6191l-31.391 32.145-27.432-32.145z" fill="none"/>
 <path d="m18.551 34.123 9.4268 0.09428c-4.5504 6.0234-5.287 14.024 3.6764 27.055-10.417-7.0333-15.32-19.282-13.103-27.149z" fill="#fff" fill-opacity=".2"/>
 <path d="m77.374 34.123-15.826 0.09428c4.5504 6.0234 11.686 14.024 2.7227 27.055 10.417-7.0333 15.32-19.282 13.103-27.149z" fill="#fff" fill-opacity=".2"/>
</svg>
