<?xml version="1.0" encoding="UTF-8"?>
<svg fill="#000000" version="1.1" viewBox="0 0 24 24" xmlns="http://www.w3.org/2000/svg">
 <path d="m3 2c-0.5 0-1 0.5-1 1v2h3v2h-3v2h3v2h-3v2h3v2h-3v2h3v2h-3v2c0 0.5 0.5 1 1 1h4c0.5 0 1-0.5 1-1v-18c-6.23e-5 -0.5-0.49996-1.0002-1-1h-4zm8 2-1 1v4.0234c0.8379-0.63364 1.8693-1.0234 3-1.0234 2.76 0 5 2.24 5 5s-2.24 5-5 5c-1.1307 0-2.1621-0.3898-3-1.0234v3.0234h10c1 0 2-1 2-2v-10c0-1-1-2-2-2h-3l-2-2h-4zm1.9492 6a3 3 0 0 0-2.9492 3 3 3 0 0 0 3 3 3 3 0 0 0 3-3 3 3 0 0 0-3-3 3 3 0 0 0-0.050781 0z"/>
</svg>
