<?xml version="1.0" encoding="UTF-8"?>
<svg version="1.1" viewBox="0 0 192 192" xmlns="http://www.w3.org/2000/svg">
 <g transform="translate(-3.9932 -2.3891)">
  <path d="m165.99 126.39c-7.6467-12.872-7.0851-21.863-11-39-6.4194-13.157-15.858-23.212-14-53-0.87666-6.9596-15.33-0.1568-17 10-4.4222 26.898 5.7605 36.365 3 43-12.102 1.4518-74.196-46.192-82-46-11.623 0.28625-12.148 9.949-5 15l45.822 30.163c2.0713 5.1944-8.8566 5.5866-35.862-19.786-5.3581-1.7771-10.744 1.8827-11.542 7.6258-0.81358 5.8604 4.2901 11.542 8.8563 14.477-4.3767 3.9065-9.3971 8.0482-7.4136 14.995 1.6068 5.6278 5.5657 6.8383 9.5764 9.212-2.7811-0.70972-3.8546-0.0335-5.8666 4.1846-2.9325 6.1474-8.4209 11.827 1.4291 19.128 33.663 14.908 36.296 23.847 62 36 12.035 5.6904 12.343 5.4011 23 7 6.6147-2.7956 44.741-24.615 36-53z" fill="#aaa"/>
  <path d="m44.993 136.39c4.0576-2.6616 5.1116-5.0696 6.7103-7.7312l2.2897 11.731s-5.3194-2.4109-9-4z" fill-opacity=".2"/>
  <path d="m47.208 111.91c4.0576-2.6616 3.4771-5.6876 5.0758-8.3492l0.65581 10.562s-2.5612-0.29603-5.7316-2.213z" fill-opacity=".2"/>
  <path d="m119.99 146.39c-13.761 4.4935-29.18 12.751-25.032 19.653-7.8536-4.9272-16.075-10.314-22.968-15.653z" fill-opacity=".2"/>
  <path d="m41.203 84.757 12.825 7.8697v-20.694c-8.3219-4.3479 0.31403 13.454-12.825 12.825z" fill="none"/>
  <path d="m45.92 87.849c4.0576-2.6616 4.4244-4.4489 6.0231-7.1105l0.25504 9.7971s-3.3263-0.51464-6.2781-2.6866z" fill-opacity=".2"/>
  <rect x="53.993" y="18.389" width="68" height="130" rx="0" ry="8.0792" fill-rule="evenodd" stroke="#333" stroke-dashoffset="3" stroke-linecap="round" stroke-linejoin="round" stroke-width="4"/>
  <path d="m49.953 66.766c-6.5221-1.3306-10.097 1.6674-11.288 6.652-1.395 5.839 1.2968 9.6026 7.0553 10.465 12.814 0.5082 13.536-14.812 4.2324-17.117z" fill="#aaa" stroke-width="1.0906"/>
  <path d="m47.268 88.869c-5.3941 3.9977-8.0466 8.1072-7.8075 11.722 0.6691 10.116 4.2654 1.1727 11.533 3.798 11.704-4.2509 11.98-21.644-3.7253-15.52z" fill="#aaa" stroke-width="1.0906"/>
  <path d="m55.697 114.97-6.2666-1.8946c-8.5657-2.6976-10.724 26.93 2.2728 15.582 5.6879-0.98651 11.253-2.6811 12.29-6.2688 2.049-7.0934-3.7007-4.6611-8.2959-7.4183z" fill="#aaa"/>
 </g>
</svg>
