<?xml version="1.0" encoding="UTF-8"?>
<svg width="100%" height="100%" version="1.1" viewBox="0 0 96 96" xmlns="http://www.w3.org/2000/svg">
 <g>
  <g transform="matrix(2.1973 0 0 2.1973 112.35 -596.06)" stroke-width="1.7201">
   <circle cx="-38.081" cy="284.24" r="11.339" fill="#3e4347" style="paint-order:normal"/>
   <circle cx="-38.128" cy="284.29" r="9.1187" fill="#fff" style="paint-order:normal"/>
   <circle cx="-38.142" cy="284.3" r="7.2877" fill="#428bc1" style="paint-order:normal"/>
   <circle cx="-37.868" cy="284.36" r="4.3467" fill="#fff" style="paint-order:normal"/>
   <circle cx="-37.792" cy="284.45" r="2.2743" fill="#bb2e3c" style="paint-order:normal"/>
  </g>
  <g transform="matrix(1.5739 0 0 -1.5739 34.976 94.005)" stroke-width=".79419">
   <path d="m21.279 31.72c-8.999 0-10.5-1.5-13-4s-4-4-4-13c0-11.18-2-14-1-14s3 2 3 4-1.999 13 5.001 20h-1e-3c7 7 18 5 20 5s4 2 4 3-2.819-1-14-1" fill="#c1694f"/>
   <path d="m29.5 6.2207c0-0.276-0.224-0.5-0.5-0.5h-25.22c-0.277 0-0.5 0.224-0.5 0.5s0.223 0.5 0.5 0.5h25.22c0.276 0 0.5-0.224 0.5-0.5" fill="#d99e82"/>
   <path d="m29.779 6.5c-0.277 0-0.5 0.225-0.5 0.5v25.221c0 0.277 0.223 0.5 0.5 0.5 0.275 0 0.5-0.224 0.5-0.5v-25.221c0-0.275-0.225-0.5-0.5-0.5" fill="#d99e82"/>
   <path d="m0 36 2.793-8.52 2.137 3.565 3.52 2.092z" fill="#99aab5"/>
   <path d="m26.087 8.6074c0.364-1.896 0-3.564-0.812-3.719-0.814-0.156-1.77 1.256-2.133 3.155-0.365 1.898-1e-3 3.564 0.812 3.72 0.814 0.157 1.769-1.258 2.133-3.156" fill="#dd2e44"/>
   <path d="m26.568 7.5352c0.365-1.898 0-3.564-0.812-3.721-0.814-0.156-1.769 1.258-2.132 3.155-0.366 1.9-1e-3 3.566 0.811 3.72 0.814 0.157 1.77-1.256 2.133-3.154" fill="#f4900c"/>
   <path d="m27.958 6.1465c0.364-1.898 0-3.564-0.812-3.721-0.814-0.156-1.77 1.256-2.133 3.155-0.365 1.898 0 3.564 0.812 3.72 0.814 0.157 1.77-1.256 2.133-3.154" fill="#a0041e"/>
   <path d="m29.372 4.7324c0.365-1.898 0-3.566-0.812-3.721-0.814-0.156-1.77 1.256-2.133 3.155-0.365 1.898 0 3.564 0.812 3.72 0.814 0.157 1.77-1.258 2.133-3.154" fill="#dd2e44"/>
   <path d="m27.393 9.9131c1.897-0.364 3.564 0 3.719 0.812 0.156 0.814-1.256 1.77-3.155 2.133-1.898 0.365-3.564 1e-3 -3.72-0.812-0.157-0.814 1.258-1.769 3.156-2.133" fill="#dd2e44"/>
   <path d="m28.465 9.4316c1.898-0.365 3.564 0 3.721 0.812 0.156 0.814-1.258 1.769-3.155 2.132-1.9 0.366-3.566 1e-3 -3.72-0.811-0.157-0.814 1.256-1.77 3.154-2.133" fill="#f4900c"/>
   <path d="m29.854 8.042c1.898-0.364 3.564 0 3.721 0.812 0.156 0.814-1.256 1.77-3.155 2.133-1.898 0.365-3.564 0-3.72-0.812-0.157-0.814 1.256-1.77 3.154-2.133" fill="#a0041e"/>
   <path d="m31.268 6.6279c1.898-0.365 3.566 0 3.721 0.812 0.156 0.814-1.256 1.77-3.155 2.133-1.898 0.365-3.564 0-3.72-0.812-0.157-0.814 1.258-1.77 3.154-2.133" fill="#dd2e44"/>
   <path d="m30.385 7c0.382-0.382 0.382-1.002 0-1.385-0.383-0.382-1.003-0.382-1.385 0l-24.864 24.865c-0.382 0.382-0.381 1.002 0 1.384 0.382 0.382 1.002 0.382 1.384 0z" fill="#ccd6dd"/>
  </g>
 </g>
</svg>
