<?xml version="1.0" encoding="UTF-8"?>
<svg width="100%" height="100%" version="1.1" viewBox="0 0 96 96" xmlns="http://www.w3.org/2000/svg">
 <path d="m52.416 67.011s5.6293 7.1008 8.1779 7.1763c2.3671 0.10583 16.885-7.4975 16.885-7.4975l-4.6613-4.341c-5.2822 1.8904-7.7216 1.6656-9.5905 4.1571-0.86627-2.7881-4.0815-6.5943-4.184-6.0816z" fill="#b47d56"/>
 <path d="m30.62 63.423s-6.358 6.0883-6.8578 8.5316c-0.4998 2.4434 2.3035 9.5584 3.775 15.32l6.3574 0.79011c-1.1266-8.1722-1.1231-12.243-3.2065-14.856 2.7124-0.89711 3.8313-1.3694 7.2159-4.5049z" fill="#b47d56"/>
 <g transform="matrix(1.5442 -.28835 .28835 1.5442 -17.419 3.719)" fill="#bdc2c5" stroke-width=".48145">
  <path d="m53.21 52.786c1.1314 1.6971 3.3941 2.1213 5.0912 0.98995l-5.8143-7.2125c-1.6068-1.3695-1.5995-0.38152-3.0246 0.6364"/>
  <path d="m15.686 56.677c-1.9338-0.64826-3.9822 0.40257-4.6305 2.3364l9.2586 1.7106c2.1193 0.15023 1.4557-0.22442 2.0537-1.8899"/>
 </g>
 <g transform="matrix(3.2843 0 0 3.2843 -247.21 -473.11)" stroke-width=".23028">
  <path d="m84.179 151.84 1.7227-2.1817 3.0918 6.2338-3.1861-0.66963z" fill="#b47d56"/>
  <path d="m83.597 146-3.0778 3.2387c0.26702 1.1974 0.82027 2.3545 1.2023 3.0208 1.8883 1.3624 1.6773 1.9231 3.5574 0.15553 0.57587-0.61948 0.43699-1.5358 0.43699-1.5358l0.83879-1.2722-2.7358-3.7019" fill="#b47d56"/>
  <path d="m80.769 147.03c-0.07246-0.87483 0.51304-0.39468 0.51717-0.44316 2.2206-1.2787 3.8649-1.1335 4.1282-0.20607 1.3302 0.592 1.6764 2.743 1.1923 4.5834 0 0-1.4072 0.49922-1.8425-0.13304-0.05084-1.9277-0.75251-1.0978-1.3196-0.7921-0.70443-0.59016-0.48347-1.6132-1.5232-1.4561-0.88111 0.14886-1.4193 0.86561-1.4193 0.86561-0.50287-0.33227-1.148-1.9838 0.03649-2.6241" fill="#3c3537"/>
 </g>
 <path d="m62.518 38.62-2.4036 1.4919c-0.81018 0.44931-1.1979 1.5648-0.57774 2.492l0.67395 1.2152c0.42241 0.66618 1.079 0.99061 1.799 0.85618 1.0157 1.4494 2.832 3.1964 5.7847 1.453 0.54907-0.25172 3.2406-1.7972 1.2995-5.0109-2.9569-4.6632-2.9569-4.6632-6.5757-2.4974" fill="#b47d56" stroke-width=".75632"/>
 <path d="m64.884 37.529-9.6056-9.1077s-11.874-1.8692-16.242-1.4076c0.77627 7.8181 6.6691 6.693 14.097 6.3134l7.4379 6.8368" fill="#b47d56" stroke-width=".75632"/>
 <path d="m49.253 53.285-12.262 3.0881c-5.1942 3.2911-5.9266 3.4446-9.1548 7.4662l11.536 9.0133c3.7124-3.2014 3.4624-6.9551 8.4108-9.3095z" fill="#0f5894"/>
 <path d="m19.919 42.468 0.74519-2.8559c0.29027-1.013-0.40368-2.1619-1.3879-2.2978l-1.5052-0.3583c-0.8298-0.16479-1.5731 0.13417-1.9498 0.68372-1.9684-0.27175-4.5257-0.27364-5.4644 3.2577-0.22235 0.52093-1.0643 3.7145 2.8046 4.75 5.6541 1.1815 5.6541 1.1815 6.7575-3.1795" fill="#b47d56" stroke-width=".75632"/>
 <path d="m41.128 55.487c4.7225 8.9921 12.684 15.935 12.684 15.935l9.0932-11.087c-4.582-3.522-3.3869-3.4409-7.0261-7.172-4.7877 1.3115-9.8352 1.6429-14.751 2.3243z" fill="#1766b4"/>
 <path d="m57.342 64.13c-3.3931-2.7728-5.7073-6.8143-8.3779-10.085" fill="none" stroke="#fff" stroke-width="3"/>
 <path d="m59.326 54.437c-0.25776-4.5075-6.3438-9.2676-9.2527-13.641-4.6804-7.0373-4.7585-7.0841-4.7585-7.0841s-3.6877-5.5782-6.3751-6.7671c6.7108 10.32-0.71173 3.37-3.9187 2.6973 0 0-1.845-0.77284-3.4375 0.08088-1.3318 1.8523 0.24922 6.2939 0.85592 9.8694 3.0565 5.0408 7.9182 8.1281 4.32 17.048 10.448-3.5736 14.628 0.91555 22.566-2.2032z" fill="#e1c12d" stroke-width=".75632"/>
 <path d="m42.38 53.442c1.6773-5.8249-4.576-11.432-8.0175-17.23" fill="none" stroke="#fff" stroke-width="3"/>
 <path d="m31.43 30.583c11.539 0.92863-2.3497 17.083-6.919 20.244-1.8541 0.61803-6.7799-3.3931-9.3636-4.9265 0.38266-2.0686-0.47076-4.2943 3.2138-5.347 0.72101-0.08542 2.681 1.8749 5.1223 3.4292 1.6175-3.7642 5.5612-12.398 7.9465-13.4z" fill="#b47d56" fill-rule="evenodd"/>
</svg>
