<?xml version="1.0" encoding="UTF-8"?>
<svg width="100%" height="100%" version="1.1" viewBox="0 0 96 96" xmlns="http://www.w3.org/2000/svg">
 <g transform="matrix(1.0568 0 0 1.0569 25.503 .99086)" fill="none" stroke="#e8e8e8" stroke-width="1.8924">
  <path d="m26.579 17.269 21.279 21.638"/>
  <path d="m30.954 11.635 22.597 22.897"/>
  <path d="m36.589 7.1994 21.219 21.638"/>
  <path d="m43.842 4.5021 16.843 17.263"/>
  <path d="m23.702 24.642 17.023 16.963"/>
  <path d="m27.898 37.349 0.23976-0.059943 28.352-28.711"/>
  <path d="m32.693 40.826 27.153-27.093"/>
  <path d="m60.445 21.405-19.96 20.14"/>
  <path d="m23.702 24.642 19.96-19.66"/>
  <path d="m24.541 32.254 26.554-26.613"/>
 </g>
 <g transform="matrix(1.4999 0 0 1.4999 -.94271 .45825)" fill="#b2c1c0" stroke-width=".6667">
  <path d="m36 28c-5.2-5.2-4.4-13.5 1.8-19.7 6.7-6.7 16.7-8.3 21.5-3.6 4.8 4.8 3.1 14.8-3.6 21.5-6.2 6.2-14.5 7-19.7 1.8m21.5-21.5c-3.7-3.7-12.3-2-17.9 3.6-5.2 5.2-5.9 12-1.8 16.1 4.2 4.1 10.9 3.4 16.1-1.8 5.6-5.6 7.3-14.1 3.6-17.9"/>
  <path transform="matrix(.7075 -.7067 .7067 .7075 -16.364 30.685)" d="m17.6 33.8h22.7v2.5h-22.7z"/>
 </g>
 <path d="m10.007 92.554s1.1999-2.8499 1.9499-3.5998c8.0996-8.0997 14.699-14.699 14.699-14.699l5.0998-7.6496-2.6999-2.8499-7.6497 5.0998s-6.7497 6.7497-14.699 14.699c-0.74997 0.74993-3.5998 1.9499-3.5998 1.9499-0.89996 0.45014-1.05 1.35-0.45001 2.0999l5.3998 5.3997c0.59997 0.75001 1.4999 0.59996 1.9499-0.45007" fill="#3e4347"/>
 <g transform="matrix(1.4999 0 0 1.4999 -.94271 .45825)" fill="#b2c1c0" stroke-width=".6667">
  <path d="m35.3 25.1-2.7 2.7c-1 1-1 2.6 0 3.6s2.6 1 3.6 0l2.7-2.7-3.6-3.6"/>
  <path d="m13 47.4-0.8 0.9 5.3 1.8z" opacity=".5"/>
  <path d="m11.3 49.2-0.9 0.9 5.3 1.7z" opacity=".5"/>
  <path d="m9.5 51-0.9 0.8 5.3 1.8z" opacity=".5"/>
  <path d="m7.7 52.7-0.9 0.9 5.4 1.8z" opacity=".5"/>
  <path d="m5.9 54.5-0.9 0.9 5.4 1.8z" opacity=".5"/>
  <path d="m16.6 47.4-1.3-1.4 5.1-3.3 0.9 0.9z" opacity=".5"/>
 </g>
 <path d="m58.005 59.406c-2.8499 2.8499-2.8499 7.4997 0 10.5l10.5-10.5c-2.8499-2.8499-7.4997-2.8499-10.5 0" fill="#e8e8e8"/>
 <path d="m58.133 69.931 10.5-10.5 2.6515 2.6515-10.5 10.5z" fill="#ed4c5c" stroke-width=".99999"/>
 <path d="m73.754 64.655-2.5499-2.5499-10.5 10.5 2.5499 2.5499 7.9496 18.299 2.5499-2.5499-1.4999-3.5998 2.5499-2.5499 2.2499 2.9998 2.5499-2.5498-2.2499-2.9999 2.5499-2.5499 2.8499 2.3999 2.5499-2.5499-2.8499-2.3999 3.1499-3.1498 3.5998 1.4999 2.5499-2.5499-17.999-8.2497m-2.3999 7.6497-0.59998 0.59996-2.2499-2.9999 2.8499 2.3999m1.1999 9.2996-1.9499 1.9499-1.4999-3.5998 1.3499-1.3499 2.0999 2.9998m-4.3498-5.9997-0.59998 0.59996-1.4999-3.5998 2.0999 2.9999m7.0497 3.2998-2.2499-2.9998 1.3499-1.3499 2.8499 2.3998-1.9499 1.9499m-4.0498-11.549 3.5998 1.4999-0.74996 0.75001-2.8499-2.25m8.5496 7.0497-2.8499-2.3999 1.4999-1.4999 3.5998 1.4999-2.2499 2.3999" fill="#e8e8e8"/>
</svg>
