<?xml version="1.0" encoding="UTF-8"?>
<svg width="100%" height="100%" version="1.1" viewBox="0 0 96 96" xmlns="http://www.w3.org/2000/svg">
 <defs>
  <clipPath id="clipPath44">
   <path d="m0 38h38v-38h-38z"/>
  </clipPath>
 </defs>
 <g transform="matrix(6.014 0 0 6.014 -76.194 -1464.1)" stroke-width=".62846">
  <path d="m14.693 245.4c1.0425-1.0425 2.7327-1.0425 3.7752 0 1.0425 1.0425 1.0425 2.7327 0 3.7752-1.0425 1.0425-2.7327 1.0425-3.7752 0-1.0425-1.0425-1.0424-2.7328 0-3.7752" fill="#e6e6e6" style="paint-order:stroke markers fill"/>
  <path d="m14.924 245.66c0.79101-0.79101 2.0735-0.79101 2.8645 0 0.79101 0.791 0.79101 2.0735 0 2.8645-0.79101 0.791-2.0735 0.791-2.8645 0-0.79101-0.79101-0.79093-2.0736 0-2.8645" fill="#f0f0f0" style="paint-order:stroke markers fill"/>
  <g transform="matrix(-.10487 .10487 .10487 .10487 16.581 243.3)" clip-path="url(#clipPath44)" fill="none" stroke-width="2.2424">
   <path d="m6.6748 27.475c1.3541 0.3975 2.6711 0.88777 3.4354 2.7596" stroke="#dd2e44" stroke-linecap="round"/>
   <path d="m8.1372 23.384c1.4092-0.07556 2.8143-0.05128 4.1577 1.4597" stroke="#dd2e44" stroke-linecap="round"/>
   <path d="m8.5029 19.172c1.3185-0.5032 2.6635-0.91009 4.405 0.11723" stroke="#dd2e44" stroke-linecap="round"/>
   <path d="m8.5085 14.702c1.2228-0.70446 2.4871-1.318 4.3685-0.57758" stroke="#dd2e44" stroke-linecap="round"/>
   <path d="m7.2034 10.871c0.73643-1.2038 1.5528-2.3477 3.559-2.5982" stroke="#dd2e44" stroke-linecap="round"/>
   <path d="m6.7333 5.8419c6.1769 6.6834 4.136 22.02 0 26.283" stroke="#000" stroke-opacity=".2"/>
   <path d="m30.423 9.6463c-1.3798-0.29606-2.7295-0.68737-3.6305-2.4974" stroke="#dd2e44" stroke-linecap="round"/>
   <path d="m29.268 13.835c-1.3997 0.17978-2.8027 0.25971-4.2545-1.1475" stroke="#dd2e44" stroke-linecap="round"/>
   <path d="m29.215 18.062c-1.2775 0.59953-2.5888 1.105-4.4015 0.20954" stroke="#dd2e44" stroke-linecap="round"/>
   <path d="m29.541 22.519c-1.1672 0.79314-2.3826 1.4987-4.3137 0.89974" stroke="#dd2e44" stroke-linecap="round"/>
   <path d="m31.126 26.243c-0.64518 1.2551-1.3745 2.4563-3.3567 2.8548" stroke="#dd2e44" stroke-linecap="round"/>
   <path d="m32.084 31.34c-6.6552-6.2072-5.7565-21.886-1.9478-26.444" stroke="#000" stroke-opacity=".2"/>
  </g>
 </g>
 <g>
  <path d="m68.049 9.4505c3.3614-3.8264 6.1063-7.204 11.225-6.7422 6.0134 0.61621 11.06 5.9977 11.297 11.65 0.01244 2.9398 0.57091 3.1342-4.3242 8.7345-26.667 28.473-34.111 25.11-72.558 65.108 0.70659 2.1403-0.33065 3.2453-2.5024 5.3088 0 0-5.1673-2.381-6.2179-5.7616 2.2213-2.6057 3.1267-3.5384 5.2339-2.9722 35.6-42.424 32.152-46.397 57.846-75.326z" clip-rule="evenodd" fill="#dbb471" fill-rule="evenodd" stroke-miterlimit="10"/>
  <path d="m10.21 84.794 3.4841 3.423c6.5962-6.6691 13.13-13.329 20.507-20.11l-6.9988-4.401c-5.5108 7.1828-11.258 14.129-16.993 21.088z" fill="#e8e8e8" fill-rule="evenodd"/>
  <g transform="matrix(-1.4775 .084396 -.084396 -1.4775 100.86 88.193)" fill="#b2c1c0" stroke-width=".51644">
   <path d="m59.568 7.3875-3.1353-1.8786-1.6426 1.5042 3.1836 2.0569z"/>
   <path d="m56.299 10.93-3.4411-2.1594-1.8517 1.58 3.6935 2.3493z"/>
   <path d="m53.075 14.51-3.935-2.5151-1.9083 1.6476 4.0817 2.7225z"/>
  </g>
  <path d="m31.61 70.619 3.5332-3.3109-6.8107-5.0372-2.9831 3.9353" fill="#4a4e51" stroke-width=".76429"/>
  <path d="m86.018 8.7445c-5.9876-8.9205-13.265-4.4609-23.466 9.536-10.29 14.118-26.184 36.103-31.012 42.474 8.0815-10.267 21.576-25.801 31.757-36.993 10.192-11.204 19.235-15.948 22.721-15.018z" fill="#e7cc9e" fill-rule="evenodd"/>
 </g>
</svg>
