<?xml version="1.0" encoding="UTF-8"?>
<svg width="100%" height="100%" version="1.1" viewBox="0 0 96 96" xmlns="http://www.w3.org/2000/svg">
 <g>
  <path d="m78.069 4.092-51.491 58.721c-2.2131 2.6557-6.3442 2.9508-9.1475 0.59017-2.8033-2.3607-3.2459-6.3442-0.88524-9.1475 2.2131-2.6557 1.7705-6.7869-0.88524-9.1475-2.8033-2.3607-6.7868-2.0655-9.1475 0.59017-6.7868 8.1147-5.459 20.36 2.8033 27.295 8.1147 6.9344 20.065 6.1967 27-1.4754l54.295-67.426h-12.541" fill="#3e4347"/>
  <path d="m55.643 47.469s0.7377-9.1474 1.7705-11.951c3.3934-9.5901 23.754-31.426 23.754-31.426h-4.2787l-31.869 37.328c-0.29507 17.557-11.065 32.311-11.065 32.311 3.3934-1.623 21.688-26.262 21.688-26.262" fill="#c7e755"/>
  <path d="m45.02 41.42s-2.8033 3.3934-5.0164 6.0491c3.6885 9.7376-5.9016 26.262-5.9016 26.262s15.639-20.656 10.918-32.311" fill="#83bf4f"/>
 </g>
 <g transform="matrix(1.4754 0 0 1.4754 -60.969 47.103)" stroke-width=".67778">
  <circle cx="90.876" cy="17.699" r="12.41" fill="#df650c" style="paint-order:normal"/>
  <circle cx="89.935" cy="16.244" r="8.8151" fill="#ec7a26" style="paint-order:normal"/>
 </g>
</svg>
