<?xml version="1.0" encoding="UTF-8"?>
<svg width="100%" height="100%" version="1.1" viewBox="0 0 96 96" xmlns="http://www.w3.org/2000/svg">
 <g transform="matrix(-7.3184 0 0 -7.3184 200.46 1880.3)" stroke-width=".51644">
  <path d="m23.186 244.52c0.43136-0.22731 1.9612-0.7702 2.357 1.2472s-1.3877 1.3052-3.0632 2.1794c-1.3782 0.71902-0.67979-0.0259-5.8156 6.2222 0.09655 0.29246-0.46705 0.67848-0.46705 0.67848l-1.1624-1.1314c0.30352-0.35604 0.58364-0.60861 1.1531-0.0151 6.5823-7.9749 4.297-7.6828 6.9981-9.1807z" clip-rule="evenodd" fill="#dbb471" fill-rule="evenodd" stroke-miterlimit="10"/>
  <path d="m16.177 253.71 0.47607 0.46772 2.4801-3.0087-0.64986-0.37963c-0.753 0.98147-1.5227 1.9697-2.3063 2.9206z" fill="#e8e8e8" fill-rule="evenodd"/>
  <g transform="matrix(-.20189 .011532 -.011532 -.20189 28.564 254.17)" fill="#b2c1c0" stroke-width=".51644">
   <path d="m59.568 7.3875-2.9114-1.7303-1.514 1.6278 2.8687 1.8065z"/>
   <path d="m56.346 10.946-2.9078-1.823-1.6283 1.738 2.9369 1.855z"/>
   <path d="m53.125 14.595-2.9313-1.9766-1.6421 1.7793 2.9107 2.0726z"/>
  </g>
  <path d="m18.835 251.54 0.37721-0.46804-0.59827-0.46151-0.38611 0.52208" fill="#4a4e51" stroke-width=".10443"/>
  <path d="m22.751 247.81-1.4076-1.4545-0.70379 1.2199 0.84455 0.90711z" fill="#4a4e51" fill-rule="evenodd"/>
  <path d="m24.888 247.24-0.52246-2.943-0.40483-7e-3 0.59721 3.051z" fill="#4a4e51" fill-rule="evenodd"/>
 </g>
 <g transform="matrix(.83229 0 0 .83229 2.5018 2.3099)" stroke-width=".92842">
  <circle cx="32" cy="32" r="30" fill="#dcdcdc"/>
  <circle cx="29.276" cy="28.591" r="25.631" fill="#f0f0f0"/>
  <circle cx="24.702" cy="23.31" r="17.351" fill="#fff"/>
  <path d="m28.4 18c-0.1-3.1 0.3-5.9 0.9-8.4 14.5 0.3 25.2 7.1 30.5 11.3-0.5-1.2-1.1-2.4-1.7-3.6-6-4.2-15.8-9.2-28.3-9.6 0.7-2.5 1.6-4.4 2.2-5.7h-0.1c-0.7 0-1.4 0-2.1 0.1-2.4 5.2-6.8 18 1 30-2 4-4.8 6.9-7.7 9-10-18.3-5.5-32.4-4-36.2-0.9 0.4-1.7 0.9-2.5 1.4-1.9 5.9-4.3 19.1 5 35.9-2.6 1.6-5.3 2.7-7.8 3.4-7-12.7-6.5-25.4-5.5-32.1-0.8 1-1.6 2.1-2.3 3.3-0.4 7.3 0.1 18.2 6 29.3-2.5 0.6-4.7 0.8-6 0.9 0.4 0.6 0.7 1.2 1.1 1.8 5.7-0.5 19-3.1 25.5-15.8 4.5-0.2 8.4 0.7 11.7 2.2-10.8 17.8-25.3 21-29.3 21.5l2.4 1.5c6-1.3 18.7-5.8 28.6-22.3 2.7 1.4 5 3.2 6.8 5-7.5 12.4-18.7 18.3-25.1 20.8 1.3 0.2 2.6 0.3 4 0.3 6.6-3.1 15.9-9.1 22.4-19.7 1.8 1.9 3 3.6 3.8 4.8 0.4-0.6 0.7-1.2 1-1.9-3.3-4.7-12.2-14.9-26.4-14.2-2.4-3.7-3.6-7.6-4-11.2 20.9 0.4 30.8 11.3 33.4 14.6 0.1-0.8 0.1-1.6 0.1-2.4v-0.5c-4.1-4.6-14.4-13.2-33.6-13.5" fill="#a7b2b1"/>
 </g>
 <g transform="matrix(6.014 0 0 6.014 -16.042 -1429.7)" stroke-width=".62846">
  <g transform="matrix(-.089041 .089041 .089041 .089041 15.459 247.46)" stroke-width="1.6506">
   <path transform="matrix(-4.768 4.768 4.768 4.768 -1081 -1239.1)" d="m14.693 245.4c1.0425-1.0425 2.7327-1.0425 3.7752 0 1.0425 1.0425 1.0425 2.7327 0 3.7752-1.0425 1.0425-2.7327 1.0425-3.7752 0-1.0425-1.0425-1.0424-2.7328 0-3.7752" fill="#e6e6e6" style="paint-order:stroke markers fill"/>
   <path transform="matrix(-4.768 4.768 4.768 4.768 -1081 -1239.1)" d="m14.924 245.66c0.79101-0.79101 2.0735-0.79101 2.8645 0 0.79101 0.791 0.79101 2.0735 0 2.8645-0.79101 0.791-2.0735 0.791-2.8645 0-0.79101-0.79101-0.79093-2.0736 0-2.8645" fill="#f0f0f0" style="paint-order:stroke markers fill"/>
   <path d="m6.7333 5.8419c6.1769 6.6834 4.136 22.02 0 26.283" fill="none" stroke="#5a5f62" stroke-width="3.9614"/>
   <path d="m32.084 31.34c-6.6552-6.2072-5.7565-21.886-1.9478-26.444" fill="none" stroke="#5a5f62" stroke-width="3.9614"/>
  </g>
 </g>
</svg>
