<?xml version="1.0" encoding="UTF-8"?>
<svg width="100%" height="100%" version="1.1" viewBox="0 0 96 96" xmlns="http://www.w3.org/2000/svg">
 <defs>
  <clipPath id="clipPath16-2">
   <path d="m0 38h38v-38h-38z"/>
  </clipPath>
  <clipPath id="clipPath28-4">
   <path d="m1.193 5c0-2 1.807-4 3.807-4h28c2 0 3.731 2 3.731 4 0 4.355-4.634 11-17.731 11-13.492 0-17.807-6.459-17.807-11"/>
  </clipPath>
 </defs>
 <g transform="matrix(2.4186 0 0 -2.4186 .91546 93.788)" stroke-width=".51684">
  <g clip-path="url(#clipPath16-2)" stroke-width=".51684">
   <g transform="translate(5,1)" stroke-width=".51684">
    <path d="m0 0h28c2 0 3.73 2 3.73 4 0 4.355-4.633 11-17.73 11-13.492 0-17.807-6.459-17.807-11 0-2 1.807-4 3.807-4" fill="#77b255"/>
   </g>
  </g>
 </g>
 <g transform="matrix(2.4186 0 0 -2.4186 .91546 93.788)" stroke-width=".51684">
  <g clip-path="url(#clipPath28-4)" stroke-width=".51684">
   <g transform="translate(12.292 7.5)" stroke-width=".51684">
    <path d="m0 0c1.125 3.75 9.75 7.666 14.333 7.625 5-0.045 2.625-0.792 1.625-0.792s-11.791-2.625-14-7.5c-1 0-1.958 0.667-1.958 0.667" fill="#5c913b"/>
   </g>
  </g>
 </g>
 <g transform="matrix(1.9232 0 0 -2.4186 42.847 78.067)" stroke-width=".57959">
  <path d="m0 0c0-1.381-2.91-2.5-6.5-2.5s-6.5 1.119-6.5 2.5 2.91 2.5 6.5 2.5 6.5-1.119 6.5-2.5" fill="#292f33"/>
 </g>
 <g transform="matrix(2.4186 0 0 -2.4186 27.52 13.975)" stroke-width=".51684">
  <path d="m0 4.1245v-30.124c0-0.553 0.448-0.60906 1-0.60906s1 0.05606 1 0.60906v30.124z" fill="#ffac33"/>
 </g>
 <g transform="matrix(2.4186 0 0 -2.4186 27.52 11.557)" stroke-width=".51684">
  <path d="m0.99996 2.2373c2.5247-0.20512 4.7959-1.0518 7.5607-2.1594 3.1315-1.2545 8.2751-0.13176 8.1968-0.78968-3.6349-6.9876-12.246-4.3233-15.757-8.4879z" fill="#dd2e44"/>
 </g>
 <g transform="matrix(7.4881 0 0 7.4889 311.7 -1749.2)" stroke-width=".50471">
  <circle cx="-32.951" cy="239.97" r="2.0544" fill="#f0f0f0" style="paint-order:normal"/>
  <ellipse cx="-33.215" cy="239.68" rx="1.4524" ry="1.4524" fill="#fff" style="paint-order:normal"/>
  <path transform="rotate(135)" d="m194.13-147.31a0.42283 0.42283 0 0 1-0.21359 0.36743 0.42283 0.42283 0 0 1-0.42499-4e-3 0.42283 0.42283 0 0 1-0.20702-0.37118l0.42277 8e-3z" fill="#dcdcdc" style="paint-order:normal"/>
  <path transform="rotate(135)" d="m192.37-147.67a0.42283 0.42283 0 0 1-0.21359 0.36743 0.42283 0.42283 0 0 1-0.42499-4e-3 0.42283 0.42283 0 0 1-0.20702-0.37117l0.42276 8e-3z" fill="#dcdcdc" style="paint-order:normal"/>
  <path transform="rotate(135)" d="m193.45-148.01a0.42283 0.42283 0 0 1-0.2136 0.36743 0.42283 0.42283 0 0 1-0.42498-4e-3 0.42283 0.42283 0 0 1-0.20702-0.37118l0.42276 8e-3z" fill="#dcdcdc" style="paint-order:normal"/>
  <path transform="rotate(135)" d="m193.04-146.98a0.42283 0.42283 0 0 1-0.21359 0.36743 0.42283 0.42283 0 0 1-0.42499-4e-3 0.42283 0.42283 0 0 1-0.20702-0.37117l0.42277 8e-3z" fill="#e6e6e6" style="paint-order:normal"/>
  <path transform="rotate(135)" d="m192.01-146.6a0.42283 0.42283 0 0 1-0.21359 0.36744 0.42283 0.42283 0 0 1-0.42498-4e-3 0.42283 0.42283 0 0 1-0.20703-0.37118l0.42277 8e-3z" fill="#e6e6e6" style="paint-order:normal"/>
  <path transform="rotate(135)" d="m194.83-146.64a0.42283 0.42283 0 0 1-0.21359 0.36743 0.42283 0.42283 0 0 1-0.42498-4e-3 0.42283 0.42283 0 0 1-0.20702-0.37117l0.42276 8e-3z" fill="#e6e6e6" style="paint-order:normal"/>
  <path transform="rotate(135)" d="m193.73-146.31a0.42283 0.42283 0 0 1-0.21359 0.36743 0.42283 0.42283 0 0 1-0.42498-4e-3 0.42283 0.42283 0 0 1-0.20702-0.37117l0.42276 8e-3z" fill="#f0f0f0" style="paint-order:normal"/>
  <path transform="rotate(135)" d="m192.74-145.83a0.42283 0.42283 0 0 1-0.21359 0.36744 0.42283 0.42283 0 0 1-0.42498-4e-3 0.42283 0.42283 0 0 1-0.20703-0.37117l0.42277 8e-3z" fill="#f0f0f0" style="paint-order:normal"/>
  <path transform="rotate(135)" d="m194.42-145.64a0.42283 0.42283 0 0 1-0.21359 0.36743 0.42283 0.42283 0 0 1-0.42498-4e-3 0.42283 0.42283 0 0 1-0.20702-0.37117l0.42276 8e-3z" fill="#f0f0f0" style="paint-order:normal"/>
  <path transform="rotate(135)" d="m193.45-145.11a0.42283 0.42283 0 0 1-0.21359 0.36743 0.42283 0.42283 0 0 1-0.42499-4e-3 0.42283 0.42283 0 0 1-0.20702-0.37117l0.42276 8e-3z" fill="#f0f0f0" style="paint-order:normal"/>
 </g>
</svg>
