<?xml version="1.0" encoding="UTF-8"?>
<svg width="100%" height="100%" version="1.1" viewBox="0 0 96 96" xmlns="http://www.w3.org/2000/svg">
 <g>
  <path d="m49.26 72.861c-0.25344 11.861 11.808 10.519 15.264 7.5306 8.4135-7.0662 2.4722-10.256-2.3401-16.829" fill="#b59764" stroke-width=".77317"/>
  <path d="m67.705 8.0762c-0.59398 2.9699-4.0096 5.7916-4.4551 9.3555-0.29699 1.6334-2.3768 3.2675-2.8223 3.5645-5.3458 2.8214-10.395 7.7207-10.395 7.7207l6.0879 6.832s6.9791-4.9006 10.543-9.5039c0.59398-0.74247 1.9315-1.3372 2.377-3.1191 1.4849-5.6428 4.3066-13.215 4.3066-13.215zm-50.191 10.395-3.8613 4.4551s6.0885 4.1584 9.6523 8.7617c1.188 1.4849 2.6735 1.4842 3.416 1.9297 5.0488 2.8214 13.363 4.4551 13.363 4.4551l2.9707-8.7598s-7.8708-2.8221-13.811-3.2676c-0.59398 0-1.4839 5.13e-4 -2.6719-1.3359-2.2274-2.5244-6.8312-4.1594-9.0586-6.2383zm48.557 31.631-1.6328 6.3848 7.8711 4.1582 7.8262 8.3945-0.56055 0.50195c-0.93874 0.80463-1.0722 2.1472-0.26758 3.0859l1.0723 1.3398c0.53642 0.67052 1.3419 0.94008 2.1465 0.67188 1.4752 1.6093 3.8882 3.352 6.9727 0.66992 0.53642-0.40231 3.3533-2.9501 0.53711-6.3027-2.5767-3.2638-3.5065-4.4296-4.8613-3.9707l-9.1543-9.291zm-15.889 2.375c-2.2182 0-4.2333 0.63312-5.6719 1.6504-0.04211-0.05321-0.07253-0.11649-0.11914-0.16602-2.6729-2.6729-5.4949-0.29611-8.6133 7.8711-3.1184 8.0187-2.9688 8.168-2.9688 8.168l2.0781 11.73c0.29699 2.0789 1.4855 3.5637-1.4844 5.6426-2.9699 2.2274-6.8301 1.9311-6.8301 3.2676 0 1.3365 2.3756 1.3359 5.791 1.3359 3.1184 0 6.681-2.8209 8.3145-1.3359 1.6334 1.3365 3.5656 1.3359 5.793 1.3359 2.0789 0 1.9304-3.1191 0-3.1191s-4.4549-4.1575-4.9004-5.9395c-1.0198-4.0792-2.1576-12.132-2.2012-12.441 0.22754-0.23861 1.0592-1.5372 3.834-6.5664 0 0 0.52419-1.1019 1.0371-2.5938 1.1698 0.91545 2.784 1.5559 4.6055 1.7695-0.55346 1.9569-0.57086 4.3246 0.33984 6.6504-1.0856 1.2899-0.09375 3.6543-0.09375 3.6543 1.3216 1.2059 1.9802 0.17287 2.2051-0.77148 0 0 0.45419 0.81735 1.1855 1.7949 3.4806 4.6085 3.9245 1.5294 7.6406-0.79492 3.6291-2.2699 6.5486-0.81497 2.7637-6.9316-0.73136-0.97757-1.375-1.627-1.375-1.627 1.8747 0.61051 2.4755 0.13179 0.97266-1.6973 0 0-1.155-1.5834-2.3359-1.2539-0.89641-0.92649-1.8018-1.6703-2.6934-2.252 0.38151-0.62674 0.59766-1.3124 0.59766-2.0352 0-2.9699-3.4163-5.3457-7.8711-5.3457z" fill="#fed0ac" stroke-width=".77317"/>
  <path d="m48.252 36.885-6.3848 5.0488s-3.1734 5.2671-3.3945 13.512c-0.78539 1.1306-2.5547 3.8433-4.3281 7.7227 0 0 5.4954 1.1879 7.2773 5.3457 0 0 0.63785-2.133 2.0117-4.8359 0.40958-0.34513 1.472-0.95508 3.9277-0.95508 0-0.29699-0.14844-0.59364-0.14844-0.89062 0-3.4154 2.6726-6.0879 5.9395-6.0879 2.0789 0 3.8609 1.1869 5.0488 2.8203l3.1172-1.0391 4.3066 0.14844s3.1185-4.0082 4.752-8.0176c0 0-9.2069 0.74211-14.701-9.207z" fill="#3e4347" stroke-width=".77317"/>
  <path d="m69.932 3.0273c-1.3364-0.00913-2.375 1.0405-2.375 2.377 0 0-0.2971 0.59295 0.29688 2.6719l5.6426 1.6348c3.2669-0.44548 8.9119-3.3269 9.5059-6.5938zm-55.578 11.961c-0.45244-0.02436-0.90512 0.08681-1.2949 0.36524l-10.752 7.5156c2.2274 2.5244 8.3758 1.6901 11.346 0.05664l3.8613-4.4551c-0.74247-2.0789-1.1875-2.375-1.1875-2.375-0.46405-0.64966-1.2186-1.0668-1.9727-1.1074z" fill="#3e4347" stroke-width=".77317"/>
  <path d="m33.402 37.33s0.89097-6.3853 5.9398-10.395c0 0 6.3853 2.8214 7.8702 2.6729 1.4849-0.1485 6.6823-5.0488 6.6823-5.0488s5.0488 2.8214 8.6127 8.6127l-6.8308 7.2762s-3.8609-1.9304-13.81 1.4849c0 0-3.8609-1.3365-8.4642-4.6033" fill="#428bc1" stroke-width=".77317"/>
 </g>
</svg>
