<?xml version="1.0" encoding="UTF-8"?>
<svg width="100%" height="100%" version="1.1" viewBox="0 0 96 96" xmlns="http://www.w3.org/2000/svg">
 <g transform="matrix(1.4896 0 0 1.4896 -.95088 -.239)">
  <g fill="none" stroke="#d0d0d0" stroke-width="1.3427">
   <path d="m26.579 17.269 21.279 21.638"/>
   <path d="m30.954 11.635 22.597 22.897"/>
   <path d="m34.827 5.1854 24.408 25.079"/>
   <path d="m23.702 24.642 17.023 16.963"/>
   <path d="m24.529 40.562 26.264-26.288"/>
   <path d="m30.007 43.763 24.735-25.402"/>
   <path d="m58.404 23.412-17.919 18.133"/>
   <path d="m23.702 24.642 18.471-18.186"/>
   <path d="m21.856 35.191 24.967-25.278"/>
   <path d="m21.536 31.16 12.513 13.153"/>
  </g>
  <g fill="#71a5ff" stroke-width=".52441">
   <path d="m26.847 15.399c-4.884 11.533-10.47 19.975-3.6196 26.825 6.8502 6.8502 12.736 2.6 26.238-3.8713s17.773-8.0204 2.9525-24.797c-14.82-16.776-20.687-9.6897-25.571 1.8429zm2 1.9c4.3738-9.3463 7.6381-16.819 21.271-1.9999 13.633 14.819 7.4363 16.185-2.5525 21.054s-16.417 9.9698-22.461 3.8761c-6.0438-6.0938-0.63085-13.584 3.743-22.93z"/>
   <path d="m25.503 43.369s-3.0811 2.4413-4.6811 0.84126 0.79457-4.5783 0.79457-4.5783-0.62168-8.3072-0.72168-7.6072c-1.2307 6.322-0.094569 7.975-3.1946 11.575l3.8 3.8c3.7-3 5.2778-1.1205 11.519-2.6839 1.153-0.27335-7.5159-1.3469-7.5159-1.3469z"/>
  </g>
  <path d="m3.5294 56.721 13.647-13.647 4.879 4.879-13.647 13.647z" fill="#4d4f59" stroke-width=".5244"/>
  <path d="m10 50.2 3.4 6.3 2.1-2.1-3.4-6.4z" fill="#4d4f59" stroke-width=".52441"/>
  <path d="m5.7 54.5 3.4 6.4 2.1-2.2-3.4-6.3z" fill="#4d4f59" stroke-width=".52441"/>
  <path d="m3.5 56.7 4.8 4.9 0.8-0.7-3.4-6.4z" fill="#5f606c" stroke-width=".52441"/>
  <path d="m7.8 52.4 3.4 6.3 2.2-2.2-3.4-6.3z" fill="#5f606c" stroke-width=".52441"/>
  <path d="m17.2 43-0.7 0.7 3.3 6.4 2.2-2.2z" fill="#5f606c" stroke-width=".52441"/>
  <path d="m14.3 45.9 3.4 6.3 2.1-2.1-3.3-6.4z" fill="#4d4f59" stroke-width=".52441"/>
  <path d="m12.1 48 3.4 6.4 2.2-2.2-3.4-6.3z" fill="#5f606c" stroke-width=".52441"/>
  <path d="m3.0561 56.263 1.5558-1.5554 5.7267 5.7283-1.5558 1.5554z" fill="#4d4f59" stroke-width=".5244"/>
  <path d="m15.17 44.169 1.5561-1.5552 5.7259 5.7291-1.5561 1.5552z" fill="#4d4f59" stroke-width=".5244"/>
 </g>
 <g transform="matrix(.78685 0 0 .78685 24.822 17.64)" stroke-width=".99276">
  <circle cx="12.491" cy="11.983" r="11" fill="#2e6ae2" style="paint-order:stroke fill markers"/>
  <circle cx="11.581" cy="10.951" r="8.1954" fill="#5578e7" style="paint-order:stroke fill markers"/>
 </g>
</svg>
