<?xml version="1.0" encoding="UTF-8"?>
<svg width="100%" height="100%" version="1.1" viewBox="0 0 96 96" xmlns="http://www.w3.org/2000/svg">
 <g>
  <path d="m87.016 9.0866c-8.2373-8.2372-41.775-6.178-63.692 15.739-21.917 21.917-23.976 55.307-15.739 63.692 8.2373 8.2373 41.775 6.178 63.692-15.739 21.917-21.917 23.976-55.307 15.739-63.692z" fill="#e8e8e8"/>
  <path d="m85.545 22.325c-2.2064 4.8541-4.5599 9.4141-7.3547 13.974-5.2954 8.6786-11.62 17.063-18.24 24.859-6.178 7.3547-13.533 15.151-22.358 19.416-4.5599 2.2064-9.2669 2.5006-13.974 3.5303-4.2657 1.0297-9.5611 3.5303-10.149 7.5018 12.944 3.9715 39.421-0.44142 57.808-18.828 17.651-17.651 22.358-42.657 19.269-56.19-2.0593 1.3238-3.6773 3.0889-5.0012 5.7366" fill="#c5d4d8"/>
  <path d="m57.451 6.2918c-2.2064 0.44142-4.4128 1.0297-6.6192 1.7651-8.9727 4.2658-18.24 10.885-25.594 18.093-21.623 21.77-23.241 54.572-19.122 58.543 5.8838 5.8837 35.155-2.6477 55.896-26.036 17.063-19.122 25.006-40.157 25.889-48.541-0.44125-0.2941-0.73547-0.73546-0.88256-1.0297-4.5599-4.4128-16.18-5.8837-29.566-2.7948m1.1768 48.982c-18.828 18.828-42.657 24.27-47.953 18.975-4.2657-4.2657 0.29421-28.83 19.122-47.658 18.828-18.975 43.099-23.682 47.658-18.975 5.2954 5.2954 0 28.83-18.828 47.658" fill="#4b53a2"/>
  <path d="m24.796 41.594c-6.7663 10.885-8.5315 21.329-5.8838 23.976s13.091 0.73547 23.976-5.8838c-9.2669 4.707-18.093 5.2954-20.74 2.7948-2.6477-2.7948-2.0593-11.62 2.6477-20.887" fill="#cb2c41"/>
  <path d="m44.065 22.325c9.2669-4.707 18.093-5.2954 20.74-2.7948 2.6477 2.5006 1.9122 11.473-2.7948 20.74 6.7663-10.885 8.5315-21.329 5.8838-23.976-2.5006-2.5006-12.944-0.73547-23.829 6.0309" fill="#cb2c41"/>
  <path d="m87.752 10.116c-0.88256 8.5315-8.8256 29.419-25.889 48.541-20.74 23.388-49.865 32.067-55.749 26.036-3.9715-3.9715-2.5006-36.774 19.269-58.543 7.3547-7.3547 16.622-13.827 25.594-18.093-9.5611 3.089-19.416 8.5315-27.654 16.769-21.917 21.917-23.976 55.454-15.739 63.692 2.6477 2.6477 8.0902 4.2657 14.709 4.4128 12.65-3.6774 31.625-12.062 47.806-34.861 9.2669-12.65 16.475-26.918 21.329-35.155-0.29419-5.5896-1.618-10.002-3.6774-12.797" fill="#cb2c41"/>
 </g>
</svg>
