<?xml version="1.0" encoding="UTF-8"?>
<svg width="100%" height="100%" version="1.1" viewBox="0 0 96 96" xmlns="http://www.w3.org/2000/svg">
 <g>
  <g transform="matrix(5.2711 -1.1208 1.1208 5.2711 -355.47 -696.25)" stroke-width=".70135">
   <path d="m38.207 152.44c-0.5708 0-1.0335 0.58859-1.0335 1.3146 5.29e-4 0.60344 0.32402 1.1289 0.78445 1.2743l2.3578-1.7874z" fill="#ceba84" style="paint-order:normal"/>
   <g transform="rotate(4.8713 55.237 145.8)" stroke-width=".70135">
    <path d="m44.318 155.69c-0.5708 0-1.0335 0.58858-1.0335 1.3146 5.29e-4 0.60345 0.32402 1.1289 0.78445 1.2744l1.0862 0.45475 0.66353-2.4877z" fill="#ceba84" style="paint-order:normal"/>
    <ellipse cx="45.45" cy="157.47" rx="1.0335" ry="1.3146" fill="#b6a578" style="paint-order:normal"/>
    <path transform="matrix(.26458 0 0 .26458 0 93.8)" d="m170.22 241.85a1.874 2.3837 0 0 0 1.5859 1.1191 1.874 2.3837 0 0 0 1.875-2.3848 1.874 2.3837 0 0 0-1.875-2.3828 1.874 2.3837 0 0 0-0.58399 0.12109 1.874 2.3837 0 0 1 0.082 0.18555 1.874 2.3837 0 0 1 0.0781 0.2168 1.874 2.3837 0 0 1 0.0586 0.22656 1.874 2.3837 0 0 1 0.041 0.23242 1.874 2.3837 0 0 1 0.0215 0.23633 1.874 2.3837 0 0 1 6e-3 0.16797 1.874 2.3837 0 0 1-0.01 0.23828 1.874 2.3837 0 0 1-0.0273 0.23633 1.874 2.3837 0 0 1-0.0469 0.23047 1.874 2.3837 0 0 1-0.0645 0.2246 1.874 2.3837 0 0 1-0.082 0.2129 1.874 2.3837 0 0 1-0.0976 0.20312 1.874 2.3837 0 0 1-0.11328 0.19141 1.874 2.3837 0 0 1-0.12696 0.17382 1.874 2.3837 0 0 1-0.14062 0.15625 1.874 2.3837 0 0 1-0.15235 0.13868 1.874 2.3837 0 0 1-0.16211 0.11914 1.874 2.3837 0 0 1-0.17187 0.0976 1.874 2.3837 0 0 1-0.0937 0.0391z" fill="#9d8956" style="paint-order:normal"/>
    <path transform="matrix(.26458 0 0 .26458 0 93.8)" d="m170.22 241.85a1.874 2.3837 0 0 0 0.0937-0.0391 1.874 2.3837 0 0 0 0.17187-0.0976 1.874 2.3837 0 0 0 0.16211-0.11914 1.874 2.3837 0 0 0 0.15235-0.13868 1.874 2.3837 0 0 0 0.14062-0.15625 1.874 2.3837 0 0 0 0.12696-0.17382 1.874 2.3837 0 0 0 0.11328-0.19141 1.874 2.3837 0 0 0 0.0976-0.20312 1.874 2.3837 0 0 0 0.082-0.2129 1.874 2.3837 0 0 0 0.0645-0.2246 1.874 2.3837 0 0 0 0.0469-0.23047 1.874 2.3837 0 0 0 0.0273-0.23633 1.874 2.3837 0 0 0 0.01-0.23828 1.874 2.3837 0 0 0-6e-3 -0.16797 1.874 2.3837 0 0 0-0.0215-0.23633 1.874 2.3837 0 0 0-0.041-0.23242 1.874 2.3837 0 0 0-0.0586-0.22656 1.874 2.3837 0 0 0-0.0781-0.2168 1.874 2.3837 0 0 0-0.082-0.18555 1.874 2.3837 0 0 0-1.2891 2.2617 1.874 2.3837 0 0 0 0.28711 1.2656z" fill="#877649" style="paint-order:normal"/>
   </g>
  </g>
  <g transform="matrix(5.2711 -1.1208 1.1208 5.2711 -326.25 -729.5)" stroke-width=".70135">
   <path d="m38.315 152.28c-0.5708 0-1.0335 0.58859-1.0335 1.3146 5.29e-4 0.60344 0.32402 1.1289 0.78445 1.2743l2.3578-1.7874z" fill="#ceba84" style="paint-order:normal"/>
   <g transform="rotate(4.3659 57.273 143.96)" stroke-width=".70135">
    <path d="m44.318 155.69c-0.5708 0-1.0335 0.58858-1.0335 1.3146 5.29e-4 0.60345 0.32402 1.1289 0.78445 1.2744l1.0862 0.45475 0.66353-2.4877z" fill="#ceba84" style="paint-order:normal"/>
    <ellipse cx="45.45" cy="157.47" rx="1.0335" ry="1.3146" fill="#b6a578" style="paint-order:normal"/>
    <path transform="matrix(.26458 0 0 .26458 0 93.8)" d="m170.22 241.85a1.874 2.3837 0 0 0 1.5859 1.1191 1.874 2.3837 0 0 0 1.875-2.3848 1.874 2.3837 0 0 0-1.875-2.3828 1.874 2.3837 0 0 0-0.58399 0.12109 1.874 2.3837 0 0 1 0.082 0.18555 1.874 2.3837 0 0 1 0.0781 0.2168 1.874 2.3837 0 0 1 0.0586 0.22656 1.874 2.3837 0 0 1 0.041 0.23242 1.874 2.3837 0 0 1 0.0215 0.23633 1.874 2.3837 0 0 1 6e-3 0.16797 1.874 2.3837 0 0 1-0.01 0.23828 1.874 2.3837 0 0 1-0.0273 0.23633 1.874 2.3837 0 0 1-0.0469 0.23047 1.874 2.3837 0 0 1-0.0645 0.2246 1.874 2.3837 0 0 1-0.082 0.2129 1.874 2.3837 0 0 1-0.0976 0.20312 1.874 2.3837 0 0 1-0.11328 0.19141 1.874 2.3837 0 0 1-0.12696 0.17382 1.874 2.3837 0 0 1-0.14062 0.15625 1.874 2.3837 0 0 1-0.15235 0.13868 1.874 2.3837 0 0 1-0.16211 0.11914 1.874 2.3837 0 0 1-0.17187 0.0976 1.874 2.3837 0 0 1-0.0937 0.0391z" fill="#9d8956" style="paint-order:normal"/>
    <path transform="matrix(.26458 0 0 .26458 0 93.8)" d="m170.22 241.85a1.874 2.3837 0 0 0 0.0937-0.0391 1.874 2.3837 0 0 0 0.17187-0.0976 1.874 2.3837 0 0 0 0.16211-0.11914 1.874 2.3837 0 0 0 0.15235-0.13868 1.874 2.3837 0 0 0 0.14062-0.15625 1.874 2.3837 0 0 0 0.12696-0.17382 1.874 2.3837 0 0 0 0.11328-0.19141 1.874 2.3837 0 0 0 0.0976-0.20312 1.874 2.3837 0 0 0 0.082-0.2129 1.874 2.3837 0 0 0 0.0645-0.2246 1.874 2.3837 0 0 0 0.0469-0.23047 1.874 2.3837 0 0 0 0.0273-0.23633 1.874 2.3837 0 0 0 0.01-0.23828 1.874 2.3837 0 0 0-6e-3 -0.16797 1.874 2.3837 0 0 0-0.0215-0.23633 1.874 2.3837 0 0 0-0.041-0.23242 1.874 2.3837 0 0 0-0.0586-0.22656 1.874 2.3837 0 0 0-0.0781-0.2168 1.874 2.3837 0 0 0-0.082-0.18555 1.874 2.3837 0 0 0-1.2891 2.2617 1.874 2.3837 0 0 0 0.28711 1.2656z" fill="#877649" style="paint-order:normal"/>
   </g>
  </g>
  <path d="m6.9028 86.543 3.6582 3.1593c4.552 2.6854 25.896-1.4285 34.395-10.663l40.13-46.431c4.2472-6.555 7.3716-18.047 2.566-23.476l-2.8273-2.5356z" fill="#b2a180" fill-rule="evenodd"/>
  <g transform="matrix(4.4601 -1.4742 1.4742 4.4601 -351.39 -588.21)" stroke-width=".80459">
   <path transform="matrix(.26458 0 0 .26458 0 93.8)" d="m175.9 228.23-43.118 25.914-21.067-12.655 43.03-25.854z" fill="#3fa2db" style="paint-order:normal"/>
   <path transform="matrix(.26458 0 0 .26458 0 93.8)" d="m154.34 215.86s17.275-13.556 26.205-8.3411-2.6165 20.142-5.1927 20.997z" fill="#2891d0" style="paint-order:normal"/>
   <path d="m35.266 160.96c-0.61556 0.50109-5.4255 1.0307-7.378-0.10809s1.2295-3.0435 1.6804-3.1748" fill="#2891d0" style="paint-order:normal"/>
   <circle transform="rotate(30)" cx="114.23" cy="111.39" r=".34748" fill="#2380b8" style="paint-order:normal"/>
   <circle transform="rotate(30)" cx="112.61" cy="111.35" r=".34748" fill="#2380b8" style="paint-order:normal"/>
   <circle transform="rotate(30)" cx="108.71" cy="120.91" r=".34748" fill="#2380b8" style="paint-order:normal"/>
   <circle transform="rotate(30)" cx="107.1" cy="120.88" r=".34748" fill="#2380b8" style="paint-order:normal"/>
  </g>
 </g>
</svg>
