<?xml version="1.0" encoding="UTF-8"?>
<svg width="100%" height="100%" version="1.1" viewBox="0 0 96 96" xmlns="http://www.w3.org/2000/svg">
 <style/>
 <g>
  <circle cx="47.546" cy="47.6" r="43.105" fill="#e6e6e6"/>
  <circle cx="44.263" cy="43.559" r="38.307" fill="#f7f7f7" stroke-width=".78124"/>
  <circle cx="39.339" cy="35.352" r="28.584" fill="#fff" stroke-width=".78124"/>
  <path d="m92.239 47.652c0-1.0419 0.29768-16.223-8.6327-26.047-0.44652-0.89303-2.2326-4.4652-8.335-8.7815-4.0187-3.1256-8.1862-5.3582-8.6327-5.6559-0.44652-0.29783-7.8885-4.1675-16.819-4.1675-0.7442 0-1.3396 0-2.0837 0.14891-6.8466-0.14891-13.098 1.6372-17.712 3.721-4.7629 2.0837-7.8885 4.1675-8.1861 4.4652-5.0605 2.828-14.735 14.14-15.479 20.242-3.1256 3.8698-5.6559 21.582 0 32.298 4.0187 14.884 18.903 22.326 20.093 22.921 0.7442 0.44651 8.7815 5.5071 18.754 5.5071h1.3396c0.89304 0.14891 1.6372 0.14891 2.5303 0.14891 10.716 0 26.791-7.5908 30.065-13.544 9.228-6.8466 13.991-24.112 13.098-31.256m-65.638 22.475c-4.3163-6.8466-6.6978-15.926-7.2931-18.01 1.3396-2.0837 8.0373-11.907 11.758-14.884 2.0837 0.44651 11.163 2.0837 19.647 3.5721 1.0419 2.8279 5.8047 14.884 7.1443 19.647-1.4884 1.7861-7.2931 8.4838-12.949 13.693-6.1024 0.14891-16.372-3.4233-18.307-4.0187m53.582-48.373c0 0.59535-0.14884 2.9768-1.3396 5.8047-2.2326-1.1907-7.8885-3.5721-15.777-4.0187-1.1907-1.7861-5.6559-7.8885-12.651-12.056 0.89304-1.9349 2.2326-4.1675 3.1256-4.9117 0.29768 0 0.59536-0.14891 1.1907-0.14891 3.721 0 10.27 2.5302 10.865 2.6791 0.59536 0.29783 12.354 6.5489 14.586 12.651m-62.512 28.875c-5.0605-0.89303-8.1862-2.3814-9.0792-2.9768-1.9349-6.8466-0.29768-14.289-0.14884-15.33 1.9349-3.2745 7.1443-11.907 10.716-13.544 3.5721-0.74423 8.1862 0.14891 9.9722 0.59535-0.14884 2.3814-0.44652 9.0792 0.44652 16.223-3.8698 3.2744-10.27 12.651-11.907 15.033m29.619-45.396c1.1907 0.14891 2.8279 0.29783 4.0187 0.74419-1.1907 1.4884-2.3814 3.721-2.8279 4.9117-2.3814 0.44651-11.163 2.0837-18.158 6.5489-1.3396-0.29783-5.6559-1.3395-9.6745-1.0419 1.0419-1.9349 2.5303-3.2745 2.6791-3.4233 0.44652-0.44651 11.014-7.8885 23.963-7.7396m28.428 56.708c-1.7861 0-8.4838-0.44655-15.777-2.2326-1.3396-4.9117-6.1024-16.968-7.1443-19.796 4.614-6.5489 9.0792-12.651 10.27-14.437 8.4838 0.59535 14.437 3.721 15.628 4.3163 4.9117 7.8885 5.9536 15.926 6.1024 17.265-2.6791 8.1862-7.7396 13.693-9.0792 14.884m-70.103-19.498c0.14884 1.9349 0.44652 3.8698 1.0419 5.8047-0.44652 1.3396-0.89303 2.6791-1.0419 4.0187-0.44652-3.4233-0.44652-6.8466 0-9.8234m22.028 42.419-0.59536 0.89303 0.59536-0.89303c-3.721-1.7861-6.5489-5.9536-7.7396-7.5908 2.2326-2.2326 5.0605-4.3163 6.1024-5.0605 2.3814 0.89303 12.354 4.1675 18.754 4.1675 1.0419 1.4884 4.614 5.9536 8.9303 9.5257-2.6791 2.6791-6.5489 3.8698-7.2931 4.1675-10.121 0.29783-18.754-5.2094-18.754-5.2094m24.261 5.0605c1.3396-0.74419 2.8279-1.7861 4.0187-3.1256 1.9349-0.29783 10.27-1.6372 17.712-7.1443 0.44652 0 1.3396 0.14891 2.2326 0.14891-4.614 4.3163-15.628 9.228-23.963 10.121m22.921-12.502c2.6791-6.9954 2.5303-12.354 2.3814-13.991 1.4884-1.4884 6.5489-6.8466 9.3769-15.033 1.4884 0.29783 2.5303 0.59539 2.9768 0.89306 0.14884 0.59535 0.44652 1.9349 0.29768 4.0187-1.1907 7.4419-5.0605 18.754-12.056 23.665-0.7442 0.44651-1.9349 0.59535-2.9768 0.44651" fill="#4e4e4e" stroke-width=".78124"/>
 </g>
</svg>
