<?xml version="1.0" encoding="UTF-8"?>
<svg width="100%" height="100%" version="1.1" viewBox="0 0 96 96" xmlns="http://www.w3.org/2000/svg">
 <path d="m80.563 13.304c-8.9268-8.9268-29.516-17.134-49.098 2.3037-12.958 12.814-17.566 29.084 0 46.65 17.566 17.422 33.836 12.814 46.794 0 19.581-19.581 11.231-40.027 2.3037-48.954" fill="#ed4c5c" stroke-width=".74749"/>
 <path d="m45.287 71.761-23.325-23.325s4.8954 11.375-3.4555 19.869c0 0-7.0551 7.0551-14.542 13.534 0.86389 1.7278 0.57592 1.8718 3.5995 5.0393 2.5917 2.5917 2.7356 2.3037 4.1755 3.1676 6.4791-7.631 13.678-14.83 13.678-14.83 8.4949-8.3509 19.869-3.4555 19.869-3.4555" fill="#fed0ac" stroke-width=".74749"/>
 <g transform="matrix(1.4398 0 0 1.4398 .94112 .77804)" fill="#d3976e" stroke-width=".51916">
  <path d="m7.6 61.8c3.3-3.8 6.9-7.5 8.5-9.1l8.7-9.4-4.2-4.2-9.4 8.7c-1.7 1.6-5.4 5.2-9.2 8.5 0.6 1.2 0.4 1.3 2.5 3.5 1.8 1.8 1.9 1.6 2.9 2.2l0.2-0.2" opacity=".5"/>
  <path d="m5.9 61.1c0.6 0.5 0.9 0.6 1.5 0.9 0.1-0.1 0.1-0.1 0.2-0.1 3.3-3.8 6.9-7.5 8.5-9.1l8.7-9.4-2.4 1.4-16.5 16.3"/>
 </g>
 <g transform="matrix(1.4398 0 0 1.4398 .94112 .77804)" fill="#3e4347" stroke-width=".51916">
  <path d="m30.8 49.3-6-6-8.1 8.7c1.6-1.6 6.5-5.3 14.1-2.7"/>
  <path d="m14.6 33.1 6 6-8.7 8.1c1.6-1.7 5.3-6.5 2.7-14.1"/>
 </g>
 <g transform="matrix(1.4398 0 0 1.4398 .94112 .77804)" fill="#ff8736" stroke-width=".51916">
  <circle cx="54.1" cy="54.1" r="7.9"/>
  <path d="m59.6 51.1c-0.4 0.8-2 0.8-3.5 0s-2.5-2.1-2.1-2.8c0.4-0.8 2-0.8 3.5 0 1.6 0.8 2.5 2 2.1 2.8"/>
 </g>
 <g transform="matrix(.9884 0 0 .9884 24.247 23.508)" fill="#ff9f5f" stroke-width=".75626">
  <circle cx="54.1" cy="54.1" r="7.9"/>
  <path d="m59.6 51.1c-0.4 0.8-2 0.8-3.5 0s-2.5-2.1-2.1-2.8c0.4-0.8 2-0.8 3.5 0 1.6 0.8 2.5 2 2.1 2.8"/>
 </g>
</svg>
