<?xml version="1.0" encoding="UTF-8"?>
<svg width="100%" height="100%" version="1.1" viewBox="0 0 96 96" xmlns="http://www.w3.org/2000/svg">
 <g stroke-width=".52441">
  <g transform="matrix(1.4896 0 0 1.4896 -1.4915 -.26068)">
   <g fill="none" stroke="#d0d0d0" stroke-width="1.3427">
    <path d="m26.579 17.269 21.279 21.638"/>
    <path d="m30.954 11.635 22.597 22.897"/>
    <path d="m36.589 7.1994 21.219 21.638"/>
    <path d="m43.842 4.5021 16.843 17.263"/>
    <path d="m23.702 24.642 17.023 16.963"/>
    <path d="m27.898 37.349 0.23976-0.059943 28.352-28.711"/>
    <path d="m32.693 40.826 27.153-27.093"/>
    <path d="m60.445 21.405-19.96 20.14"/>
    <path d="m23.702 24.642 19.96-19.66"/>
    <path d="m24.541 32.254 26.554-26.613"/>
   </g>
   <g fill="#ff717f" stroke-width=".52441">
    <path d="m57.7 7.5c-6.8-6.8-19.4-5.4-28 3.2s-10 21.1-3.2 28c6.9 6.8 19.4 5.4 28-3.2s10-21.1 3.2-28m-28.7 28.7c-5.8-5.8-4.6-16.3 2.7-23.6s17.8-8.5 23.6-2.7 4.6 16.3-2.7 23.6-17.9 8.5-23.6 2.7"/>
    <path d="m38.1 42.9c0.7 0-5.8-2.3-5.8-2.3s-8.2 3.7-9.8 2.1 2.1-9.8 2.1-9.8-2.3-6.5-2.4-5.8c-0.4 6.5-1.4 12.9-4.5 16.5-0.4 0.5-1 1-1 1l3.8 3.8s0.5-0.6 1-1c3.7-3 10.1-4.1 16.6-4.5"/>
   </g>
   <g fill="#4d4f59" stroke-width=".52441">
    <path transform="matrix(.7071 -.7071 .7071 .7071 -33.24 24.336)" d="m3.1 48.9h19.3v6.9h-19.3z"/>
    <path d="m10 50.2 3.4 6.3 2.1-2.1-3.4-6.4z"/>
    <path d="m5.7 54.5 3.4 6.4 2.1-2.2-3.4-6.3z"/>
   </g>
   <g fill="#5f606c" stroke-width=".52441">
    <path d="m3.5 56.7 4.8 4.9 0.8-0.7-3.4-6.4z"/>
    <path d="m7.8 52.4 3.4 6.3 2.2-2.2-3.4-6.3z"/>
    <path d="m17.2 43-0.7 0.7 3.3 6.4 2.2-2.2z"/>
   </g>
   <path d="m14.3 45.9 3.4 6.3 2.1-2.1-3.3-6.4z" fill="#4d4f59" stroke-width=".52441"/>
   <path d="m12.1 48 3.4 6.4 2.2-2.2-3.4-6.3z" fill="#5f606c" stroke-width=".52441"/>
   <g fill="#4d4f59" stroke-width=".52441">
    <path transform="matrix(.7072 -.707 .707 .7072 -39.294 21.821)" d="m5.6 54.3h2.2v8.1h-2.2z"/>
    <path transform="matrix(.7073 -.7069 .7069 .7073 -27.18 26.833)" d="m17.7 42.2h2.2v8.1h-2.2z"/>
   </g>
  </g>
  <g transform="matrix(1.4896 0 0 1.4896 5.5796 5.8795)">
   <circle cx="12.491" cy="11.983" r="11" fill="#d7e22e" style="paint-order:stroke fill markers"/>
   <circle cx="11.581" cy="10.951" r="8.1954" fill="#dee755" style="paint-order:stroke fill markers"/>
   <path d="m1.5049 11.58c5.0837 0.28887 11.151 5.8203 11.212 11.369" fill="none" stroke="#fff" stroke-width="2.014"/>
   <path d="m23.465 11.341c-5.0883 0.19159-11.65-4.7433-12.233-10.262" fill="none" stroke="#fff" stroke-width="2.014"/>
  </g>
 </g>
</svg>
