<?xml version="1.0" encoding="UTF-8"?>
<svg width="100" height="100" version="1.1" viewBox="0 0 26.458 26.458" xmlns="http://www.w3.org/2000/svg">
 <g transform="translate(0 -270.54)">
  <g>
   <rect x="2e-8" y="270.54" width="26.458" height="26.458" rx="2.138" ry="2.0906" fill="#25b" style="paint-order:stroke fill markers"/>
   <rect x=".52917" y="271.07" width="25.4" height="25.4" rx="1.8521" ry="1.8521" fill="#fff" style="paint-order:stroke fill markers"/>
   <rect x="1.5875" y="272.13" width="23.283" height="23.283" rx="1.0583" ry="1.0583" fill="#25b" style="paint-order:stroke fill markers"/>
  </g>
  <path d="m10.694 273.72c-0.7562 0.37798-0.94531 2.2679-0.94531 2.2679-0.40078 0.10554-0.95253 0.43464-0.95269 0.77071l0.00738 0.74119c3.704e-4 0.37798 0.18936 0.56697 0.75632 0.56697v0.94494s-0.051866 0.36801 0.18899 0.37797h0.94494c0.2363 0 0.18899-0.37797 0.18899-0.37797v-0.75596h3.4018v0.75596s-0.0462 0.37797 0.1901 0.37797h0.94531c0.2363 0 0.18751-0.37797 0.18751-0.37797v-0.94494c0.56696 0 0.75607-0.18899 0.7578-0.56697v-0.75595c-0.10293-0.35356-0.61597-0.64981-0.94531-0.75595 0 0-0.19059-1.8899-0.94531-2.2679zm0.47247 0.75595h2.8356c0.4726 0.56697 0.47247 1.5119 0.47247 1.5119h-3.7805s-1.25e-4 -0.94494 0.47247-1.5119zm-1.0501 2.0792a0.56696 0.56696 0 0 1 0.56696 0.56696 0.56696 0.56696 0 0 1-0.56696 0.56697 0.56696 0.56696 0 0 1-0.56696-0.56697 0.56696 0.56696 0 0 1 0.56696-0.56696zm4.9244 0a0.56696 0.56696 0 0 1 0.56696 0.56696 0.56696 0.56696 0 0 1-0.56696 0.56697 0.56696 0.56696 0 0 1-0.56696-0.56697 0.56696 0.56696 0 0 1 0.56696-0.56696z" fill="#fff"/>
  <g>
   <path d="m4.6091 292.93c1.8102-0.89281 1.9365-2.7306 2.7609-5.1536 0.78751 3.229 1.8747 3.0543 1.6565 5.5217" fill="none" stroke="#fff" stroke-linecap="round" stroke-linejoin="round" stroke-width="1.1044" style="paint-order:stroke fill markers"/>
   <path d="m7.6862 285.37c-0.24271 0.92032-0.43967 3.7372-0.43967 3.7372" fill="none" stroke="#fff" stroke-width="1.4725" style="paint-order:stroke fill markers"/>
   <path d="m4.94 287.79c0.73289-1.3362 2.143-2.4462 2.7462-2.962 1.0127 0.86558 0.36754 2.971 2.1984 2.7421" fill="none" stroke="#fff" stroke-linecap="round" stroke-linejoin="round" stroke-width="1.1044" style="paint-order:stroke fill markers"/>
   <circle cx="8.3251" cy="282.58" r="1.3332" fill="#fff" style="paint-order:normal"/>
  </g>
  <path d="m17.44 286.73a1.793 1.7853 0 0 1-1.793 1.7853 1.793 1.7853 0 0 1-1.793-1.7853 1.793 1.7853 0 0 1 1.793-1.7853 1.793 1.7853 0 0 1 1.793 1.7853zm5.843-3.2e-4a1.793 1.7853 0 0 1-1.793 1.7853 1.793 1.7853 0 0 1-1.793-1.7853 1.793 1.7853 0 0 1 1.793-1.7853 1.793 1.7853 0 0 1 1.793 1.7853zm-6.6392-2.7497 2.2661 2.7399h2.5899l-1.7805-2.7399h-3.0755m2.2661 2.7399 0.80934-3.3846m0 0 0.7889-2e-3m-4.8356 3.3863 1.3491-3.9995h1.2949" fill="none" stroke="#fff" stroke-linecap="round" stroke-linejoin="round" stroke-width=".72029" style="paint-order:normal"/>
 </g>
</svg>
