<?xml version="1.0" encoding="UTF-8" standalone="no"?>
<!-- Created with Inkscape (http://www.inkscape.org/) -->

<svg
   xmlns:dc="http://purl.org/dc/elements/1.1/"
   xmlns:cc="http://creativecommons.org/ns#"
   xmlns:rdf="http://www.w3.org/1999/02/22-rdf-syntax-ns#"
   xmlns:svg="http://www.w3.org/2000/svg"
   xmlns="http://www.w3.org/2000/svg"
   xmlns:sodipodi="http://sodipodi.sourceforge.net/DTD/sodipodi-0.dtd"
   xmlns:inkscape="http://www.inkscape.org/namespaces/inkscape"
   width="100"
   height="146"
   viewBox="0 0 26.458333 38.629168"
   version="1.1"
   id="svg4540"
   inkscape:version="0.92.1 r15371"
   sodipodi:docname="living_street_russian.svg">
  <defs
     id="defs4534" />
  <sodipodi:namedview
     id="base"
     pagecolor="#ffffff"
     bordercolor="#666666"
     borderopacity="1.0"
     inkscape:pageopacity="0.0"
     inkscape:pageshadow="2"
     inkscape:zoom="1.2727922"
     inkscape:cx="-181.91452"
     inkscape:cy="47.699913"
     inkscape:document-units="mm"
     inkscape:current-layer="layer1"
     showgrid="false"
     units="px"
     inkscape:window-width="1920"
     inkscape:window-height="1017"
     inkscape:window-x="-8"
     inkscape:window-y="-8"
     inkscape:window-maximized="1">
    <inkscape:grid
       type="xygrid"
       id="grid5125"
       empspacing="4" />
  </sodipodi:namedview>
  <metadata
     id="metadata4537">
    <rdf:RDF>
      <cc:Work
         rdf:about="">
        <dc:format>image/svg+xml</dc:format>
        <dc:type
           rdf:resource="http://purl.org/dc/dcmitype/StillImage" />
        <dc:title />
      </cc:Work>
    </rdf:RDF>
  </metadata>
  <g
     inkscape:label="Layer 1"
     inkscape:groupmode="layer"
     id="layer1"
     transform="translate(0,-258.37082)">
    <g
       id="g4609">
      <rect
         transform="rotate(-90)"
         ry="2.0906358"
         y="-8.1380213e-006"
         x="-297"
         height="26.458332"
         width="38.629166"
         id="rect6068"
         style="opacity:1;vector-effect:none;fill:#2255bb;fill-opacity:1;stroke:none;stroke-width:0.89958334;stroke-linecap:round;stroke-linejoin:round;stroke-miterlimit:4;stroke-dasharray:none;stroke-dashoffset:0;stroke-opacity:1;paint-order:stroke fill markers"
         rx="2.1380277" />
      <rect
         transform="rotate(-90)"
         ry="1.8520833"
         y="0.52916664"
         x="-296.47083"
         height="25.4"
         width="37.570831"
         id="rect6068-3"
         style="opacity:1;vector-effect:none;fill:#ffffff;fill-opacity:1;stroke:none;stroke-width:0.89958334;stroke-linecap:round;stroke-linejoin:round;stroke-miterlimit:4;stroke-dasharray:none;stroke-dashoffset:0;stroke-opacity:1;paint-order:stroke fill markers"
         rx="1.8520833" />
      <rect
         transform="rotate(-90)"
         ry="1.0583333"
         y="1.5874857"
         x="-295.41248"
         height="23.283333"
         width="35.454166"
         id="rect6068-3-8"
         style="opacity:1;vector-effect:none;fill:#2255bb;fill-opacity:1;stroke:none;stroke-width:0.89958334;stroke-linecap:round;stroke-linejoin:round;stroke-miterlimit:4;stroke-dasharray:none;stroke-dashoffset:0;stroke-opacity:1;paint-order:stroke fill markers"
         rx="1.0583333" />
      <path
         inkscape:connector-curvature="0"
         id="path6554"
         d="m 7.5830242,262.90863 c -0.907438,0.45357 -1.134372,2.72143 -1.134372,2.72143 -0.480931,0.12665 -1.143035,0.52157 -1.14323,0.92486 l 0.0089,0.88942 c 4.5e-4,0.45358 0.227229,0.68036 0.907586,0.68036 v 1.13393 c 0,0 -0.06224,0.44161 0.226786,0.45357 h 1.133928 c 0.283555,0 0.226786,-0.45357 0.226786,-0.45357 v -0.90714 h 4.0821428 v 0.90714 c 0,0 -0.05545,0.45357 0.228115,0.45357 h 1.134371 c 0.283556,0 0.225015,-0.45357 0.225015,-0.45357 v -1.13393 c 0.680357,0 0.907284,-0.22678 0.909357,-0.68036 v -0.90714 c -0.123512,-0.42427 -0.739166,-0.77977 -1.134372,-0.90714 0,0 -0.228707,-2.26786 -1.134371,-2.72143 z m 0.566964,0.90714 H 11.55266 c 0.567114,0.68036 0.566964,1.81429 0.566964,1.81429 H 7.5830242 c 0,0 -1.5e-4,-1.13393 0.566964,-1.81429 z m -1.260167,2.49509 a 0.68035717,0.68035717 0 0 1 0.680358,0.68036 0.68035717,0.68035717 0 0 1 -0.680358,0.68035 0.68035717,0.68035717 0 0 1 -0.680357,-0.68035 0.68035717,0.68035717 0 0 1 0.680357,-0.68036 z m 5.9092748,0 a 0.68035717,0.68035717 0 0 1 0.680357,0.68036 0.68035717,0.68035717 0 0 1 -0.680357,0.68035 0.68035717,0.68035717 0 0 1 -0.680358,-0.68035 0.68035717,0.68035717 0 0 1 0.680358,-0.68036 z"
         style="fill:#ffffff;fill-opacity:1;fill-rule:nonzero;stroke:none;stroke-width:0.02179012" />
      <g
         style="stroke-width:9.96996117;stroke-miterlimit:4;stroke-dasharray:none"
         transform="matrix(0.18576634,0,0,0.18576634,-5.2962534,261.52965)"
         id="g6643">
        <path
           sodipodi:nodetypes="ccc"
           inkscape:connector-curvature="0"
           id="path5253"
           d="m 54.108773,141.56107 c 13.112933,-6.46737 14.006831,-12.82772 19.978492,-30.38018 5.70459,23.39059 4.810692,22.45328 3.230345,40.32683"
           style="fill:none;fill-opacity:1;fill-rule:evenodd;stroke:#ffffff;stroke-width:8.545681;stroke-linecap:round;stroke-linejoin:round;stroke-miterlimit:4;stroke-dasharray:none;stroke-opacity:1;paint-order:stroke fill markers" />
        <path
           sodipodi:nodetypes="cc"
           inkscape:connector-curvature="0"
           id="path5255"
           d="m 76.378288,93.787261 c -1.758185,6.666669 -3.184921,27.071829 -3.184921,27.071829"
           style="fill:none;fill-opacity:1;fill-rule:evenodd;stroke:#ffffff;stroke-width:11.39424133;stroke-linecap:butt;stroke-linejoin:miter;stroke-miterlimit:4;stroke-dasharray:none;stroke-opacity:1;paint-order:stroke fill markers" />
        <path
           sodipodi:nodetypes="ccc"
           inkscape:connector-curvature="0"
           id="path5261"
           d="m 56.484998,111.30432 c 5.308975,-9.67944 15.523252,-17.719629 19.893306,-21.456088 7.33595,6.270177 2.662394,21.521408 15.924587,19.863628"
           style="fill:none;fill-opacity:1;fill-rule:evenodd;stroke:#ffffff;stroke-width:8.545681;stroke-linecap:round;stroke-linejoin:round;stroke-miterlimit:4;stroke-dasharray:none;stroke-opacity:1;paint-order:stroke fill markers" />
        <circle
           r="9.6574516"
           cy="73.531174"
           cx="81.006645"
           id="path5263"
           style="opacity:1;vector-effect:none;fill:#ffffff;fill-opacity:1;stroke:none;stroke-width:9.96996117;stroke-linecap:round;stroke-linejoin:round;stroke-miterlimit:4;stroke-dasharray:none;stroke-dashoffset:0;stroke-opacity:1;paint-order:normal" />
      </g>
      <circle
         r="1.2300283"
         cy="292.19061"
         cx="15.217287"
         id="path6701"
         style="opacity:1;vector-effect:none;fill:#ffffff;fill-opacity:1;stroke:none;stroke-width:1.58749998;stroke-linecap:round;stroke-linejoin:round;stroke-miterlimit:4;stroke-dasharray:none;stroke-dashoffset:0;stroke-opacity:1;paint-order:stroke fill markers" />
      <g
         style="stroke-width:1.21052635"
         transform="matrix(0.21856884,0,0,0.21856884,2.841395,274.07327)"
         id="g6728">
        <path
           style="fill:none;fill-rule:evenodd;stroke:#ffffff;stroke-width:6.05263138;stroke-linecap:round;stroke-linejoin:round;stroke-miterlimit:4;stroke-dasharray:none;stroke-opacity:1"
           d="m 75,87 c 1,-9 4,-16 4,-17 2,4 8,6 8,6 l 7,-4"
           id="path6703"
           inkscape:connector-curvature="0"
           sodipodi:nodetypes="cccc" />
        <path
           style="fill:none;fill-rule:evenodd;stroke:#ffffff;stroke-width:8.47368431;stroke-linecap:round;stroke-linejoin:miter;stroke-miterlimit:4;stroke-dasharray:none;stroke-opacity:1"
           d="m 77,63 2,8"
           id="path6705"
           inkscape:connector-curvature="0"
           sodipodi:nodetypes="cc" />
        <path
           style="fill:none;fill-rule:evenodd;stroke:#ffffff;stroke-width:6.05263138;stroke-linecap:round;stroke-linejoin:bevel;stroke-miterlimit:4;stroke-dasharray:none;stroke-opacity:1"
           d="m 65,68 c 0,0 7,-1 11,-7 4.883185,0.05182 8,-1 10,3"
           id="path6707"
           inkscape:connector-curvature="0"
           sodipodi:nodetypes="ccc" />
        <circle
           style="overflow:visible;opacity:1;vector-effect:none;fill:#ffffff;fill-opacity:1;stroke:none;stroke-width:7.26315784;stroke-linecap:round;stroke-linejoin:round;stroke-miterlimit:4;stroke-dasharray:none;stroke-dashoffset:0;stroke-opacity:1;paint-order:stroke fill markers"
           id="path6701-6"
           cx="72.597672"
           cy="52.049957"
           r="5.5" />
      </g>
      <path
         inkscape:connector-curvature="0"
         id="path4528"
         d="m 17.462891,259.95898 v 14.28711 h 7.9375 v -1.05859 h -6.878907 v -13.22852 z"
         style="color:#000000;font-style:normal;font-variant:normal;font-weight:normal;font-stretch:normal;font-size:medium;line-height:normal;font-family:sans-serif;font-variant-ligatures:normal;font-variant-position:normal;font-variant-caps:normal;font-variant-numeric:normal;font-variant-alternates:normal;font-feature-settings:normal;text-indent:0;text-align:start;text-decoration:none;text-decoration-line:none;text-decoration-style:solid;text-decoration-color:#000000;letter-spacing:normal;word-spacing:normal;text-transform:none;writing-mode:lr-tb;direction:ltr;text-orientation:mixed;dominant-baseline:auto;baseline-shift:baseline;text-anchor:start;white-space:normal;shape-padding:0;clip-rule:nonzero;display:inline;overflow:visible;visibility:visible;opacity:1;isolation:auto;mix-blend-mode:normal;color-interpolation:sRGB;color-interpolation-filters:linearRGB;solid-color:#000000;solid-opacity:1;vector-effect:none;fill:#ffffff;fill-opacity:1;fill-rule:evenodd;stroke:none;stroke-width:1.05833328;stroke-linecap:butt;stroke-linejoin:miter;stroke-miterlimit:4;stroke-dasharray:none;stroke-dashoffset:0;stroke-opacity:1;color-rendering:auto;image-rendering:auto;shape-rendering:auto;text-rendering:auto;enable-background:accumulate" />
      <path
         sodipodi:nodetypes="ccccc"
         inkscape:connector-curvature="0"
         id="path4532"
         d="m 19.579166,259.95832 v 2.64583 l 2.116667,0 v -2.64583 z"
         style="fill:#ffffff;fill-opacity:1;fill-rule:evenodd;stroke:none;stroke-width:0.26458332px;stroke-linecap:butt;stroke-linejoin:miter;stroke-opacity:1" />
      <path
         sodipodi:nodetypes="ccccc"
         inkscape:connector-curvature="0"
         id="path4532-3"
         d="m 23.283333,259.95832 v 2.64583 l 1.5875,0 v -2.64583 z"
         style="fill:#ffffff;fill-opacity:1;fill-rule:evenodd;stroke:none;stroke-width:0.26458332px;stroke-linecap:butt;stroke-linejoin:miter;stroke-opacity:1" />
      <path
         sodipodi:nodetypes="ccccc"
         inkscape:connector-curvature="0"
         id="path4532-1"
         d="m 19.579166,264.19166 v 2.64583 h 2.116667 v -2.64583 z"
         style="fill:#ffffff;fill-opacity:1;fill-rule:evenodd;stroke:none;stroke-width:0.26458332px;stroke-linecap:butt;stroke-linejoin:miter;stroke-opacity:1" />
      <path
         sodipodi:nodetypes="ccccc"
         inkscape:connector-curvature="0"
         id="path4532-3-4"
         d="m 23.283332,264.19166 v 2.64583 h 1.5875 v -2.64583 z"
         style="fill:#ffffff;fill-opacity:1;fill-rule:evenodd;stroke:none;stroke-width:0.26458332px;stroke-linecap:butt;stroke-linejoin:miter;stroke-opacity:1" />
      <path
         sodipodi:nodetypes="ccccc"
         inkscape:connector-curvature="0"
         id="path4532-1-9"
         d="m 19.579166,268.42499 v 2.64583 h 2.116667 v -2.64583 z"
         style="fill:#ffffff;fill-opacity:1;fill-rule:evenodd;stroke:none;stroke-width:0.26458332px;stroke-linecap:butt;stroke-linejoin:miter;stroke-opacity:1" />
      <path
         sodipodi:nodetypes="ccccc"
         inkscape:connector-curvature="0"
         id="path4532-3-4-0"
         d="m 23.283332,268.42499 v 2.64583 h 1.5875 v -2.64583 z"
         style="fill:#ffffff;fill-opacity:1;fill-rule:evenodd;stroke:none;stroke-width:0.26458332px;stroke-linecap:butt;stroke-linejoin:miter;stroke-opacity:1" />
    </g>
  </g>
</svg>
