<?xml version="1.0" encoding="UTF-8" standalone="no"?>
<!-- Created with Inkscape (http://www.inkscape.org/) -->

<svg
   xmlns:dc="http://purl.org/dc/elements/1.1/"
   xmlns:cc="http://creativecommons.org/ns#"
   xmlns:rdf="http://www.w3.org/1999/02/22-rdf-syntax-ns#"
   xmlns:svg="http://www.w3.org/2000/svg"
   xmlns="http://www.w3.org/2000/svg"
   xmlns:sodipodi="http://sodipodi.sourceforge.net/DTD/sodipodi-0.dtd"
   xmlns:inkscape="http://www.inkscape.org/namespaces/inkscape"
   width="100"
   height="134"
   viewBox="0 0 26.458333 35.454168"
   version="1.1"
   id="svg4540"
   inkscape:version="0.92.1 r15371"
   sodipodi:docname="living_street_sadc.svg">
  <defs
     id="defs4534" />
  <sodipodi:namedview
     id="base"
     pagecolor="#ffffff"
     bordercolor="#666666"
     borderopacity="1.0"
     inkscape:pageopacity="0.0"
     inkscape:pageshadow="2"
     inkscape:zoom="3.6"
     inkscape:cx="39.787534"
     inkscape:cy="30.897634"
     inkscape:document-units="mm"
     inkscape:current-layer="layer1"
     showgrid="true"
     units="px"
     inkscape:window-width="1920"
     inkscape:window-height="1017"
     inkscape:window-x="-8"
     inkscape:window-y="-8"
     inkscape:window-maximized="1">
    <inkscape:grid
       type="xygrid"
       id="grid5125"
       empspacing="4" />
  </sodipodi:namedview>
  <metadata
     id="metadata4537">
    <rdf:RDF>
      <cc:Work
         rdf:about="">
        <dc:format>image/svg+xml</dc:format>
        <dc:type
           rdf:resource="http://purl.org/dc/dcmitype/StillImage" />
        <dc:title />
      </cc:Work>
    </rdf:RDF>
  </metadata>
  <g
     inkscape:label="Layer 1"
     inkscape:groupmode="layer"
     id="layer1"
     transform="translate(0,-261.54582)">
    <rect
       rx="4.7625132"
       style="opacity:1;vector-effect:none;fill:#2255bb;fill-opacity:1;stroke:none;stroke-width:0.89958334;stroke-linecap:round;stroke-linejoin:round;stroke-miterlimit:4;stroke-dasharray:none;stroke-dashoffset:0;stroke-opacity:1;paint-order:stroke fill markers"
       id="rect6068"
       width="35.454182"
       height="26.458342"
       x="-297"
       y="-8.1380213e-006"
       ry="4.7625079"
       transform="rotate(-90)" />
    <rect
       rx="4.4979215"
       style="opacity:1;vector-effect:none;fill:#c1121c;fill-opacity:1;stroke:none;stroke-width:0.89958334;stroke-linecap:round;stroke-linejoin:round;stroke-miterlimit:4;stroke-dasharray:none;stroke-dashoffset:0;stroke-opacity:1;paint-order:stroke fill markers"
       id="rect6068-3"
       width="34.39584"
       height="25.4"
       x="-296.47083"
       y="0.52916664"
       ry="4.4979167"
       transform="rotate(-90)" />
    <rect
       rx="3.7041554"
       style="opacity:1;vector-effect:none;fill:#2255bb;fill-opacity:1;stroke:none;stroke-width:0.89958334;stroke-linecap:round;stroke-linejoin:round;stroke-miterlimit:4;stroke-dasharray:none;stroke-dashoffset:0;stroke-opacity:1;paint-order:stroke fill markers"
       id="rect6068-3-8"
       width="32.279156"
       height="23.283348"
       x="-295.41248"
       y="1.5874857"
       ry="3.704181"
       transform="rotate(-90)" />
    <path
       style="fill:#ffffff;fill-opacity:1;fill-rule:nonzero;stroke:none;stroke-width:0.02179012"
       d="m 5.0652827,268.236 c -0.907438,0.45357 -1.134372,2.72143 -1.134372,2.72143 -0.480931,0.12665 -1.143035,0.52157 -1.14323,0.92486 l 0.0089,0.88942 c 4.5e-4,0.45358 0.227229,0.68036 0.907586,0.68036 v 1.13393 c 0,0 -0.06224,0.44161 0.226786,0.45357 h 1.133928 c 0.283555,0 0.226786,-0.45357 0.226786,-0.45357 v -0.90714 h 3.0238095 v 0.90714 c 0,0 -0.05545,0.45357 0.228115,0.45357 h 1.134371 c 0.2835563,0 0.2250153,-0.45357 0.2250153,-0.45357 v -1.13393 c 0.6803565,0 0.9072835,-0.22678 0.9093565,-0.68036 v -0.90714 c -0.123512,-0.42427 -0.739166,-0.77977 -1.1343718,-0.90714 0,0 -0.228707,-2.26786 -1.134371,-2.72143 z m 0.566964,0.90714 h 2.3443385 c 0.567114,0.68036 0.566964,1.81429 0.566964,1.81429 H 5.0652827 c 0,0 -1.5e-4,-1.13393 0.566964,-1.81429 z m -1.260167,2.49509 c 0.3757523,0 0.6803596,0.30461 0.680358,0.68036 -4e-6,0.37575 -0.3046096,0.68035 -0.680358,0.68035 -0.375748,0 -0.680353,-0.3046 -0.680357,-0.68035 -1.6e-6,-0.37575 0.3046051,-0.68036 0.680357,-0.68036 z m 4.8509415,0 c 0.3757519,0 0.6803583,0.30461 0.6803573,0.68036 -4e-6,0.37575 -0.3046093,0.68035 -0.6803573,0.68035 -0.3757484,0 -0.6803541,-0.3046 -0.680358,-0.68035 -1.6e-6,-0.37575 0.3046056,-0.68036 0.680358,-0.68036 z"
       id="path6554"
       inkscape:connector-curvature="0"
       sodipodi:nodetypes="cccccccsccccssccccccccccccscscsscscs" />
    <g
       id="g6643"
       transform="matrix(0.18576634,0,0,0.18576634,-5.8963428,264.62162)"
       style="stroke-width:9.96996117;stroke-miterlimit:4;stroke-dasharray:none">
      <path
         style="fill:none;fill-opacity:1;fill-rule:evenodd;stroke:#ffffff;stroke-width:8.545681;stroke-linecap:round;stroke-linejoin:round;stroke-miterlimit:4;stroke-dasharray:none;stroke-opacity:1;paint-order:stroke fill markers"
         d="m 54.108773,141.56107 c 13.112933,-6.46737 14.006831,-12.82772 19.978492,-30.38018 5.70459,23.39059 4.810692,22.45328 3.230345,40.32683"
         id="path5253"
         inkscape:connector-curvature="0"
         sodipodi:nodetypes="ccc" />
      <path
         style="fill:none;fill-opacity:1;fill-rule:evenodd;stroke:#ffffff;stroke-width:11.39424133;stroke-linecap:butt;stroke-linejoin:miter;stroke-miterlimit:4;stroke-dasharray:none;stroke-opacity:1;paint-order:stroke fill markers"
         d="m 76.378288,93.787261 c -1.758185,6.666669 -3.184921,27.071829 -3.184921,27.071829"
         id="path5255"
         inkscape:connector-curvature="0"
         sodipodi:nodetypes="cc" />
      <path
         style="fill:none;fill-opacity:1;fill-rule:evenodd;stroke:#ffffff;stroke-width:8.545681;stroke-linecap:round;stroke-linejoin:round;stroke-miterlimit:4;stroke-dasharray:none;stroke-opacity:1;paint-order:stroke fill markers"
         d="m 56.484998,111.30432 c 5.308975,-9.67944 15.523252,-17.719629 19.893306,-21.456088 7.33595,6.270177 2.662394,21.521408 15.924587,19.863628"
         id="path5261"
         inkscape:connector-curvature="0"
         sodipodi:nodetypes="ccc" />
      <circle
         style="opacity:1;vector-effect:none;fill:#ffffff;fill-opacity:1;stroke:none;stroke-width:9.96996117;stroke-linecap:round;stroke-linejoin:round;stroke-miterlimit:4;stroke-dasharray:none;stroke-dashoffset:0;stroke-opacity:1;paint-order:normal"
         id="path5263"
         cx="81.006645"
         cy="73.531174"
         r="9.6574516" />
    </g>
    <circle
       style="opacity:1;vector-effect:none;fill:#ffffff;fill-opacity:1;stroke:none;stroke-width:1.58749998;stroke-linecap:round;stroke-linejoin:round;stroke-miterlimit:4;stroke-dasharray:none;stroke-dashoffset:0;stroke-opacity:1;paint-order:stroke fill markers"
       id="path6701"
       cx="14.617198"
       cy="292.10757"
       r="1.2300283" />
    <g
       id="g6728"
       transform="matrix(0.21856884,0,0,0.21856884,2.2413056,273.99024)"
       style="stroke-width:1.21052635">
      <path
         sodipodi:nodetypes="cccc"
         inkscape:connector-curvature="0"
         id="path6703"
         d="m 75,87 c 1,-9 4,-16 4,-17 2,4 8,6 8,6 l 7,-4"
         style="fill:none;fill-rule:evenodd;stroke:#ffffff;stroke-width:6.05263138;stroke-linecap:round;stroke-linejoin:round;stroke-miterlimit:4;stroke-dasharray:none;stroke-opacity:1" />
      <path
         sodipodi:nodetypes="cc"
         inkscape:connector-curvature="0"
         id="path6705"
         d="m 77,63 2,8"
         style="fill:none;fill-rule:evenodd;stroke:#ffffff;stroke-width:8.47368431;stroke-linecap:round;stroke-linejoin:miter;stroke-miterlimit:4;stroke-dasharray:none;stroke-opacity:1" />
      <path
         sodipodi:nodetypes="ccc"
         inkscape:connector-curvature="0"
         id="path6707"
         d="m 65,68 c 0,0 7,-1 11,-7 4.883185,0.05182 8,-1 10,3"
         style="fill:none;fill-rule:evenodd;stroke:#ffffff;stroke-width:6.05263138;stroke-linecap:round;stroke-linejoin:bevel;stroke-miterlimit:4;stroke-dasharray:none;stroke-opacity:1" />
      <circle
         r="5.5"
         cy="52.049957"
         cx="72.597672"
         id="path6701-6"
         style="overflow:visible;opacity:1;vector-effect:none;fill:#ffffff;fill-opacity:1;stroke:none;stroke-width:7.26315784;stroke-linecap:round;stroke-linejoin:round;stroke-miterlimit:4;stroke-dasharray:none;stroke-dashoffset:0;stroke-opacity:1;paint-order:stroke fill markers" />
    </g>
    <path
       style="fill:#ffffff;fill-opacity:1;fill-rule:evenodd;stroke:none;stroke-width:0.26458332px;stroke-linecap:butt;stroke-linejoin:miter;stroke-opacity:1"
       d="m 18.520834,264.72082 -2.116667,1.27021 v -0.74104 h -1.5875 v 1.69343 l -1.5875,0.9524 v 4.7625 h 6.879167 v -3.70417 H 22.225 v 3.70417 h 1.5875 v -4.7625 z m -3.704167,4.23333 h 3.704167 v 2.64584 h -3.704167 z"
       id="path4633"
       inkscape:connector-curvature="0" />
    <path
       style="fill:none;fill-rule:evenodd;stroke:#fffff3;stroke-width:1.05833333;stroke-linecap:butt;stroke-linejoin:miter;stroke-miterlimit:4;stroke-dasharray:none;stroke-opacity:1"
       d="m 12.7,273.71665 c 0,3.175 5.820834,9.52501 11.1125,9.525"
       id="path4641"
       inkscape:connector-curvature="0"
       sodipodi:nodetypes="cc" />
  </g>
</svg>
