<?xml version="1.0" encoding="UTF-8"?>
<svg version="1.1" viewBox="0 0 128 128" xmlns="http://www.w3.org/2000/svg">
 <g transform="matrix(1.1338 0 0 1.1338 -5.3355 -9.6059)">
  <path d="m48.784 114.28c-0.02151 3.2689-2.1674 3.5314-5.8482 3.5417l-9.8573 0.0275c-3.6774 0.0103-5.4618-0.24518-5.4618-3.5141l0.04086-7.0833h21.167z" fill="#555"/>
  <path d="m98.195 114.28c0 3.2524-1.5798 3.5523-5.2291 3.5523h-10.021c-3.646 0-5.8302-0.2516-5.872-3.5037l-0.09091-7.08 21.213-2.5e-4z" fill="#555"/>
  <g fill="#99aab5">
   <path d="m114.07 60.616c0 1.6276-0.87512 2.5382-2.4932 2.5382h-3.7397c-1.6181 0-2.5868-0.91064-2.5868-2.5383v-21.192c0-1.6247 0.96867-2.7288 2.5868-2.7288h3.7397c1.6181 0 2.4932 1.104 2.4932 2.7288z"/>
   <path d="m107.84 46.904h-89.753v-4.8738h89.753z"/>
   <path d="m107.84 58.123-89.753-0.03463v-6.1983l89.753 2e-6z"/>
  </g>
  <path d="m50.568 12c-3.7936 0.13879-7.0293 4.1853-7.0558 7.0558l-10.471-6e-6c-6.4634 0.03191-10.696 1.4014-10.696 7.9031v34.904h81.141v-34.904c0-6.5018-3.9946-7.9169-10.609-7.9031l-10.558 6e-6c-0.24707-3.49-4.4416-6.9758-7.0558-7.0558z" fill="#ccd6dd"/>
  <path d="m103.49 101.75h-81.141v-39.89h81.141z" fill="#ffcc4d"/>
  <path d="m103.49 98.433h-81.141v-15.875h81.141z" fill="#ffac33"/>
  <path d="m107.01 103.72c0.0358 1.6272-1.9248 3.5279-3.5428 3.5279h-81.15c-1.6151 0-3.5039-1.9002-3.5039-3.5279v-1.7639c0-1.6276 1.9367-3.5279 3.5518-3.5279h81.132c1.6181 0 3.477 1.9006 3.5129 3.5279z" fill="#66757f"/>
  <path d="m102.85 61.863c0.42048 4.8589-2.5964 7.618-7.4448 7.618h-64.839c-4.8484 0-7.4969-2.7409-7.4969-7.618v-22.594c0-4.8771 2.6485-7.3236 7.4969-7.3236h64.96c4.8484 0 6.9032 2.4647 7.3236 7.3236z" fill="#66757f"/>
  <path d="m97.863 59.423c0 3.2494-1.7531 4.9487-4.9863 4.9487h-59.836c-3.2303 0-5.1156-1.9111-4.9863-5.158v-17.296c0.12927-3.2468 1.756-4.9863 4.9863-4.9863h59.836c3.2332 0 4.9863 1.7369 4.9863 4.9863z" fill="#88c9f9"/>
  <path d="m78.791 96.669h-31.751v-10.584h31.751z" fill="#99aab5"/>
  <path d="m74.178 24.466h-22.438c-2.4932 0-3.7397-1.2466-3.7397-3.7397 0-2.4932 1.2466-3.7397 3.7397-3.7397h22.438c2.4932 0 3.7397 1.2466 3.7397 3.7397 0 2.4932-1.2466 3.7397-3.7397 3.7397z" fill="#555"/>
  <path d="m20.581 60.616c0 1.6276-0.88131 2.5382-2.4994 2.5382h-3.7397c-1.6181 0-2.5806-0.91064-2.5806-2.5383v-21.192c0-1.6247 0.96249-2.7288 2.5806-2.7288h3.7397c1.6181 0 2.4994 1.104 2.4994 2.7288z" fill="#99aab5"/>
  <circle cx="33.02" cy="90.534" r="6.2329" fill="#fff"/>
  <circle cx="92.877" cy="90.534" r="6.2329" fill="#fff"/>
 </g>
</svg>
