<?xml version="1.0" encoding="UTF-8"?>
<svg version="1.1" viewBox="0 0 128 128" xmlns="http://www.w3.org/2000/svg">
 <path d="m48 120c-0.02151 3.2689-0.3192 3.9897-4 4h-12c-3.6774 0.0103-4-0.7311-4-4v-8h20z" fill="#555"/>
 <path d="m20 108v-100h88v100z" fill="#539841"/>
 <path d="m100 12v30m-14.557-30v30m-28.33-30v30m13.774-30v30m-28.33-30v30m-14.557-30v30" fill="none" stroke="#62b34e" stroke-width="8"/>
 <path d="m24 44c0-8 8-20 12-24h56c4 4 12 16 11.8 24z" fill="#b04438"/>
 <path d="m116 56h-104v-4h104z" fill="#99aab5"/>
 <path d="m116 68h-104v-4h104z" fill="#99aab5"/>
 <path d="m32 40c-4 0-8.0027 0-8 8l0.0193 57.75h79.981v-57.75c0-8-4-8-8-8z" fill="#cd584c"/>
 <path d="m100 120c-0.0215 3.2689-0.3192 3.9897-4 4h-12c-3.6774 0.0103-4-0.7311-4-4v-8h20z" fill="#555"/>
 <path d="m111.95 109.33c0.0361 1.7335-1.0152 2.6678-2.6458 2.6678h-90.806c-1.6277 0-2.5474-0.87512-2.5474-2.6091v-2.6661c0-1.7339 0.96792-2.7248 2.5957-2.7248h90.788c1.6307 0 2.524 0.93251 2.5602 2.6661z" fill="#66757f" stroke-width="1.0362"/>
 <path d="m100 68c-1e-4 3.5467-4.3552 8-8 8h-56c-3.5162 0-8-4.4533-8-8v-16c0-4 4-8 8-8h56c4 0 8.0001 4.1407 8 8z" fill="#66757f"/>
 <path d="m96 67.093c0 3.2494-2.9391 4.9074-6.1723 4.9074h-51.836c-3.2303 0-6.121-1.8698-5.9917-5.1167v-13.296c0.12927-3.2468 2.7614-5.5873 5.9917-5.5873h51.836c3.2332 0 6.1723 2.3379 6.1723 5.5873z" fill="#88c9f9"/>
 <circle cx="33.971" cy="94.534" r="6.2329" fill="#fff"/>
 <circle cx="93.828" cy="94.534" r="6.2329" fill="#fff"/>
 <path d="m84 100h-40v-20h40z" fill="#99aab5"/>
 <path d="m44 86h40" fill="none" stroke="#66757f" stroke-width="4"/>
 <path d="m44 94h40" fill="none" stroke="#66757f" stroke-width="4"/>
 <path d="m20 72c2e-6 4-8 4-8.1104-1e-4l0.11039-24c0-4 8-4 8 0z" fill="#99aab5"/>
 <path d="m116 72c0 4-8 4-8.1104-1e-4l0.11039-24c0-4 8-4 8 0z" fill="#99aab5"/>
</svg>
