<?xml version="1.0" encoding="UTF-8"?>
<svg version="1.1" viewBox="0 0 256 256" xmlns="http://www.w3.org/2000/svg">
 <path d="m0 0h160v256h-160z" fill="#808080"/>
 <path d="m148.69 84.686c-6.2494 6.2486-6.2494 16.38 0 22.629l20.686 20.686-20.686 20.686c-6.2494 6.2486-6.2494 16.38 0 22.629 6.2486 6.2494 16.38 6.2494 22.629 0l20.686-20.686 20.686 20.686c6.2486 6.2494 16.38 6.2494 22.629 0 6.2494-6.2486 6.2494-16.38 0-22.629l-20.686-20.686 20.686-20.686c6.2494-6.2486 6.2494-16.38 0-22.629-6.2486-6.2494-16.38-6.2494-22.629 0l-20.686 20.686-20.686-20.686c-6.753-6.0867-16.718-5.7338-22.629 0z" fill="#c30" stroke="#fff" stroke-linecap="round" stroke-width="12"/>
</svg>
