<?xml version="1.0" encoding="UTF-8"?>
<svg version="1.1" viewBox="0 0 256 256" xmlns="http://www.w3.org/2000/svg">
 <path d="m128-0h72v256h-72z" fill="#aaa"/>
 <path d="m192 232h8m-8-24h8m-8-24h8m0-24h-8m0-24h8m-8-24h8m-8-24h8m-8-24h8m-8-24h8m-8-24h8m-72 216h16m-16-24h16m-16-24h16m-16-24h16m-16-24h16m-16-48h16m-16-24h16m-16-48h16m-16 24h16m-16 72h16m16 120h16m-16-24h16m-16-24h16m-16-24h16m-16-24h16m-16-48h16m-16-24h16m-16-48h16m-16 24h16m-16 72h16m-32 132h16m-16-24h16m-16-24h16m-16-24h16m-16-24h16m-16-24h16m-16-48h16m-16-24h16m-16-48h16m-16 24h16m-16 72h16m32 156v-256m-16 0v256m-16 0v-256m-16 0v256m32-228.58h16m-16 24h16m-16 192h16m-16-24h16m-16-24h16m-16-24h16m-16-24h16m-16-24h16m-16-24h16m-16-24h16m-16-72h16" fill="none" stroke="#999" stroke-width="4"/>
 <path d="m120-0h8v256h-8z" fill="#999"/>
 <path d="m200-0h8v256h-8z" fill="#999"/>
 <path d="m112-0h8v256h-8z" fill="#666"/>
 <path d="m0-0h112v256h-112z" fill="#808080"/>
 <path d="m209.96 85.374-44.736 51.129-19.908-19.908c-6.2486-6.2494-16.38-6.2494-22.629 0-6.2494 6.2486-6.2494 16.38 0 22.629l32 32c6.5455 6.5435 17.261 6.186 23.355-0.77929l56-64c5.818-6.6502 5.1438-16.758-1.5059-22.576-7.0173-5.682-17.172-4.4702-22.576 1.5059z" color="#000000" fill="#3c0" stroke="#fff" stroke-linecap="round" stroke-width="12"/>
</svg>
