<?xml version="1.0" encoding="UTF-8"?>
<svg version="1.1" viewBox="0 0 128 128" xmlns="http://www.w3.org/2000/svg">
 <path d="m128 64c0 35.346-28.654 64-64 64s-64-28.654-64-64 28.654-64 64-64 64 28.654 64 64" fill="#b9a065" stroke-width=".2"/>
 <path d="m49.856 19.71c-2.7074 0.11517-5.3643 1.3865-7.1367 3.668-3.151 4.0559-2.3743 9.8372 1.6816 12.988 1.2584 0.97764 3.7001 1.7055 6.4688 2.2461-12.86-0.18755-27.047 6.088-27.047 29.184 0 20.498 20.771 44.197 31.326 44.197 4.7421 0 6.2635-2.0078 9.1699-2.0078 2.7535 0 3.8323 2.0078 9.9512 2.0078 10.555 0 29.539-23.062 29.539-43.713 0-30.481-24.742-32.105-36.859-27.844 0.6189-3.7208 3.3108-12.119 14.205-12.119v-3.9766c-11.041 0-15.854 6.312-17.564 12.24-1.6899-4.7089-4.8839-12.772-7.7168-14.973-1.7745-1.3786-3.9119-1.988-6.0176-1.8984z" fill-opacity=".2" stroke-width="1.8805"/>
 <path d="m65 36s-16.341-0.56827-20.397-3.7193c-4.0559-3.151-4.8308-8.9318-1.6798-12.988 3.151-4.0559 9.0972-4.9203 13.153-1.7693 4.0559 3.151 8.9241 18.476 8.9241 18.476z" fill="#83bf4f" stroke-width="1.8805"/>
 <path d="m63 38c0-6.5778 3.6713-17.745 18.357-17.745v3.9773c-13.309 0-14.379 12.544-14.379 13.767z" fill="#947151" stroke-width="1.5297"/>
 <path d="m64.989 37.235c-12.989-5.2351-40.964-5.9544-40.964 26.476 0 20.498 20.772 44.197 31.327 44.197 4.7421 0 6.263-2.0078 9.1695-2.0078 2.7535 0 3.8331 2.0078 9.952 2.0078 10.555 0 29.538-23.061 29.538-43.712 0-32.43-28.011-32.196-39.023-26.961z" fill="#ef4d3c" stroke-width="1.5297"/>
</svg>
