<svg viewBox="0 0 128 128" xmlns="http://www.w3.org/2000/svg"><defs><clipPath clipPathUnits="userSpaceOnUse" id="a"><path d="M119.416 95.983c-17.67 30.593-56.805 41.075-87.41 23.412C1.4 101.733-9.088 62.612 8.582 32.019 26.253 1.422 65.39-9.06 95.996 8.603c30.604 17.663 41.091 56.784 23.421 87.379" fill="#529add" stroke-width=".2"/></clipPath></defs><path d="M119.426 96C101.753 126.611 62.611 137.099 32 119.426 1.389 101.753-9.099 62.611 8.574 32 26.247 1.389 65.389-9.099 96 8.574 126.611 26.247 137.099 65.389 119.426 96" fill="#fd5"/><g clip-path="url(#a)"><path d="M74.246 138.133c3.365-.178 6.715-.696 9.998-1.395l47.113-81.417c-1.036-3.192-1.703-5.702-4.12-8.995 0 0-52.99 91.95-52.99 91.807z" fill-opacity=".2" style="stroke-width:.19993"/><path d="M121.057 19.212c-7.542-4.525-6.838-9.622-14.962-9.612L36.722 129.54c4.054 7.317 7.85 5.59 15.392 10.116 7.528 4.518 20.402-6.35 28.513-6.353l51.449-95.987c-4.053-7.3-3.491-13.586-11.02-18.104z" fill="#999" style="stroke-width:.152225"/><path d="m125.695 42.146-55.407 95.93a64.088 64.088 0 0 0 9.663-.738l49.935-86.458a64.076 64.076 0 0 0-4.191-8.735z" fill="#fff" style="stroke-width:.19993"/><path style="fill:#fff;fill-rule:evenodd;stroke-width:2" d="M-11.28 200.732 130.844-43.952l6.898 4.006L-4.382 204.74Z"/></g><path d="M32 32.148v87.273a64 64 0 0 0 16 6.53V32.148zM80 32.148v93.84a64 64 0 0 0 16-6.582V32.148Z" fill="#666"/><path d="M24 44.148a8.025 8.025 0 0 0-8.043 8.043v31.914A8.025 8.025 0 0 0 24 92.148h79.914a8.025 8.025 0 0 0 8.043-8.043V52.191a8.025 8.025 0 0 0-8.043-8.043z" fill-opacity=".2"/><path d="M24.036 40.08h79.913a8.026 8.026 0 0 1 8.043 8.043v31.913a8.026 8.026 0 0 1-8.043 8.044H24.036a8.026 8.026 0 0 1-8.043-8.044V48.123a8.026 8.026 0 0 1 8.043-8.043z" fill="#fff" style="paint-order:normal" transform="translate(.008 .068)"/><path d="M23.992 40.08a7.976 7.976 0 0 0-7.795 6.213L44.943 88.08h14.143l-32.332-48zm16.619 0 32.332 48h14.143l-32.332-48zm28 0 32.332 48h3.049a7.973 7.973 0 0 0 7.705-5.87L82.754 40.08zm28 0 15.381 22v-14c0-4.432-3.568-8-8-8zm-80.619 26v14c0 4.432 3.568 8 8 8h7.094z" fill="#c84747" style="paint-order:normal" transform="translate(.008 .068)"/><path d="M24.03 40.08h79.924a8.02 8.02 0 0 1 8.038 8.038v31.924a8.02 8.02 0 0 1-8.038 8.038H24.03a8.02 8.02 0 0 1-8.038-8.038V48.118a8.02 8.02 0 0 1 8.038-8.038z" fill="none" stroke="#555" stroke-linecap="round" stroke-linejoin="round" stroke-width="4" style="paint-order:stroke markers fill" transform="translate(.008 .068)"/></svg>