<?xml version="1.0" encoding="UTF-8" standalone="no"?>
<svg
   version="1.1"
   viewBox="0 0 128 128"
   id="svg16"
   sodipodi:docname="intersection_issues_path.svg"
   inkscape:version="1.1.1 (1:1.1+202109281949+c3084ef5ed)"
   xmlns:inkscape="http://www.inkscape.org/namespaces/inkscape"
   xmlns:sodipodi="http://sodipodi.sourceforge.net/DTD/sodipodi-0.dtd"
   xmlns="http://www.w3.org/2000/svg"
   xmlns:svg="http://www.w3.org/2000/svg">
  <defs
     id="defs20">
    <clipPath
       clipPathUnits="userSpaceOnUse"
       id="clipPath1565">
      <path
         d="M 115.2622,94.713546 C 97.592199,125.30755 58.4562,135.78955 27.851199,118.12655 -2.7538005,100.46355 -13.240801,61.342546 4.4291995,30.748546 22.099199,0.1545464 61.235199,-10.327454 91.840199,7.3355464 122.4452,24.998546 132.9322,64.119546 115.2622,94.713546"
         fill="#529add"
         stroke-width="0.19993"
         id="path1567" />
    </clipPath>
  </defs>
  <sodipodi:namedview
     id="namedview18"
     pagecolor="#ffffff"
     bordercolor="#666666"
     borderopacity="1.0"
     inkscape:pageshadow="2"
     inkscape:pageopacity="0.0"
     inkscape:pagecheckerboard="0"
     showgrid="false"
     inkscape:zoom="4"
     inkscape:cx="79.875"
     inkscape:cy="23.375"
     inkscape:window-width="1920"
     inkscape:window-height="1140"
     inkscape:window-x="0"
     inkscape:window-y="0"
     inkscape:window-maximized="1"
     inkscape:current-layer="svg16" />
  <path
     d="m 119.4165,95.9825 c -17.67,30.594 -56.806,41.076 -87.411,23.413 -30.605,-17.663 -41.092,-56.784 -23.422,-87.378 17.67,-30.594 56.806,-41.076 87.411,-23.413 30.605,17.663 41.092,56.784 23.422,87.378"
     fill="#529add"
     stroke-width="0.19993"
     id="path1475" />
  <path
     d="m -26.295022,40.154736 c -1.63151,-2.803992 -3.465831,-5.473612 -5.490054,-7.98606 l -99.842094,0.215869 c -2.01174,2.521111 -3.83279,5.198631 -5.45029,8.009713 z"
     fill="#ffffff"
     id="path10-3"
     style="fill:#00ffff;stroke-width:0.19993" />
  <g
     id="g1473"
     transform="translate(4.1543005,1.2689536)"
     clip-path="url(#clipPath1565)">
    <g
       id="g924"
       transform="translate(-4.5561371,-9.9858704)">
      <g
         id="g1385">
        <path
           d="m 121.05661,19.212363 c -7.5416,-4.52568 -2.81527,-7.86702 -10.93929,-7.857083 L 41.828461,130.73872 c 4.053797,7.31762 2.743789,4.39141 10.285391,8.91771 7.528161,4.51753 -2.259641,-2.62948 16.325718,-4.548 L 127.41798,32.214079 c -4.0532,-7.301008 1.16679,-8.483955 -6.36137,-13.001716 z"
           fill="#999999"
           id="path6"
           style="stroke-width:0.152225"
           sodipodi:nodetypes="ccccccc"
           transform="translate(4.5561371,9.9858704)" />
        <path
           d="m 74.246188,138.1328 c 3.3653,-0.17754 6.7151,-0.69568 9.9983,-1.3943 L 131.35749,55.321496 c -1.0365,-3.192 -1.7039,-5.7024 -4.1204,-8.9951 0,0 -52.991002,91.950004 -52.991002,91.807004 z"
           fill-opacity="0.2"
           id="path4"
           style="stroke-width:0.19993" />
        <path
           d="M 125.69519,42.145796 70.288188,138.0768 c 3.2441,-0.003 6.4739,-0.24966 9.6629,-0.73906 L 129.88609,50.879736 c -1.1706,-3.0055 -2.572,-5.9246 -4.1912,-8.7347 z"
           fill="#ffffff"
           id="path8"
           style="stroke-width:0.19993" />
      </g>
    </g>
    <path
       id="rect2426-6"
       style="fill:#ffffff;fill-rule:evenodd;stroke-width:2"
       d="M -6.1940518,205.49043 135.92882,-39.194284 l 6.89769,4.00646 L 0.70363988,209.4969 Z" />
  </g>
  <g
     id="g843"
     transform="translate(0.008,0.06831901)">
    <path
       d="m 31.992,32.08 v 87.273 a 64,64 0 0 0 16,6.5293 v -93.803 z"
       fill="#666666"
       id="path4-5" />
    <path
       d="m 79.992,32.08 v 93.84 a 64,64 0 0 0 16,-6.582 V 32.08 Z"
       fill="#666666"
       id="path6-3" />
    <path
       d="m 23.992,44.08 c -4.456,0 -8.0429,3.587 -8.0429,8.043 v 31.914 c 0,4.456 3.5869,8.043 8.0429,8.043 h 79.914 c 4.456,0 8.043,-3.587 8.043,-8.043 V 52.123 c 0,-4.456 -3.587,-8.043 -8.043,-8.043 z"
       fill-opacity="0.2"
       id="path8-5" />
    <path
       d="m 24.036,40.08 h 79.913 c 4.456,0 8.0433,3.5873 8.0433,8.0433 v 31.913 c 0,4.456 -3.5873,8.0433 -8.0433,8.0433 H 24.036 c -4.456,0 -8.0433,-3.5873 -8.0433,-8.0433 v -31.913 c 0,-4.456 3.5873,-8.0433 8.0433,-8.0433 z"
       fill="#ffffff"
       style="paint-order:normal"
       id="path10-6" />
    <path
       d="m 23.992,40.08 c -3.8167,0 -6.9867,2.6476 -7.7949,6.2129 l 28.746,41.787 h 14.143 l -32.332,-48 z m 16.619,0 32.332,48 h 14.143 l -32.332,-48 z m 28,0 32.332,48 h 3.0488 c 3.6926,0 6.7759,-2.4795 7.7051,-5.8691 l -28.943,-42.131 z m 28,0 15.381,22 v -14 c 0,-4.432 -3.568,-8 -8,-8 z m -80.619,26 v 14 c 0,4.432 3.568,8 8,8 h 7.0938 z"
       fill="#c84747"
       style="paint-order:normal"
       id="path12" />
    <path
       d="m 24.03,40.08 h 79.924 c 4.4531,0 8.038,3.5849 8.038,8.038 v 31.924 c 0,4.453 -3.5849,8.038 -8.038,8.038 H 24.03 c -4.4531,0 -8.038,-3.5849 -8.038,-8.038 V 48.118 c 0,-4.453 3.5849,-8.038 8.038,-8.038 z"
       fill="none"
       stroke="#555555"
       stroke-linecap="round"
       stroke-linejoin="round"
       stroke-width="4"
       style="paint-order:stroke markers fill"
       id="path14" />
  </g>
  <path
     id="rect2426-6-7"
     style="fill:#ffff00;fill-rule:evenodd;stroke-width:2"
     d="m -145.7859,-19.391865 h 282.96558 v 7.976834 H -145.7859 Z" />
</svg>
