<?xml version="1.0" encoding="UTF-8"?>
<svg version="1.1" viewBox="0 0 128 128" xmlns="http://www.w3.org/2000/svg">
 <path d="m128 64c0 35.346-28.654 64-64 64-35.346 0-64-28.654-64-64s28.654-64 64-64c35.346 0 64 28.654 64 64" fill="#e9a76f" stroke-width=".2"/>
 <path d="m40.591 23.48c-4.6212 0-9.244 4.6207-9.244 9.2419v4.623c0 0.22182 0.0353 0.43381 0.0655 0.64402-0.0416 1.1762-0.0655 2.4843-0.0655 3.977 0 3.4184 1.8614 6.3958 4.621 7.9947v47.459c0 5.104 4.1399 9.2419 9.244 9.2419h32.347c5.1041 0 9.244-4.1379 9.244-9.2419v-4.621h11.552c5.0972 0 9.2419-4.1448 9.2419-9.2419v-36.97c0-5.0971-4.1448-9.2419-9.2419-9.2419h-6.9314v-4.623c0-4.6212-4.6228-9.2419-9.244-9.2419zm46.212 23.107h6.9314s4.621-2e-4 4.621 4.621v27.728c0 4.6212-4.621 4.621-4.621 4.621h-6.9314z" fill-opacity=".18824"/>
 <path d="m79.87 42.399v36.97h13.864s4.6212 0 4.6212-4.6212v-27.727c0-4.6212-4.6212-4.6212-4.6212-4.6212zm18.485 46.212h-18.485c-5.0949 0-9.2424-4.1452-9.2424-9.2424v-36.97c0-5.0972 4.1475-9.2424 9.2424-9.2424h18.485c5.0972 0 9.2424 4.1452 9.2424 9.2424v36.97c0 5.0972-4.1452 9.2424-9.2424 9.2424" fill="#ffac33"/>
 <path d="m86.802 37.778c0-5.1041-4.1383-9.2424-9.2424-9.2424h-32.348c-5.1041 0-9.2424 4.1383-9.2424 9.2424v55.454c0 5.1041 4.1383 9.2424 9.2424 9.2424h32.348c5.1041 0 9.2424-4.1383 9.2424-9.2424z" fill="#ffcc4d"/>
 <path d="m47.521 95.543c-1.2754 0-2.3106-1.0328-2.3106-2.3106v-36.97c0-1.2754 1.0351-2.3106 2.3106-2.3106s2.3106 1.0351 2.3106 2.3106v36.97c0 1.2778-1.0351 2.3106-2.3106 2.3106" fill="#f4900c"/>
 <path d="m61.385 95.543c-1.2754 0-2.3106-1.0328-2.3106-2.3106v-36.97c0-1.2754 1.0351-2.3106 2.3106-2.3106 1.2754 0 2.3106 1.0351 2.3106 2.3106v36.97c0 1.2778-1.0351 2.3106-2.3106 2.3106" fill="#f4900c"/>
 <path d="m75.249 95.543c-1.2778 0-2.3106-1.0328-2.3106-2.3106v-36.97c0-1.2754 1.0328-2.3106 2.3106-2.3106 1.2778 0 2.3106 1.0351 2.3106 2.3106v36.97c0 1.2778-1.0328 2.3106-2.3106 2.3106" fill="#f4900c"/>
 <path d="m91.423 28.536c0-4.6212-4.6212-9.2424-9.2424-9.2424h-41.591c-4.6212 0-9.2424 4.6212-9.2424 9.2424v4.6212c0 0.22182 0.03466 0.43439 0.0647 0.64466-0.04159 1.1761-0.0647 2.4839-0.0647 3.9765 0 5.1041 4.1383 9.2424 9.2424 9.2424 3.8679 0 7.1721-2.3822 8.5515-5.7557 0.80871 0.6978 1.8485 1.1345 3.0015 1.1345 1.5643 0 2.9414-0.78098 3.7778-1.9709 1.6405 2.5671 4.501 4.2815 7.7751 4.2815 3.0061 0 5.6494-1.458 7.3384-3.6808 0.84106 2.1512 2.9206 3.6808 5.3698 3.6808 2.1928 0 4.0782-1.2362 5.0556-3.0361 0.91962 0.45057 1.9386 0.72553 3.0315 0.72553 3.8287 0 6.9318-3.1031 6.9318-6.9318 0-0.71397-0.01155-1.3633-0.03697-1.9594 0.0092-0.11784 0.03697-0.23106 0.03697-0.35121z" fill="#e1e8ed"/>
</svg>
