<?xml version="1.0" encoding="UTF-8"?>
<svg version="1.1" viewBox="0 0 128 128" xmlns="http://www.w3.org/2000/svg">
 <path d="m119.42 95.989c-17.67 30.594-56.806 41.076-87.411 23.413-30.605-17.663-41.092-56.784-23.422-87.378 17.67-30.594 56.806-41.076 87.411-23.413 30.605 17.663 41.092 56.784 23.422 87.378" fill="#ca72e2" stroke-width=".19993"/>
 <g stroke-width=".19993">
  <path d="m67.991 127.97c3.3653-0.17754 6.7151-0.69568 9.9983-1.3943l47.113-81.417c-1.0365-3.192-1.7039-5.7024-4.1204-8.9951 0 0-52.991 91.95-52.991 91.807z" fill-opacity=".2"/>
  <path d="m95.987 8.6467c-10.1-5.8292-21.128-8.5747-32.008-8.5619l-55.403 95.925c5.429 9.4253 13.322 17.599 23.422 23.429 10.082 5.8187 21.088 8.5647 31.95 8.5619l55.432-95.975c-5.4282-9.4039-13.31-17.559-23.392-23.378z" fill="#999"/>
  <path d="m119.44 31.983-55.407 95.931c3.2441-3e-3 6.4738-0.24966 9.6629-0.73906l49.935-86.458c-1.1706-3.0055-2.572-5.9246-4.1912-8.7347z" fill="#fff"/>
  <path d="m64.024 2.6865e-6c-3.2441 0.0033537-6.4738 0.24966-9.6629 0.73906l-49.935 86.458c1.1705 3.0055 2.572 5.9246 4.1912 8.7347z" fill="#fff"/>
 </g>
 <g>
  <path d="m72.642 25.086a5.9968 5.999 90 0 1-8.1948 2.195 5.9968 5.999 90 0 1-2.1958-8.1917 5.9968 5.999 90 0 1 8.1948-2.195 5.9968 5.999 90 0 1 2.1958 8.1917" fill="#bbb" style="paint-order:stroke fill markers"/>
  <path d="m93.945 25.396a5.9968 5.999 90 0 1-8.1948 2.195 5.9968 5.999 90 0 1-2.1958-8.1917 5.9968 5.999 90 0 1 8.1948-2.195 5.9968 5.999 90 0 1 2.1958 8.1917" fill="#bbb" style="paint-order:stroke fill markers"/>
  <path d="m95.16 64.02a5.9968 5.999 90 0 1-8.1948 2.195 5.9968 5.999 90 0 1-2.1958-8.1917 5.9968 5.999 90 0 1 8.1948-2.195 5.9968 5.999 90 0 1 2.1958 8.1917" fill="#ccc" style="paint-order:stroke fill markers"/>
  <path d="m36.027 87.38a5.9968 5.999 90 0 1-8.1948 2.195 5.9968 5.999 90 0 1-2.1958-8.1917 5.9968 5.999 90 0 1 8.1948-2.195 5.9968 5.999 90 0 1 2.1958 8.1917" fill="#ccc" style="paint-order:stroke fill markers"/>
  <path d="m40.971 102.58a5.9968 5.999 90 0 1-8.1948 2.195 5.9968 5.999 90 0 1-2.1958-8.1917 5.9968 5.999 90 0 1 8.1948-2.195 5.9968 5.999 90 0 1 2.1958 8.1917" fill="#ccc" style="paint-order:stroke fill markers"/>
  <path d="m67.621 104.67a5.9968 5.999 90 0 1-8.1948 2.195 5.9968 5.999 90 0 1-2.1958-8.1917 5.9968 5.999 90 0 1 8.1948-2.195 5.9968 5.999 90 0 1 2.1958 8.1917" fill="#ccc" style="paint-order:stroke fill markers"/>
  <path d="m105.23 41.712a5.9968 5.999 90 0 1-8.1948 2.195 5.9968 5.999 90 0 1-2.1958-8.1917 5.9968 5.999 90 0 1 8.1948-2.195 5.9968 5.999 90 0 1 2.1958 8.1917" fill="#aaa" style="paint-order:stroke fill markers"/>
  <path d="m52.234 121.12a5.9968 5.999 90 0 1-8.1948 2.195 5.9968 5.999 90 0 1-2.1958-8.1917 5.9968 5.999 90 0 1 8.1948-2.195 5.9968 5.999 90 0 1 2.1958 8.1917" fill="#aaa" style="paint-order:stroke fill markers"/>
  <path d="m97.606 44.014a5.9968 5.999 90 0 1-8.1948 2.195 5.9968 5.999 90 0 1-2.1958-8.1917 5.9968 5.999 90 0 1 8.1948-2.195 5.9968 5.999 90 0 1 2.1958 8.1917" fill="#bbb" style="paint-order:stroke fill markers"/>
  <path d="m56.607 106.78a5.9968 5.999 90 0 1-8.1948 2.195 5.9968 5.999 90 0 1-2.1958-8.1917 5.9968 5.999 90 0 1 8.1948-2.195 5.9968 5.999 90 0 1 2.1958 8.1917" fill="#bbb" style="paint-order:stroke fill markers"/>
  <path d="m25.066 100.8a5.9968 5.999 90 0 1-8.1948 2.195 5.9968 5.999 90 0 1-2.1958-8.1917 5.9968 5.999 90 0 1 8.1948-2.195 5.9968 5.999 90 0 1 2.1958 8.1917" fill="#bbb" style="paint-order:stroke fill markers"/>
  <path d="m62.118 36.061a5.9968 5.999 90 0 1-8.1948 2.195 5.9968 5.999 90 0 1-2.1958-8.1917 5.9968 5.999 90 0 1 8.1948-2.195 5.9968 5.999 90 0 1 2.1958 8.1917" fill="#ccc" style="paint-order:stroke fill markers"/>
  <path d="m87.685 14.367a5.9968 5.999 90 0 1-8.1948 2.195 5.9968 5.999 90 0 1-2.1958-8.1917 5.9968 5.999 90 0 1 8.1948-2.195 5.9968 5.999 90 0 1 2.1958 8.1917" fill="#aaa" style="paint-order:stroke fill markers"/>
  <path d="m79.997 36.308a3.9978 3.9993 90 0 1-5.4632 1.4633 3.9978 3.9993 90 0 1-1.4639-5.4611 3.9978 3.9993 90 0 1 5.4632-1.4633 3.9978 3.9993 90 0 1 1.4639 5.4611" fill="#bbb" style="paint-order:stroke fill markers"/>
  <path d="m104.51 22.226a3.9978 3.9993 90 0 1-5.4632 1.4633 3.9978 3.9993 90 0 1-1.4639-5.4611 3.9978 3.9993 90 0 1 5.4632-1.4633 3.9978 3.9993 90 0 1 1.4639 5.4611" fill="#bbb" style="paint-order:stroke fill markers"/>
  <path d="m101.12 53.98a3.9978 3.9993 90 0 1-5.4632 1.4633 3.9978 3.9993 90 0 1-1.4639-5.4611 3.9978 3.9993 90 0 1 5.4632-1.4633 3.9978 3.9993 90 0 1 1.4639 5.4611" fill="#777" style="paint-order:stroke fill markers"/>
  <path d="m31.143 75.089a3.9978 3.9993 90 0 1-5.4632 1.4633 3.9978 3.9993 90 0 1-1.4639-5.4611 3.9978 3.9993 90 0 1 5.4632-1.4633 3.9978 3.9993 90 0 1 1.4639 5.4611" fill="#bbb" style="paint-order:stroke fill markers"/>
  <path d="m28.446 109.97a3.9978 3.9993 90 0 1-5.4632 1.4633 3.9978 3.9993 90 0 1-1.4639-5.4612 3.9978 3.9993 90 0 1 5.4632-1.4633 3.9978 3.9993 90 0 1 1.4639 5.4612" fill="#ccc" style="paint-order:stroke fill markers"/>
  <path d="m68.063 115.75a3.9978 3.9993 90 0 1-5.4632 1.4633 3.9978 3.9993 90 0 1-1.4639-5.4612 3.9978 3.9993 90 0 1 5.4632-1.4633 3.9978 3.9993 90 0 1 1.4639 5.4612" fill="#bbb" style="paint-order:stroke fill markers"/>
  <path d="m93.188 71.955a3.9978 3.9993 90 0 1-5.4632 1.4633 3.9978 3.9993 90 0 1-1.4639-5.4611 3.9978 3.9993 90 0 1 5.4632-1.4633 3.9978 3.9993 90 0 1 1.4639 5.4611" fill="#bbb" style="paint-order:stroke fill markers"/>
  <path d="m73.981 8.5622a3.9978 3.9993 90 0 1-5.4632 1.4633 3.9978 3.9993 90 0 1-1.4639-5.4611 3.9978 3.9993 90 0 1 5.4632-1.4633 3.9978 3.9993 90 0 1 1.4639 5.4611" fill="#bbb" style="paint-order:stroke fill markers"/>
  <path d="m113.1 32.741a3.9978 3.9993 90 0 1-5.4632 1.4633 3.9978 3.9993 90 0 1-1.4639-5.4611 3.9978 3.9993 90 0 1 5.4632-1.4633 3.9978 3.9993 90 0 1 1.4639 5.4611" fill="#bbb" style="paint-order:stroke fill markers"/>
  <path d="m86.46 33.114a1.9989 1.9997 90 0 1-2.7316 0.73166 1.9989 1.9997 90 0 1-0.73193-2.7306 1.9989 1.9997 90 0 1 2.7316-0.73166 1.9989 1.9997 90 0 1 0.73193 2.7306" fill="#ccc" style="paint-order:stroke fill markers"/>
  <path d="m89.285 51.857a1.9989 1.9997 90 0 1-2.7316 0.73166 1.9989 1.9997 90 0 1-0.73193-2.7306 1.9989 1.9997 90 0 1 2.7316-0.73166 1.9989 1.9997 90 0 1 0.73193 2.7306" fill="#aaa" style="paint-order:stroke fill markers"/>
  <path d="m79.375 24.844a1.9989 1.9997 90 0 1-2.7316 0.73166 1.9989 1.9997 90 0 1-0.73193-2.7306 1.9989 1.9997 90 0 1 2.7316-0.73166 1.9989 1.9997 90 0 1 0.73193 2.7306" fill="#ccc" style="paint-order:stroke fill markers"/>
  <path d="m68.727 33.692a1.9989 1.9997 90 0 1-2.7316 0.73166 1.9989 1.9997 90 0 1-0.73193-2.7306 1.9989 1.9997 90 0 1 2.7316-0.73166 1.9989 1.9997 90 0 1 0.73193 2.7306" fill="#777" style="paint-order:stroke fill markers"/>
  <path d="m74.71 39.365a1.9989 1.9997 90 0 1-2.7316 0.73166 1.9989 1.9997 90 0 1-0.73193-2.7306 1.9989 1.9997 90 0 1 2.7316-0.73166 1.9989 1.9997 90 0 1 0.73193 2.7306" fill="#ccc" style="paint-order:stroke fill markers"/>
  <path d="m40.785 91.479a1.9989 1.9997 90 0 1-2.7316 0.73165 1.9989 1.9997 90 0 1-0.73193-2.7306 1.9989 1.9997 90 0 1 2.7316-0.73166 1.9989 1.9997 90 0 1 0.73193 2.7306" fill="#bbb" style="paint-order:stroke fill markers"/>
  <path d="m56.761 113.07a1.9989 1.9997 90 0 1-2.7316 0.73166 1.9989 1.9997 90 0 1-0.73193-2.7306 1.9989 1.9997 90 0 1 2.7316-0.73165 1.9989 1.9997 90 0 1 0.73193 2.7306" fill="#ccc" style="paint-order:stroke fill markers"/>
  <path d="m31.807 115.25a1.9989 1.9997 90 0 1-2.7316 0.73165 1.9989 1.9997 90 0 1-0.73193-2.7306 1.9989 1.9997 90 0 1 2.7316-0.73166 1.9989 1.9997 90 0 1 0.73193 2.7306" fill="#ccc" style="paint-order:stroke fill markers"/>
  <path d="m59.167 125.85a1.9989 1.9997 90 0 1-2.7316 0.73166 1.9989 1.9997 90 0 1-0.73193-2.7306 1.9989 1.9997 90 0 1 2.7316-0.73165 1.9989 1.9997 90 0 1 0.73193 2.7306" fill="#bbb" style="paint-order:stroke fill markers"/>
  <path d="m60.932 21.843a1.9989 1.9997 90 0 1-2.7316 0.73166 1.9989 1.9997 90 0 1-0.73193-2.7306 1.9989 1.9997 90 0 1 2.7316-0.73166 1.9989 1.9997 90 0 1 0.73193 2.7306" fill="#bbb" style="paint-order:stroke fill markers"/>
  <path d="m97.362 28.73a1.9989 1.9997 90 0 1-2.7316 0.73166 1.9989 1.9997 90 0 1-0.73193-2.7306 1.9989 1.9997 90 0 1 2.7316-0.73166 1.9989 1.9997 90 0 1 0.73193 2.7306" fill="#ccc" style="paint-order:stroke fill markers"/>
  <path d="m110.95 41.188a1.9989 1.9997 90 0 1-2.7316 0.73166 1.9989 1.9997 90 0 1-0.73193-2.7306 1.9989 1.9997 90 0 1 2.7316-0.73166 1.9989 1.9997 90 0 1 0.73193 2.7306" fill="#ccc" style="paint-order:stroke fill markers"/>
  <path d="m46.96 96.007a1.9989 1.9997 90 0 1-2.7316 0.73166 1.9989 1.9997 90 0 1-0.73193-2.7306 1.9989 1.9997 90 0 1 2.7316-0.73166 1.9989 1.9997 90 0 1 0.73193 2.7306" fill="#aaa" style="paint-order:stroke fill markers"/>
  <path d="m75.046 103.85a1.9989 1.9997 90 0 1-2.7316 0.73165 1.9989 1.9997 90 0 1-0.73193-2.7306 1.9989 1.9997 90 0 1 2.7316-0.73165 1.9989 1.9997 90 0 1 0.73193 2.7306" fill="#ccc" style="paint-order:stroke fill markers"/>
  <path d="m49.669 37.847a1.9989 1.9997 90 0 1-2.7316 0.73166 1.9989 1.9997 90 0 1-0.73193-2.7306 1.9989 1.9997 90 0 1 2.7316-0.73166 1.9989 1.9997 90 0 1 0.73193 2.7306" fill="#aaa" style="paint-order:stroke fill markers"/>
  <path d="m54.803 93.662a3.2233 3.2245 90 0 1-4.4047 1.1798 3.2233 3.2245 90 0 1-1.1802-4.4031 3.2233 3.2245 90 0 1 4.4047-1.1798 3.2233 3.2245 90 0 1 1.1802 4.4031" fill="#ccc" style="paint-order:stroke fill markers"/>
  <path d="m41.15 112.66a3.2233 3.2245 90 0 1-4.4047 1.1798 3.2233 3.2245 90 0 1-1.1802-4.4031 3.2233 3.2245 90 0 1 4.4047-1.1798 3.2233 3.2245 90 0 1 1.1802 4.4031" fill="#777" style="paint-order:stroke fill markers"/>
  <path d="m22.737 88.624a3.2233 3.2245 90 0 1-4.4047 1.1798 3.2233 3.2245 90 0 1-1.1802-4.4031 3.2233 3.2245 90 0 1 4.4047-1.1798 3.2233 3.2245 90 0 1 1.1802 4.4031" fill="#777" style="paint-order:stroke fill markers"/>
  <path d="m62.989 119.15a3.2233 3.2245 90 0 1-4.4047 1.1798 3.2233 3.2245 90 0 1-1.1802-4.4031 3.2233 3.2245 90 0 1 4.4047-1.1798 3.2233 3.2245 90 0 1 1.1802 4.4031" fill="#777" style="paint-order:stroke fill markers"/>
  <path d="m77.563 16.847a3.2233 3.2245 90 0 1-4.4047 1.1798 3.2233 3.2245 90 0 1-1.1802-4.4031 3.2233 3.2245 90 0 1 4.4047-1.1798 3.2233 3.2245 90 0 1 1.1802 4.4031" fill="#ccc" style="paint-order:stroke fill markers"/>
  <path d="m98.945 16.791a3.2233 3.2245 90 0 1-4.4047 1.1798 3.2233 3.2245 90 0 1-1.1802-4.4031 3.2233 3.2245 90 0 1 4.4047-1.1798 3.2233 3.2245 90 0 1 1.1802 4.4031" fill="#777" style="paint-order:stroke fill markers"/>
 </g>
 <path d="m53.154 68.921a10.139 10.139 0 0 1-13.85 3.7111 10.139 10.139 0 0 1-3.7111-13.85 10.139 10.139 0 0 1 13.85-3.7111 10.139 10.139 0 0 1 3.7111 13.85m28.615 16.519a10.139 10.139 0 0 1-13.85 3.7111 10.139 10.139 0 0 1-3.7111-13.85 10.139 10.139 0 0 1 13.85-3.7111 10.139 10.139 0 0 1 3.7111 13.85m-24.705-32.295 3.3174 19.883 12.683 7.3225-0.93937-18.51-15.061-8.6955m16.892 5.5248 3.8679 2.2226m-17.442 12.136 13.574-14.358m-29.428 5.205 17.964-15.856 6.3415 3.6613" fill="none" stroke="#fff" stroke-linecap="round" stroke-linejoin="round" stroke-width="3" style="paint-order:normal"/>
</svg>
