<?xml version="1.0" encoding="UTF-8"?>
<svg version="1.1" viewBox="0 0 128 128" xmlns="http://www.w3.org/2000/svg">
 <path d="m128 64c0 35.346-28.654 64-64 64-35.346 0-64-28.654-64-64 0-35.346 28.654-64 64-64 35.346 0 64 28.654 64 64" fill="#ca72e2" stroke-width=".2"/>
 <path d="m52.325 76.111a19.107 19.107 0 0 1-19.107 19.107 19.107 19.107 0 0 1-19.107-19.107 19.107 19.107 0 0 1 19.107-19.107 19.107 19.107 0 0 1 19.107 19.107m62.265-0.0035a19.107 19.107 0 0 1-19.107 19.107 19.107 19.107 0 0 1-19.107-19.107 19.107 19.107 0 0 1 19.107-19.107 19.107 19.107 0 0 1 19.107 19.107m-70.749-29.428 24.149 29.323h27.599l-18.974-29.323h-32.773m32.773-6.8996 8.4067-0.01725m-17.031 36.24 8.6246-36.223m-43.123 36.223 14.377-42.804h13.799" fill="none" stroke="#000" stroke-linecap="round" stroke-linejoin="round" stroke-opacity=".2" stroke-width="8" style="paint-order:normal"/>
 <g transform="matrix(1.7249 0 0 1.7249 406.22 -658.88)" fill="none" stroke-linecap="round" stroke-linejoin="round">
  <path d="m-205.08 424.06a11.077 11.077 0 0 1-11.077 11.077 11.077 11.077 0 0 1-11.077-11.077 11.077 11.077 0 0 1 11.077-11.077 11.077 11.077 0 0 1 11.077 11.077" stroke="#555" stroke-width="4.6379" style="paint-order:normal"/>
  <path d="m-196 424 5-21" stroke="#ffe420" stroke-width="3.4784"/>
  <path d="m-193.77 402.85 7.641 0.14019" stroke="#555" stroke-width="3.4784"/>
  <path d="m-168.98 424.06a11.077 11.077 0 0 1-11.077 11.077 11.077 11.077 0 0 1-11.077-11.077 11.077 11.077 0 0 1 11.077-11.077 11.077 11.077 0 0 1 11.077 11.077" stroke="#555" stroke-width="4.6379" style="paint-order:normal"/>
  <path d="m-210 407 14 17h16l-11-17h-19" stroke="#ffe420" stroke-width="3.4784"/>
  <path d="m-216 424 8.3347-24.815 7.5209-0.0543" stroke="#ffe420" stroke-width="3.4784"/>
 </g>
</svg>
