<?xml version="1.0" encoding="UTF-8"?>
<svg version="1.1" viewBox="0 0 128 128" xmlns="http://www.w3.org/2000/svg">
 <path d="m128 64c0 35.346-28.654 64-64 64s-64-28.654-64-64 28.654-64 64-64 64 28.654 64 64" fill="#ca72e2" stroke-width=".2"/>
 <path d="m36.222 24h55.056c4.6935 0 8.472 3.7785 8.472 8.472v63.056c0 4.6935-3.7785 8.472-8.472 8.472h-55.056c-4.6935 0-8.472-3.7785-8.472-8.472v-63.056c0-4.6935 3.7785-8.472 8.472-8.472z" fill="none" stroke="#000" stroke-opacity=".2" stroke-width="8" style="paint-order:normal"/>
 <path d="m36.347 20.111h55.056c4.6935 0 8.472 3.7785 8.472 8.472v63.056c0 4.6935-3.7785 8.472-8.472 8.472h-55.056c-4.6935 0-8.472-3.7785-8.472-8.472v-63.056c0-4.6935 3.7785-8.472 8.472-8.472z" fill="#495aad" stroke="#fff" stroke-opacity=".98995" stroke-width="8" style="paint-order:normal"/>
 <path d="m57.93 80.679a10.075 10.075 0 0 1-10.075 10.075 10.075 10.075 0 0 1-10.075-10.075 10.075 10.075 0 0 1 10.075-10.075 10.075 10.075 0 0 1 10.075 10.075m32.832-0.0018a10.075 10.075 0 0 1-10.075 10.075 10.075 10.075 0 0 1-10.075-10.075 10.075 10.075 0 0 1 10.075-10.075 10.075 10.075 0 0 1 10.075 10.075m-37.305-15.517 12.733 15.461h14.553l-10.005-15.461h-17.281m17.281-3.6381 4.4327-0.0091m-8.9802 19.108 4.5475-19.1m-22.738 19.1 7.5805-22.569h7.2761" fill="none" stroke="#fff" stroke-linecap="round" stroke-linejoin="round" stroke-width="3.5012" style="paint-order:normal"/>
 <path d="m87.877 34.554c-2.2991-2.2945-5.4742-3.7008-8.9791-3.6747-5.7972 0-10.82 3.9139-12.454 9.1209h-27.405l-3.1621 3.1557v2.1038l5.2702 5.2596h3.1621l3.1621-3.1557h1.054l3.1621 3.1557h6.3242l3.1621-3.1557h5.2702c1.5284 5.3122 6.5517 8.971 12.296 8.9184 7.1148 0.0526 12.859-5.68 12.859-12.728 0-3.5239-1.423-6.7064-3.7221-9.0009zm-2.4694 6.292c0.6983 0.69689 1.1333 1.657 1.1333 2.7089 0.05271 2.1564-1.6867 3.8923-3.9002 3.8923-2.1081 0-3.8477-1.7361-3.8477-3.8399 0-2.1038 1.7394-3.8397 3.9002-3.8923 1.054 0 2.0161 0.43412 2.7144 1.131z" fill="#fff" stroke-width=".74457"/>
</svg>
