<?xml version="1.0" encoding="UTF-8"?>
<svg version="1.1" viewBox="0 0 128 128" xmlns="http://www.w3.org/2000/svg">
<path d="m128 64c0 35.346-28.654 64-64 64s-64-28.654-64-64 28.654-64 64-64 64 28.654 64 64" fill="#529add" stroke-width=".19997"/>
<path d="m76.71 22.421-31.473 4.6875 0.55274 3.7168-9.4766-0.92188-0.87891 9.0547h-3.6758c-1.6964 0-3.0703 1.5466-3.0703 3.457v6.916c0 1.9104 1.3739 3.457 3.0703 3.457h1.209l5.3223 44.342 1.1562 9.6348c0.0167 0.19901 0.05126 0.3923 0.10352 0.57812 0.10452 0.37166 0.27697 0.71285 0.50195 1.0117 0.22499 0.29888 0.50193 0.55454 0.81836 0.75391 0.31642 0.19937 0.67195 0.34288 1.0508 0.41601 0.18942 0.0366 0.38441 0.0547 0.58398 0.0547h42.988c0.19959 0 0.3945-0.0182 0.58398-0.0547 0.37893-0.0731 0.73423-0.21664 1.0508-0.41601 0.15828-0.0997 0.30615-0.21361 0.44336-0.33984 0.1377-0.12644 0.26409-0.26429 0.37695-0.41407 0.33764-0.44808 0.55597-0.99282 0.60547-1.5898l1.1562-9.6348 5.3223-44.342h1.209c1.6966 0 3.0701-1.5466 3.0703-3.457v-6.916c0-1.9104-1.3739-3.457-3.0703-3.457h-6.4961l-0.58398-10.158-11.404 0.6543z" fill-opacity=".2"/>
<g>
<path d="m32.782 47.239 6.6632 55.525c0.13357 1.5921 1.4632 2.8158 3.0598 2.8158h42.988c1.5968 0 2.9278-1.2237 3.0598-2.8158l6.6648-55.525z" fill="#d9d9d9"/>
<g stroke-linecap="round" stroke-linejoin="round" stroke-width="4">
<rect transform="rotate(-8.4698)" x="41.34" y="29.519" width="31.821" height="19.386" fill="#ffe94c"/>
<rect transform="rotate(5.5472)" x="38.648" y="22.272" width="25.745" height="15.982" fill="#9bbe55"/>
<rect transform="rotate(-3.2896)" x="66.98" y="29.875" width="20.612" height="14.943" fill="#e9a76f"/>
</g>
<path d="m96.241 48.788h-64.482c-1.6964 0-3.0705-1.5475-3.0705-3.4578v-6.9157c0-1.9104 1.3741-3.4578 3.0705-3.4578h64.482c1.6964 0 3.0705 1.5475 3.0705 3.4578v6.9157c-1.74e-4 1.9104-1.3741 3.4578-3.0707 3.4578" fill="#bbb"/>
</g>
<g fill="#999">
<path d="m64 85.621c-0.84751 0-1.5354-0.68628-1.5354-1.5354v-27.635c0-0.84907 0.68785-1.5354 1.5354-1.5354 0.84751 0 1.5354 0.68628 1.5354 1.5354v27.635c0 0.8489-0.68785 1.5352-1.5354 1.5352"/>
<path d="m49.849 85.569c-0.78768 0-1.4585-0.60332-1.5275-1.4018l-2.4074-27.531c-0.07531-0.84438 0.54958-1.5891 1.3955-1.6627 0.84594-0.07826 1.5891 0.55272 1.6627 1.3955l2.4074 27.531c0.07374 0.84438-0.55115 1.5891-1.3955 1.6627-0.04452 0.0049-0.09061 0.0063-0.13514 0.0063"/>
<path d="m78.15 85.569c-0.04452 0-0.09061-0.0016-0.13514-0.0061-0.84438-0.07374-1.4693-0.81829-1.3955-1.6627l2.4074-27.531c0.07374-0.84281 0.81985-1.4738 1.6627-1.3955 0.84594 0.07374 1.4708 0.81829 1.3955 1.6627l-2.4072 27.531c-0.06922 0.79829-0.74003 1.4016-1.5277 1.4016"/>
</g>
<path d="m38.29 93.13 1.1562 9.6348c0.13357 1.592 1.462 2.8144 3.0586 2.8144h42.988c1.5968 0 2.9285-1.2224 3.0605-2.8144l1.1562-9.6348z" fill="#bbb"/>
</svg>
