<?xml version="1.0" encoding="UTF-8"?>
<svg version="1.1" viewBox="0 0 128 128" xmlns="http://www.w3.org/2000/svg">
 <path class="st0" d="m128 64a64 64 0 0 1-64 64 64 64 0 0 1-64-64 64 64 0 0 1 64-64 64 64 0 0 1 64 64" fill="#fd5"/>
 <path d="m63.878 23.353c-9.6406 0-19.282 0.68721-24.791 2.0644-7.8447 1.9612-11.584 17.339-13.023 25.396-0.6229-0.37641-1.3454-0.60547-2.127-0.60547h-5.5078c-2.2834 0-4.1328 1.8474-4.1328 4.1309s1.8494 4.1328 4.1328 4.1328h3.0703c-1.6876 3.2633-1.6933 8.2637-1.6933 8.2637v35.809c0 3.0409 2.4669 5.5078 5.5078 5.5078h8.2637c3.041 0 5.5097-2.4669 5.5097-5.5078v-1.1133c7.4765 1.1038 14.637 1.1133 24.791 1.1133 10.154 0 17.313-8e-3 24.789-1.1113v1.1113c0 3.0409 2.4689 5.5078 5.5097 5.5078h8.2637c3.041 0 5.5078-2.4669 5.5078-5.5078v-35.809c0-4.082-0.7569-6.646-1.709-8.2637h3.086c2.2807 0 4.1328-1.8494 4.1328-4.1328s-1.8521-4.1309-4.1328-4.1309h-5.5078c-0.7802 0-1.5023 0.22947-2.125 0.60547-1.4386-8.0571-5.1787-23.435-13.025-25.396-5.5089-1.3772-15.148-2.0644-24.789-2.0644z" fill-opacity=".2"/>
 <g transform="matrix(2.7545 0 0 -2.7545 11.503 109.44)">
  <path d="m35 4c0-1.104-0.896-2-2-2h-3c-1.104 0-2 0.896-2 2v8c0 1.104 0.896 2 2 2h3c1.104 0 2-0.896 2-2z" fill="#555"/>
  <path d="m10 4c0-1.104-0.896-2-2-2h-3c-1.104 0-2 0.896-2 2v8c0 1.104 0.896 2 2 2h3c1.104 0 2-0.896 2-2z" fill="#555"/>
  <path d="m28 32c3.881-0.97 5-11 5-11s2 0 2-4v-8s-0.119-3.03-4-4c-4-1-7-1-12-1s-8 0-12 1c-3.88 0.97-4 4-4 4v8s0 4 2 4c0 0 1.12 10.03 5 11 4 1 14 1 18 0z" fill="#3b88c3"/>
  <path d="m19 22c3.905 0 8.623-0.2 12-0.562l-1 5.562c-1 3-7 3-11 3s-10 0-11-3l-1-5.562c3.377 0.362 8.095 0.562 12 0.562" fill="#bbddf5"/>
  <path d="m4.5 20h-2c-0.829 0-1.5 0.671-1.5 1.5s0.671 1.5 1.5 1.5h2c0.829 0 1.5-0.671 1.5-1.5s-0.671-1.5-1.5-1.5z" fill="#3b88c3"/>
  <path d="m33.5 20h2c0.828 0 1.5 0.671 1.5 1.5s-0.672 1.5-1.5 1.5h-2c-0.828 0-1.5-0.671-1.5-1.5s0.672-1.5 1.5-1.5z" fill="#3b88c3"/>
  <path d="m12 14c0-1.657-1.343-3-3-3h-1c-1.657 0-3 1.343-3 3s1.343 3 3 3h1c1.657 0 3-1.343 3-3" fill="#fff"/>
  <path d="m33 14c0-1.657-1.344-3-3-3h-1c-1.656 0-3 1.343-3 3s1.344 3 3 3h1c1.656 0 3-1.343 3-3" fill="#fff"/>
  <path d="m5.914 17.122c2.8156 1.3928 7.2549-0.07212 7.2998-0.08646 0.52302-0.1761 1.0905 0.10479 1.2666 0.62781 0.1761 0.52302-0.10183 1.0876-0.62695 1.2661-0.21289 0.07326-5.2629 1.7464-8.8255-0.01416-0.495-0.24537-0.69762-0.84431-0.45361-1.3397 0.09159-0.18336 0.23123-0.32749 0.39578-0.42249 0.27973-0.1615 0.63226-0.1849 0.9439-0.03112z" fill="#269"/>
  <path d="m33.424 17.575c0.24487 0.49587 0.04226 1.0948-0.45361 1.3397-3.5617 1.7611-8.6126 0.08742-8.8255 0.01416-0.52065-0.1782-0.80305-0.74308-0.62608-1.2656 0.17524-0.52352 0.74271-0.80442 1.2657-0.62831 0.04484 0.01434 4.4841 1.4792 7.2998 0.08646 0.31078-0.15428 0.66417-0.13038 0.9439 0.03112 0.16454 0.095 0.30419 0.23913 0.39578 0.42249z" fill="#269"/>
  <path d="m5.293 9.293c-0.391 0.391-0.391 1.023 0 1.414 0.344 0.345 0.877 0.386 1.267 0.122 0.232-0.1 2.285-0.829 12.44-0.829s12.208 0.729 12.44 0.829c0.391 0.264 0.922 0.223 1.267-0.122 0.391-0.391 0.391-1.023 0-1.414-1.068-1.068-8.044-1.293-13.707-1.293s-12.639 0.225-13.707 1.293z" fill="#55acee"/>
  <path d="m19 5c-3.866 0-7 1-7 2.5 0 0.828 3.134 0.5 7 0.5s7 0.328 7-0.5c0-1.5-3.134-2.5-7-2.5z" fill="#269"/>
 </g>
</svg>
