<?xml version="1.0" encoding="UTF-8"?>
<svg version="1.1" viewBox="0 0 128 128" xmlns="http://www.w3.org/2000/svg">
 <path class="st0" d="m128 64a64 64 0 0 1-64 64 64 64 0 0 1-64-64 64 64 0 0 1 64-64 64 64 0 0 1 64 64" fill="#fd5"/>
 <path d="m63.878 23.353c-9.6406 0-19.282 0.68721-24.791 2.0644-7.8447 1.9612-11.584 17.339-13.023 25.396-0.6229-0.37641-1.3454-0.60547-2.127-0.60547h-5.5078c-2.2834 0-4.1328 1.8474-4.1328 4.1309s1.8494 4.1328 4.1328 4.1328h3.0703c-1.6876 3.2633-1.6933 8.2637-1.6933 8.2637v35.809c0 3.0409 2.4669 5.5078 5.5078 5.5078h8.2637c3.041 0 5.5097-2.4669 5.5097-5.5078v-1.1133c7.4765 1.1038 14.637 1.1133 24.791 1.1133 10.154 0 17.313-8e-3 24.789-1.1113v1.1113c0 3.0409 2.4689 5.5078 5.5097 5.5078h8.2637c3.041 0 5.5078-2.4669 5.5078-5.5078v-35.809c0-4.082-0.7569-6.646-1.709-8.2637h3.086c2.2807 0 4.1328-1.8494 4.1328-4.1328s-1.8521-4.1309-4.1328-4.1309h-5.5078c-0.7802 0-1.5023 0.22947-2.125 0.60547-1.4386-8.0571-5.1787-23.435-13.025-25.396-5.5089-1.3772-15.148-2.0644-24.789-2.0644z" fill-opacity=".2"/>
 <g transform="matrix(2.7545 0 0 -2.7545 11.503 109.44)">
  <g>
   <path d="m35 4c0-1.104-0.896-2-2-2h-3c-1.104 0-2 0.896-2 2v8c0 1.104 0.896 2 2 2h3c1.104 0 2-0.896 2-2z" fill="#555"/>
   <path d="m10 4c0-1.104-0.896-2-2-2h-3c-1.104 0-2 0.896-2 2v8c0 1.104 0.896 2 2 2h3c1.104 0 2-0.896 2-2z" fill="#555"/>
   <path d="m28 32c3.881-0.97 5-11 5-11s2 0 2-4v-8s-0.119-3.03-4-4c-4-1-7-1-12-1s-8 0-12 1c-3.88 0.97-4 4-4 4v8s0 4 2 4c0 0 1.12 10.03 5 11 4 1 14 1 18 0z" fill="#3b88c3"/>
   <path d="m19 22c3.905 0 8.623-0.2 12-0.562l-1 5.562c-1 3-7 3-11 3s-10 0-11-3l-1-5.562c3.377 0.362 8.095 0.562 12 0.562" fill="#bbddf5"/>
   <path d="m4.5 20h-2c-0.829 0-1.5 0.671-1.5 1.5s0.671 1.5 1.5 1.5h2c0.829 0 1.5-0.671 1.5-1.5s-0.671-1.5-1.5-1.5z" fill="#3b88c3"/>
   <path d="m33.5 20h2c0.828 0 1.5 0.671 1.5 1.5s-0.672 1.5-1.5 1.5h-2c-0.828 0-1.5-0.671-1.5-1.5s0.672-1.5 1.5-1.5z" fill="#3b88c3"/>
   <path d="m12 14c0-1.657-1.343-3-3-3h-1c-1.657 0-3 1.343-3 3s1.343 3 3 3h1c1.657 0 3-1.343 3-3" fill="#fff"/>
   <path d="m33 14c0-1.657-1.344-3-3-3h-1c-1.656 0-3 1.343-3 3s1.344 3 3 3h1c1.656 0 3-1.343 3-3" fill="#fff"/>
   <path d="m4.5342 16.176c2.3592 2.0741 7.0264 1.808 7.0734 1.8058 0.55078-0.03474 1.0262 0.38346 1.061 0.93424 0.03473 0.55078-0.37986 1.0242-0.93327 1.0607-0.2246 0.01566-5.5356 0.32478-8.5211-2.2979-0.41463-0.36513-0.45532-0.9961-0.091421-1.4114 0.13593-0.15341 0.30812-0.25648 0.49164-0.30566 0.31199-0.0836 0.65857-0.01496 0.91979 0.21424z" fill="#269"/>
   <path d="m34.667 16.138c0.36487 0.4156 0.32418 1.0466-0.09142 1.4114-2.9846 2.6229-8.2965 2.3135-8.5211 2.2979-0.54904-0.03737-0.96801-0.50991-0.93231-1.0604 0.03377-0.55104 0.50921-0.96923 1.06-0.9345 0.04702 0.0022 4.7142 0.26827 7.0734-1.8058 0.26026-0.22946 0.6078-0.29784 0.91979-0.21424 0.18353 0.04918 0.35572 0.15225 0.49164 0.30566z" fill="#269"/>
   <path d="m5.293 9.293c-0.391 0.391-0.391 1.023 0 1.414 0 0 9.0434 3.0325 13.763 3.0745 4.7196 0.04199 13.651-3.0745 13.651-3.0745 0.391-0.391 0.391-1.023 0-1.414-1.068-1.068-7.988 2.4885-13.651 2.4885s-12.695-3.5565-13.763-2.4885z" fill="#55acee"/>
   <path d="m19 5c-3.866 0-7.0461 2.7401-7.0461 4.2401 0 0.828 3.2217 0.42118 7.0877 0.42118s6.9123 0.40682 6.9123-0.42118c0-1.5-3.0879-4.2401-6.9539-4.2401z" fill="#269"/>
  </g>
  <path transform="scale(1,-1)" d="m5.4329-16.714-1.4195-3.7685-3.5922-1.2433 3.7685-1.4195 1.2433-3.5922 1.4195 3.7685 3.5922 1.2433-3.7685 1.4195z" fill-opacity=".2"/>
  <path transform="scale(1,-1)" d="m14.525-17.671-2.5392-7.3592-7.0411-2.2212 7.3592-2.5392 2.2212-7.0411 2.5392 7.3592 7.0411 2.2212-7.3592 2.5392z" fill-opacity=".2"/>
  <path transform="scale(1,-1)" d="m5.5-17.751-1.4195-3.7685-3.5922-1.2433 3.7685-1.4195 1.2433-3.5922 1.4195 3.7685 3.5922 1.2433-3.7685 1.4195z" fill="#feffd6" stroke="#89dfe2" stroke-linejoin="round" stroke-width="1.0891"/>
  <path transform="scale(1,-1)" d="m14.592-18.708-2.5392-7.3592-7.0411-2.2212 7.3592-2.5392 2.2212-7.0411 2.5392 7.3592 7.0411 2.2212-7.3592 2.5392z" fill="#feffd6" stroke="#89dfe2" stroke-linejoin="round" stroke-width="1.0891"/>
 </g>
</svg>
