<?xml version="1.0" encoding="UTF-8"?>
<svg version="1.1" viewBox="0 0 128 128" xmlns="http://www.w3.org/2000/svg">
 <path class="st0" d="m128 64a64 64 0 0 1-64 64 64 64 0 0 1-64-64 64 64 0 0 1 64-64 64 64 0 0 1 64 64" fill="#fd5"/>
 <g transform="matrix(.83542 0 0 .83542 -1320.5 -217.78)">
  <path d="m1671.5 299.88c-9.6406 0-19.282 0.68721-24.791 2.0644-7.8447 1.9612-11.584 17.339-13.023 25.396-0.6229-0.37641-1.3454-0.60547-2.127-0.60547h-5.5078c-2.2834 0-4.1328 1.8474-4.1328 4.1309s1.8494 4.1328 4.1328 4.1328h3.0703c-1.6876 3.2633-1.6933 8.2637-1.6933 8.2637v35.809c0 3.0409 2.4669 5.5078 5.5078 5.5078h8.2637c3.041 0 5.5097-2.4669 5.5097-5.5078v-1.1133c7.4765 1.1038 14.637 1.1133 24.791 1.1133 10.154 0 17.313-8e-3 24.789-1.1113v1.1113c0 3.0409 2.4689 5.5078 5.5097 5.5078h8.2637c3.041 0 5.5078-2.4669 5.5078-5.5078v-35.809c0-4.082-0.7569-6.646-1.709-8.2637h3.086c2.2807 0 4.1328-1.8494 4.1328-4.1328 0-2.2834-1.8521-4.1308-4.1328-4.1308h-5.5078c-0.7802 0-1.5023 0.22947-2.125 0.60547-1.4386-8.0571-5.1787-23.435-13.025-25.396-5.5089-1.3772-15.148-2.0644-24.789-2.0644z" fill-opacity=".2"/>
  <g transform="matrix(2.7545 0 0 -2.7545 1619.1 385.96)">
   <path d="m35 4c0-1.104-0.896-2-2-2h-3c-1.104 0-2 0.896-2 2v8c0 1.104 0.896 2 2 2h3c1.104 0 2-0.896 2-2z" fill="#555"/>
   <path d="m10 4c0-1.104-0.896-2-2-2h-3c-1.104 0-2 0.896-2 2v8c0 1.104 0.896 2 2 2h3c1.104 0 2-0.896 2-2z" fill="#555"/>
   <path d="m28 32c3.881-0.97 5-11 5-11s2 0 2-4v-8s-0.119-3.03-4-4c-4-1-7-1-12-1s-8 0-12 1c-3.88 0.97-4 4-4 4v8s0 4 2 4c0 0 1.12 10.03 5 11 4 1 14 1 18 0z" fill="#3b88c3"/>
   <path d="m19 22c3.905 0 8.623-0.2 12-0.562l-1 5.562c-1 3-7 3-11 3s-10 0-11-3l-1-5.562c3.377 0.362 8.095 0.562 12 0.562" fill="#bbddf5"/>
   <path d="m4.5 20h-2c-0.829 0-1.5 0.671-1.5 1.5s0.671 1.5 1.5 1.5h2c0.829 0 1.5-0.671 1.5-1.5s-0.671-1.5-1.5-1.5z" fill="#3b88c3"/>
   <path d="m33.5 20h2c0.828 0 1.5 0.671 1.5 1.5s-0.672 1.5-1.5 1.5h-2c-0.828 0-1.5-0.671-1.5-1.5s0.672-1.5 1.5-1.5z" fill="#3b88c3"/>
   <path d="m12 14c0-1.657-1.343-3-3-3h-1c-1.657 0-3 1.343-3 3s1.343 3 3 3h1c1.657 0 3-1.343 3-3" fill="#fff"/>
   <path d="m33 14c0-1.657-1.344-3-3-3h-1c-1.656 0-3 1.343-3 3s1.344 3 3 3h1c1.656 0 3-1.343 3-3" fill="#fff"/>
   <path d="m5.914 17.122c2.8156 1.3928 7.2549-0.07212 7.2998-0.08646 0.52302-0.1761 1.0905 0.10479 1.2666 0.62781 0.1761 0.52302-0.10183 1.0876-0.62695 1.2661-0.21289 0.07326-5.2629 1.7464-8.8255-0.01416-0.495-0.24537-0.69762-0.84431-0.45361-1.3397 0.09159-0.18336 0.23123-0.32749 0.39578-0.42249 0.27973-0.1615 0.63226-0.1849 0.9439-0.03112z" fill="#269"/>
   <path d="m33.424 17.575c0.24487 0.49587 0.04226 1.0948-0.45361 1.3397-3.5617 1.7611-8.6126 0.08742-8.8255 0.01416-0.52065-0.1782-0.80305-0.74308-0.62608-1.2656 0.17524-0.52352 0.74271-0.80442 1.2657-0.62831 0.04484 0.01434 4.4841 1.4792 7.2998 0.08646 0.31078-0.15428 0.66417-0.13038 0.9439 0.03112 0.16454 0.095 0.30419 0.23913 0.39578 0.42249z" fill="#269"/>
   <path d="m5.293 9.293c-0.391 0.391-0.391 1.023 0 1.414 0.344 0.345 0.877 0.386 1.267 0.122 0.232-0.1 2.285-0.829 12.44-0.829s12.208 0.729 12.44 0.829c0.391 0.264 0.922 0.223 1.267-0.122 0.391-0.391 0.391-1.023 0-1.414-1.068-1.068-8.044-1.293-13.707-1.293s-12.639 0.225-13.707 1.293z" fill="#55acee"/>
   <path d="m19 5c-3.866 0-7 1-7 2.5 0 0.828 3.134 0.5 7 0.5s7 0.328 7-0.5c0-1.5-3.134-2.5-7-2.5z" fill="#269"/>
  </g>
 </g>
 <path d="m43.828 23.556c-1.257 5e-3 -2.2854 1.0396-2.2754 2.2949l0.1094 25.133-2.2773 0.01h-0.01l-13.711 0.0586-2.2813 0.01-0.1074-25.133c-0.01-1.2569-1.0377-2.2804-2.293-2.2734-1.257 5e-3 -2.2854 1.0396-2.2754 2.2949l0.1075 25.131-2.2872 0.01c-2.5235 0.0109-4.5597 2.0663-4.5488 4.5898 0.013 2.5252 2.0643 4.5598 4.5879 4.5488l0.07 15.996c0.015 3.3734 1.8774 6.2781 4.6016 7.8496l0.018 3.5547c0.018 4.2587 2.9624 7.7967 6.9121 8.791-0.079 4.8957 0.037 9.8904-5.7478 15.725 1.9705 2.0257 4.0882 3.8866 6.6674 5.4885 5.5859-5 8.1334-14.687 8.2132-21.264 3.9247-1.0413 6.8227-4.5944 6.8027-8.8418l-0.016-3.5508c2.7138-1.5951 4.5497-4.5173 4.5351-7.8906l-0.068-15.992c2.5219-0.0125 4.5581-2.0679 4.5488-4.5898-0.011-2.5236-2.0676-4.5637-4.5879-4.5527l-2.2851 0.01-0.1075-25.133c-0.01-1.2569-1.0396-2.2804-2.2949-2.2734z" fill-opacity=".2"/>
 <g transform="matrix(1.6226 1.6086 1.6086 -1.6226 -30.828 62.312)">
  <path d="m12.858 20.736c0.389-0.389 0.389-1.025 0-1.414s-1.025-0.389-1.414 0l-8.485 8.486c-0.389 0.388-0.389 1.025 0 1.414 0.388 0.389 1.025 0.389 1.414 0z" fill="#9aaab4"/>
  <path d="m19.93 27.807c0.389-0.389 0.389-1.025 0-1.414s-1.025-0.389-1.414 0l-8.486 8.486c-0.389 0.388-0.389 1.025 0 1.414 0.388 0.389 1.025 0.389 1.414 0z" fill="#9aaab4"/>
  <path d="m34.766 1.0786c0 4.966-2.3263 8.5024-4.3283 10.571 0.899 1.533 0.705 3.53-0.61 4.844l-1.099 1.099c0.352 1.332 0.022 2.806-1.022 3.85l-4.949 4.95c0.78 0.781 0.78 2.047 0 2.828-0.781 0.781-2.049 0.781-2.829 1e-3l-9.9-9.9c-0.781-0.781-0.781-2.047 0-2.828 0.782-0.781 2.047-0.781 2.828 0l4.951-4.95c1.044-1.044 2.518-1.373 3.849-1.022l1.101-1.1c1.318-1.318 3.323-1.51 4.857-0.602 1.484-1.546 3.3626-4.507 3.3626-8.103 1.2367-0.022466 2.4934 0.064809 3.7887 0.36166z" fill="#444"/>
  <path d="m17.295 19.929 2.3669-4.9071 1.2441 1.8098 2.6844-3.9978-0.1702 9.4446-2.4882-3.6196-1.1488 4.8897z" fill="#fd5" style="paint-order:markers fill stroke"/>
 </g>
</svg>
