<?xml version="1.0" encoding="UTF-8"?>
<svg version="1.1" viewBox="0 0 128 128" xmlns="http://www.w3.org/2000/svg">
 <path d="m128 64c0 35.346-28.654 64-64 64s-64-28.654-64-64 28.654-64 64-64 64 28.654 64 64" fill="#b9a065" stroke-width=".2"/>
 <path d="m38.601 14.6c-0.65922 6.3575-0.06753 10.812 1.1035 13.908-0.7874 0.65284-1.5409 1.3438-2.248 2.0801-0.315-0.77284-0.6523-1.5022-1.041-2.1328-3.3487-2.2654-9.1132-3.4223-16.258-3.248-0.20878 7.3238 0.80935 13.341 3.0254 16.939 1.8361 1.2415 4.4122 2.1365 7.5215 2.6758-0.0563 0.52033-0.09375 1.0379-0.09375 1.5469 0 7.9984 1.5682 15.496 4.5117 21.623-1.6946 3.0707-1.7793 6.6631-1.7793 10.031 0 3.0121 0.7503 5.423 2.5898 7.2734v22.461c1.3e-4 0.28183 0.01376 0.5595 0.04102 0.83399 1.27e-4 1e-3 -1.28e-4 3e-3 0 4e-3 0.02738 0.27444 0.06987 0.54481 0.12305 0.81055 2.5e-4 1e-3 -2.51e-4 3e-3 0 4e-3 0.05329 0.2657 0.1195 0.52756 0.19726 0.7832v2e-3c0.078 0.25623 0.16827 0.5072 0.26953 0.75196v2e-3c0.10132 0.24475 0.21464 0.48294 0.33789 0.71484v2e-3c1.3588 2.5567 4.0098 4.293 7.0625 4.293 3.0437 0 5.69-1.7363 7.0469-4.293v-2e-3c0.12308-0.2319 0.2367-0.47205 0.33789-0.71679 0.10113-0.24476 0.19162-0.49768 0.26953-0.75391 0.23411-0.77052 0.35938-1.5899 0.35938-2.4394v-13.504h10.338v13.486c0 0.28317 0.01363 0.56408 0.04102 0.83984v2e-3c0.0048 0.0483 0.01587 0.0946 0.02148 0.14257 0.05868 0.50143 0.15578 0.9896 0.29883 1.459v2e-3c0.07771 0.25478 0.16687 0.50462 0.26758 0.74805 1.2183 2.9538 4.0752 5.0254 7.4082 5.0254 4.4452 0 8.041-3.6782 8.041-8.2188h-0.0332v-10.713c0.01095-0.0012 0.02225-7.42e-4 0.0332-2e-3v-1.9843a8.537 5.1801 0 0 0 3.8184 2.5215v3.418c0 1.1113 0.62671 2.0098 1.4043 2.0098 0.78416 0 1.4157-0.89681 1.4141-2.0098v-2.8594a8.537 5.1801 0 0 0 1.2051 0.05469 8.537 5.1801 0 0 0 1.2109-0.05273v2.8574c0 1.1113 0.63123 2.0098 1.4121 2.0098 0.77594 0 1.4082-0.89681 1.4082-2.0098v-3.4199a8.537 5.1801 0 0 0 2.8496-1.498v5.9941c0 4.1436 3.2828 7.5 7.3438 7.5 4.0489 0 7.3301-3.3564 7.3301-7.5v-15.654c0.22528-4.6586 0.5294-8.8829-0.125-15.375-0.0417-0.41337-0.16919-0.79985-0.36718-1.1602-1.0062-4.4738-3.6265-8.3954-7.2637-11.262 2.4078-1.3511 4.8793-2.9798 7.1894-4.918 4.2569 0.08418 7.6907-0.60731 9.6973-1.9531 1.3448-2.1601 1.9636-5.7688 1.832-10.168-4.3285-0.10027-7.8249 0.5903-9.8535 1.9531-1.12 1.8004-1.7249 4.6151-1.8262 8.043l-9.0645 5.6074c-3.5371-2.1932-7.8027-3.4727-12.396-3.4727h-1.9688c0.24141-1.8064 0.39466-3.653 0.45703-5.5332 0.0021-0.06241 4e-3 -0.12502 0.0059-0.1875 0.01728-0.57763 0.04687-1.1513 0.04687-1.7344 0-0.52228-0.02441-1.0365-0.05859-1.5469 2.8226-0.52288 5.1889-1.367 6.9512-2.5352 2.1799-3.4769 3.3051-9.4521 3.1309-16.861-7.064-0.22029-12.862 0.83849-16.334 3.1367-0.24969 0.39747-0.48352 0.83549-0.70508 1.2969-0.76358-0.7686-1.5726-1.4924-2.4238-2.166 0.94455-3.002 1.3723-7.1354 0.78125-12.82 0 0-3.3773 5.2608-8.6875 8.3789-3.1178-1.1603-6.4102-1.7837-9.6523-1.7832-3.075 0-6.1674 0.78178-9.1035 2.1094-5.7521-3.099-9.4512-8.8477-9.4512-8.8477z" fill-opacity=".2"/>
 <path d="m86.931 60.307s16.924-4.2677 25.636-15.859" fill="none" stroke="#7f7265" stroke-miterlimit="10" stroke-width="2.4659"/>
 <path d="m107.13 49.931c-0.12493-4.3976 0.48826-8.0077 1.833-10.169 2.0286-1.3628 5.5253-2.0533 9.8538-1.953 0.13152 4.3992-0.48825 8.0093-1.833 10.169-2.0319 1.3628-5.522 2.0582-9.8538 1.953" fill="#7f7265" stroke-width="1.6439"/>
 <path d="m93.183 74.674c0-4.1497 3.2836-7.507 7.3446-7.507 4.0489 0 7.3296 3.3573 7.3296 7.507v23.624c0 4.1436-3.2806 7.5009-7.3296 7.5009-4.0609 0-7.3446-3.3573-7.3446-7.5009z" fill="#e3e2d7" stroke-width="1.5035"/>
 <g transform="matrix(1.6439 0 0 1.6439 16.912 10.279)" fill="#eba8a3">
  <ellipse cx="42.21" cy="48.03" rx="5.193" ry="3.151"/>
  <path d="m40.617 54.11c-0.473 0-0.855-0.547-0.855-1.223v-2.808c0-0.677 0.383-1.224 0.855-1.224 0.477 0 0.859 0.547 0.859 1.224v2.808c1e-3 0.677-0.382 1.223-0.859 1.223"/>
  <path d="m43.805 54.11c-0.475 0-0.859-0.547-0.859-1.223v-2.808c0-0.677 0.385-1.224 0.859-1.224 0.473 0 0.857 0.547 0.857 1.224v2.808c0 0.677-0.385 1.223-0.857 1.223"/>
 </g>
 <path d="m107.82 70.238c0 11.189-9.913 20.258-22.142 20.258h-39.356v-40.558h39.356c12.231 0 22.142 9.0729 22.142 20.299" fill="#e3e2d7" stroke-width="1.6439"/>
 <path d="m62.382 78.152c0-4.5373 3.5904-8.2082 8.0307-8.2082 4.4271 0 8.0142 3.6709 8.0142 8.2082v25.831c0 4.5307-3.5871 8.2016-8.0142 8.2016-4.4403 0-8.0307-3.6709-8.0307-8.2016z" fill="#e3e2d7" stroke-width="1.6439"/>
 <path d="m77.031 73.406c0.89924 1.3283 1.4286 2.941 1.4286 4.6803v15.182c-0.28276 0.03126-0.56552 0.04766-0.8565 0.04766-5.0502 0.0021-9.1486-4.4633-9.1486-9.9714 0-5.2894 3.7926-9.6097 8.5765-9.9385z" fill="#7f7265" stroke-width="1.6439"/>
 <path d="m70.419 112.2c4.4452 0 8.0405-3.6775 8.0405-8.2181h-16.078c0.0017 4.5406 3.597 8.2181 8.0373 8.2181" fill="#333" stroke-width="1.6439"/>
 <path d="m36 78.172c0-4.5373 3.5904-8.2082 8.0307-8.2082 4.4271 0 8.0142 3.6709 8.0142 8.2082v25.831c0 4.5307-3.5871 8.2016-8.0142 8.2016-4.4403 0-8.0307-3.6709-8.0307-8.2016z" fill="#e3e2d7" stroke-width="1.6439"/>
 <path d="m36 101.44v-13.98c4.5209 0.42249 8.0208 3.3882 8.0208 6.9884 0 3.6035-3.5 6.5692-8.0208 6.9917z" fill="#7f7265" stroke-width="1.6439"/>
 <path d="m44.031 112.2c-4.4403 0-8.0307-3.6709-8.0307-8.2016h16.045c0 4.5307-3.5871 8.2016-8.0142 8.2016" fill="#333" stroke-width="1.6439"/>
 <path d="m96.493 78.74c-30.772-16.847 10.325-20.54 11.239-11.47 0.91424 9.0699-0.0408 13.697-0.0408 21.295-1.9732 1.7133-16.236-4.889-11.198-9.8251z" fill="#7f7265" stroke-width="1.6439"/>
 <path d="m100.5 105.71c4.049 0 7.3205-3.3487 7.3205-7.4816h-14.634c0 4.1329 3.2747 7.4816 7.3139 7.4816" fill="#333" stroke-width="1.6439"/>
 <g transform="matrix(1.6439 0 0 1.6439 16.912 10.279)" fill="#f6c799">
  <path d="m19.351 5.9239c-3.7109-1.8274-6.1165-5.5793-6.1165-5.5793-1.0251 9.8862 2.8853 12.289 5.0969 12.329 2.9633 0.06151 5.3019-4.6417 1.0196-6.7521" stroke-width="1.3668"/>
  <path d="m29.65 5.9322c3.6558-1.8016 6.0274-5.5005 6.0274-5.5005 1.0133 9.7465-2.8459 12.115-5.0249 12.155-2.9214 0.060638-5.2243-4.5761-1.0025-6.6567" stroke-width="1.3475"/>
 </g>
 <path d="m94.243 21.541c-7.064-0.22029-12.862 0.83841-16.334 3.1366-2.1832 3.4753-3.3043 9.4543-3.1301 16.865 7.0607 0.21864 12.862-0.83841 16.334-3.1399 2.1799-3.4769 3.3043-9.4527 3.1301-16.862" fill="#7f7265" stroke-width="1.6439"/>
 <path d="m89.953 25.95c-3.9422-0.12165-7.1824 0.46852-9.1255 1.7524-1.2198 1.9431-1.8429 5.2869-1.7492 9.4264 3.9455 0.12165 7.189-0.46852 9.1288-1.7524 1.2182-1.9431 1.8412-5.2836 1.7459-9.4264" fill="#333" stroke-width="1.6439"/>
 <path d="m39.51 41.645c0.21207-7.3287-0.80882-13.344-3.0281-16.944-3.3487-2.2654-9.1124-3.4211-16.257-3.2468-0.20878 7.3238 0.80882 13.341 3.0249 16.939 3.3553 2.2686 9.1157 3.4211 16.26 3.2517" fill="#7f7265" stroke-width="1.6439"/>
 <path d="m35.303 37.231c0.11508-4.1279-0.45537-7.5178-1.7081-9.548-1.8856-1.2773-5.134-1.9267-9.1601-1.8314-0.12165 4.1296 0.45208 7.5178 1.7048 9.5464 1.8905 1.279 5.1373 1.9316 9.1634 1.833" fill="#333" stroke-width="1.6439"/>
 <path d="m57.223 79.579c-16.719 0-26.547-16.921-26.547-36.964 0-10.995 13.456-25.031 26.547-25.031 13.084-0.0017 26.978 10.132 26.978 24.888 0 20.041-10.26 37.107-26.978 37.107z" fill="#e3e2d7" stroke-width="1.6439"/>
 <path d="m65.531 18.936c-8.5679 15.805-0.81785 12.763-1.3455 22.886-0.52763 10.123-10.446 17.419 0.0033 36.695 12.566-4.0235 20.032-18.94 20.032-36.032 0-11.626-8.6322-20.357-18.69-23.548z" fill="#7f7265" stroke-width="1.6439"/>
 <path d="m43.771 57.499c1.6508 10.001 16.745 2.818 6.2952 22.094-12.566-4.0235-20.032-18.94-20.032-36.032 0-11.626 8.5452-20.836 18.603-24.027-7.4638 11.466-6.979 25.267-4.8659 37.965z" fill="#7f7265" stroke-width="1.6439"/>
 <path d="m81.059 74.269c0 8.2362-5.5861 11.999-23.826 11.999-18.248 0-23.824-3.7646-23.824-11.999 0-8.2362 0.50469-17.817 23.824-17.817 23.321 0 23.826 9.5809 23.826 17.817" fill="#eba8a3" stroke-width="1.6439"/>
 <ellipse cx="74.894" cy="41.264" rx="6.127" ry="6.5445" fill="#333" stroke-width="1.6439"/>
 <ellipse cx="39.548" cy="41.264" rx="6.127" ry="6.5445" fill="#333" stroke-width="1.6439"/>
 <path d="m51.567 70.164c-1.7475 3.7334-5.0601 5.8245-7.4076 4.6688-2.3443-1.159-2.8292-5.1308-1.0817-8.8691 1.7409-3.7367 5.0568-5.8278 7.401-4.6688 2.3459 1.159 2.8342 5.1275 1.0883 8.8691" fill="#333" stroke-width="1.6439"/>
 <path d="m62.893 70.161c1.7409 3.7367 5.0568 5.8278 7.401 4.6721 2.3476-1.1623 2.8325-5.1308 1.0866-8.8691-1.7442-3.7367-5.0584-5.8278-7.4043-4.6688-2.3443 1.159-2.8292 5.1275-1.0834 8.8658" fill="#333" stroke-width="1.6439"/>
</svg>
