<?xml version="1.0" encoding="UTF-8"?>
<svg version="1.1" viewBox="0 0 128 128" xmlns="http://www.w3.org/2000/svg" xmlns:cc="http://creativecommons.org/ns#" xmlns:dc="http://purl.org/dc/elements/1.1/" xmlns:rdf="http://www.w3.org/1999/02/22-rdf-syntax-ns#">
 <path d="m128 64c0 35.346-28.654 64-64 64s-64-28.654-64-64 28.654-64 64-64 64 28.654 64 64" fill="#9bbe55" stroke-width=".2"/>
 <path d="m78.474 87.469c-2.3068-3.6407-3.3198-7.3015-3.3198-7.3015s-1.013 3.6608-3.3198 7.3015c-2.8283 5.7068-7.3617 8.7057-7.3617 15.887 0 6.1682 4.5133 11.173 10.682 11.173 6.1682 0 10.682-5.0048 10.682-11.173-0.01003-7.1812-4.5334-10.19-7.3617-15.887z" fill-opacity=".2"/>
 <path d="m41.225 20.389c-1.5001 0-2.7448 1.0108-3.125 2.3867h-8.1504c-1.8033 0-3.2539 1.4506-3.2539 3.2539 0 1.8033 1.4506 3.2559 3.2539 3.2559h8.0195v5.6328h-9.248c-1.1228 0-2.0254 0.90453-2.0254 2.0273v2.457h-21.791c-2.6636 6.3917-4.3115 13.31-4.7637 20.553h26.555v2.457c0 1.1228 0.90258 2.0273 2.0254 2.0273h25.006c1.1228 0 2.0254-0.90453 2.0254-2.0273v-2.457h6.1367c1.1178 0.0022 2.0234 0.90956 2.0234 2.0273v17.369h20.551v-16.777c0-12.777-10.395-23.172-23.172-23.172h-5.5391v-2.457c0-1.1228-0.90258-2.0273-2.0254-2.0273h-9.248v-5.6328h8.0195c1.8033 0 3.2539-1.4525 3.2539-3.2559s-1.4506-3.2539-3.2539-3.2539h-8.1504c-0.3802-1.376-1.6229-2.3867-3.123-2.3867z" fill-opacity=".2"/>
 <g transform="matrix(1.2913 0 0 1.2913 -15.44 -7.0632)">
  <path transform="matrix(.77441 0 0 .77441 11.957 5.4698)" d="m6.0254 36.887c-2.9764 6.353-4.9516 13.269-5.6934 20.553h61.557c1.1178 0.002195 2.0234 0.90956 2.0234 2.0273v17.369h20.551v-16.777c0-12.777-10.395-23.172-23.172-23.172h-55.266z" fill="#777"/>
  <g transform="translate(10.629)" stroke-linecap="round" stroke-linejoin="round" stroke-width="2.3232">
   <rect transform="matrix(0,1,1,0,0,0)" x="19.311" y="30.732" width="22.503" height="5.0416" rx="2.5208" ry="2.5208" fill="#777"/>
   <rect transform="scale(-1,1)" x="-44.504" y="30.563" width="22.503" height="22.862" rx="1.5695" ry="1.5695" fill="#666"/>
   <rect transform="scale(-1,1)" x="-44.504" y="21.159" width="22.503" height="5.0416" rx="2.5208" ry="2.5208" fill="#666"/>
  </g>
 </g>
 <g transform="matrix(.63717 0 0 .63717 143.78 -47.916)" stroke-width="1.5694">
  <path d="m-102.5 209.34c-3.6204-5.7139-5.2102-11.459-5.2102-11.459s-1.5898 5.7454-5.2102 11.459c-4.4389 8.9566-11.554 13.663-11.554 24.934 0 9.6806 7.0834 17.535 16.764 17.535 9.6806 0 16.764-7.8547 16.764-17.535-0.01574-11.27-7.1149-15.993-11.554-24.934z" fill="#3581c8"/>
  <path d="m-102.5 209.34c-3.6204-5.7139-5.2102-11.459-5.2102-11.459s-9.6964 53.928 0 53.928c9.6806 0 16.764-7.8547 16.764-17.535-0.01574-11.27-7.1149-15.993-11.554-24.934z" fill="#529add"/>
  <path d="m-106.77 248.94c7.5871 0 13.128-6.1547 13.128-13.726 0-8.8149-20.715 13.726-13.128 13.726z" fill="#aecfde"/>
 </g>
</svg>
