<?xml version="1.0" encoding="UTF-8"?>
<svg version="1.1" viewBox="0 0 128 128" xmlns="http://www.w3.org/2000/svg">
 <path d="m128 64c0 35.346-28.654 64-64 64s-64-28.654-64-64 28.654-64 64-64 64 28.654 64 64" fill="#9bbe55" stroke-width=".2"/>
 <path d="m78.474 87.469c-2.3068-3.6407-3.3198-7.3015-3.3198-7.3015s-1.013 3.6608-3.3198 7.3015c-2.8283 5.7068-7.3617 8.7057-7.3617 15.887 0 6.1682 4.5133 11.173 10.682 11.173 6.1682 0 10.682-5.0048 10.682-11.173-0.01003-7.1812-4.5334-10.19-7.3617-15.887z" fill-opacity=".2"/>
 <path d="m41.225 20.389c-1.5001 0-2.7448 1.0108-3.125 2.3867h-8.1504c-1.8033 0-3.2539 1.4506-3.2539 3.2539s1.4506 3.2559 3.2539 3.2559h8.0195v5.6328h-9.248c-1.1228 0-2.0254 0.90453-2.0254 2.0273v2.457h-21.791c-2.6636 6.3917-4.3115 13.31-4.7637 20.553h26.555v2.457c0 1.1228 0.90258 2.0273 2.0254 2.0273h25.006c1.1228 0 2.0254-0.90453 2.0254-2.0273v-2.457h6.1367c1.1178 0.0022 2.0234 0.90956 2.0234 2.0273v17.369h20.551v-16.777c0-12.777-10.395-23.172-23.172-23.172h-5.5391v-2.457c0-1.1228-0.90258-2.0273-2.0254-2.0273h-9.248v-5.6328h8.0195c1.8033 0 3.2539-1.4525 3.2539-3.2559s-1.4506-3.2539-3.2539-3.2539h-8.1504c-0.3802-1.376-1.6229-2.3867-3.123-2.3867z" fill-opacity=".2"/>
 <path d="m6.0254 36.887c-2.9764 6.353-4.9516 13.269-5.6934 20.553h61.557c1.1178 0.0022 2.0234 0.90956 2.0234 2.0273v17.369h20.551v-16.777c0-12.777-10.395-23.172-23.172-23.172h-55.266z" fill="#777"/>
 <rect transform="matrix(0,1,1,0,0,0)" x="17.873" y="37.969" width="29.058" height="6.5102" rx="3.2551" ry="3.2551" fill="#777" stroke-linecap="round" stroke-linejoin="round" stroke-width="3"/>
 <rect transform="scale(-1,1)" x="-55.753" y="32.403" width="29.058" height="29.522" rx="2.0267" ry="2.0267" fill="#666" stroke-linecap="round" stroke-linejoin="round" stroke-width="3"/>
 <rect transform="scale(-1,1)" x="-55.753" y="20.259" width="29.058" height="6.5102" rx="3.2551" ry="3.2551" fill="#666" stroke-linecap="round" stroke-linejoin="round" stroke-width="3"/>
 <g stroke-width=".99998">
  <path d="m78.47 85.469c-2.3068-3.6407-3.3198-7.3013-3.3198-7.3013s-1.013 3.6608-3.3198 7.3013c-2.8283 5.7069-7.3619 8.7057-7.3619 15.887 0 6.1682 4.5133 11.173 10.682 11.173 6.1682 0 10.682-5.0048 10.682-11.173-0.01003-7.1809-4.5334-10.19-7.3619-15.887z" fill="#3581c8"/>
  <path d="m78.47 85.469c-2.3068-3.6407-3.3198-7.3013-3.3198-7.3013s-6.1783 34.361 0 34.361c6.1682 0 10.682-5.0048 10.682-11.173-0.01003-7.1809-4.5334-10.19-7.3619-15.887z" fill="#529add"/>
  <path d="m75.749 110.7c4.8343 0 8.3648-3.9216 8.3648-8.7458 0-5.6166-13.199 8.7458-8.3648 8.7458z" fill="#aecfde"/>
 </g>
</svg>
