<?xml version="1.0" encoding="UTF-8"?>
<svg version="1.1" viewBox="0 0 128 128" xmlns="http://www.w3.org/2000/svg">
 <path d="m119.42 95.995c-17.67 30.605-56.806 41.092-87.411 23.422-30.606-17.67-41.092-56.806-23.422-87.411 17.67-30.605 56.806-41.092 87.411-23.422 30.605 17.67 41.092 56.806 23.422 87.411" fill="#529add" stroke-width=".19997"/>
 <path d="m30.385 39.982c-0.87006 0-1.5778 0.35197-1.5778 0.78698v1.5759c0 0.41843 0.65999 0.75366 1.4842 0.77917l-2.7437 18.923h2.8374c0.86996 0 1.5759 0.70589 1.5759 1.5759v4.1829h-21.908c2.1559 7.4532 7.9987 15.997 7.9987 15.997 1.5887 2.4304 3.7348 4.874 5.21 6.2294 15.774 14.475 88.772 5.7686 88.772 5.7686s1.5766-5.331 3.0015-11.998c0 0 2.9995-10.998 2.9995-15.997h-19.878v-4.1829c0-0.87002 0.70588-1.5759 1.5759-1.5759h5.9892l-1.2595-6.3036h-50.437v-12.609c0.87006 0 1.5758-0.35392 1.5758-0.78893v-1.5759c0-0.43501-0.70578-0.78698-1.5758-0.78698z" fill-opacity=".2"/>
 <g transform="matrix(.99983 0 0 .99983 -1207.8 -399.96)">
  <path d="m1226 480c1.589 2.4308 3.7357 4.8747 5.2112 6.2304 15.776 14.478 88.788 5.7696 88.788 5.7696s1.5752-5.3319 3.0003-12z" fill="#dd2e44"/>
  <path transform="matrix(1.0002 0 0 1.0002 1208 400.03)" d="m49.279 23.525c-0.87006 0-1.5762 0.70615-1.5762 1.5762v12.609c0 0.3447 0.11283 0.6604 0.30078 0.91992h-3.4531v-7.2246c0-0.87003-0.70612-1.5762-1.5762-1.5762-0.87006 0-1.5762 0.70615-1.5762 1.5762v7.2246h-11.033l-2.8379 19.57h2.8379c0.86996 0 1.5762 0.70616 1.5762 1.5762v4.1816h-21.908c2.1559 7.4532 7.998 15.998 7.998 15.998h96.984s2.998-10.999 2.998-15.998h-19.875v-4.1816c0-0.87002 0.70612-1.5762 1.5762-1.5762h5.9883l-1.2598-6.3047h-50.436v-13.266h-3.4551c0.18795-0.25952 0.30274-0.57522 0.30274-0.91992v-12.609c0-0.87002-0.70612-1.5762-1.5762-1.5762z" fill="#ccd6dd"/>
  <path transform="matrix(1.0002 0 0 1.0002 1208 400.03)" d="m29.893 42.439-0.94531 6.3047h12.451v-6.3047zm14.658 0v6.3047h4.7285c0.87006 0 1.5762-0.70616 1.5762-1.5762v-3.1523c0-0.87003-0.70612-1.5762-1.5762-1.5762zm-7.8809 15.762c-0.87006 0-1.5762 0.70616-1.5762 1.5762v4.1816h15.762v-4.1816c0-0.87002-0.70612-1.5762-1.5762-1.5762zm22.064 0c-0.87006 0-1.5762 0.70616-1.5762 1.5762v4.1816h15.762v-4.1816c0-0.87002-0.70612-1.5762-1.5762-1.5762zm22.066 0c-0.87006 0-1.5762 0.70616-1.5762 1.5762v4.1816h15.762v-4.1816c0-0.87002-0.70612-1.5762-1.5762-1.5762zm-53.588 12.607c-0.86996 0-1.5762 0.70616-1.5762 1.5762v3.1523c0 0.87003 0.70622 1.5762 1.5762 1.5762h3.1523c0.87006 0 1.5762-0.70615 1.5762-1.5762v-3.1523c0-0.87002-0.70612-1.5762-1.5762-1.5762zm12.609 0c-0.86996 0-1.5762 0.70616-1.5762 1.5762v3.1523c0 0.87003 0.70622 1.5762 1.5762 1.5762h3.1523c0.87006 0 1.5762-0.70615 1.5762-1.5762v-3.1523c0-0.87002-0.70612-1.5762-1.5762-1.5762zm12.607 0c-0.86996 0-1.5742 0.70616-1.5742 1.5762v3.1523c0 0.87003 0.70426 1.5762 1.5742 1.5762h3.1523c0.87006 0 1.5762-0.70615 1.5762-1.5762v-3.1523c0-0.87002-0.70612-1.5762-1.5762-1.5762zm12.609 0c-0.86996 0-1.5762 0.70616-1.5762 1.5762v3.1523c0 0.87003 0.70622 1.5762 1.5762 1.5762h3.1523c0.87006 0 1.5762-0.70615 1.5762-1.5762v-3.1523c0-0.87002-0.70612-1.5762-1.5762-1.5762zm12.609 0c-0.86996 0-1.5762 0.70616-1.5762 1.5762v3.1523c0 0.87003 0.70621 1.5762 1.5762 1.5762h3.1523c0.87006 0 1.5762-0.70615 1.5762-1.5762v-3.1523c0-0.87002-0.70612-1.5762-1.5762-1.5762zm12.609 0c-0.86996 0-1.5762 0.70616-1.5762 1.5762v3.1523c0 0.87003 0.70622 1.5762 1.5762 1.5762h3.1523c0.87006 0 1.5762-0.70615 1.5762-1.5762v-3.1523c0-0.87002-0.70612-1.5762-1.5762-1.5762zm12.609 0c-0.86996 0-1.5762 0.70616-1.5762 1.5762v3.1523c0 0.87003 0.70621 1.5762 1.5762 1.5762h3.1523c0.87006 0 1.5762-0.70615 1.5762-1.5762v-3.1523c0-0.87002-0.70611-1.5762-1.5762-1.5762z" fill="#66757f"/>
  <path d="m1263.6 438.54c0 0.43508-0.7062 0.78819-1.5764 0.78819h-23.646c-0.8702 0-1.5764-0.35311-1.5764-0.78819v-1.5764c0-0.43508 0.7062-0.78819 1.5764-0.78819h23.646c0.8702 0 1.5764 0.35311 1.5764 0.78819z" fill="#269"/>
 </g>
 <path d="m4.5084 88.382c5.1564 12.794 14.453 24.03 27.326 31.462 7.7605 4.4805 16.069 7.1425 24.437 8.1334h15.076c19.348-2.3041 37.407-13.383 47.898-31.555 1.514-2.6222 2.8059-5.3111 3.9116-8.0397-10.013-1.9688-19.727-1.5772-29.662 0-10.141 1.6099-21.61 2.168-29.662 0-17.974-4.8393-22.901 1.942-29.662 0-5.6582-1.6251-14.599-9.3239-17.139-0.42697z" fill="#3e74c9" stroke-width=".19997"/>
 <path d="m21.736 88.087c-1.0379 0.0297-1.9741 0.34965-2.7593 1.074 1.4797 2.0743 3.225 4.0505 4.4935 5.2159 15.774 14.475 88.772 5.7686 88.772 5.7686s1.0547-3.6261 2.2164-8.5611c-6.9288-0.46511-13.788 0.03639-20.754 1.1424-10.141 1.6099-21.611 2.168-29.663 0-17.974-4.8393-22.9 1.942-29.661 0-3.7132-1.0665-8.8405-4.7488-12.644-4.6399z" fill-opacity=".13333"/>
</svg>
