<?xml version="1.0" encoding="UTF-8"?>
<svg version="1.1" viewBox="0 0 128.02 128.02" xmlns="http://www.w3.org/2000/svg">
 <defs>
  <clipPath id="clipPath938">
   <path d="m135.43 24.233c-17.159 29.721-55.163 39.904-84.883 22.745-29.721-17.159-39.904-55.163-22.745-84.883 17.159-29.721 55.163-39.904 84.883-22.745 29.721 17.159 39.904 55.163 22.745 84.883" fill="#fd5" stroke-width=".19418"/>
  </clipPath>
  <clipPath id="clipPath1718">
   <path d="m93.623 62.783c-9.9382 17.214-31.949 23.111-49.163 13.173-17.214-9.9382-23.111-31.949-13.173-49.163 9.9382-17.214 31.949-23.111 49.163-13.173 17.214 9.9382 23.111 31.949 13.173 49.163" fill="#fd5" stroke-width=".11247"/>
  </clipPath>
  <clipPath id="clipPath1925">
   <path d="m119.44 96.011c-17.673 30.611-56.815 41.099-87.426 23.426s-41.099-56.815-23.426-87.426 56.815-41.099 87.426-23.426 41.099 56.815 23.426 87.426" fill="#fd5" stroke-width=".2"/>
  </clipPath>
 </defs>
 <path d="m119.44 96.011c-17.673 30.611-56.815 41.099-87.426 23.426s-41.099-56.815-23.426-87.426 56.815-41.099 87.426-23.426 41.099 56.815 23.426 87.426" fill="#fd5" stroke-width=".2"/>
 <path d="m119.44 96.011c-17.673 30.611-56.815 41.099-87.426 23.426s-41.099-56.815-23.426-87.426 56.815-41.099 87.426-23.426 41.099 56.815 23.426 87.426" fill="#fd5" stroke-width=".2"/>
 <path d="m82.265-7.0446c-10.524 0-19.057 8.5325-19.057 19.057 0 10.524 8.5325 19.055 19.057 19.055 10.524 0 19.057-8.5305 19.057-19.055 0-10.524-8.5325-19.057-19.057-19.057zm13.596 38.969c-1.8418-0.0049-3.3242 1.4825-3.3242 3.3242v1.8242a9.9551 9.9551 0 0 0-3.2305-0.60156 9.9551 9.9551 0 0 0-6.6387 2.3887c-10.864 9.2856-16.742 19.261-25.924 27.738l-12.289-12.166-5.8848 5.9453c-5.5754-5.9031-10.019-9.1113-14.697-10.732-5.2523-1.8201-10.296-1.5774-17.039-1.6738l-0.082031 5.7363c6.883 0.09839 11.259-0.02348 15.244 1.3574 3.5762 1.2393 7.2651 3.7844 12.535 9.3926l-11.6 11.719 5.4355 5.3809 4.0352-0.01953 0.15234 10.83 0.625 1.0801 13.561 8.043 1.5566-0.20117 7.7754-7.8535 2.1094 1.4902 5.0898-5.1426c0.60873 0.88984 1.322 2.0436 2.0391 3.3535 0.65849 1.2029 1.3534 2.5572 2.0606 3.9844-9.8846 15.935-13.956 31.925-16.994 48.9a9.9541 9.9541 0 0 0 8.043 11.557 9.9541 9.9541 0 0 0 11.551-8.0469c2.0013-11.182 4.2369-20.645 8.0879-29.689 2.0702 3.4108 4.5421 5.5528 7.2949 6.5352 0.94949 0.33884 1.9183 0.52699 2.8965 0.61132 4.2851 9.6031 10.859 19.103 21.389 28.291a9.9541 9.9541 0 0 0 14.045-0.95703 9.9541 9.9541 0 0 0-0.95703-14.045c-8.0537-7.0269-13.171-13.49-16.512-20.035 2.0059-1.2612 3.9801-2.5466 5.8984-3.7168l2e-3 -2e-3c0.71163-0.43433 4.9324-2.739 10.826-5.084s13.563-4.7914 21.486-5.752c5.0677-0.5002 8.6418-2.0288 11.133-4.3516 2.4969-2.3283 3.8293-5.3408 4.7774-8.5488 1.8961-6.416 2.4405-13.769 6.8144-20.174l-2.4961-1.7051c-4.9056 7.1833-5.4676 15.096-7.2188 21.021-0.87555 2.9627-2.0023 5.3889-3.9394 7.1953-1.9372 1.8064-4.7618 3.1041-9.3984 3.5566l-0.0352 4e-3c-8.2982 1.006-16.184 3.5328-22.242 5.9434s-10.186 4.645-11.283 5.3144c-1.8643 1.1372-3.7522 2.3359-5.6367 3.5156-2.6105-6.0062-3.865-12.17-4.6562-18.951h33.801l-3.3242-6.6484h-3.3281v-29.92h1.7793c1.8418-1e-6 3.3242-1.4825 3.3242-3.3242v-23.271c1e-5 -1.8418-1.4825-3.3209-3.3242-3.3262zm-17.113 41.271c-0.43376 3.6205-0.97681 7.1888-1.5781 10.516-2.9576 3.4955-5.5735 6.9814-7.8965 10.467-0.44391-0.86842-0.88242-1.7101-1.3105-2.4922-0.89007-1.626-1.685-3.0116-2.4902-4.125l6.1621-6.2246-0.50586-0.5c2.8209-2.5442 5.3269-5.1138 7.6191-7.6406zm-41.551 8.3164a9.9541 9.9541 0 0 0 0.05469 8.6113 9.9541 9.9541 0 0 0 13.314 4.584c0.44399-0.21661 0.87475-0.43807 1.3086-0.6582l-4.6894 4.7402-12.092-7.1719-0.14062-10.094zm45.611 28.832c1.0096 4.4486 2.3181 8.9001 4.0605 13.336-0.16677-0.0479-0.33406-0.0919-0.49804-0.15039-2.1221-0.75733-4.1471-2.4386-6.0332-5.75-0.18406-0.33571-0.46569-0.93473-0.70313-1.416 0.96506-2.0142 2.0109-4.0162 3.1738-6.0195z" clip-path="url(#clipPath1925)" color="#000000" color-rendering="auto" dominant-baseline="auto" fill="#666" fill-opacity=".31322" image-rendering="auto" shape-rendering="auto" solid-color="#000000" stop-color="#000000" style="font-feature-settings:normal;font-variant-alternates:normal;font-variant-caps:normal;font-variant-east-asian:normal;font-variant-ligatures:normal;font-variant-numeric:normal;font-variant-position:normal;font-variation-settings:normal;inline-size:0;isolation:auto;mix-blend-mode:normal;paint-order:normal;shape-margin:0;shape-padding:0;text-decoration-color:#000000;text-decoration-line:none;text-decoration-style:solid;text-indent:0;text-orientation:mixed;text-transform:none;white-space:normal"/>
 <g transform="matrix(1.03 0 0 1.03 -20.05 71.052)" clip-path="url(#clipPath938)" stroke-width=".80695">
  <path d="m112.71-40.925c-1.7882-0.0048-3.2278 1.4396-3.2278 3.2278v22.595c0 1.7882 1.4428 3.1226 3.2278 3.2278l1.5661 0.09231v32.278l29.05 2e-6v-32.278l1.7264 2e-6c1.7882-1e-6 3.2278-1.4396 3.2278-3.2278v-22.595c1e-5 -1.7882-1.4396-3.2227-3.2278-3.2278z" clip-path="none" fill="#41a94c" style="paint-order:normal"/>
  <path d="m111.05 17.268h35.506l3.2278 6.4556h-41.961z" clip-path="none" fill="#666" style="paint-order:normal"/>
  <path d="m117.5-35.99h22.595c1.7882 0 3.2278 1.4396 3.2278 3.2278v12.911c0 1.7882-1.4396 3.2278-3.2278 3.2278h-22.595c-1.7882 0-3.2278-1.4396-3.2278-3.2278v-12.911c0-1.7882 1.4396-3.2278 3.2278-3.2278z" clip-path="none" fill="#fff" style="paint-order:normal"/>
  <path d="m120.73-31.149h16.139v3.2278h-16.139z" clip-path="none" fill="#999" style="paint-order:normal"/>
  <path d="m120.73-24.693h16.139v3.2278h-16.139z" clip-path="none" fill="#999" style="paint-order:normal"/>
 </g>
 <g transform="matrix(1.7783 0 0 1.7783 -47.049 -15.636)" clip-path="url(#clipPath1718)">
  <path d="m119.85 47.447c-5.2182 7.641-1.2431 17.167-12.179 18.234-9.1218 1.1059-17.495 5.591-18.512 6.2117-6.4079 3.9087-13.64 9.8036-18.167 1.8491-1.7139-3.1224-6.8181-15.948-9.1179-17.816" fill="none" stroke="#666" stroke-width="1.7004"/>
  <g transform="matrix(1.9903 -.96809 .96809 1.9903 -115.72 4.9383)">
   <g fill="none">
    <path d="m59.008 48.027c-1.3401-4.7366-2.6339-5.1048-5.7255-6.6636" stroke="#ccc" stroke-linejoin="round" stroke-width="1.4575"/>
    <path d="m56.321 50.709-1.4747 3.1436 2.2047 3.3449 2.7502-0.96602" stroke="#555" stroke-linejoin="bevel" stroke-width=".64783"/>
    <path d="m59.008 48.027c-1.3401-4.7366-2.6339-5.1048-5.7255-6.6636" stroke="#aaa" stroke-linejoin="round" stroke-width=".64783"/>
   </g>
   <path d="m61.488 46.37-7.334 2.5761 0.64399 1.8335 2.4775 1.1895 2.8488 5.1785 4.5837-1.61z" fill="#41a94c" fill-rule="evenodd" stroke-width=".48582"/>
  </g>
  <g transform="matrix(1.3053 0 0 1.3053 -53.386 -24.749)" fill="#fff" shape-rendering="auto">
   <path d="m103.24 51.08-6.7109 7.0996c-9.079 9.6065-11.76 18.955-13.58 29.125a4.2884 4.2884 0 0 0 3.4648 4.9785 4.2884 4.2884 0 0 0 4.9766-3.4668c1.1672-6.5213 2.5151-11.687 5.5312-16.883 1.4868 6.5515 4.4107 13.123 11.559 19.359a4.2884 4.2884 0 0 0 6.0508-0.41211 4.2884 4.2884 0 0 0-0.41211-6.0508c-9.1585-7.9909-9.5145-14.293-10.195-24.004z" color="#000000" color-rendering="auto" dominant-baseline="auto" image-rendering="auto" solid-color="#000000" stop-color="#000000" style="font-feature-settings:normal;font-variant-alternates:normal;font-variant-caps:normal;font-variant-east-asian:normal;font-variant-ligatures:normal;font-variant-numeric:normal;font-variant-position:normal;font-variation-settings:normal;inline-size:0;isolation:auto;mix-blend-mode:normal;paint-order:stroke fill markers;shape-margin:0;shape-padding:0;text-decoration-color:#000000;text-decoration-line:none;text-decoration-style:solid;text-indent:0;text-orientation:mixed;text-transform:none;white-space:normal"/>
   <path d="m104.17 43.203-9.0469 2.3867c0.96047 3.6419 0.23579 10.264-0.70508 15.311l9.1973 1.7148c0.99737-5.3495 2.336-12.658 0.55469-19.412z" color="#000000" color-rendering="auto" dominant-baseline="auto" image-rendering="auto" solid-color="#000000" stop-color="#000000" style="font-feature-settings:normal;font-variant-alternates:normal;font-variant-caps:normal;font-variant-east-asian:normal;font-variant-ligatures:normal;font-variant-numeric:normal;font-variant-position:normal;font-variation-settings:normal;inline-size:0;isolation:auto;mix-blend-mode:normal;paint-order:stroke fill markers;shape-margin:0;shape-padding:0;text-decoration-color:#000000;text-decoration-line:none;text-decoration-style:solid;text-indent:0;text-orientation:mixed;text-transform:none;white-space:normal"/>
   <path d="m99.721 40.107a4.2889 4.2889 0 0 0-2.8594 1.0293c-6.7584 5.7767-9.0326 12.176-17.592 16.352a4.2884 4.2884 0 0 0-1.9746 5.7344 4.2884 4.2884 0 0 0 5.7363 1.9746c9.4899-4.6299 13.544-11.167 17.475-15.492 4.4548 2.5652 5.9209 5.9851 5.875 11.113a4.2884 4.2884 0 0 0 4.25 4.3262 4.2884 4.2884 0 0 0 4.3281-4.25c0.0762-8.5161-4.3792-16.722-13.711-20.477a4.2889 4.2889 0 0 0-1.5273-0.31055z" color="#000000" color-rendering="auto" dominant-baseline="auto" image-rendering="auto" solid-color="#000000" stop-color="#000000" style="font-feature-settings:normal;font-variant-alternates:normal;font-variant-caps:normal;font-variant-east-asian:normal;font-variant-ligatures:normal;font-variant-numeric:normal;font-variant-position:normal;font-variation-settings:normal;inline-size:0;isolation:auto;mix-blend-mode:normal;paint-order:stroke fill markers;shape-margin:0;shape-padding:0;text-decoration-color:#000000;text-decoration-line:none;text-decoration-style:solid;text-indent:0;text-orientation:mixed;text-transform:none;white-space:normal"/>
   <path d="m88.478 29.57c0 4.534 3.6756 8.2096 8.2096 8.2096s8.2096-3.6756 8.2096-8.2096-3.6756-8.2096-8.2096-8.2096-8.2096 3.6756-8.2096 8.2096" color="#000000" color-rendering="auto" dominant-baseline="auto" image-rendering="auto" solid-color="#000000" stop-color="#000000" style="font-feature-settings:normal;font-variant-alternates:normal;font-variant-caps:normal;font-variant-east-asian:normal;font-variant-ligatures:normal;font-variant-numeric:normal;font-variant-position:normal;font-variation-settings:normal;inline-size:0;isolation:auto;mix-blend-mode:normal;paint-order:normal;shape-margin:0;shape-padding:0;text-decoration-color:#000000;text-decoration-line:none;text-decoration-style:solid;text-indent:0;text-orientation:mixed;text-transform:none;white-space:normal"/>
  </g>
 </g>
</svg>
