<?xml version="1.0" encoding="UTF-8"?>
<svg version="1.1" viewBox="0 0 128.02 128.02" xmlns="http://www.w3.org/2000/svg">
 <path d="m119.44 96.011c-17.673 30.611-56.815 41.099-87.426 23.426-30.611-17.673-41.099-56.815-23.426-87.426 17.673-30.611 56.815-41.099 87.426-23.426 30.611 17.673 41.099 56.815 23.426 87.426" fill="#fd5" stroke-width=".2"/>
 <path d="m34.093 27.855c-2.216-6e-3 -4 1.784-4 4v28c-4e-6 2.216 1.7879 3.8696 4 4l1.9414 0.11523 3e-6 36-4-4e-6 -4 8 52 1e-5 -4-8-4 1e-6 1e-6 -25c3.125 8e-6 3.9752 0.85213 5.0254 2.7988 1.0502 1.9467 1.6826 5.2152 2.3555 8.7598 0.67279 3.5445 1.3984 7.4063 3.6054 10.727 2.207 3.3203 6.2356 5.7148 11.645 5.7148 2.6391 0 4.8339-0.38288 6.6777-1.3789 1.8438-0.99602 3.1802-2.7211 3.7539-4.5293 1.1473-3.6163 0.15921-7.2402-0.86329-11.045-1.0225-3.8047-2.2988-7.7997-2.8242-11.422-0.4883-3.3664-0.3148-6.2302 0.8926-8.5215l2.2168 0.59375 5.1777-19.318-2.7754-0.74414c1.2651-4.1742 1.6216-7.2806 1.0899-10.123-0.5991-3.2023-2.1303-5.5675-3.8164-8.623l-5.2539 2.8984c1.7568 3.1838 2.8327 5.0048 3.1738 6.8281 0.3074 1.6433 0.1617 3.7192-0.9942 7.4648l-6.8789-1.8438-1.0351 3.8652 0.3886 0.67382-4.8886 2.8809-0.98459 1.6894-0.1387 8.2441 1.4805 1.9668 5.7969 1.5508-1e-6 2e-3 1.5488 0.41406c-1.4638 3.5267-1.462 7.3599-0.9395 10.963 0.6287 4.3345 2.0031 8.5329 2.9668 12.119 0.9638 3.5863 1.2976 6.5494 0.9414 7.6719-0.178 0.56124-0.2979 0.74537-0.8886 1.0645-0.5907 0.31908-1.8078 0.6582-3.8262 0.6582-3.906 3e-6 -5.3618-1.1074-6.6445-3.0371-1.2827-1.9297-2.0531-5.068-2.709-8.5234-0.6559-3.4555-1.1867-7.185-2.9688-10.488-1.782-3.3033-5.4316-5.9512-10.307-5.9512v-5h2.1387c2.216 1.2e-5 4-1.784 4-4v-28c0-2.216-1.784-3.9937-4-4zm61.502 23.354 0.4395 0.76171-0.7832 8.0723-3.6426-0.97656 0.0938-5.5625z" fill-opacity=".2" style="paint-order:normal"/>
 <path d="m103.56 43.283c3.2245-9.6055 1.4535-11.734-1.9895-17.974" fill="none" stroke="#ccc" stroke-linejoin="round" stroke-width="3"/>
 <path d="m34.093 23.855c-2.216-6e-3 -4 1.784-4 4l-1e-6 28c-4e-6 2.216 1.7879 3.8696 4 4l1.9408 0.1144 3e-6 40 36 2e-6v-40l2.1394 3e-6c2.216-2e-6 4-1.784 4-4v-28c5e-6 -2.216-1.784-3.9937-4-4z" fill="#41a94c" style="paint-order:normal"/>
 <path d="m72.034 67.97c16 1e-6 4 28 22.63 28 18.63-1e-6 -2.63-23.128 5.37-36" fill="none" stroke="#666" stroke-width="6"/>
 <path d="m95.878 44.72-6.1574 3.6292-0.13869 8.245 5.7956 1.5529" fill="none" stroke="#555" stroke-linejoin="bevel" stroke-width="4"/>
 <path d="m103.56 43.283c3.2244-9.6056 1.4535-11.734-1.9895-17.974" fill="none" stroke="#aaa" stroke-linejoin="round" stroke-width="6"/>
 <path d="m109.7 43.348-15.455-4.1411-1.0353 3.8637 2.8284 4.899-1.174 12.109 9.6593 2.5882z" fill="#41a94c" fill-rule="evenodd"/>
 <path d="m32.034 95.97h44l4 8h-52z" fill="#666" style="paint-order:normal"/>
 <path d="m40.034 29.97h28c2.216 0 4 1.784 4 4v16c0 2.216-1.784 4-4 4h-28c-2.216 0-4-1.784-4-4v-16c0-2.216 1.784-4 4-4z" fill="#fff" style="paint-order:normal"/>
 <path d="m44.034 35.97h20v4h-20z" fill="#999" style="paint-order:normal"/>
 <path d="m44.034 43.97h20v4h-20z" fill="#999" style="paint-order:normal"/>
</svg>
