<?xml version="1.0" encoding="UTF-8"?>
<svg version="1.1" viewBox="0 0 128.02 128.02" xmlns="http://www.w3.org/2000/svg">
 <defs>
  <clipPath id="clipPath950">
   <path d="m68.706 61.002c-7.0137 12.148-22.547 16.31-34.696 9.2968-12.148-7.0137-16.31-22.547-9.2968-34.696 7.0137-12.148 22.547-16.31 34.696-9.2968s16.31 22.547 9.2968 34.696" fill="#fd5" stroke-width=".079371"/>
  </clipPath>
  <clipPath id="clipPath991">
   <path d="m68.989 59.974c-7.0137 12.148-22.547 16.31-34.696 9.2968s-16.31-22.547-9.2968-34.696 22.547-16.31 34.696-9.2968c12.148 7.0137 16.31 22.547 9.2968 34.696" fill="#fd5" stroke-width=".079371"/>
  </clipPath>
 </defs>
 <path d="m119.44 96.011c-17.673 30.611-56.815 41.099-87.426 23.426s-41.099-56.815-23.426-87.426 56.815-41.099 87.426-23.426 41.099 56.815 23.426 87.426" fill="#fd5" stroke-width=".2"/>
 <path d="m119.44 96.011c-17.673 30.611-56.815 41.099-87.426 23.426s-41.099-56.815-23.426-87.426 56.815-41.099 87.426-23.426 41.099 56.815 23.426 87.426" fill="#fd5" stroke-width=".2"/>
 <g transform="matrix(2.5198 0 0 2.5198 -54.399 -55.112)" clip-path="url(#clipPath991)" fill="#999" opacity=".74329">
  <path d="m117.78 47.998c-2.7586 4.0394-3.0739 8.4883-4.0586 11.82-0.49236 1.666-1.1255 3.0311-2.2148 4.0469-1.0894 1.0157-2.6778 1.7456-5.2852 2h-0.01l-0.0117 2e-3c-4.6664 0.56574-9.0989 1.9863-12.506 3.3418-3.407 1.3555-5.7288 2.6118-6.3457 2.9883-3.2448 1.9792-6.6394 4.3844-9.5938 5.2852-1.4772 0.45039-2.8038 0.53166-3.998 0.10547-1.1936-0.42597-2.3298-1.3714-3.3906-3.2344-5.36e-4 -9.4e-4 -0.0014-1e-3 -2e-3 -2e-3 -0.79337-1.4476-2.5256-5.475-4.3086-9.3164-0.89262-1.9232-1.8051-3.8113-2.6504-5.3555-0.84526-1.5441-1.5382-2.7127-2.3633-3.3828l-1.0723 1.3184c0.32484 0.26385 1.1332 1.3972 1.9453 2.8809 0.81215 1.4836 1.7145 3.3488 2.5996 5.2559 1.7703 3.8141 3.4433 7.7501 4.3652 9.4297l2e-3 0.0059 0.0039 0.0059c1.2022 2.1124 2.6655 3.4125 4.3008 3.9961s3.3668 0.43753 5.0645-0.08008c3.3954-1.0352 6.8193-3.5315 9.9824-5.4609 0.40014-0.24421 2.7755-1.5407 6.0898-2.8594s7.6266-2.6942 12.082-3.2344l-0.0195 2e-3c2.8606-0.27911 4.8752-1.14 6.2793-2.4492s2.1544-3.0027 2.6875-4.8066c1.0662-3.6079 1.3724-7.7422 3.832-11.344z" color="#000000" style="-inkscape-stroke:none"/>
  <g transform="matrix(1.9903 -.96809 .96809 1.9903 -117.08 5.9684)">
   <path d="m53.611 40.713-0.65625 1.3008c1.5617 0.78741 2.575 1.2455 3.332 2.0039 0.75703 0.75838 1.3649 1.8931 2.0195 4.207l1.4023-0.39648c-0.68543-2.4227-1.3928-3.8403-2.3906-4.8398-0.99779-0.99957-2.1771-1.504-3.707-2.2754z" color="#000000" stroke-linejoin="round" style="-inkscape-stroke:none"/>
   <path d="m56.027 50.572-1.4746 3.1426 0.02344 0.31641 2.2051 3.3438 0.37695 0.12891 2.75-0.9668-0.21484-0.61133-2.5117 0.88281-1.9648-2.9824 1.3965-2.9805z" color="#000000" stroke-linejoin="bevel" style="-inkscape-stroke:none"/>
   <path d="m53.428 41.074-0.29102 0.57812c1.5529 0.78296 2.6116 1.2547 3.4355 2.0801 0.8239 0.82537 1.4618 2.0387 2.125 4.3828l0.62305-0.17578c-0.67688-2.3925-1.3581-3.7315-2.2891-4.6641-0.93092-0.93258-2.0648-1.4253-3.6035-2.2012z" color="#000000" stroke-linejoin="round" style="-inkscape-stroke:none"/>
   <path d="m53.611 40.713-0.65625 1.3008c1.5617 0.78741 2.575 1.2455 3.332 2.0039 0.75703 0.75838 1.3649 1.8931 2.0195 4.207l1.4023-0.39648c-0.68543-2.4227-1.3928-3.8403-2.3906-4.8398-0.99779-0.99957-2.1771-1.504-3.707-2.2754z" color="#000000" stroke-linejoin="round" style="-inkscape-stroke:none"/>
   <path d="m56.027 50.572-1.4746 3.1426 0.02344 0.31641 2.2051 3.3438 0.37695 0.12891 2.75-0.9668-0.21484-0.61133-2.5117 0.88281-1.9648-2.9824 1.3965-2.9805z" color="#000000" stroke-linejoin="bevel" style="-inkscape-stroke:none"/>
   <path d="m53.428 41.074-0.29102 0.57812c1.5529 0.78296 2.6116 1.2547 3.4355 2.0801 0.8239 0.82537 1.4618 2.0387 2.125 4.3828l0.62305-0.17578c-0.67688-2.3925-1.3581-3.7315-2.2891-4.6641-0.93092-0.93258-2.0648-1.4253-3.6035-2.2012z" color="#000000" stroke-linejoin="round" style="-inkscape-stroke:none"/>
   <path d="m61.488 46.37-7.334 2.5761 0.64399 1.8335 2.4775 1.1895 2.8488 5.1785 4.5837-1.61z" fill-rule="evenodd" stroke-width=".48582"/>
   <path d="m61.488 46.37-7.334 2.5761 0.64399 1.8335 2.4775 1.1895 2.8488 5.1785 4.5837-1.61z" fill-rule="evenodd" stroke-width=".48582"/>
  </g>
  <g transform="matrix(1.3053,0,0,1.3053,-53.386,-24.749)" shape-rendering="auto">
   <path d="m99.721 40.107a4.2889 4.2889 0 0 0-2.8594 1.0293c-6.7584 5.7767-9.0326 12.176-17.592 16.352a4.2884 4.2884 0 0 0-1.9746 5.7344 4.2884 4.2884 0 0 0 5.7363 1.9746c9.4899-4.6299 13.544-11.167 17.475-15.492 4.4548 2.5652 5.9209 5.9851 5.875 11.113a4.2884 4.2884 0 0 0 4.25 4.3262 4.2884 4.2884 0 0 0 4.3281-4.25c0.0762-8.5161-4.3792-16.722-13.711-20.477a4.2889 4.2889 0 0 0-1.5273-0.31055z" color="#000000" color-rendering="auto" dominant-baseline="auto" fill="#999" image-rendering="auto" solid-color="#000000" stop-color="#000000" style="font-feature-settings:normal;font-variant-alternates:normal;font-variant-caps:normal;font-variant-east-asian:normal;font-variant-ligatures:normal;font-variant-numeric:normal;font-variant-position:normal;font-variation-settings:normal;inline-size:0;isolation:auto;mix-blend-mode:normal;paint-order:stroke fill markers;shape-margin:0;shape-padding:0;text-decoration-color:#000000;text-decoration-line:none;text-decoration-style:solid;text-indent:0;text-orientation:mixed;text-transform:none;white-space:normal"/>
  </g>
 </g>
 <g transform="matrix(2.5198 0 0 2.5198 -53.686 -57.703)" clip-path="url(#clipPath950)">
  <path d="m117.78 47.998c-2.7586 4.0394-3.0739 8.4883-4.0586 11.82-0.49236 1.666-1.1255 3.0311-2.2148 4.0469-1.0894 1.0157-2.6778 1.7456-5.2852 2h-0.01l-0.0117 2e-3c-4.6664 0.56574-9.0989 1.9863-12.506 3.3418-3.407 1.3555-5.7288 2.6118-6.3457 2.9883-3.2448 1.9792-6.6394 4.3844-9.5938 5.2852-1.4772 0.45039-2.8038 0.53166-3.998 0.10547-1.1936-0.42597-2.3298-1.3714-3.3906-3.2344-5.36e-4 -9.4e-4 -0.0014-1e-3 -2e-3 -2e-3 -0.79337-1.4476-2.5256-5.475-4.3086-9.3164-0.89262-1.9232-1.8051-3.8113-2.6504-5.3555-0.84526-1.5441-1.5382-2.7127-2.3633-3.3828l-1.0723 1.3184c0.32484 0.26385 1.1332 1.3972 1.9453 2.8809 0.81215 1.4836 1.7145 3.3488 2.5996 5.2559 1.7703 3.8141 3.4433 7.7501 4.3652 9.4297l2e-3 0.0059 0.0039 0.0059c1.2022 2.1124 2.6655 3.4125 4.3008 3.9961s3.3668 0.43753 5.0645-0.08008c3.3954-1.0352 6.8193-3.5315 9.9824-5.4609 0.40014-0.24421 2.7755-1.5407 6.0898-2.8594s7.6266-2.6942 12.082-3.2344l-0.0195 2e-3c2.8606-0.27911 4.8752-1.14 6.2793-2.4492s2.1544-3.0027 2.6875-4.8066c1.0662-3.6079 1.3724-7.7422 3.832-11.344z" color="#000000" fill="#666" style="-inkscape-stroke:none"/>
  <g transform="matrix(1.9903 -.96809 .96809 1.9903 -117.08 5.9684)">
   <path d="m53.611 40.713-0.65625 1.3008c1.5617 0.78741 2.575 1.2455 3.332 2.0039 0.75703 0.75838 1.3649 1.8931 2.0195 4.207l1.4023-0.39648c-0.68543-2.4227-1.3928-3.8403-2.3906-4.8398-0.99779-0.99957-2.1771-1.504-3.707-2.2754z" color="#000000" fill="#ccc" stroke-linejoin="round" style="-inkscape-stroke:none"/>
   <path d="m56.027 50.572-1.4746 3.1426 0.02344 0.31641 2.2051 3.3438 0.37695 0.12891 2.75-0.9668-0.21484-0.61133-2.5117 0.88281-1.9648-2.9824 1.3965-2.9805z" color="#000000" fill="#555" stroke-linejoin="bevel" style="-inkscape-stroke:none"/>
   <path d="m53.428 41.074-0.29102 0.57812c1.5529 0.78296 2.6116 1.2547 3.4355 2.0801 0.8239 0.82537 1.4618 2.0387 2.125 4.3828l0.62305-0.17578c-0.67688-2.3925-1.3581-3.7315-2.2891-4.6641-0.93092-0.93258-2.0648-1.4253-3.6035-2.2012z" color="#000000" fill="#aaa" stroke-linejoin="round" style="-inkscape-stroke:none"/>
   <path d="m53.611 40.713-0.65625 1.3008c1.5617 0.78741 2.575 1.2455 3.332 2.0039 0.75703 0.75838 1.3649 1.8931 2.0195 4.207l1.4023-0.39648c-0.68543-2.4227-1.3928-3.8403-2.3906-4.8398-0.99779-0.99957-2.1771-1.504-3.707-2.2754z" color="#000000" fill="#ccc" stroke-linejoin="round" style="-inkscape-stroke:none"/>
   <path d="m56.027 50.572-1.4746 3.1426 0.02344 0.31641 2.2051 3.3438 0.37695 0.12891 2.75-0.9668-0.21484-0.61133-2.5117 0.88281-1.9648-2.9824 1.3965-2.9805z" color="#000000" fill="#555" stroke-linejoin="bevel" style="-inkscape-stroke:none"/>
   <path d="m53.428 41.074-0.29102 0.57812c1.5529 0.78296 2.6116 1.2547 3.4355 2.0801 0.8239 0.82537 1.4618 2.0387 2.125 4.3828l0.62305-0.17578c-0.67688-2.3925-1.3581-3.7315-2.2891-4.6641-0.93092-0.93258-2.0648-1.4253-3.6035-2.2012z" color="#000000" fill="#aaa" stroke-linejoin="round" style="-inkscape-stroke:none"/>
   <path d="m61.488 46.37-7.334 2.5761 0.64399 1.8335 2.4775 1.1895 2.8488 5.1785 4.5837-1.61z" fill="#41a94c" fill-rule="evenodd" stroke-width=".48582"/>
   <path d="m61.488 46.37-7.334 2.5761 0.64399 1.8335 2.4775 1.1895 2.8488 5.1785 4.5837-1.61z" fill="#41a94c" fill-rule="evenodd" stroke-width=".48582"/>
  </g>
  <g transform="matrix(1.3053,0,0,1.3053,-53.386,-24.749)" fill="#fff" shape-rendering="auto">
   <path d="m99.721 40.107a4.2889 4.2889 0 0 0-2.8594 1.0293c-6.7584 5.7767-9.0326 12.176-17.592 16.352a4.2884 4.2884 0 0 0-1.9746 5.7344 4.2884 4.2884 0 0 0 5.7363 1.9746c9.4899-4.6299 13.544-11.167 17.475-15.492 4.4548 2.5652 5.9209 5.9851 5.875 11.113a4.2884 4.2884 0 0 0 4.25 4.3262 4.2884 4.2884 0 0 0 4.3281-4.25c0.0762-8.5161-4.3792-16.722-13.711-20.477a4.2889 4.2889 0 0 0-1.5273-0.31055z" color="#000000" color-rendering="auto" dominant-baseline="auto" image-rendering="auto" solid-color="#000000" stop-color="#000000" style="font-feature-settings:normal;font-variant-alternates:normal;font-variant-caps:normal;font-variant-east-asian:normal;font-variant-ligatures:normal;font-variant-numeric:normal;font-variant-position:normal;font-variation-settings:normal;inline-size:0;isolation:auto;mix-blend-mode:normal;paint-order:stroke fill markers;shape-margin:0;shape-padding:0;text-decoration-color:#000000;text-decoration-line:none;text-decoration-style:solid;text-indent:0;text-orientation:mixed;text-transform:none;white-space:normal"/>
  </g>
 </g>
</svg>
