<?xml version="1.0" encoding="UTF-8"?>
<svg version="1.1" viewBox="0 0 128.02 128.02" xmlns="http://www.w3.org/2000/svg" xmlns:cc="http://creativecommons.org/ns#" xmlns:dc="http://purl.org/dc/elements/1.1/" xmlns:rdf="http://www.w3.org/1999/02/22-rdf-syntax-ns#">
 <metadata>
  <rdf:RDF>
   <cc:Work rdf:about="">
    <dc:format>image/svg+xml</dc:format>
    <dc:type rdf:resource="http://purl.org/dc/dcmitype/StillImage"/>
    <dc:title/>
   </cc:Work>
  </rdf:RDF>
 </metadata>
 <defs>
  <mask id="mask2680" maskUnits="userSpaceOnUse">
   <path d="m119.44 96.011c-17.673 30.611-56.815 41.099-87.426 23.426-30.611-17.673-41.099-56.815-23.426-87.426 17.673-30.611 56.815-41.099 87.426-23.426 30.611 17.673 41.099 56.815 23.426 87.426" fill="#fd5" stroke-width=".2"/>
  </mask>
  <clipPath id="clipPath3048">
   <path d="m52.937 9.1223c-4.3373-7.5125-13.943-10.086-21.456-5.7492-7.5125 4.3373-10.086 13.943-5.7492 21.456s13.943 10.086 21.456 5.7492 10.086-13.943 5.7492-21.456" fill="#fd5" stroke-width=".049084"/>
  </clipPath>
  <clipPath id="clipPath3053">
   <path d="m105.71 90.522c-17.673 30.611-56.815 41.099-87.426 23.426-30.611-17.673-41.099-56.815-23.426-87.426 17.673-30.611 56.815-41.099 87.426-23.426 30.611 17.673 41.099 56.815 23.426 87.426" fill="#fd5" stroke-width=".2"/>
  </clipPath>
 </defs>
 <path d="m119.44 96.011c-17.673 30.611-56.815 41.099-87.426 23.426s-41.099-56.815-23.426-87.426 56.815-41.099 87.426-23.426 41.099 56.815 23.426 87.426" fill="#fd5" stroke-width=".2"/>
 <path d="m119.44 96.011c-17.673 30.611-56.815 41.099-87.426 23.426-30.611-17.673-41.099-56.815-23.426-87.426 17.673-30.611 56.815-41.099 87.426-23.426s41.099 56.815 23.426 87.426" fill="#fd5" stroke-width=".2"/>
 <path d="m-18.855 2.4298c-14.261 0-28.523 1.0193-36.672 3.0566-11.6 2.8999-17.131 25.628-19.262 37.551-0.92027-0.55467-1.9966-0.87891-3.1504-0.87891h-8.1484c-3.3779 0-6.1113 2.7334-6.1113 6.1113s2.7334 6.1113 6.1113 6.1113h4.5449c-2.4973 4.8274-2.5078 12.225-2.5078 12.225v52.971c0 4.4984 3.6519 8.1504 8.1504 8.1504h12.223c4.4984 0 8.1504-3.652 8.1504-8.1504v-1.6387c11.059 1.6326 21.652 1.6387 36.672 1.6387 15.02 0 25.612-6e-3 36.672-1.6387v1.6387c0 4.4984 3.6519 8.1504 8.1504 8.1504h12.223c4.4984 0 8.1504-3.652 8.1504-8.1504v-52.971c0-6.0378-1.1192-9.8316-2.5273-12.225h4.5644c3.3738 0 6.1113-2.7334 6.1113-6.1113s-2.7375-6.1113-6.1113-6.1113h-8.1504c-1.1524 0-2.2262 0.32424-3.1465 0.87891-2.1301-11.923-7.661-34.651-19.264-37.551-8.1494-2.0373-22.411-3.0566-36.672-3.0566zm128.34 5.9023a12.667 12.667 0 0 0-12.666 12.666 12.667 12.667 0 0 0 12.666 12.668 12.667 12.667 0 0 0 12.668-12.668 12.667 12.667 0 0 0-12.668-12.666zm4.502 28.926a6.6175 6.6175 0 0 0-4.2344 1.5859c-9.2851 7.9364-13.102 16.629-23.146 22.988l-7.0859-7.0137-3.2031 3.2363c-3.0352-3.2141-5.455-4.9612-8.002-5.8438-2.8596-0.99096-5.6062-0.8576-9.2774-0.91016l-0.01172 0.86719h-2e-3l-0.01953 1.3887-0.01172 0.86719c3.7475 0.05365 6.1292-0.01358 8.2988 0.73828 1.9474 0.67485 3.9561 2.0607 6.8262 5.1152l-6.3164 6.3789 2.9609 2.9297 2.1953-0.01172 0.08203 5.8984 0.33984 0.5879 7.3848 4.3789 0.84765-0.10742 3.6602-3.6973a6.6168 6.6168 0 0 0 1.2852-0.07812l0.4375 0.30859 0.53907-0.54492a6.6168 6.6168 0 0 0 0.8789-0.35156c0.47781-0.23311 0.92258-0.47764 1.3828-0.7168 0.31633 0.67397 0.69885 1.612 1.0117 2.7031 0.62059 2.1642 1.2095 4.9435 1.7754 7.791 0.28968 1.4578 0.57446 2.9302 0.85742 4.3594-2.4455 6.5091-3.9256 13.121-5.1524 19.975a6.6168 6.6168 0 0 0 5.3477 7.6797 6.6168 6.6168 0 0 0 7.6777-5.3476c0.49387-2.7594 1.0024-5.3503 1.5664-7.8398 0.63053-9.8e-4 1.2597-0.0821 1.8711-0.23242 3.116-0.76602 5.982-3.0724 8.7129-5.666 0.0989-0.0939 0.19262-0.19431 0.29102-0.28907 2.9219 6.0567 7.2788 12.046 13.928 17.848a6.6168 6.6168 0 0 0 9.3359-0.63672 6.6168 6.6168 0 0 0-0.63672-9.3359c-7.1718-6.2575-10.838-11.846-12.854-17.789l2e-3 -2e-3c0.6984-0.52178 1.084-0.44071 0.73047-0.53711l0.80273-2.9414c-0.95415-0.26016-1.7193 2.5e-4 -2.4199 0.41211-1.1984-4.8489-1.5611-10.032-1.9844-16.072 0.59696-3.3153 1.176-6.9907 1.4844-10.84 1.6849 2.9441 2.3391 6.4443 2.3008 10.721a6.6168 6.6168 0 0 0 6.5566 6.6758 6.6168 6.6168 0 0 0 6.6758-6.5566c0.1176-13.14-6.756-25.802-21.154-31.596a6.6175 6.6175 0 0 0-2.5352-0.47656zm-6.8418 24.412c-0.28965 2.4151-0.65131 4.7956-1.0527 7.0137-4.6249 5.47-7.9994 10.905-10.537 16.387-0.56549-2.8424-1.1555-5.6436-1.8184-7.9551-0.37404-1.3044-0.69566-2.4396-1.1582-3.4004 6.316-3.7188 10.868-7.9686 14.566-12.045zm-30.494 7.8848 2.3535 1.6641a6.6168 6.6168 0 0 0 0.56055 1.7051 6.6168 6.6168 0 0 0 4.0293 3.4297l-2.5879 2.6152-6.584-3.9043-0.07813-5.498zm32.977 16.879c0.68269 2.993 1.5889 5.9888 2.8027 8.9727-0.35522 0.35432-0.70813 0.71637-1.0664 1.0566-2.584 2.4542-5.2633 4.407-7.3418 4.918-0.13432 0.033-0.25674 0.0457-0.38477 0.0684 1.3853-5.3057 3.1814-10.158 5.9902-15.016z" fill="#4d4d4d" fill-opacity=".32386" mask="url(#mask2680)" stroke-width="4.0747"/>
 <g transform="matrix(4.0747 0 0 -4.0747 -96.263 133.18)" clip-path="url(#clipPath3048)">
  <path d="m35 4c0-1.104-0.896-2-2-2h-3c-1.104 0-2 0.896-2 2v8c0 1.104 0.896 2 2 2h3c1.104 0 2-0.896 2-2z" fill="#555"/>
  <path d="m10 4c0-1.104-0.896-2-2-2h-3c-1.104 0-2 0.896-2 2v8c0 1.104 0.896 2 2 2h3c1.104 0 2-0.896 2-2z" fill="#555"/>
  <path d="m28 32c3.881-0.97 5-11 5-11s2 0 2-4v-8s-0.119-3.03-4-4c-4-1-7-1-12-1s-8 0-12 1c-3.88 0.97-4 4-4 4v8s0 4 2 4c0 0 1.12 10.03 5 11 4 1 14 1 18 0z" fill="#3b88c3"/>
  <path d="m19 22c3.905 0 8.623-0.2 12-0.562l-1 5.562c-1 3-7 3-11 3s-10 0-11-3l-1-5.562c3.377 0.362 8.095 0.562 12 0.562" fill="#bbddf5"/>
  <path d="m4.5 20h-2c-0.829 0-1.5 0.671-1.5 1.5s0.671 1.5 1.5 1.5h2c0.829 0 1.5-0.671 1.5-1.5s-0.671-1.5-1.5-1.5z" fill="#3b88c3"/>
  <path d="m33.5 20h2c0.828 0 1.5 0.671 1.5 1.5s-0.672 1.5-1.5 1.5h-2c-0.828 0-1.5-0.671-1.5-1.5s0.672-1.5 1.5-1.5z" fill="#3b88c3"/>
  <path d="m12 14c0-1.657-1.343-3-3-3h-1c-1.657 0-3 1.343-3 3s1.343 3 3 3h1c1.657 0 3-1.343 3-3" fill="#fff"/>
  <path d="m33 14c0-1.657-1.344-3-3-3h-1c-1.656 0-3 1.343-3 3s1.344 3 3 3h1c1.656 0 3-1.343 3-3" fill="#fff"/>
  <path d="m5.914 17.122c2.8156 1.3928 7.2549-0.07212 7.2998-0.08646 0.52302-0.1761 1.0905 0.10479 1.2666 0.62781s-0.10183 1.0876-0.62695 1.2661c-0.21289 0.07326-5.2629 1.7464-8.8255-0.01416-0.495-0.24537-0.69762-0.84431-0.45361-1.3397 0.09159-0.18336 0.23123-0.32749 0.39578-0.42249 0.27973-0.1615 0.63226-0.1849 0.9439-0.03112z" fill="#269"/>
  <path d="m33.424 17.575c0.24487 0.49587 0.04226 1.0948-0.45361 1.3397-3.5617 1.7611-8.6126 0.08742-8.8255 0.01416-0.52065-0.1782-0.80305-0.74308-0.62608-1.2656 0.17524-0.52352 0.74271-0.80442 1.2657-0.62831 0.04484 0.01434 4.4841 1.4792 7.2998 0.08646 0.31078-0.15428 0.66417-0.13038 0.9439 0.03112 0.16454 0.095 0.30419 0.23913 0.39578 0.42249z" fill="#269"/>
  <path d="m5.293 9.293c-0.391 0.391-0.391 1.023 0 1.414 0.344 0.345 0.877 0.386 1.267 0.122 0.232-0.1 2.285-0.829 12.44-0.829s12.208 0.729 12.44 0.829c0.391 0.264 0.922 0.223 1.267-0.122 0.391-0.391 0.391-1.023 0-1.414-1.068-1.068-8.044-1.293-13.707-1.293s-12.639 0.225-13.707 1.293z" fill="#55acee"/>
  <path d="m19 5c-3.866 0-7 1-7 2.5 0 0.828 3.134 0.5 7 0.5s7 0.328 7-0.5c0-1.5-3.134-2.5-7-2.5z" fill="#269"/>
 </g>
 <g transform="translate(13.731 5.4886)" clip-path="url(#clipPath3053)">
  <path d="m110.94 78.279c-4.1551-1.1329-19.423 26.504-27.252 12.746-2.3143-4.2162-4.1501-23.722-7.2555-26.244" fill="none" stroke="#666" stroke-width="3.0484"/>
  <g transform="matrix(1.927 -.93728 .93728 1.927 -96.154 14.912)">
   <g fill="none">
    <path d="m59.008 48.027c-1.3401-4.7366-2.6339-5.1048-5.7255-6.6636" stroke="#ccc" stroke-linejoin="round" stroke-width="1.4575"/>
    <path d="m56.321 50.709-1.4747 3.1436 2.2047 3.3449 2.7502-0.96602" stroke="#555" stroke-linejoin="bevel" stroke-width=".64783"/>
    <path d="m59.008 48.027c-1.3401-4.7366-2.6339-5.1048-5.7255-6.6636" stroke="#aaa" stroke-linejoin="round" stroke-width=".64783"/>
   </g>
   <path d="m61.488 46.37-7.334 2.5761 0.64399 1.8335 2.4775 1.1895 2.8488 5.1785 4.5837-1.61z" fill="#41a94c" fill-rule="evenodd" stroke-width=".48582"/>
  </g>
  <g transform="matrix(1.5429 0 0 1.5429 -53.421 -32.809)">
   <g fill="none" stroke="#fff">
    <path d="m111.3 88.061c-10.077-8.7923-10.967-17.136-11.654-26.935-8.4582 8.9496-10.695 16.984-12.476 26.935" stroke-linecap="round" stroke-width="8.5769" style="paint-order:stroke fill markers"/>
    <path d="m99.645 44.397c1.3709 5.1982 0.33838 12.162-0.63074 17.36" stroke-width="9.3568" style="paint-order:stroke fill markers"/>
    <path d="m110.67 60.856c0.0651-7.2737-3.0428-13.249-11.023-16.46-5.72 4.8891-8.7035 12.169-18.497 16.947" stroke-linecap="round" stroke-linejoin="round" stroke-width="8.5769" style="paint-order:stroke fill markers"/>
   </g>
   <path d="m88.478 29.57a8.2096 8.2096 0 0 0 8.2096 8.2096 8.2096 8.2096 0 0 0 8.2096-8.2096 8.2096 8.2096 0 0 0-8.2096-8.2096 8.2096 8.2096 0 0 0-8.2096 8.2096" fill="#fff" stroke-width=".16881" style="paint-order:normal"/>
  </g>
 </g>
</svg>
