<?xml version="1.0" encoding="UTF-8"?>
<svg version="1.1" viewBox="0 0 128 128" xmlns="http://www.w3.org/2000/svg">
 <path d="m119.42 95.995c-17.67 30.605-56.806 41.092-87.411 23.422-30.605-17.67-41.092-56.806-23.422-87.411 17.67-30.605 56.806-41.092 87.411-23.422 30.605 17.67 41.092 56.806 23.422 87.411" fill="#9bbe55" stroke-width=".19997"/>
 <path d="m57.959 15.967h12.174v111.98h-12.174z" fill="#666" style="paint-order:stroke fill markers"/>
 <path d="m40.472 32h47.056c4.6935 0 8.472 3.7785 8.472 8.472v51.056c0 4.6935-3.7785 8.472-8.472 8.472h-47.056c-4.6935 0-8.472-3.7785-8.472-8.472v-51.056c0-4.6935 3.7785-8.472 8.472-8.472z" fill="none" stroke="#000" stroke-opacity=".2" stroke-width="8" style="paint-order:normal"/>
 <path d="m40.472 28h47.056c4.6935 0 8.472 3.7785 8.472 8.472v51.056c0 4.6935-3.7785 8.472-8.472 8.472h-47.056c-4.6935 0-8.472-3.7785-8.472-8.472v-51.056c0-4.6935 3.7785-8.472 8.472-8.472z" fill="#495aad" stroke="#fff" stroke-opacity=".98995" stroke-width="8" style="paint-order:normal"/>
 <path d="m74.5 83.896h-20.458v-3.901c2.1983-0.05319 3.6976-0.64593 3.9583-2.8385v-7.1563c-0.22976-2.6606-2.4027-3.2767-4.6094-3.6719v-5.901l16.76-0.67709 0.39062 0.39063v16.677c0.06509 1.8143 1.2079 2.4169 2.6562 2.9167 0.41666 0.12153 0.85069 0.20834 1.3021 0.26042z" fill="#fff"/>
 <path d="m71.554 47.853a7.6463 7.6463 0 0 1-7.6463 7.6463 7.6463 7.6463 0 0 1-7.6463-7.6463 7.6463 7.6463 0 0 1 7.6463-7.6463 7.6463 7.6463 0 0 1 7.6463 7.6463" fill="#fff" style="paint-order:fill markers stroke"/>
</svg>
