<?xml version="1.0" encoding="UTF-8"?>
<svg version="1.1" viewBox="0 0 128 128" xmlns="http://www.w3.org/2000/svg">
 <path d="m128 64c0 35.346-28.654 64-64 64-35.346 0-64-28.654-64-64 0-35.346 28.654-64 64-64 35.346 0 64 28.654 64 64" fill="#c8c4b7" stroke-width=".2"/>
 <path d="m34.094 22.18h59.905c7.7801 0 14.044 6.2634 14.044 14.044v59.795c0 7.7801-6.2634 14.044-14.044 14.044h-59.905c-7.7801 0-14.044-6.2634-14.044-14.044v-59.795c0-7.7801 6.2634-14.044 14.044-14.044z" fill-opacity=".2" style="paint-order:normal"/>
 <path d="m34.219 18.305h59.905c7.7801 0 14.044 6.2634 14.044 14.044v59.795c0 7.7801-6.2634 14.044-14.044 14.044h-59.905c-7.7801 0-14.044-6.2634-14.044-14.044v-59.795c0-7.7801 6.2634-14.044 14.044-14.044z" fill="#495aad" style="paint-order:normal"/>
 <path d="m28.922 41.078v42.233c7.0389 0 14.078 7.0389 14.078 14.078h42.233c0-7.0389 7.0389-14.078 14.078-14.078v-42.233c-7.0389 0-14.078-7.0389-14.078-14.078h-42.233c0 7.0389-7.0389 14.078-14.078 14.078z" fill="none" stroke="#fff" stroke-width="5.0152"/>
 <path d="m71 44-0.0057 27.953c-4e-4 1.6864 1.2032 2.1174 2.5778 2.0921l2.4279-0.04475 6e-6 6h-20l-6e-6 -6 2.6563 0.04475c1.3196 0.02223 2.3386-0.55113 2.3391-2.0909l0.0046-17.954c0 2-8 2-8 2l2e-6 -6c4 0 9-2 9-6z" fill="#fff"/>
</svg>
