<?xml version="1.0" encoding="UTF-8" standalone="no"?>
<svg
   xmlns:dc="http://purl.org/dc/elements/1.1/"
   xmlns:cc="http://creativecommons.org/ns#"
   xmlns:rdf="http://www.w3.org/1999/02/22-rdf-syntax-ns#"
   xmlns:svg="http://www.w3.org/2000/svg"
   xmlns="http://www.w3.org/2000/svg"
   xmlns:sodipodi="http://sodipodi.sourceforge.net/DTD/sodipodi-0.dtd"
   xmlns:inkscape="http://www.inkscape.org/namespaces/inkscape"
   version="1.1"
   viewBox="0 0 128 128"
   id="svg2851"
   sodipodi:docname="kosher.svg"
   inkscape:version="1.0.1 (1.0.1+r73)">
  <metadata
     id="metadata2857">
    <rdf:RDF>
      <cc:Work
         rdf:about="">
        <dc:format>image/svg+xml</dc:format>
        <dc:type
           rdf:resource="http://purl.org/dc/dcmitype/StillImage" />
        <dc:title></dc:title>
      </cc:Work>
    </rdf:RDF>
  </metadata>
  <defs
     id="defs2855">
    <rect
       x="42.768089"
       y="38.242273"
       width="46.021033"
       height="52.611556"
       id="rect2861" />
  </defs>
  <sodipodi:namedview
     pagecolor="#ffffff"
     bordercolor="#666666"
     borderopacity="1"
     objecttolerance="10"
     gridtolerance="10"
     guidetolerance="10"
     inkscape:pageopacity="0"
     inkscape:pageshadow="2"
     inkscape:window-width="2560"
     inkscape:window-height="1380"
     id="namedview2853"
     showgrid="false"
     inkscape:zoom="9.2890625"
     inkscape:cx="49.373598"
     inkscape:cy="62.87936"
     inkscape:window-x="0"
     inkscape:window-y="0"
     inkscape:window-maximized="1"
     inkscape:current-layer="svg2851" />
  <path
     d="m128 64c0 35.346-28.654 64-64 64-35.346 0-64-28.654-64-64s28.654-64 64-64c35.346 0 64 28.654 64 64"
     fill="#e9a76f"
     stroke-width=".2"
     id="path2829" />
  <text
     xml:space="preserve"
     id="text2859"
     style="fill:black;fill-opacity:1;stroke:none;font-family:sans-serif;font-style:normal;font-weight:normal;font-size:40px;line-height:1.25;letter-spacing:0px;word-spacing:0px;white-space:pre;shape-inside:url(#rect2861);" />
  <path
     id="rect5827-3"
     style="fill:#ba8559;fill-opacity:1;fill-rule:nonzero;stroke-width:0.954973"
     d="m 87.561309,18.376316 c -0.98632,-0.05554 -2.128706,0.372606 -3.048828,1.234376 L 46.432403,55.274754 V 23.011082 c 0,-2.508288 -1.491413,-4.527344 -3.34375,-4.527344 h -5.005859 c -1.852337,0 -3.34375,2.019056 -3.34375,4.527344 v 77.500008 c 0,2.50828 1.491413,4.5293 3.34375,4.5293 h 5.005859 c 1.852337,-1e-5 3.34375,-2.02102 3.34375,-4.5293 V 68.15366 l 2.585938,-2.421875 37.472656,37.960945 c 1.533212,1.55316 3.657769,1.85373 4.763672,0.67578 l 2.988281,-3.18359 c 1.105904,-1.17792 0.763681,-3.376529 -0.769531,-4.9297 L 56.459747,58.761082 91.215606,26.210302 C 92.6878,24.83147 93.017731,22.88101 91.955841,21.835301 L 89.0867,19.009129 c -0.398209,-0.392141 -0.933598,-0.599486 -1.525391,-0.632813 z" />
  <path
     id="rect5827"
     style="fill:#4a2f13;fill-opacity:1;fill-rule:nonzero;stroke-width:0.954973"
     d="m 87.61862,15.921973 c -0.98632,-0.05554 -2.128706,0.372606 -3.048828,1.234376 L 46.489714,52.820411 V 20.556739 c 0,-2.508288 -1.491413,-4.527344 -3.34375,-4.527344 h -5.005859 c -1.852337,0 -3.34375,2.019056 -3.34375,4.527344 v 77.500002 c 0,2.508279 1.491413,4.529299 3.34375,4.529299 h 5.005859 c 1.852337,-1e-5 3.34375,-2.02102 3.34375,-4.529299 V 65.699317 l 2.585938,-2.421875 37.472656,37.960938 c 1.533212,1.55316 3.657769,1.85373 4.763672,0.67578 l 2.988281,-3.183589 c 1.105904,-1.17792 0.763681,-3.376525 -0.769531,-4.929691 L 56.517058,56.306739 91.272917,23.755958 c 1.472194,-1.378832 1.802125,-3.329291 0.740235,-4.375 L 89.144011,16.554786 C 88.745802,16.162645 88.210413,15.9553 87.61862,15.921973 Z" />
</svg>
