<?xml version="1.0" encoding="UTF-8"?>
<svg version="1.1" viewBox="0 0 128 128" xmlns="http://www.w3.org/2000/svg">
 <path d="m128 64c0 35.346-28.654 64-64 64-35.346 0-64-28.654-64-64s28.654-64 64-64c35.346 0 64 28.654 64 64" fill="#fd5" stroke-width=".2"/>
 <path d="m116 66c0 28.719-23.281 52-52 52-28.719 0-52-23.281-52-52 0-28.719 23.281-52 52-52 28.719 0 52 23.281 52 52" fill-opacity=".2"/>
 <path d="m114 62c0 27.614-22.386 50-50 50-27.614 0-50-22.386-50-50s22.386-50 50-50c27.614 0 50 22.386 50 50" fill="#c84747" stroke="#fff" stroke-width="3.8462"/>
 <path d="m99.756 62a35.756 35.756 0 0 1-35.756 35.756 35.756 35.756 0 0 1-35.756-35.756 35.756 35.756 0 0 1 35.756-35.756 35.756 35.756 0 0 1 35.756 35.756" fill="#fff"/>
 <path d="m40.797 71.657a25.009 25.009 0 0 1 8.7834-28.592 25.009 25.009 0 0 1 29.909 0.27576 25.009 25.009 0 0 1 8.2547 28.749" fill="none" stroke="#444" stroke-width="8" style="paint-order:normal"/>
 <path d="m91.263 46.012-24.784 10.189c-2.2536-0.86781-4.7785-0.67123-6.8706 0.53491-3.8258 2.2088-5.1363 7.101-2.9279 10.927 2.2092 3.8256 7.101 5.1363 10.927 2.9279 2.0887-1.2087 3.5202-3.2956 3.8956-5.6794l21.26-16.301z" fill="#444" style="paint-order:stroke fill markers"/>
 <path d="m66.479 56.201 24.784-10.189-5.3072-2.1683-17.514 7.24z" fill="#fff"/>
 <path d="m92.763 48.61-21.26 16.301 6.8082-0.48019 15.694-11.487z" fill="#fff"/>
</svg>
