<?xml version="1.0" encoding="UTF-8"?>
<svg version="1.1" viewBox="0 0 128 128" xmlns="http://www.w3.org/2000/svg">
 <path d="m128 64c0 35.346-28.654 64-64 64s-64-28.654-64-64 28.654-64 64-64 64 28.654 64 64" fill="#fd5" stroke-width=".2"/>
 <path d="m116 66c0 28.719-23.281 52-52 52-28.719 0-52-23.281-52-52s23.281-52 52-52c28.719 0 52 23.281 52 52" fill-opacity=".2"/>
 <g>
  <path d="m114 62c0 27.614-22.386 50-50 50-27.614 0-50-22.386-50-50s22.386-50 50-50c27.614 0 50 22.386 50 50" fill="#c84747" stroke="#fff" stroke-width="3.8462"/>
  <path d="m99.741 62.001a35.756 35.756 0 0 1-35.756 35.756 35.756 35.756 0 0 1-35.756-35.756 35.756 35.756 0 0 1 35.756-35.756 35.756 35.756 0 0 1 35.756 35.756" fill="#444"/>
  <path d="m32.021 77.965c6.0492 12.123 18.43 19.785 31.979 19.791 13.548-6e-3 25.929-7.6684 31.979-19.791l-13.979-15.965 13.961-15.938c-6.0387-12.128-18.413-19.801-31.961-19.818-13.548 0.0177-25.922 7.6907-31.961 19.818l13.961 15.938z" fill="#fff"/>
  <path d="m56 46c-3.2002 2-4 14-4 14-1.6961 0.55846-4.0306 2.2998-4.0313 4.0781l0.03126 5.9219c2e-3 2 0.60062 3 3 3v5s-0.0192 1.9473 1 2h3.999c1 0 1.001-2 1.001-2v-4h14v4s0 2 1 2h4c1 0 1-2 1-2v-5c2.3994 0 2.9927-1 3-3v-6c-0.43556-1.8708-2.6062-3.4384-4-4 0 0-0.80604-12-4-14zm14 4c2 3 2 10 2 10h-16s0-7 2-10z" fill="#444"/>
 </g>
</svg>
