<?xml version="1.0" encoding="UTF-8"?>
<svg version="1.1" viewBox="0 0 128 128" xmlns="http://www.w3.org/2000/svg">
 <path d="m128 64c0 35.346-28.654 64-64 64s-64-28.654-64-64 28.654-64 64-64 64 28.654 64 64" fill="#e9a76f" stroke-width=".2"/>
 <path d="m79.711 13.197c-7.2573 10.699-15.653 20.68-25.039 29.812-3.198 3.0135-6.5245 6.0256-10.014 9.0391l0.025 0.0234c-9.7061 8.2395-20.283 15.649-31.627 22.08 0.5913 0.53499 1.1821 1.0812 1.7735 1.6172-0.7063 0.4385-1.4148 0.88896-2.1192 1.3184-0.6907 3.2809-1.3807 6.3898-2.2441 9.498 11.052 10.015 22.103 20.203 33.154 30.219 11.329-6.2272 22.95-13.598 33.846-21.838v0.0801c3.6262-2.7629 7.2514-5.6992 10.705-8.6348v-0.0606c9.931-8.4883 18.88-17.693 25.902-27.395-0.518-4.317-1.2085-8.6353-1.7266-13.125-0.394-0.35587-0.7876-0.71789-1.1816-1.0742 0.3917-0.56403 0.7963-1.1194 1.1816-1.6875-10.879-10.015-21.758-19.858-32.637-29.873z" fill-opacity=".2" stroke-width="1.7268"/>
 <g transform="matrix(1.7268 0 0 1.7268 7.0133 5.6626)">
  <path d="m61 20.9c-6.2-5.6-12.4-11.3-18.6-16.9-9.1 13.8-24.5 26.1-39.1 35-0.4 1.9-0.8 3.7-1.3 5.5 6.4 5.8 12.8 11.7 19.2 17.5 15.1-8.3 31.1-20.1 40.8-33.5-0.3-2.5-0.7-5-1-7.6" fill="#699635"/>
  <path d="m22.4 54.6c-6.3-5.8-12.6-11.6-18.9-17.3 15.7-8.9 28.9-21 38.6-35.3 6.3 5.8 12.6 11.5 18.9 17.3-9.7 14.3-22.9 26.4-38.6 35.3" fill="#83bf4f"/>
  <path d="m20.8 50.8c-4.2-3.8-8.4-7.7-12.6-11.5 0.3-0.2 0.5-0.3 0.8-0.5 0.8-0.5 1-1.4 0.3-2.1l-0.6-0.6c12.7-7.8 23.7-17.8 32.3-29.4l0.6 0.6c0.7 0.6 1.7 0.5 2.3-0.2 0.2-0.2 0.3-0.5 0.5-0.7 4.2 3.8 8.4 7.7 12.6 11.5-0.2 0.2-0.3 0.5-0.5 0.7-0.6 0.8-0.5 1.9 0.2 2.6l0.6 0.6c-8.6 11.5-19.6 21.5-32.3 29.3l-0.6-0.6c-0.7-0.6-1.9-0.7-2.8-0.2-0.3 0.2-0.5 0.3-0.8 0.5m-9.9-11.4c3.4 3.1 6.8 6.2 10.3 9.4 1.3-0.4 2.8-0.3 4 0.3 11.6-7.4 21.7-16.6 29.8-27.3-0.7-1.1-0.8-2.5-0.3-3.7-3.4-3.1-6.8-6.2-10.3-9.4-0.9 0.8-2.2 0.9-3.3 0.3-8.1 10.8-18.2 20-29.8 27.4 0.6 1 0.5 2.2-0.4 3" fill="#699635"/>
  <path d="m20 37.3c1.1-0.4 2.3-0.3 3.1 0.4-0.5 0.4-1.1 0.8-1.6 1.2-0.2-0.2-0.7-0.2-0.9 0-0.3 0.2-0.4 0.5-0.1 0.7 0.2 0.2 0.7 0.2 1 0 1.2-0.8 2.9-0.9 3.8 0 0.7 0.7 0.8 1.7 0.1 2.5 0.2 0.2 0.4 0.3 0.6 0.5-0.5 0.3-1 0.7-1.5 1-0.2-0.2-0.4-0.4-0.6-0.5-1.1 0.3-2.3 0.2-3-0.5 0.6-0.4 1.1-0.7 1.7-1.1 0.2 0.2 0.7 0.2 1 0s0.3-0.5 0.1-0.7-0.6-0.2-0.9 0c-0.7 0.5-1.6 0.7-2.4 0.6-0.6-0.1-1.1-0.3-1.5-0.6-0.7-0.7-0.7-1.6-0.1-2.4-0.2-0.1-0.3-0.3-0.5-0.5 0.5-0.3 1-0.7 1.5-1-0.1 0.1 0.1 0.2 0.2 0.4" fill="#699635"/>
  <path d="m43.2 15.9c0.9-0.6 2-0.6 2.7 0.1l-1.2 1.5c-0.2-0.2-0.6-0.2-0.8 0.1s-0.2 0.7 0 0.9 0.6 0.2 0.8-0.1c0.9-1.1 2.4-1.3 3.3-0.5 0.7 0.7 0.9 1.8 0.5 2.8 0.2 0.2 0.4 0.3 0.6 0.5-0.4 0.5-0.7 0.9-1.1 1.4-0.2-0.2-0.4-0.4-0.6-0.5-0.9 0.5-1.9 0.5-2.6-0.2 0.4-0.5 0.9-1 1.3-1.5 0.2 0.2 0.6 0.2 0.8-0.1s0.2-0.7 0-0.9-0.6-0.2-0.8 0.1c-0.5 0.6-1.3 1-2 1-0.5 0-1-0.2-1.4-0.5-0.7-0.7-0.9-1.7-0.5-2.7-0.2-0.1-0.3-0.3-0.5-0.5 0.4-0.4 0.8-0.9 1.1-1.4 0 0.2 0.2 0.3 0.4 0.5" fill="#699635"/>
  <path d="m40.2 35.5c-3.2 2.9-8.6 2.8-11.7 0-3.1-2.9-2.9-7.4 0.3-10.3s8.2-3.2 11.3-0.3c3.2 2.8 3.3 7.7 0.1 10.6" fill="#699635"/>
  <path d="m21.8 24.5 18.9 17.3c2.2-1.8 4.2-3.7 6.2-5.7l-18.8-17.3c-2 1.9-4.1 3.8-6.3 5.7" fill="#ffdd7d"/>
  <path d="m40.8 49.4c2.1-1.6 4.2-3.3 6.2-5v-8.4c-2 2-4.1 3.9-6.2 5.7v7.7" fill="#dbb471"/>
 </g>
</svg>
