<?xml version="1.0" encoding="UTF-8"?>
<svg version="1.1" viewBox="0 0 128 128" xmlns="http://www.w3.org/2000/svg">
 <path class="st0" d="m128 64a64 64 0 0 1-64 64 64 64 0 0 1-64-64 64 64 0 0 1 64-64 64 64 0 0 1 64 64" fill="#fd5"/>
 <path d="m65.99 29a3.0003 3.0003 0 1 0 0 6h9.9863l3.2754 8.0078c-1.5042-0.1374-3.3141 0.1443-5.4004 0.8867-5.5369 2.6245-11.347 6.6223-12.686 12.106h-5.4785c-3.4795-3.6802-7.5959-5.8798-11.758-6.9083-4.7324-1.1694-9.4602-1.126-13.971-1.0917a4.0004 4.0004 0 0 0-3.6055 5.7558c-0.25121 0.095-0.50224 0.1899-0.75391 0.2949-5.829 2.4317-11.424 7.9176-13.689 16.978l5.9453 1.4864c-0.23689 1.1254-0.36523 2.2911-0.36523 3.4844 0 9.3484 7.6514 17 17 17 8.3237 0 15.287-6.0714 16.717-14h18.783a3.0003 3.0003 0 0 0 2.5566-1.4297l3.6934-6.0079 3.1582 0.7891c-0.26024 1.177-0.4082 2.3962-0.4082 3.6485 0 9.3484 7.6514 17 17 17s17-7.6516 17-17c0-6.1443-3.3165-11.54-8.2363-14.527l3.8086-4.5371c-3.4592-2.9033-8.2262-4.0482-13.289-3.6191-1.6312 0.1382-3.292 0.443-4.9512 0.9023l-2.3906-5.8418c2.8274 1.4978 6.8701 2.4473 8.9024 2.4473v-12c-2.6564 0-8.7484 1.8335-11.064 4.2675l-5.002-12.228a3.0003 3.0003 0 0 0-2.7773-1.8632zm-31.5 36.801c4.6274 0 8.4897 3.0107 9.7578 7.1993h-10.258a3.0003 3.0003 0 1 0 0 6h10.258c-1.2686 4.1873-5.1311 7.1992-9.7578 7.1992-5.6736 0-10.199-4.5257-10.199-10.199 0-5.6737 4.5256-10.199 10.199-10.199zm61.5 0c5.6736 0 10.199 4.5256 10.199 10.199 0 5.6734-4.5256 10.199-10.199 10.199s-10.199-4.5257-10.199-10.199c0-3.2042 1.4444-6.0428 3.7227-7.9063l3.6992 9.043a3.001 3.001 0 1 0 5.5547-2.2735l-3.6894-9.0175c0.30106-0.026 0.60372-0.045 0.91211-0.045z" color="#000000" color-rendering="auto" dominant-baseline="auto" fill-opacity=".2" image-rendering="auto" shape-rendering="auto" solid-color="#000000" style="font-feature-settings:normal;font-variant-alternates:normal;font-variant-caps:normal;font-variant-ligatures:normal;font-variant-numeric:normal;font-variant-position:normal;isolation:auto;mix-blend-mode:normal;paint-order:fill markers stroke;shape-padding:0;text-decoration-color:#000000;text-decoration-line:none;text-decoration-style:solid;text-indent:0;text-orientation:mixed;text-transform:none;white-space:normal"/>
 <g transform="translate(-894,-896)">
  <path d="m1003.6 968a13.6 13.6 0 0 1-13.6 13.6 13.6 13.6 0 0 1-13.6-13.6 13.6 13.6 0 0 1 13.6-13.6 13.6 13.6 0 0 1 13.6 13.6" fill="none" stroke="#555" stroke-width="6.8" style="paint-order:fill markers stroke"/>
  <path d="m942.1 968a13.6 13.6 0 0 1-13.6 13.6 13.6 13.6 0 0 1-13.6-13.6 13.6 13.6 0 0 1 13.6-13.6 13.6 13.6 0 0 1 13.6 13.6" fill="none" stroke="#555" stroke-width="6.8" style="paint-order:fill markers stroke"/>
  <path d="m972 964c4-16 22-17.036 28-12" fill="none" stroke="#cd584c" stroke-width="8"/>
  <path d="m990 968-18-44h-12" fill="none" stroke="#d5d5d5" stroke-linecap="round" stroke-linejoin="round" stroke-width="6"/>
  <path d="m944 965.9h20l10.349-19.843-30.349 5.9447z" fill="#8c8c8c"/>
  <path d="m909.8 964c4-16 18.198-17.018 24.2-15 6.0022 2.0184 14 8.8533 14 19" fill="none" stroke="#cd584c" stroke-width="8"/>
  <path d="m928 968h36l14.751-24" fill="none" stroke="#d5d5d5" stroke-linecap="round" stroke-linejoin="round" stroke-width="6"/>
  <path d="m978.86 936.99c0-3.3137 8.6746-6.1651 11.988-6.1651v12c-3.3137 0-11.988-2.5212-11.988-5.8349z" fill="#cd584c" style="paint-order:fill markers stroke"/>
  <path d="m924 944c8.9812-0.0683 17.631 0 24 8h8" fill="#555" stroke="#555" stroke-linecap="round" stroke-width="8"/>
  <path d="m967.86 935.9c-6.5275 3.0941-13.46 8.0882-12.964 15.186 0.48898 2.3369 2.0766 4.8281 4.5586 4.2129 4.2635-0.69963 17.075-4.2689 18.143-8.9773 2.4-9.3177-1.6-13.318-9.738-10.422z" color="#000000" color-rendering="auto" dominant-baseline="auto" fill="#cd584c" image-rendering="auto" shape-rendering="auto" solid-color="#000000" style="font-feature-settings:normal;font-variant-alternates:normal;font-variant-caps:normal;font-variant-ligatures:normal;font-variant-numeric:normal;font-variant-position:normal;isolation:auto;mix-blend-mode:normal;shape-padding:0;text-decoration-color:#000000;text-decoration-line:none;text-decoration-style:solid;text-indent:0;text-orientation:mixed;text-transform:none;white-space:normal"/>
 </g>
</svg>
