<?xml version="1.0" encoding="UTF-8"?>
<svg version="1.1" viewBox="0 0 128 128" xmlns="http://www.w3.org/2000/svg">
 <path d="m128 64c0 35.346-28.654 64-64 64-35.346 0-64-28.654-64-64 0-35.346 28.654-64 64-64 35.346 0 64 28.654 64 64" fill="#fd5" stroke-width=".2"/>
 <path d="m36.222 24h55.056c4.6935 0 8.472 3.7785 8.472 8.472v63.056c0 4.6935-3.7785 8.472-8.472 8.472h-55.056c-4.6935 0-8.472-3.7785-8.472-8.472v-63.056c0-4.6935 3.7785-8.472 8.472-8.472z" fill="none" stroke="#000" stroke-opacity=".2" stroke-width="8" style="paint-order:normal"/>
 <path d="m36.347 20.111h55.056c4.6935 0 8.472 3.7785 8.472 8.472v63.056c0 4.6935-3.7785 8.472-8.472 8.472h-55.056c-4.6935 0-8.472-3.7785-8.472-8.472v-63.056c0-4.6935 3.7785-8.472 8.472-8.472z" fill="#495aad" stroke="#fff" stroke-opacity=".98995" stroke-width="8" style="paint-order:normal"/>
 <path d="m44 76v-40h12s12 0 12 12c0 12-12 12-12 12h-12" fill="none" stroke="#fff" stroke-linecap="square" stroke-width="8"/>
 <path d="m73.168 66.28a1.2179 1.2179 0 1 0 0 2.4356h4.0538l1.3296 3.2506c-0.61062-0.05578-1.3453 0.05858-2.1922 0.35994-2.2476 1.0654-4.6062 2.6882-5.1495 4.914h-2.2239c-1.4124-1.4939-3.0834-2.3868-4.7729-2.8043-1.921-0.4747-3.8402-0.45708-5.6712-0.44316a1.6239 1.6239 0 0 0-1.4636 2.3365c-0.10197 0.03856-0.20388 0.07709-0.30604 0.11971-2.3662 0.98711-4.6375 3.214-5.557 6.8921l2.4134 0.60338c-0.09616 0.45684-0.14826 0.93003-0.14826 1.4144 0 3.7948 3.106 6.9008 6.9008 6.9008 3.3789 0 6.2054-2.4646 6.7859-5.6831h7.6247a1.2179 1.2179 0 0 0 1.0378-0.58036l1.4993-2.4388 1.282 0.32032c-0.10564 0.47778-0.1657 0.9727-0.1657 1.481 0 3.7948 3.106 6.9008 6.9008 6.9008 3.7949 0 6.9008-3.106 6.9008-6.9008 0-2.4942-1.3463-4.6844-3.3434-5.8971l1.546-1.8418c-1.4042-1.1785-3.3393-1.6433-5.3945-1.4691-0.66218 0.0561-1.3363 0.17983-2.0098 0.36627l-0.97043-2.3714c1.1477 0.60801 2.7888 0.99344 3.6138 0.99344v-4.8712c-1.0783 0-3.5513 0.74428-4.4914 1.7323l-2.0305-4.9639a1.2179 1.2179 0 0 0-1.1274-0.75633zm-12.787 14.939c1.8784 0 3.4463 1.2221 3.961 2.9224h-4.164a1.2179 1.2179 0 1 0 0 2.4356h4.164c-0.51498 1.6998-2.0829 2.9224-3.961 2.9224-2.3031 0-4.1402-1.8371-4.1402-4.1402 0-2.3031 1.8371-4.1402 4.1402-4.1402zm24.965 0c2.3031 0 4.1402 1.8371 4.1402 4.1402 0 2.303-1.8371 4.1402-4.1402 4.1402-2.3031 0-4.1402-1.8371-4.1402-4.1402 0-1.3007 0.58632-2.453 1.5111-3.2094l1.5016 3.6708a1.2182 1.2182 0 1 0 2.2548-0.92289l-1.4977-3.6605c0.12221-0.01055 0.24507-0.01827 0.37026-0.01827z" color="#000000" color-rendering="auto" dominant-baseline="auto" fill="#fff" image-rendering="auto" shape-rendering="auto" solid-color="#000000" style="font-feature-settings:normal;font-variant-alternates:normal;font-variant-caps:normal;font-variant-ligatures:normal;font-variant-numeric:normal;font-variant-position:normal;isolation:auto;mix-blend-mode:normal;paint-order:fill markers stroke;shape-padding:0;text-decoration-color:#000000;text-decoration-line:none;text-decoration-style:solid;text-indent:0;text-orientation:mixed;text-transform:none;white-space:normal"/>
</svg>
