<?xml version="1.0" encoding="UTF-8"?>
<svg version="1.1" viewBox="0 0 128.02 128.02" xmlns="http://www.w3.org/2000/svg">
 <path d="m119.44 96.011c-17.673 30.611-56.815 41.099-87.426 23.426-30.611-17.673-41.099-56.815-23.426-87.426 17.673-30.611 56.815-41.099 87.426-23.426 30.611 17.673 41.099 56.815 23.426 87.426" fill="#e45f5f" stroke-width=".2"/>
 <g transform="matrix(1.5631 0 0 1.6964 1092.3 -756.2)" fill-opacity=".2">
  <path d="m-664.72 495.24c-0.1022-2.9116 0.49346-5.6481 1.502-8.1322 2.8904-6.1632 12.45-9.5196 12.381-15.387-0.0543-4.6074-3.4814-5.8832-7.0917-5.9223-3.855-0.0417-6.7772 3.0952-7.3378 6.4492h-13.2c0.25451-10.459 12.07-15.623 20.537-15.881 9.3265-0.28376 20.602 6.7454 20.472 15.326-0.10675 7.0911-6.1775 10.999-11.151 14.712-2.9871 2.0535-4.2285 5.6075-4.4606 8.8346z"/>
  <path d="m-652.21 506.61a6.5267 5.5193 0 0 1-6.5267 5.5193 6.5267 5.5193 0 0 1-6.5267-5.5193 6.5267 5.5193 0 0 1 6.5267-5.5193 6.5267 5.5193 0 0 1 6.5267 5.5193" style="paint-order:normal"/>
 </g>
 <g transform="matrix(1.5631 0 0 1.6964 1092.3 -760.2)" fill="#fff">
  <path d="m-664.72 495.24c-0.1022-2.9116 0.49346-5.6481 1.502-8.1322 2.8904-6.1632 12.45-9.5196 12.381-15.387-0.0543-4.6074-3.4814-5.8832-7.0917-5.9223-3.855-0.0417-6.7772 3.0952-7.3378 6.4492h-13.2c0.25451-10.459 12.07-15.623 20.537-15.881 9.3265-0.28376 20.602 6.7454 20.472 15.326-0.10675 7.0911-6.1775 10.999-11.151 14.712-2.9871 2.0535-4.2285 5.6075-4.4606 8.8346z"/>
  <path d="m-652.21 506.61a6.5267 5.5193 0 0 1-6.5267 5.5193 6.5267 5.5193 0 0 1-6.5267-5.5193 6.5267 5.5193 0 0 1 6.5267-5.5193 6.5267 5.5193 0 0 1 6.5267 5.5193" style="paint-order:normal"/>
 </g>
</svg>
