<?xml version="1.0" encoding="UTF-8"?>
<svg version="1.1" viewBox="0 0 128 128" xmlns="http://www.w3.org/2000/svg">
 <path d="m119.42 95.989c-17.67 30.594-56.806 41.076-87.411 23.413-30.605-17.663-41.092-56.784-23.422-87.378 17.67-30.594 56.806-41.076 87.411-23.413 30.605 17.663 41.092 56.784 23.422 87.378" fill="#fd5" stroke-width=".19993"/>
 <path d="m95.987 8.6467c-10.1-5.8292-21.128-8.5747-32.008-8.5619l-55.403 95.925c5.429 9.4253 13.322 17.599 23.422 23.429 10.082 5.8187 21.088 8.5647 31.95 8.5619l55.432-95.975c-5.4282-9.4039-13.31-17.559-23.392-23.378z" fill="#999" stroke-width=".19993"/>
 <path d="m34.541 107.02 6.9271 3.9978-5.999 10.387-6.9271-3.9978z" fill="#fff" style="paint-order:stroke fill markers"/>
 <path d="m67.992 127.97c3.3653-0.17755 6.7151-0.69569 9.9983-1.3943l47.113-81.417c-1.0365-3.192-1.7039-5.7024-4.1204-8.9951 0 0-52.991 91.95-52.991 91.807z" fill-opacity=".2" stroke-width=".19993"/>
 <path d="m88.532 13.536 6.9271 3.9978-9.9983 17.311-6.9271-3.9978z" fill="#fff" style="paint-order:stroke fill markers"/>
 <path d="m119.44 31.983-55.407 95.931c3.2441-3e-3 6.4738-0.24966 9.6629-0.73906l49.935-86.458c-1.1706-3.0055-2.572-5.9246-4.1912-8.7347z" fill="#fff" stroke-width=".19993"/>
 <path d="m64.024 2.6865e-6c-3.2441 0.0033537-6.4738 0.24966-9.6629 0.73906l-49.935 86.458c1.1705 3.0055 2.572 5.9246 4.1912 8.7347z" fill="#fff" stroke-width=".19993"/>
 <g stroke-width="8">
  <path d="m36.472 24h55.056c4.6935 0 8.472 3.7785 8.472 8.472v63.056c0 4.6935-3.7785 8.472-8.472 8.472h-55.056c-4.6935 0-8.472-3.7785-8.472-8.472v-63.056c0-4.6935 3.7785-8.472 8.472-8.472z" fill="none" stroke="#000" stroke-opacity=".2" style="paint-order:normal"/>
  <path d="m36.472 20h55.056c4.6935 0 8.472 3.7785 8.472 8.472v63.056c0 4.6935-3.7785 8.472-8.472 8.472h-55.056c-4.6935 0-8.472-3.7785-8.472-8.472v-63.056c0-4.6935 3.7785-8.472 8.472-8.472z" fill="#495aad" stroke="#fff" stroke-opacity=".98995" style="paint-order:normal"/>
  <path d="m53.651 80 1.7e-5 -40 12-1.7e-5s12 4.1e-5 12 12c-4e-5 12-12 12-12 12l-12 1e-5" fill="none" stroke="#fff" stroke-linecap="square"/>
 </g>
</svg>
