<?xml version="1.0" encoding="UTF-8"?>
<svg version="1.1" viewBox="0 0 128.02 128.02" xmlns="http://www.w3.org/2000/svg">
 <path d="m119.44 96.011c-17.673 30.611-56.815 41.099-87.426 23.426-30.611-17.673-41.099-56.815-23.426-87.426 17.673-30.611 56.815-41.099 87.426-23.426 30.611 17.673 41.099 56.815 23.426 87.426" fill="#fd5" stroke-width=".2"/>
 <g stroke-width="8">
  <path d="m35.908 28.011h55.056c4.6935 0 8.472 3.7785 8.472 8.472v63.056c0 4.6934-3.7785 8.4719-8.472 8.4719h-55.056c-4.6935 0-8.472-3.7785-8.472-8.4719v-63.056c0-4.6935 3.7785-8.472 8.472-8.472z" fill="none" stroke="#000" stroke-opacity=".2" style="paint-order:normal"/>
  <path d="m35.908 24.011h55.056c4.6935 0 8.472 3.7785 8.472 8.472v63.056c0 4.6935-3.7785 8.4719-8.472 8.4719h-55.056c-4.6935 0-8.472-3.7785-8.472-8.4719v-63.056c0-4.6935 3.7785-8.472 8.472-8.472z" fill="#495aad" stroke="#fff" stroke-opacity=".98995" style="paint-order:normal"/>
  <path d="m51.436 84.011v-40h12s12 0 12 12-12 12-12 12h-12" fill="none" stroke="#fff" stroke-linecap="square"/>
 </g>
 <g transform="translate(-896.07 -898.57)">
  <path d="m993.38 957.18c-4.3625 0-8.7117 1.6754-12.012 5.0254-5.5 5.5-6.5445 13.986-3.1445 20.486l-26 26v6l2 2h10l3-3v-6l1-1h6l6-6v-6l5-5c6.5 3.6 14.744 2.3125 20.144-3.1875 6.8-6.7 6.7996-17.599 0.1-24.299-3.35-3.35-7.7254-5.0254-12.088-5.0254zm3.6387 8.3242c1.325 0 2.6504 0.5 3.6504 1.5 2.1 2 2.1 5.3004 0 7.4004-2 2-5.3008 2-7.3008 0s-2-5.3004 0-7.4004c1-1 2.3254-1.5 3.6504-1.5z" fill-opacity=".2"/>
  <path d="m1005.5 958.21c-6.7-6.7-17.5-6.7-24.1 0-5.5 5.5-6.5437 13.988-3.1437 20.488l-26 26v6l2 2h4l27-27c6.5 3.6 14.744 2.3125 20.144-3.1875 6.8-6.7 6.8-17.6 0.1-24.3m-4.8 12.2c-2 2-5.3 2-7.3 0s-2-5.3 0-7.4c2-2 5.3-2 7.3 0 2.1 2 2.1 5.3 0 7.4" fill="#eda432"/>
  <path d="m967.23 1009.7v-6l-9 9h6z" fill="#d68c3a"/>
  <path d="m980.23 996.69v-6l-12.056 12h6.0563z" fill="#d68c3a"/>
  <path d="m981.23 981.69-29 29 2 2 29-29z" color="#000000" color-rendering="auto" dominant-baseline="auto" fill="#d68c3a" image-rendering="auto" shape-rendering="auto" solid-color="#000000" style="font-feature-settings:normal;font-variant-alternates:normal;font-variant-caps:normal;font-variant-ligatures:normal;font-variant-numeric:normal;font-variant-position:normal;isolation:auto;mix-blend-mode:normal;shape-padding:0;text-decoration-color:#000000;text-decoration-line:none;text-decoration-style:solid;text-indent:0;text-orientation:mixed;text-transform:none;white-space:normal"/>
 </g>
</svg>
