<?xml version="1.0" encoding="UTF-8"?>
<svg version="1.1" viewBox="0 0 128 128" xmlns="http://www.w3.org/2000/svg">
 <path d="m128 64c0 35.346-28.654 64-64 64s-64-28.654-64-64 28.654-64 64-64 64 28.654 64 64" fill="#9bbe55" stroke-width=".2"/>
 <path d="m64 32c-23.763 0-45.414 38.69-56.404 62.254 10.797 20.086 32.003 33.746 56.404 33.746s45.608-13.66 56.404-33.746c-10.99-23.564-32.641-62.254-56.404-62.254z" fill="#646464"/>
 <path d="m64 32c-16.01 0-31.074 17.581-42.56 36.26 6.223-2.1229 12.807-8.3832 19.06-8.2598 7.2347 0.1427 9.7684 8.7561 17 8.5 5.4229-0.1921 7.5872-5.6181 13-6 7.0555-0.4978 10.439 8.9081 17.5 8.5 6.6356-0.3836 11.061-3.722 14.209-9.4688-10.82-15.959-24.146-29.531-38.209-29.531z" fill="#f0f0f0"/>
</svg>
