<?xml version="1.0" encoding="UTF-8"?>
<svg version="1.1" viewBox="0 0 128 128" xmlns="http://www.w3.org/2000/svg" xmlns:cc="http://creativecommons.org/ns#" xmlns:dc="http://purl.org/dc/elements/1.1/" xmlns:rdf="http://www.w3.org/1999/02/22-rdf-syntax-ns#">
 <metadata>
  <rdf:RDF>
   <cc:Work rdf:about="">
    <dc:format>image/svg+xml</dc:format>
    <dc:type rdf:resource="http://purl.org/dc/dcmitype/StillImage"/>
    <dc:title/>
   </cc:Work>
  </rdf:RDF>
 </metadata>
 <path d="m119.42 95.995c-17.67 30.605-56.806 41.092-87.411 23.422s-41.092-56.806-23.422-87.411 56.806-41.092 87.411-23.422 41.092 56.806 23.422 87.411" fill="#529add" stroke="#9bbe55" stroke-width=".19997"/>
 <g transform="translate(0,6)" fill-opacity=".18824">
  <g fill-opacity=".18824">
   <path d="m64.07 76.044a32.726 30.128 0 0 0-32.728 30.129 32.726 30.128 0 0 0 0.80936 6.6514c21.116 11.274 46.051 8.9916 64.524-4.0881a32.726 30.128 0 0 0 0.12018-2.5633 32.726 30.128 0 0 0-32.726-30.129z" opacity=".996"/>
   <ellipse cx="62.377" cy="56.231" rx="27.965" ry="29.734" opacity=".996"/>
   <rect x="37.334" y="23.827" width="51.023" height="17.284" rx="1.3318" ry="4.8293"/>
   <rect x="38.315" y="17.088" width="49.118" height="12.778" rx="24.559" ry="4.8293"/>
   <path d="m62.508 27.154a26.171 15.891 0 0 0-26.141 15.147h52.283a26.171 15.891 0 0 0-26.143-15.147z"/>
   <path d="m86.869 42.312c-0.13142 0.06507-0.26615 0.10557-0.4043 0.10557h-47.52a24.126 11.25 0 0 0-0.15234 1.2523 24.126 11.25 0 0 0 24.127 11.249 24.126 11.25 0 0 0 24.127-11.249 24.126 11.25 0 0 0-0.17773-1.3579z"/>
   <rect x="34.761" y="40.753" width="55.75" height="7.1145" rx="2.3287" ry="7.1145"/>
   <ellipse cx="62.76" cy="33.886" rx="8.249" ry="6.6754"/>
  </g>
 </g>
 <g fill="#fff" stroke="#529add">
  <path d="m64.07 76.044a32.726 30.128 0 0 0-32.728 30.129 32.726 30.128 0 0 0 0.80936 6.6514c21.116 11.274 46.051 8.9916 64.524-4.0881a32.726 30.128 0 0 0 0.12018-2.5633 32.726 30.128 0 0 0-32.726-30.129z" opacity=".996" stroke-width="2.7047"/>
  <ellipse cx="62.377" cy="56.231" rx="27.965" ry="29.734" opacity=".996" stroke-width="3.3724"/>
 </g>
 <g>
  <rect x="37.334" y="23.827" width="51.023" height="17.284" rx="1.3318" ry="4.8293" fill="#192668"/>
  <rect x="38.315" y="17.088" width="49.118" height="12.778" rx="24.559" ry="4.8293" fill="#192668"/>
  <path d="m62.508 27.154a26.171 15.891 0 0 0-26.141 15.147h52.283a26.171 15.891 0 0 0-26.143-15.147z" fill="#1a2a7b"/>
  <path d="m86.869 42.312c-0.13142 0.06507-0.26615 0.10557-0.4043 0.10557h-47.52a24.126 11.25 0 0 0-0.15234 1.2523 24.126 11.25 0 0 0 24.127 11.249 24.126 11.25 0 0 0 24.127-11.249 24.126 11.25 0 0 0-0.17773-1.3579z" fill="#192668"/>
  <rect x="34.761" y="40.753" width="55.75" height="7.1145" rx="2.3287" ry="7.1145" fill="#192668"/>
  <ellipse cx="62.76" cy="33.886" rx="8.249" ry="6.6754" fill="#7b6d1a"/>
 </g>
</svg>
