<?xml version="1.0" encoding="UTF-8"?>
<svg version="1.1" viewBox="0 0 128.02 128.02" xmlns="http://www.w3.org/2000/svg">
 <path d="m119.44 96.011c-17.673 30.611-56.815 41.099-87.426 23.426-30.611-17.673-41.099-56.815-23.426-87.426 17.673-30.611 56.815-41.099 87.426-23.426 30.611 17.673 41.099 56.815 23.426 87.426" fill="#e45f5f" stroke-width=".2"/>
 <path d="m64.065 16.011 16 32 33.841 4.927-25.49 25.105 5.7715 33.707-31.753-16.484-30.274 15.905 5.8649-35.293-24.482-23.877 35.378-5.3284z" fill-opacity=".2" style="paint-order:normal"/>
 <path d="m64.065 12.011 16 32 33.841 4.927-25.49 25.105 5.7715 33.707-31.753-16.484-30.274 15.905 5.8649-35.293-24.482-23.877 35.378-5.3284z" fill="#fff" style="paint-order:normal"/>
</svg>
