<?xml version="1.0" encoding="UTF-8"?>
<svg version="1.1" viewBox="0 0 128 128" xmlns="http://www.w3.org/2000/svg">
 <path d="m128 64c0 35.346-28.654 64-64 64s-64-28.654-64-64 28.654-64 64-64 64 28.654 64 64" fill="#9bbe55" stroke-width=".2"/>
 <g transform="rotate(144.05 -4.7524 82.8)" stroke-width="1.2015">
  <path d="m-105.81 64.687c0.48492 1.2505 5.4011 5.0841 9.3045 8.0077-0.0371 0.0079-0.0969 0.01765-0.13158 0.02608l5.1664 3.7268c1.2748-0.42372 2.7034-1.067 4.1655-1.9494 2.3802-1.3574 4.3182-3.0186 5.7981-4.8696 1.2583-1.545 2.1978-3.254 2.7582-5.2209 0.02448-0.06156 0.07714-0.19138 0.07714-0.19138l-0.01239-0.01116c0.01067-0.0397 0.02665-0.07584 0.03703-0.11573l-3.5945-2.9791c-0.0017 0.0065-0.0035 0.01337-5e-3 0.02013l-1.8241-1.5735c12.259-2.1132 29.657 4.1972 45.769 8.3991 6.6681-8.3886 7.9832-14.998 8.9062-21.42 0.92303-6.4222 1.5064-13.015-2.4096-22.924l-46.283-4.8314 6.4925-2.9511c-0.0139-0.0018-0.09817-0.52493-0.1372-0.78624-0.05531-1.8144-0.44637-3.655-1.1603-5.3545-0.89871-2.1928-2.2905-4.3394-4.1919-6.3122-1.1551-1.2585-2.3429-2.2765-3.4468-3.0421l-5.4467 1.8253c0.07558 0.04362 0.21157 0.12428 0.30178 0.17624-4.631 1.6795-11.063 4.1402-11.927 5.2646-1.2247 1.595-2.4028 10.549-4.2008 14.925-0.0377-0.04568-0.0675-0.09099-0.10563-0.13673l-3.025 2.9216c3.31 3.996 4.4246 6.7905 3.8776 10.596-0.4786 3.3301-2.1477 5.3871-3.6102 7.1191-1.7348 1.9357-3.586 2.6131-3.586 2.6131l1.9054 2.5753c0.24445 0.41608 0.49043 0.82862 0.73248 1.2463 0.4108 4.8306-0.90705 13.384-0.19376 15.226z" fill-opacity=".2"/>
  <path d="m-83.159 3.859s-15.315 5.2037-16.659 6.9526c-1.3431 1.7491-2.6266 12.368-4.7375 16.07 0 0 5.008 5.6966 3.9653 12.952-1.0427 7.2549-7.4523 11.311-7.4523 11.311 0.96492 4.2658-0.77644 14.698 0.0197 16.754 0.79761 2.0568 14.009 11.482 14.009 11.482 9.7389-2.7274 13.128-11.951 13.128-11.951l-5.3997-4.6604c12.259-2.1132 29.659 4.1971 45.77 8.3991 6.6681-8.3886 7.9822-14.998 8.9052-21.42 0.92304-6.4222 1.5057-13.015-2.4104-22.924l-46.283-4.8312 6.4936-2.9511c-0.11674-0.01677-0.63724-9.9241-9.3499-15.182" fill="#e96f54"/>
  <path d="m-107.15 28.523c3.3101 3.996 4.4241 6.7893 3.8771 10.595-0.47861 3.3301-2.1476 5.3878-3.6101 7.1198-1.7348 1.9357-3.5864 2.6129-3.5864 2.6129l1.906 2.5751c0.25967 0.442 0.52288 0.88018 0.77924 1.3245 0 0 1.8875-1.3063 3.7754-3.4627 1.1566-1.2904 2.0928-2.7333 2.8926-4.075 0.98707-1.8004 1.5981-3.5334 1.8716-5.4363 0.34187-2.3786 0.05709-4.6046-0.60391-6.7632-0.72924-2.5326-2.2056-4.9292-4.2765-7.4119zm18.957-23.151c1.1209 0.64665 3.9423 2.2335 5.8439 4.2063 3.2766 3.3842 3.7731 7.3399 3.5317 11.554l4.8939-2.1143c0.05273-2.056-0.37028-4.1803-1.1844-6.1182-0.89871-2.1928-2.2902-4.3376-4.1916-6.3104-1.1551-1.2585-2.3443-2.2777-3.4482-3.0433zm-10.66 70.561 5.1668 3.728c1.2748-0.42372 2.7034-1.0674 4.1655-1.9498 2.3802-1.3574 4.3178-3.0198 5.7977-4.8707 1.3275-1.63 2.3143-3.4318 2.8599-5.5384l-3.5935-2.9795c-0.95579 4.1112-3.9141 7.4143-8.0112 9.7388-2.3801 1.3574-5.1276 1.5667-6.3852 1.8715z" fill="#22648c"/>
 </g>
 <g transform="matrix(2.0197,0,0,-2.0197,5.7418,80.46)" stroke-width=".43479">
  <path d="m22.562 32.549-6.0796-0.02582c-0.95859 0.01952-1.6116-0.52923-1.9654-1.0347-0.01795-0.02565-0.06998-0.10678-0.12706-0.1943l-0.0034-0.0054c-0.10581-0.16236-0.23371-0.35802-0.23371-0.35802s0.01774 0.01063 0.01903 0.01155l-2.5768-4.1652c-0.18091-0.27577-0.20759-0.61189-0.06658-0.88589 0.06738-0.13301 0.26508-0.37078 0.3981-0.45857l4.3669-2.7079c0.40968-0.26868 0.92631-0.11232 1.195 0.29824l1.3526 2.1869 1.3696-2.6876-1.5802-0.80504c-0.31834-0.16316-0.51006-0.50204-0.48168-0.85939 0.0099-0.11971 0.04233-0.23248 0.09374-0.33357 0.10557-0.20572 0.28825-0.36663 0.51698-0.44022l7.1564-2.3255c0.4655-0.15163 0.96635 0.10378 1.1162 0.5693l2.3255 7.1571c0.07447 0.22789 0.05096 0.47045-0.05367 0.67528-0.05231 0.10197-0.12379 0.19616-0.21333 0.27242-0.27402 0.2341-0.65883 0.27865-0.97894 0.11549l-1.5802-0.80504-3.2209 6.3208c-0.15336 0.29971-0.46046 0.48506-0.74864 0.48506zm-9.3079-10.288c-0.05885-0.0025-0.11858-0.01047-0.17799-0.02513l-7.3113-1.7779c-0.23322-0.05852-0.42696-0.20423-0.54759-0.40286-0.059375-0.09754-0.10091-0.20544-0.11955-0.32338-0.054958-0.3538 0.11054-0.70673 0.41646-0.89472l1.515-0.92121-3.6869-6.0599c-0.17468-0.2873-0.17301-0.64726-0.020383-0.892l3.2141-5.1618c0.4877-0.82466 1.2973-1.0934 1.9144-1.1271 0.031235-0.00183 0.12759-0.00352 0.23096-0.00611 0.19566-0.0049 0.43549-0.01087 0.43549-0.01087s-0.018261 0.00959-0.019722 0.010192l4.8969-0.00611c0.32985-0.00975 0.62979 0.14562 0.78941 0.40897 0.07715 0.12592 0.17562 0.41988 0.18004 0.5795l0.01221 5.1387c0.01242 0.48947-0.39211 0.84704-0.88249 0.86211l-2.5707 0.0014 1.5673 2.5761 1.515-0.92189c0.30682-0.18621 0.69532-0.17028 0.9844 0.04076 0.09576 0.07094 0.17451 0.15878 0.23301 0.25544 0.12059 0.19774 0.16139 0.43711 0.10463 0.67121l-1.7792 7.3106c-0.10164 0.41743-0.48157 0.69218-0.89337 0.67596zm17.167-4.3432c-0.14894 0-0.44999-0.06829-0.58832-0.1481l-4.3968-2.6604c-0.42474-0.24296-0.52036-0.7748-0.27649-1.2004l1.3349-2.1984h-3.0171v1.7738c0 0.35824-0.21524 0.68275-0.54686 0.81931-0.10988 0.04611-0.22529 0.06726-0.33969 0.06726-0.23051 0-0.45764-0.09083-0.62704-0.2602l-5.3208-5.3201c-0.34672-0.34671-0.34672-0.90739 0-1.2541l5.3208-5.3201c0.16939-0.16937 0.39653-0.2602 0.62704-0.2602 0.1144 0 0.22974 0.021837 0.33969 0.067939 0.33162 0.13656 0.54686 0.46107 0.54686 0.81931v1.7731h7.0939c0.33608 0 0.64252 0.18939 0.77108 0.44566l2.7392 5.4295c0.45222 0.84505 0.26018 1.6764-0.02991 2.2208-0.01471 0.02765-0.06369 0.1099-0.11548 0.19973v0.0014l-0.01155 0.0197c-0.09461 0.16385-0.20585 0.35599-0.20585 0.35599s0.0012-0.01787 0.0014-0.01902l-2.5388 4.1855c-0.16404 0.28642-0.45163 0.46197-0.76022 0.46197z" fill-opacity=".2"/>
  <path d="m16.335 34.444c-0.14287 0.0111-0.25872-0.02285-0.32589-0.12572l-1.6972-1.027-2.7947-4.517c-0.1809-0.27577-0.20772-0.61181-0.06673-0.88581 0.06739-0.13301 0.26541-0.37155 0.39842-0.45934l4.3671-2.7077c0.40966-0.26868 0.92658-0.11271 1.1953 0.29785l3.8053 6.1542c0.18089 0.27666 0.18845 0.61478 0.04835 0.88967-0.06739 0.13124-0.16984 0.2506-0.30462 0.3375l-3.2193 1.3703c-0.30795 0.20151-0.97745 0.63976-1.4061 0.67306zm14.009-14.53c-0.14897 0-0.4506-0.06815-0.58893-0.14796l-4.3962-2.6603c-0.42474-0.24293-0.52042-0.77446-0.27657-1.2001l3.755-6.1852c0.16316-0.28641 0.46215-0.44677 0.77073-0.44677 0.14897 0 0.3007 0.037204 0.43903 0.11701l2.6835 2.2474c0.42471 0.243 1.5165 0.86819 1.2736 1.2929l-0.14506 1.9795-2.7551 4.5422c-0.16405 0.28641-0.45151 0.46128-0.76009 0.46128zm-23.564-6.2625c-0.32987 0.009759-0.62087-0.16214-0.78137-0.4255-0.078037-0.12768-0.12507-0.27645-0.12862-0.43517l0.5251-3.462c-0.012423-0.4885-0.046656-1.7459 0.44194-1.761l1.7677-0.90225 5.3119-0.00677c0.32987-0.00976 0.62949 0.14473 0.7891 0.40809 0.07715 0.12591 0.17547 0.42061 0.17987 0.58022l0.01257 5.1388c0.01241 0.48947-0.39158 0.84656-0.88194 0.86163z" fill="#ddd" stroke-width="1"/>
  <path d="m22.485 34.546-6.0798-0.02611c-0.95858 0.01952-1.6112-0.52933-1.965-1.0347-0.05145-0.0736-0.36361-0.55798-0.36361-0.55798s1.2869 0.95452 2.0317-0.50769l4.0258-7.8997-1.5811-0.80554c-0.31833-0.16316-0.509-0.50137-0.48062-0.85873 0.0099-0.11971 0.04238-0.23352 0.0938-0.3346 0.10555-0.20572 0.28764-0.3664 0.5164-0.44l7.1561-2.3248c0.46552-0.15163 0.96607 0.10308 1.116 0.56862l2.3257 7.157c0.07449 0.22789 0.05143 0.47113-0.05319 0.67596-0.05231 0.10198-0.12418 0.19548-0.21372 0.27174-0.27401 0.2341-0.65851 0.27824-0.97864 0.11508l-1.5801-0.80458-3.2212 6.3215c-0.15338 0.29971-0.46029 0.48449-0.74849 0.48449zm-9.3077-10.288c-0.05885-0.0025-0.11854-0.0095-0.17794-0.02418l-7.3108-1.7784c-0.23321-0.058526-0.42772-0.20366-0.54831-0.40229-0.059404-0.097542-0.10032-0.20603-0.11895-0.32396-0.054963-0.3538 0.10993-0.70652 0.41583-0.89451l1.5153-0.92159-3.6863-6.0595c-0.1747-0.2873-0.17295-0.64784-0.02031-0.89258l3.2135-5.1611c0.48769-0.82466 1.2976-1.0939 1.9147-1.1276 0.090463-0.0053 0.66629-0.016438 0.66629-0.016438s-1.4875 0.59394-0.63534 1.995l4.6079 7.5758 1.5153-0.92159c0.3068-0.18621 0.69536-0.17042 0.98444 0.04062 0.09577 0.07094 0.17454 0.15865 0.23306 0.2553 0.1206 0.19774 0.16119 0.43702 0.10444 0.67112l-1.7793 7.3098c-0.10163 0.41743-0.48175 0.69218-0.89354 0.67596zm9.3358-7.8901c-0.23052 0-0.45725-0.09077-0.62664-0.26013l-5.3206-5.3197c-0.34671-0.34671-0.34671-0.90755 0-1.2542l5.3206-5.3206c0.16939-0.16937 0.39611-0.25917 0.62664-0.25917 0.1144 0 0.23044 0.021597 0.3404 0.067692 0.33163 0.13656 0.54638 0.46084 0.54638 0.81908v1.7735h7.0942c0.3361 0 0.64218 0.18954 0.77073 0.4458l2.7396 5.4289c0.45222 0.84505 0.26011 1.6758-0.02998 2.2203-0.04253 0.0798-0.33266 0.57732-0.33266 0.57732s0.26532-1.5792-1.3751-1.5792h-8.8668v1.7735c0 0.35824-0.21571 0.68349-0.54734 0.82005-0.10986 0.04611-0.22503 0.06672-0.33943 0.06672z" fill="#fff" stroke-width="1"/>
 </g>
</svg>
