<?xml version="1.0" encoding="UTF-8"?>
<svg version="1.1" viewBox="0 0 128.03 128.03" xmlns="http://www.w3.org/2000/svg">
 <path d="m123.35 88.017c-13.255 32.767-50.563 48.584-83.33 35.33-32.767-13.255-48.584-50.563-35.33-83.33 13.255-32.767 50.563-48.584 83.33-35.33s48.584 50.563 35.33 83.33" fill="#c8c4b7" stroke-width=".2"/>
 <path d="m64.194 20.017-36 12-0.17677 68 36.177-12 35.823 12 0.17678-68z" fill-opacity=".2" style="paint-order:normal"/>
 <path d="m31.017 101.02 33-11 33 11v11h-24v-9h-18v9h-24z" fill-opacity=".2" fill-rule="evenodd"/>
 <path d="m28.017 28.017 36-12v68l-36 12z" fill="#c84747" style="paint-order:normal"/>
 <path d="m64.017 16.017 36 12v68l-36-12z" fill="#a33" style="paint-order:normal"/>
 <path d="m31.017 97.017 33.177-11 32.823 11v11h-24v-9h-18v9h-24z" fill="#fff" fill-rule="evenodd"/>
</svg>
