<?xml version="1.0" encoding="UTF-8"?>
<svg version="1.1" viewBox="0 0 128 128" xmlns="http://www.w3.org/2000/svg">
 <path d="m128 64c0 35.346-28.654 64-64 64-35.346 0-64-28.654-64-64s28.654-64 64-64c35.346 0 64 28.654 64 64" fill="#e9a76f" stroke-width=".2"/>
 <g fill-opacity=".2">
  <path d="m23.996 42.871 29.378 16.961-9.423 16.321-29.378-16.961z" style="paint-order:normal"/>
  <path d="m53.374 59.832 42.435 24.5-9.423 16.321-42.435-24.5z" style="paint-order:normal"/>
  <path d="m97.441 85.274 4.8453 2.7974-9.423 16.321-4.8453-2.7974z" style="paint-order:normal"/>
  <path d="m103.97 89.043 4.8963 2.8269-9.423 16.321-4.8963-2.8269z" style="paint-order:normal"/>
  <path d="m82.969 11.715c-21.598 38.816 60.697 47.303 24.259 70.78 6.9403-33.163-77.424-20.827-24.259-70.78z" fill-rule="evenodd"/>
 </g>
 <g>
  <path d="m24.183 38.41 29.378 16.961-9.423 16.321-29.378-16.961z" fill="#ffd47e" style="paint-order:normal"/>
  <path d="m53.561 55.371 42.435 24.5-9.423 16.321-42.435-24.5z" fill="#fff" style="paint-order:normal"/>
  <path d="m97.628 80.813 4.8453 2.7974-9.423 16.321-4.8453-2.7974z" fill="#666" style="paint-order:normal"/>
  <path d="m104.16 84.582 4.8963 2.8269-9.423 16.321-4.8963-2.8269z" fill="#7b3b3b" style="paint-order:normal"/>
  <path d="m83.032 7.8706c-21.599 38.816 60.697 47.303 24.259 70.78 6.9403-33.163-77.424-20.827-24.259-70.78z" fill="#666" fill-rule="evenodd"/>
 </g>
</svg>
