<?xml version="1.0" encoding="UTF-8" standalone="no"?>
<svg
   version="1.1"
   viewBox="0 0 128 128"
   id="svg12"
   xmlns="http://www.w3.org/2000/svg"
   xmlns:svg="http://www.w3.org/2000/svg">
  <defs
     id="defs16" />
  <path
     d="m128 64c0 35.346-28.654 64-64 64-35.346 0-64-28.654-64-64s28.654-64 64-64c35.346 0 64 28.654 64 64"
     fill="#e9a76f"
     stroke-width=".2"
     id="path2" />
  <g
     id="g2108"
     transform="translate(-0.5068935,2.620068)">
    <path
       d="M 60.107255,108.769 V 96.183263 l -6.661982,3.953137 -3.260531,-2.051967 v -4.42347 l 9.922513,-5.925728 v -8.27141 l -7.938018,4.86402 v -8.76358 l -7.938009,4.15556 v 11.88718 l -3.280386,2.440938 -2.673128,-2.204778 v -7.96184 l -11.061629,6.19563 -4.814408,-1.98252 v -5.01882 l 11.281909,-6.29088 -7.3129,-3.61576 v -4.60405 l 4.213104,-2.23654 10.347207,6.08846 7.168031,-4.13571 -0.16273,-0.12899 -7.273209,-4.2131 7.080712,-4.42148 -7.098573,-4.13372 -10.345223,6.0567 -3.929319,-1.92298 v -4.57825 l 7.029116,-3.92535 -10.998125,-6.058695 v -5.018812 l 4.606035,-2.210738 11.270002,6.344461 V 35.98134 l 2.94699,-2.236537 3.855892,2.341716 -0.111132,12.115401 7.289095,4.211115 0.06549,-8.555196 7.783227,4.165475 v -8.269431 l -9.922513,-5.9297 V 29.43049 l 3.260531,-2.08373 6.661982,3.953134 V 18.741948 l 3.957101,-2.627484 3.980917,2.627484 v 12.557946 l 7.751468,-4.030529 4.15555,2.419111 v 3.953133 l -11.907018,6.112274 v 8.269431 l 7.938008,-4.498872 v 8.997743 l 7.93802,-4.135706 V 35.43957 l 2.88747,-1.718581 3.06604,1.716597 v 8.269431 l 11.593498,-6.112275 4.28254,2.417127 v 4.681446 l -10.904828,6.29088 6.935828,3.87772 v 4.47308 l -3.631628,1.97656 -10.57146,-6.26706 -7.30099,4.65564 7.04299,4.42148 -7.26131,4.21112 7.48555,3.95313 10.6945,-5.92573 3.542348,2.41316 v 4.26669 l -6.588558,3.74476 10.557558,6.29087 v 4.94142 l -5.00492,2.05793 -10.871118,-5.9297 v 7.84872 l -3.01644,2.081738 -2.93707,-2.081738 v -11.911 l -7.93802,-4.39171 v 8.27142 l -7.938008,-4.50086 v 8.27142 l 9.922518,5.925728 v 4.68145 l -3.268476,1.793987 -6.654042,-3.949167 v 12.585727 l -3.980917,2.5997 z m -2.909284,-44.843845 3.742796,5.77093 h 6.973549 l 3.201006,-5.77093 -3.381596,-6.13609 h -6.973569 z"
       id="path885-6"
       style="font-variation-settings:normal;opacity:1;vector-effect:none;fill:#000000;fill-opacity:0.2;stroke-width:1;stroke-linecap:butt;stroke-linejoin:miter;stroke-miterlimit:4;stroke-dasharray:none;stroke-dashoffset:0;stroke-opacity:1;-inkscape-stroke:none;stop-color:#000000;stop-opacity:1" />
    <path
       d="M 60.968491,104.04372 V 91.45799 l -6.661982,3.953133 -3.260531,-2.051973 v -4.423463 l 9.922513,-5.92573 v -8.271416 l -7.938018,4.864021 V 70.83899 l -7.938009,4.155552 v 11.887183 l -3.280386,2.440941 -2.673128,-2.204785 v -7.961832 l -11.061629,6.195623 -4.814408,-1.98252 V 78.35034 l 11.281909,-6.29088 -7.3129,-3.615767 v -4.604051 l 4.213104,-2.236537 10.347207,6.08846 7.168031,-4.135707 -0.16273,-0.128993 -7.273209,-4.213104 7.080712,-4.421476 -7.098573,-4.133723 -10.345223,6.056708 -3.929319,-1.922985 V 50.214033 L 34.261038,46.288683 23.262913,40.22999 V 35.211178 L 27.868948,33.00044 39.13895,39.344901 V 31.25606 l 2.94699,-2.236537 3.855892,2.341716 -0.111132,12.115401 7.289095,4.211118 0.06549,-8.555199 7.783227,4.165475 v -8.269431 l -9.922513,-5.9297 V 24.70521 l 3.260531,-2.08373 6.661982,3.953134 V 14.016668 l 3.957101,-2.627484 3.980917,2.627484 v 12.557946 l 7.751472,-4.030529 4.15555,2.419111 v 3.953133 L 68.90653,35.028603 v 8.269431 l 7.938012,-4.498872 v 8.997744 l 7.93802,-4.135707 V 30.71429 l 2.88747,-1.718581 3.06604,1.716597 v 8.269431 l 11.593498,-6.112275 4.28254,2.417127 v 4.681446 l -10.904828,6.29088 6.935828,3.877722 v 4.473074 l -3.631628,1.976566 -10.57146,-6.267065 -7.30099,4.655647 7.04299,4.421477 -7.26131,4.211119 7.48555,3.953133 10.6945,-5.925731 3.542348,2.413158 V 68.3147 l -6.588558,3.74476 10.557558,6.29088 v 4.941416 l -5.00492,2.057932 -10.871118,-5.9297 v 7.848716 l -3.01644,2.081745 -2.93707,-2.081745 V 75.357707 l -7.93802,-4.391709 v 8.271415 L 68.90653,74.736557 v 8.271415 l 9.922522,5.925731 v 4.68145 l -3.26848,1.79399 -6.654042,-3.949163 v 12.58572 l -3.980917,2.5997 z m -2.909284,-44.84385 3.742796,5.770939 h 6.973549 l 3.201006,-5.770939 -3.381596,-6.136088 h -6.973569 z"
       id="path885"
       style="font-variation-settings:normal;opacity:1;vector-effect:none;fill:#ffffff;fill-opacity:1;stroke-width:1;stroke-linecap:butt;stroke-linejoin:miter;stroke-miterlimit:4;stroke-dasharray:none;stroke-dashoffset:0;stroke-opacity:1;-inkscape-stroke:none;stop-color:#000000;stop-opacity:1" />
  </g>
</svg>
