<?xml version="1.0" encoding="UTF-8"?>
<svg version="1.1" viewBox="0 0 128.02 128.07" xmlns="http://www.w3.org/2000/svg">
 <path d="m119.44 96.041c-17.673 30.611-56.815 41.099-87.426 23.426-30.611-17.673-41.099-56.815-23.426-87.426 17.673-30.611 56.815-41.099 87.426-23.426 30.611 17.673 41.099 56.815 23.426 87.426" fill="#fd5" stroke-width=".2"/>
 <g>
  <path d="m68.002 128.04c3.3659-0.17764 6.7162-0.69606 10-1.395l47.121-81.461c-1.0366-3.1937-1.7042-5.7055-4.1211-9 0 0-53 92-53 91.856z" fill-opacity=".2" stroke-width=".2"/>
  <path d="m64.034-1.9691e-6c-3.2446 0.0033555-6.4749 0.24979-9.6645 0.73946l-49.943 86.504c1.1707 3.0071 2.5725 5.9278 4.1919 8.7395z" fill="#fff" stroke-width=".2"/>
  <path d="m96.003 8.6514c-10.102-5.8323-21.132-8.5793-32.014-8.5666l-55.412 95.977c5.4299 9.4304 13.324 17.609 23.426 23.441 10.084 5.8218 21.092 8.5693 31.955 8.5666l55.441-96.027c-5.4291-9.4089-13.313-17.569-23.396-23.39z" fill="#999" stroke-width=".2"/>
  <path d="m119.46 32-55.416 95.983c3.2446-3e-3 6.4749-0.2498 9.6645-0.73947l49.943-86.504c-1.1707-3.0071-2.5725-5.9278-4.1919-8.7395z" fill="#fff" stroke-width=".2"/>
  <g>
   <path d="m72.654 25.1a6 6 0 0 1-8.1962 2.1962 6 6 0 0 1-2.1962-8.1962 6 6 0 0 1 8.1962-2.1962 6 6 0 0 1 2.1962 8.1962" fill="#bbb" style="paint-order:stroke fill markers"/>
   <path d="m93.96 25.41a6 6 0 0 1-8.1962 2.1962 6 6 0 0 1-2.1962-8.1962 6 6 0 0 1 8.1962-2.1962 6 6 0 0 1 2.1962 8.1962" fill="#bbb" style="paint-order:stroke fill markers"/>
   <path d="m67.812 46a6 6 0 0 1-8.1962 2.1962 6 6 0 0 1-2.1962-8.1962 6 6 0 0 1 8.1962-2.1962 6 6 0 0 1 2.1962 8.1962" fill="#aaa" style="paint-order:stroke fill markers"/>
   <path d="m36.033 87.427a6 6 0 0 1-8.1962 2.1962 6 6 0 0 1-2.1962-8.1962 6 6 0 0 1 8.1962-2.1962 6 6 0 0 1 2.1962 8.1962" fill="#ccc" style="paint-order:stroke fill markers"/>
   <path d="m40.978 102.63a6 6 0 0 1-8.1962 2.1962 6 6 0 0 1-2.1962-8.1961 6 6 0 0 1 8.1962-2.1962 6 6 0 0 1 2.1962 8.1962" fill="#ccc" style="paint-order:stroke fill markers"/>
   <path d="m48.278 62.065a6 6 0 0 1-8.1962 2.1962 6 6 0 0 1-2.1962-8.1962 6 6 0 0 1 8.1962-2.1962 6 6 0 0 1 2.1962 8.1962" fill="#bbb" style="paint-order:stroke fill markers"/>
   <path d="m105.25 41.735a6 6 0 0 1-8.1961 2.1962 6 6 0 0 1-2.1962-8.1962 6 6 0 0 1 8.1962-2.1962 6 6 0 0 1 2.1962 8.1962" fill="#aaa" style="paint-order:stroke fill markers"/>
   <path d="m52.243 121.18a6 6 0 0 1-8.1962 2.1962 6 6 0 0 1-2.1962-8.1962 6 6 0 0 1 8.1962-2.1962 6 6 0 0 1 2.1962 8.1962" fill="#aaa" style="paint-order:stroke fill markers"/>
   <path d="m97.622 44.038a6 6 0 0 1-8.1962 2.1962 6 6 0 0 1-2.1962-8.1962 6 6 0 0 1 8.1962-2.1962 6 6 0 0 1 2.1962 8.1962" fill="#bbb" style="paint-order:stroke fill markers"/>
   <path d="m25.07 100.85a6 6 0 0 1-8.1962 2.1962 6 6 0 0 1-2.1962-8.1962 6 6 0 0 1 8.1962-2.1962 6 6 0 0 1 2.1962 8.1962" fill="#bbb" style="paint-order:stroke fill markers"/>
   <path d="m62.128 36.081a6 6 0 0 1-8.1962 2.1962 6 6 0 0 1-2.1962-8.1962 6 6 0 0 1 8.1962-2.1962 6 6 0 0 1 2.1962 8.1962" fill="#ccc" style="paint-order:stroke fill markers"/>
   <path d="m87.7 14.375a6 6 0 0 1-8.1962 2.1962 6 6 0 0 1-2.1962-8.1962 6 6 0 0 1 8.1962-2.1962 6 6 0 0 1 2.1962 8.1962" fill="#aaa" style="paint-order:stroke fill markers"/>
   <path d="m80.011 36.328a4 4 0 0 1-5.4641 1.4641 4 4 0 0 1-1.4641-5.4641 4 4 0 0 1 5.4641-1.4641 4 4 0 0 1 1.4641 5.4641" fill="#bbb" style="paint-order:stroke fill markers"/>
   <path d="m104.53 22.238a4 4 0 0 1-5.4641 1.4641 4 4 0 0 1-1.4641-5.4641 4 4 0 0 1 5.4641-1.4641 4 4 0 0 1 1.4641 5.4641" fill="#bbb" style="paint-order:stroke fill markers"/>
   <path d="m58.553 46.269a4 4 0 0 1-5.4641 1.4641 4 4 0 0 1-1.4641-5.4641 4 4 0 0 1 5.4641-1.4641 4 4 0 0 1 1.4641 5.4641" fill="#bbb" style="paint-order:stroke fill markers"/>
   <path d="m42.787 72.608a4 4 0 0 1-5.4641 1.4641 4 4 0 0 1-1.4641-5.4641 4 4 0 0 1 5.4641-1.4641 4 4 0 0 1 1.4641 5.4641" fill="#777" style="paint-order:stroke fill markers"/>
   <path d="m31.148 75.13a4 4 0 0 1-5.4641 1.4641 4 4 0 0 1-1.4641-5.4641 4 4 0 0 1 5.4641-1.4641 4 4 0 0 1 1.4641 5.4641" fill="#bbb" style="paint-order:stroke fill markers"/>
   <path d="m28.451 110.03a4 4 0 0 1-5.4641 1.4641 4 4 0 0 1-1.4641-5.4641 4 4 0 0 1 5.4641-1.4641 4 4 0 0 1 1.4641 5.4641" fill="#ccc" style="paint-order:stroke fill markers"/>
   <path d="m68.074 115.82a4 4 0 0 1-5.4641 1.4641 4 4 0 0 1-1.4641-5.4641 4 4 0 0 1 5.4641-1.4641 4 4 0 0 1 1.4641 5.4641" fill="#bbb" style="paint-order:stroke fill markers"/>
   <path d="m73.993 8.5668a4 4 0 0 1-5.4641 1.4641 4 4 0 0 1-1.4641-5.4641 4 4 0 0 1 5.4641-1.4641 4 4 0 0 1 1.4641 5.4641" fill="#bbb" style="paint-order:stroke fill markers"/>
   <path d="m113.12 32.759a4 4 0 0 1-5.4641 1.4641 4 4 0 0 1-1.4641-5.4641 4 4 0 0 1 5.4641-1.4641 4 4 0 0 1 1.4641 5.4641" fill="#bbb" style="paint-order:stroke fill markers"/>
   <path d="m86.475 33.132a2 2 0 0 1-2.732 0.73205 2 2 0 0 1-0.73205-2.7321 2 2 0 0 1 2.7321-0.73205 2 2 0 0 1 0.73205 2.732" fill="#ccc" style="paint-order:stroke fill markers"/>
   <path d="m79.388 24.858a2 2 0 0 1-2.732 0.73205 2 2 0 0 1-0.73205-2.732 2 2 0 0 1 2.732-0.73205 2 2 0 0 1 0.73205 2.732" fill="#ccc" style="paint-order:stroke fill markers"/>
   <path d="m68.738 33.71a2 2 0 0 1-2.732 0.73205 2 2 0 0 1-0.73205-2.7321 2 2 0 0 1 2.7321-0.73205 2 2 0 0 1 0.73205 2.7321" fill="#777" style="paint-order:stroke fill markers"/>
   <path d="m74.723 39.387a2 2 0 0 1-2.732 0.73205 2 2 0 0 1-0.73205-2.7321 2 2 0 0 1 2.732-0.73205 2 2 0 0 1 0.73205 2.732" fill="#ccc" style="paint-order:stroke fill markers"/>
   <path d="m47.537 76.324a2 2 0 0 1-2.7321 0.73205 2 2 0 0 1-0.73205-2.7321 2 2 0 0 1 2.7321-0.73205 2 2 0 0 1 0.73205 2.7321" fill="#ccc" style="paint-order:stroke fill markers"/>
   <path d="m40.792 91.528a2 2 0 0 1-2.732 0.73205 2 2 0 0 1-0.73205-2.732 2 2 0 0 1 2.7321-0.73205 2 2 0 0 1 0.73205 2.732" fill="#bbb" style="paint-order:stroke fill markers"/>
   <path d="m56.77 113.13a2 2 0 0 1-2.7321 0.73205 2 2 0 0 1-0.73205-2.732 2 2 0 0 1 2.7321-0.73205 2 2 0 0 1 0.73205 2.732" fill="#ccc" style="paint-order:stroke fill markers"/>
   <path d="m31.812 115.31a2 2 0 0 1-2.7321 0.73205 2 2 0 0 1-0.73205-2.732 2 2 0 0 1 2.7321-0.73205 2 2 0 0 1 0.73205 2.732" fill="#ccc" style="paint-order:stroke fill markers"/>
   <path d="m59.177 125.91a2 2 0 0 1-2.7321 0.73205 2 2 0 0 1-0.73205-2.732 2 2 0 0 1 2.7321-0.73205 2 2 0 0 1 0.73205 2.732" fill="#bbb" style="paint-order:stroke fill markers"/>
   <path d="m43.384 51.266a2 2 0 0 1-2.732 0.73205 2 2 0 0 1-0.73205-2.732 2 2 0 0 1 2.732-0.73205 2 2 0 0 1 0.73205 2.732" fill="#777" style="paint-order:stroke fill markers"/>
   <path d="m60.942 21.855a2 2 0 0 1-2.7321 0.73205 2 2 0 0 1-0.73205-2.7321 2 2 0 0 1 2.7321-0.73205 2 2 0 0 1 0.73205 2.7321" fill="#bbb" style="paint-order:stroke fill markers"/>
   <path d="m97.378 28.746a2 2 0 0 1-2.732 0.73205 2 2 0 0 1-0.73205-2.7321 2 2 0 0 1 2.7321-0.73205 2 2 0 0 1 0.73205 2.7321" fill="#ccc" style="paint-order:stroke fill markers"/>
   <path d="m110.97 41.21a2 2 0 0 1-2.732 0.73205 2 2 0 0 1-0.73205-2.7321 2 2 0 0 1 2.732-0.73205 2 2 0 0 1 0.73205 2.7321" fill="#ccc" style="paint-order:stroke fill markers"/>
   <path d="m34.286 61.025a2 2 0 0 1-2.7321 0.73205 2 2 0 0 1-0.73205-2.7321 2 2 0 0 1 2.7321-0.73205 2 2 0 0 1 0.73205 2.7321" fill="#aaa" style="paint-order:stroke fill markers"/>
   <path d="m49.677 37.867a2 2 0 0 1-2.7321 0.73205 2 2 0 0 1-0.73205-2.732 2 2 0 0 1 2.7321-0.73205 2 2 0 0 1 0.73205 2.732" fill="#aaa" style="paint-order:stroke fill markers"/>
   <path d="m51.199 51.13a3.225 3.225 0 0 1-4.4054 1.1804 3.225 3.225 0 0 1-1.1804-4.4055 3.225 3.225 0 0 1 4.4055-1.1804 3.225 3.225 0 0 1 1.1804 4.4054" fill="#ccc" style="paint-order:stroke fill markers"/>
   <path d="m41.157 112.73a3.225 3.225 0 0 1-4.4055 1.1804 3.225 3.225 0 0 1-1.1804-4.4054 3.225 3.225 0 0 1 4.4055-1.1804 3.225 3.225 0 0 1 1.1804 4.4055" fill="#777" style="paint-order:stroke fill markers"/>
   <path d="m22.74 88.672a3.225 3.225 0 0 1-4.4055 1.1804 3.225 3.225 0 0 1-1.1804-4.4055 3.225 3.225 0 0 1 4.4054-1.1804 3.225 3.225 0 0 1 1.1804 4.4055" fill="#777" style="paint-order:stroke fill markers"/>
   <path d="m62.999 119.21a3.225 3.225 0 0 1-4.4054 1.1804 3.225 3.225 0 0 1-1.1804-4.4054 3.225 3.225 0 0 1 4.4055-1.1804 3.225 3.225 0 0 1 1.1804 4.4054" fill="#777" style="paint-order:stroke fill markers"/>
   <path d="m77.575 16.857a3.225 3.225 0 0 1-4.4054 1.1804 3.225 3.225 0 0 1-1.1804-4.4054 3.225 3.225 0 0 1 4.4054-1.1804 3.225 3.225 0 0 1 1.1804 4.4054" fill="#ccc" style="paint-order:stroke fill markers"/>
   <path d="m98.961 16.8a3.225 3.225 0 0 1-4.4054 1.1804 3.225 3.225 0 0 1-1.1804-4.4054 3.225 3.225 0 0 1 4.4054-1.1804 3.225 3.225 0 0 1 1.1804 4.4054" fill="#777" style="paint-order:stroke fill markers"/>
  </g>
 </g>
 <g transform="matrix(1.299 .75 -.75 1.299 586.37 246.25)" stroke-width=".66667">
  <path transform="rotate(-30)" d="m-318.91-113.38a21.333 21.333 0 0 1-21.333 21.333 21.333 21.333 0 0 1-21.333-21.333 21.333 21.333 0 0 1 21.333-21.333 21.333 21.333 0 0 1 21.333 21.333" fill="#999" style="paint-order:normal"/>
  <path d="m-359.88 75.545a6 6 0 0 1-6 6 6 6 0 0 1-6-6 6 6 0 0 1 6-6 6 6 0 0 1 6 6" fill="#aaa" style="paint-order:stroke fill markers"/>
  <path d="m-329.27 75.557a6 6 0 0 1-6 6 6 6 0 0 1-6-6 6 6 0 0 1 6-6 6 6 0 0 1 6 6" fill="#aaa" style="paint-order:stroke fill markers"/>
  <path d="m-352.56 61.136a6 6 0 0 1-6 6 6 6 0 0 1-6-6 6 6 0 0 1 6-6 6 6 0 0 1 6 6" fill="#bbb" style="paint-order:stroke fill markers"/>
  <path d="m-340.74 74.051a5.6779 5.6779 0 0 1-5.6779 5.6779 5.6779 5.6779 0 0 1-5.6779-5.6779 5.6779 5.6779 0 0 1 5.6779-5.6779 5.6779 5.6779 0 0 1 5.6779 5.6779" fill="#777" style="paint-order:stroke fill markers"/>
  <path d="m-353.08 90.828a4 4 0 0 1-4 4 4 4 0 0 1-4-4 4 4 0 0 1 4-4 4 4 0 0 1 4 4" fill="#bbb" style="paint-order:stroke fill markers"/>
  <path d="m-338.74 56.291a4 4 0 0 1-4 4 4 4 0 0 1-4-4 4 4 0 0 1 4-4 4 4 0 0 1 4 4" fill="#bbb" style="paint-order:stroke fill markers"/>
  <path d="m-344.7 61.778a4.288 4.288 0 0 1-4.288 4.288 4.288 4.288 0 0 1-4.288-4.288 4.288 4.288 0 0 1 4.288-4.288 4.288 4.288 0 0 1 4.288 4.288" fill="#ccc" style="paint-order:stroke fill markers"/>
  <path d="m-364.46 67.276a3.5254 3.5254 0 0 1-3.5254 3.5254 3.5254 3.5254 0 0 1-3.5254-3.5254 3.5254 3.5254 0 0 1 3.5254-3.5254 3.5254 3.5254 0 0 1 3.5254 3.5254" fill="#bbb" style="paint-order:stroke fill markers"/>
  <path d="m-352.74 73.658a3.983 3.983 0 0 1-3.983 3.983 3.983 3.983 0 0 1-3.983-3.983 3.983 3.983 0 0 1 3.983-3.983 3.983 3.983 0 0 1 3.983 3.983" fill="#ccc" style="paint-order:stroke fill markers"/>
  <path d="m-334.8 65.799a3.8304 3.8304 0 0 1-3.8304 3.8304 3.8304 3.8304 0 0 1-3.8304-3.8304 3.8304 3.8304 0 0 1 3.8304-3.8304 3.8304 3.8304 0 0 1 3.8304 3.8304" fill="#ccc" style="paint-order:stroke fill markers"/>
  <path d="m-345.97 86.991a5.3558 5.3558 0 0 1-5.3558 5.3558 5.3558 5.3558 0 0 1-5.3558-5.3558 5.3558 5.3558 0 0 1 5.3558-5.3558 5.3558 5.3558 0 0 1 5.3558 5.3558" fill="#777" style="paint-order:stroke fill markers"/>
  <path d="m-358.8 82.225a3.225 3.225 0 0 1-3.225 3.225 3.225 3.225 0 0 1-3.225-3.225 3.225 3.225 0 0 1 3.225-3.225 3.225 3.225 0 0 1 3.225 3.225" fill="#bbb" style="paint-order:stroke fill markers"/>
  <path d="m-342.69 81.795a3.225 3.225 0 0 1-3.225 3.225 3.225 3.225 0 0 1-3.225-3.225 3.225 3.225 0 0 1 3.225-3.225 3.225 3.225 0 0 1 3.225 3.225" fill="#bbb" style="paint-order:stroke fill markers"/>
 </g>
 <g transform="translate(194.03 -359.82)">
  <path d="m-121.98 400.69c-22.011 1e-5 -39.855 17.844-39.855 39.855 0 9.477 3.3136 18.178 8.8379 25.018l-1.8965 1.8965-0.0645-0.0645c-1.3616-1.3616-3.7572-1.2339-5.2852 0.37109l-7.5457 7.9259c4.237 2.7245 9.2786 5.7704 13.768 7.5564l4.7832-4.4765c1.618-1.5142 1.7327-3.9236 0.37109-5.2852l-0.0273-0.0273 1.8965-1.8965c6.8404 5.5238 15.541 8.8359 25.018 8.8359 22.011 1e-5 39.854-17.842 39.854-39.854 2e-6 -22.011-17.842-39.855-39.854-39.855zm0 11.855c15.464 1e-5 28 12.536 28 28 3e-6 15.464-12.536 28-28 28-15.464-1e-5 -28-12.536-28-28-1e-5 -15.464 12.536-28 28-28z" fill-opacity=".2" fill-rule="evenodd"/>
  <g transform="rotate(30 -1483.4 -249.38)">
   <path d="m23.03-296.7 1.8301-6.8301 8.1962 2.1962-1.8301 6.8301z" fill="#b0bdc6" fill-rule="evenodd"/>
   <path d="m22.976-296.84 8.32 2.2293c1.86 0.49838 2.8962 2.623 2.3221 4.7633l-2.8479 10.617c-5.4622 0.25608-10.939 0.43919-15.657-0.54562l3.4701-14.1c0.52958-2.1518 2.5327-3.4625 4.3926-2.9641z" fill="#555" style="paint-order:normal"/>
   <path d="m18.182-371.1c-19.062 11.006-25.594 35.381-14.588 54.444 11.006 19.062 35.38 25.592 54.443 14.586 19.062-11.006 25.593-35.379 14.587-54.441-11.006-19.062-35.38-25.595-54.442-14.589zm4.0947 6.8735a32 32 0 0 1 43.713 11.713 32 32 0 0 1-11.713 43.713 32 32 0 0 1-43.713-11.713 32 32 0 0 1 11.713-43.713z" fill="#dfe9ef" style="paint-order:normal"/>
   <path d="m21.297-365.97c-15.305 8.8365-21.128 31.07-12.291 46.375 8.8366 15.305 30.486 20.485 45.791 11.649 15.305-8.8366 21.764-30.244 12.927-45.55-8.8366-15.305-31.122-21.31-46.427-12.474zm2.8122 5.1367c13.392-7.732 30.517-3.1435 38.249 10.249 7.732 13.392 3.1435 30.517-10.249 38.249-13.392 7.732-30.517 3.1435-38.249-10.249-7.732-13.392-3.1435-30.517 10.249-38.249z" fill="#b0bdc6" style="paint-order:normal"/>
   <path d="m15.325-328.05c3.4641-2 10.829-25.244 29.622-30.959-18.911-5.7922-34.795 10.851-29.622 30.959z" fill="#fff" fill-opacity=".56471" fill-rule="evenodd"/>
   <path d="m62.358-350.58a28 28 0 0 1-10.249 38.249 28 28 0 0 1-38.249-10.249 28 28 0 0 1 10.249-38.249 28 28 0 0 1 38.249 10.249" fill="#fff" fill-opacity=".2" style="paint-order:normal"/>
  </g>
 </g>
</svg>
