<?xml version="1.0" encoding="UTF-8"?>
<svg version="1.1" viewBox="0 0 128.02 128.07" xmlns="http://www.w3.org/2000/svg">
 <path d="m119.44 96.041c-17.673 30.611-56.815 41.099-87.426 23.426-30.611-17.673-41.099-56.815-23.426-87.426 17.673-30.611 56.815-41.099 87.426-23.426 30.611 17.673 41.099 56.815 23.426 87.426" fill="#fd5" stroke-width=".2"/>
 <path d="m96.003 8.6514c-10.102-5.8323-21.132-8.5793-32.014-8.5666l-55.412 95.977c5.4299 9.4304 13.324 17.609 23.426 23.441 10.084 5.8218 21.092 8.5693 31.955 8.5666l55.441-96.027c-5.4291-9.4089-13.313-17.569-23.396-23.39z" fill="#999" stroke-width=".2"/>
 <path d="m34.547 107.07 6.9282 4-6 10.392-6.9282-4z" fill="#fff" style="paint-order:stroke fill markers"/>
 <path d="m52.547 75.897 6.9282 4-10 17.321-6.9282-4z" fill="#fff" style="paint-order:stroke fill markers"/>
 <path d="m68.003 128.04c3.3659-0.17764 6.7162-0.69607 10-1.395l47.121-81.461c-1.0366-3.1937-1.7042-5.7055-4.1211-9 0 0-53 92-53 91.856z" fill-opacity=".2" stroke-width=".2"/>
 <path d="m70.547 44.72 6.9282 4-10 17.321-6.9282-4z" fill="#fff" style="paint-order:stroke fill markers"/>
 <path d="m88.547 13.543 6.9282 4-10 17.321-6.9282-4z" fill="#fff" style="paint-order:stroke fill markers"/>
 <path d="m119.46 32-55.416 95.983c3.2446-3e-3 6.4749-0.24979 9.6645-0.73946l49.943-86.504c-1.1707-3.0071-2.5725-5.9278-4.1919-8.7395z" fill="#fff" stroke-width=".2"/>
 <path d="m64.034-1.9691e-6c-3.2446 0.0033555-6.4749 0.24979-9.6645 0.73946l-49.943 86.504c1.1707 3.0071 2.5725 5.9278 4.1919 8.7395z" fill="#fff" stroke-width=".2"/>
 <g transform="translate(288.03 -292)">
  <path d="m-257.23 372h80.462c1.5342 0 2.7692 1.2351 2.7692 2.7692v18.462c0 1.5342-1.2351 2.7692-2.7692 2.7692h-80.462c-1.5342 0-2.7692-1.2351-2.7692-2.7692v-18.462c0-1.5342 1.2351-2.7692 2.7692-2.7692z" fill-opacity=".2"/>
  <g transform="matrix(.95875 0 0 1 -109.23 -14)">
   <path d="m-154.49 382h84.162c1.5342 0 2.7692 1.2351 2.7692 2.7692v18.462c0 1.5342-1.2351 2.7692-2.7692 2.7692h-84.162c-1.5342 0-2.7692-1.2351-2.7692-2.7692v-18.462c0-1.5342 1.2351-2.7692 2.7692-2.7692z" fill="#cc826b"/>
   <g transform="translate(7.3012)" fill="#ac573d">
    <path d="m-134.31 382h6.2582v16h-6.2582z" style="paint-order:normal"/>
    <path d="m-109.28 382h6.2582v16h-6.2582z" style="paint-order:normal"/>
    <path d="m-146.83 382h6.2582v8h-6.2582z" style="paint-order:normal"/>
    <path d="m-121.8 382h6.2582v8h-6.2582z" style="paint-order:normal"/>
    <path d="m-96.366 382h5.8605v8h-5.8605z" style="paint-order:normal"/>
    <path d="m-159.35 382h6.2581v16h-6.2581z" style="paint-order:normal"/>
    <path d="m-84.248 382h6.2581v16h-6.2581z" style="paint-order:normal"/>
   </g>
  </g>
 </g>
</svg>
