<?xml version="1.0" encoding="UTF-8"?>
<svg version="1.1" viewBox="0 0 128 128" xmlns="http://www.w3.org/2000/svg">
 <path d="m128 64c0 35.346-28.654 64-64 64s-64-28.654-64-64c0-35.346 28.654-64 64-64s64 28.654 64 64" fill="#9bbe55" stroke-width=".2"/>
 <g transform="translate(-866.75 1049.1)">
  <g transform="translate(-149.05 -806.01)" fill-opacity=".2">
   <g transform="translate(-4)">
    <path transform="translate(0,-1024)" d="m1048.6 827c-4.2652 0-7.702 2.5942-9.8477 5.5625s-3.4542 6.4633-4.4121 9.8496c-1.9159 6.7727-2.3047 13.336-2.3047 13.336-0.4009 5.3798 7.7057 5.8914 7.9844 0.5039 0 0 0.3974-5.9368 2.0176-11.664 0.9055-2.8502 1.9941-5.6416 3.6269-7.8633l-3.6367 47.275c-0.076 5.4093 8.0765 5.4093 8 0l2-24h4l2 24c-0.076 5.4093 8.0765 5.4093 8 0l-3.6367-47.275c1.7461 2.3668 2.9283 5.4357 3.6269 7.8633 1.6202 5.7273 2.0176 11.664 2.0176 11.664 0.2787 5.3875 8.3853 4.8759 7.9844-0.5039 0 0-0.3888-6.5632-2.3047-13.336-0.9579-3.3863-2.2664-6.8813-4.4121-9.8496s-5.5825-5.5625-9.8477-5.5625c-3.6921 1.3781-7.3057 1.2879-10.855 0z" color="#000000" color-rendering="auto" dominant-baseline="auto" fill-rule="evenodd" image-rendering="auto" shape-rendering="auto" solid-color="#000000" style="font-feature-settings:normal;font-variant-alternates:normal;font-variant-caps:normal;font-variant-ligatures:normal;font-variant-numeric:normal;font-variant-position:normal;isolation:auto;mix-blend-mode:normal;shape-padding:0;text-decoration-color:#000000;text-decoration-line:none;text-decoration-style:solid;text-indent:0;text-orientation:mixed;text-transform:none;white-space:normal"/>
    <path d="m1053.8-216c-4.4361 0-8.0341 3.5971-8.0341 8.0341 0 4.437 3.598 8.0326 8.0341 8.0326 4.437 0 8.034-3.5957 8.034-8.0326 0-4.437-3.597-8.0341-8.034-8.0341z" style="paint-order:stroke fill markers"/>
   </g>
   <g transform="translate(4)">
    <path transform="translate(0,-1024)" d="m1102 827c-2.8333 0-5.1513 2.4184-6.8652 3.9805-4.5775 3.7715-4.8093 10.958-9.6321 14.363-4.5552 2.9343-0.023 9.7325 4.4375 6.6562 5.1597-3.6166 5.8509-9.7373 9.6047-14.072 0.1572 11.058-9.3622 20.457-9.5449 30.072 2e-4 2.209 1.791 3.9998 4 4h2.9238l-0.9238 12c-0.076 5.4093 8.0765 5.4093 8 0v-12h4v12c-0.076 5.4093 8.0765 5.4093 8 0l-0.9238-12h2.9238c2.209-2.2e-4 3.9998-1.791 4-4-1.4517-11.037-8.7359-20.099-9.5488-30.127 3.9608 4.4537 5.2013 11.195 9.4471 14.127 4.4606 3.0762 8.9927-3.7219 4.4375-6.6562-4.792-4.2041-5.1202-10.413-9.4608-14.379-1.7263-1.5554-4.0417-3.9648-6.875-3.9648-3.6604 1.7942-5.768 0.78477-8 0z" color="#000000" color-rendering="auto" dominant-baseline="auto" fill-rule="evenodd" image-rendering="auto" shape-rendering="auto" solid-color="#000000" style="font-feature-settings:normal;font-variant-alternates:normal;font-variant-caps:normal;font-variant-ligatures:normal;font-variant-numeric:normal;font-variant-position:normal;isolation:auto;mix-blend-mode:normal;shape-padding:0;text-decoration-color:#000000;text-decoration-line:none;text-decoration-style:solid;text-indent:0;text-orientation:mixed;text-transform:none;white-space:normal"/>
    <path d="m1106-216c-4.4361 0-8.0341 3.5971-8.0341 8.0341s3.598 8.0326 8.0341 8.0326c4.437 0 8.034-3.5956 8.034-8.0326s-3.597-8.0341-8.034-8.0341z" style="paint-order:stroke fill markers"/>
   </g>
   <path d="m1080-235.04a3.0003 3.0003 0 0 0-2.9551 3.043v112a3.0003 3.0003 0 1 0 6 0v-112a3.0003 3.0003 0 0 0-3.0449-3.043z" color="#000000" color-rendering="auto" dominant-baseline="auto" fill-rule="evenodd" image-rendering="auto" shape-rendering="auto" solid-color="#000000" style="font-feature-settings:normal;font-variant-alternates:normal;font-variant-caps:normal;font-variant-ligatures:normal;font-variant-numeric:normal;font-variant-position:normal;isolation:auto;mix-blend-mode:normal;shape-padding:0;text-decoration-color:#000000;text-decoration-line:none;text-decoration-style:solid;text-indent:0;text-orientation:mixed;text-transform:none;white-space:normal"/>
  </g>
  <g transform="translate(-149,-810)" fill="#fff">
   <g transform="translate(-4)">
    <path transform="translate(0,-1024)" d="m1048.6 827c-4.2652 0-7.702 2.5942-9.8477 5.5625s-3.4542 6.4633-4.4121 9.8496c-1.9159 6.7727-2.3047 13.336-2.3047 13.336-0.4009 5.3798 7.7057 5.8914 7.9844 0.5039 0 0 0.3974-5.9368 2.0176-11.664 0.9055-2.8502 1.9941-5.6416 3.6269-7.8633l-3.6367 47.275c-0.076 5.4093 8.0765 5.4093 8 0l2-24h4l2 24c-0.076 5.4093 8.0765 5.4093 8 0l-3.6367-47.275c1.7461 2.3668 2.9283 5.4357 3.6269 7.8633 1.6202 5.7273 2.0176 11.664 2.0176 11.664 0.2787 5.3875 8.3853 4.8759 7.9844-0.5039 0 0-0.3888-6.5632-2.3047-13.336-0.9579-3.3863-2.2664-6.8813-4.4121-9.8496s-5.5825-5.5625-9.8477-5.5625c-3.6921 1.3781-7.3057 1.2879-10.855 0z" color="#000000" color-rendering="auto" dominant-baseline="auto" fill-rule="evenodd" image-rendering="auto" shape-rendering="auto" solid-color="#000000" style="font-feature-settings:normal;font-variant-alternates:normal;font-variant-caps:normal;font-variant-ligatures:normal;font-variant-numeric:normal;font-variant-position:normal;isolation:auto;mix-blend-mode:normal;shape-padding:0;text-decoration-color:#000000;text-decoration-line:none;text-decoration-style:solid;text-indent:0;text-orientation:mixed;text-transform:none;white-space:normal"/>
    <path d="m1053.8-216c-4.4361 0-8.0341 3.5971-8.0341 8.0341 0 4.437 3.598 8.0326 8.0341 8.0326 4.437 0 8.034-3.5957 8.034-8.0326 0-4.437-3.597-8.0341-8.034-8.0341z" style="paint-order:stroke fill markers"/>
   </g>
   <g transform="translate(4)">
    <path transform="translate(0,-1024)" d="m1102 827c-2.8333 0-5.1513 2.4184-6.8652 3.9805-4.5775 3.7715-4.8093 10.958-9.6321 14.363-4.5552 2.9343-0.023 9.7325 4.4375 6.6562 5.1597-3.6166 5.8509-9.7373 9.6047-14.072 0.1572 11.058-9.3622 20.457-9.5449 30.072 2e-4 2.209 1.791 3.9998 4 4h2.9238l-0.9238 12c-0.076 5.4093 8.0765 5.4093 8 0v-12h4v12c-0.076 5.4093 8.0765 5.4093 8 0l-0.9238-12h2.9238c2.209-2.2e-4 3.9998-1.791 4-4-1.4517-11.037-8.7359-20.099-9.5488-30.127 3.9608 4.4537 5.2013 11.195 9.4471 14.127 4.4606 3.0762 8.9927-3.7219 4.4375-6.6562-4.792-4.2041-5.1202-10.413-9.4608-14.379-1.7263-1.5554-4.0417-3.9648-6.875-3.9648-3.6604 1.7942-5.768 0.78477-8 0z" color="#000000" color-rendering="auto" dominant-baseline="auto" fill-rule="evenodd" image-rendering="auto" shape-rendering="auto" solid-color="#000000" style="font-feature-settings:normal;font-variant-alternates:normal;font-variant-caps:normal;font-variant-ligatures:normal;font-variant-numeric:normal;font-variant-position:normal;isolation:auto;mix-blend-mode:normal;shape-padding:0;text-decoration-color:#000000;text-decoration-line:none;text-decoration-style:solid;text-indent:0;text-orientation:mixed;text-transform:none;white-space:normal"/>
    <path d="m1106-216c-4.4361 0-8.0341 3.5971-8.0341 8.0341s3.598 8.0326 8.0341 8.0326c4.437 0 8.034-3.5956 8.034-8.0326s-3.597-8.0341-8.034-8.0341z" style="paint-order:stroke fill markers"/>
   </g>
   <path d="m1080-235.04a3.0003 3.0003 0 0 0-2.9551 3.043v112a3.0003 3.0003 0 1 0 6 0v-112a3.0003 3.0003 0 0 0-3.0449-3.043z" color="#000000" color-rendering="auto" dominant-baseline="auto" fill-rule="evenodd" image-rendering="auto" shape-rendering="auto" solid-color="#000000" style="font-feature-settings:normal;font-variant-alternates:normal;font-variant-caps:normal;font-variant-ligatures:normal;font-variant-numeric:normal;font-variant-position:normal;isolation:auto;mix-blend-mode:normal;shape-padding:0;text-decoration-color:#000000;text-decoration-line:none;text-decoration-style:solid;text-indent:0;text-orientation:mixed;text-transform:none;white-space:normal"/>
  </g>
 </g>
 <g transform="translate(-952.72 1084.3)">
  <path d="m1034.8-1014a24 24 0 0 0-24 24 24 24 0 0 0 24 24 24 24 0 0 0 24-24 24 24 0 0 0-24-24z" fill="none" stroke="#000" stroke-linecap="round" stroke-linejoin="round" stroke-opacity=".2" stroke-width="4" style="paint-order:normal"/>
  <g>
   <path d="m1058.8-994.04a24 24 0 0 1-24 24 24 24 0 0 1-24-24 24 24 0 0 1 24-24 24 24 0 0 1 24 24" fill="#dbdbdb" stroke="#a6a6a6" stroke-linecap="round" stroke-linejoin="round" stroke-width="4" style="paint-order:normal"/>
   <path d="m1031.8-1012.3v4.1621c-1.532 0.3498-2.8498 0.9879-3.9531 1.916-1.9688 1.6563-2.9532 3.8125-2.9532 6.4688 0 1.8854 0.4375 3.3958 1.3125 4.5312s1.9844 1.9792 3.3282 2.5313c1.3541 0.5416 3.0521 1.026 5.0937 1.4531 1.5834 0.3542 2.7865 0.7135 3.6094 1.0781 0.8333 0.3646 1.25 1.0469 1.25 2.0469 0 1.0417-0.4375 1.7969-1.3125 2.2656-0.875 0.4584-1.8855 0.6875-3.0313 0.6875-3.1145 0-5.0364-1.3021-5.7656-3.9062l-5.9531 1.4062c0.5833 2.5521 1.8906 4.4636 3.9219 5.7344 1.324 0.8216 2.8104 1.3702 4.4531 1.6562v3.2188h6v-3.25c1.9343-0.3363 3.5483-0.9936 4.8281-1.9844 2.2605-1.7708 3.3906-4.0729 3.3906-6.9062 0-2.7813-1.1926-4.9584-3.5781-6.5313-0.8541-0.5833-1.7499-1.0052-2.6875-1.2656-0.927-0.2604-2.4427-0.625-4.5469-1.0937-2.6875-0.448-4.0312-1.3698-4.0312-2.7657 0-1.75 1.2812-2.625 3.8437-2.625 2.4167 0 4.0157 1.0886 4.7969 3.2657l5.4375-1.7813c-1.2053-3.4654-3.6917-5.5361-7.4531-6.2168v-4.0957z" fill="#a6a6a6"/>
  </g>
 </g>
</svg>
