<?xml version="1.0" encoding="UTF-8"?>
<svg version="1.1" viewBox="0 0 128 128" xmlns="http://www.w3.org/2000/svg">
 <path d="m119.42 95.995c-17.67 30.605-56.806 41.092-87.411 23.422-30.605-17.67-41.092-56.806-23.422-87.411 17.67-30.605 56.806-41.092 87.411-23.422 30.605 17.67 41.092 56.806 23.422 87.411" fill="#529add" stroke-width=".19997"/>
 <g>
  <path d="m43.429 20.007v7.9987h-15.997c-1.0546 12.363 6.0163 12.511 15.997 19.997v7.9987h-15.997c-1.0546 12.363 6.0163 12.511 15.997 19.997v7.9987h-15.997c-1.0546 12.363 6.0163 12.511 15.997 19.997v11.998h39.993v-11.998c9.9811-7.4858 17.052-7.6337 15.997-19.997h-15.997v-7.9987c9.9811-7.4858 17.052-7.6337 15.997-19.997h-15.997v-7.9987c9.9811-7.4858 17.052-7.6337 15.997-19.997h-15.997v-7.9987z" fill-opacity=".2" style="paint-order:stroke fill markers"/>
  <path d="m43.429 16.008h39.993v95.984h-39.993z" fill="#888" style="paint-order:stroke fill markers"/>
  <path d="m75.536 37.46a11.996 11.996 0 0 1-11.996 11.996 11.996 11.996 0 0 1-11.996-11.996 11.996 11.996 0 0 1 11.996-11.996 11.996 11.996 0 0 1 11.996 11.996" fill="#ff6969" stroke="#555" stroke-width="2.9995" style="paint-order:normal"/>
  <path d="m75.54 65.483a11.998 11.998 0 0 1-11.998 11.998 11.998 11.998 0 0 1-11.998-11.998 11.998 11.998 0 0 1 11.998-11.998 11.998 11.998 0 0 1 11.998 11.998" fill="#ffff69" stroke="#555" stroke-width="2.9995" style="paint-order:normal"/>
  <path d="m75.522 93.509a11.998 11.998 0 0 1-11.998 11.998 11.998 11.998 0 0 1-11.998-11.998 11.998 11.998 0 0 1 11.998-11.998 11.998 11.998 0 0 1 11.998 11.998" fill="#69ff69" stroke="#555" stroke-width="2.9995" style="paint-order:normal"/>
  <path d="m43.429 24.007h-15.997c-1.0546 12.363 6.0163 12.511 15.997 19.997z" fill="#555" fill-rule="evenodd"/>
  <path d="m43.429 52.002h-15.997c-1.0546 12.363 6.0163 12.511 15.997 19.997z" fill="#555" fill-rule="evenodd"/>
  <path d="m43.429 79.997h-15.997c-1.0546 12.363 6.0163 12.511 15.997 19.997z" fill="#555" fill-rule="evenodd"/>
  <path d="m83.422 24.007h15.997c1.0546 12.363-6.0163 12.511-15.997 19.997z" fill="#555" fill-rule="evenodd"/>
  <path d="m83.422 52.002h15.997c1.0546 12.363-6.0163 12.511-15.997 19.997z" fill="#555" fill-rule="evenodd"/>
  <path d="m83.422 79.997h15.997c1.0546 12.363-6.0163 12.511-15.997 19.997z" fill="#555" fill-rule="evenodd"/>
  <path d="m75.529 93.475s-5.3717 7.9483-11.998 7.9483c-6.6263 0-11.987-7.906-11.987-7.906 0 6.6263 5.3606 11.987 11.987 11.987 6.6263 0 11.998-5.4029 11.998-12.029z" fill="#fff" fill-opacity=".37647" style="paint-order:stroke fill markers"/>
  <path d="m57.427 111.99h12.063v15.997h-12.063z" fill="#555" style="paint-order:stroke fill markers"/>
  <path d="m75.517 65.437s-5.3717 7.9483-11.998 7.9483-11.987-7.906-11.987-7.906c0 6.6263 5.3606 11.987 11.987 11.987s11.998-5.4029 11.998-12.029z" fill="#fff" fill-opacity=".37647" style="paint-order:stroke fill markers"/>
  <path d="m75.517 37.442s-5.3717 7.9483-11.998 7.9483-11.987-7.906-11.987-7.906c0 6.6263 5.3606 11.987 11.987 11.987s11.998-5.4029 11.998-12.029z" fill="#fff" fill-opacity=".37647" style="paint-order:stroke fill markers"/>
  <path d="m90.532 64.479a27.66 27.66 0 0 1-27.66 27.66 27.66 27.66 0 0 1-27.66-27.66 27.66 27.66 0 0 1 27.66-27.66 27.66 27.66 0 0 1 27.66 27.66" fill="#ffff69" fill-opacity=".26667" style="paint-order:normal"/>
 </g>
</svg>
