<?xml version="1.0" encoding="UTF-8"?>
<svg version="1.1" viewBox="0 0 128.02 128.07" xmlns="http://www.w3.org/2000/svg">
 <path d="m119.44 96.041c-17.673 30.611-56.815 41.099-87.426 23.426-30.611-17.673-41.099-56.815-23.426-87.426 17.673-30.611 56.815-41.099 87.426-23.426 30.611 17.673 41.099 56.815 23.426 87.426" fill="#529add" stroke-width=".2"/>
 <g stroke-width=".2">
  <path d="m68.002 128.04c3.3659-0.17764 6.7162-0.69606 10-1.395l47.121-81.461c-1.0366-3.1937-1.7042-5.7055-4.1211-9 0 0-53 92-53 91.856z" fill-opacity=".2"/>
  <path d="m96.003 8.6514c-10.102-5.8323-21.132-8.5793-32.014-8.5666l-55.412 95.977c5.4299 9.4304 13.324 17.609 23.426 23.441 10.084 5.8218 21.092 8.5693 31.955 8.5666l55.441-96.027c-5.4291-9.4089-13.313-17.569-23.396-23.39z" fill="#999"/>
  <path d="m119.46 32-55.416 95.983c3.2446-3e-3 6.4749-0.24979 9.6645-0.73946l49.943-86.504c-1.1707-3.0071-2.5725-5.9278-4.1919-8.7395z" fill="#fff"/>
  <path d="m64.034-1.9691e-6c-3.2446 0.0033555-6.4749 0.24979-9.6645 0.73946l-49.943 86.504c1.1707 3.0071 2.5725 5.9278 4.1919 8.7395z" fill="#fff"/>
 </g>
 <g>
  <path d="m72.654 25.1a6 6 0 0 1-8.1962 2.1962 6 6 0 0 1-2.1962-8.1962 6 6 0 0 1 8.1962-2.1962 6 6 0 0 1 2.1962 8.1962" fill="#bbb" style="paint-order:stroke fill markers"/>
  <path d="m93.96 25.41a6 6 0 0 1-8.1962 2.1962 6 6 0 0 1-2.1962-8.1962 6 6 0 0 1 8.1962-2.1962 6 6 0 0 1 2.1962 8.1962" fill="#bbb" style="paint-order:stroke fill markers"/>
  <path d="m95.175 64.054a6 6 0 0 1-8.1962 2.1962 6 6 0 0 1-2.1962-8.1962 6 6 0 0 1 8.1962-2.1962 6 6 0 0 1 2.1962 8.1962" fill="#ccc" style="paint-order:stroke fill markers"/>
  <path d="m67.812 46a6 6 0 0 1-8.1962 2.1962 6 6 0 0 1-2.1962-8.1962 6 6 0 0 1 8.1962-2.1962 6 6 0 0 1 2.1962 8.1962" fill="#aaa" style="paint-order:stroke fill markers"/>
  <path d="m65.272 78.101a6 6 0 0 1-8.1962 2.1962 6 6 0 0 1-2.1962-8.1962 6 6 0 0 1 8.1962-2.1962 6 6 0 0 1 2.1962 8.1962" fill="#aaa" style="paint-order:stroke fill markers"/>
  <path d="m36.033 87.427a6 6 0 0 1-8.1962 2.1962 6 6 0 0 1-2.1962-8.1962 6 6 0 0 1 8.1962-2.1962 6 6 0 0 1 2.1962 8.1962" fill="#ccc" style="paint-order:stroke fill markers"/>
  <path d="m40.978 102.63a6 6 0 0 1-8.1962 2.1962 6 6 0 0 1-2.1962-8.1962 6 6 0 0 1 8.1962-2.1962 6 6 0 0 1 2.1962 8.1962" fill="#ccc" style="paint-order:stroke fill markers"/>
  <path d="m67.632 104.73a6 6 0 0 1-8.1962 2.1962 6 6 0 0 1-2.1962-8.1962 6 6 0 0 1 8.1962-2.1962 6 6 0 0 1 2.1962 8.1962" fill="#ccc" style="paint-order:stroke fill markers"/>
  <path d="m48.278 62.065a6 6 0 0 1-8.1962 2.1962 6 6 0 0 1-2.1962-8.1962 6 6 0 0 1 8.1962-2.1962 6 6 0 0 1 2.1962 8.1962" fill="#bbb" style="paint-order:stroke fill markers"/>
  <path d="m105.25 41.735a6 6 0 0 1-8.1961 2.1962 6 6 0 0 1-2.1962-8.1962 6 6 0 0 1 8.1962-2.1962 6 6 0 0 1 2.1962 8.1962" fill="#aaa" style="paint-order:stroke fill markers"/>
  <path d="m81.25 84.111a6 6 0 0 1-8.1962 2.1962 6 6 0 0 1-2.1962-8.1962 6 6 0 0 1 8.1962-2.1962 6 6 0 0 1 2.1962 8.1962" fill="#aaa" style="paint-order:stroke fill markers"/>
  <path d="m52.243 121.18a6 6 0 0 1-8.1962 2.1962 6 6 0 0 1-2.1962-8.1962 6 6 0 0 1 8.1962-2.1962 6 6 0 0 1 2.1962 8.1962" fill="#aaa" style="paint-order:stroke fill markers"/>
  <path d="m97.622 44.038a6 6 0 0 1-8.1962 2.1962 6 6 0 0 1-2.1962-8.1962 6 6 0 0 1 8.1962-2.1962 6 6 0 0 1 2.1962 8.1962" fill="#bbb" style="paint-order:stroke fill markers"/>
  <path d="m78.814 69.281a6 6 0 0 1-8.1962 2.1962 6 6 0 0 1-2.1962-8.1962 6 6 0 0 1 8.1962-2.1962 6 6 0 0 1 2.1962 8.1962" fill="#bbb" style="paint-order:stroke fill markers"/>
  <path d="m60.477 62.857a6 6 0 0 1-8.1962 2.1962 6 6 0 0 1-2.1962-8.1962 6 6 0 0 1 8.1962-2.1962 6 6 0 0 1 2.1962 8.1962" fill="#ccc" style="paint-order:stroke fill markers"/>
  <path d="m50.582 86.665a6 6 0 0 1-8.1962 2.1962 6 6 0 0 1-2.1962-8.1962 6 6 0 0 1 8.1962-2.1962 6 6 0 0 1 2.1962 8.1962" fill="#bbb" style="paint-order:stroke fill markers"/>
  <path d="m56.617 106.84a6 6 0 0 1-8.1962 2.1962 6 6 0 0 1-2.1962-8.1962 6 6 0 0 1 8.1962-2.1962 6 6 0 0 1 2.1962 8.1962" fill="#bbb" style="paint-order:stroke fill markers"/>
  <path d="m25.07 100.85a6 6 0 0 1-8.1962 2.1962 6 6 0 0 1-2.1962-8.1961 6 6 0 0 1 8.1962-2.1962 6 6 0 0 1 2.1962 8.1962" fill="#bbb" style="paint-order:stroke fill markers"/>
  <path d="m62.128 36.081a6 6 0 0 1-8.1962 2.1962 6 6 0 0 1-2.1962-8.1962 6 6 0 0 1 8.1962-2.1962 6 6 0 0 1 2.1962 8.1962" fill="#ccc" style="paint-order:stroke fill markers"/>
  <path d="m87.7 14.375a6 6 0 0 1-8.1962 2.1962 6 6 0 0 1-2.1962-8.1962 6 6 0 0 1 8.1962-2.1962 6 6 0 0 1 2.1962 8.1962" fill="#aaa" style="paint-order:stroke fill markers"/>
  <path d="m81.972 51.789a6 6 0 0 1-8.1962 2.1962 6 6 0 0 1-2.1962-8.1962 6 6 0 0 1 8.1962-2.1962 6 6 0 0 1 2.1962 8.1962" fill="#ccc" style="paint-order:stroke fill markers"/>
  <path d="m80.011 36.328a4 4 0 0 1-5.4641 1.4641 4 4 0 0 1-1.4641-5.4641 4 4 0 0 1 5.4641-1.4641 4 4 0 0 1 1.4641 5.4641" fill="#bbb" style="paint-order:stroke fill markers"/>
  <path d="m104.53 22.238a4 4 0 0 1-5.4641 1.4641 4 4 0 0 1-1.4641-5.4641 4 4 0 0 1 5.4641-1.4641 4 4 0 0 1 1.4641 5.4641" fill="#bbb" style="paint-order:stroke fill markers"/>
  <path d="m101.14 54.009a4 4 0 0 1-5.4641 1.4641 4 4 0 0 1-1.4641-5.4641 4 4 0 0 1 5.4641-1.4641 4 4 0 0 1 1.4641 5.4641" fill="#777" style="paint-order:stroke fill markers"/>
  <path d="m69.227 56.206a4 4 0 0 1-5.4641 1.4641 4 4 0 0 1-1.4641-5.4641 4 4 0 0 1 5.4641-1.4641 4 4 0 0 1 1.4641 5.4641" fill="#aaa" style="paint-order:stroke fill markers"/>
  <path d="m58.553 46.269a4 4 0 0 1-5.4641 1.4641 4 4 0 0 1-1.4641-5.4641 4 4 0 0 1 5.4641-1.4641 4 4 0 0 1 1.4641 5.4641" fill="#bbb" style="paint-order:stroke fill markers"/>
  <path d="m42.787 72.608a4 4 0 0 1-5.4641 1.4641 4 4 0 0 1-1.4641-5.4641 4 4 0 0 1 5.4641-1.4641 4 4 0 0 1 1.4641 5.4641" fill="#777" style="paint-order:stroke fill markers"/>
  <path d="m31.148 75.13a4 4 0 0 1-5.4641 1.4641 4 4 0 0 1-1.4641-5.4641 4 4 0 0 1 5.4641-1.4641 4 4 0 0 1 1.4641 5.4641" fill="#bbb" style="paint-order:stroke fill markers"/>
  <path d="m28.451 110.03a4 4 0 0 1-5.4641 1.4641 4 4 0 0 1-1.4641-5.4641 4 4 0 0 1 5.4641-1.4641 4 4 0 0 1 1.4641 5.4641" fill="#ccc" style="paint-order:stroke fill markers"/>
  <path d="m68.074 115.82a4 4 0 0 1-5.4641 1.4641 4 4 0 0 1-1.4641-5.4641 4 4 0 0 1 5.4641-1.4641 4 4 0 0 1 1.4641 5.4641" fill="#bbb" style="paint-order:stroke fill markers"/>
  <path d="m79.923 94.232a4 4 0 0 1-5.4641 1.4641 4 4 0 0 1-1.4641-5.4641 4 4 0 0 1 5.4641-1.4641 4 4 0 0 1 1.4641 5.4641" fill="#777" style="paint-order:stroke fill markers"/>
  <path d="m63.516 94.734a4 4 0 0 1-5.4641 1.4641 4 4 0 0 1-1.4641-5.4641 4 4 0 0 1 5.4641-1.4641 4 4 0 0 1 1.4641 5.4641" fill="#bbb" style="paint-order:stroke fill markers"/>
  <path d="m93.203 71.994a4 4 0 0 1-5.4641 1.4641 4 4 0 0 1-1.4641-5.4641 4 4 0 0 1 5.4641-1.4641 4 4 0 0 1 1.4641 5.4641" fill="#bbb" style="paint-order:stroke fill markers"/>
  <path d="m73.993 8.5669a4 4 0 0 1-5.4641 1.4641 4 4 0 0 1-1.4641-5.4641 4 4 0 0 1 5.4641-1.4641 4 4 0 0 1 1.4641 5.4641" fill="#bbb" style="paint-order:stroke fill markers"/>
  <path d="m113.12 32.759a4 4 0 0 1-5.4641 1.4641 4 4 0 0 1-1.4641-5.4641 4 4 0 0 1 5.4641-1.4641 4 4 0 0 1 1.4641 5.4641" fill="#bbb" style="paint-order:stroke fill markers"/>
  <path d="m86.475 33.132a2 2 0 0 1-2.7321 0.73205 2 2 0 0 1-0.73205-2.7321 2 2 0 0 1 2.732-0.73205 2 2 0 0 1 0.73205 2.732" fill="#ccc" style="paint-order:stroke fill markers"/>
  <path d="m89.3 51.885a2 2 0 0 1-2.732 0.73205 2 2 0 0 1-0.73205-2.7321 2 2 0 0 1 2.7321-0.73205 2 2 0 0 1 0.73205 2.7321" fill="#aaa" style="paint-order:stroke fill markers"/>
  <path d="m79.388 24.858a2 2 0 0 1-2.7321 0.73205 2 2 0 0 1-0.73205-2.7321 2 2 0 0 1 2.7321-0.73205 2 2 0 0 1 0.73205 2.7321" fill="#ccc" style="paint-order:stroke fill markers"/>
  <path d="m68.738 33.71a2 2 0 0 1-2.7321 0.73205 2 2 0 0 1-0.73205-2.7321 2 2 0 0 1 2.732-0.73205 2 2 0 0 1 0.73205 2.7321" fill="#777" style="paint-order:stroke fill markers"/>
  <path d="m74.723 39.387a2 2 0 0 1-2.7321 0.73205 2 2 0 0 1-0.73205-2.7321 2 2 0 0 1 2.7321-0.73205 2 2 0 0 1 0.73205 2.7321" fill="#ccc" style="paint-order:stroke fill markers"/>
  <path d="m78.699 58.753a2 2 0 0 1-2.7321 0.73205 2 2 0 0 1-0.73205-2.7321 2 2 0 0 1 2.732-0.73205 2 2 0 0 1 0.73205 2.7321" fill="#777" style="paint-order:stroke fill markers"/>
  <path d="m83.322 72.624a2 2 0 0 1-2.7321 0.73205 2 2 0 0 1-0.73205-2.7321 2 2 0 0 1 2.7321-0.73205 2 2 0 0 1 0.73205 2.7321" fill="#ccc" style="paint-order:stroke fill markers"/>
  <path d="m66.865 67.276a2 2 0 0 1-2.7321 0.73205 2 2 0 0 1-0.73205-2.7321 2 2 0 0 1 2.732-0.73205 2 2 0 0 1 0.73205 2.7321" fill="#bbb" style="paint-order:stroke fill markers"/>
  <path d="m70.525 74.008a2 2 0 0 1-2.7321 0.73205 2 2 0 0 1-0.73205-2.7321 2 2 0 0 1 2.7321-0.73205 2 2 0 0 1 0.73205 2.732" fill="#ccc" style="paint-order:stroke fill markers"/>
  <path d="m47.537 76.324a2 2 0 0 1-2.7321 0.73205 2 2 0 0 1-0.73205-2.7321 2 2 0 0 1 2.732-0.73205 2 2 0 0 1 0.73205 2.732" fill="#ccc" style="paint-order:stroke fill markers"/>
  <path d="m40.792 91.528a2 2 0 0 1-2.732 0.73205 2 2 0 0 1-0.73205-2.732 2 2 0 0 1 2.7321-0.73205 2 2 0 0 1 0.73205 2.7321" fill="#bbb" style="paint-order:stroke fill markers"/>
  <path d="m56.77 113.13a2 2 0 0 1-2.7321 0.73205 2 2 0 0 1-0.73205-2.732 2 2 0 0 1 2.7321-0.73205 2 2 0 0 1 0.73205 2.732" fill="#ccc" style="paint-order:stroke fill markers"/>
  <path d="m31.812 115.31a2 2 0 0 1-2.7321 0.73205 2 2 0 0 1-0.73205-2.732 2 2 0 0 1 2.7321-0.73205 2 2 0 0 1 0.73205 2.732" fill="#ccc" style="paint-order:stroke fill markers"/>
  <path d="m59.177 125.91a2 2 0 0 1-2.7321 0.73205 2 2 0 0 1-0.73205-2.732 2 2 0 0 1 2.7321-0.73205 2 2 0 0 1 0.73205 2.732" fill="#bbb" style="paint-order:stroke fill markers"/>
  <path d="m43.385 51.266a2 2 0 0 1-2.7321 0.73205 2 2 0 0 1-0.73205-2.7321 2 2 0 0 1 2.7321-0.73205 2 2 0 0 1 0.73205 2.7321" fill="#777" style="paint-order:stroke fill markers"/>
  <path d="m60.943 21.855a2 2 0 0 1-2.732 0.73205 2 2 0 0 1-0.73205-2.7321 2 2 0 0 1 2.7321-0.73205 2 2 0 0 1 0.73205 2.7321" fill="#bbb" style="paint-order:stroke fill markers"/>
  <path d="m97.378 28.746a2 2 0 0 1-2.732 0.73205 2 2 0 0 1-0.73205-2.732 2 2 0 0 1 2.7321-0.73205 2 2 0 0 1 0.73205 2.7321" fill="#ccc" style="paint-order:stroke fill markers"/>
  <path d="m110.97 41.21a2 2 0 0 1-2.732 0.73205 2 2 0 0 1-0.73205-2.7321 2 2 0 0 1 2.732-0.73205 2 2 0 0 1 0.73205 2.7321" fill="#ccc" style="paint-order:stroke fill markers"/>
  <path d="m34.286 61.025a2 2 0 0 1-2.732 0.73205 2 2 0 0 1-0.73205-2.7321 2 2 0 0 1 2.7321-0.73205 2 2 0 0 1 0.73205 2.7321" fill="#aaa" style="paint-order:stroke fill markers"/>
  <path d="m87.991 82.505a2 2 0 0 1-2.7321 0.73205 2 2 0 0 1-0.73205-2.732 2 2 0 0 1 2.7321-0.73205 2 2 0 0 1 0.73205 2.7321" fill="#ccc" style="paint-order:stroke fill markers"/>
  <path d="m67.776 89.02a2 2 0 0 1-2.7321 0.73205 2 2 0 0 1-0.73205-2.732 2 2 0 0 1 2.7321-0.73205 2 2 0 0 1 0.73205 2.7321" fill="#777" style="paint-order:stroke fill markers"/>
  <path d="m46.968 96.059a2 2 0 0 1-2.7321 0.73205 2 2 0 0 1-0.73205-2.7321 2 2 0 0 1 2.7321-0.73205 2 2 0 0 1 0.73205 2.7321" fill="#aaa" style="paint-order:stroke fill markers"/>
  <path d="m75.058 103.91a2 2 0 0 1-2.7321 0.73205 2 2 0 0 1-0.73205-2.732 2 2 0 0 1 2.7321-0.73205 2 2 0 0 1 0.73205 2.732" fill="#ccc" style="paint-order:stroke fill markers"/>
  <path d="m49.677 37.867a2 2 0 0 1-2.7321 0.73205 2 2 0 0 1-0.73205-2.7321 2 2 0 0 1 2.7321-0.73205 2 2 0 0 1 0.73205 2.7321" fill="#aaa" style="paint-order:stroke fill markers"/>
  <path d="m51.199 51.13a3.225 3.225 0 0 1-4.4054 1.1804 3.225 3.225 0 0 1-1.1804-4.4055 3.225 3.225 0 0 1 4.4055-1.1804 3.225 3.225 0 0 1 1.1804 4.4054" fill="#ccc" style="paint-order:stroke fill markers"/>
  <path d="m54.122 70.733a3.225 3.225 0 0 1-4.4054 1.1804 3.225 3.225 0 0 1-1.1804-4.4054 3.225 3.225 0 0 1 4.4054-1.1804 3.225 3.225 0 0 1 1.1804 4.4054" fill="#bbb" style="paint-order:stroke fill markers"/>
  <path d="m54.812 93.713a3.225 3.225 0 0 1-4.4054 1.1804 3.225 3.225 0 0 1-1.1804-4.4054 3.225 3.225 0 0 1 4.4054-1.1804 3.225 3.225 0 0 1 1.1804 4.4054" fill="#ccc" style="paint-order:stroke fill markers"/>
  <path d="m41.157 112.73a3.225 3.225 0 0 1-4.4055 1.1804 3.225 3.225 0 0 1-1.1804-4.4054 3.225 3.225 0 0 1 4.4055-1.1804 3.225 3.225 0 0 1 1.1804 4.4055" fill="#777" style="paint-order:stroke fill markers"/>
  <path d="m22.74 88.672a3.225 3.225 0 0 1-4.4055 1.1804 3.225 3.225 0 0 1-1.1804-4.4055 3.225 3.225 0 0 1 4.4054-1.1804 3.225 3.225 0 0 1 1.1804 4.4055" fill="#777" style="paint-order:stroke fill markers"/>
  <path d="m62.999 119.21a3.225 3.225 0 0 1-4.4054 1.1804 3.225 3.225 0 0 1-1.1804-4.4054 3.225 3.225 0 0 1 4.4055-1.1804 3.225 3.225 0 0 1 1.1804 4.4054" fill="#777" style="paint-order:stroke fill markers"/>
  <path d="m77.575 16.857a3.225 3.225 0 0 1-4.4054 1.1804 3.225 3.225 0 0 1-1.1804-4.4054 3.225 3.225 0 0 1 4.4054-1.1804 3.225 3.225 0 0 1 1.1804 4.4054" fill="#ccc" style="paint-order:stroke fill markers"/>
  <path d="m98.961 16.8a3.225 3.225 0 0 1-4.4054 1.1804 3.225 3.225 0 0 1-1.1804-4.4054 3.225 3.225 0 0 1 4.4054-1.1804 3.225 3.225 0 0 1 1.1804 4.4054" fill="#777" style="paint-order:stroke fill markers"/>
  <path d="m62.866 84.424a3.225 3.225 0 0 1-4.4054 1.1804 3.225 3.225 0 0 1-1.1804-4.4055 3.225 3.225 0 0 1 4.4055-1.1804 3.225 3.225 0 0 1 1.1804 4.4054" fill="#bbb" style="paint-order:stroke fill markers"/>
 </g>
</svg>
