<?xml version="1.0" encoding="UTF-8"?>
<svg version="1.1" viewBox="0 0 128 128" xmlns="http://www.w3.org/2000/svg">
 <path d="m128 64c0 35.346-28.654 64-64 64s-64-28.654-64-64 28.654-64 64-64 64 28.654 64 64" fill="#529add" stroke-width=".2"/>
 <path d="m92.422 79.992 16.697 29.377c3.0226-3.0054 5.7459-6.3104 8.123-9.8672l-14.854-19.51zm-66.023 0.007812-15.354 19.957c2.4026 3.5304 5.1551 6.8008 8.1973 9.7773l17.156-29.734zm17.029 0-16.107 36.416c1.8389 1.2898 3.7449 2.4898 5.7188 3.584h8.9609l11-40zm15.572 0-4.0176 40.004h18l-3.9824-40.004zm16.504 0 10.5 40h8.9961c2.327-1.29 4.5634-2.7231 6.7012-4.2832l-16.02-35.717z" fill-opacity=".2" style="paint-order:stroke fill markers"/>
 <path d="m59.018 75.996-4.0176 40.004h18l-3.9824-40.004zm-32.59 0.003906-16.77 21.799c2.3519 3.7733 5.0886 7.2789 8.1504 10.473l18.619-32.271zm17 0-17.459 39.471 1.0312 0.5293h15l11-40zm32.072 0 10.5 40h15l2.0352-1.2988-17.357-38.701zm16.941 0 18.121 31.881c3.0397-3.2242 5.7588-6.7537 8.082-10.555l-16.236-21.326z" fill="#fff" style="paint-order:stroke fill markers"/>
 <path d="m71.209 12.459c-6.3378 7.88e-4 -11.54 5.2032-11.539 11.541-2.97e-4 2.8434 1.1561 5.3734 2.8828 7.3926-0.68759 0.13658-1.3388 0.36195-1.9688 0.67188-6.179 0.14627-11.664 0.8916-16.5 3.1113-5.8931 2.7047-10.257 7.7789-12.426 14.154-1.271 3.7353 0.7681 7.8751 4.5039 9.1445 0.32081 0.10905 0.64601 0.06179 0.9707 0.12305-4.1616 5.9368-5.8641 13.414-4.3359 20.748 2.1425 10.281 10.152 18.374 20.41 20.623 10.258 2.2491 20.921-1.7495 27.168-10.191h-2e-3c0.21922-0.29609 0.28238-0.6474 0.44922-0.96484 2.0253 3.7769 6.737 5.3592 10.609 3.4531 3.9562-1.9474 5.6137-6.8196 4.6399-8.7985l-11.284-22.918c-1.1222-2.2812-3.2635-3.9027-5.7637-4.3633l-8.9688-1.6504c1.2518-5.3177 2.018-10.758 2.0996-15.174 0.02607-1.4054-0.41976-2.6719-1.0449-3.8398 0.03513 3.25e-4 0.06441 0.01953 0.09961 0.01953 6.3388 6.64e-4 11.542-5.2022 11.541-11.541 6.62e-4 -6.3388-5.2022-11.542-11.541-11.541zm-16.16 34.557c-0.4784 2.7027-0.99129 4.9384-1.623 7.082-1.6093-2.1324-4.5685-3.1783-6.7148-2.9707 2.0893-2.9006 5.2599-3.6092 8.3379-4.1113zm-2.7539 16.322c0.91108 2.6372 2.9817 4.8482 5.9609 5.3965l13.877 2.5508 3.5371 7.1855c-2.559-0.37946-5.2534 0.528-6.8828 2.7305-2.8912 3.9069-7.7467 5.7303-12.494 4.6895-4.7478-1.0408-8.3951-4.7262-9.3867-9.4844-0.99131-4.7578 0.88144-9.5947 4.8184-12.445 0.23694-0.17157 0.36073-0.42828 0.57031-0.62305z" color="#000000" color-rendering="auto" dominant-baseline="auto" fill-opacity=".2" image-rendering="auto" shape-rendering="auto" solid-color="#000000" stop-color="#000000" style="font-feature-settings:normal;font-variant-alternates:normal;font-variant-caps:normal;font-variant-east-asian:normal;font-variant-ligatures:normal;font-variant-numeric:normal;font-variant-position:normal;font-variation-settings:normal;inline-size:0;isolation:auto;mix-blend-mode:normal;paint-order:stroke fill markers;shape-margin:0;shape-padding:0;text-decoration-color:#000000;text-decoration-line:none;text-decoration-style:solid;text-indent:0;text-orientation:mixed;text-transform:none;white-space:normal"/>
 <path d="m71.209 8.459c-6.3378 7.878e-4 -11.54 5.2032-11.539 11.541-2.97e-4 2.8434 1.1561 5.3734 2.8828 7.3926-0.68759 0.13658-1.3388 0.36195-1.9688 0.67188-6.179 0.14627-11.664 0.8916-16.5 3.1113-5.8931 2.7047-10.257 7.7789-12.426 14.154-1.271 3.7353 0.7681 7.8751 4.5039 9.1445 0.32081 0.10905 0.64601 0.06179 0.9707 0.12305-4.1616 5.9368-5.8641 13.414-4.3359 20.748 2.1425 10.281 10.152 18.374 20.41 20.623 10.258 2.2491 20.921-1.7495 27.168-10.191h-2e-3c0.21922-0.29609 0.28238-0.6474 0.44922-0.96484 2.0253 3.7769 6.737 5.3592 10.609 3.4531 3.9562-1.9474 5.6137-6.8196 4.6399-8.7985l-11.284-22.918c-1.1222-2.2812-3.2635-3.9027-5.7637-4.3633l-8.9688-1.6504c1.2518-5.3177 2.018-10.758 2.0996-15.174 0.02607-1.4054-0.41976-2.6719-1.0449-3.8398 0.03513 3.25e-4 0.06441 0.01953 0.09961 0.01953 6.3388 6.64e-4 11.542-5.2022 11.541-11.541 6.62e-4 -6.3388-5.2022-11.542-11.541-11.541zm-16.16 34.557c-0.4784 2.7027-0.99129 4.9384-1.623 7.082-1.6093-2.1324-4.5685-3.1783-6.7148-2.9707 2.0893-2.9006 5.2599-3.6092 8.3379-4.1113zm-2.7539 16.322c0.91108 2.6372 2.9817 4.8482 5.9609 5.3965l13.877 2.5508 3.5371 7.1855c-2.559-0.37946-5.2534 0.528-6.8828 2.7305-2.8912 3.9069-7.7467 5.7303-12.494 4.6895-4.7478-1.0408-8.3951-4.7262-9.3867-9.4844-0.99131-4.7578 0.88144-9.5947 4.8184-12.445 0.23694-0.17157 0.36073-0.42828 0.57031-0.62305z" color="#000000" color-rendering="auto" dominant-baseline="auto" fill="#529add" image-rendering="auto" shape-rendering="auto" solid-color="#000000" stop-color="#000000" style="font-feature-settings:normal;font-variant-alternates:normal;font-variant-caps:normal;font-variant-east-asian:normal;font-variant-ligatures:normal;font-variant-numeric:normal;font-variant-position:normal;font-variation-settings:normal;inline-size:0;isolation:auto;mix-blend-mode:normal;paint-order:stroke fill markers;shape-margin:0;shape-padding:0;text-decoration-color:#000000;text-decoration-line:none;text-decoration-style:solid;text-indent:0;text-orientation:mixed;text-transform:none;white-space:normal"/>
 <path d="m71.459 11.459a8.5401 8.5401 0 0 0-8.5391 8.541 8.5401 8.5401 0 0 0 8.5391 8.541 8.5401 8.5401 0 0 0 8.541-8.541 8.5401 8.5401 0 0 0-8.541-8.541zm-7.1973 18.707c-0.96156 0.01774-1.898 0.3098-2.6992 0.8418-6.2657 0.09823-11.511 0.84504-15.977 2.8945-5.1262 2.3527-8.9023 6.7039-10.838 12.395-0.74856 2.2 0.42861 4.5902 2.6289 5.3379 2.1989 0.74746 4.5874-0.42846 5.3359-2.627 1.3667-4.0181 3.1489-5.9748 6.3828-7.459 2.3348-1.0716 5.6124-1.7448 9.8672-2.0078-0.62846 5.2531-2.0341 11.837-3.5762 15.145-1.3955 2.9942 0.41321 6.4998 3.6621 7.0977l15.359 2.8242 9.1914 18.668c1.2315 2.5007 4.2569 3.5299 6.7578 2.2988 2.5018-1.2315 3.5312-4.2583 2.2988-6.7598l-10.311-20.941c-0.70467-1.4324-2.0453-2.4471-3.6152-2.7363l-11.996-2.207c1.7313-5.9506 2.5771-12.596 2.6699-17.623 0.05171-2.7873-2.1658-5.0888-4.9531-5.1406-0.06315-0.0012-0.12631-0.0012-0.18945 0zm-16.666 19.82c-0.73113 0.04659-1.4918 0.30244-2.3164 0.73047-7.5519 5.4681-11.197 14.89-9.2949 24.018 1.9022 9.1278 9.0076 16.308 18.115 18.305 9.1075 1.9968 18.567-1.5521 24.113-9.0469 1.3828-1.8676 0.98922-4.5027-0.87891-5.8848-1.8676-1.3828-4.5027-0.98922-5.8848 0.87891-3.5868 4.8469-9.659 7.1253-15.549 5.834-5.8899-1.2911-10.452-5.8998-11.682-11.803-1.2299-5.9029 1.1123-11.95 5.9961-15.486 1.882-1.3628 2.3026-3.9933 0.93945-5.875-1.2046-1.2453-2.34-1.7476-3.5586-1.6699z" color="#000000" color-rendering="auto" dominant-baseline="auto" fill="#fff" image-rendering="auto" shape-rendering="auto" solid-color="#000000" stop-color="#000000" style="font-feature-settings:normal;font-variant-alternates:normal;font-variant-caps:normal;font-variant-east-asian:normal;font-variant-ligatures:normal;font-variant-numeric:normal;font-variant-position:normal;font-variation-settings:normal;inline-size:0;isolation:auto;mix-blend-mode:normal;paint-order:stroke fill markers;shape-margin:0;shape-padding:0;text-decoration-color:#000000;text-decoration-line:none;text-decoration-style:solid;text-indent:0;text-orientation:mixed;text-transform:none;white-space:normal"/>
</svg>
