<?xml version="1.0" encoding="UTF-8"?>
<svg fill="#000000" version="1.1" viewBox="0 0 24 24" xmlns="http://www.w3.org/2000/svg">
 <path d="m9 2-2 2h-3c-1 0-2 1-2 2v10c0 1 1 2 2 2h6.0723a7 7 0 0 1-0.072266-1 7 7 0 0 1 0.083984-1.084 5 5 0 0 1-4.084-4.916 5 5 0 0 1 5-5 5 5 0 0 1 4.916 4.084 7 7 0 0 1 1.084-0.083984 7 7 0 0 1 3 0.67578v-4.6758c0-1-1-2-2-2h-3l-2-2h-4zm1.9492 6a3 3 0 0 0-2.9492 3 3 3 0 0 0 2.6836 2.9824 7 7 0 0 1 3.2988-3.2988 3 3 0 0 0-2.9824-2.6836 3 3 0 0 0-0.050781 0zm6.084 3.9668a5 5 0 0 0-5 5 5 5 0 0 0 5 5 5 5 0 0 0 5-5 5 5 0 0 0-5-5zm-1.0332 2.0332h2v2h2v2h-2v2h-2v-2h-2v-2h2v-2z"/>
</svg>
