<?xml version="1.0" encoding="UTF-8"?>
<svg version="1.1" viewBox="0 0 24 24" xmlns="http://www.w3.org/2000/svg">
 <path d="m5.0019 0.99608-0.00195 9.004h-3v11h3l0.00195 2.002h17v-16.195l-5.2773-5.8105zm0.99609 1.0039h10.002v5.5h4.998v2.5h-14.998zm0.00195 9c2 0 2.5 0.99999 2.5 3h-1.5c0-0.6875-1.26e-5 -1.5-1-1.5-0.99999 0-1 1.5-1 3s1.26e-5 3 1 3c0.99999 0 1-0.75001 1-1.75h-1v-1.25h2.5c0.015798 3.1161-0.49999 4.5-2.5 4.5-2 0-2.5-2.4945-2.5-4.5 0-2.0055 0.49999-4.5 2.5-4.5zm4 0h2c3.9999 0 3.9999 6 0 6h-0.5v3h-1.5zm5.5 0h1.5l1 3 1-3h1.5l-1.5 4.5 1.5 4.5h-1.5l-1-3-1 3h-1.5l1.5-4.5zm-4 1.5v3c0.99999 0 2-0.49998 2-1.5 0-0.99999-0.99998-1.5-2-1.5zm-5.5 8.5h14.998v0.99805h-15z"/>
</svg>
