<?xml version="1.0" encoding="UTF-8"?>
<svg version="1.1" viewBox="0 0 96 96" xmlns="http://www.w3.org/2000/svg">
 <g transform="matrix(1.508 -1.6961e-5 1.6961e-5 1.508 -99.113 -1110.4)">
  <path d="m77.219 763.36 26.408-0.91079-2.4743 8.144 1.0972 27.424-25.782-4.4246c-1.1581-6.5947 8.7192-17.809 8.7192-17.809 0.01276-0.0638-3.9046-7.1545-7.9678-12.424z" fill="#c988ad" style="paint-order:normal"/>
  <path d="m102.25 798.02 18.191-9.0442c-0.80764-11.237-4.0408-21.11 0.029-35.091l-16.843 8.5669-2.4743 8.144z" fill="#b06b92"/>
  <path d="m101.85 788.06 17.474-7.9c-0.35142-5.6907-1.4488-11.754-0.6013-16.846l-17.565 7.2829" fill="#c0c0c0"/>
  <path d="m80.361 767.64 20.792 2.9536 0.69278 17.463-22.381-4.0918c1.6275-3.604 5.7219-8.1802 5.7219-8.1802z" fill="#eee"/>
  <path d="m83.935 747.62-1.0494-6.1002 23.25-2.5784 1.2264 6.7919z" fill="#6f9adb"/>
  <path d="m107.36 745.74 13.108 8.149-16.843 8.5669-19.692-14.829z" fill="#944f76"/>
  <path d="m103.63 762.45 16.843-8.5669-24.069-3.1814 7.2268 11.748" fill="#a55883"/>
  <path d="m77.219 763.36 6.7164-15.74 23.427-1.8868-3.735 16.716z" fill="#d19aba"/>
  <g transform="rotate(-10.439,120.47,753.88)">
   <path transform="translate(0,738.52)" d="m94.477 6.7129-7.4102 4.7559 1.8418 2.3164c0.91641 0.91602 1.9091 1.5023 3.2793 1.5039 2.6726-3.4e-5 4.8393-1.9481 4.8398-4.3516-0.0021-0.78748-0.42923-1.341-0.88086-2.0156z" fill="#3e66a2" style="paint-order:normal"/>
   <ellipse cx="90.887" cy="747.78" rx="4.4024" ry="4.3525" fill="#6f9adb" style="paint-order:normal"/>
  </g>
  <path d="m85.187 775.79 16.188-1.2665-21.014-6.8778z" fill-opacity=".17172"/>
  <path d="m101.15 770.6 19.317-16.711-16.843 8.5669z" fill-opacity=".18182"/>
  <path d="m85.648 777.54-4.4194 5.8336 17.766-6.7175z" fill="#fff" fill-opacity=".73232"/>
 </g>
</svg>
