<?xml version="1.0" encoding="UTF-8"?>
<svg width="100%" height="100%" version="1.1" viewBox="0 0 96 96" xmlns="http://www.w3.org/2000/svg">
 <g transform="matrix(1.0972 0 0 1.0972 22.68 -1032)">
  <path d="m32.406 1002.6c-10.051-3.4923-19.236-3.306-20.516 0.4162l-0.46436 1.338c-1.2801 3.7222 5.0456 11.851 15.096 15.344 10.051 3.4923 20.02 1.0254 21.3-2.6968l0.46436-1.338c1.2801-3.7223-5.8299-9.5708-15.881-13.063z" fill="#8d8c7f" style="paint-order:fill markers stroke"/>
  <path d="m26.758 963.9-2.8586 8.4361-1.3932 14.6-7.3426 10.678-1.8622 5.4151c-1.3813 4.3193 6.1294 10.605 14.298 13.451 8.1686 2.8469 17.995 2.9579 19.428-1.211l2.0224-5.8807 1.3683-12.341 7.3393-12.947 2.7091-7.9096z" fill="#c2c2c0" style="paint-order:fill markers stroke"/>
  <path d="m46.888 960.52c-10.051-3.4923-19.236-3.306-20.516 0.4162l-0.46436 1.338c-1.2801 3.7222 5.2505 11.256 15.301 14.748 10.051 3.4923 19.815 1.6211 21.095-2.1011l0.46436-1.338c1.2801-3.7222-5.8299-9.5707-15.881-13.063z" fill="#8d8c7f" style="paint-order:fill markers stroke"/>
  <ellipse transform="matrix(.9446 .32822 -.3252 .94564 0 0)" cx="356.71" cy="899.99" rx="16.686" ry="6.4477" fill="#5f553c" style="paint-order:fill markers stroke"/>
  <g transform="matrix(.62753 .21805 -.28972 .84245 321.57 -114)">
   <path d="m108.06 1267.5 0.96521 3.0021c10.298 8.8536 39.616 9.1927 52.122 0l0.86868-3.0021c-13.552 9.4413-42.55 8.7559-53.955 0z" fill="#8d8c7f"/>
   <path d="m108.06 1267.5 0.96521-3.0021c11.373 8.003 40.267 8.5058 52.122 0l0.86868 3.0021c-12.75 9.2549-41.701 9.1372-53.955 0z" fill="#e1e1df"/>
  </g>
  <g transform="matrix(.62753 .21805 -.28972 .84245 319.83 -108.94)">
   <path d="m108.06 1267.5 0.96521 3.0021c10.298 8.8536 39.616 9.1927 52.122 0l0.86868-3.0021c-13.552 9.4413-42.55 8.7559-53.955 0z" fill="#8d8c7f"/>
   <path d="m108.06 1267.5 0.96521-3.0021c11.373 8.003 40.267 8.5058 52.122 0l0.86868 3.0021c-12.75 9.2549-41.701 9.1372-53.955 0z" fill="#e1e1df"/>
  </g>
  <g transform="matrix(.62753 .21805 -.28972 .84245 318.09 -103.88)">
   <path d="m108.06 1267.5 0.96521 3.0021c10.298 8.8536 39.616 9.1927 52.122 0l0.86868-3.0021c-13.552 9.4413-42.55 8.7559-53.955 0z" fill="#8d8c7f"/>
   <path d="m108.06 1267.5 0.96521-3.0021c11.373 8.003 40.267 8.5058 52.122 0l0.86868 3.0021c-12.75 9.2549-41.701 9.1372-53.955 0z" fill="#e1e1df"/>
  </g>
  <g transform="matrix(.62753 .21805 -.28972 .84245 316.35 -98.822)">
   <path d="m108.06 1267.5 0.96521 3.0021c10.298 8.8536 39.616 9.1927 52.122 0l0.86868-3.0021c-13.552 9.4413-42.55 8.7559-53.955 0z" fill="#8d8c7f"/>
   <path d="m108.06 1267.5 0.96521-3.0021c11.373 8.003 40.267 8.5058 52.122 0l0.86868 3.0021c-12.75 9.2549-41.701 9.1372-53.955 0z" fill="#e1e1df"/>
  </g>
  <g transform="matrix(.62753 .21805 -.28972 .84245 333.44 -74.093)">
   <path d="m71.626 1223.6 0.96521 3.0021c10.298 8.8536 39.616 9.1927 52.122 0l0.86868-3.0021c-13.552 9.4413-42.55 8.7559-53.955 0z" fill="#8d8c7f"/>
  </g>
  <path d="m15.202 997.63 1.4755-2.3187c4.8181 9.222 22.804 15.946 32.708 11.365l-0.32464 2.7185c-10.682 5.0168-28.816-1.3953-33.858-11.765z" fill="#e1e1df"/>
  <path d="m26.174 965.16c1.0575 2.3034 3.9059 5.6444 5.2903 6.626l-12.456 40.18c-2.2438-2.2859-5.2521-3.2052-5.99-8.1831z" fill="#fff" fill-opacity=".38384"/>
  <path d="m36.69 975.19-13.222 39.374c8.0057-13.978 13.836-29.131 19.648-36.808z" fill="#fff" fill-opacity=".38384"/>
 </g>
 <g transform="matrix(.63199 -.59431 .63199 .59431 -541.33 -586.04)">
  <g transform="matrix(.67182 0 0 .67182 -112.56 340.57)">
   <path d="m58.426 961.93c-15.339-4.11-28.861-3.3817-30.203 1.6266l-0.48862 1.8006c-1.342 5.0083 9.1823 15.469 24.521 19.579 15.339 4.11 29.683 0.3131 31.025-4.6952l0.48862-1.8006c1.342-5.0084-10.005-12.4-25.343-16.51z" fill="#8d8c7f" style="paint-order:fill markers stroke"/>
   <path d="m35.477 943.47c-3.027 24.955-1.2415 9.7101-4.891 19.187-1.4036 5.8063 10.598 13.757 23.066 17.108 12.468 3.3517 26.978 2.9847 28.482-2.6247 0 0-0.15047-0.26647 4.8726-19.119z" fill="#c2c2c0" style="paint-order:fill markers stroke"/>
   <path d="m64.676 937.93c-15.339-4.11-28.861-3.3817-30.203 1.6266l-0.48862 1.8006c-1.342 5.0084 9.397 14.667 24.736 18.777 15.339 4.11 29.468 1.1146 30.81-3.8937l0.48862-1.8006c1.342-5.0084-10.005-12.4-25.343-16.51z" fill="#8d8c7f" style="paint-order:fill markers stroke"/>
   <ellipse transform="rotate(15)" cx="305.22" cy="899.86" rx="24.903" ry="8.4934" fill="#5f553c" style="paint-order:fill markers stroke"/>
   <path d="m34.277 950.33s1.6688-0.31142-1.9806 9.1658c-0.10121 5.0621 10.335 13.889 22.803 17.24 12.468 3.3517 26.584 1.2743 28.087-4.335l2.23-8.85c-21.34 6.2771-40.563-2.2891-51.139-13.221z" fill="#cd7a7a" style="paint-order:fill markers stroke"/>
  </g>
  <path d="m-86.995 958.39c3.2286-0.99089 3.7598-2.689 2.8539-4.7022 2.7822-0.0119 5.5137-0.70203 6.0502-3.5528 2.8091 1.5768 5.2325 1.5955 6.9634-1.1494 2.0909 2.0747 4.3095 2.1089 7.0776 0 1.3819 1.4858 1.585 4.0307 7.0776 1.7764 0.42535 1.8147 1.5346 2.9339 5.0228 2.6123 0.03302 1.8864-1.4097 3.7145 3.3105 5.4337-2.4681 1.5416-2.9572 3.2569-1.3699 5.1202-2.9364 0.32465-4.9981 1.0312-4.3379 3.3438-3.0927-0.33043-6.6557-1.1243-7.5342 2.4034-2.6127-0.87509-5.4743-1.6986-6.7351 0.52247l-7.3059-0.94044c-1.4264-1.6435-2.7327-3.5041-6.1643-2.0899 0.37926-2.3042-0.91391-3.805-4.6803-3.9708 2.0024-2.0561 1.1991-3.5167-0.22831-4.8067z" fill="#655e4d" stroke="#8d8c7f" stroke-width="2"/>
 </g>
</svg>
