<?xml version="1.0" encoding="UTF-8"?>
<svg width="100%" height="100%" version="1.1" viewBox="0 0 96 96" xmlns="http://www.w3.org/2000/svg">
 <g transform="matrix(-.99816 0 0 .99816 138.2 -657.77)">
  <ellipse cx="104.5" cy="726.98" rx="15.91" ry="4.29" fill="#786c5d" style="paint-order:normal"/>
  <path d="m105.19 689.83 7.9594-1.7685c16.765-3.1448 17.102 8.5604 17.102 8.5604 0.41012 13.206-3.0294 20.405-7.0648 13.935l-10.037-22.495" fill="none" stroke="#494949" stroke-width="6"/>
  <path d="m104.39 697.06c-7.8101-6e-5 -14.142 1.5826-14.143 3.5352 0.0047 0.22961 0.09893 0.45855 0.28125 0.68359v23.869c-0.03836 0.10129-0.05921 0.20295-0.0625 0.30469-0.0035 1.9533 6.3295 3.5372 14.143 3.5371 7.8131 6e-5 14.146-1.5838 14.143-3.5371-5e-3 -0.2336-0.10236-0.46651-0.29102-0.69531v-23.809c0.047-0.11747 0.0705-0.23545 0.0703-0.35351-8.4e-4 -1.9523-6.3313-3.535-14.141-3.5352z" fill="#97928a" style="paint-order:normal"/>
  <ellipse cx="104.59" cy="702.06" rx="15.91" ry="4.54" fill="#786c5d" style="paint-order:normal"/>
  <path d="m118.29 700.03s-0.13654 4.0806-13.833 4.11c-14.004 0.0302-14.01-4.11-14.01-4.11-0.39174-7.1341 6.3577-9.6087 14.046-9.6087 7.6884 0 13.796 1.9202 13.796 9.6087z" fill="#97928a" style="paint-order:normal"/>
  <path d="m104.35 686.38c-3.0229-2e-5 -5.4736 0.61257-5.474 1.3683l0.08467 3.6212c-0.0013 0.75603 2.4499 1.3691 5.474 1.3691 3.0241 2e-5 5.4753-0.61303 5.474-1.3691l-0.0854-3.6212c-3.2e-4 -0.75566-2.4506-1.3682-5.4732-1.3683z" fill="#786c5d" style="paint-order:normal"/>
  <path d="m105.91 687.91c1.8339-6.7519 13.861-3.4968 16.587-10.769" fill="none" stroke="#373737" stroke-width="6"/>
  <path d="m104.35 686.38c-10.822-5.6125-21.261-7.2732-28.38 4.6717" fill="none" stroke="#565454" stroke-width="4"/>
 </g>
 <g transform="matrix(1.4038 0 0 1.4038 -4.0872 -906.77)">
  <path d="m64.314 690.09c0 7.5974-6.1589 13.756-13.756 13.756-7.5974 0-13.756-6.1589-13.756-13.756 0-7.2012 13.678-23.846 13.678-27.48 0 3.5106 13.834 19.908 13.834 27.48z" stroke="#fff" stroke-linejoin="round" style="paint-order:normal"/>
  <path d="m45.654 675.87c-13.069 16.506-2.9861 25.35 3.6215 26.006-2.8032-2.1985-10.836-9.2825-3.6215-26.006z" fill="#e1e1e1" fill-opacity=".96471"/>
  <path d="m51.476 667.51c3.3775 7.1811 13.17 19.908 7.381 21.308s-5.7413-15.64-7.381-21.308z" fill="#bdbdbd" fill-opacity=".65657"/>
  <path d="m51.854 668.9c3.3775 7.1811 9.533 15.481 6.1202 15.481s-5.1014-9.7708-6.1202-15.481z" fill="#fff" fill-opacity=".65657"/>
 </g>
</svg>
