<?xml version="1.0" encoding="UTF-8"?>
<svg version="1.1" viewBox="0 0 96 96" xml:space="preserve" xmlns="http://www.w3.org/2000/svg"><g transform="matrix(.64461 -.005248 .005248 .64461 17.698 6.9657)"><path d="m20.24 47.26s-5.48 3.45-6.11 6.89c-0.63 3.45 0.63 7.52 2.35 10.18s3.76 4.86 6.27 5.8 4.7 0.78 4.7 0.78 5.8 6.58 16.13 15.51 23.5 19.58 38.38 27.88 20.21 10.34 24.28 10.34 3.92-6.11 3.45-7.99-26.63-31.01-26.63-31.01z" fill="#d0892f"/><path d="m31.21 62.46-3.92-4.23s-4.07-7.68-7.83-7.68-5.33 3.6-5.33 3.6-0.47-3.92 4.23-11.43 10.65-13.47 15.98-17.23 11.9-8.15 16.29-10.65 13.94-5.64 19.43-7.52c5.48-1.88 17.39-4.23 22.87-3.13s7.83 4.86 7.83 8.77-0.94 6.58-1.72 7.36-5.95 5.17-5.95 5.17z" fill="#e0ab53"/><path d="m42.2 45.95-9.71 6.27-4.07 7.99s0.78 2.66 2.04 4.07c1.25 1.41 11.74 11.46 19.25 17.88 5.86 5.01 18.35 15.64 18.35 15.64s0.51 5.34 1.1 9.09c0.47 2.98 0.5 7.95 3.64 7.81 3.96-0.18 1.68-8.2 4.82-8.12 6.27 0.16 0.05 17.12 6.79 17.03 5.37-0.07 1.96-9.34 4.65-10.92 1.46-0.86 4.36 2.79 9.09 4.86 5.84 2.55 9.4 4.48 11.28 3.6 3.97-1.86-4.4-45.23-5.34-52.59s-5.62-45.16-5.94-46.41-6.74-1.41-6.74-1.41l-9.87 3.45-14.1 1.88-16.6 9.87z" fill="#f2cd6b"/><path d="m39.75 44.38c-3.08 1.74-7.05 2.71-10.4 8.23-2.79 4.6-3.53 9.31-1.54 9.67s3.5-6.58 6.15-9.22c4.25-4.25 7.69-4.7 10.13-6.96s5.11-8.4 15.28-13.83c11.85-6.33 18.93-4.66 21.7-5.7 3.62-1.36 4.6-3.58 9.13-4.52 4.79-0.99 8.12 0.92 8.12 0.92s1.09-2.53-0.36-3.71-4.12-2.1-8.58-1.19c-4.88 0.99-8.5 4.25-9.49 4.34s-11.12-0.45-23.15 6.42-14.28 14.01-16.99 15.55z" fill="#b76f36"/><path d="m42.19 50.26c-1.73 1.34-5.06 5.88-4.79 9.13 0.27 3.26 5.88 8.95 7.41 9.49s6.51 0.63 7.78 0.27 6.15-3.98 6.87-5.24c0.72-1.27 1.36-8.32 0.18-9.58s-4.7-4.97-7.5-5.79c-2.81-0.81-8.32 0.45-9.95 1.72z" fill="#eb501d"/><path d="m76.258 67.702c-2.21 0.8-7.5 4.07-7.6 7.69-0.09 3.62 2.53 8.05 3.89 9.04s5.88 3.62 9.22 3.44c3.35-0.18 7.96-2.89 8.59-4.34s0.9-5.7 0.63-7.87-4.97-7.05-7.32-7.78c-2.35-0.72-5.42-0.9-7.41-0.18z" fill="#eb501d"/><path d="m106.94 88.284s-6.02-0.71-9.13 4.88c-2.38 4.29-0.72 7.87 1.18 9.95 1.9 2.08 4.79 3.44 6.96 3.62s4.27 0.01 4.27 0.01-0.84-5.55-1.66-10.19c-0.5-2.78-1.62-8.27-1.62-8.27z" fill="#eb501d"/><path d="m87.31 28.28c-2.53-0.49-6.06 0.54-7.78 1.72s-4.52 3.62-4.7 5.43 1.45 7.05 2.08 8.05c0.63 0.99 3.25 3.68 4.07 4.07 1.9 0.9 7.14 0.45 8.68-0.09s5.79-3.98 6.24-5.79 0.99-4.88-1.09-8.59-5.15-4.34-7.5-4.8z" fill="#eb501d"/></g><g transform="matrix(.38254 0 0 .38254 8.5632 41.722)"><path d="m8.8429 64.383c-2.7554 9.107-1.9829 21.567 1.2271 27.507 3.09 5.72 6.1 7.97 9.39 9.96 1.41 0.85 2.67 3.76 4.87 5.17 2.06 1.32 4.78 1.58 4.78 1.58s7.52 11.81 23.79 13.86c19.09 2.4 28.43-6.22 28.43-6.22s7.64-0.02 14.85-3.11c8.09-3.47 12.41-10.69 12.41-10.69s10.13-8.72 13.34-19.16c2.58-8.38 2.65-24.31 0.67-31.81s-12.028-22.053-15.068-26.123c-19.082 33.829-44.252 46.121-98.689 39.036z" fill="#8a5a31"/><path transform="matrix(3.0231 0 0 3.0231 -79.099 -340.56)" d="m61.735 121.04a7.7835 7.453 89.557 0 1-3.6543 1.8711 6.9569 7.0193 89.557 0 1 0.02734 0.35743 6.9569 7.0193 89.557 0 1-6.9648 7.0098 6.9569 7.0193 89.557 0 1-2.3594-0.40234 6.9569 7.0193 89.557 0 1-6.1133 3.6387 6.9569 7.0193 89.557 0 1-4.1738-1.3457 7.9157 8.5106 89.557 0 1-5.8828 2.2617 7.9157 8.5106 89.557 0 1-2.4941-0.34179c0.10345 0.575 0.21168 1.1964 0.28711 1.5898 0.21501 1.1247 0.78857 3.7908 2.373 5.4414 2.2196 2.3122 4.2305 3.1094 4.2305 3.1094s1.6306 2.5271 5.5703 3.9727c5.1801 1.8987 7.5114-0.86331 9.4961-1.5977s4.3615-0.77743 6.3926-2.2031c2.0277-1.4257 4.2735-3.1519 5.7422-6.7774 1.4687-3.6254 1.164-5.2225 1.207-6.1289 0.043-0.90636-0.08582-5.2673-1.7695-7.9434-0.61822-0.9826-1.2824-1.8187-1.9141-2.5117z" fill="#c07f48" stroke-width=".33079"/><path d="m53.845 82.41c-1.11-0.35-2.28-2-2.56-5.53-0.39-5.03 3.32-6.42 3.32-6.42s4.42-1.17 7.53-2.28c2.89-1.03 4.97-2.35 4.97-2.35s0.28-5.39 2.07-6.98c1.8-1.59 4.97-1.45 8.5-1.04 3.52 0.41 9.19 2.76 8.36 4.9s-1.8 4.28-5.18 6.22c-3.38 1.93-5.8 3.73-7.53 5.25-1.73 1.53-4.9 3.45-10.15 5.39s-7.73 3.34-9.33 2.84z" fill="#daa264"/><path d="m98.34 43.19c0.23 2.1 3.18 2.56 5.53 4.08s3.94 3.11 5.32 2.69c1.38-0.41 3.26-2.62 2.83-6.49-0.55-4.97-3.66-11.33-8.01-11.12-2.63 0.13-2.27 4.7-2.27 4.7s-3.54 4.9-3.4 6.14z" fill="#dca262"/><path d="m24.82 66.86s-3.77 0.93-4.01 2.22c-0.23 1.29 0.31 2.59 1.6 3.82s2.23 2.52 3.22 2.4c1-0.12 3.63-2.46 4.45-3.22s1.99-2.11 1.88-3.22-0.59-2.23-1.64-3.11c-1.04-0.88-5.5 1.11-5.5 1.11z" fill="#593329"/><path d="m25.76 63.52c-1.76 0.04-3.11 2.17-3.69 2.93-0.59 0.76-1.58 2.58-1.17 2.87s2.11 0.47 2.93 1 2.05 1.35 2.99 0.59 1.76-2.87 2.23-3.57 1.29-1.58 1.29-1.58-1.77-2.3-4.58-2.24z" fill="#925849"/><path d="m47.27 77.64c-0.35 0.41-5.33 4.45-5.33 4.45s0.18 3.52 1.29 4.34 4.57 1.99 6.8 2.46 6.21 1 7.21 0.59 2.05-2.58 2.11-5.39-0.94-4.91-2.05-6.2-2-1.77-2-1.77z" fill="#593329"/><path d="m53.89 82.91c0.65-0.73 1.41-6.8 1.41-6.8s-4.51-3.46-6.39-3.69-4.1-0.06-4.75 0.64c-0.64 0.7-3.16 3.22-2.93 4.86s0.7 4.16 0.7 4.16 10.61 2.36 11.96 0.83z" fill="#925849"/><path d="m75.75 85.8s-0.57 3.8 3.61 4.52c4.18 0.71 7.65 1.66 9.46 1.28s3.61-2.8 3.8-4.56 0.29-4.3 0-4.99c-0.76-1.83-4.28-6.84-5.99-7.37-0.96-0.29-1.87-0.13-1.87-0.13z" fill="#593329"/><path d="m78.46 79.14c-1.87 2.07-2.83 5.06-2.73 6.64 0.1 1.49 7.19 0.84 8.03 0.33s2.67-2.79 2.73-3.55-0.52-3.14-0.62-4.61-0.14-3.47-0.95-3.42-3.8 1.67-6.46 4.61z" fill="#925849"/><path d="m102.44 53.34s1.65 0.24 3.68 1.46c2.37 1.42 4.85 5.04 4.66 7.99s-2.76 4.28-5.89 4.33-6.19-0.12-6.76-1.74 4.31-12.04 4.31-12.04z" fill="#593329"/><path d="m99.94 54.33c-0.49 0.68-1.76 2.76-2.19 5.42s-0.14 5.7 0.81 6.23c0.95 0.52 6.18-3.99 6.46-4.47 0.29-0.48-1.67-7.75-2.29-8.08s-2.17 0.05-2.79 0.9z" fill="#925849"/></g><g transform="translate(-18.101 20.791)"><path d="m43.929 34.956c-7.6706-3.0506-12.222-6.1311-14.537-11.49-2.3127-5.3631-1.9464-11.88 2.261-16.871 6.5169 0.36639 11.508 4.5703 13.825 9.9317 2.3065 5.3612 1.5003 10.756-1.549 18.429z" fill="#77b255"/><path d="m43.929 34.956c-3.1906-4.9478-12.034-14.333-12.276-28.361-5.3566 4.5274-7.531 20.431 2.2228 24.381 6.9211 2.6039 10.053 3.9798 10.053 3.9798" fill="#5c913b"/></g><g transform="translate(3.7825 -18.72)"><path d="m34.623 38.212c-8.1074 3.4446-12.161 5.1695-17.936 2.8417-5.7812-2.3339-10.388-7.5495-10.949-14.492 5.2179-4.616 12.159-5.1651 17.941-2.8405 5.773 2.3294 7.4966 6.387 10.945 14.49z" fill="#77b255"/><path d="m33.568 38.783c-4.0857-1.3477-20.587-6.1428-27.831-12.221-0.669 7.7906 8.7519 20.507 18.472 17.411 6.9039-2.5354 9.3584-5.1905 9.3584-5.1905" fill="#5c913b"/></g><g transform="matrix(.65405 -.65405 .65405 .65405 -.2739 25.832)"><path d="m34.623 38.212c-8.1074 3.4446-12.161 5.1695-17.936 2.8417-5.7812-2.3339-10.388-7.5495-10.949-14.492 5.2179-4.616 12.159-5.1651 17.941-2.8405 5.773 2.3294 7.4966 6.387 10.945 14.49z" fill="#77b255"/><path d="m33.568 38.783c-4.0857-1.3477-20.587-6.1428-27.831-12.221-0.669 7.7906 8.7519 20.507 18.472 17.411 6.9039-2.5354 9.3584-5.1905 9.3584-5.1905" fill="#5c913b"/></g></svg>
