<?xml version="1.0" encoding="UTF-8"?>
<svg version="1.1" viewBox="0 0 96 96" xmlns="http://www.w3.org/2000/svg">
 <path d="m16 20 44-12v56l-44 20z" fill="#9b9bbd" fill-opacity=".62353"/>
 <path d="m53.986 8h6.0143v56h-5.922z" fill="#a5a5c3" fill-opacity=".5"/>
 <path d="m8 84h8l44-20h-5.922z" fill="#626294" fill-opacity=".5"/>
 <path d="m8 20h8v64h-8z" fill="#dfdfe9" fill-opacity=".8"/>
 <path d="m8 20h8l44-12h-6.0143z" fill="#7b7ba7" fill-opacity=".8"/>
 <path d="m32 20-12 16v12l22.494-32z" fill="#fff" fill-opacity=".14"/>
 <path d="m20 56v20l28-60z" fill="#fff" fill-opacity=".14"/>
 <g transform="matrix(.70283 .40578 -.40578 .70283 396.55 -761.51)">
  <path id="glass_bottles" d="m139.5 1028.5v7.5c0.19842 0.4623 0.73815 1.1278 1.5 1.5v18.5c-5.0387 2.3857-11 6.4999-11 12.5l4e-5 46c0 5.9999 8 7.9999 17 7.9999s17-2 17-7.9999l-4e-5 -46c0-6-5.9612-10.114-11-12.5v-18.5c0.79701-0.3788 1.2966-1.0245 1.5-1.5v-7.5c-0.4451-1.4272-3.7205-2.5035-7.7446-2.5049-4.0242 0-7.2564 0.9396-7.2554 2.5049z" fill="#4c8235" fill-opacity=".90404" stroke-width="1.0807" style="paint-order:fill markers stroke"/>
  <path d="m160 1114.9c6e-5 2.9313-6.54 5.3076-13.109 5.3076s-12.891-2.3763-12.891-5.3076c4.6827-2.6183 6.5732-9.4878 13.142-9.4878 6.569 0 8.2607 5.5878 12.858 9.4878z" fill="#1d3214" fill-opacity=".35859" stroke-width=".79752" style="paint-order:fill markers stroke"/>
  <path d="m141 1029.6v5.875c2.6026 3.3186 9.4818 3.3788 11.75 0v-5.875c-4.2578 2.1581-7.4253 2.118-11.75 0z" fill="#1d3214" fill-opacity=".35686" stroke-width=".84656" style="paint-order:fill markers stroke"/>
  <path transform="translate(0,738.52)" d="m143.06 299.91v19.088c-5.4808 2.1531-8.093 6.9939-8.9503 10.963l-0.11221 46.467c0.4677 2.2992 3.5371 3.6348 6.5 4.4369v-50.992c0.0537-3.2631 1.2299-6.7814 4.9375-10.875l-0.13281-18.424c-1.0415-0.074-1.6648-0.35806-2.2422-0.66406z" fill="#98c980" fill-opacity=".25098" style="paint-order:fill markers stroke"/>
 </g>
 <g transform="matrix(.71047 -.10709 .10709 .71047 -161.16 -689.13)">
  <path d="m152.88 1066.5c3.8138 15.362-2.2592 35.938-0.35438 48.858 0 5.9999 8 7.9999 17 7.9999s17-2 17-7.9999c2.3305-17.401-4.9301-31.41-0.23829-48.36-11.123-5.1748-22.263-3.8151-33.407-0.4978z" fill="#ababab" fill-opacity=".62381" stroke-width="1.0807" style="paint-order:fill markers stroke"/>
  <g transform="translate(22.528 .80731)">
   <path d="m160 1114.9c6e-5 2.9313-6.54 5.3076-13.109 5.3076s-12.891-2.3763-12.891-5.3076c2.6489-1.7368 6.6666-2.2647 13.236-2.2647 6.569 0 9.4148 0.3349 12.764 2.2647z" fill="#434343" fill-opacity=".35859" stroke-width=".79752" style="paint-order:fill markers stroke"/>
   <path d="m130.35 1065.7-0.11568 6.8431c2.9211 3.7248 30.877 4.3867 33.422 0.5945l0.10068-6.9398c-4.7789 2.4222-28.553 1.8794-33.407-0.4978z" fill="#636363" fill-opacity=".24748" stroke-width=".95016" style="paint-order:fill markers stroke"/>
   <path transform="translate(0,738.52)" d="m134.11 329.96c2.5055 14.663-0.0343 30.965-0.11221 46.467 0.4677 2.2992 3.5371 3.6348 6.5 4.4369l-0.0338-49.653-6.354-1.2507z" fill="#e8e8e8" fill-opacity=".25098" style="paint-order:fill markers stroke"/>
  </g>
  <path d="m152.88 1066.5c11.03-4.0438 22.162-4.0393 33.407 0.4978l-0.10067 6.9398c-9.6385-3.9992-20.149-5.7909-33.422-0.5945z" fill="#636363" fill-opacity=".24748"/>
 </g>
</svg>
