<?xml version="1.0" encoding="UTF-8"?>
<svg version="1.1" viewBox="0 0 96 96" xmlns="http://www.w3.org/2000/svg">
 <g transform="matrix(.94814 -.2478 .25405 .9248 -3.3181 16.818)">
  <path d="m55.677 53.349c-8.1074 3.4446-12.161 5.1695-17.936 2.8417-5.7812-2.3339-10.388-7.5495-10.949-14.492 5.2179-4.616 12.159-5.1651 17.941-2.8405 5.773 2.3294 7.4966 6.387 10.945 14.49z" fill="#77b255"/>
  <path d="m75.631 36.525c-7.4297 3.5978-12.775 4.8744-18.291 2.9637-5.5174-1.9157-10.077-6.5866-10.917-13.06 4.6708-4.5593 11.142-5.4021 16.661-3.4907 5.5118 1.919 8.9465 6.1565 12.547 13.587z" fill="#77b255"/>
  <path d="m69.138 47.3c10.899 3.679 16.974 12.884 9.9401 21.954-5.3844-0.20634-8.9498-2.7202-11.248-7.5532-2.2966-4.8302-1.0942-8.021 1.308-14.401z" fill="#5c913b"/>
  <path d="m33.871 67.716c-5.153 6.7824-7.7331 10.174-13.7 10.993-5.9721 0.81349-12.524-3.126-16.319-8.684" fill="#5c913b"/>
  <path d="m53.443 58.7c7.0807 6.6159 10.624 9.9248 10.858 16.772 0.2348 6.8525-2.9577 13.817-9.6894 17.475-6.9655-3.1903-10.625-9.9204-10.859-16.777-0.23216-6.8447 3.0761-10.386 9.6904-17.47z" fill="#77b255"/>
  <path d="m53.443 58.7c1.4308-7.4498 13.337 11.285 12.889 16.208 0.66148 8.8877-11.72 18.039-11.72 18.039" fill="#5c913b"/>
  <path d="m69.137 47.3c-1.1865-5.4621 5.5526-2.7979 8.9363 1.9196 6.8422 10.74 9.1594 10.031 1.005 20.034" fill="#77b255"/>
  <path d="m54.622 53.92c-4.0857-1.3477-20.587-6.1428-27.831-12.221-0.669 7.7906 8.7519 20.507 18.472 17.411 6.9039-2.5354 9.3584-5.1905 9.3584-5.1905" fill="#5c913b"/>
  <path d="m75.631 36.525c-5.8039-0.98777-18.698-0.80254-29.208-10.096-0.27771 7.0081 9.9842 19.351 19.484 14.824 6.5941-3.3466 9.724-4.7277 9.724-4.7277" fill="#5c913b"/>
  <path d="m33.92 67.326c-3.9085 1.2908-21.178 6.9076-28.575 4.2163-7.3921-2.6923 9.8083-19.812 26.18-10.17 4.7761 2.8117 2.3952 5.9538 2.3952 5.9538" fill="#77b255"/>
  <path d="m87.811 20.712c1.2343 0.54587 2.5152 2.6385 1.971 3.8756-3.3079 7.5368-13.495 25.15-54.988 43.788-1.2318 0.55645-2.5428 0.87893-3.1361-0.33913-0.59663-1.2142 0.67557-2.0625 1.8898-2.6591 36.147-17.667 46.473-36.564 49.565-43.61 0.54646-1.2366 3.4611-1.5974 4.6988-1.0554" fill="#a06253"/>
 </g>
 <g transform="rotate(-15.709 -270.76 434.92)" stroke-opacity=".2">
  <path d="m112.3 98.784c-0.0282 0.03957-0.0562 0.07928-0.084 0.11914l-2.3828 4.6016c-0.54994 1.6462-0.83652 3.3803-0.84765 5.1289 0 8.5732 6.4813 15.523 14.477 15.523 7.7354-0.018 14.091-6.5534 14.432-14.84l-0.9707-6.3867-6e-3 -0.0156-4.3191 7.5744-6.8703-6.9631-7.6652 6.9164z" fill="#b5a171" stroke-width="12.371"/>
  <path d="m109.74 103.67c-0.49903 1.9326-0.78516 3.9347-0.78516 5.9434 0 10.996 6.4864 17.91 14.488 17.91s14.488-6.914 14.488-17.91l-4.7246-4.3301-2.8438 6.7422-6.6684 1.9005-4.3188-7.863-6.3744 3.6015z" fill="#fae9be" stroke-width="12"/>
  <path d="m137.42 107.4c-0.28903 8.0474-5.024 15.855-13.965 16.154-8.9049 0.29821-13.858-9.8813-13.961-16.15-0.33616 1.5862-0.52734 1.2098-0.52734 2.8379 0 10.996 6.4864 17.91 14.488 17.91s14.49-6.914 14.49-17.91c0-1.6259-0.19008-1.2513-0.5254-2.8418z" fill="#f0d895" stroke-width="12"/>
 </g>
 <g transform="matrix(.93236 .80333 -.714 .82784 306.65 -1125.6)">
  <path d="m464.56 972.09c-13.495 9.4511-4.1108 19.957-1.6254 23.988l-22.001-1.1376c8.273-2.8234 12.845-8.696 3.2523-23.398z" fill="#cfc06b"/>
  <path d="m455.85 967.6s-10.188-0.35428-12.717-2.3188c-2.5286-1.9645-3.0117-5.5684-1.0472-8.0971 1.9645-2.5286 5.6716-3.0675 8.2002-1.103s5.5636 11.519 5.5636 11.519z" fill="#83bf4f" stroke-width="1.1724"/>
  <path d="m454.6 968.84c0-4.1008 2.2888-11.063 11.444-11.063v2.4796c-8.2971 0-8.9647 7.8202-8.9647 8.5832z" fill="#947151" stroke-width=".95369"/>
  <path d="m451.33 967.68c-3.7298 0.0489-8.3971 2.5357-9.9323 6.5163 4.2117 4.8211 7.4229-1.4662 10.133 0.984 9.402 0.36359 6.0022-2.5965 14.932-1.989-1.9153-4.7302-7.1906-6.4518-10.623-4.8199-1.2653-0.50997-2.8144-0.71362-4.5098-0.69141zm-1.4945 23.512c-2.6062 2.2056-3.8352 1.3826-8.428 3.2881 2.3776 6.3604 4.8278 8.2725 8.1181 8.2725 2.9564 0 3.2615-1.0032 5.0735-1.0032 1.7166 0 0.36111 0.7796 4.1759 0.7796 3.2902 0 7.1969-3.0398 5.5937-8.089-6.683 1.1588-7.6583-2.2835-14.533-3.248z" fill="#d16340" stroke-width=".95369"/>
  <ellipse transform="matrix(.99652 .083392 -.065442 .99786 0 0)" cx="515.85" cy="942.94" rx="1.2091" ry="2.7186" fill="#644c37" stroke-opacity=".2" stroke-width="12.66"/>
 </g>
</svg>
