<?xml version="1.0" encoding="UTF-8"?>
<svg version="1.1" viewBox="0 0 96 96" xml:space="preserve" xmlns="http://www.w3.org/2000/svg"><g fill="none" stroke="#8ac6de" stroke-linecap="round" stroke-width="2.3839"><path d="m57.814 61.539c-5.7454-10.176-13.781-18.344-23.6-23.6"/><path d="m62.871 56.482c-5.9561-10.261-13.848-18.547-23.6-23.6"/><path d="m67.928 51.424c-5.5418-10.105-13.707-18.135-23.6-23.6"/><path d="m72.985 46.367c-5.5418-10.105-13.707-18.135-23.6-23.6"/></g><path d="m74.686 12.923c-7.4687 2.9602-17.238-1.3052-22.757 4.2143l-2.5286 2.5286c-1.6857 1.6857-0.95453 2.556-0.84285 4.2143-1.6583-0.11167-2.5286-0.84285-4.2143 0.84285s-0.95453 2.556-0.84285 4.2143c-1.6583-0.11168-2.5286-0.84285-4.2143 0.84285s-0.74134 2.4511-0.84285 4.2143c-1.6857 0-2.5286-0.84285-4.2143 0.84285-1.0691 0.97442-0.84285 2.5286-0.84285 4.2143-1.6857 0-12.409 9.0138-15.171 11.8-5.5239 5.5721-11.591 11.595-12.643 14.328-1.4913 7.6991 17.223 26.021 25.286 25.286 2.975-1.1891 8.9062-7.1954 14.328-12.643 2.7112-2.7237 11.8-13.486 11.8-15.171 1.6857 0 3.0607 0.31066 4.2143-0.84285 1.6857-1.6857 0.84285-2.5286 0.84285-4.2143 1.6857 0 2.5286 0.84285 4.2143-0.84285s0.95453-2.556 0.84285-4.2143c1.6583 0.11168 2.5286 0.84285 4.2143-0.84285s0.95453-2.556 0.84285-4.2143c1.6583 0.11168 2.5286 0.84285 4.2143-0.84285l2.5286-2.5286c5.3836-5.3836 1.6551-15.432 4.2143-22.757l3.3714-3.3714-8.4285-8.4285z" fill="#9ad8f2" fill-opacity=".71717" stroke="#8ac6de" stroke-opacity=".66667" stroke-width="2.3839"/><g fill="none" stroke="#8ac6de" stroke-linecap="round" stroke-opacity=".66667" stroke-width="2.3839"><path d="m48.558 23.88c5.7454 10.176 13.781 18.344 23.6 23.6"/><path d="m43.501 28.937c5.9561 10.261 13.848 18.547 23.6 23.6"/><path d="m38.444 33.994c5.5418 10.105 13.707 18.135 23.6 23.6"/><path d="m33.387 39.051c5.5418 10.105 13.707 18.135 23.6 23.6"/></g><ellipse transform="rotate(45)" cx="67.909" cy="-47.845" rx="9.5358" ry="3.1576" fill="#70b9d7"/><g fill="#eef7fb" fill-opacity=".8"><path d="m7.785 65.637c5.8047-6.5666 9.7972-13.041 24.285-22.599 2.8498 4.7631 7.5822 10.619 12.537 15.803-13.334-11.836-27.547 1.3485-36.822 6.7955z"/><path d="m52.859 19.969c3.5192-5.4649 16.92-1.2746 23.842-4.8059-6.9841 7.1933-20.674 7.5327-20.418 10.257-2.0215-2.7206-3.1456-4.0854-3.4247-5.4508z"/><path d="m47.434 25.794c-0.75358-0.14879-2.9459 0.94658-3.1057 2.0303 0.80223-0.87911 14.944 13.42 16.577 14.958-4.9558-5.6986-10.258-11.424-13.471-16.988z"/><path d="m42.912 30.732c-0.75358-0.14878-2.9086 0.98383-3.0684 2.0676 0.80223-0.87911 14.907 13.383 16.54 14.921-4.9558-5.6986-10.258-11.424-13.471-16.988z"/><path d="m37.75 36c-0.75358-0.14879-2.7596 1.0583-2.9194 2.142 0.80223-0.87911 14.758 13.308 16.391 14.846-4.9558-5.6986-10.258-11.424-13.471-16.988z"/></g><path d="m88.46 7.5503a7.1518 1.192 45 0 0-5.7123-4.2768l-0.06256-0.0625-5.0571 5.0571a7.1518 1.192 45 0 0 4.2143 5.9 7.1518 1.192 45 0 0 5.9 4.2143l5.0571-5.0571-0.06091-0.0609a7.1518 1.192 45 0 0-4.2785-5.7139z" fill="#3e66a2"/><ellipse transform="rotate(45)" cx="67.841" cy="-56.048" rx="7.1891" ry="1.341" fill="#7d9dcd"/><path d="m31.385 89.237c-5.5418-10.105-13.707-18.135-23.6-23.6 4.6475 10.013 12.959 17.583 23.6 23.6z" fill="#8ac6de" fill-opacity=".66667" stroke="#8ac6de" stroke-linecap="round" stroke-linejoin="round" stroke-opacity=".66667" stroke-width="2.3849"/><path d="m51 91.985v-15l6.022 0.01455c2.2483 0 4.4967 2.2478 4.4967 4.8703 0 2.6224-2.2483 4.8702-4.4604 4.8512l-3.034 0.01905v5.2449zm3.0242-8.242h2.9978s1.4989 0 1.4989-1.8732c0-1.8732-1.4989-1.8732-1.4989-1.8732h-2.9978zm8.9934 8.242v-14.985h10.492v2.9971h-7.4945v2.9971h7.4945v2.9971h-7.4945v2.9971h7.4945v2.9971zm16.488 0v-11.988h-4.4967v-2.9971h11.991v2.9971h-4.4967v11.988z" stroke-width=".99999"/><path d="m68.726 69.362 5.3565-5.1674 0.07248 2.6176 9.2318-0.06231c0.7387-0.21509 1.438-0.54842 2.1032-0.90763 1.6713-1.1677 2.0707-3.306 1.0398-5.567-0.14545-0.31901-1.6837-3.0362-3.4182-6.0383-1.7345-3.002-3.1217-5.4887-3.0825-5.526 0.18992-0.18085 4.0866-2.3791 4.1184-2.3234 0.02013 0.0353 1.4288 2.4784 3.1305 5.4292 3.4744 6.025 3.7684 6.5781 4.2305 7.9605 1.7893 5.3523-0.35845 9.7277-5.5087 11.223-1.5657 0.45457-1.7297 0.46716-6.8662 0.52717l-4.93 0.0576-0.09666 2.9967zm-17.831 1.9869c-3.362-0.59195-5.806-2.2042-6.9395-4.5776-0.48604-1.0177-0.645-1.7101-0.70362-3.0644-0.06122-1.414 0.08841-2.3969 0.59804-3.9285 0.43032-1.2932 0.94959-2.3055 2.9885-5.826 0.93627-1.6166 1.691-2.9464 1.6771-2.9551l-2.2308-1.3777c0.30134-0.10043 7.1368-2.0372 7.1429-2.0238 0.0993 0.2185 1.7897 7.1445 1.7528 7.1815l-2.5563-1.1573c-0.2904 0.39713-3.6305 6.2603-3.8532 6.7636-0.37676 0.85192-0.54714 1.7274-0.4962 2.5497 0.55331 2.4006 1.8219 3.1793 3.6956 3.8176l13.678 0.05753v4.7282l-6.8876-0.0079c-6.1545-7e-3 -6.9918-0.02627-7.8663-0.18024zm2.4431-28.427c-0.08763-0.08132 5.8279-10.407 6.6171-11.551 0.86465-1.2526 2.1791-2.6064 3.2519-3.3492 0.65604-0.45428 1.944-1.0313 2.7714-1.2415 2.0844-0.52971 4.5048 0.01654 6.4444 1.4545 0.95202 0.70576 2.3676 2.2302 3.0937 3.3316 0.34976 0.53057 1.4342 2.3567 2.4097 4.058 0.97556 1.7013 1.786 3.1096 1.8008 3.1295l2.3058-1.2295c0.03548 0.03548-1.7481 7.1315-1.8075 7.1908-0.03566 0.03564-7.038-1.9551-7.102-2.019l2.3855-1.5391c0-0.13631-3.6725-6.4613-4.1172-7.0908-1.1403-1.6144-2.824-2.4603-4.3132-2.1673-1.1825 0.23266-2.3395 1.04-3.1318 2.1853-0.20694 0.29912-1.7478 2.9181-3.4243 5.82-1.6764 2.9019-3.0902 5.2895-3.1417 5.3058-1.3753-0.69752-2.7485-1.4443-4.0427-2.2884zm12.987 5.8977h-3.6734v-2.1884l0.90547-0.16044c1.0993-0.19478 1.6606-0.42471 2.178-0.89218 0.49374-0.44607 0.76322-0.88018 0.97866-1.5767l0.1694-0.54749h2.5834l0.04932 18.512h-3.191z"/></svg>
