<?xml version="1.0" encoding="UTF-8"?>
<svg width="100%" height="100%" version="1.1" viewBox="0 0 96 96" xmlns="http://www.w3.org/2000/svg">
 <path d="m11.024 15.426s2.5047-3.2413 13.555 1.768c8.6927 3.978-15.323 15.323-17.68 10.608-1.4733-2.7993 4.1253-12.376 4.1253-12.376" fill="#a8d600" stroke-width="1.4733"/>
 <path d="m76.44 52.112c-13.555-9.4293-27.699-37.423-29.467-37.423-5.0093 0-8.2507 1.9153-8.2507 1.9153l32.266 46.852c0 0.14733 7.2193-10.166 5.4513-11.345" fill="#5b636b" stroke-width="1.4733"/>
 <path d="m83.07 56.532c-2.0627-1.768-7.956-2.9467-9.5767-4.5673-6.188-6.7773-19.153-18.711-30.203-38.896-3.978-7.514-22.395 5.5987-22.395 5.5987l32.119 51.125c0.29467 0 37.717-6.9247 30.056-13.26" fill="#333" stroke-width="1.4733"/>
 <path d="m54.193 66.551c1.9153-1.6207 1.768-10.461 0.14733-12.671-10.019-14.439-26.52-36.244-33.003-36.244-6.7773 0-7.956 9.1347-11.787 9.1347-3.2413 0 1.326-11.492 1.326-11.492-6.188 6.9247-7.2193 29.025-7.2193 29.025s26.225 43.169 50.535 22.247" fill="#5b636b" stroke-width="1.4733"/>
 <g transform="matrix(1.4733 0 0 1.4733 -.17288 -4.0216)" fill="#69727a">
  <path d="m2.7 31.5s-0.4-3.9 1.3-9.1c0.1 5.9 3.8 7.3 2.8 15.1l-4.1-6"/>
  <path d="m22.2 49.6c4.6-10.7 24.4 0.1 34.3-8.5 1.6 0.2 4.8 5.7 4.8 5.7s-3.6 14.4-39.1 2.8"/>
 </g>
 <path d="m3.8051 41.652c-1.4733 0-1.1787 10.166 0 11.787 7.8087 9.724 15.912 12.229 26.667 25.194 12.965 15.47 60.701 8.1033 60.701-5.1567 0-10.903-1.326-9.8713-1.326-9.8713-3.3887 8.84-33.592 10.755-44.642 8.398-24.31-5.0093-39.78-30.351-41.401-30.351" fill="#d0d0d0" stroke-width="1.4733"/>
 <g transform="matrix(1.4733 0 0 1.4733 -1.3306 -1.9448)" fill="#333" stroke-width="1.4355">
  <ellipse cx="24.038" cy="29.245" rx="2.0097" ry="2.4403"/>
  <ellipse cx="19.608" cy="23.016" rx="2.0097" ry="2.4403" fill="#333"/>
  <ellipse cx="28.374" cy="34.959" rx="2.0097" ry="2.4403"/>
  <ellipse cx="32.889" cy="39.928" rx="2.0097" ry="2.4403"/>
 </g>
 <g transform="matrix(1.4733 0 0 1.4733 -.17288 -4.0216)" fill="#a8d600">
  <path d="m33.3 43c-0.2 0-0.5-0.1-0.7-0.3-0.4-0.5-0.4-1.2 0-1.7 0.2-0.3 5.6-6.6 15.8-6.6 0.5 0 1 0.5 1 1.2 0 0.6-0.4 1.2-1 1.2-9.4 0-14.4 5.9-14.5 5.9-0.1 0.2-0.3 0.3-0.6 0.3"/>
  <path d="m28.852 37.421c-0.2 0-0.4-0.1-0.6-0.3-0.4-0.4-0.5-1.1-0.2-1.6 0.2-0.3 4.4-6.6 16.2-6.6 0.5 0 1 0.5 1 1.2 0 0.6-0.4 1.2-1 1.2-10.7 0-14.6 5.7-14.7 5.7-0.1 0.2-0.4 0.4-0.7 0.4"/>
  <path d="m24.503 31.609c-0.2 0-0.5-0.1-0.7-0.3-0.4-0.4-0.4-1.2-0.1-1.7 4.8-6.4 16.1-6.5 16.6-6.5s1 0.5 1 1.2c0 0.6-0.4 1.2-1 1.2-0.1 0-10.9 0.1-15.2 5.7-0.1 0.3-0.4 0.4-0.6 0.4"/>
  <path d="m20.04 24.991c-0.3 0-0.6-0.2-0.8-0.5-0.3-0.5-0.2-1.3 0.2-1.6 0.2-0.2 6-5.3 16.8-5.3 0.5 0 1 0.5 1 1.2s-0.4 1.2-1 1.2c-10.1 0-15.6 4.8-15.6 4.9-0.2 0.1-0.4 0.1-0.6 0.1"/>
 </g>
</svg>
