<?xml version="1.0" encoding="UTF-8"?>
<svg version="1.1" viewBox="0 0 44 44" xmlns="http://www.w3.org/2000/svg">
 <g transform="matrix(-1.1514 0 0 -1.1514 38.12 46.322)">
  <path d="m4.9114 16.245c4.3467 2.6526 2.038 1.1205 3.938 2.2354 0.5829 1.5624 1.0445 4.3401 1.0445 4.3401-1.6499-0.84593-4.5528 5.0279-8.9884 3.6392-4.4356-1.3887-5.4801-5.7289-4.5414-8.6455 0.93865-2.9166 4.2007-4.2219 8.5473-1.5693zm-3.0673 7.2981c2.9571 0.92582 4.5572-1.8278 4.6164-1.9974 0.30718-0.88124-1.2223-1.4411-3.9663-2.847-2.744-1.406-2.7038-1.4169-3.1731 0.04138-0.46932 1.4583-0.43405 3.8772 2.523 4.803z" fill="#dd2e44" stroke-width="1.0894"/>
  <path d="m31.678 33.539c0.80115-1.2099 0.18372-3.5495-1.0445-4.3401l-13.418-8.9012c-1.9831-1.4235-6.3834-0.39332-8.3666-1.8168-0.82396 1.0254 0.82782 2.5025 1.0445 4.3401z" fill="#99aab5" stroke-width="1.0894"/>
  <path d="m9.2421 11.166c2.2361 4.5335 2.1228 2.3199 3.0553 4.297 1.517 0.72995 4.2722 1.4637 4.2722 1.4637-0.68645-1.7045 4.3485-4.2432 3.3962-8.7361-0.95229-4.4929-5.2244-5.9567-8.2613-5.3305-3.0368 0.62618-4.6985 3.7723-2.4624 8.3058zm7.6868-2.3491c0.63486 2.9953-2.3197 4.3643-2.4968 4.4052-0.91994 0.21233-1.33-1.3451-2.4707-4.1798-1.1407-2.8348-1.1405-2.8736 0.37787-3.1867 1.5184-0.31309 3.9547-0.033899 4.5896 2.9614z" fill="#dd2e44" stroke-width="1.0894"/>
  <path d="m24.914 39.049c-1.3014 0.66381-3.5988-0.1786-4.2722-1.4637l-7.3572-13.728c-1.2353-2.0899 0.24869-6.3037-0.98666-8.3936 1.1176-0.70485 2.4405 1.0653 4.2722 1.4637z" fill="#ccd6dd" stroke-width="1.0894"/>
  <ellipse transform="matrix(-.88389 .46769 -.4778 -.87847 0 0)" cx="-3.2072" cy="-28.134" rx="1.5006" ry="1.4892" fill="#99aab5" stroke-width="1.0894"/>
 </g>
</svg>
