<?xml version="1.0" encoding="UTF-8"?>
<svg version="1.1" viewBox="0 0 85.333 85.333" xml:space="preserve" xmlns="http://www.w3.org/2000/svg"><defs><mask id="mask10467" maskUnits="userSpaceOnUse"><path d="m760.81-27.082c0-176.73-143.27-320-320-320s-320 143.27-320 320c0 176.73 143.27 320 320 320s320-143.27 320-320" fill="#fff"/></mask></defs><g transform="matrix(1.3333 0 0 -1.3333 0 85.333)"><path d="m64 32c0-17.673-14.327-32-32-32s-32 14.327-32 32 14.327 32 32 32 32-14.327 32-32" fill="#ffd42a"/><g transform="matrix(.1 0 0 .1 -12.081 34.708)" fill-opacity=".12549" mask="url(#mask10467)"><g transform="translate(-15.341 -15.341)" fill-opacity=".12549"><path d="m456.15 208.23c-11.047 0-19.995-8.9481-19.995-19.995v-20.01h-115.15c-4.161 0-10.045-2.4599-13.081-5.4639l-49.497-49.072c-3.0227-2.9958-3.0355-7.9069-0.0293-10.913l117.76-117.76v-68.789c0-2.2799 0.91155-4.354 2.373-5.8154l57.627-57.627v-104.55c0-5.5271 2.2372-10.543 5.8594-14.165l282.85-282.83c3.6173-3.6173 8.6013-5.8594 14.121-5.8594 11.047 0 20.01 8.9629 20.01 20.01v159.99h155.14c4.161 0 10.045 2.4599 13.081 5.4639l49.497 49.072c3.0227 2.9958 3.0355 7.8922 0.0293 10.898l-0.0147 0.0293-1.7139 1.6992-156.02 156.02v28.828c-1e-5 2.276-0.90117 4.3289-2.3584 5.7861l-282.85 282.85c-1.356 1.356-3.1804 2.1973-5.1856 2.1973h-24.17l-34.131 34.131c-3.6221 3.6221-8.6232 5.874-14.15 5.874z" fill-opacity=".12549"/></g></g><path d="m30 52v-44c0-1.1047 0.8953-2 2-2s2 0.89531 2 2v44c0 1.1047-0.8953 2-2 2s-2-0.8953-2-2" fill="#f3cc70"/><path d="m18.485 50c-0.4161 0-1.0043-0.2461-1.3079-0.5465l-4.95-4.907c-0.3031-0.3004-0.3031-0.7926 0-1.093l4.95-4.907c0.3036-0.3004 0.8918-0.5465 1.3079-0.5465h20.759c0.416 0 0.7562 0.3598 0.7562 0.7992v10.402c0 0.4394-0.3402 0.7992-0.7562 0.7992h-20.759" fill="#495672"/><path d="m49.515 24c0.4161 0 1.0043 0.2461 1.3079 0.5465l4.95 4.907c0.3031 0.3004 0.3031 0.7926 0 1.093l-4.95 4.907c-0.3036 0.3004-0.8918 0.5465-1.3079 0.5465h-24.758c-0.4161 0-0.7563-0.3598-0.7563-0.7992v-10.402c0-0.4394 0.3402-0.7992 0.7563-0.7992h24.758" fill="#fff"/></g></svg>
