<?xml version="1.0" encoding="UTF-8" standalone="no"?>
<svg viewBox="0 0 512 512" version="1.1" xmlns="http://www.w3.org/2000/svg" xml:space="preserve">
	<path d="M262.031,58.867c-9.245,0 -16.732,7.489 -16.732,16.733l0,16.746l-96.365,0c-3.482,0 -8.408,2.058 -10.948,4.572l-41.422,41.066c-2.53,2.507 -2.54,6.617 -0.025,9.133l98.549,98.547l0,57.566c0,1.909 0.762,3.644 1.986,4.868l48.225,48.224l0,87.491c0,4.625 1.871,8.824 4.902,11.855c76.719,74.086 195.791,193.265 248.522,241.592c9.245,0 195.707,7.411 197.619,-1.633c3.788,-61.191 1.876,-158.226 1.349,-203.76l-0.011,-0.025l-1.436,-1.422c-114.489,-142.822 -249.367,-276.587 -369.242,-396.234c-1.135,-1.135 -2.662,-1.84 -4.34,-1.84l-20.226,0l-28.563,-28.565c-3.031,-3.031 -7.217,-4.914 -11.842,-4.914Z" style="fill:url(#_Linear1);"/>
	<path d="M245.29,75.579l0,368.217c0,9.244 7.493,16.737 16.737,16.737c9.245,0 16.738,-7.493 16.738,-16.737l0,-368.217c0,-9.245 -7.493,-16.738 -16.738,-16.738c-9.244,0 -16.737,7.493 -16.737,16.738" style="fill:#f3cc70;"/>
	<path d="M148.928,92.319c-3.482,0 -8.405,2.06 -10.945,4.573l-41.425,41.065c-2.536,2.514 -2.536,6.633 0,9.147l41.425,41.064c2.54,2.514 7.463,4.574 10.945,4.574l173.72,0c3.481,0 6.328,-3.011 6.328,-6.688l0,-87.047c0,-3.677 -2.847,-6.688 -6.328,-6.688l-173.72,0" style="fill:#495672;"/>
	<path d="M408.601,309.902c3.483,0 8.405,-2.06 10.945,-4.573l41.425,-41.065c2.537,-2.514 2.537,-6.633 0,-9.147l-41.425,-41.065c-2.54,-2.513 -7.462,-4.573 -10.945,-4.573l-207.193,0c-3.482,0 -6.329,3.011 -6.329,6.688l0,87.047c0,3.677 2.847,6.688 6.329,6.688l207.193,0" style="fill:#fff;"/>
	<defs>
		<linearGradient id="_Linear1" x1="0" y1="0" x2="1" y2="0" gradientUnits="userSpaceOnUse" gradientTransform="matrix(243.505,274.181,-274.181,243.505,311.427,223.178)">
			<stop offset="0" style="stop-color:#000;stop-opacity:0.12"/>
			<stop offset="1" style="stop-color:#000;stop-opacity:0"/>
		</linearGradient>
	</defs>
</svg>