<?xml version="1.0" encoding="UTF-8"?>
<svg version="1.1" viewBox="0 0 256 256" xmlns="http://www.w3.org/2000/svg">
 <rect x="45.479" y="3.679" width="165.04" height="248" rx="20.307" ry="20.307" fill="#fff"/>
 <rect x="52.824" y="11.024" width="150.36" height="233.32" rx="12.962" ry="12.962" fill="none" stroke="#c1121c" stroke-width="5"/>
 <rect x="51" y="107" width="153" height="7" fill="#c1121c"/>
 <path d="m144.29 23.602c-2.4058 0-4.3831 0.53875-5.9316 1.6172-1.5485 1.0784-2.861 2.8495-3.9395 5.3105-1.5485 3.4565-2.3223 8.2671-2.3223 14.434-0.02765 6.0835 0.74608 10.896 2.3223 14.436 1.0508 2.5164 2.3365 4.3275 3.8574 5.4336 1.5485 1.1061 3.5526 1.6582 6.0137 1.6582 4.5626 0 7.8124-2.3632 9.748-7.0918 1.5762-3.4565 2.3633-8.2691 2.3633-14.436 0-5.9729-0.78709-10.728-2.3633-14.268-1.0508-2.5717-2.3365-4.3981-3.8574-5.4766-1.4932-1.0784-3.4572-1.6172-5.8906-1.6172zm-43.83 0.70508v41.479h5.9726v-27.791l12.857 27.791h4.4805v-41.479h-5.9726v24.93l-11.365-24.93h-5.9726zm43.83 5.1016c2.4887 0 4.2044 1.7577 5.1445 5.2695 0.85722 3.0141 1.2852 6.4415 1.2852 10.285 0 4.2585-0.42793 7.812-1.2852 10.66-0.96784 3.3736-2.6835 5.0605-5.1445 5.0605-2.5164 0-4.2434-1.687-5.1836-5.0605-0.88487-3.4842-1.3281-6.9823-1.3281-10.494-0.02766-4.2032 0.4156-7.7413 1.3281-10.617 0.99549-3.4012 2.7225-5.1035 5.1836-5.1035zm-53.006 43.291v27.652h3.9824v-12.111h4.3125c2.3228 0 4.1117-0.67378 5.3652-2.0195 1.2536-1.3457 1.8809-3.2632 1.8809-5.752 0-2.3412-0.66487-4.2211-1.9922-5.6406-1.3273-1.4195-3.0786-2.1289-5.2539-2.1289h-8.2949zm25.777 0-6.9121 27.652h3.9805l1.8535-7.5781h5.918l1.9356 7.5781h3.9824l-6.8867-27.652h-3.8711zm14.676 0v27.652h3.9805v-12.969h3.7891l3.6777 12.969h4.0918l-3.9805-13.605c2.6546-0.97705 3.9805-3.1983 3.9805-6.6641 0-2.2122-0.66292-3.9921-1.9902-5.3379-1.3273-1.3642-3.0786-2.0449-5.2539-2.0449h-8.2949zm20.225 0v27.652h14.076v-3.8711h-10.094v-9.0977h5.7246v-3.7891h-5.7246v-7.0234h9.043v-3.8711h-13.025zm-56.695 3.8711h4.0645c1.0692 0 1.936 0.35916 2.5996 1.0781 0.66366 0.71896 0.9961 1.6589 0.9961 2.8203 0 1.272-0.31462 2.2496-0.94141 2.9316-0.60835 0.68209-1.4929 1.0234-2.6543 1.0234h-4.0645v-7.8535zm40.451 0h4.0664c1.0692 0 1.934 0.32158 2.5976 0.9668 0.66366 0.62679 0.9961 1.4757 0.9961 2.5449 0 1.1061-0.31268 1.9728-0.93946 2.5996-0.60835 0.60835-1.4929 0.91211-2.6543 0.91211h-4.0664v-7.0234zm-16.803 4.3691 2.0176 7.9355h-3.9805l1.9629-7.9355z" fill="#c1121c"/>
 <path d="m144.29 120.38c-2.4058 0-4.3831 0.53874-5.9316 1.6172-1.5485 1.0784-2.861 2.8495-3.9395 5.3106-1.5485 3.4565-2.3223 8.2671-2.3223 14.434-0.02765 6.0835 0.74608 10.896 2.3223 14.436 1.0508 2.5164 2.3365 4.3275 3.8574 5.4336 1.5485 1.1061 3.5526 1.6582 6.0137 1.6582 4.5626 0 7.8124-2.3632 9.748-7.0918 1.5762-3.4565 2.3633-8.2691 2.3633-14.436 0-5.9729-0.78709-10.728-2.3633-14.268-1.0508-2.5717-2.3365-4.3981-3.8574-5.4766-1.4932-1.0784-3.4572-1.6172-5.8906-1.6172zm-43.83 0.70507v41.479h5.9726v-27.791l12.857 27.791h4.4805v-41.479h-5.9726v24.93l-11.365-24.93h-5.9726zm43.83 5.1016c2.4887 0 4.2044 1.7577 5.1445 5.2695 0.85722 3.0141 1.2852 6.4415 1.2852 10.285 0 4.2585-0.42793 7.812-1.2852 10.66-0.96784 3.3736-2.6835 5.0606-5.1445 5.0606-2.5164 0-4.2434-1.687-5.1836-5.0606-0.88487-3.4842-1.3281-6.9823-1.3281-10.494-0.02766-4.2032 0.4156-7.7413 1.3281-10.617 0.99549-3.4012 2.7225-5.1035 5.1836-5.1035zm-60.959 42.904c-1.6407 0-2.9863 0.60752-4.0371 1.8242s-1.5762 2.775-1.5762 4.6738c-0.018435 2.0463 0.71966 3.9529 2.2129 5.7227 0.60835 0.7927 1.4197 1.7702 2.4336 2.9316 2.0094 2.3781 3.0137 4.7012 3.0137 6.9688 0 0.88487-0.19295 1.5765-0.58008 2.0742-0.38713 0.4793-0.93229 0.71875-1.6328 0.71875-1.2167 0-1.9618-0.57189-2.2383-1.7148-0.22122-0.64522-0.33203-1.3171-0.33203-2.0176h-3.541c0.18435 4.8852 2.2216 7.3262 6.1113 7.3262 1.4379 0.01843 2.6193-0.38723 3.541-1.2168 1.5117-1.3089 2.2676-3.0315 2.2676-5.1699 0-1.8988-0.45216-3.9073-1.3555-6.0274-0.424-0.848-0.88507-1.595-1.3828-2.2402-0.47931-0.64523-1.4747-1.8355-2.9863-3.5684-1.2904-1.3826-1.9355-2.6441-1.9355-3.7871 0-1.991 0.70942-2.9863 2.1289-2.9863 0.62679 0 1.0968 0.23053 1.4102 0.69141 0.3134 0.46087 0.48852 1.2257 0.52539 2.2949h3.5957c-0.38713-4.3322-2.269-6.498-5.6426-6.498zm44.418 0c-1.6776 0-2.9589 0.45912-3.8438 1.3809-0.88487 0.90332-1.5211 2.4152-1.9082 4.5352-0.424 2.5071-0.63672 5.2914-0.63672 8.3516-0.01844 4.6087 0.36941 8.1291 1.1621 10.562 0.82957 2.4518 2.6362 3.6777 5.4199 3.6777 1.2167 0 2.2764-0.28399 3.1797-0.85547 0.90331-0.58992 1.4663-1.3923 1.6875-2.4062 0.25809-0.86644 0.38672-2.1012 0.38672-3.7051h-3.5957c0 2.249-0.61643 3.373-1.8516 3.373-1.1061 0-1.8531-0.93105-2.2402-2.793-0.3687-1.8619-0.55274-4.4799-0.55274-7.8535-0.01843-3.5395 0.1656-6.1931 0.55274-7.9629 0.38713-1.8066 1.1609-2.7109 2.3223-2.7109 1.0877 0.01844 1.6774 0.60813 1.7695 1.7695h3.5957c-0.12905-1.7144-0.67225-3.0314-1.6309-3.9531-0.95862-0.94017-2.231-1.4102-3.8164-1.4102zm25.896 0c-1.0324 0-1.9347 0.21077-2.709 0.63477-0.77427 0.40557-1.3837 1.0239-1.8262 1.8535-0.44243 0.81114-0.8016 1.5938-1.0781 2.3496-0.27652 0.75584-0.46946 1.7512-0.58007 2.9863-0.09221 1.2167-0.14762 2.1675-0.16602 2.8496s-0.02734 1.6023-0.02734 2.7637v3.8438c0 0.47931 0.03563 1.2996 0.10937 2.4609 0.07374 1.143 0.18456 2.0295 0.33203 2.6562 0.14748 0.60835 0.37802 1.3623 0.69141 2.2656 0.31339 0.88487 0.69232 1.5676 1.1348 2.0469s1.0124 0.90278 1.7129 1.2715c0.71895 0.35027 1.5214 0.5254 2.4062 0.5254 2.8943 0 4.8029-1.8156 5.7246-5.4473 0.44244-1.7698 0.66407-4.738 0.66407-8.9043v-2.9864c0-0.53461-0.03759-1.3548-0.11133-2.4609s-0.19346-1.9817-0.35938-2.627c-0.14748-0.64522-0.38692-1.4011-0.71875-2.2676-0.31339-0.86644-0.69232-1.5383-1.1348-2.0176-0.44244-0.49775-1.0124-0.92123-1.7129-1.2715-0.6821-0.35026-1.4667-0.52539-2.3516-0.52539zm-89.959 0.38672v27.652h10.617v-3.5957h-7.1055v-9.7051h4.4512v-3.6504h-4.4512v-7.1074h6.7188v-3.5938h-10.23zm27.465 0v3.5938h3.4004v24.059h3.5137v-24.059h3.5938v-3.5938h-10.508zm17.834 0-5.6406 27.652h3.5938l1.5762-7.3828h4.5352l1.5488 7.3828h3.7051l-5.7246-27.652h-3.5938zm29.461 0v27.652h3.5137v-27.652h-3.5137zm26.844 0v27.652h3.5117v-16.398l5.4473 16.398h2.9863v-27.652h-3.457v13.77l-4.9766-13.77h-3.5117zm18.051 0v27.652h10.619v-3.5957h-7.1055v-9.7051h4.4512v-3.6504h-4.4512v-7.1074h6.7188v-3.5938h-10.232zm-29.695 3.207c0.60835 0 1.1159 0.42348 1.5215 1.2715 0.40557 0.82956 0.6826 1.9179 0.83008 3.2637 0.16591 1.3458 0.26587 2.4697 0.30273 3.373 0.05534 0.88487 0.08399 1.7694 0.08399 2.6543v2.1308c0 0.35027-0.00895 0.84697-0.02735 1.4922 0 0.62679-0.02865 1.1808-0.08398 1.6602-0.03688 0.46087-0.10119 0.99517-0.19336 1.6035-0.07374 0.58992-0.18455 1.0955-0.33203 1.5195-0.12904 0.40557-0.29526 0.80232-0.49805 1.1895-0.18435 0.38713-0.41488 0.68198-0.69141 0.88476-0.25808 0.18435-0.56184 0.27735-0.91211 0.27735-0.35026 0-0.67184-0.093-0.96679-0.27735-0.27653-0.20278-0.50706-0.48873-0.69141-0.85742-0.18435-0.38713-0.35056-0.79279-0.49804-1.2168-0.14748-0.424-0.2583-0.92961-0.33204-1.5195-0.07371-0.60834-0.13802-1.1426-0.19336-1.6035-0.03686-0.47931-0.06551-1.0334-0.08398-1.6602-0.01847-0.64522-0.02734-1.1419-0.02734-1.4922v-4.2598c0-0.35026 0.00887-0.82915 0.02734-1.4375 0.01847-0.62679 0.04712-1.17 0.08398-1.6309 0.05531-0.47931 0.11962-1.0047 0.19336-1.5762s0.18456-1.0701 0.33204-1.4941c0.14748-0.42401 0.31369-0.8099 0.49804-1.1602 0.18435-0.3687 0.41488-0.64573 0.69141-0.83008 0.29495-0.20278 0.61653-0.30469 0.96679-0.30469zm-42.836 6.2227 1.4941 7.2715h-3.043l1.5488-7.2715z" fill="#c1121c"/>
 <path d="m160.84 203.91c-0.99303 2.8e-4 -1.7977 0.80577-1.7969 1.7988-7e-5 0.0889 6e-3 0.17769 0.0195 0.26563v2e-3c0.0257 0.16756 0.0751 0.33063 0.14648 0.48437l1.873 6.2305h-66.158l1.873-6.2305c0.07142-0.15374 0.12074-0.31681 0.14648-0.48437v-2e-3c0.01307-0.0879 0.0196-0.17673 0.01953-0.26563-2.76e-4 -0.99229-0.80461-1.7966-1.7969-1.7969-0.36492-4e-5 -0.72121 0.111-1.0215 0.31836h-2e-3l-19.715 13.645 19.715 13.646h2e-3c0.30029 0.20736 0.65658 0.3184 1.0215 0.31836 0.99229-2.8e-4 1.7966-0.80461 1.7969-1.7969 6.8e-5 -0.0889-0.0065-0.17769-0.01953-0.26563-0.0252-0.16956-0.07453-0.33464-0.14648-0.49023l-1.8711-6.2266h66.156l-1.8711 6.2266c-0.0726 0.15549-0.12262 0.32057-0.14844 0.49023-0.0131 0.0879-0.0196 0.17673-0.0195 0.26563 2.8e-4 0.99229 0.80461 1.7966 1.7969 1.7969 0.36557 4.2e-4 0.72258-0.11064 1.0234-0.31836l19.717-13.646-19.717-13.645c-0.30082-0.20772-0.65783-0.31878-1.0234-0.31836v-2e-3z" fill="#c1121c"/>
</svg>
