<?xml version="1.0" encoding="UTF-8"?>
<svg version="1.1" viewBox="0 0 64 64" xmlns="http://www.w3.org/2000/svg">
 <path d="m-20.213 57.435 55.426 32 49-84.87-55.426-32z" fill="#808080"/>
 <path d="m-18.481 58.436 49.001-84.871 1.7322 1.0003-49.001 84.871zm18.455 6.036 4.9999-8.6602 1.7313 0.99863-4.9999 8.6602zm17.32 9.9998 4.9999-8.6602 1.7313 0.99863-4.9999 8.6602zm-9.3212-23.856 4.9999-8.6602 1.7313 0.99863-4.9999 8.6602zm23.774 36.819 49.001-84.871 1.7322 1.0003-48.849 84.957zm-26.569-49.98 3.5361-14.125 1.0982 4.0975 13.5-23.383 1.7322 1.0003-13.5 23.383 4.0985-1.0965zm20.115 23.161 4.9999-8.6602 1.7313 0.99863-4.9999 8.6602zm-3.6603-13.66 13.5-23.383-4.0985 1.0965 10.465-10.124-3.5361 14.125-1.0992-4.0992-13.5 23.383zm-5.6592-10.197 4.9999-8.6602 1.7313 0.99863-4.9999 8.6602zm22.98 20.196 13.5-23.383-4.0985 1.0965 10.465-10.124-3.5361 14.125-1.0982-4.0975-13.5 23.383zm-5.6592-10.197 4.9999-8.6602 1.7313 0.99863-4.9999 8.6602zm-9.3212-23.856 4.9999-8.6602 1.7313 0.99863-4.9999 8.6602zm17.32 9.9998 4.9999-8.6602 1.7313 0.99863-4.9999 8.6602zm-9.3195-23.857 4.9999-8.6602 1.7313 0.99863-4.9999 8.6602zm17.32 9.9998 4.9999-8.6602 1.7313 0.99863-4.9999 8.6602zm-9.3212-23.856 4.9999-8.6602 1.7313 0.99863-4.9999 8.6602zm17.32 9.9998 4.9999-8.6602 1.7313 0.99863-4.9999 8.6602z" fill="#fff"/>
</svg>
