<?xml version="1.0" encoding="UTF-8"?>
<svg version="1.1" viewBox="0 0 64 64" xmlns="http://www.w3.org/2000/svg">
 <path d="m28.787-27.436 55.425 32-49 84.87-55.425-32z" fill="#808080"/>
 <path d="m30.52-26.436-49 84.871 1.7305 1 49.002-84.871zm23.113 17.963-5 8.6621 1.7324 1 5-8.6621zm27.115 11.037-49 84.871 1.7324 1 49.15-84.783zm-35.115 2.8203-5 8.6602 1.7324 1 5-8.6602zm-8 13.857-5 8.6602 1.7324 1 5-8.6602zm-8 13.855-5 8.6602 1.7324 1 5-8.6602zm-8 13.855-5 8.6621 1.7324 1 5-8.6621zm-8 13.857-5 8.6602 1.7324 1 5-8.6602z" fill="#fff"/>
</svg>
