<?xml version="1.0" encoding="UTF-8"?>
<svg version="1.1" viewBox="0 0 64 64" xmlns="http://www.w3.org/2000/svg">
 <path d="m28.787-27.435 55.426 32-49 84.87-55.426-32z" fill="#808080"/>
 <path d="m30.52-26.436-49 84.871 1.7324 1 49-84.871-1.7324-1zm14.455 12.965-5 8.6602 1.7305 1 5-8.6602-1.7305-1zm17.32 10-5 8.6602 1.7305 1 5-8.6602-1.7305-1zm-25.32 3.8555-5 8.6602 1.7305 1 5-8.6602-1.7305-1zm43.773 2.1797-49 84.871 1.7324 1 49.15-84.783-1.8828-1.0879zm-56.568 1.9805-10.465 10.125 4.0977-1.0977-13.5 23.383 1.7324 1 13.5-23.383 1.0996 4.0977 3.5352-14.125zm30.115 5.8398-5 8.6602 1.7305 1 5-8.6602-1.7305-1zm-13.66 3.6602-13.5 23.383-1.0996-4.0977-3.5352 14.125 10.465-10.125-4.0996 1.0977 13.5-23.383-1.7305-1zm-11.66 0.19727-5 8.6602 1.7305 1 5-8.6602-1.7305-1zm28.98 9.8027-13.5 23.383-1.0996-4.0977-3.5352 14.125 10.465-10.125-4.0977 1.0977 13.5-23.383-1.7324-1zm-11.66 0.19727-5 8.6602 1.7305 1 5-8.6602-1.7305-1zm-25.32 3.8555-5 8.6602 1.7305 1 5-8.6602-1.7305-1zm17.32 10-5 8.6602 1.7305 1 5-8.6602-1.7305-1zm-25.32 3.8574-5 8.6602 1.7305 1 5-8.6602-1.7305-1zm17.32 10-5 8.6602 1.7305 1 5-8.6602-1.7305-1zm-25.32 3.8555-5 8.6602 1.7305 1 5-8.6602-1.7305-1zm17.32 10-5 8.6602 1.7305 1 5-8.6602-1.7305-1z" fill="#fff"/>
</svg>
