<?xml version="1.0" encoding="UTF-8" standalone="no"?>
<svg
   xmlns:dc="http://purl.org/dc/elements/1.1/"
   xmlns:cc="http://creativecommons.org/ns#"
   xmlns:rdf="http://www.w3.org/1999/02/22-rdf-syntax-ns#"
   xmlns:svg="http://www.w3.org/2000/svg"
   xmlns="http://www.w3.org/2000/svg"
   xmlns:sodipodi="http://sodipodi.sourceforge.net/DTD/sodipodi-0.dtd"
   xmlns:inkscape="http://www.inkscape.org/namespaces/inkscape"
   inkscape:version="1.0 (4035a4fb49, 2020-05-01)"
   sodipodi:docname="carport.svg"
   width="128"
   height="128"
   viewBox="0 0 128 128"
   version="1.1"
   id="svg8">
  <sodipodi:namedview
     inkscape:snap-bbox="true"
     inkscape:current-layer="svg8"
     inkscape:window-maximized="0"
     inkscape:window-y="0"
     inkscape:window-x="0"
     inkscape:cy="75.096421"
     inkscape:cx="55.686937"
     inkscape:zoom="7.3502585"
     showgrid="true"
     id="namedview20"
     inkscape:window-height="1254"
     inkscape:window-width="1658"
     inkscape:pageshadow="2"
     inkscape:pageopacity="0"
     guidetolerance="10"
     gridtolerance="10"
     objecttolerance="10"
     borderopacity="1"
     bordercolor="#666666"
     pagecolor="#ffffff">
    <inkscape:grid
       spacingy="4"
       spacingx="4"
       empspacing="4"
       id="grid847"
       type="xygrid" />
  </sodipodi:namedview>
  <defs
     id="defs2" />
  <metadata
     id="metadata5">
    <rdf:RDF>
      <cc:Work
         rdf:about="">
        <dc:format>image/svg+xml</dc:format>
        <dc:type
           rdf:resource="http://purl.org/dc/dcmitype/StillImage" />
        <dc:title></dc:title>
      </cc:Work>
    </rdf:RDF>
  </metadata>
  <g
     id="carport"
     transform="matrix(3.7795275,0,0,3.7795275,-512.00001,-1002.5195)"
     inkscape:label="#g9231">
    <g
       id="g10-4-4"
       transform="matrix(0.41086638,0,0,-0.41086638,144.6106,295.70945)">
      <g
         id="g12-3-9">
        <g
           transform="translate(35,4)"
           id="g20-2-3">
          <path
             inkscape:connector-curvature="0"
             id="path22-9-3"
             style="fill:#555555;fill-opacity:1;fill-rule:nonzero;stroke:none"
             d="m 0,0 c 0,-1.104 -0.896,-2 -2,-2 h -3 c -1.104,0 -2,0.896 -2,2 v 8 c 0,1.104 0.896,2 2,2 h 3 c 1.104,0 2,-0.896 2,-2 z" />
        </g>
        <g
           transform="translate(10,4)"
           id="g24-5-8">
          <path
             inkscape:connector-curvature="0"
             id="path26-0-9"
             style="fill:#555555;fill-opacity:1;fill-rule:nonzero;stroke:none"
             d="m 0,0 c 0,-1.104 -0.896,-2 -2,-2 h -3 c -1.104,0 -2,0.896 -2,2 v 8 c 0,1.104 0.896,2 2,2 h 3 c 1.104,0 2,-0.896 2,-2 z" />
        </g>
        <g
           transform="translate(10,32)"
           id="g28-7-5">
          <path
             inkscape:connector-curvature="0"
             id="path30-8-1"
             style="fill:#3b88c3;fill-opacity:1;fill-rule:nonzero;stroke:none"
             d="m 18,0 c 3.881,-0.97 5,-11 5,-11 0,0 2,0 2,-4 v -8 c 0,0 -0.119,-3.03 -4,-4 -4,-1 -7,-1 -12,-1 -5,0 -8,0 -12,1 -3.88,0.97 -4,4 -4,4 v 8 c 0,0 0,4 2,4 0,0 1.12,10.03 5,11 4,1 14,1 18,0 z"
             sodipodi:nodetypes="ccsccssccccc" />
        </g>
        <g
           transform="translate(19,22)"
           id="g32-98-4">
          <path
             inkscape:connector-curvature="0"
             id="path34-11-5"
             style="fill:#bbddf5;fill-opacity:1;fill-rule:nonzero;stroke:none"
             d="M 0,0 C 3.905,0 8.623,-0.2 12,-0.562 L 11,5 C 10,8 4,8 0,8 -4,8 -10,8 -11,5 l -1,-5.562 C -8.623,-0.2 -3.905,0 0,0" />
        </g>
        <g
           transform="translate(6,21.5)"
           id="g36-7-4">
          <path
             inkscape:connector-curvature="0"
             id="path38-61-7"
             style="fill:#3b88c3;fill-opacity:1;fill-rule:nonzero;stroke:none"
             d="m -1.5,-1.5 h -2 c -0.829,0 -1.5,0.671 -1.5,1.5 0,0.829 0.671,1.5 1.5,1.5 h 2 C -0.671,1.5 0,0.829 0,0 0,-0.829 -0.671,-1.5 -1.5,-1.5 Z"
             sodipodi:nodetypes="ssssscs" />
        </g>
        <g
           transform="translate(32,21.5)"
           id="g40-6-1">
          <path
             inkscape:connector-curvature="0"
             id="path42-1-5"
             style="fill:#3b88c3;fill-opacity:1;fill-rule:nonzero;stroke:none"
             d="m 1.5,-1.5 h 2 C 4.328,-1.5 5,-0.829 5,0 5,0.829 4.328,1.5 3.5,1.5 h -2 C 0.672,1.5 0,0.829 0,0 0,-0.829 0.672,-1.5 1.5,-1.5 Z"
             sodipodi:nodetypes="ssssscs" />
        </g>
        <path
           d="M 12,14 C 12,12.343 10.657,11 9,11 H 8 c -1.657,0 -3,1.343 -3,3 0,1.657 1.343,3 3,3 h 1 c 1.657,0 3,-1.343 3,-3"
           style="fill:#ffffff;fill-opacity:1;fill-rule:nonzero;stroke:none"
           id="path46-5-1"
           inkscape:connector-curvature="0" />
        <path
           d="m 33,14 c 0,-1.657 -1.344,-3 -3,-3 h -1 c -1.656,0 -3,1.343 -3,3 0,1.657 1.344,3 3,3 h 1 c 1.656,0 3,-1.343 3,-3"
           style="fill:#ffffff;fill-opacity:1;fill-rule:nonzero;stroke:none"
           id="path50-7-5"
           inkscape:connector-curvature="0" />
        <g
           transform="matrix(-0.8660254,0.5,0.5,0.8660254,4.9700599,17.152672)"
           id="g52-8-7">
          <path
             inkscape:connector-curvature="0"
             id="path54-5-5"
             style="fill:#226699;fill-opacity:1;fill-rule:nonzero;stroke:none"
             d="M -0.833,0.445 C -2.575,3.059 -7.152,4.01 -7.198,4.02 -7.739,4.129 -8.09,4.656 -7.981,5.197 -7.872,5.738 -7.349,6.088 -6.805,5.98 -6.584,5.937 -1.374,4.861 0.831,1.555 1.137,1.095 1.013,0.475 0.554,0.168 0.383,0.055 0.19,0 0,0 -0.323,0 -0.64,0.156 -0.833,0.445 Z"
             sodipodi:nodetypes="ccsccccc" />
        </g>
        <g
           transform="matrix(-0.8660254,-0.5,-0.5,0.8660254,33.028554,17.152278)"
           id="g56-4-2">
          <path
             inkscape:connector-curvature="0"
             id="path58-8-0"
             style="fill:#226699;fill-opacity:1;fill-rule:nonzero;stroke:none"
             d="M -0.554,0.168 C -1.014,0.475 -1.138,1.095 -0.831,1.555 1.373,4.861 6.584,5.937 6.805,5.98 7.345,6.086 7.872,5.738 7.98,5.197 8.09,4.656 7.739,4.129 7.198,4.02 7.152,4.01 2.575,3.059 0.833,0.445 0.641,0.156 0.323,0 0,0 -0.19,0 -0.383,0.055 -0.554,0.168 Z"
             sodipodi:nodetypes="cccccccc" />
        </g>
        <g
           transform="translate(19,8)"
           id="g60-8-7">
          <path
             inkscape:connector-curvature="0"
             id="path62-7"
             style="fill:#55acee;fill-opacity:1;fill-rule:nonzero;stroke:none"
             d="m -13.707,1.293 c -0.391,0.391 -0.391,1.023 0,1.414 0.344,0.345 0.877,0.386 1.267,0.122 C -12.208,2.729 -10.155,2 0,2 c 10.155,0 12.208,0.729 12.44,0.829 0.391,0.264 0.922,0.223 1.267,-0.122 0.391,-0.391 0.391,-1.023 0,-1.414 C 12.639,0.225 5.663,0 0,0 -5.663,0 -12.639,0.225 -13.707,1.293 Z"
             sodipodi:nodetypes="sccscsscs" />
        </g>
        <g
           transform="translate(26,7.5)"
           id="g64-6-6">
          <path
             inkscape:connector-curvature="0"
             id="path66-1-9"
             style="fill:#226699;fill-opacity:1;fill-rule:nonzero;stroke:none"
             d="m -7,-2.5 c -3.866,0 -7,1 -7,2.5 0,0.828 3.134,0.5 7,0.5 3.866,0 7,0.328 7,-0.5 0,-1.5 -3.134,-2.5 -7,-2.5 z"
             sodipodi:nodetypes="ssscs" />
        </g>
      </g>
    </g>
    <rect
       ry="2.7594453e-05"
       y="277.94998"
       x="139.7"
       height="16.933332"
       width="3.175"
       id="rect9175"
       style="fill:#deb486;fill-opacity:1;stroke:none;stroke-width:0.79375;stroke-linecap:butt;stroke-linejoin:round;stroke-miterlimit:4;stroke-dasharray:none;stroke-dashoffset:0;stroke-opacity:1;paint-order:stroke markers fill" />
    <rect
       ry="2.7594453e-05"
       y="277.94998"
       x="161.925"
       height="16.933332"
       width="3.175"
       id="rect9177"
       style="fill:#deb486;fill-opacity:1;stroke:none;stroke-width:0.79375;stroke-linecap:butt;stroke-linejoin:round;stroke-miterlimit:4;stroke-dasharray:none;stroke-dashoffset:0;stroke-opacity:1;paint-order:stroke markers fill" />
    <path
       sodipodi:nodetypes="ccc"
       inkscape:connector-curvature="0"
       id="path7946-3-7"
       d="m 137.58333,279.00833 14.81667,-6.35 14.81667,6.35"
       style="fill:none;stroke:#c84747;stroke-width:3.175;stroke-linecap:butt;stroke-linejoin:miter;stroke-miterlimit:4;stroke-dasharray:none;stroke-opacity:1" />
  </g>
</svg>
