<?xml version="1.0" encoding="UTF-8"?>
<svg version="1.1" viewBox="0 0 128 128" xmlns="http://www.w3.org/2000/svg">
 <rect transform="rotate(-90)" x="-108.57" y="28" width="92.571" height="72" rx="10.286" ry="10.286" fill="#5961b6" style="paint-order:markers fill stroke"/>
 <path d="m28 98.286c0-5.6983 4.5874-10.286 10.286-10.286h51.429c5.6983 0 10.286-3.8571 10.286-10.286v20.571c0 5.6983-4.5874 10.286-10.286 10.286h-51.429c-5.6983 0-10.286-4.5874-10.286-10.286z" fill="#464fa1" style="paint-order:markers fill stroke"/>
 <path d="m33.143 98.243c0-2.8068 2.2937-5.1006 5.1428-5.1006h56.571v5.0582c0 2.8491-2.2937 5.1428-5.1428 5.1428h-51.429c-2.8492 0-5.1428-2.2937-5.1428-5.1005z" fill="#e0e0e0" style="paint-order:markers fill stroke"/>
 <rect x="38.286" y="16" width="5.1429" height="72" fill="#464fa1" style="paint-order:markers fill stroke"/>
 <rect x="48.572" y="34" width="38.571" height="18" fill="#e0e0e0" style="paint-order:markers fill stroke"/>
</svg>
