<?xml version="1.0" encoding="UTF-8"?>
<svg version="1.1" viewBox="0 0 128 128" xmlns="http://www.w3.org/2000/svg">
 <g id="tractor" transform="matrix(.82169 .47441 -.47441 .82169 390.15 -60.409)">
  <path d="m-219.98 211.9 14.953 15.465-29.37 16.957-5.9164-20.682 4.5184-2.6087 4.2625 12.6 15.814-9.1304-8.7809-9.9916z" fill="#888" fill-rule="evenodd"/>
  <rect transform="matrix(-.86603 .5 .5 .86603 0 0)" x="309.51" y="102.22" width="20.87" height="10.435" fill="#468e2d" style="paint-order:normal"/>
  <path d="m-233.2 236.95 25.304 1.1108-35.798 26.692-6.1722-5.4732c-6.5217-11.296 4.5796-13.94 16.666-22.33z" fill="#80d53b" fill-rule="evenodd"/>
  <circle transform="matrix(-.86603 .5 .5 .86603 0 0)" cx="331.49" cy="111.65" r="11.386" fill="#666" style="paint-order:normal"/>
  <circle transform="matrix(-.86603 .5 .5 .86603 0 0)" cx="331.49" cy="111.65" r="5.6932" fill="#aaa" style="paint-order:normal"/>
  <rect transform="matrix(-.86603 .5 .5 .86603 0 0)" x="293.85" y="68.303" width="28.696" height="5.2174" rx="2.6087" ry="2.6087" fill="#80d53b" style="paint-order:normal"/>
  <path d="m-233.62 244.91-11.866 6.8507" fill="none" stroke="#468e2d" stroke-linecap="round" stroke-width="4.2158"/>
  <path transform="matrix(-.70711 .70711 .70711 .70711 0 0)" d="m296.12 19.488a19.565 19.565 0 0 1 23.198-11.321 19.565 19.565 0 0 1 14.234 21.534l-19.384-2.6588z" fill="#468e2d" style="paint-order:normal"/>
  <path d="m-236.41 241.81 25.304 1.1108-35.798 26.692-6.1722-5.4732c-6.5217-11.296 4.5796-13.94 16.666-22.33z" fill-opacity="0"/>
  <circle transform="matrix(-.86603 .5 .5 .86603 0 0)" cx="296.46" cy="107.43" r="15.652" fill="#666" style="paint-order:normal"/>
  <circle transform="matrix(-.86603 .5 .5 .86603 0 0)" cx="296.46" cy="107.43" r="7.8261" fill="#aaa" style="paint-order:normal"/>
 </g>
 <g transform="matrix(2.6166 0 0 2.6166 4 -651.59)">
  <path d="m4.5861 294.88h25.988v-15.287l-13.758-9.1722-12.23 9.1722z" fill="#deb486"/>
  <rect x="6.1148" y="265.84" width="6.1148" height="9.1722" fill="#deb486" style="paint-order:stroke markers fill"/>
  <path d="m1.5287 281.12 15.287-13.758 16.816 13.758" fill="none" stroke="#c84747" stroke-width="4.5861"/>
  <rect x="18.344" y="282.65" width="6.1148" height="12.23" fill="#c08268" style="paint-order:stroke markers fill"/>
  <rect x="7.6435" y="284.18" width="7.6435" height="6.1148" fill="#95685e" style="paint-order:stroke markers fill"/>
  <rect x="7.6435" y="282.65" width="7.6435" height="1.5287" fill="#c08268" style="paint-order:stroke markers fill"/>
 </g>
</svg>
