<?xml version="1.0" encoding="UTF-8"?>
<svg version="1.1" viewBox="0 0 128 128" xmlns="http://www.w3.org/2000/svg">
 <g transform="matrix(3.7795 0 0 3.7795 -256 -890.52)">
  <g>
   <path d="m74.612 244.61-4.7625 2.6458v7.4083s28.575 5e-5 28.575 0v-7.4083l-4.7625-2.6458-4.7625 2.6458-4.7625-2.6458-4.7625 2.6458z" fill="#deb486" stroke-width="0" style="paint-order:stroke markers fill"/>
   <path d="m68.792 247.79 5.8208-3.175 4.7625 2.6458 4.7625-2.6458 4.7625 2.6458 4.7625-2.6458 5.8208 3.175" fill="none" stroke="#c84747" stroke-width="1.5875"/>
  </g>
  <g transform="matrix(.41549 0 0 .41549 44.845 132.13)">
   <g transform="translate(-4e-6 2.1167)">
    <rect x="108.58" y="276.88" width="17.83" height="15.92" fill="#aaa" style="paint-order:stroke markers fill"/>
    <rect x="111.12" y="279.43" width="12.736" height="1.9104" fill="#808080" style="paint-order:stroke markers fill"/>
    <rect x="111.13" y="283.89" width="12.736" height="1.9104" fill="#808080" style="paint-order:stroke markers fill"/>
    <rect x="111.13" y="288.34" width="12.736" height="1.9104" fill="#808080" style="paint-order:stroke markers fill"/>
   </g>
  </g>
  <rect x="80.433" y="248.05" width="7.4083" height="3.4396" fill="#aaa" style="paint-order:stroke markers fill"/>
  <rect x="81.492" y="249.11" width="5.2917" height=".79375" fill="#808080" style="paint-order:stroke markers fill"/>
  <rect x="81.492" y="250.96" width="5.2917" height=".52917" fill="#808080" style="paint-order:stroke markers fill"/>
  <rect x="80.433" y="251.49" width="7.4083" height="3.175" fill="#95685e" style="paint-order:stroke markers fill"/>
  <rect x="80.433" y="251.49" width="7.4083" height="1.5875" ry="2.7595e-5" fill-opacity=".2" style="paint-order:stroke markers fill"/>
  <g transform="matrix(.41549 0 0 .41549 25.795 133.01)">
   <rect x="108.58" y="276.88" width="17.83" height="15.92" fill="#aaa" style="paint-order:stroke markers fill"/>
   <rect x="111.12" y="279.43" width="12.736" height="1.9104" fill="#808080" style="paint-order:stroke markers fill"/>
   <rect x="111.13" y="283.89" width="12.736" height="1.9104" fill="#808080" style="paint-order:stroke markers fill"/>
   <rect x="111.13" y="288.34" width="12.736" height="1.9104" fill="#808080" style="paint-order:stroke markers fill"/>
  </g>
 </g>
 <g transform="matrix(1.5529 0 0 -1.5529 50.649 115.21)">
  <path d="m35 4c0-1.104-0.896-2-2-2h-3c-1.104 0-2 0.896-2 2v8c0 1.104 0.896 2 2 2h3c1.104 0 2-0.896 2-2z" fill="#555"/>
  <path d="m10 4c0-1.104-0.896-2-2-2h-3c-1.104 0-2 0.896-2 2v8c0 1.104 0.896 2 2 2h3c1.104 0 2-0.896 2-2z" fill="#555"/>
  <path d="m28 32c3.881-0.97 5-11 5-11s2 0 2-4v-8s-0.119-3.03-4-4c-4-1-7-1-12-1s-8 0-12 1c-3.88 0.97-4 4-4 4v8s0 4 2 4c0 0 1.12 10.03 5 11 4 1 14 1 18 0z" fill="#3b88c3"/>
  <path d="m19 22c3.905 0 8.623-0.2 12-0.562l-1 5.562c-1 3-7 3-11 3s-10 0-11-3l-1-5.562c3.377 0.362 8.095 0.562 12 0.562" fill="#bbddf5"/>
  <path d="m4.5 20h-2c-0.829 0-1.5 0.671-1.5 1.5s0.671 1.5 1.5 1.5h2c0.829 0 1.5-0.671 1.5-1.5s-0.671-1.5-1.5-1.5z" fill="#3b88c3"/>
  <path d="m33.5 20h2c0.828 0 1.5 0.671 1.5 1.5s-0.672 1.5-1.5 1.5h-2c-0.828 0-1.5-0.671-1.5-1.5s0.672-1.5 1.5-1.5z" fill="#3b88c3"/>
  <path d="m12 14c0-1.657-1.343-3-3-3h-1c-1.657 0-3 1.343-3 3s1.343 3 3 3h1c1.657 0 3-1.343 3-3" fill="#fff"/>
  <path d="m33 14c0-1.657-1.344-3-3-3h-1c-1.656 0-3 1.343-3 3s1.344 3 3 3h1c1.656 0 3-1.343 3-3" fill="#fff"/>
  <path d="m5.914 17.122c2.8156 1.3928 7.2549-0.07212 7.2998-0.08646 0.52302-0.1761 1.0905 0.10479 1.2666 0.62781 0.1761 0.52302-0.10183 1.0876-0.62695 1.2661-0.21289 0.07326-5.2629 1.7464-8.8255-0.01416-0.495-0.24537-0.69762-0.84431-0.45361-1.3397 0.09159-0.18336 0.23123-0.32749 0.39578-0.42249 0.27973-0.1615 0.63226-0.1849 0.9439-0.03112z" fill="#269"/>
  <path d="m33.424 17.575c0.24487 0.49587 0.04226 1.0948-0.45361 1.3397-3.5617 1.7611-8.6126 0.08742-8.8255 0.01416-0.52065-0.1782-0.80305-0.74308-0.62608-1.2656 0.17524-0.52352 0.74271-0.80442 1.2657-0.62831 0.04484 0.01434 4.4841 1.4792 7.2998 0.08646 0.31078-0.15428 0.66417-0.13038 0.9439 0.03112 0.16454 0.095 0.30419 0.23913 0.39578 0.42249z" fill="#269"/>
  <path d="m5.293 9.293c-0.391 0.391-0.391 1.023 0 1.414 0.344 0.345 0.877 0.386 1.267 0.122 0.232-0.1 2.285-0.829 12.44-0.829s12.208 0.729 12.44 0.829c0.391 0.264 0.922 0.223 1.267-0.122 0.391-0.391 0.391-1.023 0-1.414-1.068-1.068-8.044-1.293-13.707-1.293s-12.639 0.225-13.707 1.293z" fill="#55acee"/>
  <path d="m19 5c-3.866 0-7 1-7 2.5 0 0.828 3.134 0.5 7 0.5s7 0.328 7-0.5c0-1.5-3.134-2.5-7-2.5z" fill="#269"/>
 </g>
</svg>
