<?xml version="1.0" encoding="UTF-8" standalone="no"?>
<svg
   xmlns:dc="http://purl.org/dc/elements/1.1/"
   xmlns:cc="http://creativecommons.org/ns#"
   xmlns:rdf="http://www.w3.org/1999/02/22-rdf-syntax-ns#"
   xmlns:svg="http://www.w3.org/2000/svg"
   xmlns="http://www.w3.org/2000/svg"
   xmlns:sodipodi="http://sodipodi.sourceforge.net/DTD/sodipodi-0.dtd"
   xmlns:inkscape="http://www.inkscape.org/namespaces/inkscape"
   inkscape:version="1.0 (4035a4fb49, 2020-05-01)"
   sodipodi:docname="school.svg"
   width="128"
   height="128"
   viewBox="0 0 128 128"
   version="1.1"
   id="svg8">
  <sodipodi:namedview
     inkscape:snap-bbox="true"
     inkscape:current-layer="svg8"
     inkscape:window-maximized="0"
     inkscape:window-y="0"
     inkscape:window-x="0"
     inkscape:cy="52.992054"
     inkscape:cx="40.907319"
     inkscape:zoom="5.1974177"
     showgrid="true"
     id="namedview20"
     inkscape:window-height="1254"
     inkscape:window-width="1658"
     inkscape:pageshadow="2"
     inkscape:pageopacity="0"
     guidetolerance="10"
     gridtolerance="10"
     objecttolerance="10"
     borderopacity="1"
     bordercolor="#666666"
     pagecolor="#ffffff">
    <inkscape:grid
       spacingy="4"
       spacingx="4"
       empspacing="4"
       id="grid847"
       type="xygrid" />
  </sodipodi:namedview>
  <defs
     id="defs2" />
  <metadata
     id="metadata5">
    <rdf:RDF>
      <cc:Work
         rdf:about="">
        <dc:format>image/svg+xml</dc:format>
        <dc:type
           rdf:resource="http://purl.org/dc/dcmitype/StillImage" />
        <dc:title></dc:title>
      </cc:Work>
    </rdf:RDF>
  </metadata>
  <g
     id="school"
     transform="matrix(3.7795275,0,0,3.7795275,-896.54087,-736.8001)"
     inkscape:label="#g6466">
    <rect
       y="202.35336"
       x="241.44312"
       height="16.933332"
       width="25.4"
       id="rect6430"
       style="fill:#4d793e;fill-opacity:1;stroke:#c08268;stroke-width:2.11667;stroke-linecap:round;stroke-linejoin:round;stroke-miterlimit:4;stroke-dasharray:none;stroke-dashoffset:0;stroke-opacity:1;paint-order:fill markers stroke" />
    <g
       transform="translate(1.8269185,-1.5132845)"
       id="text6434"
       style="font-style:normal;font-variant:normal;font-weight:normal;font-stretch:normal;font-size:13.8852px;line-height:1.25;font-family:'Book Antiqua';-inkscape-font-specification:'Book Antiqua';letter-spacing:0px;word-spacing:0px;fill:#000000;fill-opacity:1;stroke:none;stroke-width:0.347129"
       aria-label="2+3">
      <path
         sodipodi:nodetypes="cccccsccc"
         inkscape:connector-curvature="0"
         id="path6436"
         style="font-style:normal;font-variant:normal;font-weight:bold;font-stretch:normal;font-size:12.7px;font-family:'Kristen ITC';-inkscape-font-specification:'Kristen ITC Bold';fill:#ffffff;fill-opacity:1;stroke:none;stroke-width:0.347129;stroke-opacity:1"
         d="m 248.50433,216.83407 c -1.06214,0.42427 -5.34727,0.58528 -5.41804,-0.78398 0.74867,-1.79944 3.82242,-2.6379 3.85401,-5.31518 -0.31148,-3.49302 -2.97258,1.33093 -3.2711,-1.12784 0.13202,-1.36596 1.9429,-1.75467 2.8559,-1.76555 1.29398,0 1.8942,1.18523 1.8942,2.90089 0,1.86449 -0.86582,3.43493 -3.06517,4.8984 1.47415,0.37087 2.24238,-0.5641 3.52405,-0.86198 1.10951,0.40688 0.10121,1.84829 -0.37385,2.05524 z" />
      <path
         sodipodi:nodetypes="ccccccccc"
         inkscape:connector-curvature="0"
         id="path6438"
         style="font-style:normal;font-variant:normal;font-weight:bold;font-stretch:normal;font-size:12.7px;font-family:'Kristen ITC';-inkscape-font-specification:'Kristen ITC Bold';fill:#ffffff;fill-opacity:1;stroke:none;stroke-width:0.347129;stroke-opacity:1"
         d="m 252.76632,215.71524 c -0.8522,-0.47276 -0.53284,-1.69003 -0.48577,-2.55902 -0.56891,-0.11377 -2.21433,0.0459 -2.23656,-0.7028 0.38889,-0.87716 1.57059,-0.57568 2.29031,-0.49816 0.1099,-0.58465 0.0956,-2.27038 0.87229,-2.29237 0.85522,0.38251 0.56717,1.61514 0.54158,2.4288 0.7558,0.14443 1.84418,0.22849 1.80346,1.00765 -0.0407,0.77914 -1.4781,0.16336 -1.93798,0.35138 -0.26145,0.68452 -0.0629,2.24093 -0.84733,2.26452 z" />
      <path
         sodipodi:nodetypes="ccccccccc"
         inkscape:connector-curvature="0"
         id="path6440"
         style="font-style:normal;font-variant:normal;font-weight:bold;font-stretch:normal;font-size:12.7px;font-family:'Kristen ITC';-inkscape-font-specification:'Kristen ITC Bold';fill:#ffffff;fill-opacity:1;stroke:none;stroke-width:0.347129;stroke-opacity:1"
         d="m 261.1503,216.26299 c -1.5975,1.34396 -5.29363,0.2151 -4.59507,-1.15548 0.12816,-0.13643 0.38861,-0.46922 0.58291,-0.46922 3.93694,2.28072 4.74546,-1.79588 1.45108,-2.1456 -1.29802,-0.0243 -1.21064,-1.41138 -0.13643,-1.42421 2.34234,0.53516 2.2076,-1.87926 0.73174,-1.90583 -0.54841,0.0836 -2.30153,0.71766 -1.71979,-0.60771 3.19819,-2.66798 5.48478,2.00704 3.23701,3.33003 1.76664,1.06856 1.71589,3.23683 0.44855,4.37802 z" />
    </g>
    <path
       sodipodi:nodetypes="cc"
       inkscape:connector-curvature="0"
       id="path6450"
       d="m 247.64999,225.03332 2.11666,-5.29167"
       style="fill:none;stroke:#c08268;stroke-width:3.175;stroke-linecap:round;stroke-linejoin:miter;stroke-miterlimit:4;stroke-dasharray:none;stroke-opacity:1" />
    <path
       sodipodi:nodetypes="cc"
       inkscape:connector-curvature="0"
       id="path6452"
       d="m 260.34999,225.03332 -2.11667,-5.29167"
       style="fill:none;stroke:#c08268;stroke-width:3.175;stroke-linecap:round;stroke-linejoin:miter;stroke-miterlimit:4;stroke-dasharray:none;stroke-opacity:1" />
  </g>
</svg>
