<?xml version="1.0" encoding="UTF-8" standalone="no"?>
<svg
   xmlns:dc="http://purl.org/dc/elements/1.1/"
   xmlns:cc="http://creativecommons.org/ns#"
   xmlns:rdf="http://www.w3.org/1999/02/22-rdf-syntax-ns#"
   xmlns:svg="http://www.w3.org/2000/svg"
   xmlns="http://www.w3.org/2000/svg"
   xmlns:sodipodi="http://sodipodi.sourceforge.net/DTD/sodipodi-0.dtd"
   xmlns:inkscape="http://www.inkscape.org/namespaces/inkscape"
   inkscape:version="1.0 (4035a4fb49, 2020-05-01)"
   sodipodi:docname="stadium.svg"
   width="128"
   height="128"
   viewBox="0 0 128 128"
   version="1.1"
   id="svg8">
  <sodipodi:namedview
     inkscape:snap-bbox="true"
     inkscape:current-layer="svg8"
     inkscape:window-maximized="0"
     inkscape:window-y="0"
     inkscape:window-x="0"
     inkscape:cy="26.993481"
     inkscape:cx="25.948507"
     inkscape:zoom="5.1974177"
     showgrid="true"
     id="namedview20"
     inkscape:window-height="1254"
     inkscape:window-width="1658"
     inkscape:pageshadow="2"
     inkscape:pageopacity="0"
     guidetolerance="10"
     gridtolerance="10"
     objecttolerance="10"
     borderopacity="1"
     bordercolor="#666666"
     pagecolor="#ffffff">
    <inkscape:grid
       spacingy="4"
       spacingx="4"
       empspacing="4"
       id="grid847"
       type="xygrid" />
  </sodipodi:namedview>
  <defs
     id="defs2" />
  <metadata
     id="metadata5">
    <rdf:RDF>
      <cc:Work
         rdf:about="">
        <dc:format>image/svg+xml</dc:format>
        <dc:type
           rdf:resource="http://purl.org/dc/dcmitype/StillImage" />
        <dc:title></dc:title>
      </cc:Work>
    </rdf:RDF>
  </metadata>
  <g
     id="stadium"
     transform="matrix(1.7207522,0,0,1.7207522,8.0755535,10.656682)"
     style="stroke-width:0.541315"
     inkscape:label="#g5224">
    <circle
       id="circle5210"
       r="30"
       cy="32"
       cx="32"
       style="fill:#dcdcdc;fill-opacity:1;stroke-width:0.541315" />
    <circle
       id="circle5210-0"
       r="25.630856"
       cy="28.590982"
       cx="29.275772"
       style="fill:#f0f0f0;fill-opacity:1;stroke-width:0.541315" />
    <circle
       id="circle5210-0-6"
       r="17.350784"
       cy="23.309526"
       cx="24.701962"
       style="fill:#ffffff;fill-opacity:1;stroke-width:0.541315" />
    <path
       id="path5212"
       d="M 28.4,18 C 28.3,14.9 28.7,12.1 29.3,9.6 43.8,9.9 54.5,16.7 59.8,20.9 59.3,19.7 58.7,18.5 58.1,17.3 52.1,13.1 42.3,8.1 29.8,7.7 30.5,5.2 31.4,3.3 32,2 c 0,0 0,0 -0.1,0 -0.7,0 -1.4,0 -2.1,0.1 -2.4,5.2 -6.8,18 1,30 -2,4 -4.8,6.9 -7.7,9 -10,-18.3 -5.5,-32.4 -4,-36.2 -0.9,0.4 -1.7,0.9 -2.5,1.4 -1.9,5.9 -4.3,19.1 5,35.9 -2.6,1.6 -5.3,2.7 -7.8,3.4 C 6.8,32.9 7.3,20.2 8.3,13.5 7.5,14.5 6.7,15.6 6,16.8 5.6,24.1 6.1,35 12,46.1 9.5,46.7 7.3,46.9 6,47 c 0.4,0.6 0.7,1.2 1.1,1.8 5.7,-0.5 19,-3.1 25.5,-15.8 4.5,-0.2 8.4,0.7 11.7,2.2 C 33.5,53 19,56.2 15,56.7 c 0.8,0.5 1.6,1 2.4,1.5 6,-1.3 18.7,-5.8 28.6,-22.3 2.7,1.4 5,3.2 6.8,5 -7.5,12.4 -18.7,18.3 -25.1,20.8 1.3,0.2 2.6,0.3 4,0.3 6.6,-3.1 15.9,-9.1 22.4,-19.7 1.8,1.9 3,3.6 3.8,4.8 0.4,-0.6 0.7,-1.2 1,-1.9 C 55.6,40.5 46.7,30.3 32.5,31 30.1,27.3 28.9,23.4 28.5,19.8 49.4,20.2 59.3,31.1 61.9,34.4 62,33.6 62,32.8 62,32 62,31.8 62,31.7 62,31.5 57.9,26.9 47.6,18.3 28.4,18"
       inkscape:connector-curvature="0"
       style="fill:#a7b2b1;fill-opacity:1;stroke-width:0.541315" />
  </g>
</svg>
