<?xml version="1.0" encoding="UTF-8"?>
<svg version="1.1" viewBox="0 0 128 128" xmlns="http://www.w3.org/2000/svg">
 <path d="m32.494 32.851c-4.701-0.20945-7.7145 4.933-5.2342 8.9319l11.704 19.506c1.3625 2.2706 4.0798 3.3435 6.626 2.6162l16.34-4.67c5.6083 7.3595 7.5445 14.71 8.4053 22.767-7.9524 4.1886-26.152 15.539-27.564 22.018-0.66101 4.1466 2.5418 7.9016 6.7408 7.9032h45.187c3.7711 0 6.8282-3.0572 6.8282-6.8283 0-3.7711-3.0576-6.8904-6.8282-6.8282l-26.699 0.44067c7.9818-4.7173 25.157-7.9982 24.589-17.511-0.8037-10.668-4.3888-22.707-12.172-32.312-2.9324-2.8408-6.9534-5.1041-10.734-4.0381l-22.993 6.5715-9.3964-15.659c-1.0007-1.7231-2.8092-2.8187-4.7998-2.9077z" color="#000000" color-rendering="auto" dominant-baseline="auto" fill="#333" image-rendering="auto" shape-rendering="auto" solid-color="#000000" style="font-feature-settings:normal;font-variant-alternates:normal;font-variant-caps:normal;font-variant-ligatures:normal;font-variant-numeric:normal;font-variant-position:normal;isolation:auto;mix-blend-mode:normal;shape-padding:0;text-decoration-color:#000000;text-decoration-line:none;text-decoration-style:solid;text-indent:0;text-orientation:mixed;text-transform:none;white-space:normal"/>
 <circle cx="62.72" cy="27.685" r="11.814" fill="#333" style="paint-order:markers fill stroke"/>
</svg>
