<?xml version="1.0" encoding="UTF-8"?>
<svg version="1.1" viewBox="0 0 128 128" xmlns="http://www.w3.org/2000/svg">
 <path d="m28.712 42.771c-4.2652 0-7.702 2.5942-9.8477 5.5625-2.1457 2.9683-3.4542 6.4633-4.4121 9.8496-1.9159 6.7727-2.3047 13.336-2.3047 13.336-0.4009 5.3798 7.7057 5.8914 7.9844 0.5039 0 0 0.3974-5.9368 2.0176-11.664 0.9055-2.8502 1.9941-5.6416 3.6269-7.8633l-3.6367 47.275c-0.076 5.4093 8.0765 5.4093 8 0l2-24h4l2 24c-0.076 5.4093 8.0765 5.4093 8 0l-3.6367-47.275c1.7461 2.3668 2.9283 5.4357 3.6269 7.8633 1.6202 5.7273 2.0176 11.664 2.0176 11.664 0.2787 5.3875 8.3853 4.8759 7.9844-0.5039 0 0-0.3888-6.5632-2.3047-13.336-0.9579-3.3863-2.2664-6.8813-4.4121-9.8496-2.1457-2.9683-5.5825-5.5625-9.8477-5.5625-3.6921 1.3781-7.3057 1.2879-10.855 0z" color="#000000" color-rendering="auto" dominant-baseline="auto" fill="#333" fill-rule="evenodd" image-rendering="auto" shape-rendering="auto" solid-color="#000000" style="font-feature-settings:normal;font-variant-alternates:normal;font-variant-caps:normal;font-variant-ligatures:normal;font-variant-numeric:normal;font-variant-position:normal;isolation:auto;mix-blend-mode:normal;shape-padding:0;text-decoration-color:#000000;text-decoration-line:none;text-decoration-style:solid;text-indent:0;text-orientation:mixed;text-transform:none;white-space:normal"/>
 <path d="m33.898 23.771c-4.4361 0-8.0341 3.5971-8.0341 8.0341s3.598 8.0326 8.0341 8.0326c4.437 0 8.034-3.5956 8.034-8.0326s-3.597-8.0341-8.034-8.0341z" fill="#333" style="paint-order:stroke fill markers"/>
 <path d="m90.14 42.771c-2.8333 0-5.1513 2.4184-6.8652 3.9805-4.5775 3.7715-4.8093 10.958-9.6321 14.363-4.5552 2.9343-0.023 9.7325 4.4375 6.6562 5.1597-3.6166 5.8509-9.7373 9.6047-14.072 0.1572 11.058-9.3622 20.457-9.5449 30.072 2e-4 2.209 1.791 3.9998 4 4h2.9238l-0.9238 12c-0.076 5.4093 8.0765 5.4093 8 0v-12h4v12c-0.076 5.4093 8.0765 5.4093 8 0l-0.9238-12h2.9238c2.209-2.2e-4 3.9998-1.791 4-4-1.4517-11.037-8.7359-20.099-9.5488-30.127 3.9608 4.4537 5.2013 11.195 9.4471 14.127 4.4606 3.0762 8.9927-3.7219 4.4375-6.6562-4.792-4.2041-5.1202-10.413-9.4608-14.379-1.7263-1.5554-4.0417-3.9648-6.875-3.9648-3.6604 1.7942-5.768 0.7848-8 0z" color="#000000" color-rendering="auto" dominant-baseline="auto" fill="#333" fill-rule="evenodd" image-rendering="auto" shape-rendering="auto" solid-color="#000000" style="font-feature-settings:normal;font-variant-alternates:normal;font-variant-caps:normal;font-variant-ligatures:normal;font-variant-numeric:normal;font-variant-position:normal;isolation:auto;mix-blend-mode:normal;shape-padding:0;text-decoration-color:#000000;text-decoration-line:none;text-decoration-style:solid;text-indent:0;text-orientation:mixed;text-transform:none;white-space:normal"/>
 <path d="m94.14 23.771c-4.4361 0-8.0341 3.5971-8.0341 8.0341s3.598 8.0326 8.0341 8.0326c4.437 0 8.034-3.5956 8.034-8.0326s-3.597-8.0341-8.034-8.0341z" fill="#333" style="paint-order:stroke fill markers"/>
 <path d="m64 16c-1.6561 0.025-2.9789 1.3869-2.9551 3.043l-0.0449 89.957c-0.0574 4.057 6.0574 4.057 6 0l0.0449-89.957c0.0243-1.6913-1.3536-3.0683-3.0449-3.043z" color="#000000" color-rendering="auto" dominant-baseline="auto" fill="#333" fill-rule="evenodd" image-rendering="auto" shape-rendering="auto" solid-color="#000000" style="font-feature-settings:normal;font-variant-alternates:normal;font-variant-caps:normal;font-variant-ligatures:normal;font-variant-numeric:normal;font-variant-position:normal;isolation:auto;mix-blend-mode:normal;shape-padding:0;text-decoration-color:#000000;text-decoration-line:none;text-decoration-style:solid;text-indent:0;text-orientation:mixed;text-transform:none;white-space:normal"/>
</svg>
