<?xml version="1.0" encoding="UTF-8" standalone="no"?>
<svg
   xmlns:dc="http://purl.org/dc/elements/1.1/"
   xmlns:cc="http://creativecommons.org/ns#"
   xmlns:rdf="http://www.w3.org/1999/02/22-rdf-syntax-ns#"
   xmlns:svg="http://www.w3.org/2000/svg"
   xmlns="http://www.w3.org/2000/svg"
   xmlns:sodipodi="http://sodipodi.sourceforge.net/DTD/sodipodi-0.dtd"
   xmlns:inkscape="http://www.inkscape.org/namespaces/inkscape"
   inkscape:version="1.0 (4035a4fb49, 2020-05-01)"
   sodipodi:docname="toilets.svg"
   width="128"
   height="128"
   viewBox="0 0 128 128"
   version="1.1"
   id="svg8">
  <sodipodi:namedview
     inkscape:snap-bbox="true"
     inkscape:current-layer="svg8"
     inkscape:window-maximized="0"
     inkscape:window-y="0"
     inkscape:window-x="0"
     inkscape:cy="52.992054"
     inkscape:cx="40.907319"
     inkscape:zoom="5.1974177"
     showgrid="true"
     id="namedview20"
     inkscape:window-height="1254"
     inkscape:window-width="1658"
     inkscape:pageshadow="2"
     inkscape:pageopacity="0"
     guidetolerance="10"
     gridtolerance="10"
     objecttolerance="10"
     borderopacity="1"
     bordercolor="#666666"
     pagecolor="#ffffff">
    <inkscape:grid
       spacingy="4"
       spacingx="4"
       empspacing="4"
       id="grid847"
       type="xygrid" />
  </sodipodi:namedview>
  <defs
     id="defs2" />
  <metadata
     id="metadata5">
    <rdf:RDF>
      <cc:Work
         rdf:about="">
        <dc:format>image/svg+xml</dc:format>
        <dc:type
           rdf:resource="http://purl.org/dc/dcmitype/StillImage" />
        <dc:title></dc:title>
      </cc:Work>
    </rdf:RDF>
  </metadata>
  <g
     id="toilets"
     transform="translate(-866.86047,1049.7712)"
     style="fill:#333333;fill-opacity:1"
     inkscape:label="#g5882">
    <path
       style="color:#000000;font-style:normal;font-variant:normal;font-weight:normal;font-stretch:normal;font-size:medium;line-height:normal;font-family:sans-serif;font-variant-ligatures:normal;font-variant-position:normal;font-variant-caps:normal;font-variant-numeric:normal;font-variant-alternates:normal;font-feature-settings:normal;text-indent:0;text-align:start;text-decoration:none;text-decoration-line:none;text-decoration-style:solid;text-decoration-color:#000000;letter-spacing:normal;word-spacing:normal;text-transform:none;writing-mode:lr-tb;direction:ltr;text-orientation:mixed;dominant-baseline:auto;baseline-shift:baseline;text-anchor:start;white-space:normal;shape-padding:0;clip-rule:nonzero;display:inline;overflow:visible;visibility:visible;opacity:1;isolation:auto;mix-blend-mode:normal;color-interpolation:sRGB;color-interpolation-filters:linearRGB;solid-color:#000000;solid-opacity:1;vector-effect:none;fill:#333333;fill-opacity:1;fill-rule:evenodd;stroke:none;stroke-width:8;stroke-linecap:round;stroke-linejoin:miter;stroke-miterlimit:4;stroke-dasharray:none;stroke-dashoffset:0;stroke-opacity:1;color-rendering:auto;image-rendering:auto;shape-rendering:auto;text-rendering:auto;enable-background:accumulate"
       d="m 895.5723,-1007 c -4.2652,0 -7.702,2.5942 -9.8477,5.5625 -2.1457,2.96829 -3.4542,6.46327 -4.4121,9.84961 -1.9159,6.77269 -2.3047,13.33594 -2.3047,13.33594 -0.4009,5.37982 7.7057,5.89143 7.9844,0.5039 0,0 0.3974,-5.93675 2.0176,-11.66406 0.9055,-2.85024 1.9941,-5.64165 3.6269,-7.86328 L 889,-950 c -0.076,5.40929 8.0765,5.40929 8,0 l 2,-24 h 4 l 2,24 c -0.076,5.40929 8.0765,5.40929 8,0 l -3.6367,-47.27539 c 1.7461,2.36678 2.9283,5.43568 3.6269,7.86328 1.6202,5.72731 2.0176,11.66406 2.0176,11.66406 0.2787,5.38753 8.3853,4.87592 7.9844,-0.5039 0,0 -0.3888,-6.56325 -2.3047,-13.33594 -0.9579,-3.38634 -2.2664,-6.88132 -4.4121,-9.84961 -2.1457,-2.9683 -5.5825,-5.5625 -9.8477,-5.5625 -3.6921,1.3781 -7.3057,1.2879 -10.8554,0 z"
       id="path5618"
       inkscape:connector-curvature="0"
       sodipodi:nodetypes="csccccccccccccccccscc" />
    <path
       sodipodi:nodetypes="sssss"
       inkscape:connector-curvature="0"
       id="path5832-9-6"
       d="m 900.7583,-1026 c -4.4361,0 -8.0341,3.5971 -8.0341,8.0341 0,4.437 3.598,8.0326 8.0341,8.0326 4.437,0 8.034,-3.5956 8.034,-8.0326 0,-4.437 -3.597,-8.0341 -8.034,-8.0341 z"
       style="fill:#333333;fill-opacity:1;fill-rule:nonzero;stroke:none;stroke-width:5.13517;stroke-miterlimit:4;stroke-dasharray:none;stroke-opacity:1;paint-order:stroke fill markers" />
    <path
       style="color:#000000;font-style:normal;font-variant:normal;font-weight:normal;font-stretch:normal;font-size:medium;line-height:normal;font-family:sans-serif;font-variant-ligatures:normal;font-variant-position:normal;font-variant-caps:normal;font-variant-numeric:normal;font-variant-alternates:normal;font-feature-settings:normal;text-indent:0;text-align:start;text-decoration:none;text-decoration-line:none;text-decoration-style:solid;text-decoration-color:#000000;letter-spacing:normal;word-spacing:normal;text-transform:none;writing-mode:lr-tb;direction:ltr;text-orientation:mixed;dominant-baseline:auto;baseline-shift:baseline;text-anchor:start;white-space:normal;shape-padding:0;clip-rule:nonzero;display:inline;overflow:visible;visibility:visible;opacity:1;isolation:auto;mix-blend-mode:normal;color-interpolation:sRGB;color-interpolation-filters:linearRGB;solid-color:#000000;solid-opacity:1;vector-effect:none;fill:#333333;fill-opacity:1;fill-rule:evenodd;stroke:none;stroke-width:8;stroke-linecap:round;stroke-linejoin:miter;stroke-miterlimit:4;stroke-dasharray:none;stroke-dashoffset:0;stroke-opacity:1;color-rendering:auto;image-rendering:auto;shape-rendering:auto;text-rendering:auto;enable-background:accumulate"
       d="m 957,-1007 c -2.8333,0 -5.1513,2.4184 -6.8652,3.9805 -4.5775,3.77151 -4.8093,10.95751 -9.6321,14.36326 -4.5552,2.9343 -0.023,9.73249 4.4375,6.65624 5.1597,-3.61659 5.8509,-9.73732 9.6047,-14.07227 0.1572,11.05761 -9.3622,20.45717 -9.5449,30.07227 2e-4,2.20905 1.791,3.99978 4,4 h 2.9238 L 951,-950 c -0.076,5.40929 8.0765,5.40929 8,0 v -12 h 4 v 12 c -0.076,5.40929 8.0765,5.40929 8,0 l -0.9238,-12 H 973 c 2.209,-2.2e-4 3.9998,-1.79095 4,-4 -1.4517,-11.03659 -8.7359,-20.09935 -9.5488,-30.12695 3.9608,4.4537 5.2013,11.19483 9.4471,14.12695 4.4606,3.07625 8.9927,-3.72194 4.4375,-6.65624 -4.792,-4.20414 -5.1202,-10.41257 -9.4608,-14.37896 -1.7263,-1.5554 -4.0417,-3.9648 -6.875,-3.9648 -3.6604,1.7942 -5.768,0.7848 -8,0 z"
       id="path5618-4"
       inkscape:connector-curvature="0"
       sodipodi:nodetypes="ccccccccccccccccccccccc" />
    <path
       sodipodi:nodetypes="sssss"
       inkscape:connector-curvature="0"
       id="path5832-9-6-6"
       d="m 961,-1026 c -4.4361,0 -8.0341,3.5971 -8.0341,8.0341 0,4.437 3.598,8.0326 8.0341,8.0326 4.437,0 8.034,-3.5956 8.034,-8.0326 0,-4.437 -3.597,-8.0341 -8.034,-8.0341 z"
       style="fill:#333333;fill-opacity:1;fill-rule:nonzero;stroke:none;stroke-width:5.13517;stroke-miterlimit:4;stroke-dasharray:none;stroke-opacity:1;paint-order:stroke fill markers" />
    <path
       style="color:#000000;font-style:normal;font-variant:normal;font-weight:normal;font-stretch:normal;font-size:medium;line-height:normal;font-family:sans-serif;font-variant-ligatures:normal;font-variant-position:normal;font-variant-caps:normal;font-variant-numeric:normal;font-variant-alternates:normal;font-feature-settings:normal;text-indent:0;text-align:start;text-decoration:none;text-decoration-line:none;text-decoration-style:solid;text-decoration-color:#000000;letter-spacing:normal;word-spacing:normal;text-transform:none;writing-mode:lr-tb;direction:ltr;text-orientation:mixed;dominant-baseline:auto;baseline-shift:baseline;text-anchor:start;white-space:normal;shape-padding:0;clip-rule:nonzero;display:inline;overflow:visible;visibility:visible;opacity:1;isolation:auto;mix-blend-mode:normal;color-interpolation:sRGB;color-interpolation-filters:linearRGB;solid-color:#000000;solid-opacity:1;vector-effect:none;fill:#333333;fill-opacity:1;fill-rule:evenodd;stroke:none;stroke-width:6;stroke-linecap:round;stroke-linejoin:miter;stroke-miterlimit:4;stroke-dasharray:none;stroke-dashoffset:0;stroke-opacity:1;color-rendering:auto;image-rendering:auto;shape-rendering:auto;text-rendering:auto;enable-background:accumulate"
       d="m 930.86047,-1033.7712 c -1.65611,0.025 -2.97886,1.3869 -2.9551,3.043 l -0.0449,89.95698 c -0.0574,4.05696 6.05737,4.05696 6,0 l 0.0449,-89.95698 c 0.0243,-1.6913 -1.35362,-3.0683 -3.0449,-3.043 z"
       id="path5758"
       inkscape:connector-curvature="0"
       sodipodi:nodetypes="cccccc" />
  </g>
</svg>
