<?xml version="1.0" encoding="UTF-8" standalone="no"?>
<svg
   xmlns:dc="http://purl.org/dc/elements/1.1/"
   xmlns:cc="http://creativecommons.org/ns#"
   xmlns:rdf="http://www.w3.org/1999/02/22-rdf-syntax-ns#"
   xmlns:svg="http://www.w3.org/2000/svg"
   xmlns="http://www.w3.org/2000/svg"
   xmlns:sodipodi="http://sodipodi.sourceforge.net/DTD/sodipodi-0.dtd"
   xmlns:inkscape="http://www.inkscape.org/namespaces/inkscape"
   viewBox="0 0 320 320"
   height="320"
   width="320"
   xml:space="preserve"
   id="svg2"
   version="1.1"
   sodipodi:docname="achievement_frame.svg"
   inkscape:version="0.92.1 r15371"><metadata
     id="metadata13"><rdf:RDF><cc:Work
         rdf:about=""><dc:format>image/svg+xml</dc:format><dc:type
           rdf:resource="http://purl.org/dc/dcmitype/StillImage" /><dc:title></dc:title></cc:Work></rdf:RDF></metadata><defs
     id="defs11" /><sodipodi:namedview
     pagecolor="#ffffff"
     bordercolor="#666666"
     borderopacity="1"
     objecttolerance="10"
     gridtolerance="10"
     guidetolerance="10"
     inkscape:pageopacity="0"
     inkscape:pageshadow="2"
     inkscape:window-width="1144"
     inkscape:window-height="967"
     id="namedview9"
     showgrid="false"
     inkscape:zoom="1.5526316"
     inkscape:cx="129.45082"
     inkscape:cy="195.09159"
     inkscape:window-x="0"
     inkscape:window-y="0"
     inkscape:window-maximized="0"
     inkscape:current-layer="svg2" /><g
     id="g4496"
     transform="matrix(1.0526316,0,0,1.052631,4.342105e-8,1.8021042e-4)"><path
       d="M 297.19507,168.42907 168.42908,297.19506 c -9.07391,9.07325 -23.78441,9.07325 -32.85766,0 L 6.8054307,168.42907 c -9.0739087,-9.07391 -9.0739087,-23.78507 0,-32.85832 L 135.57142,6.8047601 c 9.07325,-9.0732449 23.78375,-9.0732449 32.85766,0 L 297.19507,135.57075 c 9.07324,9.07325 9.07324,23.78441 0,32.85832"
       style="fill:#ffce0d"
       id="path22"
       inkscape:connector-curvature="0" /><path
       d="M 293.39616,168.42907 168.42927,293.39596 c -9.07391,9.07391 -23.78507,9.07391 -32.85831,0 L 10.604069,168.42907 c -9.073245,-9.07391 -9.073245,-23.78507 0,-32.85832 L 135.57096,10.603866 c 9.07324,-9.0732448 23.7844,-9.0732448 32.85831,0 L 293.39616,135.57075 c 9.07391,9.07325 9.07391,23.78441 0,32.85832"
       style="fill:#ffdc19"
       id="path26"
       inkscape:connector-curvature="0" /><path
       d="m 201.97738,245.58259 -45.19496,43.49223 c -1.27721,1.27721 -2.97529,1.98087 -4.78224,1.98087 -1.80628,0 -3.50502,-0.70366 -4.78224,-1.98087 l -44.84976,-43.49223 c 13.81366,14.30689 42.36969,44.09897 43.41589,46.97535 0.20446,0.56227 -0.0744,1.42923 -0.67711,2.48472 -0.33656,0.93866 -0.77602,2.10235 -1.27389,3.3882 2.67989,1.03159 5.50781,1.55535 8.33971,1.57593 2.8319,-0.0206 5.65983,-0.54434 8.33971,-1.57593 -0.49787,-1.28585 -0.93733,-2.44954 -1.27389,-3.3882 -0.60276,-1.05549 -0.88157,-1.92245 -0.67644,-2.48472 1.04553,-2.87638 29.60089,-32.66846 43.41522,-46.97535"
       style="fill:#ffff87"
       id="path34"
       inkscape:connector-curvature="0" /><path
       d="m 158.56196,10.310527 c -0.20512,-0.5629289 0.0737,-1.4292286 0.67711,-2.485384 0.24827,-0.692376 0.55297,-1.5082245 0.89484,-2.4043966 -5.14203,-1.8773147 -10.80385,-1.919136 -15.96647,-0.1135152 0.36046,0.9406489 0.68043,1.7963273 0.93933,2.5179118 0.60275,1.0561554 0.88223,1.9224551 0.6771,2.485384 -1.04619,2.876381 -42.1473,47.064968 -42.1473,47.064968 l 43.58118,-43.581846 c 1.27721,-1.277211 2.97595,-1.980872 4.7829,-1.980872 1.80629,0 3.50503,0.703661 4.78158,1.980872 l 43.60508,43.604417 c 0,0 -40.77982,-44.211158 -41.82535,-47.087539"
       style="fill:#ffff87"
       id="path38"
       inkscape:connector-curvature="0" /><path
       d="m 147.07874,7.3411407 c 0,-1.2227771 2.08775,-2.2145409 4.66209,-2.2145409 2.575,0 4.66208,0.9917638 4.66208,2.2145409 0,1.2234409 -2.08708,2.2145409 -4.66208,2.2145409 -2.57434,0 -4.66209,-0.9911 -4.66209,-2.2145409"
       style="fill:#ffffe6"
       id="path42"
       inkscape:connector-curvature="0" /><path
       d="m 152.00045,291.05569 c -1.80695,0 -3.50503,-0.70366 -4.7829,-1.98087 L 14.925282,156.78189 c -1.277875,-1.27721 -1.980873,-2.97529 -1.980873,-4.78158 0,-1.80628 0.702998,-3.50503 1.980873,-4.7829 L 147.21755,14.925145 c 1.27787,-1.277875 2.97595,-1.980872 4.7829,-1.980872 1.80628,0 3.50503,0.702997 4.78224,1.980872 L 289.07495,147.21741 c 1.27788,1.27854 1.98088,2.97662 1.98088,4.7829 0,1.80562 -0.703,3.5037 -1.98088,4.78158 L 156.78269,289.07482 c -1.27721,1.27721 -2.97596,1.98087 -4.78224,1.98087 z"
       style="fill:none;stroke:#fbbb00;stroke-width:1.9000005;stroke-miterlimit:4;stroke-dasharray:none"
       id="path46"
       inkscape:connector-curvature="0" /></g></svg>