<?xml version="1.0" encoding="UTF-8"?>
<svg clip-rule="evenodd" fill-rule="evenodd" stroke-linecap="round" stroke-linejoin="round" stroke-miterlimit="1.5" version="1.1" viewBox="0 0 290 290" xml:space="preserve" xmlns="http://www.w3.org/2000/svg">
    <g transform="matrix(1.4646 .20978 .20978 -1.4646 -263.7 255.29)">
        <g clip-path="url(#_clip1)">
                        <path d="m187.89 80.901-20.192 15.133c-1.0184 0.76241-1.6782 1.8755-1.8586 3.1344-0.18032 1.2589 0.1405 2.5124 0.90291 3.5309l78.985 105.39c0.76255 1.0175 1.8756 1.6773 3.1345 1.8576 1.2589 0.18032 2.5124-0.1405 3.5299-0.90304l70.002-52.46" fill="#b19281" fill-rule="nonzero" stroke-width=".94345"/>
                        <path d="m322.39 156.59-123.27-69.362 5.1422 4.8215s-33.272 8.4164-35.998 8.9246c-2.3189 0.43317-2.4858 0.30062-2.4858 0.30062l1.9759 2.4742 35.616-5.3271 114.19 61.782z" fill="#808080" fill-rule="nonzero" stroke-width=".94345"/>
                        <path d="m318.73 159.33-115-62.285-36.083 6.6384 1.3462 2.0599 34.765-5.6873 113.81 60.145z" fill="#969696" fill-rule="nonzero" stroke-width=".94345"/>
                        <path d="m276.62 16.147c-1.2589-0.18032-2.5124 0.1405-3.5299 0.90304l-86.866 65.098-19.891 15.035s-1.7456 2.5253-0.0957 4.0683c0.48657 0.45569 37.66-9.144 37.66-9.144l116.75 65.789 37.141-27.834c1.0186-0.76334 1.6784-1.8764 1.8587-3.1353 0.18019-1.258-0.14063-2.5115-0.90397-3.5301l-78.984-105.39c-0.76254-1.0175-1.8756-1.6773-3.1345-1.8576" fill="url(#_Linear2)" fill-rule="nonzero" stroke-width=".94345"/>
                        <path d="m205.14 76.154-20.599 7.3342-18.21 13.696s-1.7456 2.5253-0.0957 4.0683c0.48656 0.45569 37.66-9.144 37.66-9.144l116.75 65.789 10.7-8.308" fill="#85675d" fill-rule="nonzero" stroke-width=".94345"/>
                        <path d="m331.61 149.41-125.6-79.265-11.518 3.9276-13.028 10.304 23.654-5.9473 124.08 73.097z" fill="#8a8a8a" fill-rule="nonzero" stroke-width=".94345"/>
                        <path d="m205.12 78.426 0.89207-8.2841-11.518 3.9276-13.028 10.304z" fill="#6e6e6e" fill-rule="nonzero" stroke-width=".94345"/>
                        <path d="m329.23 151.52-124.26-74.332-20.814 6.5724-3.2045 2.364 23.627-6.8052 123.25 73.23z" fill="#c0c0c0" fill-rule="nonzero" stroke-width=".94345"/>
                        
                            <path d="m215.29 167.47 3.8832-27.904 26.698 10.234-3.2617 23.333-3.6496 25.916z" fill="#dadada" stroke-width=".52885"/>
                            <path d="m235.18 194.04 6.3806-41.617 2.1578-0.72503-2.7444 19.633-3.858 25.292z" fill="#9a9a9a" stroke-width=".44498"/>
                            <path d="m222.01 143.42 21.711 8.2735-2.0548 0.73188-19.778-7.1514z" fill="#fff" stroke-width=".67587"/>
                            <path d="m217.69 171.53 4.1926-26.258 19.849 7.1616-6.1737 40.647-0.24847 1.6727z" fill="#8085ab" stroke-width=".67587"/>
                            <path d="m217.83 171.82 0.1968-1.2663 1.6474-9.8594 18.111 12.722-2.9427 20.701z" fill="url(#_Linear3)" stroke-width=".6556"/>
                            <path d="m219.77 160.02 0.30291-2.1148 18.111 12.722-0.25557 1.7843z" fill="#fff" fill-opacity=".29" stroke-width=".6556"/>
                            <path d="m219.25 139.48-0.79345 0.29601-2.7292 19.883-0.97981 6.9645 0.63053 0.84136z" fill="#969696" stroke-width=".67587"/>
                        
                        <path d="m266.87 198.21 5.359-38.208 26.698 10.234-0.71568 4.4925z" fill="#dadada" stroke-width=".52885"/><path d="m293.84 177.91 0.78574-5.0556 2.1578-0.72503-0.56991 4.0932z" fill="#9a9a9a" stroke-width=".44498"/><path d="m275.07 163.86 21.711 8.2735-2.0548 0.73188-19.778-7.1514z" fill="#fff" stroke-width=".67587"/><path d="m270.11 195.87 4.8329-30.161 19.849 7.1616-0.86289 5.0996z" fill="#8085ab" stroke-width=".67587"/><path d="m270.29 195.76 2.4442-14.629 17.524-1.6022-1.1258 1.8809z" fill="#dadada" fill-opacity=".67" stroke-width=".6556"/><path d="m272.83 180.46 0.30291-2.1148 18.111 12.722-0.25557 1.7843z" fill="#fff" fill-opacity=".57" stroke-width=".6556"/><path d="m272.31 159.92-0.79345 0.29601-2.7292 19.883-0.97981 6.9645 0.63053 0.84136z" fill="#969696" stroke-width=".67587"/>
                        <path d="m273.53 46.758 16.581 5.7889 25.038 13.486-22.976-30.26-18.446-4.6904-11.611-4.7356-16.455 11.38" fill="#262626" fill-opacity=".34" stroke-width=".67587"/>
                        <path d="m206.12 137.74c-1.4104-0.37143-4.392-5.2185-6.8713-5.4822-2.4407-0.25939-4.9594 6.8915-5.7298 5.5929-0.4731-0.7979-6.8789-8.4973-8.4506-11.477-0.0272-0.0511 3.9392-12.907 6.4277-13.553-2.7994-0.73642-6.9413-5.2373-5.3599-11.568 1.3406-5.3646 6.1737-6.3791 8.283-3.6946-1.2892-2.5916 1.1577-4.3513 3.6454-4.9973 2.4877-0.646 11.489-0.57642 14.288 0.15963 2.7994 0.73642 12.641 5.0153 12.779 9.3496 0.0963 3.0415 6.076-3.6116 12.784 6.7154 2.7994 0.73641 5.5993 8.2614-0.95917 11.258-2.3647 1.0809-1.9187 3.5628-4.7181 2.8264 2.3606 1.9214 1.4796 4.192-0.0305 6.0473-1.5101 1.8552-5.5599 3.2473-7.9204 1.3259 1.2892 2.5916-1.4767 4.4398-3.9645 5.0858-2.4882 0.64563-5.1728 2.5465-6.4621-0.0451-0.12763 2.5671-4.9408 3.1927-7.7402 2.4563z" fill-opacity=".16" stroke-width=".53563"/>
                        <path d="m247.5 154.58c2.6349 1.5857 8.2888 3.8368 11.527 4.3006 3.2384 0.46385 9.4348-1.2421 9.774-3.6101 1.3252 2.2825 10.776 0.0158 9.4502-2.2672 2.6349 1.5857 9.1999 1.6412 12.985-3.7854 3.2069-4.5987-1.1744-11.621-4.8243-11.386 2.9741-0.7823 4.1682-1.0322 2.843-3.3147-1.3252-2.2825-7.5151-5.9561-10.15-7.5418-2.6349-1.5857-9.0578-7.8285-12.296-8.2924-3.2384-0.46385-19.747-7.5509-18.422-5.268-2.6349-1.5857-11.706 3.771-9.2234 10.657 0.89477 2.4831-1.3733 3.8183 1.2617 5.404-3.2384-0.46385-4.3651 1.7155-4.7042 4.0835-0.33918 2.368 2.4294 6.116 5.6678 6.5799-2.9741 0.7823-3.2614 4.2751-1.9362 6.5575 1.3258 2.2826 3.7649 2.4965 6.739 1.7142-1.9127 1.8192-1.3265 4.583 1.3084 6.1687z" fill-opacity=".18" stroke-width=".55531"/>
                        <path d="m321.99 156.59c0.30031 0.0464-31.744 24.063-31.947 24.093-2.1059 0.31448-3.927-2.0094-4.1597-2.57-1.2381-2.9863 0.50673-5.2917 1.8894-6.9302 0.38954-0.46146 0.75025-0.87001 1.0073-1.2256-1.9256 0.74337-5.2089-5.3238-3.2827-6.0673-2.165-0.33204-5.3642-3.5474-4.133-8.7475 1.0437-4.4065 4.7844-5.6585 6.4131-3.7078-0.99437-1.9516 0.90096-3.5805 2.8265-4.3239 1.9256-0.74336 8.8896-1.511 11.054-1.1792 2.165 0.33205 9.7744 2.8488 9.8757 6.2974 0.0684 2.3321 4.3743-3.0242 9.3204 3.4132 0.18703 0.24295 0.94784 0.67016 1.1361 0.94755z" fill-opacity=".13" stroke-width=".42098"/>
                        <path d="m256.03 159.39c2.6349 1.5857 8.2888 3.8368 11.527 4.3006 3.2384 0.46385 9.4348-1.2421 9.774-3.6101 1.3252 2.2825 10.776 0.0158 9.4502-2.2672 2.6349 1.5857 9.1999 1.6412 12.985-3.7854 3.2069-4.5987-1.1744-11.621-4.8243-11.386 2.9741-0.7823 4.1682-1.0322 2.843-3.3147-1.3252-2.2825-7.5151-5.9561-10.15-7.5418-2.6349-1.5857-9.0578-7.8285-12.296-8.2924-3.2384-0.46385-19.747-7.5509-18.422-5.268-2.6349-1.5857-11.706 3.771-9.2234 10.657 0.89477 2.4831-1.3733 3.8183 1.2617 5.404-3.2384-0.46385-4.3651 1.7155-4.7042 4.0835-0.33918 2.368 2.4294 6.116 5.6678 6.5799-2.9741 0.7823-3.2614 4.2751-1.9362 6.5575 1.3258 2.2826 3.7649 2.4965 6.739 1.7142-1.9127 1.8192-1.3265 4.583 1.3084 6.1687z" fill="#aac58b" stroke-width=".55531"/>
                        <path d="m257.26 156.3c2.386 1.4359 7.5057 3.4743 10.438 3.8944 2.9324 0.42003 1.6614-0.74497 1.9685-2.8893 1.2 2.0668-5.6312-0.27851-6.8312-2.3454 2.386 1.4359 0.78522-4.8128 0.49888-4.9041-14.481-4.6089-0.54797-7.4456-4.4068-9.0869-2.1058 0.37931-3.6775-9.9224 7.9295-9.8816 2.3897 8e-3 19.847 7.1786 21.238 4.7668 2.1837-3.7856-10.418-11.64-13.351-12.06-2.9324-0.42003-17.881-6.8376-16.681-4.7703-2.386-1.4359-10.6 3.4148-8.352 9.6504 0.81024 2.2485-1.2435 3.4576 1.1425 4.8935-2.9324-0.42002-3.9527 1.5535-4.2598 3.6978-0.30714 2.1443 2.1999 5.5382 5.1323 5.9583-2.6931 0.7084-2.9533 3.8712-1.7533 5.938 1.2005 2.0669 3.4092 2.2606 6.1023 1.5522-1.732 1.6473-1.2012 4.1501 1.1848 5.586z" fill="#6da559" stroke-width=".50285"/>
                        <path d="m216.27 141.93c-2.7994-0.73642-6.4632-4.0838-8.8238-6.0053s-2.4806-11.793-0.97054-13.648c-2.4877 0.64599-6.744-7.4393-4.2555-8.0854-2.7994-0.73642-6.9413-5.2373-5.3599-11.568 1.3406-5.3646 6.1737-6.3791 8.283-3.6946-1.2892-2.5916 1.1577-4.3513 3.6454-4.9973 2.4877-0.646 11.489-0.57642 14.288 0.15963 2.7994 0.73642 12.641 5.0153 12.779 9.3496 0.0963 3.0415 6.076-3.6116 12.784 6.7154 2.7994 0.73641 5.5993 8.2614-0.95917 11.258-2.3647 1.0809-1.9187 3.5628-4.7181 2.8264 2.3606 1.9214 1.4796 4.192-0.0305 6.0473-1.5101 1.8552-5.5599 3.2473-7.9204 1.3259 1.2892 2.5916-1.4767 4.4398-3.9645 5.0858-2.4882 0.64563-5.1728 2.5465-6.4621-0.0451-0.12763 2.5671-5.5154 6.0119-8.3144 5.2758z" fill="#aac58b" stroke-width=".53563"/>
                        <path d="m188.29 126.82c-1.2885 0.10603-3.5182 0.18569-4.28-1.3368-0.63786-1.2746-14.247-18.672-17.037-22.421-0.29718-0.39935-0.12036-1.0145-0.12167-1.5693-8e-3 -4.5284 4.677-4.5113 6.7139-2.9924-1.4201-1.6672 0.38263-5.3586 2.4148-5.7223 3.115-0.55827 8.4588 0.34326 8.6225 0.66263 0.0545 0.10702 1.6452-5.7728 10.917-1.789 2.2248 0.95589 4.5886 1.0261 11.398 7.2478 2.183-0.17987 4.8069-0.54981 0.56274 3.5408-1.5302 1.4751-0.74662 3.2837-2.9296 3.4636 2.0804 0.85878 1.8546 2.8597 1.0922 4.7069s-3.4677 4.0168-5.5481 3.1581c1.4205 1.6673-0.26177 3.8464-1.9621 5.0167-1.7007 1.1701-3.3138 3.3683-4.7342 1.701 0.37975 2.0289-2.9257 6.1529-5.1083 6.333z" fill="#6da559" stroke-width=".42099"/>
                        <path d="m326.19 155.91c0.30056 0.0461-32.687 22.306-32.891 22.336-2.1059 0.31448-3.927-2.0094-4.1597-2.57-0.47154-1.138-0.51049-2.1773-0.30075-3.1183 0.49474-2.2236 2.3749-3.8996 3.1974-5.0376-1.9256 0.74336-5.2089-5.3238-3.2827-6.0673-2.165-0.33205-5.3642-3.5474-4.133-8.7475 1.0437-4.4065 4.7844-5.6585 6.4131-3.7078-0.99438-1.9516 0.90095-3.5805 2.8265-4.3239 1.9256-0.74337 8.8896-1.511 11.054-1.1792 2.165 0.33204 9.7744 2.8488 9.8757 6.2974 0.0684 2.3321 4.3743-3.0242 9.3204 3.4132 0.18703 0.24295 1.891 2.427 2.0793 2.7043z" fill="#aac58b" stroke-width=".42098"/>
                        <path d="m312.6 164.06c0.22829 0.0253-12.629 11.979-12.735 12.099-5.1374 5.7966-7.5668-1.2523-7.724-1.6865-1.0735-2.9631 4.4291-7.3731 5.3844-8.6947-1.5007 0.65763-3.7899-4.0115-2.2888-4.6692-1.6444-0.18256-3.9741-2.6033-2.8409-6.7538 0.96061-3.5171 3.8688-4.643 5.0434-3.1628-0.68912-1.5042 0.82098-2.8598 2.3217-3.5174 1.5007-0.65762 16.749 2.1164 18.393 2.299 1.6444 0.18257-8.4198 0.13906-4.0979 6.8977 0.9906 1.5496-6.119-1.2475-4.2256 4.4987 0.70662 2.1446 2.6356 2.4782 2.7693 2.6906z" fill="#6da559" stroke-width=".32683"/>
                        <path d="m186.95 125.67c-1.2891 0.10625-2.1805 1.3333-2.9423-0.18918-0.63786-1.2746-14.247-18.672-17.037-22.421-0.29718-0.39935-0.12036-1.0145-0.12167-1.5693-8e-3 -4.5284 4.677-4.5113 6.7139-2.9924-1.4201-1.6672 0.38263-5.3586 2.4148-5.7223 3.115-0.55827 8.4588 0.34326 8.6225 0.66263 0.0238 0.04689 0.0227-3.5319 4.2393-4.6857 2.0691-0.56641 5.0393 0.13749 7.0175 1.1218 0.7407 0.36859 3.1832 2.8113 4.2061 2.574 5.305-1.2298 5.7103 3.038 7.008 6.09 0.32894 0.77369 3.7208 3.3872-1.5997 5.4538-6.7212 2.611-5.0271-0.3671-6.4836-2.4996-3.6351-5.3212-13.509-4.2341-9.4602-0.53375 2.183-0.17987-3.5976 0.86363-2.5566 5.6199 1.3436 6.1417 6.6586 0.22722 6.235 2.1804-1.8005 8.2988 5.2684 5.9281 3.568 7.0987-1.7007 1.1701-4.3461 3.9029-5.7665 2.2356 0.37975 2.0289-1.8747 7.396-4.0573 7.576z" fill="#67885a" stroke-width=".42099"/>
                        <path d="m216.77 138.91c-2.6435-0.69554-6.1035-3.8566-8.3328-5.6712-2.2292-1.8145-2.3432-11.136-0.91729-12.888-2.3492 0.60985-6.3688-7.0252-4.019-7.635-2.6435-0.69555-6.555-4.9458-5.062-10.924 1.2656-5.0656 4.3644-6.9155 6.3564-4.3806-1.2176-2.4473 2.494-3.5633 4.9072-3.8262 6.4595-0.70395 24.684-2.6238 26.181 9.5646 4e-3 0.0337-1.2773-2.7334-9.5814-0.30731-0.28958 0.0846-0.96678-0.12066-2.6106 1.0006-3.821 2.6068 0.46742 6.69-0.0541 6.9567-7.5537 3.8585-5.2281 5.154-1.4938 7.4342 0.40924 0.24967 1.4965 0.53114 1.1399 0.82251-7.3369 6.0082 4.549 12.43 6.5358 10.223 1.6042-1.782-3.9803 7.0966-5.1979 4.6493-0.12037 2.424-5.2079 5.6765-7.851 4.9813z" fill="#6da559" stroke-width=".50579"/>
                        <path d="m179.48 111.18 1.8945-0.94738-0.69967-1.2548 1.4555-0.23259-0.38091-2.0264-1.4562 0.23249 0.20029-1.3983-2.1302-0.30512-0.20028 1.3983-1.3324-0.63191-0.93509 1.8379 1.3324 0.63191-1.0238 1.0079 1.5524 1.4411 1.0238-1.0079z" fill="#2e5588" stroke-width=".67587"/>
                        <path d="m179.48 111.18 1.8945-0.94738-0.69967-1.2548 1.4555-0.23259-0.38091-2.0264-1.4562 0.23249 0.20029-1.3983-2.1302-0.30512-0.20028 1.3983-1.3324-0.63191-0.93509 1.8379 1.3324 0.63191-1.0238 1.0079 1.5524 1.4411 1.0238-1.0079z" fill="#76a0d8" stroke-width=".67587"/>
                        <path d="m188.86 120.77 1.3967-0.6848-0.51867-0.91205 1.0746-0.1663-0.28486-1.4719-1.0746 0.1663 0.14538-1.0149-1.5729-0.2253-0.14538 1.0149-0.98471-0.46126-0.68725 1.3326 0.98471 0.46126-0.75384 0.72978 1.1483 1.0494 0.75393-0.73045z" fill="#76a0d8" stroke-width=".67587"/>
                        <path d="m195.21 101.08 1.3967-0.6848-0.51867-0.91205 1.0746-0.1663-0.28486-1.4719-1.0746 0.1663 0.14538-1.0149-1.5729-0.2253-0.14538 1.0149-0.98471-0.46126-0.68725 1.3326 0.98471 0.46126-0.75384 0.72978 1.1483 1.0493 0.75393-0.73045z" fill="#76a0d8" stroke-width=".67587"/>
                        <path d="m295.21 171.97 1.8945-0.94738-0.69967-1.2548 1.4555-0.23259-0.38091-2.0264-1.4562 0.23249 0.20029-1.3983-2.1302-0.30512-0.20028 1.3983-1.3324-0.63191-0.93509 1.8379 1.3324 0.63191-1.0238 1.0079 1.5524 1.4411 1.0238-1.0079z" fill="#76a0d8" stroke-width=".67587"/>
                        <path d="m312.77 162.13 1.3967-0.6848-0.51867-0.91205 1.0746-0.1663-0.28486-1.4719-1.0746 0.1663 0.14538-1.0149-1.5729-0.2253-0.14538 1.0149-0.98471-0.46126-0.68725 1.3326 0.98471 0.46126-0.75384 0.72978 1.1483 1.0494 0.75393-0.73045z" fill="#76a0d8" stroke-width=".67587"/>
                        <path d="m217.88 131.79-0.29747-2.0972-1.4119 0.26549 0.24116-1.4541-2.0426-0.28159-0.24146 1.4547-1.2626-0.63353-0.96514 1.9234 1.2626 0.63352-1.0219 1.0631 1.4463 1.4698 1.0219-1.0631 0.6311 1.2906 1.8591-1.0151-0.6311-1.2906z" fill="#b8b8b8" stroke-width=".67588"/>
                        <path d="m241.68 120.52-0.29747-2.0972-1.4119 0.26549 0.24116-1.4541-2.0426-0.28159-0.24146 1.4547-1.2626-0.63353-0.96514 1.9234 1.2626 0.63352-1.0219 1.0631 1.4463 1.4698 1.0219-1.0631 0.6311 1.2906 1.8591-1.0151-0.6311-1.2906z" fill="#dadada" stroke-width=".67588"/>
                        <path d="m220.01 106.88-0.29747-2.0972-1.4119 0.26549 0.24116-1.4541-2.0426-0.28159-0.24146 1.4547-1.2626-0.63353-0.96514 1.9234 1.2626 0.63352-1.0219 1.0631 1.4463 1.4698 1.0219-1.0631 0.6311 1.2906 1.8591-1.0151-0.6311-1.2906z" fill="#b8b8b8" stroke-width=".67588"/>
                        <path d="m229.95 125.94-0.20637-1.5418-1.0295 0.20256 0.18319-1.0719-1.4862-0.19677-0.18318 1.0719-0.91641-0.45983-0.71263 1.4202 0.9164 0.45984-0.74982 0.78753 1.0458 1.0745 0.74982-0.78753 0.45295 0.94642 1.3594-0.75614-0.45355-0.94672z" fill="#dadada" stroke-width=".67588"/>
                        <path d="m213.29 113.68-0.20637-1.5418-1.0295 0.20256 0.18319-1.0719-1.4862-0.19677-0.18318 1.0719-0.91641-0.45983-0.71263 1.4202 0.9164 0.45984-0.74982 0.78753 1.0458 1.0745 0.74982-0.78753 0.45295 0.94642 1.3594-0.75614-0.45355-0.94672z" fill="#b8b8b8" stroke-width=".67588"/>
                        <path d="m250.5 138.26-0.23981 2.1046 1.4333 0.0983-0.59929 1.3467 1.906 0.78649 0.59974-1.3472 1.0625 0.93082 1.4181-1.6187-1.0625-0.93083 1.2566-0.77175-1.03-1.7865-1.2566 0.77176-0.28603-1.4079-2.0547 0.5146 0.28603 1.4079z" fill="#bb915d" stroke-width=".67587"/>
                        <path d="m266.03 151.98-0.23981 2.1046 1.4333 0.0983-0.59929 1.3467 1.906 0.78649 0.59974-1.3472 1.0625 0.93082 1.4181-1.6187-1.0625-0.93083 1.2566-0.77175-1.03-1.7865-1.2566 0.77176-0.28603-1.4079-2.0547 0.5146 0.28603 1.4079z" fill="#dfaa68" stroke-width=".67587"/>
                        <path d="m263.23 135.97-0.18823 1.5441 1.0473 0.063-0.447 0.99128 1.3889 0.56441 0.447-0.99128 0.77121 0.67563 1.0471-1.1952-0.77122-0.67563 0.92386-0.57352-0.74178-1.3031-0.92386 0.57351-0.20023-1.0299-1.506 0.38974 0.20075 1.0304z" fill="#dfaa68" stroke-width=".67587"/>
                        <path d="m200.74 98.784c-2.391 3.141 0.0978 6.2572 0.0811 6.3791-0.0481 0.3502-1.8001 2.0663-1.8144 3.8156-0.0397 4.8536 2.601 5.1506 2.601 5.1506l-4.6101 28.782-35.243-37.269-2.5098-3.1991s-2.4151-3.178-0.23987-5.2562c2.1753-2.0781 23.086-11.998 23.086-11.998l22.188 7.1607 3.0504 1.7458c0.0616 0.22321 3.1557-0.6766 6.3468-0.96647 2.9366-0.26692 6.0116 0.07726 5.635 0.17079-11.792 2.9196-14.133 5.4151-14.243 5.4806-0.30067 0.17815-3.672-0.85711-4.328 0.0041z" fill="#262626" fill-opacity=".24" stroke-width=".67587"/>
                        <path d="m276.62 16.147c-1.2589-0.18032-2.5124 0.1405-3.5299 0.90304l-105.39 78.984c-1.0184 0.76241-1.6782 1.8755-1.8586 3.1344-0.18032 1.2589 0.1405 2.5124 0.90291 3.5309l78.985 105.39c0.76254 1.0175 1.8756 1.6773 3.1345 1.8576 1.2589 0.18032 2.5124-0.1405 3.5299-0.90305l105.39-78.984c1.0186-0.76335 1.6784-1.8764 1.8587-3.1353 0.18019-1.258-0.14063-2.5115-0.90398-3.5301l-78.984-105.39c-0.76255-1.0175-1.8756-1.6773-3.1345-1.8576" fill="url(#_Linear4)" fill-rule="nonzero" stroke-width=".94345"/>
                    </g><g transform="matrix(1.1419,0,0,1.1493,-51.384,-15.824)">
                    <path d="m279.75 49.077s-1.4142-0.18415-2.4253 0.12071c-1.0101 0.30558-1.3568 0.75846-1.3568 0.75846l-13.241 1.7281 13.435-8.4106 2.8731 1.6603z" fill="#0b0b0b" fill-rule="nonzero" stroke-width="1.1457"/>
                    <path d="m320.34 118.61-2.5507 4.5782 1.9329 12.275-3.3795 2.0499-7.3209 5.2698-7.705 1.6875-2.9814 6.9196 2.9688 7.6462 5.2966-0.83727 22.878-19.198z" fill="#3e180b" fill-rule="nonzero"/>
                    <path d="m291.31 155.77-3.6948 5.2789s-4.7485-3.168-6.022-1.7084c-1.4317 1.6384-3.1474 6.4526-3.1474 6.4526l-3.2359-0.40043 0.8294 3.3506 2.416 2.0505s-1.0786 3.3955 0.39233 6.0012c1.4731 2.606 10.027 8.7441 14.495 2.9692s4.7522-3.9993 3.6796-8.3256c-1.0717-4.3265-3.3019-7.2311-3.3019-7.2311l3.1935-2.5854z" fill="#ea972f" fill-rule="nonzero"/>
                    <path d="m291.31 155.77-3.6948 5.2789s-2.1064-1.4052-3.8901-1.9126c-0.89405-0.2541-1.707-0.28312-2.1319 0.20425-1.4317 1.6384-3.1474 6.4526-3.1474 6.4526l-3.2359-0.40043 0.8294 3.3506 2.416 2.0505s-1.0786 3.3955 0.39233 6.0012c0.54615 0.96677 6.886-0.87858 8.7612 0.35109 0.15624 0.10239 0.66527-2.2345 0.0882-2.2862-2.1183-0.1883-8.4636 0.61407-9.1927-0.5379-0.33948-0.53559 0.32455-3.427 0.33944-3.3552 0.1233 0.57107-2.4764-2.5196-2.4508-2.5014 0.0408 0.0303-0.78297-2.1517-0.36451-2.3555 0.11799-0.0585 2.889 3e-3 3.0158-0.0235 0.46332-0.0994 5.9105-3.9672 7.0819-4.5453 0.72929-0.35963 1.874 7.5389 2.0234 7.1692 0.50037-1.2382 1.6626-3.3888 2.038-4.4356 1.4051-3.91-0.42033-5.1478-0.36007-5.2135 1.2451-1.3619 1.5603-1.2396 1.7364-2.4738 0.0735-0.51366-0.25397-0.81745-0.25397-0.81745z" fill="#a85c31" fill-rule="nonzero"/>
                    <path d="m263.28 105.61-31.221-38.115 1.799-1.2132 31.429 38.995z" fill="#e6e6e6" stroke-width=".71448"/>
                    <path d="m267.59 108.4c2.6376-1.7706 2.8617-5.9688 4.5046-8.0946 0.34299-0.44444 1.3885-4.5831-0.0117-3.6431-0.9772 0.6554-2.6167 1.5534-3.5898 2.2067-0.91023 0.61105-0.60056 4.5385-1.103 5.6084-0.55264 1.1772-1.5923 2.0614-2.2788 2.9494" fill="none" stroke="#000" stroke-width=".88595px"/>
                    <path d="m279.02 172.38s3.3236 0.0781 3.5327 0.32432c0.20977 0.24494-3.5501 2.343-3.5327-0.32432" fill="#e6e6e6" fill-rule="nonzero"/>
                    <path d="m280.86 50.28-3.4466 1.5192-1.442-2.6832 2.6952-1.5382z" fill="#a85c31" fill-rule="nonzero" stroke-width="1.04"/>
                    <path d="m322.42 116.28-12.627-10.486 12.224-23.86 4.7834-3.7018 8.3799 11.11c-1.7484 2.1587-3.2404 2.3549-3.2404 2.3549z" fill="#0d2c55" stroke-width=".82355"/>
                    <path d="m306.24 129.62-8.2161-16.395-8.7391-17.907s-16.018-43.937-13.646-43.892c0.43247 0.0089 6.1919-3.3176 6.5773-2.3172 1.9998 5.1878 12.958 11.273 18.831 31.584 3.1028 10.734 23.121 29.481 23.537 31.805s-6.2235 20.298-18.344 17.122" fill="#2a69b8" fill-rule="nonzero"/>
                    <path d="m298.03 113.22-8.7391-17.907s-16.018-43.937-13.646-43.892c0.083 0.0016 0.77312-0.75531 0.76745-0.31259-0.0504 4.0009 4.0815 20.745 13.424 41.644 3.0869 6.9057 7.0237 14.037 10.562 19.985" fill="#0d2c55" fill-rule="nonzero"/>
                    <path d="m325.57 124.84c3.0118 6.0533-9.1467 22.881-15.354 29.867-7.5034 8.4441-14.152 7.1735-14.152 7.1735l-2.4229-5.6828-2.9443-19.409s0.69012-15.772 1.6545-17.956c1.465-3.3204 5.6418-3.2016 5.6418-3.2016s-2.176-3.7546-0.20736-3.6508c5.2857 0.27916 25.836 0.40779 26.227 5.6055 0.2929 3.907-2.0031 0.0995 1.5579 7.2547z" fill="#8e1d1d" fill-rule="nonzero"/>
                    <path d="m291.09 129.74s-0.3765-8.1018 0.90293-10.44c0.10797-0.19732 0.34045-0.29196 0.3606-0.46078 0.31008-2.6156 4.1315-4.6531 5.7946-3.4653 0.8625 0.61585-2.7771 1.9811-4.2427 4.5452-1.4661 2.5634-2.8155 9.8213-2.8155 9.8213z" fill="#3e180b" stroke-width=".58998"/>
                    <path d="m258.83 108.98 6.384 2.7227 15.211 21.256 3.2418 5.0306 4.6006 9.4023 2.101 7.6027 7.0704 2.6035 7.4748-3.3772-1.1211-5.2439-15.794-21.394c-0.79615-1.0778-1.9908-1.7927-3.3177-1.984l-17.413-19.349-2.3163-1.4135-1.2798-3.7304-5.214 2.9499z" fill="#ea972f" fill-rule="nonzero"/>
                    <path d="m298.44 161.11s-3.81 2.5993-7.8921-1.9944c-4.0841-4.5931-11.619-26.54-11.619-26.54s-12.048-19.287-14.161-20.144c-1.1956-0.48427 5.437 0.28782 4.2098-4.626-0.10617-0.42773 18.553 18.485 18.553 18.485s26.643 26.459 15.312 31.621" fill="#8e1d1d" fill-rule="nonzero"/>
                    <path d="m294.18 161.33s-1.7937-0.7158-3.6305-2.217c-4.7644-3.8927-11.619-26.54-11.619-26.54s-15.353-22.089-14.161-20.144c0.58377 0.95303 1.7911 2.0743 8.4178 9.7359 2.9912 3.4595 7.1163 10.026 7.1163 10.026s10.78 28.657 13.876 29.14z" fill="#3e180b" fill-rule="nonzero"/>
                    <path d="m290.77 129.78s14.167 15.284 13.644 23.172c-0.0161 0.2401-0.33617-8.0538-3.7751-17.985-3.9434-11.389-9.8693-5.1872-9.8693-5.1872z" fill="#3e180b" stroke-width=".58998"/>
                    <path d="m266.91 102.71 1.7941 4.6835 0.65753 2.3742-1.9024-3.0158-1.7105 0.26506-1.1497-1.5418-1.7467-1.2977-4.4431-0.51508 3.2297-3.6156z" fill="#a85c31" fill-rule="nonzero"/>
                    <path d="m300.94 173.31c-0.73934 1.5519-0.9285 4.3948-1.7201 6.5762-0.79254 2.1817-3.8206 2.8255-6.3256 3.072-2.5048 0.24741-7.74-0.36246-8.8118-0.0308-1.0709 0.33134-4.6612-5.342-4.6612-5.342s5.5346 3.1645 7.2656 3.4507c1.7316 0.28492 6.417-1.9885 6.417-1.9885s-5.3942-2.8122-5.598-3.2778c-0.20247-0.46493-1.1569-1.5671-1.117-2.2671 0.0672-1.2172 0.43312-3.11 0.43312-3.11s-0.051-6.5286-6.9476-7.3896c-1.817-0.22605 1.4465-5.9923 1.4465-5.9923s6.3639 1.1284 7.3346 3.7957c0.97104 2.6682-0.27924 9.1525-0.27924 9.1525s2.1208 2.1586 3.2867 1.867c1.1662-0.29069 1.1159-0.90319 1.0793-2.148-0.0356-1.2451-2.2126-1.9344-2.2126-1.9344s2.906-3.5181 4.5704-4.658c0 0 0.36397 0.35425 0.91335 0.939 1.9137 2.0374 6.0766 6.8751 4.9267 9.2857z" fill="#dadada" fill-rule="nonzero"/>
                    <path d="m286.92 174.82s6.2139 0.15482 7.1353 0.13386c0.92141-0.0209 6.2246 0.61974 6.2246 0.61974l-0.0967 0.67063s-3.7927-0.23559-6.1604-0.2684c-2.3678-0.0328-6.5301-0.0929-6.5301-0.0929z" fill="#8c8c8c" stroke-width=".58998"/>
                    <path d="m278.36 172.21c0.14513 0.46906 4.8666 0.8024 5.0216 0.33574 0.12184-0.36743 0.28322-0.60369 0.88978-0.78822 1.7525-0.53385 5.061-0.53165 4.9426-1.2152-0.0824-0.47276-3.7784 0.3599-5.3927 0.0889-0.44941-0.0755-0.70165-1.4389-0.71436-1.48-0.14513-0.46906-3.1815-1.1584-3.6516-1.013-0.46906 0.14513-1.9158 2.9595-1.7707 3.4286" fill="#0b0b0b" fill-rule="nonzero"/>
                    <path d="m277.91 164.66-0.0753 0.79417 2.2293 1.0049 2.9384-1.3641 1.1477-1.3114-2.8336 9e-3 -1.7593-0.1035-1.1227-0.46328z" fill="#dadada" stroke-width=".71448"/>
                    <path d="m298.59 115.19s21.727 2.4524 23.623 3.9176c1.8964 1.4652-4.9506-3.5222-13.57-4.125-8.6194-0.60286-10.053 0.20744-10.053 0.20744z" fill="#3e180b" stroke-width=".71448"/>
                    <path d="m266.59 108.62 3.6318 3.7485s2.1076 1.6276 2.264-0.40452c0.15713-2.032-4.055-4.6808-4.055-4.6808z" fill="#dadada" stroke-width=".71448"/>
                    <path d="m279.77 160.24s1.1934-1.3065 1.8742-2.412c0.14456-0.23548 4.2589 0.36493 6.2806 2.7035 0.60525 0.69984 0.61694 0.98786 0.88582 2.0676 0.38738 1.5558 0.1034 4.4342 0.1034 4.4342s1.1454-3.7978 0.24381-5.3787c-0.90165-1.5803-0.53413-2.8647-7.941-4.8266-0.17969-0.0476-1.4467 3.4121-1.4467 3.4121z" fill="#8c8c8c" stroke-width=".58998"/>
                    <path d="m282.78 175.73c9.447-0.0252 17.834 0.59471 17.834 0.59471s0.64547 7.0037-1.3119 8.3183c-1.9579 1.3138-2.6871 2.141-4.6022 2.0076-1.9156-0.13425-8.443-0.72982-10.813-1.8432-2.3704-1.1135-6.7816-5.0939-8.9225-6.3669-2.5335-1.506 2.3538-1.0866 0.57566-1.3832-2.815-0.4706-1.5766-0.1586-2.8887-0.89213-1.1088-0.61928 0.68135-0.40994 10.128-0.43523z" fill="#8e1d1d" stroke-width=".71448"/>
                    <path d="m276.86 177.5 21.851-1.3052-22.012 0.27232z" fill="#3e180b" stroke-width=".71448"/>
                    <path d="m281.36 178.21s3.2497 2.9146 5.8097 3.7821 10.516 2.068 11.582 1.2764c1.0659-0.7916 1.7468-1.4769 1.7468-1.4769s-0.56383 2.3634-3.4854 1.735c-2.9216-0.62845-7.5646-1.0864-9.1793-2.1322-1.6148-1.0457-6.4733-3.1845-6.4733-3.1845z" fill="#3e180b" stroke-width=".71448"/>
                    <path d="m293.35 164.64s2.4112 0.86359 3.6375 2.1788c1.2263 1.3152 3.8019 4.1532 3.8019 4.1532s-0.88283-2.9012-3.0837-5.1536c-2.2009-2.2524-2.5489-2.7581-2.5489-2.7581z" fill="#8c8c8c" stroke-width=".58998"/>
                </g>
    </g>
    <defs>
        <linearGradient id="_Linear2" x2="1" gradientTransform="matrix(-20.25 88.679 88.679 20.25 280.05 34.279)" gradientUnits="userSpaceOnUse"><stop stop-color="#454545" offset="0"/><stop stop-color="#8f8f8f" offset="1"/></linearGradient>
        <linearGradient id="_Linear3" x2="1" gradientTransform="matrix(-6.1554 10.514 10.514 6.1554 227.99 170.89)" gradientUnits="userSpaceOnUse"><stop stop-color="#fff" stop-opacity=".36" offset="0"/><stop stop-color="#8085ab" stop-opacity=".5" offset="1"/></linearGradient>
        <linearGradient id="_Linear4" x2="1" gradientTransform="matrix(17.566 80.536 -80.535 17.566 253.82 86.436)" gradientUnits="userSpaceOnUse"><stop stop-color="#fff" stop-opacity="0" offset="0"/><stop stop-color="#e9ecf5" stop-opacity=".35" offset="1"/></linearGradient>
    
            
        
                
                
            
                    <clipPath id="_clip1">
                        <path d="m276.62 16.147c-1.259-0.18-2.513 0.141-3.53 0.903l-105.4 78.985c-1.018 0.763-1.678 1.876-1.858 3.135-0.18 1.258 0.141 2.513 0.903 3.531l78.986 105.39c0.762 1.018 1.876 1.677 3.134 1.858 1.259 0.18 2.513-0.14 3.531-0.903l105.39-78.985c1.018-0.764 1.678-1.877 1.858-3.135 0.181-1.259-0.14-2.512-0.903-3.53l-78.985-105.4c-0.763-1.017-1.876-1.678-3.135-1.858" clip-rule="nonzero"/>
                    </clipPath>
                    
                
                        
                    
                        
                    
                        
                    
                        
                    
                        
                    
                        
                    
                        
                    
                        
                    
                        
                    
                        
                    
                        
                    
                        
                    
                        
                    
                        
                    
                        
                    
                        
                    
                        
                    
                        
                    
                        
                    
                        
                    
                        
                        
                    
                        
                    
                        
                    
                        
                    
                        
                    
                        
                    
                        
                    
                        
                    
                        
                    
                            
                        
                            
                        
                            
                        
                            
                        
                            
                        
                            
                        
                            
                        
                            
                        
                            
                        
                            
                        
                            
                        
                            
                        
                            
                        
                            
                        
                            
                        
                            
                        
                            
                        
                            
                        
                            
                        
                            
                        
                            
                        
                            
                        
                            
                        
                            
                        
                            
                        
                            
                        
                            
                        
                            
                        
                            
                            
                            
                            
                            
                            
                            
                        
                                
                            
                                
                            
                                
                            
                                
                            
                                
                            
                                
                            
                                
                            
                            
                        
                            
                        
                            
                        
                            
                        
                            
                        
                            
                        
                            
                        
                            
                        
                                
                            
                                
                            
                                
                            
                                
                            
                                
                            
                                
                            
                                
                            </defs>
</svg>
