<?xml version="1.0" encoding="UTF-8" standalone="no"?>
<!-- Created with Inkscape (http://www.inkscape.org/) -->

<svg
   xmlns:dc="http://purl.org/dc/elements/1.1/"
   xmlns:cc="http://creativecommons.org/ns#"
   xmlns:rdf="http://www.w3.org/1999/02/22-rdf-syntax-ns#"
   xmlns:svg="http://www.w3.org/2000/svg"
   xmlns="http://www.w3.org/2000/svg"
   xmlns:sodipodi="http://sodipodi.sourceforge.net/DTD/sodipodi-0.dtd"
   xmlns:inkscape="http://www.inkscape.org/namespaces/inkscape"
   version="1.1"
   id="svg2"
   xml:space="preserve"
   width="290"
   height="290"
   viewBox="0 0 290 290"
   sodipodi:docname="ic_achievement_car.svg"
   inkscape:version="0.92.1 r15371"><metadata
     id="metadata8"><rdf:RDF><cc:Work
         rdf:about=""><dc:format>image/svg+xml</dc:format><dc:type
           rdf:resource="http://purl.org/dc/dcmitype/StillImage" /><dc:title></dc:title></cc:Work></rdf:RDF></metadata><defs
     id="defs6"><clipPath
       clipPathUnits="userSpaceOnUse"
       id="clipPath18"><path
         d="M 0,750 H 750 V 0 H 0 Z"
         id="path16"
         inkscape:connector-curvature="0" /></clipPath></defs><sodipodi:namedview
     pagecolor="#ffffff"
     bordercolor="#666666"
     borderopacity="1"
     objecttolerance="10"
     gridtolerance="10"
     guidetolerance="10"
     inkscape:pageopacity="0"
     inkscape:pageshadow="2"
     inkscape:window-width="1410"
     inkscape:window-height="984"
     id="namedview4"
     showgrid="false"
     inkscape:pagecheckerboard="true"
     inkscape:zoom="2.0000001"
     inkscape:cx="274.58665"
     inkscape:cy="138.85431"
     inkscape:window-x="382"
     inkscape:window-y="219"
     inkscape:window-maximized="0"
     inkscape:current-layer="g12" /><g
     id="g10"
     inkscape:groupmode="layer"
     inkscape:label="traffic_wip"
     transform="matrix(1.3333333,0,0,-1.3333333,0,290)"><g
       id="g12"><g
         id="g5163"
         transform="scale(1.0469314)"><path
           inkscape:connector-curvature="0"
           id="path30"
           style="fill:#aab1e0;fill-opacity:1;fill-rule:nonzero;stroke:none;stroke-width:0.49532843"
           d="m 103.75892,0.23265625 c -1.34779,0 -2.61533,0.52554346 -3.56835,1.47806005 L 1.4785525,100.42323 c -0.95350724,0.95302 -1.47855537425,2.22007 -1.47855537425,3.56785 0,1.34779 0.52504813425,2.61534 1.47806007425,3.56885 l 98.7125128,98.71202 c 0.95302,0.9535 2.22056,1.47806 3.56835,1.47806 1.34779,0 2.61533,-0.52456 3.56835,-1.47806 l 98.71202,-98.71202 c 0.9535,-0.95401 1.47855,-2.22106 1.47855,-3.56885 0,-1.34729 -0.52505,-2.61434 -1.47855,-3.56785 L 107.32727,1.7107163 c -0.95302,-0.95251659 -2.22056,-1.47806005 -3.56835,-1.47806005" /><path
           inkscape:connector-curvature="0"
           id="path34"
           d="m 102.3208,200.34522 c -5.298769,-0.23411 -6.247549,-9.03662 -6.247549,-9.03662 0,0 -0.70284,5.16267 -2.57667,7.31983 l -11.98681,-11.98535 h 35.399419 l -10.0796,0.95214 c 0,0 4.15939,10.62675 -2.72021,12.52881 -0.64501,0.17841 -1.24043,0.24541 -1.78858,0.22119 z m 36.67823,-25.80175 c -4.86016,-0.4874 -5.74951,-5.896 -5.74951,-5.896 0,0 -1.30624,6.30668 -5.10938,5.30859 -3.80362,-0.99808 -3.80713,-3.87304 -3.80713,-3.87304 0,0 -2.52763,2.18572 -4.66992,1.00634 -2.1423,-1.17938 1.36231,-3.63574 1.36231,-3.63574 l -11.51807,-1.86767 h 38.37451 l -0.40576,0.41015 -3.47168,0.21533 c 0,0 0.59632,1.00089 0.96387,2.31153 z"
           style="fill:#ffffff;fill-opacity:1;fill-rule:nonzero;stroke:none;stroke-width:0.49532843" /><path
           inkscape:connector-curvature="0"
           id="path58"
           style="fill:#afcaff;fill-opacity:1;fill-rule:nonzero;stroke:none;stroke-width:0.49532843"
           d="m 79.483221,162.34825 h 8.97684 l 1.71681,-9.78422 h 5.4709 l 0.4448,28.28523 h 16.825819 l -2.55936,-44.27939 3.40835,-0.68306 h 9.39044 l -1.77477,24.83874 29.52851,4.21921 -2.61533,-39.27806 H 79.483221 l -5.89639,20.03009 z" /><path
           inkscape:connector-curvature="0"
           id="path66"
           style="fill:#7590ba;fill-opacity:1;fill-rule:nonzero;stroke:none;stroke-width:0.49532843"
           d="m 69.407601,175.25651 -8.52114,-43.04751 8.27446,-13.95489 4.62191,-0.6781 6.24164,8.45129 4.85471,64.70079 z" /><path
           inkscape:connector-curvature="0"
           id="path70"
           style="fill:#26354b;fill-opacity:1;fill-rule:nonzero;stroke:none;stroke-width:0.49532843"
           d="M 198.62011,92.771548 H 131.6735 l -12.57391,17.781302 -3.95768,6.18368 h -0.41459 -22.728639 -0.41508 l -3.95817,-6.18418 -12.57342,-17.780802 H 8.8974308 L 31.408621,70.260357 h 27.72552 L 47.649451,54.019033 100.19043,1.4780604 C 101.14344,0.5250485 102.41098,3.6000999e-7 103.75877,3.6000999e-7 c 1.34779,0 2.61534,0.52504813999001 3.56835,1.47806003999001 L 159.40397,53.55491 147.59138,70.260357 h 28.51803 z" /><path
           inkscape:connector-curvature="0"
           id="path74"
           d="M 91.653811,118.25392 74.544431,94.352054 7.5439408,94.125007 8.8974608,92.771489 H 74.707031 l 16.94678,23.964851 z m 22.918939,0 v -1.51758 l 16.94532,-23.964851 h 65.80957 l 1.35351,1.353518 -67.00048,0.227047 z"
           style="fill:#7590ba;fill-opacity:1;fill-rule:nonzero;stroke:none;stroke-width:0.49532843" /><path
           inkscape:connector-curvature="0"
           id="path78"
           d="M 12.405761,118.25392 1.4780304,107.32618 C 0.52501038,106.37316 3.7500001e-7,105.10561 3.7500001e-7,103.75782 c 0,-1.34779 0.52501000499999,-2.61389 1.47803002499999,-3.5669 l 6.0659104,-6.065913 67.0004902,0.227047 17.10938,23.901866 z m 102.165529,0 17.10938,-23.901866 67.00048,-0.227047 2.46387,1.171875 4.89405,4.894038 c 0.95301,0.95352 1.47802,2.21961 1.47802,3.5669 0,1.34779 -0.52501,2.61485 -1.47802,3.56836 l -10.92627,10.92774 z"
           style="fill:#e3d0b1;fill-opacity:1;fill-rule:nonzero;stroke:none;stroke-width:0.49532843" /><path
           inkscape:connector-curvature="0"
           id="path82"
           d="m 31.409181,70.259774 16.03857,-16.038578 11.34082,16.038578 z m 116.182619,0 11.8125,-16.705081 16.70508,16.705081 z"
           style="fill:#e3d0b1;fill-opacity:1;fill-rule:nonzero;stroke:none;stroke-width:0.49532843" /><path
           inkscape:connector-curvature="0"
           id="path86"
           d="m 88.229001,105.5127 -4.67577,-9.082028 h 2.39355 l 4.19091,9.082028 z m 2.61768,0 -4.14404,-9.082028 h 2.62353 l 3.19775,9.082028 z m 2.60742,0 -2.93701,-9.082028 h 2.86816 l 2.24268,9.082028 z m 3.25782,0 -1.83252,-9.082028 h 3.39404 l 0.646,9.082028 z m 3.363269,0 -0.635729,-9.082028 h 4.042959 l -0.45996,9.082028 z m 3.89796,0 0.46142,-9.082028 h 3.27247 l -1.74903,9.082028 z m 3.03222,0 1.95264,-9.082028 h 3.29151 l -2.83155,9.082028 z m 3.60059,0 2.70556,-9.082028 h 2.80372 l -3.45264,9.082028 z m 2.7832,0 4.24512,-9.082028 h 2.46533 l -4.28759,9.082028 z m 3.3252,0 4.71533,-9.082028 h 2.78174 l -6.01318,9.082028 z m -54.313479,-43.092774 -7.86914,-15.282713 4.01953,-4.019535 8.90771,19.302248 z m 13.84424,0 -7.78272,-24.068843 h 7.60254 l 5.94287,24.068843 z m -6.90967,-0.0015 -9.42627,-20.658691 3.40869,-3.40869 h 1.98779 l 8.47705,24.067381 z m 15.54639,0 -4.85742,-24.067381 h 8.9956 l 1.70948,24.067381 z m 8.91064,0 -1.68457,-24.067381 h 10.715339 l -1.21729,24.067419 z m 10.333009,0 1.22314,-24.067381 h 8.67188 l -4.6377,24.067381 z m 8.0332,0 5.1753,-24.067381 h 8.72168 l -7.50293,24.067381 z m 9.542,0 7.17187,-24.067381 h 7.42969 l -9.15088,24.067381 z m 7.37548,0 11.25147,-24.067381 h 3.87305 l 1.80615,1.807613 -10.50879,22.259768 z m 8.81397,0 10.38135,-19.995121 4.08545,4.08399 -10.53516,15.911131 z"
           style="fill:#ffffff;fill-opacity:1;fill-rule:nonzero;stroke:none;stroke-width:0.49532843" /><path
           inkscape:connector-curvature="0"
           id="path166"
           d="m 58.788571,70.259774 -11.34082,-16.038578 1.40332,-1.403318 9.9375,14.912108 z m 88.647959,0 v -2.528325 l 10.45458,-15.688478 1.42237,1.420905 z"
           style="fill:#7590ba;fill-opacity:1;fill-rule:nonzero;stroke:none;stroke-width:0.49532843" /><path
           inkscape:connector-curvature="0"
           id="path174"
           d="m 69.161131,118.25392 -13.6582,-14.49464 H 3.7500001e-7 c 0,-1.34827 0.52501000499999,-2.61484 1.47803002499999,-3.56836 l 2.47851,-2.478513 H 52.470701 Z m 75.320809,-10.27002 5.80517,-9.521493 53.44044,-0.584467 2.31152,2.31298 c 0.24122,0.24172 0.45489,0.5024 0.64014,0.78077 h -56.3921 z"
           style="fill:#c9ae90;fill-opacity:1;fill-rule:nonzero;stroke:none;stroke-width:0.49532843" /><path
           inkscape:connector-curvature="0"
           id="path182"
           style="fill:#59667f;fill-opacity:1;fill-rule:nonzero;stroke:none;stroke-width:0.49532843"
           d="M 1.4782104,107.32687 C 0.52520038,106.37386 1.50375e-4,105.10681 1.50375e-4,103.75852 H 2.7660604 55.502191 l 1.01047,58.6033 z" /><path
           inkscape:connector-curvature="0"
           id="path186"
           style="fill:#afcaff;fill-opacity:1;fill-rule:nonzero;stroke:none;stroke-width:0.49532843"
           d="m 56.512861,162.36177 -1.01047,-58.6033 13.65868,14.49579 2.91204,59.66776 z" /><g
           id="g6157"><path
             style="fill:#59667f;fill-opacity:1;fill-rule:nonzero;stroke:none;stroke-width:0.66043788"
             d="m 88.283203,65.960938 1.935547,31.8125 h 9.88672 l 1.71875,-31.8125 z m 4.513672,64.912112 v 17.30273 h 4.580078 l -0.818359,-17.30273 z"
             transform="matrix(0.75000002,0,0,-0.75000002,0,207.75001)"
             id="path192"
             inkscape:connector-curvature="0" /><path
             style="fill:#26354b;fill-opacity:1;fill-rule:nonzero;stroke:none;stroke-width:0.66043788"
             d="m 86.353516,69.830078 0.259765,1.50586 h 16.406249 v -1.50586 z m 8.835937,4.140625 c -1.646472,0 -2.980469,1.335955 -2.980469,2.982422 0,1.646467 1.333997,2.980469 2.980469,2.980469 1.646471,0 2.980469,-1.334002 2.980469,-2.980469 0,-1.646467 -1.333998,-2.982422 -2.980469,-2.982422 z m 6.177737,0.515625 -0.28901,5.292939 5.08198,-4.644501 z m -12.548831,0.142578 -4.720703,0.638672 5.041016,4.621094 -0.09961,-1.650391 z m 6.371094,7.164063 c -1.646472,0 -2.980469,1.335955 -2.980469,2.982422 0,1.646466 1.333997,2.980468 2.980469,2.980468 1.646471,0 2.980469,-1.334002 2.980469,-2.980468 0,-1.646467 -1.333998,-2.982422 -2.980469,-2.982422 z m 5.751957,0.558593 -0.28125,5.236329 4.74804,-5.236329 z m -16.089848,0.132813 4.765626,5.253906 -0.199219,-3.279297 -0.121094,-1.974609 z m 15.667968,7.697266 -0.25195,4.652343 3.85156,-4.652343 z m -14.378905,0.132812 3.919922,4.736328 -0.287109,-4.736328 z m 9.048828,0.04492 c -1.646472,0 -2.980469,1.334002 -2.980469,2.980469 0,1.646466 1.333997,2.982422 2.980469,2.982422 1.646471,0 2.980469,-1.335956 2.980469,-2.982422 0,-1.646467 -1.333998,-2.980469 -2.980469,-2.980469 z m -0.988281,7.369141 v 33.099606 h 1.826172 V 97.728516 Z"
             transform="matrix(0.75000002,0,0,-0.75000002,0,207.75001)"
             id="path224"
             inkscape:connector-curvature="0"
             sodipodi:nodetypes="cccccssssscccccccccssssscccccccccccccccccsssssccccc" /></g><path
           inkscape:connector-curvature="0"
           id="path240"
           style="fill:#4a807f;fill-opacity:1;fill-rule:nonzero;stroke:none;stroke-width:0.49532843"
           d="m 132.55425,123.64829 c 0,0 -6.45661,22.43491 -3.79669,21.83111 2.65942,-0.60431 6.12622,-21.83111 6.12622,-21.83111 0,0 -3.98343,34.63039 0,34.63039 3.98294,0 3.94133,-29.46907 3.94133,-29.46907 0,0 2.77285,15.16795 5.2381,12.15388 2.46624,-3.01408 -1.73811,-17.3152 -1.73811,-17.3152 z" /><path
           inkscape:connector-curvature="0"
           id="path244"
           style="fill:#aab1e0;fill-opacity:1;fill-rule:nonzero;stroke:none;stroke-width:0.49532843"
           d="m 134.92979,178.43652 3.83533,-60.1824 8.67122,-8.28536 1.67668,54.28453 z" /><path
           inkscape:connector-curvature="0"
           id="path260"
           style="fill:#59667f;fill-opacity:1;fill-rule:nonzero;stroke:none;stroke-width:0.49532843"
           d="m 142.83712,170.52939 v -60.56034 l 7.45073,-8.99715 1.9615,60.14526 z" /><path
           inkscape:connector-curvature="0"
           id="path264"
           style="fill:#afcaff;fill-opacity:1;fill-rule:nonzero;stroke:none;stroke-width:0.49532843"
           d="m 152.24935,161.11692 -1.9615,-60.14476 h 56.39166 c 0.54486,0.81927 0.83809,1.78021 0.83809,2.78622 0,1.34779 -0.52455,2.61484 -1.47806,3.56835 z" /><g
           id="g6166"><path
             d="m 207.05184,101.64873 -2.57868,2.27504 h -24.65894 l -2.18241,-3.27362 -3.60005,-8.619212 7.82867,2.400361 1.33639,4.582284 h 21.66567 l 1.1769,1.176897 c 0.42846,0.42896 0.76578,0.92379 1.01245,1.45825"
             style="fill:#26354b;fill-opacity:1;fill-rule:nonzero;stroke:none;stroke-width:0.49532843"
             id="path268"
             inkscape:connector-curvature="0" /><path
             d="m 177.95952,94.9768 h -5.20838 c -0.3071,0 -0.61173,0.06043 -0.89555,0.178318 l -1.41367,0.586469 c -0.36506,0.151571 -0.76281,0.208038 -1.1561,0.163954 l -12.52239,-1.403266 c -0.96738,-0.108477 -1.76635,-0.804908 -2.00559,-1.748509 l -1.36463,-5.380257 c -0.13027,-0.515142 -0.0817,-1.059508 0.13919,-1.543444 l 2.0784,-4.56247 c 0.37892,-0.833142 1.21107,-1.368097 2.12694,-1.368097 h 28.01032 l 14.78209,14.781591 z"
             style="fill:#ce3641;fill-opacity:1;fill-rule:nonzero;stroke:none;stroke-width:0.49532843"
             id="path272"
             inkscape:connector-curvature="0" /><path
             d="m 177.8502,105.01493 -7.96488,-9.04222 2.40086,-0.996106 h 4.84233 l 2.44048,6.737456 2.86399,1.55484 h 11.86559 l 1.88225,-8.530549 h 2.20966 l -2.20966,8.530549 h 8.01937 l 2.52667,-2.21759 c 0.51266,0.80194 0.79104,1.73266 0.79104,2.70697 0,0.16495 -0.009,0.3284 -0.0243,0.49087 l -0.94707,0.76578 z"
             style="fill:#ffffff;fill-opacity:1;fill-rule:nonzero;stroke:none;stroke-width:0.49532843"
             id="path276"
             inkscape:connector-curvature="0" /><path
             style="fill:#59667f;fill-opacity:1;fill-rule:nonzero;stroke:none;stroke-width:0.49532843"
             d="m 175.31544,87.936044 c -1.73726,0 -3.3108,-0.6825 -4.48243,-1.787115 -0.25569,0.212655 -0.58025,0.344243 -0.9375,0.344243 h -16.02246 c -0.81333,0 -1.47363,-0.659813 -1.47363,-1.47363 v -1.284675 c 0,-0.347715 0.12425,-0.68469 0.34863,-0.950678 l 1.99366,-2.362792 c 0.27936,-0.33138 0.69108,-0.522953 1.125,-0.522953 h 13.08398 c 0.67651,-2.893417 3.26542,-5.050778 6.36475,-5.050778 3.61441,0 6.54492,2.930506 6.54492,6.544921 0,3.613912 -2.93051,6.543457 -6.54492,6.543457 z"
             id="path280"
             inkscape:connector-curvature="0" /><path
             d="m 171.31706,81.392021 c 0,2.208669 1.79061,3.998786 3.99879,3.998786 2.20867,0 3.99928,-1.790117 3.99928,-3.998786 0,-2.208669 -1.79061,-3.998786 -3.99928,-3.998786 -2.20818,0 -3.99879,1.790117 -3.99879,3.998786"
             style="fill:#ffffff;fill-opacity:1;fill-rule:nonzero;stroke:none;stroke-width:0.49532843"
             id="path288"
             inkscape:connector-curvature="0" /><path
             d="m 172.48861,81.392021 c 0,1.561771 1.26606,2.82783 2.82733,2.82783 1.56178,0 2.82783,-1.266059 2.82783,-2.82783 0,-1.561771 -1.26605,-2.82783 -2.82783,-2.82783 -1.56127,0 -2.82733,1.266059 -2.82733,2.82783"
             style="fill:#26354b;fill-opacity:1;fill-rule:nonzero;stroke:none;stroke-width:0.49532843"
             id="path292"
             inkscape:connector-curvature="0" /><path
             d="m 177.95952,94.9768 h -5.20838 c -0.3071,0 -0.61173,0.06043 -0.89555,0.178318 l -1.41367,0.586469 c -0.36506,0.151571 -0.76281,0.208038 -1.1561,0.163954 l -12.52239,-1.403266 c -0.96738,-0.108477 -1.76635,-0.804908 -2.00559,-1.748509 h 24.55739 l 4.34552,-0.777666 h 14.16392 l 2.70548,2.704989 z"
             style="fill:#ff5159;fill-opacity:1;fill-rule:nonzero;stroke:none;stroke-width:0.49532843"
             id="path296"
             inkscape:connector-curvature="0" /></g><g
           id="g6176"><path
             style="fill:#59667f;fill-opacity:1;fill-rule:nonzero;stroke:none;stroke-width:0.66043788"
             d="m 211.86523,74.726562 3.03516,49.912108 h 15.51367 l 2.69727,-49.912108 z m 7.08204,101.847658 v 22.61133 l 6.65625,-6.65625 -0.75586,-15.95508 z"
             transform="matrix(0.75000002,0,0,-0.75000002,0,207.75001)"
             id="path326"
             inkscape:connector-curvature="0" /><path
             style="fill:#26354b;fill-opacity:1;fill-rule:nonzero;stroke:none;stroke-width:0.66043788"
             d="m 208.83594,80.796875 0.40625,2.361328 h 25.74414 v -2.361328 z m 13.86328,6.496094 c -2.58363,0 -4.67774,2.094108 -4.67774,4.677734 0,2.583627 2.09411,4.677735 4.67774,4.677735 2.58364,0 4.67773,-2.094108 4.67773,-4.677735 0,-2.583626 -2.09409,-4.677734 -4.67773,-4.677734 z m 9.68555,0.880859 -0.44661,8.308958 7.96614,-7.293333 z m -19.68946,0.222656 -7.4082,1 7.91016,7.251954 z m 10.00391,11.169922 c -2.58363,0 -4.67774,2.094104 -4.67774,4.677734 0,2.58363 2.09411,4.67774 4.67774,4.67774 2.58364,0 4.67773,-2.09411 4.67773,-4.67774 0,-2.58363 -2.09409,-4.677734 -4.67773,-4.677734 z m 9.01953,0.947264 -0.44531,8.21094 7.45117,-8.21094 z m -25.25,0.20703 7.47852,8.24219 -0.0801,-1.32227 -0.42188,-6.91992 z m 8.91797,10.97266 14.10156,0.69531 0.44336,3.22461 0.25195,-3.91992 z m 15.66797,1.10547 -0.39453,7.30078 6.04101,-7.30078 z m -22.5625,0.20703 6.15234,7.43359 -0.45312,-7.43359 z m 14.20703,0 c -2.58363,0 -4.67774,2.09411 -4.67774,4.67773 0,2.58363 2.09411,4.67774 4.67774,4.67774 2.58364,0 4.67773,-2.09411 4.67773,-4.67774 0,-2.58362 -2.09409,-4.67773 -4.67773,-4.67773 z m -1.56055,11.63281 v 51.93555 h 2.86719 v -51.93555 z"
             transform="matrix(0.75000002,0,0,-0.75000002,0,207.75001)"
             id="path298"
             inkscape:connector-curvature="0"
             sodipodi:nodetypes="cccccsssssccccccccsssssccccccccccccccccccccccsssssccccc" /><path
             d="m 164.0821,119.48709 c 0,1.62517 1.31757,2.94275 2.94275,2.94275 1.62566,0 2.94324,-1.31758 2.94324,-2.94275 0,-1.62517 -1.31758,-2.94275 -2.94324,-2.94275 -1.62518,0 -2.94275,1.31758 -2.94275,2.94275"
             style="fill:#4a807f;fill-opacity:1;fill-rule:nonzero;stroke:none;stroke-width:0.49532843"
             id="path346"
             inkscape:connector-curvature="0" /><path
             d="m 164.0821,129.56657 c 0,1.62517 1.31757,2.94275 2.94275,2.94275 1.62566,0 2.94324,-1.31758 2.94324,-2.94275 0,-1.62517 -1.31758,-2.94275 -2.94324,-2.94275 -1.62518,0 -2.94275,1.31758 -2.94275,2.94275"
             style="fill:#ffdc19;fill-opacity:1;fill-rule:nonzero;stroke:none;stroke-width:0.49532843"
             id="path350"
             inkscape:connector-curvature="0" /><path
             d="m 164.0821,138.77176 c 0,1.62517 1.31757,2.94275 2.94275,2.94275 1.62566,0 2.94324,-1.31758 2.94324,-2.94275 0,-1.62517 -1.31758,-2.94275 -2.94324,-2.94275 -1.62518,0 -2.94275,1.31758 -2.94275,2.94275"
             style="fill:#ce3641;fill-opacity:1;fill-rule:nonzero;stroke:none;stroke-width:0.49532843"
             id="path354"
             inkscape:connector-curvature="0" /><path
             d="m 164.09077,119.65495 c 0.53743,-0.70733 1.38494,-1.166 2.34241,-1.166 1.56821,0 2.84665,1.22792 2.93383,2.77483 -0.53743,0.70733 -1.38544,1.166 -2.34191,1.166 -1.56871,0 -2.84666,-1.22792 -2.93433,-2.77483"
             style="fill:#678d10;fill-opacity:1;fill-rule:nonzero;stroke:none;stroke-width:0.49532843"
             id="path362"
             inkscape:connector-curvature="0" /><path
             d="m 164.09077,138.93987 c 0.53743,-0.70733 1.38494,-1.166 2.34241,-1.166 1.56821,0 2.84665,1.22792 2.93383,2.77433 -0.53743,0.70733 -1.38544,1.1665 -2.34191,1.1665 -1.56871,0 -2.84666,-1.22841 -2.93433,-2.77483"
             style="fill:#ff5159;fill-opacity:1;fill-rule:nonzero;stroke:none;stroke-width:0.49532843"
             id="path366"
             inkscape:connector-curvature="0" /><path
             d="m 164.68288,130.21308 c 0,0.93667 1.04861,1.69551 2.34241,1.69551 1.2933,0 2.34191,-0.75884 2.34191,-1.69551 0,-0.93667 -1.04861,-1.696 -2.34191,-1.696 -1.2938,0 -2.34241,0.75933 -2.34241,1.696"
             style="fill:#ffff87;fill-opacity:1;fill-rule:nonzero;stroke:none;stroke-width:0.49532843"
             id="path370"
             inkscape:connector-curvature="0" /></g><g
           id="g6153"><path
             d="m 12.242141,103.92367 -2.182417,-3.27313 -2.6638764,-6.377354 1.4963872,-1.496387 5.3956122,1.654397 1.336892,4.582283 h 26.840857 l -5.56452,4.910191 z"
             style="fill:#26354b;fill-opacity:1;fill-rule:nonzero;stroke:none;stroke-width:0.49532843"
             id="path378"
             inkscape:connector-curvature="0" /><path
             d="m 69.49443,92.678674 -17.326093,1.742565 c -0.06737,0.0064 -0.134729,0.0104 -0.203085,0.01139 L 10.386888,94.976998 H 6.6922337 L 21.769536,79.899201 h 47.491099 c 1.290826,0 2.337455,1.046628 2.337455,2.337454 v 8.116452 c 0,1.200676 -0.909423,2.205698 -2.10366,2.325567"
             style="fill:#ffb941;fill-opacity:1;fill-rule:nonzero;stroke:none;stroke-width:0.49532843"
             id="path382"
             inkscape:connector-curvature="0" /><path
             d="m 54.834095,81.392021 c 0,1.561771 1.266059,2.82783 2.82783,2.82783 1.561771,0 2.827335,-1.266059 2.827335,-2.82783 0,-1.561771 -1.265564,-2.82783 -2.827335,-2.82783 -1.561771,0 -2.82783,1.266059 -2.82783,2.82783"
             style="fill:#26354b;fill-opacity:1;fill-rule:nonzero;stroke:none;stroke-width:0.49532843"
             id="path398"
             inkscape:connector-curvature="0" /><path
             d="m 69.49443,92.678674 -17.326093,1.742565 c -0.06737,0.0064 -0.134729,0.0104 -0.203085,0.01139 L 10.386888,94.976998 H 6.6922337 l 2.223034,-2.223529 h 2.8278303 l 4.345021,-0.777171 h 35.679002 l 19.797287,-1.267545 c -0.159992,1.037218 -0.996601,1.861939 -2.069978,1.969921"
             style="fill:#ffdc19;fill-opacity:1;fill-rule:nonzero;stroke:none;stroke-width:0.49532843"
             id="path402"
             inkscape:connector-curvature="0" /><path
             d="m 14.287798,94.925533 v 0 l -5.4605006,-2.099202 1.0416757,-0.07232 h 1.8738279 l 1.19275,-0.213486 8.108031,-0.564179 h 17.069513 l 3.355355,0.41558 5.143491,2.110595 z"
             style="fill:#afcaff;fill-opacity:1;fill-rule:nonzero;stroke:none;stroke-width:0.49532843"
             id="path406"
             inkscape:connector-curvature="0" /><path
             style="fill:#ffffff;fill-opacity:1;stroke:none;stroke-width:0.75px;stroke-linecap:butt;stroke-linejoin:miter;stroke-opacity:1"
             d="m 30.818294,94.738357 -2.20966,8.530543 h -1.882248 l 1.882248,-8.530543 z"
             id="path6131"
             inkscape:connector-curvature="0" /><path
             d="m 33.725575,102.68267 5.2485,2.33201 H 10.278213 l -5.4609958,-2.09921 z"
             style="fill:#afcaff;fill-opacity:1;fill-rule:nonzero;stroke:none;stroke-width:0.49532843"
             id="path410"
             inkscape:connector-curvature="0" /><path
             d="M 34.536279,102.68267 6.7815411,101.82476 4.599124,98.551136 4.1627397,97.505993 l 4.6412274,-4.641228 5.4837809,2.060566 1.336892,4.088441 h 27.193035 l -3.579739,4.255368 z"
             style="fill:#26354b;fill-opacity:1;fill-rule:nonzero;stroke:none;stroke-width:0.49532843"
             id="path414"
             inkscape:connector-curvature="0" /><path
             d="m 64.033731,90.579324 -17.326093,1.742565 c -0.06737,0.0064 -0.134729,0.0104 -0.203085,0.01139 L 8.8427513,92.826134 23.869035,77.799851 h 39.930901 c 1.290826,0 2.337455,1.046628 2.337455,2.337454 v 8.116452 c 0,1.200676 -0.909423,2.205698 -2.10366,2.325567"
             style="fill:#ffb941;fill-opacity:1;fill-rule:nonzero;stroke:none;stroke-width:0.49532843"
             id="path418"
             inkscape:connector-curvature="0" /><path
             style="fill:#59667f;fill-opacity:1;fill-rule:nonzero;stroke:none;stroke-width:0.49532843"
             d="m 71.564943,86.002446 -5.424316,-2.100585 -9.262207,-0.03515 c -1.188123,1.214962 -2.843581,1.970212 -4.677247,1.970212 -3.613916,0 -6.543457,-2.930512 -6.543457,-6.54492 0,-3.61392 2.929541,-6.543457 6.543457,-6.543457 1.938826,0 3.678538,0.843847 4.875,2.184082 0.192374,-0.01705 0.383257,-0.03662 0.580079,-0.03662 2.264733,0 4.254057,1.15518 5.42871,2.903317 h 2.21484 l 5.419923,2.143065 c 0.582517,0.07155 1.070022,0.493913 1.208496,1.076663 l 0.773437,3.26514 c 0.191522,0.80925 -0.350272,1.58127 -1.136719,1.718257 z"
             id="path426"
             inkscape:connector-curvature="0"
             sodipodi:nodetypes="cccssscsccccccc" /><path
             d="m 48.202093,79.292671 c 0,2.208669 1.790612,3.998786 3.999282,3.998786 2.208669,0 3.998786,-1.790117 3.998786,-3.998786 0,-2.208669 -1.790117,-3.998786 -3.998786,-3.998786 -2.20867,0 -3.999282,1.790117 -3.999282,3.998786"
             style="fill:#ffffff;fill-opacity:1;fill-rule:nonzero;stroke:none;stroke-width:0.49532843"
             id="path434"
             inkscape:connector-curvature="0" /><path
             d="m 49.373396,79.292671 c 0,1.561771 1.266059,2.82783 2.82783,2.82783 1.561771,0 2.82783,-1.266059 2.82783,-2.82783 0,-1.561771 -1.266059,-2.82783 -2.82783,-2.82783 -1.561771,0 -2.82783,1.266059 -2.82783,2.82783"
             style="fill:#26354b;fill-opacity:1;fill-rule:nonzero;stroke:none;stroke-width:0.49532843"
             id="path438"
             inkscape:connector-curvature="0" /><path
             d="m 64.033731,90.579324 -17.325598,1.742565 c -0.06786,0.0064 -0.135224,0.0104 -0.20358,0.01139 L 8.8427513,92.826134 11.791937,89.876948 h 34.514485 l 19.797287,-1.26705 c -0.159496,1.036723 -0.996601,1.861444 -2.069978,1.969426"
             style="fill:#ffdc19;fill-opacity:1;fill-rule:nonzero;stroke:none;stroke-width:0.49532843"
             id="path442"
             inkscape:connector-curvature="0" /><path
             d="m 66.068491,83.873518 5.496164,2.128922 v 4.70661 l -5.460996,-2.098706 z"
             style="fill:#ffc776;fill-opacity:1;fill-rule:nonzero;stroke:none;stroke-width:0.49532843"
             id="path450"
             inkscape:connector-curvature="0" /><path
             style="fill:#7590ba;fill-opacity:1;fill-rule:nonzero;stroke:none;stroke-width:0.66043788"
             d="m 96.890625,164.17773 -7.332031,3.2793 v 0.002 l -9.03711,0.0469 8.304688,2.54297 -0.734375,2.59375 7.716797,-3.63086 z"
             transform="matrix(0.75000002,0,0,-0.75000002,0,207.75001)"
             id="path454"
             inkscape:connector-curvature="0" /><path
             d="m 64.31696,90.531425 5.177668,2.147249 -16.984316,1.752472 h -3.884366 l -2.01351,0.07182 -4.40347,-1.188293 -0.740516,-0.922796 5.239584,-0.07034 z"
             style="fill:#ffe252;fill-opacity:1;fill-rule:nonzero;stroke:none;stroke-width:0.49532843"
             id="path462"
             inkscape:connector-curvature="0" /><path
             d="m 43.165098,90.773294 5.460501,2.099202 3.543084,-0.0099 17.82687,-1.851537 -5.551146,-2.069483 -15.712313,1.509266 z"
             style="fill:#ffe876;fill-opacity:1;fill-rule:nonzero;stroke:none;stroke-width:0.49532843"
             id="path470"
             inkscape:connector-curvature="0" /><path
             d="m 38.067921,92.445523 c -0.832152,-0.741011 -2.05809,-1.970416 -2.081865,-2.640596 -0.02427,-0.671665 -0.0074,-7.703843 -0.002,-9.671287 H 25.022951 c -0.01833,4.285086 -0.0317,10.352364 0,10.73129 0.01684,0.194664 0.579039,1.185816 0.924779,1.764855 l -0.590432,0.0094 c 0,0 -0.780142,-1.180863 -0.827694,-1.732163 -0.04755,-0.551301 0,-11.268722 0,-11.268722 h 11.951285 c 0,0 -0.02724,9.384493 0,10.148784 0.04755,1.327481 2.514782,2.644559 2.514782,2.644559 z"
             style="fill:#ffb941;fill-opacity:1;fill-rule:nonzero;stroke:none;stroke-width:0.49532843"
             id="path474"
             inkscape:connector-curvature="0" /><path
             style="fill:#ffffff;fill-opacity:1;fill-rule:nonzero;stroke:none;stroke-width:0.66043788"
             d="m 51.964844,136.98047 -7.279297,2.79883 H 6.4238281 l -3.7871093,4.29882 4.4882812,4.48829 1.5898438,-4.38672 3.8183592,-2.07227 h 15.820313 l 2.509765,11.37305 h 2.947266 l -2.947266,-11.37305 h 13.792969 0.380859 l 9.560547,11.36524 c 0.173035,0.20605 0.423901,0.32798 0.69336,0.33789 l 2.261718,0.0801 -11.28125,-12.37304 6.044922,-2.20899 9.833985,11.6875 2.683593,0.0957 z"
             transform="matrix(0.75000002,0,0,-0.75000002,0,207.75001)"
             id="path386"
             inkscape:connector-curvature="0" /></g></g></g></g></svg>