<?xml version="1.0" encoding="UTF-8"?>
<svg clip-rule="evenodd" fill-rule="evenodd" stroke-linejoin="round" stroke-miterlimit="2" version="1.1" viewBox="0 0 290 290" xml:space="preserve" xmlns="http://www.w3.org/2000/svg">
    <path d="m144.84 290.67c-1.8817 0-3.6503-0.73284-4.9806-2.0631l-137.79-137.79c-1.3317-1.3303-2.0645-3.0989-2.0645-4.9806s0.73285-3.6503 2.0631-4.982l137.79-137.79c1.3303-1.3303 3.0989-2.0631 4.9806-2.0631s3.6503 0.73285 4.9806 2.0631l137.79 137.79c1.3317 1.3317 2.0645 3.1003 2.0645 4.982 0 1.8803-0.73285 3.6489-2.0645 4.9806l-137.79 137.79c-1.3303 1.3303-3.0989 2.0631-4.9806 2.0631" fill="url(#_Linear1)" fill-rule="nonzero" stroke-width="1.3959"/><path d="m41.377 101.54c0.664 0.011 1.333 0.055 2.006 0.131l41.584 4.708c11.476 1.299 19.738 11.671 18.438 23.146l-3.276 28.936c0.637 0.053 1.162 0.142 1.545 0.263l0.35599 0.143 0.168 0.106 0.089 0.083 0.051 0.07 0.029 0.063 0.015 0.063 2e-3 0.062-2e-3 0.024-0.017 0.071 0.513 4.016-0.338 0.34-0.454 0.31999c-0.53699 0.329-1.26 0.641-2.104 0.924l-0.291 0.096 0.196 1.54 0.377 0.022c0.338 0.023 0.675 0.051 1.012 0.086 0.644 0.067 1.285 0.155 1.923 0.267 1.55 0.27 3.078 0.672 4.56 1.2 1.409 0.502 2.778 1.117 4.089 1.836 1.327 0.728 2.594 1.563 3.787 2.494 1.107 0.864 2.149 1.811 3.115 2.83 0.518 0.546 1.013 1.113 1.486 1.698l1.185 1.581 0.41 0.606 0.152 0.234c0.32999 0.51399 0.64399 1.039 0.94099 1.573 0.549 0.991 1.038 2.016 1.462 3.067 0.45 1.115 0.828 2.259 1.131 3.423 0.2 0.76899 0.367 1.546 0.50099 2.329l2e-3 0.01 0.059-0.069 0.067-0.054 0.068-0.037 2.1 1.823 0.934 7.323-0.045 0.575-0.398 1.279-0.475 0.956-0.224 0.376 0.848 6.636 3.73-0.476 0.217 0.103 0.833-0.043 0.073 4e-3c0.77599 0.049 1.551 0.305 2.312 0.747l0.907-0.116 0.175 0.101 0.568-0.031 0.59899 0.086 0.081 0.021c2.379 0.641 4.756 4.043 6.441 8.933l0.052 0.152c0.672 0.741 1.303 1.859 1.827 3.236l0.586 1.815 0.423 1.859 0.282 1.931 0.12 1.569 0.011 0.299c0.083 2.615-0.284 4.878-0.98 6.309l-0.062 0.125c-0.036 0.502-0.081 0.99299-0.136 1.471l-0.224 1.576-0.222 1.147-0.033 0.15c-0.179 0.79399-0.39 1.532-0.63199 2.204l-0.384 0.96-0.485 0.954-0.757 1.083-0.654 0.637-0.584 0.383-0.559 0.227-0.51999 0.102c-0.024 3e-3 -0.048 5e-3 -0.073 7e-3l-4e-3 5e-3 -1.241 0.159-0.019 0.017c-0.565 0.506-1.178 0.873-1.832 1.083l-0.82299 0.177-0.124 0.013-6e-3 5e-3 -3.838 0.49099 1.326 10.382c0.549 0.258 1.077 0.527 1.583 0.809l0.309 0.174 1.278 0.79499 1.27 0.932 0.976 0.849c0.38 0.359 0.741 0.738 1.078 1.138 0.33799 0.401 0.64999 0.82299 0.93199 1.266l0.485 0.849 0.346 0.757c0.116 0.285 0.218 0.575 0.304 0.868l0.052 0.182c0.075 0.274 0.137 0.552 0.185 0.83399l0.014 0.081 0.083 0.664 0.01 0.011 1.382 10.82-0.064 1.367-0.025 0.179c-0.299 1.962-1.305 5.263-3.947 8.733-0.626-0.327-1.205-0.752-1.719-1.265l-71.954-71.954c0.107-0.023 0.216-0.041 0.325-0.055 0.032-4e-3 0.065-8e-3 0.097-0.011l0.184-0.155 4.235-0.54099-0.666-5.21c-1.285-0.84-1.863-1.612-1.978-2.031l-1.195-9.352 0.203-0.361c-3e-3 -0.019-4e-3 -0.029-4e-3 -0.029l1.091-1.909 0.249 0.051c-0.238-2.748-0.067-5.446 0.463-8.03l-34.548-3.911-20.965-20.966c-3e-3 -0.80899 0.041-1.628 0.134-2.452l4.38-38.684z" fill-opacity=".45"/><g><path d="m118.07 114.86c1.2993-11.476-6.9626-21.847-18.437-23.147l-41.585-4.7084c-11.476-1.2993-21.847 6.9627-23.146 18.438l-4.7083 41.584c-1.2993 11.476 6.9618 21.847 18.437 23.147l41.585 4.7084c11.475 1.2992 21.847-6.9627 23.146-18.438zm-2.282 0.83532c1.2317-10.879-6.6013-20.712-17.481-21.944l-39.424-4.4637c-10.879-1.2318-20.713 6.6013-21.944 17.48l-4.4638 39.424c-1.2318 10.879 6.6013 20.712 17.481 21.944l39.424 4.4637c10.879 1.2318 20.713-6.6004 21.944-17.48z" fill="#fff" stroke-width=".81526"/><path d="m115.79 115.7c1.2317-10.879-6.6013-20.712-17.481-21.944l-39.424-4.4637c-10.879-1.2318-20.713 6.6013-21.944 17.48l-4.4638 39.424c-1.2318 10.879 6.6013 20.712 17.481 21.944l39.424 4.4637c10.879 1.2318 20.713-6.6004 21.944-17.48z" fill="#0e740e" stroke-width=".81526"/><path d="m103.05 109.02 8.0582 0.91238-0.69768 6.1621-8.0582-0.91238-0.91229 8.0575-6.1614-0.69761 0.9123-8.0575-8.0582-0.91238 0.69769-6.1621 8.0582 0.91238 0.9123-8.0575 6.1614 0.6976z" fill="#fff" stroke-width=".71552"/><path d="m66.625 123.59c6.0771-8.6653 16.139-7.526 20.647-2.339 4.5086 5.1872 3.463 14.422-2.614 23.087-4.3057 6.5275-14.146 12.428-22.215 16.191-7.024-5.472-15.295-13.423-18.033-20.748-3.985-9.8046-2.9394-19.04 2.614-23.087 5.5543-4.0478 15.616-2.9086 19.601 6.896zm2.9092 3.2412-9.8838 12.917 4.325 0.48969-6.1204 11.295 13.967-13.404-5.69-0.64424z" fill="#fff" stroke-width=".81526"/></g><g><path d="m130.73 279.49c14.709-2.512 27.558-12.188 26.877-20.085-0.085-0.991-0.666-3.027 0.059-3.405l2.559 2.778 1.378 10.786c0.249 1.949-1.661 14.543-19.345 20.627-0.89099-0.349-1.709-0.882-2.406-1.579z" fill="url(#_Linear2)"/><path d="m102.7 251.46c5.528-2.882 12.535-5.064 20.291-6.055 19.292-2.466 35.956 3.364 37.189 13.011 1.155 9.038-11.645 18.241-29.132 21.393z" fill="url(#_Linear3)"/><path d="m93.375 242.13-6.084-47.604 56.21-7.184s-3.518-27.526 8.229 64.393c1.459 11.419-13.797 18.795-28.793 19.957z" fill="url(#_Linear4)"/><path d="m110.83 156.84c15.351-1.9619 29.408 8.9089 31.369 24.26 1.962 15.352-53.668 22.462-55.63 7.1095-1.9619-15.351 8.9089-29.408 24.261-31.37z" fill="url(#_Radial5)"/><path d="m115.4 152.8-9.5898 1.2256 0.54635 4.275c3.4254 1.3816 6.6293 1.0299 9.5898-1.2256z" fill="#690000" stroke-width=".089078"/><path d="m118.33 149.15c-4.9161-1.184-10.322-0.70286-16.409 2.0971l0.54635 4.275c2.7371 2.1168 14.631 0.20259 16.409-2.0971z" fill="#b30000" stroke-width=".11652"/><ellipse transform="rotate(-7.2829)" cx="90.239" cy="163.06" rx="8.267" ry="1.6" fill="#f55454" stroke-width=".84526"/><path d="m144.38 194.19c-2.297 3.6567-8.7888 9.2064-25.719 11.37-20.728 2.6491-26.536-1.6494-30.451-3.8871l-0.37156-2.9073c19.563 6.9601 38.352 5.2112 56.159-7.5753z" fill="#690000" fill-opacity=".46"/><path d="m142.21 179.74c-0.62189 0.27207-0.17555 1.6361-0.12466 2.3047 0.86789 11.476-53.082 17.477-54.571 7.5546-0.2139-1.4208 0.11185-2.37-1.3233-2.5993l-1.2904 2.2994 1.1951 9.3516c0.42471 1.5436 7.1296 7.8687 32.286 4.7814 24.09-2.9564 27.055-13.048 26.856-14.604l-0.92847-7.2651z" fill="url(#_Linear6)" stroke-width=".29583"/><path d="m142.21 179.74c-0.62189 0.27207-0.17555 1.6361-0.12466 2.3047 0.86789 11.476-53.082 17.477-54.571 7.5546-0.2139-1.4208 0.11185-2.37-1.3233-2.5993l-1.0916 1.9094s0.09225 0.8701 1.039 1.9884c2.2396 2.642 9.2562 6.6691 31.136 3.8729 27.535-3.5189 26.723-13.037 26.723-13.037z" fill="#b30000" stroke-width=".29583"/><path d="m117.75 266.5c3.219 0.067 6.555-0.114 9.812-0.593 12.755-1.875 24.236-8.853 23.826-14.277-0.05-0.669-0.496-2.033 0.125-2.305l2.1 1.823 0.92799 7.265c0.199 1.557-2.494 13.306-26.629 16.39-0.562 0.072-1.114 0.139-1.658 0.201z" fill="url(#_Linear2)"/><path d="m116.77 265.52c2.95 3e-3 6.02-0.185 9.055-0.583 13.341-1.75 25.99-7.659 25.563-13.307-0.05-0.669-0.496-2.033 0.125-2.305l1.787 1.993s1.091 11.701-26.444 15.22c-3.075 0.393-5.862 0.608-8.388 0.68z" fill="#b30000"/><path d="m112.23 146.78c-1.8951-0.54185-3.5049-0.28862-4.8781 0.62343l0.41958 3.2831c1.8792 0.77775 3.5248 0.64588 4.8781-0.62343z" fill="#690000" stroke-width=".063532"/><ellipse transform="rotate(172.72)" cx="-90.271" cy="-159.75" rx="2.4922" ry=".48234" fill="#b30000" stroke-width=".25482"/><path d="m155.26 236.27c-0.2-0.41062-1.2483-0.096-1.76-0.0535-4.1512 0.34242-9.3384-7.2133-10.608-15.683-1.4166-9.4491 1.5222-19.969 5.532-20.558 1.0887-0.16061 1.8101 0.0442 2.0037-0.91442l-1.741-0.82982-4.3876 0.56074c-2.4923 1.0783-5.1713 5.4071-3.1224 21.439 2.0488 16.031 5.906 18.324 7.0983 18.172l5.565-0.7112z" fill="url(#_Linear8)" stroke-width=".21102"/><ellipse transform="rotate(82.717)" cx="235.45" cy="-122.65" rx="19.833" ry="9.0904" fill="#690000" stroke-width=".56853"/><path d="m158.99 234.93c-0.16784-0.39095-1.0022-0.11348-1.4115-0.0829-3.3206 0.24652-7.6168-6.9749-8.7904-14.986-1.3093-8.9377 0.85233-18.805 4.055-19.287 0.86955-0.13143 1.4514 0.075 1.589-0.82552l-1.4106-0.81468-5.724 0.73152c-1.9775 0.97111-5.8931 5.2406-3.956 20.398 1.937 15.157 9.1367 16.871 10.09 16.749l4.4468-0.5683z" fill="url(#_Linear9)" stroke-width=".18342"/><ellipse transform="rotate(82.717)" cx="235.6" cy="-126.81" rx="18.751" ry="7.2639" fill="#690000" stroke-width=".49416"/><path d="m161.96 226.14c-0.0885-0.20611-0.52835-0.0598-0.74414-0.0437-1.7506 0.12996-4.0156-3.6772-4.6343-7.9007-0.69026-4.712 0.44935-9.914 2.1378-10.168 0.45842-0.0693 0.7652 0.0395 0.8377-0.43522l-0.74365-0.42949-3.0177 0.38565c-1.0426 0.51197-3.1068 2.7628-2.0856 10.754 1.0212 7.9908 4.8169 8.8943 5.3192 8.8301l2.3444-0.29961z" fill="url(#_Linear10)" stroke-width=".096697"/><ellipse transform="rotate(82.717)" cx="235.57" cy="-131.4" rx="9.8857" ry="3.8295" fill="#690000" stroke-width=".26052"/><ellipse transform="matrix(.12677 .99193 -.99193 .12677 0 0)" cx="235.51" cy="-131.77" rx="5.5642" ry="2.3734" fill="#410000" stroke-width=".15387"/><path d="m162.8 220.79c-0.0413-0.0961-0.24635-0.0279-0.34696-0.0204-0.81623 0.0606-1.8723-1.7145-2.1608-3.6838-0.32184-2.197 0.20951-4.6225 0.99676-4.741 0.21375-0.0323 0.35678 0.0184 0.39059-0.20293l-0.34673-0.20025-1.407 0.17981c-0.4861 0.23871-1.4486 1.2882-0.97243 5.0141 0.47615 3.7258 2.2459 4.1471 2.4801 4.1171l1.0931-0.1397z" fill="url(#_Linear11)" stroke-width=".045086"/><ellipse transform="rotate(82.717)" cx="235.32" cy="-133.22" rx="4.6093" ry="1.7855" fill="#898080" stroke-width=".12147"/><path d="m92.888 241.64c2.184-3.354 3.456-9.239 2.838-15.077-1.005-9.502-6.495-18.944-10.524-18.507-1.095 0.119-1.741 0.499-2.17-0.37999l1.477-1.242 4.387-0.56c2.684 0.417 6.365 3.933 8.414 19.964 1.635 12.791-0.044 17.407-1.396 18.828z" fill="url(#_Linear12)"/><path d="m77.602 226.36c-1.069-10.393 1.814-19.138 6.626-19.753 4.977-0.636 10.144 7.663 11.531 18.521 0.902 7.053-0.012 13.462-2.128 17.262z" fill="url(#_Linear3)"/><path d="m89.192 237.95c0.766-3.009 1.061-6.784 0.65-10.554-0.981-8.98-5.554-17.986-8.775-17.647-0.875 0.091-1.386 0.437-1.746-0.399l1.16-1.144 5.724-0.73199c2.159 0.443 7.022 3.591 8.959 18.748 1.046 8.182-0.378 12.958-2.06 15.641z" fill="url(#_Linear14)"/><path d="m75.087 223.84c-0.355-8.431 1.729-15.049 5.173-15.489 3.976-0.50799 8.27 7.414 9.582 17.68 0.593 4.639 0.476 8.968-0.197 12.367z" fill="url(#_Linear3)"/><path d="m81.941 230.7c0.065-0.952 0.05-1.956-0.06-2.958-0.517-4.734-2.928-9.482-4.626-9.304-0.461 0.048-0.731 0.231-0.92-0.21l0.612-0.603 3.017-0.386c1.138 0.233 3.702 1.893 4.723 9.884 0.343 2.678 0.183 4.665-0.199 6.123z" fill="url(#_Linear16)"/><path d="m74.175 222.93c0.295-2.964 1.264-5.052 2.655-5.229 2.096-0.268 4.36 3.908 5.051 9.32 0.171 1.335 0.23 2.622 0.191 3.806z" fill="url(#_Linear3)"/><path d="m75.493 224.25c0.25-1.446 0.831-2.441 1.618-2.542 1.299-0.166 2.67 2.172 3.06 5.219 0.093 0.732 0.122 1.44 0.093 2.094z" fill="#410000"/><path d="m77.845 226.6c-0.409-1.828-1.319-3.409-1.991-3.339-0.215 0.023-0.34 0.108-0.429-0.098l0.286-0.281 1.407-0.18c0.53 0.109 1.726 0.883 2.202 4.609 0.038 0.298 0.063 0.578 0.076 0.84099z" fill="url(#_Linear18)"/><path d="m74.862 223.62c0.209-0.407 0.478-0.658 0.794-0.699 0.9-0.115 1.866 1.527 2.266 3.758z" fill="#898080"/><path d="m104.32 253.08c-1.127-2.298-1.977-5.128-2.945-8.444 3.405 8.914 12.575 14.694 22.456 13.431 11.588-1.48 19.793-12.091 18.312-23.679-0.143-1.124-0.37299-2.216-0.68099-3.27 0.58899 1.541 1.005 3.174 1.223 4.881 1.481 11.588-0.657 21.423-18.312 23.679-6.637 0.84899-11.053 0.57899-14.161-0.706z" fill="#800000"/><circle transform="rotate(-7.2829)" cx="90.12" cy="250.52" r="21.167" fill="#b30606"/><path d="m138.92 231.97c0.51435 1.3453 0.87796 2.7716 1.0684 4.2621 1.2931 10.118-5.8723 19.382-15.99 20.675-9.1367 1.1677-17.577-4.5607-20.081-13.134 2.9736 7.7836 10.98 12.831 19.609 11.728 10.118-1.2931 17.282-10.558 15.989-20.676-0.12541-0.98132-0.32569-1.9355-0.59465-2.8553z" fill="#800000" stroke-width=".87316"/><circle transform="rotate(-7.2829)" cx="90.141" cy="250.62" r="18.482" fill="#b30606" stroke-width=".87316"/><path d="m132.36 234.19c0.32157 0.84111 0.5489 1.7328 0.668 2.6647 0.80844 6.3258-3.6714 12.118-9.9972 12.926-5.7123 0.73003-10.989-2.8514-12.555-8.2114 1.8591 4.8663 6.8649 8.0218 12.259 7.3324 6.3258-0.80844 10.805-6.6009 9.9966-12.927-0.0784-0.61352-0.20363-1.2101-0.37178-1.7851z" fill="#800000" stroke-width=".5459"/><path d="m102.05 245.22c-0.58907-1.5408-1.0055-3.1741-1.2237-4.8812-1.4809-11.588 0.65764-21.422 18.313-23.678 17.655-2.2564 19.596 3.3952 22.998 15.042-3.4055-8.9142-12.575-14.694-22.457-13.432-11.588 1.4809-19.793 12.092-18.312 23.679 0.14362 1.1239 0.373 2.2166 0.68103 3.27z" fill="url(#_Linear19)"/><path d="m104.6 244.37c-0.51436-1.3453-0.87796-2.7716-1.0685-4.2621-1.2931-10.118 5.8723-19.382 15.99-20.675 9.1367-1.1677 17.577 4.5607 20.081 13.134-2.9736-7.7836-10.98-12.831-19.609-11.728-10.118 1.2931-17.282 10.558-15.989 20.676 0.12541 0.98132 0.3257 1.9355 0.59466 2.8553z" fill="url(#_Linear20)" stroke-width=".87316"/><path d="m111.15 242.15c-0.32158-0.84111-0.5489-1.7328-0.668-2.6647-0.80844-6.3258 3.6714-12.118 9.9972-12.926 5.7123-0.73003 10.989 2.8514 12.555 8.2114-1.8591-4.8663-6.8649-8.0218-12.259-7.3324-6.3258 0.80844-10.805 6.6009-9.9966 12.927 0.0784 0.61352 0.20363 1.2101 0.37178 1.7851z" fill="url(#_Linear21)" stroke-width=".5459"/><circle transform="rotate(-7.2829)" cx="90.196" cy="250.89" r="11.555" fill="#b30606" stroke-width=".5459"/><circle transform="rotate(-7.2829)" cx="90.321" cy="251.27" r="5.2426" fill="#571010" stroke-width=".24768"/><path d="m125.1 236.63c0.1081 0.28274 0.18452 0.58248 0.22455 0.89575 0.27176 2.1264-1.2341 4.0734-3.3606 4.3452-1.9202 0.2454-3.6941-0.9585-4.2204-2.7603 0.62493 1.6358 2.3076 2.6965 4.121 2.4648 2.1264-0.27176 3.6321-2.2189 3.3604-4.3453-0.0264-0.20624-0.0684-0.40676-0.12497-0.60008z" fill="#1b1b1b" stroke-width=".18351"/><circle transform="rotate(-7.2829)" cx="90.256" cy="251.2" r="3.8843" fill="#9a9a9a" stroke-width=".18351"/><path d="m120.6 161.04c-1.3082-0.92058-2.1893-1.433-2.1893-1.433s10.757 2.6578 15.179 9.6536c4.4225 6.9958 6.1117 12.325 6.1117 12.325-1.0935 1.904-2.5522 2.8747-4.3124 3.0715 0 0-3.2599-9.6919-5.0597-13.299-1.7333-3.4733-4.8106-6.4673-7.4044-8.5644 2.4436 1.9006 6.0182 5.1405 7.8724 9.0157 1.5872 3.3165 4.4818 12.216 4.4818 12.216 1.5298-0.1703 2.7924-1.0505 3.7326-2.7887 0 0-1.5013-4.8921-5.3906-11.329-3.5199-5.8258-11.531-8.4262-13.021-8.8678z" fill="#410000" fill-opacity=".64"/><path d="m107.85 161.12s-6.6755 8.2458-6.9591 17.859-0.13134 12.114-0.13134 12.114 2.5432 0.17904 4.7339 0.23478c2.1919 0.0566 5.1253-0.65501 5.1253-0.65501s-1.2288-10.932-1.4866-14.26c-0.25687-3.3273-1.2821-15.294-1.2821-15.294zm-0.0233 2.3418s-5.9938 7.3249-6.2593 15.857c-0.26562 8.5315-0.13225 10.75-0.13225 10.75s2.2792 0.15633 4.244 0.20363c1.9638 0.0474 4.5946-0.58719 4.5946-0.58719s-1.0885-9.7002-1.3156-12.653c-0.22619-2.9531-1.1315-13.571-1.1315-13.571z" fill="#410000" fill-opacity=".58"/><path d="m113.8 160.36s8.5347 6.3019 11.227 15.535c2.6922 9.2332 3.1738 11.692 3.1738 11.692s-2.4164 0.81289-4.5228 1.4178c-2.1072 0.60601-5.1253 0.65501-5.1253 0.65501s-1.5601-10.89-2.1473-14.175c-0.58817-3.2849-2.6054-15.125-2.6054-15.125zm0.87755 2.2993s7.6221 5.6292 10.027 13.876c2.4048 8.2466 2.8347 10.443 2.8347 10.443s-2.1574 0.72534-4.04 1.2664c-1.8816 0.54089-4.5768 0.58491-4.5768 0.58491s-1.3932-9.7258-1.9185-12.661c-0.52518-2.9341-2.3263-13.509-2.3263-13.509z" fill="#410000" fill-opacity=".58"/><path d="m103.86 161.46s-9.7425 5.2776-12.264 13.161-2.8157 13.466-2.8157 13.466c1.5371 1.5678 3.1921 2.1406 4.9453 1.8883 0 0 0.71871-10.2 1.5535-14.144 1.5713-7.4261 8.5804-14.371 8.5804-14.371zm-2.1301 2.2885s-7.7957 4.4895-9.7626 11.29c-1.9658 6.8-2.1584 11.627-2.1584 11.627 1.2486 1.3688 2.5848 1.8775 3.9933 1.6733 0 0 0.49788-8.8202 1.1384-12.225 1.2048-6.4124 6.7892-12.365 6.7892-12.365z" fill="#410000" fill-opacity=".64"/><path d="m109.71 146.53c0.0856-9e-3 0.17323-0.0171 0.26016-0.0232 1.2558-0.1363 2.263-0.0573 2.2947 0.19064 4e-3 0.0317-8e-3 0.0635-0.033 0.097l0.21437 1.6774c3.3519-0.22171 5.8431 0.0708 5.9339 0.78107 6e-3 0.0506 3e-5 0.10282-0.0176 0.15447l0.51328 4.0163c-0.47151 0.60969-1.6542 1.1923-3.1878 1.6797l0.19687 1.5405c12.879 0.68082 23.901 10.219 26.133 23.257 0.0476-0.0696 0.11103-0.12509 0.19317-0.16079l2.1 1.8225 0.92858 7.2659c0.0592 0.46323-0.16207 1.6821-1.1369 3.2443l0.84808 6.636 3.7306-0.47677 0.21685 0.10334c0.0316-5e-3 0.0644-9e-3 0.0961-0.0133 1.0445-0.13349 2.0969 0.1262 3.1216 0.7211l0.90662-0.11587 0.17628 0.10147c0.0257-4e-3 0.0515-8e-3 0.0773-0.0109 2.7734-0.35444 5.7008 3.3907 7.6635 9.1715 1.3832 1.5229 2.5861 4.6406 3.058 8.3326 0.4698 3.6761 0.095 6.9833-0.85104 8.8099-0.43521 6.1316-2.3309 10.53-5.1162 10.886-0.0486 6e-3 -0.0975 0.0104-0.14632 0.0147l-4e-3 5e-3 -1.2409 0.15859c-0.78641 0.70941-1.6627 1.149-2.616 1.2709-0.0605 8e-3 -0.12114 0.0145-0.18302 0.0193l-5e-3 6e-3 -3.8388 0.4906 1.3269 10.383 0.0183 9e-3c0.55987 0.26315 1.11 0.54468 1.6486 0.84683 0.41592 0.23316 0.82429 0.47836 1.2234 0.73786 0.30232 0.19626 0.59957 0.40022 0.89077 0.61202 0.21899 0.15952 0.43365 0.32464 0.64584 0.49411 0.15949 0.12781 0.31626 0.25799 0.47142 0.39139 0.13142 0.11326 0.26111 0.22875 0.38807 0.3466 0.87332 0.8068 1.6561 1.7179 2.2703 2.7373 0.10741 0.17781 0.20924 0.35937 0.30538 0.54367 0.12918 0.2456 0.24696 0.4967 0.35408 0.75117 0.14646 0.34925 0.27173 0.70625 0.37469 1.0701 0.0938 0.33178 0.16804 0.66809 0.22355 1.0078l0.0811 0.64997 9e-3 0.0109 1.3785 10.786c0.22843 1.7874-1.3585 12.522-15.251 18.984l-1.4256-12.315-6.943-3.1079-9.1527-71.617 1.9078-0.84869-0.96344-7.5387-1.9629-1.1605s-1.39-9.2988-3.1052-19.564-11.424-13.662-11.424-13.662l-0.88738-6.9435-2.0853-0.54001z" fill-opacity=".24"/></g><g><path d="m220.58 70.33s-1.4118 4.574 0.41531 8.737c1.826 4.1625 3.7162 10.736 3.7162 10.736s-3.7509 9.0269-11.124 8.9443c-7.3722-0.08208-16.634 3.0488-16.634 3.0488l6.6114-13.169-1.2584-7.6136z" fill="#ea972f" stroke-width="1.1988"/><path d="m187.91 47.318s4.8949 3.889-1.8435 10.049c-0.67969 0.62054-1.5539 6.0065 1.3292 12.593 1.7821 4.0707 2.0289 11.71 4.194 12.554 10.455 4.0812 26.98-4.2632 27.311-7.2904 0.39165-3.5913 0.65353-1.8335 3.1851-6.9747 1.4173-2.8782 3.2981-1.5907 4.9688-3.3192 1.9162-1.9823 3.8357-8.4276 4.1495-11.281 0.76872-6.9793-3.7626-13.395-7.342-16.493-9.4587-8.1848-25.08-9.474-30.198-4.2016-6.5141 6.7082-0.89727 6.0585-5.7531 14.363z" fill="#ea972f" stroke-width="1.1988"/><path d="m203.07 83.308s8.6871-3.1774 10.869-4.7616c2.1813-1.5832 3.1896-3.8174 1.9482-0.22535-1.2414 3.592-2.8939 8.7682-2.8939 8.7682l-2.3021 2.4084-7.412-1.415-0.65221-3.7717z" fill="#a85c31" stroke-width="1.0879"/><path d="m187.91 47.318s4.8949 3.889-1.8435 10.049c-0.67969 0.62054-1.5539 6.0065 1.3292 12.593 1.7821 4.0707 1.8858 12.308 4.194 12.554 0.86219 0.09269-2.3566-9.7411-1.6204-13.922 0.16844-0.95478 0.52293-2.7914 2.5295-0.4758 0.82293 0.94988 4.0796-1.0868 3.7342-1.1568-4.5255-0.91389-6.5378-3.847-5.0684-5.515 1.142-1.2974 3.7377-1.2751 4.8107-3.6004 5.0185-10.871-0.75711-11.947 7.2983-11.622 1.9636 0.08002 11.575 4.638 19.293 10.714 1.577 1.2419 1.9915 7.469 3.3202 8.7571 4.1449 4.0144 7.6047 2.2007 4.6132-3.3518-1.2909-2.3955-8.4826-14.917-6.8663-15.617 3.329-1.4407 0.77514-9.0947 0.22764-9.5689-9.4587-8.1848-25.08-9.474-30.198-4.2016-6.5141 6.7082-0.89727 6.0585-5.7531 14.363z" fill="#a85c31" fill-opacity=".49" stroke-width="1.1988"/><path d="m192.12 45.203c0.63023 3.1089-10.471-9.3663 0.47536-9.0796 12.515 0.32844 2.7217-5.9978 2.7217-5.9978s22.649-1.2678 26.495 2.344 8.4767 2.8944 8.4767 2.8944l1.7617 2.3906s0.45449-0.53356 1.9114 0.82342c1.4569 1.357 1.1753 2.2884 1.1753 2.2884s-1.0024-1.8905-2.3394-1.1431c-1.337 0.7474 1.5212 3.084 1.5212 3.084s1.3012 3.6584 1.3038 5.7424c3e-3 2.0839-1.0978 9.8584-3.5697 12.982s-11.541 8.7734-11.541 8.7734l0.39768-3.1785 0.32448-3.804 0.21608 0.77056s-0.13516 2.1825 2.9052 1.3643 4.1136-2.8371 5.0259-6.7225c0.91231-3.8854 0.0716-8.8117-3.6227-7.0045-3.6942 1.8072-4.9762 7.8342-4.9762 7.8342l-2.5416 3.6038-1.5887-1.9928 2.672-8.481-2.99-2.9724 1.605-6.8482 2.9412-4.6384-3.1354 1.9708s0.0288-2.1679-3.3693-0.6768c-0.736 0.32394-0.67246 15.106-1.5088 12.414-1.2306-3.9623-9.5324-14.882-12.148-11.841-1.2982 1.5091 2.1446 5.7076 0.34661 5.9064-1.6652 0.18526-10.464-8.2914-8.946-0.80572z" fill="#423534" stroke-width="1.1988"/><path d="m193.59 72.141s0.57213 1.2185 3.0159 1.0328 4.6837-1.224 4.6837-1.224-0.86944 0.61242-3.0597 1.658c-2.1903 1.0456-3.778-0.18823-3.778-0.18823z" stroke-width=".66487"/><path d="m188.92 51.19s-0.75601-4.1232 1.3367-3.8596c2.0927 0.26363 3.4706 0.58488 3.4706 0.58488l1.5566 4.1124s-3.4119-0.59465-4.5453-0.8954c-1.1334-0.30075-1.8186 0.05763-1.8186 0.05763z" fill="#423534" stroke-width="1.1988"/><path d="m212.94 54.208s0.19252-5.4086-2.1144-5.8056c-2.3069-0.39701-5.7209 0.04481-5.7209 0.04481l-0.74436 3.1654s3.6467 0.24899 4.9478 0.29533c1.3011 0.04635 3.6318 2.3001 3.6318 2.3001z" fill="#423534" stroke-width="1.3345"/><ellipse transform="matrix(.98514 .17173 -.17011 .98543 0 0)" cx="198.35" cy="20.559" rx="1.2297" ry="1.8714" stroke-width=".9291"/><ellipse transform="matrix(.98514 .17173 -.17011 .98543 0 0)" cx="214.48" cy="20.303" rx="1.9215" ry="2.2485" stroke-width=".89304"/><path d="m197.48 49.92s0.52222 3.9724-1.6912 7.4668c-2.2148 3.4953-6.7192 3.9357-6.7192 3.9357s1.1428 3.876 3.6145 4.7149c2.4726 0.84036 4.0358 1.1128 4.0358 1.1128l-0.41505-1.0945s0.12724 0.43152-2.8869-1.9323c-3.0153-2.364-1.3247-1.6612-1.3247-1.6612s2.8407-1.565 4.6381-4.7066c2.019-3.5295 0.74866-7.8358 0.74866-7.8358" fill="#a85c31" stroke-width="1.1988"/><path d="m192.93 91.802-20.674 12.628-17.551 14.451-8.0742-18.898s-7.1325-4.2519-12.77-0.80896c-5.6376 3.443-20.543 17.427-20.543 17.427l19.407 28.143 2.585 6.0319 5.3824 2.1715c7.8805 3.9322 15.513 1.0517 22.928-7.8148l14.445-5.0694s0.87091-8.1425 4.2856-12.537c3.4147-4.3948 10.58-35.724 10.58-35.724z" fill="#690000" stroke-width="1.0879"/><path d="m171.91 266.52c-4.193-1.972-7.598-4.479-7.598-4.479l1.803-8.617 2.589-10.732 9.322-26.78 11.77-35.819 19.938 17.67 7.163 11.023s5.626 0.576 11.559 1.188z" fill="#850000"/><path d="m252.58 185.85-55.042 55.043c-2.912-5.884-4.26-15.112-4.792-21.955-0.151-1.946 3.565-25.442 2.904-26.671-1.615-3-2.944-1.787-3.07-0.174-0.602 7.74-5.545 51.482-5.914 51.551-20.815 3.895-33.652-7.683-33.652-7.683s16.811-31.025 19.505-44.552c0.264-1.322 5.091-2.748 5.313-3.985 0.29399-1.637 74.576-1.858 74.576-1.858z" fill="#b00000"/><path d="m195.31 191.9-2.2108 26.878 3.3922 23.188 2.0874-2.081s-2.7642-20.134-2.6144-21.44c0.14973-1.3063 2.4254-26.854 2.4254-26.854z" fill="#ffba00" stroke-width="1.0879"/><path d="m211.04 227.39 1.71-19.499-2.397-15.89-11.726-7.195c-5.988 15.035-5.473 14.572-12.348 23.899-5.235 2.166-10.943 4.349-20.937 3.764l3.395-8.858c11.633 0.62199 19.571-5.531 22.219-21.379l2.599-15.273 19.822 18.35 11.265 6.574 4.05-4.499 22.324-2.68 0.952 1.758-13.434 13.435-12.075-1.152s-6.808 12.97-7.088 15.419c-0.098 0.851 0.146 2.44 0.554 4.342z" fill="#1a1a1a" fill-opacity=".28"/><path d="m252.82 136.94c-0.80284-1.7133 2.4293-6.1009 2.4293-6.1009 0.51119-7.1362 12.375-20.122 4.9331-30.695-8.804-5.8497-7.4623-3.5387-21.53-7.4748l4.68-8.3234c-4.1805-0.02825-11.617-5.0783-19.197-1.0335-2.1524 3.5281-5.1984 3.083-6.7833 4.8374-7.9794 8.8337-13.949 9.4401-13.949 9.4401s-0.24336-0.6781-1.1358-6.8571c-0.11613-0.80571 0.58194-7.6908 0.4561-7.5023-3.8677 5.8558-16.409 2.2927-12.814 4.4804 7.7291 4.702-13.543 13.97-13.543 13.97-0.60854 0.80409-4.6412 13.107-1.1229 11.46 1.6623-0.7781 2.5282 43.118 2.5282 43.118s-5.4303 9.2765-4.5501 17.277c0.15189 1.3822 5.7486 4.5249 5.3588 7.3192-0.19757 1.4102 52.697 10.416 52.697 10.416s22.345-52.619 21.543-54.331z" fill="#b00000" stroke-width="1.1988"/><path d="m220.54 86.617 11.61-2.6398 4.0006 0.0714 0.81417 4.612-22.512 9.2012 23.478-3.7347 5.2906-9.4478-11.746-4.3086-10.327-0.96308 1.4033 3.8832-5.1917 4.5059-1.6621 3.1182-11.036 7.1173-2.271 10.328 6.0345-9.014 7.1876-5.7937z" fill="#690000" stroke-width="1.0879"/><path d="m192.08 88.62 5.6034 1.9955 2.4765 3.4933-10.088-0.77353 10.576 8.5101 2.367 1.072-0.77363-3.4195 0.40408-8.5344 1.0727-2.4535-1.0912-5.2779-12.759 3.664c0.30129 0.11284 0.47939 0.66486 2.2129 1.7238z" fill="#690000" stroke-width="1.0879"/><path d="m176.51 129.63 19.281 0.39011 5.0664 0.8564 9.4276-0.43597 23.132-0.24386 13.533-4.2392 11.54-2.2619 4.1152 26.942-12.354 6.9938-27.001 4.35s-16.007 0.92266-17.214 0.78429c-1.2073-0.13838-4.9946-0.29672-4.9946-0.29672l-6.3984 0.0938-11.98-2.2002-1.5256-2.105-3.7754-0.73602z" fill="#ffba00" stroke-width="1.0879"/><path d="m177.31 132.14 18.233 0.0494 5.0664 0.8564 9.4276-0.43597 23.132-0.24386 13.533-4.2392 12.498-3.0344 3.0869 22.633-11.785 7.7208-27.001 4.35s-16.007 0.92266-17.214 0.78428c-1.2073-0.13837-4.9946-0.29672-4.9946-0.29672l-6.3984 0.0938-11.98-2.2002-1.5256-2.105-4.015-0.54289z" fill="url(#_Linear22)" stroke-width="1.0879"/><path d="m181.2 181.83s12.878 1.476 17.889 1.3886c5.0114-0.0874 13.672 0.24346 13.672 0.24346l30.248-7.7829 8.785-0.75778 1.872 12.126s-34.97 7.2417-47.469 6.2503c-12.499-0.99135-27.323-4.4551-27.323-4.4551l-2.0216-1.3346 1.5822-6.2156z" fill="#1a1a1a" stroke-width="1.0879"/><path d="m261.73 108.14 0.98667-0.97218 15.524 56.649-2.3333 13.243s-12.772 7.0838-21.825 10.182c-9.0532 3.0983-28.776 4.4223-28.776 4.4223-4.4224-2.5859-11.749 1.6125-13.753-2.399-5.7864-11.583-6.2427-28.642 1.0653-33.627l-0.28449-0.20246 0.51719 0.0504c0.23101-0.14668 0.47162-0.28233 0.71944-0.40503l1.1071 0.58571 8.031 0.79253 15.55-1.9126 8.1523-1.8781-0.8973-5.452-0.74631-5.8207-2.7753-3.296 0.4715-13.126 8.7348-16.921 8.2732-8.1508z" fill="#b00000" stroke-width="1.0879"/><path d="m226.63 155.98s6.2562 3.4898 7.7725 10.419c1.5163 6.9291 1.4477 14.642-0.31481 18.162-1.7626 3.5203-2.8076 6.7093-2.8076 6.7093l7.4778-1.2109 7.0442-0.98487s4.2551-9.8521 3.2848-15.616c-2.2587-13.419-3.9466-12.998-7.9991-16.771-4.0525-3.7732-3.285-2.1688-3.285-2.1688z" fill="#ffba00" stroke-width="1.0879"/><path d="m228.44 155.63s6.0909 3.7466 7.6072 10.676 0.7708 15.805-0.99176 19.325-2.2336 5.2586-2.2336 5.2586l5.9398-0.83572 5.971-1.1079s4.2551-9.8521 3.2848-15.616c-2.2587-13.419-4.5299-12.651-8.5824-16.424-4.0525-3.7732-3.285-2.1687-3.285-2.1687z" fill="url(#_Linear23)" stroke-width="1.0879"/><path d="m155.63 118.32s3.0902-1.4261 5.5322 4.2567c2.6318 6.1227 3.5112 9.1036 3.3515 12.812-0.10286 2.3634-1.8518 10.198-1.8518 10.198l7.1177-2.1162 6.2975-2.3158s2.0023-9.9149-0.0134-15.023c-4.6925-11.892-6.2841-10.973-10.633-13.828-2.1729-1.4263-2.3656-0.1553-2.3656-0.1553z" fill="#b4870c" stroke-width="1.0243"/><path d="m156.68 117.05s3.2248-0.95362 5.9702 5.1173c2.7454 6.0709 3.7862 14.385 2.8477 17.976-0.93853 3.5912-0.99342 4.9365-0.99342 4.9365l5.2685-1.6094 5.1392-1.7011s2.148-10.428 0.1324-15.536c-4.6925-11.892-6.6354-10.732-11.103-13.392-4.4676-2.6601-1.0936-0.62695-1.0936-0.62695z" fill="url(#_Linear24)" stroke-width="1.0243"/><path d="m148.12 103.15s-0.43422 5.9312-5.7932 10.566c-5.7737 4.9946-8.7168 6.9781-12.792 8.0476-2.5971 0.68038-11.67 1.3657-11.67 1.3657l4.639 7.2254 4.5853 6.2436s11.412-1.1026 16.288-5.0688c11.352-9.2336 8.9884-8.4434 11.098-14.104 0.37115-0.99468-1.0007-2.3076-1.0007-2.3076z" fill="#b4870c" stroke-width="1.1769"/><path d="m149.02 104.79s-0.0755 5.3555-5.7555 10.459c-5.68 5.1039-14.354 9.0615-18.558 9.2231s-5.6809 0.55287-5.6809 0.55287l3.4804 5.3337 3.5372 5.1587s12.017-1.1127 16.893-5.0788c11.352-9.2336 10.541-15.316 10.541-15.316z" fill="url(#_Linear25)" stroke-width="1.1769"/><path d="m244.97 142.69s0.19992-5.5291 5.5481-8.7956c5.3482-3.2665 11.788-5.3787 15.207-4.8408 3.419 0.53794 3.2259 0.40748 3.2259 0.40748l0.0572-6.0075-2.7718-5.8341s-9.3807-0.91756-13.91 1.5471c-10.545 5.738-9.9468 6.9902-11.745 11.662-0.26906 0.69803 1.9996 1.9173 1.9996 1.9173l-0.65246 6.5135z" fill="#ffba00" stroke-width=".97324"/><path d="m244.97 142.69s-0.32775-6.9281 5.0204-10.195 12.944-5.1189 16.362-4.581c3.419 0.53794 2.7634 0.97311 2.7634 0.97311l-0.10845-5.4339-2.5768-4.8684s-9.3807-0.91756-13.91 1.5471c-10.545 5.738-9.0671 7.5921-11.295 12.071-0.80995 1.6285 1.0414 2.6901 1.0414 2.6901l-0.9481 3.6792z" fill="url(#_Linear26)" stroke-width=".97324"/><path d="m263.11 108.62-0.39942-1.4575 2.8834 10.52 3.4187 5.1575-0.10541 6.9341 9.3276 34.037-2.3333 13.243s-12.772 7.0838-21.825 10.182c-0.68578 0.23463-1.4334 0.45886-2.229 0.67428-9.7004 2.6172-26.547 3.748-26.547 3.748-4.4224-2.5859-11.749 1.6125-13.753-2.399-5.7864-11.583-6.2427-28.642 1.0653-33.627l2.4796 1.7687c7.9243 6.3533 14.456 17.038 11.346 28.598 0 0 15.34-2.9292 24.393-6.0275s21.825-10.182 21.825-10.182l2.3333-13.243-7.385-26.948-1.2969-8.426-1.7037-2.5235zm-48.438 47.042-1.8266-0.18068c0.23101-0.14668 0.47162-0.28233 0.71944-0.40503z" fill-opacity=".31" stroke-width="1.0879"/><path d="m239.77 98.794-6.1682 13.159-0.75948 5.2698 1.583 3.8045 2.2006 6.5554 1.3832 2.2375c-0.85787 2.552-1.275 15.677-0.39021 16.496 0.1937 0.17882 8.5626 10.394 8.6958 5.2947 0.0539-2.0452-1.5493-6.2326-1.4783-8.5791 0.0289-0.93527-3.6866-5.3437-4.447-4.05-0.98686 1.6758 0.80265-3.5785 1.2075-3.7714l-1.3021-1.6922 0.96539-5.7194-3.6223-4.9845-4.047-3.7924 1.1129-5.8392s1.501-3.6099 2.3455-5.5612c0.84554-1.9512 2.7209-8.8269 2.7209-8.8269z" fill-opacity=".31" stroke-width="1.0879"/><path d="m220.5 50.328s0.39651 1.4164-1.2364 11.385c-1.77 10.804-6.9887 17.51-7.4447 16.926l-4.1541 2.3595-1.3682 1.1038 5.2728-1.2861 2.7385-2.2074c-0.17755 1.5491 7.3472-7.186 7.4363-14.746 0.0695-5.843 2.3673-9.8115 2.3673-9.8115z" fill="#1a1a1a" stroke-width="1.0879"/><path d="m190.41 30.966c4.2094-8.7136 10.454-15.34 26.793-16.939-0.79475 0.76808 7.3008 1.4246 14.868 12.575 5.2813 7.7842 6.9304 18.127 6.9304 18.127l1.0699 10.994-1.2079 6.479s-6.0401 1.1981-7.7586-2.7807c-1.7186-3.9778-40.695-28.455-40.695-28.455z" fill="#850000" stroke-width="1.0879"/><path d="m198.27 34.23c-10.228 2.4398-0.49672-12.931 3.0625-15.877 1.3647-1.1307 6.1995-2.5982 7.7043-3.5286 0.76416-0.4727 5.8299-2.0869 8.0038-0.49768 0.64513 0.47099-8.016 6.6561-13.757 16.854-2.0643 3.6677-2.4585 3.5685-5.0139 3.0495z" fill="#c10808" stroke-width="1.0879"/><path d="m201.52 19.485 1.7294-1.206s0.68957 0.7381 1.3145 1.2121c0.62464 0.47384 1.8862 0.17829 1.8862 0.17829s-0.73305 2.8502-1.6605 4.6738c0 0-0.48383 2.0261-2.6084 3.6227-0.51886 0.38946-3.1773 1.7378-3.3849 1.8719-0.0251 0.07788-0.069 0.09541-0.069 0.09541l0.032-0.07134-0.0106 0.0075c-4e-3 0.0023-7e-3 0.0042-0.0102 0.0066l0.0743-0.16553c-2e-3 -0.23864-0.14515-0.72448-0.78902-1.7003-1.223-1.8533-0.24941-2.9203-0.24941-2.9203 0.74622-1.9068 2.257-5.5028 2.257-5.5028s0.66007 0.17071 1.4886-0.10196z" fill="#808080" stroke-width=".3909"/><path d="m198.81 29.711c-2.4e-4 -0.0316-0.1514-0.49512 0.21076-0.61573 0.83503-0.27758 4.3092-1.9218 5.1588-4.086 0.32571-0.82952 1.8739-3.9765 1.4852-4.8426-0.10627-0.23713-0.51796-0.05434-0.94555 0.09304-0.41438 0.14276-0.68414-0.40554-1.1107-0.66141-0.3051-0.18328-0.68517-0.38352-0.62599-0.53293 0.275-0.69534 0.26414-0.78579 0.26414-0.78579s0.68957 0.7381 1.3145 1.2121c0.62464 0.47384 1.8862 0.17829 1.8862 0.17829s-0.73305 2.8502-1.6605 4.6738c0 0-0.48383 2.0261-2.6084 3.6227-0.51886 0.38946-3.1773 1.7378-3.3849 1.8719-0.0251 0.07788-0.069 0.09541-0.069 0.09541l0.032-0.07134-0.0106 0.0075c-4e-3 0.0023-7e-3 0.0042-0.0102 0.0066z" fill="#383838" stroke-width=".3909"/><path d="m224.42 61.48c1.0807 1.5279 1.7837 2.9264 2.2353 4.1462-0.70347-1.3754-1.4422-2.7748-2.2353-4.1462zm-43.577-26.662c-0.24668-1.1301-0.18862-2.2153 0.32519-3.1788 2.7702-5.1971 2.8631-3.2949 7.5796-2.44 4.7174 0.85611 9.9406 2.7154 14.14 1.3063 4.1997-1.4102 14.493-4.4843 20.098-0.53315 4.6043 3.2464 20.218 22.002 20.232 36.008-1.2934-13.749-15.741-31.006-20.14-34.106-5.6043-3.9511-15.898-0.87688-20.097 0.53218s-9.4228-0.45022-14.14-1.3052c-4.7174-0.85611-4.8094-2.757-7.5796 2.44-0.21715 0.40525-0.35209 0.83315-0.41814 1.2767z" fill="#ce1313" stroke-width="1.0879"/><path d="m190.45 44.205s-6.4216-1.5632-7.9984-3.7336c-1.682-2.3148-2.5707-4.3313-1.1856-6.9298 2.7702-5.1971 2.8622-3.2961 7.5796-2.44 4.7175 0.85502 9.9407 2.7143 14.14 1.3052 4.1996-1.4091 14.493-4.4833 20.097-0.53218 5.6054 3.9512 28.149 25.441 18.384 38.817-9.7648 13.376-12.81 8.7735-14.649 8.5626s-6.7705-5.9751-6.7705-5.9751l0.32777-4.2164 7.5866-3.8576s1.5369-7.1671-10.382-16.473c-9.3559-7.3049-23.427-16.351-27.176-7.8749-2.1825 4.9358 0.0469 3.3472 0.0469 3.3472z" fill="#690000" stroke-width="1.0879"/><path d="m189.07 70.106 0.94999-2.8054 1.4116-0.56678 2.0959 0.51343 1.8712 0.1234 2.0176 0.41338 3.6929-1.6714 3.9625-1.8326 3.9575 3.4006-2.1748 1.7785-2.5015 2.0342-1.2695-2.2401-2e-3 2.3676-1.933 0.41595-2.7409 0.41443-1.9227 0.32606-0.30092-2.8577-0.94177 1.1671-0.25346 1.4281s-1.3601 0.11732-1.5374 0.09701c-0.17723-0.02031-0.99126-0.75111-0.99126-0.75111l0.0659-1.3585-0.029 0.59576-1.461-0.12902-0.85524-0.37124z" fill="#423534" stroke-width="1.4037"/><path d="m203.78 99.586s-7.493 25.06-7.8174 30.261c-0.32437 5.2017 2.3775 19.573 2.3775 19.573l-5.3067 33.968 3.6163-0.24727 4.941-33.624-2.1404-19.271 4.3296-30.661" fill="#690000" stroke-width="1.0879"/><path d="m214.72 223.71c-0.74599-18.866 3.269-41.172-3.946-47.468l-9.858-8.85-9.441-3.012-11.605 6.39s-14.506 7.988-34.403-3.392c-19.898-11.379-20.129-54.419-20.129-54.419s5.778-29.069 7.868 0.123c2.091 29.191 13.39 42.066 19.567 47.462 6.177 5.395 22.961 1.253 26.699-0.525 3.737-1.777 5.503-2.953 11.748-5.271 6.246-2.317 11.63 0.506 11.63 0.506l7.887 9.452s8.61 7.88 10.938 13.661c2.327 5.781 7.025 2.735 3.937 29.679-0.214 1.872-0.374 3.622-0.484 5.256z" fill="#ffba00"/><path d="m214.72 223.71c-0.74599-18.866 3.269-41.172-3.946-47.468l-9.858-8.85-9.441-3.012-11.605 6.39s-14.506 7.988-34.403-3.392c-19.898-11.379-20.129-54.419-20.129-54.419s2.794-14.061 5.2-12.804c-1.493 3.813-2.68 9.784-2.68 9.784s0.232 43.04 20.129 54.42c19.898 11.379 34.404 3.391 34.404 3.391l11.605-6.39 9.44 3.012 9.859 8.85c1.962 1.713 3.018 4.372 6.384 2.817 0.982-0.45399 1.896 2.382 2.311 2.778-1.554 1.467-4.71 4.592-4.679 4.867 1.115 10.014-0.618 24.596-0.051 37.486zm7.27-44.893c0.90699-0.856 1.268-1.147 0.13099 0.024-0.035 0.036-0.079 0.025-0.13099-0.024z" fill="#9e7e27"/><path d="m216.31 161.16-9.0534-8.758-8.3794-0.40894-5.5591 8.1862-1.6283 9.4639 4.143 6.5409 8.6852 4.8556 8.2858 1.2254 4.9789-5.4954 4.2739-1.716s1.4412-7.8309-5.7466-13.894z" fill="#ea972f" stroke-width="1.0879"/><path d="m197.86 165.66-4.5361-5.483-1.6283 9.4639 4.143 6.5409 8.6852 4.8556 8.2858 1.2254 4.9789-5.4954c-0.66032 0.20225-7.0596-1.0716-7.4408-5.2402-0.0907-0.99199-1.7326-1.0577-2.6804-1.6009-1.356-0.77635-4.9815-0.76175-6.2718-1.6276-1.262-0.8472-2.461-1.7313-3.5356-2.6386z" fill="#a85c31" stroke-width="1.0879"/><path d="m116.66 85.485 7.5071-2.8895 8.1711 2.7012 2.7255 8.4739 5.1114 8.5268s1.782 1.5277-0.0599 2.4196c-1.8418 0.89182-5.7651 2.8686-5.7651 2.8686l-3.6737-0.20048s-3.9882 0.64581-5.4307-1.9459c-1.4426-2.5917-3.4292-6.1282-3.4292-6.1282l-4.3926-9.1062z" fill="#a85c31" stroke-width="1.0879"/><path d="m116.38 67.812 3.6317 25.232 2.4523 16.549-1.7158 3.1121 1.2978 2.906s5.0975 0.58425 9.4338-1.676c4.3363-2.2603 6.651-5.8552 6.651-5.8552l-1.2354-3.4503-6.9633-15.136-7.0383-23.968s3.2319-2.1111 2.3147-3.5949c-0.91721-1.4838-5.3846-2.823-5.3846-2.823l-6.1832 1.7729-1.697 5.3201z" fill="#808080" stroke-width="1.0879"/><path d="m116.38 67.812 3.6317 25.232 2.4523 16.549-1.7158 3.1121 1.2978 2.906s5.0975 0.58425 9.4338-1.676c0.68914-0.35888-5.8095 0.39074-7.8415-1.384-0.50295-0.44035 8.7885 8e-3 9.1662-3.9136 0.0471-0.49643-3.1763 0.69585-5.2118 0.82099-1.4552 0.0891-1.8924-0.85878-1.973-1.104-1.1305-3.446 3.6675-5.1428 2.7325-10.142-0.3854-2.0636-0.97259-4.6908-1.7336-7.0533-0.24542-0.76157 3.8499-1.5837 3.5799-2.358-1.4085-4.0371-5.6449-4.6781-8.1614-8.5246-2.5961-3.968-3.4584-11.12-3.8434-13.993-0.27723-2.0777-0.94611-1.5257-2.479-1.8878-0.23714-0.05586 6.6049-0.13083 6.7915-1.0568 0.48636-2.4126-2.6823-4.2305-2.6823-4.2305l-6.1832 1.7729-1.697 5.3201z" fill="#4e4e4e" stroke-width="1.0879"/><path d="m111.71 82.442-2.7139 11.821 2.8764 3.3627 1.8532 5.1755 2.6393 3.0598 5.9648 0.13219 2.7578-2.7169 1.3975-5.0787-0.30579-4.4467-1.8032-3.2397 1.254-6.198-0.84238-4.5082s-12.485-2.5339-13.078 2.6371z" fill="#ea972f" stroke-width="1.0879"/><path d="m111.71 82.442-2.7139 11.821 2.8764 3.3627 1.8532 5.1755 2.6393 3.0598 5.9648 0.13219 2.7578-2.7169-6.2244-3.0847-3.0861-6.7506-1.354-7.1587 10.365-6.4773s-12.485-2.5339-13.078 2.6371z" fill="#a85c31" stroke-width="1.0879"/><path d="m139.51 100.79-0.53676-11.918-2.658-5.2678-9.2218-4.9171-5.659 4.3145-2.4583 2.4755-0.61141 2.9629 4.0743 2.3971 5.6278-4.0424 3.5065 2.6077-2.1712 4.7143 1.4601 6.2334 4.3426 2.4278z" fill="#ea972f" stroke-width="1.0879"/><path d="m140.8 100.94-6.3867-6.412-0.31207-6.7635-5.9025-5.419-5.1274 5.3681-4.7044 0.72916 4.0743 2.3971 5.6278-4.0424 3.5065 2.6077-2.1712 4.7143 1.4601 6.2334 4.3426 2.4278z" fill="#a85c31" stroke-width="1.0879"/><path d="m197.53 177.13-0.88344 6.01 2.4999-0.0686 0.62385-5.4431z" fill="#ffba00" stroke-width="1.0879"/><path d="m189.88 86.904 10.282 7.2048 1.8961 2.9603 1.8007 4.618-0.0506 3.1452-1.3682 1.1038-1.3442-7.2447-2.7918-4.1008-2.1377-3.2813-4.4874-1.2599z" fill="#ffba00" stroke-width="1.0879"/><path d="m241.82 84.164s-11.373-0.86233-14.258 0.85735c-2.8848 1.7197-7.4202 1.9884-7.4202 1.9884s-7.8856 9.1801-9.5261 9.9373c-1.6405 0.75718-5.6362 5.8138-5.6362 5.8138l-2.6356 5.3702-3.1082 21.702 2.3429 18.86-0.37431 3.2658 2.7948 5e-3 -0.47415-3.9928s-1.9499-15.507-1.8715-17.547c0.0782-2.0392 3.1616-22.168 3.1616-22.168l2.0396-5.5962 4.7274-4.6573 9.6439-9.6084 7.8152-1.7832 3.569-1.3236 6.6638 0.1329 3.2729-0.09693z" fill="#ffba00" stroke-width="1.0879"/><path d="m190.29 218.67-4.2275 19.809-1.9017 3.3114-18.294-1.6556-11.256-6.1429-1.3227 2.0542s7.2277 5.24 11.61 6.8453c4.3825 1.6052 21.034 2.4108 21.034 2.4108l2.2062-2.1736-0.571-11.704 3.1364-4.9864-0.71046-6.3802z" fill="#ffba00" stroke-width="1.0879"/></g><g><path d="m120.17 56.765s-13.028-29.187-32.187-29.774c-45.791-1.4033-41.264 24.536-37.003 30.451 6.7607 9.3863 19.032-2.5713 21.368-9.6216 3.3495-2.9444 12.383-0.15949-0.96258 11.213-9.8427 8.3881-28.069 18.915-22.335 29.162 5.7338 10.248 14.665 3.1961 18.498-9.299s16.27-16.346 16.27-16.346 8.6117-5.1306 7.0148 0.95721c-1.5978 6.0869-4.1531 13.776-4.1531 13.776s-2.2346 5.4472 4.78 5.1224c7.0155-0.3238 9.5714-10.896 9.5714-10.896l0.64284-8.9694s-0.53493-6.7123 4.7874-8.6516c8.25-3.0066 9.2434 6.722 9.2434 6.722s-1.2771 1.9227 2.8688 1.5995c4.1449-0.32225 1.5966-5.4459 1.5966-5.4459z" fill="#58a3da" stroke-width=".95878"/><path d="m67.893 28.924s-6.1884 2.6768-10.198 5.6033c-3.4555 2.5226-4.7176 5.0651-5.7523 8.1793-2.2353 6.7282-0.25414 11.885 2.8636 11.21 5.7716-1.2486 1.7726-3.6672 5.1073-11.215 16.181-23.208 38.903-5.146 35.394-1.9411-3.5084 3.2049-39.871 29.172-41.788 34.939-1.9162 5.767-4.7867 7.3706-1.9184 9.932 2.8683 2.5605 7.3341-2.2469 7.3341-2.2469s-0.63672-0.63968 3.5113-6.7289c4.148-6.0883 11.475-17.938 11.475-17.938s17.555-9.6253 19.786-7.0644c2.2303 2.5618 2.8657 7.3664 2.8657 7.3664s-2.8704 1.2826-4.15 8.0103c-1.2787 6.7277 2.23 4.8038 2.23 4.8038l4.1496-8.9713 2.5565-9.9314s0.63862-2.8833 3.8276-2.5651c3.188 0.31829 13.388 6.3998 13.388 6.3998s-8.2839-12.169-12.748-12.486c-4.4631-0.31856-11.798 2.2484-11.798 2.2484l6.3808-6.4104 7.9699 1.9177-7.0115-5.4412c-7.1989-3.7527-6.8991-9.7677-33.475-7.6699z" fill="#93d0ff" stroke-width=".95878"/><path d="m39.527 73.389s-12.018 5.1122-11.824 11.764c0.1936 6.6516 3.7701 10.435 7.5718 5.6069 3.8013-4.8272-2.2237-13.35 4.2525-17.371z" fill="#58a3da" stroke-width=".8235"/><path d="m80.735 83.7s-5.868 8.9271-2.7437 13.354c3.1243 4.4265 7.2573 5.3699 7.669 0.36685 0.41175-5.0024-7.5178-8.0505-4.9253-13.72z" fill="#58a3da" stroke-width=".67185"/><path d="m39.974 93.616s-3.9331 11.838 0.72849 14.548c3.2755 1.9038 5.4017-4.4413 2.7052-9.618-2.6973-5.1767-3.4337-4.9299-3.4337-4.9299z" fill="#58a3da" stroke-width=".73802"/></g>
    <defs>
        <linearGradient id="_Linear1" x2="1" gradientTransform="matrix(68.666 87.921 -87.921 68.666 145.48 23.577)" gradientUnits="userSpaceOnUse"><stop stop-color="#d8eaff" offset="0"/><stop stop-color="#5ea6b4" offset="1"/></linearGradient>
        <linearGradient id="_Linear2" x2="1" gradientTransform="matrix(51.978 0 0 248.31 98.227 190.32)" gradientUnits="userSpaceOnUse"><stop stop-color="#690000" offset="0"/><stop stop-color="#b30000" offset=".43"/><stop stop-color="#690000" offset="1"/></linearGradient>
        <linearGradient id="_Linear3" x2="1" gradientTransform="matrix(66.8 0 0 33.4 91.478 161.49)" gradientUnits="userSpaceOnUse"><stop stop-color="#b30000" offset="0"/><stop stop-color="#b80606" offset=".23"/><stop stop-color="#c61616" offset=".47"/><stop stop-color="#bf1212" offset=".77"/><stop stop-color="#a20000" offset="1"/></linearGradient>
        <linearGradient id="_Linear4" x2="1" gradientTransform="matrix(58.583 0 0 87.9 92.838 121.02)" gradientUnits="userSpaceOnUse"><stop stop-color="#b30000" offset="0"/><stop stop-color="#b80606" offset=".23"/><stop stop-color="#c61616" offset=".47"/><stop stop-color="#bf1212" offset=".77"/><stop stop-color="#a20000" offset="1"/></linearGradient>
        <radialGradient id="_Radial5" cx="0" cy="0" r="1" gradientTransform="matrix(31.141 3.0771 -3.0771 31.141 106.16 172.48)" gradientUnits="userSpaceOnUse"><stop stop-color="#f55454" offset="0"/><stop stop-color="#ba0909" offset=".5"/><stop stop-color="#af0505" offset=".58"/><stop stop-color="#a50101" offset=".67"/><stop stop-color="#a20000" offset="1"/></radialGradient>
        <linearGradient id="_Linear6" x2="1" gradientTransform="matrix(57.018 -7.2869 2.491 19.492 85.921 197.26)" gradientUnits="userSpaceOnUse"><stop stop-color="#690000" offset="0"/><stop stop-color="#b30000" offset=".43"/><stop stop-color="#690000" offset="1"/></linearGradient>
        
        <linearGradient id="_Linear8" x2="1" gradientTransform="matrix(4.8403 37.874 -14.931 1.9081 142.59 199.01)" gradientUnits="userSpaceOnUse"><stop stop-color="#db0101" offset="0"/><stop stop-color="#b30000" offset=".43"/><stop stop-color="#690000" offset="1"/></linearGradient>
        <linearGradient id="_Linear9" x2="1" gradientTransform="matrix(4.5764 35.809 -11.931 1.5247 148.15 199.55)" gradientUnits="userSpaceOnUse"><stop stop-color="#db0101" offset="0"/><stop stop-color="#b30000" offset=".43"/><stop stop-color="#690000" offset="1"/></linearGradient>
        <linearGradient id="_Linear10" x2="1" gradientTransform="matrix(2.4127 18.879 -6.2898 .80384 156.25 207.49)" gradientUnits="userSpaceOnUse"><stop stop-color="#db0101" offset="0"/><stop stop-color="#b30000" offset=".43"/><stop stop-color="#690000" offset="1"/></linearGradient>
        <linearGradient id="_Linear11" x2="1" gradientTransform="matrix(1.1249 8.8023 -2.9327 .37479 160.14 212.09)" gradientUnits="userSpaceOnUse"><stop stop-color="#7d7d7d" offset="0"/><stop stop-color="#d9d9d9" offset=".43"/><stop stop-color="#535353" offset="1"/></linearGradient>
        <linearGradient id="_Linear12" x2="1" gradientTransform="matrix(5.0839 49.279 -235.41 24.287 97.034 199.85)" gradientUnits="userSpaceOnUse"><stop stop-color="#ff6363" offset="0"/><stop stop-color="#b30000" offset=".43"/><stop stop-color="#690000" offset="1"/></linearGradient>
        
        <linearGradient id="_Linear14" x2="1" gradientTransform="matrix(5.4813 50.868 -243.01 26.185 91.471 203.43)" gradientUnits="userSpaceOnUse"><stop stop-color="#ff6363" offset="0"/><stop stop-color="#b30000" offset=".43"/><stop stop-color="#690000" offset="1"/></linearGradient>
        
        <linearGradient id="_Linear16" x2="1" gradientTransform="matrix(3.4943 23.845 -113.91 16.693 97.034 215.35)" gradientUnits="userSpaceOnUse"><stop stop-color="#ff6363" offset="0"/><stop stop-color="#b30000" offset=".43"/><stop stop-color="#690000" offset="1"/></linearGradient>
        
        <linearGradient id="_Linear18" x2="1" gradientTransform="matrix(1.5072 68.354 -326.54 7.2002 98.227 190.32)" gradientUnits="userSpaceOnUse"><stop stop-color="#7d7d7d" offset="0"/><stop stop-color="#d9d9d9" offset=".43"/><stop stop-color="#535353" offset="1"/></linearGradient>
        <linearGradient id="_Linear19" x2="1" gradientTransform="matrix(-41.733 5.3334 -3.3167 -25.952 141.54 226.99)" gradientUnits="userSpaceOnUse"><stop stop-color="#690000" offset="0"/><stop stop-color="#f22929" offset=".63"/><stop stop-color="#d51f1f" offset=".82"/><stop stop-color="#7d0000" offset="1"/></linearGradient>
        <linearGradient id="_Linear20" x2="1" gradientTransform="matrix(-36.44 4.657 -2.896 -22.661 139.07 228.44)" gradientUnits="userSpaceOnUse"><stop stop-color="#690000" offset="0"/><stop stop-color="#f22929" offset=".63"/><stop stop-color="#d51f1f" offset=".82"/><stop stop-color="#7d0000" offset="1"/></linearGradient>
        <linearGradient id="_Linear21" x2="1" gradientTransform="matrix(-22.782 2.9116 -1.8106 -14.168 132.71 232.2)" gradientUnits="userSpaceOnUse"><stop stop-color="#690000" offset="0"/><stop stop-color="#f22929" offset=".63"/><stop stop-color="#d51f1f" offset=".82"/><stop stop-color="#7d0000" offset="1"/></linearGradient>
        <linearGradient id="_Linear22" x2="1" gradientTransform="matrix(85.853 9.84 -5.2247 45.586 177.14 137.46)" gradientUnits="userSpaceOnUse"><stop stop-color="#c9c9c9" offset="0"/><stop stop-color="#fff" offset=".2"/><stop stop-color="#d6d6d6" offset=".35"/><stop stop-color="#acacac" offset=".53"/><stop stop-color="#999" offset="1"/></linearGradient>
        <linearGradient id="_Linear23" x2="1" y2="-.0052228" gradientTransform="matrix(7.7207 41.693 -64.549 12.495 219.25 149.18)" gradientUnits="userSpaceOnUse"><stop stop-color="#c9c9c9" offset="0"/><stop stop-color="#fff" offset=".2"/><stop stop-color="#e2e2e2" offset=".56"/><stop stop-color="#999" offset="1"/></linearGradient>
        <linearGradient id="_Linear24" x2="1" y2="-.0078421" gradientTransform="matrix(15.227 36.809 -57.031 24.412 143.85 109.77)" gradientUnits="userSpaceOnUse"><stop stop-color="#878787" offset="0"/><stop stop-color="#a7a7a7" offset=".2"/><stop stop-color="#8e8e8e" offset=".56"/><stop stop-color="#515151" offset="1"/></linearGradient>
        <linearGradient id="_Linear25" x2="1" y2=".0091051" gradientTransform="matrix(-34.907 29.364 -45.256 -55.386 150.52 90.113)" gradientUnits="userSpaceOnUse"><stop stop-color="#878787" offset="0"/><stop stop-color="#a7a7a7" offset=".2"/><stop stop-color="#8e8e8e" offset=".56"/><stop stop-color="#515151" offset="1"/></linearGradient>
        <linearGradient id="_Linear26" x2="1" y2=".013046" gradientTransform="matrix(32.569 -18.438 28.288 52.483 240.38 151.88)" gradientUnits="userSpaceOnUse"><stop stop-color="#c9c9c9" offset="0"/><stop stop-color="#fff" offset=".2"/><stop stop-color="#e2e2e2" offset=".56"/><stop stop-color="#999" offset="1"/></linearGradient>
    
        
        
        
        
        
        
        
        
        
        
        
        
        
        
        
        
        
        
        
        
        
        
        
        
        
        
        
        
        
        
        
        
        
        
        
        
        
        
        
        
        
        
        
        
        
        
        
        
        
        
        
        
        
        
        
        
        
        
        
        
        
        
        
        
        
        
        
        
        
        
        
        
        
        
        
        
        
        
        
        
        
        
        
        
        
        
        
        
        
        
        
        
        
        
        
        
        
        
        
        
        
        
        
        
        
        
        
        
        
        
        
        
        
        
        
        
        
    
            
        
            
        
            
        
            
        
            
        
            
        
            
        
            
        
            
            
        
            
        
            
        
            
        
            
        
            
        
            
        
            
        
            
        
            
        
            
        
            
        
            
        
            
        
            
        
            
        
            
        
            
        
            
        
            
        
            
        
            
        
            
        
            
        
            
        
            
        
            
        
            
        
            
        
            
        
            
        
            
        
            
        
            
        
            
        
            
        
            
        
            
        
            
        
            
        
            
        
            
        
            
        
            
        
            
        
            
        
            
        
            
        
            
        
            
        
            
        
            
        
            
        
            
        
            
        
            
        
            
        
            
        
            
        
            
        
            
        
            
        
            
        
            
        
            
        
            
        
            
        
            
        
            
        
            
        
            
        
            
        
            
        
            
        
            
        
            
        
            
        
            
        
            
        
            
        
            
        
            
        
            
        
            
        
            
        
            
        
            
        
            
        
            
        
            
        
            
        
            
        
            
        
            
        
            
        
            
        
            
        
            
        
            
        
            
        
            
        
            
        
            
        
            
        
            
        
            
        
            
        
            
        
            
        
                
            </defs>
</svg>
