<?xml version="1.0" encoding="UTF-8"?>
<svg clip-rule="evenodd" fill-rule="evenodd" stroke-linecap="round" stroke-linejoin="round" version="1.1" viewBox="0 0 290 290" xml:space="preserve" xmlns="http://www.w3.org/2000/svg">
    <g><path d="m144.84 289.67c-1.8817 0-3.6503-0.73284-4.9806-2.0631l-137.79-137.79c-1.3317-1.3303-2.0645-3.0989-2.0645-4.9806 0-1.8817 0.73285-3.6503 2.0631-4.982l137.79-137.79c1.3303-1.3303 3.0989-2.0632 4.9806-2.0632 1.8817 0 3.6503 0.73285 4.9806 2.0632l137.79 137.79c1.3317 1.3317 2.0646 3.1003 2.0646 4.982 0 1.8803-0.73286 3.6489-2.0646 4.9806l-137.79 137.79c-1.3303 1.3303-3.0989 2.0631-4.9806 2.0631" fill="url(#_Linear1)" fill-rule="nonzero" stroke-width="1.3959"/><path d="m254.95 182.48-105.13 105.14c-1.33 1.33-3.1 2.063-4.981 2.063-1.881 0-3.651-0.733-4.981-2.063l-105.13-105.14z" fill="#90b27e"/><path d="m67.529 215.28 5.657-2.263 27 2.667 18-2.667 1.667 3.667 2.333 3.333 17.667-3.333 17.666 2.333 17.667-1.667 11.333-0.333s21.667 4.667 25.334 4.333c0.521-0.047 2.188-0.209 4.676-0.452l-66.71 66.71c-1.33 1.33-3.1 2.063-4.981 2.063-1.881 0-3.651-0.733-4.981-2.063z" fill-opacity=".2"/><path d="m151.52 122.81s1.334 23 1 55c-0.333 32 2.667 31-5 44.666-7.666 13.667-13 8.333-13 8.333l12.667 1.667 6.333-1.667-15 9.667 25-7 8.334-1.333 15.333 3.333 13.476-3.714-9.809-6.619-5.334-3.667-3.666-8.333-2.667-66.667 1-21.333z" fill="url(#_Linear2)"/><path d="m199.52 117.48-1.667 11.667s-1.333 2.333-4.333 4.666c-3 2.334-6.667 4.667-6.667 4.667s-2.333 4-5 6.333c-2.666 2.334-12.333 8.667-12.333 8.667l0.667 8 11.333-5.667 7.667-7.333 6.333-8.667 1.667-5 6-8-0.334-8" fill="#918b8b"/><path d="m209.44 227.99-6.925-2.51 6.334-8 2.666-12.666s3.667-10.667 5.667-28c2-17.334-1-14-1-14l-9.667-28.667s14-0.333 17 0.333c3 0.667 5.334 22.667 5.334 22.667l9 19.333 4-3.333 5.666-5 5-4.333 3.334-7.334 3.333-10.333 4-13.333-2.755 30.412-0.578 3.921s-4 7.333-6.667 11c-2.667 3.667-6 7.667-6 7.667s-0.414 2.416-0.929 5.363z" fill="url(#_Linear3)"/><path d="m114.7 131.6c-0.657 0.60799-3.456 3.778-7.518 16.543-4.667 14.667-5.667 18.667-5.667 18.667v7l-2 28.666v8.667l4 9.666 10.334 7.334 5.503 1.761s3.497 2.239-8.17 0.905c-4.795-0.548-6.887-0.645-7.689-0.57 0.368 0.13 0.519 0.313 0.356 0.57 0 0-1.504-0.462-0.356-0.57-1.651-0.583-7.681-0.091-9.311-0.43l19 14.667s-12.985-4.617-23.955-7.49l-15.38-15.381 5.335-2.462 1.333-8s2.667-5.333 0.667-21.333-15-32-15-32l-4-21.667 13.333 16.667s-4 4.333 3.334 10c7.333 5.666 12 5.666 12 5.666l5-7 4.666-12.666v-5.334l14.185-11.876c0.098-0.09 0.149-0.124 0.149-0.124zm4.652 98.304 2.83 0.905z" fill="url(#_Linear4)"/><path d="m85.308 56.613c1.391-0.199 2.814-0.302 4.262-0.302 16.018 0 29.044 12.56 29.725 28.289 9.998 1.596 17.65 10.172 17.65 20.547 0 9.071-5.843 16.788-14 19.648 0.04 0.454 0.06 0.913 0.06 1.376 0 6.381-3.84 11.859-9.342 14.319-0.263 6.331-5.479 11.4-11.925 11.4-2.273 0-4.376-0.666-6.185-1.759-3.583 7.584-11.325 12.85-20.323 12.85-12.074 0-21.892-9.466-22.405-21.323-7.537-1.202-13.304-7.666-13.304-15.487 0-0.536 0.027-1.066 0.08-1.589-5.102-1.961-9.239-5.844-11.51-10.753z" fill="#90b27e"/><path d="m229.8 82.044c1.561 16.12-10.488 31.25-28.047 35.064-7e-3 10.918-8.669 20.803-20.882 22.963-10.678 1.888-20.855-2.691-25.749-10.731-0.527 0.137-1.063 0.254-1.608 0.35-7.511 1.328-14.678-1.597-18.604-6.91-7.502 1.04-14.445-3.427-15.651-10.25-0.426-2.408-0.037-4.772 0.911-6.915-9.597-2.214-17.246-9.314-18.93-18.84-2.261-12.782 7.045-25.146 20.905-28.157 5e-3 -8.229 6.534-15.68 15.74-17.308 0.63099-0.112 1.26-0.194 1.885-0.246 2.082-8.936 9.943-16.403 20.366-18.246 3.685-0.651 7.308-0.531 10.674 0.236z" fill="#9daf51"/><path d="m211.75 63.997 67.38 67.381c-3.994 7.112-10.863 12.514-19.332 14.392 0.17 10.124-6.943 19.152-17.16 20.959-8.933 1.58-17.548-2.83-21.786-10.365-0.44 0.11907-0.888 0.218-1.344 0.299-6.283 1.111-12.346-1.717-15.727-6.706-6.28 0.843-12.179-3.41-13.302-9.757-0.396-2.239-0.10706-4.426 0.654-6.397-8.091-2.208-14.625-8.914-16.192-17.775-2.103-11.89 5.51-23.207 17.095-25.776-0.128-7.631 5.233-14.436 12.935-15.798 0.527-0.09293 1.054-0.159 1.578-0.198 0.752-3.87 2.577-7.421 5.201-10.259z" fill="#90b27e"/><path d="m144.84 289.67c-1.8817 0-3.6503-0.73284-4.9806-2.0631l-137.79-137.79c-1.3317-1.3303-2.0645-3.0989-2.0645-4.9806 0-1.8817 0.73285-3.6503 2.0631-4.982l137.79-137.79c1.3303-1.3303 3.0989-2.0632 4.9806-2.0632 1.8817 0 3.6503 0.73285 4.9806 2.0632l137.79 137.79c1.3317 1.3317 2.0646 3.1003 2.0646 4.982 0 1.8803-0.73286 3.6489-2.0646 4.9806l-137.79 137.79c-1.3303 1.3303-3.0989 2.0631-4.9806 2.0631" fill="url(#_Linear5)" fill-rule="nonzero" stroke-width="1.3959"/></g><g><path d="m182.14 255.29-1.021-4.566 2.387-8.586s1.102-15.868 2.204-26.447c1.101-10.578 7.493-25.124 7.493-25.124l28.43-1.322 0.43999 7.273s-1.322 11.019-4.848 15.868c-1.508 2.073-4.065 8.098-6.497 14.316z" fill="#a85c31"/><path d="m195.66 241.77c-6.474 0.466-13.396-0.596-12.733-5.148 1.087-7.457 2.262-15.896 2.787-20.935 1.101-10.578 7.493-25.124 7.493-25.124l28.43-1.322 0.43999 7.273s-1.322 11.019-4.848 15.868c-1.508 2.073-4.065 8.099-6.497 14.316z" fill="#0d2837"/><path d="m249.33 188.1-32.859 32.858-0.346-1.302-9.967-13.689 1.151-13.418 41.213-7.053z" fill="#384852"/><path d="m233.58 203.86c8e-3 -0.21 0.013-0.322 0.013-0.322l-1.322-8.375 3.746 0.661 0.156 5.443z" fill="#6c98b3"/><path d="m244.67 192.76c-2.226 1.052-5.19 2.203-9.134 3.403-30.986 9.431-43.232-4.261-43.232-4.261s3.012-9.697 1.359-16.859c-1.653-7.163-1.837-11.938-1.837-11.938l-22.038-10.101 32.874-13.59s-21.12-22.039-22.406-23.141c-1.286-1.102 13.958-0.184 13.958-0.184l9.917-3.673 7.53-5.693s-9.734-0.735-6.612-4.775c3.123-4.04 9.367-10.101 9.367-10.101l17.08 5.142 3.673-0.367 12.672 13.407-0.734 6.428s-5.694-3.122-10.285 0.367c-4.592 3.49-3.857 9.918-3.857 9.918l1.102 3.122c1.286 2.754 7.53 11.607 8.448 13.076 0.918 1.469 3.159 14.692 3.159 14.692l5.522 28.601z" fill="#0a3f60"/><path d="m234.51 123.65s-2.2777-3.3422 2.314-6.832c4.5906-3.4887 10.284-0.36694 10.284-0.36694l0.73499-6.4276-12.672-13.407-3.6738 0.36694-16.715-5.5515 6.0264 4.8804s12.342 36.742 11.057 33.987" fill="#6c98b3" stroke-width="1.1019"/><path d="m209.28 81.928s0 3.8568 3.1218 6.6116c3.1218 2.7548 8.4485 6.4276 8.4485 6.4276s-3.1229 6.2446-9.3664 8.9995c-6.2446 2.7548-6.9796 1.1019-6.9796 1.1019l-5.8766-8.8154z" fill="#ea972f" stroke-width="1.1019"/><path d="m173.68 73.803s5.6038 1.3528 2.2684 9.0449c-0.33676 0.77519 0.97492 5.5792 5.9093 9.9406 3.0498 2.6955 6.1869 9.157 8.3086 8.8115 9.4536-1.5394 20.453-14.541 20.241-16.507-0.35216-3.2773-0.14659-1.7717 0.0314-7.0072 0.0997-2.931 2.1743-2.5828 2.9247-4.6569 0.86081-2.3787 0.0271-8.462-0.79365-10.95-2.0065-6.0857-8.2647-9.674-12.459-10.874-11.083-3.1698-24.737 1.742-27.045 8.077-2.9381 8.0608 1.548 5.3709 0.6146 14.122z" fill="#ea972f" stroke-width="1.1019"/><path d="m199.51 97.542s6.742-5.642 7.978-7.792c1.236-2.149 1.236-4.389 1.556-0.933s0.896 8.384 0.896 8.384l-1.024 2.88-6.784 1.664-1.984-2.88z" fill="#a85c31"/><path d="m173.68 73.803s5.6038 1.3528 2.2684 9.0449c-0.33676 0.77519 0.97492 5.5792 5.9093 9.9406 3.0498 2.6955 6.2698 9.4906 8.3086 8.8115 0.76179-0.25323-5.6905-7.1808-6.6601-10.932-0.22117-0.85677-0.62093-2.5165 1.9506-1.3634 1.0547 0.4731 3.0245-2.464 2.7067-2.3898-4.1611 0.97455-6.9722-0.68877-6.3684-2.6355 0.46894-1.5138 2.6647-2.4893 2.6846-4.8297 0.0946-10.942-3.6611-7.2787 1.7301-12.439 2.93-2.8026 14.191-3.9251 17.348-7.3794 2.2573-2.4702-2.8056-7.8436-3.4473-8.0274-11.083-3.1698-24.737 1.742-27.045 8.077-2.9381 8.0608 1.548 5.3709 0.6146 14.122z" fill="#a85c31" fill-opacity=".49" stroke-width="1.1019"/><path d="m172.77 66.892c-2.6896-1.0823-2.7818 3.4985-3.3497 2.2359-4.7575-10.566 3.9585-12.425 3.9585-12.425s18.604-9.7249 23.218-8.2005c4.6145 1.5244 8.2438-0.8441 8.2438-0.8441l2.3936 1.3091s0.18007-0.61678 1.9238-0.04863c1.7438 0.56815 1.8607 1.4488 1.8607 1.4488s-1.5637-1.1849-2.4061-0.05279 2.4547 1.9766 2.4547 1.9766 2.4878 2.5375 3.2826 4.2657c0.79477 1.7282 2.8241 8.6008 1.9289 12.139s-6.3883 11.699-6.3883 11.699l-0.87367-2.7898-1.1733-3.2808 0.47514 0.55667s0.71612 1.8628 2.967 0.01968c2.2508-1.8431 2.3875-3.9294 1.6786-7.5028s-3.2908-7.3393-5.7166-4.4251c-2.4258 2.9142-1.2139 8.4062-1.2139 8.4062l-0.77113 3.9636-2.0966-1.0452-0.97378-8.0606-3.65-1.3215-1.252-6.2972 0.71445-4.9752-1.8926 2.8359s-0.80024-1.81-3.0966 0.72856c-1.5288 1.6903-13.032 8.6381-17.216 11.12-1.333 0.79027-1.5904-0.85668-3.0296-1.4363z" fill="#423534" stroke-width="1.1019"/><path d="m184.19 90.55s2.2767 0.42845 5.8626-1.5368c3.5858-1.9652 8.7064-7.6363 8.7064-7.6363s0.43464 2.9618 0.45533 4.779c0.0207 1.8172 0.64264 2.4516-1.9684 5.5283s-8.012 2.8976-8.012 2.8976z" stroke-width="1.1019"/><path d="m193.74 93.897c-2.2814 0.7575-4.7866-4.1973 0.23873-7.4375 3.2723-2.1097 4.9142-5.4586 4.9142-5.4586s0.30528 3.3375 0.32597 5.1547c0.0207 1.8172 0.64264 2.4516-1.9684 5.5283-0.9376 1.1036-2.2344 1.7886-3.5106 2.2132z" fill="url(#_Linear6)" stroke-width="1.1019"/><path d="m184.19 90.55s2.2767 0.42845 5.8626-1.5368c2.1425-1.1745 4.9234-3.6725 6.7428-5.4926 1.2246-1.2255-1.7735 4.051-2.8168 4.9817-1.1496 1.0247-0.63282 1.0408-4.9912 2.6708-3.153 1.1785-4.7975-0.62319-4.7975-0.62319z" fill="#fff2e6" stroke-width="1.1019"/><path d="m174.09 74.024s-1.0616-3.6803 0.89021-3.6224c1.9518 0.05796 3.25 0.23027 3.25 0.23027l1.7983 3.6011s-3.1967-0.24424-4.2678-0.41914-1.6708 0.21012-1.6708 0.21012z" fill="#423534" stroke-width="1.1019"/><path d="m197.19 67.786s-3.1044-3.8421-4.9581-2.7198-3.9804 3.4922-3.9804 3.4922l1.3744 2.6308s2.7035-2.0349 3.6426-2.7902c0.93911-0.75529 3.9215-0.613 3.9215-0.613z" fill="#423534" stroke-width="1.2267"/><ellipse transform="rotate(-14.688)" cx="154.04" cy="121.1" rx="1.1384" ry="1.708" stroke-width=".854"/><ellipse transform="rotate(-14.689)" cx="168.97" cy="120.87" rx="1.7788" ry="2.0521" stroke-width=".82085"/><path d="m182.74 72.298s1.9508 3.0964 1.4146 6.8435c-0.53704 3.7485-4.1653 5.8387-4.1653 5.8387s2.4371 2.7786 4.8389 2.5284c2.4032-0.24946 3.824-0.62192 3.824-0.62192l-0.76598-0.74927s0.27133 0.30936-3.1675-0.49795c-3.4399-0.80703-1.748-0.87119-1.748-0.87119s1.7986-2.3864 2.1184-5.6815c0.35903-3.7018-2.3491-6.7888-2.3491-6.7888" fill="#a85c31" stroke-width="1.1019"/><path d="m198.08 59.883s3.3598 15.193 5.8391 18.224 3.4138 4.9278 2.1267 10.468c-1.4072 6.0606-3.351 5.2948-3.351 5.2948l-2.2193 2.832-1.1019 1.1019s2.7548-1.7069 4.4077-2.8926c3.1339-2.2501 4.1289-1.3763 4.9895-7.2551 0.77355-5.2926 0.65785-8.4474 0.65785-8.4474l4.1322-3.3058 0.13774-3.5813-1.6529 1.6529-1.1019 1.5152-3.4435 1.9284s-2.6171-3.168-3.0303-5.6474-1.6529-8.9532-1.6529-8.9532v-2.0661z" stroke-width="1.1019"/><path d="m162.62 60.724s0.45289-0.26997 5.7962-4.886c1.7631-1.5218 3.3212-4.4992 6.5455-6.7945 10.127-7.2088 23.61-14.367 35.785-9.8072 2.7967 1.0468 2.7945 5.3212 4.292 6.9047 0.81763 0.86501 4.9862 4.3669 5.33 5.2055 1.1317 2.7658-1.1813 6.638-0.50358 12.298l-2.3967 9.9174-7.0634 6.3581 1.7994-5.0623 1.7653-5.0975s-2.6446-10.358-6.6116-7.4931c-2.9576 2.1355-5.0689-2.6446-10.579-2.4242-5.5096 0.22038-9.9174 2.6446-9.9174 2.6446s-3.6386 1.8854-10.358 3.0854c-3.3135 0.59063-8.8639 0.79449-11.804-0.79559-1.1074-0.59945-2.0804-4.0529-2.0804-4.0529z" fill="#6c98b3" stroke-width="1.1019"/><path d="m196.78 42.072 3.3058 2.0815s6.1223-0.36804 6.8573-2.2039c0.73389-1.8369-0.73498-1.9592-0.73498-1.9592-0.14435 0.04848-7.9835 0.4573-9.4281 2.0815z" stroke-width="1.1019"/><path d="m205.33 41.984c-1.9405 1.6088-6.8298 1.1714-6.8298 1.1714l1.5846 0.99835s6.1223-0.36804 6.8573-2.2039c0.73389-1.8369-0.73498-1.9592-0.73498-1.9592-0.043 0.01432-0.74491 0.0595-1.7543 0.15647-2.4342 0.23581 2.8176 0.227 0.87713 1.8369z" fill="#3a464d" stroke-width="1.1019"/><path d="m181.29 55.003c0.14955 0.27488 5.3748-3.7002 7.1853-4.7817 1.871-1.1178 6.0212-3.0257 6.0212-3.0257l-3.2791-2.7046s-4.2744 0.39287-6.1773 2.052c-1.903 1.6581-5.6187 7.5456-5.6187 7.5456s1.4976 0.80482 1.8686 0.91436z" stroke-width="1.1019"/><path d="m181.29 55.003c0.14955 0.27488 5.3748-3.7002 7.1853-4.7817 1.871-1.1178 6.0212-3.0257 6.0212-3.0257l-3.2791-2.7046s-2.1626 0.0209-1.49 0.65585c0.13449 0.12655 2.7488 1.6546 2.7176 1.6777-2.0181 1.5165-12.601 7.491-12.149 7.7212 0.39842 0.2023 0.82006 0.40601 0.99384 0.45732z" fill="#849fae" fill-opacity=".44" stroke-width="1.1019"/><path d="m162.78 61.333c-0.32066-0.1741 1.7939-1.286 6.313-5.0391 1.4744-1.2253 3.1074-4.7405 5.3598-5.5041 6.7427-2.2832-1.8986 4.9818 0.95427 7.5967 3.0435 2.789 14.347-0.73719 24.354-5.0479 3.8997-1.6804 10.013 0.14105 12.836-1.286 2.7791-1.405 2.2953-6.0738 2.4496-5.9118 0.81763 0.86501 4.9862 4.3669 5.33 5.2055 0.35152 0.8595 0.50799 0.1719 0.38788 1.2639-0.0308 0.2876-3.0777 5.438-6.8099 4.7141-4.7824-0.92893-15.641-1.9317-14.549 0.0551 0.17411 0.31625 7.4017-0.78237 15.403 3.5317 2.9895 1.6121 5.2165-2.8705 5.1669-2.5113-0.21377 1.5548-0.33609 3.2926-0.10248 5.2441l-2.3967 9.9174-7.0634 6.3581 1.7994-5.0623 1.7653-5.0975s-2.6446-10.358-6.6116-7.4931c-2.9576 2.1355-5.0689-2.6446-10.579-2.4242-5.5096 0.22038-9.9174 2.6446-9.9174 2.6446s-3.6386 1.8854-10.358 3.0854c-2.0099 0.35813-7.9945 0.76254-11.128-0.47493-2.0298-0.8022-1.4479-3.1394-2.6039-3.7642z" fill="#e6f6ff" stroke-width="1.1019"/><path d="m162.62 60.724s11.748 1.5207 17.091-3.0953c1.4083-1.2165 11.831-10.746 25.242-13.75 8.0011-1.7917 3.632-4.7052 5.7939-4.6424 2.9851 0.08485 2.7945 5.3212 4.292 6.9047 0.81763 0.86501 4.9862 4.3669 5.33 5.2055 1.1317 2.7658-1.1813 6.638-0.50358 12.298l-2.3967 9.9174-7.0634 6.3581 1.7994-5.0623 1.7653-5.0975s-2.6446-10.358-6.6116-7.4931c-2.9576 2.1355-5.0689-2.6446-10.579-2.4242-5.5096 0.22038-9.9174 2.6446-9.9174 2.6446s-3.6386 1.8854-10.358 3.0854c-3.3135 0.59063-8.8639 0.79449-11.804-0.79559-1.1074-0.59945-2.0804-4.0529-2.0804-4.0529z" fill-opacity=".39" stroke-width="1.1019"/><path d="m183.07 58.601s5.0204-4.0408 9.1835-6.3669c4.162-2.3262 7.4678-1.2242 7.4678-1.2242l1.3477 1.8369-9.5504 4.1631z" stroke-width="1.1019"/><path d="m183.07 58.601s0.51129-0.1146 2.1422-1.3179c0.9113-0.67218 5.5405-0.07163 12.648-4.065 2.3537-1.3223-1.4512-2.4099-0.80991-2.4496 1.6386-0.10248 2.6711 0.24132 2.6711 0.24132l1.3477 1.8369-9.5504 4.1631z" fill="#3a464d" stroke-width="1.1019"/><path d="m214.05 62.642 4.7758-0.49036s1.5912-0.61157 0.12232 2.4496c-1.47 3.0601-2.3262 4.162-2.3262 4.162l-2.3262-2.0815-2.3273-4.6523z" stroke-width="1.1019"/><path d="m205.35 49.419s3.0612-0.73499 4.7758-3.3058c1.7135-2.5708 2.4485-1.4689 2.4485-1.4689l1.3466 3.795s2.2039 1.2242-0.12231 2.9388c-2.3262 1.7135-8.2028 0.97962-8.2028 0.97962l-0.24573-2.9388" stroke-width="1.1019"/><path d="m210.99 45.022c1.1019-1.1063 1.5868-0.37796 1.5868-0.37796l1.3466 3.795s2.2039 1.2242-0.12231 2.9388c-2.3262 1.7135-8.2028 0.97962-8.2028 0.97962l-0.10028-1.1956s4.8121 1.5251 8.0529-1.2143" fill="#3a464d" stroke-width="1.1019"/><g><path d="m142.36 102.34s15.427-2.7548 21.818 0.33058c6.3912 3.0854 8.595 3.9669 8.595 3.9669s20.055-6.0055 34.16-6.6667c14.105-0.66116 22.259 0.99174 22.259 0.99174s-3.416 8.1543-7.8237 19.394-5.6198 18.237-5.6198 18.237l10.028 42.149s-25.779-3.914-42.7-4.8485c-16.97-0.93664-27.383-2.1488-27.383-2.1488l-0.69532-20.814-4.0771-16.642z" fill="#abd57e" stroke-width="1.1019"/><path d="m183.95 175.94c-1.786-1.66-3.063-2.927-3.063-2.927-0.62-1.488-20.326 1.768-20.159-11.412 0.186-3.329 4.435-8.77 6.57-8.441 2.135 0.33 3.814 5.76 4.983 8.116 1.17 2.356 3.463 3.556 3.463 3.556l0.094-2.47 20.536-13.428 8.467-5.072s0.611-2.619 0.102-5.692c-0.51-3.074 0.464-8.322 3.503-6.281 3.039 2.04 4.31 6.588 3.433 8.561-0.877 1.973-1.164 3.11 0.409 7.96 1.573 4.849-3.041 6.648-4.524 8.823-1.482 2.175 1.088 7.071 3.558 8.97 2.469 1.899 4.397-0.543 5.907 0.966 0.94999 0.94999 3.554 1.293 5.746 1.823l1.57 6.599c-0.116 0.192-0.23 0.389-0.342 0.59199-0.739 1.346-0.889 2.675-0.554 4.242-2.521-0.368-7.078-1.015-12.53-1.715-2.768-4.561-9.971-5.05-13.911-5.339-2.718-0.199-4.37 1.462-4.562 3.252-3.016-0.282-5.96-0.518-8.696-0.68299zm16.792-39.577c0.526-0.40999 0.263-3.174-0.235-4.384-0.531-1.291-0.756-3.891-2.228-6.549-1.471-2.658-3.608-2.182-4.963-1.21-1.355 0.973 0.93499 3.785 3.543 7.531 0.089-0.053 3.086 4.747 3.762 4.664 0.045-7e-3 0.086-0.025 0.121-0.053z" fill="#668b1c" fill-rule="nonzero"/><path d="m200.16 100.6c-1.031 1.743-1.844 3.556-1.905 4.574-0.111 1.836-1.772 12.001-0.46299 15.4 1.31 3.398 10.406 18.381 7.367 24.224-3.039 5.842-14.438 8.649-15.303 13.672-0.271 1.57-1.515 2.948-3.216 3.957-3.742 2.222-9.69 2.638-12.313-0.768-3.815-4.954-5.106-16.407-0.61899-17.004 4.486-0.596 12.519 4.727 15.517 1.644 2.997-3.083-7.12-15.523-11.85-17.355-4.731-1.831-10.581-4.118-16.394 0.329-3.867 2.959-7.665 6.304-9.773 8.211l-0.294-1.2-0.075-0.29799c3.921-3.75 13.951-12.877 21.185-10.111 7.54 2.884 11.494 1.802 12.288-2.534 0.793-4.337-12.951-10.904-17.658-15.324-4.706-4.42-11.008-4.023-14.351-5.56l2.585-1.253c0.229-1e-3 0.458 1e-3 0.686 4e-3 7.19 1.843 9.22 3.097 9.22 3.097s0.245-0.43999 0.471-1.113l0.056 0.027c0.18 0.086 0.36 0.172 0.539 0.258l0.49699 0.237c0.034 0.49299 0.122 0.88599 0.305 1.081 0.674 0.722 6.01 2.351 7.929 3.937 1.919 1.586 3.176 4.694 6.16 7.25 2.984 2.556 10.661 8.092 13.893 3.582 3.232-4.51 1.01-13.476 2.709-16.906l1.847-1.926c0.321-0.046 0.641-0.089 0.96-0.132zm1.728 44.146c-0.455 0.272-2.541 0.496-3.013 0.276-1.511-0.703-2.77-3.006-2.27-3.788 0.501-0.782 2.276-6.511-0.299-8.991-2.575-2.479-5.731-8.15-3.859-9.271 1.871-1.121 2.852-1.709 4.274-0.952 1.422 0.757 4.117 5.256 5.603 9.353 1.485 4.097 3.008 7.851 2.326 10.351-0.469 1.719-1.761 2.424-2.762 3.022zm-25.582-31.712c-0.076 0.038-1.677-1.258-3.677-2.322-2.134-1.135-3.499-3.213-3.499-3.213s2.862 1.342 4.408 2.507c1.546 1.166 2.77 3.007 2.77 3.007 9e-3 0.014 2e-3 0.018-2e-3 0.021z" fill="#2a78cb" fill-rule="nonzero"/><path d="m185.14 103.6c-0.89059 2.0876-2.1862 4.1615-4.1918 5.8362-2.8335 1.5367 1.373 6.7391 0.72903 8.0903-0.64367 1.351-3.663-1.6671-6.4582-1.2795-2.7955 0.38773-7.9536 6.5347-6.746 7.7415 1.2075 1.2074 4.6942 2.1755 4.3721 2.8508-0.32187 0.67574-4.4487-0.55263-5.5381 1.0653s-15.312 9.8168-13.459 16.751c0.66515 2.4883 0.35874 4.6055-0.30699 6.2972m49.345-45.328c-2.9302 4.8123-3.3232 5.3694-2.4193 7.0802 0.90388 1.7109 4.5574 7.4054 6.7435 8.8305 1.9307 1.259 6.6088 3.1078 10.52 6.5674 0.24239 0.21428-1.5822 13.233 0.42118 21.617 1.7007 7.1181 3.5858 15.312 3.5858 15.312s-1.5196 1.6333-1.7631 2.2699c-0.93657 2.447 2.158 7.8425 2.3618 12.784m-17.536-78.342c-2.8009 2.8041-3.8721 4.2504-4.696 6.5134-0.82401 2.2636-1.0752 3.0573-0.384 4.4131 0.69098 1.3555 3.19 6.133 7.3109 9.7776 4.121 3.6446 9.9925 12.448 10.534 16.789 0.54189 4.3409-0.97676 22.21-4.8016 21.284-3.8244-0.92616-8.5876-4.0251-11.243-2.5956-2.6552 1.4303-3.7629 3.2196-3.8922 5.2278-0.129 2.008 1.304 5.8151 3.2771 6.8854 1.9732 1.0698 7.0859-0.70561 8.8445 0.81484 1.3533 1.1702 5.7493 3.9472 7.2583 8.2915m-15.376-77.434c-1.377 2.7556-3.0921 5.553-2.9193 7.8627s1.2128 6.6738 3.0569 9.7521c1.8439 3.078 11.461 16.301 11.182 21.294-0.27859 4.9932 1.227 15.996-2.6725 16.562-3.8993 0.56653-7.1329-2.001-10.538 0.19946-3.4049 2.2006-6.6186 6.539-5.1694 10.98 1.4493 4.4405 10.154 4.2135 12.229 7.4751 0.46282 0.72745 0.82259 1.5245 1.0529 2.373m0.97753-64.885c2.2908 2.4144 8.0249 7.6567 12.635 6.6313m-8.9636 45.386c4.5902 0.78946 5.0867 1.6182 4.7651 2.2938-0.32208 0.67538-5.0726-0.17889-6.8148-1.0659-1.7423-0.88646 0.23463-1.4276 2.0497-1.2279zm-9.388-4.3502c-2.3697 1.098-3.7286 3.6815-1.988 5.3741 1.7404 1.6922 6.5128 0.76386 5.5742-1.4091-0.93813-2.1728-3.6918-4.5454-3.5862-3.9649z" fill="none" stroke="#121705" stroke-opacity=".75" stroke-width=".47949px"/><path d="m172.87 106.87-1.9356 5.6643-14.271-1.586-6.2439 6.1537 4.5574 7.4054 5.3561 0.65225 2.9022 15.154-0.98584 3.0038-6.9508 8.2389m63.183-5.25-3.5966-4.2759 1.1737-15.022-6.187-3.0501 1.0151-8.009-1.455-2.024-14.169-7.278-3.0757 6.1865-12.556-4.383-0.79669-2.9445" fill="none" stroke="#cf3939" stroke-linejoin="miter" stroke-width=".95898px"/><path d="m142.36 102.34s15.427-2.7548 21.818 0.33058c6.3912 3.0854 8.595 3.9669 8.595 3.9669s20.055-6.0055 34.16-6.6667c14.105-0.66116 22.259 0.99174 22.259 0.99174s-0.26998 0.64573-0.75703 1.8226c-1.243 3.0083-2.0992-3.1063-24.867-0.6281-12.001 1.3069-29.819 6.2369-29.819 6.2369s-11.646-8.4232-27.217-4.7901c-3.1438 0.73278-4.0055 1.9526-2.8011 4.173 10.346 19.082 15.96 66.39 13.855 66.172-1.2408-0.12783-1.892-0.20386-1.892-0.20386l-0.69532-20.814-4.0771-16.642z" fill-opacity=".34" stroke-width="1.1019"/><path d="m155.73 163.13 24.745 2.1477 41.849 1.3719 3.4501 14.091s-25.779-3.914-42.7-4.8485c-16.97-0.93664-27.383-2.1488-27.383-2.1488z" fill="#ccc" stroke-width="1.1019"/><path d="m156.62 163.97 0.16016 1.3789 0.90039 0.0156 0.0137-1.2891zm2.5 0.44336-8e-3 0.64453 11.35 1.1016 8e-3 -0.64454zm14.07 1.0918 0.16406 1.377 0.89844 0.0176 0.0156-1.2891zm2.5 0.62305-6e-3 0.64453 5.2188 0.43945 7.9824 0.11719-0.0391-0.68946-8.0703-0.084zm15.445 0.3789 2.0078 9.1484 0.68359 0.20898-1.8164-8.582 30.113 0.98828-0.21289-0.63476zm-33.479 1.1133-0.98632 0.0742 0.0703 1.2891 0.90234-0.0742zm1.4238 0.33789-6e-3 0.64454 12.053 0.74804 6e-3 -0.64453zm34.281 0.35157 1.2441 7.5957 0.72266 0.13477-1.1856-7.5703zm2.584 0.12304-0.63672 0.041 1.3301 7.7988 0.66407 0.13086zm3.2891 0.12891 1.2832 7.8438 0.74805 0.13672-1.2227-7.8144zm-1.9492 0.0449 1.3301 7.9727 0.66406 0.0742-1.2422-8.0312zm4.623 0.0801-0.65821 0.041 1.373 8.0527 0.6875 0.13672zm1.3867 0.17969 1.3711 8.2305 0.68945 0.0781-1.2832-8.293zm1.9961 0.0547 1.3965 8.5273 0.8125 0.15039-1.3301-8.498zm2.9023 0.13867-0.71679 0.0449 1.4941 8.7559 0.74609 0.14844zm-33.334 2e-3 -0.98828 0.0742 0.0762 1.2891 0.89648-0.0742zm37.025 0.14062 1.4394 8.8066 0.8418 0.15234-1.373-8.7734zm-2.1894 0.0508 1.4922 8.9512 0.74805 0.084-1.3965-9.0156zm5.1914 0.0918-0.74023 0.0469 1.541 9.0391 0.77149 0.15234zm1.5566 0.19922 1.541 9.2422 0.77344 0.0859-1.4414-9.3086zm4.8125 0.0977 1.6758 9.7637 0.81836 0.0879-1.5703-9.8359zm-43.932 0.0293-8e-3 0.64453 4.4121 0.27343 7.5957 0.0684 6e-3 -0.64453-7.7031-0.0762zm41.617 0.041 1.4199 9.2598 0.77344 0.0977-1.3203-9.3281zm-62.033 1.2773-0.0137 1.2891 1.4297 0.0156 0.0137-1.2891zm2.8535 0.35352-6e-3 0.64453 13.729 1.3613 6e-3 -0.64453zm15.391 1.3613-0.0137 1.2891 1.4277 0.0156 0.0137-1.2891zm2.8535 0.35156-8e-3 0.64453 4.627 0.45899 8.1992 0.18164 6e-3 -0.64453-8.3476-0.19532z" fill-opacity=".48" stroke-width=".33926"/><path d="m142.36 102.34s15.427-2.7548 21.818 0.33058c6.3912 3.0854 8.595 3.9669 8.595 3.9669s1.9019 34.145 2.1025 36.187c0.11901 1.2132 8.3118 33.106 8.2006 33.069-2.6468-0.87493-27.383-2.1488-27.383-2.1488l-0.69532-20.814-4.0771-16.642z" fill-opacity=".18" stroke-width="1.1019"/><path d="m150.92 136.29 24.834 6.659 39.993-4.3537 10.028 42.149s-25.779-3.914-42.7-4.8485c-16.97-0.93664-27.383-2.1488-27.383-2.1488l-0.69532-20.814z" fill-opacity=".24" stroke-width="1.1019"/></g><path d="m232.71 142.23-2.6083-6.9422s-1.038-3.7774-2.9521-6.1212c-0.89808-1.0986-1.989-1.8832-3.2551-1.8127-3.967 0.22038-2.4242-0.66116-2.4242-0.66116l-1.1019 3.5262s-5.2893-0.22038-8.3747 1.7631-6.1708 3.7466-6.1708 3.7466l0.44077 2.2039h2.2039l2.865-1.1019 2.865 0.22039s-2.4242 1.3223-3.7466 3.9669c-1.3223 2.6446 0 5.9504 0 5.9504l3.0854 2.4242 5.73-0.44077 7.7135 2.6446s24.652 14.028 25.462 13.295c1.4072-1.2738 8.4286-4.7747 9.1714-6.3493 0.15097-0.32066-13.187-36.042-14.298-42.159-0.0859-0.47383-1.7862-4.2832-2.1168-4.2369-11.976 1.6926-15.37 12.625-14.448 15.516 1.7212 5.3984 7.6022 16.554 7.5648 16.241-0.0275-0.22369-5.4953-1.5074-5.6055-1.6738z" fill="#ea972f" stroke-width="1.1019"/><path d="m222.15 130.78 0.6303 3.1482-1.5746 3.1482 0.94435 1.4171 0.6303 5.1945-1.2595 2.8342-0.78788 2.2039s3.9361 2.8331 5.8248 2.6755c1.8887-0.15757 6.6116-6.454 6.6116-6.454l-2.6755-10.993-3.7785-4.5917z" fill="#a85c31" stroke-width="1.1019"/><path d="m173.67 74.32 6.011-1.5912 2.2733 0.9168s-0.75703-0.46942 0.63801-0.77906c1.3962-0.30964 1.6254-0.46832 1.6254-0.46832l0.71625-1.2617s6.13-3.319 8.4474-3.5504c1.7477-0.17521 3.8898-2.1289 5.1912-1.0766 0.52231 0.42314 7.4006-1.3543 7.1901-0.39229-0.25014 1.1416-0.30744 1.7278 0.0474 2.7074 0.0331 0.09036-5.4402-0.13223-5.8689 0.77686-0.59174 1.2573-0.93113 4.1168-2.519 5.9427-4.3548 5.0083-6.4893 4.0408-6.4893 4.0408-2.1322-0.69091-3.0534-1.784-4.1631-2.8165l-2.0364-1.7466s-2.0099 0.04959-1.6584 1.0347c0.54876 1.5438-0.20827 3.1427-0.20827 3.1427s-0.37135 2.1774-1.5504 2.6556c-2.2942 0.93223-5.0612-2.1223-5.0612-2.1223z" stroke-width="1.1019"/><path d="m185.75 72.91s0.91681 2.8209 2.5388 3.8083c1.622 0.98733 3.6672 1.5515 3.6672 1.5515s3.0325-2.1862 3.9493-3.0325c0.91681-0.84628 2.4683-5.5714 2.4683-5.5714s0.56419-1.3399 0-1.7631c-0.56418-0.42314-6.5587 1.7631-6.5587 1.7631s-5.6419 2.2568-6.065 3.2441z" fill="url(#_Linear7)" stroke-width="1.1019"/><path d="m175.31 75.096s1.9041-0.63471 3.103-0.63471 2.3273 0.21157 2.8209 0.98733c0.49367 0.77576 0.77576 2.5388 0.77576 2.5388l-1.0578 2.6799s-3.1736-0.9168-4.1609-1.622c-0.98733-0.70524-1.481-3.9493-1.481-3.9493z" fill="url(#_Linear8)" stroke-width="1.1019"/><path d="m146.08 147.97-1.4326-5.7265 1.2178-3.1949s0.0925-3.7222 3.5255-3.8156c3.433-0.0934 7.3231-0.38531 7.3231-0.38531l1.6922 2.1857-1.5518 2.832-5.4858 2.3811-2.0968 1.5449 4.8484 0.054 4.5496-2.3556 1.1425 6.1063-0.38265 4.102-3.4463 2.5116-2.721 1.5619s-5.7932-2.818-7.182-7.8018z" fill="#ea972f" stroke-width="1.2046"/><path d="m151.12 135.4 0.29606 3.3777-2.1142 1.9936-0.94687 2.405 1.4547 0.18404 5.753-2.1038 3.0752-1.9331-0.78421-4.6406c-2.3883-0.82495-4.4908 0.47082-6.7337 0.71718z" fill="#a85c31" stroke-width="1.2046"/><path d="m153.31 145.73-0.56989 5.2031 0.0601 3.9782 2.3904 0.0566 4.1968-3.0329 0.90206-3.9178-1.3968-6.8356-3.856 2.0383-1.2778 1.1209" fill="#a85c31" stroke-width="1.2046"/></g><g><path d="m114.23 147.01-4.4077 15.742-1.5747 5.8237-1.2584 1.4171-1.1019-5.8248 2.5179-5.9813 0.94435-6.14z" fill="#423534" stroke-width="1.1019"/><path d="m94.356 242.11c-0.352-3.638-0.823-8.548-1.344-14.096-1.101-11.754-15.133-27.034-15.133-27.034l-1.836-19.467 31.588 1.102s7.986 21.904 8.816 37.465c0.348 6.528 0.918 10.642 2.586 12.536 1.777 2.016 4.651 1.663 4.82 4.034 0.133 1.881 4.682 5.841 3.625 6.961-0.996 1.055-4.695 0.92099-4.685 3.038 0.011 2.453 2.469 8.326 2.469 8.326l-8.815 6.979-3.371-1.124z" fill="#4c4b13"/><path d="m55.201 202.96 3.798-10.129 45.327 1.763-0.368 15.28-7.493 6.391s-2.775 11.021-5.27 22.689z" fill="#5e5d0b"/><path d="m108.26 83.588-53.955-11.965s-10.668 2.4389-13.412 10.669c-2.7435 8.2304-3.3534 19.814-3.3534 19.814l0.60997 5.4869 3.048 0.60905v4.2679l-8.5349 53.955 7.0105 9.4494 9.4504 6.0969 11.278 0.30453h6.4014l29.874-10.668s6.887-43.332 15.241-57.766c8.3539-14.433-3.658-30.254-3.658-30.254z" fill="#4c4b13" stroke-width=".91449"/><g transform="matrix(-.91449 0 0 .91449 268.36 3.7834)" clip-path="url(#_clip9)">
                <g transform="translate(-30.847 6.7478)">
                    <path d="m203.07 86.183c-0.667 5 0.333 25.334 0.333 25.334l1.445 8.111 3.333 3.889 5.333 2.333-3.778-40.667s0.223-3.778 3.223-5.444c3-1.667 4.777-1.556 4.777-1.556l-1.494-1.369-10.839 2.036s-1.667 2.333-2.333 7.333z" fill="#423534"/>
                </g>
            </g><path d="m118.27 231.65 1.8358 10.468-0.9179 10.284-2.3879 8.2645 8.4485-5.5096-7.2705 1.4336 1.5317-7.7972 0.0871-9.5802 2.162 4.9245 1.47 0.9179 4.7747-1.8358-5.6937-4.7758-2.713 0.76915-1.3267-7.5636" fill="#34423b" stroke-width="1.1019"/><path d="m70.709 135.35s8.1333-1.2331 3.5416-4.7229c-4.5906-3.4887-10.284-0.36694-10.284-0.36694l-0.73499-6.4276 12.672-13.407 3.6738 0.36694 17.08-5.1416s15.5 8.2645 18.623 12.304c3.1218 4.0408 2.1664 9.0358 0.88155 10.138-1.286 1.1019 5.968 11.515 5.968 11.515l-16.216 17.338 3.416 20.514c2.2116 8.1157 0.16969 6.378 4.8661 17.631 0 0-21.042 18.036-38.659 14.876-17.617-3.1592-23.141-16.712-23.141-16.712 2.1333-7.8226 12.672-26.21 12.856-26.814 3.8237-12.581-0.23692-20.963 1.049-23.718" fill="#593e19" stroke-width="1.1019"/><path d="m61.321 74.977-7.0114-3.3534s-10.974-0.60905-13.412 10.669c-0.29081 1.3425 7.3964-8.0119 7.3964-8.0119s14.246-1.743 12.112 9.5363c-0.58802 3.1065-4.3969-2.5148-6.5743-3.8829-3.2849-2.0631-5.3543-1.3251-5.3543-1.3251l-7.2757 33.862-8.5349 53.955 7.0105 9.4494 9.4504 6.0969s4.3768-2.3996 3.048-9.7549l12.193-83.828z" fill="#5e5d0b" stroke-width=".91449"/><path d="m82.659 82.597c0.60996 4.5725-0.30453 23.168-0.30453 23.168l-1.3214 7.4174-3.048 3.5564-4.877 2.1335 3.4549-37.19s-0.20393-3.4549-2.9474-4.9785c-2.7435-1.5245-4.3685-1.4229-4.3685-1.4229l1.3662-1.2519 9.9122 1.8619s1.5245 2.1335 2.1335 6.706z" fill="#423534" stroke-width=".91449"/><path d="m76.565 137.46s2.2777-3.3422-2.3141-6.832c-3.3003-2.508-8.6678 0.1708-11.779 1.243-1.2165 0.41873-2.6171-0.36033-2.6171-0.36033l4.3769-11.677 11.672-9.4072 3.6738 0.36694 14.417-4.3548-5.7785 1.7455s-10.606 29.707-9.3212 26.952" fill="#fac884" stroke-width="1.1019"/><path d="m73.438 112.57s1.4476-1.8546 5.1056 4.8523c3.658 6.706 6.4014 17.984 6.0969 21.948-0.30453 3.9625-10.364 16.461-10.364 16.461l-13.717 5.1815-4.2679 5.7924-2.4389-0.91449v-10.974s4.8779 19.204 11.279 15.851c6.4014-3.3534 10.974-7.3159 10.974-7.3159l6.4014-8.2304s5.1815-17.375 5.4869-21.948c0.30452-4.5725-4.5725-19.509-4.5725-19.509l-1.7787-4.2935c-2.3886 0.064-10.379 1.6086-8.2048 3.0992z" fill="#423534" stroke-width=".91449"/><path d="m106.94 111.6 9.222 16.489s3.0017-4.3581 0.13664-9.2066c-2.865-4.8485-9.3587-7.2826-9.3587-7.2826z" fill="#bb935c" stroke-width="1.1019"/><path d="m106.99 111.28 4.0926 2.2039 1.7311 8.1862 2.8342 6.7692-5.5096-7.8711z" fill="#423534" stroke-width="1.1019"/><path d="m101.8 95.729s0 4.8209-3.1218 7.5758c-3.1218 2.7548-8.4485 5.4634-8.4485 5.4634s3.1229 6.2446 9.3664 8.9994c6.2446 2.7548 6.2909-5.9229 6.2909-5.9229l4.4992-4.5455z" fill="#ea972f" stroke-width="1.1019"/><path d="m124.5 130.59-4.5891-4.2222-0.22951-2.5197s-1.5479-1.7234-3.9239 0.48833c-2.376 2.2118-4.9163 5.5572-4.9163 5.5572l0.17623 2.2524 0.84978 0.12007 4.3276-4.0609-3.0243 4.5714-1.0207 1.0834-0.4299 0.70389 3.276 4.8732 2.976 2.5115 3.9873-0.59059 2.8691-0.75011s2.0378-5.7383-0.32842-10.018z" fill="#a85c31" stroke-width="1.1386"/><path d="m112.78 126.28 4.5394-3.08 0.70528 1.8745-4.2635 1.9977-1.5408 2.0049-1.2197 3.0365-1.0312-1.3053c1.0632-2.1386 1.1346-3.2091 2.8104-4.5282z" fill="#c47530" stroke-width="1.1386"/><path d="m114.99 132.97 3.3103 0.0724 1.7121 3.1265 1.9686 0.83332 2.5955 2.7214-1.5738 1.6221-4.8386 0.73649-3.204-2.0431-3.5878-5.5332 3.0018-3.2112 0.79261-0.72436" fill="#c47530" stroke-width="1.1386"/><path d="m138.08 85.952s-6.4297 1.3527-3.0943 9.0449c0.3357 0.77491-0.14842 4.8902-5.0828 9.2516-3.0498 2.6955-8.3916 9.4323-10.513 9.0868-9.4536-1.5394-16.539-10.963-17.133-12.849-0.99549-3.1556 0.88125-7.2818-1.6236-8.5991-2.596-1.3651-2.1743-2.5828-2.9247-4.6569-0.86081-2.3787-0.02714-8.462 0.79365-10.95 2.0065-6.0857 8.2647-9.674 12.459-10.874 11.083-3.1698 24.737 1.742 27.045 8.077 2.9381 8.0608 1.3442 7.5746 0.0737 12.469z" fill="#ea972f" stroke-width="1.1019"/><path d="m138.08 85.952s-6.4297 1.3527-3.0943 9.0449c0.3357 0.77491-0.14842 4.8902-5.0828 9.2516-3.0498 2.6955-8.3916 9.4323-10.513 9.0868-1.6159-0.26295-2.9249-2.0095-2.2251-1.637 4.6808 2.4903 13.584-10.315 13.092-11.879-0.28275-0.89431-8.9747-11.089 1.0149-14.775 3.3531-1.2365-1.507-0.17859-4.2882-4.3183-6.6622-9.9198-10.442-5.396-12.005-6.512-6.7757-4.8325-5.6413-8.3433-4.0168-8.8083 11.083-3.1698 24.737 1.742 27.045 8.077 2.9381 8.0608 1.3442 7.5746 0.0737 12.469z" fill="#a85c31" fill-opacity=".6" stroke-width="1.1019"/><path d="m141.9 84.663c-0.24223 0.2418 1.9133-0.22411 2.1823-6.1957 0.15147-3.3504-1.1332-10.213-1.1332-10.213s-4.4152 1.3032-8.8885-1.7091c-6.9411-4.6753-16.344-10.457-19.15-9.5299-4.6145 1.5244-8.6836 4.4448-8.6836 4.4448s10.492-5.307-3.5448-16.224c-6.2738-4.8786-24.372 0.9862-21.704 17.859 0.1448 0.92081 1.9814 3.5404 3.976 6.1696 0.321 0.42247-0.59367-7.6957 0.96815 1.2608 0.10687 0.61354 0.76159 0.9754 1.1268 1.4379 1.7269 2.1819 3.1486 3.8897 3.1486 3.8897s-0.73087-3.5088 4.4124-10.792c1.0578-1.4975 7.0025-2.0775 7.8448-0.94531 0.84239 1.1321-2.4547 1.9766-2.4547 1.9766s-2.4878 2.5375-3.2826 4.2657c-0.79477 1.7282-2.8241 8.6008-1.9289 12.139s7.1786 13.843 7.1786 13.843l0.0834-4.9335 1.1733-3.2808-0.47513 0.55667s-0.71612 1.8628-2.967 0.01968c-2.2508-1.8431-2.3875-3.9294-1.6786-7.5028 0.70887-3.5734 3.2908-7.3393 5.7166-4.4251 2.4258 2.9142 1.2139 8.4062 1.2139 8.4062l0.77113 3.9636 2.0966-1.0452 0.97377-8.0606 3.65-1.3215-0.29082-4.9746s7.1354-1.1244 9.0996 0.07393 7.876 7.0017 9.6083 7.9069c0.84756 0.44317 5.7576-0.39202 5.2799 3.3639-0.25222 1.9878-1.4435 3.0733-1.4832 3.1551-0.0506 0.10179 2.5872-1.0351 4.658-2.8378 0.95183-0.82814 1.6446-5.57 1.6446-5.57s3.0762 2.6142 0.85884 4.8285z" fill="#a01805" stroke-width="1.1019"/><path d="m141.9 84.663c-0.24223 0.2418 1.5453-0.95849 1.8154-6.9298 0.15146-3.3504-3.5213-7.0916-3.5213-7.0916s-1.476 0.38544-5.9501-2.6282c-6.94-4.6751-15.977-9.3542-18.782-8.4274-4.6145 1.5244-13.007 4.5303-13.007 4.5303s13.896-6.4937-0.14095-17.41c-6.2735-4.8797-22.535-0.85044-19.867 16.023 0.07979 0.50392 4.6018-14.822 10.313-14.812 1.6034 0.0022 7.5362-1.745 8.8286 0.72968 7.9382 15.204-0.85649 5.9748-0.29259 6.6136 5.8255 6.602 0.94482 8.5681 1.1586 8.8565 0.84239 1.1321 0.85091 4.9152 0.85091 4.9152s-4.3239-0.40096-5.1187 1.3273c-0.79477 1.7282-2.7879 10.892-1.7452 11.403 0.31176 0.15349 2.1554-6.6493 2.1554-6.6493l3.4276-4.0933 2.8109 2.7748 1.0785-4.6271 4.8511 1.6362s6.9506-8.8371 8.9148-7.6388c1.9642 1.1984 11.55 8.2871 13.282 9.1923 0.84756 0.44317 3.47 2.5808 4.164 6.8864 0.0174 0.11165 4.0984-4.184 4.0984-4.184s2.893 7.3894 0.67565 9.6037z" fill="#ff766a" fill-opacity=".45" stroke-width="1.1019"/><path d="m126.4 102.79s-1.954 0.36772-5.0316-1.3189c-3.0776-1.6866-6.0593-2.7616-6.0593-2.7616s-0.57687 1.9508 1.664 4.5914c2.2409 2.6406 8.8571 0.0329 8.8571 0.0329z" fill="#fff2e6" stroke-width=".94574"/><path d="m126.38 102.89s-2.1163 1.2217-4.3623 0.0591c-1.0203-0.52752-4.4115-2.7334-5.2601-3.5317-1.1808-1.1122-2.1709-1.2368-2.098-0.94397 0.26252 1.0387-0.0887 3.0125 2.1452 5.2846 2.4287 2.4688 5.4207 1.6732 5.4207 1.6732z" stroke-width=".94574"/><g transform="matrix(-.91483 -.2398 -.2398 .91483 307.52 48.289)" clip-path="url(#_clip10)">
                <path d="m178.3 108.51c-1.3033-0.16875-1.8737-4.2523 1.3683-4.6545 2.1114-0.26175 3.9813-0.85108 3.9813-0.85108s-0.41568 1.333-0.83682 2.2324c-0.42114 0.89938-0.52027 1.6077-2.5357 2.5023-0.72296 0.32136-1.2482 0.8648-1.9771 0.77084z" fill="url(#_Linear11)" stroke-width=".60216"/>
            </g><path d="m106.78 60.569-1.9185 0.1124-1.8061 1.1846-1.1846 0.90358-0.3383 1.1284-0.0562 1.1846 0.56418 0.2259 0.62039-0.67769s0.39449-0.73278 0.95868-1.2408c0.56419-0.50799 3.0468-1.9747 3.0468-1.9747l0.56419-0.79008" stroke-width="1.1019"/><path d="m137.68 85s-0.0386-1.5997-1.8865-1.216c-1.8479 0.38372-3.0388 0.68995-3.0388 0.68995l-0.68794 1.706s2.9839-0.6854 3.9571-0.95053c0.97317-0.26513 1.6561-0.22946 1.6561-0.22946z" fill="#423534" stroke-width=".71172"/><path d="m116.22 78.519s3.0091-1.1279 4.631 0.21458c1.6218 1.3425 3.4272 3.5215 3.4272 3.5215l-1.3798 1.048s-2.345-2.1929-3.1571-2.9833c-0.81209-0.79032-3.5212-1.8008-3.5212-1.8008z" fill="#423534" stroke-width=".9125"/><ellipse transform="matrix(-.96732 -.25356 -.25356 .96732 0 0)" cx="-150.37" cy="55.575" rx="1.1384" ry="1.708" stroke-width=".854"/><ellipse transform="matrix(-.96732 -.25356 -.25356 .96732 0 0)" cx="-135.44" cy="55.341" rx="1.7788" ry="2.0521" stroke-width=".82085"/><path d="m128.34 86.1s-1.9508 3.0964-1.4146 6.8435c0.53704 3.7485 4.1653 5.8387 4.1653 5.8387s-2.4371 2.7786-4.8389 2.5284c-2.4032-0.24946-3.824-0.62191-3.824-0.62191l0.76598-0.74927s-0.27133 0.30935 3.1675-0.49795c3.4399-0.80703 1.748-0.87119 1.748-0.87119s-1.7986-2.3864-2.1184-5.6815c-0.35903-3.7018 2.3491-6.7888 2.3491-6.7888" fill="#a85c31" stroke-width="1.1019"/><path d="m103.09 99.11s0.819 3.167 2.264 5.5c1.444 2.333 4.027 4.167 4.027 4.167l-3.111 2.666s-2.736-5.736-3.18-8.514c-0.445-2.777-0.334-3.263 0-3.819z" fill="#a85c31" fill-opacity=".45"/><path d="m62.035 128.63s-1.0006 11.736-1.3499 16.777c-0.65234 9.4413 0.42975 19.005 4.7085 22.862 2.9785 2.6854 14.508 0.18292 17.08-1.6529 2.5708-1.8369 18.733-11.57 21.488-14.876 1.0755-1.2915 6.3515-4.2634 7.6826-4.3846 2.0749-0.18843 3.3818 2.7317 3.3818 2.7317l8.5862 1.1934 2.8011-3.7653 1.0556-5.8766 4.4595-2.303 5.7796 1.8435 1.9736-0.50469 0.64353-1.3774-1.5614-1.3774-7.438-2.8926-6.0606 1.6529-7.8512 0.18402-9.7796 1.2848-6.4276 3.4898-24.883 11.666 1.5163-15.053s0.90248-2.7614 0.80882-5.0006c-0.15978-3.7829-2.5917-5.2849-6.4485-6.3868-3.8568-1.1019-10.165 1.7664-10.165 1.7664z" fill="#ea972f" stroke-width="1.1019"/><path d="m113.59 148.1 5.978 1.2771 2.5344-0.66115 0.77135-3.967 1.6529-2.5344 2.5344-0.66115v-1.6529l3.6364-1.4325 2.0937-0.1102 4.2975 1.2121 1.9835 0.33058 0.55096 0.77135-1.4325 0.44078-1.9835-0.22039-4.2975-1.4325-4.8485 2.0937 0.88155 1.5427-0.77135 2.7548s0.22038 1.4325-0.44078 2.4242c-0.66115 0.99173-1.9835 2.0937-1.9835 2.0937s-0.77135 1.8733-4.5179 0.77135-4.9587-0.44077-4.9587-0.44077z" fill="#a85c31" stroke-width="1.1019"/></g>
    <defs>
        <linearGradient id="_Linear1" x2="1" gradientTransform="matrix(-1.3333 -53.666 53.666 -1.3333 140.52 135.6)" gradientUnits="userSpaceOnUse"><stop stop-color="#bfddff" offset="0"/><stop stop-color="#97c0ff" offset="1"/></linearGradient>
        <linearGradient id="_Linear2" x2="1" gradientTransform="matrix(3 -46 78.531 5.1216 168.85 206.64)" gradientUnits="userSpaceOnUse"><stop stop-color="#70614b" offset="0"/><stop stop-color="#918b8b" offset="1"/></linearGradient>
        <linearGradient id="_Linear3" x2="1" gradientTransform="matrix(14 -58 97.835 23.615 230.85 214.98)" gradientUnits="userSpaceOnUse"><stop stop-color="#70614b" offset="0"/><stop stop-color="#918b8b" offset="1"/></linearGradient>
        <linearGradient id="_Linear4" x2="1" gradientTransform="matrix(17.333 -56 56 17.333 87.186 208.69)" gradientUnits="userSpaceOnUse"><stop stop-color="#70614b" offset="0"/><stop stop-color="#918b8b" offset="1"/></linearGradient>
        <linearGradient id="_Linear5" x2="1" gradientTransform="matrix(-1.3333 -53.666 53.666 -1.3333 140.52 135.6)" gradientUnits="userSpaceOnUse"><stop stop-color="#97c0ff" stop-opacity=".17" offset="0"/><stop stop-color="#bfddff" stop-opacity=".56" offset="1"/></linearGradient>
        <linearGradient id="_Linear6" x2="1" gradientTransform="matrix(-12.327 -.52784 .52784 -12.327 203.8 89.284)" gradientUnits="userSpaceOnUse"><stop offset="0"/><stop stop-color="#b83d00" offset="1"/></linearGradient>
        <linearGradient id="_Linear7" x2="1" gradientTransform="matrix(-9.4815 -12.132 9.8204 -7.6748 195.63 81.239)" gradientUnits="userSpaceOnUse"><stop stop-color="#2f4450" offset="0"/><stop stop-color="#5d6d77" offset=".31"/><stop stop-color="#6c7b84" offset=".61"/><stop stop-color="#c8ced1" offset=".61"/><stop stop-color="#2f4450" offset="1"/></linearGradient>
        <linearGradient id="_Linear8" x2="1" gradientTransform="matrix(-15.586 -12.412 12.412 -15.586 187.59 86.591)" gradientUnits="userSpaceOnUse"><stop stop-color="#2f4450" offset="0"/><stop stop-color="#5d6d77" offset=".31"/><stop stop-color="#6c7b84" offset=".61"/><stop stop-color="#c8ced1" offset=".61"/><stop stop-color="#2f4450" offset="1"/></linearGradient>
        <linearGradient id="_Linear11" x2="1" gradientTransform="matrix(-5.9425 -3.1858 3.1858 -5.9425 184.02 107.94)" gradientUnits="userSpaceOnUse"><stop offset="0"/><stop stop-color="#b83d00" offset="1"/></linearGradient>
    
            
        
            
        
            
        
            
        
            
        
            
        
            
        
            
        
            
        
            
        
            
        
        
        
        
        
        
        
        
        
        
        
        
        
        
        
        
        
        
        
        
        
        
        
        
        
        
        
        
        
        
        
        
        
        
        
        
        
        
        
        
        
        
        
        
        
        
        
        
        
        
        
        
        
        
        
        
        
        
        
        
        
        
        
        
        
        
        
        
        
        
        
        
        
        
        
        
        
        
        
        
        
        
        
        
        
        
        
        
        
        
        
        
        
        
        
        
        
        
        
        
        
        
        
        
        
        
        
        
        
    
            
        
            
        
            
        
            
        
            
        
            
        
            
        
            
        
            
        
            
            <clipPath id="_clip10">
                <path d="m170.63 104.42s1.837 1.817 4.446 1.23c1.185-0.266 5.245-1.613 6.327-2.202 1.506-0.821 2.552-0.683 2.399-0.403-0.547 0.992-0.717 3.105-3.611 4.83-3.146 1.874-5.993 0.258-5.993 0.258z"/>
            </clipPath>
            
        
            
        
            
        
            
        
            
        
            
        
            
        
            
        
            
        
            
        
            
        
            
        
            
        
            
        
            
        
            
        
            
        
            
        
            
            <clipPath id="_clip9">
                <path d="m175.07 87.267 59-13.084s11.666 2.667 14.666 11.667 3.667 21.667 3.667 21.667l-0.667 6-3.333 0.666v4.667l9.333 59-7.666 10.333-10.334 6.667-12.333 0.333h-7l-32.667-11.666s-7.531-47.384-16.666-63.167 4-33.083 4-33.083z"/>
            </clipPath>
            
        
            
        
            
        
            
        
                    
                
            
        
            
        
            
        
            
        
            
        
            
        
            
        
            
        
            
        
            
        
            
        
            
        
            
        
            
        
            
        
            
        
            
        
            
        
            
        
            
        
            
        
            
        
            
        
            
        
            
        
            
        
            
        
            
        
            
        
            
        
            
        
            
        
            
        
            
        
            
        
            
        
            
        
            
        
            
        
            
        
            
        
            
        
            
        
            
        
            
        
            
        
            
        
            
        
            
        
            
        
            
        
            
        
            
        
            
        
            
        
            
        
            
        
            
        
            
        
            
        
            
        
            
        
            
        
            
        
            
        
            
        </defs>
</svg>
