<?xml version="1.0" encoding="UTF-8" standalone="no"?><!DOCTYPE svg PUBLIC "-//W3C//DTD SVG 1.1//EN" "http://www.w3.org/Graphics/SVG/1.1/DTD/svg11.dtd"><svg width="100%" height="100%" viewBox="0 0 290 290" version="1.1" xmlns="http://www.w3.org/2000/svg" xmlns:xlink="http://www.w3.org/1999/xlink" xml:space="preserve" xmlns:serif="http://www.serif.com/" style="fill-rule:evenodd;clip-rule:evenodd;stroke-linejoin:round;stroke-miterlimit:2;"><g id="address"><g id="g12"><path id="path30" d="M144.838,290.675c-1.881,0 -3.651,-0.733 -4.981,-2.063l-137.793,-137.794c-1.331,-1.33 -2.064,-3.099 -2.064,-4.98c0,-1.881 0.733,-3.651 2.063,-4.982l137.794,-137.793c1.33,-1.331 3.1,-2.063 4.981,-2.063c1.881,0 3.651,0.732 4.981,2.063l137.793,137.793c1.331,1.332 2.064,3.101 2.064,4.982c0,1.881 -0.733,3.649 -2.064,4.98l-137.793,137.794c-1.33,1.33 -3.1,2.063 -4.981,2.063" style="fill:url(#_Linear1);fill-rule:nonzero;"/><clipPath id="_clip2"><path d="M144.838,289.675c-1.881,0 -3.651,-0.733 -4.981,-2.063l-137.793,-137.794c-1.331,-1.33 -2.064,-3.099 -2.064,-4.98c0,-1.881 0.733,-3.651 2.063,-4.982l137.794,-137.793c1.33,-1.331 3.1,-2.063 4.981,-2.063c1.881,0 3.651,0.732 4.981,2.063l137.793,137.793c1.331,1.332 2.064,3.101 2.064,4.982c0,1.881 -0.733,3.649 -2.064,4.98l-137.793,137.794c-1.33,1.33 -3.1,2.063 -4.981,2.063" clip-rule="nonzero"/></clipPath><g clip-path="url(#_clip2)"><path d="M38.077,203.401l87.75,29.5l138.25,-127l-137.5,-0.75l-121.873,-8.417l-9.877,57.75l43.25,48.917Z" style="fill:#999;"/><clipPath id="_clip3"><path d="M38.077,203.401l87.75,29.5l138.25,-127l-137.5,-0.75l-121.873,-8.417l-9.877,57.75l43.25,48.917Z"/></clipPath><g clip-path="url(#_clip3)"><path d="M61.134,208.888l64.737,18.513l-0.5,4.75l-63.25,-19.5l-0.987,-3.763Z" style="fill:#bfbfbf;"/><path d="M125.871,227.401l137,-120.25l1,2l-138.25,123.25l0.25,-5Z" style="fill:#666;"/></g></g><clipPath id="_clip4"><path d="M144.838,289.675c-1.881,0 -3.651,-0.733 -4.981,-2.063l-137.793,-137.794c-1.331,-1.33 -2.064,-3.099 -2.064,-4.98c0,-1.881 0.733,-3.651 2.063,-4.982l137.794,-137.793c1.33,-1.331 3.1,-2.063 4.981,-2.063c1.881,0 3.651,0.732 4.981,2.063l137.793,137.793c1.331,1.332 2.064,3.101 2.064,4.982c0,1.881 -0.733,3.649 -2.064,4.98l-137.793,137.794c-1.33,1.33 -3.1,2.063 -4.981,2.063" clip-rule="nonzero"/></clipPath><g clip-path="url(#_clip4)"><path d="M28.62,199.344l97,32.667l139.333,-126l55.667,18l-107.334,176.666l-93.333,0c0,0 -95.667,-82 -95.667,-85c0,-3 4.334,-16.333 4.334,-16.333Z" style="fill:#424759;"/><clipPath id="_clip5"><path d="M28.62,199.344l97,32.667l139.333,-126l55.667,18l-107.334,176.666l-93.333,0c0,0 -95.667,-82 -95.667,-85c0,-3 4.334,-16.333 4.334,-16.333Z"/></clipPath><g clip-path="url(#_clip5)"><path d="M103.953,261.344c0,0 18.333,9.667 27,7.333c8.667,-2.333 13.667,-7.333 13.667,-7.333l6.666,-7.667l11,2l-8.666,9.667c0,0 -11,12.667 -19.334,12.667c-13.812,0 -33.666,-9.334 -33.666,-9.334l3.333,-7.333Z" style="fill:#e6e6e6;"/><path d="M162.953,237.387l25.759,-25.043l8.908,1.159l-24.371,25.508l-10.296,-1.624Z" style="fill:#e6e6e6;"/><path d="M204.286,196.387l24.426,-24.376l8.908,1.159l-24.371,25.174l-8.963,-1.957Z" style="fill:#e6e6e6;"/><path d="M240.62,157.387l25.426,-23.71l7.574,0.493l-25.037,25.507l-7.963,-2.29Z" style="fill:#e6e6e6;"/><path d="M64.62,213.011l61.666,20.833l140.183,-126.091l1.817,0.591l-141.333,127.667l-60.167,-20.834l-2.166,-2.166Z" style="fill:#e6e6e6;"/></g></g><g><clipPath id="_clip6"><path d="M144.838,289.675c-1.881,0 -3.651,-0.733 -4.981,-2.063l-137.793,-137.794c-1.331,-1.33 -2.064,-3.099 -2.064,-4.98c0,-1.881 0.733,-3.651 2.063,-4.982l137.794,-137.793c1.33,-1.331 3.1,-2.063 4.981,-2.063c1.881,0 3.651,0.732 4.981,2.063l137.793,137.793c1.331,1.332 2.064,3.101 2.064,4.982c0,1.881 -0.733,3.649 -2.064,4.98l-137.793,137.794c-1.33,1.33 -3.1,2.063 -4.981,2.063" clip-rule="nonzero"/></clipPath><g clip-path="url(#_clip6)"><path id="Cloud" d="M182.931,88.067c-0.47,-13.545 -9.487,-24.361 -20.574,-24.361c-8.263,0 -15.373,6.017 -18.663,14.681c-1.661,-1.249 -3.592,-2.009 -5.68,-2.009c-5.919,0 -10.709,5.791 -10.95,13.024c-5.052,2.811 -8.579,9.07 -8.579,16.36c0,9.91 6.505,17.942 14.53,17.942l47.596,0c8.029,0 14.538,-8.032 14.538,-17.942c0,-8.935 -5.297,-16.321 -12.218,-17.695Z" style="fill:#a3ab83;"/><path id="Cloud1" serif:id="Cloud" d="M139.598,65.067c-0.471,-13.545 -9.487,-24.361 -20.575,-24.361c-8.263,0 -15.372,6.017 -18.662,14.681c-1.661,-1.249 -3.592,-2.009 -5.68,-2.009c-5.92,0 -10.709,5.791 -10.95,13.024c-5.053,2.811 -8.58,9.07 -8.58,16.36c0,9.91 6.506,17.942 14.53,17.942l47.597,0c8.029,0 14.537,-8.032 14.537,-17.942c0,-8.935 -5.296,-16.321 -12.217,-17.695Z" style="fill:#96a766;"/></g></g><path d="M35.15,171.205l86.333,21.666l51,-1.333l2.334,2l9,1.667l-1.667,3l78,-37.667l-31.667,-13.333l-15.333,4l-64,-2.667l-114,22.667Z" style="fill-opacity:0.19;"/><g id="house"><clipPath id="_clip7"><path d="M144.838,289.675c-1.881,0 -3.651,-0.733 -4.981,-2.063l-137.793,-137.794c-1.331,-1.33 -2.064,-3.099 -2.064,-4.98c0,-1.881 0.733,-3.651 2.063,-4.982l137.794,-137.793c1.33,-1.331 3.1,-2.063 4.981,-2.063c1.881,0 3.651,0.732 4.981,2.063l137.793,137.793c1.331,1.332 2.064,3.101 2.064,4.982c0,1.881 -0.733,3.649 -2.064,4.98l-137.793,137.794c-1.33,1.33 -3.1,2.063 -4.981,2.063" clip-rule="nonzero"/></clipPath><g clip-path="url(#_clip7)"><path d="M22.56,175.825l88.765,20.668l-0.279,-103.622l-44.521,-27.18l-44.521,27.18l0.556,82.954Z" style="fill:#deb486;fill-rule:nonzero;"/><path d="M111.325,196.493l36.196,-28.667l0,-74.114l-18.921,-24.764l-17.933,40.769l0.658,86.776Z" style="fill:#c08268;"/><path d="M48.647,108.726l-17.739,-3.398l0,18.12l17.739,3.397l0,-18.119Z" style="fill:url(#_Linear8);"/><path d="M75.256,113.256l-17.739,-2.265l0,18.119l17.739,3.398l0,-19.252Z" style="fill:url(#_Linear9);"/><path d="M101.864,117.786l-17.739,-2.265l0,19.252l17.739,3.397l0,-20.384Z" style="fill:url(#_Linear10);"/><path d="M48.647,148.363l-17.739,-3.398l0,18.12l17.739,4.53l0,-19.252Z" style="fill:url(#_Linear11);"/><path d="M75.256,150.628l-17.739,-3.681l0,36.523l18.295,4.813l-0.556,-37.655Z" style="fill:#c08268;"/><path d="M62.807,148.163l0.695,32.84l12.272,3.398l-0.417,-33.55l-12.55,-2.688Z" style="fill:url(#_Linear12);"/><path d="M101.864,158.555l-17.739,-3.397l0,20.384l17.739,3.398l0,-20.385Z" style="fill:url(#_Linear13);"/><path d="M48.647,163.085l-14.046,-3.38l-0.178,-13.925l-3.515,-0.673l0,17.978l17.739,4.53l0,-4.53Z" style="fill:#c08268;"/><path d="M101.949,174.41l-14.046,-2.247l-0.178,-16.191l-3.515,-0.673l0,20.243l17.739,3.398l0,-4.53Z" style="fill:#c08268;"/><path d="M101.702,133.64l-14.047,-2.247l-0.177,-15.058l-3.515,-0.673l0,19.111l17.739,3.397l0,-4.53Z" style="fill:#c08268;"/><path d="M48.682,122.279l-14.046,-2.247l-0.177,-13.925l-3.516,-0.673l0,17.978l17.739,3.397l0,-4.53Z" style="fill:#c08268;"/><path d="M75.36,128.104l-14.046,-2.248l-0.178,-13.925l-3.515,-0.673l0,17.978l17.739,3.398l0,-4.53Z" style="fill:#c08268;"/><path d="M18.887,96.042l22.205,-31.597l88.319,3.794l20.771,26.32l-2.559,0.94l-0.112,-0.945l-17.715,-23.301l-15.8,39.964l-95.109,-15.175Z" style="fill:#c84747;fill-rule:nonzero;"/><path d="M112.544,110.953l16.867,-42.714l20.771,26.32l-2.559,0.94l-0.112,-0.945l-17.715,-23.301l-15.8,39.964l-1.452,-0.264Z" style="fill:#a13232;fill-rule:nonzero;"/></g></g><g id="street"><g><clipPath id="_clip14"><path d="M144.838,289.675c-1.881,0 -3.651,-0.733 -4.981,-2.063l-137.793,-137.794c-1.331,-1.33 -2.064,-3.099 -2.064,-4.98c0,-1.881 0.733,-3.651 2.063,-4.982l137.794,-137.793c1.33,-1.331 3.1,-2.063 4.981,-2.063c1.881,0 3.651,0.732 4.981,2.063l137.793,137.793c1.331,1.332 2.064,3.101 2.064,4.982c0,1.881 -0.733,3.649 -2.064,4.98l-137.793,137.794c-1.33,1.33 -3.1,2.063 -4.981,2.063" clip-rule="nonzero"/></clipPath><g clip-path="url(#_clip14)"><path d="M84.889,42.515c0,0 -1.931,0.445 -5.282,0.931c-3.351,0.487 -5.267,0.605 -5.267,0.605l33.688,231.373l10.549,-1.536l-33.688,-231.373Z" style="fill:url(#_Linear15);"/><path d="M152.86,53.319l-67.017,19.909l3.835,26.336l66.325,-21.302c0,0 13.147,-14.495 13.247,-14.716c0.954,-2.107 0.635,-1.931 -0.507,-4.024c-0.093,-0.171 -15.883,-6.203 -15.883,-6.203Z" style="fill:#3c5c9b;"/><path d="M89.678,99.564l-1.249,-1.048l-3.788,-26.02l1.28,0.513l3.757,26.555Z" style="fill:#7092d3;"/><path d="M153.434,53.611l-3.306,-0.424l-65.825,18.269l1.837,1.87l67.294,-19.715Z" style="fill:#d0daed;"/><path d="M16.6,113.646l69.911,-0.027l3.835,26.336l-69.646,-1.505c0,0 -16.734,-10.144 -16.894,-10.328c-1.515,-1.746 -1.159,-1.668 -0.661,-4.001c0.04,-0.19 13.455,-10.475 13.455,-10.475Z" style="fill:#6282c1;"/><path d="M16.133,114.09l3.048,-1.349l68.301,-1.259l-1.227,2.316l-70.122,0.292Z" style="fill:#d0daed;"/><path d="M98.3,77.8l1.589,10.912l5.852,-2.182l-0.308,-2.117l-3.941,0.989l-1.222,-8.387l-1.97,0.785Zm7.988,-1.828l1.447,9.935l2.844,-1.08l-0.51,-3.501l3.777,-1.548l-0.495,-2.256l-3.942,0.989l-0.557,-3.827l-2.564,1.288Zm9.234,-3.008l1.482,10.18l6.983,-2.431l-0.443,-4.759l-2.075,0.635l0.357,3.025l-3.067,0.696l-1.5,-8.014l-1.737,0.668Zm9.012,-2.809l1.435,9.854l2.227,-0.74l-0.836,-8.028l3.492,1.071l0.579,-1.747l-6.689,-1.272l-0.208,0.862Zm9.76,3.236l0.545,3.746l1.9,-0.692l-0.533,-3.665l-1.912,0.611Zm3.891,-7.291l5.274,8.531l2.255,-0.957l-1.541,-10.582l-2.044,0.674l1.445,7.33l-3.646,-6.004l-1.743,1.008Zm17.919,3.952l-1.446,-10.087l-4.551,1.11l-2.424,9.391l0.319,2.348l3.775,-1.038l-0.243,-2.225l-2.663,0.711l3.559,-8.305l1.26,8.998l2.414,-0.903Zm-22.547,-2.291l0.676,4.641l2.017,-0.46l-0.886,-4.943l-1.807,0.762Z" style="fill:#fff;"/><path d="M74.873,121.549l1.589,10.912l-6.232,-0.423l-0.308,-2.118l4.06,-0.175l-1.221,-8.388l2.112,0.192Zm-8.178,0.525l1.447,9.935l-3.034,-0.223l-0.51,-3.502l-4.061,-0.407l-0.169,-2.304l4.06,-0.175l-0.558,-3.827l2.825,0.503Zm-9.708,-0.25l1.482,10.18l-7.386,-0.339l-0.933,-4.687l2.171,0.017l0.52,3.001l3.138,-0.208l-0.847,-8.109l1.855,0.145Zm-25.569,-0.734l1.589,10.912l-6.232,-0.423l-0.308,-2.117l4.06,-0.176l-1.222,-8.387l2.113,0.191Zm16.13,0.612l1.435,9.853l-2.346,-0.074l-1.488,-7.933l-3.041,2.023l-1.053,-1.51l6.048,-3.126l0.445,0.767Zm-24.308,-0.086l1.447,9.934l-3.034,-0.223l-0.51,-3.502l-4.062,-0.406l-0.168,-2.304l4.06,-0.176l-0.558,-3.827l2.825,0.504Zm15.877,5.97l0.545,3.746l-2.019,-0.121l-0.533,-3.665l2.007,0.04Zm-0.9,-5.607l0.676,4.642l-2.065,0.134l-0.56,-4.991l1.949,0.215Z" style="fill:#fff;"/><path d="M91.157,119.412c-2.047,0.298 -3.95,-1.117 -4.247,-3.159l-70.06,-0.161c0.05,0.344 -12.419,9.641 -12.419,9.641c0.057,-0.008 16.282,10.708 16.443,10.815l68.954,0.862c-0.297,-2.041 1.124,-3.94 3.17,-4.238l-0.615,-5.336l-1.226,-8.424Zm-73.677,-1.818c-1.53,1.345 -7.453,5.817 -10.428,8.05c3.793,2.484 12.389,8.16 14.281,9.41l67.049,0.838c0.317,-1.661 1.432,-3.085 2.983,-3.79l-0.469,-4.072l-1.039,-7.133c-1.807,-0.263 -3.363,-1.46 -4.075,-3.146l-68.302,-0.157Z" style="fill:#fff;"/><path d="M155.219,56.426c3.581,1.404 12.586,5.335 12.586,5.335c0.031,0.217 -10.595,13.319 -10.571,13.488l-68.954,22.297c-0.297,-2.041 2.668,-5.62 0.621,-5.322c0,0 -3.572,-14.23 -3.869,-16.272l68.744,-20.004c-0.008,-0.058 0.415,0.082 1.119,0.352l-0.638,0.992c0.153,-0.028 0.28,-0.057 0.315,-0.079c0.335,-0.208 0.55,-0.47 0.647,-0.787Zm-1.405,1.073l-67.048,19.511c0.721,3.335 2.686,11.235 3.36,13.929c0.185,0.098 0.335,0.22 0.457,0.344c0.381,0.388 0.629,0.977 0.516,1.782c-0.078,0.553 -0.415,1.369 -0.765,2.24l65.961,-21.329c1.26,-1.67 6.776,-8.51 9.179,-11.593c-3.174,-1.377 -9.775,-4.221 -11.66,-4.884Z" style="fill:#fff;"/></g></g><path d="M85.011,43.219c0,0 -1.936,0.405 -5.287,0.892c-3.351,0.487 -5.261,0.643 -5.261,0.643l25.464,174.89l10.548,-1.536l-25.464,-174.889Z" style="fill:url(#_Linear16);"/><path d="M79.458,42.079c2.873,-0.418 5.327,0.08 5.477,1.111c0.15,1.032 -2.06,2.209 -4.933,2.627c-2.872,0.418 -5.326,-0.08 -5.476,-1.111c-0.151,-1.031 2.06,-2.208 4.932,-2.627Z" style="fill:url(#_Linear17);"/><path d="M89.952,68.397c0,0 -2.103,1.74 -6.155,2.33c-4.053,0.589 -6.604,-0.472 -6.604,-0.472l4.804,32.993c0,0 1.808,1.766 6.273,1.223c5.577,-0.679 6.485,-3.081 6.485,-3.081l-4.803,-32.993Z" style="fill:url(#_Linear18);"/><path d="M78.174,69.883c1.396,0.454 3.817,0.514 5.329,0.33c2.301,-0.281 5.182,-1.264 5.108,-1.762c-0.001,-0.009 -0.088,-0.769 -0.058,-0.769c0.563,0.001 1.106,0.307 1.141,0.547c0.145,0.998 -2.558,2.22 -6.032,2.726c-3.475,0.506 -6.414,0.105 -6.559,-0.893c-0.069,-0.472 0.487,-1.02 0.865,-1.203c0.019,-0.009 0.2,1.022 0.206,1.024Z" style="fill:url(#_Linear19);"/><path d="M95.397,106.535c0,0 -2.102,1.739 -6.155,2.329c-4.053,0.59 -6.604,-0.472 -6.604,-0.472l4.804,32.993c0,0 1.809,1.766 6.273,1.223c5.577,-0.679 6.486,-3.081 6.486,-3.081l-4.804,-32.992Z" style="fill:url(#_Linear20);"/><path d="M83.62,108.021c1.395,0.454 3.816,0.513 5.328,0.329c2.301,-0.281 5.183,-1.263 5.108,-1.762c-0.001,-0.008 -0.087,-0.769 -0.058,-0.769c0.564,0.002 1.106,0.308 1.141,0.547c0.145,0.998 -2.558,2.22 -6.032,2.726c-3.474,0.506 -6.413,0.106 -6.559,-0.893c-0.069,-0.472 0.487,-1.02 0.865,-1.203c0.019,-0.009 0.2,1.022 0.207,1.025Z" style="fill:url(#_Linear21);"/></g><g id="Briekasten"><g><clipPath id="_clip22"><path d="M144.838,289.675c-1.881,0 -3.651,-0.733 -4.981,-2.063l-137.793,-137.794c-1.331,-1.33 -2.064,-3.099 -2.064,-4.98c0,-1.881 0.733,-3.651 2.063,-4.982l137.794,-137.793c1.33,-1.331 3.1,-2.063 4.981,-2.063c1.881,0 3.651,0.732 4.981,2.063l137.793,137.793c1.331,1.332 2.064,3.101 2.064,4.982c0,1.881 -0.733,3.649 -2.064,4.98l-137.793,137.794c-1.33,1.33 -3.1,2.063 -4.981,2.063" clip-rule="nonzero"/></clipPath><g clip-path="url(#_clip22)"><path d="M236.426,151.071l-15.998,-4.04l-26.223,105.88l11.759,-10.829l30.462,-91.011Z" style="fill:#b7beda;"/><path d="M240.836,155.049l-12.119,-3.06l-22.643,89.66l16.782,-16.168l17.98,-70.432Z" style="fill:#697292;"/></g></g><path d="M215.298,168.219l8.211,4.392l13.649,-2.999l3.061,-12.12l-22.435,0.007l-2.486,10.72Z" style="fill:url(#_Linear23);"/><path d="M260.895,102.369c0.596,0.078 1.192,0.192 1.784,0.341c28.981,7.319 12.028,34.632 6.818,55.262c-0.139,0.551 -71.803,-0.109 -71.803,-0.109l-9.771,-67.257l72.972,11.763Z" style="fill:url(#_Linear24);"/><path d="M199.902,157.882l69.595,0.09c0,0 7.503,-23.707 7.871,-25.161c0.367,-1.455 1.877,-7.434 1.963,-9.818c0.087,-2.385 -1.209,-1.337 -1.209,-1.337l-10.024,33.567l-40.222,0.672l-27.974,1.987Z" style="fill:#c7ebff;fill-opacity:0.32;"/><path d="M190.64,90.983c28.085,7.853 13.361,46.419 8.151,67.048c-0.185,0.734 -39.771,-19.924 -39.274,-20.559c0.026,-0.033 3.758,-19.398 4.161,-20.993c4.283,-16.958 15.21,-28.782 26.962,-25.496Z" style="fill:url(#_Linear25);"/><path d="M139.573,167.405c25.041,14.964 46.836,3.716 58.484,-6.465c0.047,-0.042 0.488,-2.085 0.943,-2.667c0.026,-0.033 -61.737,-4.864 -61.878,-4.512c-0.189,0.472 -4.631,9.413 2.451,13.644Z" style="fill:url(#_Linear26);"/><path d="M140.308,164.497c24.272,16.181 46.836,3.715 58.483,-6.466c0.57,-0.498 -39.771,-19.924 -39.274,-20.559c0.026,-0.033 -16.349,9.026 -16.672,9.226c-7.11,4.396 -10.617,12.412 -2.537,17.799Z" style="fill:url(#_Linear27);"/><path d="M193.093,91.77l71.199,10.761c0,0 13.252,4.652 14.001,12.577c0.549,5.805 1.065,8.701 1.065,8.701l-1.101,4.424c0,0 2.544,-5.755 0.353,-12.288c-2.205,-6.573 -9.355,-8.715 -11.136,-10.286c-2.172,-1.916 -45.523,-7.337 -50.275,-7.775c-17.003,-1.569 -24.106,-6.114 -24.106,-6.114Z" style="fill:#c7ebff;"/><path d="M190.351,91.93c26.838,7.51 12.692,44.664 7.674,64.534c-0.178,0.707 -37.991,-19.11 -37.515,-19.722c0.025,-0.032 3.628,-18.682 4.016,-20.219c4.125,-16.333 14.594,-27.735 25.825,-24.593Z" style="fill:url(#_Linear28);"/><path d="M154.933,139.995c0,0 -7.675,4.193 -12.088,6.703c-4.413,2.51 -6.027,5.325 -6.821,7.961c-0.795,2.636 -0.284,4.698 0.834,6.399c1.117,1.7 10.256,8.907 19.56,10.354c9.303,1.447 16.34,0.13 16.34,0.13c0,0 -12.377,3.063 -25.123,-4.153c-6.606,-3.739 -12.384,-6.608 -10.006,-11.938c2.377,-5.33 6.991,-7.775 6.991,-7.775l9.716,-5.797l0.597,-1.884Z" style="fill:#c7ebff;"/><path d="M160.961,137.212l41.467,2.565l-4.526,16.563l-36.941,-19.128Z" style="fill:#b7beda;fill-opacity:0.41;"/><path d="M244.098,113.108l2.038,7.727c0.283,1.126 0.289,2.427 -0.044,3.746c-0.836,3.311 -3.497,5.499 -5.939,4.882c-0.163,-0.041 -0.322,-0.094 -0.475,-0.158c-0.165,-0.016 -0.33,-0.045 -0.494,-0.086c-2.442,-0.617 -3.745,-3.806 -2.909,-7.117c0.691,-2.736 2.629,-4.705 4.659,-4.958c0,0 1.436,-4.392 -1.839,-11.004c-3.274,-6.612 -10.356,-8.908 -10.356,-8.908l11.48,1.987l-2.617,0.524c0,0 2.656,2.301 4.376,5.214c1.72,2.914 2.12,8.151 2.12,8.151Z" style="fill-opacity:0.33;"/><g><path d="M243.184,117.465c2.441,0.617 3.744,3.805 2.908,7.116c-0.836,3.311 -3.497,5.499 -5.939,4.882c-2.441,-0.616 -3.744,-3.805 -2.908,-7.116c0.836,-3.311 3.497,-5.499 5.939,-4.882Z" style="fill:url(#_Linear29);"/><path d="M244.153,117.71c2.442,0.616 3.745,3.805 2.909,7.116c-0.836,3.311 -3.498,5.499 -5.939,4.882c-2.441,-0.616 -3.745,-3.805 -2.909,-7.116c0.837,-3.311 3.498,-5.499 5.939,-4.882Z" style="fill:#c84747;"/><path d="M244.021,118.966c1.736,0.438 2.662,2.704 2.068,5.057c-0.595,2.353 -2.486,3.908 -4.221,3.47c-1.735,-0.438 -2.661,-2.705 -2.067,-5.058c0.594,-2.353 2.485,-3.907 4.22,-3.469Z" style="fill:url(#_Linear30);"/><path d="M244.711,119.14c1.735,0.438 2.661,2.704 2.067,5.057c-0.595,2.353 -2.486,3.908 -4.221,3.47c-1.735,-0.438 -2.661,-2.705 -2.067,-5.058c0.594,-2.353 2.485,-3.907 4.221,-3.469Z" style="fill:#c84747;"/><path d="M249.662,86.427l-8.482,33.848l4.759,1.862l4.799,-19.524l0.08,-16.642l-1.156,0.456Z" style="fill:url(#_Linear31);"/><path d="M250.705,85.962l-9.168,35.154l5.053,2.002l5.362,-21.23l11.328,-1.076l2.247,-8.775l-14.822,-6.075Z" style="fill:#c84747;"/></g><g id="Brief"><path d="M205.463,110.448l-41.581,-5.859l-10.293,42.326l45.471,4.203c0,0 4.572,-14.007 6.302,-23.935c1.721,-9.879 0.101,-16.735 0.101,-16.735Z" style="fill:#fff;"/><path d="M164.231,105.021l16.773,18.102c0,0 10.334,11.606 14.334,12.1c4.001,0.495 9.716,-5.797 9.716,-5.797l0.375,-2.054c0,0 -5.81,6.669 -9.609,6.283c-3.799,-0.387 -13.743,-11.378 -13.743,-11.378l-17.846,-17.256Z" style="fill:#b4b8ca;"/><path d="M164.231,105.021l-0.352,0.816l-9.293,40.394l44.751,4.454l-0.079,0.64l-46.138,-3.863l10.374,-42.712l0.737,0.271Z" style="fill:#b4b8ca;"/><path d="M153.534,146.812l30.186,-20.777l1.121,1.18l-29.934,20.059l-1.373,-0.462Z" style="fill:#b4b8ca;"/><path d="M193.036,108.697c0,0 3.526,2.419 4.28,11.455c0.755,9.036 -4.59,30.723 -4.59,30.723l-39.574,-3.261l0.643,-2.808l-8.627,4.885l52.776,6.661c0,0 5.132,-17.187 6.688,-25.177c1.556,-7.99 1.682,-8.751 1.659,-12.321c-0.022,-3.57 -0.647,-8.678 -0.647,-8.678l-12.608,-1.479Z" style="fill:#697292;fill-opacity:0.33;"/></g></g><g id="Address"><g id="Address1" serif:id="Address"><path d="M203.958,176.017l-61.78,-4.616l-3.544,47.439l61.78,4.616l3.544,-47.439Z" style="fill:#3c5c9b;"/><path d="M199.953,183.061c-2.491,-0.186 -4.361,-2.359 -4.175,-4.849l-46.578,-3.48c-0.186,2.49 -2.359,4.361 -4.849,4.175l-2.39,31.996c2.49,0.186 4.361,2.359 4.175,4.85l46.577,3.479c0.186,-2.49 2.359,-4.361 4.849,-4.175l2.391,-31.996Zm-49.557,-6.736c-0.7,2.075 -2.492,3.617 -4.647,4.002l-2.195,29.38c2.075,0.701 3.617,2.492 4.001,4.648l43.962,3.284c0.701,-2.075 2.492,-3.617 4.647,-4.001l2.195,-29.381c-2.074,-0.701 -3.616,-2.492 -4.001,-4.647l-43.962,-3.285Z" style="fill:#fff;"/><path d="M171.07,204.065l4.909,-0.228c0.043,1.302 0.377,2.357 1.004,3.163c0.627,0.806 1.387,1.242 2.279,1.309c1.019,0.076 1.919,-0.346 2.698,-1.266c0.779,-0.92 1.242,-2.359 1.388,-4.318c0.137,-1.837 -0.11,-3.24 -0.742,-4.211c-0.633,-0.97 -1.51,-1.498 -2.634,-1.582c-1.402,-0.104 -2.713,0.53 -3.934,1.902l-3.911,-0.969l3.665,-15.383l12.91,0.965l-0.401,5.366l-9.209,-0.688l-1.144,5.024c1.137,-0.558 2.273,-0.794 3.408,-0.71c2.166,0.162 3.933,1.224 5.301,3.187c1.367,1.963 1.941,4.42 1.72,7.372c-0.184,2.462 -0.956,4.614 -2.316,6.455c-1.854,2.515 -4.252,3.663 -7.194,3.443c-2.352,-0.175 -4.214,-1.06 -5.585,-2.654c-1.372,-1.593 -2.11,-3.652 -2.212,-6.177Zm-3.548,2.115l-0.398,5.326l-17.115,-1.279c0.336,-1.999 1.034,-3.866 2.096,-5.599c1.061,-1.733 3.07,-3.987 6.026,-6.762c2.381,-2.244 3.853,-3.775 4.415,-4.595c0.76,-1.134 1.183,-2.278 1.27,-3.435c0.095,-1.278 -0.124,-2.283 -0.657,-3.014c-0.534,-0.731 -1.316,-1.134 -2.347,-1.211c-1.02,-0.077 -1.858,0.223 -2.514,0.899c-0.656,0.676 -1.093,1.847 -1.311,3.514l-4.822,-0.935c0.525,-3.134 1.604,-5.332 3.236,-6.591c1.631,-1.26 3.594,-1.804 5.887,-1.633c2.514,0.188 4.43,1.131 5.747,2.83c1.318,1.699 1.888,3.732 1.711,6.099c-0.1,1.347 -0.402,2.614 -0.904,3.801c-0.502,1.186 -1.249,2.413 -2.241,3.68c-0.656,0.84 -1.817,2.032 -3.482,3.577c-1.664,1.544 -2.723,2.573 -3.175,3.087c-0.451,0.513 -0.824,1.019 -1.118,1.517l9.696,0.724Z" style="fill:#fff;fill-rule:nonzero;"/><path d="M197.325,217.681c0.796,0.059 1.387,0.837 1.32,1.735c-0.067,0.898 -0.768,1.58 -1.563,1.52c-0.796,-0.059 -1.387,-0.837 -1.32,-1.735c0.067,-0.899 0.767,-1.58 1.563,-1.52Zm-54.943,-4.105c0.796,0.059 1.387,0.837 1.32,1.735c-0.067,0.899 -0.768,1.58 -1.563,1.521c-0.796,-0.06 -1.387,-0.838 -1.32,-1.736c0.067,-0.898 0.767,-1.579 1.563,-1.52Zm58.275,-36.055c0.795,0.06 1.387,0.838 1.319,1.736c-0.067,0.898 -0.767,1.579 -1.563,1.52c-0.795,-0.059 -1.387,-0.837 -1.32,-1.735c0.068,-0.899 0.768,-1.58 1.564,-1.521Zm-55.52,-4.147c0.796,0.059 1.387,0.837 1.32,1.735c-0.067,0.899 -0.768,1.58 -1.563,1.52c-0.796,-0.059 -1.387,-0.837 -1.32,-1.735c0.067,-0.899 0.767,-1.58 1.563,-1.52Z" style="fill:#fff;"/><path d="M142.579,171.139l1.439,-1.078l61.598,4.869l-1.429,1.071l-61.608,-4.862Z" style="fill:#c7ebff;"/><path d="M204.187,176.001l-3.835,47.507l1.704,-2.392l3.643,-46.174l-1.512,1.059Z" style="fill:#1c3057;"/><path d="M146.851,171.636l7.022,36.055l12.386,0.819l3.419,-0.963l4.737,14l-9.099,-0.496l-18.96,-7.541l-3.923,-42.208l2.084,-1.514l4.295,0.489l-1.961,1.359Z" style="fill-opacity:0.28;"/></g><g id="Address2" serif:id="Address"><path d="M165.114,205.966l-60.592,15.376l11.677,46.015l60.592,-15.375l-11.677,-46.016Z" style="fill:#3c5c9b;"/><path d="M163.519,213.911c-2.416,0.613 -4.875,-0.851 -5.488,-3.266l-45.779,11.616c0.613,2.416 -0.851,4.875 -3.266,5.488l7.875,31.036c2.416,-0.613 4.875,0.851 5.488,3.266l45.779,-11.616c-0.613,-2.416 0.851,-4.875 3.266,-5.488l-7.875,-31.036Zm-6.39,-1.49l-43.237,10.972c-0.007,2.184 -1.213,4.21 -3.13,5.258l7.231,28.494c2.184,0.007 4.21,1.213 5.258,3.13l43.237,-10.972c0.007,-2.185 1.213,-4.21 3.13,-5.258l-7.231,-28.494c-2.184,-0.007 -4.21,-1.213 -5.258,-3.13Z" style="fill:#fff;"/><path d="M129.303,253.142l-4.131,1.048l-4.588,-18.082c-1.093,2.022 -2.564,3.686 -4.413,4.991l-1.105,-4.354c0.974,-0.683 1.948,-1.757 2.922,-3.222c0.974,-1.465 1.502,-3.019 1.586,-4.664l3.351,-0.85l6.378,25.133Zm1.04,-21.8l-1.131,-4.456l14.127,-3.585l0.884,3.483c-0.828,1.628 -1.529,3.841 -2.102,6.64c-0.573,2.798 -0.819,5.681 -0.739,8.647c0.08,2.966 0.405,5.552 0.975,7.758l-3.984,1.011c-0.809,-3.478 -1.09,-7.162 -0.841,-11.054c0.248,-3.892 0.983,-7.501 2.204,-10.827l-9.393,2.383Zm21.993,1.58c-1.201,-0.253 -2.16,-0.776 -2.878,-1.569c-0.717,-0.793 -1.215,-1.736 -1.492,-2.829c-0.474,-1.867 -0.304,-3.551 0.509,-5.054c0.813,-1.503 2.253,-2.517 4.321,-3.041c2.048,-0.52 3.793,-0.315 5.234,0.616c1.441,0.931 2.398,2.33 2.872,4.196c0.295,1.161 0.297,2.26 0.007,3.297c-0.289,1.037 -0.844,1.914 -1.664,2.63c1.338,0.255 2.453,0.838 3.347,1.75c0.894,0.912 1.518,2.068 1.874,3.468c0.586,2.311 0.428,4.35 -0.474,6.118c-0.903,1.767 -2.407,2.918 -4.514,3.453c-1.96,0.498 -3.744,0.314 -5.35,-0.55c-1.897,-1.021 -3.158,-2.761 -3.781,-5.22c-0.344,-1.355 -0.371,-2.671 -0.08,-3.951c0.291,-1.279 0.981,-2.384 2.069,-3.314Zm1.965,5.771c0.336,1.32 0.889,2.276 1.659,2.868c0.771,0.592 1.593,0.777 2.465,0.556c0.853,-0.216 1.468,-0.751 1.846,-1.604c0.378,-0.853 0.397,-1.952 0.056,-3.295c-0.298,-1.172 -0.821,-2.042 -1.57,-2.609c-0.749,-0.567 -1.559,-0.74 -2.431,-0.519c-1.01,0.256 -1.66,0.851 -1.949,1.785c-0.29,0.934 -0.315,1.873 -0.076,2.818Zm-2.338,-10.82c0.242,0.956 0.664,1.643 1.266,2.06c0.601,0.417 1.289,0.527 2.063,0.33c0.784,-0.199 1.342,-0.628 1.676,-1.288c0.333,-0.66 0.378,-1.468 0.136,-2.424c-0.229,-0.9 -0.644,-1.561 -1.247,-1.983c-0.602,-0.423 -1.286,-0.537 -2.05,-0.343c-0.794,0.201 -1.357,0.635 -1.689,1.301c-0.332,0.666 -0.383,1.448 -0.155,2.347Z" style="fill:#fff;fill-rule:nonzero;"/><path d="M118.114,261.179c0.78,-0.198 1.593,0.349 1.814,1.22c0.221,0.872 -0.233,1.74 -1.013,1.938c-0.78,0.198 -1.593,-0.349 -1.814,-1.22c-0.222,-0.872 0.232,-1.74 1.013,-1.938Zm53.886,-13.674c0.781,-0.198 1.594,0.349 1.815,1.22c0.221,0.871 -0.233,1.74 -1.013,1.938c-0.781,0.198 -1.594,-0.349 -1.815,-1.22c-0.221,-0.872 0.233,-1.74 1.013,-1.938Zm-64.02,-25.243c0.781,-0.198 1.594,0.349 1.815,1.221c0.221,0.871 -0.233,1.739 -1.013,1.937c-0.781,0.198 -1.594,-0.348 -1.815,-1.22c-0.221,-0.871 0.233,-1.739 1.013,-1.938Zm54.453,-13.817c0.78,-0.198 1.593,0.349 1.814,1.22c0.221,0.872 -0.233,1.74 -1.013,1.938c-0.78,0.198 -1.593,-0.349 -1.814,-1.22c-0.222,-0.872 0.232,-1.74 1.013,-1.938Z" style="fill:#fff;"/><path d="M104.757,221.448l1.018,-1.492l60.225,-15.502l-1.011,1.482l-60.232,15.512Z" style="fill:#c7ebff;"/><path d="M164.989,205.936l11.857,46.29l0.841,-2.824l-11.604,-44.964l-1.094,1.498Z" style="fill:#1c3057;"/><path d="M105.177,224.659l45.748,-11.539l-0.031,-3.105l0.879,-1.75l-45.825,11.69l-1.467,1.96l0.696,2.744Z" style="fill-opacity:0.34;"/></g><g id="Address3" serif:id="Address"><path d="M138.83,164.059l-60.74,11.086l8.582,47.016l60.74,-11.086l-8.582,-47.016Z" style="fill:#3c5c9b;"/><path d="M136.75,171.917c-2.468,0.451 -4.838,-1.187 -5.288,-3.656l-45.722,8.346c0.45,2.468 -1.188,4.837 -3.656,5.288l5.788,31.711c2.468,-0.451 4.838,1.187 5.288,3.656l45.722,-8.346c-0.45,-2.468 1.188,-4.838 3.656,-5.288l-5.788,-31.711Zm-6.31,-1.944l-43.14,7.874c-0.154,2.196 -1.505,4.15 -3.505,5.069l5.317,29.13c2.196,0.153 4.15,1.504 5.07,3.504l43.14,-7.874c0.154,-2.196 1.505,-4.15 3.505,-5.069l-5.317,-29.13c-2.196,-0.153 -4.15,-1.504 -5.07,-3.504Z" style="fill:#fff;"/><path d="M105.49,209.089l-1.089,-5.966l-10.25,1.871l-0.908,-4.975l7.428,-20.811l4.032,-0.736l3.433,18.808l3.109,-0.568l0.912,4.996l-3.11,0.567l1.089,5.966l-4.646,0.848Zm25.293,-10.071l0.964,5.279l-16.827,3.071c-0.182,-2.029 0.019,-4.019 0.604,-5.972c0.585,-1.953 1.952,-4.651 4.101,-8.094c1.728,-2.781 2.76,-4.641 3.094,-5.58c0.447,-1.294 0.566,-2.513 0.356,-3.659c-0.231,-1.268 -0.696,-2.189 -1.396,-2.765c-0.699,-0.576 -1.556,-0.772 -2.569,-0.587c-1.002,0.183 -1.734,0.686 -2.196,1.509c-0.462,0.822 -0.587,2.071 -0.376,3.746l-4.886,0.307c-0.286,-3.18 0.198,-5.588 1.453,-7.224c1.254,-1.636 3.009,-2.66 5.264,-3.072c2.472,-0.451 4.557,-0.016 6.258,1.303c1.7,1.32 2.764,3.153 3.192,5.499c0.244,1.335 0.273,2.642 0.089,3.923c-0.184,1.28 -0.594,2.661 -1.229,4.142c-0.421,0.983 -1.239,2.435 -2.453,4.356c-1.215,1.921 -1.975,3.188 -2.281,3.802c-0.306,0.613 -0.537,1.198 -0.694,1.756l9.532,-1.74Zm-27.294,-0.89l-1.849,-10.132l-3.908,11.183l5.757,-1.051Z" style="fill:#fff;fill-rule:nonzero;"/><path d="M88.954,216.098c0.783,-0.143 1.55,0.464 1.712,1.354c0.163,0.891 -0.34,1.73 -1.123,1.872c-0.782,0.143 -1.549,-0.464 -1.711,-1.354c-0.163,-0.891 0.34,-1.729 1.122,-1.872Zm54.018,-9.86c0.783,-0.142 1.55,0.465 1.712,1.355c0.163,0.89 -0.34,1.729 -1.123,1.872c-0.782,0.143 -1.549,-0.464 -1.711,-1.355c-0.163,-0.89 0.34,-1.729 1.122,-1.872Zm-61.53,-29.921c0.783,-0.143 1.55,0.464 1.712,1.355c0.163,0.89 -0.34,1.729 -1.123,1.872c-0.782,0.142 -1.549,-0.465 -1.711,-1.355c-0.163,-0.89 0.34,-1.729 1.122,-1.872Zm54.585,-9.963c0.783,-0.143 1.55,0.464 1.712,1.355c0.163,0.89 -0.34,1.729 -1.123,1.872c-0.782,0.142 -1.549,-0.465 -1.711,-1.355c-0.163,-0.89 0.34,-1.729 1.122,-1.872Z" style="fill:#fff;"/><path d="M78.09,175.145l1.116,-1.41l60.799,-11.024l-1.108,1.401l-60.807,11.033Z" style="fill:#c7ebff;"/><path d="M138.897,164.112l8.426,46.911l1.036,-2.749l-8.27,-45.573l-1.192,1.411Z" style="fill:#1c3057;"/></g></g></g></g><defs><linearGradient id="_Linear1" x1="0" y1="0" x2="1" y2="0" gradientUnits="userSpaceOnUse" gradientTransform="matrix(68.6667,87.9217,-87.9217,68.6667,145.483,23.5765)"><stop offset="0" style="stop-color:#bfddff;stop-opacity:1"/><stop offset="1" style="stop-color:#a6bcd1;stop-opacity:1"/></linearGradient><linearGradient id="_Linear8" x1="0" y1="0" x2="1" y2="0" gradientUnits="userSpaceOnUse" gradientTransform="matrix(17.7389,-3.79686e-17,-4.52645e-17,21.5172,30.9082,116.087)"><stop offset="0" style="stop-color:#3e1010;stop-opacity:1"/><stop offset="1" style="stop-color:#95685e;stop-opacity:1"/></linearGradient><linearGradient id="_Linear9" x1="0" y1="0" x2="1" y2="0" gradientUnits="userSpaceOnUse" gradientTransform="matrix(17.7389,-3.79686e-17,-4.52645e-17,21.5172,57.5166,121.749)"><stop offset="0" style="stop-color:#3e1010;stop-opacity:1"/><stop offset="1" style="stop-color:#95685e;stop-opacity:1"/></linearGradient><linearGradient id="_Linear10" x1="0" y1="0" x2="1" y2="0" gradientUnits="userSpaceOnUse" gradientTransform="matrix(17.7389,-3.79686e-17,-4.52645e-17,21.5172,84.125,127.412)"><stop offset="0" style="stop-color:#3e1010;stop-opacity:1"/><stop offset="1" style="stop-color:#95685e;stop-opacity:1"/></linearGradient><linearGradient id="_Linear11" x1="0" y1="0" x2="1" y2="0" gradientUnits="userSpaceOnUse" gradientTransform="matrix(17.7389,-3.79686e-17,-4.52645e-17,21.5172,30.9082,156.856)"><stop offset="0" style="stop-color:#3e1010;stop-opacity:1"/><stop offset="1" style="stop-color:#95685e;stop-opacity:1"/></linearGradient><linearGradient id="_Linear12" x1="0" y1="0" x2="1" y2="0" gradientUnits="userSpaceOnUse" gradientTransform="matrix(12.9677,-2.77562e-17,-7.62315e-17,36.2379,62.8065,166.282)"><stop offset="0" style="stop-color:#3e1010;stop-opacity:1"/><stop offset="1" style="stop-color:#95685e;stop-opacity:1"/></linearGradient><linearGradient id="_Linear13" x1="0" y1="0" x2="1" y2="0" gradientUnits="userSpaceOnUse" gradientTransform="matrix(17.7389,-3.79686e-17,-4.52645e-17,21.5172,84.125,168.181)"><stop offset="0" style="stop-color:#3e1010;stop-opacity:1"/><stop offset="1" style="stop-color:#95685e;stop-opacity:1"/></linearGradient><linearGradient id="_Linear15" x1="0" y1="0" x2="1" y2="0" gradientUnits="userSpaceOnUse" gradientTransform="matrix(10.5483,-1.53583,28.7339,197.349,88.7074,142.725)"><stop offset="0" style="stop-color:#697292;stop-opacity:1"/><stop offset="0.07" style="stop-color:#7a84a6;stop-opacity:1"/><stop offset="0.14" style="stop-color:#8c96bb;stop-opacity:1"/><stop offset="0.35" style="stop-color:#949ec4;stop-opacity:1"/><stop offset="0.67" style="stop-color:#8993b6;stop-opacity:1"/><stop offset="1" style="stop-color:#6b728c;stop-opacity:1"/></linearGradient><linearGradient id="_Linear16" x1="0" y1="0" x2="1" y2="0" gradientUnits="userSpaceOnUse" gradientTransform="matrix(10.5483,-1.53583,21.7193,149.171,85.3225,119.34)"><stop offset="0" style="stop-color:#697292;stop-opacity:1"/><stop offset="0.07" style="stop-color:#7a84a6;stop-opacity:1"/><stop offset="0.14" style="stop-color:#8c96bb;stop-opacity:1"/><stop offset="0.35" style="stop-color:#949ec4;stop-opacity:1"/><stop offset="0.67" style="stop-color:#8993b6;stop-opacity:1"/><stop offset="1" style="stop-color:#6b728c;stop-opacity:1"/></linearGradient><linearGradient id="_Linear17" x1="0" y1="0" x2="1" y2="0" gradientUnits="userSpaceOnUse" gradientTransform="matrix(10.4095,-1.51563,0.544214,3.73774,74.5256,44.706)"><stop offset="0" style="stop-color:#bfddff;stop-opacity:1"/><stop offset="1" style="stop-color:#a6bcd1;stop-opacity:1"/></linearGradient><linearGradient id="_Linear18" x1="0" y1="0" x2="1" y2="0" gradientUnits="userSpaceOnUse" gradientTransform="matrix(12.7585,-1.85763,7.70621,52.9273,81.0463,96.7186)"><stop offset="0" style="stop-color:#a5aecf;stop-opacity:1"/><stop offset="0.07" style="stop-color:#a6afcf;stop-opacity:1"/><stop offset="0.14" style="stop-color:#a7b0d0;stop-opacity:1"/><stop offset="0.35" style="stop-color:#a8b1d0;stop-opacity:1"/><stop offset="0.67" style="stop-color:#96a0c5;stop-opacity:1"/><stop offset="1" style="stop-color:#6170a6;stop-opacity:1"/></linearGradient><linearGradient id="_Linear19" x1="0" y1="0" x2="1" y2="0" gradientUnits="userSpaceOnUse" gradientTransform="matrix(12.5906,-1.83319,0.526921,3.61897,77.103,70.0617)"><stop offset="0" style="stop-color:#bfddff;stop-opacity:1"/><stop offset="1" style="stop-color:#a6bcd1;stop-opacity:1"/></linearGradient><linearGradient id="_Linear20" x1="0" y1="0" x2="1" y2="0" gradientUnits="userSpaceOnUse" gradientTransform="matrix(12.7585,-1.85763,7.70621,52.9273,86.4915,134.856)"><stop offset="0" style="stop-color:#a5aecf;stop-opacity:1"/><stop offset="0.07" style="stop-color:#a6afcf;stop-opacity:1"/><stop offset="0.14" style="stop-color:#a7b0d0;stop-opacity:1"/><stop offset="0.35" style="stop-color:#a8b1d0;stop-opacity:1"/><stop offset="0.67" style="stop-color:#96a0c5;stop-opacity:1"/><stop offset="1" style="stop-color:#6170a6;stop-opacity:1"/></linearGradient><linearGradient id="_Linear21" x1="0" y1="0" x2="1" y2="0" gradientUnits="userSpaceOnUse" gradientTransform="matrix(12.5906,-1.83319,0.526921,3.61897,82.5482,108.199)"><stop offset="0" style="stop-color:#bfddff;stop-opacity:1"/><stop offset="1" style="stop-color:#a6bcd1;stop-opacity:1"/></linearGradient><linearGradient id="_Linear23" x1="0" y1="0" x2="1" y2="0" gradientUnits="userSpaceOnUse" gradientTransform="matrix(1.3223,-12.0428,12.0428,1.3223,214.295,164.644)"><stop offset="0" style="stop-color:#697292;stop-opacity:0.34"/><stop offset="0.5" style="stop-color:#353949;stop-opacity:0.35"/><stop offset="1" style="stop-color:#000;stop-opacity:0.36"/></linearGradient><linearGradient id="_Linear24" x1="0" y1="0" x2="1" y2="0" gradientUnits="userSpaceOnUse" gradientTransform="matrix(-10.8636,63.4377,-63.4377,-10.8636,212.088,98.2152)"><stop offset="0" style="stop-color:#7e96ff;stop-opacity:1"/><stop offset="0.44" style="stop-color:#264997;stop-opacity:1"/><stop offset="1" style="stop-color:#10357c;stop-opacity:1"/></linearGradient><linearGradient id="_Linear25" x1="0" y1="0" x2="1" y2="0" gradientUnits="userSpaceOnUse" gradientTransform="matrix(-22.6798,59.2503,-83.9228,-32.1239,163.629,116.674)"><stop offset="0" style="stop-color:#7e96ff;stop-opacity:1"/><stop offset="0.44" style="stop-color:#264997;stop-opacity:1"/><stop offset="1" style="stop-color:#10357c;stop-opacity:1"/></linearGradient><linearGradient id="_Linear26" x1="0" y1="0" x2="1" y2="0" gradientUnits="userSpaceOnUse" gradientTransform="matrix(59.8098,15.1044,-8.25835,32.7012,136.647,152.184)"><stop offset="0" style="stop-color:#7e96ff;stop-opacity:1"/><stop offset="0.44" style="stop-color:#264997;stop-opacity:1"/><stop offset="1" style="stop-color:#10357c;stop-opacity:1"/></linearGradient><linearGradient id="_Linear27" x1="0" y1="0" x2="1" y2="0" gradientUnits="userSpaceOnUse" gradientTransform="matrix(120.067,30.5281,-16.6913,65.6472,137.381,149.276)"><stop offset="0" style="stop-color:#7e96ff;stop-opacity:1"/><stop offset="0.44" style="stop-color:#264997;stop-opacity:1"/><stop offset="1" style="stop-color:#10357c;stop-opacity:1"/></linearGradient><linearGradient id="_Linear28" x1="0" y1="0" x2="1" y2="0.00228607" gradientUnits="userSpaceOnUse" gradientTransform="matrix(-41.1599,-1.24313,1.96476,-58.7081,203.912,127.402)"><stop offset="0" style="stop-color:#353535;stop-opacity:1"/><stop offset="1" style="stop-color:#424c6f;stop-opacity:1"/></linearGradient><linearGradient id="_Linear29" x1="0" y1="0" x2="1" y2="0" gradientUnits="userSpaceOnUse" gradientTransform="matrix(-1.90623,11.1218,-15.083,-2.58516,237.74,118.346)"><stop offset="0" style="stop-color:#fff;stop-opacity:1"/><stop offset="1" style="stop-color:#c85f5f;stop-opacity:1"/></linearGradient><linearGradient id="_Linear30" x1="0" y1="0" x2="1" y2="0" gradientUnits="userSpaceOnUse" gradientTransform="matrix(-1.3547,7.90394,-10.719,-1.8372,240.153,119.592)"><stop offset="0" style="stop-color:#fff;stop-opacity:1"/><stop offset="1" style="stop-color:#c85f5f;stop-opacity:1"/></linearGradient><linearGradient id="_Linear31" x1="0" y1="0" x2="1" y2="0" gradientUnits="userSpaceOnUse" gradientTransform="matrix(16.1189,4.07068,-9.21799,36.5011,245.38,104.43)"><stop offset="0" style="stop-color:#fff;stop-opacity:1"/><stop offset="1" style="stop-color:#c85f5f;stop-opacity:1"/></linearGradient></defs></svg>