<?xml version="1.0" encoding="UTF-8"?>
<svg clip-rule="evenodd" fill-rule="evenodd" stroke-linejoin="round" stroke-miterlimit="2" version="1.1" viewBox="0 0 290 290" xml:space="preserve" xmlns="http://www.w3.org/2000/svg">
    <path d="m144.84 289.67c-1.8817 0-3.6503-0.73285-4.9806-2.0632l-137.79-137.79c-1.3317-1.3303-2.0646-3.0989-2.0646-4.9806 0-1.8817 0.73285-3.6503 2.0632-4.982l137.79-137.79c1.3303-1.3303 3.0989-2.0632 4.9806-2.0632 1.8817 0 3.6503 0.73285 4.9806 2.0632l137.79 137.79c1.3317 1.3317 2.0646 3.1003 2.0646 4.982 0 1.8803-0.73285 3.6489-2.0646 4.9806l-137.79 137.79c-1.3303 1.3303-3.0989 2.0632-4.9806 2.0632" fill="#fff" fill-rule="nonzero" stroke-width="1.3959" style="mix-blend-mode:normal"/>
    <path d="m114.36 28.565 19.574-19.574 53.215 31.397 100.47 100.47c1.331 1.332 2.064 3.101 2.064 4.982s-0.733 3.649-2.064 4.98l-39.174 39.175-26.342-26.241-14.361 12.255z" fill="url(#_Linear2)"/>
    <path d="m114.57 28.351 85.106 156.09-38.645-2.702-58.159-141.69z" fill="url(#_Linear3)"/>
    <path d="m102.72 40.202 53.342 142.53-12.475-2.137-0.599 27.251-3.313 25.395-60.726-5.538-63.885-63.885 29.934-65.893z" fill="url(#_Linear4)"/>
    <path d="m235.81 130.63 8.2873 53.814-18.672 13.996-22.231 30.47 5.4316-13.083 1.7255-61.61 0.43106-6.3371z" fill="url(#_Linear5)" stroke-width="1.1693"/>
    <path d="m143.9 144.36-0.43236 36.262-4.7456 33.093 42.309-3.7684 27.413-18.343 2.6873-39.506-3.3708-2.105-32.793-0.35171-13.377-1.409-11.65-2.4641z" fill="url(#_Linear6)" stroke-width="1.1693"/>
    <path d="m165.48 129.57-23.301 12.321 1.2945 5.2809 5.1779 2.1124 61.704 1.7607 24.595-18.307v-4.2247l-3.4524-1.7606h-24.595l-41.423 2.8168" fill="url(#_Linear7)" stroke-width="1.1693"/>
    <path d="m35.777 107.14 104.08-104.08c1.33-1.331 3.1-2.063 4.981-2.063s3.651 0.732 4.981 2.063l131.82 131.82c-22.117 39.255-66.366 66.068-117.3 66.068-62.2 0-114.43-39.993-128.57-93.809z" fill="url(#_Radial8)"/>
    
    
    
    
    <ellipse cx="188.48" cy="137.38" rx="21.125" ry="6.8" fill="url(#_Linear9)" stroke-width=".94812"/><path d="m187.71 62.316c15.491 0 28.067 12.159 28.067 27.135 0 2.0247-0.22953 3.9978-0.66473 5.8961-4.5884 19.99-27.402 35.104-27.402 35.302s-24.26-15.14-27.74-37.053c-0.21476-1.3513-0.32612-2.7355-0.32612-4.145 0-14.976 12.577-27.135 28.067-27.135z" fill="#ffff9e" stroke-width="1.1173"/><path d="m188.91 65.183c15.123 0 27.4 12.278 27.4 27.4 0 2.0445-0.22408 4.0368-0.64894 5.9537-4.4794 20.185-26.751 35.447-26.751 35.647 0 0.19968-23.684-15.287-27.082-37.415-0.20966-1.3645-0.31837-2.7622-0.31837-4.1854 0-15.122 12.278-27.4 27.4-27.4z" fill="url(#_Linear10)" stroke-width="1.1093"/><circle cx="189.21" cy="92.683" r="23.5" fill="url(#_Linear11)" stroke-width=".95142"/><path d="m201.42 84.958c0 1.3826-0.2283 2.6293-0.68489 3.7417-0.45567 1.1124-1.0968 2.0735-1.9214 2.8825-0.82466 0.80901-1.8152 1.4578-2.9706 1.9465-1.1545 0.48864-2.4311 0.80092-3.8289 0.93521l-0.23295 4.9301c-0.0196 0.30338-0.29632 0.53071-0.83026 0.6828-0.533 0.15128-1.3055 0.22733-2.3146 0.22733-0.64016 0-1.1797-0.0121-1.6158-0.038-0.43703-0.0251-0.7818-0.0712-1.0343-0.13915-0.25159-0.0671-0.43609-0.16018-0.55257-0.27749-0.11647-0.11812-0.1845-0.27021-0.20407-0.45547l-0.26184-5.9664c-0.0196-0.53961 9e-3 -0.97728 0.0867-1.3146 0.0783-0.33736 0.21898-0.60675 0.42212-0.80901 0.20407-0.20225 0.46125-0.3414 0.77248-0.41664 0.3103-0.07605 0.6793-0.11407 1.1061-0.11407h0.40814c1.0287 0 1.9168-0.14319 2.6641-0.42958 0.74732-0.2872 1.3642-0.66581 1.8487-1.1383 0.48548-0.47165 0.83957-1.0274 1.0632-1.6682 0.22364-0.64073 0.33452-1.3235 0.33452-2.0476 0-0.80901-0.13045-1.5509-0.39323-2.2248-0.26184-0.67471-0.65973-1.2556-1.1937-1.745-0.53394-0.48864-1.203-0.86321-2.009-1.1245-0.80602-0.26131-1.7518-0.39237-2.8393-0.39237-0.9896 0-1.8636 0.08495-2.6203 0.25322-0.75758 0.16827-1.408 0.35354-1.9512 0.55579-0.54326 0.20225-0.99519 0.38832-1.3539 0.5566-0.35969 0.16827-0.63644 0.25241-0.83026 0.25241-0.13604 0-0.26184-0.03721-0.37832-0.11326s-0.21339-0.2152-0.29166-0.41745c-0.0773-0.20225-0.1407-0.48864-0.18916-0.85916-0.0485-0.37133-0.0727-0.84298-0.0727-1.4158 0-0.59058 0.0289-1.0202 0.0876-1.2896 0.0578-0.2694 0.1845-0.48864 0.37832-0.65772 0.19382-0.16827 0.56282-0.36648 1.107-0.59381 0.54325-0.22733 1.1937-0.43848 1.9503-0.63183 0.75758-0.19416 1.6018-0.35839 2.5336-0.49349 0.93183-0.1343 1.9028-0.20225 2.912-0.20225 2.2904 0 4.2519 0.27425 5.8826 0.82195s2.9651 1.2855 4.0031 2.2118c1.039 0.92712 1.8012 1.9893 2.2867 3.1859 0.48455 1.1965 0.72776 2.461 0.72776 3.7918zm-8.6194 21.667c0 0.6909-0.0634 1.2726-0.18916 1.7442-0.12672 0.47165-0.34943 0.85108-0.66998 1.1375-0.32055 0.28639-0.74732 0.4935-1.2813 0.6197-0.53393 0.12621-1.189 0.18931-1.9652 0.18931-0.81535 0-1.4853-0.0631-2.01-0.18931-0.52368-0.1262-0.9458-0.33331-1.2664-0.6197-0.32054-0.28638-0.54325-0.66581-0.66998-1.1375-0.12579-0.47165-0.18916-1.0533-0.18916-1.7442 0-0.70788 0.0634-1.3025 0.18916-1.7822 0.12673-0.48054 0.34944-0.86806 0.66998-1.1634 0.32055-0.29528 0.74267-0.50562 1.2664-0.63183 0.52462-0.1262 1.1946-0.19012 2.01-0.19012 0.77621 0 1.4313 0.0639 1.9652 0.19012 0.53394 0.12621 0.96071 0.33655 1.2813 0.63183 0.32055 0.29529 0.54326 0.68281 0.66998 1.1634 0.1258 0.47975 0.18916 1.0744 0.18916 1.7822z" fill="url(#_Linear12)" fill-rule="nonzero" stroke-width=".86825"/>
    
    
    
    <g><path d="m242.97 95.213 44.643 44.643c1.331 1.332 2.064 3.101 2.064 4.982s-0.733 3.649-2.064 4.98l-137.79 137.79c-1.33 1.33-3.1 2.063-4.981 2.063s-3.651-0.733-4.981-2.063l-38.621-38.621 20.155-11.24 11.5 2 30-37 15-6.5 15.5-7.5 20.5-28.5-1.5-14.5z" fill="url(#_Linear13)"/><path d="m242.97 95.213 0.308 0.308c-1.058 3.095-1.177 6.095 1.421 7.424 2.422 1.239-26.802 39.947-26.484 44.677 0.787 11.679-11.114 24.259-12.358 40.669-0.329 4.34-18.533 4.793-18.683 9.287-0.153 4.591-17.79 2.328-17.135 7.1 0.46 3.348-10.061 5.764-15.744 8.677l-3.384 4.174c2.728 6.766-17.749 19.758-11.364 26.635 3.013 3.245-11.219-1.289-17.008-0.518-8.735 1.164-14.572 4.419-17.972 8.675l-3.33-3.33 20.155-11.24 11.5 2 18.019-22.222c-0.63-1.561 0.924-2.914 3.384-4.174l8.597-10.604 15-6.5 15.5-7.5 20.5-28.5-1.5-14.5z" fill="url(#_Linear14)"/><path d="m62.522 79.397 77.335-77.334c1.33-1.331 3.1-2.063 4.981-2.063s3.651 0.732 4.981 2.063l22.214 22.215-18.73 9.59-16.163 21.13-19.208 1.558-12.82 12.079-20.097 4.959-12.679 5.43z" fill="#200e00"/><path d="m167.01 20.25 5.027 5.028-18.73 9.59-16.163 21.13-19.208 1.558-12.82 12.079-20.097 4.959-12.679 5.43-9.814 0.373 4.937-4.936 15.377-4.561s9.714 1.46 25.818-10.662c4.769-3.589 21.46-9.721 27.202-12.594 7.634-3.819 9.299-7.29 10.075-17.041 0.363-4.555 18.657-5.785 21.075-10.353z" fill="url(#_Linear15)"/></g>
    
    
    
    
    
    
    <path d="m44.731 192.48 12.753-15.972 9.211 1.546 6.355-4.713 4.683 0.941 1.458-2.378-4.97-6.76-1.612-6.619c-0.683 0.208-1.06 0.321-1.06 0.321s-20.09 3.697-18.322-3.817c1.527-6.489 8.78-9.543 8.78-9.543l5.343-4.198-1.526-19.849 12.214-3.817 10.688-9.925 3.817-3.053 3.435 4.962 11.833 13.36 10.306-4.581s8.016-3.817 9.161 3.054c0.963 5.777-4.822 16.144-11.68 21.565l0.038 1.146 7.062 4.581-4.771 4.39-0.968 20.755-3.804 1.002-12.978 3.817c-1.175 5.009-2.321-2.087-2.953 6.209-0.11 1.445 24.023 2.599 23.92 4.687l11.496 16.122 11.872 7.328-3.407-11.725 1.531-10.159 1.68-12.119 5.083-3.351-4.292-34.437 4.302-0.758c-0.371-2.772 3.109-2.083 6.813-1.798l4.485 3.749-2.579 32.457 3.875-0.406 6.687 6.137-4.736 6.414 0.054 9.8-10.495 2.918 6.774 11.015 12.31 15.583-2.69 19.831-19.471-4.544-22.751-10.234-5.697 11.287-4.252 21.964-2.655-1.834z" fill="url(#_Radial16)"/><path d="m44.731 192.48 12.753-15.972 9.211 1.546 6.355-4.713 4.683 0.941 1.458-2.378-4.97-6.76-1.612-6.619c-0.683 0.208-1.06 0.321-1.06 0.321s-20.09 3.697-18.322-3.817c1.527-6.489 8.78-9.543 8.78-9.543l5.343-4.198-1.526-19.849 12.214-3.817 10.688-9.925 3.817-3.053 3.435 4.962 11.833 13.36 10.306-4.581s8.016-3.817 9.161 3.054c0.963 5.777-4.822 16.144-11.68 21.565l0.038 1.146 7.062 4.581-4.771 4.39-1.336 14.123 1.106 6.986-4.542 0.648-12.978 3.817c2.672 0.351-3.105 1.904-1.23 2.246 7.29 1.333 10.121 1.107 11.838 6.179 0.947 2.799 4.994-1.27 4.761 1.792-0.11 1.445 5.701-1.409 5.598 0.679l11.496 16.122 11.872 7.328-3.407-11.725 1.531-10.159 1.68-12.119 5.083-3.351-4.292-34.437 4.302-0.758c-0.371-2.772 3.109-2.083 6.813-1.798l4.485 3.749-2.579 32.457 3.875-0.406 6.687 6.137-4.736 6.414 0.054 9.8-10.495 2.918 6.774 11.015 12.31 15.583-2.69 19.831-19.471-4.544-22.751-10.234-5.697 11.287-4.252 21.964-2.655-1.834z" fill="url(#_Linear17)"/><path d="m130.2 229.86 42.402-3.4983-42.402 3.4983-2.5112 1.5551-5.6958 11.286-4.253 21.965 1.444-20.74z" fill="#ffce00" stroke-width="1.1451"/><path d="m117.23 175.52c-0.0149 3e-3 0.797-7.6551-0.41568-13.446-0.30117-1.4348 3.054-8.5449 1.1119-8.9445-1.5539-0.32064 2.8181-4.3835 0.82678-4.4339-1.468-0.0366-1.3844-4.6824-3.117-4.537-6.1928 0.52217-11.072 5.0614-18.432 7.6494-11.999 4.2186-25.655 7.0471-25.655 7.0471s-9.2892 0.48667-4.1923 0.58515c11.626 0.22215 43.698-13.059 50.773-21.816 2.8823-3.567 6.8536-11.262 6.7413-14.411-0.0939-2.651-3.6312-5.7622-3.6312-5.7622l-16.28 7.4524-12.418-20.251 3.4354 4.963 11.833 13.359 10.306-4.5805s8.0158-3.8167 9.161 3.054c0.96305 5.7771-4.8221 16.144-11.68 21.565l0.0389 1.1463 7.0608 4.5805-4.7706 4.3904 0.95389 14.314-1.6501 8.0765-17.053 3.1834c-0.36529 1.5551-0.34582 1.3707-0.6905 1.4154-0.76609 0.0985 3.6644 1.9753 5.0477 1.4177 2.2204-0.89549 4.3732 0.5634 8.5197 1.3272 1.6639 0.30689-3.8144 1.9101-2.6796 2.691 2.6819 1.8471 10.796 3.4812 10.769 4.0457l11.497 16.121 12.174 7.567-3.709-11.964 1.5299-10.158 1.681-12.119 5.082-3.3518-4.2908-34.437 4.3011-0.75807c-0.37102-2.7712 3.109-2.0818 6.8135-1.7978l4.4843 3.7491-2.5788 32.457 3.8751-0.40537 6.6875 6.1367-4.7362 6.4138 0.055 9.7999-10.496 2.9178 6.7745 11.015 12.31 15.583-14.652-13.696-3.109-10.75 7.709-4.6629 1.4085-10.206 4.7362-6.4138-10.966-1.831-0.0332-22.897-1.61 13.832 1.8047-15.373c2.099-11.988-3.0907-7.1456-3.156-8.0181-0.0595-0.79357-1.2871 14.518-1.3867 13.232-0.43285-5.571-0.80845-12.497-1.4062-14.896-0.26109-1.0512 0.0309 13.282-0.25766 12.135-1.3787-5.484-2.9315-11.456-3.4079-12.108-1.0352-1.4165 1.8723 16.703 1.87 17.422-9e-3 2.7139 1.3718 10.655 2.1322 14.074 0.65616 2.9441 0.77754 1.7612 0 0l-0.58745 3.2739-4.8301 0.5405-3.9713 9.3396-1.7795 11.96 5.2733 12.972-15.826-6.2776-9.903-15.232-13.684-9.2698-8.3754-1.3799-4.1167 1.444c-1.8849-1.6684-4.1763-7.3196-8.8701-6.1791l-4.1911-2.8204 3.2957-1.1841 11.402 8.4189 1.4829-3.5201 4.1339 0.11794-2.0704-13.258-4.7305-2.0166-0.86113-3.0151 4.7328 2.194 4.1087 13.581z" fill="url(#_Linear18)" stroke-width="1.1451"/><path d="m147.64 144.51s-8.7531-2.9628-7.6022-10.789c1.1509-7.826 5.9846-5.9846 2.3018-13.58s2.7621-8.5165 2.7621-8.5165-2.7621 1.8414-0.69053 3.6828c2.0716 1.8414 3.2225 5.294 3.2225 5.294s3.2224 2.3018 3.913-2.3018-4.3733-3.6828 0-11.969 7.1354-6.9053 7.1354-6.9053-3.4526 1.8414-2.0716 5.9846c1.381 4.1432 3.6828 9.4372 3.6828 9.4372s3.2225 6.6751 0 10.588c-3.2225 3.913-0.9207 6.2147-0.9207 6.2147s-0.40971 0.63437 4.1938-3.2786c4.6035-3.913 1.0671-7.2533 1.0671-7.2533s8.5137 2.5052 4.6431 5.9671c-6.304 5.6365-1.4667 7.4623-1.4667 7.4623 4.5133 10.198-13.327 13.793-20.17 9.9629z" fill="#ff5100" stroke-width=".9207"/><path d="m149.83 143.62s-5.1865-1.7556-4.5046-6.3927c0.68194-4.6372 3.5461-3.5461 1.3639-8.0468-2.1822-4.5008 1.6366-5.0463 1.6366-5.0463s-1.6366 1.0911-0.40916 2.1822c1.2275 1.0911 1.9094 3.1369 1.9094 3.1369s1.9094 1.3639 2.3186-1.3639c0.40917-2.7277-2.5914-2.1822 0-7.0921 2.5914-4.9099 4.228-4.0916 4.228-4.0916s-2.0458 1.0911-1.2275 3.5461c0.81832 2.455 2.1822 5.5919 2.1822 5.5919s1.9094 3.9552 0 6.2738c-1.9094 2.3186-0.54555 3.6824-0.54555 3.6824s-0.24277 0.37589 2.485-1.9427 0.63229-4.2978 0.63229-4.2978 5.0447 1.4844 2.7512 3.5357c-3.7354 3.3398-0.86906 4.4217-0.86906 4.4217 2.6743 6.0425-7.8968 8.1729-11.951 5.9034z" fill="#ffb700" stroke-width=".54555"/><path d="m151.09 144.35s-3.7004-0.88317-3.2139-3.216 2.53-1.7839 0.97308-4.0481c-1.5569-2.2642 1.1677-2.5386 1.1677-2.5386s-1.1677 0.54889-0.29192 1.0978c0.87577 0.5489 1.3623 1.5781 1.3623 1.5781s1.3623 0.68611 1.6542-0.68612c0.29193-1.3722-1.8488-1.0978 0-3.5678 1.8489-2.47 3.0166-2.0584 3.0166-2.0584s-1.4596 0.54889-0.87578 1.7839 1.5569 2.8131 1.5569 2.8131 1.3623 1.9897 0 3.1561c-1.3623 1.1664-0.38924 1.8525-0.38924 1.8525s-0.17321 0.18909 1.773-0.9773c1.9462-1.1664 0.45112-2.1621 0.45112-2.1621s3.5992 0.74677 1.9629 1.7787c-2.6651 1.6802-0.62005 2.2244-0.62005 2.2244 1.908 3.0398-5.6341 4.1115-8.5269 2.9698z" fill="#ffff9e" stroke-width=".32684"/>
    
    
    
    
    
    
    
    
    
    
    
    
    
    
    
    
    
    
    
    
    
    
    
    
    
    
    
    
    
    
    
    
    
    
    
    <path d="m228.41 80.655 7.042 7.041 0.327 20.016s-0.347 21.979-0.579 27.447c-0.231 5.467-0.203 17.206-0.203 17.206l-0.044 0.025c-3.738 2.075-4.567 4.379-4.452 1.656 0.077-1.823-1.219-44.896-2.091-73.391z" fill="url(#_Linear19)"/><path d="m94.002 47.918c-0.885 2.668-2.496 6.853-5.249 13.318-10.143 23.822-23.521 35.186-23.521 35.186s0.034 1.473-18.667 21.805-22.148 30.731-22.148 30.731l-5.214 13.757-1.705 2.537-15.434-15.434c-1.331-1.33-2.064-3.099-2.064-4.98s0.733-3.651 2.063-4.982z" fill="url(#_Linear20)"/><path d="m91.556 50.364c-1.002 2.494-2.411 5.775-4.357 10.069-10.686 23.584-24.32 34.638-24.32 34.638s0 1.474-19.161 21.372c-19.161 19.899-22.846 30.216-22.846 30.216l-5.528 13.635-1.16 1.644-12.12-12.12c-1.331-1.33-2.064-3.099-2.064-4.98s0.733-3.651 2.063-4.982z" fill="url(#_Linear21)"/><path d="m233.69 85.938 5.849 5.849-0.764 12.258s0.319 25.979 0.088 31.447 1.13 9.873 1.13 9.873 4.75 4.076 0.974 6.157-5.586 1.258-5.47-1.476c0.069-1.634-0.965-36.401-1.807-64.108z" fill="url(#_Linear22)"/><path d="m116.67 25.246c0.489 2.542 0.574 6.245-0.364 11.604-2.579 14.74-9.949 22.478-9.949 22.478l-15.477 19.53s-8.843 3.685-20.266 22.477c-11.424 18.793-14.74 24.321-14.74 24.321l-10.686 12.897-18.425 13.634-10.686 1.474-9.448 0.727-4.569-4.57c-0.487-0.486-0.893-1.031-1.213-1.619l10.071 0.671 8.107-2.579 15.477-7.001s11.791-11.423 18.056-22.847c6.264-11.423 14.739-21.372 14.739-21.372s4.054-15.845 12.897-21.741c8.844-5.895 19.162-14.002 19.162-14.002s8.843-8.107 9.212-15.108c0.232-4.407 0.318-8.669 0.349-11.222z" fill="url(#_Linear23)"/><path d="m115.49 26.427c0.169 2.344 0.031 5.385-0.657 9.318-2.579 14.739-9.949 22.477-9.949 22.477l-15.477 19.53s-8.843 3.685-20.266 22.478c-11.424 18.793-14.74 24.32-14.74 24.32l-10.686 12.897-18.424 13.634-10.687 1.474-9.106 0.701-3.437-3.438c-0.763-0.762-1.329-1.668-1.673-2.657l9.058 0.604 8.106-2.579 15.477-7.002s11.791-11.423 18.056-22.846c6.264-11.423 14.739-21.372 14.739-21.372s4.054-15.845 12.897-21.741c8.844-5.896 19.162-14.003 19.162-14.003s8.843-8.106 9.212-15.108c0.164-3.125 0.255-6.177 0.306-8.598z" fill="url(#_Linear24)"/><path d="m141.51 0.833c0.832 9.066 1.495 21.161 0.963 34.111-1.105 26.899-13.634 43.481-20.267 50.483-1.457 1.538-2.932 2.596-4.449 3.342-5.385 2.648-11.29 1.359-18.765 3.659-9.581 2.948-20.636-6.633-25.058-11.055-2.104-2.105-3.374-5.879-4.127-9.257l6.102-6.103 4.29 7.99 10.317 8.844s9.213 1.474 24.689-4.053c15.477-5.528 17.319-37.955 18.793-50.483 0.615-5.225 0.653-13.268 0.488-20.874l5.374-5.374c0.495-0.495 1.051-0.907 1.65-1.23z" fill="url(#_Linear25)"/><path d="m140.3 1.66c0.699 8.646 1.176 19.519 0.701 31.073-1.105 26.899-13.634 43.481-20.267 50.483-6.632 7.001-13.634 4.053-23.214 7.001-9.581 2.948-20.636-6.633-25.058-11.055-1.509-1.509-2.589-3.878-3.357-6.342l6.62-6.62 3.002 5.592 10.317 8.844s9.213 1.474 24.689-4.053c15.477-5.528 17.319-37.954 18.793-50.483 0.518-4.4 0.626-10.8 0.549-17.25l6.787-6.787c0.141-0.141 0.287-0.275 0.438-0.403z" fill="url(#_Linear26)"/><path d="m228.53 80.774 12.941 12.94c1.448 6.78 3.193 14.799 4.707 21.36 3.316 14.371 17.319 35.743 22.477 38.691 5.05 2.886 15.044-3.409 20.994-9.553 0.019 0.207 0.028 0.416 0.028 0.626 0 1.881-0.733 3.649-2.064 4.98l-14.002 14.003c-2.33-0.21-4.835-0.722-7.535-1.581-16.214-5.159-17.319-20.635-27.637-46.798-4.129-10.47-7.432-23.183-9.909-34.668z" fill="url(#_Linear27)"/><path d="m231.09 83.336 12.923 12.924c1.328 6.179 2.833 13.058 4.162 18.814 3.316 14.371 17.319 35.743 22.477 38.691 4.492 2.566 12.893-2.129 18.882-7.52-0.271 1.344-0.931 2.581-1.924 3.573l-13.787 13.787c-1.812-0.272-3.727-0.721-5.75-1.365-2.565-0.816-4.752-1.89-6.657-3.224-4.752-3.328-7.75-8.271-10.489-14.852-3.105-7.459-5.877-17.022-10.491-28.722-3.824-9.698-6.94-21.321-9.346-32.106z" fill="url(#_Linear28)"/><path d="m214.58 66.821 10.387 10.386c-0.763 17.102 0.833 76.287 4.789 86.507 2.421 6.253 8.187 20.46 14.58 28.037 0.209 0.248 0.419 0.486 0.631 0.716l-6.807 6.808c-4.941-5.507-10.403-13.194-14.668-23.401-7.7-18.425-8.833-79.334-8.912-109.05z" fill="url(#_Linear29)"/><path d="m217.53 69.773 10.327 10.327c-0.624 18.732 0.991 75.134 4.844 85.088 2.248 5.807 7.382 18.474 13.223 26.32l-6.865 6.865c-4.363-5.276-8.939-12.211-12.622-21.025-7.574-18.124-8.794-77.354-8.907-107.58z" fill="url(#_Linear30)"/><path d="m126.97 98.637s0.87671-10.062-0.94904-13.01c-1.7556-2.8354-5.483-3.7124-8.3183-1.9569-2.8362 1.7561-3.7126 5.4836-1.9569 8.3191 1.8258 2.9487 11.224 6.6481 11.224 6.6481z" fill="#18261b" stroke-width="1.037"/><path d="m126.97 98.637s0.87671-10.062-0.94904-13.01c-1.7556-2.8354-5.483-3.7124-8.3183-1.9569-0.95619 0.59205 2.0505 1.0246 3.4538 3.2748 2.7591 4.4259 5.8136 11.692 5.8136 11.692z" fill="url(#_Linear31)" stroke-width="1.037"/><path d="m140.63 87.287s-6.8651-6.7599-10.185-7.7616c-3.1928-0.96322-7.6744-0.55812-8.6376 2.6345-0.96346 3.1937 2.8163 6.6104 6.0092 7.5736 3.3203 1.0017 12.814-2.4466 12.814-2.4466z" fill="#18261b" stroke-width="1.037"/><path d="m140.63 87.287s-6.8651-6.7599-10.185-7.7616c-3.1928-0.96322-6.6982-1.4151-8.6376 2.6345-2.238 4.6734 16.655 0.91798 18.823 5.1271z" fill="url(#_Linear32)" stroke-width="1.037"/><path d="m119.66 56.853s4.6861-4.1752 6.9838-4.2477c2.2623-0.0714 4.402 1.6656 4.7753 3.8766 0.3734 2.2116-1.1601 4.0646-3.4224 4.136-2.2976 0.07251-8.3366-3.7649-8.3366-3.7649z" fill="#18261b" stroke-width=".69195"/><path d="m119.66 56.853s3.7593 1.3115 6.0766 1.2383c2.2277-0.0703 5.3092-3.8204 5.6824-1.6094 0.3734 2.2116-1.1323 4.0637-3.36 4.134-2.3166 0.07311-8.399-3.7629-8.399-3.7629z" fill="url(#_Linear33)" stroke-width=".69195"/><path d="m114.16 40.265s9.1114 1.8383 11.902 3.8923c2.6836 1.9752 5.1983 5.6503 3.5258 8.0355-1.6731 2.386-6.4722 1.2171-9.1558-0.75807-2.7908-2.0541-6.2721-11.17-6.2721-11.17z" fill="#18261b" stroke-width=".96871"/><path d="m114.16 40.265s4.7912 7.1381 7.5828 9.1928c2.6836 1.9752 9.5177 0.34983 7.8452 2.7351-1.6731 2.386-6.4722 1.2171-9.1558-0.75807-2.7908-2.0541-6.2721-11.17-6.2721-11.17z" fill="url(#_Linear34)" stroke-width=".96871"/><path d="m50.175 146.6s-0.61336-7.1881-2.2588-9.04c-1.5823-1.7808-4.3127-1.9422-6.0933-0.35998-1.7812 1.5827-1.9422 4.3131-0.35991 6.0939 1.6454 1.8519 8.712 3.3061 8.712 3.3061z" fill="#18261b" stroke-width=".74074"/><path d="m50.175 146.6s-0.61336-7.1881-2.2588-9.04c-1.5823-1.7808-4.3127-1.9422-6.0933-0.35998-1.7812 1.5827 3.058-0.52011 4.6402 1.2607 1.6454 1.8519 3.7119 8.1393 3.7119 8.1393z" fill="url(#_Linear35)" stroke-width=".74074"/><path d="m65.509 136.81s-7.9211-5.4849-11.364-5.9034c-3.3106-0.40241-7.6567 0.7639-8.0591 4.0743-0.40252 3.3115 3.9064 6.0307 7.217 6.4331 3.4428 0.41848 12.206-4.6041 12.206-4.6041z" fill="#18261b" stroke-width="1.037"/><path d="m65.509 136.81s-7.9211-5.4849-11.364-5.9034c-3.3106-0.40241-10.55 1.8563-8.0591 4.0743 1.0976 0.97752 4.2401-0.30312 7.5507 0.0993 3.4428 0.41848 11.872 1.7298 11.872 1.7298z" fill="url(#_Linear36)" stroke-width="1.037"/><path d="m200.22 121.26s9.4898-1.0866 12.605 0.0699c2.9952 1.112 6.0565 3.976 4.6945 6.8949-1.3624 2.9198-6.3889 3.2917-9.3841 2.1797-3.1148-1.1564-7.9151-9.1444-7.9151-9.1444z" fill="#18261b" stroke-width=".9959"/><path d="m200.22 121.26s9.4898-1.0866 12.605 0.0699c2.9952 1.112 6.0565 3.976 4.6945 6.8949-1.3624 2.9198-3.8884-3.3753-6.8836-4.4874-3.1148-1.1564-10.416-2.4774-10.416-2.4774z" fill="url(#_Linear37)" stroke-width=".9959"/><path d="m208.11 136.07s4.427-5.7644 6.8583-6.6132c2.0757-0.72474 4.3193 0.38222 5.0062 2.4707 0.6871 2.0892-0.44116 4.3734-2.5169 5.0982-2.4313 0.84888-9.3476-0.95567-9.3476-0.95567z" fill="#18261b" stroke-width=".71137"/><path d="m208.11 136.07s4.427-5.7644 6.8583-6.6132c2.0757-0.72474 4.3193 0.38222 5.0062 2.4707 0.6871 2.0892-2.2744-1.2934-4.3508-0.56846-2.4306 0.84864-7.5137 4.711-7.5137 4.711z" fill="url(#_Linear38)" stroke-width=".71137"/><path d="m234.86 158.19s6.1754-7.2872 9.2378-8.5758c2.9449-1.2392 7.137-1.2462 8.1417 1.814 1.005 3.0612-2.4052 6.7726-5.3501 8.0118-3.0624 1.2887-12.029-1.25-12.029-1.25z" fill="#18261b" stroke-width=".9959"/><path d="m234.86 158.19s6.1754-7.2872 9.2378-8.5758c2.9449-1.2392 7.137-1.2462 8.1417 1.814 1.005 3.0612-3.5722-1.0605-6.517 0.17868-3.0624 1.2887-10.862 6.5831-10.862 6.5831z" fill="url(#_Linear39)" stroke-width=".9959"/><path d="m250.74 163.59s-0.71746-7.2327 0.47418-9.5156c1.0174-1.9491 3.4108-2.6775 5.341-1.6249 1.9308 1.053 2.6716 3.4906 1.6542 5.4396-1.1916 2.2829-7.4694 5.7008-7.4694 5.7008z" fill="#18261b" stroke-width=".71137"/><path d="m250.74 163.59s-0.71746-7.2327 0.47418-9.5156c1.0174-1.9491 3.4108-2.6775 5.341-1.6249 1.9308 1.053-1.9949 1.8234-3.0126 3.773-1.1913 2.2822-2.8025 7.3674-2.8025 7.3674z" fill="url(#_Linear40)" stroke-width=".71137"/><path d="m208.11 180.69s6.1754-7.2872 9.2378-8.5758c2.9449-1.2392 7.137-1.2462 8.1417 1.814 1.005 3.0612-2.4052 6.7726-5.3501 8.0118-3.0624 1.2887-12.029-1.25-12.029-1.25z" fill="#18261b" stroke-width=".9959"/><path d="m208.11 180.69s6.1754-7.2872 9.2378-8.5758c2.9449-1.2392 7.137-1.2462 8.1417 1.814 1.005 3.0612-3.4052-0.89428-6.3501 0.3449-3.0624 1.2887-11.029 6.4169-11.029 6.4169z" fill="url(#_Linear41)" stroke-width=".9959"/><path d="m210.99 165.56s6.7305-2.7436 9.2579-2.25c2.1578 0.42144 3.5365 2.5091 3.0759 4.6589-0.46074 2.1505-2.5873 3.5535-4.7451 3.1321-2.5274-0.49364-7.5887-5.541-7.5887-5.541z" fill="#18261b" stroke-width=".71137"/><path d="m210.99 165.56s6.7305-2.7436 9.2579-2.25c2.1578 0.42144 3.5365 2.5091 3.0759 4.6589-0.46074 2.1505-1.7538-2.1133-3.9124-2.5349-2.5267-0.4935-8.4215 0.12596-8.4215 0.12596z" fill="url(#_Linear42)" stroke-width=".71137"/>
    <defs>
        
        <linearGradient id="_Linear2" x2="1" gradientTransform="matrix(122.03 75.172 -99.837 162.07 150.53 48.613)" gradientUnits="userSpaceOnUse"><stop stop-color="#ffe177" stop-opacity=".72" offset="0"/><stop stop-color="#ff981d" stop-opacity=".18" offset=".49"/><stop stop-color="#ff8100" stop-opacity=".01" offset="1"/></linearGradient>
        <linearGradient id="_Linear3" x2="1" gradientTransform="matrix(127.18 148.87 -197.72 168.92 106.31 43.823)" gradientUnits="userSpaceOnUse"><stop stop-color="#ffe177" stop-opacity=".72" offset="0"/><stop stop-color="#ffc04e" stop-opacity=".48" offset=".26"/><stop stop-color="#ffb33d" stop-opacity=".37" offset=".48"/><stop stop-color="#ff8c0e" stop-opacity=".08" offset=".72"/><stop stop-color="#ff8100" stop-opacity="0" offset="1"/></linearGradient>
        <linearGradient id="_Linear4" x2="1" gradientTransform="matrix(57.344 131.03 -174.02 76.159 102.09 75.299)" gradientUnits="userSpaceOnUse"><stop stop-color="#ffe177" stop-opacity=".72" offset="0"/><stop stop-color="#ff971b" stop-opacity=".16" offset=".47"/><stop stop-color="#ff8100" stop-opacity="0" offset="1"/></linearGradient>
        <linearGradient id="_Linear5" x2="1" y2=".20222" gradientTransform="matrix(62.566 48.936 -59.978 51.049 208.19 161.61)" gradientUnits="userSpaceOnUse"><stop offset="0"/><stop stop-color="#157572" offset="1"/></linearGradient>
        <linearGradient id="_Linear6" x2="1" y2=".076162" gradientTransform="matrix(-33.737 -71.195 134.67 -42.483 198.27 243.54)" gradientUnits="userSpaceOnUse"><stop stop-color="#417c70" offset="0"/><stop stop-color="#080808" offset="1"/></linearGradient>
        <linearGradient id="_Linear7" x2="1" gradientTransform="matrix(92.771 0 0 24.292 142.18 138.9)" gradientUnits="userSpaceOnUse"><stop stop-color="#ffbc1c" offset="0"/><stop stop-color="#4c2600" offset="1"/></linearGradient>
        <radialGradient id="_Radial8" cx="0" cy="0" r="1" gradientTransform="matrix(42.376 64.629 -64.629 42.376 190.69 66.265)" gradientUnits="userSpaceOnUse"><stop stop-color="#ffe488" offset="0"/><stop stop-color="#ffd86b" stop-opacity=".93" offset=".24"/><stop stop-color="#ffb61a" stop-opacity=".74" offset=".5"/><stop stop-color="#ff8100" stop-opacity="0" offset="1"/></radialGradient>
        <linearGradient id="_Linear9" x2="1" y2=".72742" gradientTransform="matrix(-72.526 -26.649 82.789 -23.346 229.11 155.14)" gradientUnits="userSpaceOnUse"><stop stop-color="#09544f" stop-opacity=".24" offset="0"/><stop stop-color="#200e00" stop-opacity=".68" offset="1"/></linearGradient>
        <linearGradient id="_Linear10" x2="1" y2=".035619" gradientTransform="matrix(-42.229 -24.635 26.743 -42.229 215.95 120.74)" gradientUnits="userSpaceOnUse"><stop stop-color="#09544f" offset="0"/><stop stop-color="#200e00" offset="1"/></linearGradient>
        <linearGradient id="_Linear11" x2="1" gradientTransform="matrix(-77.35 -72.831 72.831 -77.35 231.07 134.78)" gradientUnits="userSpaceOnUse"><stop stop-color="#e49b27" offset="0"/><stop stop-color="#e9a918" offset=".24"/><stop stop-color="#ffe378" offset="1"/></linearGradient>
        <linearGradient id="_Linear12" x2="1" y2=".062388" gradientTransform="matrix(-30.711 -32.037 79.633 -57.541 201.74 113.82)" gradientUnits="userSpaceOnUse"><stop stop-color="#417c70" offset="0"/><stop stop-color="#080808" offset="1"/></linearGradient>
        <linearGradient id="_Linear13" x2="1" gradientTransform="matrix(-149.72 -91 94.812 -155.99 288.39 292.46)" gradientUnits="userSpaceOnUse"><stop stop-color="#09544f" offset="0"/><stop stop-color="#200e00" offset="1"/></linearGradient>
        <linearGradient id="_Linear14" x2="1" gradientTransform="matrix(143.5 -196.5 196.5 143.5 135.05 262.65)" gradientUnits="userSpaceOnUse"><stop stop-color="#613c00" offset="0"/><stop stop-color="#f6a815" offset=".24"/><stop stop-color="#4c2600" stop-opacity="0" offset="1"/></linearGradient>
        <linearGradient id="_Linear15" x2="1" gradientTransform="matrix(170.56 -82.533 98.259 203.05 46.251 107.23)" gradientUnits="userSpaceOnUse"><stop stop-color="#613c00" offset="0"/><stop stop-color="#f6a815" offset=".58"/><stop stop-color="#4c2600" stop-opacity="0" offset="1"/></linearGradient>
        <radialGradient id="_Radial16" cx="0" cy="0" r="1" gradientTransform="matrix(56.437 -37.667 43.344 64.944 136.03 150.7)" gradientUnits="userSpaceOnUse"><stop stop-color="#ffe300" offset="0"/><stop stop-color="#ff9c00" offset=".09"/><stop stop-color="#4e3000" offset=".6"/><stop offset="1"/></radialGradient>
        <linearGradient id="_Linear17" x2="1" gradientTransform="matrix(79.437 76.961 -88.562 91.411 61.53 225.2)" gradientUnits="userSpaceOnUse"><stop stop-opacity=".34" offset="0"/><stop stop-color="#46cdca" stop-opacity=".34" offset="1"/></linearGradient>
        <linearGradient id="_Linear18" x2="1" gradientTransform="matrix(106.77 0 0 121.72 65.829 165.51)" gradientUnits="userSpaceOnUse"><stop stop-color="#d9580d" offset="0"/><stop stop-color="#ffce00" offset="1"/></linearGradient>
        <linearGradient id="_Linear19" x2="1" y2="-.23338" gradientTransform="matrix(17.268 118.84 -80.222 25.58 209.97 98.281)" gradientUnits="userSpaceOnUse"><stop stop-color="#1e9500" offset="0"/><stop stop-color="#e7c001" offset=".4"/><stop stop-color="#173222" offset="1"/></linearGradient>
        <linearGradient id="_Linear20" x2="1" gradientTransform="matrix(-73.507 95.993 -113.08 -86.59 90.844 51.338)" gradientUnits="userSpaceOnUse"><stop stop-color="#1e9500" offset="0"/><stop stop-color="#e7c001" offset=".4"/><stop stop-color="#173222" offset="1"/></linearGradient>
        <linearGradient id="_Linear21" x2="1" gradientTransform="matrix(110.99 -129.67 152.74 130.75 5.5327 137.98)" gradientUnits="userSpaceOnUse"><stop stop-color="#18271c" offset="0"/><stop stop-color="#3a620e" offset=".41"/><stop stop-color="#18261b" offset="1"/></linearGradient>
        <linearGradient id="_Linear22" x2="1" y2="-.037882" gradientTransform="matrix(18.438 108.99 -510.94 189.68 204.12 120.03)" gradientUnits="userSpaceOnUse"><stop stop-color="#18271c" offset="0"/><stop stop-color="#3a620e" offset=".41"/><stop stop-color="#18261b" offset="1"/></linearGradient>
        <linearGradient id="_Linear23" x2="1" gradientTransform="matrix(-65.707 97.28 -97.28 -65.707 102.76 71.429)" gradientUnits="userSpaceOnUse"><stop stop-color="#1e9500" offset="0"/><stop stop-color="#e7c001" offset=".4"/><stop stop-color="#173222" offset="1"/></linearGradient>
        <linearGradient id="_Linear24" x2="1" gradientTransform="matrix(81.333 -86.667 86.667 81.333 31.537 152.59)" gradientUnits="userSpaceOnUse"><stop stop-color="#18271c" offset="0"/><stop stop-color="#85bd1f" offset=".41"/><stop stop-color="#18261b" offset="1"/></linearGradient>
        <linearGradient id="_Linear25" x2="1" gradientTransform="matrix(-52.607 89.574 -120.72 -70.9 127.4 42.197)" gradientUnits="userSpaceOnUse"><stop stop-color="#1e9500" offset="0"/><stop stop-color="#e7c001" offset=".55"/><stop stop-color="#173222" offset="1"/></linearGradient>
        <linearGradient id="_Linear26" x2="1" gradientTransform="matrix(41.667 -72.667 72.667 41.667 98.8 132.32)" gradientUnits="userSpaceOnUse"><stop stop-color="#18271c" offset="0"/><stop stop-color="#85bd1f" offset=".41"/><stop stop-color="#18261b" offset="1"/></linearGradient>
        <linearGradient id="_Linear27" x2="1" gradientTransform="matrix(58.221 74.435 -106.39 83.217 201.01 68.095)" gradientUnits="userSpaceOnUse"><stop stop-color="#1e9500" offset="0"/><stop stop-color="#e7c001" offset=".4"/><stop stop-color="#173222" offset="1"/></linearGradient>
        <linearGradient id="_Linear28" x2="1" gradientTransform="matrix(-43.333 -124 124 -43.333 244.11 147.62)" gradientUnits="userSpaceOnUse"><stop stop-color="#18271c" offset="0"/><stop stop-color="#3a620e" offset=".41"/><stop stop-color="#18261b" offset="1"/></linearGradient>
        <linearGradient id="_Linear29" x2="1" gradientTransform="matrix(35.816 150.34 -375.43 89.439 179.56 32.98)" gradientUnits="userSpaceOnUse"><stop stop-color="#1e9500" offset="0"/><stop stop-color="#e7c001" offset=".4"/><stop stop-color="#173222" offset="1"/></linearGradient>
        <linearGradient id="_Linear30" x2="1" gradientTransform="matrix(22.523 113.33 -283.01 56.244 198.16 60.137)" gradientUnits="userSpaceOnUse"><stop stop-color="#18271c" offset="0"/><stop stop-color="#3a620e" offset=".41"/><stop stop-color="#18261b" offset="1"/></linearGradient>
        <linearGradient id="_Linear31" x2="1" gradientTransform="matrix(-10.275 6.3623 -9.2673 -14.967 127.47 87.973)" gradientUnits="userSpaceOnUse"><stop stop-color="#ffc400" offset="0"/><stop stop-color="#2ba30d" offset="1"/></linearGradient>
        <linearGradient id="_Linear32" x2="1" gradientTransform="matrix(-14.729 -13.731 25.425 -27.273 136.75 91.13)" gradientUnits="userSpaceOnUse"><stop stop-color="#ffc400" offset="0"/><stop stop-color="#2ba30d" offset="1"/></linearGradient>
        <linearGradient id="_Linear33" x2="1" y2="-.054046" gradientTransform="matrix(5.6998 -17.561 -27.476 -11.66 121.72 61.457)" gradientUnits="userSpaceOnUse"><stop stop-color="#ffc400" offset="0"/><stop stop-color="#2ba30d" offset="1"/></linearGradient>
        <linearGradient id="_Linear34" x2="1" y2="-.010843" gradientTransform="matrix(-5.2823 7.5331 15.693 11.55 124.26 42.829)" gradientUnits="userSpaceOnUse"><stop stop-color="#ffc400" offset="0"/><stop stop-color="#2ba30d" offset="1"/></linearGradient>
        <linearGradient id="_Linear35" x2="1" gradientTransform="matrix(-6.4533 5.7339 -8.3521 -9.3999 49.225 139.03)" gradientUnits="userSpaceOnUse"><stop stop-color="#ffc400" stop-opacity=".59" offset="0"/><stop stop-color="#2ba30d" stop-opacity=".59" offset="1"/></linearGradient>
        <linearGradient id="_Linear36" x2="1" gradientTransform="matrix(-1.2708 10.455 -19.359 -2.3531 56.372 131.18)" gradientUnits="userSpaceOnUse"><stop stop-color="#ffc400" stop-opacity=".68" offset="0"/><stop stop-color="#2ba30d" stop-opacity=".68" offset="1"/></linearGradient>
        <linearGradient id="_Linear37" x2="1" y2=".044106" gradientTransform="matrix(-4.3014 9.2184 17.515 6.5026 210.81 120.59)" gradientUnits="userSpaceOnUse"><stop stop-color="#ffc400" offset="0"/><stop stop-color="#2ba30d" offset="1"/></linearGradient>
        <linearGradient id="_Linear38" x2="1" y2=".011523" gradientTransform="matrix(2.4893 7.569 11.864 -4.1425 212.8 130.21)" gradientUnits="userSpaceOnUse"><stop stop-color="#ffc400" offset="0"/><stop stop-color="#2ba30d" offset="1"/></linearGradient>
        <linearGradient id="_Linear39" x2="1" y2=".044106" gradientTransform="matrix(3.173 9.665 17.22 -7.2462 242.12 150.45)" gradientUnits="userSpaceOnUse"><stop stop-color="#ffc400" stop-opacity=".53" offset="0"/><stop stop-color="#2ba30d" stop-opacity=".53" offset="1"/></linearGradient>
        <linearGradient id="_Linear40" x2="1" y2=".011523" gradientTransform="matrix(6.9953 3.8148 5.8151 -11.14 250.15 156.11)" gradientUnits="userSpaceOnUse"><stop stop-color="#ffc400" stop-opacity=".4" offset="0"/><stop stop-color="#2ba30d" stop-opacity=".4" offset="1"/></linearGradient>
        <linearGradient id="_Linear41" x2="1" y2=".044106" gradientTransform="matrix(3.173 9.665 17.22 -7.2462 215.37 172.95)" gradientUnits="userSpaceOnUse"><stop stop-color="#ffc400" stop-opacity=".56" offset="0"/><stop stop-color="#2ba30d" stop-opacity=".56" offset="1"/></linearGradient>
        <linearGradient id="_Linear42" x2="1" y2=".011523" gradientTransform="matrix(-1.6692 7.791 12.334 2.4089 217.99 162.87)" gradientUnits="userSpaceOnUse"><stop stop-color="#ffc400" stop-opacity=".65" offset="0"/><stop stop-color="#2ba30d" stop-opacity=".65" offset="1"/></linearGradient>
    
        
    
        
    
        
    
        
    
        
    
        
    
        
    
        
    
        
    
        
    
        
    
        
    
        
    
        
    
        
    
        
    
        
    
        
    
        
    
        
    
        
    
        
    
        
    
        
    
        
    
        
    
        
    
        
    
        
    
        
    
        
    
        
    
        
    
        
    
        
    
        
    
        
    
        
    
        
    
        
    
        
    </defs>
</svg>
