<?xml version="1.0" encoding="UTF-8"?>
<svg clip-rule="evenodd" fill-rule="evenodd" stroke-linecap="round" stroke-linejoin="round" version="1.1" viewBox="0 0 290 290" xml:space="preserve" xmlns="http://www.w3.org/2000/svg">
    <g id="contribute" transform="matrix(1.3333,0,0,-1.3333,0,290)">
        <path d="m108.63 0.24393c-1.4112 0-2.7376 0.54962-3.7353 1.5473l-103.34 103.34c-0.99874 0.99769-1.5484 2.3241-1.5484 3.7353s0.54962 2.7376 1.5473 3.7364l103.34 103.34c0.9977 0.99769 2.3241 1.5473 3.7353 1.5473 1.4112 0 2.7376-0.54962 3.7353-1.5473l103.34-103.34c0.99874-0.99874 1.5484-2.3252 1.5484-3.7364 0-1.4102-0.54962-2.7366-1.5484-3.7353l-103.34-103.34c-0.99769-0.9977-2.3241-1.5473-3.7353-1.5473" fill="url(#_Linear1)" fill-rule="nonzero" stroke-width="1.0469"/>
        <g transform="matrix(.74702 0 0 -.74702 -13.12 230.14)">
            <clipPath>
                <path d="m144.84 289.68c-1.881 0-3.651-0.733-4.981-2.063l-137.79-137.79c-1.331-1.33-2.064-3.099-2.064-4.98s0.733-3.651 2.063-4.982l137.79-137.79c1.33-1.331 3.1-2.063 4.981-2.063s3.651 0.732 4.981 2.063l137.79 137.79c1.331 1.332 2.064 3.101 2.064 4.982s-0.733 3.649-2.064 4.98l-137.79 137.79c-1.33 1.33-3.1 2.063-4.981 2.063" clip-rule="nonzero"/>
            </clipPath>
            <path d="m120.71 198.7s-3.057-1.239-5.855-0.491c-6.397 1.709-10.949 11.113-9.159 17.776 1.791 6.663 8.583 9.857 12.015 10.626 5.645 1.267 9.518-3.045 9.518-3.045l0.075-0.22 4.355 20.145-67.881 18.136-16.43-61.144 29.004-7.648c-2.568-1.411-6.108-5.129-6.944-8.242-1.587-5.904 1.978-9.417 7.646-10.932 5.668-1.514 10.303 0.042 11.889 5.946 0.837 3.114-0.442 8.018-1.959 10.519l28.512-6.917s5.192 15.394 5.214 15.491zm17.838-22.48c-0.61 3.728-1.244 2.374-0.471 5.64 1.315 5.552 11.03 9.107 17.427 7.398 6.396-1.709 11.726-7.869 10.864-13.718-0.489-3.32-0.917-7.094-3.501-8.73l21.401-5.717 5.98 22.254c1.539-2.188 3.791-3.854 6.531-4.586 6.396-1.709 13.043 2.313 14.833 8.976 1.791 6.662-1.949 13.459-8.345 15.168-2.74 0.732-5.525 0.413-7.956-0.715l6.147 22.873-64.116 17.131-6.843-27.108c-0.697 4.008-4.418 5.269-8.409 6.335-5.599 1.496-9.937-1.117-11.536-7.068-1.599-5.95 3.777-11.678 6.494-12.237 4.734-0.973 7.661-0.332 10.274 2.791l-6.417-23.419zm-74.085 5.823c0.626 3.874 3.66 8.34 3.66 8.34l-21.994 5.381-17.191-63.971 27.272-7.286c-2.356-1.648-5.648-3.73-6.466-6.771-1.79-6.662 3.455-11.702 9.852-13.411 5.131-1.371 9.264-0.204 11.735 6.109 1.54 3.935-1.163 8.067-2.377 10.668l27.865-7.445 6.936 25.81c1.531-2.543 3.205-7.349 6.196-8.307 9.067-2.905 10.983 7.291 11.571 9.477 1.79 6.663-0.192 12.205-6.589 13.914-3.034 0.81-4.619-1.175-7.22-2.613l6.296 25.69-21.412 5.584c2.032-2.916 0.867-4.839-0.626-7.466-3.33-5.862-10.006-7.725-16.402-6.016s-12.11 6.104-11.106 12.313z" fill="#808080"/><g clip-path="url(#_clip3)">
                    <path d="m15.843 96.978 40.178 164.86 158.47-12.838-16.797-136.55z" fill="#ceeeab" fill-rule="nonzero"/>
                    <path d="m91.802 111.05c-5.561 2.944-9.487 13.74-4.58 21.591 4.907 7.852 16.03-1.635 19.628-8.505 101.12-19.889 2.5164-29.803-15.048-13.086zm23.471 21.876c-2.085 0.191-5.846 6.133-6.46 9.2-0.654 3.272-4.253 8.833-4.58 16.03s6.216 8.833 11.45 8.506 3.599-8.833 2.617-19.629c-0.327 0-0.654-13.412-2.617-14.067-0.132-0.04-0.272-0.054-0.41-0.039z" fill="#a6dd8b" fill-rule="nonzero"/>
                    <path d="m116.99 110.4c-17.666 8.178-17.339 49.725-19.302 58.23-1.962 8.506-22.899 27.153-26.171 30.751-3.271 3.599-17.338 9.487-25.516 11.123l23.881-4.907c10.141-4.907 18.647-25.844 34.676-31.078 16.03-5.234 27.807 15.375 31.733 24.208 3.925 8.833 2.29 16.684 4.907 22.245 2.617 5.562 14.394 15.376 15.048 17.666l4.253 3.271s6.7648 7.9087 0.981-9.814c-5.561-14.721-32.059-44.818-22.899-52.669 20.798-9.6391 136.21-127.45-21.591-69.026zm17.338 7.197c2.944 3.271 2.617 9.487 0 10.468-2.617 0.982-16.684 10.469-13.74 18.647 2.944 8.179 2.29 23.554-4.58 23.554s-10.468 0-13.085-3.271c-2.617-3.272-2.617-15.703 0-25.844 1.5139-15.521 17.205-36.078 31.405-23.554zm9.2 92.539c0.266 0.015 2.494 4.6 6.175 9.201 3.926 4.907 4.253 10.795 4.253 10.795s-5.561-6.215-7.851-10.468-2.617-9.487-2.617-9.487c0-0.04 0.023-0.04 0.04-0.04z" fill="#aac3e7" fill-rule="nonzero"/>
                    <path d="m78.858 234.46c6.225 2.457 19.186-19.44 46.312-22.65 10.141 0.327 7.197-15.376 11.123-17.339 3.925-1.963 7.197 7.852 15.375 10.469 8.179 2.617 32.06-3.599 30.751-7.524-1.308-3.926-9.16-10.142-7.197-11.123 1.963-0.982 11.123 6.543 16.684 4.58m-132.16 1.963c15.703-6.216 17.666-6.87 17.993-11.45s-0.327-20.61-3.926-26.171c-3.598-5.562-17.011-17.993-20.609-31.733-3.599-13.739 0.327-53.65 11.122-63.137m-16.027 138.05c12.104-2.29 17.338-3.926 23.226-7.524 5.889-3.599 7.852-4.907 8.179-8.506 0.327-3.598 1.308-16.357-3.926-28.788s-16.357-41.219-10.795-50.706m-8.179 99.453c8.179-3.926 17.339-7.525 20.61-12.432s7.524-15.048 7.524-23.554c0-8.505-4.58-47.107 4.253-56.922m-33.036 60.516c-2.617-8.833-11.45-30.751-30.097-29.442" fill="none" stroke="#6d7f42" stroke-opacity=".39" stroke-width="1.31px"/>
                    <path d="m126.48 263.17 16.356-36.312 14.395-9.16 35.985 20.61 26.825-4.907-0.327-20.61-13.413-7.851 16.684-34.35 7.524-4.907 50.707-13.085m-205.12-95.852 10.142 47.435-27.48 29.116 11.777 13.739-15.703 15.049 0.655 5.888 26.498 32.06 18.32-8.833 26.825 24.208-13.74 36.967 13.413 11.122" fill="none" stroke="#d38484" stroke-linejoin="miter" stroke-width="2.62px"/>
                </g><path d="m73.986 192.42c-2.365-1.915-4.842-4.946-5.546-7.568-0.711-2.645-0.47-4.859 0.447-6.675 1.342-2.658 4.193-4.494 7.91-5.487 3.734-0.997 7.052-0.715 9.491 1.018 1.649 1.171 2.921 3.009 3.627 5.637 0.709 2.64 0.023 6.481-1.099 9.303l26.446-6.416c0.506-0.123 1.021 0.161 1.188 0.655 0 0 5.218 15.49 5.241 15.588 0.083 0.365-0.043 0.746-0.328 0.989-0.285 0.242-0.681 0.306-1.028 0.166 0 0-2.724-1.119-5.219-0.452-2.946 0.787-5.433 3.383-7.012 6.512-1.601 3.174-2.272 6.922-1.436 10.033 1.675 6.232 8.055 9.188 11.264 9.908 4.496 1.008 7.741-1.921 8.42-2.6l3e-3 -8e-3c0.145-0.428 0.557-0.706 1.008-0.68s0.829 0.349 0.924 0.79l4.356 20.145c0.113 0.523-0.205 1.044-0.723 1.182l-67.88 18.136c-0.536 0.143-1.085-0.174-1.229-0.709l-16.431-61.144c-0.069-0.258-0.033-0.533 0.101-0.764 0.134-0.232 0.354-0.4 0.613-0.468zm46.726 6.279s-3.057-1.239-5.855-0.491c-6.397 1.709-10.949 11.113-9.159 17.776 1.791 6.663 8.583 9.857 12.015 10.626 5.645 1.267 9.518-3.045 9.518-3.045l0.075-0.22 4.355 20.145-67.881 18.136-16.43-61.144 29.004-7.648c-2.568-1.411-6.108-5.129-6.944-8.242-1.587-5.904 1.978-9.417 7.646-10.932 5.668-1.514 10.303 0.042 11.889 5.946 0.837 3.114-0.442 8.018-1.959 10.519l28.512-6.917s5.192 15.394 5.214 15.491zm4.754 3.226-5.528-20.173c-0.144-0.526 0.159-1.071 0.682-1.227l17.643-5.268c0.331-0.099 0.69-0.02 0.95 0.208 0.26 0.229 0.384 0.575 0.328 0.916-0.258 1.577-0.52 2.294-0.689 2.807-0.197 0.597-0.176 0.836 0.204 2.44 0.468 1.976 2.179 3.627 4.372 4.849 3.477 1.937 8.208 2.775 11.818 1.81 5.91-1.579 10.927-7.197 10.131-12.601-0.237-1.609-0.454-3.328-0.93-4.843-0.416-1.324-1.02-2.492-2.115-3.185-0.337-0.214-0.515-0.606-0.455-1 0.06-0.395 0.348-0.716 0.733-0.819l21.4-5.717c0.536-0.143 1.085 0.174 1.229 0.709l5.477 20.38c1.549-1.604 3.522-2.81 5.806-3.421 6.92-1.848 14.125 2.477 16.062 9.685 1.937 7.21-2.135 14.55-9.056 16.399-2.283 0.61-4.595 0.549-6.74-0.067l5.642 20.995c0.069 0.257 0.033 0.532-0.101 0.762-0.133 0.231-0.352 0.4-0.61 0.468l-64.116 17.131c-0.26 0.069-0.536 0.032-0.768-0.105-0.232-0.136-0.399-0.359-0.465-0.619l-6.115-24.229c-1.671 2.254-4.675 3.317-7.904 4.18-3.102 0.829-5.851 0.487-8.05-0.854-2.177-1.328-3.837-3.657-4.714-6.923-1.051-3.911 0.606-7.746 2.777-10.312 1.499-1.772 3.25-2.916 4.484-3.169 3.679-0.756 6.352-0.589 8.618 0.793zm13.084-25.706c-0.61 3.728-1.244 2.374-0.471 5.64 1.315 5.552 11.03 9.107 17.427 7.398 6.396-1.709 11.726-7.869 10.864-13.718-0.489-3.32-0.917-7.094-3.501-8.73l21.401-5.717 5.98 22.254c1.539-2.188 3.791-3.854 6.531-4.586 6.396-1.709 13.043 2.313 14.833 8.976 1.791 6.662-1.949 13.459-8.345 15.168-2.74 0.732-5.525 0.413-7.956-0.715l6.147 22.873-64.116 17.131-6.843-27.108c-0.697 4.008-4.418 5.269-8.409 6.335-5.599 1.496-9.937-1.117-11.536-7.068-1.599-5.95 3.777-11.678 6.494-12.237 4.734-0.973 7.661-0.332 10.274 2.791l-6.417-23.419zm-84.678-52.127c-1.004-0.725-2.032-1.53-2.901-2.441-1.02-1.067-1.824-2.279-2.194-3.655-1.943-7.229 3.622-12.788 10.562-14.642 2.819-0.753 5.363-0.769 7.542 0.23 2.178 0.999 4.03 3.018 5.387 6.483 0.861 2.201 0.569 4.457-0.141 6.526-0.362 1.053-0.831 2.055-1.284 2.964l25.719-6.871c0.535-0.143 1.085 0.174 1.229 0.709l6.278 23.364c0.603-1.183 1.261-2.465 2.028-3.567 0.986-1.421 2.161-2.544 3.55-2.989 2.439-0.782 4.416-0.691 6.022-0.108 2.402 0.873 4 2.879 5.039 4.979 1.071 2.163 1.542 4.395 1.785 5.302 1.162 4.324 0.795 8.206-1.131 11.023-1.31 1.917-3.343 3.366-6.167 4.121-1.808 0.483-3.186 0.141-4.497-0.543-0.474-0.248-0.938-0.547-1.416-0.865l5.705 23.276c0.13 0.533-0.191 1.072-0.722 1.21l-21.412 5.585-0.254-0.972-0.824-0.574c1.745-2.503 0.606-4.141-0.675-6.396-3.096-5.45-9.322-7.132-15.27-5.542-3.023 0.807-5.892 2.237-7.879 4.211-1.871 1.858-2.942 4.21-2.495 6.972 0.596 3.689 3.5 7.936 3.5 7.936 0.185 0.272 0.224 0.617 0.106 0.924s-0.379 0.537-0.698 0.615l-21.995 5.381c-0.53 0.13-1.066-0.188-1.208-0.715l-17.19-63.97c-0.069-0.258-0.033-0.532 0.1-0.763s0.353-0.399 0.61-0.468zm10.593 57.95c0.626 3.874 3.66 8.34 3.66 8.34l-21.994 5.381-17.191-63.971 27.272-7.286c-2.356-1.648-5.648-3.73-6.466-6.771-1.79-6.662 3.455-11.702 9.852-13.411 5.131-1.371 9.264-0.204 11.735 6.109 1.54 3.935-1.163 8.067-2.377 10.668l27.865-7.445 6.936 25.81c1.531-2.543 3.205-7.349 6.196-8.307 9.067-2.905 10.983 7.291 11.571 9.477 1.79 6.663-0.192 12.205-6.589 13.914-3.034 0.81-4.619-1.175-7.22-2.613l6.296 25.69-21.412 5.584c2.032-2.916 0.867-4.839-0.626-7.466-3.33-5.862-10.006-7.725-16.402-6.016s-12.11 6.104-11.106 12.313z" fill="#4e778c"/>
        </g>
        <g transform="matrix(.4646 .67682 .67682 -.4646 -56.843 42.536)" clip-path="url(#_clip4)">
                <path d="m138.19 173.25c-1.11 6.227-0.353 9.861 1.89 12.358 4.315 4.802 9.03 5.357 15.427 3.648 6.396-1.709 12.387-5.966 11.739-11.843-0.351-3.182-1.292-7.741-4.566-10.067l18.591-5.255 5.98 22.254c1.539-2.188 3.791-3.854 6.531-4.586 6.396-1.709 13.043 2.313 14.833 8.976 1.791 6.662-1.949 13.459-8.345 15.168-2.74 0.732 2.431 1.128 0 0l18.29 22.982-44.878 8.348s0.949-6.389 1.275-9.45c0.327-3.06-1.963-14.744-15.427-10.972-12.474 3.495-9.435 11.022-8.091 15.967 1.345 4.945 7.319 8.793 7.319 8.793l-23.509 2.755-6.217-22.03c0.024-4e-3 -11.704 6.163-16.509 2.363-0.936-0.74-7.73-3.683-7.295-11.176 0.349-6.016 2.538-7.077 5.973-10.144 2.404-2.146 8.889-0.284 10.859 2.07l-5.67-24.182z" fill-opacity=".41"/>
            </g>
        <path d="m204.31 164.28c0 5.3359-4.3468 9.6689-9.701 9.6689h-88.386c-5.3542 0-9.7009-4.333-9.7009-9.6689 2.1492-35.139-4.5868-66.354-19.44-94.492 0.37502 0.66364 22.661-1.022 31.391-1.022h2.6598l38.852 25.125c5.3542 0 15.326-7.6673 15.326-2.3308z" fill-opacity=".44" stroke-width=".59618"/>
        <path d="m205.93 174.59c0 0.0863-12.543 11.937-11.897 10.437l-86.815 2.4201c-5.3542 0-9.7009-4.333-9.7009-9.6689l-2.1898-88.492c0-5.3365 5.0365-5.7097 10.391-5.7097l86.544-2.0534 13.471 13.644z" fill="#808080" stroke-width=".59618"/>
        <path d="m200.13 178.97c0 5.3359-7.24 4.633-9.701 9.6689h-88.386c-5.3542 0-9.7009-4.333-9.7009-9.6689v-88.095c0-5.3365 4.3468-9.6689 9.7009-9.6689l90.465 0.06249 7.123 7.6304z" fill-opacity=".21" stroke-width=".59618"/>
        <path d="m201.13 177.98c-2.6789 0.19344-4.3468 9.6689-9.701 9.6689h-88.386c-5.3542 0-10.076-52.895-10.076-58.232-1.9276-32.884-6.4124-42.75-11.349-48.554 0.18751 0.28867 10.099-0.64698 15.453-0.64698h2.6604l93.226-0.18749c0.31709 1.0356 0.58223 2.2754 0.81453 3.7533 1.4917 9.4886 1.6428 28.763 5.6988 66.478z" fill="#808080" stroke-width=".59618"/>
        <path d="m205.63 174.98c0.077 1.6487-9.7744 11.392-11.17 11.824l-91.417 0.84577c-5.3542 0-9.7009-4.333-9.7009-9.6689l102.2-10.481 10.155-5.5561z" fill="#8a0017" stroke-width=".59618"/>
        <path d="m197.95 179.57c0 5.3359-4.3468 9.6689-9.701 9.6689h-88.386c-5.3542 0-9.7009-4.333-9.7009-9.6689l0.21558-28.47c0-5.3365-1.2779-46.232-13.549-67.606l43.011-1.8749c5.3542 0 55.263-0.54282 63.889-0.08154 0.2532 0.63626 0.50102 1.2731 0.74347 1.91 5.9597 15.64 8.6828 31.172 9.1778 37.448 2.0925 26.512 3.5615 40.999 4.3002 58.674z" fill="#fff" fill-opacity=".97" stroke-width=".59618"/>
        <path d="m197.95 179.57c0 5.3359-4.3468 9.6689-9.701 9.6689h-88.386c-5.3542 0-9.7009-4.333-9.7009-9.6689l0.21558-28.47c0-5.3365-1.2779-46.232-13.549-67.606l43.011-1.8749c5.3542 0 55.263-0.54282 63.889-0.08154 0.2532 0.63626 0.50102 1.2731 0.74347 1.91 5.9597 15.64 8.6828 31.172 9.1778 37.448 2.0925 26.512 3.5615 40.999 4.3002 58.674z" fill="url(#_Linear5)" stroke-width=".59618"/>
        <path d="m197.95 179.57c0 5.3359-4.3468 9.6689-9.701 9.6689h-88.386c-5.3542 0-9.7009-4.333-9.7009-9.6689l-0.05792-13.344 107.61-0.10654z" fill="#c24c60" stroke-width=".59618"/>
        <path d="m78.324 85.565c14.855 26.855 14.266 78.763 14.596 96.92 0.61986 2.8123 4.8424 6.5775 3.8816 6.2597-3.8589-1.2773-6.6447-4.9062-6.6447-9.1785l0.21558-28.47c0-5.3365-0.52789-46.232-12.799-67.606l6.6005 0.03571-2.1653-2.6135 12.702-0.61008c24.671-1.3797 90.218-0.98981 97.826-0.45592 0.16302 0.41009-1.0594 0.87494-2.7971 1.1029-1.3514 0.17737-3.1124 0.16249-4.1449 0.18272-0.38696 0.0071 1.1006 0.45235 0 0-3.2952-1.3553-14.62 0.50115-31.048 0.61722-17.699 0.1244-39.841 0.1488-55.705 0.77554-12.738 0.50354-21.427 1.3957-20.517 3.0403z" fill="url(#_Linear6)" stroke-width=".59618"/>
        <ellipse transform="scale(1,-1)" cx="109.48" cy="-177.51" rx="5.1135" ry="5.0967" fill="#d3d3cb" stroke-width=".59618"/>
        <ellipse transform="scale(1,-1)" cx="176.81" cy="-177.51" rx="5.1135" ry="5.0967" fill="#d3d3cb" stroke-width=".59618"/>
        <ellipse transform="scale(1,-1)" cx="109.48" cy="-177.51" rx="3.7201" ry="3.7078" fill="#8a0017" stroke-width=".43372"/>
        <ellipse transform="scale(1,-1)" cx="176.81" cy="-177.51" rx="3.6703" ry="3.6582" fill="#8a0017" stroke-width=".42791"/>
        <path d="m105.76 177.51c-2.4997 6.981-3.125 11.837-0.62524 16.818 0 0 1.7796 3.9164 5.3626 3.47 3.583-0.44639 3.8541-3.2855 3.8541-5.0711s0.92322-3.6724 0.92322-3.6724l-3.5896 2.6254-2.7046-4.702 4.3533-9.5297s-0.29858-3.2736-3.7323-3.4224c-3.4337-0.14879-3.8416 3.4843-3.8416 3.4843z" fill="url(#_Linear7)" stroke-width=".59618"/>
        <path d="m109.75 174.17c-1.7497 0.89696-5.1631 17.112-0.80976 21.316 1.5771 1.5225 1.1531 1.063 1.2576 1.1529 1.7551 1.5094 6.0296 0.67615 5.0759-7.5887-0.0149-0.13095 0 0 0 0h-2.7147c-2.821-0.99814-0.77989-6.2329 0.77393-11.606 0 0-0.5261-4.8401-3.583-3.2736z" fill="#464646" stroke-width=".59618"/>
        <path d="m112 174.17c-0.16243 0.01 1.7796 1.9451 1.3251 3.3837-0.95069 3.0093-2.4084 7.2667-2.1964 9.6178 0.13436 1.4939 0.34874 3.1528 0.49803 3.595 0.6318 1.8683 0.9901 1.8368 1.8673 2.6843 1.5771 1.5225 0.15466 2.7909-0.086 3.073-0.81333 0.95231 0.64017-0.0559 1.2779-1.4231 0.52252-1.1219 1.0486-2.1415 0.6109-5.9353-0.0149-0.13095-0.48789-0.11547-0.48789-0.11547-2.821-0.99814-0.77989-6.2329 0.77393-11.606 0 0-0.15407-3.4754-3.583-3.2736z" fill-opacity=".25" stroke-width=".59618"/>
        <path d="m172.79 177.51c-2.5261 6.981-3.1579 11.837-0.63182 16.818 0 0 1.7983 3.9164 5.419 3.47 3.6207-0.44639 3.8947-3.2855 3.8947-5.0711s0.93294-3.6724 0.93294-3.6724l-3.6274 2.6254-2.733-4.702 4.3992-9.5297s-0.30173-3.2736-3.7716-3.4224c-3.4699-0.14879-3.882 3.4843-3.882 3.4843z" fill="url(#_Linear8)" stroke-width=".59931"/>
        <path d="m176.82 174.17c-1.7681 0.89696-5.2175 17.112-0.81829 21.316 1.5937 1.5225 1.1653 1.063 1.2709 1.1529 1.7736 1.5094 6.0931 0.67615 5.1294-7.5887-0.0151-0.13095 0 0 0 0h-2.7433c-2.8507-0.99814-0.78811-6.2329 0.78208-11.606 0 0-0.53164-4.8401-3.6207-3.2736z" fill="#464646" stroke-width=".59931"/>
        <path d="m179.07 174.14c-0.16243 0.01 1.7796 1.9451 1.3251 3.3837-0.95069 3.0093-2.4084 7.2667-2.1964 9.6178 0.13436 1.4939 0.34874 3.1528 0.49803 3.595 0.6318 1.8683 0.9901 1.8368 1.8673 2.6843 1.5771 1.5225 0.15466 2.7909-0.086 3.073-0.81333 0.95231 0.64017-0.0559 1.2779-1.4231 0.52252-1.1219 1.0486-2.1415 0.6109-5.9353-0.0149-0.13095-0.48789-0.11547-0.48789-0.11547-2.821-0.99814-0.77989-6.2329 0.77393-11.606 0 0-0.15407-3.4754-3.583-3.2736z" fill-opacity=".25" stroke-width=".59618"/>
        
        
        
        
        
        
        
        
        
        
        
        <path transform="matrix(.75002 0 0 -.75002 0 217.51)" d="m255.14 73.633-23.252 0.57031c0.187 3.581-0.806 17.235-1 20.828h22.395c0.99989-6.9421 1.6194-14.075 1.8574-21.398zm-24.404 25.852c0.38199 3.4148-0.14161 9.892-1.1426 21.83l21.68 0.28321c0.57198-3.465 1.1394-6.8223 1.4434-10.404 0.28299-3.325 0.46264-7.2531 0.55664-11.709zm-1.4297 25.145c-0.162 6.7329-0.40969 11.047-2.1426 21.113l21.393 0.28711c1.418-7.5348 2.0125-16.438 2.1445-20.973z" fill="#a4a4a4"/>
        
        
        
        
        <path d="m148.78 105.72h-16.903c-0.70555-5.8946-1.4731-10.727-2.4641-15.194l16.581-0.21424c1.4524 4.6899 2.4766 9.861 2.7859 15.408zm-1.4086-1.3465h-14.086c-0.71806-4.5164-1.1394-8.6623-2.1429-12.608l13.658-0.32136c0.85704 2.9251 2.0352 7.5403 2.5711 12.929zm-18.041 1.2365h-16.903c-0.75375-5.6468-1.2458-7.8682-3.4282-14.336l17.438-0.42848c0.96472 4.7839 1.9288 9.6946 2.8929 14.765zm-1.4086-1.3465h-14.086c-0.63355-3.143-0.7694-3.7157-1.562-6.0963-0.40755-1.2232-0.84703-4.4446-1.331-5.3326l14.086-0.64272c0.67799 2.3704 1.6465 5.9843 2.8929 12.072zm-19.371 1.2365h-16.903c-1.3723-8.6593-4.1638-13.123-4.9645-14.069l18.617-0.21424zm-1.4086-1.3465h-14.086c-1.1469-5.7139-2.1392-9.7329-3.7856-11.483l14.621-0.10712zm84.219 58.126-17.439-0.42825c0.14025-2.6858-0.6045-12.927-0.75-15.622h16.796c0.75 5.2072 1.215 10.558 1.3935 16.051zm-1.1685-1.1542-15.131-0.372c-0.0277-3.2648-0.492-10.109-0.69525-13.4h14.624c0.6135 4.4842 1.0148 9.075 1.203 13.772zm-0.2315-18.236h-16.903c0.2865-2.5612-0.1065-7.4182-0.85725-16.372l16.26-0.21375c0.429 2.5988 0.855 5.1172 1.083 7.8038 0.21225 2.4938 0.3465 5.4405 0.417 8.7825zm-1.152-1.125h-14.549c0.0855-2.6768-0.24675-7.0628-0.83775-14.138l14.086-0.18525c0.36825 2.2365 0.717 4.4348 0.915 6.7612 0.18525 2.184 0.3105 4.7175 0.3855 7.5622zm-0.778-18.055-16.046 0.32175c-0.1215-5.0498-0.3075-8.286-1.6072-15.836l16.046-0.2145c1.0635 5.6512 1.5082 12.328 1.6072 15.729zm-14.95-0.82575c-0.11925-4.2112-0.348-7.3972-1.374-13.582l13.779-0.18375c0.83025 4.7895 1.236 10.134 1.3792 13.49zm-2.96 1.1458h-16.903l-1.607-16.051h16.903zm-1.4086-1.3465h-14.086l-1.607-13.358h14.086zm-17.891 1.4565h-16.903l-1.8218-15.943h16.903zm-1.4086-1.3465h-14.086l-1.8218-13.251h14.086zm-18.801 1.3465h-16.903l-1.2859-15.836h16.903zm-1.4086-1.3465h-14.086l-1.2859-13.143h14.086zm-17.901 1.3465h-16.903l-2.0002-15.782h16.903zm-1.4086-1.3465h-14.086l-2.0002-13.09h14.086zm60.979 20.156h-16.903l-0.64294-16.693h16.903zm-1.4086-1.3465h-14.086l-0.64294-14h14.086zm-18.001 1.3465h-16.903l-0.86393-16.59 17.287 0.0963zm-1.4086-1.3465h-14.086l-0.86393-13.897 14.47 0.0964zm-18.151 1.3465h-16.903l-1.2502-16.493h17.335l0.0282 0.36864zm-1.4086-1.3465h-14.086l-1.2502-13.8h14.518zm-17.691 1.3465h-16.903l-1.5-16.408h16.903zm-1.4086-1.3465h-14.086l-1.5-13.715h14.086zm60.119 20.476h-16.903l-0.64294-15.943h16.903zm-1.4086-1.3465h-14.086l-0.64294-13.251h14.086zm-17.991 1.3465h-16.903l-0.64294-15.943h16.903zm-1.4086-1.3465h-14.086l-0.64294-13.251h14.086zm-17.841 1.3465h-16.903l-0.96409-15.943h16.903zm-1.4086-1.3465h-14.086l-0.96409-13.251h14.086z" fill="#464646"/>
        
        
        
        
        
        
        
        <path d="m173.09 139.01 4.6972 1.3068 1.3086-6.9122 4.4656 9.6699 5.7206 0.58407-11-17.367zm-78.393-19 4.1692 1.0431c0.11336-2.828 0.75474-4.7299 0.8681-6.3842 2.3326 2.6142 4.0411 5.8518 5.4341 9.4056l5.7206 0.58407c0.51076-1.0221-12.333-17.695-12.76-16.839 0.83237 0.83299-2.6216 13.001-3.4318 12.19zm60.383 18.83 4.6972 1.3068 1.3086-6.9122 4.4656 9.6699 5.7206 0.58407-11-17.367zm-19.92-0.77 4.6972 1.3068 1.3086-6.9122 4.4656 9.6699 5.7206 0.58407-11-17.367zm-19.8 0.58 4.6972 1.3068 0.69251-7.264 5.0817 10.022 5.7206 0.58407c0.56005-0.22426-11.003-17.524-11.616-17.279zm-19.547-0.39 4.6973 1.3068c0.40356-2.852 0.69929-5.3805 0.86872-7.5283 1.8939 3.2993 3.4804 6.752 4.9055 10.286l5.7206 0.58407c0-0.31976-11.704-17.84-11.704-17.455 0.19716 1.3807-4.2154 14.714-4.4878 12.807zm78.837 19.9 4.6972 1.3068 1.3086-6.9122 4.4656 9.6699 5.7206 0.58407-11-17.367zm-18.8-0.77 4.6972 1.3068 1.3086-6.9122 4.4656 9.6699 5.7206 0.58407-11-17.367z" fill="#8a0017"/>
        <path d="m136.81 88.305c-2.3167 1.2408-5.8395 2.722-8.9349 1.5868l5.0807 15.024 17.84-6.2918c-0.76587 2.0582-0.84717 4.3564-0.0696 6.551 1.8149 5.1229 7.6253 7.7532 12.967 5.869 5.3411-1.883 8.2038-7.5722 6.3889-12.695-0.77757-2.1946-2.2874-3.9313-4.1803-5.0526l21.107-7.8702-1.53-3.8531c-3.2404-3.4811-40.539 1.9416-48.669 6.7319z" fill-opacity=".41" stroke-width=".82094"/>
        <g transform="matrix(.4646 .67682 .67682 -.4646 -72.052 69.032)" clip-path="url(#_clip10)" fill-rule="nonzero">
                <path d="m196.42 151.28-89.107 22.813-7.045 20.573c1.15 25.124-5.3029 33.538 19.913 34.775l14.247 28.885 73.065-18.166 10.798-49.584z" fill="#ceeeab"/>
                <path d="m164.23 150.25c-7.852 4.907 1.635 16.03 8.505 19.628 6.87 3.599 11.45 9.487 11.45 9.487v31.078c14.691 110.47 30.097 80.803 30.097 80.803 84.798-21.268-16.807-160.15-50.052-141zm-0.285 28.051c-3.4524-6.2875-20.514-10.747-25.23-11.04-7.197-0.327-8.833 6.216-8.506 11.45s8.833 3.599 19.629 2.617c0-0.327 13.412-0.654 14.067-2.617 0.04-0.132 0.054-0.272 0.039-0.41z" fill="#a6dd8b"/>
                <path d="m195.63 243.48c-9.16-10.468-0.981-45.799-9.16-63.464-15.546-26.031-64.119-12.432-64.119-12.432 5.234 16.03-15.375 27.807-24.208 31.733-98.413 46.84-30.19-22.356 19.301 2.29 7.851 9.16 5.234 21.591-9.814 37.293-11.89 152.79-19.344 23.822 12.758-9.487 9.487-9.814 47.108-17.011 49.725-3.925 4.1365 64.36 65.311 65.682 25.517 17.992zm-13.249-54.714c-1e-3 1.67-2.086 7.668-3.108 8.588-3.271 2.944-9.487 2.617-10.468 0-0.982-2.617-10.469-16.684-18.647-13.74-8.179 2.944-23.554 2.29-23.554-4.58-0.71769-19.377 15.288-16.493 29.115-13.085 10.141 2.617 19.628 4.58 23.881 10.468 2.924 4.049 2.785 8.678 2.781 12.35z" fill="#aac3e7"/>
                
                
            </g><path d="m141.35 110.34c-0.61192 2.3448-1.0213 5.6389-0.35405 7.5219 0.98901 2.7913 2.5322 4.6246 4.5278 5.527 1.9821 0.89579 4.442 0.882 7.3328-0.13751 3.4494-1.2168 5.8261-2.9418 6.7847-5.2776 0.65489-1.5946 0.67447-3.491-0.12584-5.7507-0.33857-0.95451-1.2259-2.1238-2.3229-3.2448-1.0899-1.1149-2.3804-2.1926-3.459-2.9777l22.451-8.3725c0.19416-0.07254 0.34994-0.2213 0.42978-0.41252 0.0803-0.19054 0.0778-0.40592-6e-3 -0.59514l-9.2937-20.847c-0.12423-0.27817-0.40442-0.45426-0.70919-0.4442-0.30408 0.0096-0.57266 0.20292-0.67946 0.48832 0 0-1.098 2.9205-4.2881 4.9778-0.75282 0.4859-2.305 0.66316-3.999 0.43794-2.6161-0.34706-5.6016-1.7081-6.6659-4.831-1.7784-5.2207 0.32591-9.3616 3.9607-10.632 3.7735-1.3177 8.7082 0.1312 8.7082 0.1312 0.2661 0.07723 0.55358 0.0014 0.74648-0.19776 0.19336-0.19845 0.26139-0.48811 0.17651-0.75247l-6.4731-20.129c-0.0621-0.19339-0.19948-0.35298-0.38172-0.44295-0.18179-0.0893-0.39191-0.10239-0.58341-0.03467l-22.955 8.1519c0.43562-0.88851 0.7244-1.8415 0.90266-2.7336 0.33272-1.6593 0.2801-3.1038 0.17263-3.5229-1.2886-5.0162-7.044-7.6941-12.237-5.8628-5.1858 1.8292-7.0271 7.1657-6.2819 10.636 0.4846 2.2523 2.224 4.5802 4.6895 5.6799l-18.366 7.1494c-0.36854 0.14345-0.56273 0.54958-0.4417 0.92753l6.0828 19.031c0.079 0.2485 0.28123 0.43726 0.53461 0.50031 0.25292 0.06238 0.51993-0.01138 0.70576-0.1947 3.4906-3.4386 7.5409-4.5909 10.119-4.2527 2.4155 0.31744 3.8828 0.76502 4.9408 1.7624 1.0825 1.0214 1.7316 2.5792 2.5864 4.9907 1.6811 4.7468 0.44305 9.6623-3.5217 11.786-2.1628 1.159-5.7137 1.7594-8.6036 0.70011-0.27851-0.10256-0.59064-0.0307-0.79725 0.18182-0.20546 0.21274-0.26793 0.52645-0.15739 0.80208l6.6739 16.617c0.14966 0.37323 0.56687 0.56181 0.94602 0.42801zm-31.943-26.768c3.6989-3.6443 8.0105-4.8206 10.743-4.462 5.2537 0.68927 6.3204 2.1228 8.1357 7.2464 1.8149 5.123 0.40463 10.406-3.8741 12.697-2.3167 1.2408-6.1208 1.8785-9.2162 0.74326l6.6744 16.618 20.636-7.2777c-0.76587 2.0582-1.5798 6.2802-0.8027 8.4741 1.8154 5.1236 5.5629 6.8159 10.904 4.9318 5.3411-1.883 8.0163-4.9471 6.2014-10.07-0.77756-2.1946-4.8145-5.5443-6.7074-6.6656l23.822-8.8823-9.293-20.847s-1.1651 3.1418-4.5848 5.3478c-2.1239 1.3693-9.8382 0.92225-11.782-4.7814-1.9435-5.7048 0.4519-10.195 4.423-11.582 3.9718-1.3871 9.1641 0.11795 9.1641 0.11795l-6.4725-20.13-25.158 8.9343c2.3889-2.3339 2.4966-6.8 2.3011-7.559-1.1838-4.6082-6.4907-7.0244-11.261-5.3418-4.7707 1.6826-6.484 6.5788-5.7981 9.7713 0.56631 2.6353 3.029 5.3888 6.3567 5.7064l-20.494 7.9789z" fill="#4e778c" stroke-width=".82094"/>
        <path d="m185.48 81.574s0.093 0.29775 0.258 0.834c1.1865 3.8475 6.1132 19.982 7.4295 26.728 1.5 7.6875 3 18.75 3 18.75s-0.8355-13.97-2.8275-25.346c-0.4755-2.7172-5.8762-20.973-5.985-21.154-0.5625-0.9375-1.875 0.1875-1.875 0.1875z" fill="#656565" stroke-width=".75"/>
        <path d="m189.23 81.403s4.5571 20.311 5.4294 28.095 1.4712 18.931 1.4712 18.931 0.29898-13.992-0.76489-25.492c-0.25382-2.7468-4.1579-21.38-4.2517-21.569-0.4847-0.97999-1.884 0.03499-1.884 0.03499z" fill="#656565" stroke-width=".75"/>
    </g>
    <defs>
        <linearGradient id="_Linear1" x2="1" gradientTransform="matrix(217.25 0 0 217.25 -3.009e-6 108.87)" gradientUnits="userSpaceOnUse"><stop stop-color="#50bcff" offset="0"/><stop stop-color="#4f4f4f" offset="1"/></linearGradient>
        <linearGradient id="_Linear5" x2="1" gradientTransform="matrix(-1.25 -71 -71 1.25 106.49 181.41)" gradientUnits="userSpaceOnUse"><stop stop-color="#fff" stop-opacity=".72" offset="0"/><stop stop-color="#ebebeb" stop-opacity=".72" offset=".34"/><stop stop-color="#a8a8a8" stop-opacity=".72" offset=".65"/><stop stop-color="#b7b7b7" stop-opacity=".72" offset=".86"/><stop stop-color="#dadada" stop-opacity=".72" offset=".94"/><stop stop-color="#fff" stop-opacity=".72" offset="1"/></linearGradient>
        <linearGradient id="_Linear6" x2="1" gradientTransform="matrix(33 -41.625 -41.625 -33 151.93 131.82)" gradientUnits="userSpaceOnUse"><stop stop-color="#0c0c0c" stop-opacity=".09" offset="0"/><stop stop-color="#454545" offset="1"/></linearGradient>
        <linearGradient id="_Linear7" x2="1" gradientTransform="matrix(-.19225 -13 -25.942 .38364 104.8 199.43)" gradientUnits="userSpaceOnUse"><stop stop-color="#767676" offset="0"/><stop stop-color="#f5f5f5" offset=".5"/><stop stop-color="#808080" offset="1"/></linearGradient>
        <linearGradient id="_Linear8" x2="1" y2="-.00015364" gradientTransform="matrix(-.19428 -13 -26.215 .38364 171.81 199.43)" gradientUnits="userSpaceOnUse"><stop stop-color="#767676" offset="0"/><stop stop-color="#f5f5f5" offset=".5"/><stop stop-color="#808080" offset="1"/></linearGradient>
    
            
        
            
        
            
            <clipPath id="_clip10">
                <path d="m139.7 172.22c-1.11 6.227 0.681 11.368 2.925 13.865 4.314 4.801 6.489 4.884 12.886 3.175 6.396-1.709 10.729-6.767 10.081-12.644-0.351-3.182-2.333-7.442-5.607-9.768l21.29-4.753 6.917 25.741c1.539-2.188 5.218-5.916 7.957-6.648 6.397-1.709 10.68 0.888 12.47 7.551 1.791 6.662 0.558 11.461-5.838 13.17-2.74 0.732-8.887-1.013-11.318-2.141l7.502 30.047-27.343 5.039s2.352-3.336 2.21-8.291c-0.089-3.077-5.856-10.516-12.924-8.536-7.069 1.981-9.927 7.482-8.582 12.426 1.345 4.945 6.436 9.122 6.436 9.122l-24.678 7.377-8.371-31.425c-0.697 4.008-5.108 7.195-6.005 7.522-5.444 1.988-11.529-1.676-13.128-7.627s2.137-11.047 5.816-12.559c3.037-1.248 7.5-0.673 10.113 2.45l-6.115-26.082z"/>
            </clipPath>
            
            
        
            
            
        
            
        
            
        
            
        
            
        
            
        
            
        
            
        
            
        
            
        
            
        
            
        
            
            
        
            
            
        
            
            
        
            
        
            
        
            
        
            
        
            
        
            
        
            
        
            
        
            
        
            
        
            
        
            
        
            
        
            
        
            
        
            
        
            
        
            
        
            
        
            
        
            
        
            
        
            
        
            
        
            
        
            
        
            
        
            
        
            
        
            
        
            <clipPath id="_clip4">
                <path d="m71.599 195.34c-0.973-1.417-1.335-3.129-1.022-4.819l32.544-175.03c0.314-1.69 1.267-3.157 2.684-4.13 1.417-0.972 3.129-1.335 4.819-1.021l175.03 32.543c1.69 0.314 3.156 1.268 4.129 2.685 0.973 1.418 1.336 3.129 1.021 4.819l-32.543 175.03c-0.315 1.691-1.268 3.158-2.685 4.13-1.416 0.973-3.128 1.335-4.818 1.021l-175.03-32.543c-1.689-0.315-3.157-1.268-4.129-2.685" clip-rule="nonzero"/>
            </clipPath>
            
        
                    
                
                    
                
                    
                
                    
                
                    
                
                
            
            
        
                
                <clipPath id="_clip3">
                    <path d="m120.71 198.7s-3.057-1.239-5.855-0.491c-6.397 1.709-10.949 11.113-9.159 17.776 1.791 6.663 8.583 9.857 12.015 10.626 5.645 1.267 9.518-3.045 9.518-3.045l0.075-0.22 4.355 20.145-67.881 18.136-16.43-61.144 29.004-7.648c-2.568-1.411-6.108-5.129-6.944-8.242-1.587-5.904 1.978-9.417 7.646-10.932 5.668-1.514 10.303 0.042 11.889 5.946 0.837 3.114-0.442 8.018-1.959 10.519l28.512-6.917s5.192 15.394 5.214 15.491zm17.838-22.48c-0.61 3.728-1.244 2.374-0.471 5.64 1.315 5.552 11.03 9.107 17.427 7.398 6.396-1.709 11.726-7.869 10.864-13.718-0.489-3.32-0.917-7.094-3.501-8.73l21.401-5.717 5.98 22.254c1.539-2.188 3.791-3.854 6.531-4.586 6.396-1.709 13.043 2.313 14.833 8.976 1.791 6.662-1.949 13.459-8.345 15.168-2.74 0.732-5.525 0.413-7.956-0.715l6.147 22.873-64.116 17.131-6.843-27.108c-0.697 4.008-4.418 5.269-8.409 6.335-5.599 1.496-9.937-1.117-11.536-7.068-1.599-5.95 3.777-11.678 6.494-12.237 4.734-0.973 7.661-0.332 10.274 2.791l-6.417-23.419zm-74.085 5.823c0.626 3.874 3.66 8.34 3.66 8.34l-21.994 5.381-17.191-63.971 27.272-7.286c-2.356-1.648-5.648-3.73-6.466-6.771-1.79-6.662 3.455-11.702 9.852-13.411 5.131-1.371 9.264-0.204 11.735 6.109 1.54 3.935-1.163 8.067-2.377 10.668l27.865-7.445 6.936 25.81c1.531-2.543 3.205-7.349 6.196-8.307 9.067-2.905 10.983 7.291 11.571 9.477 1.79 6.663-0.192 12.205-6.589 13.914-3.034 0.81-4.619-1.175-7.22-2.613l6.296 25.69-21.412 5.584c2.032-2.916 0.867-4.839-0.626-7.466-3.33-5.862-10.006-7.725-16.402-6.016s-12.11 6.104-11.106 12.313z"/>
                </clipPath>
                
                
            </defs>
</svg>
