<?xml version="1.0" encoding="UTF-8"?>
<svg clip-rule="evenodd" fill-rule="evenodd" stroke-linejoin="round" stroke-miterlimit="2" version="1.1" viewBox="0 0 290 290" xml:space="preserve" xmlns="http://www.w3.org/2000/svg" xmlns:serif="http://www.serif.com/">
    <path d="m144.84 289.67c-1.8817 0-3.6503-0.73285-4.9806-2.0632l-137.79-137.79c-1.3317-1.3303-2.0646-3.0989-2.0646-4.9806 0-1.8817 0.73285-3.6503 2.0632-4.982l137.79-137.79c1.3303-1.3303 3.0989-2.0632 4.9806-2.0632 1.8817 0 3.6503 0.73285 4.9806 2.0632l137.79 137.79c1.3317 1.3317 2.0646 3.1003 2.0646 4.982 0 1.8803-0.73285 3.6489-2.0646 4.9806l-137.79 137.79c-1.3303 1.3303-3.0989 2.0632-4.9806 2.0632" fill="url(#_Linear1)" fill-rule="nonzero" stroke-width="1.3959"/>
    <path id="Cloud" d="m262.97 115.21c-2.336 1.971-5.862 3.227-9.806 3.227h-41.734c-7.04 0-12.746-3.994-12.746-8.922 0-4.443 4.644-8.116 10.712-8.799 0.413-6.736 8.319-12.114 18.04-12.114 4.785 0 9.128 1.305 12.358 3.432zm-185.26-50.999c2.17-1.031 4.601-1.609 7.17-1.609 8.966 0 16.257 7.03 16.638 15.835 5.597 0.893 9.88 5.693 9.88 11.501 0 6.441-5.263 11.662-11.756 11.662h-38.491c-5.68 0-10.419-4-11.513-9.318l20.142-20.142 7e-3 4e-3 0.01-0.021zm120.51-13.75 29.476 29.476h-64.487c-11.49 0-20.806-3.994-20.806-8.922 0-3.625 5.05-6.738 12.285-8.135 0.346-3.597 7.204-6.477 15.68-6.477 2.99 0 5.756 0.378 8.134 0.999 3.75-3.429 10.964-6.024 19.718-6.941z" fill="#c8f2ff"/>
    
    
    
    
    
    
    
    
    <g><path d="m129.88 183.36c0.32112-5.0732 6.4494-9.1232 13.988-9.1232 5.6172 0 10.451 2.2537 12.687 5.4983 1.1298-0.4678 2.4429-0.75239 3.8619-0.75239 4.025 0 7.28 2.1685 7.4448 4.8773 3.4349 1.052 5.8324 3.3956 5.8324 6.1263 0 3.7113-4.4235 6.7185-9.8776 6.7185-8.6519 5.8544-19.226 6.4362-32.36 0-5.4575 0-9.8826-3.0073-9.8826-6.7185 0-3.346 3.6013-6.1125 8.3056-6.6264z" fill="#7cb292" stroke-width="1.3918"/><path d="m30.837 178.59c1.49-2.534 3.906-4.341 6.715-4.841 0.32-8.257 6.45-14.85 13.988-14.85 5.618 0 10.451 3.668 12.688 8.95 1.129-0.762 2.442-1.225 3.861-1.225 4.024 0 7.281 3.53 7.445 7.939 3.435 1.713 5.832 5.529 5.832 9.972 0 6.041-4.423 10.937-9.878 10.937-4.81 5.299-10.214 7.944-16.321 7.448z" fill="#7cb292" serif:id="Cloud"/><path d="m233.46 203.97c-10.905 0.188-22.964-2.188-36.344-7.497-10.974 0-19.87-4.896-19.87-10.937 0-5.446 7.239-9.948 16.699-10.786 0.644-8.257 12.967-14.85 28.122-14.85 11.295 0 21.012 3.668 25.509 8.95 2.27-0.762 4.91-1.225 7.764-1.225 4.628 0 8.751 1.155 11.494 2.97z" fill="#7cb292" serif:id="Cloud"/><path d="m69.032 152.07s4 6.333 5.666 11.333c1.667 5 2.334 12.334 2.334 12.334l-1.334 13.333-2.666 7.667 15 0.666s-6-13-3.667-18.666c2.333-5.667 9-10 9-10l1.333-17.334-6.333 4.334-0.333 7.666s-3.667 4-5.334 6c-1.666 2-3-5-3-5l-0.333-5.333-2.333-3.667z" fill="#93998a"/><path d="m163.68 167.73s-3.2093 4.4504-4.8368 8.11c-1.6281 3.6595-2.9361 9.2012-2.9361 9.2012l-0.83101 10.324 0.67558 6.1222-9.1934-0.95798s5.2449-9.3518 4.5253-13.912c-0.71952-4.5607-4.2358-8.5254-4.2358-8.5254l1.3241-13.382 3.3133 3.9328-0.74142 5.8933s1.735 3.4167 2.5014 5.1088c0.76577 1.692 2.4378-3.5291 2.4378-3.5291l0.85877-4.0446 1.8686-2.5753z" fill="#93998a" stroke-width=".69024"/><path d="m100.82 131.4c-0.38198-8.8056-7.6717-15.835-16.639-15.835-6.6817 0-12.431 3.9118-15.091 9.5436-1.3439-0.81197-2.9059-1.306-4.5938-1.306-4.7878 0-8.6596 3.7638-8.8556 8.4656-4.0858 1.8259-6.9377 5.8937-6.9377 10.634 0 6.4417 5.2618 11.661 11.749 11.661 10.292 10.162 22.869 11.172 38.492 0 6.4917 0 11.755-5.2198 11.755-11.661 0-5.8077-4.2838-10.61-9.8796-11.501z" fill="#7cb292" stroke-width="1.9999"/><path d="m136.55 149.07c0.32112-7.3213 6.4494-13.166 13.988-13.166 5.6172 0 10.451 3.2524 12.687 7.9348 1.1298-0.67509 2.4429-1.0858 3.8619-1.0858 4.025 0 7.28 3.1294 7.4448 7.0386 3.4349 1.5181 5.8324 4.9002 5.8324 8.841 0 5.3558-4.4235 9.6957-9.8776 9.6957-8.6519 8.4486-19.226 9.2883-32.36 0-5.4575 0-9.8826-4.3399-9.8826-9.6957 0-4.8287 3.6013-8.8211 8.3056-9.5627z" fill="#7cb292" stroke-width="1.672"/><path d="m187.28 160.91c7.3062 0.56787 3.3252 15.982 0.94375 18.401-2.8226 2.8666 1.9591 10.503-1.9534 10.534-1.6356 3.3813-5.0965 4.6633-9.035 4.5295-5.3528-0.18186-18.21-15.386-7.9226-31.542 0.18531-5.4543 4.3396-39.729 9.6924-39.547 4.826 0.16397 7.6936 32.897 8.2749 37.626z" fill="#669984" stroke-width="1.672"/><path d="m191.94 179.4c-6.2074 0.035-3.6877 12.083-1.8072 14.07 2.2288 2.3548-2.2323 7.9532 1.0734 8.191 1.1971 2.6847 4.0524 3.8584 7.3892 3.9718 4.5349 0.15407 16.237-10.809 8.4276-23.772 0.14256-4.196-1.4889-30.728-6.0238-30.882-4.0886-0.13892-8.3084 24.825-9.0592 28.422z" fill="#669984" stroke-width="1.3498"/></g>
    <path d="m41.573 189.33h206.11l-99.411 99.411-0.105 0.103c-1.012 0.544-2.149 0.833-3.33 0.833-1.881 0-3.651-0.733-4.981-2.063z" fill="url(#_Linear2)"/>
    <path d="m228.14 209.29-25.904 25.905-59.207-8.458s-44-5.334-51-9c-7-3.667-10.667-8.334-10.667-8.334l1.333-2.333 32.667-4z" fill="url(#_Linear3)"/>
    
    
    
    
    
    
    
    
    
    
    
    
    
    
    
    
    
    
    
    
    
    <g><path d="m111.21 51.701 3.3985-26.065c16.213-5.4463 31.997-3.813 47.276 6.1641l-3.2918 25.247c-17.082 4.0438-32.925 2.4827-47.383-5.346z" fill="url(#_Linear4)" stroke-width="1.2202"/><path d="m85.526 207.25 21.801-167.2c19.723-5.6285 39.049-3.5694 57.908 7.5503l-21.685 166.31c-20.811 4.0897-40.208 2.108-58.024-6.6617z" fill="url(#_Linear5)" stroke-width="1.4064"/><path d="m106.87 214.41c0.404-3.893 3.19-25.678 3.24-26.06 0.393-3.012 4.011-5.027 8.075-4.497s7.045 3.405 6.652 6.417c-0.064 0.493-2.731 20.259-3.603 25.652-4.879-0.114-9.669-0.614-14.364-1.512zm21.748 1.394c0.44-3.934 2.989-23.724 3.038-24.102 0.393-3.012 3.394-7.005 6.411-6.611 3.017 0.393 5.184 2.89 4.792 5.902-1.301 9.976-2.493 18.831-3.185 23.61-3.732 0.602-7.417 1.003-11.056 1.201zm-39.465-6.878c0.863-6.175 3.486-23.789 3.531-24.136 0.393-3.011 2.693-5.537 5.71-5.143 3.016 0.393 4.774 5.828 4.381 8.839-0.071 0.541-2.908 21.863-3.354 24.144-3.477-1.003-6.9-2.236-10.268-3.704zm53.104-42.954c1.094 0.142 1.814 1.552 1.606 3.145-0.039 0.3-1.861 14.029-1.955 14.293-0.404 1.142-1.055 0.259-1.944 0.144-0.943-0.123-1.821 0.451-1.854-0.86-6e-3 -0.211 1.759-13.873 1.787-14.094 0.208-1.593 1.265-2.771 2.36-2.628zm5.387-0.653c0.749 0.098 1.189 1.471 0.981 3.064-0.039 0.3-1.851 14.031-1.927 14.297-0.325 1.152-0.738 0.3-1.346 0.221-0.646-0.084-1.275 0.523-1.245-0.78 5e-3 -0.21 1.775-13.871 1.803-14.092 0.208-1.593 0.985-2.808 1.734-2.71zm-14.276-0.313c1.383 0.18 2.338 1.607 2.132 3.183-0.038 0.296-1.85 13.878-1.958 14.138-0.469 1.12-1.319 0.22-2.442 0.074-1.19-0.156-2.276 0.384-2.363-0.92-0.014-0.21 1.726-13.727 1.755-13.945 0.205-1.576 1.494-2.71 2.876-2.53zm-12.513-1.631c1.728 0.225 2.963 1.688 2.758 3.264-0.039 0.296-1.86 13.877-1.987 14.134-0.548 1.11-1.636 0.179-3.039-4e-3 -1.488-0.194-2.822 0.313-2.973-0.999-0.025-0.211 1.711-13.729 1.739-13.947 0.206-1.576 1.775-2.674 3.502-2.448zm-11.261-1.469c-1.382-0.18-2.671 0.954-2.877 2.53-0.039 0.296-1.771 13.889-1.732 14.167 0.166 1.203 1.218 0.551 2.341 0.698 1.191 0.155 2.101 0.955 2.52-0.283 0.068-0.199 1.851-13.71 1.88-13.929 0.205-1.576-0.75-3.002-2.132-3.183zm-8.839-1.346c-1.094-0.142-2.151 1.036-2.359 2.629-0.039 0.299-1.649 12.835-1.627 13.114 0.099 1.207 2.197-2.024 1.833 0.774-0.113 0.86 1.505 1.969 1.874 0.71 0.059-0.203 1.857-13.86 1.886-14.081 0.207-1.593-0.512-3.003-1.607-3.146zm-5.666-2.093c-0.749-0.098-1.525 1.116-1.733 2.71-0.039 0.299-1.809 14.036-1.804 14.313 0.019 1.196 0.637 0.479 1.245 0.559 0.645 0.084 1.098 0.832 1.403-0.436 0.049-0.203 1.841-13.862 1.87-14.082 0.208-1.594-0.231-2.967-0.981-3.064zm49.972-14.003c1.094 0.143 1.825 1.47 1.63 2.961-0.036 0.281-1.744 13.131-1.835 13.378-0.395 1.066-1.052 0.234-1.941 0.118-0.943-0.123-1.815 0.408-1.859-0.821-7e-3 -0.198 1.643-12.985 1.67-13.192 0.194-1.491 1.24-2.586 2.335-2.444zm5.387-0.652c0.749 0.098 1.2 1.388 1.005 2.879-0.036 0.281-1.734 13.132-1.807 13.381-0.315 1.077-0.735 0.276-1.343 0.196-0.646-0.084-1.269 0.48-1.25-0.741 3e-3 -0.196 1.659-12.983 1.686-13.19 0.194-1.491 0.96-2.623 1.709-2.525zm-14.251-0.503c1.383 0.18 2.347 1.537 2.152 3.029-0.036 0.28-1.752 13.129-1.858 13.374-0.461 1.058-1.317 0.2-2.439 0.053-1.191-0.155-2.272 0.349-2.368-0.887-0.016-0.199 1.63-12.987 1.657-13.193 0.194-1.492 1.474-2.556 2.856-2.376zm-12.389-2.583c1.728 0.225 2.964 1.688 2.758 3.264-0.039 0.296-1.86 13.877-1.987 14.134-0.548 1.11-1.636 0.179-3.038-4e-3 -1.489-0.194-2.823 0.313-2.974-0.999-0.024-0.211 1.711-13.729 1.739-13.947 0.206-1.577 1.775-2.674 3.502-2.448zm-11.385-0.517c-1.382-0.18-2.662 0.884-2.857 2.376-0.036 0.28-1.673 13.14-1.633 13.404 0.175 1.14 1.222 0.53 2.344 0.676 1.191 0.156 2.106 0.92 2.516-0.25 0.066-0.188 1.755-12.971 1.782-13.177 0.194-1.492-0.77-2.849-2.152-3.029zm-8.864-1.156c-1.094-0.142-2.14 0.953-2.335 2.444-0.036 0.28-1.681 13.139-1.656 13.401 0.108 1.132 0.957 0.496 1.846 0.612 0.943 0.123 1.65 0.86 2.007-0.317 0.058-0.189 1.742-12.972 1.769-13.179 0.194-1.491-0.536-2.818-1.631-2.961zm-5.665-2.093c-0.749-0.098-1.516 1.034-1.71 2.525-0.037 0.28-1.691 13.138-1.684 13.397 0.028 1.122 0.64 0.455 1.248 0.534 0.645 0.084 1.103 0.789 1.398-0.396 0.047-0.191 1.726-12.975 1.753-13.181 0.194-1.491-0.256-2.782-1.005-2.879zm55.383-14.845c0.749 0.097 1.198 1.401 1.001 2.91-0.037 0.283-1.753 13.282-1.827 13.534-0.317 1.089-0.735 0.279-1.344 0.2-0.645-0.084-1.27 0.486-1.248-0.748 3e-3 -0.199 1.677-13.131 1.705-13.34 0.196-1.509 0.964-2.654 1.713-2.556zm-5.213-0.68c1.094 0.142 1.823 1.483 1.626 2.992-0.037 0.283-1.763 13.28-1.855 13.53-0.397 1.078-1.053 0.238-1.942 0.122-0.942-0.123-1.816 0.415-1.858-0.828-7e-3 -0.199 1.662-13.133 1.689-13.342 0.197-1.508 1.245-2.617 2.34-2.474zm-8.864-1.156c1.382 0.18 2.345 1.551 2.148 3.06-0.037 0.283-1.772 13.279-1.879 13.527-0.462 1.07-1.316 0.204-2.439 0.057-1.191-0.155-2.272 0.356-2.367-0.894-0.015-0.2 1.649-13.134 1.677-13.343 0.196-1.509 1.478-2.587 2.86-2.407zm-12.414-2.393c1.728 0.226 2.963 1.688 2.758 3.265-0.039 0.296-1.86 13.877-1.987 14.134-0.548 1.11-1.636 0.179-3.039-4e-3 -1.488-0.194-2.822 0.313-2.973-1-0.025-0.21 1.711-13.728 1.739-13.946 0.206-1.577 1.775-2.674 3.502-2.449zm-11.361-0.707c-1.382-0.18-2.664 0.898-2.86 2.407-0.037 0.283-1.693 13.29-1.653 13.556 0.173 1.153 1.221 0.535 2.343 0.681 1.191 0.156 2.105 0.927 2.517-0.257 0.067-0.19 1.774-13.118 1.801-13.327 0.197-1.508-0.765-2.88-2.148-3.06zm-8.863-1.155c-1.094-0.143-2.143 0.966-2.339 2.474-0.037 0.284-1.701 13.289-1.676 13.554 0.106 1.144 0.956 0.5 1.845 0.616 0.943 0.123 1.649 0.867 2.009-0.324 0.057-0.191 1.76-13.12 1.788-13.329 0.196-1.508-0.533-2.849-1.627-2.991zm-5.839-0.762c-0.749-0.097-1.517 1.048-1.714 2.557-0.037 0.283-1.711 13.287-1.704 13.549 0.027 1.134 0.639 0.459 1.247 0.538 0.646 0.084 1.103 0.796 1.399-0.402 0.048-0.193 1.745-13.123 1.773-13.332 0.196-1.508-0.252-2.812-1.001-2.91zm55.334-14.464c0.749 0.098 1.197 1.402 1.001 2.91-0.037 0.283-1.754 13.282-1.827 13.534-0.317 1.089-0.736 0.279-1.344 0.2-0.646-0.084-1.27 0.486-1.249-0.748 3e-3 -0.198 1.678-13.131 1.705-13.34 0.197-1.508 0.965-2.654 1.714-2.556zm-5.04-2.012c1.094 0.142 1.823 1.483 1.626 2.992-0.037 0.283-1.763 13.28-1.855 13.53-0.397 1.078-1.053 0.238-1.942 0.122-0.942-0.123-1.816 0.415-1.858-0.828-7e-3 -0.199 1.662-13.133 1.689-13.342 0.197-1.508 1.245-2.617 2.34-2.474zm-8.814-1.537c1.382 0.181 2.341 1.579 2.14 3.122-0.038 0.29-1.811 13.579-1.919 13.832-0.466 1.095-1.318 0.212-2.44 0.066-1.191-0.156-2.274 0.37-2.366-0.907-0.014-0.205 1.688-13.431 1.716-13.644 0.201-1.543 1.487-2.649 2.869-2.469zm-12.464-2.012c1.728 0.226 2.964 1.688 2.758 3.265-0.039 0.296-1.86 13.877-1.987 14.134-0.548 1.11-1.636 0.179-3.038-4e-3 -1.489-0.194-2.823 0.313-2.974-1-0.024-0.21 1.711-13.728 1.739-13.946 0.206-1.577 1.775-2.674 3.502-2.449zm-11.311-1.087c-1.382-0.181-2.667 0.925-2.869 2.468-0.037 0.29-1.731 13.589-1.692 13.862 0.17 1.178 1.22 0.543 2.342 0.689 1.191 0.155 2.103 0.941 2.519-0.27 0.067-0.195 1.812-13.415 1.84-13.628 0.201-1.543-0.758-2.941-2.14-3.121zm-14.926-0.204c-0.749-0.098-1.517 1.047-1.714 2.556-0.037 0.283-1.71 13.287-1.704 13.55 0.027 1.134 0.64 0.458 1.248 0.538 0.645 0.084 1.102 0.795 1.398-0.403 0.048-0.193 1.746-13.122 1.773-13.331 0.197-1.509-0.252-2.813-1.001-2.91zm6.013-0.571c-1.094-0.143-2.142 0.966-2.339 2.474-0.037 0.284-1.701 13.289-1.676 13.554 0.106 1.144 0.956 0.5 1.845 0.616 0.943 0.123 1.649 0.867 2.009-0.324 0.057-0.191 1.76-13.12 1.788-13.329 0.196-1.508-0.532-2.849-1.627-2.991zm49.445-14.845c0.749 0.097 1.214 1.277 1.037 2.632-0.033 0.255-1.578 11.935-1.648 12.161-0.302 0.976-0.731 0.242-1.339 0.162-0.645-0.084-1.261 0.422-1.256-0.689 1e-3 -0.179 1.504-11.8 1.529-11.987 0.176-1.356 0.928-2.377 1.677-2.279zm-5.04-2.013c1.094 0.143 1.84 1.359 1.663 2.715-0.033 0.255-1.588 11.933-1.676 12.156-0.382 0.966-1.048 0.201-1.937 0.085-0.943-0.123-1.808 0.35-1.866-0.769-9e-3 -0.18 1.489-11.801 1.513-11.989 0.177-1.356 1.209-2.34 2.303-2.198zm-8.516-3.82c1.382 0.18 2.343 1.565 2.144 3.091-0.037 0.286-1.791 13.429-1.899 13.679-0.464 1.083-1.317 0.208-2.439 0.062-1.191-0.155-2.274 0.363-2.367-0.9-0.015-0.203 1.669-13.283 1.696-13.494 0.199-1.526 1.483-2.618 2.865-2.438zm-12.438-2.202c1.727 0.225 2.963 1.688 2.757 3.264-0.039 0.296-1.86 13.877-1.987 14.134-0.548 1.11-1.635 0.179-3.038-4e-3 -1.489-0.194-2.823 0.313-2.974-0.999-0.024-0.211 1.711-13.729 1.739-13.947 0.206-1.576 1.775-2.674 3.503-2.448zm-26.561 1.182c-0.749-0.097-1.5 0.924-1.677 2.279-0.033 0.255-1.535 11.94-1.525 12.176 0.042 1.022 0.644 0.422 1.252 0.501 0.646 0.084 1.112 0.731 1.391-0.345 0.045-0.172 1.572-11.79 1.596-11.978 0.177-1.355-0.287-2.535-1.037-2.633zm15.224-2.08c-1.382-0.18-2.665 0.912-2.864 2.438-0.038 0.286-1.712 13.439-1.673 13.709 0.171 1.165 1.22 0.539 2.343 0.685 1.191 0.155 2.104 0.934 2.518-0.263 0.066-0.193 1.793-13.267 1.82-13.478 0.199-1.526-0.761-2.91-2.144-3.091zm-9.21 1.509c-1.095-0.142-2.127 0.842-2.304 2.198-0.033 0.254-1.525 11.941-1.497 12.179 0.122 1.032 0.962 0.463 1.851 0.579 0.942 0.123 1.657 0.802 2.001-0.265 0.055-0.171 1.587-11.789 1.611-11.976 0.177-1.356-0.568-2.572-1.662-2.715zm49.792-17.509c0.749 0.097 1.203 1.36 1.013 2.817-0.036 0.274-1.695 12.833-1.767 13.076-0.313 1.052-0.734 0.267-1.343 0.188-0.645-0.084-1.267 0.465-1.251-0.729 3e-3 -0.191 1.62-12.687 1.646-12.889 0.19-1.457 0.953-2.561 1.702-2.463zm-5.04-2.012c1.094 0.142 1.829 1.441 1.639 2.899-0.036 0.274-1.705 12.831-1.796 13.072-0.392 1.041-1.051 0.226-1.94 0.11-0.943-0.123-1.814 0.393-1.861-0.808-8e-3 -0.193 1.604-12.689 1.631-12.891 0.19-1.458 1.233-2.525 2.327-2.382zm-8.665-2.679c1.382 0.18 2.35 1.51 2.16 2.968-0.036 0.273-1.713 12.83-1.819 13.069-0.458 1.032-1.315 0.191-2.438 0.045-1.19-0.156-2.269 0.334-2.369-0.875-0.016-0.194 1.591-12.691 1.618-12.892 0.19-1.458 1.466-2.495 2.848-2.315zm-12.339-2.964c1.727 0.226 2.963 1.688 2.757 3.265-0.038 0.296-1.859 13.877-1.986 14.134-0.549 1.11-1.636 0.179-3.039-4e-3 -1.488-0.194-2.823 0.313-2.974-0.999-0.024-0.211 1.711-13.729 1.739-13.947 0.206-1.577 1.775-2.674 3.503-2.449zm-26.511 0.802c-0.749-0.097-1.511 1.007-1.701 2.464-0.036 0.274-1.652 12.838-1.645 13.092 0.032 1.096 0.641 0.446 1.25 0.526 0.645 0.084 1.105 0.774 1.396-0.384 0.046-0.186 1.687-12.678 1.713-12.88 0.19-1.457-0.264-2.72-1.013-2.818zm6.013-0.571c-1.094-0.142-2.137 0.925-2.327 2.383-0.035 0.273-1.642 12.839-1.616 13.095 0.111 1.107 0.958 0.488 1.847 0.604 0.943 0.123 1.652 0.845 2.006-0.304 0.057-0.185 1.703-12.677 1.729-12.878 0.19-1.458-0.544-2.757-1.639-2.9zm9.062-0.367c-1.382-0.18-2.658 0.857-2.848 2.315-0.036 0.273-1.634 12.84-1.593 13.098 0.178 1.116 1.222 0.522 2.345 0.669 1.19 0.155 2.107 0.904 2.514-0.238 0.065-0.183 1.716-12.675 1.742-12.876 0.19-1.458-0.777-2.787-2.16-2.968zm33.28-12.77c-1.265-0.164-2.288 0.817-2.493 2.394-0.039 0.296-1.131 8.958-1.099 9.236 0.139 1.199 1.111 0.537 2.138 0.671 1.09 0.142 1.916 0.931 2.313-0.31 0.064-0.199 1.015-7.341 1.044-7.559 0.205-1.577-0.638-4.267-1.903-4.432zm-19.482-5.213c3.259 0.425 5.737 2.05 5.531 3.626-0.038 0.297-1.26 8.942-1.469 9.188-0.9 1.064-3.041-4e-3 -5.687-0.349-2.807-0.366-5.247-3e-3 -5.679-1.352-0.069-0.217 1-8.808 1.028-9.026 0.206-1.577 3.018-2.512 6.276-2.087zm-21.076-0.075c1.265 0.165 2.002 1.376 1.796 2.953-0.038 0.296-1.203 8.949-1.306 9.209-0.442 1.124-1.211 0.234-2.238 0.1-1.09-0.142-2.091 0.409-2.157-0.892-0.011-0.209 0.901-7.356 0.93-7.574 0.205-1.577 1.71-3.961 2.975-3.796zm33.118 1.907c-1.728-0.225-3.118 0.91-3.281 2.165-0.031 0.236-0.528 3.386-0.385 3.58 0.083 0.112 5.994 1.537 6.02 1.338 0.102-0.783 0.409-3.393 0.432-3.567 0.164-1.255-1.059-3.29-2.786-3.516zm-24.623-3.21c1.727 0.225 2.737 2.01 2.531 3.586-0.038 0.297-0.471 4.278-0.665 4.473-0.112 0.112-6.212 0.139-6.18-0.111 0.128-0.984 0.588-4.252 0.616-4.471 0.206-1.576 1.97-3.702 3.698-3.477z" fill="#3a5d65" fill-opacity=".8"/><rect transform="rotate(7.4286)" x="127.7" y="-11.667" width="2.3555" height="17.332" fill="#29494f" stroke-width="1.7534"/><path d="m127.2 6.4445 5.7108 0.60911s-2.294 0.51386 2.0334 1.4846c4.3274 0.97072 9.8852 0.47592 9.8852 0.47592s2.5442-1.2942 4.2162 0.68522c1.672 1.9794-0.36847-0.59002-3.3957 2.1316-3.0273 2.7216-5.057 4.6249-9.4192 3.9206s-6.8336-2.2459-6.8336-2.2459l-2.4123-0.8565z" fill="#cc4141" stroke-width="1.4064"/><path d="m105.62 42.189-1.506-3.2159c0.69906 0.4161 13.546-2.3407 33.048 0.20211 23.723 3.0931 31.509 7.7179 31.481 7.9338l-2.2963 2.845c0.0319-0.24483-9.5598-4.7259-29.18-7.284-20.713-2.7006-31.508-0.77635-31.547-0.48098z" fill="#568e9b" stroke-width=".59263"/><path d="m105.8 40.856-1.9467-2.1636c0.22098 0.13162 1.6986-0.15902 4.2336-0.53759 5.4843-0.81948 15.917-2.0516 29.255-0.31261 23.723 3.0931 31.556 8.9264 31.527 9.1423l-2.3426 1.6364c-19.402-7.4143-39.7-9.9089-60.727-7.765z" fill="url(#_Linear6)" stroke-width=".59263"/><path d="m113.98 26.748-1.0935-3.1621c0.53766 0.39505 10.709-2.7105 25.962-0.72178 18.554 2.4192 24.543 6.8096 24.515 7.0255l-1.8838 2.8988c0.0319-0.24483-7.3796-4.4416-22.725-6.4424-16.2-2.1122-24.736 0.10662-24.775 0.402z" fill="#568e9b" stroke-width=".5241"/><path d="m114.15 25.416-1.4692-2.1013c0.16995 0.12497 1.3391-0.20588 3.3416-0.6539 4.3322-0.96969 12.565-2.4888 22.996-1.1287 18.554 2.4192 24.546 8.0124 24.517 8.2284l-1.8864 1.6959c-15.038-6.8453-30.918-8.7638-47.499-6.0404z" fill="url(#_Linear7)" stroke-width=".5241"/><path d="m102.69 64.69-1.506-3.2159c0.69906 0.4161 13.368-0.9764 32.87 1.5664 23.723 3.0931 31.687 6.3536 31.659 6.5695l-2.2963 2.845c0.0319-0.24483-10.396-4.1411-30.017-6.6995-20.713-2.7006-30.671-1.3609-30.71-1.0655z" fill="#568e9b" stroke-width=".59263"/><path d="m102.86 63.357-1.9467-2.1636c0.22098 0.13162 10.271-1.8828 33.233 1.1111 23.723 3.0931 31.811 6.9651 31.783 7.181l-2.3426 1.6364c-9.6248-3.678-19.56-5.4634-29.605-6.7543-10.204-1.3112-20.526-2.0909-31.121-1.0107z" fill="url(#_Linear8)" stroke-width=".59263"/><path d="m99.467 89.411-1.506-3.2159c0.69906 0.4161 13.896-0.64729 33.397 1.8953 23.723 3.0931 31.16 6.0247 31.132 6.2406l-2.2963 2.845c0.0319-0.24483-9.7043-3.6175-29.324-6.1756-20.713-2.7006-31.364-1.8847-31.402-1.5894z" fill="#568e9b" stroke-width=".59263"/><path d="m99.64 88.079-1.9467-2.1636c0.22097 0.13162 19.696-0.67658 33.035 1.0626 23.723 3.0931 32.009 7.0135 31.981 7.2295l-2.3426 1.6364c-9.7004-3.7069-19.749-5.2466-29.876-6.5287-10.129-1.2825-20.337-2.3081-30.851-1.2363z" fill="url(#_Linear9)" stroke-width=".59263"/><path d="m96.681 110.78-1.506-3.2159c0.69906 0.4161 13.008 1.7873 32.51 4.3301 23.723 3.0931 32.047 3.5899 32.019 3.8058l-2.2963 2.845c-0.0632-0.0167-20.008-3.4885-29.916-4.779-12.68-1.6514-30.165-2.9018-30.811-2.986z" fill="#568e9b" stroke-width=".59263"/><path d="m96.855 109.44-1.9467-2.1636c0.22097 0.13162 19.481 2.5512 32.818 4.2903 23.723 3.0931 32.226 3.7859 32.198 4.0019l-2.3426 1.6364c-20.581-3.2916-40.84-5.9512-60.727-7.765z" fill="url(#_Linear10)" stroke-width=".59263"/><path d="m88.274 175.26-1.506-3.2159c0.69906 0.4161 12.839 4.342 32.342 6.8848 23.723 3.0931 32.216 1.0352 32.187 1.2511l-3.0945 3.4996c-21.229 1.6805-40.676-1.7406-59.929-8.4196z" fill="#568e9b" stroke-width=".59263"/><path d="m88.078 173.12-1.5772-1.3567c0.01445 9e-3 2.0018-0.61035 3.7702-0.58906 0.64642 8e-3 -0.16911 1.3448 0.14775 1.4214 6.913 1.6765 21.544 5.244 28.548 6.1573 13.051 1.7017 23.298 1.9396 27.456 1.3722 1.2741-0.17397 2.1159-1.4856 2.1137-1.5043-0.11049-1.4207 3.1045 1.389 3.0966 1.4497l-2.4589 1.6213c-0.0448 0.34344-7.3295 1.8996-30.217-1.0846-26.625-3.4714-31.645-8.3938-30.879-7.4873z" fill="url(#_Linear11)" stroke-width=".59263"/><path d="m91.038 154.06-1.5677-2.7424c0.70571 0.36515 12.649 4.0951 32.151 6.6378 23.723 3.0931 32.396 1.3601 32.372 1.5416l-3.0147 2.8876c-9.2484 0.43003-19.787-0.44461-28.523-1.5198-11.233-1.3825-20.54-3.4155-31.418-6.8048z" fill="#568e9b" stroke-width=".54332"/><path d="m90.799 152.25-1.6007-1.1762c0.01459 7e-3 1.984-0.47371 3.7481-0.4196 0.64486 0.02-0.14116 1.1304 0.17642 1.2015 6.9288 1.555 21.21 4.6768 28.215 5.5901 13.051 1.7017 23.659 2.2972 27.794 1.9038 1.2671-0.12065 2.0799-1.2094 2.0773-1.2252-0.13924-1.2002 3.1247 1.2347 3.118 1.2857l-2.4192 1.3168c-0.0376 0.28867-7.6547 1.2662-30.542-1.7179-26.625-3.4714-31.349-7.5389-30.567-6.7589z" fill="url(#_Linear12)" stroke-width=".54332"/><path d="m93.948 131.74-1.5677-2.7424c0.70571 0.36515 12.649 4.0951 32.151 6.6378 23.723 3.0931 32.396 1.3601 32.372 1.5416l-3.0147 2.8876c-0.0689-9e-3 -19.609-1.8088-28.345-2.8841-7.1522-0.88027-31.391-5.3766-31.596-5.4405z" fill="#568e9b" stroke-width=".54332"/><path d="m93.709 129.93-1.6007-1.1762c0.01459 7e-3 1.984-0.47371 3.7481-0.4196 0.64486 0.02-0.14116 1.1304 0.17642 1.2015 6.9288 1.555 21.277 4.165 28.281 5.0784 13.051 1.7017 23.592 2.8089 27.727 2.4155 1.2671-0.12065 2.0799-1.2094 2.0773-1.2252-0.13924-1.2002 3.1247 1.2347 3.118 1.2857l-2.4192 1.3168c-0.0376 0.28867-7.515 0.19523-30.402-2.7889-26.625-3.4714-31.489-6.4679-30.706-5.6879z" fill="url(#_Linear13)" stroke-width=".54332"/><path d="m127.93 6.523 0.206-1.582 2.336 0.304-0.199 1.527 2.636 0.282s-2.294 0.513 2.033 1.484 9.885 0.476 9.885 0.476 2.544-1.294 4.216 0.685c1.672 1.98-0.368-0.59-3.395 2.132-3.028 2.722-5.057 4.625-9.42 3.921-4.362-0.705-6.833-2.246-6.833-2.246l-0.981 7.526c3.176-0.113 6.74-4e-3 10.608 0.5 18.554 2.419 24.545 8.012 24.517 8.228l-0.22 0.197-1.491 2.295-1.391 10.668c6.079 2.127 8.443 3.946 8.428 4.065l-0.273 0.19-2.243 2.779c7e-3 -0.053-0.436-0.304-1.333-0.691l-2.453 18.811c2.367 0.799 3.378 1.335 3.368 1.412l-0.273 0.19-2.243 2.779c7e-3 -0.052-0.446-0.264-1.346-0.59l-2.73 20.936c2.359 0.795 3.378 1.33 3.369 1.406l-0.273 0.191-2.243 2.778c7e-3 -0.053-0.443-0.252-1.351-0.558l-2.406 18.458c2.434 0.282 3.497 0.419 3.487 0.495l-0.273 0.191-2.243 2.778c-0.01-3e-3 -0.512-0.091-1.391-0.243l-2.345 17.986c0.288-0.252 0.448-0.47 0.447-0.477-0.139-1.2 3.124 1.235 3.118 1.286l-0.566 0.307-2.782 2.665c-0.077-8e-3 -0.155-0.015-0.233-0.022l-0.469-0.044-2.425 18.601c0.289-0.252 0.448-0.47 0.447-0.477-0.139-1.2 3.125 1.235 3.118 1.286l-0.565 0.307-2.782 2.665c-0.238 0.011-0.476 0.021-0.715 0.031l-2.189 16.785c0.296-0.305 0.461-0.568 0.461-0.576-0.111-1.421 3.104 1.389 3.096 1.45l-0.574 0.378-2.856 3.23c-0.24 0.019-0.48 0.037-0.718 0.055l-3.934 30.175c-1.324 0.26-2.642 0.496-3.955 0.707l-0.052 8e-3 -0.064 0.01c-0.077 0.012-0.154 0.025-0.228 0.036l-0.07 0.011-0.242 0.038-0.12 0.019-0.242 0.036-0.12 0.018-0.121 0.018-0.12 0.018-0.121 0.018-0.12 0.018-0.134 0.019-0.107 0.015-0.121 0.018-0.24 0.034-0.135 0.018-0.106 0.015-0.12 0.016-0.128 0.018-0.112 0.015-0.12 0.016-0.133 0.018-0.107 0.014-0.13 0.017-0.11 0.014-0.12 0.015-0.125 0.016-0.115 0.015-0.133 0.016-0.107 0.013-0.119 0.015-0.128 0.015-0.112 0.014-0.12 0.014-0.13 0.015-0.109 0.013-0.132 0.015-0.107 0.012-0.119 0.014-0.128 0.014-0.111 0.013-0.12 0.013-0.119 0.013-0.119 0.012-0.12 0.013-0.119 0.013-0.119 0.012-0.12 0.012-0.476 0.048-0.063 6e-3c-0.076 7e-3 -0.151 0.014-0.229 0.022l-0.065 6e-3 -0.119 0.011c-0.04 4e-3 -0.079 7e-3 -0.119 0.011l-0.057 5e-3c-16.586 1.511-32.205-1.122-46.767-8.29l4.11-31.521c-0.453-0.153-0.908-0.309-1.362-0.467l-1.507-3.216c0.027 0.016 0.071 0.038 0.132 0.064l-0.399-0.344c0.014 9e-3 1.971-0.6 3.73-0.589l2.177-16.696c-0.454-0.138-0.91-0.278-1.369-0.421l-1.568-2.743c0.028 0.014 0.074 0.034 0.136 0.059l-0.408-0.301c0.014 8e-3 1.953-0.466 3.708-0.42l2.431-18.646c-0.86-0.161-1.36-0.256-1.389-0.265l-1.568-2.743c0.028 0.014 0.073 0.034 0.136 0.059l-0.409-0.301c0.014 8e-3 1.954-0.466 3.708-0.42l2.274-17.441c-0.813-0.065-1.309-0.106-1.408-0.119l-1.489-3.18-0.285-0.316c0.058 0.034 1.399 0.223 3.587 0.514l2.425-18.602c-0.958 0.071-1.444 0.158-1.452 0.22l-1.489-3.18-0.285-0.316c0.058 0.035 1.427 5e-3 3.657-0.027l2.801-21.489c-0.968 0.111-1.452 0.226-1.461 0.291l-1.489-3.18-0.285-0.316c0.075 0.044 1.267-0.156 3.696-0.325l2.481-19.028c-0.969 0.149-1.461 0.285-1.469 0.348l-1.489-3.18-0.285-0.316c0.221 0.131 1.699-0.159 4.234-0.538 1.364-0.204 3.034-0.433 4.978-0.636l1.433-10.991c-0.337 0.1-0.509 0.179-0.514 0.22l-1.082-3.127-0.214-0.307c0.169 0.125 1.339-0.206 3.341-0.654 2.31-0.517 5.728-1.19 9.996-1.499l1.103-8.461-0.141-0.051 0.215-6.205z" fill="url(#_Linear14)"/></g>
    <path d="m185.8 251.63c-3.613 1.352-8.811 2.201-14.585 2.201-10.901 0-19.75-3.025-19.75-6.75 0-3.726 8.849-6.75 19.75-6.75 10.357 0 18.863 2.73 19.685 6.199l-5.1 5.1z" fill="url(#_Linear15)"/>
    <path d="m102.62 250.37c0.853-0.027 1.719-0.04 2.596-0.04 13.108 0 23.75 3.024 23.75 6.75 0 2.687-5.537 5.009-13.541 6.095z" fill="url(#_Linear15)"/>
    
    <g stroke-width=".11648"><path d="m186.06 184.37-0.23196-0.85193c-0.38862 0.0641-0.81864 0.33804-1.1554 0.20835-0.11656-0.0124-0.17344-0.68128-0.46145-1.3306-0.077-0.17365-0.32166-0.16636-0.48044-0.32057-0.1732-0.16821 0.40492-0.11962 0.60264-0.41266 0.24333-0.36071-0.0935-1.352-0.0935-1.352-0.39448-0.34927-0.85053-1.1237-0.25716-1.4105 0.044-0.0213 0.35227 0.31814 0.35227 0.31814s1.1782-0.45616 1.3901-0.42296c0.67264 0.10551 1.9307-0.0558 2.2275 0.21923 0.39038 0.36164 0.45476 0.43406 0.45476 0.43406 0.11492 1.6663 0.23641 2.1881-0.0253 2.4357 0 0-0.47024 0.4277-0.69704 0.57115-0.21448 0.1357 0.24451 1.9373 0.30982 2.15 0.0832 0.066 0.15175 0.13558 0.20815 0.20604 0.0326 0.0274 0.0653 0.0559 0.0982 0.0855 0.1562 0.12124 0.307 0.26493 0.44819 0.43533 0.10026 0.12101 0.24251 0.35598 0.37596 0.60031 0.10824 0.18707 0.21178 0.39357 0.30829 0.62159l0.0416 0.10227c0.0266 0.0681 0.0496 0.13339 0.0695 0.19644l0.0235 0.0782c0.0107 0.0377 0.02 0.0745 0.0285 0.1106 8e-3 0.0333 0.0145 0.0659 0.0204 0.098l6e-3 0.0366c0.0217 0.1298-0.6852 1.7866-0.69317 3.7208-9e-3 2.205 1.8939 4.5196 0.67909 4.7129l1.7956 5.6485 3.6568 5.3905 0.17496 1.6734-2.9263 0.98288 1.2435-1.3979-4.0652-6.0754-2.0548-4.6869-4.758 4.1915-1.9995 7.232-2.9187 0.13512s1.0161-0.37865 1.536-1.0514c0.25682-0.33226-0.32658-0.88085-0.15643-1.4152 0.45957-1.4434 0.6024-2.4036 0.89545-4.4886 0.25037-1.7809 3.9035-4.3071 4.1774-5.8891 0.65576-3.7864-1.0494-7.8408-1.0576-7.81l8.2e-4 7e-3c-1e-3 -3e-3 0.31287 0.82648 0.31346 0.82428l-2.3775 0.0909s-5.0841 1.1716-5.8242 1.1037c-0.0396-4e-3 -0.0781-5e-3 -0.11539-5e-3 -0.34183 1e-3 -0.58176 0.14392-0.62327 0.14357-2e-3 0-4e-3 -4.6e-4 -5e-3 -1e-3l-0.56698-1.9576-0.25811-1.1357 0.27898-0.033s0.2282 0.17445 0.28086 0.42885c0.0277 0.13304 0.21178 0.30981 0.2343 0.38767 0.0616-0.24746 0.94294 1.2342 0.94294 1.2342l6.9245-2.1946-1.1777-1.0995-3.7147-1.7062-1.6676-0.78043 0.46449-0.29882 0.0539-0.52418-0.14975-1.5581c0.15749 0.16416 0.3939 0.27823 0.57907 0.49688 0.23054 0.27245 0.25658 0.88536 0.52395 1.2305l4.152 1.6267 3.0181 0.28714 0.946-0.19887c0.14412-0.0364 0.53204-0.0189 0.67405-0.0474z" fill="#516f72"/><path d="m186.06 184.37-0.23196-0.85193c-0.38862 0.0641-0.81864 0.33804-1.1554 0.20835-0.11656-0.0124-0.17344-0.68128-0.46145-1.3306-0.077-0.17365-0.32166-0.16636-0.48044-0.32057-0.1732-0.16821 0.40492-0.11962 0.60264-0.41266 0.24333-0.36071-0.0935-1.352-0.0935-1.352-0.39448-0.34927-0.85053-1.1237-0.25716-1.4105 0.044-0.0213 0.35227 0.31814 0.35227 0.31814s1.5792-0.52268 1.3901-0.42296c-0.24943 0.13143-2.4766 0.85517-0.69269 0.84175 0.11926-9.3e-4 -0.1093 0.21934-0.15574 0.34799-0.23641 0.65618-0.17038 1.9123-0.12793 2.4546 0.0308 0.39519 0.27182 0.63733 0.54259 0.83365 0.45124 0.32728 0.98551 0.52742 0.76869 1.0968-0.41161 1.0808-2.5707 1.5921-2.4327 1.3246 0.0831 0.0662-0.65118 1.7565-0.51773 2.0008 0.10824 0.18695 1.5295 0.0861 1.5215 2.0203-9e-3 2.2051 1.6217 5.2175 0.40703 5.4108l2.3398 0.38709 2.5684 6.1421 4.3653 5.5389-0.86133 1.7276-1.1397 0.38281 1.2435-1.3979-4.0652-6.0754-2.5971-6.0792-1.7433 0.15745-4.3086 4.5411-0.79496 4.0794-0.55373 4.4168-2.0281-0.31571s1.5322-0.0912 2.0521-0.76389c0.25681-0.33226-0.47399-0.95269-0.30384-1.487 0.45957-1.4436 0.23371-3.3382 0.52676-5.423 0.25037-1.781 4.1984-3.5165 4.4723-5.0985 0.65576-3.7864-0.2418-6.2527-0.24555-6.2735-0.0653-0.36002-0.11117-0.60748-0.11117-0.60748l-0.23278-0.95627c-0.28378-5e-3 -0.45992-3e-3 -0.46813 0.0273l8.2e-4 7e-3c-1e-3 -3e-3 -1e-3 -5e-3 -8.2e-4 -7e-3l-0.10999-2.2978 1.799-0.58249s-0.2608 0.45246-0.29798 0.45258c-0.11421 3.4e-4 -1.0352 1.1807-2.5284 1.7724-2.1141 0.83758-6.6823 1.729-6.8548 2.3367 1.3582-1.2e-4 -0.49381-0.64473-0.49487-0.64566l-0.78452-0.83017-0.25822-1.1357 0.2791-0.033s0.22808 0.17445 0.28085 0.42885c0.0276 0.13304 0.21167 0.30981 0.23418 0.38767 0.0616-0.24746 0.94295 1.2342 0.94295 1.2342l9.4817-3.9679c0.14424-0.0364 1.0763-0.77048 1.2183-0.79905z" fill="#adadad"/></g>
    
    <g stroke-width=".23942"><path d="m166.62 196.91-0.47359-1.7631c-0.79345 0.13265-1.6714 0.6996-2.359 0.43121-0.23799-0.0256-0.55882-0.69314-1.1468-2.037-0.1573-0.35938 0.16233-1.0611-0.16185-1.3803-0.35363-0.34813-0.0948-1.1179 0.30886-1.7243 0.49681-0.74677 0.11636-1.9278 0.11636-1.9278-0.80543-0.72283-1.7366-2.3255-0.52506-2.9191 0.0898-0.0441 0.71923 0.65842 0.71923 0.65842s2.4055-0.94406 2.8382-0.87534c1.3733 0.21835 3.9419-0.1154 4.5479 0.45371 0.79704 0.74844 0.92849 0.89832 0.92849 0.89832 0.23463 3.4484 5.4826 10.751 4.9484 11.263 0 0-3.7551 1.6501-3.4827 2.1558 0.22098 0.38715 0.4324 0.81453 0.62944 1.2864l0.085 0.21165c0.0543 0.14102 0.10128 0.27605 0.14198 0.40654l0.0479 0.16185c0.0218 0.078 0.0409 0.15419 0.0582 0.22889 0.0158 0.069 0.0297 0.13647 0.0417 0.2028l0.0132 0.0756c0.0443 0.26864-1.399 3.6974-1.4152 7.7004-0.0184 4.5634 3.8667 9.3536 1.3865 9.7537l3.6661 11.69 7.4662 11.156 0.35722 3.4633-5.9746 2.0342 2.5389-2.893-8.2999-12.573-4.1952-9.6998-12.445 7.3307 5.2726 17.948-6.712-1.0592c-0.14006-0.0467 4.0669-0.37925 2.5899-2.2808-1.2163-1.5658-3.1678-2.0718-2.8204-3.1779 0.9383-2.9873-4.3228-11.909-3.9244-12.423 2.2776-2.9425 9.9984-10.024 10.558-13.298 1.3389-7.8361 0.4063-8.6404 0.39864-8.6835-0.13336-0.74509-0.22698-1.2572-0.22698-1.2572l-0.47525-1.9791c-0.57941-0.0101-0.93903-7e-3 -0.95579 0.0565l2e-3 0.0148c-2e-3 -5e-3 -3e-3 -0.0103-2e-3 -0.0148l-0.0881-0.7324-6.4223-5.8537c-1.89-1.1847-1.6334-3.429-1.823-5.6519-0.0919 7e-3 -0.13431-6.2885 0.0294-7.2 0.0474-0.26361 0.0967-1.2165 0.20088-1.9894 0.069-0.51237 0.16209-0.94573 0.29449-1.0463 0.16712-0.12714 0.4415 0.17693 0.9917 0.22098 0.31413 0.0249 0.99409-0.3802 1.1002-0.12952 0.20638 0.48747-0.79872 2.0052-0.71828 2.3756 0.0184 0.0852 0.18029 0.81764 0.62275 1.0592 0.52554 0.28683 1.2397-0.67638 1.3096 0.24756 0.0297 0.39434-1.8278 0.85714-1.7911 1.1466 0.21811 1.7152 0.51596 3.5241 0.57797 5.0394 0.0534 1.3058 0.96273 1.6788 0.71444 1.9889-0.71827 0.89545 5.6174 4.0982 5.6174 4.0982l-2.3569-1.6214c-1.0463-3.6235-0.2241-7.1892-3.0541-9.4752l0.9486-0.61844 0.10989-1.0848-0.3055-3.2246c0.32155 0.33975 0.7992 0.57989 1.182 1.0283 0.39577 0.46401 1e-3 1.1351 1.07 2.5465l1.4121 8.3736 5.467 2.9358-0.52961 0.0503c0.29425-0.0754 1.0863-0.039 1.3762-0.0982z" fill="#385a5e"/><path d="m166.62 196.91-0.47359-1.7631c-0.79345 0.13265-1.6714 0.6996-2.359 0.43121-0.0879-9e-3 -0.15898-0.20399-0.2435-0.51333-0.14461-0.52889-0.32753-1.3927-0.69864-2.2405-0.1573-0.35937 0.21381-0.39553-0.11061-0.71468-0.35363-0.34812-0.0436-0.19633 0.36009-0.80279 0.49681-0.74653 0.37231-3.515 0.37231-3.515-0.80543-0.72259-2.2997-1.6087-1.0882-2.2022 0.0898-0.0441 0.71923 0.65842 0.71923 0.65842s3.2243-1.0817 2.8382-0.87534c-0.50926 0.27199-5.0564 1.7698-1.4143 1.742 0.2435-2e-3 -0.22314 0.45395-0.31795 0.7202-0.48268 1.358-1.0135 3.3946-0.92682 4.5168 0.063 0.81763 0.60599 1.8821 1.1588 2.2884 0.92155 0.67734 2.6267 1.0915 2.184 2.27-0.84039 2.2367-5.2487 3.295-4.9669 2.7414 0.16976 0.13695-1.3295 3.6352-1.0571 4.1408 0.22099 0.38691 3.1228 0.17813 3.1065 4.1811-0.0184 4.5637 0.41109 10.498-2.0689 10.898l7.6772 1.1011 5.2439 12.712 8.9126 11.463-1.7586 3.5753-2.327 0.79226 2.5389-2.893-8.2999-12.573-5.3025-12.581-3.5593 0.32585-9.3795 9.0105 1.3889 12.285 2.9136 6.1329-4.1411-0.65339s3.1286-0.18867 4.1897-1.5809c0.52434-0.68763-4.5675-1.9717-4.2203-3.0776 0.9383-2.9876-4.0681-12.614-3.8243-13.323 0.30503-0.88803 8.6983-9.0239 9.2578-12.298 1.3389-7.8361 1.4061-9.5404 1.3985-9.5835-0.13336-0.74509-0.22698-1.2572-0.22698-1.2572l-0.47525-1.9791c-0.57941-0.0101-0.93903-7e-3 -0.95579 0.0565l2e-3 0.0148c-2e-3 -5e-3 -3e-3 -0.0103-2e-3 -0.0148l-0.22458-4.7555 3.673-1.2055s-0.53248 0.93639-0.60838 0.93663c-0.69792 2e-3 -9.8025-4.7488-9.8025-4.7488l0.70176-2.5733-0.17694-2.5434 0.54972 1.1763 0.16664 3.0412 5.914 3.6977 3.2557 1.0137c0.29449-0.0754 2.1974-1.5946 2.4874-1.6537z" fill="#ac8572"/></g>
    
    <path d="m61.959 188.07h-1e-3l3.983-1.985 1.029-5.661c0.779-0.954 0.492-1.408 0.78-1.721 0.279-0.304 0.627-0.466 0.861-0.696l-0.222 2.18 0.08 0.734 0.691 0.418c-2.062 1.545-1.463 3.956-2.225 6.406l-1.718 1.096s4.617-2.165 4.094-2.771c-0.182-0.209 0.481-0.462 0.52-1.344 0.045-1.025 0.262-2.248 0.421-3.407 0.027-0.196-1.327-0.509-1.305-0.776 0.051-0.624 0.571 0.027 0.954-0.167 0.323-0.163 0.441-0.658 0.454-0.716 0.059-0.25-0.674-1.277-0.523-1.606 0.077-0.17 0.573 0.104 0.801 0.087 0.401-0.029 0.601-0.235 0.723-0.149 0.097 0.068 0.164 0.361 0.215 0.707 0.076 0.523 0.112 1.167 0.146 1.345 0.119 0.617 0.089 4.873 0.021 4.868-0.138 1.503 0.049 3.02-1.328 3.821l-4.68 3.958-0.064 0.495c1e-3 3e-3 1e-3 6e-3 -1e-3 0.01l1e-3 -0.01c-0.012-0.043-0.274-0.045-0.696-0.038l-0.347 1.338s-0.068 0.346-0.165 0.85c-6e-3 0.029-0.685 0.573 0.29 5.87 0.408 2.214 6.034 7.001 7.694 8.991 0.242 0.291-2.4 4.559-2.871 7.129l-2.469-2.469 1.263-3.989-9.069-4.956-0.362 0.777-2.887-2.887 0.013-0.038c-0.021-3e-3 -0.041-6e-3 -0.061-0.011l-0.535-0.534c-0.136-1.095 1.617-3.62 1.606-6.049-0.011-2.706-1.063-5.024-1.031-5.206l0.082-0.343 0.139-0.384 0.062-0.143c0.143-0.319 0.297-0.608 0.458-0.87 0.199-0.342-2.537-1.458-2.537-1.458-0.39-0.346 3.434-5.283 3.605-7.614 0 0 0.096-0.102 0.677-0.608 0.442-0.384 2.313-0.159 3.314-0.306 0.315-0.047 2.068 0.591 2.068 0.591s0.459-0.475 0.524-0.445c0.883 0.402 0.204 1.485-0.382 1.974 0 0-0.278 0.798 0.084 1.303 0.295 0.41 0.483 0.931 0.225 1.166-0.236 0.216-3e-3 0.69-0.117 0.933-0.429 0.909-0.663 1.36-0.836 1.377-0.501 0.182-1.141-0.202-1.719-0.291l-0.345 1.192c0.126 0.024 0.385 0.024 0.618 0.032l0.385 0.034c-0.086-0.02-0.23-0.029-0.385-0.034z" fill="#406c71"/><path d="m57.05 197.66c0.014-0.163 0.021-0.327 0.02-0.49-0.011-2.706-1.063-5.024-1.031-5.206l0.082-0.343 0.139-0.384 0.062-0.143c0.143-0.319 0.297-0.608 0.458-0.87 0.038-0.064 0.314-0.927 0.551-1.862 0.274-1.084 0.494-2.266 0.222-2.409-0.743-0.392-3.31 2.813-3.31 2.813-0.39-0.346 3.434-5.283 3.605-7.614 0 0 0.096-0.102 0.677-0.608 0.442-0.384 2.313-0.159 3.314-0.306 0.315-0.047 2.068 0.591 2.068 0.591s0.459-0.475 0.524-0.445c0.883 0.402 0.204 1.485-0.382 1.974 0 0-3.822-1.972-3.964-0.761-0.041 0.351 0.647 0.287 1.068 1.006 0.11 0.187 0.224 0.389 0.34 0.6 0.11 0.199-1.678-0.293-1.567-0.082 0.309 0.587-1.518 1.898-0.925 2.558 0.147 0.163-1.399 3.83-1.163 3.962l1.585 3.345s-1.521 1.915-2.373 4.674c-0.059 0.684-0.238 1.366-0.455 2.015-0.147 1.055-0.159 2.18 0.053 3.331 0.408 2.214 10.434 4.201 12.494 7.491 0.137 0.219-0.119 3.174-0.529 5.871l-1.511-1.511 1.263-3.989-9.069-4.956-0.362 0.777-2.887-2.887 0.013-0.038c-0.021-3e-3 -0.041-6e-3 -0.061-0.011l-0.535-0.534c-0.089-0.714 0.626-2.037 1.131-3.544 0.099-0.708 0.259-1.384 0.455-2.015zm4.274-9.977 0.362-0.837c0.18 0.028 5e-3 0.383-0.362 0.837l-0.506 1.172c0.046 7e-3 0.095-0.014 0.137-0.031 0.092-0.037 0.18-0.087 0.267-0.136 0.276-0.157 0.542-0.333 0.822-0.482l0.04-0.021-0.126-0.115 0.361 0.032c-0.052 1e-3 -0.134 0.033-0.235 0.083l0.714 0.648-3.432 0.559c-0.568 0.324-1.125 0.474-1.528 0.249l1.528-0.249c0.741-0.423 1.499-1.143 1.958-1.709zm7.987-1.613c-0.182-0.209 0.481-0.462 0.52-1.344 0.045-1.025 0.262-2.248 0.421-3.407 0.027-0.196-0.734-0.749-0.351-0.943 0.323-0.163 0.441-0.658 0.454-0.716 0.059-0.25-0.674-1.277-0.523-1.606 0.077-0.17 0.699-0.103 0.801 0.087 0.518 0.96 0.502 5.266-1.322 7.929 0.095 0.11-0.056 0.275-0.365 0.47-1.637 1.88-4.495 2.522-5.296 2.155h-1e-3c-0.448 0.153-0.732 0.246-0.732 0.246l-0.119-0.108 0.851-0.138c1.364-0.466 4.247-1.49 5.297-2.155 0.13-0.149 0.252-0.305 0.365-0.47zm-6.992 2.032c9e-3 0 0.017 0 0.025 2e-3z" fill="#adadad"/>
    
    <g><path d="m78.471 226.23 0.376-1.362c-4.018-0.464 1.924-8.247 1.598-15.415-0.286-6.287-2.832-11.577-2.778-12.002l0.07-0.441c0.023-0.118 0.049-0.24 0.079-0.364l0.066-0.257c0.057-0.208 0.124-0.423 0.203-0.648l0.123-0.338c0.286-0.754 0.599-1.44 0.929-2.063 0.406-0.812 0.842-1.596 1.155-2.002 0.441-0.574 0.917-1.062 1.414-1.477 0.104-0.101 0.208-0.198 0.311-0.291 0.176-0.237 0.392-0.472 0.657-0.698 0.186-0.7 1.452-6.62 0.729-7.032-0.765-0.436-2.368-1.762-2.368-1.762-0.893-0.769-0.564-2.483-0.41-7.915 0 0 0.201-0.245 1.436-1.473 0.938-0.935 5.094-0.582 7.29-1.016 0.692-0.137 4.625 1.186 4.625 1.186s0.968-1.145 1.115-1.082c1.989 0.852 0.594 3.432-0.655 4.62 0 0-0.974 3.269-0.126 4.409 0.69 0.926 2.583 0.689 2.036 1.26-0.501 0.523-1.306 0.532-1.536 1.107-0.859 2.15-0.956 4.333-1.337 4.389-1.089 0.467-2.539-0.365-3.825-0.521l-0.648 2.802c0.471 0.073 1.743-0.037 2.222 0.062l3.135 0.518 8.503 0.586 9.49-1.242c0.833-1.158 0.836-3.154 1.557-4.071 0.579-0.737 1.34-1.139 1.836-1.695l-0.283 5.086 0.248 1.697 1.567 0.908-11.594 2.419-1.388 0.433 3.851 0.751 10.082 0.293 2.847 0.259s2.698-4.937 2.933-4.141c0.064-0.256 0.645-0.855 0.718-1.292 0.139-0.834 0.865-1.432 0.865-1.432l0.921 0.069-0.695 3.728-1.6 6.441c-3e-3 3e-3 -9e-3 5e-3 -0.016 5e-3 -0.136 7e-3 -0.944-0.425-2.068-0.382-0.122 4e-3 -0.248 0.015-0.378 0.032-2.423 0.321-5.862 1.467-6.465 1.533-0.306 0.033-0.611 0.055-0.913 0.067-2.113 0.085-4.047-0.294-4.666-0.314l-3.484-1.194-7.082 1.286-0.094 1.156c2e-3 8e-3 2e-3 0.015-2e-3 0.024l2e-3 -0.024c-0.031-0.099-0.61-0.079-1.542-0.025l-0.636 3.141s-0.118 0.811-0.284 1.99c-0.01 0.068-2.628 8.209 0.036 20.429 1.114 5.106 3.93 11.344 4.993 17.1 0.533 2.888 0.748 5.676 0.954 8.284l-8.858-8.858-7.51-11.908-1.244 3.154z" fill="#344e51"/><path d="m78.471 226.23 0.376-1.362c-4.018-0.464 1.924-8.247 1.598-15.415-0.286-6.287-2.832-11.577-2.778-12.002l0.07-0.441c0.023-0.118 0.049-0.24 0.079-0.364l0.066-0.257c0.057-0.208 0.124-0.423 0.203-0.648l0.123-0.338c0.286-0.754 0.599-1.44 0.929-2.063 0.406-0.812 0.842-1.596 1.155-2.002 0.441-0.574 0.917-1.062 1.414-1.477 0.104-0.101 0.208-0.198 0.311-0.291 0.176-0.237 0.392-0.472 0.657-0.698 0.186-0.7 1.452-6.62 0.729-7.032-0.765-0.436-2.368-1.762-2.368-1.762-0.893-0.769-0.564-2.483-0.41-7.915 0 0 0.201-0.245 1.436-1.473 0.938-0.935 5.094-0.582 7.29-1.016 0.692-0.137 4.625 1.186 4.625 1.186s0.968-1.145 1.115-1.082c0.384 0.164 0.295 0.782-0.097 1.673-0.527 1.195-8.139-0.434-9.355 1.305-0.672 0.961-1.333 1.062-2.564 0.712-0.49-0.139 3.008 2.741 3.124 3.879 0.046 0.45-1.167-0.945-2.057-0.958-1.243-0.018-2.445 1.246-2.294 1.738 0.971 3.147 3.224 4.123 3.224 4.123l-0.552 5.843 4.48-0.249c0.471 0.073 1.743-0.037 2.222 0.062l3.135 0.518 11.324 3.688-1.388 0.433 3.851 0.751 10.082 0.293 2.847 0.259s2.698-4.937 2.933-4.141c0.064-0.256 0.645-0.855 0.718-1.292 0.139-0.834 0.865-1.432 0.865-1.432l0.921 0.069-0.695 3.728-4.021 4.032-13.491-0.189-10.959-4.021s-4.421-0.367-8.743 0.044c-3.362 0.32-6.663 1.109-7.777 2.908-2.92 4.713 1.985 12.31 1.234 14.302-1.435 3.804-3.38 9.197-1.589 15.665 0.537 1.94 6.008 1.714 6.81 3.762 1.871 4.775 8.01 9.198 9.513 13.898 0.404 1.261 1.321 3.377 2.495 5.865l-5.558-5.558-8.122-13.441-5.517-1.77c-0.184 0.352-0.355 0.705-0.513 1.059z" fill="#d79a7d"/></g>
    
    <path d="m218.48 217.95-3.522-4.947-3.199-6.857-3.389 5.606-2.08 12.263-5.117-0.749s2.385-0.133 3.194-1.117c0.4-0.486-0.738-1.394-0.473-2.176 0.716-2.112 0.364-4.883 0.82-7.933 0.39-2.606 1.6-5.46 2.027-7.775 1.02-5.539-0.377-9.147-0.383-9.177-0.101-0.527-0.173-0.889-0.173-0.889l-0.362-1.399c-0.442-7e-3 -0.716-5e-3 -0.729 0.04l2e-3 0.01c-2e-3 -3e-3 -3e-3 -7e-3 -2e-3 -0.01l-0.067-0.518-3.374-0.446-1.624 0.601c-0.292 0.021-1.2 0.227-2.201 0.228-0.143 0-0.288-4e-3 -0.433-0.013-0.286-0.019-1.935-0.469-3.087-0.569-0.062-5e-3 -0.122-7e-3 -0.18-7e-3 -0.532 1e-3 -0.905 0.211-0.97 0.21-3e-3 0-6e-3 -1e-3 -8e-3 -2e-3l-0.882-2.864-0.402-1.661 0.434-0.048s0.355 0.255 0.438 0.627c0.042 0.195 0.329 0.453 0.364 0.567 0.096-0.362 1.468 1.806 1.468 1.806l1.342-0.17 4.762-0.319 1.806-0.409-0.665-0.168-5.53-0.871 0.723-0.438 0.084-0.766-0.233-2.28c0.245 0.24 0.613 0.407 0.902 0.727 0.359 0.399 0.399 1.295 0.815 1.8l4.512 0.382 4.01-0.421 1.473-0.291c0.224-0.054 0.828-0.028 1.049-0.07l-0.361-1.246c-0.605 0.094-1.275 0.495-1.799 0.305-0.181-0.018-0.27-0.997-0.718-1.947-0.12-0.254-0.501-0.243-0.748-0.469-0.27-0.246 0.63-0.175 0.938-0.603 0.379-0.528-0.145-1.978-0.145-1.978-0.614-0.511-1.325-1.644-0.401-2.064 0.069-0.031 0.549 0.466 0.549 0.466s1.834-0.668 2.164-0.619c1.047 0.154 3.005-0.082 3.467 0.321 0.608 0.529 0.708 0.635 0.708 0.635 0.179 2.437 0.368 3.201-0.039 3.563 0 0-0.732 0.626-1.085 0.835-0.334 0.199 0.38 2.835 0.482 3.146 0.129 0.096 0.236 0.198 0.324 0.301 0.051 0.04 0.102 0.082 0.153 0.125 0.243 0.177 0.478 0.388 0.697 0.637 0.157 0.177 0.378 0.521 0.586 0.878 0.168 0.274 0.329 0.576 0.48 0.91l0.064 0.149 0.145 0.402 0.086 0.359c0.034 0.189-1.066 2.613-1.079 5.443-0.014 3.226 2.948 6.612 1.058 6.894l2.795 8.264 2.651 3.673z" fill="#406165"/><path d="m205.83 189.4c-0.016 0.029-0.012 0.051 8e-3 0.068-0.042 0.323-0.629 1.68-0.796 2.418l0.025 0.481c0.352 0.227 2.337 0.235 2.326 2.916-0.014 3.226 2.524 7.633 0.633 7.915l3.643 0.567 3.998 8.985 3.655 4.359-0.845 0.846-3.522-4.947-4.043-8.894-2.714 0.231-3.034 5.592 0.025 7.335-0.862 6.461-3.157-0.462s2.385-0.133 3.194-1.117c0.4-0.486-0.738-1.394-0.473-2.176 0.716-2.112 0.364-4.883 0.82-7.933 0.103-0.691 0.264-1.398 0.453-2.108 0.523-1.972 1.26-3.965 1.574-5.667 1.02-5.539-0.377-9.147-0.383-9.177-0.101-0.527-0.173-0.889-0.173-0.889l-0.362-1.399c-0.442-7e-3 -0.716-5e-3 -0.729 0.04l2e-3 0.01c-2e-3 -3e-3 -3e-3 -7e-3 -2e-3 -0.01l-0.024-0.478c-0.02-0.012-0.034-0.025-0.043-0.04-0.042-0.072-0.029-0.232 0.018-0.441l-0.122-2.402 0.137-0.013c0.146-0.014 0.292-0.027 0.438-0.041zm-11.067 1.806c-0.442-0.253-1.276-0.526-1.277-0.526l-1.221-1.215-0.402-1.661 0.434-0.048s0.355 0.255 0.438 0.627c0.042 0.195 0.329 0.453 0.364 0.567 0.096-0.362 1.468 1.806 1.468 1.806l0.946 0.172c-0.296 0.09-0.549 0.183-0.75 0.278 0.38 0.217 0.471 0.418-0.507 0.418 0.044-0.144 0.223-0.283 0.507-0.418zm14.562-4.752c0.308 0.253 0.478 0.548 0.292 1.008-0.326 0.805-1.357 1.394-2.263 1.727-0.046 0.062-0.083 0.104-0.097 0.104-0.036 0-0.122 5e-3 -0.252 0.014-0.591 0.182-1.071 0.24-1.167 0.161 4e-3 -0.037 2e-3 -0.06-8e-3 -0.068 0.52-0.045 0.928-0.077 1.175-0.093 0.113-0.035 0.23-0.074 0.349-0.118 0.139-0.187 0.366-0.558 0.366-0.558l-2.8 0.853c-0.807 0.077-1.761 0.176-2.762 0.294l0.319 0.08-1.806 0.409-3.153 1.026-2.005-0.365c1.538-0.468 4.226-0.865 6.645-1.15l-0.346-0.088 5.908-1.059c0.225-0.053 1.676-1.127 1.897-1.169l-0.292-1.008c-0.083-0.068-0.175-0.132-0.273-0.196 0.068-0.017 0.136-0.032 0.204-0.042zm-0.273-0.196c-0.549 0.134-1.129 0.431-1.595 0.263-0.181-0.018-0.27-0.997-0.718-1.947-0.12-0.254-0.501-0.243-0.748-0.469-0.27-0.246 0.63-0.175 0.938-0.603 0.379-0.528-0.145-1.978-0.145-1.978-0.614-0.511-1.325-1.644-0.401-2.064 0.069-0.031 0.549 0.466 0.549 0.466s2.458-0.765 2.164-0.619c-0.389 0.192-3.856 1.251-1.079 1.231 0.186-1e-3 -0.17 0.321-0.242 0.509-0.368 0.96-0.265 2.798-0.199 3.591 0.048 0.578 0.423 0.933 0.844 1.22 0.211 0.143 0.433 0.27 0.632 0.4z" fill="#a99f9a"/>
    
    
    
    
    
    
    
    
    
    
    
    
    
    
    
    
    
    
    
    
    
    <path d="m242.51 105.23s-1.2219 3.9588 0.35945 7.5619c1.5804 3.6026 3.2163 9.2917 3.2163 9.2917s-3.2464 7.8127-9.628 7.7413c-6.3806-0.071-14.397 2.6387-14.397 2.6387l5.7222-11.398-1.0892-6.5895z" fill="#ea972f" stroke-width="1.0376"/><path d="m214.24 85.312s4.2366 3.366-1.5956 8.6978c-0.58828 0.53708-1.3449 5.1987 1.1505 10.899 1.5424 3.5232 1.756 10.135 3.6299 10.866 9.0485 3.5323 23.351-3.6898 23.637-6.3098 0.33897-3.1083 0.56563-1.5869 2.7567-6.0366 1.2267-2.491 2.8545-1.3767 4.3004-2.8728 1.6584-1.7157 3.3198-7.2941 3.5914-9.7639 0.66532-6.0405-3.2565-11.593-6.3546-14.275-8.1866-7.084-21.707-8.1997-26.137-3.6365-5.638 5.8059-0.77659 5.2436-4.9793 12.432z" fill="#ea972f" stroke-width="1.0376"/><path d="m227.36 116.46s7.5187-2.75 9.407-4.1211c1.8879-1.3703 2.7606-3.3039 1.6862-0.19504-1.0744 3.1089-2.5047 7.5889-2.5047 7.5889l-1.9925 2.0845-6.415-1.2247-0.56448-3.2644z" fill="#a85c31" stroke-width=".94161"/><path d="m214.24 85.312s4.2366 3.366-1.5956 8.6978c-0.58828 0.53708-1.3449 5.1987 1.1505 10.899 1.5424 3.5232 1.6322 10.652 3.6299 10.866 0.74622 0.0802-2.0397-8.4309-1.4025-12.049 0.14579-0.82636 0.4526-2.416 2.1893-0.4118 0.71224 0.82212 3.5309-0.9406 3.2319-1.0012-3.9168-0.79097-5.6585-3.3295-4.3868-4.7732 0.98841-1.1229 3.235-1.1036 4.1637-3.1162 4.3435-9.4089 2.4801-10.049 8.7395-6.9423 1.958 0.97033 8.3068 3.3892 14.276 6.1565 1.572 0.72909-1.5182 0.67304-1.1598-0.88846 2.894-12.622 10.789-1.745 8.1992-6.5496-1.1173-2.0733-7.5148-0.79445-6.1159-1.4002 2.8812-1.2469 0.67088-7.8715 0.19701-8.2818-8.1866-7.084-21.707-8.1997-26.137-3.6365-5.638 5.8059-0.77659 5.2436-4.9793 12.432z" fill="#a85c31" fill-opacity=".49" stroke-width="1.0376"/><path d="m217.88 83.481c0.54547 2.6907-13.115-9.6318-5.7914-15.648 2.4644-2.0239 8.2695-4.7585 8.2695-4.7585s2.1675 5.3527 3.9737 5.64c5.736 0.91185 19.601-1.6609 22.133 0.71624 3.3287 3.126 4.4509 5.5343 4.4509 5.5343l1.5247 2.069s0.39336-0.4618 1.6543 0.71267c1.2609 1.1745 1.0172 1.9806 1.0172 1.9806s-0.86758-1.6363-2.0247-0.98939 1.3166 2.6692 1.3166 2.6692 1.1262 3.1664 1.1285 4.97c2e-3 1.8037-0.95015 8.5324-3.0896 11.236-2.1394 2.7032-9.9884 7.5933-9.9884 7.5933l0.3442-2.751 0.28083-3.2924 0.18702 0.66692s-0.11698 1.8889 2.5144 1.1808c2.6314-0.70811 3.5604-2.4555 4.35-5.8183s0.0619-7.6265-3.1354-6.0624c-3.1974 1.5641-4.307 6.7805-4.307 6.7805l-2.1997 3.1191-1.375-1.7247 2.3126-7.3403-2.5878-2.5726 1.3891-5.9271 2.5456-4.0145-2.7137 1.7057s0.0249-1.8763-2.9162-0.58577c-0.63701 0.28037-0.58201 13.074-1.3059 10.745-1.0651-3.4294-8.2503-12.88-10.514-10.249-1.1236 1.3061 1.8561 4.9399 0.29999 5.112-1.4412 0.16034-9.0562-7.1762-7.7428-0.69735z" fill="#423534" stroke-width="1.0376"/><path d="m217.18 103.58s1.4957 1.3354 5.0317 1.4821c3.536 0.14675 9.8662-1.7667 9.8662-1.7667s-1.002 2.3893-1.7992 3.7452c-0.79711 1.356-0.6198 2.1042-3.9303 3.2169s-7.233-1.4346-7.233-1.4346z" stroke-width=".95372"/><path d="m222.76 110.33c-2.0294-0.45858-1.6708-5.2505 3.502-5.4051 3.3682-0.10052 6.0823-1.8483 6.0823-1.8483s-1.2659 2.6098-2.063 3.9658c-0.79711 1.356-0.6198 2.1042-3.9303 3.2169-1.1882 0.39866-2.4555 0.32662-3.5911 0.0707z" fill="url(#_Linear17)" stroke-width=".95372"/><path d="m217.18 103.58s1.4957 1.3354 5.0317 1.4821c2.1128 0.0875 5.2905-0.52057 7.4526-1.0559 1.4554-0.36071-3.1254 2.2092-4.3147 2.4326-1.3101 0.24544-0.93427 0.48838-4.8929-0.25214-2.8635-0.53625-3.2767-2.6067-3.2767-2.6067z" fill="#fff2e6" stroke-width=".95372"/><path d="m215.11 88.662s-0.65434-3.5686 1.1569-3.3404c1.8112 0.22817 3.0038 0.50621 3.0038 0.50621l1.3472 3.5593s-2.953-0.51466-3.9339-0.77496-1.574 0.04988-1.574 0.04988z" fill="#423534" stroke-width="1.0376"/><path d="m235.9 91.275s0.16661-4.6812-1.83-5.0248-4.9514 0.03878-4.9514 0.03878l-0.64424 2.7396s3.1562 0.2155 4.2823 0.25561c1.1261 0.04011 3.1433 1.9907 3.1433 1.9907z" fill="#423534" stroke-width="1.155"/><ellipse transform="matrix(.98514 .17173 -.17011 .98543 0 0)" cx="230.07" cy="52.631" rx="1.0643" ry="1.6197" stroke-width=".80413"/><ellipse transform="matrix(.98514 .17173 -.17011 .98543 0 0)" cx="244.03" cy="52.409" rx="1.6631" ry="1.9461" stroke-width=".77292"/><path d="m222.52 87.564s0.45199 3.4381-1.4637 6.4625c-1.9169 3.0252-5.8155 3.4063-5.8155 3.4063s0.98914 3.3546 3.1283 4.0808c2.14 0.72733 3.493 0.96317 3.493 0.96317l-0.35922-0.94727s0.11012 0.37348-2.4986-1.6724c-2.6097-2.046-1.1465-1.4377-1.1465-1.4377s2.4586-1.3545 4.0143-4.0736c1.7474-3.0547 0.64796-6.7818 0.64796-6.7818" fill="#a85c31" stroke-width="1.0376"/><path d="m150.53 136.82-5.1875-9.2037 1.5824-0.15453c2.0542 1.3717 2.8279 3.1073 3.6991 3.6919l1.9298-1.6355 1.7587-7.4665 0.40215-9.7911 1.7541 0.64504 0.94881 2.3857 0.744 0.60766 2.1403 7.8392 0.22778 9.2855 28.047-4.037 23.232-6.1138 3.0076 4.9005 14.187-4.5946 11.517 8.5063 2.5136 15.386-9.4422 3.688-55.772-9.6416z" fill="#a85c31" fill-rule="nonzero" stroke-width="1.8961"/><path d="m246.09 169.2-21.591-4.5428 0.19082-6.4335-5.538-13.846 7.7128-12.063 15.182-3.5422 4.3145 9.1729z" fill="#3e180b" fill-rule="nonzero" stroke-width="1.8961"/><path d="m212.03 204.03c0.994-1.029 2.079-1.964 3.253-2.782 0.749-0.521 1.53-0.995 2.336-1.42 4.892-2.581 10.55-3.303 16.016-3.054 0.898 0.04 1.795 0.108 2.69 0.198 1.121 0.114 2.237 0.268 3.349 0.447l0.285 0.048-27.098 27.099z" fill="#6c6d6f" fill-rule="nonzero"/><path d="m224.1 213.33c-5.462-0.678-9.937-1.444-12.218-2.093-3.586-1.021 3.802-17.627 3.231-24.499-0.376-4.522-4.666-27.975-4.666-27.975l17.236-33.121 7.839-8.741s14.35 1.23 22.555 21.023c5.192 12.521-2.868 13.838 1.333 40.097z" fill="#b75300" fill-rule="nonzero"/><path d="m224.1 213.33c-1.85-0.229-3.587-0.469-5.164-0.711 1.598 0.202 3.385 0.395 5.303 0.573zm21.836-91.527-15.987 8.825-16.876 31.665s3.232 21.914 3.439 26.153c0.302 6.163-6.371 20.923-4.09 22.936-0.191-0.049-0.372-0.097-0.54-0.145-3.586-1.021 3.802-17.627 3.231-24.499-0.376-4.522-4.666-27.975-4.666-27.975l-6.085-25.335-0.286-9.947 22.16-4.723s10.377-2.549 19.7 3.045zm0 0s0.025 0.011 0.077 0.047c2.167 1.311 4.276 3.065 6.182 5.396 1.673 2.045 4.719 7.87 5.882 10.678 5.192 12.521-2.868 13.838 1.333 40.097l-1.75 1.749c-3.353-25.403 4.333-26.787-0.113-38.533-0.695-1.836-1.452-3.495-2.252-4.994-6.431-12.059-8.842-14.097-9.282-14.393z" fill="#4f2706" fill-rule="nonzero" serif:id="path702"/><path d="m136.26 118.23c0.86344 1.7609 1.4368 4.4569 1.8867 6.6559 0.24777 1.2123 0.4575 2.2741 0.65931 2.9432 0.0207 0.0673 0.76917-1.1109 1.1583-3.232 0.48687-2.6671 0.63297-6.407 0.65822-6.3292 0.10701 0.33913 1.7351 1.1706 1.7302 2.7426-3e-3 1.5568-0.0212 2.7241-0.38062 4.4919-0.46837 2.3021-0.99466 4.4893-0.91533 4.8074 0.70847 2.798 1.6583 4.5192 1.3712 7.4334l0.87245 1.7962 28.801-5.6934 11.252 0.16868c5.836-2.2671 12.065-4.5345 19.235-6.8011l14.846-1.5462 11.176 2.0563 4.3263 14.905-8.9492 7.8881-38.375-5.4742-8.897 3.5517c-1.8277 0.14058-8.0584 1.7092-14.425 1.268-1.5687-0.10846-10.601-2.7713-16.911-3.359-3.6004-0.3349-6.147 1.3547-6.342 1.1859l-6.3222-3.4416-4.523-18.475 0.90526-0.18619 3.7408 6.6482 1.3649-1.4675-2.2005-9.8157 2.0172-1.2897 0.36087 1.0042 0.55603-1.4657z" fill="#ea972f" fill-rule="nonzero" stroke-width="1.8961"/><path d="m136.26 129c0.4477 0.91268 1.0272 1.3822 1.6211 1.6741 0.3305 0.16128 2.3541-9.7213 3.0132-11.265 0.49188-1.1489 0.60881 2.5671-0.38759 10.488-0.0775 0.62171 0.39336 1.516 0.5889 2.1611 1.018 3.381-0.0269 4.87 1.6637 2.3487 0.32725-0.4892 0.41977-2.7554 0.77821-3.1964 1.0614-1.3022 2.1833-2.1955 2.0632-0.98172l-0.15307 6.0988-1.5617 3.1273c-2.8705 0.31038-4.0157 1.9895-3.4521 3.7944l6.1634 0.36277 27.393 1.7817 10.474-3.2756c3.8982-1.5133 13.251 5.9134 17.331 1.9958 2.0331-1.9485-1.9234-15.488 0.46035-16.24l15.179-2.2133 11.176 2.0563 4.3263 14.905-8.9492 7.8881-38.375-5.4742-8.897 3.5517c-1.8277 0.14058-8.0584 1.7092-14.425 1.268-1.5687-0.10846-10.601-2.7713-16.911-3.359-3.6004-0.3349-6.147 1.3547-6.342 1.1859l-6.3222-3.4416-4.523-18.475 4.4609 9.8764 2.4382-2.7708-3.0888-11.927 1.892-1.2104z" fill="#ca7a30" fill-rule="nonzero" stroke-width="1.8961"/><path d="m249.68 129.84s1.3266-8.6339-9.8952-11.789c-11.222-3.1592-38.163 9.0784-38.163 9.0784l2.8523 23.671c-0.61145-1.3225 26.635 2.4501 39.365-5.2615" fill="#b75300" fill-rule="nonzero" stroke-width="1.8962"/><path d="m215.6 150.95c9.2463 8e-3 23.819-7.7137 30.009-9.7264 0.28235-0.0922-8.3533 13.027-20.932 16.127-14.424 3.5555-9.0772-6.4009-9.0772-6.4009z" fill="#4f2706" stroke-width=".72277"/>
    <defs>
        <linearGradient id="_Linear1" x2="1" gradientTransform="matrix(86 163.26 -163.26 86 85.817 62.409)" gradientUnits="userSpaceOnUse"><stop stop-color="#13cfff" offset="0"/><stop stop-color="#c5e3ff" offset="1"/></linearGradient>
        <linearGradient id="_Linear2" x2="1" gradientTransform="matrix(77.667 74.667 -27.434 28.536 118.15 188.05)" gradientUnits="userSpaceOnUse"><stop stop-color="#c4f0d8" offset="0"/><stop stop-color="#80b662" offset="1"/></linearGradient>
        <linearGradient id="_Linear3" x2="1" gradientTransform="matrix(-217.67 -17.333 3.5042 -44.005 290.7 231.73)" gradientUnits="userSpaceOnUse"><stop stop-color="#424242" stop-opacity=".17" offset="0"/><stop stop-color="#3d5257" stop-opacity=".47" offset=".59"/><stop stop-color="#3a5d65" stop-opacity=".68" offset="1"/></linearGradient>
        <linearGradient id="_Linear4" x2="1" y2="-.00036549" gradientTransform="matrix(86.79 12.982 -38.841 261.64 82.393 86.817)" gradientUnits="userSpaceOnUse"><stop stop-color="#00489c" offset="0"/><stop stop-color="#b4cac3" offset=".28"/><stop stop-color="#fcfed2" offset=".52"/><stop stop-color="#003c56" offset="1"/></linearGradient>
        <linearGradient id="_Linear5" x2="1" y2="-.0012157" gradientTransform="matrix(79.799 9.0945 -23.584 213.08 85.704 106.6)" gradientUnits="userSpaceOnUse"><stop stop-color="#00489c" offset="0"/><stop stop-color="#b4cac3" offset=".28"/><stop stop-color="#fcfed2" offset=".52"/><stop stop-color="#003c56" offset="1"/></linearGradient>
        <linearGradient id="_Linear6" x2="1" y2=".27678" gradientTransform="matrix(111.68 14.868 -12.249 47.398 74.274 43.887)" gradientUnits="userSpaceOnUse"><stop stop-color="#00489c" offset="0"/><stop stop-color="#b4cac3" offset=".28"/><stop stop-color="#fcfed2" offset=".52"/><stop stop-color="#003c56" offset="1"/></linearGradient>
        <linearGradient id="_Linear7" x2="1" y2=".16791" gradientTransform="matrix(87.339 11.694 -10.949 47.567 89.299 29.316)" gradientUnits="userSpaceOnUse"><stop stop-color="#00489c" offset="0"/><stop stop-color="#b4cac3" offset=".28"/><stop stop-color="#fcfed2" offset=".52"/><stop stop-color="#003c56" offset="1"/></linearGradient>
        <linearGradient id="_Linear8" x2="1" y2=".27678" gradientTransform="matrix(111.68 14.868 -12.249 47.398 71.34 66.388)" gradientUnits="userSpaceOnUse"><stop stop-color="#00489c" offset="0"/><stop stop-color="#b4cac3" offset=".28"/><stop stop-color="#fcfed2" offset=".52"/><stop stop-color="#003c56" offset="1"/></linearGradient>
        <linearGradient id="_Linear9" x2="1" y2=".27678" gradientTransform="matrix(111.68 14.868 -12.249 47.398 68.117 91.11)" gradientUnits="userSpaceOnUse"><stop stop-color="#00489c" offset="0"/><stop stop-color="#b4cac3" offset=".28"/><stop stop-color="#fcfed2" offset=".52"/><stop stop-color="#003c56" offset="1"/></linearGradient>
        <linearGradient id="_Linear10" x2="1" y2=".27678" gradientTransform="matrix(111.68 14.868 -12.249 47.398 65.332 112.47)" gradientUnits="userSpaceOnUse"><stop stop-color="#00489c" offset="0"/><stop stop-color="#b4cac3" offset=".28"/><stop stop-color="#fcfed2" offset=".52"/><stop stop-color="#003c56" offset="1"/></linearGradient>
        <linearGradient id="_Linear11" x2="1" y2=".27678" gradientTransform="matrix(111.68 14.868 -12.249 47.398 56.924 176.96)" gradientUnits="userSpaceOnUse"><stop stop-color="#00489c" offset="0"/><stop stop-color="#b4cac3" offset=".28"/><stop stop-color="#fcfed2" offset=".52"/><stop stop-color="#003c56" offset="1"/></linearGradient>
        <linearGradient id="_Linear12" x2="1" y2=".39187" gradientTransform="matrix(111.69 14.82 -11.248 39.715 59.807 154.85)" gradientUnits="userSpaceOnUse"><stop stop-color="#00489c" offset="0"/><stop stop-color="#b4cac3" offset=".28"/><stop stop-color="#fcfed2" offset=".52"/><stop stop-color="#003c56" offset="1"/></linearGradient>
        <linearGradient id="_Linear13" x2="1" y2=".39187" gradientTransform="matrix(111.69 14.82 -11.248 39.715 62.716 132.53)" gradientUnits="userSpaceOnUse"><stop stop-color="#00489c" offset="0"/><stop stop-color="#b4cac3" offset=".28"/><stop stop-color="#fcfed2" offset=".52"/><stop stop-color="#003c56" offset="1"/></linearGradient>
        <linearGradient id="_Linear14" x2="1" gradientTransform="matrix(27.339 -174.33 441.39 69.22 107.19 229.44)" gradientUnits="userSpaceOnUse"><stop stop-color="#6b8fa2" stop-opacity=".6" offset="0"/><stop stop-color="#a8eaff" stop-opacity=".18" offset="1"/></linearGradient>
        <linearGradient id="_Linear15" x2="1" gradientTransform="matrix(69 -.5 .17089 23.582 144.46 246.08)" gradientUnits="userSpaceOnUse"><stop stop-color="#424242" stop-opacity=".19" offset="0"/><stop stop-color="#3a5d65" stop-opacity=".75" offset="1"/></linearGradient>
        
        <linearGradient id="_Linear17" x2="1" gradientTransform="matrix(-8.8997 -5.9024 5.9024 -8.8997 232.27 111.41)" gradientUnits="userSpaceOnUse"><stop offset="0"/><stop stop-color="#b83d00" offset="1"/></linearGradient>
    
        
    
        
    
        
    
        
    
        
    
        
    
        
    
        
    
        
    
        
    
        
    
        
    
        
    
        
    
        
    
        
    
        
    
        
    
        
    
        
    
        
    
        
    
        
    
        
    
        
    
        
    
        
    
        
    
        
    
        
    
        
    
        
    
        
    
        
    
        
    
        
    
        
    
        
    
        
    
        
    
        
    
        
    
        
    
        
    
        
    
        
    
        
    
        
    
        
    
        
    
        
    
        
    </defs>
</svg>
