<?xml version="1.0" encoding="UTF-8"?>
<svg width="96" height="34" version="1.1" viewBox="0 0 96 34" xmlns="http://www.w3.org/2000/svg">
<path d="m11 4c-4.9706 0-9 4.0294-9 9 0 4.9706 4.0294 9 9 9s9-4.0294 9-9c0-4.9706-4.0294-9-9-9zm21 0c-6-1-8 17-8 22h-20c-2.2091 0-4 1.7909-4 4s1.7909 4 4 4h82c6.0751 0 10-1.9249 10-8 0-11-64-22-64-22z" fill-opacity=".2"/>
<path d="m11 7.7152e-5c-4.9706 0-9 4.0294-9 9 0 4.9706 4.0294 9 9 9 4.9706 0 9-4.0294 9-9 0-4.9706-4.0294-9-9-9zm21 0c-6-1-8 17-8 22h-20c-2.2091 0-4 1.7909-4 4s1.7909 4 4 4h82c6.0751 0 10-1.9249 10-8 0-11-64-22-64-22z" fill="#fff"/>
</svg>
