<?xml version="1.0" encoding="utf-8"?>

<!DOCTYPE svg PUBLIC "-//W3C//DTD SVG 1.1//EN" "http://www.w3.org/Graphics/SVG/1.1/DTD/svg11.dtd">
<!-- Uploaded to: SVG Repo, www.svgrepo.com, Generator: SVG Repo Mixer Tools -->
<svg height="800px" width="800px" version="1.1" id="_x32_" xmlns="http://www.w3.org/2000/svg" xmlns:xlink="http://www.w3.org/1999/xlink" 
	 viewBox="0 0 512 512"  xml:space="preserve">
<style type="text/css">
	.st0{fill:#000000;}
</style>
<g>
	<path class="st0" d="M47.577,274.127c26.279,0,47.585-21.298,47.585-47.577s-21.306-47.586-47.585-47.586
		C21.307,178.964,0,200.272,0,226.55S21.307,274.127,47.577,274.127z"/>
	<path class="st0" d="M505.74,264.051c-3.124-6.036-7.359-11.63-12.491-16.602c-7.706-7.457-17.348-13.556-28.808-18.466
		c-11.4-4.856-24.654-8.558-40.146-11.106v-0.009l-265.85-52.113c-7.28-1.296-14.711,0.693-20.375,5.434
		c-5.673,4.749-8.923,11.718-8.923,19.105v106.491h-99.69c-13.761,0-24.93,11.159-24.93,24.93c0,13.761,11.168,24.92,24.93,24.92
		h424.455c7.963,0,15.58-1.704,22.417-4.626c10.272-4.404,18.91-11.461,25.267-20.428c6.33-8.94,10.396-20.073,10.404-32.2
		C512.026,280.901,509.932,272.086,505.74,264.051z"/>
</g>
</svg>