<?xml version="1.0" encoding="utf-8"?>
<!-- Generator: Adobe Illustrator 27.9.1, SVG Export Plug-In . SVG Version: 6.00 Build 0)  -->
<svg version="1.1" id="Layer_1" xmlns="http://www.w3.org/2000/svg" xmlns:xlink="http://www.w3.org/1999/xlink" x="0px" y="0px"
	 viewBox="0 0 96 96" style="enable-background:new 0 0 96 96;" xml:space="preserve">
<style type="text/css">
	.st0{fill:#B9BABA;}
	.st1{fill:#858587;}
	.st2{fill:#C9C8C8;}
	.st3{fill:#484D50;}
	.st4{fill:#C9C9C9;}
	.st5{fill:#B3B3B3;}
	.st6{fill:#5E6268;}
	.st7{fill:#67A6AD;}
	.st8{fill:#626168;}
</style>
<g>
	<path class="st0" d="M70.6,59.8l-17.1-3.7l0.2-1.1l17.2,3.6L70.6,59.8z"/>
	<path class="st0" d="M53.3,66.2l-0.2-1.1l18.4-3.8l0.3,1.3L53.3,66.2z"/>
	<path class="st1" d="M52.2,55c-3.5-0.2-6,3.4-5.7,6.2c0.3,3,2.5,5.2,5.8,5.1c3.2-0.1,5.3-2.2,5.4-5.6C57.8,57.4,56,55.1,52.2,55z
		 M53.8,63.3c-1.5,0.8-3.4,0.3-4.2-1.3c-0.8-1.5,0.1-3.7,1.7-4.2c1.5-0.5,2.9,0.1,3.7,1.3C55.8,60.5,55.5,62.5,53.8,63.3L53.8,63.3z
		"/>
	<path class="st0" d="M72.3,58.5l2.5-11.1l0.6,0.1l-2.5,11.1L72.3,58.5z"/>
	<path class="st0" d="M72.5,59.8l7.7-9.7l0.5,0.4l-6,7.6l9-4.1l0.3,0.6L72.5,59.8z"/>
	<path class="st0" d="M84.5,65.3l-11.9-4.6l12.5-2l0.1,0.6l-10.1,1.6l9.6,3.7L84.5,65.3z"/>
	<path class="st0" d="M71.2,58.2l-2-10.8l0.6-0.1l2,10.8L71.2,58.2z"/>
	<path class="st0" d="M62.5,51.1l0.5-0.4l7.2,8.4l-0.5,0.4L62.5,51.1z"/>
	<path class="st0" d="M61.9,69.6l-0.4-0.5l0.2,0.3l-0.2-0.2c0.3-0.2,6.2-6.3,8.5-8.6l0.5,0.5C67.9,63.5,62.1,69.5,61.9,69.6
		L61.9,69.6z"/>
	<path class="st0" d="M70.5,62.1l0.6-0.1l1.7,12.1l-0.6,0.1L70.5,62.1z"/>
	<path class="st0" d="M66.9,73.5l-0.6-0.3l6-11l9.7,7.3l-0.4,0.5l-9.1-6.8L66.9,73.5z"/>
	<path class="st0" d="M73.3,61.8l0.6-0.2l4.3,11.2l-0.6,0.2L73.3,61.8z"/>
	<ellipse class="st2" cx="72" cy="60.4" rx="2.7" ry="2.6"/>
	<path class="st3" d="M71.7,44.5c-9.1,0.1-15.7,6.9-16,15.8c-0.3,8.6,6.5,16,15.6,16.3C81.1,77,88.2,69.4,88,60.5
		C87.8,51.8,81,44.4,71.7,44.5L71.7,44.5z M71.4,74.2c-7.8-0.2-13.6-6.6-13.4-14c0.2-7.7,5.9-13.5,13.7-13.6c8-0.1,13.8,6.3,14,13.7
		C85.8,68.1,79.7,74.5,71.4,74.2L71.4,74.2z"/>
	<path class="st4" d="M71.8,46.3c-8,0.1-13.9,6.1-14.2,14c-0.2,7.6,5.8,14.2,13.8,14.5c8.6,0.3,14.9-6.4,14.7-14.3
		C86,52.8,80,46.2,71.8,46.3L71.8,46.3z M71.4,73.6C64,73.4,58.8,67.3,59,60.4c0.2-7.2,5.2-12.5,12.6-12.5
		c7.5-0.1,13.3,5.9,13.2,12.9C84.7,67.7,79.3,73.9,71.4,73.6L71.4,73.6z"/>
	<path class="st0" d="M21.8,74.1l2.8-12.9l0.7,0.2l-2.8,12.9L21.8,74.1z"/>
	<path class="st0" d="M25.2,60.2l11.4-4.4l0.3,0.7l-11.4,4.4L25.2,60.2z"/>
	<path class="st0" d="M33.1,70.6l-8.6-10.8l-3.1-12.5l0.7-0.2l3.1,12.3l8.5,10.6L33.1,70.6z"/>
	<path class="st0" d="M23.8,59.8l-0.6-0.3l4.1-12l0.7,0.2L23.8,59.8z"/>
	<path class="st0" d="M24.4,60l9.5-8.9l0.5,0.5l-9.5,8.9L24.4,60z"/>
	<path class="st0" d="M12.2,53.4l0.4-0.6l10.8,6.1L23,59.6L12.2,53.4z"/>
	<path class="st0" d="M17.3,72.4l-0.6-0.3l5.6-11.3l-11.8-2.8l0.2-0.7l12.7,3L17.3,72.4z"/>
	<path class="st0" d="M10.6,64.2l-0.2-0.7l12.7-3.6l-6.6-10.6l0.6-0.4l7.2,11.4L10.6,64.2z"/>
	<path class="st0" d="M13.2,69.5l-0.4-0.6l11.1-7.2l12.7,3.2l-0.2,0.7L24,62.5L13.2,69.5z"/>
	<path class="st0" d="M23,62.1l0.7-0.3l5,11.7L28,73.8L23,62.1z"/>
	<path class="st0" d="M26.1,59.8l0.1-0.7l11.2,1.2l-0.1,0.7L26.1,59.8z"/>
	<path class="st3" d="M24,44.5c-9.1,0.1-15.7,6.9-16,15.8c-0.3,8.6,6.5,16,15.6,16.3c9.7,0.3,16.9-7.2,16.6-16.2
		C40.1,51.8,33.3,44.4,24,44.5L24,44.5z M23.6,74.3c-7.8-0.2-13.6-6.6-13.4-14c0.2-7.7,5.9-13.5,13.7-13.6c8-0.1,13.8,6.3,14,13.7
		C38.1,68.1,32,74.5,23.6,74.3L23.6,74.3z"/>
	<path class="st4" d="M24.1,46.4c-8,0.1-13.9,6.1-14.2,14C9.7,68,15.7,74.6,23.7,74.8c8.6,0.3,14.9-6.4,14.7-14.3
		C38.3,52.8,32.3,46.3,24.1,46.4L24.1,46.4z M23.7,73.7c-7.4-0.2-12.6-6.3-12.4-13.2c0.2-7.2,5.2-12.5,12.6-12.5
		c7.5-0.1,13.3,5.9,13.2,12.9C37,67.8,31.6,73.9,23.7,73.7z"/>
	<path class="st4" d="M37.6,30.2c0,0,0.9-2.2,1-2.7c0-0.5-0.2-1.2-1.1-1.2c-0.9,0-2.8-0.1-2.8-0.1l-1.8-3.7l-1.3-2
		c0,0-0.9-0.3-1.6,0.2s-0.8,1.2-0.3,2c0.4,0.8,2.6,5.4,3.1,5.6s2.6,0,2.7,0.1C35.8,28.4,35,30,35,30L37.6,30.2L37.6,30.2z"/>
	<path class="st5" d="M65.1,31.4L62,33.3L59.7,32c0,0-1.2-0.9-2-1.2c-1-0.4-2.4-0.2-3.1-1.2c-0.5-0.8,9.4-1,9.4-1L65.1,31.4
		L65.1,31.4z"/>
	<path class="st6" d="M56.2,27.3c-1.7,0.1-2.5,0.2-2.6,0.9c-0.2,0.8,1.3,1.8,1.9,2.1c0.7,0.3,3.9-0.6,4.3-0.5c1.3,0.3,3.4,2,4.4,2.1
		c1,0,4.1-2.4,4.4-2.6c0.5-0.4,0.7-1.8-0.9-1.9C66.2,27.1,57.6,27.2,56.2,27.3L56.2,27.3z"/>
	<path class="st6" d="M31.9,19.8c-0.9,0.1-0.7,1.9-0.4,2.4c0.4,0.7,1,1.3,2.1,1.3c1.1,0,10.1-0.5,10.8-0.6c0.7-0.1,0.7-1,0.4-2
		c-0.2-0.6-0.7-1.6-1.4-1.7C42.4,19.2,33,19.8,31.9,19.8z"/>
	<path class="st7" d="M72.4,59.3l-11-22.2l0.7-3.9L59.1,33c0,0-0.5,3-0.7,3.1c-0.1,0.1-21.6-0.4-21.6-0.4l1.1-3.8l-3.1-0.4
		c-0.3,1-6,20.6-7.4,23c-1.4,2.4-2.8,4.6-2.8,4.6S24,58.8,23.3,59c-0.5,0.2-1.4,0.8-1.2,2.1c0.2,1,1.4,1.7,2.3,1.4
		c1.4-0.5,1.3-1.9,1.3-1.9s3.4-3.3,4.6-5.2c1.2-1.9,3.7-11.2,3.8-11.2c0.2,0,16.9,18.4,17.5,18.6c0.4,0.1,20.1-1.3,20.1-1.3l1.1-0.9
		L72.4,59.3L72.4,59.3z M51.3,57.8c0,0-16.1-16.9-16-17.2c0,0,0.4-1.5,0.5-1.5c0.1-0.2,21.5,0.5,21.5,0.5L51.3,57.8L51.3,57.8z
		 M53.8,59.9l6.2-19.5l9.8,18.7L53.8,59.9z"/>
	<path class="st8" d="M23.8,59.6c-0.2,0-1.1,0.9-1,1.3c0,0.4,1,1,1.3,1.1c0.3,0,1.1-1,1.1-1.2C25.1,60.5,24,59.6,23.8,59.6z"/>
	<path class="st8" d="M71.7,59.2c-0.2,0.1-0.8,1-0.8,1.2c0,0.3,0.4,1.2,0.6,1.3c0.2,0.1,1.1,0.1,1.3,0c0.2-0.1,0.8-0.9,0.8-1.2
		c0-0.2-0.3-1-0.5-1.1C72.9,59.2,71.8,59.1,71.7,59.2L71.7,59.2z"/>
	<path class="st4" d="M58.4,31.9c-0.2,0.2-0.5,1.9,0,1.9s3.7,0.1,3.9,0s0.2-1.6,0.1-1.8C62.2,31.9,58.6,31.8,58.4,31.9z"/>
	<path class="st5" d="M34.5,29.3c-0.4,0.1-1.2,2.5-1,2.8c0.2,0.3,5,0.8,5.2,0.8c0.2,0,0.9-2.7,0.7-2.9
		C39.3,29.8,34.8,29.2,34.5,29.3z"/>
	<path class="st5" d="M45.4,65.1c0,0,4.4-4.3,4.9-4.8c0.4-0.4,0.8-0.9,1.6-0.8c0.8,0.1,1,0.6,1,0.6l-0.8,2l-5,4.3l-0.6,2.6l-4.5-1
		c0,0,0-1.5,0-1.9c0-0.4-0.1-0.9,0.9-0.9S45.4,65.1,45.4,65.1L45.4,65.1z"/>
	<path class="st1" d="M46.3,66.1c-0.1,0.2,0,1.4-0.1,1.7c-0.1,0.2-1.2,0.1-1.9,0.2c-0.7,0-2.4,0-2.4,0s0,1.1,0,1.3
		c0,0.2,0.2,0.6,1,0.6s3.4-0.1,3.8-0.1s0.9-0.4,0.9-1.1c0-0.6,0-1.7,0-1.7s4.4-4.2,4.9-4.7c0.5-0.4,0.8-0.7,0.7-1.3
		c0-0.4-0.4-0.9-0.4-0.9L46.3,66.1L46.3,66.1z"/>
</g>
</svg>
