<?xml version="1.0" encoding="utf-8"?>
<!-- Generator: Adobe Illustrator 27.9.1, SVG Export Plug-In . SVG Version: 6.00 Build 0)  -->
<svg version="1.1" id="Layer_1" xmlns="http://www.w3.org/2000/svg" xmlns:xlink="http://www.w3.org/1999/xlink" x="0px" y="0px"
	 viewBox="0 0 96 96" style="enable-background:new 0 0 96 96;" xml:space="preserve">
<style type="text/css">
	.st0{fill:#FFD6CF;}
	.st1{opacity:0.32;fill:#831232;enable-background:new    ;}
	.st2{fill:#998269;}
	.st3{fill:#836F5A;}
	.st4{fill:#347642;}
	.st5{opacity:0.53;}
	.st6{fill:#2B5448;}
	.st7{fill:#AA6518;}
	.st8{fill:#FFB057;}
	.st9{opacity:0.48;fill:#AA6518;enable-background:new    ;}
	.st10{fill:#C71C4B;}
	.st11{fill:#71CE93;}
	.st12{fill:#D8EDDE;}
	.st13{fill:#3F8E50;}
</style>
<g>
	<polygon class="st0" points="50.2,28.4 51,22.5 46.2,22.2 45.2,27.6 	"/>
	<polygon class="st1" points="50.6,26.3 51,22.5 46.2,22 45.6,25.4 	"/>
	<rect x="71" y="21.1" class="st2" width="3.3" height="28.2"/>
	<rect x="71" y="43.8" class="st2" width="3.4" height="44.2"/>
	<rect x="71" y="42" class="st3" width="3.3" height="7.4"/>
	<path class="st4" d="M21.9,74.4l11-10.6l4-13.6H43l-4.4,15.9c-0.1,0.4-0.3,0.8-0.6,1.2c-0.1,0.1-0.2,0.3-0.3,0.4L24.7,80.2
		L21.9,74.4z"/>
	<g class="st5">
		<polygon class="st6" points="36.9,50.2 35.4,55.5 41.5,55.5 43,50.2 		"/>
	</g>
	<path class="st0" d="M54.9,9.4c-0.7-0.8-1.7-1.2-2.7-1.2L47.7,8c-2.1-0.1-3.9,1.6-4,3.7l-0.3,7.9c0,1,0.3,2,1,2.8
		c0.7,0.8,1.7,1.2,2.7,1.2l4.5,0.2c0,0,0.1,0,0.1,0c1,0,1.9-0.4,2.6-1c0.8-0.7,1.2-1.7,1.2-2.7l0.3-7.9C56,11.1,55.6,10.1,54.9,9.4z
		"/>
	<path class="st7" d="M33.4,22.1l-3.8-0.9c-0.4-0.1-0.8,0.2-0.9,0.6l-2.1,11.4c-0.1,0.5,0.2,1,0.7,1.1l3.8,0.9L33.4,22.1z"/>
	<path class="st8" d="M36.5,43.4l-6.2-1.1c-0.8-0.1-1.4-1-1.3-1.8l3.8-22c0.1-0.8,1-1.4,1.8-1.3l6.2,1.1c0.8,0.1,1.4,1,1.3,1.8
		l-3.8,22C38.2,43,37.4,43.6,36.5,43.4z"/>
	<path class="st9" d="M40.9,18.4l-0.2,0l-3.8,21.5c-0.1,0.8-1,1.4-1.8,1.3l-6-1L29,40.5c-0.1,0.8,0.4,1.6,1.3,1.8l6.2,1.1
		c0.8,0.1,1.6-0.4,1.8-1.3l3.8-22C42.3,19.4,41.7,18.6,40.9,18.4z"/>
	<g>
		<path class="st10" d="M55.7,10.5c-0.2-0.4-0.4-0.8-0.7-1.1c-0.7-0.8-1.7-1.2-2.7-1.2L47.8,8c-2.1-0.1-3.9,1.6-4,3.7l-0.2,4.7
			C45.5,16.1,52,14.6,55.7,10.5z"/>
	</g>
	<path class="st11" d="M52.2,33c0.5-2.8-1.4-5.5-4.2-6l-5.3-0.9c-0.8-0.1-1.6,0.4-1.8,1.3l-4,22.9l5,0.9c0,0.1,0.1,0.1,0.1,0.2
		l8.4,14.8v16.3l6.1,0.7V65.5c0-0.2,0-0.4-0.1-0.5c0-0.4-0.2-0.8-0.4-1.2L49,51.2l1.9-11.1L52.2,33z"/>
	<polygon class="st11" points="43.6,32.8 55.2,44.4 55.3,44.3 55.3,44.4 69.8,43.8 69.6,38.1 57.5,38.7 48.3,29.9 	"/>
	<path class="st12" d="M27.3,86l-8.5-8.5l3.1-3.1l6.4,8.1c0.6,0.8,0.5,1.9-0.1,2.5L27.3,86z"/>
	<polygon class="st0" points="69.6,38.1 77.2,37.8 75,43.7 69.8,43.8 	"/>
	<path class="st13" d="M56.4,64.9c0-0.4-0.2-0.8-0.4-1.2L49,51.2l0.8-4.3l-11.9-2l-0.9,5.3l5,0.9c0,0.1,0.1,0.1,0.1,0.2l8.4,14.8
		v16.3l6.1,1.5V65.5C56.5,65.3,56.5,65.1,56.4,64.9z"/>
	<circle class="st0" cx="48.4" cy="15.9" r="2.3"/>
	<path class="st12" d="M62.4,86.8h-12v-4.4l10.3,1.2c1,0.1,1.7,0.9,1.7,1.9L62.4,86.8z"/>
</g>
</svg>
