<?xml version="1.0" encoding="utf-8"?>
<!-- Generator: Adobe Illustrator 27.9.1, SVG Export Plug-In . SVG Version: 6.00 Build 0)  -->
<svg version="1.1" id="Layer_1" xmlns="http://www.w3.org/2000/svg" xmlns:xlink="http://www.w3.org/1999/xlink" x="0px" y="0px"
	 viewBox="0 0 96 96" style="enable-background:new 0 0 96 96;" xml:space="preserve">
<style type="text/css">
	.st0{fill:#FED0AC;}
	.st1{fill:#E0A372;}
	.st2{fill:#DBB471;}
	.st3{fill:#664E27;}
	.st4{fill:#3E4347;}
	.st5{fill:#F15744;}
	.st6{fill:#3B946F;}
	.st7{fill:#94989B;}
	.st8{fill:#89664C;}
	.st9{fill:#574137;}
	.st10{fill:#B7805C;}
	.st11{fill:#333333;}
	.st12{fill:#47B892;}
	.st13{fill:#D0D0D0;}
	.st14{fill:#C9150D;}
</style>
<g>
	<path class="st0" d="M196.7,1956.8l6.4-8.1l12,28.2l-18.4,7.7V1956.8z"/>
	<path class="st1" d="M189.9,1974.8c6.8,1.3,6.8,9.8,6.8,9.8c7.3-3,6.4-19.6,3-28.6L189.9,1974.8"/>
	<path class="st0" d="M187.3,1918l-27.8,24.8c-0.9,9.4,3.4,12,4.7,15.4c0.4,1.3-1.3,5.1-2.1,7.3c-2.1,4.7,4.7,4.7,6.8,3.4
		c2.6,2.6-0.4,6.4,8.1,0.4c0,0-8.1,8.5-0.4,7.3c0.9,4.3,3.4,12,20.5-4.3c5.1-4.7,3-16.2,3-16.2l9.4-6L187.3,1918"/>
	<path class="st2" d="M163,1924.4c18.4-15.8,34.6-9.8,38.9-5.6c10.7,10.7,12.4,27.3,6.8,42.3c0,0-5.6,0-9-5.6c0,0,6.4,0,3.8-12
		c-2.1-10.2-14.1-11.1-13.7,3.8l-1.3,0.4c-5.6-4.7-3.8-15.4-12.4-14.5c-7.7,0.4-17.1,11.1-17.1,11.1
		C155.3,1941.5,155.3,1931.2,163,1924.4"/>
	<path class="st3" d="M172,1954.7c0.9,2.1,0.4,4.3-0.9,4.7c-1.3,0.4-2.6-0.9-3.4-3c-0.9-2.1-1.3-3.8,0.4-4.3
		C169.4,1951.3,171.1,1952.6,172,1954.7"/>
	<path class="st1" d="M193.7,1948.7c-1.7-3.8,0.4-9,3.4-10.2c0,0-3.8,7.3,0.4,12.8C197.6,1951.3,194.6,1951.7,193.7,1948.7"/>
	<path class="st3" d="M179.6,1966.7c0,0-2.6,4.7-3.8,6c-2.1,2.6-3,2.1-2.1,0c0.9-1.7,3-3.8,3-3.8L179.6,1966.7"/>
	<g>
		<path class="st4" d="M203.6,1962l-3.8,2.1l-16.7-23.9l3.8-2.1L203.6,1962z"/>
		<path class="st4" d="M202.7,1963.3l-4.3-0.9l7.3-19.6l4.3,0.9L202.7,1963.3z"/>
		<path class="st4" d="M197.8,1959.7l5.4-1.1l3.2,15.5l-5.4,1.1L197.8,1959.7z"/>
	</g>
	<path class="st5" d="M218.1,1944.5c-0.4,6-20.1-2.1-31.6-2.6c-12.8-0.4-32,4.7-31.6,0c0.9-17.1,15.4-30.3,32.9-29.5
		C204.8,1912.9,218.5,1927.4,218.1,1944.5"/>
	<path class="st6" d="M197.1,1983.7l-12.4,21.3l-4.7,1.7l2.6,4.3l11.1-0.9l12-23.9L197.1,1983.7z"/>
	<path class="st7" d="M239.4,2002.5c0,0-31.2,23.9-33.3,26.5c-2.1,2.6-3.4,4.7-5.1,10.7l12.4,5.6
		C213.4,2044.8,240.3,2008.9,239.4,2002.5"/>
	<g>
		<path class="st8" d="M327.4,2041.4c11.1-17.1-33.7-26-51.7-1.7v5.6c0,0,36.7-10.7,28.2,10.2c-9.4,23.1,28.2,42.7,28.2,42.7
			S312,2065.7,327.4,2041.4"/>
		<path class="st8" d="M107.1,1956c0,0-3-6.4-1.3-17.9c0,0,8.5,6,14.5,19.2L107.1,1956"/>
	</g>
	<path class="st9" d="M122,2155.8l2.6-18.8c0,0-3.8,0-7.7-0.9c-1.3,3.4-2.6,9.4-3.8,16.7C117.7,2155.4,122,2155.8,122,2155.8"/>
	<path class="st8" d="M183.9,2108.9c-3,2.1-6.4,5.1-9,7.7l-14.9-4.3c0,0,13.7-20.5,45.7-34.2c0,0-36.3-13.2-48.7,4.3
		c0,0-16.2,24.3-21.8,29.9c-5.6,6,0.4,11.1,3,12s41.4,4.3,41.4,4.3s5.1-4.3,12-6.8C189,2114.4,186,2110.6,183.9,2108.9"/>
	<path class="st9" d="M189.5,2104.6c0,0-2.6,1.7-6,4.3c2.1,2.1,5.1,6,8.1,12c3-1.3,6.8-2.1,9.8-1.7
		C201.8,2119.1,196.7,2108,189.5,2104.6"/>
	<path class="st8" d="M231.3,2058.9l-3.4,24.8c0,0,33.7,5.6,47.8,0.4c0,0,12.4,30.7,35.9,50c1.7-3,3.8-8.1,5.1-15.4
		c-9-5.6-23.1-18.8-29.5-46.1C287.2,2072.6,259.9,2076,231.3,2058.9"/>
	<path class="st9" d="M311.6,2134c3,2.6,6.4,5.1,9.8,7.3c0,0,3.4-8.5,3.8-18.4c0,0-3.4-0.9-8.5-4.3
		C315.4,2125.9,313.3,2131.1,311.6,2134"/>
	<g>
		<path class="st10" d="M259.1,2023.5c-34.2,4.3-67,12.8-73-6c-24.8-76.4-71.3-64-71.3-64c-8.1-9.8-16.2-11.5-16.2-11.5
			c-0.9,9.8,3,17.9,3,17.9c-2.6,12-23.1,51.2-25.2,56.4s12.4,14.5,12.4,14.5c3-0.4,3.8-5.6,10.2-5.1c1.7,0-3,6-1.3,6.8
			c3.4,1.3,7.3-8.5,14.5-12.4c26-14.1,17.5-23.5,17.5-23.5c10.7,7.3,4.7,23.5,0,32c-10.7,20.1,0.4,49.1,0.4,49.1
			c-10.7,8.1-33.7,12.8-33.7,12.8c-8.1,41.8,6.4,57.2,16.7,62.8c1.3-7.3,2.6-13.2,3.8-16.7c-3.8-0.9-8.1-3.4-9.8-7.7c-3-9,3-29,3-29
			c27.8,3.4,44.8-5.1,64.9-10.2c19.6-4.7,38.9-1.3,58.1,1.7C305.6,2104.2,296.2,2018.8,259.1,2023.5"/>
		<path class="st10" d="M228.7,2088.4c18.8,42.7,59.8,19.2,59.8,19.2c-9.4,26-2.6,44,3.4,53.4c5.1-2.6,8.1-8.5,9.8-12
			c-13.2-14.9-3.8-34.6-1.3-42.3c3-8.5-1.3-14.1-1.3-14.1c-11.5-2.6-17.9,5.1-31.6-12.4C253.9,2063.2,228.7,2088.4,228.7,2088.4"/>
	</g>
	<g>
		<path class="st9" d="M297.9,2168.2c6.4-0.4,8.5-14.9,8.5-14.9c-1.7-1.3-3.4-3-4.7-4.3c-1.7,3.4-4.7,9.4-9.8,12
			C294.9,2165.6,297.9,2168.2,297.9,2168.2"/>
		<path class="st9" d="M213.4,2066.6c0,0,1.3,9.4-5.1,22.2c0,0,5.1,0,9.4,0.4c0,0,3.8-4.3,5.1-21.8L213.4,2066.6"/>
	</g>
	<path class="st8" d="M188.2,2021.3c0,0,10.2,11.1,3.8,20.5c-8.5,12.8,17.5,36.3,47,23.1c20.9-9.4,0.9-32.5,10.2-41.4
		C248.8,2023.9,213.8,2031.6,188.2,2021.3"/>
	<g>
		<path class="st11" d="M90.8,2011.9l-2.1-2.1c24.3-22.6,29.9-32,29.9-32l2.6,1.7C121.1,1979.9,115.6,1989.3,90.8,2011.9"/>
		<path class="st11" d="M124.1,1982c-3.4-5.1-7.7-9.8-12-14.1c-4.3-4.3-9-6.8-11.1-8.5c0,0-0.4,2.1-0.9,3.4c1.7,1.7,6,3.8,9.8,7.7
			c6,6,13.7,16.7,20.5,32c0.9-0.4,2.1-2.6,2.6-2.6C130.1,1993.6,128,1987.6,124.1,1982"/>
		<path class="st11" d="M96.8,2026c0.9-0.4,3,0,3,0c-5.1-13.7-13.2-22.6-16.2-24.3l-1.3,2.6c0.9,0.4,2.1,1.3,3.8,3
			C88.7,2010.6,93.8,2017.9,96.8,2026"/>
	</g>
	<g>
		<path class="st8" d="M98.9,1984.6c0,0,4.3,1.7,7.3-1.7c3-3.4,1.3-12.4,1.3-12.4S101.5,1975.2,98.9,1984.6"/>
		<path class="st8" d="M80.2,2014.9c0,0,5.6-0.9,3.8,6C81.9,2027.3,79.7,2017.1,80.2,2014.9"/>
	</g>
	<path class="st11" d="M159.6,2015.3c-13.2-0.4-28.2-4.7-38-8.5c-10.7-3.8-18.8-8.1-18.8-8.1l-1.3,2.1c0,0,8.1,4.3,18.8,8.1
		c6.4,2.6,12.8,4.3,18.8,5.6c6.8,1.7,13.2,2.6,18.8,2.6C158.7,2017.1,159.6,2015.3,159.6,2015.3"/>
	<path class="st12" d="M190.3,2007.7c0,0-25.6,3.8-28.6,4.7c0,0,0.4,1.7-1.7,5.1l36.3,3l15.8-23.9l26.9,6c0,0,12.8,0.4,25.6-11.5
		c0,0-24.8-26.5-54.7-24.8c0,0-4.7,9.8-14.5,14.5L190.3,2007.7"/>
	<path class="st13" d="M239.4,2002.5c0,0-24.8,20.9-29.9,33.3c-3.4,8.5,5.6,20.9,7.3,25.2c0,0,9.4,0.9,14.9-4.7
		c0,0,0.4-4.7-6.4-15.8c0,0,24.8-9,34.6-17.5c9.8-8.5,12.4-17.1,5.1-32L239.4,2002.5"/>
	<path class="st11" d="M220.6,2086.6c0,0-15.8,8.5-16.7,11.1c-0.9,2.6,2.6,3.8,2.6,3.8s13.7,1.7,29-2.1l-3.8-44.4
		c0,0-3.8,5.1-16.2,6L220.6,2086.6"/>
	<path class="st0" d="M162.6,2014.5v-4.7c0-1.7-1.3-3-3-3h-2.1c-1.3,0-2.1,0.9-2.6,1.7c-3,0-6.8,1.3-6.8,6.8c0,0.9,0,6,6,6
		C162.6,2021.3,162.6,2021.3,162.6,2014.5"/>
	<path class="st14" d="M193.3,1942.8c0,0-38.9,11.5-44.8,10.7c-6-0.9,3.4-9,6-11.1S190.7,1939.8,193.3,1942.8"/>
</g>
<g>
	<path class="st0" d="M45.7,21.9l2-2.5l3.7,8.8l-5.7,2.4V21.9z"/>
	<path class="st1" d="M43.6,27.5c2.1,0.4,2.1,3.1,2.1,3.1c2.3-0.9,2-6.1,0.9-8.9L43.6,27.5"/>
	<path class="st0" d="M42.8,9.8l-8.7,7.7c-0.3,2.9,1.1,3.7,1.5,4.8c0.1,0.4-0.4,1.6-0.7,2.3c-0.7,1.5,1.5,1.5,2.1,1.1
		c0.8,0.8-0.1,2,2.5,0.1c0,0-2.5,2.7-0.1,2.3c0.3,1.3,1.1,3.7,6.4-1.3c1.6-1.5,0.9-5.1,0.9-5.1l2.9-1.9L42.8,9.8"/>
	<path class="st2" d="M35.2,11.8C40.9,6.8,46,8.7,47.3,10c3.3,3.3,3.9,8.5,2.1,13.2c0,0-1.7,0-2.8-1.7c0,0,2,0,1.2-3.7
		c-0.7-3.2-4.4-3.5-4.3,1.2l-0.4,0.1c-1.7-1.5-1.2-4.8-3.9-4.5C36.9,14.7,34,18,34,18C32.8,17.1,32.8,13.9,35.2,11.8"/>
	<path class="st3" d="M38,21.3c0.3,0.7,0.1,1.3-0.3,1.5s-0.8-0.3-1.1-0.9s-0.4-1.2,0.1-1.3C37.2,20.2,37.7,20.6,38,21.3"/>
	<path class="st1" d="M44.8,19.4c-0.5-1.2,0.1-2.8,1.1-3.2c0,0-1.2,2.3,0.1,4C46,20.2,45,20.3,44.8,19.4"/>
	<path class="st3" d="M40.4,25c0,0-0.8,1.5-1.2,1.9c-0.7,0.8-0.9,0.7-0.7,0c0.3-0.5,0.9-1.2,0.9-1.2L40.4,25"/>
	<g>
		<path class="st4" d="M47.8,23.5l-1.2,0.7l-5.2-7.5l1.2-0.7L47.8,23.5z"/>
		<path class="st4" d="M47.6,23.9l-1.3-0.3l2.3-6.1l1.3,0.3L47.6,23.9z"/>
		<path class="st4" d="M46,22.8l1.7-0.3l1,4.8L47,27.6L46,22.8z"/>
	</g>
	<path class="st5" d="M52.4,18c-0.1,1.9-6.3-0.7-9.9-0.8c-4-0.1-10,1.5-9.9,0c0.3-5.3,4.8-9.5,10.3-9.2C48.2,8.2,52.5,12.7,52.4,18"
		/>
	<path class="st6" d="M45.8,30.3L42,37l-1.5,0.5l0.8,1.3l3.5-0.3l3.7-7.5L45.8,30.3z"/>
	<path class="st7" d="M59,36.2c0,0-9.7,7.5-10.4,8.3c-0.7,0.8-1.1,1.5-1.6,3.3l3.9,1.7C50.9,49.4,59.3,38.2,59,36.2"/>
	<g>
		<path class="st8" d="M86.5,48.3C90,43,76,40.2,70.4,47.8v1.7c0,0,11.5-3.3,8.8,3.2C76.3,59.9,88,66.1,88,66.1S81.7,55.9,86.5,48.3
			"/>
		<path class="st8" d="M17.7,21.7c0,0-0.9-2-0.4-5.6c0,0,2.7,1.9,4.5,6L17.7,21.7"/>
	</g>
	<path class="st9" d="M22.3,84.1l0.8-5.9c0,0-1.2,0-2.4-0.3c-0.4,1.1-0.8,2.9-1.2,5.2C21,84,22.3,84.1,22.3,84.1"/>
	<path class="st8" d="M41.7,69.4c-0.9,0.7-2,1.6-2.8,2.4l-4.7-1.3c0,0,4.3-6.4,14.3-10.7c0,0-11.3-4.1-15.2,1.3c0,0-5.1,7.6-6.8,9.3
		c-1.7,1.9,0.1,3.5,0.9,3.7s12.9,1.3,12.9,1.3s1.6-1.3,3.7-2.1C43.3,71.2,42.4,70,41.7,69.4"/>
	<path class="st9" d="M43.4,68.1c0,0-0.8,0.5-1.9,1.3c0.7,0.7,1.6,1.9,2.5,3.7c0.9-0.4,2.1-0.7,3.1-0.5
		C47.3,72.6,45.7,69.2,43.4,68.1"/>
	<path class="st8" d="M56.5,53.8l-1.1,7.7c0,0,10.5,1.7,14.9,0.1c0,0,3.9,9.6,11.2,15.6c0.5-0.9,1.2-2.5,1.6-4.8
		c-2.8-1.7-7.2-5.9-9.2-14.4C74,58.1,65.4,59.1,56.5,53.8"/>
	<path class="st9" d="M81.6,77.3c0.9,0.8,2,1.6,3.1,2.3c0,0,1.1-2.7,1.2-5.7c0,0-1.1-0.3-2.7-1.3C82.8,74.8,82.1,76.4,81.6,77.3"/>
	<g>
		<path class="st10" d="M65.2,42.7c-10.7,1.3-21,4-22.8-1.9c-7.7-23.9-22.3-20-22.3-20c-2.5-3.1-5.1-3.6-5.1-3.6
			c-0.3,3.1,0.9,5.6,0.9,5.6c-0.8,3.7-7.2,16-7.9,17.6s3.9,4.5,3.9,4.5c0.9-0.1,1.2-1.7,3.2-1.6c0.5,0-0.9,1.9-0.4,2.1
			c1.1,0.4,2.3-2.7,4.5-3.9c8.1-4.4,5.5-7.3,5.5-7.3c3.3,2.3,1.5,7.3,0,10c-3.3,6.3,0.1,15.3,0.1,15.3c-3.3,2.5-10.5,4-10.5,4
			c-2.5,13.1,2,17.9,5.2,19.6c0.4-2.3,0.8-4.1,1.2-5.2c-1.2-0.3-2.5-1.1-3.1-2.4c-0.9-2.8,0.9-9.1,0.9-9.1c8.7,1.1,14-1.6,20.3-3.2
			C45,62,51,63,57,64C79.7,68,76.8,41.3,65.2,42.7"/>
		<path class="st10" d="M55.7,63c5.9,13.3,18.7,6,18.7,6c-2.9,8.1-0.8,13.7,1.1,16.7c1.6-0.8,2.5-2.7,3.1-3.7
			c-4.1-4.7-1.2-10.8-0.4-13.2c0.9-2.7-0.4-4.4-0.4-4.4c-3.6-0.8-5.6,1.6-9.9-3.9C63.6,55.1,55.7,63,55.7,63"/>
	</g>
	<g>
		<path class="st9" d="M77.3,88c2-0.1,2.7-4.7,2.7-4.7c-0.5-0.4-1.1-0.9-1.5-1.3c-0.5,1.1-1.5,2.9-3.1,3.7
			C76.4,87.2,77.3,88,77.3,88"/>
		<path class="st9" d="M50.9,56.2c0,0,0.4,2.9-1.6,6.9c0,0,1.6,0,2.9,0.1c0,0,1.2-1.3,1.6-6.8L50.9,56.2"/>
	</g>
	<path class="st8" d="M43,42.1c0,0,3.2,3.5,1.2,6.4c-2.7,4,5.5,11.3,14.7,7.2c6.5-2.9,0.3-10.1,3.2-12.9C62,42.9,51,45.3,43,42.1"/>
	<g>
		<path class="st11" d="M12.6,39.1l-0.7-0.7c7.6-7.1,9.3-10,9.3-10l0.8,0.5C22.1,29.1,20.3,32.1,12.6,39.1"/>
		<path class="st11" d="M23,29.8c-1.1-1.6-2.4-3.1-3.7-4.4c-1.3-1.3-2.8-2.1-3.5-2.7c0,0-0.1,0.7-0.3,1.1c0.5,0.5,1.9,1.2,3.1,2.4
			c1.9,1.9,4.3,5.2,6.4,10c0.3-0.1,0.7-0.8,0.8-0.8C24.9,33.4,24.2,31.5,23,29.8"/>
		<path class="st11" d="M14.5,43.5c0.3-0.1,0.9,0,0.9,0c-1.6-4.3-4.1-7.1-5.1-7.6l-0.4,0.8c0.3,0.1,0.7,0.4,1.2,0.9
			C11.9,38.7,13.5,41,14.5,43.5"/>
	</g>
	<g>
		<path class="st8" d="M15.1,30.6c0,0,1.3,0.5,2.3-0.5s0.4-3.9,0.4-3.9S15.9,27.7,15.1,30.6"/>
		<path class="st8" d="M9.3,40.1c0,0,1.7-0.3,1.2,1.9C9.8,43.9,9.1,40.7,9.3,40.1"/>
	</g>
	<path class="st11" d="M34.1,40.2c-4.1-0.1-8.8-1.5-11.9-2.7c-3.3-1.2-5.9-2.5-5.9-2.5l-0.4,0.7c0,0,2.5,1.3,5.9,2.5
		c2,0.8,4,1.3,5.9,1.7c2.1,0.5,4.1,0.8,5.9,0.8C33.8,40.7,34.1,40.2,34.1,40.2"/>
	<path class="st12" d="M43.7,37.8c0,0-8,1.2-8.9,1.5c0,0,0.1,0.5-0.5,1.6l11.3,0.9l4.9-7.5l8.4,1.9c0,0,4,0.1,8-3.6
		c0,0-7.7-8.3-17.1-7.7c0,0-1.5,3.1-4.5,4.5L43.7,37.8"/>
	<path class="st13" d="M59,36.2c0,0-7.7,6.5-9.3,10.4c-1.1,2.7,1.7,6.5,2.3,7.9c0,0,2.9,0.3,4.7-1.5c0,0,0.1-1.5-2-4.9
		c0,0,7.7-2.8,10.8-5.5c3.1-2.7,3.9-5.3,1.6-10L59,36.2"/>
	<path class="st11" d="M53.2,62.5c0,0-4.9,2.7-5.2,3.5c-0.3,0.8,0.8,1.2,0.8,1.2s4.3,0.5,9.1-0.7l-1.2-13.9c0,0-1.2,1.6-5.1,1.9
		L53.2,62.5"/>
	<path class="st0" d="M35,39.9v-1.5c0-0.5-0.4-0.9-0.9-0.9h-0.7c-0.4,0-0.7,0.3-0.8,0.5c-0.9,0-2.1,0.4-2.1,2.1c0,0.3,0,1.9,1.9,1.9
		C35,42.1,35,42.1,35,39.9"/>
	<path class="st14" d="M44.6,17.5c0,0-12.1,3.6-14,3.3c-1.9-0.3,1.1-2.8,1.9-3.5C33.3,16.7,43.8,16.6,44.6,17.5"/>
</g>
</svg>
