<?xml version="1.0" encoding="utf-8"?>
<!-- Generator: Adobe Illustrator 27.9.1, SVG Export Plug-In . SVG Version: 6.00 Build 0)  -->
<svg version="1.1" id="Layer_1" xmlns="http://www.w3.org/2000/svg" xmlns:xlink="http://www.w3.org/1999/xlink" x="0px" y="0px"
	 viewBox="0 0 96 96" style="enable-background:new 0 0 96 96;" xml:space="preserve">
<style type="text/css">
	.st0{fill:#FFD6CF;}
	.st1{opacity:0.32;fill:#831232;enable-background:new    ;}
	.st2{fill:#C7972B;}
	.st3{opacity:0.53;}
	.st4{fill:#F3B91A;}
	.st5{fill:#C71C4B;}
	.st6{fill:#F4F08C;}
	.st7{fill:#D8EDDE;}
	.st8{fill:#FFC323;}
	.st9{fill:#38454F;}
	.st10{fill:#546A79;}
	.st11{fill:#F0C419;}
	.st12{fill:#BDC3C7;}
	.st13{fill:none;stroke:#38454F;stroke-width:2;stroke-miterlimit:10;}
</style>
<g>
	<g>
		<polygon class="st0" points="52.8,27.1 53.6,21.6 49,21.3 48.1,26.3 		"/>
		<polygon class="st1" points="53.1,25.1 53.6,21.6 49.1,21.1 48.5,24.3 		"/>
		<path class="st2" d="M26.3,70.1l10.3-9.9l3.7-12.7h5.7L42,62.4c-0.1,0.4-0.3,0.8-0.6,1.1c-0.1,0.1-0.2,0.3-0.3,0.4L29,75.5
			L26.3,70.1z"/>
		<g class="st3">
			<polygon class="st4" points="40.4,47.5 38.9,52.4 44.7,52.4 46.1,47.5 			"/>
		</g>
		<path class="st0" d="M57.2,9.3c-0.7-0.7-1.5-1.1-2.5-1.1L50.5,8c-2-0.1-3.7,1.5-3.7,3.5l-0.3,7.4c0,1,0.3,1.9,1,2.6
			c0.7,0.7,1.5,1.1,2.5,1.1l4.2,0.2c0,0,0.1,0,0.1,0c0.9,0,1.8-0.3,2.4-1c0.7-0.7,1.1-1.5,1.1-2.5l0.3-7.4
			C58.2,10.9,57.9,10,57.2,9.3z"/>
		<g>
			<path class="st5" d="M57.9,10.3c-0.2-0.4-0.4-0.7-0.7-1c-0.7-0.7-1.5-1.1-2.5-1.1L50.5,8c-2-0.1-3.7,1.5-3.7,3.5l-0.2,4.4
				C48.4,15.5,54.5,14.2,57.9,10.3z"/>
		</g>
		<path class="st6" d="M54.6,31.4c0.5-2.6-1.3-5.1-3.9-5.6l-4.9-0.9c-0.8-0.1-1.5,0.4-1.7,1.2l-3.7,21.4l4.7,0.8
			c0,0.1,0.1,0.1,0.1,0.2L53,62.3v15.3l5.7,0.7V61.7c0-0.2,0-0.3,0-0.5c0-0.4-0.2-0.8-0.4-1.2l-6.6-11.7L53.5,38L54.6,31.4z"/>
		<polygon class="st6" points="46.7,31.2 57.5,42 57.5,41.9 57.6,42 71.2,41.5 70.9,36.2 59.6,36.7 51,28.5 		"/>
		<path class="st7" d="M31.4,80.9L23.4,73l2.9-2.9l6,7.6c0.6,0.7,0.5,1.7-0.1,2.4L31.4,80.9z"/>
		<polygon class="st0" points="70.9,36.2 78.1,35.8 76,41.3 71.2,41.5 		"/>
		<path class="st8" d="M58.6,61.2c0-0.4-0.2-0.8-0.4-1.2l-6.6-11.7l0.7-4l-11.1-1.9l-0.9,5l4.7,0.8c0,0.1,0.1,0.1,0.1,0.2L53,62.3
			v15.3l5.7,1.4V61.7C58.7,61.6,58.6,61.4,58.6,61.2z"/>
		<circle class="st0" cx="51.1" cy="15.4" r="2.1"/>
	</g>
	<g>
		
			<rect x="26.2" y="70.4" transform="matrix(0.7071 -0.7071 0.7071 0.7071 -47.7651 41.9191)" class="st9" width="1" height="16.4"/>
		<path class="st10" d="M33.7,81.9l-2-5h-2.1c-0.6,0-1-0.5-1-1c0-0.6,0.5-1,1-1l1.4,0l0.9-0.9l0-1l0.7-0.7l-0.7-0.7
			c-0.4-0.4-0.4-1,0-1.4s1-0.4,1.4,0l0.7,0.7l0.5-0.5h1l0.5-0.5c0.3-0.3,0.3-0.7,0-1l-5-5c-0.3-0.3-0.7-0.3-1,0l-0.3,0.3
			c-0.1,0.1-0.1,0.2-0.1,0.3l0,0.6c0,0.1,0,0.2-0.1,0.3l-3.6,3.6c-0.1,0.1-0.2,0.1-0.3,0.1h-0.6c-0.1,0-0.2,0-0.3,0.1l-3.2,3.2
			l4.3,4.3l1.7,1.7l5.6,5.6l0.5-0.5C33.8,83.1,33.9,82.5,33.7,81.9z"/>
		<path class="st11" d="M32.4,76.9h-2.8c-0.6,0-1-0.5-1-1l0,0c0-0.6,0.5-1,1-1h2.8V76.9z"/>
		<path class="st9" d="M23.7,74.9l-2.4-2.4l2.4-2.4l0,0C25,71.4,25,73.5,23.7,74.9L23.7,74.9z"/>
		<path class="st11" d="M35,71.7L33.4,70c-0.4-0.4-1-0.4-1.4,0l0,0c-0.4,0.4-0.4,1,0,1.4l1.7,1.7L35,71.7z"/>
		<g>
			
				<rect x="26.3" y="68.4" transform="matrix(0.7071 -0.7071 0.7071 0.7071 -41.0582 39.041)" class="st9" width="0.7" height="1.4"/>
			
				<rect x="27.2" y="67.4" transform="matrix(0.7071 -0.7071 0.7071 0.7071 -40.0927 39.4409)" class="st9" width="0.7" height="1.4"/>
			
				<rect x="28.2" y="66.5" transform="matrix(0.7071 -0.7071 0.7071 0.7071 -39.1271 39.8409)" class="st9" width="0.7" height="1.4"/>
			
				<rect x="29.2" y="65.5" transform="matrix(0.7071 -0.7071 0.7071 0.7071 -38.1615 40.2408)" class="st9" width="0.7" height="1.4"/>
		</g>
		<path class="st9" d="M34.6,69.3l-4.1-4.1c-0.1-0.1-0.1-0.3,0-0.5c0.1-0.1,0.3-0.1,0.5,0l4.1,4.1c0.1,0.1,0.1,0.3,0,0.5
			C34.9,69.5,34.7,69.5,34.6,69.3z"/>
		<path class="st9" d="M31,63.8l0.7,0.7l1-1c0.3-0.3,0.3-0.7,0-1c-0.3-0.3-0.7-0.3-1,0l-1,1C30.7,63.6,30.9,63.7,31,63.8z"/>
		<g>
			
				<rect x="22.6" y="76.2" transform="matrix(0.7071 -0.7071 0.7071 0.7071 -48.0929 38.9552)" class="st12" width="0.7" height="2.7"/>
			
				<rect x="27.9" y="81.5" transform="matrix(0.7071 -0.7071 0.7071 0.7071 -50.2926 44.2658)" class="st12" width="0.7" height="2.7"/>
		</g>
		<path class="st12" d="M22,73.2c-0.9-0.9-2.4-0.9-3.4,0s-0.9,2.4,0,3.4c0.9,0.9,2.4,0.9,3.4,0C22.9,75.6,22.9,74.1,22,73.2z
			 M19.6,75.6c-0.4-0.4-0.4-1,0-1.4s1-0.4,1.4,0c0.4,0.4,0.4,1,0,1.4C20.6,76,20,76,19.6,75.6z"/>
		<path class="st12" d="M27.3,78.5c-0.9-0.9-2.4-0.9-3.4,0c-0.9,0.9-0.9,2.4,0,3.4c0.9,0.9,2.4,0.9,3.4,0
			C28.3,80.9,28.3,79.4,27.3,78.5z M24.9,80.9c-0.4-0.4-0.4-1,0-1.4c0.4-0.4,1-0.4,1.4,0s0.4,1,0,1.4C26,81.3,25.3,81.3,24.9,80.9z"
			/>
		<path class="st12" d="M32.6,83.8c-0.9-0.9-2.4-0.9-3.4,0c-0.9,0.9-0.9,2.4,0,3.4c0.9,0.9,2.4,0.9,3.4,0
			C33.6,86.3,33.6,84.7,32.6,83.8z M30.2,86.2c-0.4-0.4-0.4-1,0-1.4s1-0.4,1.4,0c0.4,0.4,0.4,1,0,1.4C31.3,86.6,30.6,86.6,30.2,86.2
			z"/>
		<circle class="st13" cx="20.3" cy="74.9" r="1"/>
		<circle class="st13" cx="30.9" cy="85.5" r="1"/>
		<circle class="st13" cx="25.6" cy="80.2" r="1"/>
	</g>
	<g>
		<rect x="51.2" y="83.2" class="st9" width="16.4" height="1"/>
		<path class="st10" d="M66.6,81.1l-5-2.1l-1.5,1.5c-0.4,0.4-1,0.4-1.4,0c-0.4-0.4-0.4-1,0-1.4l1-1v-1.3L59,76.1v-1h-1
			c-0.6,0-1-0.5-1-1s0.5-1,1-1h1v-0.7l0.7-0.7V71c0-0.4-0.3-0.7-0.7-0.7h-7.1c-0.4,0-0.7,0.3-0.7,0.7v0.5c0,0.1,0,0.2,0.1,0.3
			l0.4,0.4c0.1,0.1,0.1,0.2,0.1,0.3l0,5.1c0,0.1,0,0.2-0.1,0.3l-0.4,0.4c-0.1,0.1-0.1,0.2-0.1,0.3v4.6h6.1h2.4h7.9v-0.7
			C67.5,81.9,67.2,81.4,66.6,81.1z"/>
		<path class="st11" d="M62.1,78.5l-1.9,1.9c-0.4,0.4-1,0.4-1.4,0l0,0c-0.4-0.4-0.4-1,0-1.4l1.9-1.9L62.1,78.5z"/>
		<path class="st9" d="M54.6,83.2h-3.4v-3.4l0,0C53,79.8,54.6,81.3,54.6,83.2L54.6,83.2z"/>
		<path class="st11" d="M60.4,73H58c-0.6,0-1,0.5-1,1l0,0c0,0.6,0.5,1,1,1h2.4V73z"/>
		<g>
			<rect x="51.8" y="76.7" class="st9" width="1.4" height="0.7"/>
			<rect x="51.8" y="75.4" class="st9" width="1.4" height="0.7"/>
			<rect x="51.8" y="74" class="st9" width="1.4" height="0.7"/>
			<rect x="51.8" y="72.6" class="st9" width="1.4" height="0.7"/>
		</g>
		<path class="st9" d="M58.3,71.6l-5.8,0c-0.2,0-0.3-0.2-0.3-0.3c0-0.2,0.2-0.3,0.3-0.3h5.8c0.2,0,0.3,0.2,0.3,0.3
			C58.7,71.5,58.5,71.6,58.3,71.6z"/>
		<path class="st9" d="M51.9,70.2h1v-1.4c0-0.4-0.3-0.7-0.7-0.7c-0.4,0-0.7,0.3-0.7,0.7v1.5C51.6,70.3,51.7,70.2,51.9,70.2z"/>
		<g>
			<rect x="54.6" y="85.3" class="st12" width="2.7" height="0.7"/>
			<rect x="62.1" y="85.3" class="st12" width="2.7" height="0.7"/>
		</g>
		<path class="st12" d="M52.2,83.2c-1.3,0-2.4,1.1-2.4,2.4c0,1.3,1.1,2.4,2.4,2.4s2.4-1.1,2.4-2.4C54.6,84.3,53.5,83.2,52.2,83.2z
			 M52.2,86.6c-0.6,0-1-0.5-1-1c0-0.6,0.5-1,1-1c0.6,0,1,0.5,1,1C53.2,86.2,52.7,86.6,52.2,86.6z"/>
		<path class="st12" d="M59.7,83.2c-1.3,0-2.4,1.1-2.4,2.4c0,1.3,1.1,2.4,2.4,2.4c1.3,0,2.4-1.1,2.4-2.4
			C62.1,84.3,61,83.2,59.7,83.2z M59.7,86.6c-0.6,0-1-0.5-1-1c0-0.6,0.5-1,1-1c0.6,0,1,0.5,1,1C60.7,86.2,60.3,86.6,59.7,86.6z"/>
		<path class="st12" d="M67.2,83.2c-1.3,0-2.4,1.1-2.4,2.4c0,1.3,1.1,2.4,2.4,2.4c1.3,0,2.4-1.1,2.4-2.4
			C69.6,84.3,68.5,83.2,67.2,83.2z M67.2,86.6c-0.6,0-1-0.5-1-1c0-0.6,0.5-1,1-1s1,0.5,1,1C68.2,86.2,67.8,86.6,67.2,86.6z"/>
		<circle class="st13" cx="52.2" cy="85.6" r="1"/>
		<circle class="st13" cx="67.2" cy="85.6" r="1"/>
		<circle class="st13" cx="59.7" cy="85.6" r="1"/>
	</g>
</g>
</svg>
