<?xml version="1.0" encoding="utf-8"?>
<!-- Generator: Adobe Illustrator 27.9.1, SVG Export Plug-In . SVG Version: 6.00 Build 0)  -->
<svg version="1.1" id="Layer_1" xmlns="http://www.w3.org/2000/svg" xmlns:xlink="http://www.w3.org/1999/xlink" x="0px" y="0px"
	 viewBox="0 0 96 96" style="enable-background:new 0 0 96 96;" xml:space="preserve">
<style type="text/css">
	.st0{fill:#666666;}
	.st1{fill:#FFD3B6;}
	.st2{fill:#76DFFF;}
	.st3{fill:#FFFFFF;}
	.st4{fill:#00B1FF;}
	.st5{fill:#2B3B47;}
	.st6{fill:#E5E5E5;}
	.st7{fill:#597B91;}
	.st8{fill:#EDC0A2;}
	.st9{fill:#E5AB83;}
	.st10{fill:#959DA3;}
	.st11{fill:#68442A;}
</style>
<g>
	<g>
		<rect x="28.8" y="35.7" transform="matrix(0.9337 -0.358 0.358 0.9337 -14.9038 14.0004)" class="st0" width="3.2" height="23"/>
	</g>
	<g>
		<g>
			
				<rect x="46.9" y="42.4" transform="matrix(0.7728 -0.6346 0.6346 0.7728 -22.0875 42.6126)" class="st0" width="3.2" height="19.6"/>
		</g>
		
			<rect x="60.4" y="53.2" transform="matrix(0.7728 -0.6346 0.6346 0.7728 -29.4221 54.9123)" class="st0" width="3.3" height="30.7"/>
	</g>
	<path class="st1" d="M61.9,77.5l-8.3-10.6l-3.4-16.7c-0.1-0.3-0.1-0.6-0.3-0.8l6.3-5.8c0.8-0.7,0.9-1.9,0.2-2.7l-0.1-0.1l-3.9-4.8
		l-1.9-2.4l-0.9-1.1c-0.3-0.3-0.6-0.8-0.9-1.2v-0.1c-0.3-0.6-1-0.8-1.6-0.9v-2.9c4.9-2.3,5-10.1,5-10.1c0-4.4-3.5-8-8-8
		s-7.6,2.3-7.6,6.6v1c0,0-0.7,2.2-1.1,3.1c-0.4,1,0.1,1.2,1.2,1.2v1.7c0,0.3,0.9,0.2,1.2,0.1c0.2-0.1,0.6,0,0.7,0.2s0,0.6-0.2,0.7
		s-0.8,0.2-1.1,0.3c-0.2,0-0.3,0.2-0.3,0.4c0.6,2,2.3,2.8,4.7,3.1v2.4c0,0.8,1.2,1.4,2.9,1.4l-1,6.9L41,43l-9.7-1.4
		c0-0.3-0.1-0.6-0.3-0.8c-0.6-0.7-1.1-1.3-1.7-1.9c-0.6-0.7-1.6-0.8-2.2-0.2l-0.1,0.1c-0.8-0.2-1.7,0.3-1.9,1.1
		c-0.1,0.4-0.3,0.9-0.4,1.3l-0.1,0.2c-0.2,0.8,0.2,1.6,1,1.9c1.2,0.4,2.4,0.8,3.7,1h0.3l12,3.5c0.9,0.3,2-0.1,2.4-1l0.1-0.2l3.3-5.6
		c0,0,1.6-0.9,2.7-1.3l2,2.4l-10.7,11c-0.3,0.4-0.7,1-0.9,1.6l-0.8,1.6l-0.8,1.6c-0.2,0.6-0.4,1.1-0.7,1.6c-0.4,1.1-0.9,2.2-1.2,3.2
		c-0.2,0.6-0.3,1.1-0.6,1.7l-0.6,1.7l-0.1,0.3l-0.4,2.1c-0.1,0.7-0.3,1.4-0.4,2.1l-0.7,4.3c-0.1,0.8-0.2,1.4-0.2,2.2l-0.2,2.2
		l-0.1,2.2c0,0.8-0.1,1.4-0.1,2.2v0.3c0,0.4,0.3,0.9,0.8,1.1c0.6,0.2,1.3-0.1,1.6-0.7l1.4-4.1l1.3-4.1l2.7-8l2.8-6.3l1.4-3.2
		l0.1-0.2l2.1,10.4l0.1,0.3c0.1,0.3,0.2,0.7,0.6,1L58.7,80l0.2,0.2c0.8,0.7,1.9,0.8,2.7,0.1C62.4,79.8,62.7,78.4,61.9,77.5
		L61.9,77.5z"/>
	<path class="st2" d="M37,83.9c-0.3,0.7-0.9,2-1.3,2.7c0,0-0.8-0.3-2-0.9c-0.6-0.2-1.2-0.6-2-0.8c-0.8-0.3-1.6-0.6-2.3-0.9
		c-0.4-0.1-0.8-0.3-1.1-0.4c-0.3-0.1-0.8-0.3-1.1-0.4c-0.7-0.3-1.3-0.7-1.9-0.9s-1-0.6-1.3-0.7c-0.2-0.1-0.3-0.2-0.4-0.2
		c0.6-1.3,2.1-0.4,4.1-0.4c1.2,0,2.1,0,2.7-0.1c1.7-0.3,2.1-1.6,2.7-1.6h0.3l0.1,0.1c0,0,0.1,0,0.1,0.1l0.1,0.1
		c0.1,0.1,0.2,0.3,0.3,0.4c0,0.1,0.1,0.1,0.1,0.2v0.7L33.9,81h-0.1c0,0-0.1,0-0.1,0.1h-0.1c0,0-0.1,0-0.1,0.1c-0.1,0-0.1,0-0.2,0.1
		c-0.2,0.1-0.4,0.1-0.6,0.1c0.3,0.6,0.8,1,1.4,1.3c0.4,0.2,0.9,0.3,1.3,0.3c0.7,0,1.4-0.2,2-0.8C37.5,82.5,37.3,83.2,37,83.9
		L37,83.9z M63.8,79.1c-0.4-0.8-1-1.3-1.6-1.3c0.3,1.1-0.1,2.3-1.1,3c-0.6,0.3-1.1,0.4-1.7,0.4c0-0.1,0-0.2,0.1-0.2v-0.1v-0.2v-0.1
		v-0.1v-0.1v-0.1v-0.1V80v-0.1c0,0,0-0.1-0.1-0.1h-0.1H59c-2.7,0.2-0.6,1.1-1.4,3.4c-0.1,0.3-0.4,0.8-1,1.2c-1.6,1.4-2.5,1-1.9,2.4
		c0,0,1.9,0.4,3.4-0.1c1.6-0.6,1.9-0.3,3-1.6c0.8-0.8,4.5-3,4.5-3S64.4,80.1,63.8,79.1L63.8,79.1z"/>
	<path class="st3" d="M28.4,80.8h0.8c0.4,0.7,0.7,1.3,0.7,2.1c0.8,0.3,1.7,0.4,2.4,0.1c0.6-0.2,1-0.6,1.3-1c0.1,0.1,0.3,0.2,0.6,0.3
		c-0.4,0.6-1,1-1.7,1.2c-0.4,0.1-0.9,0.2-1.2,0.2c-0.4,0-1-0.1-1.4-0.3c0,0.2-0.1,0.4-0.2,0.7h-0.1c-0.1-0.1-0.2-0.1-0.4-0.2
		C29.3,82.7,29.1,81.6,28.4,80.8L28.4,80.8z M61,80.9c-0.2,0.1-0.3,0.2-0.6,0.2c0.2,0.6,0.2,1.1,0.1,1.7c-0.1,0.7-0.4,1.2-1,1.7
		c-0.6-0.6-1.3-1-2.1-1.1c-0.1,0.1-0.2,0.3-0.3,0.6c1.2,0.1,2.3,0.9,2.8,2.2v0.1c0.2-0.1,0.3-0.2,0.6-0.3c-0.1-0.3-0.3-0.7-0.4-1
		C61.1,83.9,61.4,82.2,61,80.9L61,80.9z"/>
	<path class="st4" d="M37,83.7c0,0,0,0.1-0.1,0.1l-1.3,2.7c0,0-0.8-0.3-2-0.9c-0.1,0-0.1-0.1-0.2-0.1C34.2,84.2,35.6,83.5,37,83.7
		L37,83.7z M30.8,81.2c-0.1,0.1,0,0.3,0.1,0.4c0.1,0.1,0.3,0,0.4-0.1c0.1-0.1,0-0.3-0.1-0.4C31.1,81,30.9,81,30.8,81.2z M31.8,81
		c-0.1,0.2,0,0.4,0.2,0.4c0.2,0.1,0.4,0,0.4-0.2c0.1-0.2,0-0.4-0.2-0.4C32.1,80.8,31.9,80.8,31.8,81z M63.8,79.1L63.7,79
		c-0.9,1.1-1.1,2.8-0.2,4l2.2-1C65.3,81.5,64.3,79.9,63.8,79.1z M58.2,83c0.1,0.1,0.3,0.2,0.4,0.1s0.2-0.3,0.1-0.4
		c-0.1-0.1-0.3-0.2-0.4-0.1C58.2,82.6,58.2,82.7,58.2,83z M58.7,82c0.1,0.2,0.3,0.2,0.4,0.1c0.2-0.1,0.2-0.3,0.1-0.4
		c-0.1-0.2-0.3-0.2-0.4-0.1C58.6,81.6,58.6,81.9,58.7,82z"/>
	<path class="st5" d="M32.1,81.3c-0.1,0-0.1,0-0.1-0.1c-0.1-0.3-0.3-1-0.7-1c-0.1,0-0.1-0.1-0.2-0.1c0-0.1,0.1-0.1,0.1-0.2
		c0.7,0,0.9,1.1,0.9,1.2C32.2,81.2,32.2,81.3,32.1,81.3L32.1,81.3z M31.1,81.4c0.1,0,0.1-0.1,0.1-0.2S30.9,80,30.3,80
		c-0.1,0-0.1,0.1-0.1,0.2s0.1,0.1,0.1,0.1c0.3,0,0.6,0.7,0.6,1C30.9,81.4,31,81.5,31.1,81.4C31.1,81.5,31.1,81.4,31.1,81.4z
		 M37.4,81.8c-0.1-0.1-0.3-0.1-0.4,0c-0.8,0.7-1.8,0.8-2.7,0.3c-0.4-0.2-0.8-0.6-1-0.9c-0.2,0.1-0.4,0.1-0.6,0.1
		c0.3,0.6,0.8,1,1.4,1.3c0.4,0.2,0.9,0.3,1.3,0.3c0.7,0,1.4-0.2,2-0.8C37.5,82.1,37.5,81.9,37.4,81.8z M57.8,82
		c0.1-0.2,0.8-0.1,1.1,0c0.1,0,0.2,0,0.2-0.1c0-0.1,0-0.2-0.1-0.2c-0.1,0-1.2-0.4-1.6,0.2c0,0.1,0,0.2,0.1,0.2h0.1L57.8,82L57.8,82z
		 M57.3,83c0.1-0.2,0.8-0.1,1.1,0c0.1,0,0.2,0,0.2-0.1c0-0.1,0-0.2-0.1-0.2s-1.2-0.4-1.6,0.2c0,0.1,0,0.2,0.1,0.2h0.1
		C57.2,83,57.3,83,57.3,83L57.3,83z M62.5,77.9c0-0.1-0.2-0.2-0.3-0.2c-0.1,0-0.2,0.2-0.2,0.3c0.1,1-0.2,1.9-1.1,2.4
		c-0.4,0.2-0.9,0.4-1.3,0.4c0,0.2-0.1,0.4-0.2,0.6h0.2c0.6,0,1.1-0.2,1.7-0.6C62.2,80.3,62.8,79.1,62.5,77.9L62.5,77.9z"/>
	<path class="st6" d="M23.3,81.1c0,0,0.2,0.1,0.6,0.3s0.8,0.4,1.3,0.7c0.6,0.2,1.2,0.6,1.9,0.9c0.3,0.1,0.8,0.3,1.1,0.4
		c0.3,0.1,0.8,0.3,1.1,0.4c0.8,0.3,1.6,0.6,2.3,0.9c0.8,0.2,1.4,0.6,2,0.8c1.2,0.6,2,0.9,2,0.9l-0.6,1.1c0,0-0.8-0.3-1.9-0.9
		c-0.6-0.3-1.2-0.6-2-0.9c-0.7-0.3-1.6-0.7-2.3-1c-0.3-0.2-0.8-0.3-1.1-0.6c-0.3-0.2-0.8-0.3-1.1-0.6c-0.7-0.3-1.3-0.8-1.9-1
		c-0.6-0.3-1-0.6-1.3-0.8c-0.3-0.2-0.4-0.3-0.4-0.3L23.3,81.1L23.3,81.1z M54.7,87.4h0.6c0.3,0.1,0.9,0.1,1.6,0c0.3,0,0.7-0.1,1-0.2
		l1-0.3c0.3-0.1,0.7-0.2,1.1-0.3c0.3-0.1,0.8-0.3,1.1-0.4c0.8-0.3,1.4-0.9,2-1.3c0.6-0.4,1.1-0.8,1.7-1.1c1-0.7,1.7-1,1.7-1l-0.7-1
		L64,82.7c-0.4,0.3-1,0.8-1.7,1.2c-0.6,0.4-1.1,1-1.8,1.3c-0.3,0.2-0.7,0.3-1,0.4c-0.3,0.1-0.7,0.3-1,0.4l-1,0.3
		c-0.3,0.1-0.6,0.2-0.9,0.2c-0.6,0.1-0.9,0.1-1.3,0h-0.6L54.7,87.4L54.7,87.4z"/>
	<path class="st4" d="M55.9,64.6l-5.5-14.1L39,48.4l-3.9,9.7l-1.8,5.4c-0.1,0.6,0.1,1.1,0.7,1.2l8,2.8c0.6,0.2,1.1-0.1,1.3-0.7
		l1-3.3L46,68c0.2,0.6,0.8,0.8,1.2,0.6l8-2.9C55.9,65.7,56.1,65,55.9,64.6z"/>
	<path class="st7" d="M52,33.7c0-2.2-2.1-4.1-5.1-4.8v1.4c0,0.8-1.3,1.4-2.9,1.4c-1.6,0-2.9-0.7-2.9-1.4V29c-2.2,0.8-3,2.5-3,4.7
		l-0.7,8.9l3.1,0.4l2.4-4.3l0.4-0.8c0.3,1.1,1.1,2.1,2.2,2.7c0.4,0.2,1,0.3,1.6,0.3h0.1l-0.2,0.3l-3.3,5.6l-0.1,0.2
		c-0.6,0.9-1.6,1.2-2.4,1l-4.2-1.2l-0.6,6.6c0,1.8,2.2,3.2,7.4,3.2s9.4-1.4,9.4-3.2L52,33.7L52,33.7z"/>
	<rect x="37.7" y="52.5" transform="matrix(0.9337 -0.358 0.358 0.9337 -22.6586 18.7635)" class="st0" width="3.3" height="36.1"/>
	<path class="st8" d="M44.1,21.8c-0.2,0-0.3-0.1-0.3-0.3s0.1-0.3,0.3-0.3c0.7,0,1.2-0.6,1.2-1.2c0-0.7-0.6-1.3-1.2-1.3
		c-0.2,0-0.3-0.1-0.3-0.3s0.1-0.3,0.3-0.3c1.1,0,2,0.9,2,2C46,21.1,45,21.8,44.1,21.8L44.1,21.8z"/>
	<path class="st9" d="M37.5,15.8c0,0,0.6-0.1,1.1,0c0.1,0,0.3,0,0.4,0.1c0.1,0,0.2,0.1,0.3,0.1c0.1,0,0.2,0.1,0.2,0.2
		c0.1,0,0.1,0.1,0.1,0.1c0.1,0.1,0.1,0.2,0,0.3s-0.2,0.1-0.3,0.1h-0.1h-0.1l-0.1-0.1c-0.1,0-0.2-0.1-0.3-0.1h-0.3
		c-0.6,0-1,0.1-1,0.1c-0.2,0-0.3-0.1-0.3-0.2C37.2,16,37.3,15.9,37.5,15.8C37.4,15.8,37.5,15.8,37.5,15.8L37.5,15.8z"/>
	<path class="st5" d="M39.3,17.9c0-0.3-0.3-0.6-0.7-0.6c-0.3,0-0.7,0.2-0.7,0.6v0.9c0,0.3,0.3,0.7,0.7,0.7c0.3,0,0.7-0.3,0.7-0.7
		V17.9z"/>
	<path class="st10" d="M38.4,17.9c0-0.1-0.1-0.1-0.1-0.1c-0.1,0-0.1,0.1-0.1,0.1v0.2c0,0.1,0.1,0.1,0.1,0.1c0.1,0,0.1-0.1,0.1-0.1
		V17.9z"/>
	<path class="st11" d="M45.3,8c-3.2,0-7.8,1.2-7.9,1.3c-0.1,0.1,0.3,0.6,0.1,0.7c-0.3,0.3-0.6,0.6-0.9,1c-0.3,0.3,0.1,0.6,1.6,0.6
		c0.3,0,0,0.9,0.3,0.9c0.2,0,4.3-1.9,4.3,4.8c0,0.6,0.2,0.9,0.8,0.9c0.3,0,1.9,0.1,1.9,1.8c0,1.9,5.1,3.7,5.2,3.5
		c1.1-1.2,2.2-4.2,2.2-7.2S50.9,8,45.3,8z"/>
</g>
</svg>
