<?xml version="1.0" encoding="utf-8"?>
<!-- Generator: Adobe Illustrator 27.9.1, SVG Export Plug-In . SVG Version: 6.00 Build 0)  -->
<svg version="1.1" id="Layer_1" xmlns="http://www.w3.org/2000/svg" xmlns:xlink="http://www.w3.org/1999/xlink" x="0px" y="0px"
	 viewBox="0 0 96 96" style="enable-background:new 0 0 96 96;" xml:space="preserve">
<style type="text/css">
	.st0{fill:#FFD3B6;}
	.st1{fill:#2B3B47;}
	.st2{fill:#FFFFFF;}
	.st3{fill:#E5AB83;}
	.st4{fill:#EDC0A2;}
	.st5{fill:#76DFFF;}
	.st6{fill:#E5E5E5;}
	.st7{fill:#00B1FF;}
	.st8{fill:#68442A;}
	.st9{fill:#597B91;}
</style>
<g>
	<path class="st0" d="M54.2,24.1c-1-0.2-5.3-1.9-5.3-3.7c0-1.8-1.5-1.8-1.9-1.8c-0.5,0-0.8-0.4-0.8-0.9c0-6.8-4.3-4.9-4.6-4.9
		c-0.4,0,0-0.9-0.4-0.9c-0.1,0-0.2,0-0.3,0c-1.1,1.1-1.7,2.7-1.7,4.7l0,1.1v0c0,0.2-0.7,2.3-1.2,3.3c-0.5,1,0.2,1.3,1.2,1.3l0,1.8
		c0,0.3,0.9,0.3,1.2,0.1c0.2-0.1,0.5,0,0.7,0.2c0.1,0.2,0,0.5-0.2,0.7c-0.3,0.1-0.8,0.2-1.2,0.3c-0.2,0-0.3,0.3-0.3,0.5
		c0.6,2.1,2.4,2.9,4.8,3.2v2.5c0,0.8,1.4,1.5,3,1.5s3-0.7,3-1.5c0-0.1,0-0.2,0-0.3v-2.7C52.3,27.4,53.5,25.8,54.2,24.1L54.2,24.1z"
		/>
	<path class="st1" d="M42.3,18.3c0-0.4-0.3-0.6-0.7-0.6c-0.4,0-0.7,0.3-0.7,0.6h0v1c0,0.4,0.3,0.7,0.7,0.7s0.7-0.3,0.7-0.7
		L42.3,18.3z"/>
	<path class="st2" d="M41.5,18.3c0-0.1-0.1-0.2-0.2-0.2s-0.2,0.1-0.2,0.2v0.2c0,0.1,0.1,0.2,0.2,0.2s0.2-0.1,0.2-0.2V18.3z"/>
	<path class="st3" d="M40.5,16.1c0,0,0,0,0.1,0c0.1,0,0.2,0,0.3,0c0.1,0,0.2,0,0.4,0s0.3,0,0.4,0c0.2,0,0.3,0,0.5,0.1
		c0.1,0,0.1,0,0.2,0.1c0.1,0,0.1,0,0.2,0.1c0.1,0,0.1,0.1,0.2,0.1c0,0,0.1,0.1,0.1,0.1c0.1,0,0.1,0.1,0.1,0.1c0.1,0.1,0.1,0.2,0,0.3
		c-0.1,0.1-0.2,0.1-0.3,0l0,0c0,0,0,0-0.1,0c0,0,0,0-0.1,0s-0.1,0-0.1,0c0,0-0.1,0-0.1,0c0,0-0.1,0-0.2,0c-0.1,0-0.2,0-0.4,0
		c-0.1,0-0.3,0-0.4,0s-0.2,0-0.3,0c-0.1,0-0.2,0-0.2,0c-0.1,0-0.1,0-0.1,0h0c-0.2,0-0.4-0.1-0.4-0.3C40.1,16.3,40.3,16.2,40.5,16.1
		C40.5,16.1,40.5,16.1,40.5,16.1z"/>
	<path class="st4" d="M47.3,22.4c-0.2,0-0.4-0.2-0.4-0.4s0.2-0.4,0.4-0.4c0.7,0,1.3-0.6,1.3-1.3c0-0.7-0.6-1.3-1.3-1.3
		c-0.2,0-0.4-0.2-0.4-0.4c0-0.2,0.2-0.4,0.4-0.4c1.1,0,2,0.9,2,2S48.4,22.4,47.3,22.4L47.3,22.4z"/>
	<path class="st1" d="M27,83.3c-0.6,0-1.3-0.2-1.9-0.6c-1.1-0.8-1.5-2-1.3-3.3c0-0.2,0.2-0.3,0.4-0.2s0.3,0.2,0.2,0.4
		c-0.2,1,0.2,2,1,2.6c0.9,0.6,1.9,0.7,2.8,0.1c0.1-0.1,0.3,0,0.4,0.1c0.1,0.1,0,0.3-0.1,0.4C28.1,83.1,27.5,83.3,27,83.3z"/>
	<path class="st5" d="M28.6,82.8c-0.5,0.3-1.1,0.4-1.6,0.4c-0.6,0-1.3-0.2-1.9-0.6c-1.1-0.8-1.5-2-1.3-3.3c0-0.2,0.2-0.3,0.4-0.2
		c0.2,0,0.3,0.2,0.2,0.4c-0.1,0.5-0.1,1,0.1,1.5c0.7-0.1,1.2-0.3,0.9-1c-1.2-2.5-1.2-0.1-3.9-0.1c-0.6,0-1.5-0.1-2.7-0.4
		c-2.1-0.4-3.5-1.7-4.3-0.4c0.1,0.1,0.2,0.2,0.4,0.4c0.1,0.1,0.3,0.3,0.5,0.4c0.2,0.2,0.4,0.3,0.7,0.5c0.1,0.1,0.3,0.2,0.4,0.3
		c0.1,0.1,0.3,0.2,0.4,0.3c0.3,0.2,0.6,0.4,1,0.7l0.1,0.1l0,0l0,0l0.1,0c0.1,0.1,0.2,0.1,0.3,0.2c0.2,0.1,0.4,0.2,0.5,0.3
		c0.4,0.2,0.7,0.5,1.1,0.7c0.4,0.2,0.7,0.4,1.1,0.6c0.4,0.2,0.7,0.4,1.1,0.6c0.4,0.2,0.7,0.4,1,0.6c0.3,0.2,0.6,0.4,0.9,0.6
		c1.1,0.7,1.8,1.2,1.8,1.2c0.5-0.7,1.3-1.9,1.8-2.5C28.3,83.8,28.7,83.2,28.6,82.8C28.6,82.8,28.6,82.8,28.6,82.8L28.6,82.8z"/>
	<path class="st6" d="M14.4,79.2c0,0,0.2,0.1,0.5,0.4c0.1,0.1,0.3,0.3,0.5,0.4c0.2,0.2,0.4,0.3,0.7,0.5c0.1,0.1,0.3,0.2,0.4,0.3
		c0.1,0.1,0.3,0.2,0.4,0.3c0.3,0.2,0.6,0.4,1,0.7l0.1,0.1l0,0h0c0,0,0,0,0,0l0,0l0.1,0c0.1,0.1,0.2,0.1,0.3,0.2
		c0.2,0.1,0.4,0.2,0.5,0.3c0.4,0.2,0.7,0.5,1.1,0.7c0.4,0.2,0.7,0.4,1.1,0.6c0.4,0.2,0.7,0.4,1.1,0.6c0.4,0.2,0.7,0.4,1,0.6
		c0.3,0.2,0.6,0.4,0.9,0.6c1.1,0.7,1.8,1.2,1.8,1.2l-0.7,1c0,0-0.7-0.5-1.8-1.3c-0.3-0.2-0.6-0.4-0.9-0.6c-0.3-0.2-0.6-0.4-1-0.6
		c-0.3-0.2-0.7-0.4-1.1-0.7c-0.4-0.2-0.8-0.5-1.1-0.7s-0.7-0.5-1.1-0.8l-0.5-0.4c-0.1-0.1-0.2-0.1-0.3-0.2l-0.1-0.1l-0.1-0.1
		c-0.3-0.3-0.6-0.5-0.9-0.7c-0.2-0.1-0.3-0.2-0.4-0.3c-0.1-0.1-0.3-0.2-0.4-0.3c-0.3-0.2-0.5-0.4-0.7-0.6c-0.2-0.2-0.4-0.3-0.5-0.5
		c-0.3-0.3-0.4-0.4-0.4-0.4L14.4,79.2L14.4,79.2z"/>
	<circle class="st7" cx="22.3" cy="80.8" r="0.3"/>
	<circle class="st7" cx="23.4" cy="80.8" r="0.4"/>
	<path class="st1" d="M23.4,81c-0.1,0-0.2-0.1-0.2-0.2c0-0.3-0.1-1.1-0.4-1.1c-0.1,0-0.2-0.1-0.1-0.2c0-0.1,0.1-0.2,0.2-0.1
		c0.7,0.1,0.7,1.3,0.7,1.4C23.5,80.9,23.4,81,23.4,81L23.4,81z"/>
	<path class="st1" d="M22.3,81c-0.1,0-0.2-0.1-0.2-0.2c0-0.3-0.1-1.1-0.4-1.1c-0.1,0-0.2-0.1-0.1-0.2c0-0.1,0.1-0.2,0.2-0.1
		c0.7,0.1,0.7,1.3,0.7,1.4C22.5,80.9,22.4,80.9,22.3,81L22.3,81z"/>
	<path class="st7" d="M24,85.6c0.1,0,0.1,0.1,0.2,0.1C25.3,86.5,26,87,26,87c0.5-0.7,1.3-1.9,1.8-2.5c0,0,0.1-0.1,0.1-0.2
		C26.5,83.9,24.9,84.4,24,85.6L24,85.6z"/>
	<path class="st0" d="M46.5,40.4c-0.2-0.4-0.3-0.8-0.4-1.2c-0.3,0.3-0.7,0.7-1,1.1l-2.4,2.5l-0.8,0.8l-7.4-6.1
		c0.1-0.3,0.2-0.6,0.1-0.9l-0.1-0.7c0-0.2-0.1-0.4-0.1-0.7c0-0.2-0.1-0.4-0.1-0.7c0-0.2-0.1-0.4-0.1-0.7c-0.2-0.8-0.9-1.4-1.8-1.4
		c-0.1,0-0.1,0-0.2,0c-0.6-0.6-1.7-0.7-2.3-0.1c-0.3,0.3-0.7,0.6-1.1,0.9l-0.2,0.1c-0.6,0.6-0.7,1.6-0.1,2.2c0.4,0.5,0.9,1,1.3,1.5
		c0.1,0.1,0.2,0.2,0.3,0.4c0.1,0.1,0.2,0.2,0.3,0.4c0.2,0.2,0.5,0.5,0.7,0.7c0.1,0.1,0.2,0.1,0.3,0.2l8.9,9.9l0,0
		c0.9,0.9,2.3,1,3.2,0.1l0.3-0.3l2.4-2.5l2.4-2.5l1.2-1.3C48.5,42.4,47.2,41.7,46.5,40.4L46.5,40.4z"/>
	<path class="st0" d="M63,39l-0.3-0.2l-5.7-3l-1.3-0.7l0.4,5.3l3,1.5l-2.2,7.5l0.4,5.7c0,0.1,0,0.1,0,0.2c0,0.4-0.2,0.8-0.6,1.1
		l0.4,1.1c0.3-0.2,0.5-0.4,0.6-0.7l1.4-3.2c0.1-0.2,0.2-0.5,0.2-0.8c0-0.3-0.1-0.6-0.2-0.9l4.7-10.3C64.2,40.7,63.9,39.6,63,39
		L63,39z"/>
	<path class="st0" d="M35.3,65.3c-0.1,0.2-0.3,0.4-0.4,0.5L34,67l0,0l0,0v0l0,0l-0.1,0.1l-0.1,0.2l-0.2,0.3l-0.5,0.6
		c-0.3,0.4-0.6,0.8-0.9,1.2c-0.3,0.4-0.6,0.8-0.9,1.2c-0.3,0.4-0.6,0.8-0.9,1.2c-0.3,0.4-0.6,0.8-0.8,1.2c-0.5,0.8-1.1,1.6-1.5,2.4
		c-0.2,0.4-0.5,0.8-0.7,1.1c-0.2,0.4-0.4,0.7-0.6,1.1c-0.2,0.3-0.4,0.7-0.6,1c-0.2,0.3-0.3,0.6-0.5,0.9c-0.2,0.3-0.3,0.6-0.4,0.8
		c-0.1,0.3-0.3,0.5-0.3,0.7c-0.1,0.1-0.1,0.2-0.2,0.3c0.2,0.3,0.4,0.5,0.7,0.7c0.7,0.5,1.6,0.6,2.4,0.3c0.1-0.2,0.3-0.3,0.5-0.5
		c0.4-0.4,0.9-0.9,1.5-1.5c1.1-1.1,2.3-2.4,3.7-3.8c1.3-1.4,2.7-2.9,4.2-4.4c0.4-0.4,0.7-0.8,1.1-1.2c0.3-0.4,0.7-0.8,1-1.1
		c0.1-0.1,0.2-0.2,0.3-0.3L35.3,65.3L35.3,65.3z"/>
	<path class="st2" d="M20.5,82.7c0.6,0.4,1.4,0.6,2.1,0.6c0.8,0,1.7-0.3,2.4-0.8c-0.2-0.1-0.3-0.3-0.5-0.4c-1.1,0.8-2.7,0.8-3.8,0
		c0.1-0.8,0-1.5-0.3-2.3c-0.2,0-0.5-0.1-0.8-0.1c0.6,1,0.6,2.3,0,3.3c0.1,0.1,0.3,0.2,0.4,0.3c0,0,0.1,0.1,0.2,0.1
		C20.3,83.2,20.4,82.9,20.5,82.7L20.5,82.7z"/>
	<path class="st8" d="M48.7,8c-3.4,0-8.1,0.8-8.3,0.9s0.3,1.1,0.2,1.2c-0.3,0.3-0.6,0.6-0.9,1c-0.3,0.3,0.2,0.6,1.6,0.6
		c0.4,0-0.1,0.9,0.4,0.9c0.2,0,4.6-1.9,4.6,4.9c0,0.5,0.3,0.9,0.8,0.9c0.1-0.1,0.2-0.2,0.3-0.2c1.1,0,2,0.9,2,2c0,0.3,0,0.5-0.1,0.8
		c1,1.7,5.1,3.1,5.2,2.9c1.1-1.2,2.3-4.4,2.3-7.5C56.7,13.5,54.6,8,48.7,8z"/>
	<path class="st0" d="M73.7,72.5c0.2-0.7,0.8-0.5,1.3-0.2c0.2-0.4,0.2-0.9,0.1-1.5c-0.2-1-1-1.8-2-2c-0.1,0-0.2-0.1-0.2-0.2L61.1,70
		l-0.7-1.6c0,0,0,0,0,0l-6.1,2.2l2,4.2l0.2,0.4c0.5,1.2,1.8,1.8,3.1,1.5L73.6,73C73.6,72.9,73.6,72.7,73.7,72.5L73.7,72.5z"/>
	<path class="st5" d="M81.3,79.9c0-0.2-0.1-0.4-0.1-0.7c0-0.3-0.1-0.6-0.2-0.9c0-0.2-0.1-0.3-0.1-0.5c0-0.2-0.1-0.3-0.1-0.5
		c-0.1-0.4-0.2-0.8-0.3-1.2l0-0.2v0l0,0l0-0.1c0-0.1,0-0.2-0.1-0.3c0-0.2-0.1-0.4-0.2-0.6l-0.3-1.3c-0.1-0.4-0.3-0.8-0.4-1.2
		c-0.1-0.4-0.3-0.8-0.4-1.2c-0.1-0.4-0.3-0.8-0.3-1.2s-0.2-0.7-0.3-1c-0.3-1.3-0.6-2.1-0.6-2.1c-0.8,0.2-2.2,0.5-3,0.7
		c-0.8,0.2-1.4,0.4-1.7,0.7h0.1c1.2,0.2,2.2,1.2,2.5,2.5c0.3,1.3-0.2,2.5-1.2,3.3c0,0-0.1,0.1-0.2,0.1c-0.1,0-0.2,0-0.3-0.1
		c-0.1-0.1-0.1-0.3,0.1-0.4c0.4-0.3,0.7-0.7,0.9-1.2c-0.6-0.4-1.1-0.6-1.4,0.2c-0.8,2.7,0.8,0.9,2.9,2.7c0.5,0.4,1,1.1,1.8,2.1
		c1.3,1.7,1.5,3.6,3,3.2C81.4,80.4,81.3,80.2,81.3,79.9L81.3,79.9z"/>
	<path class="st6" d="M81.4,80.5c0,0,0-0.2-0.1-0.6c0-0.2-0.1-0.4-0.1-0.7c0-0.3-0.1-0.6-0.2-0.9c0-0.2-0.1-0.3-0.1-0.5
		c0-0.2-0.1-0.3-0.1-0.5c-0.1-0.4-0.2-0.8-0.3-1.2l0-0.2v0v0l0,0l0-0.1c0-0.1,0-0.2-0.1-0.3c0-0.2-0.1-0.4-0.2-0.6l-0.3-1.3
		c-0.1-0.4-0.3-0.8-0.4-1.2c-0.1-0.4-0.3-0.8-0.4-1.2c-0.1-0.4-0.3-0.8-0.3-1.2c-0.1-0.4-0.2-0.7-0.3-1c-0.3-1.3-0.6-2.1-0.6-2.1
		l1.2-0.3c0,0,0.2,0.9,0.5,2.1c0.1,0.3,0.1,0.7,0.2,1c0.1,0.4,0.2,0.7,0.3,1.1c0.1,0.4,0.2,0.8,0.3,1.2c0.1,0.4,0.3,0.9,0.4,1.3
		l0.3,1.3c0,0.2,0.1,0.4,0.1,0.6c0,0.1,0,0.2,0.1,0.3l0,0.2l0,0.2c0.1,0.4,0.2,0.8,0.2,1.2c0,0.2,0.1,0.4,0.1,0.6
		c0,0.2,0,0.3,0.1,0.5c0,0.3,0.1,0.6,0.1,0.9c0,0.3,0.1,0.5,0.1,0.7c0,0.4,0,0.6,0,0.6L81.4,80.5L81.4,80.5z"/>
	<circle class="st7" cx="76.6" cy="74.1" r="0.3"/>
	<circle class="st7" cx="75.8" cy="73.3" r="0.4"/>
	<path class="st1" d="M75.4,74.8c0,0-0.1,0-0.1,0c-0.5-0.5,0.3-1.4,0.4-1.5c0.1-0.1,0.2-0.1,0.2,0c0.1,0.1,0.1,0.2,0,0.2
		c-0.2,0.3-0.6,0.9-0.4,1.1C75.6,74.6,75.6,74.7,75.4,74.8C75.5,74.8,75.4,74.8,75.4,74.8L75.4,74.8z"/>
	<path class="st1" d="M76.2,75.5c0,0-0.1,0-0.1,0c-0.5-0.5,0.3-1.4,0.4-1.5c0.1-0.1,0.2-0.1,0.2,0s0.1,0.2,0,0.2
		c-0.2,0.3-0.6,0.9-0.4,1.1C76.4,75.3,76.4,75.5,76.2,75.5C76.3,75.5,76.2,75.5,76.2,75.5L76.2,75.5z"/>
	<path class="st1" d="M74.3,74.1c-0.1,0-0.2,0-0.3-0.1c-0.1-0.1-0.1-0.3,0.1-0.4c0.8-0.6,1.2-1.6,1-2.6c-0.2-1-1-1.8-2-2
		c-0.2,0-0.3-0.2-0.3-0.4c0-0.2,0.2-0.3,0.4-0.3c1.2,0.2,2.2,1.2,2.5,2.5c0.3,1.3-0.2,2.5-1.2,3.3C74.4,74.1,74.4,74.1,74.3,74.1
		L74.3,74.1z"/>
	<path class="st7" d="M78.6,69.3l-0.2-2.5c-0.6,0.1-2.5,0.5-3.5,0.8l-0.2,0C75.5,68.9,77,69.6,78.6,69.3L78.6,69.3z"/>
	<path class="st2" d="M79.9,73.7c0-0.1,0-0.1,0-0.2c-0.2,0.1-0.4,0.2-0.6,0.3c-0.5-1.6-1.8-2.7-3.4-2.8c0,0.2,0,0.4,0,0.6
		c0.5,0.1,1,0.2,1.4,0.5c0.7,0.5,1.2,1.2,1.4,2.1c-0.6,0.5-1.1,1.1-1.3,1.9c0.2,0.2,0.3,0.4,0.5,0.6c0.2-1.1,1.1-2.1,2.2-2.5
		C80,74,79.9,73.8,79.9,73.7L79.9,73.7z"/>
	<path class="st7" d="M60.9,67.1l-4.2-10.6c-1.4,1.3-5,2.2-9.3,2.2c-3.6,0-5.8-0.6-6.9-1.6l-5.8,6.2c-0.4,0.4-0.4,1.1,0,1.5l5.7,5.4
		c0.4,0.4,1.1,0.4,1.5,0l4.8-5.1c0.5-0.6,1.5-0.4,1.7,0.3l2.2,5.6c0.2,0.5,0.8,0.8,1.3,0.6l8.3-3C60.8,68.2,61.1,67.6,60.9,67.1
		L60.9,67.1z"/>
	<path class="st9" d="M57.3,55.2l-1.6-20.4c0-2.3-2.2-4.2-5.3-5V31c0,0.1,0,0.2,0,0.3c0,0.8-1.4,1.5-3,1.5s-3-0.7-3-1.5v-1.4
		c-2.3,0.8-3.1,2.7-3.1,4.9l-0.6,7.8l1.2,1l0.8-0.8l2.4-2.5c0.3-0.3,0.7-0.7,1-1.1c0.1,0.4,0.2,0.8,0.4,1.2c0.7,1.3,2.1,2.1,3.5,2.1
		l-1.2,1.3l-2.4,2.5L44,48.7l-0.3,0.3c-0.9,0.9-2.4,0.8-3.2-0.1l0,0l-0.2-0.3L39.7,55c0,0.1,0,0.2,0,0.3c0,1.9,2.3,3.4,7.8,3.4
		s9.9-1.5,9.9-3.4C57.3,55.3,57.3,55.2,57.3,55.2L57.3,55.2z"/>
</g>
</svg>
