<?xml version="1.0" encoding="utf-8"?>
<!-- Generator: Adobe Illustrator 27.9.1, SVG Export Plug-In . SVG Version: 6.00 Build 0)  -->
<svg version="1.1" id="Layer_1" xmlns="http://www.w3.org/2000/svg" xmlns:xlink="http://www.w3.org/1999/xlink" x="0px" y="0px"
	 viewBox="0 0 96 96" style="enable-background:new 0 0 96 96;" xml:space="preserve">
<style type="text/css">
	.st0{fill:#565766;}
	.st1{fill:#70BBD6;}
	.st2{fill:#F0C19C;}
	.st3{fill:#7DD2F0;}
	.st4{fill:#5A4146;}
	.st5{fill:#626375;}
	.st6{fill:#FFD782;}
	.st7{fill:#9CE5FF;}
</style>
<g>
	<path class="st0" d="M62.7,59l-15-20.7l0,0c-4.4,2.3-5.8,7.9-2.9,12l9,12.5l-2.9,11.6l9,2.3l3.5-13.7C63.8,61.5,63.5,60.1,62.7,59z
		"/>
	<polygon class="st1" points="71,32.5 62.2,23.5 57,22.4 37.5,38.6 48.2,51.9 	"/>
	<path class="st2" d="M67.6,16.2L62.4,25l0,0c0.6,3.1,2.8,5.8,6,7c3.2,1.1,6.6,0.3,9-1.8l0,0l1.3-10.1L67.6,16.2z"/>
	<path class="st3" d="M77.3,11.7L74,10.6c-3.9-1.3-8.1,0.7-9.4,4.6l0,0l17.4,6l0,0C83.3,17.3,81.2,13.1,77.3,11.7z"/>
	<g>
		<circle class="st4" cx="68.6" cy="21.9" r="1.1"/>
		<circle class="st4" cx="74.7" cy="24" r="1.1"/>
		<path class="st4" d="M71.4,28.5c-0.5,0-1-0.1-1.5-0.3c-1.1-0.4-2-1.2-2.4-2.1c-0.3-0.7,0.1-1.4,0.7-1.7c0.7-0.3,1.4,0.1,1.7,0.7
			c0,0.1,0.3,0.4,0.9,0.6c0.5,0.2,0.9,0.1,1,0.1c0.6-0.4,1.4-0.1,1.7,0.5c0.4,0.6,0.1,1.4-0.5,1.7C72.5,28.3,72,28.5,71.4,28.5z"/>
	</g>
	<path class="st1" d="M61.3,74l-9.7-2.4L50.3,77l14.2,3.6l0.2-0.9C65.3,77.2,63.8,74.6,61.3,74z"/>
	<path class="st5" d="M55.2,57.1l-15-20.7l0,0c-4.4,2.3-5.8,7.9-2.9,12l9,12.5l-2.2,8.9l3.8,3.8l4.5,1.1l3.5-13.7
		C56.2,59.6,56,58.2,55.2,57.1z"/>
	<path class="st0" d="M46.8,72.4l2.9-11.6l-9-12.5c-2.3-3.2-1.9-7.6,0.7-10.3l-1.2-1.7l0,0c-4.4,2.3-5.8,7.9-2.9,12l9,12.5l-2.2,8.9
		l8.4,5l0.2-0.8L46.8,72.4z"/>
	<path class="st3" d="M53.8,72.1l-9.7-2.4l-1.4,5.4l14.2,3.6l0.2-0.9C57.7,75.3,56.2,72.8,53.8,72.1z"/>
	<path class="st5" d="M56.4,36.2c-0.4,0-0.7-0.2-1-0.5L37.7,14.4c-0.4-0.5-0.4-1.3,0.2-1.8c0.5-0.4,1.3-0.4,1.8,0.2l17.7,21.4
		c0.4,0.5,0.4,1.3-0.2,1.8C56.9,36.1,56.6,36.2,56.4,36.2z"/>
	<g>
		<path class="st6" d="M43.9,19.9L43.9,19.9c1.6-1.3,1.8-3.7,0.5-5.3l-0.8-0.9l-5.8,4.8l0.8,0.9C40,21,42.3,21.2,43.9,19.9z"/>
		<path class="st6" d="M67,87.6L14.5,74.4c-1.7-0.4-2.7-2.1-2.3-3.8s2.1-2.7,3.8-2.3l52.5,13.2c2.5,0.6,5.1-0.5,6.4-2.7
			c0.8-1.5,2.7-2,4.2-1.2c1.5,0.8,2,2.7,1.2,4.2C77.7,86.6,72.2,88.9,67,87.6z"/>
		<circle class="st6" cx="75.9" cy="10.5" r="2.5"/>
	</g>
	<g>
		<path class="st4" d="M65.8,21.5c-0.6,1.7-1.8,2.9-3.4,3.6c-0.3-1.5-0.2-3.1,0.3-4.7l1.8-5.2l3,1L65.8,21.5z"/>
		<path class="st4" d="M77.1,25.3c-0.6,1.7-0.4,3.4,0.5,4.9c1.2-1,2.1-2.3,2.6-3.9l1.8-5.2l-3-1L77.1,25.3z"/>
	</g>
	<path class="st6" d="M82.6,19.3l-17.4-6c-1-0.3-2.1,0.2-2.4,1.2c-0.3,1,0.2,2.1,1.2,2.4l17.4,6c1,0.3,2.1-0.2,2.4-1.2
		C84.1,20.8,83.6,19.7,82.6,19.3z"/>
	<path class="st3" d="M72.8,44c-2.7-1.3-5-3-6.7-4.9c-2.9-3.4-3.6-7.5-2.3-12.3c0.6-2.3-0.7-4.6-3-5.2c-2.3-0.6-4.6,0.7-5.2,3
		c-2,7.5-0.6,14.5,4,20c2.5,3,6,5.6,10.1,7.4l0,0l3.1-3.2L72.8,44L72.8,44z"/>
	<path class="st7" d="M72.8,44L72.8,44c-2.7-1.3-5.1-3-6.7-4.9c-2.9-3.4-3.6-7.5-2.3-12.3c0.6-2.3-0.7-4.6-3-5.2
		c-1.7-0.5-3.5,0.2-4.5,1.6c0.4,0,0.7,0,1.1,0.1c2.3,0.6,3.6,3,3,5.2c-1.3,4.9-0.6,8.9,2.3,12.3c1.6,1.9,3.9,3.6,6.7,4.9l0,0
		c0.8,0.4,1.5,0.7,2.4,1L72.8,44z"/>
	<path class="st6" d="M77.1,45.6c-1.5-0.4-2.9-0.9-4.3-1.6l-3.1,8c1.6,0.7,3.4,1.3,5.2,1.8c0,0,0.1,0,0.1,0c2.3,0.6,4.6-0.8,5.2-3
		C80.7,48.5,79.3,46.2,77.1,45.6z"/>
</g>
</svg>
