<?xml version="1.0" encoding="utf-8"?>
<!-- Generator: Adobe Illustrator 27.9.1, SVG Export Plug-In . SVG Version: 6.00 Build 0)  -->
<svg version="1.1" id="Layer_1" xmlns="http://www.w3.org/2000/svg" xmlns:xlink="http://www.w3.org/1999/xlink" x="0px" y="0px"
	 viewBox="0 0 96 96" style="enable-background:new 0 0 96 96;" xml:space="preserve">
<style type="text/css">
	.st0{fill:#FFD6CF;}
	.st1{opacity:0.32;fill:#831232;enable-background:new    ;}
	.st2{fill:#998269;}
	.st3{fill:#836F5A;}
	.st4{fill:#347642;}
	.st5{opacity:0.53;}
	.st6{fill:#2B5448;}
	.st7{fill:#AA6518;}
	.st8{fill:#FFB057;}
	.st9{opacity:0.48;fill:#AA6518;enable-background:new    ;}
	.st10{fill:#C71C4B;}
	.st11{fill:#71CE93;}
	.st12{fill:#D8EDDE;}
	.st13{fill:#3F8E50;}
	.st14{fill:#2CA9BC;}
	.st15{fill:#FFC72D;}
	.st16{fill:#FFAF00;}
	.st17{fill:#FF423D;}
	.st18{fill:#F32E28;}
	.st19{fill:#E0231B;}
	.st20{fill:#FF9B00;}
	.st21{fill:none;stroke:#000000;stroke-width:2;stroke-miterlimit:10;}
</style>
<g>
	<polygon class="st0" points="40.6,38.3 41.3,33.5 37.3,33.2 36.5,37.6 	"/>
	<polygon class="st1" points="40.9,36.5 41.3,33.5 37.3,33 36.8,35.8 	"/>
	<rect x="57.8" y="32.3" class="st2" width="2.7" height="23.4"/>
	<rect x="57.8" y="51.1" class="st2" width="2.8" height="36.6"/>
	<rect x="57.8" y="49.6" class="st3" width="2.7" height="6.1"/>
	<path class="st4" d="M17.2,76.4l9.1-8.7l3.3-11.3h5L31,69.6c-0.1,0.4-0.3,0.7-0.5,1c-0.1,0.1-0.2,0.2-0.3,0.3L19.5,81.2L17.2,76.4z
		"/>
	<g class="st5">
		<polygon class="st6" points="29.6,56.4 28.3,60.7 33.4,60.7 34.6,56.4 		"/>
	</g>
	<path class="st0" d="M44.5,22.6c-0.6-0.6-1.4-1-2.2-1l-3.7-0.1c-1.8-0.1-3.2,1.3-3.3,3.1L35,31c0,0.8,0.3,1.7,0.9,2.3
		c0.6,0.6,1.4,1,2.2,1l3.7,0.1c0,0,0.1,0,0.1,0c0.8,0,1.6-0.3,2.2-0.9c0.6-0.6,1-1.4,1-2.2l0.2-6.6C45.4,24,45.1,23.2,44.5,22.6z"/>
	<path class="st7" d="M26.7,33.1l-3.2-0.8c-0.3-0.1-0.7,0.1-0.7,0.5l-1.7,9.4c-0.1,0.4,0.2,0.8,0.6,0.9l3.1,0.7L26.7,33.1z"/>
	<path class="st8" d="M29.3,50.8l-5.2-0.9c-0.7-0.1-1.2-0.8-1-1.5l3.2-18.2c0.1-0.7,0.8-1.2,1.5-1l5.2,0.9c0.7,0.1,1.2,0.8,1,1.5
		l-3.2,18.2C30.6,50.4,30,50.9,29.3,50.8z"/>
	<path class="st9" d="M32.9,30l-0.2,0l-3.1,17.8c-0.1,0.7-0.8,1.2-1.5,1l-5-0.9l-0.1,0.4c-0.1,0.7,0.3,1.4,1,1.5l5.2,0.9
		c0.7,0.1,1.4-0.3,1.5-1l3.2-18.2C34.1,30.8,33.6,30.2,32.9,30z"/>
	<g>
		<path class="st10" d="M45.1,23.5c-0.1-0.3-0.3-0.6-0.6-0.9c-0.6-0.6-1.4-1-2.2-1l-3.7-0.1c-1.8-0.1-3.2,1.3-3.3,3.1l-0.1,3.9
			C36.7,28.1,42.1,26.9,45.1,23.5z"/>
	</g>
	<path class="st11" d="M42.2,42.1c0.4-2.3-1.2-4.5-3.5-4.9l-4.4-0.8c-0.7-0.1-1.4,0.3-1.5,1l-3.3,18.9l4.2,0.7c0,0,0,0.1,0.1,0.1
		l6.9,12.3V83l5,0.6V69c0-0.2,0-0.3,0-0.5c0-0.4-0.1-0.7-0.3-1l-5.9-10.3l1.6-9.2L42.2,42.1z"/>
	<polygon class="st11" points="35.2,42 44.7,51.6 44.8,51.5 44.8,51.6 56.9,51.1 56.7,46.4 46.6,46.8 39,39.5 	"/>
	<path class="st12" d="M21.6,86.1l-7-7l2.6-2.6l5.3,6.7c0.5,0.6,0.4,1.5-0.1,2.1L21.6,86.1z"/>
	<polygon class="st0" points="56.7,46.4 63,46.1 61.2,51 56.9,51.1 	"/>
	<path class="st13" d="M45.8,68.6c0-0.4-0.1-0.7-0.3-1l-5.9-10.3l0.6-3.6L30.4,52l-0.8,4.4l4.2,0.7c0,0,0,0.1,0.1,0.1l6.9,12.3V83
		l5,1.3V69C45.8,68.9,45.8,68.7,45.8,68.6z"/>
	<circle class="st0" cx="39.1" cy="27.9" r="1.9"/>
	<path class="st12" d="M50.7,86.7h-10V83l8.5,1c0.8,0.1,1.4,0.8,1.4,1.6L50.7,86.7z"/>
</g>
<path id="primary" d="M82.1,21.9h-9.5c-0.5-1.3-1.5-2.4-2.8-2.8V9.5c0-0.9-0.7-1.5-1.5-1.5c-0.9,0-1.5,0.7-1.5,1.5V19
	c-1.3,0.5-2.4,1.5-2.8,2.8h-9.5c-0.9,0-1.5,0.7-1.5,1.5c0,0.9,0.7,1.5,1.5,1.5h9.5c0.5,1.3,1.5,2.4,2.8,2.8v9.5
	c0,0.9,0.7,1.5,1.5,1.5c0.9,0,1.5-0.7,1.5-1.5v-9.5c1.3-0.5,2.4-1.5,2.8-2.8h9.5c0.9,0,1.5-0.7,1.5-1.5C83.7,22.5,83,21.9,82.1,21.9
	z M68.3,24.9c-0.9,0-1.5-0.7-1.5-1.5c0-0.9,0.7-1.5,1.5-1.5c0.9,0,1.5,0.7,1.5,1.5C69.8,24.2,69.1,24.9,68.3,24.9z"/>
<path id="secondary" class="st14" d="M68.3,17.2c-0.3,0-0.6-0.1-0.8-0.3l-4.6-3.1c-0.7-0.5-0.8-1.5-0.2-2.2c0.5-0.6,1.3-0.7,1.9-0.4
	l3.8,2.5l3.8-2.5c0.7-0.4,1.7-0.1,2.1,0.6c0.4,0.7,0.2,1.5-0.4,1.9L69.1,17C68.9,17.1,68.6,17.2,68.3,17.2z M79.9,29.3
	c0.7-0.5,0.9-1.4,0.4-2.1l-2.5-3.8l2.5-3.8c0.5-0.7,0.4-1.6-0.2-2.2s-1.6-0.4-2.2,0.2c-0.1,0.1-0.1,0.2-0.2,0.2l-3.1,4.6
	c-0.3,0.5-0.3,1.2,0,1.7l3.1,4.6c0.3,0.4,0.8,0.7,1.3,0.7C79.4,29.6,79.7,29.5,79.9,29.3z M74.2,35c0.5-0.7,0.3-1.7-0.4-2.1
	l-4.6-3.1c-0.5-0.3-1.2-0.3-1.7,0l-4.6,3.1c-0.7,0.5-0.8,1.5-0.2,2.2c0.5,0.6,1.3,0.7,1.9,0.4l3.8-2.5l3.8,2.5
	c0.2,0.2,0.5,0.3,0.8,0.3C73.4,35.7,73.9,35.5,74.2,35L74.2,35z M58.8,28.9l3.1-4.6c0.3-0.5,0.3-1.2,0-1.7l-3.1-4.6
	c-0.5-0.7-1.5-0.8-2.2-0.2c-0.6,0.5-0.7,1.3-0.4,1.9l2.5,3.8l-2.5,3.8c-0.5,0.7-0.3,1.7,0.4,2.1c0.2,0.2,0.5,0.3,0.8,0.3
	C58,29.6,58.5,29.3,58.8,28.9L58.8,28.9z"/>
<g>
	<path class="st15" d="M38,18.4c-0.8,0.2-1.6-0.2-1.8-1c-0.2-0.8,0.2-1.6,1-1.8s1.6,0.2,1.8,1C39.1,17.4,38.7,18.2,38,18.4z"/>
	<path class="st16" d="M37.1,15.7l0.8,2.7c0.8-0.2,1.2-1,1-1.8C38.7,15.9,37.9,15.5,37.1,15.7z"/>
	<path class="st17" d="M39.3,17.3c-0.9,0-2.2,0.4-3,0.9c-1.6,1.1-2.5,3.1-1.9,5.1l0.7,2.4c0.1,0.2,0.3,0.4,0.5,0.3l8.4-2.5
		c0.2-0.1,0.4-0.3,0.3-0.5l-0.7-2.4C43,18.6,41.2,17.3,39.3,17.3z"/>
	<g>
		<path class="st18" d="M39.3,17.3c-0.5,0-1,0.1-1.6,0.3l2.1,7.2l4.2-1.2c0.2-0.1,0.4-0.3,0.3-0.5l-0.7-2.4
			C43,18.6,41.2,17.3,39.3,17.3z"/>
		<path class="st18" d="M39.9,18.2l1.8,6l-0.8,0.3l-1.8-6c-0.4-1.2-2.3-0.6-2,0.6l1.8,6L38,25.3l-1.8-6c-0.1-0.4-0.1-0.8,0-1.1
			c0.8-0.5,2.1-0.9,3-0.9C39.5,17.5,39.8,17.9,39.9,18.2z"/>
	</g>
	<path class="st19" d="M39.3,17.3c-0.5,0-1,0.1-1.6,0.3l0.1,0.3c0.5-0.1,1.1,0,1.2,0.6l1.8,6l0.8-0.3l-1.8-6
		C39.8,17.9,39.5,17.5,39.3,17.3z"/>
	<path class="st15" d="M45.7,25.7l-10.2,3c-0.2,0.1-0.5-0.1-0.5-0.3l-0.7-2.5c-0.1-0.2,0.1-0.5,0.3-0.5l10.2-3
		c0.2-0.1,0.5,0.1,0.5,0.3l0.7,2.5C46,25.4,45.9,25.7,45.7,25.7z"/>
	<g>
		<path class="st16" d="M44.7,22.4l-5.1,1.5l1,3.3l5.1-1.5c0.2-0.1,0.4-0.3,0.3-0.5l-0.7-2.5C45.1,22.4,44.9,22.3,44.7,22.4z"/>
		<path class="st16" d="M41.2,25.7l-2,0.6c-0.2,0.1-0.5-0.1-0.5-0.3c-0.1-0.2,0.1-0.5,0.3-0.5l2-0.6c0.2-0.1,0.5,0.1,0.5,0.3
			C41.5,25.4,41.4,25.6,41.2,25.7z"/>
	</g>
	<path class="st20" d="M40.9,24.8l-1,0.3l0.3,0.8l1-0.3c0.2-0.1,0.4-0.3,0.3-0.5C41.4,24.9,41.2,24.8,40.9,24.8z"/>
</g>
<polyline class="st21" points="38.4,87.8 52.4,87.8 55.8,84.3 "/>
<polyline class="st21" points="12.3,78.1 22.2,88 27,88 "/>
</svg>
