<?xml version="1.0" encoding="UTF-8"?>
<svg version="1.1" viewBox="0 0 128 128" xmlns="http://www.w3.org/2000/svg">
 <g transform="translate(0,-229.27)">
  <circle cx="64" cy="293.27" r="64" fill="#808080" stroke-width="3.7796"/>
  <path d="m70.101 245.28c-6.4108 0-11.61 5.1981-11.61 11.61s5.1992 11.608 11.61 11.608c6.4118 0 11.61-5.1959 11.61-11.608s-5.1981-11.61-11.61-11.61zm-12.145 27.441c-11.746 4.3932-20.804 11.858-20.906 24.275 0 3.179 2.5765 5.7534 5.7556 5.7534 3.1796 0 5.7567-2.5745 5.7572-5.7534 0.09543-3.1737 1.441-5.8682 3.4077-8.0207 0.06172 2.8276 0.51294 6.0018 1.4858 9.5234-0.59911 0.99744-0.84931 2.4985-0.61326 4.6933-2.0311 11.688-14.917 19.293-23.224 23.066-2.9056 1.291-4.2158 4.694-2.9251 7.5994 1.2919 2.9053 4.694 4.216 7.5993 2.9251 11.023-5.7412 25.044-15.001 29.081-27.161 9.1572 4.269 17.726 13.86 19.27 22.712 0.44877 3.1474 3.3667 5.3317 6.5142 4.8829 3.1474-0.44984 5.3347-3.3625 4.885-6.51-2.3875-14.206-12.196-24.718-24.431-30.878-3.544-1.5225-3.8245-9.7947-3.6248-12.778 10.734 6.0939 21.739 8.8152 32.63 3.471 2.8441-1.4213 3.9944-4.8804 2.5732-7.7237-1.4222-2.8432-4.8761-3.9954-7.7194-2.5732-12.801 6.3282-20.773-3.3625-27.508-7.2851-2.4093-1.6878-5.612-1.6929-8.0062-0.21921z" fill="#fff" stroke-width="5.3611"/>
  <rect x="62" y="295.27" width="64" height="60" ry="9.588" fill="#fff" stroke="#000" stroke-linecap="round" stroke-linejoin="round" stroke-width="3.9996"/>
  <path d="m88.249 323.68a9.317 9.2773 0 0 1-9.317 9.2773 9.317 9.2773 0 0 1-9.317-9.2773 9.317 9.2773 0 0 1 9.317-9.2772 9.317 9.2773 0 0 1 9.317 9.2772zm30.363-8.3e-4a9.317 9.2773 0 0 1-9.317 9.2769 9.317 9.2773 0 0 1-9.317-9.2769 9.317 9.2773 0 0 1 9.317-9.2773 9.317 9.2773 0 0 1 9.317 9.2773zm-34.501-14.289 11.776 14.238h13.458l-9.2524-14.238h-15.982m11.776 14.238 4.2058-17.588m0 0 4.0995-0.0151m-25.128 17.597 7.0107-20.783h6.7291" fill="none" stroke="#000" stroke-linecap="round" stroke-linejoin="round" stroke-width="3.0034"/>
  <g transform="matrix(3.7795 0 0 3.7795 0 -637.25)" stroke-width=".26459" aria-label="OK">
   <path d="m24.871 259.43c3.1e-5 0.79321-0.52524 1.5875-1.5875 1.5875s-1.6021-0.78094-1.5875-1.5875c0.01463-0.80657 0.50257-1.5875 1.5875-1.5875s1.5875 0.79431 1.5875 1.5875zm-0.79376 0c0.0032-0.38686-0.26102-0.79376-0.79376-0.79376s-0.79376 0.39421-0.79376 0.79376 0.2642 0.79375 0.79376 0.79375 0.79059-0.40689 0.79376-0.79375z"/>
   <path d="m28.305 261.02h-0.8677l-0.97897-1.3229-0.26459 0.26459 2e-6 1.0583-0.79376-4e-5 1e-6 -3.175h0.79376l-2e-6 1.323 1.3229-1.3229h0.87313l-1.4023 1.3758z"/>
  </g>
 </g>
</svg>
