<?xml version="1.0" encoding="UTF-8" standalone="no"?>
<svg
   xmlns:dc="http://purl.org/dc/elements/1.1/"
   xmlns:cc="http://creativecommons.org/ns#"
   xmlns:rdf="http://www.w3.org/1999/02/22-rdf-syntax-ns#"
   xmlns:svg="http://www.w3.org/2000/svg"
   xmlns="http://www.w3.org/2000/svg"
   xmlns:sodipodi="http://sodipodi.sourceforge.net/DTD/sodipodi-0.dtd"
   xmlns:inkscape="http://www.inkscape.org/namespaces/inkscape"
   id="vector"
   width="64"
   height="64"
   viewBox="0 0 128 128"
   version="1.1"
   sodipodi:docname="ic_separate_cycleway_disallowed_noped.svg"
   inkscape:version="1.0.1 (3bc2e813f5, 2020-09-07)">
  <metadata
     id="metadata13">
    <rdf:RDF>
      <cc:Work
         rdf:about="">
        <dc:format>image/svg+xml</dc:format>
        <dc:type
           rdf:resource="http://purl.org/dc/dcmitype/StillImage" />
        <dc:title></dc:title>
      </cc:Work>
    </rdf:RDF>
  </metadata>
  <defs
     id="defs11" />
  <sodipodi:namedview
     pagecolor="#ffffff"
     bordercolor="#666666"
     borderopacity="1"
     objecttolerance="10"
     gridtolerance="10"
     guidetolerance="10"
     inkscape:pageopacity="0"
     inkscape:pageshadow="2"
     inkscape:window-width="1920"
     inkscape:window-height="1017"
     id="namedview9"
     showgrid="false"
     inkscape:zoom="8.1206794"
     inkscape:cx="27.997721"
     inkscape:cy="43.206582"
     inkscape:window-x="1272"
     inkscape:window-y="-8"
     inkscape:window-maximized="1"
     inkscape:current-layer="vector"
     inkscape:document-rotation="0" />
  <path
     fill="#808080"
     d="M64,64m-64,0a64,64 0,1 1,128 0a64,64 0,1 1,-128 0"
     id="path_0" />
  <path
     fill="#fff"
     d="M71.59,66L116.41,66A9.59,9.59 0,0 1,126 75.59L126,116.41A9.59,9.59 0,0 1,116.41 126L71.59,126A9.59,9.59 0,0 1,62 116.41L62,75.59A9.59,9.59 0,0 1,71.59 66z"
     stroke-linejoin="round"
     stroke-width="4"
     stroke="#000"
     stroke-linecap="round"
     id="path_2" />
  <path
     fill="none"
     d="m 88.25,102.42088 a 9.32,9.28 0 0 1 -9.32,9.28 9.32,9.28 0 0 1 -9.32,-9.28 9.32,9.28 0 0 1 9.32,-9.279996 9.32,9.28 0 0 1 9.32,9.279996 z m 30.36,0 a 9.32,9.28 0 0 1 -9.32,9.28 9.32,9.28 0 0 1 -9.32,-9.28 9.32,9.28 0 0 1 9.32,-9.279996 9.32,9.28 0 0 1 9.32,9.279996 z M 84.11,88.130884 95.89,102.37088 h 13.46 L 100.1,88.130884 H 84.12 m 11.78,14.239996 4.21,-17.589996 m 0,0 4.1,-0.02 M 79.08,102.36088 86.09,81.580884 h 6.73"
     stroke-linejoin="round"
     stroke-width="3"
     stroke="#000000"
     stroke-linecap="round"
     id="path_3" />
  <path
     style="fill:#ff0000;stroke:#ff0000;stroke-width:4.6;stroke-linecap:butt;stroke-linejoin:miter;stroke-miterlimit:4;stroke-dasharray:none;stroke-opacity:1"
     d="M 63.603258,124.4995 124.56983,67.743311"
     id="path859"
     sodipodi:nodetypes="cc" />
</svg>
