<?xml version="1.0" encoding="UTF-8" standalone="no"?>
<svg
   xmlns:dc="http://purl.org/dc/elements/1.1/"
   xmlns:cc="http://creativecommons.org/ns#"
   xmlns:rdf="http://www.w3.org/1999/02/22-rdf-syntax-ns#"
   xmlns:svg="http://www.w3.org/2000/svg"
   xmlns="http://www.w3.org/2000/svg"
   xmlns:sodipodi="http://sodipodi.sourceforge.net/DTD/sodipodi-0.dtd"
   xmlns:inkscape="http://www.inkscape.org/namespaces/inkscape"
   id="vector"
   width="64"
   height="64"
   viewBox="0 0 128 128"
   version="1.1"
   sodipodi:docname="ic_separate_cycleway_disallowed.svg"
   inkscape:version="1.0.1 (3bc2e813f5, 2020-09-07)">
  <metadata
     id="metadata13">
    <rdf:RDF>
      <cc:Work
         rdf:about="">
        <dc:format>image/svg+xml</dc:format>
        <dc:type
           rdf:resource="http://purl.org/dc/dcmitype/StillImage" />
        <dc:title></dc:title>
      </cc:Work>
    </rdf:RDF>
  </metadata>
  <defs
     id="defs11" />
  <sodipodi:namedview
     pagecolor="#ffffff"
     bordercolor="#666666"
     borderopacity="1"
     objecttolerance="10"
     gridtolerance="10"
     guidetolerance="10"
     inkscape:pageopacity="0"
     inkscape:pageshadow="2"
     inkscape:window-width="1920"
     inkscape:window-height="1017"
     id="namedview9"
     showgrid="false"
     inkscape:zoom="8.1206794"
     inkscape:cx="17.877899"
     inkscape:cy="35.658001"
     inkscape:window-x="1272"
     inkscape:window-y="-8"
     inkscape:window-maximized="1"
     inkscape:current-layer="vector" />
  <path
     fill="#808080"
     d="M64,64m-64,0a64,64 0,1 1,128 0a64,64 0,1 1,-128 0"
     id="path_0" />
  <path
     fill="#fff"
     d="m70.1,16.01c-6.41,0 -11.61,5.2 -11.61,11.61s5.2,11.61 11.61,11.61c6.41,0 11.61,-5.2 11.61,-11.61s-5.2,-11.61 -11.61,-11.61zM57.96,43.45c-11.75,4.39 -20.8,11.86 -20.91,24.27 0,3.18 2.58,5.75 5.76,5.75 3.18,0 5.76,-2.57 5.76,-5.75 0.1,-3.17 1.44,-5.87 3.41,-8.02 0.06,2.83 0.51,6 1.49,9.52 -0.6,1 -0.85,2.5 -0.61,4.69 -2.03,11.69 -14.92,19.29 -23.22,23.07 -2.91,1.29 -4.22,4.69 -2.93,7.6 1.29,2.91 4.69,4.22 7.6,2.93 11.02,-5.74 25.04,-15 29.08,-27.16 9.16,4.27 17.73,13.86 19.27,22.71 0.45,3.15 3.37,5.33 6.51,4.88 3.15,-0.45 5.33,-3.36 4.89,-6.51 -2.39,-14.21 -12.2,-24.72 -24.43,-30.88 -3.54,-1.52 -3.82,-9.79 -3.62,-12.78 10.73,6.09 21.74,8.82 32.63,3.47 2.84,-1.42 3.99,-4.88 2.57,-7.72 -1.42,-2.84 -4.88,-4 -7.72,-2.57 -12.8,6.33 -20.77,-3.36 -27.51,-7.29 -2.41,-1.69 -5.61,-1.69 -8.01,-0.22z"
     id="path_1" />
  <path
     fill="#fff"
     d="M71.59,66L116.41,66A9.59,9.59 0,0 1,126 75.59L126,116.41A9.59,9.59 0,0 1,116.41 126L71.59,126A9.59,9.59 0,0 1,62 116.41L62,75.59A9.59,9.59 0,0 1,71.59 66z"
     stroke-linejoin="round"
     stroke-width="4"
     stroke="#000"
     stroke-linecap="round"
     id="path_2" />
  <path
     fill="none"
     d="m 88.25,102.42088 a 9.32,9.28 0 0 1 -9.32,9.28 9.32,9.28 0 0 1 -9.32,-9.28 9.32,9.28 0 0 1 9.32,-9.279996 9.32,9.28 0 0 1 9.32,9.279996 z m 30.36,0 a 9.32,9.28 0 0 1 -9.32,9.28 9.32,9.28 0 0 1 -9.32,-9.28 9.32,9.28 0 0 1 9.32,-9.279996 9.32,9.28 0 0 1 9.32,9.279996 z M 84.11,88.130884 95.89,102.37088 h 13.46 L 100.1,88.130884 H 84.12 m 11.78,14.239996 4.21,-17.589996 m 0,0 4.1,-0.02 M 79.08,102.36088 86.09,81.580884 h 6.73"
     stroke-linejoin="round"
     stroke-width="3"
     stroke="#000000"
     stroke-linecap="round"
     id="path_3" />
  <path
     style="fill:#ff0000;stroke:#ff0000;stroke-width:4.6;stroke-linecap:butt;stroke-linejoin:miter;stroke-opacity:1;stroke-miterlimit:4;stroke-dasharray:none"
     d="M 64.957824,122.77551 123.64626,68.266666"
     id="path859" />
</svg>
