<?xml version="1.0" encoding="UTF-8"?>
<svg version="1.1" viewBox="0 0 128 128" xmlns="http://www.w3.org/2000/svg">
 <g transform="matrix(3.7796 0 0 3.7796 0 -866.54)">
  <circle cx="16.933" cy="246.2" r="16.933" fill="#808080"/>
  <path d="m13.702 248.42a5.1345 5.1126 0 0 1-5.1345 5.1126 5.1345 5.1126 0 0 1-5.1345-5.1126 5.1345 5.1126 0 0 1 5.1345-5.1126 5.1345 5.1126 0 0 1 5.1345 5.1126zm16.732-4.8e-4a5.1345 5.1126 0 0 1-5.1345 5.1124 5.1345 5.1126 0 0 1-5.1345-5.1124 5.1345 5.1126 0 0 1 5.1345-5.1126 5.1345 5.1126 0 0 1 5.1345 5.1126zm-19.013-7.8743 6.4894 7.8464h7.4166l-5.0989-7.8464h-8.8072m6.4894 7.8464 2.3177-9.6925m0 0 2.2592-7e-3m-13.848 9.6967 3.8635-11.453h3.7083" fill="none" stroke="#fff" stroke-linecap="round" stroke-linejoin="round" stroke-width="1.574"/>
 </g>
</svg>
