<?xml version="1.0" encoding="UTF-8"?>
<svg version="1.1" viewBox="0 0 128 128" xmlns="http://www.w3.org/2000/svg">
 <g transform="matrix(3.7796 0 0 3.7796 0 -866.54)">
  <circle cx="16.933" cy="246.2" r="16.933" fill="#808080"/>
  <path d="m18.548 233.5c-1.6962 0-3.0718 1.3754-3.0718 3.0718s1.3756 3.0712 3.0718 3.0712c1.6965 0 3.0718-1.3748 3.0718-3.0712s-1.3753-3.0718-3.0718-3.0718zm-3.2134 7.2605c-3.1079 1.1624-5.5043 3.1374-5.5314 6.4229 0 0.84111 0.6817 1.5223 1.5229 1.5223 0.84129 0 1.5231-0.68118 1.5233-1.5223 0.02525-0.83971 0.38127-1.5526 0.90163-2.1222 0.01633 0.74814 0.13572 1.588 0.39311 2.5198-0.15852 0.26391-0.22472 0.66106-0.16226 1.2418-0.5374 3.0925-3.9469 5.1046-6.1448 6.1029-0.76878 0.34157-1.1155 1.242-0.77394 2.0107 0.34181 0.7687 1.242 1.1155 2.0107 0.77395 2.9166-1.519 6.6263-3.9692 7.6943-7.1864 2.4229 1.1295 4.6901 3.6672 5.0987 6.0092 0.11874 0.83275 0.89078 1.4107 1.7236 1.292 0.83275-0.11902 1.4115-0.88967 1.2925-1.7224-0.6317-3.7588-3.227-6.5401-6.4642-8.1699-0.93769-0.40283-1.0119-2.5915-0.95906-3.3808 2.8402 1.6124 5.7519 2.3324 8.6333 0.91837 0.75251-0.37605 1.0569-1.2913 0.68083-2.0436-0.37629-0.75227-1.2901-1.0571-2.0424-0.68084-3.3869 1.6744-5.4961-0.88966-7.2783-1.9275-0.63747-0.44657-1.4848-0.44792-2.1183-0.058z" fill="#fff" stroke-width="1.4185"/>
 </g>
</svg>
