<?xml version="1.0" encoding="UTF-8"?>
<svg width="128" height="128" version="1.1" viewBox="0 0 33.867 33.867" xmlns="http://www.w3.org/2000/svg">
 <g transform="translate(0 -229.27)">
  <ellipse cx="16.933" cy="246.2" rx="16.933" ry="16.933" fill="#808080"/>
  <path d="m11.041 243.78c-1.1958 0-2.1656 0.9696-2.1656 2.1656s0.96981 2.1652 2.1656 2.1652c1.196 0 2.1656-0.9692 2.1656-2.1652s-0.9696-2.1656-2.1656-2.1656zm-2.2654 5.1186c-2.191 0.81947-3.8805 2.2118-3.8996 4.5281 0 0.59297 0.48059 1.0732 1.0736 1.0732 0.5931 0 1.0738-0.48024 1.0739-1.0732 0.0178-0.59199 0.26879-1.0946 0.63564-1.4961 0.01152 0.52743 0.09568 1.1195 0.27714 1.7764-0.11175 0.18605-0.15842 0.46604-0.11439 0.87544-0.37886 2.1802-2.7825 3.5987-4.332 4.3025-0.54198 0.2408-0.78638 0.87558-0.54562 1.4175 0.24097 0.54194 0.87558 0.78642 1.4175 0.54563 2.0562-1.0709 4.6715-2.7982 5.4244-5.0663 1.7081 0.7963 3.3065 2.5853 3.5945 4.2364 0.08371 0.58709 0.62799 0.99453 1.2151 0.91081 0.58708-0.0839 0.99509-0.6272 0.9112-1.2143-0.44534-2.6499-2.275-4.6107-4.5572-5.7597-0.66106-0.28398-0.71339-1.827-0.67613-2.3834 2.0023 1.1367 4.055 1.6443 6.0864 0.64744 0.53051-0.26511 0.74508-0.91033 0.47998-1.4407-0.26528-0.53034-0.90954-0.74526-1.4399-0.47998-2.3877 1.1804-3.8747-0.62721-5.1311-1.3589-0.44941-0.31483-1.0468-0.31578-1.4934-0.0409z" fill="#fff"/>
  <path d="m20.267 241.33a2.8852 2.8729 0 0 1-2.8852 2.8729 2.8852 2.8729 0 0 1-2.8852-2.8729 2.8852 2.8729 0 0 1 2.8852-2.8729 2.8852 2.8729 0 0 1 2.8852 2.8729zm9.4024-2.7e-4a2.8852 2.8729 0 0 1-2.8852 2.8728 2.8852 2.8729 0 0 1-2.8852-2.8728 2.8852 2.8729 0 0 1 2.8852-2.8729 2.8852 2.8729 0 0 1 2.8852 2.8729zm-10.684-4.4248 3.6466 4.4091h4.1676l-2.8652-4.4091h-4.949m3.6466 4.4091 1.3024-5.4465m0 0 1.2695-4e-3m-7.7813 5.4491 2.171-6.4359h2.0838" fill="none" stroke="#fff" stroke-linecap="round" stroke-linejoin="round" stroke-width="1.1591"/>
 </g>
</svg>
