<?xml version="1.0" encoding="UTF-8"?>
<svg width="128" height="128" version="1.1" viewBox="0 0 33.867 33.867" xmlns="http://www.w3.org/2000/svg">
 <circle cx="16.933" cy="16.93" r="16.933" fill="#808080"/>
 <path d="m26.856 11.936c-0.73485 0-1.3309 0.59588-1.3309 1.3309 0 0.73499 0.59601 1.3306 1.3309 1.3306 0.73499 0 1.3309-0.59564 1.3309-1.3306 0-0.73499-0.59588-1.3309-1.3309-1.3309zm-1.3922 3.1456c-1.3465 0.50359-2.3848 1.3593-2.3965 2.7828 0 0.36442 0.29535 0.65953 0.65976 0.65953 0.36448 0 0.65993-0.29513 0.66-0.65953 0.01094-0.36381 0.16518-0.67267 0.39064-0.91945 0.0071 0.32413 0.0588 0.68799 0.17031 1.0917-0.06867 0.11433-0.09735 0.28641-0.0703 0.53801-0.23283 1.3398-1.71 2.2116-2.6622 2.6441-0.33308 0.14798-0.48326 0.53808-0.33532 0.87115 0.14809 0.33305 0.53808 0.48329 0.87115 0.33532 1.2637-0.65812 2.8709-1.7197 3.3336-3.1135 1.0497 0.48938 2.032 1.5888 2.209 2.6035 0.05145 0.3608 0.38592 0.6112 0.74673 0.55975 0.3608-0.05155 0.61153-0.38545 0.55999-0.74626-0.27369-1.6285-1.3981-2.8335-2.8006-3.5398-0.40626-0.17452-0.4384-1.1228-0.41552-1.4647 1.2305 0.69856 2.492 1.0105 3.7405 0.3979 0.32603-0.16292 0.4579-0.55945 0.29497-0.8854-0.16303-0.32592-0.55895-0.458-0.8849-0.29497-1.4674 0.72542-2.3812-0.38546-3.1533-0.83513-0.27619-0.19348-0.6433-0.19406-0.91778-0.02512z" fill="#fff" stroke-width=".033448"/>
 <rect x="15.875" y="4.2725e-6" width="2.1167" height="33.867" fill="#fff"/>
 <path d="m6.6028 18.13a2.1353 2.1262 0 0 1-2.1353 2.1262 2.1353 2.1262 0 0 1-2.1353-2.1262 2.1353 2.1262 0 0 1 2.1353-2.1262 2.1353 2.1262 0 0 1 2.1353 2.1262zm6.9586-2.6e-4a2.1353 2.1262 0 0 1-2.1353 2.1262 2.1353 2.1262 0 0 1-2.1353-2.1262 2.1353 2.1262 0 0 1 2.1353-2.1262 2.1353 2.1262 0 0 1 2.1353 2.1262zm-7.9068-3.2747 2.6988 3.2631h3.0844l-2.1205-3.2631h-3.6627m2.6988 3.2631 0.96386-4.0308m0 0 0.93952-2e-3m-5.7588 4.0328 1.6067-4.7631h1.5422" fill="none" stroke="#fff" stroke-linecap="round" stroke-linejoin="round" stroke-width=".85781"/>
</svg>
