<?xml version="1.0" encoding="UTF-8"?>
<svg version="1.1" viewBox="0 0 128 128" xmlns="http://www.w3.org/2000/svg">
 <defs>
  <clipPath id="clipPath12869">
   <ellipse cx="64" cy="64" rx="64" ry="64" fill="#808080" stroke-width="3.7796"/>
  </clipPath>
 </defs>
 <ellipse cx="64" cy="64" rx="64" ry="64" fill="#808080" stroke-width="3.7796"/>
 <g transform="matrix(-1,0,0,1,128,0)" clip-path="url(#clipPath12869)">
  <path d="m76 0h52v128h-52z" fill="#aaa"/>
  <path d="m76 88h16m-16-24h16m-16-48h16m-16 24h16m-16 72h16m16-24h16m-16-24h16m-16-48h16m-16 24h16m-16 72h16m-32 12h16m-16-48h16m-16-24h16m-16-48h16m-16 24h16m-16 72h16m16-100v128m-16 0v-128m-16 0v128m32-100.58h4m-4 24h4m-4 72h4m-4-24h4m-4-24h4m-4-72h4" fill="none" stroke="#999" stroke-width="4"/>
  <path d="m68 0h8v128h-8z" fill="#999"/>
  <path d="m60 0h8v128h-8z" fill="#666"/>
 </g>
 <path d="m33.493 45.119c-2.7771 0-5.0297 2.2519-5.0297 5.0297 0 2.7776 2.2524 5.0285 5.0297 5.0285 2.7776 0 5.0297-2.251 5.0297-5.0285 0-2.7776-2.2519-5.0297-5.0297-5.0297zm-5.2614 11.888c-5.0886 1.9031-9.0125 5.137-9.0568 10.517 0 1.3772 1.1162 2.4925 2.4933 2.4925 1.3774 0 2.494-1.1153 2.4942-2.4925 0.04134-1.3749 0.62424-2.5421 1.4763-3.4747 0.02684 1.2249 0.22222 2.6 0.64363 4.1257-0.25952 0.43207-0.3679 1.0824-0.26568 2.0332-0.8799 5.0633-6.4624 8.358-10.061 9.9925-1.2588 0.55924-1.8263 2.0335-1.2672 3.2922 0.55966 1.2586 2.0335 1.8264 3.2922 1.2672 4.7757-2.4871 10.85-6.499 12.598-11.766 3.967 1.8494 7.6793 6.0043 8.3482 9.839 0.19444 1.3635 1.4584 2.3098 2.822 2.1154 1.3635-0.19482 2.3111-1.4567 2.1163-2.8202-1.0343-6.1544-5.2836-10.708-10.584-13.377-1.5353-0.65954-1.6568-4.2432-1.5703-5.5353 4.6503 2.64 9.4177 3.8188 14.136 1.5037 1.2321-0.6157 1.7305-2.1142 1.1147-3.3461-0.61612-1.2317-2.1124-1.7309-3.3442-1.1147-5.5455 2.7415-8.9989-1.4567-11.917-3.1561-1.0438-0.73119-2.4311-0.73338-3.4684-0.09493z" fill="#fff" stroke-width=".1264"/>
 <path d="m92.953 68.527a8.0696 8.0352 0 0 1-8.0696 8.0352 8.0696 8.0352 0 0 1-8.0696-8.0352 8.0696 8.0352 0 0 1 8.0696-8.0352 8.0696 8.0352 0 0 1 8.0696 8.0352zm26.298-9.83e-4a8.0696 8.0352 0 0 1-8.0696 8.0352 8.0696 8.0352 0 0 1-8.0696-8.0352 8.0696 8.0352 0 0 1 8.0696-8.0352 8.0696 8.0352 0 0 1 8.0696 8.0352zm-29.881-12.376 10.199 12.332h11.656l-8.0137-12.332h-13.842m10.199 12.332 3.6426-15.233m0 0 3.5506-0.0076m-21.763 15.241 6.072-18h5.8282" fill="none" stroke="#fff" stroke-linecap="round" stroke-linejoin="round" stroke-width="3.2418"/>
</svg>
