<?xml version="1.0" encoding="UTF-8"?>
<!-- Created with Inkscape (http://www.inkscape.org/) -->
<svg width="96" height="96" version="1.1" viewBox="0 0 96 96" xml:space="preserve" xmlns="http://www.w3.org/2000/svg"><rect x="26" y="24" width="30" height="24" ry="4" fill-opacity=".2"/><path d="m70 41v4c-1.1857 0.84535-8 3.2653-8-5v-7h-3v-3l3-1v-3h4v3h4v4h-4v7c0 2.398 2.5846 1.5276 4 1z" aria-label="t"/><rect x="8" width="80" height="96" ry="8" fill="#fff"/><rect x="11" y="3" width="74" height="90" ry="6" fill="none" stroke="#000" stroke-width="2"/><g stroke-width="2" aria-label="GVWR
LIMIT"><path d="m25.972 25.859q-1.9232 0-3.3815-0.875-1.4492-0.875-2.2695-2.4518-0.8112-1.5768-0.8112-3.6732 0-2.1693 0.83854-3.7461t2.2969-2.4245q1.4583-0.84766 3.2813-0.84766 1.1667 0 2.1966 0.34636 1.03 0.33724 1.8229 0.97526 0.80208 0.62891 1.3125 1.5039 0.51042 0.875 0.63802 1.9414h-2.8438q-0.11849-0.51953-0.3737-0.9388-0.25521-0.42839-0.65625-0.72917-0.39193-0.30078-0.90234-0.45573-0.5013-0.16406-1.112-0.16406-1.1393 0-1.9688 0.55599-0.82031 0.54688-1.2669 1.5677-0.4375 1.0117-0.4375 2.4154 0 1.3945 0.44662 2.4063 0.44662 1.0117 1.276 1.5677 0.82943 0.54688 1.987 0.54688 0.94792 0 1.668-0.35547 0.72005-0.36458 1.1211-1.0117 0.41016-0.65625 0.41016-1.513l0.66536 0.05469h-3.6276v-2.1328h5.7057v1.7318q0 1.6862-0.77474 2.9714-0.76563 1.2852-2.1237 2.0143-1.3581 0.72005-3.1172 0.72005zm11.129-0.21875-4.7669-13.581h3.0534l2.1966 6.6081q0.39193 1.2305 0.8112 2.6797 0.42839 1.4401 0.92969 3.1445h-0.8112q0.48307-1.7044 0.89323-3.1445 0.41927-1.4492 0.79297-2.6797l2.1237-6.6081h3.0169l-4.6667 13.581zm12.05 0-3.6458-13.581h2.9896l1.5951 6.7448q0.19141 0.83854 0.36458 1.6771 0.17318 0.83854 0.32812 1.6771 0.16406 0.83854 0.3099 1.6862h-0.55599q0.16406-0.84766 0.33724-1.6862 0.17318-0.83854 0.35547-1.6771 0.18229-0.83854 0.38281-1.6771l1.6862-6.7448h2.862l1.668 6.7448q0.20052 0.83854 0.38281 1.6771 0.19141 0.83854 0.36458 1.6771t0.33724 1.6862h-0.57422q0.15495-0.84766 0.3099-1.6862 0.16406-0.83854 0.33724-1.6771 0.18229-0.83854 0.36458-1.6771l1.5951-6.7448h2.9987l-3.655 13.581h-3.1263l-1.9323-7.4102q-0.20052-0.8112-0.41016-1.8047-0.20052-0.99349-0.48307-2.2331h0.76563q-0.27344 1.2396-0.47396 2.2331-0.20052 0.99349-0.41927 1.8047l-1.9141 7.4102zm15.887 0v-13.581h5.4323q1.5313 0 2.6432 0.54688 1.1211 0.53776 1.7227 1.5404 0.61068 0.99349 0.61068 2.3698 0 1.3398-0.63802 2.3242-0.63802 0.98438-1.7956 1.5221-1.1484 0.52865-2.707 0.52865h-3.582v-2.2513h3.582q0.73828 0 1.276-0.26432 0.53776-0.26432 0.82943-0.73828 0.29167-0.48307 0.29167-1.1211 0-0.65625-0.29167-1.1211-0.29167-0.47396-0.82943-0.73828-0.53776-0.26432-1.2852-0.26432h-2.4518v11.247zm7.7018 0-3.1081-6.1341h2.944l3.1719 6.1341z"/><path d="m24.263 45.046v-13.581h2.8073v11.174h6.1706v2.4063zm13.198-13.581v13.581h-2.8073v-13.581zm2.0234 13.581v-13.581h4.0925l2.2422 6.3255q0.13672 0.42839 0.32812 1.0573 0.19141 0.61979 0.39193 1.3034 0.20052 0.67448 0.36458 1.2943 0.17318 0.61979 0.28255 1.03h-0.70182q0.10938-0.41016 0.27344-1.03 0.17318-0.61979 0.3737-1.2943 0.20052-0.6836 0.38281-1.3034 0.19141-0.62891 0.31901-1.0573l2.2148-6.3255h4.0925v13.581h-2.7526v-6.4531q0-0.45573 0.01823-1.0846 0.01823-0.62891 0.03646-1.3398 0.01823-0.72005 0.03646-1.4492 0.01823-0.73828 0.02734-1.3945h0.33724q-0.20964 0.72005-0.4375 1.4766-0.21875 0.75651-0.42839 1.4674t-0.40104 1.3125q-0.18229 0.59245-0.31901 1.0117l-2.2969 6.4531h-2.2786l-2.3242-6.4531q-0.13672-0.41927-0.32813-1.0117-0.19141-0.60156-0.41016-1.3125-0.20964-0.71094-0.44662-1.4674-0.22786-0.75651-0.44662-1.4766h0.40104q0.0091 0.65625 0.02734 1.3945 0.01823 0.72917 0.03646 1.4492 0.01823 0.71094 0.02734 1.3398 0.01823 0.62891 0.01823 1.0846v6.4531zm19.496-13.581v13.581h-2.8073v-13.581zm1.4219 2.4063v-2.4063h11.038v2.4063h-4.1107v11.174h-2.8073v-11.174z"/></g><rect x="20" y="56" width="56" height="28" ry="5.6" fill-opacity=".2"/></svg>
