<?xml version="1.0" encoding="UTF-8"?>
<!-- Created with Inkscape (http://www.inkscape.org/) -->
<svg width="96" height="96" version="1.1" viewBox="0 0 96 96" xml:space="preserve" xmlns="http://www.w3.org/2000/svg"><rect x="26" y="24" width="30" height="24" ry="4" fill-opacity=".2"/><path d="m70 41v4c-1.1857 0.84535-8 3.2653-8-5v-7h-3v-3l3-1v-3h4v3h4v4h-4v7c0 2.398 2.5846 1.5276 4 1z" aria-label="t"/><rect x="8" width="80" height="96" ry="8" fill="#fff"/><rect x="11" y="3" width="74" height="90" ry="6" fill="none" stroke="#000" stroke-width="2"/><g stroke-width="2" aria-label="TANDEM
AXLE
WEIGHT
LIMIT"><path d="m19.982 9.6589v-1.7187h7.8841v1.7187h-2.9362v7.9818h-2.0052v-7.9818zm6.9336 7.9818 3.4049-9.7005h2.5781l3.4049 9.7005h-2.22l-1.5234-4.72q-0.27995-0.93099-0.57943-1.9141-0.29297-0.98958-0.63802-2.2461h0.55338q-0.35807 1.2565-0.65755 2.2461-0.29297 0.98307-0.58594 1.9141l-1.5755 4.72zm2.1615-2.1159v-1.6016h5.0716v1.6016zm8.0143 2.1159v-9.7005h2.1094l3.1185 4.9609q0.14323 0.22786 0.36458 0.61198 0.22135 0.38411 0.46224 0.82682 0.2474 0.4362 0.46875 0.84635l-0.22786 0.51432q-0.01953-0.44271-0.03906-1.0156-0.01953-0.57942-0.02604-1.1133-0.0065-0.53385-0.0065-0.83333v-4.7982h1.9987v9.7005h-2.1159l-2.8255-4.4922q-0.17578-0.27995-0.44271-0.72916-0.26693-0.45573-0.59896-1.0286-0.32552-0.57943-0.67708-1.224l0.35156-0.22786q0.03906 0.71614 0.05859 1.3477 0.01953 0.625 0.02604 1.1068 0.0065 0.47526 0.0065 0.7487v4.4987zm13.092 0h-2.5065v-1.6862h2.4023q0.97656 0 1.6146-0.36458 0.63802-0.37109 0.95052-1.0742 0.3125-0.70963 0.3125-1.7318 0-1.0221-0.3125-1.7253-0.3125-0.70312-0.95052-1.0677-0.63151-0.36458-1.595-0.36458h-2.4674v-1.6862h2.5911q1.4583 0 2.526 0.59245 1.0677 0.58594 1.6471 1.6732 0.57943 1.0872 0.57943 2.5781 0 1.4909-0.57943 2.5846-0.57943 1.0872-1.6536 1.6797-1.0677 0.59245-2.5586 0.59245zm-1.4193-9.7005v9.7005h-2.0052v-9.7005zm7.3437 9.7005v-9.7005h6.9596v1.7187h-4.9544v2.2461h4.5833v1.6732h-4.5833v2.3437h4.9544v1.7187zm8.1054 0v-9.7005h2.9232l1.6016 4.5182q0.09766 0.30599 0.23437 0.75521 0.13672 0.44271 0.27995 0.93099 0.14323 0.48177 0.26042 0.92448 0.1237 0.44271 0.20182 0.73568h-0.5013q0.07813-0.29297 0.19531-0.73568 0.1237-0.44271 0.26693-0.92448 0.14323-0.48828 0.27344-0.93099 0.13672-0.44922 0.22786-0.75521l1.582-4.5182h2.9232v9.7005h-1.9661v-4.6094q0-0.32552 0.01302-0.77474t0.02604-0.95703q0.01302-0.51432 0.02604-1.0352 0.01302-0.52734 0.01953-0.99609h0.24088q-0.14974 0.51432-0.3125 1.0547-0.15625 0.54036-0.30599 1.0482-0.14974 0.50781-0.28646 0.9375-0.13021 0.42318-0.22786 0.72266l-1.6406 4.6094h-1.6276l-1.6602-4.6094q-0.09766-0.29948-0.23437-0.72266-0.13672-0.42969-0.29297-0.9375-0.14974-0.50781-0.31901-1.0482-0.16276-0.54036-0.31901-1.0547h0.28646q0.0065 0.46875 0.01953 0.99609 0.01302 0.52083 0.02604 1.0352 0.01302 0.50781 0.01953 0.95703 0.01302 0.44922 0.01302 0.77474v4.6094z"/><path d="m30.441 31.502 3.4049-9.7005h2.5781l3.4049 9.7005h-2.22l-1.5234-4.72q-0.27995-0.93099-0.57942-1.9141-0.29297-0.98958-0.63802-2.2461h0.55338q-0.35807 1.2565-0.65755 2.2461-0.29297 0.98307-0.58594 1.9141l-1.5755 4.72zm2.1615-2.1159v-1.6016h5.0716v1.6016zm7.3633 2.1159 3.9974-5.6836v1.4844l-3.6849-5.5013h2.2721l1.0742 1.6471q0.20833 0.31901 0.40364 0.64453 0.20182 0.31901 0.39713 0.63802 0.20182 0.31901 0.39062 0.63802h-0.51432q0.20182-0.31901 0.39713-0.63802 0.20182-0.31901 0.40364-0.63802 0.20833-0.32552 0.41667-0.64453l1.0937-1.6471h2.22l-3.6263 5.3971v-1.4193l3.9062 5.7226h-2.3177l-1.3607-2.0508q-0.17578-0.27344-0.35156-0.54036t-0.35156-0.53385q-0.16927-0.26693-0.34505-0.54036h0.3125q-0.17578 0.27344-0.35156 0.54036-0.16927 0.26693-0.35156 0.53385-0.17578 0.26693-0.36458 0.54036l-1.3997 2.0508zm9.9479 0v-9.7005h2.0052v7.9818h4.4075v1.7187zm7.4219 0v-9.7005h6.9596v1.7187h-4.9544v2.2461h4.5833v1.6732h-4.5833v2.3437h4.9544v1.7187z"/><path d="m23.863 45.363-2.6042-9.7005h2.1354l1.1393 4.8177q0.13672 0.59896 0.26042 1.1979 0.1237 0.59896 0.23438 1.1979 0.11719 0.59896 0.22135 1.2044h-0.39713q0.11719-0.60547 0.24088-1.2044 0.1237-0.59896 0.2539-1.1979t0.27344-1.1979l1.2044-4.8177h2.0443l1.1914 4.8177q0.14323 0.59896 0.27344 1.1979 0.13672 0.59896 0.26042 1.1979 0.1237 0.59896 0.24088 1.2044h-0.41016q0.11068-0.60547 0.22135-1.2044 0.11719-0.59896 0.24088-1.1979 0.13021-0.59896 0.26042-1.1979l1.1393-4.8177h2.1419l-2.6107 9.7005h-2.2331l-1.3802-5.293q-0.14323-0.57942-0.29297-1.2891-0.14323-0.70963-0.34505-1.595h0.54687q-0.19531 0.88541-0.33854 1.595-0.14323 0.70963-0.29948 1.2891l-1.3672 5.293zm11.348 0v-9.7005h6.9596v1.7187h-4.9544v2.2461h4.5833v1.6732h-4.5833v2.3437h4.9544v1.7187zm10.111-9.7005v9.7005h-2.0052v-9.7005zm5.7487 9.8567q-1.3737 0-2.4154-0.625-1.0352-0.625-1.6211-1.7513-0.57942-1.1263-0.57942-2.6237 0-1.5495 0.59896-2.6758 0.59896-1.1263 1.6406-1.7318t2.3437-0.60547q0.83333 0 1.569 0.2474 0.73568 0.24088 1.3021 0.69661 0.57292 0.44922 0.9375 1.0742 0.36458 0.625 0.45573 1.3867h-2.0312q-0.08464-0.37109-0.26693-0.67057-0.18229-0.30599-0.46875-0.52083-0.27995-0.21484-0.64453-0.32552-0.35807-0.11719-0.79427-0.11719-0.8138 0-1.4062 0.39713-0.58594 0.39062-0.90495 1.1198-0.3125 0.72265-0.3125 1.7253 0 0.99609 0.31901 1.7187 0.31901 0.72265 0.91146 1.1198 0.59245 0.39062 1.4193 0.39062 0.67708 0 1.1914-0.2539 0.51432-0.26042 0.80078-0.72266 0.29297-0.46875 0.29297-1.0807l0.47526 0.03906h-2.5911v-1.5234h4.0755v1.237q0 1.2044-0.55338 2.1224-0.54687 0.91797-1.5169 1.4388-0.97005 0.51432-2.2266 0.51432zm5.5078-0.15625v-9.7005h2.0052v3.8932h4.1211v-3.8932h1.9987v9.7005h-1.9987v-4.0885h-4.1211v4.0885zm9.1471-7.9818v-1.7187h7.8841v1.7187h-2.9362v7.9818h-2.0052v-7.9818z"/><path d="m30.917 59.224v-9.7005h2.0052v7.9818h4.4075v1.7187zm9.4271-9.7005v9.7005h-2.0052v-9.7005zm1.4453 9.7005v-9.7005h2.9232l1.6016 4.5182q0.09766 0.30599 0.23437 0.75521 0.13672 0.44271 0.27995 0.93099 0.14323 0.48177 0.26042 0.92448 0.1237 0.44271 0.20182 0.73568h-0.5013q0.07813-0.29297 0.19531-0.73568 0.1237-0.44271 0.26693-0.92448 0.14323-0.48828 0.27344-0.93099 0.13672-0.44922 0.22786-0.75521l1.582-4.5182h2.9232v9.7005h-1.9661v-4.6094q0-0.32552 0.01302-0.77474t0.02604-0.95703q0.01302-0.51432 0.02604-1.0352 0.01302-0.52734 0.01953-0.99609h0.24088q-0.14974 0.51432-0.3125 1.0547-0.15625 0.54036-0.30599 1.0482-0.14974 0.50781-0.28646 0.9375-0.13021 0.42318-0.22786 0.72266l-1.6406 4.6094h-1.6276l-1.6602-4.6094q-0.09766-0.29948-0.23438-0.72266-0.13672-0.42969-0.29297-0.9375-0.14974-0.50781-0.31901-1.0482-0.16276-0.54036-0.31901-1.0547h0.28646q0.0065 0.46875 0.01953 0.99609 0.01302 0.52083 0.02604 1.0352 0.01302 0.50781 0.01953 0.95703 0.01302 0.44922 0.01302 0.77474v4.6094zm13.926-9.7005v9.7005h-2.0052v-9.7005zm1.0156 1.7187v-1.7187h7.8841v1.7187h-2.9362v7.9818h-2.0052v-7.9818z"/></g><rect x="16" y="64" width="64" height="24" ry="4.8" fill-opacity=".2"/></svg>
