<?xml version="1.0" encoding="UTF-8"?>
<!-- Created with Inkscape (http://www.inkscape.org/) -->
<svg width="96" height="96" version="1.1" viewBox="0 0 96 96" xml:space="preserve" xmlns="http://www.w3.org/2000/svg"><g><circle cx="48" cy="48" r="48" fill="#fff"/><circle cx="48" cy="48" r="46" fill="#c1121c"/><circle cx="48" cy="48" r="34" fill="#fff"/></g><g transform="matrix(.66667 0 0 .66667 26.667 -675.67)" stroke-width="1.5"><path d="m22 1091.5 10 10 10-10zm-20 10v20h10v-6.9995h13.674a7 7 0 0 0 6.3257 3.999 7 7 0 0 0 6.3257-3.999h13.674v6.9995h10v-20h-10v6.9995h-13.674a7 7 0 0 0-6.3257-3.999 7 7 0 0 0-6.3257 3.999h-13.674v-6.9995z" stroke-width="1.5"/></g><rect x="26" y="24" width="30" height="24" ry="4" fill-opacity=".2"/><path d="m70 41v4c-1.1857 0.84535-8 3.2653-8-5v-7h-3v-3l3-1v-3h4v3h4v4h-4v7c0 2.398 2.5846 1.5276 4 1z" aria-label="t"/></svg>
