<?xml version="1.0" encoding="UTF-8"?>
<!-- Created with Inkscape (http://www.inkscape.org/) -->
<svg width="96" height="96" version="1.1" viewBox="0 0 96 96" xml:space="preserve" xmlns="http://www.w3.org/2000/svg"><rect x="26" y="24" width="30" height="24" ry="4" fill-opacity=".2"/><path d="m70 41v4c-1.1857 0.84535-8 3.2653-8-5v-7h-3v-3l3-1v-3h4v3h4v4h-4v7c0 2.398 2.5846 1.5276 4 1z" aria-label="t"/><rect x="8" width="80" height="96" ry="8" fill="#fff"/><rect x="11" y="3" width="74" height="90" ry="6" fill="none" stroke="#000" stroke-width="2"/><g stroke-width="2" aria-label="AXLE
WEIGHT
LIMIT"><path d="m27.02 19.641 4.0859-11.641h3.0938l4.0859 11.641h-2.6641l-1.8281-5.6641q-0.33594-1.1172-0.69531-2.2969-0.35156-1.1875-0.76562-2.6953h0.66406q-0.42969 1.5078-0.78906 2.6953-0.35156 1.1797-0.70312 2.2969l-1.8906 5.6641zm2.5938-2.5391v-1.9219h6.0859v1.9219zm8.8359 2.5391 4.7969-6.8203v1.7812l-4.4219-6.6016h2.7266l1.2891 1.9766q0.25 0.38281 0.48438 0.77344 0.24219 0.38281 0.47656 0.76562 0.24219 0.38281 0.46875 0.76562h-0.61719q0.24219-0.38281 0.47656-0.76562 0.24219-0.38281 0.48438-0.76562 0.25-0.39062 0.5-0.77344l1.3125-1.9766h2.6641l-4.3516 6.4766v-1.7031l4.6875 6.8672h-2.7812l-1.6328-2.4609q-0.21094-0.32812-0.42188-0.64844-0.21094-0.32031-0.42188-0.64062-0.20312-0.32031-0.41406-0.64844h0.375q-0.21094 0.32812-0.42188 0.64844-0.20312 0.32031-0.42188 0.64062-0.21094 0.32031-0.4375 0.64844l-1.6797 2.4609zm11.938 0v-11.641h2.4062v9.5781h5.2891v2.0625zm8.9062 0v-11.641h8.3516v2.0625h-5.9453v2.6953h5.5v2.0078h-5.5v2.8125h5.9453v2.0625z"/><path d="m19.125 36.274-3.125-11.641h2.5625l1.3672 5.7812q0.16406 0.71875 0.3125 1.4375 0.14844 0.71875 0.28125 1.4375 0.14062 0.71875 0.26562 1.4453h-0.47656q0.14062-0.72656 0.28906-1.4453 0.14844-0.71875 0.30469-1.4375t0.32812-1.4375l1.4453-5.7812h2.4531l1.4297 5.7812q0.17188 0.71875 0.32812 1.4375 0.16406 0.71875 0.3125 1.4375 0.14844 0.71875 0.28906 1.4453h-0.49219q0.13281-0.72656 0.26562-1.4453 0.14062-0.71875 0.28906-1.4375 0.15625-0.71875 0.3125-1.4375l1.3672-5.7812h2.5703l-3.1328 11.641h-2.6797l-1.6562-6.3516q-0.17188-0.69531-0.35156-1.5469-0.17188-0.85156-0.41406-1.9141h0.65625q-0.23438 1.0625-0.40625 1.9141-0.17188 0.85156-0.35938 1.5469l-1.6406 6.3516zm13.617 0v-11.641h8.3516v2.0625h-5.9453v2.6953h5.5v2.0078h-5.5v2.8125h5.9453v2.0625zm12.133-11.641v11.641h-2.4062v-11.641zm6.8984 11.828q-1.6484 0-2.8984-0.75-1.2422-0.75-1.9453-2.1016-0.69531-1.3516-0.69531-3.1484 0-1.8594 0.71875-3.2109 0.71875-1.3516 1.9688-2.0781 1.25-0.72656 2.8125-0.72656 1 0 1.8828 0.29688 0.88281 0.28906 1.5625 0.83594 0.6875 0.53906 1.125 1.2891t0.54688 1.6641h-2.4375q-0.10156-0.44531-0.32031-0.80469-0.21875-0.36719-0.5625-0.625-0.33594-0.25781-0.77344-0.39062-0.42969-0.14062-0.95312-0.14062-0.97656 0-1.6875 0.47656-0.70312 0.46875-1.0859 1.3438-0.375 0.86719-0.375 2.0703 0 1.1953 0.38281 2.0625 0.38281 0.86719 1.0938 1.3438 0.71094 0.46875 1.7031 0.46875 0.8125 0 1.4297-0.30469 0.61719-0.3125 0.96094-0.86719 0.35156-0.5625 0.35156-1.2969l0.57031 0.04687h-3.1094v-1.8281h4.8906v1.4844q0 1.4453-0.66406 2.5469-0.65625 1.1016-1.8203 1.7266-1.1641 0.61719-2.6719 0.61719zm6.6094-0.1875v-11.641h2.4062v4.6719h4.9453v-4.6719h2.3984v11.641h-2.3984v-4.9062h-4.9453v4.9062zm10.977-9.5781v-2.0625h9.4609v2.0625h-3.5234v9.5781h-2.4062v-9.5781z"/><path d="m27.59 52.908v-11.641h2.4062v9.5781h5.2891v2.0625zm11.312-11.641v11.641h-2.4062v-11.641zm1.7344 11.641v-11.641h3.5078l1.9219 5.4219q0.11719 0.36719 0.28125 0.90625 0.16406 0.53125 0.33594 1.1172 0.17188 0.57812 0.3125 1.1094 0.14844 0.53125 0.24219 0.88281h-0.60156q0.09375-0.35156 0.23438-0.88281 0.14844-0.53125 0.32031-1.1094 0.17188-0.58594 0.32812-1.1172 0.16406-0.53906 0.27344-0.90625l1.8984-5.4219h3.5078v11.641h-2.3594v-5.5312q0-0.39062 0.01563-0.92969 0.01563-0.53906 0.03125-1.1484 0.01563-0.61719 0.03125-1.2422 0.01563-0.63281 0.02344-1.1953h0.28906q-0.17969 0.61719-0.375 1.2656-0.1875 0.64844-0.36719 1.2578-0.17969 0.60938-0.34375 1.125-0.15625 0.50781-0.27344 0.86719l-1.9688 5.5312h-1.9531l-1.9922-5.5312q-0.11719-0.35938-0.28125-0.86719-0.16406-0.51562-0.35156-1.125-0.17969-0.60938-0.38281-1.2578-0.19531-0.64844-0.38281-1.2656h0.34375q0.0078 0.5625 0.02344 1.1953 0.01563 0.625 0.03125 1.2422 0.01563 0.60938 0.02344 1.1484 0.01563 0.53906 0.01563 0.92969v5.5312zm16.711-11.641v11.641h-2.4062v-11.641zm1.2188 2.0625v-2.0625h9.4609v2.0625h-3.5234v9.5781h-2.4062v-9.5781z"/></g><rect x="16" y="64" width="64" height="24" ry="4.8" fill-opacity=".2"/></svg>
