<?xml version="1.0" encoding="UTF-8"?>
<!-- Created with Inkscape (http://www.inkscape.org/) -->
<svg width="96" height="96" version="1.1" viewBox="0 0 96 96" xml:space="preserve" xmlns="http://www.w3.org/2000/svg"><circle cx="48" cy="48" r="48" fill="#ffd520"/><circle cx="48" cy="48" r="46" fill="#c1121c"/><circle cx="48" cy="48" r="34" fill="#ffd520"/><rect x="26" y="24" width="30" height="24" ry="4" fill-opacity=".2"/><path d="m70 41v4c-1.1857 0.84535-8 3.2653-8-5v-7h-3v-3l3-1v-3h4v3h4v4h-4v7c0 2.398 2.5846 1.5276 4 1z" aria-label="t"/><g transform="translate(99 -1065)"><g transform="matrix(.78219 0 0 .78219 -76.03 265.58)" stroke-width="1.2785"><path d="m21.772 1088.5h20.455l-10.228 10.228z" stroke-width="1.2785"/><g fill="none" stroke="#000"><circle cx="43.506" cy="1112.8" r="6.3923" stroke-linecap="round" stroke-linejoin="round" stroke-width="5.1138"/><circle cx="20.494" cy="1112.8" r="6.3923" stroke-linecap="round" stroke-linejoin="round" stroke-width="5.1138"/><path d="m55.012 1112.8c0-6-5.0027-11.506-11.006-11.506h-24.013c-6.0032 0-11.006 5.5061-11.006 11.506" stroke-width="2.5569"/></g></g></g></svg>
