<?xml version="1.0" encoding="UTF-8"?>
<!-- Created with Inkscape (http://www.inkscape.org/) -->
<svg width="96" height="96" version="1.1" viewBox="0 0 96 96" xml:space="preserve" xmlns="http://www.w3.org/2000/svg"><circle cx="48" cy="48" r="48" fill="#fff"/><circle cx="48" cy="48" r="46" fill="#c1121c"/><circle cx="48" cy="48" r="34" fill="#fff"/><rect x="26" y="24" width="30" height="24" ry="4" fill-opacity=".2"/><path d="m70 41v4c-1.1857 0.84535-8 3.2653-8-5v-7h-3v-3l3-1v-3h4v3h4v4h-4v7c0 2.398 2.5846 1.5276 4 1z" aria-label="t"/><path d="m23 66v-11h3v2c0.34799-2 2.4698-2 3.4806-2 1.5334 0 2.7198 1.092 3.0194 3 0.46649-1.8893 2.2066-3 3.8689-3 3.0798 0.08228 3.6143 2.3537 3.6311 5v6h-3v-6c0-0.94735-0.20263-2.3927-1.8971-2.3927-1.411 0.060744-1.8571 1.1347-2.1029 2.3927v6h-3v-6c0-0.96743-0.14302-2.3927-1.8177-2.3927-1.7948 0-2.1823 2.014-2.1823 2.3927v6zm24.464 4.9655c-3.5145 0-5.0037-1.7058-5.2896-3.6695h3.0472c0.3121 1.1349 1.5224 1.3412 2.2425 1.3412 0.93288 0 2.4141-0.33862 2.4141-2.4892v-1.7382h-0.01073c-0.44791 1.5902-1.726 1.9832-2.867 1.9832-2.9276 0-5-2.3774-5-5.8136 0-3.4127 2.0757-5.5793 5-5.5793 1.6768 0 2.2606 0.55746 2.867 1.6416h0.01073v-1.6416h3.1223v10.89c0 4.2844-3.1853 5.075-5.5364 5.075zm-0.12875-7.1566c3.5914 0 3.5731-6.5343 0-6.5343-3.4442 0-3.4297 6.5343 0 6.5343zm11.665 2.1911-4-11h3l2.5 8 2-8h3l2 8 2.5-8h3l-4 11h-3l-2-8-2 8z" stroke-width="3.8227" aria-label="mgw"/></svg>
