<?xml version="1.0" encoding="UTF-8"?>
<!-- Created with Inkscape (http://www.inkscape.org/) -->
<svg width="96" height="136" version="1.1" viewBox="0 0 96 136" xml:space="preserve" xmlns="http://www.w3.org/2000/svg"><circle cx="48" cy="48" r="48" fill="#fff"/><circle cx="48" cy="48" r="46" fill="#c1121c"/><circle cx="48" cy="48" r="34" fill="#fff"/><path d="m35.575 32v18.528h40.425v-18.528zm-12.633 5.0531c-0.51404 0.032-1.6028 1.451-1.7831 1.9344l-2.895 7.7145c-0.2206 0.58919-0.32897 1.2134-0.32897 1.8407v7.244c0 0.7252 0.25635 1.4996 0.98039 1.4788l0.92446-0.02611c0-3.2593 3.168-6.3848 7.0253-6.4382 3.8574-0.05306 7.0253 3.2051 7.0253 6.4644h20.212c0-1.7824 1.6844-4.2109 3.3687-5.0531h-23.581v-15.159zm1.6663 2.5003 5.0712 0.02628v6.7375l-7.6421 0.96059c-0.02501 0-0.04901 0.0084-0.07402 0.0084-0.36381 0-0.65796-0.29418-0.65796-0.658 0-0.07748 0.01607-0.15766 0.04277-0.23025l2.6894-6.4216c0.08981-0.24322 0.31292-0.40492 0.57077-0.42269zm2.2371 12.621c-3.2559 0-5.8953 2.6394-5.8953 5.8953s2.6394 5.8953 5.8953 5.8953 5.8953-2.6394 5.8953-5.8953-2.6394-5.8953-5.8953-5.8953zm38.206 0.0379c1.6844 0.84218 3.3687 3.2707 3.3687 5.0531h2.5266l5.0531-1.6844v-3.2783zm-3.7948 0.016c-3.2559 0-5.8953 2.6394-5.8953 5.8953 0 3.2559 2.6394 5.8953 5.8953 5.8953s5.8953-2.6394 5.8953-5.8953c0-3.2559-2.6394-5.8953-5.8953-5.8953z"/><rect x="14" y="100" width="68" height="36" ry="3.7895" fill="#fff" stroke-width="4"/><rect x="26" y="106" width="30" height="24" ry="4" fill-opacity=".2"/><path d="m70 123v4c-1.1857 0.84535-8 3.2653-8-5v-7h-3v-3l3-1v-3h4v3h4v4h-4v7c0 2.398 2.5846 1.5276 4 1z" aria-label="t"/><rect x="17" y="103" width="62" height="30" ry="1.875" fill="none" stroke="#000" stroke-width="2"/></svg>
