<?xml version="1.0" encoding="UTF-8"?>
<!-- Created with Inkscape (http://www.inkscape.org/) -->
<svg width="96" height="96" version="1.1" viewBox="0 0 96 96" xml:space="preserve" xmlns="http://www.w3.org/2000/svg"><rect x="26" y="24" width="30" height="24" ry="4" fill-opacity=".2"/><path d="m70 41v4c-1.1857 0.84535-8 3.2653-8-5v-7h-3v-3l3-1v-3h4v3h4v4h-4v7c0 2.398 2.5846 1.5276 4 1z" aria-label="t"/><rect x="8" width="80" height="96" ry="8" fill="#fff"/><rect x="11" y="3" width="74" height="90" ry="6" fill="none" stroke="#000" stroke-width="2"/><rect x="16" y="64" width="64" height="24" ry="4.8" fill-opacity=".2"/><g stroke-width="2" aria-label="TRUCK
GVWR
LIMIT"><path d="m18.763 11.624v-2.2344h10.249v2.2344h-3.817v10.376h-2.6068v-10.376zm11.57 10.376v-12.611h5.0443q1.4219 0 2.4544 0.50781 1.041 0.49935 1.5996 1.4303 0.56706 0.92252 0.56706 2.2005 0 1.2441-0.59245 2.1582t-1.6673 1.4134q-1.0664 0.49088-2.5137 0.49088h-3.3262v-2.0905h3.3262q0.68554 0 1.1849-0.24544 0.49935-0.24544 0.77018-0.68554 0.27083-0.44857 0.27083-1.041 0-0.60937-0.27083-1.041-0.27083-0.4401-0.77018-0.68555t-1.1934-0.24544h-2.2767v10.444zm7.1517 0-2.8861-5.696h2.7337l2.9453 5.696zm9.2845 0.20312q-1.5742 0-2.7422-0.57552-1.1595-0.58398-1.8027-1.6165-0.64323-1.041-0.64323-2.4036v-8.2181h2.5475v8.0065q0 0.74479 0.32161 1.3203 0.33008 0.57552 0.92252 0.9056 0.60091 0.33008 1.3965 0.33008 0.80404 0 1.3965-0.33008 0.59245-0.33008 0.92252-0.9056 0.33008-0.57552 0.33008-1.3203v-8.0065h2.5475v8.2181q0 1.3626-0.64323 2.4036-0.64323 1.0326-1.8112 1.6165-1.168 0.57552-2.7422 0.57552zm12.628 0q-1.7266 0-3.0892-0.78711-1.3542-0.79557-2.1328-2.2513-0.77018-1.4642-0.77018-3.4616 0-2.0143 0.77018-3.4785 0.77864-1.4642 2.1328-2.2513 1.3626-0.78711 3.0892-0.78711 1.1087 0 2.0566 0.33008t1.6758 0.93945q0.73633 0.60937 1.2018 1.4642 0.46549 0.85482 0.61784 1.9128h-2.6322q-0.11003-0.55859-0.36393-0.99023-0.25391-0.4401-0.6263-0.73633-0.3724-0.30469-0.85482-0.45703-0.47396-0.16081-1.041-0.16081-1.0749 0-1.8366 0.51628-0.75325 0.51628-1.1595 1.4642-0.40625 0.93945-0.40625 2.2344 0 1.2865 0.39779 2.2259 0.40625 0.93945 1.168 1.4557t1.8366 0.51628q0.56706 0 1.041-0.15234 0.47396-0.15234 0.84635-0.45703t0.6263-0.73633 0.38086-0.98177h2.6237q-0.15234 1.0495-0.61784 1.9043-0.46549 0.85482-1.2018 1.4642-0.73633 0.60937-1.6842 0.93945-0.93945 0.32161-2.0482 0.32161zm8.8782-2.8353v-3.2246q0.43164-0.52474 0.86328-1.041t0.86328-1.0326q0.4401-0.51628 0.87174-1.041l3.1146-3.6393h3.123l-5.3236 6.1445h-0.20312zm-1.8789 2.6322v-12.611h2.6068v12.611zm7.8372 0-3.7663-5.7129 1.5658-1.9805 5.2051 7.6933z"/><path d="m27.823 39.536q-1.7858 0-3.14-0.8125-1.3457-0.8125-2.1074-2.2767-0.75325-1.4642-0.75325-3.4108 0-2.0143 0.77864-3.4785 0.77864-1.4642 2.1328-2.2513t3.0469-0.78711q1.0833 0 2.0397 0.32161 0.95638 0.31315 1.6927 0.9056 0.74479 0.58398 1.2187 1.3965 0.47396 0.8125 0.59245 1.8027h-2.6406q-0.11003-0.48242-0.347-0.87174-0.23698-0.39779-0.60937-0.67708-0.36393-0.2793-0.83789-0.42318-0.46549-0.15234-1.0326-0.15234-1.0579 0-1.8281 0.51628-0.76172 0.50781-1.1764 1.4557-0.40625 0.93945-0.40625 2.2428 0 1.2949 0.41471 2.2344 0.41471 0.93945 1.1849 1.4557 0.77018 0.50781 1.845 0.50781 0.88021 0 1.5488-0.33008 0.66862-0.33854 1.041-0.93945 0.38086-0.60937 0.38086-1.4049l0.61784 0.05078h-3.3685v-1.9805h5.2982v1.6081q0 1.5658-0.7194 2.7591-0.71094 1.1934-1.972 1.8704-1.2611 0.66862-2.8945 0.66862zm10.334-0.20312-4.4264-12.611h2.8353l2.0397 6.1361q0.36393 1.1426 0.75325 2.4883 0.39778 1.3372 0.86328 2.9199h-0.75325q0.44857-1.5827 0.82942-2.9199 0.38932-1.3457 0.73633-2.4883l1.972-6.1361h2.8014l-4.3333 12.611zm11.189 0-3.3854-12.611h2.776l1.4811 6.263q0.17773 0.77864 0.33854 1.5573 0.16081 0.77864 0.30469 1.5573 0.15234 0.77864 0.28776 1.5658h-0.51628q0.15234-0.78711 0.31315-1.5658t0.33008-1.5573q0.16927-0.77864 0.35547-1.5573l1.5658-6.263h2.6575l1.5488 6.263q0.1862 0.77864 0.35547 1.5573 0.17773 0.77864 0.33854 1.5573t0.31315 1.5658h-0.5332q0.14388-0.78711 0.28776-1.5658 0.15234-0.77864 0.31315-1.5573 0.16927-0.77864 0.33854-1.5573l1.4811-6.263h2.7845l-3.3939 12.611h-2.903l-1.7943-6.8808q-0.1862-0.75325-0.38086-1.6758-0.1862-0.92252-0.44857-2.0736h0.71094q-0.25391 1.151-0.4401 2.0736-0.1862 0.92252-0.38932 1.6758l-1.7773 6.8808zm14.752 0v-12.611h5.0443q1.4219 0 2.4544 0.50781 1.041 0.49935 1.5996 1.4303 0.56706 0.92252 0.56706 2.2005 0 1.2441-0.59245 2.1582t-1.6673 1.4134q-1.0664 0.49088-2.5137 0.49088h-3.3262v-2.0905h3.3262q0.68554 0 1.1849-0.24544t0.77018-0.68555q0.27083-0.44857 0.27083-1.041 0-0.60937-0.27083-1.041-0.27083-0.4401-0.77018-0.68554t-1.1934-0.24544h-2.2767v10.444zm7.1517 0-2.8861-5.696h2.7337l2.9453 5.696z"/><path d="m26.236 56.667v-12.611h2.6068v10.376h5.7298v2.2344zm12.255-12.611v12.611h-2.6068v-12.611zm1.8789 12.611v-12.611h3.8001l2.082 5.8737q0.12695 0.39779 0.30469 0.98177 0.17773 0.57552 0.36393 1.2103 0.1862 0.6263 0.33854 1.2018 0.16081 0.57552 0.26237 0.95638h-0.65169q0.10156-0.38086 0.2539-0.95638 0.16081-0.57552 0.347-1.2018 0.1862-0.63476 0.35547-1.2103 0.17773-0.58398 0.29622-0.98177l2.0566-5.8737h3.8001v12.611h-2.556v-5.9922q0-0.42318 0.01693-1.0072t0.03385-1.2441q0.01693-0.66862 0.03385-1.3457 0.01693-0.68554 0.02539-1.2949h0.31315q-0.19466 0.66862-0.40625 1.3711-0.20312 0.70247-0.39778 1.3626-0.19466 0.66016-0.3724 1.2187-0.16927 0.55013-0.29622 0.93945l-2.1328 5.9922h-2.1159l-2.1582-5.9922q-0.12695-0.38932-0.30469-0.93945-0.17773-0.55859-0.38086-1.2187-0.19466-0.66015-0.41471-1.3626-0.21159-0.70247-0.41471-1.3711h0.3724q0.0085 0.60937 0.02539 1.2949 0.01693 0.67708 0.03385 1.3457 0.01693 0.66016 0.02539 1.2441 0.01693 0.58398 0.01693 1.0072v5.9922zm18.103-12.611v12.611h-2.6068v-12.611zm1.3203 2.2344v-2.2344h10.249v2.2344h-3.817v10.376h-2.6068v-10.376z"/></g></svg>
