<?xml version="1.0" encoding="UTF-8"?>
<!-- Created with Inkscape (http://www.inkscape.org/) -->
<svg width="96" height="96" version="1.1" viewBox="0 0 96 96" xml:space="preserve" xmlns="http://www.w3.org/2000/svg"><circle cx="48" cy="48" r="48" fill="#fff"/><circle cx="48" cy="48" r="46" fill="#c1121c"/><circle cx="48" cy="48" r="34" fill="#fff"/><rect x="26" y="48" width="30" height="24" ry="4" fill-opacity=".2"/><path d="m70 65v4c-1.1857 0.84535-8 3.2653-8-5v-7h-3v-3l3-1v-3h4v3h4v4h-4v7c0 2.398 2.5846 1.5276 4 1z" aria-label="t"/><path d="m37.655 21.537v14.31h30.451v-14.31zm-9.5159 4.1687c-0.38722 0.02409-1.2074 1.092-1.3431 1.4558l-2.1807 5.8058c-0.16617 0.44341-0.24781 0.9132-0.24781 1.3853v5.4517c0 0.54577 0.1931 1.1286 0.7385 1.1129l0.69637-0.01963c0-2.4529 2.3863-4.8051 5.292-4.8452 2.9057-0.03993 5.292 2.4121 5.292 4.865h15.225c0-1.3414 1.2688-3.1691 2.5376-3.8029h-17.763v-11.409zm1.2552 1.8817 3.82 0.01977v5.0705l-5.7566 0.72293c-0.01884 0-0.03691 0.0062-0.05577 0.0062-0.27404 0-0.49562-0.22139-0.49562-0.4952 0-0.05831 0.01211-0.11865 0.03222-0.17328l2.0259-4.8328c0.06766-0.18305 0.23572-0.30474 0.42995-0.31811zm1.6851 9.4983c-2.4526 0-4.4408 1.9864-4.4408 4.4367-1e-6 2.4503 1.9882 4.4367 4.4408 4.4367 2.4526 1e-6 4.4408-1.9864 4.4408-4.4367-1e-6 -2.4503-1.9882-4.4367-4.4408-4.4367zm28.779 0.02851c1.2688 0.63381 2.5376 2.4615 2.5376 3.8029h1.9032l3.8064-1.2676v-2.4672zm-2.8585 0.01205c-2.4526 0-4.4408 1.9864-4.4408 4.4367 1e-6 2.4503 1.9882 4.4367 4.4408 4.4367 2.4526 0 4.4408-1.9864 4.4408-4.4367 1e-6 -2.4503-1.9882-4.4367-4.4408-4.4367z"/></svg>
