<?xml version="1.0" encoding="UTF-8"?>
<svg width="100%" height="100%" version="1.1" viewBox="0 0 216 216" xmlns="http://www.w3.org/2000/svg">
 <defs>
  <radialGradient id="radialGradient6256" cx="128" cy="86" r="47" gradientTransform="matrix(1.0052 1.0052 1.0052 -1.0052 -68.961 933.76)" gradientUnits="userSpaceOnUse">
   <stop stop-color="#d0e9f2" stop-opacity="0" offset="0"/>
   <stop stop-color="#d0e9f2" stop-opacity="0" offset=".839"/>
   <stop stop-color="#d0e9f2" stop-opacity=".282" offset=".943"/>
   <stop stop-color="#d0e9f2" offset="1"/>
  </radialGradient>
  <linearGradient id="linearGradient6595" x1="126.64" x2="179.96" y1="29.815" y2="137.2" gradientTransform="translate(-28.123 880.5)" gradientUnits="userSpaceOnUse">
   <stop stop-color="#fff" offset="0"/>
   <stop stop-color="#fff" stop-opacity="0" offset="1"/>
  </linearGradient>
  <linearGradient id="linearGradient6614" x1="126.64" x2="179.96" y1="29.815" y2="137.2" gradientTransform="matrix(-.50295 .1984 .1972 -.43254 248.03 1013.9)" gradientUnits="userSpaceOnUse">
   <stop stop-color="#fff" offset="0"/>
   <stop stop-color="#fff" stop-opacity="0" offset="1"/>
  </linearGradient>
  <linearGradient id="linearGradient6241" x1="120" x2="136" y1="186.5" y2="186.5" gradientTransform="matrix(.98427 .98427 -.98427 .98427 38.869 831.29)" gradientUnits="userSpaceOnUse">
   <stop stop-color="#f9e295" offset="0"/>
   <stop stop-color="#f7dd84" offset=".125"/>
   <stop stop-color="#fff" offset=".206"/>
   <stop stop-color="#f4ce51" offset=".301"/>
   <stop stop-color="#f9e7aa" offset=".341"/>
   <stop stop-color="#efbb0e" offset="1"/>
  </linearGradient>
  <linearGradient id="linearGradient6253" x1="128" x2="130.88" y1="134.36" y2="143.36" gradientTransform="matrix(.98427 .98427 -.98427 .98427 104.82 765.34)" gradientUnits="userSpaceOnUse">
   <stop stop-color="#2d3335" offset="0"/>
   <stop stop-color="#4c464a" offset=".5"/>
   <stop stop-color="#384042" offset="1"/>
  </linearGradient>
  <linearGradient id="linearGradient6250" x1="123" x2="133" y1="150.38" y2="150.38" gradientTransform="matrix(-.98427 -.98427 -.98427 .98427 356.79 1017.3)" gradientUnits="userSpaceOnUse">
   <stop stop-color="#2d3335" offset="0"/>
   <stop stop-color="#4c464a" offset=".5"/>
   <stop stop-color="#384042" offset="1"/>
  </linearGradient>
  <linearGradient id="linearGradient6247" x1="120" x2="136" y1="186.5" y2="186.5" gradientTransform="matrix(.98427 .98427 -.98427 .98427 104.82 765.34)" gradientUnits="userSpaceOnUse">
   <stop stop-color="#f9e295" offset="0"/>
   <stop stop-color="#f7dd84" offset=".125"/>
   <stop stop-color="#fff" offset=".206"/>
   <stop stop-color="#f4ce51" offset=".301"/>
   <stop stop-color="#f9e7aa" offset=".341"/>
   <stop stop-color="#efbb0e" offset="1"/>
  </linearGradient>
  <linearGradient id="linearGradient6244" x1="123" x2="133" y1="150.38" y2="150.38" gradientTransform="matrix(-1.9685 -1.9685 -1.7421 1.7421 568.06 1058)" gradientUnits="userSpaceOnUse">
   <stop stop-color="#2d3335" offset="0"/>
   <stop stop-color="#4c464a" offset=".5"/>
   <stop stop-color="#384042" offset="1"/>
  </linearGradient>
  <linearGradient id="linearGradient6279" x1="108" x2="133" y1="167.73" y2="150.38" gradientTransform="matrix(-1.9685 -1.9685 -1.7421 1.7421 568.06 1058)" gradientUnits="userSpaceOnUse">
   <stop offset="0"/>
   <stop stop-opacity="0" offset="1"/>
  </linearGradient>
  <radialGradient id="radialGradient4660" cx="159.61" cy="72.588" r="38.417" gradientTransform="matrix(1.1979 -.18758 .12983 .82905 -70.118 15.388)" gradientUnits="userSpaceOnUse">
   <stop stop-color="#fff" offset="0"/>
   <stop stop-color="#fff" stop-opacity=".931" offset=".5"/>
   <stop stop-color="#fff" stop-opacity="0" offset="1"/>
  </radialGradient>
 </defs>
 <g transform="translate(0 -906.52)">
  <path d="m98.91 1023.2c26.092 26.093 68.397 26.093 94.49 0 26.093-26.092 26.093-68.397 0-94.49-26.093-26.092-68.398-26.092-94.49 0-26.093 26.093-26.093 68.398 0 94.49z" fill="#d0e9f2" fill-opacity=".476"/>
  <path d="m98.91 1023.2c26.092 26.093 68.397 26.093 94.49 0 26.093-26.092 26.093-68.397 0-94.49-26.093-26.092-68.398-26.093-94.49 0-26.093 26.093-26.093 68.398 0 94.49z" fill="url(#radialGradient6256)"/>
  <path d="m103.04 927.55c40.659-32.173 78.136-12.728 77.782 5.303-0.353 18.031-56.568 70.357-76.367 66.115-19.8-4.243-25.456-53.387-1.415-71.418z" fill="url(#linearGradient6595)" opacity=".604"/>
  <g transform="rotate(-8.9 5807.2 -659.02)" fill="url(#radialGradient6427)" aria-label="010110010011010110010011">
   <path transform="rotate(8.9 -16.955 -1112.3)" d="m155.39 9.1289c-0.18797 0.00976-0.38072 0.029635-0.57812 0.060547-1.5728 0.2463-2.6544 1.0483-3.2441 2.4062-0.59078 1.3516-0.69354 3.2637-0.30664 5.7344 0.3859 2.4643 1.0682 4.2525 2.0449 5.3652 0.97568 1.1063 2.2494 1.5354 3.8223 1.2891 1.5792-0.2473 2.6651-1.0468 3.2559-2.3984 0.59078-1.3516 0.69159-3.2618 0.30469-5.7324-0.38789-2.477-1.0692-4.2687-2.0449-5.375-0.85372-0.96803-1.9381-1.4179-3.2539-1.3496zm-11.768 1.8418c-0.18797 0.0098-0.38072 0.03159-0.57812 0.0625-1.5728 0.2463-2.6544 1.0483-3.2441 2.4062-0.59078 1.3516-0.69354 3.2618-0.30664 5.7324 0.3859 2.4643 1.0682 4.2525 2.0449 5.3652 0.97568 1.1063 2.2494 1.5373 3.8223 1.291 1.5792-0.2473 2.6651-1.0468 3.2558-2.3984 0.59078-1.3516 0.69159-3.2637 0.30469-5.7344-0.38789-2.477-1.0692-4.2687-2.0449-5.375-0.85372-0.96803-1.9381-1.4179-3.2539-1.3496zm11.562 0.60742c0.65588-0.10271 1.1952 0.21965 1.6191 0.96875 0.42393 0.7491 0.77461 1.9989 1.0488 3.75 0.27322 1.7448 0.32112 3.038 0.14649 3.8809-0.17464 0.84283-0.58827 1.3172-1.2441 1.4199-0.64951 0.10171-1.1874-0.22356-1.6113-0.97266-0.42393-0.7491-0.7717-1.9955-1.0449-3.7402-0.27422-1.7511-0.32503-3.0478-0.15039-3.8906 0.17463-0.84283 0.58682-1.3143 1.2363-1.416zm-22.062 1.2715-2.7226 0.42774-2.8398 1.168 0.39649 2.541 2.8184-1.1855 1.4492 9.2559-3.1504 0.49414 0.38867 2.4824 9.0449-1.416-0.38867-2.4844-3.1524 0.49414zm10.295 0.57031c0.65587-0.10271 1.1972 0.22161 1.6211 0.9707s0.77266 1.9989 1.0469 3.75c0.27323 1.7448 0.32113 3.038 0.14649 3.8809s-0.58827 1.3153-1.2441 1.418c-0.64951 0.10171-1.1874-0.22161-1.6113-0.9707s-0.7717-1.9955-1.0449-3.7402c-0.27422-1.7511-0.32503-3.0478-0.15039-3.8906s0.58682-1.3163 1.2363-1.418zm-22.062 1.2734-2.7227 0.42578-2.8398 1.1699 0.39648 2.5391 2.8184-1.1836 1.4492 9.2539-3.1504 0.49414 0.38867 2.4844 9.0449-1.418-0.38867-2.4824-3.1523 0.49414zm34.43 0.70508c-0.33112 0.05185-0.59377 0.20947-0.78711 0.47461s-0.26378 0.56681-0.21093 0.9043c0.0529 0.33749 0.21142 0.60354 0.47656 0.79688 0.26414 0.18697 0.56146 0.25302 0.89258 0.20117 0.33749-0.05285 0.60353-0.21143 0.79687-0.47656s0.26474-0.56341 0.21289-0.89453c-0.0529-0.33749-0.21338-0.60158-0.47851-0.79492-0.26514-0.19334-0.56486-0.26379-0.90235-0.21094zm-47.465 1.1016c-0.18797 0.0098-0.38073 0.02963-0.57813 0.06055-1.5728 0.2463-2.6544 1.0483-3.2441 2.4062-0.59077 1.3516-0.69353 3.2637-0.30664 5.7344 0.3859 2.4643 1.0682 4.2525 2.0449 5.3652 0.97567 1.1063 2.2494 1.5354 3.8223 1.2891 1.5792-0.2473 2.6651-1.0468 3.2559-2.3984 0.59078-1.3516 0.69158-3.2618 0.30469-5.7324-0.3879-2.477-1.0692-4.2687-2.0449-5.375-0.85372-0.96803-1.9381-1.4179-3.2539-1.3496zm35.697 0.74023c-0.33112 0.05185-0.59376 0.21143-0.7871 0.47656s-0.26379 0.56681-0.21094 0.9043c0.0528 0.33749 0.21143 0.60158 0.47656 0.79492 0.26414 0.18697 0.56146 0.25498 0.89258 0.20312 0.33749-0.05285 0.60353-0.21143 0.79687-0.47656s0.26475-0.56341 0.21289-0.89453c-0.0529-0.33749-0.21338-0.60354-0.47851-0.79688-0.26514-0.19334-0.56486-0.26379-0.90235-0.21094zm-46.197 1.1387-2.7227 0.42578-2.8398 1.1699 0.39648 2.5391 2.8184-1.1836 1.4512 9.2539-3.1523 0.49414 0.38867 2.4844 9.0449-1.418-0.38867-2.4824-3.1523 0.49414zm10.295 0.57031c0.65588-0.10271 1.1972 0.21965 1.6211 0.96875 0.42392 0.7491 0.77265 1.9989 1.0469 3.75 0.27322 1.7448 0.32112 3.038 0.14648 3.8809-0.17463 0.84283-0.58826 1.3172-1.2441 1.4199-0.6495 0.10171-1.1874-0.22356-1.6113-0.97266-0.42393-0.7491-0.77171-1.9955-1.0449-3.7402-0.27421-1.7511-0.32502-3.0478-0.15039-3.8906 0.17464-0.84283 0.58682-1.3143 1.2363-1.416zm0.59961 3.8203c-0.33112 0.05185-0.59377 0.20947-0.78711 0.47461-0.19334 0.26514-0.26379 0.56681-0.21094 0.9043 0.0529 0.33749 0.21143 0.60354 0.47657 0.79687 0.26413 0.18697 0.56145 0.25302 0.89257 0.20117 0.33749-0.05285 0.60354-0.21143 0.79688-0.47656s0.26474-0.56341 0.21289-0.89453c-0.0529-0.33749-0.21338-0.60158-0.47852-0.79492-0.26513-0.19334-0.56485-0.26379-0.90234-0.21094zm63.539 9.0039-2.7226 0.42773-2.8398 1.168 0.39844 2.541 2.8184-1.1855 1.4492 9.2559-3.1524 0.49414 0.38868 2.4824 9.0449-1.416-0.38867-2.4844-3.1524 0.49414zm-13.035 1.8066c-0.18797 0.0098-0.38073 0.02963-0.57813 0.06055-1.5728 0.2463-2.6544 1.0502-3.2441 2.4082-0.59078 1.3516-0.69158 3.2618-0.30469 5.7324 0.3859 2.4643 1.0663 4.2525 2.043 5.3652 0.97568 1.1063 2.2494 1.5373 3.8223 1.291 1.5792-0.2473 2.6651-1.0468 3.2559-2.3984 0.59078-1.3516 0.69353-3.2637 0.30664-5.7344-0.3879-2.477-1.0712-4.2687-2.0469-5.375-0.85372-0.96803-1.9381-1.4179-3.2539-1.3496zm-10.5 1.8789-2.7227 0.42578-2.8398 1.1699 0.39843 2.541 2.8184-1.1855 1.4492 9.2559-3.1523 0.49414 0.38867 2.4824 9.0449-1.416-0.38867-2.4844-3.1523 0.49414zm10.297 0.57031c0.65588-0.10271 1.1952 0.21965 1.6191 0.96875 0.42393 0.7491 0.77266 2.0008 1.0469 3.752 0.27322 1.7448 0.32307 3.038 0.14843 3.8809-0.17463 0.84283-0.59021 1.3153-1.2461 1.418-0.64951 0.10171-1.1854-0.22161-1.6094-0.9707-0.42393-0.7491-0.77366-1.9955-1.0469-3.7402-0.27422-1.7511-0.32307-3.0497-0.14844-3.8926 0.17464-0.84283 0.58683-1.3143 1.2363-1.416zm-23.332 1.2363c-0.18797 0.0098-0.38073 0.02963-0.57812 0.06055-1.5728 0.2463-2.6544 1.0502-3.2441 2.4082-0.59078 1.3516-0.69159 3.2618-0.30469 5.7324 0.3859 2.4643 1.0663 4.2525 2.043 5.3652 0.97568 1.1063 2.2514 1.5373 3.8242 1.291 1.5792-0.2473 2.6631-1.0468 3.2539-2.3984 0.59078-1.3516 0.69354-3.2637 0.30664-5.7344-0.38789-2.477-1.0712-4.2687-2.0469-5.375-0.85372-0.96803-1.9381-1.4179-3.2539-1.3496zm-10.5 1.8789-2.7227 0.42578-2.8398 1.1699 0.39844 2.541 2.8184-1.1855 1.4492 9.2559-3.1524 0.49414 0.38867 2.4824 9.0449-1.416-0.38868-2.4844-3.1504 0.49414zm10.297 0.57031c0.65587-0.10271 1.1952 0.21965 1.6191 0.96875 0.42392 0.7491 0.77265 2.0008 1.0469 3.752 0.27322 1.7448 0.32308 3.038 0.14844 3.8809s-0.59022 1.3153-1.2461 1.418c-0.64951 0.10171-1.1854-0.22161-1.6094-0.9707-0.42393-0.7491-0.77365-1.9955-1.0469-3.7402-0.27421-1.7511-0.32307-3.0497-0.14843-3.8926s0.58682-1.3143 1.2363-1.416zm24.133 0.13476c-0.33112 0.05185-0.59377 0.21143-0.78711 0.47656s-0.26379 0.56486-0.21094 0.90234c0.0529 0.33749 0.21338 0.60354 0.47852 0.79688 0.26414 0.18697 0.56145 0.25498 0.89258 0.20312 0.33748-0.05285 0.60158-0.21143 0.79492-0.47656s0.26474-0.56341 0.21289-0.89453c-0.0529-0.33749-0.21143-0.60354-0.47657-0.79688-0.26513-0.19334-0.5668-0.26379-0.90429-0.21094zm-46.197 1.1387-2.7207 0.42578-2.8418 1.168 0.39844 2.541 2.8184-1.1836 1.4492 9.2539-3.1524 0.49414 0.38868 2.4844 9.0449-1.418-0.38867-2.4824-3.1504 0.49414zm-13.035 1.8066c-0.18797 0.0098-0.38073 0.02963-0.57813 0.06055-1.5728 0.2463-2.6544 1.0483-3.2441 2.4062-0.59078 1.3516-0.69158 3.2618-0.30469 5.7324 0.3859 2.4643 1.0663 4.2545 2.043 5.3672 0.97568 1.1063 2.2514 1.5354 3.8242 1.2891 1.5792-0.2473 2.6631-1.0468 3.2539-2.3984 0.59077-1.3516 0.69353-3.2618 0.30664-5.7324-0.3879-2.477-1.0712-4.2687-2.0469-5.375-0.85372-0.96803-1.9381-1.4179-3.2539-1.3496zm35.697 0.74023c-0.33112 0.05185-0.59377 0.21143-0.78711 0.47656-0.19334 0.26514-0.26378 0.56485-0.21094 0.90234 0.0528 0.33749 0.21339 0.60354 0.47852 0.79688 0.26414 0.18697 0.56146 0.25498 0.89258 0.20312 0.33749-0.05285 0.60158-0.21143 0.79492-0.47656s0.26474-0.56341 0.21289-0.89453c-0.0529-0.33749-0.21143-0.60354-0.47656-0.79688-0.26514-0.19334-0.56681-0.26379-0.9043-0.21094zm-47.465 1.1016c-0.18797 0.0098-0.38073 0.02963-0.57812 0.06055-1.5728 0.2463-2.6544 1.0483-3.2441 2.4062-0.59078 1.3516-0.69158 3.2637-0.30469 5.7344 0.3859 2.4643 1.0663 4.2525 2.043 5.3652 0.97568 1.1063 2.2514 1.5373 3.8242 1.291 1.5792-0.2473 2.6631-1.0468 3.2539-2.3984s0.69354-3.2637 0.30664-5.7344c-0.38789-2.477-1.0692-4.2687-2.0449-5.375-0.85372-0.96803-1.9401-1.4179-3.2559-1.3496zm11.564 0.60547c0.65587-0.10271 1.1952 0.2216 1.6191 0.9707 0.42393 0.7491 0.77266 1.9989 1.0469 3.75 0.27322 1.7448 0.32307 3.038 0.14843 3.8809-0.17463 0.84283-0.59022 1.3172-1.2461 1.4199-0.64951 0.10171-1.1854-0.22356-1.6094-0.97266-0.42393-0.7491-0.77366-1.9955-1.0469-3.7402-0.27422-1.7511-0.32308-3.0478-0.14844-3.8906 0.17464-0.84283 0.58682-1.3163 1.2363-1.418zm-11.768 1.8438c0.65587-0.10271 1.1952 0.21965 1.6191 0.96875 0.42393 0.7491 0.77266 2.0008 1.0469 3.752 0.27322 1.7448 0.32308 3.038 0.14844 3.8809-0.17464 0.84283-0.59022 1.3153-1.2461 1.418-0.64951 0.10171-1.1854-0.22161-1.6094-0.9707-0.42393-0.7491-0.77366-1.9955-1.0469-3.7402-0.27422-1.7511-0.32308-3.0497-0.14844-3.8926 0.17464-0.84283 0.58682-1.3143 1.2363-1.416zm12.365 1.9785c-0.33112 0.05185-0.59377 0.20947-0.78711 0.47461-0.19334 0.26514-0.26379 0.56681-0.21094 0.9043s0.21338 0.60354 0.47852 0.79688c0.26413 0.18697 0.56145 0.25302 0.89257 0.20117 0.33749-0.05285 0.60159-0.21143 0.79493-0.47656 0.19334-0.26514 0.26474-0.56341 0.21289-0.89453-0.0529-0.33749-0.21143-0.60158-0.47657-0.79492-0.26513-0.19334-0.5668-0.26379-0.90429-0.21094zm-11.768 1.8418c-0.33112 0.05185-0.59377 0.21143-0.78711 0.47656-0.19334 0.26514-0.26379 0.56486-0.21094 0.90234 0.05285 0.33749 0.21338 0.60354 0.47852 0.79688 0.26414 0.18697 0.56146 0.25498 0.89258 0.20312 0.33749-0.05285 0.60354-0.21143 0.79688-0.47656 0.19334-0.26514 0.26279-0.56341 0.21094-0.89453-0.05285-0.33749-0.21143-0.60354-0.47656-0.79687-0.26513-0.19334-0.56681-0.26379-0.9043-0.21094zm75.309 7.1621-2.7226 0.42578-2.8418 1.1699 0.39844 2.541 2.8184-1.1855 1.4492 9.2559-3.1504 0.49414 0.38868 2.4824c4.4787 1.7298 15.274-4.9377 5.5039-3.4062zm-13.035 1.8066c-0.18797 0.0098-0.38073 0.02963-0.57813 0.06055-1.5728 0.2463-2.6544 1.0483-3.2441 2.4062-0.59078 1.3516-0.69354 3.2637-0.30664 5.7344 0.3859 2.4643 1.0682 4.2525 2.0449 5.3652 0.97568 1.1063 2.2494 1.5373 3.8223 1.291 1.5792-0.2473 2.6651-1.0468 3.2559-2.3984 0.59077-1.3516 0.69158-3.2637 0.30468-5.7344-0.38789-2.477-1.0692-4.2687-2.0449-5.375-0.85372-0.96803-1.9381-1.4179-3.2539-1.3496zm-11.768 1.8438c-0.18797 0.0098-0.38073 0.02963-0.57813 0.06055-1.5728 0.2463-2.6544 1.0483-3.2441 2.4062-0.59077 1.3516-0.69353 3.2618-0.30664 5.7324 0.3859 2.4643 1.0682 4.2545 2.0449 5.3672 0.97568 1.1063 2.2494 1.5354 3.8223 1.2891 1.5792-0.2473 2.6651-1.0468 3.2559-2.3984 0.59078-1.3516 0.69158-3.2618 0.30469-5.7324-0.3879-2.477-1.0692-4.2687-2.0449-5.375-0.85371-0.96803-1.9381-1.4179-3.2539-1.3496zm11.562 0.60547c0.65587-0.10271 1.1952 0.21965 1.6191 0.96875 0.42393 0.7491 0.77461 2.0008 1.0488 3.752 0.27322 1.7448 0.32112 3.038 0.14648 3.8809s-0.58827 1.3153-1.2441 1.418c-0.64951 0.10171-1.1874-0.22161-1.6113-0.9707-0.42392-0.7491-0.7717-1.9955-1.0449-3.7402-0.27422-1.7511-0.32503-3.0497-0.15039-3.8926s0.58682-1.3143 1.2363-1.416zm-22.062 1.2734-2.7227 0.42578-2.8398 1.168 0.39648 2.541 2.8184-1.1855 1.4492 9.2559-3.1504 0.49414 0.38867 2.4824 9.0449-1.416-0.38867-2.4824-3.1523 0.49219zm10.295 0.56836c0.65587-0.10271 1.1972 0.2216 1.6211 0.9707 0.42393 0.7491 0.77266 1.9989 1.0469 3.75 0.27322 1.7448 0.32112 3.038 0.14648 3.8809-0.17463 0.84283-0.58826 1.3153-1.2441 1.418-0.6495 0.10171-1.1874-0.22161-1.6113-0.9707-0.42392-0.7491-0.7717-1.9955-1.0449-3.7402-0.27421-1.7511-0.32502-3.0478-0.15039-3.8906 0.17464-0.84283 0.58682-1.3163 1.2363-1.418zm-23.33 1.2383c-0.18797 0.0098-0.38072 0.02963-0.57812 0.06055-1.5728 0.2463-2.6544 1.0483-3.2441 2.4062-0.59078 1.3516-0.69354 3.2618-0.30664 5.7324 0.3859 2.4643 1.0682 4.2545 2.0449 5.3672 0.97568 1.1063 2.2494 1.5354 3.8223 1.2891 1.5792-0.2473 2.6651-1.0468 3.2559-2.3984 0.59078-1.3516 0.69159-3.2618 0.30469-5.7324-0.38789-2.477-1.0692-4.2687-2.0449-5.375-0.85372-0.96803-1.9381-1.4179-3.2539-1.3496zm35.697 0.74023c-0.33112 0.05185-0.59377 0.21143-0.78711 0.47656-0.19334 0.26514-0.26379 0.56486-0.21094 0.90234 0.0529 0.33749 0.21143 0.60354 0.47656 0.79687 0.26414 0.18697 0.56146 0.25498 0.89258 0.20313 0.33749-0.05285 0.60354-0.21143 0.79688-0.47656s0.26474-0.56341 0.21289-0.89453c-0.0529-0.33749-0.21338-0.60354-0.47852-0.79688-0.26513-0.19334-0.56485-0.26379-0.90234-0.21094zm-47.465 1.1016c-0.18796 0.0098-0.38072 0.02963-0.57812 0.06055-1.5728 0.2463-2.6544 1.0483-3.2441 2.4062-0.59078 1.3516-0.69354 3.2637-0.30664 5.7344 0.3859 2.4643 1.0682 4.2525 2.0449 5.3652 0.97568 1.1063 2.2494 1.5373 3.8223 1.291 1.5792-0.2473 2.6651-1.0468 3.2558-2.3984 0.59078-1.3516 0.69159-3.2637 0.30469-5.7344-0.38789-2.477-1.0692-4.2687-2.0449-5.375-0.85372-0.96803-1.9381-1.4179-3.2539-1.3496zm11.562 0.60547c0.65588-0.10271 1.1972 0.22161 1.6211 0.9707 0.42393 0.7491 0.77266 1.9989 1.0469 3.75 0.27322 1.7448 0.32113 3.038 0.14649 3.8809s-0.58827 1.3153-1.2441 1.418c-0.64951 0.10171-1.1874-0.22161-1.6113-0.9707-0.42393-0.7491-0.7717-1.9955-1.0449-3.7402-0.27422-1.7511-0.32503-3.0478-0.15039-3.8906 0.17463-0.84283 0.58682-1.3163 1.2363-1.418zm24.135 0.13672c-0.33112 0.05185-0.59377 0.20947-0.78711 0.47461-0.19334 0.26514-0.26379 0.56681-0.21094 0.9043 0.0529 0.33749 0.21143 0.60354 0.47657 0.79687 0.26413 0.18697 0.56145 0.25302 0.89257 0.20117 0.33749-0.05285 0.60354-0.21143 0.79688-0.47656s0.26474-0.56341 0.21289-0.89453c-0.0529-0.33749-0.21338-0.60354-0.47852-0.79688-0.26513-0.19334-0.56485-0.26183-0.90234-0.20898zm-35.902 1.707c0.65587-0.10271 1.1972 0.21965 1.6211 0.96875 0.42393 0.7491 0.77266 1.9989 1.0469 3.75 0.27322 1.7448 0.32112 3.04 0.14648 3.8828s-0.58827 1.3153-1.2441 1.418c-0.64951 0.10171-1.1874-0.22161-1.6113-0.9707-0.42393-0.7491-0.7717-1.9974-1.0449-3.7422-0.27422-1.7511-0.32503-3.0478-0.15039-3.8906s0.58682-1.3143 1.2363-1.416zm12.367 1.9785c-0.33112 0.05185-0.59377 0.20947-0.78711 0.47461-0.19334 0.26514-0.26378 0.56681-0.21093 0.9043 0.0528 0.33749 0.21142 0.60354 0.47656 0.79688 0.26414 0.18697 0.56146 0.25302 0.89258 0.20117 0.33749-0.05285 0.60353-0.21143 0.79687-0.47656 0.19334-0.26514 0.26475-0.56341 0.21289-0.89453-0.0528-0.33749-0.21338-0.60354-0.47851-0.79688-0.26514-0.19334-0.56486-0.26183-0.90235-0.20898zm-11.768 1.8418c-0.33113 0.05185-0.59377 0.20947-0.78711 0.47461-0.19334 0.26514-0.26379 0.56681-0.21094 0.9043 0.0529 0.33749 0.21143 0.60354 0.47656 0.79688 0.26414 0.18697 0.56146 0.25498 0.89258 0.20312 0.33749-0.05285 0.60353-0.21143 0.79687-0.47656 0.19334-0.26514 0.26475-0.56341 0.2129-0.89453-0.0529-0.33749-0.21339-0.60354-0.47852-0.79688-0.26514-0.19334-0.56486-0.26379-0.90234-0.21094z" fill="url(#radialGradient4660)"/>
  </g>
  <path d="m191.34 1019.6c-26.794 21.983-41.808 21.007-38.075 13.138 3.734-7.87 42.326-41.655 51.448-43.748 9.12-2.093 2.275 18.041-13.373 30.61z" fill="url(#linearGradient6614)" opacity=".765"/>
  <path d="m19.887 1118-4.807 4.558c-5.007-5.315-10.24-10.707-15.08-16.133l4.49-4.073c6.83 6.534 8.873 8.53 15.397 15.648z" fill="url(#linearGradient6241)"/>
  <path d="m96.941 1025.2c-27.18-27.18-27.18-71.247 0-98.427s71.247-27.18 98.427 0 27.18 71.247 0 98.427c-27.18 27.18-71.247 27.18-98.427 0zm2.953-2.953c26.093 26.093 67.413 27.077 93.506 0.984 26.093-26.092 25.108-67.413-0.984-93.506-26.093-26.092-67.414-27.076-93.506-0.984-26.093 26.093-25.109 67.413 0.984 93.506z" fill="#2d3335"/>
  <path d="m96.941 1025.2c-27.18-27.18-27.18-71.247 0-98.427 0.166-0.166 0.325-0.33 0.492-0.493-26.685 27.218-26.522 70.921 0.492 97.936 27.015 27.014 70.718 27.177 97.935 0.492-0.163 0.167-0.326 0.326-0.492 0.492-27.18 27.18-71.247 27.18-98.427 0zm2.46-96.951c0.163-0.167 0.328-0.327 0.493-0.492 26.093-26.093 67.413-25.109 93.506 0.984 26.092 26.093 27.077 67.413 0.984 93.506-0.165 0.165-0.326 0.33-0.492 0.492 25.587-26.118 24.451-67.086-1.477-93.014-25.927-25.927-66.895-27.063-93.013-1.476z" fill="#9eaaac"/>
  <path d="m87.929 1005.8-5.752 4.091a72.425 72.425 0 0 0 12.796 17.286 72.425 72.425 0 0 0 17.286 12.796l4.09-5.752a65.286 65.286 0 0 1-16.455-11.965 65.287 65.287 0 0 1-11.965-16.456z" fill="url(#linearGradient6253)"/>
  <path d="m96.695 1025.4a22.271 22.271 0 0 1 4.122 5.721l-26.206 26.206a22.271 22.271 0 0 1-5.722-4.121 22.271 22.271 0 0 1-4.121-5.721l26.206-26.207a22.27 22.27 0 0 1 5.721 4.122z" fill="url(#linearGradient6250)"/>
  <path d="m88.144 1049.7-66.068 66.068c-3.984-2.192-5.832-3-9.29-6.459-3.458-3.458-4.267-5.306-6.459-9.29l66.068-66.068c5.064 3.748 12.117 10.398 15.749 15.749z" fill="url(#linearGradient6247)"/>
  <path d="m77.656 1044.6c3.458 3.458 7.435 6.666 8.52 11.02l-64.1 64.099c-6.517-5.155-14.555-12.79-19.686-19.686l64.1-64.1c3.491 0.224 7.659 5.16 11.117 8.618z" fill="url(#linearGradient6244)"/>
  <path d="m77.411 1044.9c3.459 3.458 7.68 6.421 8.764 10.774l-64.1 64.1c-7.876-6.908-11.797-10.624-19.685-19.686l64.1-64.1c3.491 0.224 7.414 5.453 10.872 8.912h0.05z" fill="url(#linearGradient6279)" opacity=".596"/>
 </g>
</svg>
