<?xml version="1.0" encoding="UTF-8"?>
<svg width="100%" height="100%" version="1.1" viewBox="0 0 226 222" xmlns="http://www.w3.org/2000/svg">
 <defs>
  <linearGradient id="linearGradient4806-9" x1="214.25" x2="166.5" y1="-161.36" y2="-113.72" gradientUnits="userSpaceOnUse">
   <stop stop-color="#fff" offset="0"/>
   <stop stop-color="#fff" stop-opacity="0" offset="1"/>
  </linearGradient>
  <linearGradient id="linearGradient4790-3" x1="53.25" x2="57.656" y1="-126.5" y2="-62.469" gradientUnits="userSpaceOnUse">
   <stop stop-color="#fff" offset="0"/>
   <stop stop-color="#fff" stop-opacity="0" offset="1"/>
  </linearGradient>
  <linearGradient id="linearGradient4758-2" x1="39.5" x2="75.719" y1="6.625" y2="-17.125" gradientUnits="userSpaceOnUse">
   <stop stop-color="#fff" offset="0"/>
   <stop stop-color="#fff" stop-opacity="0" offset="1"/>
  </linearGradient>
  <linearGradient id="linearGradient4750-9" x1="102" x2="85.313" y1="-162.34" y2="-121.44" gradientUnits="userSpaceOnUse">
   <stop stop-color="#fff" offset="0"/>
   <stop stop-color="#fff" stop-opacity="0" offset="1"/>
  </linearGradient>
  <linearGradient id="linearGradient4782-5" x1="117.75" x2="63.5" y1="-78.094" y2="-14.75" gradientUnits="userSpaceOnUse">
   <stop stop-color="#fff" offset="0"/>
   <stop stop-color="#fff" stop-opacity="0" offset="1"/>
  </linearGradient>
  <linearGradient id="linearGradient4798-4" x1="180.69" x2="133.94" y1="-125.12" y2="-60.75" gradientUnits="userSpaceOnUse">
   <stop stop-color="#fff" offset="0"/>
   <stop stop-color="#fff" stop-opacity="0" offset="1"/>
  </linearGradient>
  <linearGradient id="linearGradient4766-3" x1="170.75" x2="130.22" y1="-23.5" y2="33.375" gradientUnits="userSpaceOnUse">
   <stop stop-color="#fff" offset="0"/>
   <stop stop-color="#fff" stop-opacity="0" offset="1"/>
  </linearGradient>
  <linearGradient id="linearGradient4965" x1="213.5" x2="181.75" y1="-76" y2="-5.656" gradientUnits="userSpaceOnUse">
   <stop stop-color="#fff" offset="0"/>
   <stop stop-color="#fff" stop-opacity="0" offset="1"/>
  </linearGradient>
  <linearGradient id="linearGradient4686-3" x1="94.25" x2="9" y1="-94.672" y2="-179.97" gradientUnits="userSpaceOnUse">
   <stop offset="0"/>
   <stop stop-opacity="0" offset="1"/>
  </linearGradient>
  <linearGradient id="linearGradient4742-3" x1="50.75" x2="35.75" y1="-114.44" y2="-30.438" gradientUnits="userSpaceOnUse">
   <stop offset="0"/>
   <stop stop-opacity="0" offset="1"/>
  </linearGradient>
  <linearGradient id="linearGradient4734-3" x1="77.625" x2="115.25" y1="-163.12" y2="-74.625" gradientUnits="userSpaceOnUse">
   <stop offset="0"/>
   <stop stop-opacity="0" offset="1"/>
  </linearGradient>
  <linearGradient id="linearGradient4726-9" x1="56.5" x2="125.72" y1="-50.438" y2="7.063" gradientUnits="userSpaceOnUse">
   <stop offset="0"/>
   <stop stop-opacity="0" offset="1"/>
  </linearGradient>
  <linearGradient id="linearGradient4710-2" x1="35" x2="180.75" y1="-163.3" y2="-146.8" gradientUnits="userSpaceOnUse">
   <stop offset="0"/>
   <stop stop-opacity="0" offset="1"/>
  </linearGradient>
  <linearGradient id="linearGradient4718-4" x1="57" x2="179" y1="-141.11" y2="-41.609" gradientUnits="userSpaceOnUse">
   <stop offset="0"/>
   <stop stop-opacity="0" offset="1"/>
  </linearGradient>
  <linearGradient id="linearGradient4702-4" x1="142.75" x2="235" y1="-169.3" y2="-77.297" gradientUnits="userSpaceOnUse">
   <stop offset="0"/>
   <stop stop-opacity="0" offset="1"/>
  </linearGradient>
 </defs>
 <g transform="translate(0 -238.26)">
  <g transform="matrix(1.0006 0 0 1.0006 -9.0055 420.44)">
   <g opacity=".27">
    <path d="m219.25-182s-24.25 9-31.75 10.5-21 5.25-21 5.25c4.924-1.358 11.437 45.392 14.25 52.25l-0.063 0.281c11.808-4.074 51.211-4.767 54.313-12.781 0 0-4.75-15.25-7.5-29.75s-8.25-25.75-8.25-25.75z" fill="url(#linearGradient4806-9)"/>
    <path d="m27-126.5s-5.5 12.75-8.25 24.75-5.75 23-5.75 23l50.625 16.281 15.781-58.906z" fill="url(#linearGradient4790-3)"/>
    <path d="m26-24.5s-4 10.25-7.5 24.25-5 30.75-5 30.75 0.147-0.045 0.438-0.094c2.033-0.338 11.218-1.5 28.062 1.344 19.25 3.25 32.25 6 32.25 6l1.469-52.5-0.75 0.125z" fill="url(#linearGradient4758-2)"/>
    <path d="m114.75-180.25s-3.25 3.5-22 8-27.5 5.75-27.5 5.75c5.182 14.704 12.03 29.27 14.25 44.75l-0.094 0.313 48.031-3.938 1.126 0.25c-3.363-13.323-7.797-54.592-13.813-55.125z" fill="url(#linearGradient4750-9)"/>
    <path d="m117.59-78.094-53.625 15.719-0.344-0.094-0.125 0.469 12.25 46.5-0.031 0.75 49.469-8.875 0.53 0.188 0.032-0.063-8.25-54.25z" fill="url(#linearGradient4782-5)"/>
    <path d="m128.56-125.12c0.234 0.928 0.463 1.742 0.687 2.375l-11.656 44.656 0.093-0.031 51.813 17.375 11.187-52.969c-0.356 0.123-0.695 0.246-1 0.375l-51.125-11.781z" fill="url(#linearGradient4798-4)"/>
    <path d="m125.53-23.5-11.031 48.5s5.5 0.5 22.5 6.25c2.125 0.719 4.163 1.406 6.125 2.031 1.962 0.626 3.855 1.186 5.625 1.719 10.617 3.2 17.5 4.75 17.5 4.75l12.719-45.406c-0.513 0.182-1.019 0.38-1.531 0.562l-51.908-18.406z" fill="url(#linearGradient4766-3)"/>
    <path d="m218-76c-15.666 6.288-31.698 11.15-48.063 15.406l-0.437-0.156 9.5 55-0.031 0.094c17.839-6.36 35.381-13.387 52.781-20.844 0 0-0.5-4.5-3.75-19.75s-10-29.75-10-29.75z" fill="url(#linearGradient4965)"/>
   </g>
   <g opacity=".043">
    <path d="m13.719-179.97a58.605 58.605 0 0 0-2.719 0.063c-0.445 0.018-0.855 0.039-1.156 0.062-0.03 2e-3 -0.066-2e-3 -0.094 0-0.398 0.033-0.656 0.063-0.75 0.094 0 0 7.5 13 11.75 27.75s6.25 25.5 6.25 25.5l51.469 5.125 0.937-0.063 0.094-0.312c-2.22-15.48-9.068-30.046-14.25-44.75 0 0-18.5-9-31.5-11.5-1.018-0.196-2.01-0.37-3-0.531-0.596-0.097-1.167-0.197-1.75-0.281-0.237-0.035-0.453-0.062-0.688-0.094-1.306-0.182-2.588-0.34-3.812-0.469-0.735-0.077-1.395-0.128-2.094-0.187a114.16 114.16 0 0 0-4.781-0.313 96.716 96.716 0 0 0-3.906-0.094z" fill="url(#linearGradient4686-3)"/>
    <path d="m13-78.75s5.75 16 9.25 30 3.75 24.25 3.75 24.25l48.969 9.875 0.75-0.125 0.031-0.75-12.25-46.5 0.125-0.469z" fill="url(#linearGradient4742-3)"/>
    <path d="m127.44-125.38-47.97 4h-0.062l-15.781 58.906 0.344 0.094 53.625-15.719 11.656-44.656c-0.224-0.633-0.453-1.447-0.688-2.375l-1.125-0.25z" fill="url(#linearGradient4734-3)"/>
    <path d="m125.19-23.625-49.47 8.875-1.468 52.5s12.75-2.75 24-6.25 16.25-6.5 16.25-6.5l11.219-48.438z" fill="url(#linearGradient4726-9)"/>
    <path d="m114.75-180.25c6.016 0.533 10.45 41.802 13.813 55.125l51.125 11.781c0.304-0.13 0.643-0.252 1-0.375l0.062-0.281c-2.813-6.858-9.326-53.608-14.25-52.25 0 0-0.613-0.254-1.719-0.719a350.28 350.28 0 0 0-20.281-7.781c-12.25-4.25-29.75-5.5-29.75-5.5z" fill="url(#linearGradient4710-2)"/>
    <path d="m117.69-78.125-0.094 0.031-0.094 0.344 8.25 53.25-0.219 1 51.907 18.406c0.512-0.181 1.019-0.38 1.53-0.562l0.032-0.094-9.5-55-51.813-17.375z" fill="url(#linearGradient4718-4)"/>
    <path d="m231.75-26.5c-17.4 7.457-34.942 14.484-52.781 20.844l-12.719 45.406s13-2.75 26-5.75 26.5-8 26.5-8-0.75-5 4.25-24.5 8.75-28 8.75-28z" fill="url(#meshgradient6003)"/>
    <path d="m235-126.5c-3.102 8.014-42.505 8.707-54.313 12.781l-11.187 52.969 0.438 0.156c16.364-4.256 32.396-9.118 48.062-15.406 0 0 1.75-10.5 6.75-23.75s10.25-26.75 10.25-26.75z" fill="url(#linearGradient4702-4)"/>
   </g>
  </g>
 </g>
</svg>
