<?xml version="1.0" encoding="UTF-8"?>
<svg width="100px" height="100px" enable-background="new 0 0 128 128" fill="#9bbe55" version="1.1" viewBox="0 0 128 128" xml:space="preserve" xmlns="http://www.w3.org/2000/svg" xmlns:cc="http://creativecommons.org/ns#" xmlns:dc="http://purl.org/dc/elements/1.1/" xmlns:rdf="http://www.w3.org/1999/02/22-rdf-syntax-ns#"><metadata><rdf:RDF><cc:Work rdf:about=""><dc:format>image/svg+xml</dc:format><dc:type rdf:resource="http://purl.org/dc/dcmitype/StillImage"/><dc:title/></cc:Work></rdf:RDF></metadata><path d="m64 2c-34.187 0-62 27.813-62 62s27.813 62 62 62 62-27.813 62-62-27.813-62-62-62zm-1.62 79.403h-38.538l-6.698 4.804v2.036c0 0.905-0.736 1.639-1.644 1.639s-1.644-0.734-1.644-1.639v-7.051c0-0.905 0.736-1.639 1.644-1.639s1.644 0.734 1.644 1.639v1.056l6.674-4.786 14.844-38.375c4.997 0.875 22.661 3.346 43.568-0.967l-19.85 43.283zm12.681 0 9.981-22.333 9.874 22.333h-19.855zm37.439 8.478c-0.908 0-1.644-0.734-1.644-1.639v-1.938l-8.357-4.902h-3.99l-11.955-27.038c-0.262-0.593-0.851-0.977-1.501-0.978h-3e-3c-0.649 0-1.237 0.381-1.502 0.972l-12.087 27.045h-5.465l19.09-41.63 16.997 37.66 8.774 5.146v-1.387c0-0.905 0.736-1.639 1.644-1.639s1.644 0.734 1.644 1.639v7.051c-1e-3 0.904-0.737 1.638-1.645 1.638z"/></svg>
