<?xml version="1.0" encoding="UTF-8"?>
<svg version="1.1" viewBox="0 0 128 85" xmlns="http://www.w3.org/2000/svg">
 <path d="m50.355 55.687a21.678 21.678 0 0 1-21.678 21.678 21.678 21.678 0 0 1-21.678-21.678 21.678 21.678 0 0 1 21.678-21.678 21.678 21.678 0 0 1 21.678 21.678m70.645-4e-3a21.678 21.678 0 0 1-21.678 21.678 21.678 21.678 0 0 1-21.678-21.678 21.678 21.678 0 0 1 21.678-21.678 21.678 21.678 0 0 1 21.678 21.678m-80.27-33.389 27.398 33.269h31.313l-21.527-33.269h-37.183m37.183-7.8281 9.5379-0.01958m-19.323 41.116 9.785-41.098m-48.927 41.098 16.311-48.562h15.656" fill="none" stroke="#fff" stroke-linecap="round" stroke-linejoin="round" stroke-width="6.0002"/>
</svg>
