<?xml version="1.0" encoding="UTF-8"?>
<svg version="1.1" viewBox="0 0 256 256" xmlns="http://www.w3.org/2000/svg">
 <rect transform="scale(1,-1)" y="-256" width="208" height="256" fill="#808080"/>
 <path d="m163.98 87.96a7.2127 7.1818 0 0 0-7.2127-7.1818 7.2127 7.1818 0 0 0-7.2127 7.1818 7.2127 7.1818 0 0 0 7.2127 7.1817 7.2127 7.1818 0 0 0 7.2127-7.1817zm23.505 1e-3a7.2127 7.1818 0 0 0-7.2127-7.1817 7.2127 7.1818 0 0 0-7.2127 7.1817 7.2127 7.1818 0 0 0 7.2127 7.1818 7.2127 7.1818 0 0 0 7.2127-7.1818zm-26.708 11.061 9.1161-11.022h10.418l-7.1626 11.022h-12.372m9.1161-11.022 3.2557 13.615m0 0 3.1735 8e-3m-19.452-13.622 5.4271 16.089h5.2092" fill="none" stroke="#ff4" stroke-linecap="round" stroke-linejoin="round" stroke-width="2.8975"/>
 <path d="m180 128-12 16-12-16h8v-8h8v8z" fill="#ff4"/>
 <path d="m112 16v40h16v-40zm0 64v40h16v-40zm0 64v40h16v-40zm0 64v40h16v-40z" color="#000000" fill="#ff4" stroke-dasharray="40, 24" stroke-dashoffset="56" style="-inkscape-stroke:none"/>
</svg>
