<?xml version="1.0" encoding="UTF-8"?>
<svg version="1.1" viewBox="0 0 256 256" xmlns="http://www.w3.org/2000/svg">
 <rect transform="scale(1,-1)" y="-256" width="208" height="256" fill="#808080"/>
 <path d="m163.98 87.96a7.2127 7.1818 0 0 0-7.2127-7.1818 7.2127 7.1818 0 0 0-7.2127 7.1818 7.2127 7.1818 0 0 0 7.2127 7.1817 7.2127 7.1818 0 0 0 7.2127-7.1817zm23.505 1e-3a7.2127 7.1818 0 0 0-7.2127-7.1817 7.2127 7.1818 0 0 0-7.2127 7.1817 7.2127 7.1818 0 0 0 7.2127 7.1818 7.2127 7.1818 0 0 0 7.2127-7.1818zm-26.708 11.061 9.1161-11.022h10.418l-7.1626 11.022h-12.372m9.1161-11.022 3.2557 13.615m0 0 3.1735 8e-3m-19.452-13.622 5.4271 16.089h5.2092" fill="none" stroke="#fff" stroke-linecap="round" stroke-linejoin="round" stroke-width="2.8975"/>
 <path d="m180 128-12 16-12-16h8v-8h8v8z" fill="#fff"/>
 <path d="m112 8v16h16v-16zm0 32v16h16v-16zm0 32v16h16v-16zm0 32v16h16v-16zm0 32v16h16v-16zm0 32v16h16v-16zm0 32v16h16v-16zm0 32v16h16v-16z" color="#000000" fill="#fff" stroke-dasharray="16, 16" stroke-dashoffset="24" style="-inkscape-stroke:none"/>
</svg>
