<?xml version="1.0" encoding="UTF-8"?>
<svg version="1.1" viewBox="0 0 256 256" xmlns="http://www.w3.org/2000/svg">
 <rect transform="scale(1,-1)" x="4.2519e-15" y="-256" width="256" height="256" fill="#808080"/>
 <path d="m188 248v-16h8v16zm0-32v-16h8v16zm0-32v-16h8v16zm0-32v-16h8v16zm0-32v-16h8v16zm0-32v-16h8v16zm0-32v-16h8v16zm0-32v-16h8v16z" fill="#fff"/>
 <rect transform="scale(1,-1)" x="112" y="-256" width="16" height="256" fill="#fff"/>
 <path d="m231.17 55.96a7.2127 7.1818 0 0 1 7.2127-7.1817 7.2127 7.1818 0 0 1 7.2127 7.1817 7.2127 7.1818 0 0 1-7.2127 7.1818 7.2127 7.1818 0 0 1-7.2127-7.1818zm-23.505 1e-3a7.2127 7.1818 0 0 1 7.2127-7.1818 7.2127 7.1818 0 0 1 7.2127 7.1818 7.2127 7.1818 0 0 1-7.2127 7.1817 7.2127 7.1818 0 0 1-7.2127-7.1817zm26.708 11.061-9.1161-11.022h-10.418l7.1626 11.022h12.372m-9.1161-11.022-3.2557 13.615m0 0-3.1735 0.0076m19.452-13.622-5.4271 16.089h-5.2092" fill="none" stroke="#fff" stroke-linecap="round" stroke-linejoin="round" stroke-width="2.8975"/>
 <path d="m152.59 200.13a7.2127 7.1818 0 0 1-7.2127 7.1818 7.2127 7.1818 0 0 1-7.2127-7.1818 7.2127 7.1818 0 0 1 7.2127-7.1817 7.2127 7.1818 0 0 1 7.2127 7.1817zm23.505-1e-3a7.2127 7.1818 0 0 1-7.2127 7.1817 7.2127 7.1818 0 0 1-7.2127-7.1817 7.2127 7.1818 0 0 1 7.2127-7.1818 7.2127 7.1818 0 0 1 7.2127 7.1818zm-26.708-11.061 9.1161 11.022h10.418l-7.1626-11.022h-12.372m-3.9069 11.022 5.4271-16.089h5.2092m5.6424 2.4734 3.1735-8e-3m-6.4292 13.622 3.2557-13.615" fill="none" stroke="#fff" stroke-linecap="round" stroke-linejoin="round" stroke-width="2.8975"/>
 <path d="m212 96 12 16 12-16h-8l1e-5 -8h-8v8z" fill="#fff"/>
 <path d="m148 160 12-16 12 16h-8l1e-5 8h-8v-8z" fill="#fff"/>
</svg>
