<?xml version="1.0" encoding="UTF-8"?>
<svg version="1.1" viewBox="0 0 256 256" xmlns="http://www.w3.org/2000/svg">
 <rect transform="scale(1,-1)" x="-3.2142e-6" y="-256" width="256" height="256" fill="#808080"/>
 <path d="m188 248v-16h8v16zm0-32v-16h8v16zm0-32v-16h8v16zm0-32v-16h8v16zm0-32v-16h8v16zm0-32v-16h8v16zm0-32v-16h8v16zm0-32v-16h8v16z" fill="#ff4"/>
 <rect transform="scale(1,-1)" x="112" y="-256" width="16" height="256" fill="#ff4"/>
 <path d="m222.09 55.96a7.2127 7.1818 0 0 0-7.2127-7.1818 7.2127 7.1818 0 0 0-7.2127 7.1818 7.2127 7.1818 0 0 0 7.2127 7.1818 7.2127 7.1818 0 0 0 7.2127-7.1818zm23.505 1e-3a7.2127 7.1818 0 0 0-7.2127-7.1818 7.2127 7.1818 0 0 0-7.2127 7.1818 7.2127 7.1818 0 0 0 7.2127 7.1817 7.2127 7.1818 0 0 0 7.2127-7.1817zm-26.708 11.061 9.1161-11.022h10.418l-7.1626 11.022h-12.372m9.1161-11.022 3.2557 13.615m0 0 3.1735 8e-3m-19.452-13.622 5.4271 16.089h5.2092" fill="none" stroke="#ff4" stroke-linecap="round" stroke-linejoin="round" stroke-width="2.8975"/>
 <path d="m161.67 200.12a7.2127 7.1818 0 0 0 7.2127 7.1818 7.2127 7.1818 0 0 0 7.2127-7.1818 7.2127 7.1818 0 0 0-7.2127-7.1817 7.2127 7.1818 0 0 0-7.2127 7.1817zm-23.505-1e-3a7.2127 7.1818 0 0 0 7.2127 7.1817 7.2127 7.1818 0 0 0 7.2127-7.1817 7.2127 7.1818 0 0 0-7.2127-7.1817 7.2127 7.1818 0 0 0-7.2127 7.1817zm26.708-11.061-9.1161 11.022h-10.418l7.1626-11.022h12.372m3.9069 11.022-5.4271-16.089h-5.2092m-5.6424 2.4734-3.1735-8e-3m6.4292 13.622-3.2558-13.615" fill="none" stroke="#ff4" stroke-linecap="round" stroke-linejoin="round" stroke-width="2.8975"/>
 <path d="m236 96-12 16-12-16h8v-8h8v8z" fill="#ff4"/>
 <path d="m172 160-12-16-12 16h8v8h8v-8z" fill="#ff4"/>
</svg>
