<?xml version="1.0" encoding="UTF-8"?>
<svg version="1.1" viewBox="0 0 256 256" xmlns="http://www.w3.org/2000/svg">
 <rect transform="scale(1,-1)" x="4.707e-6" y="-256" width="208" height="256" fill="#808080"/>
 <rect transform="scale(1,-1)" x="112" y="-256" width="16" height="256" fill="#fff"/>
 <path d="m173.06 87.96a7.2127 7.1818 0 0 1 7.2127-7.1818 7.2127 7.1818 0 0 1 7.2127 7.1818 7.2127 7.1818 0 0 1-7.2127 7.1817 7.2127 7.1818 0 0 1-7.2127-7.1817zm-23.505 0.0013a7.2127 7.1818 0 0 1 7.2127-7.1817 7.2127 7.1818 0 0 1 7.2127 7.1817 7.2127 7.1818 0 0 1-7.2127 7.1817 7.2127 7.1818 0 0 1-7.2127-7.1817zm26.708 11.061-9.1161-11.022h-10.418l7.1626 11.022h12.372m-9.1161-11.022-3.2557 13.615m0 0-3.1735 8e-3m19.452-13.622-5.4271 16.089h-5.2092" fill="none" stroke="#fff" stroke-linecap="round" stroke-linejoin="round" stroke-width="2.8975"/>
 <path d="m157.05 128 12 16 12-16h-8v-8h-8v8z" fill="#fff"/>
</svg>
