<?xml version="1.0" encoding="UTF-8"?>
<svg version="1.1" viewBox="0 0 256 256" xmlns="http://www.w3.org/2000/svg">
 <rect y="4.1377e-5" width="256" height="256" fill="#808080"/>
 <path d="m187.91 113.88a7.6381 7.6053 0 0 1 7.6381-7.6053 7.6381 7.6053 0 0 1 7.6381 7.6053 7.6381 7.6053 0 0 1-7.6381 7.6053 7.6381 7.6053 0 0 1-7.6381-7.6053zm-24.891 1e-3a7.6381 7.6053 0 0 1 7.6381-7.6053 7.6381 7.6053 0 0 1 7.6381 7.6053 7.6381 7.6053 0 0 1-7.6381 7.6053 7.6381 7.6053 0 0 1-7.6381-7.6053zm28.283 11.714-9.6537-11.672h-11.033l7.5851 11.672h13.101m-13.101 2.7464-3.3607 7e-3m6.8084-14.425-3.4478 14.418m17.239-14.418-5.7472 17.038h-5.5164" fill="none" stroke="#fff" stroke-linecap="round" stroke-linejoin="round" stroke-width="3.0684"/>
 <path d="m198.66 141.66-15.376 13.205-15.308-13.205m30.65 13.301-15.376 13.205-15.308-13.205" fill="none" stroke="#fff" stroke-linecap="round" stroke-width="4.6026"/>
</svg>
