<?xml version="1.0" encoding="UTF-8"?>
<svg version="1.1" viewBox="0 0 256 256" xmlns="http://www.w3.org/2000/svg">
 <rect y="1.3767e-6" width="256" height="256" fill="#808080"/>
 <path d="m178.29 147.72a7.6381 7.6053 0 0 1-7.6381 7.6053 7.6381 7.6053 0 0 1-7.6381-7.6053 7.6381 7.6053 0 0 1 7.6381-7.6053 7.6381 7.6053 0 0 1 7.6381 7.6053zm24.891-1e-3a7.6381 7.6053 0 0 1-7.6381 7.6053 7.6381 7.6053 0 0 1-7.6381-7.6053 7.6381 7.6053 0 0 1 7.6381-7.6053 7.6381 7.6053 0 0 1 7.6381 7.6053zm-28.283-11.714 9.6537 11.672h11.033l-7.5851-11.672h-13.101m-4.1373 11.672 5.7472-17.038h5.5164m5.9752 2.6193 3.3607-7e-3m-6.8084 14.425 3.4478-14.418" fill="none" stroke="#fff" stroke-linecap="round" stroke-linejoin="round" stroke-width="3.0684"/>
 <path d="m167.54 119.94 15.376-13.205 15.308 13.205m-30.65-13.301 15.376-13.205 15.308 13.205" fill="none" stroke="#fff" stroke-linecap="round" stroke-width="4.6026"/>
</svg>
