<?xml version="1.0" encoding="UTF-8"?>
<svg version="1.1" viewBox="0 0 256 256" xmlns="http://www.w3.org/2000/svg">
 <rect y="1.3767e-6" width="160" height="256" fill="#808080"/>
 <path d="m160.77 106.15 6.9727 4.9141c-34.156 0.79948-71.804 15.496-92.541 35.457-6.2827 6.2138-6.3387 16.344-0.125 22.627 6.2138 6.2827 16.344 6.3387 22.627 0.125 24.033-20.173 45.063-25.552 72.518-26.207l-9.7578 6.0976c-7.4946 4.6828-9.7735 14.555-5.0898 22.049 4.6834 7.4939 14.555 9.7719 22.049 5.0879l52.906-33.066c10.462-6.7832 9.8245-19.848 0.7206-26.715l-51.846-36.525c-7.3988-5.0046-17.735-2.3614-22.56 4.3614-4.8249 6.7229-3.0962 16.704 4.1265 21.795z" fill="#e48f00" stroke="#fff" stroke-linecap="round" stroke-width="12" />
</svg>
