<?xml version="1.0" encoding="UTF-8"?>
<svg version="1.1" viewBox="0 0 256 256" xml:space="preserve" xmlns="http://www.w3.org/2000/svg"><g transform="matrix(3.7795 0 0 3.7795 -9.929e-6 -866.52)"><rect x="33.867" y="229.27" width="19.05" height="67.733" fill="#aaa"/><path d="m50.8 290.65h2.1167m-2.1167-6.35h2.1167m-2.1167-6.35h2.1167m0-6.35h-2.1167m0-6.35h2.1167m-2.1167-6.35h2.1167m-2.1167-6.35h2.1167m-2.1167-6.35h2.1167m-2.1167-6.35h2.1167m-2.1167-6.35h2.1167m-19.05 57.15h4.2333m-4.2333-6.35h4.2333m-4.2333-6.35h4.2333m-4.2333-6.35h4.2333m-4.2333-6.35h4.2333m-4.2333-12.7h4.2333m-4.2333-6.35h4.2333m-4.2333-12.7h4.2333m-4.2333 6.35h4.2333m-4.2333 19.05h4.2333m4.2333 31.75h4.2333m-4.2333-6.35h4.2333m-4.2333-6.35h4.2333m-4.2333-6.35h4.2333m-4.2333-6.35h4.2333m-4.2333-12.7h4.2333m-4.2333-6.35h4.2333m-4.2333-12.7h4.2333m-4.2333 6.35h4.2333m-4.2333 19.05h4.2333m-8.4667 34.925h4.2333m-4.2333-6.35h4.2333m-4.2333-6.35h4.2333m-4.2333-6.35h4.2333m-4.2333-6.35h4.2333m-4.2333-6.35h4.2333m-4.2333-12.7h4.2333m-4.2333-6.35h4.2333m-4.2333-12.7h4.2333m-4.2333 6.35h4.2333m-4.2333 19.05h4.2333m8.4667 41.275v-67.733m-4.2333 0v67.733m-4.2333 0v-67.733m-4.2333 0v67.733m8.4667-60.478h4.2333m-4.2333 6.35h4.2333m-4.2333 50.8h4.2333m-4.2333-6.35h4.2333m-4.2333-6.35h4.2333m-4.2333-6.35h4.2333m-4.2333-6.35h4.2333m-4.2333-6.35h4.2333m-4.2333-6.35h4.2333m-4.2333-6.35h4.2333m-4.2333-19.05h4.2333" fill="none" stroke="#999" stroke-width="1.0583"/><rect x="31.75" y="229.27" width="2.1167" height="67.733" fill="#999"/><rect x="52.917" y="229.27" width="2.1167" height="67.733" fill="#999"/><rect x="29.633" y="229.27" width="2.1167" height="67.733" fill="#666"/></g><rect y="1.3767e-6" width="112" height="256" fill="#808080"/><g transform="rotate(180 88 87.208)"><path d="m15.766 2.0285h64.468a13.794 14.189 0 0 1 13.794 14.189v60.395a13.794 14.189 0 0 1-13.794 14.189h-64.468a13.794 14.189 0 0 1-13.794-14.189v-60.395a13.794 14.189 0 0 1 13.794-14.189z" fill="#fff" stroke="#000" stroke-linecap="round" stroke-linejoin="round" stroke-width="4"/><path d="m39.729 44.062a13.406 13.73 0 0 1-13.406 13.73 13.406 13.73 0 0 1-13.406-13.73 13.406 13.73 0 0 1 13.406-13.73 13.406 13.73 0 0 1 13.406 13.73zm43.669 0a13.406 13.73 0 0 1-13.406 13.73 13.406 13.73 0 0 1-13.406-13.73 13.406 13.73 0 0 1 13.406-13.73 13.406 13.73 0 0 1 13.406 13.73zm-49.624-21.143 16.944 21.069h19.361l-13.305-21.069h-22.985m16.944 21.069 6.0556-26.025m0 0 5.8973-0.03355m-36.146 26.04 10.083-30.745h9.6803" fill="none" stroke="#000" stroke-linecap="round" stroke-linejoin="round" stroke-width="4"/><path d="m48 73.046c0 4.4386-2.8624 8.8773-8.6302 8.8773-5.7679 0-8.7166-4.3646-8.6302-8.8773 0.08589-4.5126 2.7329-8.8772 8.6302-8.8772s8.6302 4.4386 8.6302 8.8772zm-4.3151 0c0.01414-2.16-1.424-4.4385-4.3151-4.4385s-4.3151 2.2044-4.3151 4.4385c0 2.2342 1.4384 4.4386 4.3151 4.4386s4.3007-2.2785 4.3151-4.4386z"/><path d="m66.67 81.938h-4.7179l-5.322-7.3976-1.4384 1.4795v5.9181h-4.3151v-17.754h4.3151v7.3976l7.1919-7.3976h4.7466l-7.6234 7.6936z"/></g></svg>
