<?xml version="1.0" encoding="UTF-8"?>
<svg version="1.1" viewBox="0 0 256 256" xml:space="preserve" xmlns="http://www.w3.org/2000/svg"><g transform="matrix(3.7795 0 0 3.7795 -9.929e-6 -866.52)"><rect x="33.867" y="229.27" width="19.05" height="67.733" fill="#aaa"/><path d="m50.8 290.65h2.1167m-2.1167-6.35h2.1167m-2.1167-6.35h2.1167m0-6.35h-2.1167m0-6.35h2.1167m-2.1167-6.35h2.1167m-2.1167-6.35h2.1167m-2.1167-6.35h2.1167m-2.1167-6.35h2.1167m-2.1167-6.35h2.1167m-19.05 57.15h4.2333m-4.2333-6.35h4.2333m-4.2333-6.35h4.2333m-4.2333-6.35h4.2333m-4.2333-6.35h4.2333m-4.2333-12.7h4.2333m-4.2333-6.35h4.2333m-4.2333-12.7h4.2333m-4.2333 6.35h4.2333m-4.2333 19.05h4.2333m4.2333 31.75h4.2333m-4.2333-6.35h4.2333m-4.2333-6.35h4.2333m-4.2333-6.35h4.2333m-4.2333-6.35h4.2333m-4.2333-12.7h4.2333m-4.2333-6.35h4.2333m-4.2333-12.7h4.2333m-4.2333 6.35h4.2333m-4.2333 19.05h4.2333m-8.4667 34.925h4.2333m-4.2333-6.35h4.2333m-4.2333-6.35h4.2333m-4.2333-6.35h4.2333m-4.2333-6.35h4.2333m-4.2333-6.35h4.2333m-4.2333-12.7h4.2333m-4.2333-6.35h4.2333m-4.2333-12.7h4.2333m-4.2333 6.35h4.2333m-4.2333 19.05h4.2333m8.4667 41.275v-67.733m-4.2333 0v67.733m-4.2333 0v-67.733m-4.2333 0v67.733m8.4667-60.478h4.2333m-4.2333 6.35h4.2333m-4.2333 50.8h4.2333m-4.2333-6.35h4.2333m-4.2333-6.35h4.2333m-4.2333-6.35h4.2333m-4.2333-6.35h4.2333m-4.2333-6.35h4.2333m-4.2333-6.35h4.2333m-4.2333-6.35h4.2333m-4.2333-19.05h4.2333" fill="none" stroke="#999" stroke-width="1.0583"/><rect x="31.75" y="229.27" width="2.1167" height="67.733" fill="#999"/><rect x="52.917" y="229.27" width="2.1167" height="67.733" fill="#999"/><rect x="29.633" y="229.27" width="2.1167" height="67.733" fill="#666"/></g><rect y="1.3767e-6" width="112" height="256" fill="#808080"/><g transform="translate(-227.64 65.281)"><g transform="translate(345.36 3.724)"><path d="m-21.25 63.661h63.067a13.494 13.701 0 0 1 13.494 13.701v58.319a13.494 13.701 0 0 1-13.494 13.701h-63.067a13.494 13.701 0 0 1-13.494-13.701v-58.319a13.494 13.701 0 0 1 13.494-13.701z" fill="#fff" stroke="#000" stroke-linecap="round" stroke-linejoin="round" stroke-width="4"/><path d="m2.1919 104.25a13.114 13.258 0 0 1-13.114 13.258 13.114 13.258 0 0 1-13.114-13.258 13.114 13.258 0 0 1 13.114-13.258 13.114 13.258 0 0 1 13.114 13.258zm42.721 0a13.114 13.258 0 0 1-13.114 13.258 13.114 13.258 0 0 1-13.114-13.258 13.114 13.258 0 0 1 13.114-13.258 13.114 13.258 0 0 1 13.114 13.258zm-48.546-20.416 16.576 20.345h18.94l-13.016-20.345h-22.485m16.576 20.345 5.924-25.13m0 0 5.7691-0.0324m-35.361 25.144 9.8639-29.688h9.4699" fill="none" stroke="#000" stroke-linecap="round" stroke-linejoin="round" stroke-width="4"/><path d="m10.284 132.24c0 4.286-2.8002 8.572-8.4427 8.572s-8.5272-4.2146-8.4427-8.572c0.08403-4.3574 2.6736-8.572 8.4427-8.572s8.4427 4.286 8.4427 8.572zm-4.2213 0c0.01391-2.0859-1.3931-4.286-4.2213-4.286-2.8284 0-4.2213 2.1288-4.2213 4.286 0 2.1575 1.4071 4.286 4.2213 4.286 2.8143 0 4.2072-2.2001 4.2213-4.286z"/><path d="m28.547 140.82h-4.6153l-5.2064-7.1434-1.4071 1.4286v5.7146h-4.2213v-17.144h4.2213v7.1434l7.0356-7.1434h4.6435l-7.4578 7.429z"/><path d="m41.818 54.329h-63.067a13.494 13.701 0 0 1-13.494-13.701v-58.319a13.494 13.701 0 0 1 13.494-13.701h63.067a13.494 13.701 0 0 1 13.494 13.701v58.319a13.494 13.701 0 0 1-13.494 13.701z" fill="#fff" stroke="#000" stroke-linecap="round" stroke-linejoin="round" stroke-width="4"/><path d="m18.375 13.74a13.114 13.258 0 0 1 13.114-13.258 13.114 13.258 0 0 1 13.114 13.258 13.114 13.258 0 0 1-13.114 13.258 13.114 13.258 0 0 1-13.114-13.258zm-42.721 0a13.114 13.258 0 0 1 13.114-13.258 13.114 13.258 0 0 1 13.114 13.258 13.114 13.258 0 0 1-13.114 13.258 13.114 13.258 0 0 1-13.114-13.258zm48.546 20.416-16.576-20.345h-18.94l13.016 20.345h22.485m-16.576-20.345-5.924 25.13m0 0-5.7691 0.0324m35.361-25.144-9.8639 29.688h-9.4699" fill="none" stroke="#000" stroke-linecap="round" stroke-linejoin="round" stroke-width="4"/><path d="m10.284-14.247c0-4.286 2.8002-8.572 8.4427-8.572s8.5272 4.2146 8.4427 8.572c-0.08403 4.3574-2.6736 8.572-8.4427 8.572s-8.4427-4.286-8.4427-8.572zm4.2213 0c-0.01391 2.0859 1.3931 4.286 4.2213 4.286 2.8284 0 4.2213-2.1288 4.2213-4.286 0-2.1575-1.4071-4.286-4.2213-4.286-2.8143 0-4.2072 2.2001-4.2213 4.286z"/><path d="m-7.98-22.833h4.6153l5.2064 7.1434 1.4071-1.4286v-5.7146h4.2213v17.144h-4.2213v-7.1434l-7.0356 7.1434h-4.6435l7.4578-7.429z"/></g></g></svg>
