<?xml version="1.0" encoding="UTF-8"?>
<svg version="1.1" viewBox="0 0 256 256" xmlns="http://www.w3.org/2000/svg">
 <rect y="1.3767e-6" width="140" height="256" fill="#808080" stroke-width="1.118"/>
 <rect x="248" y="1.3767e-6" width="8" height="256" fill="#999"/>
 <rect x="148" y="1.4305e-6" width="8" height="256" fill="#999"/>
 <rect x="156" y="1.3767e-6" width="92" height="256" fill="#aaa" stroke-width=".8756"/>
 <path d="m202 232h16m-16-24h16m-16-24h16m-16-24h16m-16-24h16m-16-24h16m-16-24h16m-16-24h16m-16-48h16m-16 24h16m16 192h16m-16-24h16m-16-24h16m-16-24h16m-16-24h16m-16-24h16m-16-24h16m-16-24h16m-16-48h16m-16 24h16m-80 192h16m-16-24h16m-16-24h16m-16-24h16m-16-24h16m-16-48h16m-16-24h16m-16-48h16m-16 24h16m-16 72h16m32 132h16m-16-24h16m-16-24h16m-16-24h16m-16-24h16m-16-24h16m-16-24h16m-16-24h16m-16-24h16m-16-48h16m-16 24h16m-80 216h16m-16-24h16m-16-24h16m-16-24h16m-16-24h16m-16-24h16m-16-48h16m-16-24h16m-16-48h16m-16 24h16m-16 72h16m64 156v-256m-16 0v256m32-4e-5v-256m-48 256v-256m-16 0v256m-16 0v-256m-16 0v256m32-228.58h16m-16 24h16m-16 192h16m-16-24h16m-16-24h16m-16-24h16m-16-24h16m-16-24h16m-16-24h16m-16-24h16m-16-72h16" fill="none" stroke="#999" stroke-width="4"/>
 <path d="m197.89 204.96a7.2127 7.1818 0 0 1-7.2127 7.1818 7.2127 7.1818 0 0 1-7.2127-7.1818 7.2127 7.1818 0 0 1 7.2127-7.1818 7.2127 7.1818 0 0 1 7.2127 7.1818zm23.505-1e-3a7.2127 7.1818 0 0 1-7.2127 7.1818 7.2127 7.1818 0 0 1-7.2127-7.1818 7.2127 7.1818 0 0 1 7.2127-7.1818 7.2127 7.1818 0 0 1 7.2127 7.1818zm-26.708-11.062 9.1161 11.022h10.418l-7.1626-11.022h-12.372m9.1161 11.022 3.2557-13.615m0 0 3.1735-6e-3m-19.452 13.621 5.4271-16.089h5.2092" fill="none" stroke="#fff" stroke-linecap="round" stroke-linejoin="round" stroke-width="2.8975"/>
 <rect x="140" y="1.3767e-6" width="8" height="256" fill="#666"/>
 <path d="m204.39 136.4c-2.8668 0-5.1919 2.3246-5.1919 5.1919 0 2.8673 2.3251 5.1912 5.1919 5.1912 2.8674 0 5.1919-2.3237 5.1919-5.1912 0-2.8674-2.3246-5.1919-5.1919-5.1919zm-5.4311 12.272c-5.2528 1.9647-9.3036 5.3026-9.349 10.856 0 1.4216 1.1522 2.5729 2.5738 2.5729 1.4219 0 2.5744-1.1514 2.5748-2.5729 0.0427-1.4193 0.6444-2.6242 1.5239-3.587 0.0276 1.2645 0.22938 2.684 0.66444 4.2587-0.26793 0.44602-0.37981 1.1173-0.27424 2.0988-0.90829 5.227-6.6708 8.6278-10.386 10.315-1.2994 0.57728-1.8853 2.0992-1.3081 3.3984 0.57774 1.2993 2.0992 1.8854 3.3985 1.3081 4.9296-2.5674 11.2-6.7086 13.005-12.146 4.0951 1.9091 7.9275 6.198 8.6176 10.157 0.20069 1.4075 1.5056 2.3844 2.9131 2.1836 1.4075-0.20107 2.3857-1.5037 2.1846-2.9112-1.0677-6.353-5.4542-11.054-10.926-13.809-1.5848-0.6808-1.7103-4.3801-1.621-5.7138 4.8003 2.7252 9.722 3.942 14.592 1.5522 1.2719-0.63557 1.7863-2.1825 1.1507-3.454-0.63602-1.2715-2.1806-1.7867-3.4522-1.1508-5.7244 2.8301-9.2896-1.5037-12.302-3.258-1.0775-0.7548-2.5097-0.75703-3.5804-0.0979z" fill="#fff" stroke-width="3.7795"/>
 <path d="m196.41 32.095a7.2127 7.1818 0 0 0-7.2127-7.1818 7.2127 7.1818 0 0 0-7.2127 7.1818 7.2127 7.1818 0 0 0 7.2127 7.1818 7.2127 7.1818 0 0 0 7.2127-7.1818zm23.505 1e-3a7.2127 7.1818 0 0 0-7.2127-7.1818 7.2127 7.1818 0 0 0-7.2127 7.1818 7.2127 7.1818 0 0 0 7.2127 7.1818 7.2127 7.1818 0 0 0 7.2127-7.1818zm-26.708 11.062 9.1161-11.022h10.418l-7.1626 11.022h-12.372m9.1161-11.022 3.2557 13.615m0 0 3.1735 6e-3m-19.452-13.621 5.4271 16.089h5.2092" fill="none" stroke="#fff" stroke-linecap="round" stroke-linejoin="round" stroke-width="2.8975"/>
 <path d="m202.91 100.65c-2.8668 0-5.1919-2.3246-5.1919-5.1919 0-2.8673 2.3251-5.1912 5.1919-5.1912 2.8674 0 5.1919 2.3237 5.1919 5.1912 0 2.8674-2.3246 5.1919-5.1919 5.1919zm-5.4311-12.272c-5.2528-1.9647-9.3036-5.3026-9.349-10.856 0-1.4216 1.1522-2.5729 2.5738-2.5729 1.4219 0 2.5744 1.1514 2.5748 2.5729 0.0427 1.4193 0.6444 2.6242 1.5239 3.587 0.0276-1.2645 0.22938-2.684 0.66444-4.2587-0.26793-0.44602-0.37981-1.1173-0.27424-2.0988-0.90829-5.227-6.6708-8.6278-10.386-10.315-1.2994-0.57728-1.8853-2.0992-1.3081-3.3984 0.57774-1.2993 2.0992-1.8854 3.3985-1.3081 4.9296 2.5674 11.2 6.7086 13.005 12.146 4.0951-1.9091 7.9275-6.198 8.6176-10.157 0.20069-1.4075 1.5056-2.3844 2.9131-2.1836 1.4075 0.20107 2.3857 1.5037 2.1846 2.9112-1.0677 6.353-5.4542 11.054-10.926 13.809-1.5848 0.6808-1.7103 4.3801-1.621 5.7138 4.8003-2.7252 9.722-3.942 14.592-1.5522 1.2719 0.63557 1.7863 2.1825 1.1507 3.454-0.63602 1.2715-2.1806 1.7867-3.4522 1.1508-5.7244-2.8301-9.2896 1.5037-12.302 3.258-1.0775 0.7548-2.5097 0.75703-3.5804 0.0979z" fill="#fff" stroke-width="3.7795"/>
</svg>
