<?xml version="1.0" encoding="UTF-8"?>
<svg version="1.1" viewBox="0 0 256 256" xmlns="http://www.w3.org/2000/svg" xmlns:cc="http://creativecommons.org/ns#" xmlns:dc="http://purl.org/dc/elements/1.1/" xmlns:rdf="http://www.w3.org/1999/02/22-rdf-syntax-ns#">
 <metadata>
  <rdf:RDF>
   <cc:Work rdf:about="">
    <dc:format>image/svg+xml</dc:format>
    <dc:type rdf:resource="http://purl.org/dc/dcmitype/StillImage"/>
    <dc:title/>
   </cc:Work>
  </rdf:RDF>
 </metadata>
 <g transform="matrix(3.7795 0 0 3.7795 -9.929e-6 -866.52)">
  <rect x="33.867" y="229.27" width="19.05" height="67.733" fill="#aaa"/>
  <path d="m50.8 290.65h2.1167m-2.1167-6.35h2.1167m-2.1167-6.35h2.1167m0-6.35h-2.1167m0-6.35h2.1167m-2.1167-6.35h2.1167m-2.1167-6.35h2.1167m-2.1167-6.35h2.1167m-2.1167-6.35h2.1167m-2.1167-6.35h2.1167m-19.05 57.15h4.2333m-4.2333-6.35h4.2333m-4.2333-6.35h4.2333m-4.2333-6.35h4.2333m-4.2333-6.35h4.2333m-4.2333-12.7h4.2333m-4.2333-6.35h4.2333m-4.2333-12.7h4.2333m-4.2333 6.35h4.2333m-4.2333 19.05h4.2333m4.2333 31.75h4.2333m-4.2333-6.35h4.2333m-4.2333-6.35h4.2333m-4.2333-6.35h4.2333m-4.2333-6.35h4.2333m-4.2333-12.7h4.2333m-4.2333-6.35h4.2333m-4.2333-12.7h4.2333m-4.2333 6.35h4.2333m-4.2333 19.05h4.2333m-8.4667 34.925h4.2333m-4.2333-6.35h4.2333m-4.2333-6.35h4.2333m-4.2333-6.35h4.2333m-4.2333-6.35h4.2333m-4.2333-6.35h4.2333m-4.2333-12.7h4.2333m-4.2333-6.35h4.2333m-4.2333-12.7h4.2333m-4.2333 6.35h4.2333m-4.2333 19.05h4.2333m8.4667 41.275v-67.733m-4.2333 0v67.733m-4.2333 0v-67.733m-4.2333 0v67.733m8.4667-60.478h4.2333m-4.2333 6.35h4.2333m-4.2333 50.8h4.2333m-4.2333-6.35h4.2333m-4.2333-6.35h4.2333m-4.2333-6.35h4.2333m-4.2333-6.35h4.2333m-4.2333-6.35h4.2333m-4.2333-6.35h4.2333m-4.2333-6.35h4.2333m-4.2333-19.05h4.2333" fill="none" stroke="#999" stroke-width="1.0583"/>
  <rect x="31.75" y="229.27" width="2.1167" height="67.733" fill="#999"/>
  <rect x="52.917" y="229.27" width="2.1167" height="67.733" fill="#999"/>
  <rect x="29.633" y="229.27" width="2.1167" height="67.733" fill="#666"/>
  <path d="m44.478 269.6c-0.75852 0-1.3737 0.61505-1.3737 1.3737s0.61519 1.3735 1.3737 1.3735c0.75866 0 1.3737-0.61481 1.3737-1.3735 0-0.75866-0.61505-1.3737-1.3737-1.3737zm-1.437 3.2469c-1.3898 0.51982-2.4616 1.403-2.4736 2.8724 0 0.37614 0.30486 0.68074 0.681 0.68074 0.37622 0 0.68116-0.30463 0.68124-0.68074 0.01129-0.37552 0.1705-0.69432 0.40321-0.94906 0.0073 0.33457 0.06069 0.71015 0.1758 1.1268-0.07089 0.11801-0.10049 0.29563-0.07256 0.55532-0.24032 1.383-1.765 2.2828-2.7479 2.7292-0.3438 0.15274-0.49883 0.55541-0.34611 0.89918 0.15286 0.34377 0.55541 0.49885 0.89918 0.34611 1.3043-0.67931 2.9633-1.775 3.4409-3.2137 1.0835 0.50512 2.0975 1.6399 2.2801 2.6873 0.0531 0.37241 0.39836 0.63087 0.77076 0.57776 0.37241-0.0532 0.63122-0.39785 0.57801-0.77026-0.2825-1.6809-1.4431-2.9248-2.8908-3.6536-0.41933-0.18013-0.45253-1.1589-0.4289-1.5118 1.2701 0.72105 2.5723 1.043 3.8608 0.41069 0.33652-0.16816 0.47263-0.57745 0.30446-0.91389-0.16828-0.33642-0.57695-0.47274-0.9134-0.30447-1.5146 0.74879-2.4579-0.39786-3.2549-0.86203-0.28508-0.19971-0.66403-0.2003-0.94731-0.0259z" fill="#fff" style="paint-order:stroke fill markers"/>
  <path d="m40.676 282.43h5.9294a1.2687 1.2687 0 0 1 1.2687 1.2687v5.4002a1.2687 1.2687 0 0 1-1.2687 1.2687h-5.9294a1.2687 1.2687 0 0 1-1.2687-1.2687v-5.4002a1.2687 1.2687 0 0 1 1.2687-1.2687z" fill="#fff" stroke="#000" stroke-linecap="round" stroke-linejoin="round" stroke-width=".52917"/>
  <path d="m42.88 286.19a1.233 1.2277 0 0 1-1.233 1.2277 1.233 1.2277 0 0 1-1.233-1.2277 1.233 1.2277 0 0 1 1.233-1.2277 1.233 1.2277 0 0 1 1.233 1.2277zm4.0164 0a1.233 1.2277 0 0 1-1.233 1.2277 1.233 1.2277 0 0 1-1.233-1.2277 1.233 1.2277 0 0 1 1.233-1.2277 1.233 1.2277 0 0 1 1.233 1.2277zm-4.5641-1.8905 1.5584 1.8838h1.7807l-1.2237-1.8838h-2.114m1.5584 1.8838 0.55695-2.327m0 0 0.5424-3e-3m-3.3245 2.3284 0.92737-2.749h0.89033" fill="none" stroke="#000" stroke-linecap="round" stroke-linejoin="round" stroke-width=".39688"/>
  <path d="m43.64 288.78c0 0.39688-0.26326 0.79376-0.79376 0.79376-0.53049 0-0.80169-0.39026-0.79376-0.79376 0.0079-0.40349 0.25136-0.79375 0.79376-0.79375 0.5424 0 0.79376 0.39688 0.79376 0.79375zm-0.39688 0c0.0013-0.19314-0.13097-0.39687-0.39688-0.39687-0.26591 0-0.39688 0.19711-0.39688 0.39687 0 0.19977 0.13229 0.39688 0.39688 0.39688 0.26458 0 0.39556-0.20373 0.39688-0.39688z" stroke-width=".13229"/>
  <path d="m45.357 289.58h-0.43392l-0.48948-0.66146-0.13229 0.13229v0.52917h-0.39688v-1.5875h0.39688v0.66146l0.66146-0.66146h0.43656l-0.70115 0.68792z" stroke-width=".13229"/>
  <path d="m42.818 255.06c0.75852 0 1.3737-0.61505 1.3737-1.3737s-0.61519-1.3735-1.3737-1.3735c-0.75866 0-1.3737 0.61481-1.3737 1.3735 0 0.75866 0.61505 1.3737 1.3737 1.3737zm1.437-3.2469c1.3898-0.51982 2.4616-1.403 2.4736-2.8724 0-0.37614-0.30486-0.68074-0.681-0.68074-0.37622 0-0.68116 0.30463-0.68124 0.68074-0.01129 0.37552-0.1705 0.69432-0.40321 0.94906-0.0073-0.33457-0.06069-0.71015-0.1758-1.1268 0.07089-0.11801 0.10049-0.29563 0.07256-0.55532 0.24032-1.383 1.765-2.2828 2.7479-2.7292 0.3438-0.15274 0.49883-0.55541 0.34611-0.89918-0.15286-0.34377-0.55541-0.49885-0.89918-0.34611-1.3043 0.67931-2.9633 1.775-3.4409 3.2137-1.0835-0.50512-2.0975-1.6399-2.2801-2.6873-0.0531-0.37241-0.39836-0.63087-0.77076-0.57776-0.37241 0.0532-0.63122 0.39785-0.57801 0.77026 0.2825 1.6809 1.4431 2.9248 2.8908 3.6536 0.41933 0.18013 0.45253 1.1589 0.4289 1.5118-1.2701-0.72105-2.5723-1.043-3.8608-0.41069-0.33652 0.16816-0.47263 0.57745-0.30446 0.91389 0.16828 0.33642 0.57695 0.47274 0.9134 0.30447 1.5146-0.74879 2.4579 0.39786 3.2549 0.86203 0.28508 0.19971 0.66403 0.2003 0.94731 0.0259z" fill="#fff" style="paint-order:stroke fill markers"/>
  <path d="m46.621 242.23h-5.9294a1.2687 1.2687 0 0 1-1.2687-1.2687v-5.4002a1.2687 1.2687 0 0 1 1.2687-1.2687h5.9294a1.2687 1.2687 0 0 1 1.2687 1.2687v5.4002a1.2687 1.2687 0 0 1-1.2687 1.2687z" fill="#fff" stroke="#000" stroke-linecap="round" stroke-linejoin="round" stroke-width=".52917"/>
  <path d="m44.417 238.47a1.233 1.2277 0 0 1 1.233-1.2277 1.233 1.2277 0 0 1 1.233 1.2277 1.233 1.2277 0 0 1-1.233 1.2277 1.233 1.2277 0 0 1-1.233-1.2277zm-4.0164 0a1.233 1.2277 0 0 1 1.233-1.2277 1.233 1.2277 0 0 1 1.233 1.2277 1.233 1.2277 0 0 1-1.233 1.2277 1.233 1.2277 0 0 1-1.233-1.2277zm4.5641 1.8905-1.5584-1.8838h-1.7807l1.2237 1.8838h2.114m-1.5584-1.8838-0.55695 2.327m0 0-0.5424 3e-3m3.3245-2.3284-0.92737 2.749h-0.89033" fill="none" stroke="#000" stroke-linecap="round" stroke-linejoin="round" stroke-width=".39688"/>
  <path d="m43.656 235.88c0-0.39688 0.26326-0.79376 0.79376-0.79376 0.53049 0 0.80169 0.39026 0.79376 0.79376-0.0079 0.40349-0.25136 0.79375-0.79376 0.79375-0.5424 0-0.79376-0.39688-0.79376-0.79375zm0.39688 0c-0.0013 0.19314 0.13097 0.39687 0.39688 0.39687 0.26591 0 0.39688-0.19711 0.39688-0.39687 0-0.19977-0.13229-0.39688-0.39688-0.39688-0.26458 0-0.39556 0.20373-0.39688 0.39688z" stroke-width=".13229"/>
  <path d="m41.939 235.09h0.43392l0.48948 0.66146 0.13229-0.13229v-0.52917h0.39688v1.5875h-0.39688v-0.66146l-0.66146 0.66146h-0.43656l0.70115-0.68792z" stroke-width=".13229"/>
 </g>
 <rect y="1.3767e-6" width="112" height="256" fill="#808080"/>
</svg>
