<svg xmlns="http://www.w3.org/2000/svg" viewBox="0 0 256 256"><path fill="#aaa" d="M128 .006h72v255.997h-72z"/><path fill="none" stroke="#999" stroke-width="3.998711" d="M191.999 231.992h8m-8-24h8m-8-24h8m0-24h-8m0-24h8m-8-24h8m-8-24h8m-8-24h8m-8-23.999h8m-8-24h8m-72 215.999h16m-16-24h16m-16-24h16m-16-24h16m-16-24h16m-16-48h16m-16-24h16m-16-47.999h16m-16 24h16m-16 72h16m16 119.999h16m-16-24h16m-16-24h16m-16-24h16m-16-24h16m-16-48h16m-16-24h16m-16-47.999h16m-16 24h16m-16 72h16m-32 131.999h16m-16-24h16m-16-24h16m-16-24h16m-16-24h16m-16-24h16m-16-48h16m-16-23.999h16m-16-48h16m-16 24h16m-16 72h16m32 155.999V-.005m-16 0v255.997m-16 0V-.005m-16 0v255.997m32-228.577h16m-16 24h16m-16 191.998h16m-16-24h16m-16-24h16m-16-24h16m-16-23.999h16m-16-24h16m-16-24h16m-16-24h16m-16-71.999h16"/><path fill="#999" d="M120 .006h8v255.997h-8zM200 .006H208v255.997H200z"/><path fill="#666" d="M111.998.006h8.001v255.997h-8.001z"/><path fill="#fff" d="M44.478 269.6a1.374 1.374 0 1 0 0 2.748 1.374 1.374 0 0 0 0-2.748zm-1.437 3.247c-1.39.52-2.462 1.403-2.474 2.872a.68.68 0 1 0 1.363 0c.01-.375.17-.694.403-.949.007.335.06.71.176 1.127-.071.118-.1.296-.073.555-.24 1.383-1.765 2.283-2.748 2.73a.681.681 0 0 0 .553 1.245c1.305-.68 2.964-1.775 3.441-3.214 1.084.505 2.098 1.64 2.28 2.687a.681.681 0 0 0 1.349-.192c-.282-1.68-1.443-2.925-2.89-3.654-.42-.18-.453-1.159-.43-1.511 1.27.72 2.573 1.043 3.861.41a.681.681 0 0 0-.609-1.218c-1.514.749-2.458-.398-3.255-.862a.87.87 0 0 0-.947-.026z" style="paint-order:stroke fill markers" transform="translate(0 -866.52) scale(3.7795)"/><path fill="#fff" stroke="#000" stroke-linecap="round" stroke-linejoin="round" stroke-width="1.9993555" d="M153.735 200.924h22.41a4.795 4.795 0 0 1 4.795 4.795v20.41a4.795 4.795 0 0 1-4.795 4.795h-22.41a4.795 4.795 0 0 1-4.795-4.795v-20.41a4.795 4.795 0 0 1 4.795-4.795z"/><path fill="none" stroke="#000" stroke-linecap="round" stroke-linejoin="round" stroke-width="1.5004615000000001" d="M162.065 215.135a4.66 4.64 0 0 1-4.66 4.64 4.66 4.64 0 0 1-4.66-4.64 4.66 4.64 0 0 1 4.66-4.64 4.66 4.64 0 0 1 4.66 4.64zm15.18 0a4.66 4.64 0 0 1-4.66 4.64 4.66 4.64 0 0 1-4.66-4.64 4.66 4.64 0 0 1 4.66-4.64 4.66 4.64 0 0 1 4.66 4.64zm-17.25-7.145 5.89 7.12h6.73l-4.625-7.12H160m5.89 7.12 2.105-8.795m0 0 2.05-.011m-12.565 8.8 3.505-10.39h3.365"/><path d="M164.937 224.924c0 1.5-.995 3-3 3s-3.03-1.475-3-3c.03-1.525.95-3 3-3s3 1.5 3 3zm-1.5 0c.005-.73-.495-1.5-1.5-1.5s-1.5.745-1.5 1.5.5 1.5 1.5 1.5 1.495-.77 1.5-1.5zM171.427 227.948h-1.64l-1.85-2.5-.5.5v2h-1.5v-6h1.5v2.5l2.5-2.5h1.65l-2.65 2.6z"/><path fill="#fff" d="M42.818 255.06a1.374 1.374 0 1 0 0-2.748 1.374 1.374 0 0 0 0 2.748zm1.437-3.247c1.39-.52 2.462-1.403 2.474-2.872a.68.68 0 1 0-1.363 0c-.01.375-.17.694-.403.949a4.617 4.617 0 0 0-.176-1.127c.071-.118.1-.296.073-.555.24-1.383 1.765-2.283 2.748-2.73a.681.681 0 0 0-.553-1.245c-1.305.68-2.964 1.775-3.441 3.214-1.084-.505-2.098-1.64-2.28-2.687a.681.681 0 0 0-1.349.192c.282 1.68 1.443 2.925 2.89 3.654.42.18.453 1.159.43 1.511-1.27-.72-2.573-1.043-3.861-.41a.681.681 0 0 0 .609 1.218c1.514-.749 2.458.398 3.255.862.285.2.664.2.947.026z" style="paint-order:stroke fill markers" transform="translate(0 -866.52) scale(3.7795)"/><path fill="#fff" stroke="#000" stroke-linecap="round" stroke-linejoin="round" stroke-width="1.9993555" d="M176.204 48.988h-22.41a4.795 4.795 0 0 1-4.795-4.795v-20.41a4.795 4.795 0 0 1 4.795-4.795h22.41A4.795 4.795 0 0 1 181 23.783v20.41a4.795 4.795 0 0 1-4.795 4.795z"/><path fill="none" stroke="#000" stroke-linecap="round" stroke-linejoin="round" stroke-width="1.5004615000000001" d="M167.874 34.777a4.66 4.64 0 0 1 4.66-4.64 4.66 4.64 0 0 1 4.66 4.64 4.66 4.64 0 0 1-4.66 4.64 4.66 4.64 0 0 1-4.66-4.64zm-15.18 0a4.66 4.64 0 0 1 4.66-4.64 4.66 4.64 0 0 1 4.66 4.64 4.66 4.64 0 0 1-4.66 4.64 4.66 4.64 0 0 1-4.66-4.64zm17.25 7.146-5.89-7.12h-6.73l4.625 7.12h7.99m-5.89-7.12-2.105 8.795m0 0-2.05.01m12.565-8.8-3.505 10.39h-3.365"/><path d="M164.998 24.988c0-1.5.995-3 3-3s3.03 1.475 3 3c-.03 1.525-.95 3-3 3s-3-1.5-3-3zm1.5 0c-.005.73.495 1.5 1.5 1.5s1.5-.745 1.5-1.5-.5-1.5-1.5-1.5-1.495.77-1.5 1.5zM158.508 22.003h1.64l1.85 2.5.5-.5v-2h1.5v6h-1.5v-2.5l-2.5 2.5h-1.65l2.65-2.6z"/><path fill="gray" d="M0 0h112v256H0z"/></svg>