<?xml version="1.0" encoding="UTF-8" standalone="no"?>
<svg
   xmlns:dc="http://purl.org/dc/elements/1.1/"
   xmlns:cc="http://creativecommons.org/ns#"
   xmlns:rdf="http://www.w3.org/1999/02/22-rdf-syntax-ns#"
   xmlns:svg="http://www.w3.org/2000/svg"
   xmlns="http://www.w3.org/2000/svg"
   xmlns:sodipodi="http://sodipodi.sourceforge.net/DTD/sodipodi-0.dtd"
   xmlns:inkscape="http://www.inkscape.org/namespaces/inkscape"
   version="1.1"
   viewBox="0 0 256 256"
   id="svg20"
   sodipodi:docname="sidewalk_ok.svg"
   inkscape:version="1.0.1 (3bc2e813f5, 2020-09-07)">
  <metadata
     id="metadata26">
    <rdf:RDF>
      <cc:Work
         rdf:about="">
        <dc:format>image/svg+xml</dc:format>
        <dc:type
           rdf:resource="http://purl.org/dc/dcmitype/StillImage" />
        <dc:title></dc:title>
      </cc:Work>
    </rdf:RDF>
  </metadata>
  <defs
     id="defs24" />
  <sodipodi:namedview
     pagecolor="#ffffff"
     bordercolor="#666666"
     borderopacity="1"
     objecttolerance="10"
     gridtolerance="10"
     guidetolerance="10"
     inkscape:pageopacity="0"
     inkscape:pageshadow="2"
     inkscape:window-width="1920"
     inkscape:window-height="1017"
     id="namedview22"
     showgrid="false"
     inkscape:zoom="2.8710938"
     inkscape:cx="128"
     inkscape:cy="128"
     inkscape:window-x="1272"
     inkscape:window-y="-8"
     inkscape:window-maximized="1"
     inkscape:current-layer="g16" />
  <g
     transform="matrix(3.7795 0 0 3.7795 -9.929e-6 -866.52)"
     id="g16">
    <rect
       x="33.867"
       y="229.27"
       width="19.05"
       height="67.733"
       fill="#aaa"
       id="rect2" />
    <path
       d="m50.8 290.65h2.1167m-2.1167-6.35h2.1167m-2.1167-6.35h2.1167m0-6.35h-2.1167m0-6.35h2.1167m-2.1167-6.35h2.1167m-2.1167-6.35h2.1167m-2.1167-6.35h2.1167m-2.1167-6.35h2.1167m-2.1167-6.35h2.1167m-19.05 57.15h4.2333m-4.2333-6.35h4.2333m-4.2333-6.35h4.2333m-4.2333-6.35h4.2333m-4.2333-6.35h4.2333m-4.2333-12.7h4.2333m-4.2333-6.35h4.2333m-4.2333-12.7h4.2333m-4.2333 6.35h4.2333m-4.2333 19.05h4.2333m4.2333 31.75h4.2333m-4.2333-6.35h4.2333m-4.2333-6.35h4.2333m-4.2333-6.35h4.2333m-4.2333-6.35h4.2333m-4.2333-12.7h4.2333m-4.2333-6.35h4.2333m-4.2333-12.7h4.2333m-4.2333 6.35h4.2333m-4.2333 19.05h4.2333m-8.4667 34.925h4.2333m-4.2333-6.35h4.2333m-4.2333-6.35h4.2333m-4.2333-6.35h4.2333m-4.2333-6.35h4.2333m-4.2333-6.35h4.2333m-4.2333-12.7h4.2333m-4.2333-6.35h4.2333m-4.2333-12.7h4.2333m-4.2333 6.35h4.2333m-4.2333 19.05h4.2333m8.4667 41.275v-67.733m-4.2333 0v67.733m-4.2333 0v-67.733m-4.2333 0v67.733m8.4667-60.478h4.2333m-4.2333 6.35h4.2333m-4.2333 50.8h4.2333m-4.2333-6.35h4.2333m-4.2333-6.35h4.2333m-4.2333-6.35h4.2333m-4.2333-6.35h4.2333m-4.2333-6.35h4.2333m-4.2333-6.35h4.2333m-4.2333-6.35h4.2333m-4.2333-19.05h4.2333"
       fill="none"
       stroke="#999"
       stroke-width="1.0583"
       id="path4" />
    <rect
       x="31.75"
       y="229.27"
       width="2.1167"
       height="67.733"
       fill="#999"
       id="rect6" />
    <rect
       x="52.917"
       y="229.27"
       width="2.1167"
       height="67.733"
       fill="#999"
       id="rect8" />
    <rect
       x="29.633"
       y="229.27"
       width="2.1167"
       height="67.733"
       fill="#666"
       id="rect10" />
    <path
       d="m 44.47845,253.72976 c -0.75852,0 -1.373701,0.61505 -1.373701,1.3737 0,0.75865 0.615191,1.3735 1.373701,1.3735 0.75866,0 1.3737,-0.61481 1.3737,-1.3735 0,-0.75866 -0.61505,-1.3737 -1.3737,-1.3737 z m -1.437,3.2469 c -1.3898,0.51982 -2.4616,1.403 -2.4736,2.8724 0,0.37614 0.30486,0.68074 0.680999,0.68074 0.376221,0 0.68116,-0.30463 0.681241,-0.68074 0.01129,-0.37552 0.1705,-0.69432 0.40321,-0.94906 0.0073,0.33457 0.06069,0.71015 0.1758,1.1268 -0.07089,0.11801 -0.10049,0.29563 -0.07256,0.55532 -0.240321,1.383 -1.765001,2.2828 -2.7479,2.7292 -0.343801,0.15274 -0.49883,0.55541 -0.34611,0.89918 0.152859,0.34377 0.555409,0.49885 0.89918,0.34611 1.304299,-0.67931 2.963299,-1.775 3.440899,-3.2137 1.083501,0.50512 2.097501,1.6399 2.280101,2.6873 0.0531,0.37241 0.39836,0.63087 0.77076,0.57776 0.37241,-0.0532 0.63122,-0.39785 0.57801,-0.77026 -0.2825,-1.6809 -1.4431,-2.9248 -2.8908,-3.6536 -0.41933,-0.18013 -0.45253,-1.1589 -0.4289,-1.5118 1.2701,0.72105 2.5723,1.043 3.8608,0.41069 0.33652,-0.16816 0.47263,-0.57745 0.30446,-0.91389 -0.16828,-0.33642 -0.57695,-0.47274 -0.9134,-0.30447 -1.5146,0.74879 -2.4579,-0.39786 -3.2549,-0.86203 -0.28508,-0.19971 -0.664031,-0.2003 -0.947311,-0.0259 z"
       fill="#ffffff"
       style="display:inline;stroke-width:1;paint-order:stroke fill markers"
       id="path14" />
    <path
       fill="#ffffff"
       d="m 40.675574,266.55703 h 5.929355 a 1.2686863,1.2686863 0 0 1 1.268687,1.26868 v 5.40019 a 1.2686863,1.2686863 0 0 1 -1.268687,1.26868 h -5.929355 a 1.2686863,1.2686863 0 0 1 -1.268687,-1.26868 v -5.40019 a 1.2686863,1.2686863 0 0 1 1.268687,-1.26868 z"
       stroke-linejoin="round"
       stroke-width="0.529171"
       stroke="#000000"
       stroke-linecap="round"
       id="path_2" />
    <path
       fill="none"
       d="m 42.879569,270.31546 a 1.2329673,1.2276756 0 0 1 -1.232968,1.22768 1.2329673,1.2276756 0 0 1 -1.232967,-1.22768 1.2329673,1.2276756 0 0 1 1.232967,-1.22767 1.2329673,1.2276756 0 0 1 1.232968,1.22767 z m 4.016404,0 a 1.2329673,1.2276756 0 0 1 -1.232967,1.22768 1.2329673,1.2276756 0 0 1 -1.232968,-1.22768 1.2329673,1.2276756 0 0 1 1.232968,-1.22767 1.2329673,1.2276756 0 0 1 1.232967,1.22767 z m -4.564096,-1.89046 1.558408,1.88385 h 1.780658 L 44.447236,268.425 H 42.3332 m 1.558407,1.88385 0.556952,-2.32703 m 0,0 0.5424,-0.003 m -3.324514,2.32835 0.927372,-2.74904 h 0.890329"
       stroke-linejoin="round"
       stroke-width="0.396878"
       stroke="#000000"
       stroke-linecap="round"
       id="path_3" />
    <path
       fill="#000000"
       d="m 43.640251,272.90707 c 0,0.39688 -0.263262,0.79376 -0.793755,0.79376 -0.530494,0 -0.801694,-0.39026 -0.793756,-0.79376 0.0079,-0.40349 0.251356,-0.79375 0.793756,-0.79375 0.542399,0 0.793755,0.39688 0.793755,0.79375 z m -0.396877,0 c 0.0013,-0.19314 -0.13097,-0.39687 -0.396878,-0.39687 -0.265909,0 -0.396878,0.19711 -0.396878,0.39687 0,0.19977 0.132292,0.39688 0.396878,0.39688 0.264585,0 0.395555,-0.20373 0.396878,-0.39688 z"
       id="path_4"
       style="stroke-width:0.132293" />
    <path
       fill="#000000"
       d="m 45.35741,273.70215 h -0.43392 l -0.489483,-0.66146 -0.132292,0.13229 v 0.52917 h -0.396878 v -1.58751 h 0.396878 v 0.66146 l 0.661463,-0.66146 h 0.436565 l -0.701151,0.68792 z"
       id="path_5"
       style="stroke-width:0.132293" />
  </g>
  <rect
     y="1.3767e-6"
     width="112"
     height="256"
     fill="#808080"
     id="rect18" />
</svg>
