<?xml version="1.0" encoding="UTF-8"?>
<svg width="48" height="93" version="1.1" viewBox="0 0 48 93" xmlns="http://www.w3.org/2000/svg" >
 <path d="m8.5833 49h30.833a6.5973 6.7747 0 0 1 6.5973 6.7747v28.837a6.5973 6.7747 0 0 1-6.5973 6.7747h-30.833a6.5973 6.7747 0 0 1-6.5973-6.7747v-28.837a6.5973 6.7747 0 0 1 6.5973-6.7747z" fill="#fff" stroke="#000" stroke-linecap="round" stroke-linejoin="round" stroke-width="2"/>
 <path d="m20.044 69.07a6.4116 6.5557 0 0 1-6.4116 6.5557 6.4116 6.5557 0 0 1-6.4116-6.5557 6.4116 6.5557 0 0 1 6.4116-6.5557 6.4116 6.5557 0 0 1 6.4116 6.5557zm20.886 0a6.4116 6.5557 0 0 1-6.4116 6.5557 6.4116 6.5557 0 0 1-6.4116-6.5557 6.4116 6.5557 0 0 1 6.4116-6.5557 6.4116 6.5557 0 0 1 6.4116 6.5557zm-23.734-10.095 8.1039 10.06h9.2596l-6.3634-10.06h-10.993m8.1039 10.06 2.8962-12.426m0 0 2.8205-0.01602m-17.288 12.433 4.8224-14.68h4.6298" fill="none" stroke="#000" stroke-linecap="round" stroke-linejoin="round" stroke-width="2"/>
 <path d="m24 82.909c0 2.1193-1.369 4.2386-4.1276 4.2386-2.7586 0-4.1689-2.084-4.1276-4.2386 0.04108-2.1546 1.3071-4.2386 4.1276-4.2386 2.8205 0 4.1276 2.1193 4.1276 4.2386zm-2.0638 0c0.0068-1.0314-0.68106-2.1193-2.0638-2.1193-1.3828 0-2.0638 1.0526-2.0638 2.1193 0 1.0668 0.68793 2.1193 2.0638 2.1193 1.3759 0 2.0569-1.0879 2.0638-2.1193z"/>
 <path d="m32.929 87.155h-2.2564l-2.5454-3.5322-0.68793 0.70642v2.8257h-2.0638v-8.4772h2.0638v3.5322l3.4397-3.5322h2.2702l-3.6461 3.6734z"/>
 <path d="m39.417 44.386h-30.833a6.5973 6.7747 0 0 1-6.5973-6.7747v-28.837a6.5973 6.7747 0 0 1 6.5973-6.7747h30.833a6.5973 6.7747 0 0 1 6.5973 6.7747v28.837a6.5973 6.7747 0 0 1-6.5973 6.7747z" fill="#fff" stroke="#000" stroke-linecap="round" stroke-linejoin="round" stroke-width="2"/>
 <path d="m27.956 24.316a6.4116 6.5557 0 0 1 6.4116-6.5557 6.4116 6.5557 0 0 1 6.4116 6.5557 6.4116 6.5557 0 0 1-6.4116 6.5557 6.4116 6.5557 0 0 1-6.4116-6.5557zm-20.886 0a6.4116 6.5557 0 0 1 6.4116-6.5557 6.4116 6.5557 0 0 1 6.4116 6.5557 6.4116 6.5557 0 0 1-6.4116 6.5557 6.4116 6.5557 0 0 1-6.4116-6.5557zm23.734 10.095-8.1039-10.06h-9.2596l6.3634 10.06h10.993m-8.1039-10.06-2.8962 12.426m0 0-2.8205 0.01602m17.288-12.433-4.8224 14.68h-4.6298" fill="none" stroke="#000" stroke-linecap="round" stroke-linejoin="round" stroke-width="2"/>
 <path d="m24 10.477c0-2.1193 1.369-4.2386 4.1276-4.2386 2.7586 0 4.1689 2.084 4.1276 4.2386-0.04108 2.1546-1.3071 4.2386-4.1276 4.2386-2.8205 0-4.1276-2.1193-4.1276-4.2386zm2.0638 0c-0.0068 1.0314 0.68106 2.1193 2.0638 2.1193 1.3828 0 2.0638-1.0526 2.0638-2.1193 0-1.0668-0.68793-2.1193-2.0638-2.1193-1.3759 0-2.0569 1.0879-2.0638 2.1193z"/>
 <path d="m15.071 6.2315h2.2564l2.5454 3.5322 0.68793-0.70642v-2.8257h2.0638v8.4772h-2.0638v-3.5322l-3.4397 3.5322h-2.2702l3.6461-3.6734z"/>
</svg>
