<?xml version="1.0" encoding="UTF-8" standalone="no"?>
<svg
   id="a"
   version="1.1"
   viewBox="0 0 907.08662 453.54331"
   sodipodi:docname="sanitary_dump_station_sign.svg"
   inkscape:version="1.1.1 (3bf5ae0d25, 2021-09-20)"
   width="240mm"
   height="120mm"
   xmlns:inkscape="http://www.inkscape.org/namespaces/inkscape"
   xmlns:sodipodi="http://sodipodi.sourceforge.net/DTD/sodipodi-0.dtd"
   xmlns="http://www.w3.org/2000/svg"
   xmlns:svg="http://www.w3.org/2000/svg">
  <defs
     id="defs866" />
  <sodipodi:namedview
     id="namedview864"
     pagecolor="#ffffff"
     bordercolor="#666666"
     borderopacity="1.0"
     inkscape:pageshadow="2"
     inkscape:pageopacity="0.0"
     inkscape:pagecheckerboard="0"
     showgrid="false"
     inkscape:zoom="1.2615001"
     inkscape:cx="417.36026"
     inkscape:cy="319.85729"
     inkscape:window-width="1920"
     inkscape:window-height="1017"
     inkscape:window-x="-8"
     inkscape:window-y="-8"
     inkscape:window-maximized="1"
     inkscape:current-layer="a"
     units="mm"
     inkscape:document-units="mm" />
  <path
     id="b"
     d="m 124.06373,118.66388 c -1.56496,0 -3.07087,0.46137 -4.36639,1.32136 l -27.951524,18.10777 c -0.9781,0.98917 -1.528051,2.32161 -1.528051,3.71309 v 6.14173 c 0,1.39518 0.549951,2.7313 1.528051,3.7094 l 6.658465,6.6437 c 1.476378,1.47638 3.476869,2.31423 5.562249,2.31423 h 70.14272 v 5.23745 l -26.1282,4.66535 c -2.05954,0.3691 -3.89764,1.5502 -5.0935,3.28494 l -19.31841,28.10286 c -1.23646,1.79749 -2.98966,3.14837 -5.03075,3.90502 l -24.888046,9.11663 c -2.066929,0.76034 -3.432579,2.72023 -3.432579,4.92372 v 29.90035 c 0,2.89739 2.347441,5.23745 5.237451,5.23745 h 20.986714 c 0,-14.47589 11.73351,-26.21309 26.2094,-26.21309 14.47588,0 26.22047,11.7372 26.22047,26.21309 h 99.63706 c 0,-14.47589 11.73351,-26.21309 26.2094,-26.21309 14.47588,0 26.22047,11.7372 26.22047,26.21309 h 10.49705 L 362.8937,244.50295 V 134.39099 c 0,-2.90477 -2.35851,-5.24483 -5.25221,-5.24483 H 289.47712 L 268.50517,118.66019 H 124.06373 Z m 10.72219,10.48597 h 36.70645 c 1.45423,0 2.61688,1.17003 2.61688,2.62795 v 15.71974 c 0,1.45054 -1.15896,2.62426 -2.61688,2.62426 h -36.70645 c -1.45054,0 -2.62426,-1.17003 -2.62426,-2.62426 V 131.7778 c 0,-1.45792 1.17003,-2.62795 2.62426,-2.62795 z m 146.82579,31.46531 h 36.70645 c 1.43947,0 2.61688,1.16264 2.61688,2.61688 v 26.22047 c 0,1.45054 -1.17372,2.62426 -2.61688,2.62426 h -36.70645 c -1.45054,0 -2.62426,-1.17372 -2.62426,-2.62426 v -26.22047 c 0,-1.45054 1.17003,-2.61688 2.62426,-2.61688 z m -130.90674,14.6715 h 20.7874 c 1.45423,0 2.61688,1.18111 2.61688,2.62796 v 24.23843 c 0,1.39887 -1.0999,2.56152 -2.49508,2.61688 l -40.55241,1.80487 c -1.16265,0.0554 -2.14444,-0.84891 -2.19611,-2.00049 -0.0221,-0.45399 0.10335,-0.88952 0.35433,-1.25492 l 17.12598,-25.68529 c 0.96703,-1.45792 2.61319,-2.34375 4.36639,-2.34375 z m -8.05733,58.73032 c -11.58219,0 -20.97564,9.38976 -20.97564,20.97564 0,11.58587 9.38976,20.98671 20.97564,20.98671 11.58587,0 20.97195,-9.40084 20.97195,-20.98671 0,-11.58588 -9.38977,-20.97564 -20.97195,-20.97564 z m 152.06693,0 c -11.58219,0 -20.97195,9.38976 -20.97195,20.97564 0,11.58587 9.38607,20.98671 20.97195,20.98671 11.58587,0 20.97195,-9.40084 20.97195,-20.98671 0,-11.58588 -9.38608,-20.97564 -20.97195,-20.97564 z"
     stroke-width="0px" />
  <polyline
     points="284.92 800.02 519.03 800.02 519.03 944.66 783.04 944.66 783.04 800.02 1023.7 800.02"
     fill="none"
     stroke="#000000"
     stroke-miterlimit="10"
     stroke-width="22px"
     id="polyline849"
     transform="matrix(0.36909449,0,0,0.36909449,-14.948328,-2.6611724)"
     style="stroke-width:16.25599992;stroke-miterlimit:10;stroke-dasharray:none" />
  <polygon
     points="654.31,800.39 730.25,723.1 578.36,723.1 "
     stroke-width="0px"
     id="polygon851"
     transform="matrix(0.36909449,0,0,0.36909449,-14.948328,-2.6611724)" />
  <path
     d="m 198.52116,310.8034 c 0,0 5.89075,-4.22244 9.81791,-4.22244 3.53224,0 11.71137,4.74655 15.91536,7.11983 1.45423,0.82308 3.2185,0.87844 4.72072,0.14764 l 13.01427,-6.30414 c 1.26968,-0.6127 2.73499,-0.66806 4.04527,-0.14764 l 8.54823,3.40306"
     fill="none"
     stroke="#000000"
     stroke-miterlimit="10"
     stroke-width="4.79823px"
     id="path853"
     style="stroke-width:4;stroke-miterlimit:10;stroke-dasharray:none" />
  <path
     d="m 198.52116,326.11713 c 0,0 5.89075,-4.22244 9.81791,-4.22244 3.53224,0 11.71137,4.74655 15.91536,7.11983 1.45423,0.82308 3.2185,0.87844 4.72072,0.14764 l 13.01427,-6.30414 c 1.26968,-0.61269 2.73499,-0.66806 4.04527,-0.14764 l 8.54823,3.40306"
     fill="none"
     stroke="#000000"
     stroke-miterlimit="10"
     stroke-width="4.79823px"
     id="path855"
     style="stroke-width:4;stroke-miterlimit:10;stroke-dasharray:none" />
  <path
     d="M 385.85138,67.691928 V 385.85138 H 67.691928 V 67.691928 H 385.85138 M 415.74803,37.795275 H 37.795275 V 415.74803 H 415.74803 Z"
     fill="#154889"
     stroke-width="0px"
     id="path857" />
  <circle
     cx="221.28323"
     cy="222.89615"
     r="21.448082"
     fill="#ffffff"
     stroke-width="0px"
     id="circle859" />
  <circle
     cx="680.31494"
     cy="226.77165"
     r="188.97638"
     fill="#154889"
     stroke-width="0px"
     id="circle1051" />
  <path
     id="b-3"
     d="m 577.82481,118.66388 c -1.56496,0 -3.07087,0.46137 -4.36639,1.32136 l -27.95153,18.10778 c -0.9781,0.98917 -1.52805,2.3216 -1.52805,3.71309 v 6.14173 c 0,1.39518 0.54995,2.7313 1.52805,3.7094 l 6.65847,6.6437 c 1.47638,1.47638 3.47687,2.31422 5.56225,2.31422 h 70.14272 v 5.23745 l -26.1282,4.66536 c -2.05955,0.36909 -3.89764,1.55019 -5.0935,3.28494 l -19.31841,28.10285 c -1.23647,1.79749 -2.98966,3.14838 -5.03076,3.90502 l -24.88804,9.11664 c -2.06693,0.76033 -3.43258,2.72022 -3.43258,4.92372 v 29.90034 c 0,2.89739 2.34744,5.23745 5.23745,5.23745 h 20.98672 c 0,-14.47588 11.73351,-26.21309 26.2094,-26.21309 14.47588,0 26.22047,11.73721 26.22047,26.21309 h 99.63706 c 0,-14.47588 11.73351,-26.21309 26.2094,-26.21309 14.47588,0 26.22047,11.73721 26.22047,26.21309 h 10.49705 l 31.45792,-10.48597 V 134.391 c 0,-2.90477 -2.35851,-5.24483 -5.25222,-5.24483 H 743.23819 L 722.26625,118.66019 H 577.82481 Z m 10.72219,10.48598 h 36.70645 c 1.45423,0 2.61688,1.17003 2.61688,2.62795 v 15.71973 c 0,1.45055 -1.15896,2.62427 -2.61688,2.62427 H 588.547 c -1.45054,0 -2.62426,-1.17003 -2.62426,-2.62427 v -15.71973 c 0,-1.45792 1.17003,-2.62795 2.62426,-2.62795 z m 146.82579,31.4653 h 36.70645 c 1.43947,0 2.61688,1.16265 2.61688,2.61688 v 26.22048 c 0,1.45054 -1.17372,2.62426 -2.61688,2.62426 h -36.70645 c -1.45054,0 -2.62426,-1.17372 -2.62426,-2.62426 v -26.22048 c 0,-1.45054 1.17003,-2.61688 2.62426,-2.61688 z m -130.90674,14.67151 h 20.7874 c 1.45423,0 2.61688,1.1811 2.61688,2.62795 v 24.23844 c 0,1.39886 -1.0999,2.56151 -2.49508,2.61688 l -40.55241,1.80487 c -1.16265,0.0554 -2.14444,-0.84892 -2.19611,-2.00049 -0.0221,-0.45399 0.10334,-0.88952 0.35433,-1.25492 l 17.12598,-25.68529 c 0.96703,-1.45792 2.61319,-2.34375 4.36639,-2.34375 z m -8.05733,58.73031 c -11.58219,0 -20.97564,9.38977 -20.97564,20.97564 0,11.58588 9.38976,20.98672 20.97564,20.98672 11.58587,0 20.97194,-9.40084 20.97194,-20.98672 0,-11.58587 -9.38976,-20.97564 -20.97194,-20.97564 z m 152.06693,0 c -11.58219,0 -20.97195,9.38977 -20.97195,20.97564 0,11.58588 9.38607,20.98672 20.97195,20.98672 11.58587,0 20.97194,-9.40084 20.97194,-20.98672 0,-11.58587 -9.38607,-20.97564 -20.97194,-20.97564 z"
     fill="#ffffff"
     stroke-width="0px" />
  <polyline
     points="284.92 800.02 519.03 800.02 519.03 944.66 783.04 944.66 783.04 800.02 1023.7 800.02"
     fill="none"
     stroke="#ffffff"
     stroke-miterlimit="10"
     stroke-width="22px"
     id="polyline1054"
     transform="matrix(0.36909449,0,0,0.36909449,438.81275,-2.661167)"
     style="stroke-width:16.25599992;stroke-miterlimit:10;stroke-dasharray:none" />
  <polygon
     points="654.31,800.39 730.25,723.1 578.36,723.1 "
     fill="#ffffff"
     stroke-width="0px"
     id="polygon1056"
     transform="matrix(0.36909449,0,0,0.36909449,438.81275,-2.661167)" />
  <path
     d="m 652.28224,310.8034 c 0,0 5.89075,-4.22244 9.81791,-4.22244 3.53224,0 11.71137,4.74656 15.91536,7.11983 1.45423,0.82308 3.2185,0.87845 4.72072,0.14764 l 13.01427,-6.30413 c 1.26968,-0.6127 2.73499,-0.66806 4.04527,-0.14764 l 8.54823,3.40305"
     fill="none"
     stroke="#ffffff"
     stroke-miterlimit="10"
     stroke-width="4.79823px"
     id="path1058"
     style="stroke-width:4;stroke-miterlimit:10;stroke-dasharray:none" />
  <path
     d="m 652.28224,326.11713 c 0,0 5.89075,-4.22244 9.81791,-4.22244 3.53224,0 11.71137,4.74656 15.91536,7.11983 1.45423,0.82308 3.2185,0.87845 4.72072,0.14764 l 13.01427,-6.30413 c 1.26968,-0.6127 2.73499,-0.66806 4.04527,-0.14764 l 8.54823,3.40305"
     fill="none"
     stroke="#ffffff"
     stroke-miterlimit="10"
     stroke-width="4.79823px"
     id="path1060"
     style="stroke-width:4;stroke-miterlimit:10;stroke-dasharray:none" />
  <circle
     cx="680.6767"
     cy="222.89616"
     r="21.448082"
     fill="#154889"
     stroke-width="0px"
     id="circle1062" />
</svg>
