<?xml version="1.0" encoding="UTF-8" standalone="no"?>
<svg
   id="a"
   version="1.1"
   viewBox="0 0 907.08662 453.54331"
   sodipodi:docname="sanitary_dump_station_sign.svg"
   inkscape:version="1.1.1 (3bf5ae0d25, 2021-09-20)"
   width="240mm"
   height="120mm"
   xmlns:inkscape="http://www.inkscape.org/namespaces/inkscape"
   xmlns:sodipodi="http://sodipodi.sourceforge.net/DTD/sodipodi-0.dtd"
   xmlns="http://www.w3.org/2000/svg"
   xmlns:svg="http://www.w3.org/2000/svg">
  <defs
     id="defs866" />
  <sodipodi:namedview
     id="namedview864"
     pagecolor="#ffffff"
     bordercolor="#666666"
     borderopacity="1.0"
     inkscape:pageshadow="2"
     inkscape:pageopacity="0.0"
     inkscape:pagecheckerboard="0"
     showgrid="false"
     inkscape:zoom="1.2615001"
     inkscape:cx="158.93776"
     inkscape:cy="287.3563"
     inkscape:window-width="1920"
     inkscape:window-height="1017"
     inkscape:window-x="-8"
     inkscape:window-y="-8"
     inkscape:window-maximized="1"
     inkscape:current-layer="a"
     units="mm"
     inkscape:document-units="mm" />
  <circle
     cx="680.31494"
     cy="226.77165"
     r="188.97638"
     fill="#154889"
     stroke-width="0px"
     id="circle1051" />
  <path
     id="b-3"
     d="m 577.82481,118.66388 c -1.56496,0 -3.07087,0.46137 -4.36639,1.32136 l -27.95153,18.10778 c -0.9781,0.98917 -1.52805,2.3216 -1.52805,3.71309 v 6.14173 c 0,1.39518 0.54995,2.7313 1.52805,3.7094 l 6.65847,6.6437 c 1.47638,1.47638 3.47687,2.31422 5.56225,2.31422 h 70.14272 v 5.23745 l -26.1282,4.66536 c -2.05955,0.36909 -3.89764,1.55019 -5.0935,3.28494 l -19.31841,28.10285 c -1.23647,1.79749 -2.98966,3.14838 -5.03076,3.90502 l -24.88804,9.11664 c -2.06693,0.76033 -3.43258,2.72022 -3.43258,4.92372 v 29.90034 c 0,2.89739 2.34744,5.23745 5.23745,5.23745 h 20.98672 c 0,-14.47588 11.73351,-26.21309 26.2094,-26.21309 14.47588,0 26.22047,11.73721 26.22047,26.21309 h 99.63706 c 0,-14.47588 11.73351,-26.21309 26.2094,-26.21309 14.47588,0 26.22047,11.73721 26.22047,26.21309 h 10.49705 l 31.45792,-10.48597 V 134.391 c 0,-2.90477 -2.35851,-5.24483 -5.25222,-5.24483 H 743.23819 L 722.26625,118.66019 H 577.82481 Z m 10.72219,10.48598 h 36.70645 c 1.45423,0 2.61688,1.17003 2.61688,2.62795 v 15.71973 c 0,1.45055 -1.15896,2.62427 -2.61688,2.62427 H 588.547 c -1.45054,0 -2.62426,-1.17003 -2.62426,-2.62427 v -15.71973 c 0,-1.45792 1.17003,-2.62795 2.62426,-2.62795 z m 146.82579,31.4653 h 36.70645 c 1.43947,0 2.61688,1.16265 2.61688,2.61688 v 26.22048 c 0,1.45054 -1.17372,2.62426 -2.61688,2.62426 h -36.70645 c -1.45054,0 -2.62426,-1.17372 -2.62426,-2.62426 v -26.22048 c 0,-1.45054 1.17003,-2.61688 2.62426,-2.61688 z m -130.90674,14.67151 h 20.7874 c 1.45423,0 2.61688,1.1811 2.61688,2.62795 v 24.23844 c 0,1.39886 -1.0999,2.56151 -2.49508,2.61688 l -40.55241,1.80487 c -1.16265,0.0554 -2.14444,-0.84892 -2.19611,-2.00049 -0.0221,-0.45399 0.10334,-0.88952 0.35433,-1.25492 l 17.12598,-25.68529 c 0.96703,-1.45792 2.61319,-2.34375 4.36639,-2.34375 z m -8.05733,58.73031 c -11.58219,0 -20.97564,9.38977 -20.97564,20.97564 0,11.58588 9.38976,20.98672 20.97564,20.98672 11.58587,0 20.97194,-9.40084 20.97194,-20.98672 0,-11.58587 -9.38976,-20.97564 -20.97194,-20.97564 z m 152.06693,0 c -11.58219,0 -20.97195,9.38977 -20.97195,20.97564 0,11.58588 9.38607,20.98672 20.97195,20.98672 11.58587,0 20.97194,-9.40084 20.97194,-20.98672 0,-11.58587 -9.38607,-20.97564 -20.97194,-20.97564 z"
     fill="#ffffff"
     stroke-width="0px" />
  <polyline
     points="284.92 800.02 519.03 800.02 519.03 944.66 783.04 944.66 783.04 800.02 1023.7 800.02"
     fill="none"
     stroke="#ffffff"
     stroke-miterlimit="10"
     stroke-width="22px"
     id="polyline1054"
     transform="matrix(0.36909449,0,0,0.36909449,438.81275,-2.661167)"
     style="stroke-width:16.25599992;stroke-miterlimit:10;stroke-dasharray:none" />
  <polygon
     points="654.31,800.39 730.25,723.1 578.36,723.1 "
     fill="#ffffff"
     stroke-width="0px"
     id="polygon1056"
     transform="matrix(0.36909449,0,0,0.36909449,438.81275,-2.661167)" />
  <path
     d="m 652.28224,310.8034 c 0,0 5.89075,-4.22244 9.81791,-4.22244 3.53224,0 11.71137,4.74656 15.91536,7.11983 1.45423,0.82308 3.2185,0.87845 4.72072,0.14764 l 13.01427,-6.30413 c 1.26968,-0.6127 2.73499,-0.66806 4.04527,-0.14764 l 8.54823,3.40305"
     fill="none"
     stroke="#ffffff"
     stroke-miterlimit="10"
     stroke-width="4.79823px"
     id="path1058"
     style="stroke-width:4;stroke-miterlimit:10;stroke-dasharray:none" />
  <path
     d="m 652.28224,326.11713 c 0,0 5.89075,-4.22244 9.81791,-4.22244 3.53224,0 11.71137,4.74656 15.91536,7.11983 1.45423,0.82308 3.2185,0.87845 4.72072,0.14764 l 13.01427,-6.30413 c 1.26968,-0.6127 2.73499,-0.66806 4.04527,-0.14764 l 8.54823,3.40305"
     fill="none"
     stroke="#ffffff"
     stroke-miterlimit="10"
     stroke-width="4.79823px"
     id="path1060"
     style="stroke-width:4;stroke-miterlimit:10;stroke-dasharray:none" />
  <circle
     cx="680.6767"
     cy="222.89616"
     r="21.448082"
     fill="#154889"
     stroke-width="0px"
     id="circle1062" />
  <g
     id="g20468"
     transform="matrix(3.59955,0,0,3.59955,-49.332408,-108.50302)">
    <path
       id="rect1510-7"
       style="fill:#825010;stroke-width:1.11124;stroke-miterlimit:10"
       d="M 30.951916,40.643497 H 122.4584 c 3.73771,0 6.74676,3.009053 6.74676,6.746756 v 91.506487 c 0,3.7377 -3.00905,6.74676 -6.74676,6.74676 H 30.951916 c -3.737703,0 -6.746756,-3.00906 -6.746756,-6.74676 V 47.390253 c 0,-3.737703 3.009053,-6.746756 6.746756,-6.746756 z" />
    <path
       id="rect1510"
       style="fill:#825010;stroke:#ffffff;stroke-width:1.05833;stroke-miterlimit:10"
       d="m 33.130641,43.143497 h 87.149039 c 3.55972,0 6.42548,2.865765 6.42548,6.425481 v 87.149042 c 0,3.55971 -2.86576,6.42548 -6.42548,6.42548 H 33.130641 c -3.559716,0 -6.425481,-2.86577 -6.425481,-6.42548 V 49.568978 c 0,-3.559716 2.865765,-6.425481 6.425481,-6.425481 z" />
  </g>
  <path
     id="polygon851-3"
     style="stroke-width:0px"
     d="m 222.33668,206.87734 26.69784,27.16887 26.69432,-27.16887 z" />
  <path
     id="rect3663-6"
     style="fill:#825010;fill-opacity:1;stroke-width:3.79231;stroke-miterlimit:10"
     d="m 250.56365,136.53343 h 37.54593 c 3.55927,0 6.42466,2.86541 6.42466,6.42468 v 20.55897 c 0,3.55927 -2.86539,6.42468 -6.42466,6.42468 h -37.54593 c -3.55927,0 -6.4247,-2.86541 -6.4247,-6.42468 v -20.55897 c 0,-3.55927 2.86543,-6.42468 6.4247,-6.42468 z m -108.36225,0 h 69.38652 c 3.55927,0 6.42468,2.86541 6.42468,6.42468 v 20.55897 c 0,3.55927 -2.86541,6.42468 -6.42468,6.42468 H 142.2014 c -3.55927,0 -6.42468,-2.86541 -6.42468,-6.42468 v -20.55897 c 0,-3.55927 2.86541,-6.42468 6.42468,-6.42468 z" />
  <g
     id="g997">
    <path
       id="rect5178-7"
       style="fill:#ffffff;fill-opacity:1;fill-rule:nonzero;stroke:#825010;stroke-width:3.46564;stroke-miterlimit:10;stroke-opacity:1"
       d="m 93.947987,99.918181 c -11.577211,0 -20.896576,7.712839 -20.896576,17.294309 v 98.88267 c 0,9.58147 9.319365,17.29585 20.896576,17.29585 H 269.73669 v 0.68506 H 386.85345 V 217.75008 H 316.4554 c 0.0619,-0.54467 0.0968,-1.09639 0.0968,-1.65492 v -98.88267 c 0,-9.58147 -9.32122,-17.294309 -20.89842,-17.294309 z" />
    <g
       id="g988">
      <path
         style="fill:#ffffff;fill-opacity:1;stroke:#825010;stroke-width:3.80951;stroke-miterlimit:10;stroke-opacity:1"
         d="m 186.36559,234.04621 a 25.19685,25.19685 0 0 1 -25.19685,25.19685 25.19685,25.19685 0 0 1 -25.19685,-25.19685 25.19685,25.19685 0 0 1 25.19685,-25.19685 25.19685,25.19685 0 0 1 25.19685,25.19685 z"
         id="path5074-1" />
      <path
         style="fill:#825010;fill-opacity:1;stroke:#825010;stroke-width:1.5179;stroke-miterlimit:10;stroke-opacity:1"
         d="m 171.20844,234.04621 a 10.039699,10.039699 0 0 1 -10.0397,10.0397 10.039699,10.039699 0 0 1 -10.03969,-10.0397 10.039699,10.039699 0 0 1 10.03969,-10.03969 10.039699,10.039699 0 0 1 10.0397,10.03969 z"
         id="path5074-2-9-39" />
    </g>
    <g
       id="g984">
      <path
         style="fill:#ffffff;fill-opacity:1;stroke:#825010;stroke-width:3.80951;stroke-miterlimit:10;stroke-opacity:1"
         d="m 277.59609,234.04621 a 25.19685,25.19685 0 0 1 -25.19685,25.19685 25.19685,25.19685 0 0 1 -25.19691,-25.19685 25.19685,25.19685 0 0 1 25.19691,-25.19685 25.19685,25.19685 0 0 1 25.19685,25.19685 z"
         id="path5074-2-0" />
      <path
         style="fill:#825010;fill-opacity:1;stroke:#825010;stroke-width:1.5179;stroke-miterlimit:10;stroke-opacity:1"
         d="m 262.43892,234.04621 a 10.039699,10.039699 0 0 1 -10.03968,10.0397 10.039699,10.039699 0 0 1 -10.03972,-10.0397 10.039699,10.039699 0 0 1 10.03972,-10.03969 10.039699,10.039699 0 0 1 10.03968,10.03969 z"
         id="path5074-2-9-3-2" />
    </g>
  </g>
  <path
     id="rect6863-7"
     style="fill:#825010;stroke:#825010;stroke-width:3.28889;stroke-miterlimit:10"
     d="m 100.25771,117.5875 h 77.33121 c 4.50214,0 8.12661,3.62447 8.12661,8.12661 v 23.70261 c 0,4.50214 -3.62447,8.12661 -8.12661,8.12661 h -77.33121 c -4.502137,0 -8.126603,-3.62447 -8.126603,-8.12661 v -23.70261 c 0,-4.50214 3.624466,-8.12661 8.126603,-8.12661 z" />
  <path
     id="rect6863-4-8"
     style="fill:#825010;stroke:#825010;stroke-width:2.38554;stroke-miterlimit:10"
     d="m 240.44495,117.19755 h 31.7224 c 4.59001,0 8.28523,3.69521 8.28523,8.28523 v 24.16526 c 0,4.59002 -3.69522,8.28523 -8.28523,8.28523 h -31.7224 c -4.59,0 -8.28523,-3.69521 -8.28523,-8.28523 v -24.16526 c 0,-4.59002 3.69523,-8.28523 8.28523,-8.28523 z" />
  <path
     id="rect12820"
     style="fill:#ffffff;fill-opacity:1;fill-rule:nonzero;stroke:none;stroke-width:4.96975;stroke-miterlimit:10;stroke-opacity:1"
     d="m 64.957038,258.63792 v 96.72003 H 385.68803 v -96.72003 z m 22.135419,21.92876 h 93.833703 v 49.14624 H 87.092457 Z"
     inkscape:export-filename="C:\Users\Quirin\Desktop\rect1510-7.png"
     inkscape:export-xdpi="95.983398"
     inkscape:export-ydpi="95.983398" />
  <path
     id="rect13205"
     style="fill:#ffffff;fill-opacity:1;fill-rule:nonzero;stroke:#825010;stroke-width:1.82191;stroke-miterlimit:10;stroke-opacity:1"
     d="m 105.67149,241.35472 v 64.44581 h -9.694941 l 17.001491,17.12349 17.00335,-17.12349 h -9.69681 v -64.44581 z"
     inkscape:export-filename="C:\Users\Quirin\Desktop\rect1510-7.png"
     inkscape:export-xdpi="95.983398"
     inkscape:export-ydpi="95.983398" />
</svg>
