<?xml version="1.0" encoding="UTF-8"?>
<svg version="1.1" viewBox="0 0 128 128" xml:space="preserve" xmlns="http://www.w3.org/2000/svg"><rect width="128" height="128" ry="16" fill="#25b"/><path d="m40 16c-8 0-20 4-20 6l4 6h24v4h-14c-4 0-10 14-10 16-2 0-12 2-12 4v16h8c0-8 6-14 14-14s14 6 14 14h32c0-8 6-14 14-14 8 0 14 6 14 14h4c2 0 4-2 4-4v-40c0-4-4-8-8-8zm42 8h24c1.108 0 2 0.892 2 2v14c0 1.108-0.892 2-2 2h-24c-1.108 0-2-0.892-2-2v-14c0-1.108 0.892-2 2-2zm-46 12h12v12h-20c0-2 4-12 8-12zm28 12c4.4183 0 8 3.5817 8 8s-3.5817 8-8 8-8-3.5817-8-8 3.5817-8 8-8zm-30 10c-5.5228 0-10 4.4772-10 10s4.4772 10 10 10 10-4.4772 10-10-4.4772-10-10-10zm60 0c-5.5228 0-10 4.4772-10 10s4.4772 10 10 10 10-4.4772 10-10-4.4772-10-10-10zm-42 14 12 12 12-12z" fill="#fff"/><path d="m112 84h-24v26h-48v-26h-24" fill="none" stroke="#fff" stroke-width="4"/><path d="m48 92s5.0186-4 8-4 5.0186 4 8 4 5.0186-4 8-4 8 4 8 4" fill="none" stroke="#fff" stroke-linecap="round" stroke-width="4"/><path d="m48 102s5.0186-4 8-4 5.0186 4 8 4 5.0186-4 8-4 8 4 8 4" fill="none" stroke="#fff" stroke-linecap="round" stroke-width="4"/></svg>
