<?xml version="1.0" encoding="UTF-8"?>
<svg version="1.1" viewBox="0 0 128 128" xml:space="preserve" xmlns="http://www.w3.org/2000/svg"><rect width="128" height="128" ry="16" fill="#73411f"/><path d="m8 120h112v-40h-72v8h28c2 0 4 2 4 4v16c0 2-2 4-4 4h-48c-2 0-4-2-4-4v-16c0-2 2-4 4-4h8v-8h-28z" fill="#fff" stroke-width=".19854"/><path d="m120 68v-6h-16v-30c0-8-8-16-16-16h-48c-8 0-16 8-16 16v20c0 8 8 16 16 16h11c0-8 5-14 13-14s13 6 13 14zm-44-40c0-2 2-4 4-4h8c2 0 4 2 4 4v8c0 2-2 4-4 4h-8c-2 0-4-2-4-4zm-16 16h-20c-2 0-4-2-4-4v-12c0-2 2-4 4-4h20c2 0 4 2 4 4v12c0 2-2 4-4 4z" fill="#fff" stroke-width=".19854"/><circle cx="64" cy="67" r="9" fill="#fff"/><path d="m44 72v20h6l-8 10-8-10h6v-20z" fill="#fff"/></svg>
