<?xml version="1.0" encoding="UTF-8"?>
<svg width="128" height="128" version="1.1" viewBox="0 0 96 96" xml:space="preserve" xmlns="http://www.w3.org/2000/svg"><defs><mask id="mask10467" maskUnits="userSpaceOnUse"><path d="m760.81-27.082c0-176.73-143.27-320-320-320s-320 143.27-320 320 143.27 320 320 320 320-143.27 320-320" fill="#fff"/></mask></defs><path d="m96 48c0 26.51-21.49 48-48 48s-48-21.49-48-48 21.49-48 48-48 48 21.49 48 48" fill="#7db6d8" stroke-width="1.3359"/><g transform="matrix(.15 0 0 -.15 -18.122 43.938)" fill-opacity=".12549" mask="url(#mask10467)" stroke-width=".8906"><path d="m440.81 192.89c-11.047 0-19.995-8.9481-19.995-19.995v-20.01h-115.15c-4.161 0-10.045-2.4599-13.081-5.4639l-49.497-49.072c-3.0227-2.9958-3.0355-7.9069-0.0293-10.913l117.76-117.76v-68.789c0-2.2799 0.91155-4.354 2.373-5.8154l57.627-57.627v-104.55c0-5.5271 2.2372-10.543 5.8594-14.165l132.26-132.24 242.36 281.35-282.85 282.85c-1.356 1.356-3.1804 2.1973-5.1856 2.1973h-24.17l-34.131 34.131c-3.6221 3.6221-8.6232 5.874-14.15 5.874z" fill-opacity=".12549" stroke-width=".89407"/></g><g stroke-width="1.3359"><path d="m45 18v66c0 1.657 1.343 3 3 3s3-1.343 3-3v-66c0-1.657-1.343-3-3-3s-3 1.343-3 3" fill="#f3cc70"/><path d="m27.728 21c-0.62415 0-1.5064 0.36915-1.9618 0.81975l-7.425 7.3605c-0.45465 0.4506-0.45465 1.1889 0 1.6395l7.425 7.3605c0.4554 0.4506 1.3377 0.81975 1.9618 0.81975h31.138c0.624 0 1.1343-0.5397 1.1343-1.1988v-15.603c0-0.6591-0.5103-1.1988-1.1343-1.1988h-31.138" fill="#495672"/><path d="m74.272 60c0.62415 0 1.5064-0.36915 1.9618-0.81975l7.425-7.3605c0.45465-0.4506 0.45465-1.1889 0-1.6395l-7.425-7.3605c-0.4554-0.4506-1.3377-0.81975-1.9618-0.81975h-37.137c-0.62415 0-1.1344 0.5397-1.1344 1.1988v15.603c0 0.6591 0.5103 1.1988 1.1344 1.1988h37.137" fill="#fff"/></g></svg>