<?xml version="1.0" encoding="UTF-8"?>
<svg width="128" height="128" version="1.1" viewBox="0 0 96 96" xml:space="preserve" xmlns="http://www.w3.org/2000/svg"><defs><linearGradient id="linearGradient5030" x1="327.5" x2="433.3" y1="326.18" y2="381.37" gradientTransform="matrix(.15811 0 0 .15811 7.4528 11.807)" gradientUnits="userSpaceOnUse"><stop stop-opacity=".12549" offset="0"/><stop stop-opacity="0" offset="1"/></linearGradient></defs><path d="m96 48c0 26.51-21.49 48-48 48s-48-21.49-48-48 21.49-48 48-48 48 21.49 48 48" fill="#7db6d8" stroke-width="1.3359"/><path d="m81.927 22.736-36.618 62.663 10.203 10.011c22.941-3.6063 40.488-23.456 40.488-47.41 0-4.6163-0.66456-9.0744-1.8809-13.299l-12.192-11.965z" fill="url(#linearGradient5030)" style="-inkscape-stroke:none"/><path d="m16.307 25.721h63.245l-31.623 56.921z" fill="#fff" stroke="#c3272f" stroke-linejoin="round" stroke-width="7.5894" style="paint-order:normal"/><path d="m47.843 25.563c-2.3356-6.2e-5 -4.2173 1.876-4.5494 4.0458h-10.106c-1.6973 0-2.4266 0.43222-3.2083 1.3958-1.4085 1.7362-2.227 4.0663-3.2571 5.9914-0.38682 0.72288-0.5552 2.5638 0.10253 3.7114 0.93938 1.6388 2.0841 4.3462 3.1542 5.8125 1.0292 1.4103 2.2411 1.1994 3.2086 1.1994h3.3861c-0.08347 0.27812-0.13526 0.58285-0.13526 0.9212v11.369c0 1.3103 0.77113 2.1926 1.4159 2.6555s1.2812 0.71521 2.1777 0.71521h3.1928v15.313h9.236v-15.313h13.549c1.3325 0 2.1786-0.21654 3.208-1.2976 1.3539-1.422 2.2881-4.0031 3.2578-5.9914 0.59628-1.2226 0.52865-2.5238-0.07566-3.6674-0.93606-1.7717-1.7943-4.4823-3.182-5.8567-1.001-0.99132-1.7541-1.3301-3.208-1.3301h-6.8798c0.07196-0.26095 0.11766-0.5269 0.11766-0.79056v-11.369c2e-6 -1.9517-1.2438-3.4692-3.4027-3.4692h-3.4526c-0.33205-2.1696-2.2133-4.0458-4.5489-4.0458z" color="#000000" fill="#fff" stroke-width=".15811" style="-inkscape-stroke:none;paint-order:stroke fill markers"/><path d="m45.754 30.278v1.8599h-12.567c-0.45413 0-1.2121 0.24938-1.4275 0.66297l-2.7942 5.3634c-0.18853 0.36189-0.18711 0.83545 0 1.1946l2.7942 5.3633c0.21551 0.41366 0.97339 0.46658 1.4275 0.46658h12.567v2.5776h-5.7229c-0.45413 0-1.0636 0.3932-1.0636 0.87345v11.369c0 0.48025 0.60949 0.84078 1.0636 0.84078h5.7229v15.313h4.1762v-15.313h16.079c0.45426 0 1.212-0.1512 1.4275-0.56478l2.7945-5.3634c0.19755-0.37914 0.18363-0.84219 0-1.1946l-2.7945-5.3634c-0.21548-0.41356-0.97326-0.59743-1.4275-0.59743h-16.079v-2.5776h5.9134c0.454 0 0.873-0.26234 0.873-0.74259v-11.369c0-0.48025-0.41902-0.93922-0.873-0.93922h-5.9134v-1.8599c0-1.2075-0.88238-2.1859-2.088-2.1859s-2.0882 0.9784-2.0882 2.1859z" color="#000000" fill="#333" stroke-width="5.0596" style="-inkscape-stroke:none;paint-order:stroke fill markers"/><path d="m39.017 66.598 8.9133 16.044 8.9773-16.159" fill="none" stroke="#c3272f" stroke-linejoin="round" stroke-width="7.5894" style="paint-order:normal"/></svg>
