<?xml version="1.0" encoding="UTF-8" standalone="no"?>
<svg
   xmlns:dc="http://purl.org/dc/elements/1.1/"
   xmlns:cc="http://creativecommons.org/ns#"
   xmlns:rdf="http://www.w3.org/1999/02/22-rdf-syntax-ns#"
   xmlns:svg="http://www.w3.org/2000/svg"
   xmlns="http://www.w3.org/2000/svg"
   xmlns:sodipodi="http://sodipodi.sourceforge.net/DTD/sodipodi-0.dtd"
   xmlns:inkscape="http://www.inkscape.org/namespaces/inkscape"
   viewBox="0 0 44 44"
   version="1.1"
   id="svg12"
   sodipodi:docname="scissors.svg"
   inkscape:version="0.92.1 r15371"
   width="44"
   height="44">
  <metadata
     id="metadata18">
    <rdf:RDF>
      <cc:Work
         rdf:about="">
        <dc:format>image/svg+xml</dc:format>
        <dc:type
           rdf:resource="http://purl.org/dc/dcmitype/StillImage" />
        <dc:title></dc:title>
      </cc:Work>
    </rdf:RDF>
  </metadata>
  <defs
     id="defs16" />
  <sodipodi:namedview
     pagecolor="#ffffff"
     bordercolor="#666666"
     borderopacity="1"
     objecttolerance="10"
     gridtolerance="10"
     guidetolerance="10"
     inkscape:pageopacity="0"
     inkscape:pageshadow="2"
     inkscape:window-width="1365"
     inkscape:window-height="1015"
     id="namedview14"
     showgrid="true"
     inkscape:zoom="8.6291455"
     inkscape:cx="8.9754535"
     inkscape:cy="28.01383"
     inkscape:window-x="0"
     inkscape:window-y="0"
     inkscape:window-maximized="0"
     inkscape:current-layer="g4500">
    <inkscape:grid
       type="xygrid"
       id="grid4506"
       spacingx="1"
       spacingy="1"
       empspacing="4" />
  </sodipodi:namedview>
  <g
     id="g4500"
     transform="rotate(-180,17.999693,21.49587)">
    <g
       id="g4529"
       transform="translate(0,2)" />
    <path
       sodipodi:nodetypes="zcczzzzszzz"
       style="fill:#dd2e44"
       inkscape:connector-curvature="0"
       id="path6-3"
       d="m 6.999386,8.99174 c 2.390636,4 1.936114,3.28813 3,5 -0.192502,1.526659 -1,4 -1,4 -0.975818,-1.386199 -8,0 -11,-3 -3,-3 -2,-7 0,-9 2,-2 6.609364,-1 9,3 z m -7,4 c 2,2 5.88004,1.114385 6,1 0.623369,-0.594398 -0.376631,-1.695318 -2,-4 -1.623369,-2.304682 -3,-3 -4,-2 -1,1 -2,3 0,5 z" />
    <path
       id="path8-0"
       d="m 23.999386,38.99174 c 1.163,-0.657 1.658,-2.836 1,-4 l -9,-16 c -1,-2 -5,-3 -6,-5 -1.103,0.496 -0.394,2.401 -1,4 z"
       inkscape:connector-curvature="0"
       style="fill:#99aab5;fill-opacity:1"
       sodipodi:nodetypes="cccccc" />
    <path
       sodipodi:nodetypes="zcczzzzszzz"
       style="fill:#dd2e44"
       inkscape:connector-curvature="0"
       id="path6"
       d="m 20.999386,8.99174 c -2.390636,4 -1.936114,3.28813 -3,5 0.192502,1.526659 1,4 1,4 0.975818,-1.386199 8,0 11,-3 3,-3 2,-7 0,-9 -2,-2 -6.609364,-1 -9,3 z m 7,4 c -2,2 -5.88004,1.114385 -6,1 -0.623369,-0.594398 0.376631,-1.695318 2,-4 1.623369,-2.304682 3,-3 4,-2 1,1 2,3 0,5 z" />
    <path
       id="path8"
       d="m 3.999386,38.99174 c -1.163,-0.657 -1.658,-2.836 -1,-4 l 9,-16 c 1,-2 5,-3 6,-5 1.103,0.496 0.394,2.401 1,4 z"
       inkscape:connector-curvature="0"
       style="fill:#ccd6dd"
       sodipodi:nodetypes="cccccc" />
    <circle
       transform="scale(-1)"
       r="1.3722333"
       cy="-20.991739"
       cx="-13.999386"
       id="path4533"
       style="fill:#99aab5;fill-opacity:1;stroke:none;stroke-width:12;stroke-linecap:round;stroke-linejoin:miter;stroke-miterlimit:4;stroke-dasharray:none;stroke-opacity:1;paint-order:fill markers stroke" />
  </g>
</svg>
