<?xml version="1.0" encoding="UTF-8"?>
<svg version="1.1" viewBox="0 0 32 32" xmlns="http://www.w3.org/2000/svg">
 <path d="m6.6678 14.999h2.3332v9.3329h-2.3332z" fill="#666" stroke-width=".29165" style="paint-order:normal"/>
 <path d="m23 14.999h2.3332v9.3329h-2.3332z" fill="#666" stroke-width=".29165" style="paint-order:normal"/>
 <path d="m3.1796 8h25.639c0.65354 0 1.1796 0.52614 1.1796 1.1796v4.6405c0 0.65354-0.52614 1.1796-1.1796 1.1796h-25.639c-0.65353 0-1.1796-0.52611-1.1796-1.1796v-4.6405c0-0.65353 0.52614-1.1796 1.1796-1.1796z" fill="#ae8862" stroke-width=".29165" style="paint-order:normal"/>
 <path d="m4.3346 9.1666h23.332v1.1666h-23.332z" fill="#896847" stroke-width=".29165" style="paint-order:normal"/>
 <path d="m2.0014 18.499h27.999v1.1666h-27.999z" fill="#896847" stroke-width=".29165" style="paint-order:normal"/>
 <path d="m4.3346 12.666h23.332v1.1666h-23.332z" fill="#896847" stroke-width=".29165" style="paint-order:normal"/>
 <path d="m9.001 11.499a1.1666 1.1666 0 0 1-1.1666 1.1666 1.1666 1.1666 0 0 1-1.1666-1.1666 1.1666 1.1666 0 0 1 1.1666-1.1666 1.1666 1.1666 0 0 1 1.1666 1.1666" fill="#666" stroke-width=".29165" style="paint-order:normal"/>
 <path d="m25.334 11.499a1.1666 1.1666 0 0 1-1.1666 1.1666 1.1666 1.1666 0 0 1-1.1666-1.1666 1.1666 1.1666 0 0 1 1.1666-1.1666 1.1666 1.1666 0 0 1 1.1666 1.1666" fill="#666" stroke-width=".29165" style="paint-order:normal"/>
 <path d="m2.0014 17.332h27.999v1.1666h-27.999z" fill="#ae8862" stroke-width=".29165" style="paint-order:normal"/>
</svg>
