<?xml version="1.0" encoding="UTF-8"?>
<svg version="1.1" viewBox="0 0 32 32" xmlns="http://www.w3.org/2000/svg">
 <path d="m7.2409 3.2725h17.518c1.4934 0 2.6957 1.2023 2.6957 2.6957v20.064c0 1.4934-1.2023 2.6957-2.6957 2.6957h-17.518c-1.4934 0-2.6957-1.2023-2.6957-2.6957v-20.064c0-1.4934 1.2023-2.6957 2.6957-2.6957z" fill="#495aad" stroke="#fff" stroke-opacity=".98995" stroke-width="2.5455" style="paint-order:normal"/>
 <path d="m17.056 23.309a2.2889 2.2889 0 0 1-2.2889 2.2889 2.2889 2.2889 0 0 1-2.2889-2.2889 2.2889 2.2889 0 0 1 2.2889-2.2889 2.2889 2.2889 0 0 1 2.2889 2.2889m7.4593-4.14e-4a2.2889 2.2889 0 0 1-2.2889 2.2889 2.2889 2.2889 0 0 1-2.2889-2.2889 2.2889 2.2889 0 0 1 2.2889-2.2889 2.2889 2.2889 0 0 1 2.2889 2.2889m-8.4756-3.5255 2.8929 3.5128h3.3063l-2.273-3.5128h-3.9261m3.9261-0.82656 1.0071-0.0021m-2.0403 4.3414 1.0332-4.3394m-5.1661 4.3394 1.7223-5.1276h1.6531" fill="none" stroke="#fff" stroke-linecap="round" stroke-linejoin="round" stroke-width=".79547" style="paint-order:normal"/>
 <path d="m9.676 21.056v-12.728h3.8183s3.8183 0 3.8183 3.8183c0 3.8182-3.8183 3.8182-3.8183 3.8182h-3.8183" fill="none" stroke="#fff" stroke-linecap="square" stroke-width="2.5455"/>
</svg>
