<?xml version="1.0" encoding="UTF-8"?>
<svg version="1.1" viewBox="0 0 32 32" xmlns="http://www.w3.org/2000/svg">
 <path d="m10.495 13.204h11.197v4.4788h-11.197z" fill="#a8493e" stroke-width=".27993" style="paint-order:markers fill stroke"/>
 <path d="m16.091 2.0378c-3.0736 1.036e-4 -5.5655 2.492-5.5652 5.5658l1.0886 1.3964v15.401h8.9577v-15.676l1.0842-1.1219c1.97e-4 -3.0739-2.4915-5.5655-5.5652-5.5658z" fill="#cd584c" stroke-width=".27993" style="paint-order:markers fill stroke"/>
 <path d="m25.695 15.494a1.6955 1.6955 0 0 1-1.6955 1.6955 1.6955 1.6955 0 0 1-1.6955-1.6955 1.6955 1.6955 0 0 1 1.6955-1.6955 1.6955 1.6955 0 0 1 1.6955 1.6955" fill="#cd584c" stroke-width=".27993" style="paint-order:markers fill stroke"/>
 <path d="m21.692 12.085h2.2394v6.7183h-2.2394z" fill="#9e3d33" stroke-width=".27993" style="paint-order:markers fill stroke"/>
 <path d="m9.991 15.466a1.6955 1.6955 0 0 1-1.6955 1.6955 1.6955 1.6955 0 0 1-1.6955-1.6955 1.6955 1.6955 0 0 1 1.6955-1.6955 1.6955 1.6955 0 0 1 1.6955 1.6955" fill="#cd584c" stroke-width=".27993" style="paint-order:markers fill stroke"/>
 <path d="m8.2554 12.085h2.2394v6.7183h-2.2394z" fill="#9e3d33" stroke-width=".27993" style="paint-order:markers fill stroke"/>
 <path d="m19.48 17.72a3.4003 3.4003 0 0 1-3.4003 3.4003 3.4003 3.4003 0 0 1-3.4003-3.4003 3.4003 3.4003 0 0 1 3.4003-3.4003 3.4003 3.4003 0 0 1 3.4003 3.4003" fill="#9e3d33" stroke-width=".27993" style="paint-order:markers fill stroke"/>
 <path d="m9.0952 27.761h13.716v2.2394h-13.716z" fill="#9e3d33" stroke-width=".27993" style="paint-order:markers fill stroke"/>
 <path d="m9.3751 7.6058h13.437v2.2394h-13.437z" fill="#9e3d33" stroke-width=".27993" style="paint-order:markers fill stroke"/>
 <path d="m15.265 16.233 2.2943 0.61476-0.61476 2.2943-2.2943-0.61476z" fill="#cd584c" stroke-width=".27993" style="paint-order:markers fill stroke"/>
 <path d="m10.495 24.401h11.197v3.3591h-11.197z" fill="#a8493e" stroke-width=".27993" style="paint-order:markers fill stroke"/>
</svg>
