<?xml version="1.0" encoding="UTF-8"?>
<svg version="1.1" viewBox="0 0 32 32" xmlns="http://www.w3.org/2000/svg">
 <path d="m21.449 18.687-2.1388 2.6002 6.1267 5.0411a1.6837 1.6837 0 0 0 1.0697 0.38356h3.0443c0.60637-1.0589 1.108-2.185 1.4873-3.3668h-3.9275z" fill="#666" stroke-width=".2766"/>
 <path d="m11.042 21.633-2.0202-3.4991-4.0853 2.3587c0.095915 1.3589 0.58302 2.5873 2.0202 3.4991z" fill="#333" stroke="#333" stroke-linejoin="round" stroke-width="1.3468"/>
 <path d="m27.215 14.628-3.367-5.8318-15.163 8.7544c0.53298 2.1797 1.1805 4.3135 3.367 5.8318z" fill="#66666f" stroke="#666" stroke-linejoin="round" stroke-width="1.3468"/>
 <circle transform="rotate(-30)" cx="7.3957" cy="26.313" r="3.367" fill="#666" fill-rule="evenodd" stroke-width=".3367" style="paint-order:stroke fill markers"/>
 <path d="m2.6733 17.911 21.649-12.462c2.8741 1.6593 1.9639 4.3529 2.874 6.0402l-15.324 8.8864c-2.2295-1.2101-6.5775-0.80736-9.1988-2.4648z" fill="#ccc" stroke="#999" stroke-linejoin="round" stroke-width="1.3468"/>
 <circle transform="rotate(15)" cx="23.812" cy="13.333" r="1.5362" fill="#444" fill-rule="evenodd" stroke-width=".3367" style="paint-order:stroke fill markers"/>
 <rect x="29.234" y="20.917" width="2.766" height="8" fill="#666" fill-rule="evenodd"/>
</svg>
