<?xml version="1.0" encoding="UTF-8"?>
<svg width="256" height="256" version="1.1" viewBox="0 0 256 256" xmlns="http://www.w3.org/2000/svg">
 <circle cx="128" cy="128" r="128" fill="#fff" stroke-width="0"/>
 <path d="m128 76-40-40h80z"/>
 <path d="m128 180 40 40h-80z"/>
 <path d="m128 4c-68.179 0-124 55.821-124 124s55.821 124 124 124 124-55.821 124-124c2e-5 -68.179-55.821-124-124-124zm0 32.148c50.502 0 91.852 41.349 91.852 91.852 0 50.502-41.349 91.852-91.852 91.852-50.502 0-91.852-41.349-91.852-91.852 0-50.502 41.349-91.852 91.852-91.852z" fill="#c1121c"/>
</svg>
